<?xml version="1.0" encoding="UTF-8" standalone="no"?>
<svg
   width="64"
   version="1.1"
   height="64"
   id="svg2"
   inkscape:version="1.1.1 (3bf5ae0d25, 2021-09-20)"
   sodipodi:docname="system-file-manager.svg"
   xmlns:inkscape="http://www.inkscape.org/namespaces/inkscape"
   xmlns:sodipodi="http://sodipodi.sourceforge.net/DTD/sodipodi-0.dtd"
   xmlns:xlink="http://www.w3.org/1999/xlink"
   xmlns="http://www.w3.org/2000/svg"
   xmlns:svg="http://www.w3.org/2000/svg"
   xmlns:rdf="http://www.w3.org/1999/02/22-rdf-syntax-ns#"
   xmlns:cc="http://creativecommons.org/ns#"
   xmlns:dc="http://purl.org/dc/elements/1.1/">
  <sodipodi:namedview
     pagecolor="#ffffff"
     bordercolor="#666666"
     borderopacity="1"
     objecttolerance="10"
     gridtolerance="10"
     guidetolerance="10"
     inkscape:pageopacity="0"
     inkscape:pageshadow="2"
     inkscape:window-width="1920"
     inkscape:window-height="1005"
     id="namedview17"
     showgrid="true"
     inkscape:snap-bbox="true"
     inkscape:bbox-nodes="true"
     inkscape:zoom="8.0000004"
     inkscape:cx="8.9999996"
     inkscape:cy="34.812498"
     inkscape:current-layer="layer1"
     showguides="false"
     inkscape:guide-bbox="true"
     inkscape:object-nodes="true"
     inkscape:document-rotation="0"
     inkscape:window-x="0"
     inkscape:window-y="0"
     inkscape:window-maximized="1"
     inkscape:pagecheckerboard="0"
     inkscape:lockguides="false">
    <inkscape:grid
       type="xygrid"
       id="grid4145" />
    <sodipodi:guide
       position="26,40"
       orientation="0.70710678,0.70710678"
       id="guide4381"
       inkscape:locked="false" />
    <sodipodi:guide
       position="3,35"
       orientation="0.70710678,0.70710678"
       id="guide4401"
       inkscape:locked="false" />
  </sodipodi:namedview>
  <defs
     id="defs5455">
    <linearGradient
       inkscape:collect="always"
       id="linearGradient1038">
      <stop
         style="stop-color:#00bdbd;stop-opacity:1"
         offset="0"
         id="stop1034" />
      <stop
         style="stop-color:#80b3ff;stop-opacity:1"
         offset="1"
         id="stop1036" />
    </linearGradient>
    <linearGradient
       id="linearGradient4274"
       inkscape:collect="always">
      <stop
         id="stop4276"
         offset="0"
         style="stop-color:#ffffff;stop-opacity:1;" />
      <stop
         id="stop4278"
         offset="1"
         style="stop-color:#ffffff;stop-opacity:0.48760331" />
    </linearGradient>
    <linearGradient
       gradientUnits="userSpaceOnUse"
       x2="0"
       y2="509.8"
       y1="543.8"
       id="a">
      <stop
         id="stop4154"
         stop-color="#2f74c8" />
      <stop
         id="stop4156"
         stop-color="#4699d7"
         offset="1" />
    </linearGradient>
    <linearGradient
       gradientUnits="userSpaceOnUse"
       x2="428.57"
       y2="531.8"
       x1="414.57"
       y1="517.8"
       id="b">
      <stop
         id="stop4159"
         stop-color="#383e51" />
      <stop
         id="stop4161"
         stop-opacity="0"
         stop-color="#655c6f"
         offset="1" />
    </linearGradient>
    <linearGradient
       gradientUnits="userSpaceOnUse"
       x2="0"
       y2="508.8"
       y1="519.8"
       id="c">
      <stop
         id="stop4164"
         stop-opacity="0"
         stop-color="#60a5e7" />
      <stop
         id="stop4166"
         stop-opacity=".258"
         stop-color="#a6f3fb"
         offset="1" />
    </linearGradient>
    <linearGradient
       gradientTransform="translate(-390.57144,-497.798)"
       inkscape:collect="always"
       xlink:href="#linearGradient4274"
       id="linearGradient4272-3"
       x1="390.57144"
       y1="498.298"
       x2="442.57144"
       y2="498.298"
       gradientUnits="userSpaceOnUse" />
    <linearGradient
       gradientTransform="translate(-390.57144,-501.798)"
       inkscape:collect="always"
       xlink:href="#linearGradient4274"
       id="linearGradient4272-1"
       x1="390.57144"
       y1="498.298"
       x2="442.57144"
       y2="498.298"
       gradientUnits="userSpaceOnUse" />
    <linearGradient
       gradientTransform="translate(-6,-14)"
       inkscape:collect="always"
       xlink:href="#linearGradient4274"
       id="linearGradient4272-36"
       x1="390.57144"
       y1="498.298"
       x2="442.57144"
       y2="498.298"
       gradientUnits="userSpaceOnUse" />
    <linearGradient
       gradientUnits="userSpaceOnUse"
       x2="383.77145"
       y2="502.05301"
       y1="542.0531"
       id="a-2"
       x1="383.77145">
      <stop
         id="stop4304"
         stop-color="#197cf1" />
      <stop
         id="stop4306"
         stop-color="#20bcfa"
         offset="1" />
    </linearGradient>
    <linearGradient
       gradientUnits="userSpaceOnUse"
       x2="39.28"
       y2="36.633"
       x1="22.285"
       y1="18.71"
       id="b-9">
      <stop
         id="stop4309"
         stop-color="#292c2f" />
      <stop
         id="stop4311"
         stop-opacity="0"
         stop-color="#292c2f"
         offset="1" />
    </linearGradient>
    <linearGradient
       gradientTransform="translate(-386.72845,506.21259)"
       gradientUnits="userSpaceOnUse"
       x2="419.97357"
       y2="539.82538"
       x1="406.50085"
       y1="527.01447"
       id="c-1">
      <stop
         id="stop17"
         stop-color="#292c2f" />
      <stop
         id="stop19"
         stop-opacity="0"
         offset="1" />
    </linearGradient>
    <linearGradient
       gradientUnits="userSpaceOnUse"
       x2="0"
       y2="14"
       y1="34"
       id="b-8"
       gradientTransform="translate(-2.1584511,1006.0126)">
      <stop
         style="stop-color:#bfc9c9;stop-opacity:1"
         id="stop12"
         stop-color="#536161" />
      <stop
         style="stop-color:#fafafa;stop-opacity:1"
         id="stop14"
         stop-color="#f4f5f5"
         offset="1" />
    </linearGradient>
    <linearGradient
       x1="428.81628"
       gradientTransform="translate(-386.72845,506.21259)"
       gradientUnits="userSpaceOnUse"
       x2="388.86475"
       y2="499.67896"
       y1="547.63354"
       id="a-7">
      <stop
         id="stop7"
         stop-color="#2a2c2f" />
      <stop
         id="stop9"
         stop-color="#536161"
         offset="1" />
    </linearGradient>
    <linearGradient
       gradientTransform="matrix(1.299805,0,0,1.299805,-499.06524,339.52825)"
       gradientUnits="userSpaceOnUse"
       x2="419.97357"
       y2="539.82538"
       x1="406.50085"
       y1="527.01447"
       id="c-7">
      <stop
         id="stop17-5"
         stop-color="#292c2f" />
      <stop
         id="stop19-3"
         stop-opacity="0"
         offset="1" />
    </linearGradient>
    <linearGradient
       gradientUnits="userSpaceOnUse"
       x2="0"
       y2="14"
       y1="34"
       id="b-5"
       gradientTransform="matrix(1.299805,0,0,1.299805,0.8007798,989.17075)">
      <stop
         style="stop-color:#bfc9c9;stop-opacity:1"
         id="stop12-6"
         stop-color="#536161" />
      <stop
         style="stop-color:#fbfbfb;stop-opacity:1"
         id="stop14-2"
         stop-color="#f4f5f5"
         offset="1" />
    </linearGradient>
    <linearGradient
       x1="428.81628"
       gradientTransform="matrix(1.299805,0,0,1.299805,-499.06524,339.52825)"
       gradientUnits="userSpaceOnUse"
       x2="388.86475"
       y2="499.67896"
       y1="547.63354"
       id="a-9">
      <stop
         id="stop7-1"
         stop-color="#2a2c2f" />
      <stop
         id="stop9-2"
         stop-color="#536161"
         offset="1" />
    </linearGradient>
    <linearGradient
       xlink:href="#linearGradient1038"
       id="linearGradient4225-3"
       gradientUnits="userSpaceOnUse"
       x1="396.57101"
       y1="498.798"
       x2="426.57101"
       y2="511.798"
       gradientTransform="matrix(0.9655027,0,0,0.44404028,14.008346,285.06798)" />
    <linearGradient
       id="linearGradient1033"
       x1="0"
       x2="0"
       y1="0"
       y2="1">
      <stop
         offset="0%"
         style="stop-color:#007f98;stop-opacity:0.80000001"
         id="stop1029" />
      <stop
         offset="0.50102341"
         style="stop-color:#20ffff;stop-opacity:0.80000001"
         id="stop1133" />
      <stop
         offset="100%"
         style="stop-color:#ffaeff;stop-opacity:0.80000001"
         id="stop1031" />
    </linearGradient>
    <linearGradient
       inkscape:collect="always"
       xlink:href="#linearGradient1295"
       id="linearGradient1493"
       gradientUnits="userSpaceOnUse"
       x1="20.750315"
       y1="1025.9873"
       x2="-12.062732"
       y2="995.35931" />
    <linearGradient
       inkscape:collect="always"
       id="linearGradient1295">
      <stop
         style="stop-color:#1d212f;stop-opacity:1;"
         offset="0"
         id="stop1291" />
      <stop
         style="stop-color:#717da8;stop-opacity:1"
         offset="1"
         id="stop1293" />
    </linearGradient>
    <linearGradient
       inkscape:collect="always"
       xlink:href="#linearGradient952"
       id="linearGradient1297"
       x1="2.0000021"
       y1="1025.9873"
       x2="62.938519"
       y2="1025.9873"
       gradientUnits="userSpaceOnUse" />
    <linearGradient
       inkscape:collect="always"
       id="linearGradient952">
      <stop
         style="stop-color:#2e354b;stop-opacity:1"
         offset="0"
         id="stop948" />
      <stop
         style="stop-color:#717da8;stop-opacity:1"
         offset="1"
         id="stop950" />
    </linearGradient>
    <linearGradient
       inkscape:collect="always"
       xlink:href="#linearGradient1033"
       id="linearGradient1340"
       gradientUnits="userSpaceOnUse"
       gradientTransform="translate(1.9999616,-6.0000817)"
       x1="416.57144"
       y1="524.79816"
       x2="443.8533"
       y2="524.79816" />
  </defs>
  <metadata
     id="metadata5458">
    <rdf:RDF>
      <cc:Work
         rdf:about="">
        <dc:format>image/svg+xml</dc:format>
        <dc:type
           rdf:resource="http://purl.org/dc/dcmitype/StillImage" />
      </cc:Work>
    </rdf:RDF>
  </metadata>
  <g
     inkscape:label="Capa 1"
     inkscape:groupmode="layer"
     id="layer1"
     transform="translate(-384.57143,-483.798)">
    <g
       transform="matrix(1.0666486,0,0,1.1427479,382.43813,-653.64677)"
       id="g19">
      <rect
         width="60"
         height="42"
         x="2"
         y="1002.36"
         rx="6.5219998"
         ry="6.5619998"
         style="opacity:0.85;fill:url(#linearGradient1493);fill-opacity:1;stroke:none"
         id="rect11" />
      <path
         d="m 8.522,1002.36 c -3.613,0 -6.522,3.3302 -6.522,6.1002 v 0.8998 c 0,-2.77 2.909,-5 6.522,-5 h 46.957 c 3.613,0 6.522,2.23 6.522,5 v -0.8998 c 0,-2.77 -2.909,-6.1002 -6.522,-6.1002 z"
         style="opacity:0.2;fill:#ffffff;fill-opacity:1;stroke:none"
         id="path13"
         sodipodi:nodetypes="sscsscsss" />
      <path
         d="m 8.522,1013.3603 h 10.435 c 14.348,-1.333 11.86095,-6.5781 20.991951,-6.5781 h 15.361736 c 3.612989,0 6.689313,1.4143 6.689313,5.1083 v 25.8035 c 0,3.693 -2.908,6.667 -6.521,6.667 H 8.522 c -3.613,0 -6.522,-2.973 -6.522,-6.667 v -18.667 c 0,-4 2.609,-5.6667 6.522,-5.6667 z"
         style="opacity:0.6;fill:url(#linearGradient1297);fill-opacity:1;stroke:none"
         id="path15"
         sodipodi:nodetypes="scsssssssss" />
      <path
         d="m 2,1035.03 v 2.667 c 0,3.693 2.909,6.667 6.522,6.667 h 46.957 c 3.613,0 6.522,-2.973 6.522,-6.667 v -2.667 c 0,3.693 -2.909,7.333 -6.522,7.333 H 8.522 c -3.613,0 -6.522,-3.64 -6.522,-7.333 z"
         style="opacity:0.15;fill:#333333;fill-opacity:1;stroke:none"
         id="path17" />
    </g>
    <rect
       y="532.60034"
       x="424.57138"
       height="0.34285712"
       width="21.866692"
       id="rect4209"
       style="fill:#000000;fill-opacity:1;fill-rule:nonzero;stroke:none;stroke-width:0.4225;stroke-linecap:round;stroke-linejoin:round;stroke-miterlimit:4;stroke-dasharray:none;stroke-dashoffset:0;stroke-opacity:1" />
    <path
       d="m 445.633,514.44622 c 0.0524,-1.08359 -1.10314,-2.19975 -1.5732,-2.60447 -2.59794,-6.57322 -11.92578,-4.27558 -13.74715,-3.75347 -4.74563,-3.01567 -8.40101,0.19584 -8.43369,0.22864 -0.17631,0.15677 -0.25444,0.39819 -0.20235,0.63309 0.0523,0.2284 0.2284,0.41121 0.45703,0.47657 1.4623,0.41772 2.56544,1.83439 3.0287,2.51986 -3.40733,3.98836 -3.53132,9.67358 -3.49875,11.13594 -4.24955,3.5183 -2.90477,7.14124 -2.83964,7.29767 0.0914,0.22838 0.30027,0.39167 0.54845,0.4112 0.0195,0.007 0.0391,0.007 0.0586,0.007 0.22187,0 0.4375,-0.11745 0.55495,-0.31329 0.77682,-1.25315 1.7495,-2.01043 2.88522,-2.25186 2.02999,-0.43075 4.00136,0.88126 4.02092,0.89427 0.15,0.10443 0.33934,0.1435 0.52215,0.0979 0.1763,-0.0458 0.33282,-0.16329 0.41771,-0.32631 1.02474,-1.88651 -0.56146,-4.28866 -1.14898,-5.0785 0.75054,-3.18551 2.59146,-5.03265 4.03394,-6.03135 l -0.29375,0.48959 c -0.0914,0.16327 -0.11745,0.3526 -0.0588,0.52866 0.0523,0.18281 0.18281,0.32631 0.35261,0.40469 0.6396,0.28074 1.5339,0.30679 2.66986,0.0719 0.94666,-0.20235 1.86048,-0.69195 2.64378,-1.41645 1.02474,-0.94012 2.16725,-1.01173 2.16725,-1.01173 h 6.48859 c 0.15027,0 0.28724,-0.0521 0.40469,-0.13699 0.55495,-0.43724 0.71151,-0.91382 0.75054,-1.24015 0.0528,-0.43173 -0.0844,-0.79713 -0.20835,-1.03229 z m -4.58887,-0.70495 h -0.35912 c -0.35913,0 -0.65291,-0.29376 -0.65291,-0.6529 0,-0.35912 0.29376,-0.6529 0.65291,-0.6529 h 0.35912 c 0.36562,0 0.65289,0.29375 0.65289,0.6529 0,0.35912 -0.28725,0.6529 -0.65289,0.6529 z"
       id="path49-5"
       style="fill:url(#linearGradient1340);fill-opacity:1;stroke-width:0.0641102" />
  </g>
</svg>
