<?xml version="1.0" encoding="UTF-8" standalone="no"?>
<svg
   width="49.899956"
   height="46.000031"
   viewBox="0 0 49.899957 46.000031"
   id="svg2"
   version="1.1"
   inkscape:version="1.2.1 (9c6d41e410, 2022-07-14)"
   sodipodi:docname="arrows.svg"
   xmlns:inkscape="http://www.inkscape.org/namespaces/inkscape"
   xmlns:sodipodi="http://sodipodi.sourceforge.net/DTD/sodipodi-0.dtd"
   xmlns="http://www.w3.org/2000/svg"
   xmlns:svg="http://www.w3.org/2000/svg"
   xmlns:rdf="http://www.w3.org/1999/02/22-rdf-syntax-ns#"
   xmlns:cc="http://creativecommons.org/ns#">
  <defs
     id="defs4">
    <style
       type="text/css"
       id="current-color-scheme" />
  </defs>
  <sodipodi:namedview
     id="base"
     pagecolor="#ffffff"
     bordercolor="#000000"
     borderopacity="1"
     inkscape:pageopacity="0"
     inkscape:pageshadow="2"
     inkscape:zoom="8.0000001"
     inkscape:cx="25.9375"
     inkscape:cy="22.0625"
     inkscape:document-units="px"
     inkscape:current-layer="layer1"
     showgrid="false"
     units="px"
     inkscape:showpageshadow="true"
     borderlayer="true"
     inkscape:window-width="1920"
     inkscape:window-height="1002"
     inkscape:window-x="0"
     inkscape:window-y="0"
     inkscape:window-maximized="1"
     fit-margin-top="0"
     fit-margin-left="0"
     fit-margin-right="0"
     fit-margin-bottom="0"
     objecttolerance="10.0"
     gridtolerance="10.0"
     guidetolerance="10.0"
     inkscape:pagecheckerboard="0"
     scale-x="1"
     inkscape:lockguides="true"
     inkscape:deskcolor="#d1d1d1">
    <inkscape:grid
       type="xygrid"
       id="grid4160"
       empspacing="2"
       originx="-10.141642"
       originy="-24.012543" />
  </sodipodi:namedview>
  <metadata
     id="metadata7">
    <rdf:RDF>
      <cc:Work
         rdf:about="" />
    </rdf:RDF>
  </metadata>
  <g
     inkscape:label="Capa 1"
     inkscape:groupmode="layer"
     id="layer1"
     transform="translate(-10.141637,-261.74591)">
    <g
       id="right-arrow"
       transform="matrix(0,3.779526,-3.779526,0,1023.5608,218.74594)"
       style="stroke-width:0.264583">
      <rect
         style="opacity:1;fill:none;fill-opacity:1;stroke:none;stroke-width:0.0099001;stroke-linecap:square;stroke-linejoin:miter;stroke-miterlimit:4;stroke-dasharray:none;stroke-dashoffset:0;stroke-opacity:1"
         id="rect4168"
         width="3.7041669"
         height="3.7041664"
         x="254.93123"
         y="15.610413"
         transform="matrix(0,1,1,0,0,0)" />
      <path
         style="fill:#d6dbf1;fill-opacity:1;fill-rule:evenodd;stroke:none;stroke-width:0.0700043px;stroke-linecap:butt;stroke-linejoin:miter;stroke-opacity:1"
         d="m 17.462495,256.25414 -1.058333,1.05833 h 2.116667 z"
         id="path4170"
         inkscape:connector-curvature="0"
         class="ColorScheme-Text" />
    </g>
    <g
       transform="matrix(0,3.779526,3.779526,0,-953.37757,218.74594)"
       id="left-arrow"
       style="stroke-width:0.264583">
      <rect
         transform="matrix(0,1,1,0,0,0)"
         y="15.610413"
         x="254.93123"
         height="3.7041664"
         width="3.7041669"
         id="rect4174"
         style="opacity:1;fill:none;fill-opacity:1;stroke:none;stroke-width:0.0099001;stroke-linecap:square;stroke-linejoin:miter;stroke-miterlimit:4;stroke-dasharray:none;stroke-dashoffset:0;stroke-opacity:1" />
      <path
         inkscape:connector-curvature="0"
         id="path4176"
         d="m 17.462495,256.25414 -1.058333,1.05833 h 2.116667 z"
         style="fill:#d6dbf1;fill-opacity:1;fill-rule:evenodd;stroke:none;stroke-width:0.0700043px;stroke-linecap:butt;stroke-linejoin:miter;stroke-opacity:1"
         class="ColorScheme-Text" />
    </g>
    <g
       id="up-arrow">
      <rect
         transform="matrix(0,1,1,0,0,0)"
         y="27.041636"
         x="261.74591"
         height="15.999997"
         width="16"
         id="rect4241"
         style="fill:none;fill-opacity:1;stroke:none;stroke-width:0.0427631;stroke-linecap:square;stroke-linejoin:miter;stroke-miterlimit:4;stroke-dasharray:none;stroke-dashoffset:0;stroke-opacity:1" />
      <path
         d="m 35.416635,272.66252 v -5.83322 c 0,-0.74435 0.397107,-1.43205 1.041714,-1.80428 0.644536,-0.37215 1.43875,-0.37215 2.083214,0 0.644607,0.37221 1.041714,1.05991 1.041714,1.80428 v 5.83322 c 0,0.74435 -0.397107,1.43205 -1.041714,1.80428 -0.644536,0.37214 -1.43875,0.37214 -2.083214,0 -0.644607,-0.37221 -1.041714,-1.05991 -1.041714,-1.80428 z m 3.333392,-5.83322 c 0,-0.44664 -0.238285,-0.85923 -0.625,-1.08259 -0.386714,-0.22328 -0.863285,-0.22328 -1.249999,0 -0.386715,0.22336 -0.625,0.63595 -0.625,1.08259 v 5.83322 c 0,0.44664 0.238285,0.85923 0.625,1.08258 0.386714,0.22329 0.863285,0.22329 1.249999,0 0.386715,-0.22335 0.625,-0.63594 0.625,-1.08258 z"
         id="path2"
         style="fill:#d6dbf1;fill-opacity:1;stroke-width:0.0178571" />
      <path
         d="m 30.399637,272.66252 v -5.83322 c 0,-0.74435 0.397107,-1.43205 1.041714,-1.80428 0.644536,-0.37215 1.43875,-0.37215 2.083214,0 0.644607,0.37221 1.041714,1.05991 1.041714,1.80428 v 5.83322 c 0,0.74435 -0.397107,1.43205 -1.041714,1.80428 -0.644536,0.37214 -1.43875,0.37214 -2.083214,0 -0.644607,-0.37221 -1.041714,-1.05991 -1.041714,-1.80428 z m 3.333392,-5.83322 c 0,-0.44664 -0.238285,-0.85923 -0.625,-1.08259 -0.386714,-0.22328 -0.863285,-0.22328 -1.249999,0 -0.386715,0.22336 -0.625,0.63595 -0.625,1.08259 v 5.83322 c 0,0.44664 0.238285,0.85923 0.625,1.08258 0.386714,0.22329 0.863285,0.22329 1.249999,0 0.386715,-0.22335 0.625,-0.63594 0.625,-1.08258 z"
         id="path2-3"
         style="fill:#d6dbf1;fill-opacity:1;stroke-width:0.0178571" />
      <path
         d="m 36.666635,266.8293 c 0,-0.22105 0.08782,-0.43296 0.244071,-0.58928 0.15632,-0.15625 0.368304,-0.24407 0.589286,-0.24407 0.220982,0 0.432964,0.0878 0.589285,0.24407 0.15625,0.15632 0.244072,0.36823 0.244072,0.58928 0,0.22098 -0.08782,0.43297 -0.244072,0.58922 -0.156319,0.15632 -0.368303,0.24407 -0.589285,0.24407 -0.220982,0 -0.432965,-0.0878 -0.589286,-0.24407 -0.15625,-0.15625 -0.244071,-0.36824 -0.244071,-0.58922 z"
         id="path6"
         style="fill:#d6dbf1;fill-opacity:1;stroke-width:0.0178571" />
      <path
         d="m 31.665743,272.66252 c 0,-0.22099 0.08782,-0.43297 0.244071,-0.58922 0.15632,-0.15632 0.368304,-0.24407 0.589286,-0.24407 0.220982,0 0.432964,0.0878 0.589285,0.24407 0.15625,0.15625 0.244072,0.36823 0.244072,0.58922 0,0.22105 -0.08782,0.43296 -0.244072,0.58928 -0.156319,0.15625 -0.368303,0.24407 -0.589285,0.24407 -0.220982,0 -0.432965,-0.0878 -0.589286,-0.24407 -0.15625,-0.15632 -0.244071,-0.36823 -0.244071,-0.58928 z"
         id="path8"
         style="fill:#d6dbf1;fill-opacity:1;stroke-width:0.0178571" />
    </g>
    <g
       id="down-arrow">
      <rect
         style="fill:none;fill-opacity:1;stroke:none;stroke-width:0.0427632;stroke-linecap:square;stroke-linejoin:miter;stroke-miterlimit:4;stroke-dasharray:none;stroke-dashoffset:0;stroke-opacity:1"
         id="rect4162"
         width="16"
         height="16.000006"
         x="-307.74594"
         y="27.041637"
         transform="rotate(-90)" />
      <path
         d="m 39.583278,296.82933 v 5.83322 c 0,0.74435 -0.397107,1.43205 -1.041714,1.80428 -0.644535,0.37215 -1.43875,0.37215 -2.083214,0 -0.644607,-0.37221 -1.041714,-1.05991 -1.041714,-1.80428 v -5.83322 c 0,-0.74435 0.397107,-1.43205 1.041714,-1.80428 0.644536,-0.37214 1.43875,-0.37214 2.083214,0 0.644607,0.37221 1.041714,1.05991 1.041714,1.80428 z m 0,5.83322 z"
         id="path4-5"
         sodipodi:nodetypes="ssccssccsccccc"
         style="fill:#d6dbf1;fill-opacity:1;stroke-width:0.0178571" />
      <path
         d="m 38.334171,296.82933 c 0,0.22099 -0.08782,0.43297 -0.244071,0.58922 -0.15632,0.15632 -0.368304,0.24407 -0.589286,0.24407 -0.220982,0 -0.432964,-0.0878 -0.589285,-0.24407 -0.15625,-0.15625 -0.244072,-0.36823 -0.244072,-0.58922 0,-0.22105 0.08782,-0.43296 0.244072,-0.58928 0.156319,-0.15625 0.368303,-0.24407 0.589285,-0.24407 0.220982,0 0.432965,0.0878 0.589286,0.24407 0.15625,0.15632 0.244071,0.36823 0.244071,0.58928 z"
         id="path8-5"
         style="fill:#181c27;fill-opacity:1;stroke-width:0.0178571" />
      <path
         d="m 34.608279,296.82933 v 5.83322 c 0,0.74435 -0.397107,1.43205 -1.041714,1.80428 -0.644535,0.37214 -1.43875,0.37214 -2.083214,0 -0.644607,-0.37221 -1.041714,-1.05991 -1.041714,-1.80428 v -5.83322 c 0,-0.74435 0.397107,-1.43205 1.041714,-1.80428 0.644536,-0.37215 1.43875,-0.37215 2.083214,0 0.644607,0.37221 1.041714,1.05991 1.041714,1.80428 z m 0,5.83322 z"
         id="path4-5-6"
         sodipodi:nodetypes="ssccssccsccccc"
         style="fill:#d6dbf1;fill-opacity:1;stroke-width:0.0178571" />
      <path
         d="m 33.358351,302.62923 c 0,0.22105 -0.08782,0.43296 -0.244071,0.58928 -0.15632,0.15625 -0.368304,0.24407 -0.589286,0.24407 -0.220982,0 -0.432964,-0.0878 -0.589285,-0.24407 -0.15625,-0.15632 -0.244072,-0.36823 -0.244072,-0.58928 0,-0.22098 0.08782,-0.43297 0.244072,-0.58922 0.156319,-0.15632 0.368303,-0.24407 0.589285,-0.24407 0.220982,0 0.432965,0.0878 0.589286,0.24407 0.15625,0.15625 0.244071,0.36824 0.244071,0.58922 z"
         id="path6-3-7"
         style="fill:#181c27;fill-opacity:1;stroke-width:0.0178571" />
    </g>
  </g>
</svg>
