<?xml version="1.0" encoding="UTF-8" standalone="no"?>
<svg
   version="1.0"
   width="19"
   height="31"
   id="svg11324"
   sodipodi:docname="pager.svg"
   inkscape:version="1.1.1 (3bf5ae0d25, 2021-09-20)"
   xmlns:inkscape="http://www.inkscape.org/namespaces/inkscape"
   xmlns:sodipodi="http://sodipodi.sourceforge.net/DTD/sodipodi-0.dtd"
   xmlns:xlink="http://www.w3.org/1999/xlink"
   xmlns="http://www.w3.org/2000/svg"
   xmlns:svg="http://www.w3.org/2000/svg"
   xmlns:rdf="http://www.w3.org/1999/02/22-rdf-syntax-ns#"
   xmlns:cc="http://creativecommons.org/ns#"
   xmlns:dc="http://purl.org/dc/elements/1.1/">
  <sodipodi:namedview
     pagecolor="#ffffff"
     bordercolor="#000000"
     borderopacity="1"
     objecttolerance="10"
     gridtolerance="10"
     guidetolerance="10"
     inkscape:pageopacity="0"
     inkscape:pageshadow="2"
     inkscape:window-width="1920"
     inkscape:window-height="1007"
     id="namedview40"
     showgrid="false"
     inkscape:zoom="11.313709"
     inkscape:cx="11.667261"
     inkscape:cy="13.921164"
     inkscape:window-x="0"
     inkscape:window-y="0"
     inkscape:window-maximized="1"
     inkscape:current-layer="svg11324"
     inkscape:lockguides="false"
     inkscape:document-rotation="0"
     inkscape:showpageshadow="false"
     inkscape:pagecheckerboard="0">
    <inkscape:grid
       type="xygrid"
       id="grid864"
       originx="-4.9609986"
       originy="-12.008" />
  </sodipodi:namedview>
  <metadata
     id="metadata3500">
    <rdf:RDF>
      <cc:Work
         rdf:about="">
        <dc:format>image/svg+xml</dc:format>
        <dc:type
           rdf:resource="http://purl.org/dc/dcmitype/StillImage" />
      </cc:Work>
    </rdf:RDF>
  </metadata>
  <defs
     id="defs11327">
    <radialGradient
       inkscape:collect="always"
       xlink:href="#linearGradient2382"
       id="radialGradient2384"
       cx="-574.03333"
       cy="182.8671"
       fx="-574.03333"
       fy="182.8671"
       r="0.75"
       gradientTransform="matrix(7.2037581e-6,2.0208136,-1.0687023,5.0896673e-6,180.44262,1170.5368)"
       gradientUnits="userSpaceOnUse" />
    <linearGradient
       inkscape:collect="always"
       id="linearGradient2382">
      <stop
         style="stop-color:#00a3cc;stop-opacity:1"
         offset="0"
         id="stop2378" />
      <stop
         style="stop-color:#00a3cc;stop-opacity:0.012"
         offset="1"
         id="stop2380" />
    </linearGradient>
  </defs>
  <rect
     width="1"
     height="0.99414408"
     x="0"
     y="0"
     id="hint-stretch-borders"
     style="opacity:0.01;fill:#008080;fill-opacity:1;stroke:none" />
  <g
     id="normal-bottomleft"
     transform="translate(-19.999999,-4.1)"
     style="fill:#20212b;fill-opacity:1">
    <path
       d="m 26,13 c 0,0.619197 0.397424,1 1,1 v 0 -1 z"
       id="86868"
       style="fill:#3b5a87;fill-opacity:0.4;stroke:none"
       sodipodi:nodetypes="ccccc" />
  </g>
  <g
     id="normal-bottom"
     transform="translate(-19.999999,-4.1)"
     style="fill:#20212b;fill-opacity:1">
    <rect
       width="5"
       height="1"
       x="27"
       y="13"
       id="65756756"
       style="fill:#3b5a87;fill-opacity:0.4;stroke:none" />
  </g>
  <path
     d="m 7,2.9 c -0.635367,0 -1,0.3843226 -1,1 h 1 z"
     id="normal-topleft"
     style="fill:#3b5a87;fill-opacity:0.4;stroke:none"
     sodipodi:nodetypes="ccccc" />
  <path
     d="m 12,2.9 v 1 h 1 c 0,-0.6761489 -0.396755,-1 -1,-1 z"
     id="normal-topright"
     style="fill:#3b5a87;fill-opacity:0.4;stroke:none"
     sodipodi:nodetypes="cccc" />
  <path
     d="m 7,2.9 v 1 h 5 v -1 z"
     id="normal-top"
     style="fill:#3b5a87;fill-opacity:0.4;stroke:none" />
  <path
     d="m 6,12.9 v 4.992005 l 1,0.008 V 12.9 Z"
     id="hover-left"
     style="fill:#3b5a87;fill-opacity:0.4;stroke:none;stroke-width:1.01927"
     sodipodi:nodetypes="ccccc" />
  <path
     d="m 13,12.900009 v 4.999999 h -1 v -4.999999 z"
     id="hover-right"
     style="fill:#3b5a87;fill-opacity:0.4;stroke:none;stroke-width:0.999998" />
  <path
     d="m 6,17.9 c 0,0.49632 0.3579576,0.984066 1,0.992011 v 0 -0.992055 z"
     id="hover-bottomleft"
     style="fill:#3b5a87;fill-opacity:0.4;stroke:none;stroke-width:1.01603"
     sodipodi:nodetypes="ccccc" />
  <path
     d="m 12,17.900009 v 0.99999 10e-6 c 0.51945,-0.008 1,-0.466857 1,-1 z"
     id="hover-bottomright"
     style="fill:#3b5a87;fill-opacity:0.4;stroke:none;stroke-width:1"
     sodipodi:nodetypes="ccccc" />
  <rect
     width="5"
     height="1"
     x="7.0000238"
     y="17.90003"
     id="hover-bottom"
     style="fill:#3b5a87;fill-opacity:0.4;stroke:none;stroke-width:0.999994"
     ry="0" />
  <path
     d="m 6,12.892 v 0 L 7,12.9 v -1 C 6.4255369,11.892 6,12.326364 6,12.892 Z"
     id="hover-topleft"
     style="fill:#3b5a87;fill-opacity:0.4;stroke:none;stroke-width:1.02009"
     sodipodi:nodetypes="ccccc" />
  <path
     d="m 12,11.900009 v 1 l 1,-0.008 -10e-7,-10e-7 C 13,12.318195 12.568223,11.892 12,11.900009 Z"
     id="hover-topright"
     style="fill:#3b5a87;fill-opacity:0.4;stroke:none;stroke-width:0.981052"
     sodipodi:nodetypes="ccccc" />
  <path
     d="m 7,11.900009 v 1 h 5 v -1 z"
     id="hover-top"
     style="fill:#3b5a87;fill-opacity:0.4;stroke:none" />
  <path
     d="m 6,21.9 v 4.999999 H 7 V 21.9 Z"
     id="active-left"
     style="fill:#3b5a87;fill-opacity:0.4;stroke:none" />
  <path
     d="m 13,21.9 v 4.999999 H 12 V 21.9 Z"
     id="active-right"
     style="fill:#3b5a87;fill-opacity:0.4;stroke:none" />
  <path
     d="m 6,26.9 c 0,0.625125 0.398046,1 0.999997,1.000011 L 7,27.9 v -1 z"
     id="active-bottomleft"
     style="fill:#3b5a87;fill-opacity:0.4;stroke:none"
     sodipodi:nodetypes="ccccc" />
  <path
     d="m 12,26.9 v 1 0 c 0.616538,0 1,-0.441036 1,-1 z"
     id="active-bottomright"
     style="fill:#3b5a87;fill-opacity:0.4;stroke:none"
     sodipodi:nodetypes="ccccc" />
  <rect
     width="5"
     height="1"
     x="6.9999976"
     y="26.900024"
     id="active-bottom"
     style="fill:#3b5a87;fill-opacity:0.4;stroke:none" />
  <path
     d="m 7,20.9 c -0.574007,0 -1,0.505231 -1,1 h 1 z"
     id="active-topleft"
     style="fill:#3b5a87;fill-opacity:0.4;stroke:none"
     sodipodi:nodetypes="ccccc" />
  <path
     d="m 12,20.9 v 1 h 1 c 0,-0.519817 -0.423416,-1 -1,-1 z"
     id="active-topright"
     style="fill:#3b5a87;fill-opacity:0.4;stroke:none"
     sodipodi:nodetypes="ccccc" />
  <path
     d="m 7,20.9 v 1 h 5 v -1 z"
     id="active-top"
     style="fill:#3b5a87;fill-opacity:0.4;stroke:none" />
  <g
     transform="translate(-19.985223,-4.099661)"
     id="normal-center"
     style="fill:#20212b;fill-opacity:1">
    <rect
       width="5"
       height="5.0000005"
       x="26.985224"
       y="7.999661"
       id="ergrerg"
       style="opacity:1;fill:#4e5a7e;fill-opacity:0.2;stroke:none;stroke-width:0.998918" />
  </g>
  <g
     id="normal-bottomright"
     transform="translate(-19.999999,-4.1)"
     style="fill:#20212b;fill-opacity:1">
    <path
       d="m 32,13 v 1 0 c 0.640132,0 1,-0.350811 1,-1 z"
       id="8979879"
       style="fill:#3b5a87;fill-opacity:0.4;stroke:none"
       sodipodi:nodetypes="ccccc" />
  </g>
  <g
     id="normal-right"
     transform="translate(-19.999999,-4.1)"
     style="fill:#20212b;fill-opacity:1">
    <path
       d="m 33,8 v 4.999999 H 32 V 8 Z"
       id="nofh"
       style="fill:#3b5a87;fill-opacity:0.4;stroke:none" />
  </g>
  <g
     transform="translate(-25.999999,-4.1)"
     id="normal-left"
     style="fill:#20212b;fill-opacity:1">
    <path
       d="m 33,8 v 4.999999 H 32 V 8 Z"
       id="path6648"
       style="fill:#3b5a87;fill-opacity:0.4;stroke:none" />
  </g>
  <rect
     width="5"
     height="5"
     x="7.0000019"
     y="21.900013"
     id="active-center"
     style="opacity:0.1;fill:#4d94ff;fill-opacity:1;stroke:none" />
  <g
     id="hover-center"
     transform="translate(-1,2.9)">
    <rect
       width="5"
       height="5.000001"
       x="7.999999"
       y="10.00001"
       id="rect6882"
       style="opacity:0.1;fill:#00b2b2;fill-opacity:0.05;stroke:none;stroke-width:1.00334" />
    <rect
       style="opacity:0.01;fill:url(#radialGradient2384);fill-opacity:1;stroke-width:0.0999996;stroke-linecap:round;stroke-linejoin:round;paint-order:markers stroke fill"
       id="rect1496"
       width="0.40000001"
       height="5.0000005"
       x="-14.992"
       y="8.0390015"
       ry="0.19199975"
       rx="0.2"
       transform="rotate(-90)" />
  </g>
</svg>
