<?xml version="1.0" encoding="UTF-8" standalone="no"?>
<svg
   width="32"
   height="32"
   version="1.1"
   id="svg12"
   sodipodi:docname="akonadi.svg"
   inkscape:version="1.2.1 (9c6d41e410, 2022-07-14)"
   xmlns:inkscape="http://www.inkscape.org/namespaces/inkscape"
   xmlns:sodipodi="http://sodipodi.sourceforge.net/DTD/sodipodi-0.dtd"
   xmlns="http://www.w3.org/2000/svg"
   xmlns:svg="http://www.w3.org/2000/svg"
   xmlns:rdf="http://www.w3.org/1999/02/22-rdf-syntax-ns#"
   xmlns:cc="http://creativecommons.org/ns#"
   xmlns:dc="http://purl.org/dc/elements/1.1/">
  <style
     id="current-color-scheme"
     type="text/css">
.ColorScheme-Text { 
    color:#eceff4;
}
</style>
  <g
     id="akonadi">
    <path
       style="opacity:0.00100002"
       d="M 0,0 H 32.000001 V 32.000001 H 0 Z"
       id="path7"
       class="ColorScheme-Text" />
    <path
       d="m 28.701147,17.495821 -10.898785,4.589143 c -0.57209,0.218893 -1.189768,0.344036 -1.837608,0.344036 -0.646553,0 -1.263428,-0.126 -1.832785,-0.342375 L 3.226647,17.494964 c -0.181607,-0.0787 -0.349875,-0.192107 -0.498,-0.339428 -0.638196,-0.637822 -0.638196,-1.672018 0,-2.310268 0.151072,-0.150643 0.325982,-0.265339 0.509304,-0.344036 L 4.60579,13.925768 c 0.126804,-0.07618 0.27284,-0.122197 0.430232,-0.122197 0.466179,0 0.844072,0.377518 0.844072,0.84375 0,0.377947 -0.249,0.693108 -0.591322,0.801483 l -0.427714,0.177857 c -0.134303,0.072 -0.226393,0.211339 -0.226393,0.373768 0,0.158625 0.08748,0.295875 0.217179,0.369964 L 14.575272,20.428 c 0.02802,0.01045 0.05271,0.01634 0.08079,0.02802 0.403446,0.166982 0.8445,0.258214 1.308643,0.258214 0.459482,0 0.897696,-0.09043 1.298571,-0.254464 0.03348,-0.01339 0.06321,-0.02218 0.09584,-0.03471 l 9.718178,-4.054715 c 0.12975,-0.07409 0.217232,-0.211339 0.217232,-0.369964 0,-0.163232 -0.09252,-0.301768 -0.226821,-0.373768 l -0.428518,-0.178714 c -0.341464,-0.107572 -0.590464,-0.423964 -0.590464,-0.800625 0,-0.466232 0.377893,-0.84375 0.844125,-0.84375 0.159428,0 0.307553,0.04687 0.434357,0.123857 l 1.367196,0.575893 c 0.182893,0.0787 0.355715,0.192107 0.505554,0.341946 0.638196,0.63825 0.638196,1.672447 0,2.310268 -0.148982,0.148232 -0.317143,0.261643 -0.498804,0.340339 z m 0.0021,-5.573089 -10.915554,4.595839 c -0.566625,0.215143 -1.180125,0.339 -1.822929,0.339 -0.640714,0 -1.252125,-0.122625 -1.818107,-0.336053 L 3.224558,11.922732 c -0.180804,-0.0795 -0.347786,-0.19125 -0.495911,-0.338143 -0.638196,-0.63825 -0.638196,-1.67325 0,-2.3115 0.148982,-0.14775 0.318054,-0.259071 0.50175,-0.339857 L 14.148254,4.336536 C 14.713862,4.123054 15.32404,4 15.964754,4 c 0.641947,0 1.254215,0.123054 1.821268,0.338143 l 1.016572,0.427714 c 0.349018,0.108804 0.603482,0.430661 0.603482,0.814875 0,0.472929 -0.383357,0.857572 -0.857089,0.857572 -0.145233,0 -0.278733,-0.04061 -0.398786,-0.103822 L 17.343737,5.998 C 17.316097,5.98755 17.291017,5.98086 17.263377,5.96913 16.862502,5.804666 16.424288,5.714237 15.964806,5.714237 c -0.464143,0 -0.905196,0.09252 -1.308643,0.258643 -0.02304,0.0096 -0.04312,0.01462 -0.06654,0.02304 l -9.733125,4.06141 c -0.130553,0.07323 -0.221785,0.210536 -0.221785,0.372054 0,0.158625 0.08748,0.295071 0.215946,0.369964 l 9.73725,4.061357 c 0.02304,0.0096 0.04393,0.01425 0.0682,0.02384 0.403446,0.166178 0.8445,0.258643 1.308642,0.258643 0.459483,0 0.897697,-0.09043 1.298572,-0.254893 0.02845,-0.0113 0.05443,-0.01886 0.08245,-0.02973 l 9.732429,-4.059268 c 0.128893,-0.07489 0.216375,-0.21134 0.216375,-0.369965 0,-0.161571 -0.09123,-0.297964 -0.222214,-0.372053 L 25.751666,9.505654 C 25.426059,9.38844 25.191684,9.080832 25.191684,8.714618 c 0,-0.465803 0.377518,-0.84375 0.843696,-0.84375 0.159483,0 0.308465,0.0473 0.435643,0.123857 l 2.231411,0.940018 c 0.181661,0.07784 0.349393,0.19125 0.497571,0.338143 0.638197,0.63825 0.638197,1.67325 0,2.3115 -0.148178,0.147054 -0.315964,0.258804 -0.496767,0.338357 z M 21.536139,7.857571 c -0.473732,0 -0.857464,-0.383357 -0.857464,-0.857142 0,-0.473786 0.383732,-0.857143 0.857464,-0.857143 0.472447,0 0.85709,0.383357 0.85709,0.857143 0,0.473785 -0.384643,0.857142 -0.85709,0.857142 z M 3.237951,20.072286 4.611683,19.494732 c 0.124714,-0.07366 0.268661,-0.118875 0.424339,-0.118875 0.466179,0 0.844072,0.377518 0.844072,0.84375 0,0.381268 -0.255697,0.700607 -0.603857,0.804429 l -0.415179,0.173678 c -0.134303,0.07243 -0.226393,0.210536 -0.226393,0.373768 0,0.159857 0.08748,0.296304 0.217179,0.370393 l 9.737678,4.063071 c 0.02346,0.0088 0.0435,0.01339 0.06654,0.02304 0.403446,0.166179 0.8445,0.258643 1.308643,0.258643 0.459482,0 0.897696,-0.09123 1.298571,-0.254893 0.02764,-0.0113 0.05271,-0.018 0.08036,-0.02887 l 9.733661,-4.060982 c 0.12975,-0.07409 0.217232,-0.210536 0.217232,-0.370393 0,-0.162375 -0.09252,-0.301339 -0.226821,-0.373768 l -0.418072,-0.173678 c -0.347732,-0.105911 -0.600964,-0.423965 -0.600964,-0.804429 0,-0.466232 0.377893,-0.84375 0.844125,-0.84375 0.153536,0 0.295018,0.04393 0.418875,0.115072 l 1.382732,0.582589 c 0.184554,0.0795 0.354857,0.192107 0.505554,0.34275 0.638196,0.63825 0.638196,1.672446 0,2.310696 -0.146893,0.146893 -0.315107,0.258215 -0.492161,0.33734 L 17.791433,27.661 C 17.222719,27.877804 16.60879,28 15.964754,28 15.321951,28 14.708879,27.876143 14.141612,27.661857 L 3.218719,23.063071 c -0.178661,-0.0795 -0.343982,-0.190017 -0.490018,-0.336053 -0.638197,-0.63825 -0.638197,-1.672447 0,-2.310697 0.151018,-0.150696 0.325982,-0.264107 0.50925,-0.344035 z"
       id="path2-36"
       style="stroke-width:0.0535714;fill-opacity:1;fill:#d6dbf1"
       class="ColorScheme-Text" />
  </g>
  <metadata
     id="metadata18">
    <rdf:RDF>
      <cc:Work
         rdf:about="">
        <dc:format>image/svg+xml</dc:format>
        <dc:type
           rdf:resource="http://purl.org/dc/dcmitype/StillImage" />
      </cc:Work>
    </rdf:RDF>
  </metadata>
  <defs
     id="defs16" />
  <sodipodi:namedview
     pagecolor="#ffffff"
     bordercolor="#000000"
     borderopacity="1"
     objecttolerance="10"
     gridtolerance="10"
     guidetolerance="10"
     inkscape:pageopacity="0"
     inkscape:pageshadow="2"
     inkscape:window-width="1920"
     inkscape:window-height="1002"
     id="namedview14"
     showgrid="false"
     inkscape:zoom="9.8125"
     inkscape:cx="13.605096"
     inkscape:cy="17.477707"
     inkscape:window-x="0"
     inkscape:window-y="0"
     inkscape:window-maximized="1"
     inkscape:current-layer="svg12"
     inkscape:document-rotation="0"
     inkscape:lockguides="true"
     inkscape:showpageshadow="false"
     inkscape:pagecheckerboard="0"
     inkscape:deskcolor="#d1d1d1">
    <inkscape:grid
       type="xygrid"
       id="grid907"
       originx="32.000001"
       originy="10.000001" />
  </sodipodi:namedview>
  <g
     id="22-22-akonadi"
     transform="translate(32.000001,10.000001)">
    <path
       style="opacity:0.00100002"
       d="M 0,0 H 22 V 22 H 0 Z"
       id="path2" />
    <path
       d="m 19.484098,11.997214 -7.265857,3.059429 C 11.836848,15.202571 11.425063,15.286 10.993169,15.286 c -0.431035,0 -0.842285,-0.084 -1.2218563,-0.22825 L 2.501098,11.996643 c -0.1210713,-0.05247 -0.23325,-0.128072 -0.332,-0.226286 -0.425464,-0.425214 -0.425464,-1.114678 0,-1.540178 0.1007147,-0.100429 0.2173213,-0.176893 0.339536,-0.229358 L 3.4205267,9.617179 c 0.084536,-0.05079 0.1818933,-0.08146 0.2868213,-0.08146 0.310786,0 0.5627147,0.251679 0.5627147,0.5625 0,0.251965 -0.166,0.462072 -0.3942147,0.534322 l -0.2851427,0.118571 c -0.089535,0.048 -0.1509286,0.140893 -0.1509286,0.249179 0,0.10575 0.05832,0.19725 0.144786,0.246643 l 6.4822853,2.705071 c 0.01868,0.007 0.03514,0.01089 0.05386,0.01868 0.268964,0.111321 0.563,0.172143 0.872429,0.172143 0.306321,0 0.598464,-0.06029 0.865714,-0.169643 0.02232,-0.0089 0.04214,-0.01479 0.06389,-0.02314 l 6.478785,-2.703143 c 0.0865,-0.04939 0.144822,-0.140893 0.144822,-0.246643 0,-0.108821 -0.06168,-0.201179 -0.151214,-0.249179 l -0.285679,-0.119142 c -0.227643,-0.07171 -0.393643,-0.282643 -0.393643,-0.53375 0,-0.310822 0.251929,-0.5625 0.56275,-0.5625 0.106286,0 0.205036,0.03125 0.289572,0.08257 l 0.911464,0.383929 c 0.121928,0.05247 0.237143,0.128071 0.337036,0.227964 0.425464,0.4255 0.425464,1.114964 0,1.540178 -0.09932,0.09882 -0.211429,0.174429 -0.332536,0.226893 z m 0.0014,-3.715393 -7.277036,3.063893 c -0.37775,0.143429 -0.78675,0.226 -1.215286,0.226 -0.427143,0 -0.83475,-0.08175 -1.2120713,-0.224035 L 2.4997053,8.281821 c -0.120536,-0.053 -0.2318573,-0.1275 -0.3306073,-0.225428 -0.425464,-0.4255 -0.425464,-1.1155 0,-1.541 0.099321,-0.0985 0.212036,-0.172714 0.3345,-0.226572 L 9.7821693,3.224357 C 10.159241,3.082036 10.566027,3 10.993169,3 c 0.427965,0 0.836144,0.08204 1.214179,0.225429 l 0.677715,0.285142 c 0.232678,0.07254 0.402321,0.287108 0.402321,0.54325 0,0.315286 -0.255571,0.571715 -0.571393,0.571715 -0.09682,0 -0.185822,-0.02707 -0.265857,-0.06921 L 11.912491,4.332005 c -0.01843,-0.007 -0.03515,-0.01143 -0.05357,-0.01925 -0.26725,-0.109642 -0.559392,-0.169928 -0.865714,-0.169928 -0.309428,0 -0.603464,0.06168 -0.872428,0.172428 -0.01536,0.0064 -0.02875,0.0097 -0.04436,0.01536 l -6.48875,2.707607 c -0.087038,0.04882 -0.14786,0.140357 -0.14786,0.248036 0,0.10575 0.05832,0.196714 0.143964,0.246643 l 6.4915,2.707571 c 0.01536,0.0064 0.02929,0.0095 0.04547,0.01589 0.268964,0.110786 0.563,0.172429 0.872428,0.172429 0.306322,0 0.598465,-0.06029 0.865715,-0.169929 0.01897,-0.0075 0.03629,-0.01257 0.05497,-0.01982 l 6.488286,-2.706178 c 0.08593,-0.04993 0.14425,-0.140894 0.14425,-0.246644 0,-0.107714 -0.06082,-0.198642 -0.148143,-0.248035 L 17.517778,6.670435 C 17.300707,6.592295 17.144457,6.38722 17.144457,6.143078 c 0,-0.310536 0.251679,-0.5625 0.562464,-0.5625 0.106322,0 0.205643,0.03153 0.290429,0.08257 l 1.487607,0.626679 c 0.121107,0.05189 0.232929,0.1275 0.331714,0.225428 0.425465,0.4255 0.425465,1.1155 0,1.541 -0.09878,0.09804 -0.210643,0.172536 -0.331178,0.225572 z M 14.707426,5.571714 c -0.315821,0 -0.571643,-0.255571 -0.571643,-0.571428 0,-0.315857 0.255822,-0.571429 0.571643,-0.571429 0.314965,0 0.571393,0.255572 0.571393,0.571429 0,0.315857 -0.256428,0.571428 -0.571393,0.571428 z M 2.508634,13.714857 3.4244553,13.329821 c 0.083143,-0.04911 0.1791074,-0.07925 0.2828927,-0.07925 0.310786,0 0.5627147,0.251679 0.5627147,0.5625 0,0.254179 -0.1704647,0.467072 -0.4025714,0.536286 l -0.276786,0.115786 c -0.089535,0.04829 -0.1509286,0.140357 -0.1509286,0.249178 0,0.106572 0.05832,0.197536 0.144786,0.246929 l 6.4917853,2.708714 c 0.01564,0.0059 0.029,0.0089 0.04436,0.01536 0.268964,0.110786 0.563,0.172429 0.872429,0.172429 0.306321,0 0.598464,-0.06082 0.865714,-0.169929 0.01843,-0.0075 0.03514,-0.012 0.05357,-0.01925 l 6.489107,-2.707321 c 0.0865,-0.04939 0.144822,-0.140357 0.144822,-0.246929 0,-0.10825 -0.06168,-0.200892 -0.151214,-0.249178 L 18.116424,14.34936 c -0.231821,-0.07061 -0.400643,-0.282643 -0.400643,-0.536286 0,-0.310821 0.251929,-0.5625 0.56275,-0.5625 0.102358,0 0.196679,0.02929 0.27925,0.07672 l 0.921822,0.388393 c 0.123036,0.053 0.236571,0.128071 0.337036,0.2285 0.425464,0.4255 0.425464,1.114964 0,1.540464 -0.09793,0.09793 -0.210072,0.172143 -0.328108,0.224893 l -7.277576,3.064458 c -0.379143,0.144536 -0.788429,0.226 -1.217786,0.226 -0.428535,0 -0.83725,-0.08257 -1.215428,-0.225429 L 2.4958124,15.708716 c -0.1191074,-0.053 -0.2293214,-0.126678 -0.3266787,-0.224035 -0.4254647,-0.4255 -0.4254647,-1.114965 0,-1.540465 0.1006787,-0.100464 0.2173213,-0.176071 0.3395,-0.229357 z"
       id="path2-36-3"
       style="stroke-width:0.0357143;fill-opacity:1;fill:#d6dbf1"
       class="ColorScheme-Text" />
  </g>
</svg>
