<?xml version="1.0" encoding="UTF-8" standalone="no"?>
<svg
   width="32"
   height="32"
   version="1.1"
   id="svg12"
   sodipodi:docname="akregator.svg"
   inkscape:version="1.1.2 (0a00cf5339, 2022-02-04)"
   xmlns:inkscape="http://www.inkscape.org/namespaces/inkscape"
   xmlns:sodipodi="http://sodipodi.sourceforge.net/DTD/sodipodi-0.dtd"
   xmlns="http://www.w3.org/2000/svg"
   xmlns:svg="http://www.w3.org/2000/svg"
   xmlns:rdf="http://www.w3.org/1999/02/22-rdf-syntax-ns#"
   xmlns:cc="http://creativecommons.org/ns#"
   xmlns:dc="http://purl.org/dc/elements/1.1/">
  <style id="current-color-scheme" type="text/css">.ColorScheme-Text { color:#d6dbf1; }
</style>
  <metadata
     id="metadata18">
    <rdf:RDF>
      <cc:Work
         rdf:about="">
        <dc:format>image/svg+xml</dc:format>
        <dc:type
           rdf:resource="http://purl.org/dc/dcmitype/StillImage" />
      </cc:Work>
    </rdf:RDF>
  </metadata>
  <defs
     id="defs16" />
  <sodipodi:namedview
     pagecolor="#ffffff"
     bordercolor="#000000"
     borderopacity="1"
     objecttolerance="10"
     gridtolerance="10"
     guidetolerance="10"
     inkscape:pageopacity="0"
     inkscape:pageshadow="2"
     inkscape:window-width="1920"
     inkscape:window-height="1015"
     id="namedview14"
     showgrid="false"
     inkscape:zoom="9.8125"
     inkscape:cx="23.235669"
     inkscape:cy="17.477707"
     inkscape:window-x="0"
     inkscape:window-y="0"
     inkscape:window-maximized="1"
     inkscape:current-layer="svg12"
     inkscape:document-rotation="0"
     inkscape:showpageshadow="false"
     inkscape:pagecheckerboard="0"
     showguides="false"
     inkscape:lockguides="true">
    <inkscape:grid
       type="xygrid"
       id="grid1528"
       originx="0"
       originy="0" />
  </sodipodi:namedview>
  <g
     id="akregator">
    <rect
       style="opacity:0.00100002"
       width="32"
       height="32"
       x="0"
       y="0"
       id="rect7" />
    <path
       d="m 27.999813,25.000492 c 0,1.656409 -1.34324,2.999321 -2.999977,2.999321 h -1.500035 c -1.65744,0 -3.000352,-1.342912 -3.000352,-2.999321 0,-0.368388 -0.01941,-0.731666 -0.04795,-1.09246 -0.0051,-0.06042 -0.0073,-0.121218 -0.01317,-0.180889 -0.03225,-0.342044 -0.07837,-0.681136 -0.135515,-1.015914 -0.01097,-0.06553 -0.02344,-0.12928 -0.03516,-0.194108 -0.06337,-0.337263 -0.136218,-0.67087 -0.224107,-0.999742 -0.01247,-0.04795 -0.02672,-0.09337 -0.04027,-0.140624 -0.09412,-0.33881 -0.197764,-0.673495 -0.317154,-1.001617 -0.0015,-0.0048 -0.004,-0.01064 -0.0059,-0.01575 -0.120093,-0.329576 -0.25706,-0.651886 -0.40284,-0.969039 -0.02053,-0.04612 -0.03956,-0.0923 -0.06117,-0.137718 -0.143249,-0.302857 -0.297794,-0.598027 -0.461856,-0.88804 -0.02855,-0.05128 -0.05784,-0.101812 -0.08714,-0.15314 -0.168467,-0.288185 -0.34645,-0.570933 -0.535027,-0.845196 -0.02601,-0.03773 -0.05311,-0.07542 -0.07875,-0.112405 -0.196311,-0.27942 -0.400638,-0.552652 -0.616683,-0.815947 -0.0059,-0.0073 -0.01317,-0.01575 -0.01903,-0.02344 -0.21717,-0.262217 -0.445309,-0.513793 -0.680432,-0.759135 -0.03881,-0.04139 -0.07692,-0.08241 -0.117187,-0.123046 -0.229263,-0.233623 -0.468933,-0.458106 -0.7154,-0.674198 -0.04448,-0.03956 -0.08991,-0.07912 -0.134577,-0.116812 -0.252326,-0.215342 -0.509574,-0.422949 -0.776901,-0.618885 -0.03792,-0.02784 -0.07744,-0.05386 -0.115358,-0.0817 -0.278299,-0.200295 -0.561562,-0.39295 -0.855982,-0.572011 -0.0049,-0.0026 -0.0091,-0.0059 -0.0143,-0.0091 -0.290056,-0.17653 -0.590335,-0.338763 -0.893708,-0.494387 -0.05475,-0.02784 -0.107671,-0.05639 -0.162421,-0.08311 -0.2917,-0.143905 -0.589401,-0.275061 -0.893008,-0.398107 -0.06389,-0.02601 -0.127828,-0.05198 -0.192608,-0.07655 -0.308529,-0.119389 -0.621464,-0.228513 -0.941009,-0.325216 -0.04964,-0.015 -0.100874,-0.02855 -0.150514,-0.04284 -1.198209,-0.348278 -2.463871,-0.539058 -3.774908,-0.539058 -0.828181,0 -1.499988,0.670917 -1.499988,1.499285 v 1.50041 c 0,0.82804 0.671854,1.500035 1.499988,1.500035 0.8234,0 1.617925,0.120093 2.375606,0.327044 0.232171,0.06408 0.459934,0.136218 0.684464,0.217874 0.01355,0.004 0.02527,0.01027 0.03792,0.0143 1.110882,0.407997 2.117421,1.028336 2.973445,1.811377 0.03698,0.03441 0.0758,0.06666 0.11189,0.101812 0.134577,0.127077 0.264045,0.258888 0.390185,0.394403 0.0555,0.05967 0.110952,0.119389 0.164811,0.180889 0.112593,0.125999 0.220264,0.253779 0.325356,0.386716 0.06225,0.07912 0.121968,0.161483 0.181639,0.243185 0.09431,0.128577 0.190077,0.255655 0.277592,0.388216 0.06389,0.09778 0.12028,0.198467 0.180702,0.297748 0.117749,0.195186 0.228701,0.393653 0.331403,0.598026 0.07561,0.149765 0.151265,0.299248 0.218624,0.454122 0.04706,0.106546 0.08662,0.216795 0.129467,0.326294 0.05639,0.145405 0.11189,0.290763 0.160593,0.439825 0.03698,0.110952 0.06975,0.222654 0.101812,0.334731 0.04542,0.158952 0.08662,0.320107 0.123608,0.48159 0.02438,0.106218 0.0487,0.212014 0.06886,0.320435 0.03459,0.180187 0.05986,0.363279 0.0833,0.545668 0.01191,0.09703 0.02691,0.191905 0.03623,0.28931 0.01664,0.176905 0.02016,0.356716 0.02691,0.535824 0.01078,0.102562 0.01594,0.206155 0.01594,0.311295 -5e-6,1.656405 -1.34287,2.999316 -3.000357,2.999316 h -1.125179 -0.374997 c -1.656549,0 -2.999601,-1.342911 -2.999601,-2.99932 0,-0.828416 -0.671854,-1.50041 -1.500176,-1.50041 -0.828181,0 -1.499988,0.671994 -1.499988,1.50041 0,0.82804 0.671854,1.499285 1.499988,1.499285 0.414747,0 0.750182,0.336185 0.750182,0.750041 0,0.414559 -0.335435,0.749994 -0.750182,0.749994 C 5.342864,27.999851 4,26.656939 4,25.00053 4,23.343043 5.342864,22.000085 6.999461,22.000085 8.656198,22.000085 10,23.342996 10,25.00053 c 0,0.828041 0.67087,1.499285 1.499238,1.499285 h 0.374997 1.125179 c 0.828181,0 1.500176,-0.671244 1.500176,-1.499285 0,-1.136382 -0.259826,-2.209389 -0.712307,-3.174772 -0.03862,-0.08241 -0.07655,-0.165514 -0.11864,-0.24717 -0.0555,-0.108374 -0.115171,-0.215342 -0.175592,-0.321185 -0.04542,-0.07987 -0.09431,-0.158249 -0.143015,-0.235498 -0.06136,-0.09815 -0.123608,-0.197389 -0.189139,-0.292591 -0.100874,-0.145406 -0.207842,-0.286733 -0.317857,-0.424778 -0.06572,-0.08058 -0.134577,-0.157827 -0.202686,-0.236202 -0.08076,-0.0923 -0.163123,-0.18492 -0.248107,-0.273185 -0.06975,-0.07144 -0.139546,-0.141421 -0.211873,-0.210233 -0.09173,-0.08826 -0.187499,-0.172498 -0.283451,-0.256357 -0.06136,-0.05311 -0.121968,-0.107671 -0.184921,-0.158952 -0.159842,-0.128905 -0.323763,-0.254154 -0.493683,-0.370216 -0.04964,-0.0337 -0.101812,-0.06225 -0.152155,-0.09483 -0.131999,-0.08494 -0.266623,-0.169171 -0.404482,-0.246467 -0.07069,-0.03956 -0.142077,-0.07655 -0.213701,-0.11353 -0.130359,-0.06811 -0.264045,-0.131156 -0.398622,-0.191952 -0.06628,-0.0293 -0.131108,-0.06042 -0.19828,-0.08826 -0.199404,-0.08128 -0.40209,-0.157124 -0.609745,-0.222655 -0.02527,-0.0077 -0.05128,-0.01355 -0.07725,-0.02123 C 8.977336,17.764408 8.786322,17.71458 8.593902,17.673565 8.522324,17.65819 8.448309,17.645018 8.375231,17.631472 8.218858,17.6018 8.059906,17.578363 7.900063,17.558957 7.831017,17.550519 7.763846,17.542129 7.694049,17.535519 7.464457,17.51466 7.234115,17.500363 6.999367,17.500363 5.342864,17.500316 4,16.15703 4,14.499871 v -1.50041 c 0,-1.656784 1.342864,-2.999695 2.999461,-2.999695 0.243889,0 0.485246,0.0069 0.726557,0.01866 0.08751,0.004 0.17503,0.01247 0.263295,0.01758 0.160592,0.01097 0.321185,0.02086 0.48009,0.03623 0.08334,0.0084 0.164811,0.01833 0.247216,0.02855 0.158952,0.01833 0.317857,0.03698 0.475169,0.06042 0.09412,0.01355 0.187498,0.02967 0.280872,0.04542 0.133687,0.02198 0.265686,0.04542 0.398622,0.07069 0.106734,0.02123 0.211874,0.04284 0.316966,0.06553 0.137859,0.02967 0.275014,0.06155 0.410341,0.09525 0.09084,0.02269 0.180889,0.04542 0.271732,0.06886 0.133687,0.03623 0.266623,0.07472 0.399372,0.11353 0.09595,0.02855 0.193358,0.05639 0.28931,0.08681 0.122671,0.03844 0.242249,0.08058 0.364216,0.123421 0.105093,0.03623 0.210936,0.07139 0.314388,0.110952 0.103453,0.03881 0.206905,0.08166 0.309467,0.121968 0.11189,0.04467 0.22542,0.08756 0.336372,0.135515 0.09595,0.04102 0.188436,0.08494 0.283451,0.127827 0.23803,0.107671 0.47259,0.221201 0.704573,0.340591 0.07233,0.03698 0.145545,0.07322 0.216982,0.111702 0.121968,0.06553 0.241311,0.134765 0.360701,0.203623 0.07748,0.04359 0.156561,0.08644 0.233107,0.132937 0.123609,0.07397 0.245342,0.151967 0.36731,0.229592 0.06647,0.04284 0.133827,0.08386 0.200155,0.127827 0.118639,0.078 0.235451,0.158952 0.350622,0.240232 0.07416,0.05236 0.148874,0.105093 0.222842,0.158952 0.10603,0.07762 0.211123,0.156374 0.314576,0.235452 0.07308,0.05569 0.144842,0.11278 0.215857,0.16992 0.110577,0.08897 0.220452,0.178358 0.328873,0.269904 0.05714,0.0487 0.11353,0.09778 0.16992,0.147234 0.116437,0.101811 0.23292,0.203623 0.346451,0.309466 0.03806,0.03441 0.07322,0.06994 0.110249,0.105093 1.060538,1.004899 1.976469,2.162889 2.707807,3.43952 0.0091,0.015 0.01795,0.03113 0.02672,0.04687 0.09778,0.171748 0.191905,0.3457 0.282701,0.52148 0.01172,0.02269 0.02269,0.04467 0.03441,0.06741 0.09155,0.179108 0.180186,0.358919 0.26442,0.542386 0.0037,0.0091 0.0081,0.01833 0.01247,0.02784 0.08826,0.192279 0.173201,0.385965 0.253029,0.582651 0,7.5e-4 0,0.0015 7.5e-4,0.0033 0.412731,1.013335 0.718119,2.081983 0.902337,3.19235 0.132936,0.802775 0.206154,1.625987 0.206154,2.467246 0,0.82804 0.67162,1.499285 1.499989,1.499285 h 1.499941 c 0.828368,0 1.499613,-0.671245 1.499613,-1.499285 0,-1.214381 -0.116108,-2.400966 -0.328872,-3.553753 -0.0026,-0.0128 -0.004,-0.02527 -0.0069,-0.03881 -0.05273,-0.281669 -0.111702,-0.561792 -0.17653,-0.839009 -0.0022,-0.01097 -0.004,-0.02123 -0.0066,-0.03112 -0.063,-0.266623 -0.131108,-0.531746 -0.204326,-0.793963 -0.0095,-0.03441 -0.01903,-0.06886 -0.0293,-0.10364 -0.07472,-0.261467 -0.153796,-0.518527 -0.238779,-0.776009 -0.0018,-0.0051 -0.0037,-0.01172 -0.0051,-0.01758 -0.64162,-1.930673 -1.576206,-3.726299 -2.752478,-5.336537 -0.0033,-0.0059 -0.0066,-0.01097 -0.01097,-0.01613 -0.147293,-0.20111 -0.299261,-0.397749 -0.454181,-0.592935 -0.03075,-0.03844 -0.06042,-0.07875 -0.09155,-0.117561 -0.14353,-0.179108 -0.292591,-0.354888 -0.443105,-0.52884 -0.04322,-0.04978 -0.08644,-0.09923 -0.129656,-0.149061 -0.150139,-0.170666 -0.306138,-0.338758 -0.462137,-0.504648 -0.04322,-0.04542 -0.08681,-0.09155 -0.130358,-0.136967 -0.152343,-0.158202 -0.307966,-0.313498 -0.46509,-0.465841 -0.05897,-0.05639 -0.117187,-0.11278 -0.17653,-0.16917 C 20.232073,10.682875 20.074246,10.538219 19.914216,10.396142 19.855996,10.344112 19.796655,10.293581 19.737358,10.2423 19.578782,10.104254 19.418048,9.96799 19.253987,9.836178 19.178567,9.775378 19.102723,9.716788 19.026176,9.656742 18.872381,9.536602 18.717835,9.414635 18.559633,9.298573 18.481263,9.241433 18.401431,9.186168 18.321604,9.128652 18.157543,9.011841 17.993481,8.894279 17.826514,8.782202 17.789904,8.758012 17.753994,8.735332 17.717765,8.711512 17.294065,8.432467 16.8601,8.169172 16.414416,7.923034 16.390976,7.909484 16.367546,7.895194 16.343726,7.882394 16.210792,7.810254 16.074762,7.742145 15.940185,7.672208 15.801389,7.600068 15.663531,7.527553 15.523094,7.459444 15.391096,7.394994 15.255581,7.334195 15.121894,7.273023 14.985677,7.210773 14.851287,7.148524 14.713195,7.088806 14.567789,7.025806 14.421494,6.967588 14.27426,6.907917 14.134715,6.851527 13.996856,6.796214 13.855482,6.743106 13.720905,6.692576 13.584688,6.644576 13.449361,6.5977 13.290409,6.54201 13.130566,6.487451 12.969974,6.435467 12.841444,6.394077 12.711085,6.353807 12.58068,6.314999 12.419197,6.266299 12.256964,6.220879 12.093793,6.177282 11.953357,6.139222 11.81292,6.102192 11.671546,6.067783 11.514423,6.029343 11.356221,5.993813 11.197269,5.958659 11.052614,5.926409 10.908896,5.895279 10.7626,5.866739 10.596899,5.834869 10.428806,5.804489 10.261464,5.777019 10.125246,5.753209 9.989731,5.729769 9.851873,5.709609 9.653406,5.681059 9.452501,5.657629 9.252394,5.633809 9.143082,5.621339 9.036161,5.607089 8.926849,5.596079 8.701616,5.574099 8.473665,5.558349 8.246604,5.544099 8.152484,5.537899 8.060043,5.528719 7.964982,5.524689 7.891012,5.521389 7.816108,5.521389 7.741249,5.518789 v -0.0084 C 7.55211,5.508589 7.363674,5.436419 7.219019,5.291768 6.926427,4.99913 6.926427,4.523821 7.219019,4.231183 7.378861,4.071528 7.592375,4.00745 7.80092,4.0217 19.026176,4.44315 27.99981,13.6715 27.99981,25.000489 Z M 4.749244,5.500035 C 4.335435,5.500035 4,5.16385 4,4.749994 4,4.335435 4.335435,4 4.749244,4 c 0.414559,0 0.750182,0.335435 0.750182,0.749994 0,0.413856 -0.335623,0.750041 -0.750182,0.750041 z"
       id="path2-36"
       style="stroke-width:0.0468746;fill-opacity:1;fill:currentColor;"
       class="ColorScheme-Text" />
  </g>
  <g
     id="22-22-akregator"
     transform="translate(32,10.000003)">
    <rect
       style="opacity:0.00100002"
       width="22"
       height="22"
       x="0"
       y="-1.3897704e-07"
       id="rect2" />
    <path
       d="m 18.99985,17.000306 c 0,1.104271 -0.895492,1.999544 -1.999981,1.999544 h -1.000022 c -1.104959,0 -2.000232,-0.895273 -2.000232,-1.999544 0,-0.245592 -0.01294,-0.487777 -0.03197,-0.728306 -0.0034,-0.04028 -0.0049,-0.08081 -0.0088,-0.120592 -0.0215,-0.228029 -0.05225,-0.45409 -0.09034,-0.677275 -0.0073,-0.04369 -0.01563,-0.08619 -0.02344,-0.129405 -0.04225,-0.224842 -0.09081,-0.447246 -0.149404,-0.666494 -0.0083,-0.03197 -0.01781,-0.06225 -0.02685,-0.09375 -0.06275,-0.225873 -0.131842,-0.448996 -0.211435,-0.667744 -10e-4,-0.0032 -0.0027,-0.0071 -0.0039,-0.0105 -0.08006,-0.219717 -0.171373,-0.43459 -0.268559,-0.646025 -0.01369,-0.03075 -0.02637,-0.06153 -0.04078,-0.09181 -0.0955,-0.201905 -0.198529,-0.398684 -0.307904,-0.592026 -0.01903,-0.03419 -0.03856,-0.06787 -0.05809,-0.102093 -0.112311,-0.192123 -0.230966,-0.380622 -0.356684,-0.563463 -0.01734,-0.02515 -0.03541,-0.05028 -0.0525,-0.07494 -0.130874,-0.18628 -0.267091,-0.368434 -0.411121,-0.543964 -0.0039,-0.0049 -0.0088,-0.0105 -0.01269,-0.01563 -0.14478,-0.174811 -0.296872,-0.342529 -0.45362,-0.50609 -0.02587,-0.02759 -0.05128,-0.05494 -0.07813,-0.08203 -0.152842,-0.155749 -0.312621,-0.305404 -0.476933,-0.449465 -0.02965,-0.02637 -0.05994,-0.05275 -0.08972,-0.07787 -0.168217,-0.143561 -0.339716,-0.281966 -0.517934,-0.41259 -0.02528,-0.01856 -0.05163,-0.03591 -0.07691,-0.05447 -0.185532,-0.13353 -0.374374,-0.261967 -0.570654,-0.38134 -0.0033,-0.0017 -0.0061,-0.0039 -0.0095,-0.0061 C 9.478377,9.188648 9.278191,9.080492 9.075943,8.976743 9.039443,8.958183 9.004163,8.939153 8.967662,8.921333 8.773196,8.825393 8.574729,8.737959 8.372324,8.655928 8.329734,8.638588 8.287104,8.621278 8.243919,8.604898 8.038234,8.525308 7.829611,8.452556 7.616581,8.388088 7.583491,8.378088 7.549331,8.369058 7.516239,8.359528 6.717434,8.127343 5.87366,8.000156 4.999637,8.000156 c -0.55212,0 -0.99999,0.447278 -0.99999,0.999522 V 9.99995 c 0,0.552026 0.447902,1.000022 0.99999,1.000022 0.548933,0 1.078615,0.08006 1.583735,0.218029 0.15478,0.04272 0.306622,0.09081 0.456309,0.145249 0.009,0.0027 0.01685,0.0068 0.02528,0.0095 0.740586,0.271998 1.411611,0.685556 1.982293,1.207583 0.02465,0.02294 0.05053,0.04444 0.07459,0.06787 0.08972,0.08472 0.17603,0.172592 0.260123,0.262935 0.037,0.03978 0.07397,0.07959 0.109874,0.120593 0.07506,0.084 0.146842,0.169186 0.216904,0.25781 0.0415,0.05275 0.08131,0.107655 0.121092,0.162123 0.06287,0.08572 0.126718,0.170437 0.185061,0.25881 0.04259,0.06519 0.08019,0.132311 0.120468,0.198499 0.0785,0.130124 0.152467,0.262435 0.220935,0.398683 0.05041,0.09984 0.100843,0.199498 0.145749,0.302748 0.03137,0.07103 0.05775,0.144529 0.08631,0.217529 0.03759,0.09694 0.07459,0.193841 0.107062,0.293216 0.02465,0.07397 0.0465,0.148436 0.06787,0.223153 0.03028,0.105968 0.05775,0.213405 0.08241,0.32106 0.01625,0.07081 0.03247,0.141342 0.04591,0.213623 0.02306,0.120124 0.03991,0.242186 0.05553,0.363778 0.0079,0.06469 0.01794,0.127936 0.02415,0.192873 0.01109,0.117937 0.01344,0.23781 0.01794,0.357215 0.0072,0.06837 0.01063,0.137437 0.01063,0.20753 -4e-6,1.104268 -0.895246,1.999541 -2.000235,1.999541 H 8.249509 7.999511 c -1.104364,0 -1.999731,-0.895273 -1.999731,-1.999544 0,-0.552276 -0.447902,-1.000271 -1.000115,-1.000271 -0.55212,0 -0.999991,0.447995 -0.999991,1.000271 0,0.552026 0.447902,0.999522 0.999991,0.999522 0.276497,0 0.50012,0.224123 0.50012,0.500027 0,0.276372 -0.223623,0.499995 -0.50012,0.499995 C 3.895241,18.999875 3,18.104602 3,17.000331 c 0,-1.104989 0.895241,-2.000293 1.999638,-2.000293 1.104489,0 2.000356,0.895272 2.000356,2.000293 0,0.552027 0.447246,0.999522 0.99949,0.999522 H 8.249482 8.9996 c 0.55212,0 1.000116,-0.447495 1.000116,-0.999522 0,-0.757587 -0.173217,-1.472924 -0.474871,-2.116511 -0.02575,-0.05494 -0.05103,-0.110343 -0.07909,-0.16478 -0.037,-0.07225 -0.07678,-0.143561 -0.117061,-0.214123 -0.03028,-0.05325 -0.06287,-0.105499 -0.09534,-0.156998 -0.04091,-0.06543 -0.0824,-0.131593 -0.126092,-0.195061 -0.06725,-0.09694 -0.138561,-0.191155 -0.211904,-0.283185 -0.04381,-0.05372 -0.08972,-0.105217 -0.135124,-0.157467 -0.05384,-0.06153 -0.108749,-0.12328 -0.165405,-0.182123 -0.0465,-0.04763 -0.09303,-0.09428 -0.141248,-0.140155 -0.06115,-0.05884 -0.124999,-0.114999 -0.188967,-0.170905 -0.04091,-0.03541 -0.08131,-0.07178 -0.12328,-0.105968 -0.106562,-0.08594 -0.215842,-0.169435 -0.329122,-0.24681 -0.03309,-0.02247 -0.06787,-0.0415 -0.101436,-0.06322 -0.088,-0.05663 -0.177749,-0.11278 -0.269655,-0.164311 -0.04713,-0.02637 -0.09472,-0.05103 -0.142467,-0.07569 -0.08691,-0.04541 -0.17603,-0.08744 -0.265747,-0.127968 -0.04419,-0.01953 -0.08741,-0.04028 -0.132187,-0.05884 -0.132936,-0.05419 -0.268059,-0.104749 -0.406496,-0.148437 -0.01685,-0.0051 -0.03419,-0.009 -0.0515,-0.01415 -0.124498,-0.03737 -0.251841,-0.07059 -0.380121,-0.09793 -0.04772,-0.01025 -0.09706,-0.01903 -0.14578,-0.02806 -0.104248,-0.01978 -0.210216,-0.03541 -0.316778,-0.04834 -0.04603,-0.0056 -0.09081,-0.01122 -0.137343,-0.01563 C 5.309641,12.009759 5.15608,12.000229 4.999582,12.000229 3.895241,12.000196 3,11.104674 3,9.999903 V 8.999631 C 3,7.89511 3.895241,6.999838 4.999638,6.999838 c 0.162592,0 0.323496,0.0046 0.48437,0.01244 0.05834,0.0027 0.116687,0.0083 0.17553,0.01172 0.107061,0.0073 0.214123,0.01391 0.320059,0.02415 0.05556,0.0056 0.109874,0.01222 0.164811,0.01903 0.105968,0.01222 0.211904,0.02465 0.316779,0.04028 0.06275,0.009 0.124998,0.01978 0.187247,0.03028 0.08912,0.01465 0.177124,0.03028 0.265748,0.04713 0.07116,0.01415 0.141249,0.02856 0.21131,0.04369 0.09191,0.01978 0.183343,0.04103 0.27356,0.0635 0.06056,0.01513 0.120593,0.03028 0.181155,0.04591 0.08912,0.02415 0.177748,0.04981 0.266247,0.07569 0.06397,0.01903 0.128905,0.03759 0.192873,0.05787 0.08178,0.02563 0.161499,0.05372 0.242811,0.08228 0.07006,0.02415 0.140623,0.04759 0.209591,0.07397 0.06897,0.02587 0.137937,0.05444 0.206311,0.08131 0.07459,0.02978 0.15028,0.05837 0.224248,0.09034 0.06397,0.02735 0.125624,0.05663 0.188967,0.08522 0.158686,0.07178 0.315059,0.147467 0.469715,0.22706 0.04822,0.02465 0.09703,0.04881 0.144654,0.07447 0.08131,0.04369 0.160874,0.08984 0.240467,0.135749 0.05165,0.02906 0.104374,0.05763 0.155404,0.08862 0.08241,0.04931 0.163561,0.101311 0.244873,0.153061 0.04431,0.02856 0.08922,0.05591 0.133437,0.08522 0.07909,0.052 0.156967,0.105968 0.233747,0.160154 0.04944,0.03491 0.09925,0.07006 0.148562,0.105968 0.07069,0.05175 0.140748,0.104249 0.209717,0.156968 0.04872,0.03713 0.09656,0.07519 0.143904,0.11328 0.07372,0.05931 0.146968,0.118905 0.219248,0.179936 0.03809,0.03247 0.07569,0.06519 0.11328,0.09816 0.07762,0.06787 0.15528,0.135749 0.230967,0.206311 0.02537,0.02294 0.04881,0.04663 0.0735,0.07006 0.707024,0.669931 1.317644,1.441923 1.805202,2.293009 0.0061,0.01 0.01197,0.02075 0.01781,0.03125 0.06519,0.114498 0.127937,0.230466 0.188467,0.347653 0.0078,0.01513 0.01513,0.02978 0.02294,0.04494 0.06103,0.119405 0.120124,0.239279 0.17628,0.36159 0.0025,0.0061 0.0054,0.01222 0.0083,0.01856 0.05884,0.128186 0.115468,0.257309 0.168686,0.388433 0,5e-4 0,0.001 5e-4,0.0022 0.275154,0.675556 0.478745,1.387987 0.601557,2.12823 0.08862,0.535183 0.137436,1.08399 0.137436,1.644828 0,0.552026 0.447746,0.999522 0.999991,0.999522 h 0.999959 c 0.552245,0 0.999741,-0.447496 0.999741,-0.999522 0,-0.809586 -0.07741,-1.600641 -0.219248,-2.369165 -0.0017,-0.0085 -0.0027,-0.01685 -0.0046,-0.02587 -0.03515,-0.187779 -0.07447,-0.374527 -0.117687,-0.559338 -0.0015,-0.0073 -0.0027,-0.01415 -0.0044,-0.02075 -0.042,-0.177749 -0.08741,-0.354497 -0.136217,-0.529308 -0.0063,-0.02294 -0.01269,-0.04591 -0.01953,-0.06909 -0.04981,-0.174311 -0.10253,-0.345684 -0.159186,-0.517339 -0.0012,-0.0034 -0.0025,-0.0078 -0.0034,-0.01172 -0.427746,-1.287113 -1.050802,-2.484195 -1.834982,-3.557685 -0.0022,-0.0039 -0.0044,-0.0073 -0.0073,-0.01075 -0.0982,-0.134073 -0.199507,-0.265165 -0.302787,-0.395289 -0.0205,-0.02563 -0.04028,-0.0525 -0.06103,-0.07837 C 15.033542,8.736279 14.934172,8.619092 14.83383,8.503125 14.80502,8.469935 14.7762,8.436975 14.74739,8.403755 14.647298,8.289978 14.543299,8.177916 14.4393,8.067323 14.41049,8.037043 14.38143,8.006293 14.35239,7.976013 14.250829,7.870545 14.14708,7.767015 14.042331,7.665453 14.003021,7.627863 13.964201,7.590263 13.924644,7.552673 13.821364,7.455273 13.716146,7.358831 13.60946,7.264113 13.57065,7.229423 13.53109,7.195743 13.491554,7.161552 13.385837,7.069522 13.278681,6.978679 13.169308,6.890804 13.119028,6.850274 13.068465,6.811214 13.017434,6.77118 12.914904,6.69109 12.811873,6.609776 12.706406,6.532401 12.654156,6.494311 12.600938,6.457461 12.54772,6.419121 12.438346,6.341251 12.328972,6.262873 12.21766,6.188155 12.19325,6.172025 12.16931,6.156905 12.14516,6.141025 11.862694,5.954995 11.573384,5.779466 11.276262,5.615374 c -0.01563,-0.009 -0.03125,-0.01856 -0.04713,-0.02709 -0.08862,-0.04809 -0.179309,-0.0935 -0.269027,-0.140124 -0.09253,-0.04809 -0.184436,-0.09644 -0.27806,-0.141843 -0.088,-0.04297 -0.178342,-0.0835 -0.267467,-0.12428 -0.09081,-0.0415 -0.180404,-0.083 -0.272465,-0.122811 C 10.045173,5.017226 9.947646,4.978416 9.84949,4.938633 9.75646,4.901043 9.664554,4.864163 9.570305,4.828759 9.480585,4.795069 9.389776,4.763069 9.299558,4.731819 9.19359,4.694689 9.087028,4.658319 8.979967,4.623664 8.894277,4.596074 8.807375,4.569224 8.720438,4.543354 8.612783,4.510884 8.504628,4.480604 8.395847,4.451544 8.302227,4.426174 8.208599,4.401484 8.11435,4.378544 8.009601,4.352914 7.904134,4.329234 7.798166,4.305794 7.701726,4.284294 7.605917,4.263544 7.508387,4.244514 7.39792,4.223264 7.285858,4.203014 7.174297,4.184704 7.083487,4.168834 6.993142,4.153204 6.901236,4.139764 6.768925,4.120734 6.634989,4.105114 6.501584,4.089234 6.428714,4.080934 6.357429,4.071424 6.284555,4.064084 6.1344,4.049434 5.982433,4.038934 5.831059,4.029434 5.768309,4.025334 5.706685,4.019184 5.643311,4.016494 c -0.04931,-0.0022 -0.09925,-0.0022 -0.149155,-0.0039 v -0.0056 C 5.368064,4.005794 5.24244,3.957684 5.146003,3.861247 4.950942,3.666156 4.950942,3.349283 5.146003,3.154192 5.252564,3.047755 5.394907,3.005037 5.533937,3.014537 13.017429,3.295503 18.999842,9.447726 18.999842,17.000374 Z M 3.499495,4.000022 C 3.223623,4.000022 3,3.775899 3,3.499995 3,3.223623 3.223623,3 3.499495,3 c 0.276372,0 0.500121,0.223623 0.500121,0.499995 0,0.275904 -0.223749,0.500027 -0.500121,0.500027 z"
       id="path2-36-3"
       style="stroke-width:0.0312497;fill-opacity:1;fill:currentColor;"
       class="ColorScheme-Text" />
  </g>
</svg>
