<?xml version="1.0" encoding="UTF-8" standalone="no"?>
<svg
   width="32"
   height="32"
   version="1.1"
   id="svg12"
   sodipodi:docname="apport.svg"
   inkscape:version="1.1.2 (0a00cf5339, 2022-02-04)"
   xmlns:inkscape="http://www.inkscape.org/namespaces/inkscape"
   xmlns:sodipodi="http://sodipodi.sourceforge.net/DTD/sodipodi-0.dtd"
   xmlns="http://www.w3.org/2000/svg"
   xmlns:svg="http://www.w3.org/2000/svg"
   xmlns:rdf="http://www.w3.org/1999/02/22-rdf-syntax-ns#"
   xmlns:cc="http://creativecommons.org/ns#"
   xmlns:dc="http://purl.org/dc/elements/1.1/">
  <style id="current-color-scheme" type="text/css">.ColorScheme-Text { color:#d6dbf1; }
</style>
  <metadata
     id="metadata18">
    <rdf:RDF>
      <cc:Work
         rdf:about="">
        <dc:format>image/svg+xml</dc:format>
        <dc:type
           rdf:resource="http://purl.org/dc/dcmitype/StillImage" />
      </cc:Work>
    </rdf:RDF>
  </metadata>
  <defs
     id="defs16" />
  <sodipodi:namedview
     pagecolor="#ffffff"
     bordercolor="#666666"
     borderopacity="1"
     objecttolerance="10"
     gridtolerance="10"
     guidetolerance="10"
     inkscape:pageopacity="0"
     inkscape:pageshadow="2"
     inkscape:window-width="1920"
     inkscape:window-height="1015"
     id="namedview14"
     showgrid="false"
     inkscape:zoom="6.9384853"
     inkscape:cx="28.392364"
     inkscape:cy="17.799274"
     inkscape:window-x="0"
     inkscape:window-y="0"
     inkscape:window-maximized="1"
     inkscape:current-layer="svg12"
     inkscape:document-rotation="0"
     inkscape:pagecheckerboard="0"
     inkscape:lockguides="true">
    <inkscape:grid
       type="xygrid"
       id="grid844"
       originx="0"
       originy="1e-06" />
  </sodipodi:namedview>
  <g
     id="g2135"
     transform="translate(32.000001)" />
  <g
     id="apport">
    <path
       style="opacity:0.00100002;fill:#a8aeca;fill-opacity:1"
       d="M 0,0 V 32.000001 H 32.000001 V 0 Z"
       id="path7" />
    <path
       style="stroke-width:1.5;fill-opacity:1;fill:currentColor;"
       class="ColorScheme-Text "
       d="M 16,4 C 9.364,4 4,9.364 4,15.999999 4,22.636 9.364,28 16,28 22.636,28 28,22.636 28,15.999999 28,9.364 22.636,4 16,4 Z m 0,1.4999999 c 5.80498,0 10.5,4.6950001 10.5,10.4999991 C 26.5,21.80498 21.80498,26.5 16,26.5 10.19498,26.5 5.5,21.80498 5.5,15.999999 5.5,10.195 10.19498,5.4999999 16,5.4999999 Z m 0,2.5000011 z"
       id="path58"
       sodipodi:nodetypes="ssssssssssccccccc" />
    <path
       d="m 15.750405,21.370562 c -0.08418,0.01828 -0.16699,0.04202 -0.248033,0.07094 -0.07954,0.03602 -0.156351,0.0775 -0.230021,0.124017 -0.07176,0.05116 -0.139842,0.107234 -0.203555,0.168219 -0.249395,0.248578 -0.389499,0.586239 -0.389499,0.938367 0,0.352128 0.140114,0.689796 0.389499,0.938506 0.06385,0.06071 0.131791,0.116923 0.203555,0.168084 0.07203,0.04679 0.149254,0.0854 0.230021,0.115012 0.0794,0.03574 0.162624,0.06235 0.248033,0.07954 0.08445,0.01815 0.170539,0.02715 0.256765,0.02674 0.352128,-2.79e-4 0.689656,-0.140386 0.938506,-0.389359 0.06058,-0.06412 0.116787,-0.132339 0.168084,-0.204103 0.04693,-0.07203 0.08554,-0.149118 0.115012,-0.229885 0.03574,-0.0794 0.06235,-0.162488 0.07954,-0.247761 0.01815,-0.08432 0.02701,-0.170402 0.02674,-0.256764 -2.79e-4,-0.397008 -0.17818,-0.773026 -0.484883,-1.025019 -0.306835,-0.251851 -0.710262,-0.353351 -1.099761,-0.276547 z"
       id="path2"
       style="stroke-width:0.0349264;fill-opacity:1;fill:currentColor;"
       class="ColorScheme-Text" />
    <path
       d="M 18.616114,10.147671 C 18.43384,9.2162549 17.76887,8.4526597 16.871437,8.1443297 15.973864,7.83586 14.979964,8.0294534 14.263834,8.6522639 c -0.71613,0.6226673 -1.04587,1.5799991 -0.865126,2.5116951 l 1.650411,8.473137 c 0.05812,0.298785 0.252399,0.553374 0.525257,0.688294 0.272863,0.135067 0.59305,0.135067 0.86593,0 0.272862,-0.134931 0.467,-0.389499 0.525258,-0.688294 l 1.65055,-8.473137 c 0.0644,-0.335622 0.0644,-0.680506 0,-1.016288 z"
       id="path4"
       style="stroke-width:0.0349264;fill-opacity:1;fill:currentColor;"
       class="ColorScheme-Text" />
  </g>
  <g
     id="22-22-apport"
     transform="translate(32.000001,10)">
    <path
       style="opacity:0.00100002;fill:#a8aeca;fill-opacity:1;stroke-width:0.6875"
       d="M 0,0 V 22 H 22 V 0 Z"
       id="path7-3" />
    <path
       style="stroke-width:1;fill-opacity:1;fill:currentColor;"
       class="ColorScheme-Text "
       d="M 11,3 C 6.576,3 3,6.576 3,10.999999 3,15.424 6.576,19 11,19 15.424,19 19,15.424 19,10.999999 19,6.576 15.424,3 11,3 Z m 0,1 c 3.869987,0 7,3.13 7,6.999999 C 18,14.869987 14.869987,18 11,18 7.129987,18 4,14.869987 4,10.999999 4,7.13 7.129987,4 11,4 Z m 0,1.666667 z"
       id="path58-9"
       sodipodi:nodetypes="ssssssssssccccccc" />
    <path
       d="m 10.833603,14.580375 c -0.05612,0.01219 -0.111326,0.02801 -0.165355,0.04729 -0.05303,0.02401 -0.104234,0.05167 -0.153347,0.08268 -0.04784,0.03411 -0.09323,0.07149 -0.135704,0.112146 -0.166263,0.165718 -0.259666,0.390826 -0.259666,0.625578 0,0.234752 0.09341,0.459864 0.259666,0.62567 0.04257,0.04047 0.08786,0.07795 0.135704,0.112056 0.04802,0.03119 0.0995,0.05693 0.153347,0.07667 0.05293,0.02383 0.108416,0.04157 0.165355,0.05303 0.0563,0.0121 0.113693,0.0181 0.171177,0.01783 0.234752,-1.86e-4 0.459771,-0.09359 0.625671,-0.259572 0.04039,-0.04275 0.07786,-0.08823 0.112056,-0.136069 0.03129,-0.04802 0.05703,-0.09941 0.07667,-0.153257 0.02383,-0.05293 0.04157,-0.108325 0.05303,-0.165174 0.0121,-0.05621 0.01801,-0.113601 0.01783,-0.171176 -1.88e-4,-0.264672 -0.118789,-0.515351 -0.323258,-0.683346 -0.204556,-0.167901 -0.473508,-0.235568 -0.733174,-0.184365 z"
       id="path2-5"
       style="stroke-width:0.0232843;fill-opacity:1;fill:currentColor;"
       class="ColorScheme-Text" />
    <path
       d="M 12.744076,7.098447 C 12.62256,6.477503 12.179247,5.96844 11.580958,5.762886 10.982576,5.55724 10.319976,5.686306 9.842556,6.101509 9.365136,6.516621 9.145309,7.154842 9.265805,7.775973 l 1.100274,5.648758 c 0.03875,0.19919 0.168266,0.368916 0.350172,0.458862 0.181908,0.09004 0.395366,0.09004 0.577286,0 0.181908,-0.08995 0.311334,-0.259666 0.350172,-0.458862 l 1.100367,-5.648758 c 0.04293,-0.223748 0.04293,-0.453671 0,-0.677526 z"
       id="path4-0"
       style="stroke-width:0.0232843;fill-opacity:1;fill:currentColor;"
       class="ColorScheme-Text" />
  </g>
</svg>
