<?xml version="1.0" encoding="UTF-8" standalone="no"?>
<svg
   width="32"
   height="32"
   version="1.1"
   id="svg12"
   sodipodi:docname="bookmarks.svg"
   inkscape:version="1.1.2 (0a00cf5339, 2022-02-04)"
   xmlns:inkscape="http://www.inkscape.org/namespaces/inkscape"
   xmlns:sodipodi="http://sodipodi.sourceforge.net/DTD/sodipodi-0.dtd"
   xmlns="http://www.w3.org/2000/svg"
   xmlns:svg="http://www.w3.org/2000/svg"
   xmlns:rdf="http://www.w3.org/1999/02/22-rdf-syntax-ns#"
   xmlns:cc="http://creativecommons.org/ns#"
   xmlns:dc="http://purl.org/dc/elements/1.1/">
  <style id="current-color-scheme" type="text/css">.ColorScheme-Text { color:#d6dbf1; }
</style>
  <metadata
     id="metadata18">
    <rdf:RDF>
      <cc:Work
         rdf:about="">
        <dc:format>image/svg+xml</dc:format>
        <dc:type
           rdf:resource="http://purl.org/dc/dcmitype/StillImage" />
      </cc:Work>
    </rdf:RDF>
  </metadata>
  <defs
     id="defs16" />
  <sodipodi:namedview
     pagecolor="#ffffff"
     bordercolor="#000000"
     borderopacity="1"
     objecttolerance="10"
     gridtolerance="10"
     guidetolerance="10"
     inkscape:pageopacity="0"
     inkscape:pageshadow="2"
     inkscape:window-width="1920"
     inkscape:window-height="1015"
     id="namedview14"
     showgrid="false"
     inkscape:zoom="8.0000004"
     inkscape:cx="29.749999"
     inkscape:cy="10.187499"
     inkscape:window-x="0"
     inkscape:window-y="0"
     inkscape:window-maximized="1"
     inkscape:current-layer="svg12"
     inkscape:document-rotation="0"
     inkscape:pagecheckerboard="0"
     inkscape:showpageshadow="false"
     inkscape:lockguides="true">
    <inkscape:grid
       type="xygrid"
       id="grid903"
       originx="0"
       originy="0" />
  </sodipodi:namedview>
  <g
     id="g997" />
  <g
     id="g999"
     transform="translate(32,10)" />
  <g
     id="bookmarks">
    <rect
       y="0"
       x="0"
       height="32"
       width="32"
       id="rect820"
       style="clip-rule:evenodd;fill:#2020ff;fill-opacity:0;fill-rule:evenodd;stroke-linejoin:round;stroke-miterlimit:1.41421" />
    <path
       sodipodi:nodetypes="ccccsccccscccccscscccccccssccccscccsccsccsccccccccccccccccccsccccccscsccccccccccccccccccccsccsssssscs"
       style="stroke-width:0.044764;fill-opacity:1;fill:currentColor;"
       d="m 27.410119,12.467703 v 0 c -0.08277,-0.107846 -0.17127,-0.211177 -0.272125,-0.305729 -0.04957,-0.0464 -0.103477,-0.08842 -0.156997,-0.130767 -0.535348,-0.421999 -1.268206,-0.638054 -2.186803,-0.638054 H 23.928717 22.270081 L 20.806046,11.08716 16.756693,4.517082 C 16.544239,4.1723015 16.265693,4 15.987233,4 15.70877,4 15.430177,4.172391 15.21772,4.517082 l -4.049309,6.56999 -1.4640291,0.305993 H 8.045747 6.3872027 4.6936681 c -0.3157947,0 -0.5791573,0.208741 -0.6620583,0.492393 -0.017227,0.0594 -0.029539,0.120839 -0.029539,0.185822 v 0.167114 0.346688 0 L 4,13.92015 6.3426889,16.60144 v 0.472446 0.472356 1.805423 c 0,0.374436 0.3097297,0.67817 0.6916176,0.67817 H 8.1317817 8.4809446 8.830049 l -0.9987089,7.030297 c -0.083713,0.589325 0.1706821,0.939694 0.6066779,0.939694 0.1542426,0 0.3313161,-0.04384 0.5241139,-0.136435 l 7.0259581,-3.373429 7.025817,3.373499 C 23.206747,27.956061 23.38378,28 23.53802,28 c 0.436123,0 0.690476,-0.350267 0.606735,-0.939792 l -0.998976,-7.030197 h 0.139733 c 0.07179,0 0.139545,-0.01369 0.204684,-0.03369 0.126346,-0.03852 0.236021,-0.11064 0.319817,-0.20701 0.102766,-0.118355 0.167217,-0.269866 0.167217,-0.437559 v -0.230816 -0.472179 -0.472401 l 0.903009,-0.858584 c 0.196455,-0.01065 0.382739,-0.03196 0.561473,-0.06149 0.242612,-0.03999 0.468493,-0.09756 0.677664,-0.172123 0.373205,-0.133067 0.695337,-0.318009 0.958724,-0.559727 0.305675,-0.280772 0.532377,-0.615668 0.681782,-1.000167 C 27.836432,15.327317 27.9091,15.116672 27.94415,14.89366 27.96998,14.729292 27.99662,14.557966 28,14.379857 v -0.20362 l -0.02341,-0.285686 -0.06496,-0.422265 -0.160873,-0.445237 z m -0.253274,2.684754 c -0.110121,0.344957 -0.292426,0.638495 -0.55204,0.876934 -0.226961,0.208473 -0.514606,0.364241 -0.86191,0.467524 -0.342198,0.102095 -0.742654,0.153152 -1.201753,0.153152 h -1.256 v 2.18376 0.517927 h -0.23601 -2.068371 v -7.280385 h 3.813478 c 0.830499,0 1.452548,0.193712 1.866123,0.581092 0.413577,0.387425 0.620429,0.938639 0.620429,1.653779 0,0.311491 -0.04304,0.59244 -0.123968,0.846217 z M 7.0334425,18.204065 V 17.731708 17.259219 13.869123 H 4.6936681 v -1.42846 -0.346687 -0.02252 H 4.80139 6.4598881 11.667283 v 1.7978 H 9.327508 v 5.482721 H 8.9253728 8.5762608 8.2271037 7.0334425 Z m 8.9537905,1.271896 c -0.837273,0 -1.530301,-0.130814 -2.078901,-0.392302 -0.548598,-0.261534 -0.993455,-0.675377 -1.334429,-1.24153 -0.340932,-0.566198 -0.511488,-1.274689 -0.511488,-2.125559 0,-1.188604 0.337631,-2.113989 1.012804,-2.776067 0.675305,-0.662211 1.615467,-0.993164 2.820833,-0.993164 1.235656,0 2.187754,0.325278 2.856283,0.975831 0.66852,0.650553 1.002761,1.561931 1.002761,2.733869 0,0.85087 -0.146057,1.548677 -0.438075,2.093243 -0.292021,0.544566 -0.714041,0.968384 -1.266084,1.271408 -0.55212,0.303024 -1.239861,0.454271 -2.063704,0.454271 z"
       id="path1535"
       class="ColorScheme-Text" />
    <path
       style="stroke-width:0.044764;fill-opacity:1;fill:currentColor;"
       d="m 15.890948,13.650589 c -0.46253,0 -0.833977,0.160598 -1.114199,0.481664 -0.280219,0.321198 -0.420352,0.85251 -0.420352,1.594202 0,0.735088 0.139319,1.263119 0.417913,1.58414 0.278593,0.321199 0.657452,0.48171 1.136889,0.48171 0.492859,0 0.874476,-0.157231 1.144526,-0.47178 0.270142,-0.314637 0.405162,-0.879019 0.405162,-1.693541 0,-0.685263 -0.140946,-1.186032 -0.422836,-1.502222 -0.281853,-0.315968 -0.664188,-0.474173 -1.147103,-0.474173 z"
       id="path1537"
       class="ColorScheme-Text" />
    <path
       style="stroke-width:0.044764;fill-opacity:1;fill:currentColor;"
       d="m 23.938258,13.551339 h -0.653295 v 1.623901 h 0.562162 c 0.442227,0 0.752923,-0.07527 0.931882,-0.225983 0.179012,-0.150714 0.268382,-0.34345 0.268382,-0.578521 0,-0.228421 -0.07762,-0.422088 -0.232941,-0.581091 -0.155327,-0.158827 -0.447344,-0.238306 -0.87619,-0.238306 z"
       id="path1539"
       class="ColorScheme-Text" />
  </g>
  <g
     id="22-22-bookmarks">
    <rect
       y="10"
       x="32"
       height="22"
       width="22"
       id="rect820-6"
       style="clip-rule:evenodd;fill:#2020ff;fill-opacity:0;fill-rule:evenodd;stroke-width:0.6875;stroke-linejoin:round;stroke-miterlimit:1.41421" />
    <path
       sodipodi:nodetypes="ccccsccccscccccscscccccccssccccscccsccsccsccccccccccccccccccsccccccscsccccccccccccccccccccsccsssssscs"
       style="stroke-width:0.0369397;fill-opacity:1;fill:currentColor;"
       d="m 52.130699,18.056425 v 0 c -0.06759,-0.08986 -0.139956,-0.175983 -0.222373,-0.254775 -0.04054,-0.03873 -0.08459,-0.07366 -0.128297,-0.10897 -0.437468,-0.351672 -1.036345,-0.531722 -1.787,-0.531722 H 49.285787 47.930392 L 46.734019,16.905964 43.424995,11.4309 C 43.25138,11.14358 43.02376,11 42.796209,11 c -0.227556,0 -0.455211,0.143663 -0.628827,0.4309 l -3.30899,5.475 -1.19637,0.254997 h -1.355395 -1.355316 -1.383913 c -0.25806,0 -0.473274,0.173944 -0.541018,0.410322 -0.0141,0.04947 -0.02418,0.100686 -0.02418,0.154853 v 0.13925 0.288915 0 L 33,19.266789 l 1.914381,2.234412 v 0.393699 0.39363 1.504525 c 0,0.312036 0.253118,0.56514 0.565172,0.56514 h 0.896829 0.285322 0.285286 l -0.81611,5.858582 c -0.06844,0.491103 0.139468,0.783077 0.495757,0.783077 0.126048,0 0.270736,-0.03653 0.428283,-0.113694 l 5.741436,-2.811191 5.741329,2.811247 C 48.695811,30.963386 48.840476,31 48.966519,31 c 0.356389,0 0.564241,-0.29189 0.495807,-0.78316 l -0.816334,-5.8585 h 0.114185 c 0.05873,0 0.114032,-0.01137 0.167256,-0.02809 0.103251,-0.03212 0.192877,-0.09221 0.261354,-0.172516 0.08397,-0.09864 0.136639,-0.224882 0.136639,-0.364635 v -0.192346 -0.393467 -0.393672 l 0.737921,-0.715494 c 0.160536,-0.0095 0.312765,-0.02668 0.458821,-0.05116 0.198254,-0.03326 0.382842,-0.08125 0.553769,-0.143431 0.304975,-0.110887 0.568214,-0.265006 0.783443,-0.466434 0.249792,-0.233979 0.435045,-0.513061 0.557138,-0.833481 0.0626,-0.164115 0.121932,-0.339663 0.150579,-0.525498 0.02104,-0.136981 0.0429,-0.279752 0.04561,-0.428177 v -0.169673 l -0.0191,-0.238077 -0.05302,-0.351883 -0.131458,-0.37103 z m -0.20697,2.23728 c -0.08999,0.287468 -0.23896,0.532087 -0.451111,0.730795 -0.185466,0.173726 -0.420523,0.303532 -0.704332,0.3896 -0.279638,0.08505 -0.606877,0.127616 -0.982046,0.127616 h -1.02637 v 1.8198 0.431608 h -0.192859 -1.690217 v -6.066986 h 3.116272 c 0.678664,0 1.186983,0.161427 1.524951,0.484241 0.337967,0.322862 0.506999,0.782199 0.506999,1.378149 0,0.259572 -0.03511,0.493707 -0.101304,0.705177 z M 35.479401,22.836713 V 22.4431 22.049348 19.224276 h -1.912003 v -1.190381 -0.288921 -0.01884 h 0.08803 1.355284 4.255345 v 1.498165 h -1.912003 v 4.568946 h -0.328619 -0.285279 -0.285327 -0.975426 z m 7.316808,1.059922 c -0.684198,0 -1.250525,-0.109008 -1.698825,-0.326926 -0.448302,-0.217944 -0.811823,-0.562809 -1.090461,-1.034609 -0.2786,-0.471818 -0.417973,-1.062228 -0.417973,-1.77129 0,-0.99051 0.275897,-1.761662 0.827635,-2.313385 0.55184,-0.551854 1.320118,-0.827648 2.305114,-0.827648 1.009742,0 1.787773,0.271075 2.33408,0.813192 0.546297,0.542131 0.819432,1.301611 0.819432,2.278229 0,0.709062 -0.119359,1.290563 -0.357987,1.744367 -0.238629,0.453803 -0.583495,0.806985 -1.034609,1.059515 -0.451183,0.252514 -1.013186,0.378555 -1.686406,0.378555 z"
       id="path1535-5"
       class="ColorScheme-Text" />
    <path
       style="stroke-width:0.0369397;fill-opacity:1;fill:currentColor;"
       d="m 42.717526,19.042153 c -0.377966,0 -0.681505,0.133833 -0.910496,0.401389 -0.22899,0.26767 -0.343498,0.710423 -0.343498,1.328509 0,0.612573 0.113848,1.052599 0.341504,1.320109 0.227662,0.267674 0.537255,0.401424 0.929037,0.401424 0.402752,0 0.7146,-0.131025 0.935284,-0.393144 0.220751,-0.262197 0.331081,-0.732525 0.331081,-1.411292 0,-0.571048 -0.115177,-0.988357 -0.345526,-1.251848 -0.230322,-0.263307 -0.542756,-0.395147 -0.937386,-0.395147 z"
       id="path1537-6"
       class="ColorScheme-Text" />
    <path
       style="stroke-width:0.0369397;fill-opacity:1;fill:currentColor;"
       d="M 49.293583,18.959452 H 48.759727 V 20.3127 h 0.459385 c 0.361376,0 0.615269,-0.06279 0.761507,-0.188324 0.146286,-0.125594 0.219318,-0.286209 0.219318,-0.482088 0,-0.190365 -0.06341,-0.351751 -0.190351,-0.484248 -0.126935,-0.13235 -0.365562,-0.198588 -0.716003,-0.198588 z"
       id="path1539-2"
       class="ColorScheme-Text" />
  </g>
</svg>
