<?xml version="1.0" encoding="UTF-8" standalone="no"?>
<svg
   version="1.1"
   id="svg2"
   viewBox="0 0 32 32"
   inkscape:version="1.1.2 (0a00cf5339, 2022-02-04)"
   sodipodi:docname="cantata.svg"
   width="32"
   height="32"
   xmlns:inkscape="http://www.inkscape.org/namespaces/inkscape"
   xmlns:sodipodi="http://sodipodi.sourceforge.net/DTD/sodipodi-0.dtd"
   xmlns="http://www.w3.org/2000/svg"
   xmlns:svg="http://www.w3.org/2000/svg"
   xmlns:rdf="http://www.w3.org/1999/02/22-rdf-syntax-ns#"
   xmlns:cc="http://creativecommons.org/ns#"
   xmlns:dc="http://purl.org/dc/elements/1.1/">
  <style id="current-color-scheme" type="text/css">.ColorScheme-Text { color:#d6dbf1; }
</style>
  <g
     id="cantata">
    <path
       id="path18"
       d="M 0,0 V 32 H 32 V 0 Z"
       style="fill:none" />
    <path
       d="m 25.936562,18.037047 -4.449468,-1.993453 c -0.07472,-0.02527 -0.153797,-0.04284 -0.237282,-0.04284 -0.413812,0 -0.75075,0.335625 -0.75075,0.750188 v 6.75 C 20.499062,25.985313 18.484891,28 15.999626,28 c -2.485828,0 -4.499625,-2.014688 -4.499625,-4.499063 0,-1.242937 0.502827,-2.367187 1.317608,-3.18239 l 0.0033,0.0037 c 0.136219,-0.136219 0.323016,-0.220453 0.529922,-0.220453 0.414563,0 0.750001,0.335437 0.750001,0.75 0,0.21975 -0.09558,0.414562 -0.245344,0.551531 -0.530624,0.542675 -0.856218,1.280206 -0.856218,2.097612 0,1.65675 1.344,2.99925 3.000375,2.99925 1.656938,0 2.999438,-1.342546 2.999438,-2.99925 v -3.348656 -1.152093 -2.361329 c 0,-1.1805 0.958031,-2.138484 2.139421,-2.138484 0.28711,0 0.557391,0.05897 0.807141,0.161484 l 3.804187,1.842235 c 0.413813,0.191906 0.74925,0.01172 0.74925,-0.402656 v -2.624251 c 0,-0.414562 -0.335437,-0.905625 -0.74925,-1.098281 l -4.5,-2.179688 c -0.413812,-0.191906 -0.75075,-0.01172 -0.75075,0.402844 v 1.648313 c 0,0.414562 -0.335437,0.75 -0.749999,0.75 -0.413813,0 -0.75,-0.335438 -0.75,-0.75 V 9.7359533 c 0,-1.0949533 0.924328,-1.5699373 2.063249,-1.0620003 l 4.87425,2.184469 c 1.139626,0.507937 2.063438,1.807265 2.063438,2.902218 v 3.214407 c 0,1.094953 -0.923766,1.570312 -2.063438,1.062 z M 24.249812,5.500375 H 7.749625 c -0.413812,0 -0.75,-0.335812 -0.75,-0.750375 0,-0.413438 0.336188,-0.75 0.75,-0.75 h 16.500187 c 0.413814,0 0.75,0.336562 0.75,0.75 0,0.414563 -0.336186,0.750375 -0.75,0.750375 z m -19.499812,0 C 4.335437,5.500375 4,5.164563 4,4.75 4,4.336562 4.335437,4 4.75,4 5.163812,4 5.49925,4.336562 5.49925,4.75 5.49925,5.164563 5.163812,5.500375 4.75,5.500375 Z m 0,3.000375 h 10.499626 c 0.414562,0 0.75,0.3354375 0.75,0.75 0,0.4138125 -0.335438,0.75 -0.75,0.75 H 4.75 c -0.414563,0 -0.75,-0.3361875 -0.75,-0.75 0,-0.4145625 0.335437,-0.75 0.75,-0.75 z m 11.999812,11.249438 c 0,0.414562 -0.336186,0.75 -0.750186,0.75 -0.414563,0 -0.75,-0.335438 -0.75,-0.75 0,-0.413813 0.335437,-0.75 0.75,-0.75 0.414,0 0.750186,0.336187 0.750186,0.75 z M 4.75,13.000375 h 10.499626 c 0.414562,0 0.75,0.335437 0.75,0.75 0,0.414563 -0.335438,0.75 -0.75,0.75 H 4.75 c -0.414563,0 -0.75,-0.335437 -0.75,-0.75 0,-0.414563 0.335437,-0.75 0.75,-0.75 z m 0,4.499813 h 4.499625 c 0.413812,0 0.75,0.336187 0.75,0.75 0,0.414562 -0.336188,0.75 -0.75,0.75 H 4.75 c -0.414563,0 -0.75,-0.335438 -0.75,-0.75 0,-0.413813 0.335437,-0.75 0.75,-0.75 z"
       id="path2"
       style="stroke-width:0.046875;fill-opacity:1;fill:currentColor;"
       class="ColorScheme-Text" />
  </g>
  <sodipodi:namedview
     pagecolor="#ffffff"
     bordercolor="#000000"
     borderopacity="1"
     objecttolerance="10"
     gridtolerance="10"
     guidetolerance="10"
     inkscape:pageopacity="0"
     inkscape:pageshadow="2"
     inkscape:window-width="1920"
     inkscape:window-height="973"
     id="namedview14"
     showgrid="false"
     inkscape:zoom="10.429825"
     inkscape:cx="26.558451"
     inkscape:cy="17.689654"
     inkscape:window-x="0"
     inkscape:window-y="42"
     inkscape:window-maximized="1"
     inkscape:current-layer="svg2"
     inkscape:lockguides="true"
     inkscape:document-rotation="0"
     inkscape:showpageshadow="false"
     inkscape:pagecheckerboard="0">
    <inkscape:grid
       type="xygrid"
       id="grid838"
       originx="0"
       originy="0" />
  </sodipodi:namedview>
  <metadata
     id="metadata20">
    <rdf:RDF>
      <cc:Work
         rdf:about="">
        <dc:format>image/svg+xml</dc:format>
        <dc:type
           rdf:resource="http://purl.org/dc/dcmitype/StillImage" />
      </cc:Work>
    </rdf:RDF>
  </metadata>
  <defs
     id="defs3051">
    <style
       id="current-color-scheme"
       type="text/css" />
  </defs>
  <g
     id="22-22-cantata"
     transform="translate(32,10)">
    <path
       id="path11"
       d="M 0,0 V 22 H 22 V 0 Z"
       style="fill:none" />
    <path
       d="m 17.624375,12.358031 -2.966312,-1.328968 c -0.04981,-0.01685 -0.102532,-0.02856 -0.158188,-0.02856 -0.275875,0 -0.5005,0.22375 -0.5005,0.500125 v 4.5 C 13.999375,17.656875 12.656594,19 10.999751,19 9.342532,19 8.0000007,17.656875 8.0000007,16.000625 c 0,-0.828625 0.335218,-1.578125 0.8784053,-2.121594 l 0.0022,0.0025 c 0.090813,-0.09081 0.215344,-0.146969 0.3532813,-0.146969 0.2763757,0 0.5000007,0.223625 0.5000007,0.5 0,0.1465 -0.06372,0.276375 -0.163563,0.367688 -0.353749,0.361783 -0.5708117,0.85347 -0.5708117,1.398408 0,1.1045 0.8959997,1.9995 2.0002497,1.9995 1.104626,0 1.999626,-0.895031 1.999626,-1.9995 V 13.76822 13.000158 11.425939 c 0,-0.787 0.638687,-1.425656 1.42628,-1.425656 0.191407,0 0.371594,0.03931 0.538094,0.107656 l 2.536125,1.228157 c 0.275875,0.127937 0.4995,0.0078 0.4995,-0.268438 v -1.7495 c 0,-0.276375 -0.223625,-0.60375 -0.4995,-0.732188 l -3,-1.453125 c -0.275875,-0.127937 -0.5005,-0.0078 -0.5005,0.268563 v 1.098875 c 0,0.276375 -0.223625,0.5 -0.499999,0.5 -0.275876,0 -0.5,-0.223625 -0.5,-0.5 V 6.824002 c 0,-0.729969 0.616218,-1.046625 1.375499,-0.708 l 3.2495,1.456312 c 0.759751,0.338625 1.375625,1.204844 1.375625,1.934812 v 2.142938 c 0,0.729969 -0.615844,1.046875 -1.375625,0.708 z M 16.499875,4.00025 H 5.49975 c -0.2758747,0 -0.5,-0.223875 -0.5,-0.50025 0,-0.275625 0.2241253,-0.5 0.5,-0.5 h 11.000125 c 0.275876,0 0.5,0.224375 0.5,0.5 0,0.276375 -0.224124,0.50025 -0.5,0.50025 z M 3.5,4.00025 C 3.2236247,4.00025 3,3.776375 3,3.5 3,3.224375 3.2236247,3 3.5,3 3.7758747,3 3.9995,3.224375 3.9995,3.5 3.9995,3.776375 3.7758747,4.00025 3.5,4.00025 Z m 0,2.00025 h 6.999751 c 0.276374,0 0.5,0.223625 0.5,0.5 0,0.275875 -0.223626,0.5 -0.5,0.5 H 3.5 c -0.2763753,0 -0.5,-0.224125 -0.5,-0.5 0,-0.276375 0.2236247,-0.5 0.5,-0.5 z m 7.999875,7.499625 c 0,0.276375 -0.224124,0.5 -0.500124,0.5 -0.276376,0 -0.5,-0.223625 -0.5,-0.5 0,-0.275875 0.223624,-0.5 0.5,-0.5 0.276,0 0.500124,0.224125 0.500124,0.5 z M 3.5,9.00025 h 6.999751 c 0.276374,0 0.5,0.223625 0.5,0.5 0,0.276375 -0.223626,0.5 -0.5,0.5 H 3.5 c -0.2763753,0 -0.5,-0.223625 -0.5,-0.5 0,-0.276375 0.2236247,-0.5 0.5,-0.5 z m 0,2.999875 h 2.99975 c 0.2758747,0 0.5,0.224125 0.5,0.5 0,0.276375 -0.2241253,0.5 -0.5,0.5 H 3.5 c -0.2763753,0 -0.5,-0.223625 -0.5,-0.5 0,-0.275875 0.2236247,-0.5 0.5,-0.5 z"
       id="path2-3"
       style="stroke-width:0.03125;fill-opacity:1;fill:currentColor;"
       class="ColorScheme-Text" />
  </g>
</svg>
