<?xml version="1.0" encoding="UTF-8" standalone="no"?>
<svg
   width="32"
   height="32"
   version="1.1"
   id="svg22"
   sodipodi:docname="computer.svg"
   inkscape:version="1.1.2 (0a00cf5339, 2022-02-04)"
   xmlns:inkscape="http://www.inkscape.org/namespaces/inkscape"
   xmlns:sodipodi="http://sodipodi.sourceforge.net/DTD/sodipodi-0.dtd"
   xmlns="http://www.w3.org/2000/svg"
   xmlns:svg="http://www.w3.org/2000/svg"
   xmlns:rdf="http://www.w3.org/1999/02/22-rdf-syntax-ns#"
   xmlns:cc="http://creativecommons.org/ns#"
   xmlns:dc="http://purl.org/dc/elements/1.1/">
  <style id="current-color-scheme" type="text/css">.ColorScheme-Text { color:#d6dbf1; }
</style>
  <g
     id="22-22-computer-laptop"
     transform="translate(32,-21.999996)">
    <rect
       style="opacity:0.00100002"
       width="22"
       height="22"
       x="0"
       y="-1.8530274e-07"
       id="rect2" />
    <path
       d="M 20.533369,3.6666987 C 20.533369,3.1472925 20.215517,2.75 19.799979,2.75 H 2.19996 C 1.784423,2.75 1.466578,3.1472787 1.466578,3.6666987 V 17.110761 L 0,17.110974 v 0.305635 C 0,18.424918 0.660045,19.25 1.466754,19.25 h 19.066684 c 0.391139,0 0.757743,-0.183294 1.051031,-0.549876 C 21.853369,18.364012 22,17.905759 22,17.416829 v -0.305635 h -1.466754 z m -18.715619,0 C 1.85625,3.2999952 2.05326,3.0861875 2.20007,3.0861875 h 17.600035 c 0.146628,0 0.382145,0.2825577 0.382145,0.5805112 V 17.110761 l -7.226552,2.2e-4 H 1.818438 Z M 21.48669,17.721853 c -0.04903,0.213991 -0.122256,0.397278 -0.244507,0.549876 -0.195422,0.244468 -0.439933,0.366809 -0.708814,0.366809 H 1.466685 c -0.464487,0 -0.831067,-0.397279 -0.953334,-0.916699 h 8.531126 c 0,0.336112 0.219957,0.611043 0.488848,0.611043 h 2.933296 c 0.268874,0 0.488848,-0.274945 0.488848,-0.611043 z"
       id="path64-5"
       style="stroke-width:0.0488025;fill-opacity:1;fill:currentColor;"
       sodipodi:nodetypes="csssccssscsccccsssccccccssccsscc"
       class="ColorScheme-Text" />
    <path
       d="M 18.964626,3.85 H 3.096995 C 2.791896,3.85 2.54375,4.0981875 2.54375,4.4032587 v 4.4842257 c 0,0.1577262 0.127854,0.2856906 0.285677,0.2856906 0.15785,0 0.285704,-0.1279231 0.285704,-0.2856906 V 4.4213125 h 15.831476 v 4.4661719 c 0,0.1577262 0.127868,0.2856906 0.285691,0.2856906 0.15776,0 0.285704,-0.1279231 0.285704,-0.2856906 V 4.4032587 C 19.517961,4.0981875 19.269739,3.85 18.964626,3.85 Z"
       id="path14-2-9"
       style="stroke-width:0.0380634;fill-opacity:1;fill:currentColor;"
       class="ColorScheme-Text" />
    <path
       d="m 19.232243,10.65625 c -0.157768,0 -0.285712,0.127862 -0.285712,0.285684 v 3.470514 h -15.8314 v -3.470514 c 0,-0.157781 -0.127854,-0.285684 -0.285677,-0.285684 -0.15785,0 -0.285704,0.127862 -0.285704,0.285684 v 3.488609 c 0,0.305057 0.248215,0.553245 0.553245,0.553245 h 15.867597 c 0.305092,0 0.553327,-0.248188 0.553327,-0.553245 v -3.488609 c 8.3e-5,-0.157781 -0.127861,-0.285684 -0.285676,-0.285684 z"
       id="path8-7-4"
       style="stroke-width:0.0380634;fill-opacity:1;fill:currentColor;"
       class="ColorScheme-Text" />
    <path
       inkscape:connector-curvature="0"
       id="path3825-5-2-9"
       style="stroke-miterlimit:1.41421;stroke-linejoin:round;stroke-width:0.366308;fill-rule:nonzero;fill-opacity:1;fill:currentColor;clip-rule:evenodd;"
       d="M 10.921051,5.6375 9.701765,5.754573 v 5.015921 l 1.206266,-0.182111 V 8.4498501 L 12.531143,10.822529 13.802535,10.419275 12.140344,8.1376597 13.815566,5.9861175 12.518116,5.6895334 10.908031,7.841075 Z M 8.156809,6.8602621 c -0.01381,0.00144 -0.02868,0.00523 -0.03905,0.015586 l -0.47938,0.4786966 c -0.02014,0.020199 -0.0226,0.051047 -0.0078,0.075452 l 0.560106,0.923571 C 8.091223,8.5205251 8.010461,8.6996188 7.953602,8.889496 L 6.9245,9.1028369 C 6.89587,9.1087469 6.875,9.1359679 6.875,9.1652759 V 9.841699 c 0,0.0286 0.02177,0.0531 0.0495,0.05984 l 0.997839,0.24195 c 0.05336,0.219823 0.135788,0.430181 0.2449,0.621785 L 7.588857,11.64462 c -0.01613,0.02453 -0.01301,0.05732 0.0078,0.07805 l 0.479377,0.478695 c 0.02023,0.0201 0.05117,0.02261 0.07555,0.0078 l 0.906654,-0.548939 c 0.17783,0.102528 0.370352,0.184657 0.573174,0.239354 l 0.211024,1.014631 c 0.0059,0.02868 0.03061,0.04945 0.05993,0.04945 h 0.677381 c 0.02843,0 0.05317,-0.01906 0.05992,-0.04683 l 0.25011,-1.019834 c 0.209175,-0.05632 0.406387,-0.139927 0.588803,-0.247155 l 0.893626,0.585363 c 0.02465,0.01601 0.05727,0.01293 0.07816,-0.0078 l 0.476774,-0.478698 c 0.02027,-0.02019 0.02525,-0.0511 0.01039,-0.07545 l -0.325666,-0.535933 -0.106819,0.03383 c -0.01544,0.0049 -0.03251,-0.0019 -0.04168,-0.01559 0,0 -0.205718,-0.302185 -0.474169,-0.694624 -0.321053,0.627341 -0.97581,1.056251 -1.729933,1.056251 -1.071591,0 -1.940961,-0.868136 -1.940961,-1.9382061 0,-0.7871202 0.471358,-1.463174 1.146345,-1.7664983 V 7.3129691 c -0.122851,0.042948 -0.24153,0.09474 -0.354329,0.1560976 -1.41e-4,-9.15e-5 2.33e-4,-0.00227 0,-0.00247 L 8.195894,6.8682322 c -0.01231,-0.00803 -0.02527,-0.00919 -0.03906,-0.00783 z"
       class="ColorScheme-Text " />
  </g>
  <g
     id="22-22-computer"
     transform="translate(0,-21.999996)">
    <rect
       style="opacity:0.00100002"
       width="22"
       height="22"
       x="0"
       y="0"
       id="rect7" />
    <path
       d="m 8.5787426,17.785124 v 1.580401 H 6.9992535 c -0.4958758,0 -0.8979072,0.493695 -0.8979072,1.103197 H 15.87201 c 0,-0.609502 -0.402036,-1.103197 -0.897912,-1.103197 h -1.552841 v -1.580401 z"
       id="path2-0"
       style="stroke-width:0.284032;fill-opacity:1;fill:currentColor;"
       class="ColorScheme-Text" />
    <path
       d="M 1.0697201,12.888859 H 2.8349e-4 v 1.073326 1.867505 c 0,0.718205 0.58234989,1.302671 1.29795301,1.302671 H 20.702048 C 21.417651,17.132361 22,16.547895 22,15.82969 v -1.867505 -1.073326 h -1.069438 z m 19.8605669,2.941118 c 0,0.126055 -0.102354,0.229345 -0.228525,0.229345 H 1.2979531 c -0.1258826,0 -0.228233,-0.103002 -0.228233,-0.229345 V 13.962473 H 20.930287 Z"
       id="path4-4"
       style="stroke-width:0.284032;fill-opacity:1;fill:currentColor;"
       class="ColorScheme-Text" />
    <path
       d="M 20.702048,1.5 H 1.2979531 C 0.58234989,1.5 0,2.0844676 0,2.8023886 V 12.896539 H 1.0694363 V 2.802673 c 0,-0.1263401 0.1023509,-0.2293481 0.2282334,-0.2293481 H 20.702048 c 0.125885,0 0.228514,0.1027236 0.228514,0.2293481 V 12.896539 H 22 V 2.802673 C 21.999725,2.0844676 21.417651,1.5 20.702048,1.5 Z"
       id="path6-8"
       style="stroke-width:0.284032;fill-opacity:1;fill:currentColor;"
       class="ColorScheme-Text" />
    <path
       inkscape:connector-curvature="0"
       id="path3825-5-7"
       style="stroke-miterlimit:1.41421;stroke-linejoin:round;stroke-width:0.420354;fill-rule:nonzero;fill-opacity:1;fill:currentColor;clip-rule:evenodd;"
       d="M 11.722065,3.4759088 10.325425,3.610498 V 9.3768997 L 11.707154,9.1675412 V 6.7090421 l 1.8592,2.7276776 L 15.022671,8.9731309 13.118715,6.350141 15.037596,3.8766868 13.551434,3.5357267 11.707154,6.009182 Z M 8.5557531,4.8816194 c -0.015811,0.00168 -0.032858,0.00594 -0.044733,0.017918 L 7.9619144,5.4498545 c -0.023064,0.023219 -0.02589,0.058687 -0.00899,0.086743 L 8.5945559,6.5983547 C 8.4806278,6.7902916 8.3881178,6.9961816 8.3229887,7.2144681 L 7.1441999,7.4597295 c -0.0328,0.00684 -0.056697,0.038088 -0.056697,0.071779 v 0.777629 c 0,0.032881 0.024944,0.061041 0.056697,0.068791 l 1.1429783,0.2781489 c 0.061117,0.2527125 0.155539,0.4945442 0.2805224,0.7148157 l -0.662511,1.0109189 c -0.018475,0.02817 -0.014897,0.06588 0.00899,0.08969 l 0.5491041,0.550322 c 0.02318,0.02308 0.058616,0.02596 0.086548,0.0095 L 9.588358,10.400178 c 0.2036975,0.117867 0.424217,0.212284 0.656539,0.275165 l 0.241726,1.16644 c 0.0072,0.03297 0.03506,0.05682 0.06867,0.05682 H 11.3312 c 0.03255,0 0.06087,-0.02191 0.06866,-0.05387 l 0.286487,-1.172422 c 0.239598,-0.0648 0.465502,-0.160862 0.674448,-0.284134 l 1.023605,0.672946 c 0.02821,0.01845 0.06558,0.01484 0.08949,-0.0095 l 0.546126,-0.550319 c 0.02318,-0.0232 0.02895,-0.0587 0.01196,-0.08677 l -0.373059,-0.6160046 -0.122355,0.038872 c -0.01769,0.00579 -0.03723,-0.00223 -0.04771,-0.017923 0,0 -0.23564,-0.3473979 -0.543139,-0.7985548 -0.367748,0.7212035 -1.117742,1.2142854 -1.981561,1.2142854 -1.2274535,0 -2.2232776,-0.9980231 -2.2232776,-2.2281977 0,-0.9048889 0.5399197,-1.6820935 1.3130836,-2.0308012 V 5.4020532 c -0.1407203,0.049371 -0.2766601,0.1089143 -0.4058649,0.1794531 -1.636e-4,-1.052e-4 2.662e-4,-0.00258 0,-0.00288 L 8.6005224,4.8907823 c -0.014098,-0.00922 -0.028944,-0.010564 -0.044742,-0.00902 z"
       class="ColorScheme-Text " />
  </g>
  <metadata
     id="metadata28">
    <rdf:RDF>
      <cc:Work
         rdf:about="">
        <dc:format>image/svg+xml</dc:format>
        <dc:type
           rdf:resource="http://purl.org/dc/dcmitype/StillImage" />
      </cc:Work>
    </rdf:RDF>
  </metadata>
  <defs
     id="defs26" />
  <sodipodi:namedview
     pagecolor="#ffffff"
     bordercolor="#000000"
     borderopacity="1"
     objecttolerance="10"
     gridtolerance="10"
     guidetolerance="10"
     inkscape:pageopacity="0"
     inkscape:pageshadow="2"
     inkscape:window-width="1920"
     inkscape:window-height="1015"
     id="namedview24"
     showgrid="false"
     inkscape:zoom="6.9384854"
     inkscape:cx="26.518756"
     inkscape:cy="11.025461"
     inkscape:window-x="0"
     inkscape:window-y="0"
     inkscape:window-maximized="1"
     inkscape:current-layer="svg22"
     inkscape:document-rotation="0"
     inkscape:lockguides="false"
     inkscape:showpageshadow="false"
     inkscape:pagecheckerboard="0"
     showguides="false">
    <inkscape:grid
       type="xygrid"
       id="grid870"
       originx="0"
       originy="-8.1853027e-06" />
  </sodipodi:namedview>
  <g
     id="computer">
    <rect
       style="opacity:0.00100002"
       width="32"
       height="32"
       x="0"
       y="1.8530274e-07"
       id="rect12" />
    <path
       d="m 12.893643,24.604601 v 1.99958 h -2.005701 c -0.629684,0 -1.1402,0.624644 -1.1402,1.395818 h 12.407189 c 0,-0.771174 -0.510516,-1.395818 -1.1402,-1.395818 h -1.971858 v -1.99958 z"
       id="path2"
       style="stroke-width:0.360025;fill-opacity:1;fill:currentColor;"
       class="ColorScheme-Text" />
    <path
       d="M 3.358375,18.409648 H 2.00036 v 1.358015 2.362845 c 0,0.908704 0.739492,1.648196 1.648195,1.648196 H 28.28832 c 0.908704,0 1.648196,-0.739492 1.648196,-1.648196 V 19.767663 18.409648 H 28.5785 Z m 25.219765,3.72122 c 0,0.159491 -0.129969,0.29018 -0.29018,0.29018 H 3.648195 c -0.159851,0 -0.28982,-0.130329 -0.28982,-0.29018 V 19.768023 H 28.57814 Z"
       id="path4"
       style="stroke-width:0.360025;fill-opacity:1;fill:currentColor;"
       class="ColorScheme-Text" />
    <path
       d="M 28.28832,4 H 3.648195 C 2.739492,4 2,4.739492 2,5.647835 V 18.419368 H 3.358015 V 5.648195 c 0,-0.159851 0.129969,-0.29018 0.28982,-0.29018 H 28.28832 c 0.159851,0 0.29018,0.129969 0.29018,0.29018 v 12.771173 h 1.358016 V 5.648195 C 29.936156,4.739492 29.197024,4 28.28832,4 Z"
       id="path6"
       style="stroke-width:0.360025;fill-opacity:1;fill:currentColor;"
       class="ColorScheme-Text" />
    <path
       inkscape:connector-curvature="0"
       id="path3825-5"
       style="stroke-miterlimit:1.41421;stroke-linejoin:round;stroke-width:0.532812;fill-rule:nonzero;fill-opacity:1;fill:currentColor;clip-rule:evenodd;"
       d="m 16.885165,6.5 -1.773507,0.170288 v 7.295885 l 1.754569,-0.264889 v -3.110593 l 2.36089,3.451169 1.849298,-0.586551 -2.417733,-3.318713 2.436687,-3.129516 -1.8872,-0.431395 -2.341942,3.1295154 z M 12.86445,8.278563 c -0.02008,0.0021 -0.04172,0.0076 -0.0568,0.02267 l -0.697281,0.696286 c -0.02929,0.02938 -0.03288,0.07425 -0.0114,0.109748 l 0.814755,1.343377 c -0.144672,0.242847 -0.262145,0.503347 -0.344848,0.779532 L 11.072,11.54049 C 11.03035,11.54909 11,11.58868 11,11.63131 v 0.983888 c 0,0.0416 0.03167,0.07723 0.072,0.08704 l 1.451402,0.351927 c 0.07761,0.319743 0.19751,0.625718 0.356219,0.904415 l -0.841284,1.279048 c -0.02346,0.03568 -0.01892,0.08338 0.0114,0.113532 l 0.697275,0.696284 c 0.02943,0.02924 0.07443,0.03288 0.109897,0.01136 l 1.318769,-0.798456 c 0.258663,0.149131 0.538695,0.268591 0.833708,0.34815 l 0.306944,1.475828 c 0.0086,0.04172 0.04453,0.07193 0.08717,0.07193 h 0.985281 c 0.04136,0 0.07734,-0.02773 0.08716,-0.06812 l 0.363795,-1.483396 c 0.304255,-0.08192 0.591109,-0.20353 0.856441,-0.359497 l 1.29982,0.851436 c 0.03585,0.02329 0.0833,0.01881 0.113688,-0.01137 l 0.693489,-0.696287 c 0.02948,-0.02937 0.03673,-0.07433 0.01512,-0.10974 l -0.473696,-0.779539 -0.155373,0.0492 c -0.02246,0.0072 -0.04729,-0.0028 -0.06062,-0.02267 0,0 -0.299226,-0.439542 -0.6897,-1.010363 -0.466987,0.912496 -1.41936,1.536366 -2.516267,1.536366 -1.558678,0 -2.823216,-1.262743 -2.823216,-2.819209 0,-1.144902 0.685612,-2.128253 1.667412,-2.5694516 V 8.937046 c -0.178693,0.06247 -0.351317,0.137803 -0.515388,0.227051 -2.06e-4,-1.33e-4 3.38e-4,-0.0033 0,-0.0036 L 12.9213,8.290156 c -0.0179,-0.01168 -0.03676,-0.01337 -0.05681,-0.01139 z"
       class="ColorScheme-Text " />
  </g>
  <g
     id="computer-laptop"
     transform="translate(32)">
    <rect
       style="opacity:0.00100002"
       width="32"
       height="32"
       x="0"
       y="0"
       id="rect17" />
    <path
       d="M 29.866719,5.33338 C 29.866719,4.57788 29.404388,4 28.79997,4 H 3.199942 C 2.5955239,4 2.1332048,4.57786 2.1332048,5.33338 v 19.555 L 0,24.88869 v 0.44456 C 0,26.79988 0.9600656,28 2.1334608,28 H 29.866819 c 0.568929,0 1.102171,-0.26661 1.528772,-0.79982 C 31.786719,26.71129 32,26.04474 32,25.33357 v -0.44456 h -2.13346 z m -27.222719,0 C 2.7,4.7999928 2.9865599,4.489 3.200102,4.489 h 25.60005 c 0.213278,0 0.555848,0.4109928 0.555848,0.84438 v 19.555 L 18.844651,24.8887 H 2.645 Z m 28.609368,20.44386 c -0.07132,0.31126 -0.177828,0.57786 -0.355647,0.79982 -0.284251,0.35559 -0.639903,0.53354 -1.031002,0.53354 H 2.1333599 c -0.6756175,0 -1.2088248,-0.57786 -1.3866667,-1.33338 H 13.155603 c 0,0.48889 0.319937,0.88879 0.711052,0.88879 h 4.266612 c 0.39109,0 0.711052,-0.39992 0.711052,-0.88879 z"
       id="path64"
       style="stroke-width:0.0709855;fill-opacity:1;fill:currentColor;"
       sodipodi:nodetypes="csssccssscsccccsssccccccssccsscc"
       class="ColorScheme-Text" />
    <path
       d="M 27.584911,5.6 H 4.50472 C 4.06094,5.6 3.7,5.961 3.7,6.40474 v 6.52251 c 0,0.22942 0.18597,0.41555 0.41553,0.41555 0.2296,0 0.41557,-0.18607 0.41557,-0.41555 V 6.431 h 23.027601 v 6.49625 c 0,0.22942 0.18599,0.41555 0.41555,0.41555 0.22947,0 0.41557,-0.18607 0.41557,-0.41555 V 6.40474 C 28.389761,5.961 28.028711,5.6 27.584911,5.6 Z"
       id="path14-2"
       style="stroke-width:0.0553649;fill-opacity:1;fill:currentColor;"
       class="ColorScheme-Text" />
    <path
       d="m 27.974171,15.5 c -0.22948,0 -0.41558,0.18598 -0.41558,0.41554 v 5.04802 H 4.5311 V 15.91554 C 4.5311,15.68604 4.34513,15.5 4.11557,15.5 3.88597,15.5 3.7,15.68598 3.7,15.91554 v 5.07434 c 0,0.44372 0.36104,0.80472 0.80472,0.80472 h 23.080141 c 0.44377,0 0.80484,-0.361 0.80484,-0.80472 V 15.91554 C 28.389821,15.68604 28.203721,15.5 27.974171,15.5 Z"
       id="path8-7"
       style="stroke-width:0.0553649;fill-opacity:1;fill:currentColor;"
       class="ColorScheme-Text" />
    <path
       inkscape:connector-curvature="0"
       id="path3825-5-2"
       style="stroke-miterlimit:1.41421;stroke-linejoin:round;stroke-width:0.532812;fill-rule:nonzero;fill-opacity:1;fill:currentColor;clip-rule:evenodd;"
       d="m 15.885165,8.2 -1.773507,0.170288 v 7.295885 l 1.754569,-0.264889 v -3.110593 l 2.36089,3.451169 1.849298,-0.586551 -2.417733,-3.318713 2.436687,-3.129516 -1.8872,-0.431395 -2.341942,3.129515 z M 11.86445,9.978563 c -0.02008,0.0021 -0.04172,0.0076 -0.0568,0.02267 l -0.697281,0.696286 c -0.02929,0.02938 -0.03288,0.07425 -0.0114,0.109748 l 0.814755,1.343377 c -0.144672,0.242847 -0.262145,0.503347 -0.344848,0.779532 L 10.072,13.24049 C 10.03035,13.24909 10,13.28868 10,13.33131 v 0.983888 c 0,0.0416 0.03167,0.07723 0.072,0.08704 l 1.451402,0.351927 c 0.07761,0.319743 0.19751,0.625718 0.356219,0.904415 l -0.841284,1.279048 c -0.02346,0.03568 -0.01892,0.08338 0.0114,0.113532 l 0.697275,0.696284 c 0.02943,0.02924 0.07443,0.03288 0.109897,0.01136 l 1.318769,-0.798456 c 0.258663,0.149131 0.538695,0.268591 0.833708,0.34815 l 0.306944,1.475828 c 0.0086,0.04172 0.04453,0.07193 0.08717,0.07193 h 0.985281 c 0.04136,0 0.07734,-0.02773 0.08716,-0.06812 l 0.363795,-1.483396 c 0.304255,-0.08192 0.591109,-0.20353 0.856441,-0.359497 l 1.29982,0.851436 c 0.03585,0.02329 0.0833,0.01881 0.113688,-0.01137 l 0.693489,-0.696287 c 0.02948,-0.02937 0.03673,-0.07433 0.01512,-0.10974 l -0.473696,-0.779539 -0.155373,0.0492 c -0.02246,0.0072 -0.04729,-0.0028 -0.06062,-0.02267 0,0 -0.299226,-0.439542 -0.6897,-1.010363 -0.466987,0.912496 -1.41936,1.536366 -2.516267,1.536366 -1.558678,0 -2.823216,-1.262743 -2.823216,-2.819209 0,-1.144902 0.685612,-2.128253 1.667412,-2.569452 v -0.726569 c -0.178693,0.06247 -0.351317,0.137803 -0.515388,0.227051 -2.06e-4,-1.33e-4 3.38e-4,-0.0033 0,-0.0036 L 11.9213,9.990156 c -0.0179,-0.01168 -0.03676,-0.01337 -0.05681,-0.01139 z"
       class="ColorScheme-Text " />
  </g>
</svg>
