<?xml version="1.0" encoding="UTF-8" standalone="no"?>
<svg
   width="32"
   height="32"
   version="1.1"
   id="svg17"
   sodipodi:docname="configure.svg"
   inkscape:version="1.1.2 (0a00cf5339, 2022-02-04)"
   xmlns:inkscape="http://www.inkscape.org/namespaces/inkscape"
   xmlns:sodipodi="http://sodipodi.sourceforge.net/DTD/sodipodi-0.dtd"
   xmlns="http://www.w3.org/2000/svg"
   xmlns:svg="http://www.w3.org/2000/svg"
   xmlns:rdf="http://www.w3.org/1999/02/22-rdf-syntax-ns#"
   xmlns:cc="http://creativecommons.org/ns#"
   xmlns:dc="http://purl.org/dc/elements/1.1/">
  <style
     id="current-color-scheme"
     type="text/css">.ColorScheme-Text { color:#d6dbf1; }
</style>
  <metadata
     id="metadata23">
    <rdf:RDF>
      <cc:Work
         rdf:about="">
        <dc:format>image/svg+xml</dc:format>
        <dc:type
           rdf:resource="http://purl.org/dc/dcmitype/StillImage" />
      </cc:Work>
    </rdf:RDF>
  </metadata>
  <defs
     id="defs21" />
  <sodipodi:namedview
     pagecolor="#ffffff"
     bordercolor="#000000"
     borderopacity="1"
     objecttolerance="10"
     gridtolerance="10"
     guidetolerance="10"
     inkscape:pageopacity="0"
     inkscape:pageshadow="2"
     inkscape:window-width="1920"
     inkscape:window-height="1009"
     id="namedview19"
     showgrid="false"
     inkscape:zoom="6.9384855"
     inkscape:cx="1.9456696"
     inkscape:cy="1.729484"
     inkscape:window-x="0"
     inkscape:window-y="0"
     inkscape:window-maximized="1"
     inkscape:current-layer="svg17"
     inkscape:document-rotation="0"
     inkscape:showpageshadow="false"
     inkscape:lockguides="true"
     inkscape:pagecheckerboard="0">
    <inkscape:grid
       type="xygrid"
       id="grid863"
       originx="4.7844194e-14"
       originy="0" />
  </sodipodi:namedview>
  <g
     id="configure">
    <rect
       style="opacity:0.00100002"
       width="32"
       height="32"
       x="0"
       y="0"
       id="rect12" />
    <path
       d="m 14.583307,4.00114 c -0.15606,0.01581 -0.304119,0.0772 -0.425589,0.1765229 -0.12147,0.09914 -0.21112,0.2319559 -0.25781,0.3818798 l -0.92505,2.9332275 c -0.292039,0.103238 -0.579419,0.2261899 -0.858229,0.3582559 L 9.3915403,6.4343648 h 1.9e-4 C 9.2412404,6.3560548 9.0695604,6.3274078 8.9019705,6.3528948 8.7341906,6.3783748 8.5786806,6.4565037 8.4583307,6.5761077 L 6.5749616,8.4592918 C 6.4555417,8.5798247 6.3772317,8.7351486 6.3519318,8.9029285 c -0.0255,0.167781 0.003,0.3392849 0.0815,0.4897608 L 7.850091,12.117584 C 7.7178411,12.396416 7.5950712,12.68382 7.4918412,12.975819 l -2.9334215,0.925045 v -1.91e-4 c -0.162762,0.05152 -0.3046848,0.153833 -0.4051318,0.291665 -0.1004479,0.138019 -0.1540189,0.304313 -0.153276,0.474889 v 2.666658 c -9.3e-4,0.170571 0.05283,0.337051 0.153276,0.474888 0.100447,0.137838 0.2423698,0.240142 0.4051318,0.291666 l 2.9334215,0.925045 c 0.10323,0.292037 0.2261899,0.579427 0.3582498,0.858235 l -1.4166592,2.724895 c -0.0785,0.150485 -0.10696,0.321985 -0.0815,0.489761 0.0253,0.16778 0.1036099,0.323103 0.2230298,0.44345 l 1.8833691,1.883184 c 0.12054,0.119604 0.2758599,0.197729 0.4436398,0.223214 0.1675899,0.02548 0.3392798,-0.003 0.4897598,-0.08147 L 12.116819,24.15009 c 0.27902,0.132252 0.566229,0.255024 0.858229,0.358257 l 0.92505,2.933228 -1.91e-4,1.91e-4 c 0.0517,0.162574 0.153831,0.304498 0.29166,0.404946 0.138021,0.100446 0.3045,0.154203 0.47508,0.153276 h 2.666659 c 0.17057,9e-4 0.33705,-0.05283 0.47507,-0.153276 0.13783,-0.100448 0.239959,-0.242372 0.29167,-0.404946 l 0.92504,-2.933229 c 0.292039,-0.103238 0.579429,-0.22619 0.858239,-0.358256 l 2.725078,1.416661 -1.9e-4,-1.89e-4 c 0.15049,0.0785 0.32217,0.106956 0.48976,0.08147 0.16779,-0.02548 0.32311,-0.10361 0.44364,-0.223214 l 1.883379,-1.883184 c 0.11942,-0.120347 0.19772,-0.27567 0.22302,-0.44345 0.0255,-0.167781 -0.003,-0.339285 -0.0815,-0.489761 l -1.416659,-2.724895 c 0.132249,-0.279018 0.25502,-0.566236 0.358259,-0.858235 l 2.933419,-0.925045 c 0.16276,-0.05152 0.30468,-0.153833 0.40513,-0.291666 0.100449,-0.137832 0.1542,-0.304313 0.15327,-0.474888 v -2.666658 c 9e-4,-0.170571 -0.0528,-0.337051 -0.15327,-0.474888 -0.10045,-0.138019 -0.24237,-0.240142 -0.40513,-0.291666 l -2.933419,-0.925045 c -0.103239,-0.292037 -0.22619,-0.579427 -0.358259,-0.858235 l 1.416659,-2.7248947 c 0.0785,-0.1504849 0.10696,-0.3219849 0.0815,-0.4897598 -0.0253,-0.1677809 -0.1036,-0.3231038 -0.22302,-0.4434518 l -1.883379,-1.883184 v -1.86e-4 c -0.12035,-0.119419 -0.27585,-0.1975419 -0.44364,-0.2230279 -0.16759,-0.02548 -0.33928,0.003 -0.48976,0.08147 l -2.725078,1.4166623 c -0.27902,-0.132252 -0.56624,-0.2550229 -0.85824,-0.3582558 L 18.100046,4.5593467 C 18.048346,4.3967708 17.946206,4.2548478 17.808376,4.1544 17.670356,4.053953 17.503876,4.000196 17.333306,4.001125 h -2.666659 c -0.0277,-0.0015 -0.0556,-0.0015 -0.0833,0 z m 0.67505,1.5998992 h 1.483229 l 0.85843,2.7248957 c 0.0815,0.2544648 0.28478,0.4514507 0.54166,0.5249026 0.494619,0.147509 0.959809,0.3370509 1.399909,0.5749498 0.23307,0.1270479 0.51414,0.1302099 0.74999,0.0084 l 2.524898,-1.3165674 1.066569,1.0665685 -1.316568,2.5248956 c -0.121841,0.23586 -0.118671,0.516759 0.008,0.749997 0.23791,0.440289 0.42746,0.90533 0.57495,1.3999 0.0737,0.256881 0.27065,0.460008 0.5251,0.541664 l 2.724888,0.858235 v 1.483234 l -2.725078,0.858235 h 1.9e-4 c -0.25447,0.08166 -0.45145,0.284784 -0.5251,0.541664 -0.14751,0.494618 -0.33705,0.959807 -0.57495,1.399901 -0.12705,0.233071 -0.13021,0.51414 -0.008,0.749997 l 1.316568,2.524896 -1.066569,1.066568 -2.524898,-1.316567 c -0.23586,-0.121838 -0.5169,-0.118862 -0.74999,0.0082 -0.44029,0.237909 -0.90553,0.427271 -1.399909,0.57495 -0.25706,0.07366 -0.46019,0.270647 -0.54166,0.525094 l -0.85824,2.724896 h -1.483229 l -0.858619,-2.724893 c -0.0815,-0.254466 -0.2846,-0.451451 -0.541661,-0.524903 -0.494619,-0.147513 -0.959809,-0.337055 -1.399899,-0.574954 -0.233069,-0.127047 -0.514139,-0.130209 -0.749999,-0.0084 L 9.1834704,23.883364 8.1169009,22.816797 9.4334702,20.291902 c 0.1218399,-0.235863 0.11868,-0.516761 -0.008,-0.749808 -0.23791,-0.440103 -0.4274499,-0.90533 -0.5749498,-1.3999 v -1.9e-4 C 8.7768206,17.885123 8.5798706,17.681996 8.3254308,17.600529 L 5.6005332,16.742104 v -1.483233 l 2.7250876,-0.858236 h -1.9e-4 c 0.2544599,-0.08166 0.4514498,-0.284784 0.5250897,-0.541665 0.14751,-0.494616 0.3370499,-0.959806 0.5749498,-1.399899 0.1270498,-0.23307 0.1302099,-0.514142 0.008,-0.749997 L 8.1169009,9.1841774 9.1834704,8.1176099 11.708369,9.4341773 c 0.23586,0.1218369 0.516899,0.1186749 0.749999,-0.0084 0.44029,-0.2379089 0.90552,-0.4274558 1.399899,-0.5749508 0.257061,-0.07347 0.460191,-0.2704608 0.541661,-0.5249027 l 0.858239,-2.7248906 z m 0.74162,5.8666458 c -2.494229,0 -4.533278,2.039041 -4.533278,4.533079 0,2.494039 2.039049,4.53308 4.533278,4.53308 2.494229,0 4.533268,-2.039041 4.533268,-4.53308 0,-2.494038 -2.039039,-4.533079 -4.533268,-4.533079 z m -0.0595,1.734708 z"
       id="path67"
       sodipodi:nodetypes="cccccccccccccccccccsccccccccccccccccccccccccccccccsccccccccccccccccccccccccccccccccccccccccccccccccccccccccccccccccccccccccccsssssccccc"
       style="stroke-width:0.0476189;fill-opacity:1;fill:currentColor;"
       class="ColorScheme-Text" />
  </g>
  <g
     id="16-16-configure"
     transform="translate(0,-38)">
    <rect
       style="opacity:0.00100002"
       width="16"
       height="16"
       x="0"
       y="0"
       id="rect7" />
    <path
       d="m 7.0555379,7.6e-4 c -0.10404,0.01054 -0.202746,0.05147 -0.283726,0.117682 -0.08098,0.06609 -0.140747,0.154637 -0.171873,0.254587 l -0.6167,1.9554844 c -0.194693,0.068825 -0.38628,0.1507933 -0.572153,0.2388373 L 3.5943599,1.62291 h 1.27e-4 C 3.4941599,1.570703 3.3797069,1.551605 3.2679799,1.568597 3.1561269,1.585584 3.0524539,1.63767 2.9722209,1.7174056 l -1.25558,1.2554561 c -0.07961,0.080355 -0.13182,0.1839046 -0.148686,0.295758 -0.017,0.111854 0.002,0.2261893 0.05433,0.3265066 l 0.944439,1.8165967 c -0.08817,0.185888 -0.170013,0.3774907 -0.238833,0.5721567 L 0.37227991,6.6005761 v -1.274e-4 c -0.108508,0.034347 -0.203123,0.1025554 -0.270088,0.1944434 C 0.03523191,6.8869051 -4.8708942e-4,6.997767 7.9105786e-6,7.111485 V 8.889257 C -6.1208942e-4,9.002971 0.03522791,9.113957 0.10219191,9.205849 c 0.06696,0.09189 0.16158,0.160094 0.270088,0.194444 l 1.95561399,0.616696 c 0.06882,0.194692 0.150793,0.386285 0.238833,0.572157 l -0.944439,1.816597 c -0.05233,0.100323 -0.07131,0.214656 -0.05433,0.326507 0.01687,0.111853 0.06907,0.215402 0.148686,0.295633 l 1.25558,1.255456 c 0.08036,0.07974 0.183906,0.13182 0.295759,0.14881 0.111727,0.01699 0.226187,-0.002 0.326507,-0.05431 l 1.816726,-0.944442 c 0.186013,0.08817 0.377486,0.170016 0.572152,0.238838 l 0.6167,1.955486 -1.27e-4,1.27e-4 c 0.03447,0.108383 0.102554,0.202999 0.19444,0.269964 0.09201,0.06696 0.203,0.102802 0.31672,0.102184 h 1.777773 c 0.1137129,6e-4 0.2246999,-0.03522 0.3167129,-0.102184 0.09189,-0.06696 0.159973,-0.161581 0.194447,-0.269964 l 0.6166932,-1.955486 c 0.194693,-0.06882 0.386286,-0.150793 0.572159,-0.238837 l 1.816719,0.94444 -1.27e-4,-1.26e-4 c 0.100327,0.05233 0.21478,0.0713 0.326507,0.05431 0.11186,-0.01699 0.215407,-0.06907 0.29576,-0.14881 l 1.255586,-1.255456 c 0.07961,-0.08023 0.131814,-0.18378 0.14868,-0.295633 0.017,-0.111854 -0.002,-0.22619 -0.05433,-0.326507 l -0.94444,-1.816597 c 0.08817,-0.186012 0.170014,-0.377491 0.23884,-0.572157 l 1.955613,-0.616696 c 0.108506,-0.03435 0.20312,-0.102556 0.270086,-0.194444 0.06697,-0.09189 0.1028,-0.202876 0.10218,-0.316592 V 7.111485 C 16.00056,6.997771 15.96476,6.8867841 15.89778,6.7948927 15.83081,6.7028797 15.7362,6.6347981 15.627694,6.6004487 L 13.672075,5.9837521 C 13.603245,5.7890607 13.521281,5.5974674 13.433235,5.4115954 l 0.94444,-1.8165967 C 14.430005,3.4946754 14.448985,3.380342 14.432005,3.268492 14.415135,3.1566387 14.362935,3.05309 14.283325,2.972858 L 13.027739,1.717402 v -1.24e-4 c -0.08023,-0.079613 -0.1839,-0.1316947 -0.29576,-0.1486853 -0.111727,-0.016987 -0.226187,0.002 -0.326507,0.054313 L 10.588754,2.5673471 C 10.402743,2.4791794 10.211263,2.397332 10.016597,2.32851 L 9.4000308,0.372898 C 9.3655608,0.264514 9.2974708,0.169899 9.2055838,0.102933 9.1135738,0.035973 9.0025838,1.31e-4 8.8888709,7.5e-4 h -1.777773 c -0.01847,-0.001 -0.03707,-0.001 -0.05553,0 z m 0.450033,1.0665993 h 0.98882 l 0.5722859,1.8165974 c 0.05433,0.1696433 0.189854,0.3009673 0.361107,0.3499353 0.329746,0.098339 0.6398732,0.2247 0.9332732,0.3832994 0.15538,0.084699 0.34276,0.086807 0.499993,0.0056 l 1.683265,-0.8777114 0.711046,0.7110454 -0.877712,1.683264 c -0.08123,0.15724 -0.07911,0.344506 0.0053,0.499998 0.158606,0.293526 0.284973,0.6035533 0.3833,0.9332667 0.04913,0.171254 0.180433,0.306672 0.350066,0.3611089 l 1.816593,0.572157 v 0.988823 l -1.816719,0.572156 h 1.26e-4 c -0.169646,0.05444 -0.300966,0.189856 -0.350066,0.36111 -0.09834,0.329745 -0.2247,0.639871 -0.3833,0.933267 -0.0847,0.155381 -0.08681,0.34276 -0.0053,0.499998 l 0.877712,1.683264 -0.711046,0.711045 -1.683265,-0.877711 c -0.15724,-0.08122 -0.3446,-0.07924 -0.499993,0.0055 -0.293527,0.158606 -0.6036872,0.284847 -0.9332732,0.3833 -0.171373,0.04911 -0.306793,0.180431 -0.361107,0.350063 l -0.5721599,1.816597 h -0.988819 l -0.572413,-1.816629 c -0.054333,-0.169644 -0.189733,-0.300967 -0.361107,-0.349935 -0.329746,-0.09834 -0.639873,-0.224703 -0.933266,-0.383303 -0.155379,-0.0847 -0.342759,-0.08681 -0.499999,-0.0056 l -1.683266,0.877711 -0.711046,-0.711045 0.877712,-1.683263 c 0.08123,-0.157242 0.07912,-0.344507 -0.0053,-0.499872 -0.158607,-0.293402 -0.284967,-0.603553 -0.3833,-0.933267 V 9.428003 C 3.1845429,9.256749 3.0532469,9.121331 2.8836209,9.067019 L 1.0670219,8.494736 V 7.505914 l 1.816725,-0.572157 h -1.26e-4 c 0.16964,-0.05444 0.300966,-0.1898563 0.35006,-0.3611103 0.09834,-0.329744 0.224699,-0.6398706 0.383299,-0.933266 0.0847,-0.15538 0.08681,-0.3427613 0.0053,-0.499998 L 2.7445679,3.456118 3.4556139,2.7450734 5.1388799,3.6227847 c 0.15724,0.081225 0.344599,0.079117 0.499999,-0.0056 0.293527,-0.158606 0.60368,-0.28497 0.933266,-0.3833 0.171374,-0.04898 0.306794,-0.1803073 0.361107,-0.3499353 l 0.57216,-1.8165941 z m 0.494414,3.9110974 c -1.66282,0 -3.022186,1.3593607 -3.022186,3.0220523 0,1.662693 1.359366,3.022054 3.022186,3.022054 1.6628189,0 3.0221781,-1.359361 3.0221781,-3.022054 0,-1.6626916 -1.3593592,-3.0220523 -3.0221781,-3.0220523 z m -0.03967,1.156472 z"
       id="path67-3-6"
       sodipodi:nodetypes="cccccccccccccccccccsccccccccccccccccccccccccccccccsccccccccccccccccccccccccccccccccccccccccccccccccccccccccccccccccccccccccccsssssccccc"
       style="stroke-width:0.0317459;fill-opacity:1;fill:currentColor;"
       class="ColorScheme-Text" />
  </g>
  <g
     id="22-22-configure"
     transform="translate(0,-22)">
    <g
       id="g1299">
      <rect
         style="opacity:0.00100002"
         width="22"
         height="22"
         x="0"
         y="0"
         id="rect2" />
      <path
         d="M 10.055538,3.00076 C 9.951498,3.0113 9.8527919,3.052227 9.7718119,3.118442 9.6908319,3.184535 9.6310649,3.2730793 9.5999389,3.3730287 l -0.6167,1.9554847 c -0.194693,0.068825 -0.38628,0.1507933 -0.572153,0.2388373 L 6.5943599,4.62291 h 1.27e-4 C 6.4941599,4.570703 6.3797069,4.551605 6.2679799,4.568597 6.1561269,4.585584 6.0524539,4.63767 5.9722209,4.7174056 l -1.25558,1.2554561 c -0.07961,0.080355 -0.13182,0.1839046 -0.148686,0.295758 -0.017,0.111854 0.002,0.2261893 0.05433,0.3265066 l 0.944439,1.8165967 c -0.08817,0.185888 -0.170013,0.3774907 -0.238833,0.5721567 l -1.955611,0.6166964 v -1.274e-4 c -0.108508,0.034347 -0.203123,0.1025554 -0.270088,0.1944434 -0.06696,0.092013 -0.102679,0.2028749 -0.102184,0.3165929 v 1.777772 c -6.2e-4,0.113714 0.03522,0.2247 0.102184,0.316592 0.06696,0.09189 0.16158,0.160094 0.270088,0.194444 l 1.955614,0.616696 c 0.06882,0.194692 0.150793,0.386285 0.238833,0.572157 l -0.944439,1.816597 c -0.05233,0.100323 -0.07131,0.214656 -0.05433,0.326507 0.01687,0.111853 0.06907,0.215402 0.148686,0.295633 l 1.25558,1.255456 c 0.08036,0.07974 0.183906,0.13182 0.295759,0.14881 0.111727,0.01699 0.226187,-0.002 0.326507,-0.05431 l 1.816726,-0.944442 c 0.186013,0.08817 0.377486,0.170016 0.572152,0.238838 l 0.6167,1.955486 -1.27e-4,1.27e-4 c 0.03447,0.108383 0.102554,0.202999 0.19444,0.269964 0.09201,0.06696 0.2030001,0.102802 0.3167201,0.102184 h 1.777773 c 0.113713,6e-4 0.2247,-0.03522 0.316713,-0.102184 0.09189,-0.06696 0.159973,-0.161581 0.194447,-0.269964 l 0.616693,-1.955486 c 0.194693,-0.06882 0.386286,-0.150793 0.572159,-0.238837 l 1.816719,0.94444 -1.27e-4,-1.26e-4 c 0.100327,0.05233 0.21478,0.0713 0.326507,0.05431 0.11186,-0.01699 0.215407,-0.06907 0.29576,-0.14881 l 1.255586,-1.255456 c 0.07961,-0.08023 0.131814,-0.18378 0.14868,-0.295633 0.017,-0.111854 -0.002,-0.22619 -0.05433,-0.326507 l -0.94444,-1.816597 c 0.08817,-0.186012 0.170014,-0.377491 0.23884,-0.572157 l 1.955613,-0.616696 c 0.108506,-0.03435 0.20312,-0.102556 0.270086,-0.194444 0.06697,-0.09189 0.1028,-0.202876 0.10218,-0.316592 V 10.111485 C 19.00056,9.997771 18.96476,9.8867841 18.89778,9.7948927 18.83081,9.7028797 18.7362,9.6347981 18.627694,9.6004487 L 16.672075,8.9837521 C 16.603245,8.7890607 16.521281,8.5974674 16.433235,8.4115954 l 0.94444,-1.8165967 C 17.430005,6.4946754 17.448985,6.380342 17.432005,6.268492 17.415135,6.1566387 17.362935,6.05309 17.283325,5.972858 L 16.027739,4.717402 v -1.24e-4 c -0.08023,-0.079613 -0.1839,-0.1316947 -0.29576,-0.1486853 -0.111727,-0.016987 -0.226187,0.002 -0.326507,0.054313 L 13.588754,5.5673471 C 13.402743,5.4791794 13.211263,5.397332 13.016597,5.32851 L 12.400031,3.372898 C 12.365561,3.264514 12.297471,3.1698987 12.205584,3.1029333 12.113574,3.0359683 12.002584,3.0001307 11.888871,3.00075 h -1.777773 c -0.01847,-10e-4 -0.03707,-10e-4 -0.05553,0 z m 0.450033,1.0665993 h 0.98882 l 0.572286,1.8165974 c 0.05433,0.1696433 0.189854,0.3009673 0.361107,0.3499353 0.329746,0.098339 0.639873,0.2247 0.933273,0.3832994 0.15538,0.084699 0.34276,0.086807 0.499993,0.0056 l 1.683265,-0.8777114 0.711046,0.7110454 -0.877712,1.683264 c -0.08123,0.15724 -0.07911,0.344506 0.0053,0.499998 0.158606,0.293526 0.284973,0.6035533 0.3833,0.9332667 0.04913,0.171254 0.180433,0.306672 0.350066,0.3611089 l 1.816593,0.572157 v 0.988823 l -1.816719,0.572156 h 1.26e-4 c -0.169646,0.05444 -0.300966,0.189856 -0.350066,0.36111 -0.09834,0.329745 -0.2247,0.639871 -0.3833,0.933267 -0.0847,0.155381 -0.08681,0.34276 -0.0053,0.499998 l 0.877712,1.683264 -0.711046,0.711045 -1.683265,-0.877711 c -0.15724,-0.08122 -0.3446,-0.07924 -0.499993,0.0055 -0.293527,0.158606 -0.603687,0.284847 -0.933273,0.3833 -0.171373,0.04911 -0.306793,0.180431 -0.361107,0.350063 l -0.57216,1.816597 H 10.505698 L 9.9332849,16.116703 c -0.054333,-0.169644 -0.189733,-0.300967 -0.361107,-0.349935 -0.329746,-0.09834 -0.639873,-0.224703 -0.933266,-0.383303 -0.155379,-0.0847 -0.342759,-0.08681 -0.499999,-0.0056 l -1.683266,0.877711 -0.711046,-0.711045 0.877712,-1.683263 c 0.08123,-0.157242 0.07912,-0.344507 -0.0053,-0.499872 -0.158607,-0.293402 -0.284967,-0.603553 -0.3833,-0.933267 v -1.26e-4 c -0.049166,-0.171254 -0.180466,-0.306672 -0.350092,-0.360984 l -1.816599,-0.572283 v -0.988822 l 1.816725,-0.572157 h -1.26e-4 c 0.16964,-0.05444 0.300966,-0.1898563 0.35006,-0.3611103 0.09834,-0.329744 0.224699,-0.6398706 0.383299,-0.933266 0.0847,-0.15538 0.08681,-0.3427613 0.0053,-0.499998 L 5.7445679,6.456118 6.4556139,5.7450734 8.1388799,6.6227847 c 0.15724,0.081225 0.344599,0.079117 0.499999,-0.0056 0.293527,-0.158606 0.60368,-0.28497 0.933266,-0.3833 0.171374,-0.04898 0.306794,-0.1803073 0.361107,-0.3499353 L 10.505412,4.0673553 Z m 0.494414,3.9110974 c -1.6628201,0 -3.0221861,1.3593607 -3.0221861,3.0220523 0,1.662693 1.359366,3.022054 3.0221861,3.022054 1.662819,0 3.022178,-1.359361 3.022178,-3.022054 0,-1.6626916 -1.359359,-3.0220523 -3.022178,-3.0220523 z m -0.03967,1.156472 z"
         id="path67-3-3"
         sodipodi:nodetypes="cccccccccccccccccccsccccccccccccccccccccccccccccccsccccccccccccccccccccccccccccccccccccccccccccccccccccccccccccccccccccccccccsssssccccc"
         style="stroke-width:0.0317459;fill-opacity:1;fill:currentColor;"
         class="ColorScheme-Text" />
    </g>
  </g>
</svg>
