<?xml version="1.0" encoding="UTF-8" standalone="no"?>
<svg
   width="32"
   height="32"
   version="1.1"
   id="svg17"
   sodipodi:docname="configure.svg"
   inkscape:version="1.1.2 (0a00cf5339, 2022-02-04)"
   xmlns:inkscape="http://www.inkscape.org/namespaces/inkscape"
   xmlns:sodipodi="http://sodipodi.sourceforge.net/DTD/sodipodi-0.dtd"
   xmlns="http://www.w3.org/2000/svg"
   xmlns:svg="http://www.w3.org/2000/svg"
   xmlns:rdf="http://www.w3.org/1999/02/22-rdf-syntax-ns#"
   xmlns:cc="http://creativecommons.org/ns#"
   xmlns:dc="http://purl.org/dc/elements/1.1/">
  <style id="current-color-scheme" type="text/css">.ColorScheme-Highlight { color:#3daee6; }
.ColorSheme-Text { color:#d6dbf1; }
</style>
  <metadata
     id="metadata23">
    <rdf:RDF>
      <cc:Work
         rdf:about="">
        <dc:format>image/svg+xml</dc:format>
        <dc:type
           rdf:resource="http://purl.org/dc/dcmitype/StillImage" />
      </cc:Work>
    </rdf:RDF>
  </metadata>
  <defs
     id="defs21" />
  <sodipodi:namedview
     pagecolor="#ffffff"
     bordercolor="#000000"
     borderopacity="1"
     objecttolerance="10"
     gridtolerance="10"
     guidetolerance="10"
     inkscape:pageopacity="0"
     inkscape:pageshadow="2"
     inkscape:window-width="1920"
     inkscape:window-height="1015"
     id="namedview19"
     showgrid="false"
     inkscape:zoom="6.9384853"
     inkscape:cx="19.024325"
     inkscape:cy="-0.79268021"
     inkscape:window-x="0"
     inkscape:window-y="0"
     inkscape:window-maximized="1"
     inkscape:current-layer="svg17"
     inkscape:document-rotation="0"
     inkscape:showpageshadow="false"
     inkscape:lockguides="false"
     inkscape:pagecheckerboard="0">
    <inkscape:grid
       type="xygrid"
       id="grid863"
       originx="0"
       originy="0" />
  </sodipodi:namedview>
  <g
     id="configure">
    <rect
       style="opacity:0.00100002"
       width="32"
       height="32"
       x="0"
       y="0"
       id="rect12" />
    <rect
       id="rect4156"
       style="fill:currentColor;fill-opacity:1;stroke:none;stroke-width:1.5"
       rx="1.5"
       y="13.000001"
       height="6"
       width="6"
       x="4"
       class="ColorScheme-Text  ColorSheme-Text" />
    <rect
       id="rect4158"
       style="fill:currentColor;fill-opacity:1;stroke:none;stroke-width:1.5"
       width="6"
       height="6"
       x="22"
       y="13.000001"
       rx="1.5"
       class="ColorScheme-Text  ColorSheme-Text" />
    <rect
       id="rect4160"
       style="fill:currentColor;fill-opacity:1;stroke:none;stroke-width:1.5"
       rx="1.5"
       x="13"
       height="6"
       width="6"
       y="4"
       class="ColorScheme-Text  ColorSheme-Text" />
    <rect
       id="rect4162"
       style="fill:currentColor;fill-opacity:1;stroke:none;stroke-width:1.5"
       width="6"
       height="6"
       x="13"
       y="22"
       rx="1.5"
       class="ColorScheme-Text  ColorSheme-Text" />
    <rect
       id="rect4164"
       style="fill:currentColor;fill-opacity:1;stroke:none;stroke-width:1.5"
       transform="rotate(45.000001)"
       width="6"
       height="6"
       x="10.627853"
       y="-3.0000007"
       rx="1.5"
       class="ColorScheme-Text  ColorSheme-Text " />
    <rect
       id="rect4166"
       style="fill:currentColor;fill-opacity:1;stroke:none;stroke-width:1.5"
       transform="rotate(45.000001)"
       rx="1.5"
       y="-3.0000007"
       x="28.627857"
       height="6"
       width="6"
       class="ColorScheme-Text  ColorSheme-Text" />
    <rect
       id="rect4168"
       style="fill:currentColor;fill-opacity:1;stroke:none;stroke-width:1.5"
       transform="rotate(45.000001)"
       width="6"
       height="6"
       x="19.627857"
       y="-12"
       rx="1.5"
       class="ColorScheme-Text  ColorSheme-Text" />
    <rect
       id="rect4170"
       style="fill:currentColor;fill-opacity:1;stroke:none;stroke-width:1.5"
       transform="rotate(45.000001)"
       rx="1.5"
       y="5.9999995"
       x="19.627857"
       height="6"
       width="6"
       class="ColorScheme-Text  ColorSheme-Text" />
    <path
       id="path4172"
       style="fill:currentColor;fill-opacity:1;stroke:none;stroke-width:1.5"
       d="m 15.815242,6.0652429 a 9.75,9.7500004 0 0 0 -9.7500002,9.7500001 9.75,9.7500004 0 0 0 9.7500002,9.75 9.75,9.7500004 0 0 0 9.750001,-9.750001 9.75,9.7500004 0 0 0 -9.750001,-9.7499991 m 0,5.2500001 a 4.5,4.5000002 0 0 1 4.500001,4.499999 4.5,4.5000002 0 0 1 -4.500001,4.500001 4.5,4.5000002 0 0 1 -4.5,-4.5 4.5,4.5000002 0 0 1 4.5,-4.5"
       inkscape:connector-curvature="0"
       class="ColorScheme-Text  ColorSheme-Text" />
    <path
       id="path4174"
       style="fill:currentColor;fill-opacity:1;stroke:none;stroke-width:1.5"
       d="M 16,8.5 A 7.5,7.5000003 0 0 0 8.4999998,16 7.5,7.5000003 0 0 0 16,23.500001 7.5,7.5000003 0 0 0 23.5,16 7.5,7.5000003 0 0 0 16,8.5 m 0,4.5 a 3,3.0000001 0 0 1 3,3 3,3.0000001 0 0 1 -3,3.000001 A 3,3.0000001 0 0 1 13,16 3,3.0000001 0 0 1 16,13"
       inkscape:connector-curvature="0"
       class="ColorScheme-Highlight " />
    <rect
       inkscape:label="#rect4696"
       ry="3.7500002"
       y="12.250001"
       x="12.25"
       height="7.5000005"
       width="7.5"
       id="rect4696"
       style="fill:currentColor;fill-opacity:1;fill-rule:evenodd;stroke:none;stroke-width:0.75;stroke-miterlimit:4;stroke-dasharray:none;stroke-opacity:1"
       class="ColorScheme-Text  ColorSheme-Text" />
  </g>
  <g
     id="22-22-configure"
     transform="translate(0,-22)">
    <rect
       style="opacity:0.00100002"
       width="22"
       height="22"
       x="0"
       y="0"
       id="rect2" />
    <rect
       id="rect4156-7"
       style="fill:currentColor;fill-opacity:1;stroke:none;stroke-width:1"
       rx="1"
       y="9"
       height="4"
       width="4"
       x="3"
       class="ColorScheme-Text  ColorSheme-Text" />
    <rect
       id="rect4158-1"
       style="fill:currentColor;fill-opacity:1;stroke:none;stroke-width:1"
       width="4"
       height="4"
       x="15"
       y="9"
       rx="1"
       class="ColorScheme-Text  ColorSheme-Text" />
    <rect
       id="rect4160-7"
       style="fill:currentColor;fill-opacity:1;stroke:none;stroke-width:1"
       rx="1"
       x="9"
       height="4"
       width="4"
       y="3"
       class="ColorScheme-Text  ColorSheme-Text" />
    <rect
       id="rect4162-2"
       style="fill:currentColor;fill-opacity:1;stroke:none;stroke-width:1"
       width="4"
       height="4"
       x="9"
       y="15"
       rx="1"
       class="ColorScheme-Text  ColorSheme-Text" />
    <rect
       id="rect4164-7"
       style="fill:currentColor;fill-opacity:1;stroke:none;stroke-width:1"
       transform="rotate(45.000001)"
       width="4"
       height="4"
       x="7.5566397"
       y="-1.9999981"
       rx="1"
       class="ColorScheme-Text  ColorSheme-Text" />
    <rect
       id="rect4166-2"
       style="fill:currentColor;fill-opacity:1;stroke:none;stroke-width:1"
       transform="rotate(45.000001)"
       rx="1"
       y="-1.9999981"
       x="19.556644"
       height="4"
       width="4"
       class="ColorScheme-Text  ColorSheme-Text" />
    <rect
       id="rect4168-2"
       style="fill:currentColor;fill-opacity:1;stroke:none;stroke-width:1"
       transform="rotate(45.000001)"
       width="4"
       height="4"
       x="13.556643"
       y="-8.0000019"
       rx="1"
       class="ColorScheme-Text  ColorSheme-Text" />
    <rect
       id="rect4170-6"
       style="fill:currentColor;fill-opacity:1;stroke:none;stroke-width:1"
       transform="rotate(45.000001)"
       rx="1"
       y="4.0000019"
       x="13.556643"
       height="4"
       width="4"
       class="ColorScheme-Text  ColorSheme-Text" />
    <path
       id="path4172-1"
       style="fill:currentColor;fill-opacity:1;stroke:none;stroke-width:1"
       d="m 10.876828,4.376829 a 6.5,6.5000003 0 0 0 -6.5,6.5 6.5,6.5000003 0 0 0 6.5,6.5 6.5,6.5000003 0 0 0 6.500001,-6.500001 6.5,6.5000003 0 0 0 -6.500001,-6.499999 m 0,3.5 a 3,3.0000001 0 0 1 3.000001,2.999999 3,3.0000001 0 0 1 -3.000001,3.000001 3,3.0000001 0 0 1 -3,-3 3,3.0000001 0 0 1 3,-3"
       inkscape:connector-curvature="0"
       class="ColorScheme-Text  ColorSheme-Text" />
    <path
       id="path4174-0"
       style="fill:currentColor;fill-opacity:1;stroke:none;stroke-width:1"
       d="M 11,6 A 5,5.0000002 0 0 0 6,11 5,5.0000002 0 0 0 11,16.000001 5,5.0000002 0 0 0 16,11 5,5.0000002 0 0 0 11,6 m 0,3 a 2,2.0000001 0 0 1 2,2 2,2.0000001 0 0 1 -2,2.000001 A 2,2.0000001 0 0 1 9,11 2,2.0000001 0 0 1 11,9"
       inkscape:connector-curvature="0"
       class="ColorScheme-Highlight " />
    <rect
       inkscape:label="#rect4696"
       ry="2.5000002"
       y="8.5"
       x="8.5"
       height="5.0000005"
       width="5"
       id="rect4696-6"
       style="fill:currentColor;fill-opacity:1;fill-rule:evenodd;stroke:none;stroke-width:0.5;stroke-miterlimit:4;stroke-dasharray:none;stroke-opacity:1"
       class="ColorScheme-Text  ColorSheme-Text" />
  </g>
  <g
     id="16-16-configure"
     transform="translate(0,-38)">
    <rect
       style="opacity:0.00100002"
       width="16"
       height="16"
       x="0"
       y="0"
       id="rect7" />
    <rect
       id="rect4156-7-1"
       style="fill:currentColor;fill-opacity:1;stroke:none;stroke-width:0.75"
       rx="0.75"
       y="6.4999995"
       height="3"
       width="3"
       x="2"
       class="ColorScheme-Text  ColorSheme-Text" />
    <rect
       id="rect4158-1-5"
       style="fill:currentColor;fill-opacity:1;stroke:none;stroke-width:0.75"
       width="3"
       height="3"
       x="11"
       y="6.4999995"
       rx="0.75"
       class="ColorScheme-Text  ColorSheme-Text" />
    <rect
       id="rect4160-7-9"
       style="fill:currentColor;fill-opacity:1;stroke:none;stroke-width:0.75"
       rx="0.75"
       x="6.5"
       height="3"
       width="3"
       y="2"
       class="ColorScheme-Text  ColorSheme-Text" />
    <rect
       id="rect4162-2-4"
       style="fill:currentColor;fill-opacity:1;stroke:none;stroke-width:0.75"
       width="3"
       height="3"
       x="6.5"
       y="11.000002"
       rx="0.75"
       class="ColorScheme-Text  ColorSheme-Text" />
    <rect
       id="rect4164-7-9"
       style="fill:currentColor;fill-opacity:1;stroke:none;stroke-width:0.75"
       transform="rotate(45.000001)"
       width="3"
       height="3"
       x="5.3139257"
       y="-1.4999974"
       rx="0.75"
       class="ColorScheme-Text  ColorSheme-Text" />
    <rect
       id="rect4166-2-0"
       style="fill:currentColor;fill-opacity:1;stroke:none;stroke-width:0.75"
       transform="rotate(45.000001)"
       rx="0.75"
       y="-1.4999974"
       x="14.31393"
       height="3"
       width="3"
       class="ColorScheme-Text  ColorSheme-Text" />
    <rect
       id="rect4168-2-9"
       style="fill:currentColor;fill-opacity:1;stroke:none;stroke-width:0.75"
       transform="rotate(45.000001)"
       width="3"
       height="3"
       x="9.8139296"
       y="-6.000001"
       rx="0.75"
       class="ColorScheme-Text  ColorSheme-Text" />
    <rect
       id="rect4170-6-1"
       style="fill:currentColor;fill-opacity:1;stroke:none;stroke-width:0.75"
       transform="rotate(45.000001)"
       rx="0.75"
       y="3.0000026"
       x="9.8139296"
       height="3"
       width="3"
       class="ColorScheme-Text  ColorSheme-Text" />
    <path
       id="path4172-1-7"
       style="fill:currentColor;fill-opacity:1;stroke:none;stroke-width:0.75"
       d="m 7.907621,3.032622 a 4.875,4.8750002 0 0 0 -4.875,4.875 4.875,4.8750002 0 0 0 4.875,4.875 4.875,4.8750002 0 0 0 4.875001,-4.875001 4.875,4.8750002 0 0 0 -4.875001,-4.874999 m 0,2.625 a 2.25,2.2500001 0 0 1 2.250001,2.249999 2.25,2.2500001 0 0 1 -2.250001,2.250001 2.25,2.2500001 0 0 1 -2.25,-2.25 2.25,2.2500001 0 0 1 2.25,-2.25"
       inkscape:connector-curvature="0"
       class="ColorScheme-Text  ColorSheme-Text" />
    <path
       id="path4174-0-7"
       style="fill:currentColor;fill-opacity:1;stroke:none;stroke-width:0.75"
       d="M 8,4.25 A 3.75,3.7500002 0 0 0 4.25,8 3.75,3.7500002 0 0 0 8,11.750001 3.75,3.7500002 0 0 0 11.75,8 3.75,3.7500002 0 0 0 8,4.25 M 8,6.5 A 1.5,1.5000001 0 0 1 9.5,8 1.5,1.5000001 0 0 1 8,9.500001 1.5,1.5000001 0 0 1 6.5,8 1.5,1.5000001 0 0 1 8,6.5"
       inkscape:connector-curvature="0"
       class="ColorScheme-Highlight" />
    <rect
       inkscape:label="#rect4696"
       ry="1.8750002"
       y="6.1249995"
       x="6.125"
       height="3.7500005"
       width="3.75"
       id="rect4696-6-1"
       style="fill:currentColor;fill-opacity:1;fill-rule:evenodd;stroke:none;stroke-width:0.375;stroke-miterlimit:4;stroke-dasharray:none;stroke-opacity:1"
       class="ColorScheme-Text  ColorSheme-Text" />
  </g>
</svg>
