<?xml version="1.0" encoding="UTF-8" standalone="no"?>
<svg
   width="32"
   height="32"
   version="1.1"
   id="svg12"
   sodipodi:docname="device.svg"
   inkscape:version="1.1.2 (0a00cf5339, 2022-02-04)"
   xmlns:inkscape="http://www.inkscape.org/namespaces/inkscape"
   xmlns:sodipodi="http://sodipodi.sourceforge.net/DTD/sodipodi-0.dtd"
   xmlns="http://www.w3.org/2000/svg"
   xmlns:svg="http://www.w3.org/2000/svg"
   xmlns:rdf="http://www.w3.org/1999/02/22-rdf-syntax-ns#"
   xmlns:cc="http://creativecommons.org/ns#"
   xmlns:dc="http://purl.org/dc/elements/1.1/">
  <style
     id="current-color-scheme"
     type="text/css">.ColorScheme-Text { color:#eff0f1; }
</style>
  <g
     id="22-22-device-notifier"
     transform="translate(32,10.000001)">
    <rect
       style="opacity:0.00100002"
       width="22"
       height="22"
       x="0"
       y="-4.6325681e-08"
       id="rect2" />
    <path
       style="enable-background:accumulate;marker:none;stroke-width:1.27489;stroke:none;fill-rule:nonzero;fill-opacity:1;fill:currentColor;visibility:visible;overflow:visible;display:inline;text-anchor:start;baseline-shift:baseline;direction:ltr;writing-mode:lr-tb;text-transform:none;word-spacing:normal;letter-spacing:normal;text-decoration-line:none;text-decoration:none;text-align:start;text-indent:0;-inkscape-font-specification:Sans;font-family:Sans;line-height:normal;font-size:medium;font-stretch:normal;font-weight:normal;font-variant:normal;font-style:normal;"
       d="M 7.605,7 C 6.5707974,7 6.0001572,7.62529 6.0001572,8.46 v 1.627407 c -0.013683,0.769328 1.0134951,0.769328 0.9998428,0 V 8.46 C 7,8.22503 7.263062,8 7.5479103,8 L 14.523582,8.014 C 14.80844,8.014 15,8.32503 15,8.56 v 9.056 C 15,17.850947 14.522723,18 14.23787,18 H 7.7621945 C 7.4773507,18 7,17.850947 7,17.616 v -3.898667 c 0.013734,-0.769318 -0.9998428,-0.769424 -0.9998428,0 V 17.683 C 6.0001572,18.5177 6.6707944,19 7.705,19 h 6.69 C 15.429208,19 16,18.5177 16,17.683 V 8.46 C 16,7.62529 15.429204,7 14.395,7 Z"
       id="path2-3-36"
       sodipodi:nodetypes="cccccccccccccsccccccc"
       class="ColorScheme-Text" />
    <path
       d="M 8.8571249,3 C 8.3797389,3 7.9999758,3.53009 8,4.0038409 V 6 H 9 V 4.9999615 C 9.024479,3.8154006 8.8571249,4 9.7142635,4 H 12.292654 C 13.142828,3.9999512 13.004124,3.8308275 13,4.9999615 V 6 h 1 l -2.4e-5,-2.0000197 C 13.999976,3.3976618 13.641577,3 13.154747,3.0000497 Z M 10,4.999999 v 1 L 11.428575,6 V 5.0000215 Z m 1.428575,2.25e-5 V 6 L 12,5.999999 v -1 z"
       style="stroke-width:0.925817;fill-rule:evenodd;fill-opacity:1;fill:currentColor;"
       id="path4-7"
       sodipodi:nodetypes="ccccccccccccccccccccccc"
       class="ColorScheme-Text" />
    <path
       id="path8-9-7-5"
       d="M 6.490622,11.2 A 0.59062499,0.59999656 0 0 0 5.9,11.799999 0.59062499,0.59999656 0 0 0 6.490622,12.4 0.59062499,0.59999656 0 0 0 7.081252,11.799999 0.59062499,0.59999656 0 0 0 6.490622,11.2 Z"
       style="stroke-width:0.346355;stroke:none;fill-rule:evenodd;fill-opacity:1;fill:currentColor;"
       inkscape:connector-curvature="0"
       class="ColorScheme-Text" />
  </g>
  <metadata
     id="metadata18">
    <rdf:RDF>
      <cc:Work
         rdf:about="">
        <dc:format>image/svg+xml</dc:format>
        <dc:type
           rdf:resource="http://purl.org/dc/dcmitype/StillImage" />
      </cc:Work>
    </rdf:RDF>
  </metadata>
  <defs
     id="defs16" />
  <sodipodi:namedview
     pagecolor="#ffffff"
     bordercolor="#666666"
     borderopacity="1"
     objecttolerance="10"
     gridtolerance="10"
     guidetolerance="10"
     inkscape:pageopacity="0"
     inkscape:pageshadow="2"
     inkscape:window-width="1920"
     inkscape:window-height="1009"
     id="namedview14"
     showgrid="true"
     inkscape:zoom="19.625001"
     inkscape:cx="15.745222"
     inkscape:cy="20.99363"
     inkscape:window-x="0"
     inkscape:window-y="0"
     inkscape:window-maximized="1"
     inkscape:current-layer="svg12"
     inkscape:document-rotation="0"
     showguides="false"
     inkscape:guide-bbox="true"
     inkscape:pagecheckerboard="0"
     inkscape:lockguides="false">
    <inkscape:grid
       type="xygrid"
       id="grid849"
       originx="0"
       originy="0" />
    <sodipodi:guide
       position="-30.165605,19.66879"
       orientation="1,0"
       id="guide850"
       inkscape:locked="false" />
  </sodipodi:namedview>
  <g
     id="device-notifier">
    <rect
       style="opacity:0.00100002;fill:#eff0f1;fill-opacity:1"
       width="32"
       height="32"
       x="0"
       y="0"
       id="rect7" />
    <path
       style="enable-background:accumulate;marker:none;stroke-width:1.8475;stroke:none;fill-rule:nonzero;fill-opacity:1;fill:currentColor;visibility:visible;overflow:visible;display:inline;text-anchor:start;baseline-shift:baseline;direction:ltr;writing-mode:lr-tb;text-transform:none;word-spacing:normal;letter-spacing:normal;text-decoration-line:none;text-decoration:none;text-align:start;text-indent:0;-inkscape-font-specification:Sans;font-family:Sans;line-height:normal;font-size:medium;font-stretch:normal;font-weight:normal;font-variant:normal;font-style:normal;"
       d="m 11.367,10 c -1.447892,0 -2.3667799,1.187935 -2.3667799,2.44 v 2.19111 C 9,15.444478 10,15.418188 10,14.63111 V 12.24 C 10,11.887545 10.501116,11 11.495222,11 L 20.633,11.071 C 21.531093,11 22,12.087545 22,12.44 V 26 c 0,0.480987 -0.572767,1 -1.466914,1 h -9.066 C 10.601904,27 10,26.450729 10,25.924 v -5.848 c 0.01923,-1.153978 -0.9997799,-1.154137 -0.9997799,0 v 5.648455 C 9.0002201,26.976505 10.218963,28 11.66686,28 h 8.666592 c 1.4479,0 2.666634,-1.023495 2.666634,-2.275545 V 12.44 c 0,-1.252065 -1.21874,-2.44 -2.666634,-2.44 z"
       id="path2-3"
       sodipodi:nodetypes="cccccccccccccsccccccc"
       class="ColorScheme-Text" />
    <path
       d="M 13.142835,4 C 12.506318,4 11.999966,4.6834148 12,5.473 V 9 h 1 V 7.3332704 C 13,5 13,5 14,5 h 4 c 1,0 1,0 1,2.3332704 V 9 h 1 l -3.4e-5,-3.533 c 0,-1.0038641 -0.477862,-1.467 -1.12697,-1.4669171 z M 14,7 v 2 h 1 V 7 Z m 3,0 v 2 h 1 V 7 Z"
       style="stroke-width:1.38012;fill-rule:evenodd;fill-opacity:1;fill:currentColor;solid-color:#d5c289;"
       id="path4"
       sodipodi:nodetypes="ccccccccccccccccccccccc"
       class="ColorScheme-Text" />
    <path
       id="path8-9-7"
       d="M 9.491933,16.3 A 0.88593748,0.89999484 0 0 0 8.606,17.199999 0.88593748,0.89999484 0 0 0 9.491933,18.1 0.88593748,0.89999484 0 0 0 10.377878,17.199999 0.88593748,0.89999484 0 0 0 9.491933,16.3 Z"
       style="stroke-width:0.519533;stroke:none;fill-rule:evenodd;fill-opacity:1;fill:currentColor;"
       inkscape:connector-curvature="0"
       class="ColorScheme-Text" />
  </g>
</svg>
