<?xml version="1.0" encoding="UTF-8" standalone="no"?>
<svg
   width="32"
   height="32"
   version="1.1"
   id="svg78"
   sodipodi:docname="disk.svg"
   inkscape:version="1.1.2 (0a00cf5339, 2022-02-04)"
   xmlns:inkscape="http://www.inkscape.org/namespaces/inkscape"
   xmlns:sodipodi="http://sodipodi.sourceforge.net/DTD/sodipodi-0.dtd"
   xmlns="http://www.w3.org/2000/svg"
   xmlns:svg="http://www.w3.org/2000/svg">
  <g
     id="22-22-disk-quota-missing"
     transform="translate(128,-22)">
    <rect
       style="opacity:0.00100002"
       width="22"
       height="22"
       x="0"
       y="0"
       id="rect34" />
    <path
       id="icon_23_-62-1"
       style="stroke-width:0.0229181;fill-opacity:1;fill:currentColor;opacity:0.45;"
       d="M 16.210773,3 H 5.790227 C 5.354427,3 5,3.188047 5,3.756493 V 6.750909 C 5,7.319357 5.354427,7.506896 5.790227,7.506896 H 16.210773 C 16.645613,7.506896 17,7.319357 17,6.750909 V 3.756493 C 17,3.188047 16.645613,3 16.210773,3 Z m -0.06267,3.668159 H 5.85244 V 3.838535 H 16.148107 Z M 13.346683,5.13954 V 4.733892 c 0,-0.182647 0.11174,-0.32822 0.25024,-0.32822 h 1.624446 c 0.138547,0 0.250287,0.145573 0.250287,0.32822 V 5.13954 c 0,0.181311 -0.11174,0.327565 -0.250287,0.327565 h -1.624446 c -0.1385,0 -0.25024,-0.146254 -0.25024,-0.327565 z m 2.8641,3.608105 -10.420547,-5.2e-5 C 5.354427,8.74759 5,8.934692 5,9.50445 v 2.992423 C 5,13.06464 5.354427,13.25242 5.790227,13.25242 H 16.210773 C 16.645613,13.25242 17,13.064667 17,12.496873 V 9.78063 C 17,9.210845 16.645613,8.747647 16.210773,8.747645 Z m -0.06267,3.666495 H 5.852446 V 9.587167 h 10.295667 z m -2.80142,-1.52862 v -0.406327 c 0,-0.179972 0.11174,-0.327564 0.25024,-0.327564 h 1.624453 c 0.13854,0 0.25028,0.147592 0.25028,0.327564 v 0.406327 c 0,0.18066 -0.11174,0.327567 -0.25028,0.327567 h -1.624453 c -0.1385,0 -0.25024,-0.146907 -0.25024,-0.327567 z m 2.8641,3.606893 H 5.790246 c -0.4358,0 -0.790226,0.188227 -0.790226,0.757987 v 2.9925 C 5.00002,18.811953 5.354446,19 5.790246,19 H 16.2108 C 16.645613,19 17,18.81198 17,18.2429 v -2.9925 c 0,-0.56976 -0.354387,-0.757987 -0.789227,-0.757987 z m -0.06267,3.668394 H 5.852457 v -2.828994 h 10.295666 z m -2.80142,-1.528014 v -0.40628 c 0,-0.181966 0.11174,-0.327586 0.25024,-0.327586 h 1.624454 c 0.13854,0 0.25028,0.14562 0.25028,0.327586 v 0.40628 c 0,0.181967 -0.11174,0.327587 -0.25028,0.327587 h -1.624454 c -0.1385,0 -0.25024,-0.145593 -0.25024,-0.327587 z"
       sodipodi:nodetypes="ssssssssscccccsssssssssssssssssscccccsssssssssssssssssscccccsssssssss"
       class="ColorScheme-Text" />
  </g>
  <g
     id="22-22-disk-quota-critical"
     transform="translate(96,-22)">
    <rect
       style="opacity:0.00100002"
       width="22"
       height="22"
       x="0"
       y="0"
       id="rect27" />
    <path
       id="icon_23_-7-2"
       style="fill:#da4453;fill-opacity:1;stroke-width:0.0229181"
       d="M 16.21081,3 H 5.79027 C 5.35447,3 5.00004,3.188047 5.00004,3.756493 V 6.75091 c 0,0.568447 0.35443,0.755987 0.79023,0.755987 h 10.42054 c 0.43484,0 0.78923,-0.18754 0.78923,-0.755987 V 3.756493 C 17.00004,3.188047 16.64565,3 16.21081,3 Z m -0.0627,3.66816 H 5.85245 V 3.838535 H 16.14811 Z M 13.3467,5.13954 V 4.733892 c 0,-0.182647 0.11174,-0.32822 0.25024,-0.32822 h 1.62444 c 0.13855,0 0.25029,0.145573 0.25029,0.32822 V 5.13954 c 0,0.181311 -0.11174,0.327566 -0.25029,0.327566 h -1.62444 c -0.1385,0 -0.25024,-0.146255 -0.25024,-0.327566 z m 2.86409,3.608105 -10.42054,-5.2e-5 c -0.4358,-2e-6 -0.79023,0.1871 -0.79023,0.756858 v 2.992424 c 0,0.567765 0.35443,0.755546 0.79023,0.755546 h 10.42054 c 0.43484,0 0.78923,-0.187754 0.78923,-0.755546 V 9.780631 c 0,-0.569785 -0.35439,-1.032983 -0.78923,-1.032986 z m -0.0627,3.666499 H 5.85242 V 9.587168 h 10.29567 z m -2.80142,-1.52862 v -0.406329 c 0,-0.179973 0.11174,-0.327565 0.25024,-0.327565 h 1.62445 c 0.13854,0 0.25028,0.147592 0.25028,0.327565 v 0.406329 c 0,0.180656 -0.11174,0.327566 -0.25028,0.327566 h -1.62445 c -0.1385,0 -0.25024,-0.14691 -0.25024,-0.327566 z m 2.8641,3.60689 H 5.79022 C 5.35442,14.492414 5,14.680643 5,15.250402 v 2.992502 C 5,18.811955 5.35442,19 5.79022,19 H 16.21077 C 16.64561,19 17,18.811981 17,18.242904 v -2.992502 c 0,-0.569759 -0.35439,-0.757988 -0.78923,-0.757988 z m -0.0627,3.668396 H 5.85241 v -2.828995 h 10.29566 z m -2.80142,-1.528017 v -0.406277 c 0,-0.181966 0.11174,-0.327591 0.25024,-0.327591 h 1.62446 c 0.13854,0 0.25028,0.145625 0.25028,0.327591 v 0.406277 c 0,0.181966 -0.11174,0.327591 -0.25028,0.327591 h -1.62446 c -0.1385,0 -0.25024,-0.145598 -0.25024,-0.327591 z"
       sodipodi:nodetypes="ssssssssscccccsssssssssssssssssscccccsssssssssssssssssscccccsssssssss" />
  </g>
  <g
     id="disk-quota-missing"
     transform="translate(128)">
    <rect
       style="opacity:0.00100002"
       width="32"
       height="32"
       x="0"
       y="0"
       id="rect71" />
    <path
       id="icon_23_-62"
       style="stroke-width:0.0343772;fill-opacity:1;fill:currentColor;opacity:0.45;"
       d="M 23.81616,4 H 8.18534 C 7.53164,4 7,4.28207 7,5.13474 v 4.491624 c 0,0.852671 0.53164,1.13398 1.18534,1.13398 H 23.81616 C 24.46842,10.760344 25,10.479035 25,9.626364 V 5.13474 C 25,4.28207 24.46842,4 23.81616,4 Z m -0.094,5.502239 H 8.27866 V 5.257803 h 15.4435 z M 19.52003,7.20931 V 6.600838 c 0,-0.273971 0.16761,-0.49233 0.37536,-0.49233 h 2.43667 c 0.20782,0 0.37543,0.218359 0.37543,0.49233 V 7.20931 c 0,0.271966 -0.16761,0.491348 -0.37543,0.491348 h -2.43667 c -0.20775,0 -0.37536,-0.219382 -0.37536,-0.491348 z m 4.29615,5.412157 -15.63082,-7.8e-5 C 7.53164,12.621385 7,12.902038 7,13.756675 v 4.488635 c 0,0.85165 0.53164,1.13332 1.18534,1.13332 H 23.81616 C 24.46842,19.37863 25,19.097 25,18.24531 v -4.074365 c 0,-0.854677 -0.53158,-1.549474 -1.18384,-1.549478 z m -0.094,5.499743 H 8.27868 v -4.240459 h 15.4435 z m -4.20213,-2.29293 v -0.60949 c 0,-0.269959 0.16761,-0.491347 0.37536,-0.491347 h 2.43668 c 0.20781,0 0.37542,0.221388 0.37542,0.491347 v 0.60949 c 0,0.27099 -0.16761,0.49135 -0.37542,0.49135 h -2.43668 c -0.20775,0 -0.37536,-0.22036 -0.37536,-0.49135 z m 4.29615,5.41034 H 8.18538 c -0.6537,0 -1.18534,0.28234 -1.18534,1.13698 v 4.48875 C 7.00004,27.71793 7.53168,28 8.18538,28 H 23.8162 C 24.46842,28 25,27.71797 25,26.86435 V 22.3756 c 0,-0.85464 -0.53158,-1.13698 -1.18384,-1.13698 z m -0.094,5.50259 H 8.2787 v -4.24349 h 15.4435 z m -4.20213,-2.29202 v -0.60942 c 0,-0.27295 0.16761,-0.49138 0.37536,-0.49138 h 2.43668 c 0.20781,0 0.37542,0.21843 0.37542,0.49138 v 0.60942 c 0,0.27295 -0.16761,0.49138 -0.37542,0.49138 h -2.43668 c -0.20775,0 -0.37536,-0.21839 -0.37536,-0.49138 z"
       sodipodi:nodetypes="ssssssssscccccsssssssssssssssssscccccsssssssssssssssssscccccsssssssss"
       class="ColorScheme-Text" />
  </g>
  <g
     id="disk-quota-critical"
     transform="translate(96)">
    <rect
       style="opacity:0.00100002"
       width="32"
       height="32"
       x="0"
       y="0"
       id="rect64" />
    <path
       id="icon_23_-5"
       style="fill:#da4453;fill-opacity:1;stroke-width:0.0343772"
       d="M 23.81616,4 H 8.18534 C 7.53164,4 7,4.28207 7,5.13474 V 9.626364 C 7,10.47903 7.53164,10.76034 8.18534,10.76034 H 23.81616 C 24.46842,10.76034 25,10.47903 25,9.626364 V 5.13474 C 25,4.28207 24.46842,4 23.81616,4 Z m -0.094,5.502239 H 8.27866 V 5.257803 h 15.4435 z M 19.52003,7.20931 V 6.600838 c 0,-0.273971 0.16761,-0.49233 0.37536,-0.49233 h 2.43667 c 0.20782,0 0.37543,0.218359 0.37543,0.49233 V 7.20931 c 0,0.271966 -0.16761,0.491348 -0.37543,0.491348 h -2.43667 c -0.20775,0 -0.37536,-0.219382 -0.37536,-0.491348 z m 4.29615,5.41216 -15.63082,-8e-5 c -0.6537,0 -1.18534,0.28065 -1.18534,1.13529 v 4.48863 c 0,0.85165 0.53164,1.13332 1.18534,1.13332 h 15.63082 c 0.65226,0 1.18384,-0.28163 1.18384,-1.13332 v -4.07436 c 0,-0.85468 -0.53158,-1.54948 -1.18384,-1.54948 z m -0.094,5.49974 H 8.27868 v -4.24046 h 15.4435 z m -4.20213,-2.29293 v -0.60949 c 0,-0.26996 0.16761,-0.49135 0.37536,-0.49135 h 2.43668 c 0.20781,0 0.37542,0.22139 0.37542,0.49135 v 0.60949 c 0,0.27099 -0.16761,0.49135 -0.37542,0.49135 h -2.43668 c -0.20775,0 -0.37536,-0.22036 -0.37536,-0.49135 z m 4.29615,5.41034 H 8.18538 c -0.6537,0 -1.18534,0.28234 -1.18534,1.13698 v 4.48875 C 7.00004,27.71793 7.53168,28 8.18538,28 H 23.8162 C 24.46842,28 25,27.71797 25,26.86435 V 22.3756 c 0,-0.85464 -0.53158,-1.13698 -1.18384,-1.13698 z m -0.094,5.50259 H 8.2787 v -4.24349 h 15.4435 z m -4.20213,-2.29202 v -0.60942 c 0,-0.27295 0.16761,-0.49138 0.37536,-0.49138 h 2.43668 c 0.20781,0 0.37542,0.21843 0.37542,0.49138 v 0.60942 c 0,0.27295 -0.16761,0.49138 -0.37542,0.49138 h -2.43668 c -0.20775,0 -0.37536,-0.21839 -0.37536,-0.49138 z"
       sodipodi:nodetypes="ssssssssscccccsssssssssssssssssscccccsssssssssssssssssscccccsssssssss" />
  </g>
  <g
     id="disk-quota-low"
     transform="translate(32)">
    <rect
       style="opacity:0.00100002"
       width="32"
       height="32"
       x="0"
       y="0"
       id="rect48" />
    <path
       id="icon_23_-1"
       style="fill:#5f8dd3;fill-opacity:1;stroke-width:0.0343772"
       d="M 23.816159,4 H 8.185344 C 7.531644,4 7,4.28207 7,5.13474 v 4.49162 c 0,0.85267 0.531644,1.13398 1.185344,1.13398 h 15.630815 c 0.652258,0 1.183842,-0.28131 1.183842,-1.13398 V 5.13474 C 25.000001,4.28207 24.468417,4 23.816159,4 Z m -0.09402,5.50224 H 8.278645 V 5.2578 H 23.722138 Z M 19.520006,7.20931 V 6.60084 c 0,-0.27397 0.16761,-0.49233 0.375364,-0.49233 h 2.436675 c 0.207814,0 0.375423,0.21836 0.375423,0.49233 v 0.60847 c 0,0.27197 -0.167609,0.49135 -0.375423,0.49135 H 19.89537 c -0.207754,0 -0.375364,-0.21938 -0.375364,-0.49135 z m 4.296153,5.41216 -15.630815,-8e-5 C 7.531644,12.62139 7,12.90204 7,13.75668 v 4.48863 c 0,0.85165 0.531644,1.13332 1.185344,1.13332 h 15.630815 c 0.652258,0 1.183842,-0.28163 1.183842,-1.13332 v -4.07436 c 0,-0.85468 -0.531584,-1.54948 -1.183842,-1.54948 z m -0.09402,5.49974 H 8.278645 v -4.24046 h 15.443493 z m -4.202132,-2.29293 v -0.60949 c 0,-0.26996 0.16761,-0.49135 0.375364,-0.49135 h 2.436675 c 0.207814,0 0.375423,0.22139 0.375423,0.49135 v 0.60949 c 0,0.27099 -0.167609,0.49135 -0.375423,0.49135 H 19.89537 c -0.207754,0 -0.375364,-0.22036 -0.375364,-0.49135 z m 4.296153,5.41034 H 8.185344 C 7.531644,21.23862 7,21.52096 7,22.3756 v 4.48875 C 7,27.71793 7.531644,28 8.185344,28 h 15.630815 c 0.652258,0 1.183842,-0.28203 1.183842,-1.13565 V 22.3756 c 0,-0.85464 -0.531584,-1.13698 -1.183842,-1.13698 z m -0.09402,5.50259 H 8.278645 v -4.24349 h 15.443493 z m -4.202132,-2.29202 v -0.60942 c 0,-0.27295 0.16761,-0.49138 0.375364,-0.49138 h 2.436675 c 0.207814,0 0.375423,0.21843 0.375423,0.49138 v 0.60942 c 0,0.27295 -0.167609,0.49138 -0.375423,0.49138 H 19.89537 c -0.207754,0 -0.375364,-0.21839 -0.375364,-0.49138 z"
       sodipodi:nodetypes="ssssssssscccccsssssssssssssssssscccccsssssssssssssssssscccccsssssssss" />
  </g>
  <sodipodi:namedview
     id="namedview80"
     pagecolor="#ffffff"
     bordercolor="#666666"
     borderopacity="1.0"
     inkscape:pageshadow="2"
     inkscape:pageopacity="0.0"
     inkscape:pagecheckerboard="0"
     showgrid="false"
     inkscape:zoom="4"
     inkscape:cx="65.500001"
     inkscape:cy="35.375"
     inkscape:window-width="1920"
     inkscape:window-height="1015"
     inkscape:window-x="0"
     inkscape:window-y="0"
     inkscape:window-maximized="1"
     inkscape:current-layer="svg78"
     inkscape:lockguides="true">
    <inkscape:grid
       type="xygrid"
       id="grid1005"
       originx="0"
       originy="0" />
  </sodipodi:namedview>
  <defs
     id="desert">
    <style
       id="current-color-scheme"
       type="text/css">.ColorScheme-Text { color:#d6dbf1; }
.ColorScheme-Background { color:#181818; }
.ColorScheme-ButtonBackground { color:#343434; }
.ColorScheme-Highlight { color:#4285f4; }
.ColorScheme-ViewBackground { color:#242424; }
.ColorScheme-NegativeText { color:#f44336; }
.ColorScheme-PositiveText { color:#4caf50; }
.ColorScheme-NeutralText { color:#ff9800; }
</style>
  </defs>
  <g
     transform="matrix(1.5,0,0,1.5,132,4.0003)"
     id="g75" />
  <g
     id="disk-quota">
    <rect
       style="opacity:0.00100002"
       width="32"
       height="32"
       x="0"
       y="0"
       id="rect41" />
    <path
       id="icon_23_"
       style="stroke-width:0.0343772;fill-opacity:1;fill:currentColor;"
       d="M 23.816159,4 H 8.1853445 C 7.5316442,4 7,4.2820696 7,5.1347403 V 9.6263642 C 7,10.479035 7.5316442,10.760344 8.1853445,10.760344 H 23.816159 c 0.652258,0 1.183842,-0.281309 1.183842,-1.1339798 V 5.1347403 C 25.000001,4.2820696 24.468417,4 23.816159,4 Z m -0.09402,5.5022393 H 8.2786445 V 5.2578034 H 23.722138 Z M 19.520006,7.2093102 V 6.6008384 c 0,-0.2739716 0.16761,-0.4923308 0.375364,-0.4923308 h 2.436675 c 0.207814,0 0.375423,0.2183592 0.375423,0.4923308 v 0.6084718 c 0,0.2719658 -0.167609,0.4913476 -0.375423,0.4913476 H 19.89537 c -0.207754,0 -0.375364,-0.2193818 -0.375364,-0.4913476 z m 4.296153,5.4121568 -15.6308145,-7.8e-5 C 7.5316442,12.621385 7,12.902038 7,13.756675 v 4.488635 c 0,0.851648 0.5316442,1.133319 1.1853445,1.133319 H 23.816159 c 0.652258,0 1.183842,-0.281631 1.183842,-1.133319 v -4.074365 c 0,-0.854677 -0.531584,-1.549474 -1.183842,-1.549478 z m -0.09402,5.499747 H 8.2786445 V 13.880751 H 23.722138 Z m -4.202132,-2.292929 v -0.609494 c 0,-0.26996 0.16761,-0.491348 0.375364,-0.491348 h 2.436675 c 0.207814,0 0.375423,0.221388 0.375423,0.491348 v 0.609494 c 0,0.270983 -0.167609,0.491348 -0.375423,0.491348 H 19.89537 c -0.207754,0 -0.375364,-0.220365 -0.375364,-0.491348 z m 4.296153,5.410334 H 8.1853445 C 7.5316442,21.238619 7,21.520963 7,22.375601 v 4.488752 c 0,0.853576 0.5316442,1.135644 1.1853445,1.135644 H 23.816159 c 0.652258,0 1.183842,-0.282029 1.183842,-1.135644 v -4.488752 c 0,-0.854638 -0.531584,-1.136982 -1.183842,-1.136982 z m -0.09402,5.502593 H 8.2786445 V 22.49772 H 23.722138 Z m -4.202132,-2.292025 v -0.609416 c 0,-0.272949 0.16761,-0.491386 0.375364,-0.491386 h 2.436675 c 0.207814,0 0.375423,0.218437 0.375423,0.491386 v 0.609416 c 0,0.272949 -0.167609,0.491387 -0.375423,0.491387 H 19.89537 c -0.207754,0 -0.375364,-0.218398 -0.375364,-0.491387 z"
       sodipodi:nodetypes="ssssssssscccccsssssssssssssssssscccccsssssssssssssssssscccccsssssssss"
       class="ColorScheme-Text" />
  </g>
  <g
     id="disk-quota-high"
     transform="translate(64)">
    <rect
       style="opacity:0.00100002"
       width="32"
       height="32"
       x="0"
       y="0"
       id="rect55" />
    <path
       id="icon_23_-6"
       style="fill:#ff9955;fill-opacity:1;stroke-width:0.0343772"
       d="M 23.816159,4 H 8.185344 C 7.531644,4 7,4.28207 7,5.13474 v 4.491624 c 0,0.852671 0.531644,1.13398 1.185344,1.13398 h 15.630815 c 0.652258,0 1.183842,-0.281309 1.183842,-1.13398 V 5.13474 C 25.000001,4.28207 24.468417,4 23.816159,4 Z m -0.09402,5.502239 H 8.278644 V 5.257803 H 23.722138 Z M 19.520006,7.20931 V 6.600838 c 0,-0.273971 0.16761,-0.49233 0.375364,-0.49233 h 2.436675 c 0.207814,0 0.375423,0.218359 0.375423,0.49233 V 7.20931 c 0,0.271966 -0.167609,0.491348 -0.375423,0.491348 H 19.89537 c -0.207754,0 -0.375364,-0.219382 -0.375364,-0.491348 z m 4.296153,5.412157 -15.630815,-7.8e-5 C 7.531644,12.621385 7,12.902038 7,13.756675 v 4.488635 c 0,0.851648 0.531644,1.133319 1.185344,1.133319 h 15.630815 c 0.652258,0 1.183842,-0.281631 1.183842,-1.133319 v -4.074365 c 0,-0.854677 -0.531584,-1.549474 -1.183842,-1.549478 z m -0.09402,5.499747 H 8.278644 v -4.240463 h 15.443494 z m -4.202132,-2.292929 v -0.609494 c 0,-0.26996 0.16761,-0.491348 0.375364,-0.491348 h 2.436675 c 0.207814,0 0.375423,0.221388 0.375423,0.491348 v 0.609494 c 0,0.270983 -0.167609,0.491348 -0.375423,0.491348 H 19.89537 c -0.207754,0 -0.375364,-0.220365 -0.375363,-0.491348 z M 23.81616,21.23862 H 8.185344 C 7.531644,21.23862 7,21.52096 7,22.3756 v 4.48875 C 7,27.71793 7.531644,28 8.185344,28 h 15.630815 c 0.652258,0 1.183842,-0.28203 1.183842,-1.13565 V 22.3756 c 0,-0.85464 -0.531584,-1.13698 -1.183841,-1.13698 z m -0.09402,5.50259 H 8.278644 v -4.24349 h 15.443494 z m -4.202132,-2.29202 v -0.60942 c 0,-0.27295 0.16761,-0.49138 0.375364,-0.49138 h 2.436675 c 0.207814,0 0.375423,0.21843 0.375423,0.49138 v 0.60942 c 0,0.27295 -0.167609,0.49138 -0.375423,0.49138 H 19.89537 c -0.207754,0 -0.375364,-0.21839 -0.375364,-0.49138 z"
       sodipodi:nodetypes="ssssssssscccccsssssssssssssssssscccccsssssssssssssssssscccccsssssssss" />
  </g>
  <g
     id="22-22-disk-quota"
     transform="translate(0,-22)">
    <rect
       style="opacity:0.00100002"
       width="22"
       height="22"
       x="0"
       y="0"
       id="rect4" />
    <path
       id="icon_23_-7"
       style="stroke-width:0.0229181;fill-opacity:1;fill:currentColor;"
       d="M 16.210775,3 H 5.79023 C 5.35443,3 5,3.188047 5,3.756493 V 6.75091 c 0,0.568447 0.35443,0.755987 0.79023,0.755987 h 10.420545 c 0.43484,0 0.789227,-0.18754 0.789227,-0.755987 V 3.756493 C 17.000002,3.188047 16.645615,3 16.210775,3 Z m -0.06267,3.66816 H 5.85244 V 3.838535 H 16.148105 Z M 13.34669,5.13954 V 4.733892 c 0,-0.182647 0.11174,-0.32822 0.25024,-0.32822 h 1.62444 c 0.13855,0 0.25029,0.145573 0.25029,0.32822 V 5.13954 c 0,0.181311 -0.11174,0.327566 -0.25029,0.327566 h -1.62444 c -0.1385,0 -0.25024,-0.146255 -0.25024,-0.327566 z M 16.210785,8.747645 5.79024,8.747593 c -0.4358,-2e-6 -0.79023,0.1871 -0.79023,0.756858 v 2.992424 c 0,0.567765 0.35443,0.755546 0.79023,0.755546 h 10.420545 c 0.43484,0 0.789227,-0.187754 0.789227,-0.755546 V 9.780631 c 0,-0.569785 -0.354387,-1.032983 -0.789227,-1.032986 z m -0.06267,3.666499 H 5.85244 V 9.587168 h 10.295675 z m -2.801425,-1.52862 v -0.406329 c 0,-0.179973 0.11174,-0.327565 0.25024,-0.327565 h 1.62445 c 0.13854,0 0.25028,0.147592 0.25028,0.327565 v 0.406329 c 0,0.180656 -0.11174,0.327566 -0.25028,0.327566 h -1.62445 c -0.1385,0 -0.25024,-0.14691 -0.25024,-0.327566 z m 2.864105,3.60689 H 5.79024 c -0.4358,0 -0.79022,0.188229 -0.79022,0.757988 v 2.992502 C 5.00002,18.811955 5.35444,19 5.79024,19 h 10.420555 c 0.43484,0 0.789227,-0.188019 0.789227,-0.757096 v -2.992502 c 0,-0.569759 -0.354387,-0.757988 -0.789227,-0.757988 z m -0.06267,3.668396 H 5.85246 V 15.331815 H 16.148125 Z M 13.3467,16.632793 v -0.406277 c 0,-0.181966 0.11174,-0.327591 0.25024,-0.327591 h 1.62446 c 0.13854,0 0.25028,0.145625 0.25028,0.327591 v 0.406277 c 0,0.181966 -0.11174,0.327591 -0.25028,0.327591 h -1.62446 c -0.1385,0 -0.25024,-0.145598 -0.25024,-0.327591 z"
       sodipodi:nodetypes="ssssssssscccccsssssssssssssssssscccccsssssssssssssssssscccccsssssssss"
       class="ColorScheme-Text" />
  </g>
  <g
     id="22-22-disk-quota-low"
     transform="translate(32,-22)">
    <rect
       style="opacity:0.00100002"
       width="22"
       height="22"
       x="0"
       y="0"
       id="rect11" />
    <path
       id="icon_23_-7-9"
       style="fill:#5f8dd3;fill-opacity:1;stroke-width:0.0229181"
       d="M 16.210775,3 H 5.79023 C 5.35443,3 5,3.188047 5,3.756493 V 6.75091 c 0,0.568447 0.35443,0.755987 0.79023,0.755987 h 10.420545 c 0.43484,0 0.789227,-0.18754 0.789227,-0.755987 V 3.756493 C 17.000002,3.188047 16.645615,3 16.210775,3 Z m -0.06267,3.66816 H 5.85244 V 3.838535 H 16.148105 Z M 13.34669,5.13954 V 4.733892 c 0,-0.182647 0.11174,-0.32822 0.25024,-0.32822 h 1.62444 c 0.13855,0 0.25029,0.145573 0.25029,0.32822 V 5.13954 c 0,0.181311 -0.11174,0.327566 -0.25029,0.327566 h -1.62444 c -0.1385,0 -0.25024,-0.146255 -0.25024,-0.327566 z M 16.210785,8.747645 5.79024,8.747593 c -0.4358,-2e-6 -0.79023,0.1871 -0.79023,0.756858 v 2.992424 c 0,0.567765 0.35443,0.755546 0.79023,0.755546 h 10.420545 c 0.43484,0 0.789227,-0.187754 0.789227,-0.755546 V 9.780631 c 0,-0.569785 -0.354387,-1.032983 -0.789227,-1.032986 z m -0.06267,3.666499 H 5.85244 V 9.587168 h 10.295675 z m -2.801425,-1.52862 v -0.406329 c 0,-0.179973 0.11174,-0.327565 0.25024,-0.327565 h 1.62445 c 0.13854,0 0.25028,0.147592 0.25028,0.327565 v 0.406329 c 0,0.180656 -0.11174,0.327566 -0.25028,0.327566 h -1.62445 c -0.1385,0 -0.25024,-0.14691 -0.25024,-0.327566 z m 2.864105,3.60689 H 5.79024 c -0.4358,0 -0.79022,0.188229 -0.79022,0.757988 v 2.992502 C 5.00002,18.811955 5.35444,19 5.79024,19 h 10.420555 c 0.43484,0 0.789227,-0.188019 0.789227,-0.757096 v -2.992502 c 0,-0.569759 -0.354387,-0.757988 -0.789227,-0.757988 z m -0.06267,3.668396 H 5.85246 V 15.331815 H 16.148125 Z M 13.3467,16.632793 v -0.406277 c 0,-0.181966 0.11174,-0.327591 0.25024,-0.327591 h 1.62446 c 0.13854,0 0.25028,0.145625 0.25028,0.327591 v 0.406277 c 0,0.181966 -0.11174,0.327591 -0.25028,0.327591 h -1.62446 c -0.1385,0 -0.25024,-0.145598 -0.25024,-0.327591 z"
       sodipodi:nodetypes="ssssssssscccccsssssssssssssssssscccccsssssssssssssssssscccccsssssssss" />
  </g>
  <g
     id="22-22-disk-quota-high"
     transform="translate(64,-22)">
    <rect
       style="opacity:0.00100002"
       width="22"
       height="22"
       x="0"
       y="0"
       id="rect18" />
    <path
       id="icon_23_-7-6"
       style="fill:#ff9955;fill-opacity:1;stroke-width:0.0229181"
       d="M 16.2108,3 H 5.79026 C 5.35446,3 5.00003,3.188047 5.00003,3.756493 V 6.75091 c 0,0.568447 0.35443,0.755987 0.79023,0.755987 H 16.2108 c 0.43485,0 0.78923,-0.18754 0.78923,-0.755987 V 3.756493 C 17.00003,3.188047 16.64565,3 16.2108,3 Z M 16.1481,6.66816 H 5.85247 V 3.838535 H 16.14814 Z M 13.34668,5.13954 V 4.733892 c 0,-0.182647 0.11174,-0.32822 0.25024,-0.32822 h 1.62444 c 0.13855,0 0.25029,0.145573 0.25029,0.32822 V 5.13954 c 0,0.181311 -0.11174,0.327566 -0.25029,0.327566 h -1.62444 c -0.1385,0 -0.25024,-0.146255 -0.25024,-0.327566 z m 2.8641,3.608105 -10.42055,-5.2e-5 C 5.35443,8.747591 5,8.934693 5,9.504451 v 2.992424 c 0,0.567765 0.35443,0.755546 0.79023,0.755546 H 16.21078 C 16.64561,13.252421 17,13.064667 17,12.496875 V 9.780631 C 17,9.210846 16.64561,8.747648 16.21078,8.747645 Z m -0.0627,3.666499 H 5.85247 V 9.587168 h 10.29568 z m -2.80143,-1.52862 v -0.406329 c 0,-0.179973 0.11174,-0.327565 0.25024,-0.327565 h 1.62445 c 0.13854,0 0.25028,0.147592 0.25028,0.327565 v 0.406329 c 0,0.180656 -0.11174,0.327566 -0.25028,0.327566 h -1.62445 c -0.1385,0 -0.25024,-0.14691 -0.25024,-0.327566 z m 2.86411,3.60689 H 5.79027 c -0.4358,0 -0.79022,0.188229 -0.79022,0.757988 v 2.992502 C 5.00005,18.811955 5.35447,19 5.79027,19 h 10.42055 c 0.43485,0 0.78923,-0.188019 0.78923,-0.757096 v -2.992502 c 0,-0.569759 -0.35438,-0.757988 -0.78922,-0.757988 z m -0.0627,3.668396 H 5.85249 v -2.828995 h 10.29566 z m -2.80142,-1.528017 v -0.406277 c 0,-0.181966 0.11174,-0.327591 0.25024,-0.327591 h 1.62446 c 0.13854,0 0.25028,0.145625 0.25028,0.327591 v 0.406277 c 0,0.181966 -0.11174,0.327591 -0.25028,0.327591 h -1.62446 c -0.1385,0 -0.25024,-0.145598 -0.25024,-0.327591 z"
       sodipodi:nodetypes="ssssssssscccccsssssssssssssssssscccccsssssssssssssssssscccccsssssssss" />
  </g>
</svg>
