<?xml version="1.0" encoding="UTF-8" standalone="no"?>
<svg
   width="32"
   height="32"
   version="1.1"
   id="svg32"
   sodipodi:docname="document.svg"
   inkscape:version="1.1.2 (0a00cf5339, 2022-02-04)"
   xmlns:inkscape="http://www.inkscape.org/namespaces/inkscape"
   xmlns:sodipodi="http://sodipodi.sourceforge.net/DTD/sodipodi-0.dtd"
   xmlns="http://www.w3.org/2000/svg"
   xmlns:svg="http://www.w3.org/2000/svg"
   xmlns:rdf="http://www.w3.org/1999/02/22-rdf-syntax-ns#"
   xmlns:cc="http://creativecommons.org/ns#"
   xmlns:dc="http://purl.org/dc/elements/1.1/">
  <style id="current-color-scheme" type="text/css">.ColorScheme-Text { color:#d6dbf1; }
</style>
  <metadata
     id="metadata38">
    <rdf:RDF>
      <cc:Work
         rdf:about="">
        <dc:format>image/svg+xml</dc:format>
        <dc:type
           rdf:resource="http://purl.org/dc/dcmitype/StillImage" />
      </cc:Work>
    </rdf:RDF>
  </metadata>
  <defs
     id="defs36">
    <linearGradient
       x1="0"
       x2="0"
       y1="0"
       y2="1"
       id="linearGradient13">
      <stop
         offset="0%"
         style="stop-color:#303b3d; stop-opacity:1"
         id="stop18" />
      <stop
         offset="100%"
         style="stop-color:#bc985d; stop-opacity:1"
         id="stop20" />
    </linearGradient>
  </defs>
  <sodipodi:namedview
     pagecolor="#ffffff"
     bordercolor="#000000"
     borderopacity="1"
     objecttolerance="10"
     gridtolerance="10"
     guidetolerance="10"
     inkscape:pageopacity="0"
     inkscape:pageshadow="2"
     inkscape:window-width="1920"
     inkscape:window-height="1015"
     id="namedview34"
     showgrid="false"
     inkscape:zoom="5.6568543"
     inkscape:cx="51.265241"
     inkscape:cy="14.937631"
     inkscape:window-x="0"
     inkscape:window-y="0"
     inkscape:window-maximized="1"
     inkscape:current-layer="svg32"
     inkscape:document-rotation="0"
     inkscape:lockguides="false"
     inkscape:showpageshadow="false"
     showguides="false"
     inkscape:pagecheckerboard="0">
    <inkscape:grid
       type="xygrid"
       id="grid886"
       originx="0"
       originy="0" />
  </sodipodi:namedview>
  <g
     id="document-decrypt"
     transform="translate(64)">
    <rect
       style="opacity:0.00100002;fill:#a8aeca;fill-opacity:1"
       width="32"
       height="32"
       x="0"
       y="0"
       id="rect27" />
    <path
       style="stroke-width:0.5;stroke:none;fill-opacity:1;fill:currentColor;"
       d="m 21.5,17.8 c -1.108,0 -2,0.892 -2,2 v 0.5 H 20 v -0.25 c 0,-0.9695 0.669,-1.75 1.5,-1.75 0.831,0 1.5,0.7805 1.5,1.75 V 21.8 H 20.5 20 19.5 19 18.5 v 0.5 3.5 h 0.5 5 0.5 v -4 H 24 23.5 v -2 c 0,-1.108 -0.892,-2 -2,-2 M 19,22.3 h 5 v 3 h -5 v -3"
       class="ColorScheme-Text "
       id="path4" />
    <path
       d="M 17.299651,27.200034 H 5.38302 c -0.15569,0 -0.28274,-0.126861 -0.28274,-0.282737 V 5.082603 c 0,-0.15569 0.12668,-0.282551 0.28274,-0.282551 h 11.205202 v 3.216894 c 0,0.220981 0.17894,0.399923 0.399919,0.399923 h 3.887991 v 6.265695 c 0,0.22098 0.17894,0.399922 0.399919,0.399922 0.22098,0 0.399929,-0.178942 0.399929,-0.399922 l 1.9e-4,-6.656646 c 0,-0.0032 7.4e-4,-0.006 7.4e-4,-0.0091 0,-0.0056 -9.75e-4,-0.01097 -0.002,-0.01656 -5.6e-4,-0.01395 -0.002,-0.02716 -0.004,-0.04111 -0.002,-0.01283 -0.004,-0.0253 -0.007,-0.03795 -0.003,-0.01228 -0.007,-0.02418 -0.0112,-0.03627 -0.004,-0.01246 -0.009,-0.02511 -0.0143,-0.03702 -0.005,-0.01116 -0.0115,-0.02158 -0.0177,-0.03255 -0.007,-0.01172 -0.014,-0.02344 -0.0221,-0.03441 -0.007,-0.0097 -0.0147,-0.01841 -0.0227,-0.02753 -0.006,-0.0067 -0.0106,-0.01414 -0.0167,-0.02027 -0.004,-0.0045 -0.01,-0.008 -0.0147,-0.01228 -0.004,-0.0032 -0.006,-0.0073 -0.01,-0.01005 L 17.24567,4.0944 c -0.005,-0.0043 -0.0106,-0.0069 -0.0158,-0.01097 -0.0117,-0.0091 -0.0238,-0.0173 -0.0363,-0.02474 -0.0106,-0.0063 -0.0216,-0.01228 -0.0327,-0.01786 -0.0117,-0.0056 -0.0234,-0.0106 -0.0357,-0.01525 -0.013,-0.0048 -0.026,-0.0087 -0.0394,-0.01228 C 17.07457,4.0103 17.06307,4.0079 17.05137,4.006 17.03607,4.0036 17.02127,4.0023 17.00597,4.0015 16.99997,4.001684 16.99427,4 16.98777,4 H 5.38257 C 4.78548,4 4.3,4.485664 4.3,5.082568 v 21.834693 c 0,0.597093 0.48567,1.082567 1.08257,1.082567 h 11.916629 c 0.22098,0 0.399919,-0.178941 0.399919,-0.399921 1.9e-4,-0.220981 -0.17875,-0.399923 -0.399919,-0.399923 z"
       id="path67"
       style="stroke-width:0.0476191;fill-opacity:1;fill:currentColor;"
       class="ColorScheme-Text" />
    <path
       d="M 18.388218,10.426753 H 7.58824 c -0.22098,0 -0.39991,0.178943 -0.39991,0.399923 0,0.220979 0.17893,0.399922 0.39991,0.399922 h 10.799978 c 0.220979,0 0.399919,-0.178943 0.399919,-0.399922 0,-0.22098 -0.17894,-0.399923 -0.399919,-0.399923 z"
       id="path69"
       style="stroke-width:0.0476191;fill-opacity:1;fill:currentColor;"
       class="ColorScheme-Text" />
    <path
       d="m 18.788217,13.920076 c 0,-0.220981 -0.178949,-0.399923 -0.399929,-0.399923 H 7.58832 c -0.22098,0 -0.39991,0.178942 -0.39991,0.399923 0,0.22098 0.17893,0.399923 0.39991,0.399923 h 10.799968 c 0.22098,0 0.399929,-0.178943 0.399929,-0.399923 z"
       id="path71"
       style="stroke-width:0.0476191;fill-opacity:1;fill:currentColor;"
       class="ColorScheme-Text" />
    <path
       d="m 16.426313,17.013399 c 0,-0.22098 -0.178939,-0.399922 -0.399919,-0.399922 l -8.438074,-1.9e-4 c -0.22097,0 -0.39991,0.178941 -0.39991,0.399922 0,0.22098 0.17894,0.399923 0.39991,0.399923 h 8.438074 c 0.221169,1.9e-4 0.400109,-0.178943 0.400109,-0.399737 z"
       id="path73"
       style="stroke-width:0.0476191;fill-opacity:1;fill:currentColor;"
       class="ColorScheme-Text" />
    <path
       d="M 14.454418,19.706724 H 7.58824 c -0.22098,0 -0.39991,0.178942 -0.39991,0.399922 0,0.220981 0.17893,0.399924 0.39991,0.399924 h 6.866178 c 0.22098,0 0.399919,-0.178943 0.399919,-0.399924 1.9e-4,-0.22098 -0.17875,-0.399922 -0.399919,-0.399922 z"
       id="path75"
       style="stroke-width:0.0476191;fill-opacity:1;fill:currentColor;"
       class="ColorScheme-Text" />
    <path
       d="M 14.388228,22.800048 H 7.58824 c -0.22098,0 -0.39991,0.178942 -0.39991,0.399922 0,0.22098 0.17893,0.399923 0.39991,0.399923 h 6.799988 c 0.220979,0 0.399919,-0.178943 0.399919,-0.399923 0,-0.22098 -0.17894,-0.399922 -0.399919,-0.399922 z"
       id="path77"
       style="stroke-width:0.0476191;fill-opacity:1;fill:currentColor;"
       class="ColorScheme-Text" />
    <path
       d="m 7.58824,8.133426 h 7.434266 c 0.22099,0 0.399929,-0.178941 0.399929,-0.399921 0,-0.220981 -0.178939,-0.399923 -0.399929,-0.399923 L 7.58824,7.333396 c -0.22098,0 -0.39991,0.178943 -0.39991,0.399924 0,0.221165 0.17875,0.400108 0.39991,0.400108 z"
       id="path79"
       style="stroke-width:0.0476191;fill-opacity:1;fill:currentColor;"
       class="ColorScheme-Text" />
    <path
       d="m 21.51916,15.60007 c -3.418701,0 -6.199984,2.78123 -6.199984,6.19998 0,3.418752 2.781233,6.199981 6.199984,6.199981 3.418702,0 6.199975,-2.781229 6.199975,-6.199981 0,-3.41875 -2.781223,-6.19998 -6.199975,-6.19998 z m 0,11.599964 c -2.977662,0 -5.399987,-2.422421 -5.399987,-5.399984 0,-2.977656 2.422425,-5.399982 5.399987,-5.399982 2.977654,0 5.399978,2.42242 5.399978,5.399982 1.89e-4,2.977658 -2.422225,5.399984 -5.399978,5.399984 z"
       id="path81"
       style="stroke-width:0.0476191;fill-opacity:1;fill:currentColor;"
       class="ColorScheme-Text" />
  </g>
  <g
     id="document-open-recent">
    <rect
       style="opacity:0.00100002;fill:#a8aeca;fill-opacity:1"
       width="32"
       height="32"
       x="0"
       y="0"
       id="rect17" />
    <path
       d="M 17.29965,27.200034 H 5.383019 c -0.155689,0 -0.282739,-0.126861 -0.282739,-0.282737 V 5.082603 c 0,-0.15569 0.126679,-0.282551 0.282739,-0.282551 h 11.205202 v 3.216894 c 0,0.220981 0.17894,0.399923 0.399919,0.399923 h 3.887991 v 6.265695 c 0,0.22098 0.17894,0.399922 0.399919,0.399922 0.22098,0 0.399929,-0.178942 0.399929,-0.399922 l 1.9e-4,-6.656646 c 0,-0.0032 7.4e-4,-0.006 7.4e-4,-0.0091 0,-0.0056 -9.75e-4,-0.01097 -0.002,-0.01656 -5.6e-4,-0.01395 -0.002,-0.02716 -0.004,-0.04111 -0.002,-0.01283 -0.004,-0.0253 -0.007,-0.03795 -0.003,-0.01228 -0.007,-0.02418 -0.0112,-0.03627 -0.004,-0.01246 -0.009,-0.02511 -0.0143,-0.03702 -0.005,-0.01116 -0.0115,-0.02158 -0.0177,-0.03255 -0.007,-0.01172 -0.014,-0.02344 -0.0221,-0.03441 -0.007,-0.0097 -0.0147,-0.01841 -0.0227,-0.02753 -0.006,-0.0067 -0.0106,-0.01414 -0.0167,-0.02027 -0.004,-0.0045 -0.01,-0.008 -0.0147,-0.01228 -0.004,-0.0032 -0.006,-0.0073 -0.01,-0.01005 L 17.245669,4.0944 c -0.005,-0.0043 -0.0106,-0.0069 -0.0158,-0.01097 -0.0117,-0.0091 -0.0238,-0.0173 -0.0363,-0.02474 -0.0106,-0.0063 -0.0216,-0.01228 -0.0327,-0.01786 -0.0117,-0.0056 -0.0234,-0.0106 -0.0357,-0.01525 -0.013,-0.0048 -0.026,-0.0087 -0.0394,-0.01228 -0.0112,-0.003 -0.0227,-0.0054 -0.0344,-0.0073 -0.0153,-0.0024 -0.0301,-0.0037 -0.0454,-0.0045 C 16.999969,4.001684 16.994269,4 16.987769,4 H 5.382567 C 4.785478,4 4.3,4.485664 4.3,5.082568 v 21.834693 c 0,0.597093 0.485669,1.082567 1.082567,1.082567 h 11.916631 c 0.22098,0 0.399919,-0.178941 0.399919,-0.399921 1.9e-4,-0.220981 -0.17875,-0.399923 -0.399919,-0.399923 z"
       id="path67-3"
       style="stroke-width:0.0476191;fill-opacity:1;fill:currentColor;"
       class="ColorScheme-Text" />
    <path
       d="M 18.388217,10.426753 H 7.588244 c -0.22098,0 -0.39992,0.178943 -0.39992,0.399923 0,0.220979 0.17894,0.399922 0.39992,0.399922 h 10.799973 c 0.220979,0 0.399919,-0.178943 0.399919,-0.399922 0,-0.22098 -0.17894,-0.399923 -0.399919,-0.399923 z"
       id="path69-6"
       style="stroke-width:0.0476191;fill-opacity:1;fill:currentColor;"
       class="ColorScheme-Text" />
    <path
       d="m 18.788216,13.920076 c 0,-0.220981 -0.178949,-0.399923 -0.399929,-0.399923 H 7.588323 c -0.220979,0 -0.399918,0.178942 -0.399918,0.399923 0,0.22098 0.178939,0.399923 0.399918,0.399923 h 10.799964 c 0.22098,0 0.399929,-0.178943 0.399929,-0.399923 z"
       id="path71-7"
       style="stroke-width:0.0476191;fill-opacity:1;fill:currentColor;"
       class="ColorScheme-Text" />
    <path
       d="m 16.426312,17.013399 c 0,-0.22098 -0.178939,-0.399922 -0.399919,-0.399922 l -8.43807,-1.9e-4 c -0.220979,0 -0.399918,0.178941 -0.399918,0.399922 0,0.22098 0.178939,0.399923 0.399918,0.399923 h 8.43807 c 0.221169,1.9e-4 0.400109,-0.178943 0.400109,-0.399737 z"
       id="path73-5"
       style="stroke-width:0.0476191;fill-opacity:1;fill:currentColor;"
       class="ColorScheme-Text" />
    <path
       d="M 14.454417,19.706724 H 7.588244 c -0.22098,0 -0.39992,0.178942 -0.39992,0.399922 0,0.220981 0.17894,0.399924 0.39992,0.399924 h 6.866173 c 0.22098,0 0.399919,-0.178943 0.399919,-0.399924 1.9e-4,-0.22098 -0.17875,-0.399922 -0.399919,-0.399922 z"
       id="path75-3"
       style="stroke-width:0.0476191;fill-opacity:1;fill:currentColor;"
       class="ColorScheme-Text" />
    <path
       d="M 14.388227,22.800048 H 7.588244 c -0.22098,0 -0.39992,0.178942 -0.39992,0.399922 0,0.22098 0.17894,0.399923 0.39992,0.399923 h 6.799983 c 0.220979,0 0.399919,-0.178943 0.399919,-0.399923 0,-0.22098 -0.17894,-0.399922 -0.399919,-0.399922 z"
       id="path77-5"
       style="stroke-width:0.0476191;fill-opacity:1;fill:currentColor;"
       class="ColorScheme-Text" />
    <path
       d="m 7.588244,8.133426 h 7.434261 c 0.22099,0 0.399929,-0.178941 0.399929,-0.399921 0,-0.220981 -0.178939,-0.399923 -0.399929,-0.399923 L 7.588244,7.333396 c -0.22098,0 -0.39992,0.178943 -0.39992,0.399924 0,0.221165 0.17876,0.400108 0.39992,0.400108 z"
       id="path79-6"
       style="stroke-width:0.0476191;fill-opacity:1;fill:currentColor;"
       class="ColorScheme-Text" />
    <path
       d="m 21.519159,15.60007 c -3.418701,0 -6.199984,2.78123 -6.199984,6.19998 0,3.418752 2.781233,6.199981 6.199984,6.199981 3.418702,0 6.199975,-2.781229 6.199975,-6.199981 0,-3.41875 -2.781223,-6.19998 -6.199975,-6.19998 z m 0,11.599964 c -2.977662,0 -5.399987,-2.422421 -5.399987,-5.399984 0,-2.977656 2.422425,-5.399982 5.399987,-5.399982 2.977654,0 5.399978,2.42242 5.399978,5.399982 1.89e-4,2.977658 -2.422225,5.399984 -5.399978,5.399984 z"
       id="path81-2"
       style="stroke-width:0.0476191;fill-opacity:1;fill:currentColor;"
       class="ColorScheme-Text" />
    <path
       d="m 23.624622,23.5 c -0.07124,0 -0.143622,-0.02065 -0.207751,-0.063 l -2.25,-1.5 C 21.062622,21.86725 21,21.750249 21,21.625 v -3.75 c 0,-0.207 0.168,-0.375 0.375,-0.375 0.207,0 0.375,0.168 0.375,0.375 v 3.549378 L 23.833131,22.813 c 0.172491,0.115129 0.219,0.347622 0.103869,0.520129 C 23.865,23.4415 23.745753,23.5 23.624622,23.5 Z"
       id="path12-3"
       style="stroke-width:0.375;fill-opacity:1;fill:currentColor;"
       class="ColorScheme-Text" />
  </g>
  <g
     id="document-encrypt"
     transform="translate(32)">
    <rect
       style="opacity:0.00100002;fill:#a8aeca;fill-opacity:1"
       width="32"
       height="32"
       x="0"
       y="0"
       id="rect22" />
    <path
       d="M 17.29965,27.200034 H 5.383019 c -0.155689,0 -0.282739,-0.126861 -0.282739,-0.282737 V 5.082603 c 0,-0.15569 0.126679,-0.282551 0.282739,-0.282551 h 11.205202 v 3.216894 c 0,0.220981 0.17894,0.399923 0.399919,0.399923 h 3.887991 v 6.265695 c 0,0.22098 0.17894,0.399922 0.399919,0.399922 0.22098,0 0.399929,-0.178942 0.399929,-0.399922 l 1.9e-4,-6.656646 c 0,-0.0032 7.4e-4,-0.006 7.4e-4,-0.0091 0,-0.0056 -9.75e-4,-0.01097 -0.002,-0.01656 -5.6e-4,-0.01395 -0.002,-0.02716 -0.004,-0.04111 -0.002,-0.01283 -0.004,-0.0253 -0.007,-0.03795 -0.003,-0.01228 -0.007,-0.02418 -0.0112,-0.03627 -0.004,-0.01246 -0.009,-0.02511 -0.0143,-0.03702 -0.005,-0.01116 -0.0115,-0.02158 -0.0177,-0.03255 -0.007,-0.01172 -0.014,-0.02344 -0.0221,-0.03441 -0.007,-0.0097 -0.0147,-0.01841 -0.0227,-0.02753 -0.006,-0.0067 -0.0106,-0.01414 -0.0167,-0.02027 -0.004,-0.0045 -0.01,-0.008 -0.0147,-0.01228 -0.004,-0.0032 -0.006,-0.0073 -0.01,-0.01005 L 17.245669,4.0944 c -0.005,-0.0043 -0.0106,-0.0069 -0.0158,-0.01097 -0.0117,-0.0091 -0.0238,-0.0173 -0.0363,-0.02474 -0.0106,-0.0063 -0.0216,-0.01228 -0.0327,-0.01786 -0.0117,-0.0056 -0.0234,-0.0106 -0.0357,-0.01525 -0.013,-0.0048 -0.026,-0.0087 -0.0394,-0.01228 -0.0112,-0.003 -0.0227,-0.0054 -0.0344,-0.0073 -0.0153,-0.0024 -0.0301,-0.0037 -0.0454,-0.0045 C 16.999969,4.001684 16.994269,4 16.987769,4 H 5.382567 C 4.785478,4 4.3,4.485664 4.3,5.082568 v 21.834693 c 0,0.597093 0.485669,1.082567 1.082567,1.082567 h 11.916631 c 0.22098,0 0.399919,-0.178941 0.399919,-0.399921 1.9e-4,-0.220981 -0.17875,-0.399923 -0.399919,-0.399923 z"
       id="path67-9"
       style="stroke-width:0.0476191;fill-opacity:1;fill:currentColor;"
       class="ColorScheme-Text" />
    <path
       d="M 18.388217,10.426753 H 7.588244 c -0.22098,0 -0.39992,0.178943 -0.39992,0.399923 0,0.220979 0.17894,0.399922 0.39992,0.399922 h 10.799973 c 0.220979,0 0.399919,-0.178943 0.399919,-0.399922 0,-0.22098 -0.17894,-0.399923 -0.399919,-0.399923 z"
       id="path69-1"
       style="stroke-width:0.0476191;fill-opacity:1;fill:currentColor;"
       class="ColorScheme-Text" />
    <path
       d="m 18.788216,13.920076 c 0,-0.220981 -0.178949,-0.399923 -0.399929,-0.399923 H 7.588323 c -0.220979,0 -0.399918,0.178942 -0.399918,0.399923 0,0.22098 0.178939,0.399923 0.399918,0.399923 h 10.799964 c 0.22098,0 0.399929,-0.178943 0.399929,-0.399923 z"
       id="path71-2"
       style="stroke-width:0.0476191;fill-opacity:1;fill:currentColor;"
       class="ColorScheme-Text" />
    <path
       d="m 16.426312,17.013399 c 0,-0.22098 -0.178939,-0.399922 -0.399919,-0.399922 l -8.43807,-1.9e-4 c -0.220979,0 -0.399918,0.178941 -0.399918,0.399922 0,0.22098 0.178939,0.399923 0.399918,0.399923 h 8.43807 c 0.221169,1.9e-4 0.400109,-0.178943 0.400109,-0.399737 z"
       id="path73-7"
       style="stroke-width:0.0476191;fill-opacity:1;fill:currentColor;"
       class="ColorScheme-Text" />
    <path
       d="M 14.454417,19.706724 H 7.588244 c -0.22098,0 -0.39992,0.178942 -0.39992,0.399922 0,0.220981 0.17894,0.399924 0.39992,0.399924 h 6.866173 c 0.22098,0 0.399919,-0.178943 0.399919,-0.399924 1.9e-4,-0.22098 -0.17875,-0.399922 -0.399919,-0.399922 z"
       id="path75-0"
       style="stroke-width:0.0476191;fill-opacity:1;fill:currentColor;"
       class="ColorScheme-Text" />
    <path
       d="M 14.388227,22.800048 H 7.588244 c -0.22098,0 -0.39992,0.178942 -0.39992,0.399922 0,0.22098 0.17894,0.399923 0.39992,0.399923 h 6.799983 c 0.220979,0 0.399919,-0.178943 0.399919,-0.399923 0,-0.22098 -0.17894,-0.399922 -0.399919,-0.399922 z"
       id="path77-9"
       style="stroke-width:0.0476191;fill-opacity:1;fill:currentColor;"
       class="ColorScheme-Text" />
    <path
       d="m 7.588244,8.133426 h 7.434261 c 0.22099,0 0.399929,-0.178941 0.399929,-0.399921 0,-0.220981 -0.178939,-0.399923 -0.399929,-0.399923 L 7.588244,7.333396 c -0.22098,0 -0.39992,0.178943 -0.39992,0.399924 0,0.221165 0.17876,0.400108 0.39992,0.400108 z"
       id="path79-3"
       style="stroke-width:0.0476191;fill-opacity:1;fill:currentColor;"
       class="ColorScheme-Text" />
    <path
       d="m 21.519159,15.60007 c -3.418701,0 -6.199984,2.78123 -6.199984,6.19998 0,3.418752 2.781233,6.199981 6.199984,6.199981 3.418702,0 6.199975,-2.781229 6.199975,-6.199981 0,-3.41875 -2.781223,-6.19998 -6.199975,-6.19998 z m 0,11.599964 c -2.977662,0 -5.399987,-2.422421 -5.399987,-5.399984 0,-2.977656 2.422425,-5.399982 5.399987,-5.399982 2.977654,0 5.399978,2.42242 5.399978,5.399982 1.89e-4,2.977658 -2.422225,5.399984 -5.399978,5.399984 z"
       id="path81-6"
       style="stroke-width:0.0476191;fill-opacity:1;fill:currentColor;"
       class="ColorScheme-Text" />
    <path
       id="path17"
       class="ColorScheme-Text "
       d="m 21.5,17.8 c -1.108,0 -2,0.892 -2,2 v 2 h -1 v 0.5 3.5 h 0.5 5 0.5 v -4 H 24 23.5 v -2 c 0,-1.108 -0.892,-2 -2,-2 z m 0,0.5 c 0.831,0 1.5,0.7805 1.5,1.75 v 1.75 h -3 v -1.75 c 0,-0.9695 0.669,-1.75 1.5,-1.75 z m -2.5,4 h 5 v 3 h -5 z"
       style="stroke-width:0.5;stroke:none;fill-opacity:1;fill:currentColor;" />
  </g>
  <g
     id="22-22-document-open-recent"
     transform="translate(0,-22)">
    <rect
       style="opacity:0.00100002;fill:#a8aeca;fill-opacity:1"
       width="22"
       height="22"
       x="0"
       y="0"
       id="rect7" />
    <path
       d="m 11.916476,18.466749 h -7.94441 c -0.103793,0 -0.188493,-0.08457 -0.188493,-0.188491 V 3.721814 c 0,-0.103793 0.08445,-0.188367 0.188493,-0.188367 h 7.470125 v 2.144594 c 0,0.14732 0.119293,0.266615 0.266612,0.266615 h 2.591991 v 4.177124 c 0,0.14732 0.119293,0.266614 0.266612,0.266614 0.14732,0 0.266619,-0.119294 0.266619,-0.266614 l 1.27e-4,-4.437758 c 0,-0.0021 4.93e-4,-0.004 4.93e-4,-0.0061 0,-0.0037 -6.5e-4,-0.0073 -0.0013,-0.01104 -3.74e-4,-0.0093 -0.0013,-0.01811 -0.0027,-0.02741 -0.0013,-0.0086 -0.0027,-0.01687 -0.0047,-0.0253 -0.002,-0.0082 -0.0047,-0.01612 -0.0075,-0.02418 -0.0027,-0.0083 -0.006,-0.01674 -0.0095,-0.02468 -0.0033,-0.0074 -0.0077,-0.01439 -0.0118,-0.0217 -0.0047,-0.0078 -0.0093,-0.01563 -0.01473,-0.02294 -0.0047,-0.0065 -0.0098,-0.01227 -0.01513,-0.01835 -0.004,-0.0045 -0.0071,-0.0094 -0.01113,-0.01351 -0.0027,-0.003 -0.0067,-0.0053 -0.0098,-0.0082 -0.0027,-0.0021 -0.004,-0.0049 -0.0067,-0.0067 L 11.880432,3.06297 c -0.0033,-0.0029 -0.0071,-0.0046 -0.01053,-0.0073 -0.0078,-0.0061 -0.01587,-0.01153 -0.0242,-0.01649 -0.0071,-0.0042 -0.0144,-0.0082 -0.0218,-0.01191 -0.0078,-0.0037 -0.0156,-0.0071 -0.0238,-0.01017 -0.0087,-0.0032 -0.01733,-0.0058 -0.02627,-0.0082 -0.0075,-0.002 -0.01513,-0.0036 -0.02293,-0.0049 -0.0102,-0.0016 -0.02007,-0.0025 -0.03027,-0.003 C 11.716632,3.001123 11.712832,3 11.708502,3 H 3.97171 C 3.573652,3 3.25,3.323776 3.25,3.721711 v 14.556443 c 0,0.398062 0.323779,0.721711 0.72171,0.721711 h 7.944411 c 0.14732,0 0.266612,-0.119294 0.266612,-0.266614 1.27e-4,-0.14732 -0.119166,-0.266615 -0.266612,-0.266615 z"
       id="path67-3-2"
       style="stroke-width:0.031746;fill-opacity:1;fill:currentColor;"
       class="ColorScheme-Text" />
    <path
       d="M 12.642187,7.284576 H 5.442214 c -0.14732,0 -0.266613,0.119296 -0.266613,0.266615 0,0.14732 0.119293,0.266615 0.266613,0.266615 h 7.199973 c 0.147319,0 0.266612,-0.119295 0.266612,-0.266615 0,-0.147319 -0.119293,-0.266615 -0.266612,-0.266615 z"
       id="path69-6-2"
       style="stroke-width:0.031746;fill-opacity:1;fill:currentColor;"
       class="ColorScheme-Text" />
    <path
       d="m 12.908852,9.613455 c 0,-0.14732 -0.119299,-0.266615 -0.266619,-0.266615 H 5.442267 c -0.14732,0 -0.266612,0.119295 -0.266612,0.266615 0,0.14732 0.119292,0.266615 0.266612,0.266615 h 7.199966 c 0.14732,0 0.266619,-0.119295 0.266619,-0.266615 z"
       id="path71-7-6"
       style="stroke-width:0.031746;fill-opacity:1;fill:currentColor;"
       class="ColorScheme-Text" />
    <path
       d="m 11.334252,11.675668 c 0,-0.14732 -0.119293,-0.266614 -0.266613,-0.266614 l -5.625372,-1.27e-4 c -0.14732,0 -0.266612,0.119294 -0.266612,0.266614 0,0.14732 0.119292,0.266615 0.266612,0.266615 h 5.625372 c 0.147446,1.27e-4 0.266739,-0.119295 0.266739,-0.266491 z"
       id="path73-5-1"
       style="stroke-width:0.031746;fill-opacity:1;fill:currentColor;"
       class="ColorScheme-Text" />
    <path
       d="M 10.019657,13.471216 H 5.442214 c -0.14732,0 -0.266613,0.119294 -0.266613,0.266614 0,0.147321 0.119293,0.266616 0.266613,0.266616 h 4.577443 c 0.147319,0 0.266612,-0.119295 0.266612,-0.266616 1.27e-4,-0.14732 -0.119167,-0.266614 -0.266612,-0.266614 z"
       id="path75-3-0"
       style="stroke-width:0.031746;fill-opacity:1;fill:currentColor;"
       class="ColorScheme-Text" />
    <path
       d="M 9.97553,15.533429 H 5.442214 c -0.14732,0 -0.266613,0.119295 -0.266613,0.266614 0,0.14732 0.119293,0.266615 0.266613,0.266615 H 9.97553 c 0.147319,0 0.266612,-0.119295 0.266612,-0.266615 0,-0.147319 -0.119293,-0.266614 -0.266612,-0.266614 z"
       id="path77-5-6"
       style="stroke-width:0.031746;fill-opacity:1;fill:currentColor;"
       class="ColorScheme-Text" />
    <path
       d="m 5.442214,5.755694 h 4.956167 c 0.147327,0 0.266619,-0.119294 0.266619,-0.266614 0,-0.14732 -0.119292,-0.266615 -0.266619,-0.266615 L 5.442214,5.222341 c -0.14732,0 -0.266613,0.119295 -0.266613,0.266616 0,0.147443 0.119173,0.266738 0.266613,0.266737 z"
       id="path79-6-1"
       style="stroke-width:0.031746;fill-opacity:1;fill:currentColor;"
       class="ColorScheme-Text" />
    <path
       d="m 14.729479,10.73345 c -2.279132,0 -4.133318,1.854151 -4.133318,4.133315 0,2.279165 1.854153,4.133315 4.133318,4.133315 2.279131,0 4.133311,-1.85415 4.133311,-4.133315 0,-2.279164 -1.854146,-4.133315 -4.133311,-4.133315 z m 0,7.733299 c -1.985106,0 -3.599987,-1.614945 -3.599987,-3.599984 0,-1.985102 1.614948,-3.599984 3.599987,-3.599984 1.9851,0 3.59998,1.614945 3.59998,3.599984 1.26e-4,1.985102 -1.614814,3.599984 -3.59998,3.599984 z"
       id="path81-2-5"
       style="stroke-width:0.031746;fill-opacity:1;fill:currentColor;"
       class="ColorScheme-Text" />
    <path
       d="m 16.133119,16.000063 c -0.04749,0 -0.09575,-0.01377 -0.138501,-0.042 L 14.49462,14.958065 c -0.0695,-0.0465 -0.111247,-0.124501 -0.111247,-0.208 v -2.499997 c 0,-0.138 0.112,-0.25 0.25,-0.25 0.137999,0 0.249999,0.112 0.249999,0.25 v 2.366249 l 1.388753,0.925747 c 0.114993,0.07675 0.145999,0.231748 0.06925,0.346752 -0.048,0.07225 -0.127497,0.111247 -0.208251,0.111247 z"
       id="path12-3-9"
       style="stroke-width:0.25;fill-opacity:1;fill:currentColor;"
       class="ColorScheme-Text" />
  </g>
  <g
     id="22-22-document-encrypt"
     transform="translate(32,-22)">
    <rect
       style="opacity:0.00100002;fill:#a8aeca;fill-opacity:1"
       width="22"
       height="22"
       x="0"
       y="0"
       id="rect2" />
    <path
       d="m 11.916422,18.466749 h -7.94441 c -0.103793,0 -0.188493,-0.08457 -0.188493,-0.188491 V 3.721814 c 0,-0.103793 0.08445,-0.188367 0.188493,-0.188367 h 7.470125 v 2.144594 c 0,0.14732 0.119293,0.266615 0.266612,0.266615 h 2.591991 v 4.177124 c 0,0.14732 0.119293,0.266614 0.266612,0.266614 0.14732,0 0.266619,-0.119294 0.266619,-0.266614 l 1.27e-4,-4.437758 c 0,-0.0021 4.93e-4,-0.004 4.93e-4,-0.0061 0,-0.0037 -6.5e-4,-0.0073 -0.0013,-0.01104 -3.74e-4,-0.0093 -0.0013,-0.01811 -0.0027,-0.02741 -0.0013,-0.0086 -0.0027,-0.01687 -0.0047,-0.0253 -0.002,-0.0082 -0.0047,-0.01612 -0.0075,-0.02418 -0.0027,-0.0083 -0.006,-0.01674 -0.0095,-0.02468 -0.0033,-0.0074 -0.0077,-0.01439 -0.0118,-0.0217 -0.0047,-0.0078 -0.0093,-0.01563 -0.01473,-0.02294 -0.0047,-0.0065 -0.0098,-0.01227 -0.01513,-0.01835 -0.004,-0.0045 -0.0071,-0.0094 -0.01113,-0.01351 -0.0027,-0.003 -0.0067,-0.0053 -0.0098,-0.0082 -0.0027,-0.0021 -0.004,-0.0049 -0.0067,-0.0067 L 11.880378,3.06297 c -0.0033,-0.0029 -0.0071,-0.0046 -0.01053,-0.0073 -0.0078,-0.0061 -0.01587,-0.01153 -0.0242,-0.01649 -0.0071,-0.0042 -0.0144,-0.0082 -0.0218,-0.01191 -0.0078,-0.0037 -0.0156,-0.0071 -0.0238,-0.01017 -0.0087,-0.0032 -0.01733,-0.0058 -0.02627,-0.0082 -0.0075,-0.002 -0.01513,-0.0036 -0.02293,-0.0049 -0.0102,-0.0016 -0.02007,-0.0025 -0.03027,-0.003 C 11.716578,3.001123 11.712778,3 11.708448,3 H 3.97171 C 3.573652,3 3.25,3.323776 3.25,3.721711 v 14.556443 c 0,0.398062 0.323779,0.721711 0.72171,0.721711 h 7.944411 c 0.14732,0 0.266612,-0.119294 0.266612,-0.266614 1.27e-4,-0.14732 -0.119166,-0.266615 -0.266612,-0.266615 z"
       id="path67-9-4"
       style="stroke-width:0.031746;fill-opacity:1;fill:currentColor;"
       class="ColorScheme-Text" />
    <path
       d="M 12.642133,7.284576 H 5.44216 c -0.14732,0 -0.266613,0.119296 -0.266613,0.266615 0,0.14732 0.119293,0.266615 0.266613,0.266615 h 7.199973 c 0.147319,0 0.266612,-0.119295 0.266612,-0.266615 0,-0.147319 -0.119293,-0.266615 -0.266612,-0.266615 z"
       id="path69-1-9"
       style="stroke-width:0.031746;fill-opacity:1;fill:currentColor;"
       class="ColorScheme-Text" />
    <path
       d="m 12.908798,9.613455 c 0,-0.14732 -0.119299,-0.266615 -0.266619,-0.266615 H 5.442213 c -0.14732,0 -0.266612,0.119295 -0.266612,0.266615 0,0.14732 0.119292,0.266615 0.266612,0.266615 h 7.199966 c 0.14732,0 0.266619,-0.119295 0.266619,-0.266615 z"
       id="path71-2-0"
       style="stroke-width:0.031746;fill-opacity:1;fill:currentColor;"
       class="ColorScheme-Text" />
    <path
       d="m 11.334198,11.675668 c 0,-0.14732 -0.119293,-0.266614 -0.266613,-0.266614 l -5.625372,-1.27e-4 c -0.14732,0 -0.266612,0.119294 -0.266612,0.266614 0,0.14732 0.119292,0.266615 0.266612,0.266615 h 5.625372 c 0.147446,1.27e-4 0.266739,-0.119295 0.266739,-0.266491 z"
       id="path73-7-9"
       style="stroke-width:0.031746;fill-opacity:1;fill:currentColor;"
       class="ColorScheme-Text" />
    <path
       d="M 10.019603,13.471216 H 5.44216 c -0.14732,0 -0.266613,0.119294 -0.266613,0.266614 0,0.147321 0.119293,0.266616 0.266613,0.266616 h 4.577443 c 0.147319,0 0.266612,-0.119295 0.266612,-0.266616 1.27e-4,-0.14732 -0.119167,-0.266614 -0.266612,-0.266614 z"
       id="path75-0-1"
       style="stroke-width:0.031746;fill-opacity:1;fill:currentColor;"
       class="ColorScheme-Text" />
    <path
       d="M 9.975476,15.533429 H 5.44216 c -0.14732,0 -0.266613,0.119295 -0.266613,0.266614 0,0.14732 0.119293,0.266615 0.266613,0.266615 h 4.533316 c 0.147319,0 0.266612,-0.119295 0.266612,-0.266615 0,-0.147319 -0.119293,-0.266614 -0.266612,-0.266614 z"
       id="path77-9-7"
       style="stroke-width:0.031746;fill-opacity:1;fill:currentColor;"
       class="ColorScheme-Text" />
    <path
       d="m 5.44216,5.755694 h 4.956167 c 0.147327,0 0.266619,-0.119294 0.266619,-0.266614 0,-0.14732 -0.119292,-0.266615 -0.266619,-0.266615 L 5.44216,5.222341 c -0.14732,0 -0.266613,0.119295 -0.266613,0.266616 0,0.147443 0.119173,0.266738 0.266613,0.266737 z"
       id="path79-3-7"
       style="stroke-width:0.031746;fill-opacity:1;fill:currentColor;"
       class="ColorScheme-Text" />
    <path
       d="m 14.729425,10.73345 c -2.279132,0 -4.133318,1.854151 -4.133318,4.133315 0,2.279165 1.854153,4.133315 4.133318,4.133315 2.279131,0 4.133311,-1.85415 4.133311,-4.133315 0,-2.279164 -1.854146,-4.133315 -4.133311,-4.133315 z m 0,7.733299 c -1.985106,0 -3.599987,-1.614945 -3.599987,-3.599984 0,-1.985102 1.614948,-3.599984 3.599987,-3.599984 1.9851,0 3.59998,1.614945 3.59998,3.599984 1.26e-4,1.985102 -1.614814,3.599984 -3.59998,3.599984 z"
       id="path81-6-1"
       style="stroke-width:0.031746;fill-opacity:1;fill:currentColor;"
       class="ColorScheme-Text" />
    <path
       id="path17-1"
       class="ColorScheme-Text "
       d="m 14.716652,12.200068 c -0.738666,0 -1.333332,0.594666 -1.333332,1.333332 v 1.333331 h -0.666666 v 0.333333 2.333331 h 0.333333 3.333329 0.333333 V 14.866731 H 16.383316 16.049983 V 13.5334 c 0,-0.738666 -0.594665,-1.333332 -1.333331,-1.333332 z m 0,0.333333 c 0.553999,0 0.999999,0.520333 0.999999,1.166665 v 1.166665 h -1.999998 v -1.166665 c 0,-0.646332 0.446,-1.166665 0.999999,-1.166665 z m -1.666665,2.666663 h 3.333329 v 1.999998 h -3.333329 z"
       style="stroke-width:0.333333;stroke:none;fill-opacity:1;fill:currentColor;" />
  </g>
  <g
     id="22-22-document-decrypt"
     transform="translate(64,-22)">
    <rect
       style="opacity:0.00100002;fill:#a8aeca;fill-opacity:1"
       width="22"
       height="22"
       x="0"
       y="0"
       id="rect12" />
    <path
       style="stroke-width:0.333333;stroke:none;fill-opacity:1;fill:currentColor;"
       d="m 14.716704,12.200068 c -0.738666,0 -1.333332,0.594666 -1.333332,1.333332 v 0.333333 h 0.333333 v -0.166667 c 0,-0.646332 0.446,-1.166665 0.999999,-1.166665 0.553999,0 0.999999,0.520333 0.999999,1.166665 v 1.166665 h -1.666665 -0.333333 -0.333333 -0.333333 -0.333333 v 0.333333 2.333331 h 0.333333 3.333329 0.333333 V 14.866731 H 16.383368 16.050035 V 13.5334 c 0,-0.738666 -0.594665,-1.333332 -1.333331,-1.333332 m -1.666665,2.999996 h 3.333329 v 1.999998 h -3.333329 v -1.999998"
       class="ColorScheme-Text "
       id="path4-5" />
    <path
       d="M 11.916475,18.466749 H 3.972064 c -0.103793,0 -0.188493,-0.08457 -0.188493,-0.188491 V 3.721814 c 0,-0.103793 0.08445,-0.188367 0.188493,-0.188367 h 7.470125 v 2.144594 c 0,0.14732 0.119294,0.266615 0.266613,0.266615 h 2.59199 v 4.177124 c 0,0.14732 0.119294,0.266614 0.266613,0.266614 0.14732,0 0.266619,-0.119294 0.266619,-0.266614 l 1.26e-4,-4.437758 c 0,-0.0021 4.94e-4,-0.004 4.94e-4,-0.0061 0,-0.0037 -6.5e-4,-0.0073 -0.0013,-0.01104 -3.73e-4,-0.0093 -0.0013,-0.01811 -0.0027,-0.02741 -0.0013,-0.0086 -0.0027,-0.01687 -0.0047,-0.0253 -0.002,-0.0082 -0.0047,-0.01612 -0.0075,-0.02418 -0.0027,-0.0083 -0.006,-0.01674 -0.0095,-0.02468 -0.0033,-0.0074 -0.0077,-0.01439 -0.0118,-0.0217 -0.0047,-0.0078 -0.0093,-0.01563 -0.01473,-0.02294 -0.0047,-0.0065 -0.0098,-0.01227 -0.01513,-0.01835 -0.004,-0.0045 -0.0071,-0.0094 -0.01113,-0.01351 -0.0027,-0.003 -0.0067,-0.0053 -0.0098,-0.0082 -0.0027,-0.0021 -0.004,-0.0049 -0.0067,-0.0067 L 11.880432,3.06297 c -0.0033,-0.0029 -0.0071,-0.0046 -0.01053,-0.0073 -0.0078,-0.0061 -0.01587,-0.01153 -0.0242,-0.01649 -0.0071,-0.0042 -0.0144,-0.0082 -0.0218,-0.01191 -0.0078,-0.0037 -0.0156,-0.0071 -0.0238,-0.01017 -0.0087,-0.0032 -0.01733,-0.0058 -0.02627,-0.0082 -0.0075,-0.002 -0.01513,-0.0036 -0.02293,-0.0049 -0.0102,-0.0016 -0.02007,-0.0025 -0.03027,-0.003 C 11.716632,3.001123 11.712832,3 11.708502,3 H 3.971712 C 3.573653,3 3.25,3.323776 3.25,3.721711 v 14.556443 c 0,0.398062 0.32378,0.721711 0.721712,0.721711 h 7.944409 c 0.14732,0 0.266613,-0.119294 0.266613,-0.266614 1.26e-4,-0.14732 -0.119167,-0.266615 -0.266613,-0.266615 z"
       id="path67-97"
       style="stroke-width:0.031746;fill-opacity:1;fill:currentColor;"
       class="ColorScheme-Text" />
    <path
       d="M 12.642185,7.284576 H 5.442209 c -0.14732,0 -0.266606,0.119296 -0.266606,0.266615 0,0.14732 0.119286,0.266615 0.266606,0.266615 h 7.199976 c 0.147319,0 0.266613,-0.119295 0.266613,-0.266615 0,-0.147319 -0.119294,-0.266615 -0.266613,-0.266615 z"
       id="path69-7"
       style="stroke-width:0.031746;fill-opacity:1;fill:currentColor;"
       class="ColorScheme-Text" />
    <path
       d="m 12.908851,9.613455 c 0,-0.14732 -0.119299,-0.266615 -0.266619,-0.266615 H 5.442263 c -0.14732,0 -0.266607,0.119295 -0.266607,0.266615 0,0.14732 0.119287,0.266615 0.266607,0.266615 h 7.199969 c 0.14732,0 0.266619,-0.119295 0.266619,-0.266615 z"
       id="path71-6"
       style="stroke-width:0.031746;fill-opacity:1;fill:currentColor;"
       class="ColorScheme-Text" />
    <path
       d="m 11.33425,11.675668 c 0,-0.14732 -0.119292,-0.266614 -0.266612,-0.266614 l -5.625375,-1.27e-4 c -0.147314,0 -0.266607,0.119294 -0.266607,0.266614 0,0.14732 0.119293,0.266615 0.266607,0.266615 h 5.625375 c 0.147446,1.27e-4 0.266739,-0.119295 0.266739,-0.266491 z"
       id="path73-73"
       style="stroke-width:0.031746;fill-opacity:1;fill:currentColor;"
       class="ColorScheme-Text" />
    <path
       d="M 10.019655,13.471216 H 5.442209 c -0.14732,0 -0.266606,0.119294 -0.266606,0.266614 0,0.147321 0.119286,0.266616 0.266606,0.266616 h 4.577446 c 0.14732,0 0.266613,-0.119295 0.266613,-0.266616 1.26e-4,-0.14732 -0.119167,-0.266614 -0.266613,-0.266614 z"
       id="path75-6"
       style="stroke-width:0.031746;fill-opacity:1;fill:currentColor;"
       class="ColorScheme-Text" />
    <path
       d="m 9.975529,15.533429 h -4.53332 c -0.14732,0 -0.266606,0.119295 -0.266606,0.266614 0,0.14732 0.119286,0.266615 0.266606,0.266615 h 4.53332 c 0.147319,0 0.266612,-0.119295 0.266612,-0.266615 0,-0.147319 -0.119293,-0.266614 -0.266612,-0.266614 z"
       id="path77-56"
       style="stroke-width:0.031746;fill-opacity:1;fill:currentColor;"
       class="ColorScheme-Text" />
    <path
       d="m 5.442209,5.755694 h 4.956171 c 0.147327,0 0.266619,-0.119294 0.266619,-0.266614 0,-0.14732 -0.119292,-0.266615 -0.266619,-0.266615 L 5.442209,5.222341 c -0.14732,0 -0.266606,0.119295 -0.266606,0.266616 0,0.147443 0.119166,0.266738 0.266606,0.266737 z"
       id="path79-39"
       style="stroke-width:0.031746;fill-opacity:1;fill:currentColor;"
       class="ColorScheme-Text" />
    <path
       d="m 14.729477,10.73345 c -2.279131,0 -4.133317,1.854151 -4.133317,4.133315 0,2.279165 1.854153,4.133315 4.133317,4.133315 2.279132,0 4.133312,-1.85415 4.133312,-4.133315 0,-2.279164 -1.854147,-4.133315 -4.133312,-4.133315 z m 0,7.733299 c -1.985105,0 -3.599987,-1.614945 -3.599987,-3.599984 0,-1.985102 1.614948,-3.599984 3.599987,-3.599984 1.9851,0 3.599981,1.614945 3.599981,3.599984 1.26e-4,1.985102 -1.614815,3.599984 -3.599981,3.599984 z"
       id="path81-4"
       style="stroke-width:0.031746;fill-opacity:1;fill:currentColor;"
       class="ColorScheme-Text" />
  </g>
</svg>
