<?xml version="1.0" encoding="UTF-8" standalone="no"?>
<svg
   width="32"
   height="32"
   id="svg3869"
   version="1.1"
   viewBox="0 0 32 32.000001"
   sodipodi:docname="input.svg"
   inkscape:version="1.1.2 (0a00cf5339, 2022-02-04)"
   xmlns:inkscape="http://www.inkscape.org/namespaces/inkscape"
   xmlns:sodipodi="http://sodipodi.sourceforge.net/DTD/sodipodi-0.dtd"
   xmlns="http://www.w3.org/2000/svg"
   xmlns:svg="http://www.w3.org/2000/svg"
   xmlns:rdf="http://www.w3.org/1999/02/22-rdf-syntax-ns#"
   xmlns:cc="http://creativecommons.org/ns#"
   xmlns:dc="http://purl.org/dc/elements/1.1/">
  <style id="current-color-scheme" type="text/css">.ColorScheme-Text { color:#d6dbf1; }
</style>
  <sodipodi:namedview
     pagecolor="#ffffff"
     bordercolor="#000000"
     borderopacity="1"
     objecttolerance="10"
     gridtolerance="10"
     guidetolerance="10"
     inkscape:pageopacity="0"
     inkscape:pageshadow="2"
     inkscape:window-width="1920"
     inkscape:window-height="973"
     id="namedview49"
     showgrid="false"
     inkscape:zoom="2.32"
     inkscape:cx="-18.103448"
     inkscape:cy="95.474138"
     inkscape:window-x="0"
     inkscape:window-y="42"
     inkscape:window-maximized="1"
     inkscape:current-layer="svg3869"
     inkscape:document-rotation="0"
     inkscape:lockguides="true"
     inkscape:showpageshadow="false"
     inkscape:pagecheckerboard="0">
    <inkscape:grid
       type="xygrid"
       id="grid874"
       originx="-38"
       originy="-32.00008" />
  </sodipodi:namedview>
  <metadata
     id="metadata25">
    <rdf:RDF>
      <cc:Work
         rdf:about="">
        <dc:format>image/svg+xml</dc:format>
        <dc:type
           rdf:resource="http://purl.org/dc/dcmitype/StillImage" />
      </cc:Work>
    </rdf:RDF>
  </metadata>
  <defs
     id="defs3871">
    <style
       type="text/css"
       id="current-color-scheme" />
    <linearGradient
       id="a"
       gradientUnits="userSpaceOnUse"
       x1="41"
       x2="23"
       y1="58"
       y2="6"
       gradientTransform="matrix(0.46153841,0,0,0.46153841,104.17525,-40.961285)">
      <stop
         offset="0"
         stop-color="#848f9a"
         id="stop2" />
      <stop
         offset=".33333299"
         stop-color="#bdc2c7"
         id="stop4" />
      <stop
         offset="1"
         stop-color="#f6f6f6"
         id="stop6" />
    </linearGradient>
    <linearGradient
       id="d"
       gradientUnits="userSpaceOnUse"
       x1="32"
       x2="32"
       y1="6"
       y2="28"
       gradientTransform="matrix(0.46153841,0,0,0.46153841,104.17525,-40.961285)">
      <stop
         offset="0"
         stop-color="#68737e"
         id="stop21" />
      <stop
         offset="1"
         stop-color="#7a8692"
         id="stop23" />
    </linearGradient>
    <linearGradient
       id="c"
       gradientTransform="matrix(-0.46153841,0,0,0.46153841,92.636793,-40.961285)"
       gradientUnits="userSpaceOnUse"
       x1="-60"
       x2="-54"
       y1="22"
       y2="12">
      <stop
         offset="0"
         stop-color="#8e98a2"
         id="stop16" />
      <stop
         offset="1"
         stop-color="#6c7884"
         id="stop18" />
    </linearGradient>
    <linearGradient
       id="e"
       gradientTransform="matrix(-0.46153846,0,0,0.46153846,92.636792,-40.96129)"
       gradientUnits="userSpaceOnUse"
       x1="-55"
       x2="-55"
       y1="22"
       y2="12">
      <stop
         offset="0"
         stop-color="#232629"
         id="stop26" />
      <stop
         offset=".333"
         stop-color="#373d43"
         id="stop28" />
      <stop
         offset=".667"
         stop-color="#565f68"
         id="stop30" />
      <stop
         offset="1"
         stop-color="#474e55"
         id="stop32" />
    </linearGradient>
    <linearGradient
       id="b"
       gradientTransform="matrix(-0.46153846,0,0,0.46153846,92.636792,-40.96129)"
       gradientUnits="userSpaceOnUse"
       x1="-55"
       x2="-55"
       y1="12"
       y2="22">
      <stop
         offset="0"
         stop-color="#54b5e8"
         id="stop9" />
      <stop
         offset=".333"
         stop-color="#8fd9ff"
         id="stop11" />
      <stop
         offset="1"
         stop-color="#369acf"
         id="stop13" />
    </linearGradient>
    <linearGradient
       id="f"
       gradientUnits="userSpaceOnUse"
       x1="21.005859"
       x2="21"
       y1="21.005859"
       y2="58"
       gradientTransform="matrix(0.46153846,0,0,0.46153846,104.17525,-40.96129)">
      <stop
         offset="0"
         stop-color="#565f68"
         id="stop35" />
      <stop
         offset=".5945304"
         stop-color="#68737e"
         id="stop37" />
      <stop
         offset="1"
         stop-color="#424950"
         id="stop39" />
    </linearGradient>
    <linearGradient
       id="a-3"
       gradientUnits="userSpaceOnUse"
       x1="41"
       x2="23"
       y1="58"
       y2="6"
       gradientTransform="matrix(0.30769228,0,0,0.30769228,3.077215,1.153843)">
      <stop
         offset="0"
         stop-color="#848f9a"
         id="stop2-6" />
      <stop
         offset=".33333299"
         stop-color="#bdc2c7"
         id="stop4-7" />
      <stop
         offset="1"
         stop-color="#f6f6f6"
         id="stop6-5" />
    </linearGradient>
    <linearGradient
       id="d-3"
       gradientUnits="userSpaceOnUse"
       x1="32"
       x2="32"
       y1="6"
       y2="28"
       gradientTransform="matrix(0.30769228,0,0,0.30769228,3.077215,1.153843)">
      <stop
         offset="0"
         stop-color="#68737e"
         id="stop21-5" />
      <stop
         offset="1"
         stop-color="#7a8692"
         id="stop23-6" />
    </linearGradient>
    <linearGradient
       id="c-2"
       gradientTransform="matrix(-0.30769228,0,0,0.30769228,-4.615092,1.153843)"
       gradientUnits="userSpaceOnUse"
       x1="-60"
       x2="-54"
       y1="22"
       y2="12">
      <stop
         offset="0"
         stop-color="#8e98a2"
         id="stop16-9" />
      <stop
         offset="1"
         stop-color="#6c7884"
         id="stop18-1" />
    </linearGradient>
    <linearGradient
       id="e-2"
       gradientTransform="matrix(-0.30769232,0,0,0.30769232,-4.615093,1.15384)"
       gradientUnits="userSpaceOnUse"
       x1="-55"
       x2="-55"
       y1="22"
       y2="12">
      <stop
         offset="0"
         stop-color="#232629"
         id="stop26-7" />
      <stop
         offset=".333"
         stop-color="#373d43"
         id="stop28-0" />
      <stop
         offset=".667"
         stop-color="#565f68"
         id="stop30-9" />
      <stop
         offset="1"
         stop-color="#474e55"
         id="stop32-3" />
    </linearGradient>
    <linearGradient
       id="b-6"
       gradientTransform="matrix(-0.30769232,0,0,0.30769232,-4.615093,1.15384)"
       gradientUnits="userSpaceOnUse"
       x1="-55"
       x2="-55"
       y1="12"
       y2="22">
      <stop
         offset="0"
         stop-color="#54b5e8"
         id="stop9-0" />
      <stop
         offset=".333"
         stop-color="#8fd9ff"
         id="stop11-6" />
      <stop
         offset="1"
         stop-color="#369acf"
         id="stop13-2" />
    </linearGradient>
    <linearGradient
       id="f-6"
       gradientUnits="userSpaceOnUse"
       x1="21.005859"
       x2="21"
       y1="21.005859"
       y2="58"
       gradientTransform="matrix(0.30769232,0,0,0.30769232,3.077215,1.15384)">
      <stop
         offset="0"
         stop-color="#565f68"
         id="stop35-1" />
      <stop
         offset=".5945304"
         stop-color="#68737e"
         id="stop37-8" />
      <stop
         offset="1"
         stop-color="#424950"
         id="stop39-7" />
    </linearGradient>
  </defs>
  <g
     transform="translate(-370,-428.36219)"
     id="22-22-input-keyboard-battery">
    <rect
       style="opacity:1;fill:none"
       width="22"
       height="22"
       x="348"
       y="534.36218"
       ry="0"
       id="rect15" />
    <path
       style="stroke:none;fill-opacity:1;fill:currentColor;"
       d="m 20,141 v 14 l 7,2 7,-2 v -5 h -1 v 2 H 21 v -10 h 8 v -1 z m 12,0 -2,5 h 2 v 3 l 2,-5 H 32 Z M 26.4375,144 24,150 h 1.074219 l 0.40625,-1 h 3.039062 l 0.40625,1 H 30 l -2.439453,-6 H 27.023438 L 27,144.00977 26.976562,144 Z M 27,145.25781 28.113281,148 H 25.886719 Z M 21,153 h 12 v 1 H 21 Z"
       transform="translate(332,396.36218)"
       id="path17"
       class="ColorScheme-Text" />
  </g>
  <g
     transform="translate(-392,-460.36219)"
     id="22-22-input-keyboard-brightness">
    <rect
       ry="0"
       y="534.36218"
       x="370"
       height="22"
       width="22"
       style="opacity:1;fill:none"
       id="rect20" />
    <path
       style="stroke:none;fill-opacity:1;fill:currentColor;"
       d="m 20,109 v 14 l 7,2 7,-2 v -9 h -1 v 6 H 21 v -10 h 8 v -1 z m 12,0 c -1.10457,0 -2,0.89543 -2,2 0,1.10457 0.89543,2 2,2 1.10457,0 2,-0.89543 2,-2 0,-1.10457 -0.89543,-2 -2,-2 z m 0,1 v 2 c -0.55228,0 -1,-0.44771 -1,-1 0,-0.55228 0.44772,-1 1,-1 z M 26.4375,112 24,118 h 1.074219 l 0.40625,-1 h 3.039062 l 0.40625,1 H 30 l -2.439453,-6 H 27.023438 L 27,112.00977 26.976562,112 Z M 27,113.25781 28.113281,116 H 25.886719 Z M 21,121 h 12 v 1 H 21 Z"
       transform="translate(354,428.36218)"
       id="path4344"
       class="ColorScheme-Text" />
  </g>
  <g
     id="input-keyboard-battery"
     transform="translate(-370,-460.36238)">
    <rect
       style="opacity:1;fill:none"
       id="rect4378"
       width="32"
       height="32"
       x="370"
       y="556.36237"
       ry="0" />
    <path
       style="stroke:none;fill-opacity:1;fill:currentColor;"
       d="m 44,132 v 20 l 10,4 10,-4 v -11 h -1 v 8 H 45 v -16 h 14 v -1 z m 18,0 -2,5 h 2 v 3 l 2,-5 H 62 Z M 53.40625,136 49,146 h 1.300781 l 1.322266,-3 h 4.722656 l 1.349609,3 H 59 l -4.5,-10 z m 0.552734,1.69531 1.9375,4.30469 H 52.0625 Z M 45,150 h 18 v 1 H 45 Z"
       transform="translate(332,428.36237)"
       id="rect4223"
       class="ColorScheme-Text" />
  </g>
  <g
     id="input-keyboard-brightness"
     transform="translate(-402,-492.36238)">
    <rect
       ry="0"
       y="556.36237"
       x="402"
       height="32"
       width="32"
       id="rect4266"
       style="opacity:1;fill:none" />
    <path
       style="stroke:none;fill-opacity:1;fill:currentColor;"
       d="m 44,100 v 20 l 10,4 10,-4 v -10 h -1 v 7 H 45 v -16 h 12 v -1 z m 9.40625,4 L 49,114 h 1.300781 l 1.322266,-3 h 4.722656 l 1.349609,3 H 59 l -4.5,-10 z m 0.552734,1.69531 1.9375,4.30469 H 52.0625 Z M 45,118 h 18 v 1 H 45 Z"
       transform="translate(364,460.36237)"
       id="path4270"
       class="ColorScheme-Text" />
    <path
       style="fill:#1fa8c6;fill-opacity:1;stroke:none"
       d="m 100,25 c -0.277,0 -0.5,0.223 -0.5,0.5 v 1 c 0,0.277 0.223,0.5 0.5,0.5 0.277,0 0.5,-0.223 0.5,-0.5 v -1 c 0,-0.277 -0.223,-0.5 -0.5,-0.5 z m -3.181641,1.318359 c -0.127809,0 -0.255581,0.04855 -0.353515,0.146485 -0.195869,0.195868 -0.195869,0.511162 0,0.707031 l 0.707031,0.707031 c 0.195869,0.195869 0.511163,0.195869 0.707031,0 0.195869,-0.195868 0.195869,-0.511162 0,-0.707031 l -0.707031,-0.707031 c -0.09793,-0.09793 -0.225706,-0.146485 -0.353516,-0.146485 z m 6.363281,0 c -0.12781,0 -0.25558,0.04855 -0.35352,0.146485 l -0.70703,0.707031 c -0.19586,0.195869 -0.19586,0.511163 0,0.707031 0.19587,0.195869 0.51117,0.195869 0.70703,0 l 0.70704,-0.707031 c 0.19586,-0.195869 0.19586,-0.511163 0,-0.707031 -0.0979,-0.09793 -0.22571,-0.146485 -0.35352,-0.146485 z M 100,28 c -1.104569,0 -2,0.895431 -2,2 0,1.104569 0.895431,2 2,2 1.10457,0 2,-0.895431 2,-2 0,-1.104569 -0.89543,-2 -2,-2 z m 0,1 v 2 c -0.552285,0 -1,-0.447715 -1,-1 0,-0.552285 0.447715,-1 1,-1 z m -4.5,0.5 c -0.277,0 -0.5,0.223 -0.5,0.5 0,0.277 0.223,0.5 0.5,0.5 h 1 c 0.277,0 0.5,-0.223 0.5,-0.5 0,-0.277 -0.223,-0.5 -0.5,-0.5 z m 8,0 c -0.277,0 -0.5,0.223 -0.5,0.5 0,0.277 0.223,0.5 0.5,0.5 h 1 c 0.277,0 0.5,-0.223 0.5,-0.5 0,-0.277 -0.223,-0.5 -0.5,-0.5 z m -5.974609,2.474609 c -0.12781,0 -0.255582,0.04855 -0.353516,0.146485 l -0.707031,0.707031 c -0.195869,0.195869 -0.195869,0.511163 0,0.707031 0.195868,0.195869 0.511162,0.195869 0.707031,0 l 0.707031,-0.707031 c 0.195869,-0.195869 0.195869,-0.511163 0,-0.707031 -0.09793,-0.09793 -0.225706,-0.146485 -0.353515,-0.146485 z m 4.949219,0 c -0.12781,0 -0.25558,0.04855 -0.35352,0.146485 -0.19586,0.195868 -0.19586,0.511162 0,0.707031 l 0.70703,0.707031 c 0.19587,0.195869 0.51117,0.195869 0.70704,0 0.19586,-0.195868 0.19586,-0.511162 0,-0.707031 l -0.70704,-0.707031 c -0.0979,-0.09793 -0.2257,-0.146485 -0.35351,-0.146485 z M 100,33 c -0.277,0 -0.5,0.223 -0.5,0.5 v 1 c 0,0.277 0.223,0.5 0.5,0.5 0.277,0 0.5,-0.223 0.5,-0.5 v -1 c 0,-0.277 -0.223,-0.5 -0.5,-0.5 z"
       transform="translate(326,534.3622)"
       id="path4274"
       inkscape:connector-curvature="0" />
  </g>
  <g
     id="16-16-input-mouse-battery"
     transform="translate(-341,-329.36219)">
    <path
       id="path4196"
       transform="translate(319,457.36217)"
       d="m -8,82 a 4,4 0 0 0 -4,4 v 4 a 4,4 0 0 0 4,4 4,4 0 0 0 4,-4 v -4 a 4,4 0 0 0 -4,-4 z m 0,1 a 3,3 0 0 1 3,3 v 4 a 3,3 0 0 1 -3,3 3,3 0 0 1 -3,-3 v -4 a 3,3 0 0 1 3,-3 z m 0,1 -2,5 h 2 v 3 l 2,-5 h -2 z"
       style="stroke:none;fill-opacity:1;fill:currentColor;"
       inkscape:connector-curvature="0"
       class="ColorScheme-Text" />
    <rect
       style="opacity:1;fill:none"
       id="rect4442"
       width="16"
       height="16"
       x="303"
       y="537.36218" />
  </g>
  <g
     id="22-22-input-caps-on"
     transform="translate(21.241379,-8.7414)">
    <rect
       y="146.74138"
       x="-43.241379"
       height="22"
       width="22"
       id="rect964"
       style="opacity:0.00100002;fill-opacity:1;stroke:none;stroke-width:0.49066;stroke-linecap:round;stroke-linejoin:round;stroke-miterlimit:4;stroke-dasharray:none;stroke-opacity:1" />
    <path
       inkscape:connector-curvature="0"
       id="path870"
       d="m -39.241379,149.74138 v 14 l 7,2 7,-2 v -14 z m 1,1 h 12 v 10 h -12 z m 5.4375,2 -2.4375,6 h 1.07422 l 0.40625,-1 h 3.03906 l 0.40625,1 h 1.07422 l -2.43945,-6 h -0.53711 l -0.0234,0.01 -0.0234,-0.01 z m 0.5625,1.25781 1.11328,2.74219 h -2.22656 z m -6,7.74219 h 12 v 1 h -12 z"
       style="stroke:none;fill-opacity:1;fill:currentColor;"
       class="ColorScheme-Text" />
  </g>
  <g
     id="22-22-input-num-on"
     transform="translate(-46,52.99998)">
    <rect
       style="opacity:0.00100002;fill-opacity:1;stroke:none;stroke-width:0.49066;stroke-linecap:round;stroke-linejoin:round;stroke-miterlimit:4;stroke-dasharray:none;stroke-opacity:1"
       id="rect972"
       width="22"
       height="22"
       x="24"
       y="117" />
    <path
       inkscape:connector-curvature="0"
       id="path879"
       d="m 28,120 v 14 l 7,2 7,-2 v -14 z m 1,1 h 12 v 10 H 29 Z m 6,2 v 1 h -1 v 1 h 1 v 3 h -1 v 1 h 1 1 1 v -1 h -1 v -5 z m -6,9 h 12 v 1 H 29 Z"
       style="stroke:none;fill-opacity:1;fill:currentColor;"
       class="ColorScheme-Text" />
  </g>
  <g
     id="input-caps-on"
     transform="translate(-19,16)">
    <rect
       y="112"
       x="19"
       height="32"
       width="32"
       id="rect978"
       style="opacity:0.00100002;fill-opacity:1;stroke:none;stroke-width:0.713687;stroke-linecap:round;stroke-linejoin:round;stroke-miterlimit:4;stroke-dasharray:none;stroke-opacity:1" />
    <path
       inkscape:connector-curvature="0"
       id="path880"
       d="m 25,116 v 20 l 10,4 10,-4 v -19 -1 h -1 z m 1,1 h 18 v 16 H 26 Z m 8.40625,3 L 30,130 h 1.30078 l 1.32227,-3 h 4.72265 l 1.34961,3 H 40 l -4.5,-10 z m 0.55273,1.69531 L 36.89648,126 H 33.0625 Z M 26,134 h 18 v 1 H 26 Z"
       style="stroke:none;fill-opacity:1;fill:currentColor;"
       class="ColorScheme-Text" />
  </g>
  <g
     id="input-num-on"
     transform="translate(-19,47.99998)">
    <rect
       style="opacity:0.00100002;fill-opacity:1;stroke:none;stroke-width:0.713687;stroke-linecap:round;stroke-linejoin:round;stroke-miterlimit:4;stroke-dasharray:none;stroke-opacity:1"
       id="rect984"
       width="32"
       height="32"
       x="19"
       y="112" />
    <path
       inkscape:connector-curvature="0"
       id="path896"
       d="m 25,116 v 20 l 10,4 10,-4 v -19 -1 h -1 z m 1,1 h 18 v 16 H 26 Z m 9,3 v 2 h -2 v 1 h 2 v 6 h -2 v 1 h 5 v -1 h -2 v -9 z m -9,14 h 18 v 1 H 26 Z"
       style="stroke:none;fill-opacity:1;fill:currentColor;"
       class="ColorScheme-Text" />
  </g>
  <g
     id="input-mouse-battery"
     transform="translate(0,-32.00001)">
    <rect
       style="fill:none"
       id="rect4378-6"
       width="32"
       height="32"
       x="0"
       y="223.99998"
       ry="0" />
    <path
       d="m 16.8,237.74999 v 3 c 0,0.41419 -0.33581,0.75 -0.75,0.75 -0.41419,0 -0.75,-0.33581 -0.75,-0.75 v -3 c 0,-0.41419 0.33581,-0.75 0.75,-0.75 0.41419,0 0.75,0.33581 0.75,0.75 z m -0.75,14.25 c -3.727828,0 -6.75,-3.02199 -6.75,-6.75 v -4.5 -2.25 c 0,-2.27855 1.695,-4.1565 3.891891,-4.4542 0.01078,-0.007 0.02545,-0.0106 0.04561,-0.0106 0.02452,0 0.04781,-0.004 0.07158,-0.007 0.0154,-0.001 0.0304,-0.004 0.0458,-0.006 C 13.60922,233.96853 13.8,233.74292 13.8,233.47264 v -0.22266 c 0,-1.65675 1.67119,-2.25 3,-2.25 h 1.5 c 0.82837,0 1.5,-0.67163 1.5,-1.5 v -0.75 c 0,-0.41419 0.33581,-0.75 0.75,-0.75 0.41419,0 0.75,0.33581 0.75,0.75 v 0.75 c 0,0.35925 -0.0665,0.70205 -0.1822,1.02136 -0.003,0.01 -0.005,0.0194 -0.0101,0.0275 -0.30361,0.81187 -0.94702,1.45533 -1.75875,1.75889 -0.008,0.005 -0.0181,0.007 -0.0277,0.01 -0.31906,0.11611 -0.662,0.18239 -1.02125,0.18239 h -1.5 c -0.82837,0 -1.5,0.67163 -1.5,1.5 0,0.82838 -0.67163,1.5 -1.5,1.5 -1.656937,0 -3,1.34325 -3,3 v 2.25 4.5 c 0,2.89964 2.350547,5.25 5.25,5.25 2.89945,0 5.25,-2.35036 5.25,-5.25 v -4.5 -2.25 c 0,-1.65675 -1.34306,-3 -3,-3 h -0.75 c -0.41419,0 -0.75,-0.33581 -0.75,-0.75 0,-0.41419 0.33581,-0.75 0.75,-0.75 h 0.75 c 2.48531,0 4.5,2.01488 4.5,4.5 v 2.25 4.5 c 0,3.72802 -3.02217,6.75 -6.75,6.75 z"
       id="path2-36"
       style="stroke-width:0.046875;fill-opacity:1;fill:currentColor;"
       class="ColorScheme-Text" />
  </g>
  <g
     id="input-keyboard"
     transform="translate(-22,42)">
    <rect
       style="fill:none;fill-rule:evenodd;stroke:none;stroke-width:1.45455px;stroke-linecap:butt;stroke-linejoin:miter;stroke-opacity:1"
       id="rect4196"
       width="32"
       height="32"
       x="22"
       y="-74.000008" />
    <path
       d="m 38.75,-55.000009 c 0.414188,0 0.75,0.335813 0.75,0.75 0,0.414187 -0.335812,0.75 -0.75,0.75 -0.414188,0 -0.75,-0.335813 -0.75,-0.75 0,-0.414187 0.335812,-0.75 0.75,-0.75 z m 1.5,-1.5 c -0.414188,0 -0.75,-0.335813 -0.75,-0.75 0,-0.414187 0.335812,-0.75 0.75,-0.75 0.414188,0 0.75,0.335813 0.75,0.75 0,0.414187 -0.335812,0.75 -0.75,0.75 z m 1.5,3 c -0.414188,0 -0.75,-0.335813 -0.75,-0.75 0,-0.414187 0.335812,-0.75 0.75,-0.75 0.414187,0 0.75,0.335813 0.75,0.75 0,0.414187 -0.335813,0.75 -0.75,0.75 z m 1.5,-4.5 c 0.414187,0 0.75,0.335813 0.75,0.75 0,0.414187 -0.335813,0.75 -0.75,0.75 -0.414188,0 -0.75,-0.335813 -0.75,-0.75 0,-0.414187 0.335812,-0.75 0.75,-0.75 z m 0,7.5 c -0.414188,0 -0.75,-0.335813 -0.75,-0.75 0,-0.414187 0.335812,-0.75 0.75,-0.75 0.414187,0 0.75,0.335813 0.75,0.75 0,0.414187 -0.335813,0.75 -0.75,0.75 z m 3,-6 c -0.414188,0 -0.75,-0.335813 -0.75,-0.75 0,-0.414187 0.335812,-0.75 0.75,-0.75 0.414187,0 0.75,0.335813 0.75,0.75 0,0.414187 -0.335813,0.75 -0.75,0.75 z m 0.75,5.25 c 0,0.414187 -0.335813,0.75 -0.75,0.75 -0.414188,0 -0.75,-0.335813 -0.75,-0.75 0,-0.414187 0.335812,-0.75 0.75,-0.75 0.414187,0 0.75,0.335813 0.75,0.75 z m -3,-3 c 0,-0.414187 0.335812,-0.75 0.75,-0.75 h 1.5 c 0.414187,0 0.75,0.335813 0.75,0.75 0,0.414187 -0.335813,0.75 -0.75,0.75 h -1.5 c -0.414188,0 -0.75,-0.335813 -0.75,-0.75 z m -9.75,-3.75 c 0.414188,0 0.75,0.335813 0.75,0.75 0,0.414187 -0.335812,0.75 -0.75,0.75 -0.414188,0 -0.75,-0.335813 -0.75,-0.75 0,-0.414187 0.335812,-0.75 0.75,-0.75 z m -2.25,6.75 c 0,0.414187 -0.335812,0.75 -0.75,0.75 -0.414188,0 -0.75,-0.335813 -0.75,-0.75 0,-0.414187 0.335812,-0.75 0.75,-0.75 0.414188,0 0.75,0.335813 0.75,0.75 z m -2.25,-5.25 c -0.414187,0 -0.75,-0.335813 -0.75,-0.75 0,-0.414187 0.335813,-0.75 0.75,-0.75 h 1.5 c 0.414188,0 0.75,0.335813 0.75,0.75 0,0.414187 -0.335812,0.75 -0.75,0.75 z m 3.75,2.25 c 0,0.414187 -0.335812,0.75 -0.75,0.75 h -3 c -0.414187,0 -0.75,-0.335813 -0.75,-0.75 0,-0.414187 0.335813,-0.75 0.75,-0.75 h 3 c 0.414188,0 0.75,0.335813 0.75,0.75 z m 7.5,3 c 0,0.414187 -0.335812,0.75 -0.75,0.75 h -6 c -0.414188,0 -0.75,-0.335813 -0.75,-0.75 0,-0.414187 0.335812,-0.75 0.75,-0.75 h 6 c 0.414188,0 0.75,0.335813 0.75,0.75 z m -5.25,-2.25 c -0.414188,0 -0.75,-0.335813 -0.75,-0.75 0,-0.414187 0.335812,-0.75 0.75,-0.75 0.414188,0 0.75,0.335813 0.75,0.75 0,0.414187 -0.335812,0.75 -0.75,0.75 z m 1.5,-4.5 c 0.414188,0 0.75,0.335813 0.75,0.75 0,0.414187 -0.335812,0.75 -0.75,0.75 -0.414188,0 -0.75,-0.335813 -0.75,-0.75 0,-0.414187 0.335812,-0.75 0.75,-0.75 z m 9.75,10.5 H 29 c -1.65675,0 -3,-1.34325 -3,-3 v -7.5 c 0,-1.65675 1.34325,-3 3,-3 h 6.9375 c 0.310547,0 0.5625,-0.251953 0.5625,-0.5625 v -0.9375 c 0,-0.35925 0.06628,-0.702188 0.182391,-1.021359 0.0029,-0.0095 0.0051,-0.01941 0.0099,-0.02766 0.30361,-0.811687 0.947016,-1.45514 1.758891,-1.75875 0.0081,-0.0049 0.01795,-0.0069 0.02747,-0.01008 C 38.797953,-65.433541 39.14075,-65.50001 39.5,-65.50001 H 41 c 0.828375,0 1.5,-0.671625 1.5,-1.5 v -0.75 c 0,-0.414187 0.335812,-0.75 0.75,-0.75 0.414187,0 0.75,0.335813 0.75,0.75 v 0.75 c 0,0.35925 -0.06628,0.702187 -0.182391,1.021359 -0.0029,0.0095 -0.0051,0.01941 -0.0099,0.02766 -0.30361,0.811687 -0.947016,1.45514 -1.758891,1.75875 -0.0081,0.0049 -0.01795,0.0069 -0.02747,0.01008 C 41.702047,-64.066479 41.35925,-64.00001 41,-64.00001 h -1.5 c -0.828375,0 -1.5,0.671625 -1.5,1.5 v 1.125 c 0,1.035656 -0.839344,1.875 -1.875,1.875 H 29 c -0.828375,0 -1.5,0.671625 -1.5,1.5 v 7.5 c 0,0.828375 0.671625,1.5 1.5,1.5 h 18 c 0.828375,0 1.5,-0.671625 1.5,-1.5 v -7.5 c 0,-0.828375 -0.671625,-1.5 -1.5,-1.5 h -6.75 c -0.414188,0 -0.75,-0.335813 -0.75,-0.75 0,-0.414187 0.335812,-0.75 0.75,-0.75 H 47 c 1.65675,0 3,1.34325 3,3 v 7.5 c 0,1.65675 -1.34325,3 -3,3.000001 z"
       id="path2-36-7"
       style="stroke-width:0.046875;fill-opacity:1;fill:currentColor;"
       class="ColorScheme-Text" />
  </g>
  <g
     id="22-22-input-mouse-battery"
     transform="translate(-22,201.99999)">
    <rect
       style="fill:none"
       width="22"
       height="22"
       x="0"
       y="1.661377e-07"
       ry="0"
       id="rect8" />
    <path
       style="fill:#d35f5f;fill-opacity:1;stroke:none"
       d="m 5,3.000017 -2,5 h 2 v 3 l 2,-5 H 5 Z"
       id="path12"
       inkscape:connector-curvature="0" />
    <path
       d="m 14.999971,9.4999758 v 1.9999882 c 0,0.276125 -0.223872,0.499997 -0.499997,0.499997 -0.276125,0 -0.499997,-0.223872 -0.499997,-0.499997 V 9.4999758 c 0,-0.2761251 0.223872,-0.4999971 0.499997,-0.4999971 0.276125,0 0.499997,0.223872 0.499997,0.4999971 z M 14.499974,18.99992 C 12.01477,18.99992 10,16.985272 10,14.499947 V 11.499964 9.999973 c 0,-1.5190246 1.129993,-2.770984 2.594579,-2.9694495 0.0072,-0.00467 0.01697,-0.00707 0.03041,-0.00707 0.01635,0 0.03187,-0.00267 0.04772,-0.00467 0.01027,-6.666e-4 0.02027,-0.00267 0.03053,-0.004 0.169558,-0.035773 0.296744,-0.1861789 0.296744,-0.3663645 V 6.4999799 c 0,-1.1044936 1.11412,-1.4999913 1.999989,-1.4999913 h 0.999994 c 0.552243,0 0.999994,-0.4477507 0.999994,-0.9999946 V 3.499997 C 16.99996,3.223872 17.223832,3 17.499957,3 c 0.276125,0 0.499997,0.223872 0.499997,0.499997 v 0.499997 c 0,0.2394991 -0.04433,0.4680311 -0.121466,0.6809032 -0.002,0.00667 -0.0033,0.012933 -0.0067,0.018333 -0.202405,0.5412435 -0.631343,0.9702143 -1.172493,1.1725865 -0.0053,0.00333 -0.01207,0.00467 -0.01847,0.00667 -0.212706,0.077406 -0.441331,0.1215926 -0.680829,0.1215926 h -0.999995 c -0.552243,0 -0.999994,0.4477508 -0.999994,0.9999942 0,0.5522501 -0.44775,0.9999942 -0.999994,0.9999942 -1.104618,0 -1.999988,0.8954947 -1.999988,1.9999883 v 1.499991 2.999982 c 0,1.933082 1.567022,3.49998 3.499979,3.49998 1.932956,0 3.49998,-1.566898 3.49998,-3.49998 V 11.500051 10.00006 c 0,-1.1044941 -0.895368,-1.9999888 -1.999988,-1.9999888 h -0.499998 c -0.276125,0 -0.499997,-0.2238721 -0.499997,-0.4999971 0,-0.2761251 0.223873,-0.4999971 0.499997,-0.4999971 h 0.499998 c 1.656863,0 2.999982,1.3432455 2.999982,2.999983 v 1.49999 2.999983 c 0,2.485332 -2.014768,4.499974 -4.499974,4.499974 z"
       id="path2-36-3"
       style="stroke-width:0.0312498;fill-opacity:1;fill:currentColor;"
       class="ColorScheme-Text" />
  </g>
  <g
     id="input-keyboard-virtual-on"
     transform="translate(-22,42)">
    <rect
       style="fill:none;fill-rule:evenodd;stroke:none;stroke-width:1.45455px;stroke-linecap:butt;stroke-linejoin:miter;stroke-opacity:1"
       id="rect4192"
       width="32"
       height="32"
       x="22"
       y="-42" />
    <path
       id="path8-9"
       d="m 29.5,-36.500002 a 2.4999996,2.4999855 0 0 0 -2.5,2.499999 2.4999996,2.4999855 0 0 0 2.5,2.500001 2.4999996,2.4999855 0 0 0 2.5,-2.500001 2.4999996,2.4999855 0 0 0 -2.5,-2.499999 z"
       style="fill:#21a6c5;fill-opacity:1;stroke:none;stroke-width:1.45455"
       inkscape:connector-curvature="0" />
    <path
       d="m 38.75,-23.000001 c 0.414188,0 0.75,0.335813 0.75,0.75 0,0.414187 -0.335812,0.75 -0.75,0.75 -0.414188,0 -0.75,-0.335813 -0.75,-0.75 0,-0.414187 0.335812,-0.75 0.75,-0.75 z m 1.5,-1.5 c -0.414188,0 -0.75,-0.335813 -0.75,-0.75 0,-0.414187 0.335812,-0.75 0.75,-0.75 0.414188,0 0.75,0.335813 0.75,0.75 0,0.414187 -0.335812,0.75 -0.75,0.75 z m 1.5,3 c -0.414188,0 -0.75,-0.335813 -0.75,-0.75 0,-0.414187 0.335812,-0.75 0.75,-0.75 0.414187,0 0.75,0.335813 0.75,0.75 0,0.414187 -0.335813,0.75 -0.75,0.75 z m 1.5,-4.5 c 0.414187,0 0.75,0.335813 0.75,0.75 0,0.414187 -0.335813,0.75 -0.75,0.75 -0.414188,0 -0.75,-0.335813 -0.75,-0.75 0,-0.414187 0.335812,-0.75 0.75,-0.75 z m 0,7.5 c -0.414188,0 -0.75,-0.335813 -0.75,-0.75 0,-0.414187 0.335812,-0.75 0.75,-0.75 0.414187,0 0.75,0.335813 0.75,0.75 0,0.414187 -0.335813,0.75 -0.75,0.75 z m 3,-6 c -0.414188,0 -0.75,-0.335813 -0.75,-0.75 0,-0.414187 0.335812,-0.75 0.75,-0.75 0.414187,0 0.75,0.335813 0.75,0.75 0,0.414187 -0.335813,0.75 -0.75,0.75 z m 0.75,5.25 c 0,0.414187 -0.335813,0.75 -0.75,0.75 -0.414188,0 -0.75,-0.335813 -0.75,-0.75 0,-0.414187 0.335812,-0.75 0.75,-0.75 0.414187,0 0.75,0.335813 0.75,0.75 z m -3,-3 c 0,-0.414187 0.335812,-0.75 0.75,-0.75 h 1.5 c 0.414187,0 0.75,0.335813 0.75,0.75 0,0.414187 -0.335813,0.75 -0.75,0.75 h -1.5 c -0.414188,0 -0.75,-0.335813 -0.75,-0.75 z m -9.75,-3.75 c 0.414188,0 0.75,0.335813 0.75,0.75 0,0.414187 -0.335812,0.75 -0.75,0.75 -0.414188,0 -0.75,-0.335813 -0.75,-0.75 0,-0.414187 0.335812,-0.75 0.75,-0.75 z m -2.25,6.75 c 0,0.414187 -0.335812,0.75 -0.75,0.75 -0.414188,0 -0.75,-0.335813 -0.75,-0.75 0,-0.414187 0.335812,-0.75 0.75,-0.75 0.414188,0 0.75,0.335813 0.75,0.75 z m -2.25,-5.25 c -0.414187,0 -0.75,-0.335813 -0.75,-0.75 0,-0.414187 0.335813,-0.75 0.75,-0.75 h 1.5 c 0.414188,0 0.75,0.335813 0.75,0.75 0,0.414187 -0.335812,0.75 -0.75,0.75 z m 3.75,2.25 c 0,0.414187 -0.335812,0.75 -0.75,0.75 h -3 c -0.414187,0 -0.75,-0.335813 -0.75,-0.75 0,-0.414187 0.335813,-0.75 0.75,-0.75 h 3 c 0.414188,0 0.75,0.335813 0.75,0.75 z m 7.5,3 c 0,0.414187 -0.335812,0.75 -0.75,0.75 h -6 c -0.414188,0 -0.75,-0.335813 -0.75,-0.75 0,-0.414187 0.335812,-0.75 0.75,-0.75 h 6 c 0.414188,0 0.75,0.335813 0.75,0.75 z m -5.25,-2.25 c -0.414188,0 -0.75,-0.335813 -0.75,-0.75 0,-0.414187 0.335812,-0.75 0.75,-0.75 0.414188,0 0.75,0.335813 0.75,0.75 0,0.414187 -0.335812,0.75 -0.75,0.75 z m 1.5,-4.5 c 0.414188,0 0.75,0.335813 0.75,0.75 0,0.414187 -0.335812,0.75 -0.75,0.75 -0.414188,0 -0.75,-0.335813 -0.75,-0.75 0,-0.414187 0.335812,-0.75 0.75,-0.75 z m 9.75,10.5 H 29 c -1.65675,0 -3,-1.34325 -3,-3 v -7.5 c 0,-1.65675 1.34325,-3 3,-3 h 6.9375 c 0.310547,0 0.5625,-0.251953 0.5625,-0.5625 v -0.9375 c 0,-0.35925 0.06628,-0.702188 0.182391,-1.021359 0.0029,-0.0095 0.0051,-0.01941 0.0099,-0.02766 0.30361,-0.811687 0.947016,-1.45514 1.758891,-1.75875 0.0081,-0.0049 0.01795,-0.0069 0.02747,-0.01008 0.319301,-0.115683 0.662098,-0.182152 1.021348,-0.182152 H 41 c 0.828375,0 1.5,-0.671625 1.5,-1.5 v -0.75 c 0,-0.414187 0.335812,-0.75 0.75,-0.75 0.414187,0 0.75,0.335813 0.75,0.75 v 0.75 c 0,0.35925 -0.06628,0.702187 -0.182391,1.021359 -0.0029,0.0095 -0.0051,0.01941 -0.0099,0.02766 -0.30361,0.811687 -0.947016,1.45514 -1.758891,1.75875 -0.0081,0.0049 -0.01795,0.0069 -0.02747,0.01008 -0.319301,0.115682 -0.662098,0.182151 -1.021348,0.182151 h -1.5 c -0.828375,0 -1.5,0.671625 -1.5,1.5 v 1.125 c 0,1.035656 -0.839344,1.875 -1.875,1.875 H 29 c -0.828375,0 -1.5,0.671625 -1.5,1.5 v 7.5 c 0,0.828375 0.671625,1.5 1.5,1.5 h 18 c 0.828375,0 1.5,-0.671625 1.5,-1.5 v -7.5 c 0,-0.828375 -0.671625,-1.5 -1.5,-1.5 h -6.75 c -0.414188,0 -0.75,-0.335813 -0.75,-0.75 0,-0.414187 0.335812,-0.75 0.75,-0.75 H 47 c 1.65675,0 3,1.34325 3,3 v 7.5 c 0,1.65675 -1.34325,3 -3,3.000001 z"
       id="path2-36-7-6"
       style="stroke-width:0.046875;fill-opacity:1;fill:currentColor;"
       class="ColorScheme-Text" />
  </g>
  <g
     id="22-22-input-keyboard-virtual-on"
     transform="translate(-22,42)">
    <rect
       y="-32"
       x="0"
       height="22"
       width="22"
       id="rect4140"
       style="fill:none;fill-opacity:1;stroke:none;stroke-linejoin:bevel" />
    <path
       id="path8-9-7"
       d="M 4.625,-29 A 1.8749996,1.9047499 0 0 0 2.75,-27.09524 1.8749996,1.9047499 0 0 0 4.625,-25.190478 1.8749996,1.9047499 0 0 0 6.5,-27.09524 1.8749996,1.9047499 0 0 0 4.625,-29 Z"
       style="fill:#1fa9c6;fill-opacity:1;stroke:none;stroke-width:1.09954"
       inkscape:connector-curvature="0" />
    <path
       d="m 11.562501,-18.714291 c 0.310639,0 0.562499,0.255857 0.562499,0.571429 0,0.315571 -0.25186,0.571428 -0.562499,0.571428 -0.310642,0 -0.562502,-0.255857 -0.562502,-0.571428 0,-0.315572 0.25186,-0.571429 0.562502,-0.571429 z m 1.124999,-1.142856 c -0.310641,0 -0.5625,-0.255856 -0.5625,-0.571429 0,-0.31557 0.251859,-0.571427 0.5625,-0.571427 0.310641,0 0.5625,0.255857 0.5625,0.571427 0,0.315573 -0.251859,0.571429 -0.5625,0.571429 z m 1.125,2.285713 c -0.310641,0 -0.5625,-0.255857 -0.5625,-0.571428 0,-0.315572 0.251859,-0.571429 0.5625,-0.571429 0.31064,0 0.5625,0.255857 0.5625,0.571429 0,0.315571 -0.25186,0.571428 -0.5625,0.571428 z m 1.125,-3.428569 c 0.310639,0 0.562499,0.255857 0.562499,0.571427 0,0.315573 -0.25186,0.571429 -0.562499,0.571429 -0.310641,0 -0.5625,-0.255856 -0.5625,-0.571429 0,-0.31557 0.251859,-0.571427 0.5625,-0.571427 z m 0,5.714282 c -0.310641,0 -0.5625,-0.255858 -0.5625,-0.571428 0,-0.31557 0.251859,-0.571428 0.5625,-0.571428 0.310639,0 0.562499,0.255858 0.562499,0.571428 0,0.31557 -0.25186,0.571428 -0.562499,0.571428 z m 2.250001,-4.571426 c -0.310642,0 -0.562502,-0.255856 -0.562502,-0.571429 0,-0.31557 0.25186,-0.571427 0.562502,-0.571427 0.310638,0 0.562499,0.255857 0.562499,0.571427 0,0.315573 -0.251861,0.571429 -0.562499,0.571429 z M 17.75,-15.857149 c 0,0.31557 -0.251861,0.571428 -0.562499,0.571428 -0.310642,0 -0.562502,-0.255858 -0.562502,-0.571428 0,-0.31557 0.25186,-0.571428 0.562502,-0.571428 0.310638,0 0.562499,0.255858 0.562499,0.571428 z m -2.250001,-2.285713 c 0,-0.315572 0.251861,-0.571429 0.562501,-0.571429 h 1.125001 c 0.310638,0 0.562499,0.255857 0.562499,0.571429 0,0.315571 -0.251861,0.571428 -0.562499,0.571428 H 16.0625 c -0.31064,0 -0.562501,-0.255857 -0.562501,-0.571428 z M 8.1875,-21.000003 c 0.310641,0 0.5625,0.255857 0.5625,0.571427 0,0.315573 -0.251859,0.571429 -0.5625,0.571429 -0.310641,0 -0.5625,-0.255856 -0.5625,-0.571429 0,-0.31557 0.251859,-0.571427 0.5625,-0.571427 z M 6.5,-15.857149 c 0,0.31557 -0.251859,0.571428 -0.5625,0.571428 -0.310641,0 -0.5625,-0.255858 -0.5625,-0.571428 0,-0.31557 0.251859,-0.571428 0.5625,-0.571428 0.310641,0 0.5625,0.255858 0.5625,0.571428 z m -1.6875,-3.999998 c -0.31064,0 -0.5625,-0.255856 -0.5625,-0.571429 0,-0.31557 0.25186,-0.571427 0.5625,-0.571427 h 1.125 c 0.310641,0 0.5625,0.255857 0.5625,0.571427 0,0.315573 -0.251859,0.571429 -0.5625,0.571429 z m 2.8125,1.714285 c 0,0.315571 -0.251859,0.571428 -0.5625,0.571428 h -2.25 c -0.31064,0 -0.5625,-0.255857 -0.5625,-0.571428 0,-0.315572 0.25186,-0.571429 0.5625,-0.571429 h 2.25 c 0.310641,0 0.5625,0.255857 0.5625,0.571429 z m 5.625,2.285713 c 0,0.31557 -0.251859,0.571428 -0.5625,0.571428 h -4.5 c -0.310641,0 -0.5625,-0.255858 -0.5625,-0.571428 0,-0.31557 0.251859,-0.571428 0.5625,-0.571428 h 4.5 c 0.310641,0 0.5625,0.255858 0.5625,0.571428 z m -3.9375,-1.714285 c -0.310641,0 -0.5625,-0.255857 -0.5625,-0.571428 0,-0.315572 0.251859,-0.571429 0.5625,-0.571429 0.310641,0 0.5625,0.255857 0.5625,0.571429 0,0.315571 -0.251859,0.571428 -0.5625,0.571428 z m 1.125,-3.428569 c 0.31064,0 0.562499,0.255857 0.562499,0.571427 0,0.315573 -0.251859,0.571429 -0.562499,0.571429 -0.31064,0 -0.5625,-0.255856 -0.5625,-0.571429 0,-0.31557 0.25186,-0.571427 0.5625,-0.571427 z m 7.3125,7.999995 H 4.25 c -1.242563,0 -2.25,-1.023426 -2.25,-2.285713 v -5.714282 c 0,-1.262286 1.007437,-2.285714 2.25,-2.285714 h 5.203125 c 0.23291,0 0.421875,-0.191964 0.421875,-0.428571 v -0.714285 c 0,-0.273714 0.04971,-0.535 0.136792,-0.778178 0.0022,-0.0073 0.0038,-0.01479 0.0074,-0.02108 0.227708,-0.618428 0.710262,-1.108678 1.319168,-1.339999 0.0061,-0.0037 0.01346,-0.0053 0.0206,-0.0077 0.239477,-0.08814 0.496573,-0.138783 0.766011,-0.138783 h 1.125047 c 0.621281,0 1.124999,-0.511714 1.124999,-1.142856 v -0.571403 C 14.374971,-28.744143 14.626831,-29 14.937472,-29 c 0.310639,0 0.562499,0.255857 0.562499,0.571428 v 0.571428 c 0,0.273715 -0.0497,0.535 -0.136792,0.778178 -0.0022,0.0073 -0.0038,0.01479 -0.0074,0.02108 -0.227708,0.618428 -0.710262,1.108678 -1.319168,1.34 -0.0061,0.0037 -0.01347,0.0052 -0.0206,0.0077 -0.239475,0.08814 -0.496572,0.138781 -0.76601,0.138781 h -1.125 c -0.621283,0 -1.125,0.511714 -1.125,1.142857 v 0.857142 c 0,0.789071 -0.629509,1.428572 -1.406251,1.428572 H 4.25 c -0.621281,0 -1.125,0.511711 -1.125,1.142856 v 5.714284 c 0,0.631142 0.503719,1.142856 1.125,1.142856 h 13.5 c 0.62128,0 1.125,-0.511714 1.125,-1.142856 v -5.714282 c 0,-0.631145 -0.50372,-1.142856 -1.125,-1.142856 h -5.0625 c -0.310641,0 -0.5625,-0.255859 -0.5625,-0.571429 0,-0.315571 0.251859,-0.571429 0.5625,-0.571429 H 17.75 c 1.242563,0 2.25,1.023429 2.25,2.285714 v 5.714282 c 0,1.262266 -1.007437,2.285693 -2.25,2.285694 z"
       id="path2-36-7-6-5"
       style="stroke-width:0.0354341;fill-opacity:1;fill:currentColor;"
       class="ColorScheme-Text" />
  </g>
  <g
     id="22-22-input-keyboard"
     transform="translate(-22,42)">
    <rect
       y="-64"
       x="0"
       height="22"
       width="22"
       id="rect4147"
       style="fill:none;fill-rule:evenodd;stroke:none;stroke-width:1px;stroke-linecap:butt;stroke-linejoin:miter;stroke-opacity:1" />
    <path
       d="m 11.562501,-50.714291 c 0.310639,0 0.562499,0.255857 0.562499,0.571429 0,0.315571 -0.25186,0.571428 -0.562499,0.571428 -0.310642,0 -0.562502,-0.255857 -0.562502,-0.571428 0,-0.315572 0.25186,-0.571429 0.562502,-0.571429 z m 1.124999,-1.142856 c -0.310641,0 -0.5625,-0.255856 -0.5625,-0.571429 0,-0.31557 0.251859,-0.571427 0.5625,-0.571427 0.310641,0 0.5625,0.255857 0.5625,0.571427 0,0.315573 -0.251859,0.571429 -0.5625,0.571429 z m 1.125,2.285713 c -0.310641,0 -0.5625,-0.255857 -0.5625,-0.571428 0,-0.315572 0.251859,-0.571429 0.5625,-0.571429 0.31064,0 0.5625,0.255857 0.5625,0.571429 0,0.315571 -0.25186,0.571428 -0.5625,0.571428 z m 1.125,-3.428569 c 0.310639,0 0.562499,0.255857 0.562499,0.571427 0,0.315573 -0.25186,0.571429 -0.562499,0.571429 -0.310641,0 -0.5625,-0.255856 -0.5625,-0.571429 0,-0.31557 0.251859,-0.571427 0.5625,-0.571427 z m 0,5.714282 c -0.310641,0 -0.5625,-0.255858 -0.5625,-0.571428 0,-0.31557 0.251859,-0.571428 0.5625,-0.571428 0.310639,0 0.562499,0.255858 0.562499,0.571428 0,0.31557 -0.25186,0.571428 -0.562499,0.571428 z m 2.250001,-4.571426 c -0.310642,0 -0.562502,-0.255856 -0.562502,-0.571429 0,-0.31557 0.25186,-0.571427 0.562502,-0.571427 0.310638,0 0.562499,0.255857 0.562499,0.571427 0,0.315573 -0.251861,0.571429 -0.562499,0.571429 z M 17.75,-47.857149 c 0,0.31557 -0.251861,0.571428 -0.562499,0.571428 -0.310642,0 -0.562502,-0.255858 -0.562502,-0.571428 0,-0.31557 0.25186,-0.571428 0.562502,-0.571428 0.310638,0 0.562499,0.255858 0.562499,0.571428 z m -2.250001,-2.285713 c 0,-0.315572 0.251861,-0.571429 0.562501,-0.571429 h 1.125001 c 0.310638,0 0.562499,0.255857 0.562499,0.571429 0,0.315571 -0.251861,0.571428 -0.562499,0.571428 H 16.0625 c -0.31064,0 -0.562501,-0.255857 -0.562501,-0.571428 z M 8.1875,-53.000003 c 0.310641,0 0.5625,0.255857 0.5625,0.571427 0,0.315573 -0.251859,0.571429 -0.5625,0.571429 -0.310641,0 -0.5625,-0.255856 -0.5625,-0.571429 0,-0.31557 0.251859,-0.571427 0.5625,-0.571427 z M 6.5,-47.857149 c 0,0.31557 -0.251859,0.571428 -0.5625,0.571428 -0.310641,0 -0.5625,-0.255858 -0.5625,-0.571428 0,-0.31557 0.251859,-0.571428 0.5625,-0.571428 0.310641,0 0.5625,0.255858 0.5625,0.571428 z m -1.6875,-3.999998 c -0.31064,0 -0.5625,-0.255856 -0.5625,-0.571429 0,-0.31557 0.25186,-0.571427 0.5625,-0.571427 h 1.125 c 0.310641,0 0.5625,0.255857 0.5625,0.571427 0,0.315573 -0.251859,0.571429 -0.5625,0.571429 z m 2.8125,1.714285 c 0,0.315571 -0.251859,0.571428 -0.5625,0.571428 h -2.25 c -0.31064,0 -0.5625,-0.255857 -0.5625,-0.571428 0,-0.315572 0.25186,-0.571429 0.5625,-0.571429 h 2.25 c 0.310641,0 0.5625,0.255857 0.5625,0.571429 z m 5.625,2.285713 c 0,0.31557 -0.251859,0.571428 -0.5625,0.571428 h -4.5 c -0.310641,0 -0.5625,-0.255858 -0.5625,-0.571428 0,-0.31557 0.251859,-0.571428 0.5625,-0.571428 h 4.5 c 0.310641,0 0.5625,0.255858 0.5625,0.571428 z m -3.9375,-1.714285 c -0.310641,0 -0.5625,-0.255857 -0.5625,-0.571428 0,-0.315572 0.251859,-0.571429 0.5625,-0.571429 0.310641,0 0.5625,0.255857 0.5625,0.571429 0,0.315571 -0.251859,0.571428 -0.5625,0.571428 z m 1.125,-3.428569 c 0.31064,0 0.562499,0.255857 0.562499,0.571427 0,0.315573 -0.251859,0.571429 -0.562499,0.571429 -0.31064,0 -0.5625,-0.255856 -0.5625,-0.571429 0,-0.31557 0.25186,-0.571427 0.5625,-0.571427 z m 7.3125,7.999995 H 4.25 c -1.242563,0 -2.25,-1.023426 -2.25,-2.285713 v -5.714282 c 0,-1.262286 1.007437,-2.285714 2.25,-2.285714 h 5.203125 c 0.23291,0 0.421875,-0.191964 0.421875,-0.428571 v -0.714285 c 0,-0.273714 0.04971,-0.535 0.136792,-0.778178 0.0022,-0.0073 0.0038,-0.01479 0.0074,-0.02107 0.227708,-0.618428 0.710262,-1.108678 1.319168,-1.339999 0.0061,-0.0037 0.01346,-0.0053 0.0206,-0.0077 0.239477,-0.08814 0.496573,-0.138783 0.766011,-0.138783 h 1.125047 c 0.621281,0 1.124999,-0.511714 1.124999,-1.142856 v -0.571418 C 14.374971,-60.744143 14.626831,-61 14.937472,-61 c 0.310639,0 0.562499,0.255857 0.562499,0.571428 v 0.571429 c 0,0.273714 -0.0497,0.534999 -0.136792,0.778177 -0.0022,0.0073 -0.0038,0.01479 -0.0074,0.02107 -0.227708,0.618428 -0.710262,1.108678 -1.319168,1.34 -0.0061,0.0037 -0.01347,0.0052 -0.0206,0.0077 -0.239475,0.08814 -0.496572,0.138781 -0.76601,0.138781 h -1.125 c -0.621283,0 -1.125,0.511714 -1.125,1.142857 v 0.857142 c 0,0.789071 -0.629509,1.428572 -1.406251,1.428572 H 4.25 c -0.621281,0 -1.125,0.511711 -1.125,1.142856 v 5.714284 c 0,0.631142 0.503719,1.142856 1.125,1.142856 h 13.5 c 0.62128,0 1.125,-0.511714 1.125,-1.142856 v -5.714282 c 0,-0.631145 -0.50372,-1.142856 -1.125,-1.142856 h -5.0625 c -0.310641,0 -0.5625,-0.255859 -0.5625,-0.571429 0,-0.315571 0.251859,-0.571429 0.5625,-0.571429 H 17.75 c 1.242563,0 2.25,1.023429 2.25,2.285714 v 5.714282 c 0,1.262276 -1.007437,2.285703 -2.25,2.285704 z"
       id="path2-36-7-6-5-3"
       style="stroke-width:0.0354341;fill-opacity:1;fill:currentColor;"
       class="ColorScheme-Text" />
  </g>
  <g
     id="input-keyboard-virtual-off"
     transform="translate(-22,42)">
    <rect
       style="fill:none;fill-rule:evenodd;stroke:none;stroke-width:1.45455px;stroke-linecap:butt;stroke-linejoin:miter;stroke-opacity:1"
       id="rect4176"
       width="32"
       height="32"
       x="22"
       y="-10" />
    <path
       d="m 38.75,8.999924 c 0.414188,0 0.75,0.335813 0.75,0.75 0,0.414187 -0.335812,0.75 -0.75,0.75 -0.414188,0 -0.75,-0.335813 -0.75,-0.75 0,-0.414187 0.335812,-0.75 0.75,-0.75 z m 1.5,-1.5 c -0.414188,0 -0.75,-0.335813 -0.75,-0.75 0,-0.414187 0.335812,-0.75 0.75,-0.75 0.414188,0 0.75,0.335813 0.75,0.75 0,0.414187 -0.335812,0.75 -0.75,0.75 z m 1.5,3 c -0.414188,0 -0.75,-0.335813 -0.75,-0.75 0,-0.414187 0.335812,-0.75 0.75,-0.75 0.414187,0 0.75,0.335813 0.75,0.75 0,0.414187 -0.335813,0.75 -0.75,0.75 z m 1.5,-4.5 c 0.414187,0 0.75,0.335813 0.75,0.75 0,0.414187 -0.335813,0.75 -0.75,0.75 -0.414188,0 -0.75,-0.335813 -0.75,-0.75 0,-0.414187 0.335812,-0.75 0.75,-0.75 z m 0,7.5 c -0.414188,0 -0.75,-0.335813 -0.75,-0.75 0,-0.414187 0.335812,-0.75 0.75,-0.75 0.414187,0 0.75,0.335813 0.75,0.75 0,0.414187 -0.335813,0.75 -0.75,0.75 z m 3,-6 c -0.414188,0 -0.75,-0.335813 -0.75,-0.75 0,-0.414187 0.335812,-0.75 0.75,-0.75 0.414187,0 0.75,0.335813 0.75,0.75 0,0.414187 -0.335813,0.75 -0.75,0.75 z m 0.75,5.25 c 0,0.414187 -0.335813,0.75 -0.75,0.75 -0.414188,0 -0.75,-0.335813 -0.75,-0.75 0,-0.414187 0.335812,-0.75 0.75,-0.75 0.414187,0 0.75,0.335813 0.75,0.75 z m -3,-3 c 0,-0.414187 0.335812,-0.75 0.75,-0.75 h 1.5 c 0.414187,0 0.75,0.335813 0.75,0.75 0,0.414187 -0.335813,0.75 -0.75,0.75 h -1.5 c -0.414188,0 -0.75,-0.335813 -0.75,-0.75 z m -9.75,-3.75 c 0.414188,0 0.75,0.335813 0.75,0.75 0,0.414187 -0.335812,0.75 -0.75,0.75 -0.414188,0 -0.75,-0.335813 -0.75,-0.75 0,-0.414187 0.335812,-0.75 0.75,-0.75 z m -2.25,6.75 c 0,0.414187 -0.335812,0.75 -0.75,0.75 -0.414188,0 -0.75,-0.335813 -0.75,-0.75 0,-0.414187 0.335812,-0.75 0.75,-0.75 0.414188,0 0.75,0.335813 0.75,0.75 z m -2.25,-5.25 c -0.414187,0 -0.75,-0.335813 -0.75,-0.75 0,-0.414187 0.335813,-0.75 0.75,-0.75 h 1.5 c 0.414188,0 0.75,0.335813 0.75,0.75 0,0.414187 -0.335812,0.75 -0.75,0.75 z m 3.75,2.25 c 0,0.414187 -0.335812,0.75 -0.75,0.75 h -3 c -0.414187,0 -0.75,-0.335813 -0.75,-0.75 0,-0.414187 0.335813,-0.75 0.75,-0.75 h 3 c 0.414188,0 0.75,0.335813 0.75,0.75 z m 7.5,3 c 0,0.414187 -0.335812,0.75 -0.75,0.75 h -6 c -0.414188,0 -0.75,-0.335813 -0.75,-0.75 0,-0.414187 0.335812,-0.75 0.75,-0.75 h 6 c 0.414188,0 0.75,0.335813 0.75,0.75 z m -5.25,-2.25 c -0.414188,0 -0.75,-0.335813 -0.75,-0.75 0,-0.414187 0.335812,-0.75 0.75,-0.75 0.414188,0 0.75,0.335813 0.75,0.75 0,0.414187 -0.335812,0.75 -0.75,0.75 z m 1.5,-4.5 c 0.414188,0 0.75,0.335813 0.75,0.75 0,0.414187 -0.335812,0.75 -0.75,0.75 -0.414188,0 -0.75,-0.335813 -0.75,-0.75 0,-0.414187 0.335812,-0.75 0.75,-0.75 z m 9.75,10.5 H 29 c -1.65675,0 -3,-1.34325 -3,-3 v -7.5 c 0,-1.65675 1.34325,-3 3,-3 h 6.9375 c 0.310547,0 0.5625,-0.251953 0.5625,-0.5625 v -0.9375 c 0,-0.35925 0.06628,-0.702188 0.182391,-1.021359 0.0029,-0.0095 0.0051,-0.01941 0.0099,-0.02766 0.30361,-0.811687 0.947016,-1.45514 1.758891,-1.75875 0.0081,-0.0049 0.01795,-0.0069 0.02747,-0.01008 C 38.797953,-1.433608 39.14075,-1.500077 39.5,-1.500077 H 41 c 0.828375,0 1.5,-0.671625 1.5,-1.5 v -0.75 c 0,-0.414187 0.335812,-0.75 0.75,-0.75 0.414187,0 0.75,0.335813 0.75,0.75 v 0.75 c 0,0.35925 -0.06628,0.702187 -0.182391,1.021359 -0.0029,0.0095 -0.0051,0.01941 -0.0099,0.02766 -0.30361,0.811687 -0.947016,1.45514 -1.758891,1.75875 -0.0081,0.0049 -0.01795,0.0069 -0.02747,0.01008 C 41.702047,-0.066546 41.35925,-7.7e-5 41,-7.7e-5 h -1.5 c -0.828375,0 -1.5,0.671625 -1.5,1.5 v 1.125 c 0,1.035656 -0.839344,1.875 -1.875,1.875 H 29 c -0.828375,0 -1.5,0.671625 -1.5,1.5 v 7.5 c 0,0.828375 0.671625,1.5 1.5,1.5 h 18 c 0.828375,0 1.5,-0.671625 1.5,-1.5 v -7.5 c 0,-0.828375 -0.671625,-1.5 -1.5,-1.5 h -6.75 c -0.414188,0 -0.75,-0.335813 -0.75,-0.75 0,-0.414187 0.335812,-0.75 0.75,-0.75 H 47 c 1.65675,0 3,1.34325 3,3 v 7.5 c 0,1.65675 -1.34325,3 -3,3.000001 z"
       id="path2-36-7-6-56"
       style="fill:#d35f5f;fill-opacity:1;stroke-width:0.046875" />
  </g>
  <g
     id="22-22-input-keyboard-virtual-off"
     transform="translate(-22,42)">
    <rect
       style="fill:none;fill-opacity:1;stroke:none;stroke-linejoin:bevel"
       id="rect4172"
       width="22"
       height="22"
       x="0"
       y="0" />
    <path
       d="m 11.562501,13.285633 c 0.310639,0 0.562499,0.255857 0.562499,0.571429 0,0.315571 -0.25186,0.571428 -0.562499,0.571428 -0.310642,0 -0.562502,-0.255857 -0.562502,-0.571428 0,-0.315572 0.25186,-0.571429 0.562502,-0.571429 z M 12.6875,12.142777 c -0.310641,0 -0.5625,-0.255856 -0.5625,-0.571429 0,-0.31557 0.251859,-0.571427 0.5625,-0.571427 0.310641,0 0.5625,0.255857 0.5625,0.571427 0,0.315573 -0.251859,0.571429 -0.5625,0.571429 z m 1.125,2.285713 c -0.310641,0 -0.5625,-0.255857 -0.5625,-0.571428 0,-0.315572 0.251859,-0.571429 0.5625,-0.571429 0.31064,0 0.5625,0.255857 0.5625,0.571429 0,0.315571 -0.25186,0.571428 -0.5625,0.571428 z m 1.125,-3.428569 c 0.310639,0 0.562499,0.255857 0.562499,0.571427 0,0.315573 -0.25186,0.571429 -0.562499,0.571429 -0.310641,0 -0.5625,-0.255856 -0.5625,-0.571429 0,-0.31557 0.251859,-0.571427 0.5625,-0.571427 z m 0,5.714282 c -0.310641,0 -0.5625,-0.255858 -0.5625,-0.571428 0,-0.31557 0.251859,-0.571428 0.5625,-0.571428 0.310639,0 0.562499,0.255858 0.562499,0.571428 0,0.31557 -0.25186,0.571428 -0.562499,0.571428 z m 2.250001,-4.571426 c -0.310642,0 -0.562502,-0.255856 -0.562502,-0.571429 0,-0.31557 0.25186,-0.571427 0.562502,-0.571427 0.310638,0 0.562499,0.255857 0.562499,0.571427 0,0.315573 -0.251861,0.571429 -0.562499,0.571429 z M 17.75,16.142775 c 0,0.31557 -0.251861,0.571428 -0.562499,0.571428 -0.310642,0 -0.562502,-0.255858 -0.562502,-0.571428 0,-0.31557 0.25186,-0.571428 0.562502,-0.571428 0.310638,0 0.562499,0.255858 0.562499,0.571428 z m -2.250001,-2.285713 c 0,-0.315572 0.251861,-0.571429 0.562501,-0.571429 h 1.125001 c 0.310638,0 0.562499,0.255857 0.562499,0.571429 0,0.315571 -0.251861,0.571428 -0.562499,0.571428 H 16.0625 c -0.31064,0 -0.562501,-0.255857 -0.562501,-0.571428 z M 8.1875,10.999921 c 0.310641,0 0.5625,0.255857 0.5625,0.571427 0,0.315573 -0.251859,0.571429 -0.5625,0.571429 -0.310641,0 -0.5625,-0.255856 -0.5625,-0.571429 0,-0.31557 0.251859,-0.571427 0.5625,-0.571427 z M 6.5,16.142775 c 0,0.31557 -0.251859,0.571428 -0.5625,0.571428 -0.310641,0 -0.5625,-0.255858 -0.5625,-0.571428 0,-0.31557 0.251859,-0.571428 0.5625,-0.571428 0.310641,0 0.5625,0.255858 0.5625,0.571428 z M 4.8125,12.142777 c -0.31064,0 -0.5625,-0.255856 -0.5625,-0.571429 0,-0.31557 0.25186,-0.571427 0.5625,-0.571427 h 1.125 c 0.310641,0 0.5625,0.255857 0.5625,0.571427 0,0.315573 -0.251859,0.571429 -0.5625,0.571429 z m 2.8125,1.714285 c 0,0.315571 -0.251859,0.571428 -0.5625,0.571428 h -2.25 c -0.31064,0 -0.5625,-0.255857 -0.5625,-0.571428 0,-0.315572 0.25186,-0.571429 0.5625,-0.571429 h 2.25 c 0.310641,0 0.5625,0.255857 0.5625,0.571429 z m 5.625,2.285713 c 0,0.31557 -0.251859,0.571428 -0.5625,0.571428 h -4.5 c -0.310641,0 -0.5625,-0.255858 -0.5625,-0.571428 0,-0.31557 0.251859,-0.571428 0.5625,-0.571428 h 4.5 c 0.310641,0 0.5625,0.255858 0.5625,0.571428 z M 9.3125,14.42849 c -0.310641,0 -0.5625,-0.255857 -0.5625,-0.571428 0,-0.315572 0.251859,-0.571429 0.5625,-0.571429 0.310641,0 0.5625,0.255857 0.5625,0.571429 0,0.315571 -0.251859,0.571428 -0.5625,0.571428 z m 1.125,-3.428569 c 0.31064,0 0.562499,0.255857 0.562499,0.571427 0,0.315573 -0.251859,0.571429 -0.562499,0.571429 -0.31064,0 -0.5625,-0.255856 -0.5625,-0.571429 0,-0.31557 0.25186,-0.571427 0.5625,-0.571427 z M 17.75,18.999916 H 4.25 C 3.007437,18.999916 2,17.97649 2,16.714203 V 10.999921 C 2,9.737635 3.007437,8.714207 4.25,8.714207 H 9.453125 C 9.686035,8.714207 9.875,8.522243 9.875,8.285636 V 7.571351 c 0,-0.273714 0.04971,-0.535 0.136792,-0.778178 0.0022,-0.0073 0.0038,-0.01479 0.0074,-0.02107 0.227708,-0.618428 0.710262,-1.108678 1.319168,-1.339999 0.0061,-0.0037 0.01346,-0.0053 0.0206,-0.0077 0.239477,-0.08814 0.496573,-0.138783 0.766011,-0.138783 h 1.125047 c 0.621281,0 1.124999,-0.511714 1.124999,-1.142856 V 3.571347 c -4.6e-5,-0.315566 0.251814,-0.571423 0.562455,-0.571423 0.310639,0 0.562499,0.255857 0.562499,0.571428 v 0.571429 c 0,0.273714 -0.0497,0.534999 -0.136792,0.778177 -0.0022,0.0073 -0.0038,0.01479 -0.0074,0.02107 -0.227708,0.618428 -0.710262,1.108678 -1.319168,1.34 -0.0061,0.0037 -0.01347,0.0052 -0.0206,0.0077 -0.239475,0.08814 -0.496572,0.138781 -0.76601,0.138781 h -1.125 c -0.621283,0 -1.125,0.511714 -1.125,1.142857 v 0.857142 c 0,0.789071 -0.629509,1.428572 -1.406251,1.428572 H 4.25 c -0.621281,0 -1.125,0.511711 -1.125,1.142856 v 5.714284 c 0,0.631142 0.503719,1.142856 1.125,1.142856 h 13.5 c 0.62128,0 1.125,-0.511714 1.125,-1.142856 v -5.714282 c 0,-0.631145 -0.50372,-1.142856 -1.125,-1.142856 h -5.0625 c -0.310641,0 -0.5625,-0.255859 -0.5625,-0.571429 0,-0.315571 0.251859,-0.571429 0.5625,-0.571429 H 17.75 c 1.242563,0 2.25,1.023429 2.25,2.285714 v 5.714282 c 0,1.262276 -1.007437,2.285703 -2.25,2.285704 z"
       id="path2-36-7-6-5-3-2"
       style="fill:#d35f5f;fill-opacity:1;stroke-width:0.0354341" />
  </g>
</svg>
