<?xml version="1.0" encoding="UTF-8" standalone="no"?>
<svg
   width="32"
   height="32"
   version="1.1"
   id="svg32"
   sodipodi:docname="kalarm.svg"
   inkscape:version="1.1.2 (0a00cf5339, 2022-02-04)"
   xmlns:inkscape="http://www.inkscape.org/namespaces/inkscape"
   xmlns:sodipodi="http://sodipodi.sourceforge.net/DTD/sodipodi-0.dtd"
   xmlns="http://www.w3.org/2000/svg"
   xmlns:svg="http://www.w3.org/2000/svg"
   xmlns:rdf="http://www.w3.org/1999/02/22-rdf-syntax-ns#"
   xmlns:cc="http://creativecommons.org/ns#"
   xmlns:dc="http://purl.org/dc/elements/1.1/">
  <style
     id="current-color-scheme"
     type="text/css">.ColorScheme-NegativeText { color:#bf616a; }
.ColorScheme-Text { color:#d6dbf1; }
</style>
  <metadata
     id="metadata38">
    <rdf:RDF>
      <cc:Work
         rdf:about="">
        <dc:format>image/svg+xml</dc:format>
        <dc:type
           rdf:resource="http://purl.org/dc/dcmitype/StillImage" />
      </cc:Work>
    </rdf:RDF>
  </metadata>
  <defs
     id="defs36" />
  <sodipodi:namedview
     pagecolor="#ffffff"
     bordercolor="#666666"
     borderopacity="1"
     objecttolerance="10"
     gridtolerance="10"
     guidetolerance="10"
     inkscape:pageopacity="0"
     inkscape:pageshadow="2"
     inkscape:window-width="1920"
     inkscape:window-height="1009"
     id="namedview34"
     showgrid="false"
     inkscape:zoom="6.9384856"
     inkscape:cx="17.438964"
     inkscape:cy="7.1341216"
     inkscape:window-x="0"
     inkscape:window-y="0"
     inkscape:window-maximized="1"
     inkscape:current-layer="svg32"
     inkscape:document-rotation="0"
     inkscape:lockguides="false"
     showguides="true"
     inkscape:pagecheckerboard="0">
    <inkscape:grid
       type="xygrid"
       id="grid883"
       originx="-32"
       originy="0" />
  </sodipodi:namedview>
  <g
     id="22-22-kalarm"
     style="fill:#d6dbf1;fill-opacity:1"
     transform="translate(-32,-22)">
    <rect
       style="opacity:0.00100002;fill:#d6dbf1;fill-opacity:1"
       width="22"
       height="22"
       x="0"
       y="0"
       id="rect2" />
    <path
       d="M 17.81543,16.142043 C 16.747421,15.322597 16.135428,14.072424 16.135428,12.708435 V 9.8491326 c 0,-2.3953115 -1.580572,-4.4211586 -3.733728,-5.0444903 V 4.1305359 C 12.4017,3.3426071 11.774283,2.7 11.001139,2.7 10.229712,2.7 9.6005579,3.3408483 9.6005579,4.1305359 V 4.8046423 C 7.4474198,5.427974 5.86685,7.4538211 5.86685,9.8491326 v 2.8593024 c 0,1.362234 -0.6120106,2.612406 -1.6800015,3.433608 C 4.0256924,16.264604 3.9605541,16.478228 4.0239821,16.674331 4.0874767,16.868691 4.2657092,17 4.4662713,17 h 4.2462858 v 0 l 3.6102899,-0.0023 v 0 0 L 17.530844,17 c 0.200575,8.2e-5 0.378864,-0.131309 0.44229,-0.325669 0.06853,-0.194355 0.0024,-0.409727 -0.157704,-0.532288 z M 10.536562,4.1305359 c 0,-0.2626546 0.209151,-0.4762764 0.466292,-0.4762764 0.257129,0 0.466275,0.2136218 0.466275,0.4762764 v 0.4990174 c -0.154287,-0.014001 -0.308573,-0.02283 -0.466275,-0.02283 -0.157721,0 -0.312007,0.00781 -0.466292,0.02283 z M 5.6302803,16 c 0,0 0.4457136,-0.570591 0.6154115,-0.908524 0.3720124,-0.742402 0.5588611,-1.542595 0.5588611,-2.383041 V 9.8491326 c 0,-2.365531 1.8840075,-4.2898347 4.2000081,-4.2898347 2.314293,0 4.200012,1.9243037 4.200012,4.2898347 v 2.8593024 c 0,0.838691 0.188556,1.640639 0.55885,2.381276 0.169707,0.339698 0.377134,0.616127 0.613708,0.910289 z"
       id="path4-2-8"
       sodipodi:nodetypes="csscssscssccscccccscccsscsccsccccccccss"
       style="fill:currentColor;fill-opacity:1;stroke-width:0.017326"
       class="ColorScheme-Text" />
    <path
       d="M 10.509311,16.797458 C 10.411481,16.689144 10.26996,16.628 10.124962,16.628 H 6.5119551 c -0.144998,0 -0.286515,0.06118 -0.384354,0.169458 -0.09784,0.108326 -0.146764,0.253329 -0.132779,0.401842 0.05584,0.574795 0.32146,1.107659 0.749497,1.499011 0.429799,0.394843 0.990602,0.613227 1.575885,0.613227 0.585289,0 1.144348,-0.216639 1.575885,-0.613227 0.4280389,-0.391352 0.6936019,-0.924216 0.7494959,-1.499011 0.0084,-0.146766 -0.0384,-0.291768 -0.136274,-0.401842 z m -1.0866909,1.387203 c -0.303986,0.276041 -0.693587,0.428033 -1.105905,0.428033 -0.41232,0 -0.803674,-0.151992 -1.105913,-0.428033 C 6.9592181,17.954043 6.7862491,17.051714 6.7146271,16.725 h 3.200678 c -0.06809,0.330207 -0.241092,1.230786 -0.492685,1.459661 z"
       id="path10-3-7-7"
       style="fill:currentColor;fill-opacity:1;stroke-width:0.0174717"
       sodipodi:nodetypes="csscccsccccscccc"
       class="ColorScheme-Text" />
  </g>
  <g
     id="22-22-kalarm-disabled"
     transform="translate(-32,-22)">
    <rect
       style="opacity:0.00100002"
       width="22"
       height="22"
       x="32"
       y="0"
       id="rect7" />
    <path
       d="M 41.835366,13.965027 C 41.346634,13.964441 40.950585,13.568392 40.95,13.07966 V 9.184049 c 0.0018,-1.1787317 1.768977,-1.1787317 1.770731,0 v 3.895611 c -5.85e-4,0.488731 -0.396634,0.884781 -0.885365,0.885367 z m 0,-5.312199 z"
       id="path8-5-9"
       style="fill:currentColor;fill-opacity:1;stroke-width:0.177075"
       sodipodi:nodetypes="cccccccccccc"
       class="ColorScheme-NegativeText" />
    <path
       d="M 44.314363,13.965027 C 43.825632,13.96444 43.429585,13.568391 43.429,13.07966 V 9.184049 c 0.0018,-1.1787317 1.768977,-1.1787317 1.770731,0 v 3.895611 c -5.85e-4,0.488732 -0.396635,0.884782 -0.885368,0.885367 z m 0,-5.312199 z"
       id="path10-1"
       style="fill:currentColor;fill-opacity:1;stroke-width:0.177075"
       sodipodi:nodetypes="cccccccccccc"
       class="ColorScheme-NegativeText" />
    <path
       d="m 49.815427,16.148043 c -1.06801,-0.813716 -1.680002,-2.055146 -1.680002,-3.409598 V 9.8991386 c 0,-2.378561 -1.580571,-4.3902413 -3.733727,-5.0092141 V 4.2205321 C 44.401698,3.4381134 43.774282,2.8 43.001137,2.8 42.22971,2.8 41.600555,3.4363668 41.600555,4.2205321 v 0.6693924 c -2.153136,0.6189728 -3.733706,2.6306531 -3.733706,5.0092141 v 2.8393064 c 0,1.352708 -0.61201,2.594139 -1.680002,3.409598 -0.161156,0.121704 -0.226293,0.333833 -0.162865,0.528566 C 36.087475,16.869608 36.265708,17 36.46627,17 h 4.246285 v 0 l 3.61029,-0.0023 v 0 0 L 49.530841,17 c 0.200575,8.1e-5 0.378864,-0.130392 0.44229,-0.323391 0.06853,-0.192996 0.0024,-0.406862 -0.157704,-0.528566 z M 42.536561,4.2205321 c 0,-0.2608178 0.209151,-0.4729457 0.466292,-0.4729457 0.257128,0 0.466274,0.2121279 0.466274,0.4729457 v 0.4955278 c -0.154286,-0.013903 -0.308573,-0.022671 -0.466274,-0.022671 -0.157721,0 -0.312007,0.00776 -0.466292,0.022671 z M 37.630279,16 c 0,0 0.445713,-0.559608 0.615412,-0.895178 0.372012,-0.73721 0.55886,-1.531807 0.55886,-2.366377 V 9.8991386 c 0,-2.3489888 1.884008,-4.2598358 4.20001,-4.2598358 2.314293,0 4.200009,1.910847 4.200009,4.2598358 v 2.8393064 c 0,0.832827 0.188556,1.629167 0.558852,2.364625 0.169706,0.337322 0.377134,0.555826 0.613707,0.84793 z"
       id="path4-2-8-2"
       sodipodi:nodetypes="csscssscssccscccccscccsscsccsccccccccss"
       style="fill:currentColor;fill-opacity:1;stroke-width:0.0172652"
       class="ColorScheme-Text" />
    <path
       d="M 42.509311,16.797458 C 42.411481,16.689144 42.26996,16.628 42.124962,16.628 h -3.613007 c -0.144998,0 -0.286515,0.06118 -0.384354,0.169458 -0.09784,0.108326 -0.146764,0.253329 -0.132779,0.401842 0.05584,0.574795 0.32146,1.107659 0.749497,1.499011 0.429799,0.394843 0.990602,0.613227 1.575885,0.613227 0.585289,0 1.144348,-0.216639 1.575885,-0.613227 0.428039,-0.391352 0.693602,-0.924216 0.749496,-1.499011 0.0084,-0.146766 -0.0384,-0.291768 -0.136274,-0.401842 z m -1.086691,1.387203 c -0.303986,0.276041 -0.693587,0.428033 -1.105905,0.428033 -0.41232,0 -0.803674,-0.151992 -1.105913,-0.428033 C 38.959218,17.954043 38.786249,17.151714 38.714627,16.825 h 3.200678 c -0.06809,0.330207 -0.241092,1.130786 -0.492685,1.359661 z"
       id="path10-3-7-7-0"
       style="fill:currentColor;fill-opacity:1;stroke-width:0.0174717"
       sodipodi:nodetypes="csscccsccccscccc"
       class="ColorScheme-Text" />
  </g>
  <g
     id="22-22-klarm-partdisabled"
     transform="translate(-32,-22)">
    <rect
       style="opacity:0.00100002"
       width="22"
       height="22"
       x="64"
       y="0"
       id="rect12" />
    <path
       d="M 77.261344,13.865 H 72.903656 C 72.542651,13.865001 72.249999,13.572349 72.25,13.211344 V 8.853653 C 72.25,8.4926494 72.542652,8.1999986 72.903656,8.2 h 4.357688 C 77.622348,8.1999986 77.915,8.4926494 77.915,8.853653 v 4.357691 c 10e-7,0.361005 -0.292651,0.653657 -0.653656,0.653656 z M 72.903656,8.63577 c -0.120332,2.6e-6 -0.217879,0.097551 -0.21788,0.217883 v 4.357691 c 10e-7,0.120332 0.09755,0.21788 0.21788,0.217883 h 4.357688 c 0.120331,-4e-6 0.217877,-0.09755 0.217878,-0.217883 z"
       id="path8-0"
       style="fill:currentColor;fill-opacity:1;stroke-width:0.217892"
       sodipodi:nodetypes="cccsccsccccccccccc"
       class="ColorScheme-NegativeText" />
    <path
       d="M 81.815431,16.148043 C 80.74742,15.334327 80.135428,14.092897 80.135428,12.738445 V 9.8991386 c 0,-2.378561 -1.580571,-4.3902413 -3.733727,-5.0092141 V 4.2205321 C 76.401701,3.4381134 75.774284,2.8 75.001139,2.8 74.229712,2.8 73.600557,3.4363668 73.600557,4.2205321 V 4.8899245 C 71.44742,5.5088973 69.866849,7.5205776 69.866849,9.8991386 v 2.8393064 c 0,1.352708 -0.612009,2.594139 -1.680001,3.409598 -0.161156,0.121704 -0.226293,0.333833 -0.162865,0.528566 C 68.087483,16.869608 68.265709,17 68.46627,17 h 4.246288 v 0 l 3.610289,-0.0023 v 0 0 L 81.530845,17 c 0.200574,8.1e-5 0.378863,-0.130392 0.442289,-0.323391 0.06853,-0.192996 0.0024,-0.406862 -0.157703,-0.528566 z M 74.536563,4.2205321 c 0,-0.2608178 0.20915,-0.4729457 0.466292,-0.4729457 0.257128,0 0.466274,0.2121279 0.466274,0.4729457 v 0.4955278 c -0.154286,-0.013903 -0.308573,-0.022671 -0.466274,-0.022671 -0.157721,0 -0.312007,0.00776 -0.466292,0.022671 z M 69.63028,16 c 0,0 0.445712,-0.559608 0.615411,-0.895178 0.372013,-0.73721 0.558861,-1.531807 0.558861,-2.366377 V 9.8991386 c 0,-2.3489888 1.884008,-4.2598358 4.200011,-4.2598358 2.314293,0 4.20001,1.910847 4.20001,4.2598358 v 2.8393064 c 0,0.832827 0.188556,1.629167 0.558852,2.364625 0.169706,0.337322 0.377134,0.604826 0.613707,0.89693 z"
       id="path4-2-8-23"
       sodipodi:nodetypes="csscssscssccscccccscccsscsccsccccccccss"
       style="fill:currentColor;fill-opacity:1;stroke-width:0.0172652"
       class="ColorScheme-Text" />
    <path
       d="M 74.509237,16.797458 C 74.411407,16.689144 74.26989,16.628 74.124896,16.628 h -3.612949 c -0.144995,0 -0.28651,0.06118 -0.384348,0.169458 -0.09784,0.108326 -0.146762,0.253329 -0.132777,0.401842 0.05584,0.574795 0.321455,1.107659 0.749484,1.499011 0.429792,0.394843 0.990587,0.613227 1.575861,0.613227 0.585279,0 1.144328,-0.216639 1.575859,-0.613227 0.428031,-0.391352 0.693591,-0.924216 0.749484,-1.499011 0.0084,-0.146766 -0.0384,-0.291768 -0.136273,-0.401842 z m -1.086673,1.387203 c -0.303981,0.276041 -0.693575,0.428033 -1.105886,0.428033 -0.412314,0 -0.803661,-0.151992 -1.105895,-0.428033 C 70.959202,17.954043 70.786236,17.051714 70.714615,16.725 h 3.200627 c -0.06809,0.330207 -0.241089,1.230786 -0.492678,1.459661 z"
       id="path10-3-7-7-7"
       style="fill:currentColor;fill-opacity:1;stroke-width:0.0174715"
       sodipodi:nodetypes="csscccsccccscccc"
       class="ColorScheme-Text" />
  </g>
  <g
     id="kalarm-disabled">
    <rect
       style="opacity:0.00100002"
       width="32"
       height="32"
       x="0"
       y="0"
       id="rect22" />
    <path
       d="M 13.870435,21.266801 C 13.036658,21.265801 12.360998,20.59014 12.36,19.756363 v -6.645925 c 0,-2.013916 3.020875,-2.013916 3.020875,0 v 6.645925 c -9.99e-4,0.833779 -0.676661,1.509441 -1.51044,1.510438 z m 0,-9.062625 z"
       id="path8-5"
       style="fill:currentColor;fill-opacity:1;stroke-width:0.302089"
       sodipodi:nodetypes="ccsscccccccc"
       class="ColorScheme-NegativeText" />
    <path
       d="m 18.09966,21.266801 c -0.833776,-0.001 -1.509434,-0.676662 -1.510432,-1.510438 v -6.645925 c 0.0023,-2.011598 3.018558,-2.011598 3.020873,0 v 6.645925 c -9.99e-4,0.833779 -0.676662,1.509441 -1.510441,1.510438 z m 0,-9.062625 z"
       id="path10"
       style="fill:currentColor;fill-opacity:1;stroke-width:0.302089"
       sodipodi:nodetypes="cccccccccccc"
       class="ColorScheme-NegativeText" />
    <path
       d="M 26.414834,23.714009 C 24.782552,22.487833 24.069419,20.617005 24.047,18.576121 L 24,14.297603 C 23.96063,10.713613 21.431528,7.682015 18.140764,6.749283 V 5.740569 C 18.140764,4.561553 17.181831,3.6 16.000195,3.6 14.821179,3.6 13.859626,4.558933 13.859626,5.740569 V 6.749283 C 10.568862,7.682015 8.281438,10.715691 8.15319,14.297603 L 8,18.576121 c -0.07294,2.037082 -0.782162,3.909092 -2.414444,5.137888 -0.246283,0.183403 -0.345845,0.503047 -0.248903,0.796491 0.09694,0.290824 0.369424,0.487326 0.675969,0.487326 h 6.489826 v 0 l 5.517794,-0.0026 v 0 0 l 7.959666,0.0026 c 0.306544,1.05e-4 0.579028,-0.196502 0.675969,-0.487326 0.104802,-0.290824 0.0026,-0.613088 -0.241043,-0.796491 z M 15.290165,5.740569 c 0,-0.393005 0.319645,-0.712649 0.71265,-0.712649 0.393005,0 0.71265,0.319644 0.71265,0.712649 v 0.74671 c -0.235804,-0.02096 -0.471607,-0.03406 -0.71265,-0.03406 -0.241043,0 -0.476846,0.01048 -0.71265,0.03406 z M 7.392,23.569907 C 7.781065,23.151571 7.972616,22.647655 8.232,22.141988 8.800547,21.031093 9,19.833737 9,18.576121 l 0.186,-4.278518 c 0,-3.539667 3.279768,-6.818603 6.819435,-6.818603 3.537047,0 6.819565,3.278936 6.819565,6.818603 L 23,18.576121 c 0,1.254996 0.113073,2.454972 0.679,3.563247 0.259384,0.508287 0.976435,1.420466 1.338,1.860632 H 6.992 Z"
       id="path4"
       sodipodi:nodetypes="csscssscssccscccccscccsscsccsccccccccss"
       style="fill:currentColor;fill-opacity:1;stroke-width:0.0262004"
       class="ColorScheme-Text" />
    <path
       d="M 14.729632,24.254143 C 14.582912,24.091701 14.370682,24 14.153222,24 H 8.734995 c -0.217463,0 -0.429685,0.0917 -0.576407,0.254143 -0.146722,0.162442 -0.220083,0.379905 -0.199123,0.602608 0.08384,0.861992 0.482086,1.661103 1.123995,2.247991 0.644529,0.592128 1.48556,0.919632 2.363272,0.919632 0.877712,0 1.716123,-0.324884 2.36327,-0.919632 0.64191,-0.586888 1.04015,-1.385999 1.12399,-2.247991 0.0131,-0.220083 -0.0576,-0.437546 -0.20436,-0.602608 z M 13,26.234 c -0.455886,0.413966 -0.94018,0.642 -1.558508,0.642 -0.618329,0 -1.105225,-0.228034 -1.558492,-0.642 C 9.505715,25.888156 9.146341,24.934946 9.038919,24.445 h 4.799903 C 13.736642,24.940187 13.377288,25.890776 13,26.234 Z"
       id="path10-3-7-3"
       style="fill:currentColor;fill-opacity:1;stroke-width:0.0262004"
       sodipodi:nodetypes="csssccsccccscccc"
       class="ColorScheme-Text " />
  </g>
  <g
     id="kalarm"
     transform="translate(-32)">
    <rect
       style="opacity:0.00100002;fill:#d6dbf1;fill-opacity:1"
       width="32"
       height="32"
       x="0"
       y="0"
       id="rect17" />
    <path
       d="M 15.286632,24.254143 C 15.139912,24.091701 14.927682,24 14.710222,24 H 9.291995 c -0.217463,0 -0.429685,0.0917 -0.576407,0.254143 -0.146722,0.162442 -0.220083,0.379905 -0.199123,0.602608 0.08384,0.861992 0.482086,1.661103 1.123995,2.247991 0.644529,0.592128 1.48556,0.919632 2.363272,0.919632 0.877712,0 1.716123,-0.324884 2.36327,-0.919632 0.64191,-0.586888 1.04015,-1.385999 1.12399,-2.247991 0.0131,-0.220083 -0.0576,-0.437546 -0.20436,-0.602608 z M 13.557,26.234 c -0.455886,0.413966 -0.94018,0.642 -1.558508,0.642 -0.618329,0 -1.105225,-0.228034 -1.558492,-0.642 -0.377285,-0.345844 -0.736659,-1.299054 -0.844081,-1.789 h 4.799903 c -0.10218,0.495187 -0.461534,1.445776 -0.838822,1.789 z"
       id="path10-3-7"
       style="fill:currentColor;fill-opacity:1;stroke-width:0.0262004"
       sodipodi:nodetypes="csssccsccccscccc"
       class="ColorScheme-Text" />
    <path
       d="M 26.414834,23.714009 C 24.782552,22.487833 24.069419,20.617005 24.047,18.576121 L 24,14.297603 C 23.96063,10.713613 21.431528,7.682015 18.140764,6.749283 V 5.740569 C 18.140764,4.561553 17.181831,3.6 16.000195,3.6 c -1.179016,0 -2.140569,0.958933 -2.140569,2.140569 v 1.008714 c -3.290764,0.932732 -5.5781879,3.966408 -5.7064359,7.54832 l -0.15319,4.278518 c -0.07294,2.037082 -0.782162,3.909092 -2.414444,5.137888 -0.246283,0.183403 -0.345845,0.503047 -0.248903,0.796491 0.09694,0.290824 0.369424,0.487326 0.675969,0.487326 h 6.4898259 v 0 l 5.517794,-0.0026 v 0 0 l 7.959666,0.0026 c 0.306544,1.05e-4 0.579028,-0.196502 0.675969,-0.487326 0.104802,-0.290824 0.0026,-0.613088 -0.241043,-0.796491 z M 15.290165,5.740569 c 0,-0.393005 0.319645,-0.712649 0.71265,-0.712649 0.393005,0 0.71265,0.319644 0.71265,0.712649 v 0.74671 c -0.235804,-0.02096 -0.471607,-0.03406 -0.71265,-0.03406 -0.241043,0 -0.476846,0.01048 -0.71265,0.03406 z M 7.3920001,23.569907 c 0.389065,-0.418336 0.580616,-0.922252 0.84,-1.427919 0.568547,-1.110895 0.768,-2.308251 0.768,-3.565867 l 0.186,-4.278518 c 0,-3.539667 3.2797679,-6.818603 6.8194349,-6.818603 3.537047,0 6.819565,3.278936 6.819565,6.818603 L 23,18.576121 c 0,1.254996 0.113073,2.454972 0.679,3.563247 0.259384,0.508287 0.976435,1.420466 1.338,1.860632 H 6.9920001 Z"
       id="path4-6"
       sodipodi:nodetypes="csscssscssccscccccscccsscsccsccccccccss"
       style="fill:currentColor;fill-opacity:1;stroke-width:0.0262004"
       class="ColorScheme-Text " />
  </g>
  <g
     id="klarm-partdisabled"
     transform="translate(32)">
    <rect
       style="opacity:0.00100002"
       width="32"
       height="32"
       x="0"
       y="0"
       id="rect27" />
    <path
       d="m 19.393881,21.067 h -6.820762 c -0.565054,2e-6 -1.023121,-0.458065 -1.023119,-1.023119 v -6.820762 c -2e-6,-0.565054 0.458065,-1.023121 1.023119,-1.023119 h 6.820762 c 0.565054,-2e-6 1.023121,0.458065 1.023119,1.023119 v 6.820762 c 2e-6,0.565054 -0.458065,1.023121 -1.023119,1.023119 z m -6.820762,-8.18492 c -0.18835,10e-7 -0.341037,0.152689 -0.341037,0.341039 v 6.820762 c 0,0.18835 0.152687,0.341037 0.341037,0.341038 h 6.820762 c 0.18835,0 0.341038,-0.152688 0.341038,-0.341038 z"
       id="path8"
       style="fill:currentColor;fill-opacity:1;stroke-width:0.341042"
       sodipodi:nodetypes="ccccccccccscccsccc"
       class="ColorScheme-NegativeText" />
    <path
       d="M 15.286631,24.254143 C 15.139911,24.091701 14.927681,24 14.710221,24 H 9.292 c -0.21747,0 -0.42969,0.0917 -0.57641,0.254143 -0.14672,0.162442 -0.22009,0.379905 -0.19913,0.602608 0.0838,0.861992 0.48209,1.661103 1.124,2.247991 0.644531,0.592128 1.485561,0.919632 2.363271,0.919632 0.87771,0 1.71612,-0.324884 2.36327,-0.919632 0.64191,-0.586888 1.04015,-1.385999 1.12399,-2.247991 0.0131,-0.220083 -0.0576,-0.437546 -0.20436,-0.602608 z m -1.62966,2.080308 c -0.45588,0.413966 -1.04015,0.641909 -1.65848,0.641909 -0.61833,0 -1.20521,-0.227943 -1.65848,-0.641909 C 9.962721,25.988607 9.70334,24.734946 9.59592,24.245 h 4.799901 c -0.10218,0.495187 -0.36156,1.746227 -0.73885,2.089451 z"
       id="path10-3-6"
       style="fill:currentColor;fill-opacity:1;stroke-width:0.0262004"
       sodipodi:nodetypes="csssccsccccscccc"
       class="ColorScheme-Text" />
    <path
       d="M 26.414834,23.714009 C 24.782552,22.487833 24.069419,20.617005 24.047,18.576121 L 24,14.297603 C 23.96063,10.713613 21.431528,7.682015 18.140764,6.749283 V 5.740569 C 18.140764,4.561553 17.181831,3.6 16.000195,3.6 c -1.179016,0 -2.140569,0.958933 -2.140569,2.140569 v 1.008714 c -3.290764,0.932732 -5.5781878,3.966408 -5.7064358,7.54832 l -0.15319,4.278518 c -0.07294,2.037082 -0.782162,3.909092 -2.4144441,5.137888 -0.246283,0.183403 -0.345845,0.503047 -0.248903,0.796491 0.09694,0.290824 0.369424,0.487326 0.6759691,0.487326 h 6.4898258 v 0 l 5.517794,-0.0026 v 0 0 l 7.959666,0.0026 c 0.306544,1.05e-4 0.579028,-0.196502 0.675969,-0.487326 0.104802,-0.290824 0.0026,-0.613088 -0.241043,-0.796491 z M 15.290165,5.740569 c 0,-0.393005 0.319645,-0.712649 0.71265,-0.712649 0.393005,0 0.71265,0.319644 0.71265,0.712649 v 0.74671 c -0.235804,-0.02096 -0.471607,-0.03406 -0.71265,-0.03406 -0.241043,0 -0.476846,0.01048 -0.71265,0.03406 z M 7.3920002,23.569907 c 0.389065,-0.418336 0.580616,-0.922252 0.84,-1.427919 0.568547,-1.110895 0.768,-2.308251 0.768,-3.565867 l 0.186,-4.278518 c 0,-3.539667 3.2797678,-6.818603 6.8194348,-6.818603 3.537047,0 6.819565,3.278936 6.819565,6.818603 L 23,18.576121 c 0,1.254996 0.113073,2.454972 0.679,3.563247 0.259384,0.508287 0.976435,1.420466 1.338,1.860632 H 6.9920002 Z"
       id="path4-6-7"
       sodipodi:nodetypes="csscssscssccscccccscccsscsccsccccccccss"
       style="fill:currentColor;fill-opacity:1;stroke-width:0.0262004"
       class="ColorScheme-Text " />
  </g>
</svg>
