<?xml version="1.0" encoding="UTF-8" standalone="no"?>
<svg
   width="32"
   height="32"
   version="1.1"
   id="svg12"
   sodipodi:docname="keyboard.svg"
   inkscape:version="1.1.2 (0a00cf5339, 2022-02-04)"
   xmlns:inkscape="http://www.inkscape.org/namespaces/inkscape"
   xmlns:sodipodi="http://sodipodi.sourceforge.net/DTD/sodipodi-0.dtd"
   xmlns="http://www.w3.org/2000/svg"
   xmlns:svg="http://www.w3.org/2000/svg"
   xmlns:rdf="http://www.w3.org/1999/02/22-rdf-syntax-ns#"
   xmlns:cc="http://creativecommons.org/ns#"
   xmlns:dc="http://purl.org/dc/elements/1.1/">
  <style id="current-color-scheme" type="text/css">.ColorScheme-Text { color:#d6dbf1; }
</style>
  <g
     id="g1537"
     transform="translate(32,10)">
    <g
       id="22-22-keyboard-layout">
      <rect
         style="opacity:0.00100002"
         width="22"
         height="22"
         x="0"
         y="0"
         id="rect2" />
      <path
         d="M 11.5,13 C 11.776125,13 12,13.223875 12,13.5 12,13.776125 11.776125,14 11.5,14 11.223875,14 11,13.776125 11,13.5 11,13.223875 11.223875,13 11.5,13 Z m 1,-1 C 12.223875,12 12,11.776125 12,11.5 12,11.223875 12.223875,11 12.5,11 c 0.276125,0 0.5,0.223875 0.5,0.5 0,0.276125 -0.223875,0.5 -0.5,0.5 z m 1,2 C 13.223875,14 13,13.776125 13,13.5 13,13.223875 13.223875,13 13.5,13 c 0.276125,0 0.5,0.223875 0.5,0.5 0,0.276125 -0.223875,0.5 -0.5,0.5 z m 1,-3 C 14.776125,11 15,11.223875 15,11.5 15,11.776125 14.776125,12 14.5,12 14.223875,12 14,11.776125 14,11.5 14,11.223875 14.223875,11 14.5,11 Z m 0,5 C 14.223875,16 14,15.776125 14,15.5 14,15.223875 14.223875,15 14.5,15 c 0.276125,0 0.5,0.223875 0.5,0.5 0,0.276125 -0.223875,0.5 -0.5,0.5 z m 2,-4 C 16.223875,12 16,11.776125 16,11.5 16,11.223875 16.223875,11 16.5,11 16.776125,11 17,11.223875 17,11.5 17,11.776125 16.776125,12 16.5,12 Z M 17,15.5 C 17,15.776125 16.776125,16 16.5,16 16.223875,16 16,15.776125 16,15.5 16,15.223875 16.223875,15 16.5,15 c 0.276125,0 0.5,0.223875 0.5,0.5 z m -2,-2 C 15,13.223875 15.223875,13 15.5,13 h 1 c 0.276125,0 0.5,0.223875 0.5,0.5 0,0.276125 -0.223875,0.5 -0.5,0.5 h -1 C 15.223875,14 15,13.776125 15,13.5 Z M 8.5,11 C 8.776125,11 9,11.223875 9,11.5 9,11.776125 8.776125,12 8.5,12 8.223875,12 8,11.776125 8,11.5 8,11.223875 8.223875,11 8.5,11 Z M 7,15.5 C 7,15.776125 6.776125,16 6.5,16 6.223875,16 6,15.776125 6,15.5 6,15.223875 6.223875,15 6.5,15 6.776125,15 7,15.223875 7,15.5 Z M 5.5,12 C 5.223875,12 5,11.776125 5,11.5 5,11.223875 5.223875,11 5.5,11 h 1 C 6.776125,11 7,11.223875 7,11.5 7,11.776125 6.776125,12 6.5,12 Z M 8,13.5 C 8,13.776125 7.776125,14 7.5,14 h -2 C 5.223875,14 5,13.776125 5,13.5 5,13.223875 5.223875,13 5.5,13 h 2 C 7.776125,13 8,13.223875 8,13.5 Z m 5,2 c 0,0.276125 -0.223875,0.5 -0.5,0.5 h -4 C 8.223875,16 8,15.776125 8,15.5 8,15.223875 8.223875,15 8.5,15 h 4 c 0.276125,0 0.5,0.223875 0.5,0.5 z M 9.5,14 C 9.223875,14 9,13.776125 9,13.5 9,13.223875 9.223875,13 9.5,13 9.776125,13 10,13.223875 10,13.5 10,13.776125 9.776125,14 9.5,14 Z m 1,-3 C 10.776125,11 11,11.223875 11,11.5 11,11.776125 10.776125,12 10.5,12 10.223875,12 10,11.776125 10,11.5 10,11.223875 10.223875,11 10.5,11 Z M 17,18 H 5 C 3.8955,18 3,17.1045 3,16 V 11 C 3,9.8955 3.8955,9 5,9 H 9.625 C 9.832031,9 10,8.8320313 10,8.625 V 8 c 0,-0.2395 0.04419,-0.4681253 0.121594,-0.680906 0.0019,-0.00633 0.0034,-0.01294 0.0066,-0.01844 0.202407,-0.5411247 0.631344,-0.970093 1.172594,-1.1725 0.0054,-0.0033 0.01197,-0.0046 0.01831,-0.0067 C 11.531969,6.044313 11.7605,6 12,6 h 1 c 0.55225,0 1,-0.44775 1,-1 V 4.5 C 14,4.223875 14.223875,4 14.5,4 14.776125,4 15,4.223875 15,4.5 V 5 c 0,0.2395 -0.04419,0.468125 -0.121594,0.680906 -0.0019,0.0063 -0.0034,0.01294 -0.0066,0.01844 -0.202407,0.541125 -0.631344,0.9700933 -1.172594,1.1725 -0.0054,0.00327 -0.01197,0.0046 -0.01831,0.00672 C 13.468031,6.9556873 13.2395,7 13,7 H 12 C 11.44775,7 11,7.44775 11,8 V 8.75 C 11,9.4404373 10.440437,10 9.75,10 H 5 c -0.55225,0 -1,0.44775 -1,1 v 5 c 0,0.55225 0.44775,1 1,1 h 12 c 0.55225,0 1,-0.44775 1,-1 v -5 c 0,-0.55225 -0.44775,-1 -1,-1 H 12.5 C 12.223875,10 12,9.7761247 12,9.5 12,9.2238753 12.223875,9 12.5,9 H 17 c 1.1045,0 2,0.8955 2,2 v 5 c 0,1.1045 -0.8955,2 -2,2 z"
         id="path2-36-3"
         style="stroke-width:0.03125;fill-opacity:1;fill:currentColor;"
         class="ColorScheme-Text" />
    </g>
  </g>
  <metadata
     id="metadata18">
    <rdf:RDF>
      <cc:Work
         rdf:about="">
        <dc:format>image/svg+xml</dc:format>
        <dc:type
           rdf:resource="http://purl.org/dc/dcmitype/StillImage" />
      </cc:Work>
    </rdf:RDF>
  </metadata>
  <defs
     id="defs16" />
  <sodipodi:namedview
     pagecolor="#ffffff"
     bordercolor="#000000"
     borderopacity="1"
     objecttolerance="10"
     gridtolerance="10"
     guidetolerance="10"
     inkscape:pageopacity="0"
     inkscape:pageshadow="2"
     inkscape:window-width="1920"
     inkscape:window-height="973"
     id="namedview14"
     showgrid="false"
     inkscape:zoom="9.8125"
     inkscape:cx="29.248408"
     inkscape:cy="22.980892"
     inkscape:window-x="0"
     inkscape:window-y="42"
     inkscape:window-maximized="1"
     inkscape:current-layer="svg12"
     inkscape:document-rotation="0"
     inkscape:lockguides="true"
     inkscape:showpageshadow="false"
     showguides="false"
     inkscape:pagecheckerboard="0">
    <inkscape:grid
       type="xygrid"
       id="grid950"
       originx="0"
       originy="0" />
  </sodipodi:namedview>
  <g
     id="keyboard-layout">
    <rect
       style="opacity:0.00100002"
       width="32"
       height="32"
       x="0"
       y="0"
       id="rect7" />
    <path
       fill-rule="evenodd"
       clip-rule="evenodd"
       d="m 16.75,19 c 0.414188,0 0.75,0.335813 0.75,0.75 0,0.414187 -0.335812,0.75 -0.75,0.75 C 16.335812,20.5 16,20.164187 16,19.75 16,19.335813 16.335812,19 16.75,19 Z m 1.5,-1.5 c -0.414188,0 -0.75,-0.335813 -0.75,-0.75 0,-0.414187 0.335812,-0.75 0.75,-0.75 0.414188,0 0.75,0.335813 0.75,0.75 0,0.414187 -0.335812,0.75 -0.75,0.75 z m 1.5,3 C 19.335812,20.5 19,20.164187 19,19.75 19,19.335813 19.335812,19 19.75,19 c 0.414187,0 0.75,0.335813 0.75,0.75 0,0.414187 -0.335813,0.75 -0.75,0.75 z m 1.5,-4.5 c 0.414187,0 0.75,0.335813 0.75,0.75 0,0.414187 -0.335813,0.75 -0.75,0.75 -0.414188,0 -0.75,-0.335813 -0.75,-0.75 0,-0.414187 0.335812,-0.75 0.75,-0.75 z m 0,7.5 c -0.414188,0 -0.75,-0.335813 -0.75,-0.75 0,-0.414187 0.335812,-0.75 0.75,-0.75 0.414187,0 0.75,0.335813 0.75,0.75 0,0.414187 -0.335813,0.75 -0.75,0.75 z m 3,-6 c -0.414188,0 -0.75,-0.335813 -0.75,-0.75 0,-0.414187 0.335812,-0.75 0.75,-0.75 0.414187,0 0.75,0.335813 0.75,0.75 0,0.414187 -0.335813,0.75 -0.75,0.75 z M 25,22.75 c 0,0.414187 -0.335813,0.75 -0.75,0.75 -0.414188,0 -0.75,-0.335813 -0.75,-0.75 0,-0.414187 0.335812,-0.75 0.75,-0.75 0.414187,0 0.75,0.335813 0.75,0.75 z m -3,-3 C 22,19.335813 22.335812,19 22.75,19 h 1.5 c 0.414187,0 0.75,0.335813 0.75,0.75 0,0.414187 -0.335813,0.75 -0.75,0.75 h -1.5 C 22.335812,20.5 22,20.164187 22,19.75 Z M 12.25,16 c 0.414188,0 0.75,0.335813 0.75,0.75 0,0.414187 -0.335812,0.75 -0.75,0.75 -0.414188,0 -0.75,-0.335813 -0.75,-0.75 0,-0.414187 0.335812,-0.75 0.75,-0.75 z M 10,22.75 C 10,23.164187 9.664188,23.5 9.25,23.5 8.835812,23.5 8.5,23.164187 8.5,22.75 8.5,22.335813 8.835812,22 9.25,22 9.664188,22 10,22.335813 10,22.75 Z M 7.75,17.5 C 7.335813,17.5 7,17.164187 7,16.75 7,16.335813 7.335813,16 7.75,16 h 1.5 C 9.664188,16 10,16.335813 10,16.75 10,17.164187 9.664188,17.5 9.25,17.5 Z m 3.75,2.25 c 0,0.414187 -0.335812,0.75 -0.75,0.75 h -3 C 7.335813,20.5 7,20.164187 7,19.75 7,19.335813 7.335813,19 7.75,19 h 3 c 0.414188,0 0.75,0.335813 0.75,0.75 z m 7.5,3 c 0,0.414187 -0.335812,0.75 -0.75,0.75 h -6 c -0.414188,0 -0.75,-0.335813 -0.75,-0.75 0,-0.414187 0.335812,-0.75 0.75,-0.75 h 6 C 18.664188,22 19,22.335813 19,22.75 Z M 13.75,20.5 C 13.335812,20.5 13,20.164187 13,19.75 13,19.335813 13.335812,19 13.75,19 c 0.414188,0 0.75,0.335813 0.75,0.75 0,0.414187 -0.335812,0.75 -0.75,0.75 z m 1.5,-4.5 c 0.414188,0 0.75,0.335813 0.75,0.75 0,0.414187 -0.335812,0.75 -0.75,0.75 -0.414188,0 -0.75,-0.335813 -0.75,-0.75 0,-0.414187 0.335812,-0.75 0.75,-0.75 z M 25,26.5 H 7 c -1.65675,0 -3,-1.34325 -3,-3 V 16 c 0,-1.65675 1.34325,-3 3,-3 h 6.9375 C 14.248047,13 14.5,12.748047 14.5,12.4375 V 11.5 c 0,-0.35925 0.06628,-0.702188 0.182391,-1.021359 0.0029,-0.0095 0.0051,-0.01941 0.0099,-0.02766 0.30361,-0.811687 0.947016,-1.45514 1.758891,-1.75875 0.0081,-0.0049 0.01795,-0.0069 0.02747,-0.01008 C 16.797953,8.566469 17.14075,8.5 17.5,8.5 H 19 c 0.828375,0 1.5,-0.671625 1.5,-1.5 V 6.25 C 20.5,5.835813 20.835812,5.5 21.25,5.5 21.664187,5.5 22,5.835813 22,6.25 V 7 c 0,0.35925 -0.06628,0.702187 -0.182391,1.021359 -0.0029,0.0095 -0.0051,0.01941 -0.0099,0.02766 -0.30361,0.811687 -0.947016,1.45514 -1.758891,1.75875 -0.0081,0.0049 -0.01795,0.0069 -0.02747,0.01008 C 19.702047,9.933531 19.35925,10 19,10 H 17.5 C 16.671625,10 16,10.671625 16,11.5 v 1.125 C 16,13.660656 15.160656,14.5 14.125,14.5 H 7 c -0.828375,0 -1.5,0.671625 -1.5,1.5 v 7.5 C 5.5,24.328375 6.171625,25 7,25 h 18 c 0.828375,0 1.5,-0.671625 1.5,-1.5 V 16 c 0,-0.828375 -0.671625,-1.5 -1.5,-1.5 H 18.25 C 17.835812,14.5 17.5,14.164187 17.5,13.75 17.5,13.335813 17.835812,13 18.25,13 H 25 c 1.65675,0 3,1.34325 3,3 v 7.5 c 0,1.65675 -1.34325,3 -3,3 z"
       id="path2-36"
       style="stroke-width:0.046875;fill-opacity:1;fill:currentColor;"
       class="ColorScheme-Text" />
  </g>
</svg>
