<?xml version="1.0" encoding="UTF-8" standalone="no"?>
<svg
   width="32"
   height="32"
   version="1.1"
   id="svg12"
   sodipodi:docname="kgpg.svg"
   inkscape:version="1.2.1 (9c6d41e410, 2022-07-14)"
   xmlns:inkscape="http://www.inkscape.org/namespaces/inkscape"
   xmlns:sodipodi="http://sodipodi.sourceforge.net/DTD/sodipodi-0.dtd"
   xmlns="http://www.w3.org/2000/svg"
   xmlns:svg="http://www.w3.org/2000/svg"
   xmlns:rdf="http://www.w3.org/1999/02/22-rdf-syntax-ns#"
   xmlns:cc="http://creativecommons.org/ns#"
   xmlns:dc="http://purl.org/dc/elements/1.1/">
  <metadata
     id="metadata18">
    <rdf:RDF>
      <cc:Work
         rdf:about="">
        <dc:format>image/svg+xml</dc:format>
        <dc:type
           rdf:resource="http://purl.org/dc/dcmitype/StillImage" />
      </cc:Work>
    </rdf:RDF>
  </metadata>
  <defs
     id="defs16">
    <linearGradient
       id="oomox"
       x1="2.8236918"
       x2="2.8236918"
       y1="0"
       y2="13.423561"
       gradientTransform="matrix(1.2584592,0,0,1.7879013,3.9965,3.9999533)"
       gradientUnits="userSpaceOnUse">
      <stop
         offset="0%"
         style="stop-color:#303b3d; stop-opacity:1"
         id="stop18" />
      <stop
         offset="100%"
         style="stop-color:#bc985d; stop-opacity:1"
         id="stop20" />
    </linearGradient>
  </defs>
  <g
     id="22-22-kgpg"
     transform="translate(32,10.000001)">
    <rect
       style="opacity:0.00100002;fill:#a8aeca;fill-opacity:1"
       width="22"
       height="22"
       x="0"
       y="0"
       id="rect2" />
    <path
       d="M 15.01495,19 H 6.9850509 C 5.8920876,19 5,18.119053 5,17.039607 V 11.053074 C 5,9.973627 5.8919708,9.092681 6.9850509,9.092681 H 15.01495 C 16.108021,9.092681 17,9.973627 17,11.053074 v 5.986533 C 17,18.119053 16.108021,19 15.01495,19 Z M 6.9850509,17.703844 H 15.01495 c 0.368548,0 0.672546,-0.300243 0.672546,-0.664237 l 1.16e-4,-5.986533 c 0,-0.36388 -0.30388,-0.664237 -0.672554,-0.664237 H 6.9851677 c -0.3685483,0 -0.6725559,0.300243 -0.6725559,0.664237 v 5.986533 c 0,0.363994 0.3038909,0.664237 0.6724391,0.664237 z M 15.015058,10.388837 H 6.9851677 v 0 z M 6.9369359,9.1 V 4.924066 C 6.9369359,3.864629 7.8122755,3 8.8850955,3 H 13.11468 c 1.072811,0 1.948268,0.864629 1.948268,1.924066 V 9.1 H 13.77468 l 0.03787,-4.420011 c 0.0031,-0.357255 -0.414014,-0.42569 -0.775776,-0.42475 L 8.6911722,4.266529 C 8.3295182,4.267463 8.2252015,4.566887 8.2252015,4.92407 L 8.1999975,9.1 Z"
       fill-rule="evenodd"
       id="path73-3"
       sodipodi:nodetypes="sssssssssssccsssssccccscccccssssccs"
       style="fill:#d6dbf1;fill-opacity:1;stroke-width:0.0288059" />
    <path
       d="m 11.023811,11.833334 c -0.840169,0 -1.5238108,0.675189 -1.5238108,1.505208 0,0.464488 0.2154947,0.89678 0.5824848,1.181344 v 1.288353 c 0,0.133996 0.109786,0.242424 0.245459,0.242424 h 1.391495 c 0.135674,0 0.245458,-0.108428 0.245458,-0.242424 v -1.288115 c 0.367232,-0.284802 0.582726,-0.71733 0.582726,-1.181582 0,-0.830019 -0.683642,-1.505208 -1.523812,-1.505208 z m 0.561632,2.359374 c -0.06951,0.04475 -0.111464,0.121213 -0.111464,0.203126 v 1.169981 h -0.900576 v -1.170218 c 0,-0.08191 -0.04195,-0.158381 -0.111462,-0.203125 -0.295079,-0.189631 -0.471023,-0.50876 -0.471023,-0.85393 0,-0.562737 0.463351,-1.02036 1.032893,-1.02036 0.569542,0 1.032896,0.457623 1.032896,1.02036 0,0.344934 -0.176186,0.664299 -0.471264,0.854166 z"
       id="path4-3-5"
       style="fill:#d6dbf1;fill-opacity:1;stroke-width:0.243937" />
  </g>
  <sodipodi:namedview
     pagecolor="#ffffff"
     bordercolor="#000000"
     borderopacity="1"
     objecttolerance="10"
     gridtolerance="10"
     guidetolerance="10"
     inkscape:pageopacity="0"
     inkscape:pageshadow="2"
     inkscape:window-width="1920"
     inkscape:window-height="1002"
     id="namedview14"
     showgrid="false"
     inkscape:zoom="9.8125003"
     inkscape:cx="22.675159"
     inkscape:cy="21.452229"
     inkscape:window-x="0"
     inkscape:window-y="0"
     inkscape:window-maximized="1"
     inkscape:current-layer="svg12"
     inkscape:document-rotation="0"
     inkscape:lockguides="false"
     inkscape:showpageshadow="false"
     inkscape:pagecheckerboard="0"
     inkscape:deskcolor="#d1d1d1">
    <inkscape:grid
       type="xygrid"
       id="grid871"
       originx="-1e-06"
       originy="0" />
  </sodipodi:namedview>
  <g
     id="kgpg">
    <rect
       style="opacity:0.00100002;fill:#a8aeca;fill-opacity:1"
       width="32"
       height="32"
       x="0"
       y="0"
       id="rect7" />
    <path
       d="M 22.022424,27.999999 H 9.9775763 C 8.3381314,27.999999 7,26.678579 7,25.059409 v -8.979798 c 0,-1.619171 1.3379562,-2.94059 2.9775763,-2.94059 H 22.022424 C 23.662031,13.139021 25,14.46044 25,16.079611 v 8.979798 c 0,1.61917 -1.337969,2.94059 -2.977576,2.94059 z M 9.9775763,26.055765 H 22.022424 c 0.552822,0 1.008819,-0.450364 1.008819,-0.996356 l 1.75e-4,-8.979798 c 0,-0.545821 -0.455821,-0.996356 -1.008832,-0.996356 H 9.9777514 c -0.5528224,0 -1.0088338,0.450364 -1.0088338,0.996356 v 8.979798 c 0,0.545992 0.4558363,0.996356 1.0086587,0.996356 z M 22.022586,15.083255 H 9.9777514 v 0 z M 9.9054038,13.15 V 6.8860992 C 9.9054038,5.2969433 11.218413,4 12.827643,4 h 6.344376 c 1.609217,0 2.922402,1.2969433 2.922402,2.8860992 V 13.15 H 20.16202 L 20.21883,6.5199839 C 20.22343,5.9841012 19.597808,5.8814484 19.055166,5.8828578 l -6.518403,0.01693 c -0.542481,0.00141 -0.698956,0.4505377 -0.698956,0.986311 L 11.8,13.15 Z"
       fill-rule="evenodd"
       id="path73"
       sodipodi:nodetypes="sssssssssssccsssssccccscccccssssccs"
       style="fill:#d6dbf1;fill-opacity:1;stroke-width:0.0432089" />
    <path
       d="m 16.035717,17.25 c -1.260254,0 -2.285717,1.012784 -2.285717,2.257812 0,0.696733 0.323242,1.345171 0.873728,1.772017 v 1.932529 c 0,0.200994 0.164679,0.363636 0.368188,0.363636 h 2.087243 c 0.203511,0 0.368187,-0.162642 0.368187,-0.363636 v -1.932173 c 0.550847,-0.427202 0.874089,-1.075995 0.874089,-1.772373 0,-1.245028 -1.025463,-2.257812 -2.285718,-2.257812 z m 0.842447,3.539062 c -0.104272,0.06712 -0.167196,0.181819 -0.167196,0.304688 v 1.754971 h -1.350863 v -1.755326 c 0,-0.12287 -0.06292,-0.237571 -0.167194,-0.304688 -0.442618,-0.284446 -0.706534,-0.763139 -0.706534,-1.280895 0,-0.844105 0.695027,-1.530539 1.54934,-1.530539 0.854313,0 1.549343,0.686434 1.549343,1.530539 0,0.517401 -0.264278,0.996449 -0.706896,1.28125 z"
       id="path4-3"
       style="fill:#d6dbf1;fill-opacity:1;stroke-width:0.365905" />
  </g>
</svg>
