<?xml version="1.0" encoding="UTF-8" standalone="no"?>
<svg
   width="32"
   height="32"
   version="1"
   id="svg12"
   sodipodi:docname="klipper.svg"
   inkscape:version="1.1.2 (0a00cf5339, 2022-02-04)"
   xmlns:inkscape="http://www.inkscape.org/namespaces/inkscape"
   xmlns:sodipodi="http://sodipodi.sourceforge.net/DTD/sodipodi-0.dtd"
   xmlns="http://www.w3.org/2000/svg"
   xmlns:svg="http://www.w3.org/2000/svg"
   xmlns:rdf="http://www.w3.org/1999/02/22-rdf-syntax-ns#"
   xmlns:cc="http://creativecommons.org/ns#"
   xmlns:dc="http://purl.org/dc/elements/1.1/">
  <style id="current-color-scheme" type="text/css">.ColorScheme-Text { color:#d6dbf1; }
</style>
  <g
     id="klipper">
    <rect
       style="opacity:0.00100002"
       width="32"
       height="32"
       x="0"
       y="0"
       id="rect7" />
    <path
       fill-rule="evenodd"
       clip-rule="evenodd"
       d="m 13.75075,14.499816 h 7.500375 c 0.414562,0 0.750375,0.335437 0.750375,0.75 0,0.414562 -0.335813,0.750187 -0.750375,0.750187 H 13.75075 c -0.413813,0 -0.750188,-0.335625 -0.750188,-0.750187 0,-0.414563 0.336375,-0.75 0.750188,-0.75 z m 0,5.999812 h 7.500375 c 0.414562,0 0.750375,0.336562 0.750375,0.750375 0,0.414562 -0.335813,0.75 -0.750375,0.75 H 13.75075 c -0.413813,0 -0.750188,-0.335438 -0.750188,-0.75 0,-0.413813 0.336375,-0.750375 0.750188,-0.750375 z m 0,-2.999625 h 7.500375 c 0.414562,0 0.750375,0.335438 0.750375,0.75 0,0.413812 -0.335813,0.74925 -0.750375,0.74925 H 13.75075 c -0.413813,0 -0.750188,-0.335438 -0.750188,-0.74925 0,-0.414562 0.336375,-0.75 0.750188,-0.75 z m -2.999625,-3.000187 c 0.413625,0 0.75,0.335437 0.75,0.75 0,0.414562 -0.336375,0.750187 -0.75,0.750187 -0.41475,0 -0.750188,-0.335625 -0.750188,-0.750187 0,-0.414563 0.335438,-0.75 0.750188,-0.75 z m 0,5.999812 c 0.413625,0 0.75,0.336562 0.75,0.750375 0,0.414562 -0.336375,0.75 -0.75,0.75 -0.41475,0 -0.750188,-0.335438 -0.750188,-0.75 0,-0.413813 0.335438,-0.750375 0.750188,-0.750375 z m 0,-2.999625 c 0.413625,0 0.75,0.335438 0.75,0.75 0,0.413812 -0.336375,0.74925 -0.75,0.74925 -0.41475,0 -0.750188,-0.335438 -0.750188,-0.74925 0,-0.414562 0.335438,-0.75 0.750188,-0.75 z m 12.750703,10.5 H 8.50075 c -1.65675,0 -3.00075,-1.34325 -3.00075,-3 V 10.00019 C 5.5,8.342737 6.844,6.999628 8.50075,6.999628 h 1.253719 c 0.1582031,0 0.293531,-0.09741 0.348281,-0.235312 7.5e-4,-0.0035 0.0049,-0.0093 0.01078,-0.01777 0.259828,-0.725625 0.947766,-1.247109 1.762735,-1.247109 h 1.529671 C 13.925594,4.604078 14.892062,4 16.001125,4 c 1.10925,0 2.075297,0.604078 2.595328,1.499438 h 1.154672 c 0.414562,0 0.75,0.336562 0.75,0.750187 0,0.414563 -0.335438,0.75 -0.75,0.75 h -1.159781 c -0.544172,0 -1.018453,-0.289125 -1.283203,-0.723094 -0.256735,-0.460875 -0.742688,-0.777093 -1.307016,-0.777093 -0.5625,0 -1.04775,0.314578 -1.30425,0.773812 -7.5e-4,7.5e-4 -0.0016,7.5e-4 -0.0016,0.0016 -0.262593,0.434672 -0.739359,0.724734 -1.28414,0.724734 h -1.160532 c -0.324656,0 -0.598734,0.208547 -0.703312,0.49786 -7.5e-4,0.0016 -0.0033,0.0035 -0.004,0.0051 -0.206157,0.581015 -0.761157,0.997172 -1.413563,0.997172 h -0.128719 -0.375 -1.125187 c -0.828563,0 -1.500375,0.672 -1.500375,1.500375 v 14.999912 c 0,0.828375 0.671812,1.499625 1.500375,1.499625 H 23.5019 c 0.828,0 1.500375,-0.67125 1.500375,-1.499625 V 10.00019 c 0,-0.828375 -0.672375,-1.500375 -1.500375,-1.500375 h -1.125375 c -0.206906,0 -0.375,0.168282 -0.375,0.375188 v 0.75 c 0,1.035281 -0.839344,1.875188 -1.875375,1.875188 h -8.249766 c -0.518203,0 -0.986578,-0.210188 -1.326234,-0.549844 l 0.0033,-0.0033 c -0.149669,-0.149767 -0.242153,-0.355783 -0.242153,-0.583736 0,-0.4564686 0.36989,-0.8265467 0.826547,-0.8265467 0.230343,0 0.438375,0.095016 0.587953,0.2471718 0.134578,0.1329375 0.320437,0.2162339 0.524765,0.2162339 h 7.500563 c 0.414562,0 0.75,-0.336562 0.75,-0.750187 V 8.499795 c 0,-0.828187 0.672,-1.500187 1.500375,-1.500187 h 1.500375 c 1.65675,0 2.999625,1.343063 2.999625,3.000562 v 14.999833 c 0,1.65675 -1.342922,3 -2.999672,3 z"
       id="path2"
       style="stroke-width:0.046875;fill-opacity:1;fill:currentColor;"
       class="ColorScheme-Text" />
  </g>
  <metadata
     id="metadata18">
    <rdf:RDF>
      <cc:Work
         rdf:about="">
        <dc:format>image/svg+xml</dc:format>
        <dc:type
           rdf:resource="http://purl.org/dc/dcmitype/StillImage" />
      </cc:Work>
    </rdf:RDF>
  </metadata>
  <defs
     id="defs16" />
  <sodipodi:namedview
     pagecolor="#ffffff"
     bordercolor="#000000"
     borderopacity="1"
     objecttolerance="10"
     gridtolerance="10"
     guidetolerance="10"
     inkscape:pageopacity="0"
     inkscape:pageshadow="2"
     inkscape:window-width="1920"
     inkscape:window-height="973"
     id="namedview14"
     showgrid="false"
     inkscape:zoom="10.483688"
     inkscape:cx="31.191314"
     inkscape:cy="21.128061"
     inkscape:window-x="0"
     inkscape:window-y="42"
     inkscape:window-maximized="1"
     inkscape:current-layer="svg12"
     inkscape:document-rotation="0"
     inkscape:lockguides="true"
     showguides="true"
     inkscape:showpageshadow="false"
     inkscape:pagecheckerboard="0">
    <inkscape:grid
       type="xygrid"
       id="grid855"
       originx="0"
       originy="0" />
  </sodipodi:namedview>
  <g
     id="22-22-klipper"
     transform="translate(32,10)">
    <rect
       style="opacity:0.00100002"
       width="22"
       height="22"
       x="0"
       y="0"
       id="rect2" />
    <path
       fill-rule="evenodd"
       clip-rule="evenodd"
       d="m 9.5004993,9.999876 h 5.0002497 c 0.276374,0 0.50025,0.223625 0.50025,0.5 0,0.276375 -0.223876,0.500125 -0.50025,0.500125 H 9.5004993 c -0.2758753,0 -0.5001253,-0.22375 -0.5001253,-0.500125 0,-0.276375 0.22425,-0.5 0.5001253,-0.5 z m 0,3.999875 h 5.0002497 c 0.276374,0 0.50025,0.224374 0.50025,0.50025 C 15.000999,14.776375 14.777123,15 14.500749,15 H 9.5004993 C 9.224624,15 9.000374,14.776375 9.000374,14.500001 c 0,-0.275876 0.22425,-0.50025 0.5001253,-0.50025 z m 0,-1.99975 h 5.0002497 c 0.276374,0 0.50025,0.223625 0.50025,0.5 0,0.275874 -0.223876,0.4995 -0.50025,0.4995 H 9.5004993 c -0.2758753,0 -0.5001253,-0.223626 -0.5001253,-0.4995 0,-0.276375 0.22425,-0.5 0.5001253,-0.5 z M 7.5007496,9.999876 c 0.2757499,0 0.4999999,0.223625 0.4999999,0.5 0,0.276375 -0.22425,0.500125 -0.4999999,0.500125 -0.2765,0 -0.5001253,-0.22375 -0.5001253,-0.500125 0,-0.276375 0.2236253,-0.5 0.5001253,-0.5 z m 0,3.999875 c 0.2757499,0 0.4999999,0.224374 0.4999999,0.50025 0,0.276374 -0.22425,0.499999 -0.4999999,0.499999 -0.2765,0 -0.5001253,-0.223625 -0.5001253,-0.499999 0,-0.275876 0.2236253,-0.50025 0.5001253,-0.50025 z m 0,-1.99975 c 0.2757499,0 0.4999999,0.223625 0.4999999,0.5 0,0.275874 -0.22425,0.4995 -0.4999999,0.4995 -0.2765,0 -0.5001253,-0.223626 -0.5001253,-0.4995 0,-0.276375 0.2236253,-0.5 0.5001253,-0.5 z M 16.001217,19 H 6.0004997 C 4.8959999,19 4,18.1045 4,17 V 7.000126 C 4,5.895158 4.8959999,4.999752 6.0004997,4.999752 h 0.8358126 c 0.1054687,0 0.1956873,-0.06494 0.2321873,-0.156875 5e-4,-0.0023 0.00327,-0.0062 0.00719,-0.01185 C 7.2489082,4.347277 7.7075335,3.999622 8.2508461,3.999622 H 9.2706233 C 9.617062,3.402719 10.261374,3 11.000749,3 c 0.7395,0 1.383531,0.402719 1.730219,0.999625 h 0.769781 c 0.276374,0 0.5,0.224375 0.5,0.500125 0,0.276375 -0.223626,0.5 -0.5,0.5 h -0.773187 c -0.362782,0 -0.678969,-0.19275 -0.855469,-0.482063 -0.171157,-0.30725 -0.495125,-0.518062 -0.871344,-0.518062 -0.375,0 -0.6985,0.209719 -0.8695,0.515875 -5e-4,5e-4 -0.0011,5e-4 -0.0011,0.0011 C 9.955117,4.806382 9.6372732,4.999756 9.2740859,4.999756 H 8.5004014 c -0.2164373,0 -0.3991559,0.139032 -0.4688746,0.331907 -5e-4,0.0011 -0.0022,0.0023 -0.00267,0.0034 -0.137438,0.387343 -0.507438,0.664781 -0.9423753,0.664781 h -0.085813 -0.25 -0.7501246 c -0.5523752,0 -1.0002498,0.448 -1.0002498,1.00025 V 17 c 0,0.55225 0.4478746,0.99975 1.0002498,0.99975 H 16.001265 c 0.552,0 1.00025,-0.4475 1.00025,-0.99975 V 7.000126 c 0,-0.55225 -0.44825,-1.00025 -1.00025,-1.00025 h -0.75025 c -0.137937,0 -0.25,0.112188 -0.25,0.250126 v 0.5 c 0,0.690187 -0.559562,1.250125 -1.25025,1.250125 H 8.2509221 c -0.3454686,0 -0.6577185,-0.140126 -0.8841559,-0.366563 l 0.0022,-0.0022 C 7.2691872,7.531514 7.2075309,7.394175 7.2075309,7.242207 c 0,-0.304313 0.2465933,-0.551031 0.5510313,-0.551031 0.153562,0 0.29225,0.06335 0.3919686,0.164781 0.089719,0.08863 0.2136247,0.144156 0.3498433,0.144156 h 5.0003749 c 0.276374,0 0.5,-0.224375 0.5,-0.500125 V 5.999863 c 0,-0.552125 0.448,-1.000125 1.00025,-1.000125 h 1.000249 c 1.1045,0 1.99975,0.895376 1.99975,2.000375 V 17 c 0,1.1045 -0.895281,2 -1.999781,2 z"
       id="path2-3"
       style="stroke-width:0.03125;fill-opacity:1;fill:currentColor;"
       class="ColorScheme-Text" />
  </g>
</svg>
