<?xml version="1.0" encoding="UTF-8" standalone="no"?>
<svg
   width="32"
   height="32"
   version="1.1"
   id="svg12"
   sodipodi:docname="kmail.svg"
   inkscape:version="1.1.2 (0a00cf5339, 2022-02-04)"
   xmlns:inkscape="http://www.inkscape.org/namespaces/inkscape"
   xmlns:sodipodi="http://sodipodi.sourceforge.net/DTD/sodipodi-0.dtd"
   xmlns="http://www.w3.org/2000/svg"
   xmlns:svg="http://www.w3.org/2000/svg"
   xmlns:rdf="http://www.w3.org/1999/02/22-rdf-syntax-ns#"
   xmlns:cc="http://creativecommons.org/ns#"
   xmlns:dc="http://purl.org/dc/elements/1.1/">
  <style id="current-color-scheme" type="text/css">.ColorScheme-Text { color:#d6dbf1; }
</style>
  <metadata
     id="metadata18">
    <rdf:RDF>
      <cc:Work
         rdf:about="">
        <dc:format>image/svg+xml</dc:format>
        <dc:type
           rdf:resource="http://purl.org/dc/dcmitype/StillImage" />
      </cc:Work>
    </rdf:RDF>
  </metadata>
  <defs
     id="defs16" />
  <sodipodi:namedview
     pagecolor="#ffffff"
     bordercolor="#000000"
     borderopacity="1"
     objecttolerance="10"
     gridtolerance="10"
     guidetolerance="10"
     inkscape:pageopacity="0"
     inkscape:pageshadow="2"
     inkscape:window-width="1920"
     inkscape:window-height="973"
     id="namedview14"
     showgrid="false"
     inkscape:zoom="9.8125003"
     inkscape:cx="35.566878"
     inkscape:cy="10.140127"
     inkscape:window-x="0"
     inkscape:window-y="42"
     inkscape:window-maximized="1"
     inkscape:current-layer="svg12"
     inkscape:document-rotation="0"
     showguides="false"
     inkscape:lockguides="true"
     inkscape:showpageshadow="false"
     inkscape:pagecheckerboard="0">
    <inkscape:grid
       type="xygrid"
       id="grid859"
       originx="-32"
       originy="-10" />
  </sodipodi:namedview>
  <g
     id="kmail">
    <rect
       style="opacity:0.00100002"
       width="32"
       height="32"
       x="0"
       y="0"
       id="rect7" />
    <path
       d="m 7.8411336,22.060092 c -0.2926412,-0.300143 -0.2926412,-0.787286 0,-1.0874 l 2.1214274,-2.17575 c 0.292782,-0.301194 0.76758,-0.301194 1.060362,0 0.292782,0.300106 0.292782,0.787249 0,1.087366 l -2.1214276,2.175784 c -0.2928306,0.300394 -0.7675801,0.300394 -1.0603618,0 z m 15.2572274,0 -2.121419,-2.175784 c -0.292557,-0.300117 -0.292557,-0.78726 0,-1.087366 0.292985,-0.301194 0.767531,-0.301194 1.060549,0 l 2.121461,2.17575 c 0.292507,0.300114 0.292507,0.787257 0,1.0874 -0.293004,0.300394 -0.767664,0.300394 -1.060591,0 z m 4.038517,-11.576353 -9.015562,8.477369 c -1.171541,1.20154 -3.071053,1.20154 -4.242709,0 L 8.5888857,13.535719 8.2507293,13.189108 6.8062704,11.707412 l -0.00545,0.0021 C 6.6639648,11.533875 6.4689167,11.384418 6.2502913,11.384418 c -0.4145162,0 -0.750187,0.34446 -0.750187,0.76922 v 2.167094 0.910413 7.691325 c 0,0.850301 0.6714386,1.538639 1.5001908,1.538639 H 24.999669 c 0.828747,0 1.499929,-0.688338 1.499929,-1.538639 v -9.23008 c 0,-0.425177 0.335838,-0.769213 0.750398,-0.769213 0.414245,0 0.750004,0.344106 0.750004,0.769213 v 9.23008 C 28,24.621947 26.656382,26 24.999669,26 H 7.0003361 C 5.3434395,25.999942 4,24.621908 4,22.922436 V 12.15366 c 0,-1.274018 1.0078162,-2.3069268 2.2503315,-2.3069268 0.5790036,0 1.1015653,0.2715808 1.5001462,0.6656108 v -0.01318 L 14.93968,17.8727 c 0.58542,0.601378 1.535134,0.601378 2.120696,0 l 9.01517,-8.4773556 c 0.293788,-0.3000863 0.434675,-0.6941173 0.432888,-1.0873272 h -0.01005 C 26.498634,7.4580929 25.827476,7.5388129 24.998727,7.5388129 H 9.2499184 C 8.836293,7.5388093 8.4997739,7.194393 8.4997739,6.769211 8.4997739,6.344463 8.836293,6 9.2499184,6 H 24.999719 c 1.375856,0 2.533377,0.422538 2.88642,1.538761 v 0 c 0.255958,1.0205509 0.02971,2.1464881 -0.749261,2.944978 z M 6.2503315,7.5388093 C 5.8358161,7.5388093 5.5001456,7.194393 5.5001456,6.769211 5.5001456,6.344463 5.8358161,6 6.2503315,6 c 0.4143783,0 0.7500046,0.344414 0.7500046,0.769211 0,0.425182 -0.3356263,0.7695983 -0.7500046,0.7695983 z"
       id="path2"
       style="stroke-width:0.0474706;fill-opacity:1;fill:currentColor;"
       class="ColorScheme-Text" />
  </g>
  <g
     id="g1243"
     transform="translate(32,10)">
    <g
       id="22-22-kmail">
      <rect
         style="opacity:0.00100002"
         width="22"
         height="22"
         x="0"
         y="0"
         id="rect2" />
      <path
         d="m 4.2009431,15.848076 c -0.2438679,-0.24011 -0.2438679,-0.629831 0,-0.869903 l 1.7678545,-1.740612 c 0.2439844,-0.240955 0.6396494,-0.240955 0.8836342,0 0.243985,0.240072 0.243985,0.629793 0,0.869864 l -1.7678547,1.740651 c -0.2440235,0.240302 -0.6396498,0.240302 -0.883634,0 z m 12.7143599,0 -1.767857,-1.740651 c -0.24379,-0.240071 -0.24379,-0.629792 0,-0.869864 0.244141,-0.240955 0.63961,-0.240955 0.88379,0 l 1.767895,1.740612 c 0.243749,0.240072 0.243749,0.629793 0,0.869903 -0.244181,0.240302 -0.639728,0.240302 -0.883828,0 z m 3.365435,-9.261085 -7.512983,6.781875 c -0.976293,0.961246 -2.559223,0.961246 -3.5355925,0 L 4.8240686,9.028586 4.5422717,8.751285 3.3385584,7.565929 l -0.0046,0.0015 C 3.2199694,7.427125 3.0574303,7.30755 2.8752427,7.30755 2.5298125,7.30755 2.250085,7.583121 2.250085,7.92292 v 1.733689 0.728329 6.153044 c 0,0.680253 0.5595325,1.230932 1.2501589,1.230932 H 18.499724 c 0.690625,0 1.249922,-0.550679 1.249922,-1.230932 V 9.153929 c 0,-0.340146 0.279884,-0.61537 0.625353,-0.61537 C 20.720194,8.538559 21,8.813822 21,9.153929 v 7.384053 C 21,17.897565 19.880312,19 18.499724,19 H 3.5002779 C 2.1195333,18.999961 1,17.897527 1,16.537944 V 7.92292 C 1,6.903714 1.8398452,6.077387 2.8752766,6.077387 c 0.4825006,0 0.9179704,0.217264 1.2501197,0.532488 v -0.01054 l 5.9909867,5.898819 c 0.487852,0.481104 1.279298,0.481104 1.767268,0 L 19.396279,5.716281 C 19.641085,5.47621 19.75851,5.160987 19.757024,4.846417 h -0.0072 c 0,-0.679945 -0.559299,-0.61537 -1.249926,-0.61537 H 5.3749293 c -0.3446882,0 -0.625118,-0.275532 -0.625118,-0.615677 C 4.7498113,3.27557 5.0302411,3 5.3749293,3 H 18.499757 c 1.146523,0 2.111135,0.338031 2.405356,1.231009 v 0 c 0.21328,0.816442 0.02468,1.71719 -0.624375,2.355982 z M 2.8752766,4.231047 C 2.5298461,4.231047 2.250119,3.955515 2.250119,3.61537 2.250119,3.27557 2.5298461,3 2.8752766,3 c 0.3453131,0 0.6250013,0.275532 0.6250013,0.61537 0,0.340145 -0.2796882,0.615677 -0.6250013,0.615677 z"
         id="path2-3"
         style="stroke-width:0.0387604;fill-opacity:1;fill:currentColor;"
         class="ColorScheme-Text" />
    </g>
  </g>
</svg>
