<?xml version="1.0" encoding="UTF-8" standalone="no"?>
<svg
   width="32"
   height="32"
   version="1.1"
   id="svg12"
   sodipodi:docname="konv_message.svg"
   inkscape:version="1.1.2 (0a00cf5339, 2022-02-04)"
   xmlns:inkscape="http://www.inkscape.org/namespaces/inkscape"
   xmlns:sodipodi="http://sodipodi.sourceforge.net/DTD/sodipodi-0.dtd"
   xmlns="http://www.w3.org/2000/svg"
   xmlns:svg="http://www.w3.org/2000/svg"
   xmlns:rdf="http://www.w3.org/1999/02/22-rdf-syntax-ns#"
   xmlns:cc="http://creativecommons.org/ns#"
   xmlns:dc="http://purl.org/dc/elements/1.1/">
  <style id="current-color-scheme" type="text/css">.ColorScheme-Highlight { color:#476382; }
</style>
  <metadata
     id="metadata18">
    <rdf:RDF>
      <cc:Work
         rdf:about="">
        <dc:format>image/svg+xml</dc:format>
        <dc:type
           rdf:resource="http://purl.org/dc/dcmitype/StillImage" />
      </cc:Work>
    </rdf:RDF>
  </metadata>
  <defs
     id="defs16" />
  <sodipodi:namedview
     pagecolor="#ffffff"
     bordercolor="#000000"
     borderopacity="1"
     objecttolerance="10"
     gridtolerance="10"
     guidetolerance="10"
     inkscape:pageopacity="0"
     inkscape:pageshadow="2"
     inkscape:window-width="1920"
     inkscape:window-height="1015"
     id="namedview14"
     showgrid="false"
     inkscape:zoom="9.8125"
     inkscape:cx="26.904459"
     inkscape:cy="20.229299"
     inkscape:window-x="0"
     inkscape:window-y="0"
     inkscape:window-maximized="1"
     inkscape:current-layer="svg12"
     inkscape:document-rotation="0"
     inkscape:showpageshadow="false"
     inkscape:pagecheckerboard="0">
    <inkscape:grid
       type="xygrid"
       id="grid887"
       originx="0"
       originy="0" />
  </sodipodi:namedview>
  <g
     id="konv_message">
    <rect
       style="opacity:0.00100002"
       width="32"
       height="32"
       x="0"
       y="0"
       id="rect7" />
    <path
       d="m 27.984964,17.46269 -0.005,-0.0049 c -0.147197,0.148449 -0.351786,0.241001 -0.578967,0.241001 -0.44757,0 -0.810443,-0.358202 -0.810443,-0.800002 0,-0.231253 0.100901,-0.437899 0.259995,-0.584001 0.284539,-0.288637 0.461414,-0.681651 0.461414,-1.116391 0,-0.434751 -0.176875,-0.827354 -0.461801,-1.116 -0.159076,-0.146061 -0.259977,-0.352708 -0.259977,-0.583965 0,-0.441795 0.362888,-0.800001 0.810456,-0.800001 0.22713,0 0.431711,0.0926 0.578968,0.240995 l 0.005,-0.0049 c 0.586451,0.5793 0.949336,1.379297 0.949336,2.2629 0,0.883597 -0.362885,1.6836 -0.949336,2.262901 z m -3.913362,8.937095 c -0.895125,0 -1.620881,-0.7164 -1.620881,-1.60003 v -0.01027 c -3.9e-4,-4.05e-4 -6.82e-4,0 -6.82e-4,-6.83e-4 -0.569053,-1.331248 -2.121517,-2.499206 -4.292868,-3.348852 l 0.0052,-0.01062 c -0.333198,-0.1176 -0.572989,-0.42851 -0.572989,-0.797664 0,-0.469536 0.385417,-0.849988 0.861103,-0.849988 0.137721,0 0.266329,0.03478 0.381874,0.09184 2.589633,0.955446 4.447942,2.305866 5.110027,3.8539 0.175259,0.410206 0.130534,-6.926901 0.130534,-6.926901 v -3.6 c 0,0 0.04486,-6.9370961 -0.130588,-6.5269451 -1.297174,3.034409 -7.163046,5.3250121 -14.2029989,5.3250121 -0.1321537,0 -0.2457683,6.84e-4 -0.3506191,0.0016 H 8.6731071 c -0.447572,-3.99e-4 -0.8104501,0.357776 -0.8104501,0.799571 0,0.441815 -0.3628781,0.800015 -0.8104491,0.800015 h -0.810445 c -0.8951429,0 -1.6208992,0.7164 -1.6208992,1.599985 0,0.88363 0.7257563,1.60003 1.6208992,1.60003 h 0.810445 c 0.447571,0 0.8104491,0.358175 0.8104491,0.79997 0,0.441815 0.3628781,0.800015 0.8104501,0.800015 h 0.7578175 c 0.093809,6.73e-4 0.1934965,0.0016 0.3070596,0.0016 0.09695,0 0.1919232,0.006 0.2884658,0.0066 1.136149,0.03954 2.100927,0.733998 2.516428,1.716399 l 2.459485,6.076837 c 0.402072,0.992724 -0.178889,1.798564 -1.297576,1.798564 h -1.532266 c -1.119128,0 -2.3525813,-0.80584 -2.7546669,-1.8 l -1.4206607,-3.50899 0.00385,-0.0013 c -0.04037,-0.09376 -0.062506,-0.196928 -0.062506,-0.305117 0,-0.4332 0.355735,-0.784403 0.7946433,-0.784403 0.3450493,0 0.6363031,0.218756 0.7459678,0.522249 l 1.4310235,3.477561 c 0.182036,0.44179 0.692116,0.800015 1.139685,0.800015 h 0.574219 c 0.447571,0 0.663248,-0.358225 0.481191,-0.800015 l -1.975467,-4.8 C 10.947753,20.35798 10.437676,19.999755 9.990107,19.999755 H 9.4835764 9.415904 8.2679013 c -0.7672887,0 -1.4329208,-0.422225 -1.7768051,-1.042585 -0.00142,-0.008 -0.00365,-0.01354 -0.00608,-0.0204 -0.049022,-0.09104 -0.091368,-0.185945 -0.1273863,-0.283589 -0.0194,-0.05418 -0.051463,-0.105469 -0.09539,-0.148849 -0.072829,-0.07221 -0.167004,-0.110926 -0.2627888,-0.116391 0,0 0,-3.92e-4 -4.042e-4,-3.92e-4 C 4.3224983,18.26501 3,16.886124 3,15.199755 3,13.513433 4.3224983,12.134507 5.999216,12.01186 c 4.042e-4,0 4.042e-4,-3.93e-4 4.042e-4,-3.93e-4 0.095785,-0.0066 0.1899508,-0.04431 0.2627888,-0.1164 0.044332,-0.04332 0.075969,-0.09456 0.09538,-0.148851 4.032e-4,-6.73e-4 0.00122,-6.73e-4 0.00142,-0.002 0.2754035,-0.781192 1.0232951,-1.344083 1.9085576,-1.344083 h 1.2156721 0.1927347 c 6.3312296,0 11.6066626,-2.0597531 12.7732586,-4.7886571 4.07e-4,-3.98e-4 6.97e-4,-3.98e-4 6.97e-4,-6.89e-4 v -0.010167 c 6.12e-4,-0.88445 0.726368,-1.60085 1.621492,-1.60085 0.895171,0 1.620927,0.7164 1.620927,1.599985 v 6.0000001 0.40003 1.599985 1.599985 1.60003 1.599985 0.399985 6 c 0,0.88363 -0.725756,1.60003 -1.620927,1.60003 z m -9.32012,-6.800015 c 0,-0.44179 0.362851,-0.800015 0.810415,-0.800015 0.447586,0 0.810464,0.358225 0.810464,0.800015 0,0.44179 -0.362878,0.800015 -0.810464,0.800015 -0.447564,0 -0.810415,-0.358225 -0.810415,-0.800015 z"
       id="path2"
       style="stroke-width:0.050327;fill:currentColor;"
       class="ColorScheme-Highlight" />
  </g>
  <g
     id="22-22-konv_message"
     transform="translate(32,10)">
    <rect
       style="opacity:0.00100002"
       width="22"
       height="22"
       x="0"
       y="0"
       id="rect2" />
    <path
       d="m 19.056641,11.975263 -0.0033,-0.0033 c -0.09813,0.09897 -0.234524,0.160668 -0.385978,0.160668 -0.29838,0 -0.540295,-0.238802 -0.540295,-0.533335 0,-0.154169 0.06727,-0.291933 0.17333,-0.389334 0.189693,-0.192425 0.307609,-0.454434 0.307609,-0.744261 0,-0.289834 -0.117916,-0.551569 -0.307867,-0.744 -0.106051,-0.09737 -0.173318,-0.235138 -0.173318,-0.389309 0,-0.29453 0.241925,-0.533334 0.540304,-0.533334 0.15142,0 0.287807,0.06173 0.385979,0.160663 l 0.0033,-0.0033 c 0.390967,0.3862 0.632891,0.919531 0.632891,1.5086 0,0.589065 -0.241924,1.1224 -0.632891,1.508601 z m -2.608908,5.958062 c -0.59675,0 -1.080587,-0.4776 -1.080587,-1.066686 v -0.0069 c -2.6e-4,-2.7e-4 -4.55e-4,0 -4.55e-4,-4.56e-4 -0.379369,-0.887498 -1.414344,-1.666136 -2.861912,-2.232567 l 0.0035,-0.0071 c -0.222132,-0.0784 -0.381993,-0.285673 -0.381993,-0.531776 0,-0.313024 0.256945,-0.566658 0.574069,-0.566658 0.09181,0 0.177553,0.02319 0.254583,0.06123 1.726421,0.636964 2.965294,1.537244 3.406684,2.569266 0.116839,0.273471 0.08702,-4.617933 0.08702,-4.617933 v -2.39998 c 0,0 0.02991,-4.624731 -0.08706,-4.351297 -0.864783,2.02294 -4.775363,3.550008 -9.468665,3.550008 -0.0881,0 -0.163845,4.56e-4 -0.233746,0.0011 H 6.1821 C 5.883719,8.33331 5.6418,8.572093 5.6418,8.866623 c 0,0.294543 -0.241919,0.533343 -0.540299,0.533343 H 4.561204 c -0.596762,0 -1.080599,0.4776 -1.080599,1.066657 0,0.589086 0.483837,1.066686 1.080599,1.066686 h 0.540297 c 0.29838,0 0.540299,0.238784 0.540299,0.533314 0,0.294543 0.241919,0.533343 0.5403,0.533343 h 0.505212 c 0.06254,4.48e-4 0.128997,0.0011 0.204706,0.0011 0.06463,0 0.127948,0.004 0.19231,0.0044 0.757433,0.02636 1.400618,0.489332 1.677619,1.144266 l 1.639656,4.051224 c 0.268048,0.661816 -0.119259,1.199043 -0.86505,1.199043 H 8.515042 c -0.746085,0 -1.568387,-0.537227 -1.836444,-1.2 l -0.947107,-2.339326 0.0025,-8.67e-4 c -0.02691,-0.06251 -0.04167,-0.131285 -0.04167,-0.203411 0,-0.2888 0.237156,-0.522935 0.529762,-0.522935 0.230033,0 0.424202,0.145837 0.497311,0.348165 l 0.954016,2.318374 c 0.121358,0.294527 0.461411,0.533343 0.75979,0.533343 h 0.382813 c 0.29838,0 0.442165,-0.238816 0.320794,-0.533343 L 7.81983,14.199983 C 7.698465,13.905456 7.358414,13.666639 7.060035,13.666639 H 6.722347 6.677237 5.911902 c -0.511525,0 -0.95528,-0.281483 -1.184537,-0.695056 -9.33e-4,-0.0053 -0.0025,-0.009 -0.0041,-0.0136 -0.03268,-0.06069 -0.06091,-0.123964 -0.08492,-0.18906 -0.01293,-0.03612 -0.03431,-0.07031 -0.06359,-0.09923 -0.04855,-0.04814 -0.111336,-0.07395 -0.175192,-0.07759 0,0 0,-2.62e-4 -2.7e-4,-2.62e-4 C 3.281665,12.510141 2.4,11.590886 2.4,10.46664 2.4,9.342425 3.281665,8.423141 4.399477,8.341377 c 2.69e-4,0 2.69e-4,-2.62e-4 2.69e-4,-2.62e-4 0.06385,-0.0044 0.126634,-0.02954 0.175193,-0.0776 0.02955,-0.02888 0.05065,-0.06304 0.06359,-0.09923 2.68e-4,-4.49e-4 8e-4,-4.49e-4 9.33e-4,-0.0013 C 4.823064,7.642191 5.321659,7.26693 5.911834,7.26693 h 0.810448 0.128489 c 4.22082,0 7.737774,-1.373168 8.515505,-3.192437 2.71e-4,-2.66e-4 4.65e-4,-2.66e-4 4.65e-4,-4.6e-4 v -0.0068 C 15.367149,3.4776 15.850986,3 16.447735,3 c 0.596781,0 1.080618,0.4776 1.080618,1.066657 v 3.999999 0.266687 1.066656 1.066657 1.066686 1.066657 0.266656 4 c 0,0.589086 -0.483837,1.066686 -1.080618,1.066686 z M 10.23432,13.399983 c 0,-0.294527 0.241901,-0.533344 0.540277,-0.533344 0.298391,0 0.540309,0.238817 0.540309,0.533344 0,0.294526 -0.241918,0.533343 -0.540309,0.533343 -0.298376,0 -0.540277,-0.238817 -0.540277,-0.533343 z"
       id="path2-3"
       style="stroke-width:0.0335513;fill-opacity:1;fill:currentColor;"
       class="ColorScheme-Highlight" />
  </g>
</svg>
