<?xml version="1.0" encoding="UTF-8" standalone="no"?>
<svg
   width="32"
   height="32"
   version="1.1"
   id="svg12"
   sodipodi:docname="konversation.svg"
   inkscape:version="1.1.2 (0a00cf5339, 2022-02-04)"
   xmlns:inkscape="http://www.inkscape.org/namespaces/inkscape"
   xmlns:sodipodi="http://sodipodi.sourceforge.net/DTD/sodipodi-0.dtd"
   xmlns="http://www.w3.org/2000/svg"
   xmlns:svg="http://www.w3.org/2000/svg"
   xmlns:rdf="http://www.w3.org/1999/02/22-rdf-syntax-ns#"
   xmlns:cc="http://creativecommons.org/ns#"
   xmlns:dc="http://purl.org/dc/elements/1.1/">
  <style id="current-color-scheme" type="text/css">.ColorScheme-Text { color:#d6dbf1; }
</style>
  <metadata
     id="metadata18">
    <rdf:RDF>
      <cc:Work
         rdf:about="">
        <dc:format>image/svg+xml</dc:format>
        <dc:type
           rdf:resource="http://purl.org/dc/dcmitype/StillImage" />
      </cc:Work>
    </rdf:RDF>
  </metadata>
  <defs
     id="defs16" />
  <sodipodi:namedview
     pagecolor="#ffffff"
     bordercolor="#000000"
     borderopacity="1"
     objecttolerance="10"
     gridtolerance="10"
     guidetolerance="10"
     inkscape:pageopacity="0"
     inkscape:pageshadow="2"
     inkscape:window-width="1920"
     inkscape:window-height="1015"
     id="namedview14"
     showgrid="false"
     inkscape:zoom="9.8125"
     inkscape:cx="24.356688"
     inkscape:cy="15.745223"
     inkscape:window-x="0"
     inkscape:window-y="0"
     inkscape:window-maximized="1"
     inkscape:current-layer="svg12"
     inkscape:document-rotation="0"
     inkscape:lockguides="true"
     inkscape:showpageshadow="false"
     inkscape:pagecheckerboard="0">
    <inkscape:grid
       type="xygrid"
       id="grid859"
       originx="0"
       originy="0" />
  </sodipodi:namedview>
  <g
     id="konversation">
    <rect
       style="opacity:0.00100002"
       width="32"
       height="32"
       x="0"
       y="0"
       id="rect7" />
    <circle
       fill="none"
       stroke-width="0.957987"
       stroke-linecap="round"
       stroke-linejoin="round"
       stroke-miterlimit="10"
       cx="9.4734268"
       cy="12.526128"
       r="1.4968543"
       id="circle8" />
    <circle
       fill="none"
       stroke-width="0.957987"
       stroke-linecap="round"
       stroke-linejoin="round"
       stroke-miterlimit="10"
       cx="16.079851"
       cy="12.526128"
       r="1.4968543"
       id="circle10" />
    <circle
       fill="none"
       stroke-width="0.957987"
       stroke-linecap="round"
       stroke-linejoin="round"
       stroke-miterlimit="10"
       cx="22.686275"
       cy="12.526128"
       r="1.4968543"
       id="circle12" />
    <path
       d="m 27.926752,16.799962 v 0 0 0 0 0 0 0 0 0 0 0 c 0,0 -0.0033,-0.0032 0,0 z m -1.708979,9.59998 c -0.943837,0 -1.709049,-0.716398 -1.709049,-1.600008 v -0.0088 c -4.35e-4,-4.02e-4 -8.7e-4,0 -0.001,-8.01e-4 -0.599983,-1.331247 -2.236885,-2.499196 -4.526308,-3.348843 l 0.0039,-0.0091 c -0.351315,-0.1176 -0.604149,-0.428498 -0.604149,-0.797648 0,-0.469549 0.406381,-0.849996 0.907932,-0.849996 0.145218,0 0.280819,0.03468 0.402642,0.0917 2.730476,0.955446 4.68985,2.305843 5.387943,3.85389 0.184791,0.410199 0.137631,-6.926882 0.137631,-6.926882 v -3.600342 c 0,0 0.04729,-6.9370822 -0.137682,-6.5269329 -1.36771,3.0342989 -7.552603,5.3248949 -14.975438,5.3248949 -0.139339,0 -0.259134,7.98e-4 -0.369689,0.0016 H 9.981358 c -0.471912,1.2e-5 -0.854526,0.35821 -0.854526,0.800009 -6e-6,0.441799 -0.382623,0.799999 -0.854533,0.799999 H 7.4181907 c -0.943824,0 -1.7090518,0.716399 -1.7090518,1.599996 0,0.883598 0.7652278,1.599994 1.7090518,1.599994 H 8.272715 c 0.4719,0 0.854543,0.358201 0.854543,0.799998 0,0.441801 0.382606,0.799998 0.854505,0.799998 h 0.799038 c 0.09883,0.001 0.204018,0.0016 0.323759,0.0016 0.102342,0 0.202391,0.0039 0.304182,0.0045 1.197921,0.0393 2.215197,0.733998 2.653283,1.716395 l 2.593215,6.075925 C 17.079226,27.19414 16.466701,28 15.287129,28 H 13.671528 C 12.49152,28 11.191021,27.19414 10.76705,26.200004 l -1.497916,-3.509 0.0034,-0.0013 c -0.04268,-0.09372 -0.06581,-0.196891 -0.06581,-0.305091 0,-0.433199 0.375084,-0.784397 0.837861,-0.784397 0.363813,0 0.670905,0.218751 0.786534,0.522249 l 1.509136,3.47756 c 0.191953,0.441806 0.729772,0.799985 1.201677,0.799985 h 0.605441 c 0.471904,0 0.699328,-0.358179 0.507374,-0.799985 l -2.082869,-4.800013 c -0.19191,-0.441811 -0.729732,-0.79999 -1.201666,-0.79999 h -0.53407 -0.07147 -1.210427 c -0.809025,0 -1.510856,-0.422274 -1.8734425,-1.042629 -0.00179,-0.0059 -0.00389,-0.01378 -0.00643,-0.02014 -0.051755,-0.09103 -0.096398,-0.185948 -0.1343621,-0.283594 -0.020448,-0.05444 -0.054255,-0.10548 -0.100568,-0.148854 -0.076803,-0.07221 -0.1760858,-0.110916 -0.2770791,-0.1164 0,0 0,-3.94e-4 -4.281e-4,-3.94e-4 C 5.3944249,18.265202 4,16.886319 4,15.19999 c 0,-1.686367 1.3944249,-3.065249 3.1623321,-3.187896 4.276e-4,0 4.276e-4,-4.13e-4 4.276e-4,-4.13e-4 0.1009994,-0.0045 0.2002794,-0.04399 0.2770802,-0.1164 0.046746,-0.04332 0.080119,-0.09439 0.100568,-0.148842 4.277e-4,-0.001 0.00142,-0.001 0.00179,-0.002 0.2903732,-0.781216 1.0789501,-1.344111 2.0123641,-1.344111 h 1.281777 0.203209 c 6.67556,0 12.237941,-2.059748 13.46798,-4.7886403 4.15e-4,-4.007e-4 8.31e-4,-4.007e-4 10e-4,-8.008e-4 V 5.6002901 C 24.508579,4.7163986 25.273826,4 26.217665,4 c 0.943801,0 1.70905,0.7163986 1.70905,1.599994 v 6.000003 0.399974 1.60001 1.600009 1.599972 1.600009 0.400012 5.999951 c 0,0.88361 -0.765249,1.600008 -1.70905,1.600008 z m -9.82704,-6.799973 c 0,-0.441806 0.382605,-0.799986 0.854543,-0.799986 0.4719,0 0.854505,0.35818 0.854505,0.799986 0,0.441806 -0.382605,0.799985 -0.854505,0.799985 -0.471938,0 -0.854543,-0.358179 -0.854543,-0.799985 z"
       id="path2"
       style="stroke-width:0.0516751;fill-opacity:1;fill:currentColor;"
       sodipodi:nodetypes="cccccccccccccccsccccsscccccsccsssssssscscccsscccssccssccsccsccccccscccscscsccssscccccccsccsssss"
       class="ColorScheme-Text" />
  </g>
  <g
     id="22-22-konversation"
     transform="translate(32,10)">
    <rect
       style="opacity:0.00100002"
       width="22"
       height="22"
       x="0"
       y="0"
       id="rect2" />
    <circle
       fill="none"
       stroke-width="0.583122"
       stroke-linecap="round"
       stroke-linejoin="round"
       stroke-miterlimit="10"
       cx="6.9489555"
       cy="9.0275993"
       r="0.91112864"
       id="circle8-5" />
    <circle
       fill="none"
       stroke-width="0.583122"
       stroke-linecap="round"
       stroke-linejoin="round"
       stroke-miterlimit="10"
       cx="10.970257"
       cy="9.0275993"
       r="0.91112864"
       id="circle10-6" />
    <circle
       fill="none"
       stroke-width="0.583122"
       stroke-linecap="round"
       stroke-linejoin="round"
       stroke-miterlimit="10"
       cx="14.991558"
       cy="9.0275993"
       r="0.91112864"
       id="circle12-2" />
    <path
       d="m 18.951168,11.533308 v 0 0 0 0 0 0 0 0 0 0 0 c 0,0 -0.0022,-0.0021 0,0 z m -1.139319,6.399987 c -0.629225,0 -1.139366,-0.477599 -1.139366,-1.066672 v -0.0059 c -2.9e-4,-2.68e-4 -5.8e-4,0 -6.67e-4,-5.34e-4 -0.399989,-0.887498 -1.491257,-1.666131 -3.017539,-2.232562 l 0.0026,-0.0061 c -0.23421,-0.0784 -0.402766,-0.285665 -0.402766,-0.531765 0,-0.313033 0.270921,-0.566664 0.605288,-0.566664 0.09681,0 0.187213,0.02312 0.268428,0.06113 1.820318,0.636964 3.126567,1.537229 3.591962,2.56926 0.123194,0.273466 0.09175,-4.617921 0.09175,-4.617921 V 9.135339 c 0,0 0.03153,-4.624721 -0.09179,-4.351289 -0.911806,2.022866 -5.035068,3.54993 -9.983625,3.54993 -0.092893,0 -0.172756,5.32e-4 -0.2464593,0.0011 H 6.987572 c -0.314608,8e-6 -0.569684,0.238807 -0.569684,0.533339 -4e-6,0.294533 -0.255082,0.533333 -0.5696887,0.533333 H 5.2787938 c -0.629216,0 -1.1393679,0.477599 -1.1393679,1.066664 0,0.589065 0.5101519,1.066663 1.1393679,1.066663 h 0.5696829 c 0.3146,0 0.5696953,0.2388 0.5696953,0.533332 0,0.294534 0.2550707,0.533332 0.56967,0.533332 h 0.532692 c 0.065887,6.66e-4 0.136012,0.0011 0.2158393,0.0011 0.068228,0 0.1349274,0.0026 0.202788,0.003 0.798614,0.0262 1.476798,0.489332 1.7688557,1.144264 l 1.72881,4.050616 C 11.719484,18.46276 11.311134,19 10.524753,19 H 9.4476853 C 8.6610133,19 7.794014,18.46276 7.5113667,17.800003 l -0.9986107,-2.339334 0.00227,-8.66e-4 c -0.028453,-0.06248 -0.043873,-0.131261 -0.043873,-0.203394 0,-0.2888 0.250056,-0.522932 0.558574,-0.522932 0.242542,0 0.44727,0.145834 0.524356,0.348166 l 1.0060907,2.318374 c 0.1279687,0.294537 0.4865147,0.533323 0.801118,0.533323 H 9.764919 c 0.314603,0 0.466219,-0.238786 0.33825,-0.533323 L 8.714589,14.200008 C 8.586649,13.905467 8.228101,13.666681 7.9134784,13.666681 H 7.557428 7.5097813 6.70283 c -0.53935,0 -1.0072373,-0.281516 -1.2489617,-0.695086 -0.00119,-0.0039 -0.00259,-0.0092 -0.00429,-0.01343 -0.034503,-0.06069 -0.064265,-0.123966 -0.089575,-0.189063 -0.013632,-0.03629 -0.03617,-0.07032 -0.067045,-0.09924 -0.051202,-0.04814 -0.1173905,-0.07394 -0.1847194,-0.0776 0,0 0,-2.63e-4 -2.854e-4,-2.63e-4 C 3.9296166,12.510139 3,11.590879 3,10.46666 3,9.342415 3.9296166,8.423161 5.1082214,8.341396 c 2.851e-4,0 2.851e-4,-2.75e-4 2.851e-4,-2.75e-4 0.067333,-0.003 0.1335196,-0.02933 0.1847201,-0.0776 0.031164,-0.02888 0.053413,-0.06293 0.067045,-0.09923 2.852e-4,-6.67e-4 9.467e-4,-6.67e-4 0.00119,-0.0013 0.1935821,-0.52081 0.7193,-0.896074 1.341576,-0.896074 h 0.854518 0.1354727 c 4.4503727,0 8.1586267,-1.373165 8.9786527,-3.192426 2.77e-4,-2.68e-4 5.54e-4,-2.68e-4 6.67e-4,-5.34e-4 v -0.0071 C 16.672386,3.477599 17.182551,3 17.811777,3 c 0.6292,0 1.139366,0.477599 1.139366,1.066663 v 4.000002 0.266649 1.066673 1.066673 1.066648 1.066673 0.266674 3.999968 c 0,0.589073 -0.510166,1.066672 -1.139366,1.066672 z m -6.55136,-4.533316 c 0,-0.294537 0.25507,-0.533324 0.569695,-0.533324 0.3146,0 0.56967,0.238787 0.56967,0.533324 0,0.294538 -0.25507,0.533324 -0.56967,0.533324 -0.314625,0 -0.569695,-0.238786 -0.569695,-0.533324 z"
       id="path2-3"
       style="stroke-width:0.0344501;fill-opacity:1;fill:currentColor;"
       sodipodi:nodetypes="cccccccccccccccsccccsscccccsccsssssssscscccsscccssccssccsccsccccccscccscscsccssscccccccsccsssss"
       class="ColorScheme-Text" />
  </g>
</svg>
