<?xml version="1.0" encoding="UTF-8" standalone="no"?>
<svg
   width="32"
   height="32"
   version="1.1"
   id="svg12"
   sodipodi:docname="kopete.svg"
   inkscape:version="1.1.2 (0a00cf5339, 2022-02-04)"
   xmlns:inkscape="http://www.inkscape.org/namespaces/inkscape"
   xmlns:sodipodi="http://sodipodi.sourceforge.net/DTD/sodipodi-0.dtd"
   xmlns="http://www.w3.org/2000/svg"
   xmlns:svg="http://www.w3.org/2000/svg"
   xmlns:rdf="http://www.w3.org/1999/02/22-rdf-syntax-ns#"
   xmlns:cc="http://creativecommons.org/ns#"
   xmlns:dc="http://purl.org/dc/elements/1.1/">
  <style id="current-color-scheme" type="text/css">.ColorScheme-Text { color:#d6dbf1; }
</style>
  <metadata
     id="metadata18">
    <rdf:RDF>
      <cc:Work
         rdf:about="">
        <dc:format>image/svg+xml</dc:format>
        <dc:type
           rdf:resource="http://purl.org/dc/dcmitype/StillImage" />
      </cc:Work>
    </rdf:RDF>
  </metadata>
  <defs
     id="defs16" />
  <sodipodi:namedview
     pagecolor="#ffffff"
     bordercolor="#000000"
     borderopacity="1"
     objecttolerance="10"
     gridtolerance="10"
     guidetolerance="10"
     inkscape:pageopacity="0"
     inkscape:pageshadow="2"
     inkscape:window-width="1920"
     inkscape:window-height="1015"
     id="namedview14"
     showgrid="false"
     inkscape:zoom="9.8125"
     inkscape:cx="22.726115"
     inkscape:cy="15.541401"
     inkscape:window-x="0"
     inkscape:window-y="0"
     inkscape:window-maximized="1"
     inkscape:current-layer="svg12"
     inkscape:lockguides="true"
     inkscape:document-rotation="0"
     inkscape:showpageshadow="false"
     inkscape:pagecheckerboard="0">
    <inkscape:grid
       type="xygrid"
       id="grid863"
       originx="0"
       originy="0" />
  </sodipodi:namedview>
  <g
     id="kopete">
    <rect
       style="opacity:0.00100002"
       width="32"
       height="32"
       x="0"
       y="0"
       id="rect7" />
    <path
       style="fill-opacity:1;fill:currentColor;"
       d="M 16.5,8.3 A 5,5.5 0 0 0 15.509766,8.4132812 5,5.5 0 0 1 19.5,13.8 5,5.5 0 0 1 15.490234,19.186719 5,5.5 0 0 0 16.5,19.3 a 5,5.5 0 0 0 5,-5.5 5,5.5 0 0 0 -5,-5.5 z m -5,1.5 a 1,1 0 0 0 -1,1 1,1 0 0 0 1,1 1,1 0 0 0 1,-1 1,1 0 0 0 -1,-1 z m 2,3 c -0.554,0 -1,0.446 -1,1 0,0.554 0.446,1 1,1 h 3 c 0.554,0 1,-0.446 1,-1 0,-0.554 -0.446,-1 -1,-1 z m -2,3 c -0.5523,0 -1,0.447715 -1,1 0,0.552285 0.447715,1 1,1 0.353485,0 0.5,1 0.5,1 0,0 0.5,-1.8012 0.5,-2 0,-0.5523 -0.447715,-1 -1,-1 z"
       id="path12"
       class="ColorScheme-Text" />
    <path
       d="m 28.249567,19.000033 z m 0,-11.143739 z m 0,0 z m -1.749624,15.000034 h -7.875055 c -0.59046,0 -1.134765,0.190822 -1.573136,0.51268 l -5.523492,4.058044 c -0.01131,0.0084 -0.01775,0.01216 -0.03072,0.02218 C 11.051272,27.793696 10.487939,28 9.874397,28 8.424743,28.000054 7.25,26.848265 7.25,25.428191 v -1.714718 c 0,-0.472501 -0.391781,-0.857145 -0.875219,-0.857145 H 5.499563 C 3.566524,22.856328 2,21.32161 2,19.428177 V 8.285295 C 2,7.811937 2.391782,7.428151 2.875219,7.428151 c 0.482562,0 0.874124,0.383786 0.874124,0.857144 v 10.714738 c 0,1.182753 0.98011,2.142862 2.188376,2.142862 h 0.874179 c 1.208266,0 2.188376,0.958824 2.188376,2.142434 v 2.142862 c 0,0.473786 0.391562,0.857144 0.874123,0.857144 0.185665,0 0.357442,-0.05609 0.498423,-0.152786 0.002,-8.57e-4 0.002,-8.57e-4 0.0036,-0.0017 l 5.569158,-4.091956 c 8.73e-4,-8.57e-4 8.73e-4,0 0.002,-8.57e-4 0.739432,-0.560787 1.668679,-0.895181 2.67739,-0.895181 h 7.437556 c 1.208265,0 2.187117,-0.960109 2.187117,-2.142862 V 7.856294 c 0,-1.182752 -0.978852,-2.142862 -2.187117,-2.142862 H 9.874397 C 9.391836,5.713432 9.000274,5.330074 9.000274,4.856288 9.000274,4.383787 9.391836,4 9.874397,4 H 26.499943 C 28.43331,4 30,5.534343 30,7.428151 v 12.000026 c 0,1.893433 -1.56669,3.428151 -3.500057,3.428151 z M 6.374836,5.713432 C 5.891398,5.713432 5.499617,5.330074 5.499617,4.856288 5.499617,4.383787 5.891398,4 6.374836,4 6.858219,4 7.25,4.383787 7.25,4.856288 7.25,5.330074 6.858219,5.713432 6.374836,5.713432 Z"
       id="path2-3"
       sodipodi:nodetypes="cccccccccccccccccccssccccssssssssssssssccccsssssssssssssssss"
       style="stroke-width:0.0541266;fill-opacity:1;fill:currentColor;"
       class="ColorScheme-Text" />
  </g>
  <g
     id="22-22-kopete"
     transform="translate(32,10)">
    <rect
       style="opacity:0.00100002"
       width="22"
       height="22"
       x="0"
       y="0"
       id="rect2" />
    <path
       style="stroke-width:0.666667;fill-opacity:1;fill:currentColor;"
       d="m 11.350001,5.60004 a 3.3333338,3.6666671 0 0 0 -0.660155,0.0755 3.3333338,3.6666671 0 0 1 2.660155,3.591151 3.3333338,3.6666671 0 0 1 -2.673181,3.59114 3.3333338,3.6666671 0 0 0 0.673181,0.0755 A 3.3333338,3.6666671 0 0 0 14.683334,9.266668 3.3333338,3.6666671 0 0 0 11.350001,5.6 Z M 8.016667,6.600041 A 0.66666673,0.66666673 0 0 0 7.35,7.266706 0.66666673,0.66666673 0 0 0 8.016667,7.933374 0.66666673,0.66666673 0 0 0 8.683333,7.266706 0.66666673,0.66666673 0 0 0 8.016667,6.600041 Z m 1.333334,2 c -0.369334,0 -0.666668,0.297333 -0.666668,0.666666 0,0.369334 0.297334,0.666668 0.666668,0.666668 h 2 c 0.369332,0 0.666666,-0.297334 0.666666,-0.666668 0,-0.369333 -0.297334,-0.666666 -0.666666,-0.666666 z M 8.016667,10.60004 c -0.368196,0 -0.666667,0.298485 -0.666667,0.666666 0,0.368189 0.298477,0.666668 0.666667,0.666668 0.235656,0 0.333333,0.666666 0.333333,0.666666 0,0 0.333333,-1.200799 0.333333,-1.333334 0,-0.368198 -0.298476,-0.666666 -0.666666,-0.666666 z"
       id="path12-5"
       class="ColorScheme-Text" />
    <path
       d="m 19.199711,13.000022 z m 0,-7.429159 z m 0,0 z m -1.166416,10.000022 h -5.250036 c -0.39364,0 -0.75651,0.127215 -1.048758,0.341787 l -3.682328,2.705363 c -0.0075,0.0056 -0.01183,0.0081 -0.02048,0.01479 C 7.734181,18.862464 7.358626,19 6.949598,19 5.983162,19.000036 5.2,18.232177 5.2,17.285461 v -1.143146 c 0,-0.315 -0.2611873,-0.57143 -0.5834793,-0.57143 H 4.033042 C 2.7443493,15.570885 1.7,14.54774 1.7,13.285451 V 5.856863 c 0,-0.315572 0.261188,-0.571429 0.5834793,-0.571429 0.321708,0 0.5827494,0.255857 0.5827494,0.571429 v 7.143159 c 0,0.788502 0.6534066,1.428575 1.4589173,1.428575 h 0.582786 c 0.8055107,0 1.4589173,0.639216 1.4589173,1.428289 v 1.428575 c 0,0.315857 0.2610414,0.571429 0.5827487,0.571429 0.123777,0 0.238295,-0.03739 0.332282,-0.101857 0.0013,-5.72e-4 0.0013,-5.72e-4 0.0024,-0.0011 l 3.712772,-2.72797 c 5.82e-4,-5.72e-4 5.82e-4,0 0.0013,-5.72e-4 0.492955,-0.373858 1.112453,-0.596787 1.784927,-0.596787 h 4.958371 c 0.80551,0 1.458078,-0.640073 1.458078,-1.428575 V 5.570897 c 0,-0.788502 -0.652568,-1.428575 -1.458078,-1.428575 H 6.949598 C 6.6278907,4.142322 6.3668493,3.88675 6.3668493,3.570893 6.3668493,3.255858 6.6278907,3 6.949598,3 h 11.083697 c 1.288912,0 2.333372,1.022895 2.333372,2.285434 v 8.000017 c 0,1.262289 -1.04446,2.285434 -2.333372,2.285434 z M 4.6165573,4.142288 C 4.2942653,4.142288 4.033078,3.886716 4.033078,3.570859 4.033078,3.255858 4.2942653,3 4.6165573,3 4.9388127,3 5.2,3.255858 5.2,3.570859 5.2,3.886716 4.9388127,4.142288 4.6165573,4.142288 Z"
       id="path2-3-3"
       sodipodi:nodetypes="cccccccccccccccccccssccccssssssssssssssccccsssssssssssssssss"
       style="stroke-width:0.0360844;fill-opacity:1;fill:currentColor;"
       class="ColorScheme-Text" />
  </g>
</svg>
