<?xml version="1.0" encoding="UTF-8" standalone="no"?>
<svg
   width="32"
   height="32"
   version="1.1"
   id="svg12"
   sodipodi:docname="korgac.svg"
   inkscape:version="1.1.2 (0a00cf5339, 2022-02-04)"
   xmlns:inkscape="http://www.inkscape.org/namespaces/inkscape"
   xmlns:sodipodi="http://sodipodi.sourceforge.net/DTD/sodipodi-0.dtd"
   xmlns="http://www.w3.org/2000/svg"
   xmlns:svg="http://www.w3.org/2000/svg"
   xmlns:rdf="http://www.w3.org/1999/02/22-rdf-syntax-ns#"
   xmlns:cc="http://creativecommons.org/ns#"
   xmlns:dc="http://purl.org/dc/elements/1.1/">
  <style id="current-color-scheme" type="text/css">.ColorScheme-Text { color:#d6dbf1; }
</style>
  <g
     id="22-22-korgac"
     transform="translate(32.000001,10.000001)">
    <rect
       style="opacity:0.00100002;fill:#a8aeca;fill-opacity:1"
       width="22"
       height="22"
       x="0"
       y="0"
       id="rect2" />
    <path
       d="M 17.37051,4.510493 H 15.81989 V 3.396433 C 15.80228,3.172467 15.617212,3 15.395026,3 15.172644,3 14.987771,3.172467 14.969966,3.396433 v 1.11406 H 7.02995 V 3.396433 C 7.01214,3.172467 6.827266,3 6.604888,3 6.382704,3 6.197639,3.172467 6.180019,3.396433 v 1.11406 H 4.629406 c -0.432259,0 -0.846521,0.17362 -1.152256,0.482387 C 3.171612,5.301647 2.999999,5.720493 2.999999,6.15712 v 11.196453 c 0,0.436634 0.171619,0.85546 0.477151,1.164234 C 3.782872,18.826573 4.197147,19 4.629406,19 h 12.74117 c 0.432258,0 0.84652,-0.173433 1.152263,-0.482193 0.305531,-0.30876 0.477143,-0.727607 0.477143,-1.164234 V 6.165447 C 19.001982,5.72728 18.831397,5.30636 18.525675,4.995867 18.219762,4.685193 17.804173,4.510613 17.370609,4.510613 Z m -2.400531,0.77926 v 1.037514 c -0.0095,0.119833 0.03107,0.238326 0.111758,0.326573 0.08069,0.08843 0.194347,0.138587 0.313303,0.138587 0.118956,0 0.232608,-0.05013 0.313296,-0.138587 0.0807,-0.08825 0.12104,-0.20674 0.111574,-0.326573 V 5.289953 c 0.05211,0.022 0.102095,0.0486 0.149448,0.07963 0.335843,0.199653 0.542328,0.56394 0.54306,0.957687 0.002,0.40046 -0.207038,0.77162 -0.548536,0.97494 -0.34134,0.203093 -0.76394,0.2075 -1.109634,0.01167 -0.345508,-0.196013 -0.56202,-0.56276 -0.568472,-0.96322 -0.006,-0.40046 0.198324,-0.77412 0.537578,-0.981067 0.04697,-0.03007 0.09604,-0.05667 0.146612,-0.07963 z m -8.790073,0 1.92e-4,1.037514 c -0.0095,0.119833 0.03087,0.238326 0.111568,0.326573 0.0807,0.08843 0.194346,0.138587 0.313302,0.138587 0.118956,0 0.232608,-0.05013 0.313302,-0.138587 C 6.99896,6.56559 7.039496,6.4471 7.030029,6.327267 V 5.289953 c 0.05244,0.0226 0.103421,0.0492 0.152099,0.07963 0.279394,0.17056 0.470713,0.456547 0.523178,0.78216 0.05244,0.325793 -0.03919,0.65832 -0.250796,0.909613 -0.211584,0.251527 -0.521674,0.39624 -0.848216,0.39624 -0.326371,0 -0.636448,-0.144713 -0.848018,-0.39624 C 5.546692,6.810016 5.455014,6.477516 5.50748,6.151743 5.55993,5.82613 5.751263,5.54017 6.030657,5.369583 c 0.04737,-0.031 0.09736,-0.0576 0.149454,-0.07963 z m 11.980826,12.074607 1.9e-4,2e-4 c -6.42e-4,0.21152 -0.0841,0.414233 -0.232232,0.563933 -0.148127,0.149507 -0.34853,0.23392 -0.558042,0.234687 H 4.629478 C 4.419979,18.162513 4.21957,18.078 4.071436,17.928493 3.923308,17.778807 3.839969,17.576087 3.839204,17.36456 V 9.307793 h 14.321515 z"
       id="path61-4"
       style="stroke-width:0.0487472;fill-opacity:1;fill:currentColor;"
       class="ColorScheme-Text" />
    <path
       d="m 10.999999,9.8 c -2.206033,0 -4,1.793968 -4,4 0,2.206032 1.793967,4 4,4 2.206033,0 4,-1.793968 4,-4 0,-2.206032 -1.793967,-4 -4,-4 z m 0,0.533365 c 1.91778,0 3.466667,1.548921 3.466667,3.466667 0,1.917746 -1.54892,3.466667 -3.466667,3.466667 -1.917747,0 -3.466667,-1.548921 -3.466667,-3.466667 0,-1.917746 1.54892,-3.466667 3.466667,-3.466667 z m 0.01753,-0.01609 c -1.764126,0 -3.590158,1.396462 -3.570848,3.498584 0.02031,2.210862 1.824834,3.456694 3.588948,3.456694 1.764107,0 3.379447,-1.301278 3.460027,-3.470988 0.07832,-2.108932 -1.714013,-3.48429 -3.478127,-3.48429 z m -0.289706,0.829956 c 0.002,-1.86e-4 0.0033,1.86e-4 0.0053,0 v 0.163874 c -6.5e-4,0.07137 0.02667,0.14019 0.07676,0.19103 0.05007,0.05084 0.118553,0.07943 0.18992,0.07943 0.07137,0 0.13982,-0.02859 0.18992,-0.07943 0.05013,-0.05084 0.07775,-0.119668 0.07676,-0.19103 v -0.163874 c 1.261653,0.124938 2.261113,1.124444 2.386033,2.386032 h -0.163837 c -0.0093,-4.96e-4 -0.01853,-4.96e-4 -0.0278,0 -0.07075,0.0037 -0.137153,0.03528 -0.184527,0.08792 -0.04747,0.05264 -0.07199,0.1219 -0.06833,0.19265 0.004,0.07075 0.03533,0.137092 0.08798,0.184524 0.0526,0.04737 0.1219,0.07192 0.192653,0.06827 h 0.163873 c -0.124938,1.26165 -1.124445,2.26111 -2.386032,2.386031 v -0.163873 c 0.0013,-0.07217 -0.02633,-0.141866 -0.07713,-0.193143 -0.05073,-0.05134 -0.12016,-0.07986 -0.192334,-0.07912 -0.07118,7.34e-4 -0.139134,0.02995 -0.188746,0.0811 -0.04953,0.05109 -0.07663,0.119916 -0.07515,0.191159 v 0.163873 C 9.471484,16.327715 8.472024,15.328209 8.347104,14.066623 h 0.163872 c 0.07137,10e-4 0.140194,-0.02666 0.191034,-0.07676 0.05087,-0.0501 0.07943,-0.118554 0.07943,-0.189922 0,-0.07137 -0.0286,-0.139818 -0.07943,-0.18992 -0.05087,-0.0501 -0.119666,-0.07775 -0.191034,-0.07676 H 8.347104 c 0.124752,-1.259794 1.121526,-2.25873 2.380632,-2.386032 z m 0.269413,0.958334 c -0.07118,7.33e-4 -0.139133,0.02995 -0.188747,0.08104 -0.04953,0.05115 -0.07663,0.119976 -0.07515,0.191158 v 1.422254 c 0,0.07075 0.02807,0.138518 0.07813,0.188556 0.05007,0.05004 0.117807,0.07812 0.188554,0.07812 h 1.066653 c 0.07137,10e-4 0.140187,-0.02666 0.191033,-0.07676 0.05087,-0.0501 0.07943,-0.118552 0.07943,-0.18992 0,-0.07137 -0.0286,-0.13982 -0.07943,-0.18992 -0.05087,-0.0501 -0.119673,-0.07775 -0.191033,-0.07676 h -0.799967 v -1.15557 c 0.0013,-0.07211 -0.02633,-0.141804 -0.07713,-0.193144 -0.05073,-0.05128 -0.120166,-0.0798 -0.192332,-0.07905 z"
       id="path64-8"
       sodipodi:nodetypes="ssssssssssssssscccssscccccccccccccccccccssscccccccssscssscccscc"
       style="stroke-width:0.015873;fill-opacity:1;fill:currentColor;"
       class="ColorScheme-Text" />
  </g>
  <metadata
     id="metadata18">
    <rdf:RDF>
      <cc:Work
         rdf:about="">
        <dc:format>image/svg+xml</dc:format>
        <dc:type
           rdf:resource="http://purl.org/dc/dcmitype/StillImage" />
      </cc:Work>
    </rdf:RDF>
  </metadata>
  <defs
     id="defs16" />
  <sodipodi:namedview
     pagecolor="#ffffff"
     bordercolor="#666666"
     borderopacity="1"
     objecttolerance="10"
     gridtolerance="10"
     guidetolerance="10"
     inkscape:pageopacity="0"
     inkscape:pageshadow="2"
     inkscape:window-width="1920"
     inkscape:window-height="1015"
     id="namedview14"
     showgrid="false"
     inkscape:zoom="9.8125"
     inkscape:cx="19.770701"
     inkscape:cy="12.789809"
     inkscape:window-x="0"
     inkscape:window-y="0"
     inkscape:window-maximized="1"
     inkscape:current-layer="svg12"
     inkscape:document-rotation="0"
     inkscape:pagecheckerboard="0"
     inkscape:lockguides="false">
    <inkscape:grid
       type="xygrid"
       id="grid858"
       originx="0"
       originy="0" />
  </sodipodi:namedview>
  <g
     id="korgac">
    <rect
       style="opacity:0.00100002;fill:#a8aeca;fill-opacity:1"
       width="32"
       height="32"
       x="0"
       y="0"
       id="rect7" />
    <path
       d="m 25.555766,6.26574 h -2.32593 V 4.59465 C 23.203416,4.258701 22.92582,4 22.592541,4 22.258967,4 21.981658,4.258701 21.95495,4.59465 V 6.26574 H 10.044927 V 4.59465 C 10.018208,4.258701 9.7408997,4 9.4073345,4 9.0740567,4 8.7964602,4.258701 8.7700296,4.59465 V 6.26574 H 6.4441102 c -0.6483877,0 -1.2697807,0.26043 -1.7283841,0.72358 C 4.2574195,7.452471 4,8.08074 4,8.73568 v 16.79468 c 0,0.65495 0.2574295,1.28319 0.7157261,1.74635 C 5.1743098,27.73986 5.7957225,28 6.4441102,28 H 25.555865 c 0.648388,0 1.269781,-0.26015 1.728395,-0.72329 0.458296,-0.46314 0.715714,-1.09141 0.715714,-1.74635 V 8.748171 C 28.002944,8.09092 27.747097,7.45954 27.288514,6.993801 26.829644,6.52779 26.206261,6.26592 25.555915,6.26592 Z M 21.95497,7.43463 v 1.556271 c -0.01425,0.179749 0.04661,0.357489 0.167637,0.489859 0.121042,0.13265 0.291521,0.207881 0.469954,0.207881 0.178435,0 0.348913,-0.0752 0.469944,-0.207881 0.121051,-0.13237 0.181561,-0.31011 0.167361,-0.489859 V 7.43493 c 0.07817,0.033 0.153143,0.0729 0.224172,0.11944 0.503765,0.29948 0.813492,0.84591 0.814591,1.436531 0.003,0.60069 -0.310558,1.15743 -0.822805,1.46241 -0.51201,0.304639 -1.14591,0.31125 -1.66445,0.0175 -0.518263,-0.29402 -0.84303,-0.84414 -0.852708,-1.44483 -0.009,-0.60069 0.297486,-1.16118 0.806367,-1.4716 0.07046,-0.0451 0.144058,-0.085 0.219917,-0.11944 z m -13.1851086,0 2.869e-4,1.556271 c -0.01425,0.179749 0.046311,0.357489 0.1673514,0.489859 0.1210508,0.13265 0.2915193,0.207881 0.4699535,0.207881 0.1784342,0 0.348913,-0.0752 0.4699536,-0.207881 C 9.9984476,9.34839 10.059245,9.17065 10.045045,8.990901 V 7.43493 c 0.07866,0.0339 0.155131,0.0738 0.228149,0.11944 0.419091,0.25584 0.706069,0.684821 0.784767,1.17324 0.07866,0.48869 -0.05878,0.98748 -0.376195,1.36442 -0.317376,0.37729 -0.7825101,0.59436 -1.2723239,0.59436 -0.4895563,0 -0.9546708,-0.21707 -1.2720268,-0.59436 C 7.8200392,9.71502 7.6825225,9.21627 7.7612208,8.72761 7.8398894,8.239191 8.1268962,7.810251 8.5459873,7.55437 8.6170364,7.50787 8.6920339,7.46797 8.7701682,7.43493 Z M 26.7411,25.54654 l 2.85e-4,3e-4 c -9.64e-4,0.31728 -0.126156,0.62135 -0.348348,0.8459 -0.222191,0.22426 -0.522795,0.35088 -0.837063,0.35203 H 6.4442191 C 6.12997,26.74377 5.829357,26.617 5.6071552,26.39274 5.3849635,26.16821 5.2599546,25.86413 5.2588068,25.54684 V 13.46169 H 26.74108 Z"
       id="path61"
       style="stroke-width:0.0731208;fill-opacity:1;fill:currentColor;"
       class="ColorScheme-Text" />
    <path
       d="m 16,14.2 c -3.309049,0 -6,2.690952 -6,6 0,3.309048 2.690951,6 6,6 3.30905,0 6,-2.690952 6,-6 0,-3.309048 -2.69095,-6 -6,-6 z m 0,0.800048 c 2.87667,0 5.2,2.323381 5.2,5.2 0,2.876619 -2.32338,5.2 -5.2,5.2 -2.87662,0 -5.2,-2.323381 -5.2,-5.2 0,-2.876619 2.32338,-5.2 5.2,-5.2 z m 0.0263,-0.02413 c -2.64619,0 -5.385237,2.094693 -5.356273,5.247876 0.03046,3.316294 2.737252,5.185042 5.383423,5.185042 2.64616,0 5.06917,-1.951917 5.19004,-5.206483 0.11748,-3.163398 -2.57102,-5.226435 -5.21719,-5.226435 z m -0.43456,1.244935 c 0.003,-2.79e-4 0.005,2.79e-4 0.008,0 v 0.24581 c -9.75e-4,0.10705 0.04,0.210285 0.11514,0.286546 0.0751,0.07626 0.17783,0.119142 0.28488,0.119142 0.10706,0 0.20973,-0.04288 0.28488,-0.119142 0.0752,-0.07626 0.11663,-0.179502 0.11514,-0.286546 v -0.24581 c 1.89248,0.187407 3.39167,1.686666 3.57905,3.579047 h -0.24581 c -0.0139,-7.43e-4 -0.0278,-7.43e-4 -0.0417,0 -0.10612,0.0055 -0.20573,0.05292 -0.27679,0.131884 -0.0712,0.07896 -0.10798,0.182849 -0.10249,0.288975 0.006,0.106119 0.053,0.205637 0.13197,0.276786 0.0789,0.07106 0.18285,0.107886 0.28898,0.102401 h 0.24581 c -0.187408,1.892475 -1.686668,3.391666 -3.579048,3.579047 v -0.24581 c 0.002,-0.108259 -0.0395,-0.212798 -0.115699,-0.289714 -0.0761,-0.07701 -0.18024,-0.119791 -0.288501,-0.118675 -0.10677,0.0011 -0.2087,0.04492 -0.283119,0.121651 -0.0743,0.07664 -0.114951,0.179874 -0.112721,0.286739 v 0.245809 c -1.892479,-0.187408 -3.391669,-1.686667 -3.579049,-3.579047 h 0.245809 c 0.107051,0.0015 0.21029,-0.03999 0.28655,-0.11514 0.0763,-0.07515 0.11914,-0.17783 0.11914,-0.284882 0,-0.107052 -0.0429,-0.209728 -0.11914,-0.28488 -0.0763,-0.07515 -0.179499,-0.116629 -0.28655,-0.115141 h -0.245809 c 0.187129,-1.889691 1.682289,-3.388095 3.570949,-3.579047 z m 0.40412,1.4375 c -0.10677,0.0011 -0.2087,0.04492 -0.28312,0.12156 -0.0743,0.07673 -0.11495,0.179965 -0.11272,0.286737 v 2.133382 c 0,0.106119 0.0421,0.207776 0.11719,0.282833 0.0751,0.07506 0.17671,0.117187 0.28283,0.117187 h 1.59998 c 0.10705,0.0015 0.21028,-0.03999 0.28655,-0.11514 0.0763,-0.07515 0.11914,-0.177828 0.11914,-0.28488 0,-0.107053 -0.0429,-0.20973 -0.11914,-0.284881 -0.0763,-0.07515 -0.17951,-0.11663 -0.28655,-0.115142 h -1.19995 v -1.733356 c 0.002,-0.108167 -0.0395,-0.212705 -0.115701,-0.289715 -0.0761,-0.07692 -0.180249,-0.119697 -0.288499,-0.118582 z"
       id="path64"
       sodipodi:nodetypes="ssssssssssssssscccssscccccccccccccccccccssscccccccssscssscccscc"
       style="stroke-width:0.0238095;fill-opacity:1;fill:currentColor;"
       class="ColorScheme-Text" />
  </g>
</svg>
