<?xml version="1.0" encoding="UTF-8" standalone="no"?>
<!-- Created with Inkscape (http://www.inkscape.org/) -->

<svg
   id="svg4153"
   version="1.1"
   inkscape:version="1.1.2 (0a00cf5339, 2022-02-04)"
   width="22"
   height="22"
   sodipodi:docname="kpackagekit.svg"
   viewBox="0 0 22 22"
   xmlns:inkscape="http://www.inkscape.org/namespaces/inkscape"
   xmlns:sodipodi="http://sodipodi.sourceforge.net/DTD/sodipodi-0.dtd"
   xmlns="http://www.w3.org/2000/svg"
   xmlns:svg="http://www.w3.org/2000/svg"
   xmlns:rdf="http://www.w3.org/1999/02/22-rdf-syntax-ns#"
   xmlns:cc="http://creativecommons.org/ns#"
   xmlns:dc="http://purl.org/dc/elements/1.1/">
  <metadata
     id="metadata4159">
    <rdf:RDF>
      <cc:Work
         rdf:about="">
        <dc:format>image/svg+xml</dc:format>
        <dc:type
           rdf:resource="http://purl.org/dc/dcmitype/StillImage" />
      </cc:Work>
    </rdf:RDF>
  </metadata>
  <defs
     id="defs4157">
    <style
       type="text/css"
       id="current-color-scheme">.ColorScheme-Text { color:#d6dbf1; }
.ColorScheme-Background { color:#eff0f1; }
.ColorScheme-Highlight { color:#3daee9; }
.ColorScheme-ViewText { color:#31363b; }
.ColorScheme-ViewBackground { color:#fcfcfc; }
.ColorScheme-ViewHover { color:#93cee9; }
.ColorScheme-ViewFocus { color:#3daee9; }
.ColorScheme-ButtonText { color:#31363b; }
.ColorScheme-ButtonBackground { color:#eff0f1; }
.ColorScheme-ButtonHover { color:#93cee9; }
.ColorScheme-ButtonFocus { color:#3daee9; }
</style>
  </defs>
  <sodipodi:namedview
     pagecolor="#ffffff"
     bordercolor="#666666"
     borderopacity="1"
     objecttolerance="10"
     gridtolerance="10000"
     guidetolerance="10"
     inkscape:pageopacity="0"
     inkscape:pageshadow="2"
     inkscape:window-width="1920"
     inkscape:window-height="1015"
     id="namedview4155"
     inkscape:document-units="px"
     showgrid="false"
     inkscape:showpageshadow="false"
     borderlayer="true"
     inkscape:zoom="5.6568543"
     inkscape:cx="7.2478444"
     inkscape:cy="1.3258252"
     inkscape:window-x="0"
     inkscape:window-y="0"
     inkscape:window-maximized="1"
     inkscape:current-layer="svg4153"
     inkscape:pagecheckerboard="0"
     showguides="false"
     inkscape:lockguides="false">
    <inkscape:grid
       type="xygrid"
       id="grid4140"
       originx="-22"
       originy="3.9968026e-14" />
    <sodipodi:guide
       position="44,22"
       orientation="22,0"
       id="guide4146"
       inkscape:locked="false" />
    <sodipodi:guide
       position="44,-3.5527137e-14"
       orientation="0,22"
       id="guide4148"
       inkscape:locked="false" />
    <sodipodi:guide
       position="66,-3.5527137e-14"
       orientation="-22,0"
       id="guide4150"
       inkscape:locked="false" />
    <sodipodi:guide
       position="66,22"
       orientation="0,-22"
       id="guide4152"
       inkscape:locked="false" />
    <sodipodi:guide
       position="47,19"
       orientation="16,0"
       id="guide4154"
       inkscape:locked="false" />
    <sodipodi:guide
       position="62,3"
       orientation="0,16"
       id="guide4156"
       inkscape:locked="false" />
    <sodipodi:guide
       position="63,3"
       orientation="-16,0"
       id="guide4158"
       inkscape:locked="false" />
    <sodipodi:guide
       position="63,19"
       orientation="0,-16"
       id="guide4160"
       inkscape:locked="false" />
  </sodipodi:namedview>
  <inkscape:clipboard
     style="opacity:0.01000001;fill:#00000f;fill-opacity:0;stroke-width:1;stroke-linecap:butt;stroke-linejoin:miter;stroke-miterlimit:4;stroke-dasharray:none;stroke-dashoffset:0;stroke-opacity:1;stroke:none"
     min="0,0"
     max="22,22" />
  <g
     id="kpackagekit-inactive"
     transform="translate(-44)">
    <rect
       y="-2.6645353e-15"
       x="0"
       height="22"
       width="22"
       id="rect4214"
       style="fill:none;fill-opacity:0.599057;stroke:none" />
    <path
       style="fill:currentColor;fill-opacity:1;stroke-width:0.999999"
       d="M 10.999999,3 C 6.576,3 3,6.576 3,11.000013 c 0,4.424012 3.576,7.999974 7.999999,7.999974 4.424,0 8,-3.575962 8,-7.999974 0,-4.424013 -3.576,-8.000013 -8,-8.000013 z m 0,1.000025 c 3.869987,0 7,3.129978 7,6.999988 0,3.869971 -3.130013,6.999987 -7,6.999987 -3.870013,0 -7,-3.130016 -7,-6.999987 0,-3.87001 3.129987,-6.999988 7,-6.999988 z m 0.749987,5.718992 v 0 0 0 0 0 c 0,0 -0.03394,0.0076 0,0 z m -0.780994,4.499981 z"
       id="path58-06"
       sodipodi:nodetypes="ssssssssssccccccccccccccccc"
       class="ColorScheme-Text" />
    <path
       d="m 10.605167,6.416655 c -0.560604,0.0014 -1.117047,0.09902 -1.644633,0.288756 -0.108257,0.03893 -0.173212,0.149292 -0.154212,0.263055 0.01886,0.113386 0.116322,0.196914 0.231261,0.198425 2.243135,0.03402 4.027963,1.740511 4.285811,3.914419 h -1.176601 c -0.09616,7.6e-5 -0.182766,0.05783 -0.21959,0.146646 -0.03674,0.08882 -0.01644,0.190866 0.05147,0.258898 l 2.307769,2.307779 c 0.09287,0.0926 0.24336,0.0926 0.336234,0 l 2.307775,-2.307779 c 0.06792,-0.06803 0.08819,-0.170457 0.05147,-0.258898 -0.03685,-0.08882 -0.123436,-0.146646 -0.219594,-0.146646 h -1.30193 C 15.329111,8.493241 13.2265,6.416731 10.606191,6.416731 h -0.0011 z m 3.849459,6.873714 z M 7.541718,8.158866 c -0.06177,0.0011 -0.120669,0.02646 -0.164402,0.06954 l -2.30777,2.307779 c -0.06792,0.06803 -0.0882,0.170457 -0.05147,0.258898 0.03681,0.08882 0.123432,0.146645 0.219587,0.146645 h 1.301933 c 0.131074,2.588183 2.233788,4.664844 4.854202,4.66458 0.561773,0 1.11865,-0.100158 1.645584,-0.28989 h 1.11e-4 c 0.108257,-0.03893 0.173209,-0.149291 0.154213,-0.263055 -0.01886,-0.113386 -0.116319,-0.196913 -0.231266,-0.198425 -2.243213,-0.03402 -4.027962,-1.739603 -4.285805,-3.913285 h 1.1766 c 0.09616,-1.51e-4 0.182759,-0.05783 0.219587,-0.146646 0.03674,-0.08882 0.01644,-0.190866 -0.05147,-0.258898 L 7.713578,8.22833 C 7.668048,8.1826 7.606066,8.15765 7.541746,8.15879 Z m 0.0038,0.573846 v 7.6e-5 0 0 0 0 0 0 0 0 0 0 z"
       id="path2-36-15"
       sodipodi:nodetypes="ccccccccccccccscccccccccccccccccccccccccccccsccccccccccccccc"
       style="fill:currentColor;fill-opacity:1;stroke:none;stroke-width:0.0271703;stroke-opacity:1"
       class="ColorScheme-Text" />
  </g>
  <g
     id="kpackagekit-updates"
     transform="translate(-22)">
    <rect
       style="fill:none;fill-opacity:0.599057;stroke:none"
       id="rect4212"
       width="22"
       height="22"
       x="0"
       y="-2.6645353e-15" />
    <path
       style="fill:currentColor;fill-opacity:1;stroke-width:0.999999"
       d="M 10.999999,3 C 6.576,3 3,6.576 3,11.000013 c 0,4.424012 3.576,7.999974 7.999999,7.999974 4.424,0 8,-3.575962 8,-7.999974 0,-4.424013 -3.576,-8.000013 -8,-8.000013 z m 0,1.000025 c 3.869987,0 7,3.129978 7,6.999988 0,3.869971 -3.130013,6.999987 -7,6.999987 -3.870013,0 -7,-3.130016 -7,-6.999987 0,-3.87001 3.129987,-6.999988 7,-6.999988 z m 0.749987,5.718992 v 0 0 0 0 0 c 0,0 -0.03394,0.0076 0,0 z m -0.780994,4.499981 z"
       id="path58-06-0"
       sodipodi:nodetypes="ssssssssssccccccccccccccccc"
       class="ColorScheme-Text" />
    <path
       d="m 10.605167,6.416655 c -0.560604,0.0014 -1.117047,0.09902 -1.644633,0.288756 -0.108257,0.03893 -0.173212,0.149292 -0.154212,0.263055 0.01886,0.113386 0.116322,0.196914 0.231261,0.198425 2.243135,0.03402 4.027963,1.740511 4.285811,3.914419 h -1.176601 c -0.09616,7.6e-5 -0.182766,0.05783 -0.21959,0.146646 -0.03674,0.08882 -0.01644,0.190866 0.05147,0.258898 l 2.307769,2.307779 c 0.09287,0.0926 0.24336,0.0926 0.336234,0 l 2.307774,-2.307779 c 0.06793,-0.06803 0.08819,-0.170457 0.05147,-0.258898 -0.03685,-0.08882 -0.123435,-0.146646 -0.219594,-0.146646 H 15.460403 C 15.329117,8.493241 13.226506,6.416731 10.606197,6.416731 h -0.0012 z m 3.849459,6.873714 z M 7.541718,8.158866 c -0.06177,0.0011 -0.120669,0.02646 -0.164402,0.06954 l -2.30777,2.307779 c -0.06792,0.06803 -0.0882,0.170457 -0.05147,0.258898 0.03681,0.08882 0.123432,0.146645 0.219587,0.146645 h 1.301933 c 0.131074,2.588183 2.233788,4.664844 4.854202,4.66458 0.561773,0 1.11865,-0.100158 1.645584,-0.28989 h 1.11e-4 c 0.108257,-0.03893 0.173209,-0.149291 0.154213,-0.263055 -0.01886,-0.113386 -0.116319,-0.196913 -0.231266,-0.198425 -2.243213,-0.03402 -4.027962,-1.739603 -4.285805,-3.913285 h 1.1766 c 0.09616,-1.51e-4 0.182759,-0.05783 0.219587,-0.146646 0.03674,-0.08882 0.01644,-0.190866 -0.05147,-0.258898 L 7.713578,8.22833 C 7.668048,8.1826 7.606066,8.15765 7.541746,8.15879 Z m 0.0038,0.573846 v 7.6e-5 0 0 0 0 0 0 0 0 0 0 z"
       id="path2-36-15-4"
       sodipodi:nodetypes="ccccccccccccccscccccccccccccccccccccccccccccsccccccccccccccc"
       style="color:#d6dbf1;fill:#2a7fff;fill-opacity:1;stroke:none;stroke-width:0.0271703;stroke-opacity:1" />
  </g>
  <g
     id="kpackagekit-security">
    <rect
       style="fill:none;fill-opacity:0.599057;stroke:none"
       id="rect4208"
       width="22"
       height="22"
       x="0"
       y="-2.6645353e-15" />
    <path
       style="fill:currentColor;fill-opacity:1;stroke-width:0.999999"
       d="M 10.999999,3 C 6.576,3 3,6.576 3,11.000013 c 0,4.424012 3.576,7.999974 7.999999,7.999974 4.424,0 8,-3.575962 8,-7.999974 0,-4.424013 -3.576,-8.000013 -8,-8.000013 z m 0,1.000025 c 3.869987,0 7,3.129978 7,6.999988 0,3.869971 -3.130013,6.999987 -7,6.999987 -3.870013,0 -7,-3.130016 -7,-6.999987 0,-3.87001 3.129987,-6.999988 7,-6.999988 z m 0.749987,5.718992 v 0 0 0 0 0 c 0,0 -0.03394,0.0076 0,0 z m -0.780994,4.499981 z"
       id="path58-06-8"
       sodipodi:nodetypes="ssssssssssccccccccccccccccc"
       class="ColorScheme-Text" />
    <path
       d="m 10.605167,6.416655 c -0.560604,0.0014 -1.117047,0.09902 -1.644633,0.288756 -0.108257,0.03893 -0.173212,0.149292 -0.154212,0.263055 0.01886,0.113386 0.116322,0.196914 0.231261,0.198425 2.243135,0.03402 4.027963,1.740511 4.285811,3.914419 h -1.176601 c -0.09616,7.6e-5 -0.182766,0.05783 -0.21959,0.146646 -0.03674,0.08882 -0.01644,0.190866 0.05147,0.258898 l 2.307769,2.307779 c 0.09287,0.0926 0.24336,0.0926 0.336234,0 l 2.307775,-2.307779 c 0.06793,-0.06803 0.08819,-0.170457 0.05147,-0.258898 -0.03685,-0.08882 -0.123436,-0.146646 -0.219594,-0.146646 h -1.30193 c -0.13128,-2.588069 -2.233891,-4.664579 -4.8542,-4.664579 h -0.0011 z m 3.849459,6.873714 z M 7.541718,8.158866 c -0.06177,0.0011 -0.120669,0.02646 -0.164402,0.06954 l -2.30777,2.307779 c -0.06792,0.06803 -0.0882,0.170457 -0.05147,0.258898 0.03681,0.08882 0.123432,0.146645 0.219587,0.146645 h 1.301933 c 0.131074,2.588183 2.233788,4.664844 4.854202,4.66458 0.561773,0 1.11865,-0.100158 1.645584,-0.28989 h 1.11e-4 c 0.108257,-0.03893 0.173209,-0.149291 0.154213,-0.263055 -0.01886,-0.113386 -0.116319,-0.196913 -0.231266,-0.198425 -2.243213,-0.03402 -4.027962,-1.739603 -4.285805,-3.913285 h 1.1766 c 0.09616,-1.51e-4 0.182759,-0.05783 0.219587,-0.146646 0.03674,-0.08882 0.01644,-0.190866 -0.05147,-0.258898 L 7.713578,8.22833 C 7.668048,8.1826 7.606066,8.15765 7.541746,8.15879 Z m 0.0038,0.573846 v 7.6e-5 0 0 0 0 0 0 0 0 0 0 z"
       id="path2-36-15-7"
       sodipodi:nodetypes="ccccccccccccccscccccccccccccccccccccccccccccsccccccccccccccc"
       style="color:#d6dbf1;fill:#ff7f2a;fill-opacity:1;stroke:none;stroke-width:0.0271703;stroke-opacity:1" />
  </g>
  <g
     id="kpackagekit-important"
     transform="translate(22)">
    <rect
       y="0"
       x="0"
       height="22"
       width="22"
       id="rect4206"
       style="fill:none;fill-opacity:0.599057;stroke:none" />
    <path
       style="fill:currentColor;fill-opacity:1;stroke-width:0.999999"
       d="m 11,3 c -4.424,0 -8,3.576 -8,8.000013 0,4.424012 3.576,7.999974 8,7.999974 4.424,0 8,-3.575962 8,-7.999974 C 19,6.576 15.424,3 11,3 Z m 0,1.000025 c 3.86999,0 7,3.129978 7,6.999988 C 18,14.869984 14.86999,18 11,18 7.12999,18 4,14.869984 4,11.000013 4,7.130003 7.12999,4.000025 11,4.000025 Z m 0.74999,5.718992 v 0 0 0 0 0 c 0,0 -0.0339,0.0076 0,0 z m -0.781,4.499981 z"
       id="path58-06-04"
       sodipodi:nodetypes="ssssssssssccccccccccccccccc"
       class="ColorScheme-Text" />
    <path
       d="m 10.60517,6.416655 c -0.56061,0.0014 -1.11705,0.09902 -1.64464,0.288756 -0.10825,0.03893 -0.17321,0.149292 -0.15421,0.263055 0.0189,0.113386 0.11632,0.196914 0.23126,0.198425 2.24314,0.03402 4.02797,1.740511 4.28581,3.914419 h -1.1766 c -0.0962,7.6e-5 -0.18276,0.05783 -0.21959,0.146646 -0.0367,0.08882 -0.0164,0.190866 0.0515,0.258898 l 2.30777,2.307779 c 0.0929,0.0926 0.24336,0.0926 0.33624,0 l 2.30777,-2.307779 c 0.0679,-0.06803 0.0882,-0.170457 0.0515,-0.258898 -0.0369,-0.08882 -0.12344,-0.146646 -0.21959,-0.146646 H 15.46046 C 15.32917,8.493241 13.22656,6.416731 10.60625,6.416731 h -10e-4 z m 3.84946,6.873714 z M 7.54172,8.158866 c -0.0618,0.0011 -0.12067,0.02646 -0.1644,0.06954 l -2.30777,2.307779 c -0.0679,0.06803 -0.0882,0.170457 -0.0515,0.258898 0.0368,0.08882 0.12343,0.146645 0.21958,0.146645 h 1.30194 c 0.13107,2.588183 2.23378,4.664844 4.8542,4.66458 0.56177,0 1.11865,-0.100158 1.64558,-0.28989 h 1.1e-4 c 0.10826,-0.03893 0.17321,-0.149291 0.15422,-0.263055 C 13.17478,14.939977 13.07736,14.85645 12.96241,14.854938 10.7192,14.820918 8.93445,13.115335 8.6766,10.941653 h 1.1766102 c 0.0962,-1.51e-4 0.1827498,-0.05783 0.2195798,-0.146646 0.0367,-0.08882 0.0164,-0.190866 -0.0515,-0.258898 L 7.71352,8.22833 C 7.66802,8.1826 7.60601,8.15765 7.54169,8.15879 Z m 0.004,0.573846 v 7.6e-5 0 0 0 0 0 0 0 0 0 0 z"
       id="path2-36-15-8"
       sodipodi:nodetypes="ccccccccccccccscccccccccccccccccccccccccccccsccccccccccccccc"
       style="color:#d6dbf1;fill:#bf616a;fill-opacity:1;stroke:none;stroke-width:0.0271703;stroke-opacity:1"
       class="ColorScheme-Text" />
  </g>
</svg>
