<?xml version="1.0" encoding="UTF-8" standalone="no"?>
<svg
   width="32"
   height="32"
   version="1.1"
   id="svg12"
   sodipodi:docname="kteatime.svg"
   inkscape:version="1.1.2 (0a00cf5339, 2022-02-04)"
   xmlns:inkscape="http://www.inkscape.org/namespaces/inkscape"
   xmlns:sodipodi="http://sodipodi.sourceforge.net/DTD/sodipodi-0.dtd"
   xmlns="http://www.w3.org/2000/svg"
   xmlns:svg="http://www.w3.org/2000/svg"
   xmlns:rdf="http://www.w3.org/1999/02/22-rdf-syntax-ns#"
   xmlns:cc="http://creativecommons.org/ns#"
   xmlns:dc="http://purl.org/dc/elements/1.1/">
  <style id="current-color-scheme" type="text/css">.ColorScheme-Text { color:#d6dbf1; }
</style>
  <metadata
     id="metadata18">
    <rdf:RDF>
      <cc:Work
         rdf:about="">
        <dc:format>image/svg+xml</dc:format>
        <dc:type
           rdf:resource="http://purl.org/dc/dcmitype/StillImage" />
      </cc:Work>
    </rdf:RDF>
  </metadata>
  <defs
     id="defs16" />
  <sodipodi:namedview
     pagecolor="#ffffff"
     bordercolor="#666666"
     borderopacity="1"
     objecttolerance="10"
     gridtolerance="10"
     guidetolerance="10"
     inkscape:pageopacity="0"
     inkscape:pageshadow="2"
     inkscape:window-width="1920"
     inkscape:window-height="1015"
     id="namedview14"
     showgrid="false"
     inkscape:zoom="6.9384855"
     inkscape:cx="36.751536"
     inkscape:cy="13.187316"
     inkscape:window-x="0"
     inkscape:window-y="0"
     inkscape:window-maximized="1"
     inkscape:current-layer="svg12"
     inkscape:document-rotation="0"
     inkscape:lockguides="false"
     inkscape:pagecheckerboard="0">
    <inkscape:grid
       type="xygrid"
       id="grid864"
       originx="0"
       originy="0" />
  </sodipodi:namedview>
  <g
     id="kteatime">
    <rect
       style="opacity:0.00100002"
       width="32"
       height="32"
       x="0"
       y="0"
       id="rect7" />
    <path
       d="M 24.946374,25.726317 H 4.1035622 a 0.35870863,0.27241462 0 0 0 -0.064274,0.542632 c 2.3722336,0.333723 4.955257,0.792246 6.0734968,1.652327 a 0.35726449,0.2713179 0 0 0 0.253656,0.07872 h 8.306402 a 0.35726449,0.2713179 0 0 0 0.253656,-0.07872 C 20.055459,27.061195 22.634904,26.602672 25,26.268949 a 0.35870923,0.27241508 0 0 0 -0.0643,-0.542632 z"
       id="path6"
       style="stroke-width:0.311344;fill-opacity:1;fill:currentColor;"
       class="ColorScheme-Text" />
    <path
       d="m 12.627553,10.478764 c 0,0 -1.402948,-0.371427 -0.412686,-1.361908 0.99045,-0.9904759 1.834606,-2.0938091 1.815056,-2.8063515 C 14.010553,5.5271587 13.715414,4.9554437 13.137063,4.460009 12.560269,3.9649657 11.678948,4.0005627 11.678948,4.0005627 c 0,0 1.360712,0.041272 1.526572,1.1962415 0.164687,1.1557521 -0.577765,1.4855201 -1.196809,1.9807591 -0.618443,0.4950451 -1.320608,1.2375121 -1.155131,2.0222265 0.136513,0.6521007 0.453367,0.8252022 0.949378,1.1136972 0.49523,0.288693 0.824595,0.165277 0.824595,0.165277 z"
       id="path2"
       style="stroke-width:0.195593;fill-opacity:1;fill:currentColor;"
       class="ColorScheme-Text" />
    <path
       d="m 13.631728,12.033399 c 0,0 -0.34541,-0.410355 0.217101,-1.081428 0.56232,-0.671857 1.02703,-1.4051337 0.976963,-1.8481486 -0.0563,-0.4870249 -0.288688,-0.8056425 -0.659133,-1.1039226 0,0 0.129292,0.1220504 0.183457,0.5814967 0.05396,0.4543599 -0.378651,0.831264 -0.737357,1.1733542 -0.357143,0.3428733 -0.753601,0.8437863 -0.607303,1.3235733 0.122234,0.399008 0.626272,0.955075 0.626272,0.955075 z"
       id="path4-3"
       style="stroke-width:0.195593;fill-opacity:1;fill:currentColor;"
       class="ColorScheme-Text" />
    <path
       id="g987"
       d="M 23.482089,14.140435 H 22.381372 C 22.132581,13.200767 21.275296,12.506 20.258519,12.506 H 8.351153 c -1.210854,0 -2.195906,0.985072 -2.195906,2.195954 v 4.140256 c 0,3.131315 1.917422,5.822952 4.639735,6.963107 v 0 0 0 l 7.01819,4e-6 v 0 0 0 c 1.643423,-0.688009 2.993993,-1.940803 3.806272,-3.515165 h 1.862645 c 1.476474,0 2.677727,-1.20128 2.677727,-2.677784 v -2.794161 c 0,-1.476505 -1.201253,-2.677781 -2.677727,-2.67778 z m -9.177254,8.731952 c 0,0 -3.865525,-2.093853 -3.865525,-4.760687 0,-1.190215 0.964794,-2.155032 2.154987,-2.155032 0.697019,0 1.316624,0.330997 1.710538,0.844317 0.393918,-0.51332 1.013518,-0.844317 1.710543,-0.844317 1.190186,0 2.154987,0.964817 2.154987,2.155032 0,2.691052 -3.86553,4.760687 -3.86553,4.760687 z m 10.685848,-3.011041 c -0.06903,0.95752 -1.430458,1.21654 -1.622943,1.209398 l -0.979502,-0.03631 c 0.05471,-0.365343 0.06632,-1.811828 0.06632,-2.19213 l -0.01222,-3.540097 1.085907,0.03453 c 1.105205,0.03517 1.440081,0.955949 1.441286,1.148571 z"
       sodipodi:nodetypes="ccsssscccccccccssssccscssccscscsscs"
       style="stroke-width:0.0582118;fill-opacity:1;fill:currentColor;"
       class="ColorScheme-Text" />
    <path
       d="m 17.347239,12.033399 c 0,0 -1.402948,-0.371427 -0.412686,-1.361909 0.99045,-0.9904755 1.834606,-2.0938086 1.815055,-2.8063511 C 18.730238,7.0817931 18.4351,6.5100782 17.856749,6.0146434 17.279955,5.5196003 16.398634,5.5551972 16.398634,5.5551972 c 0,0 1.360712,0.041272 1.526572,1.1962414 0.164687,1.1557521 -0.577765,1.4855202 -1.196809,1.9807591 -0.618443,0.4950453 -1.320609,1.2375121 -1.155132,2.0222263 0.136514,0.652101 0.453368,0.825202 0.949379,1.113698 0.49523,0.288692 0.824595,0.165277 0.824595,0.165277 z"
       id="path2-3"
       style="stroke-width:0.195593;fill-opacity:1;fill:currentColor;"
       class="ColorScheme-Text" />
  </g>
  <g
     id="g1009">
    <g
       id="22-22-kteatime">
      <rect
         style="opacity:0.00100002"
         width="22"
         height="22"
         x="32"
         y="10"
         id="rect2" />
      <path
         d="m 49.007158,27 h -13.93606 a 0.23984214,0.23962887 0 0 0 -0.04299,0.477325 c 1.586138,0.293548 3.313217,0.696897 4.060902,1.453462 a 0.23887656,0.23866412 0 0 0 0.169601,0.06921 h 5.553884 a 0.23887656,0.23866412 0 0 0 0.169601,-0.06921 c 0.754852,-0.756565 2.479539,-1.159914 4.060906,-1.453462 A 0.23984257,0.23962936 0 0 0 49,27 Z"
         id="path6-6"
         style="stroke-width:0.238776;fill-opacity:1;fill:currentColor;"
         class="ColorScheme-Text" />
      <path
         d="m 40.668388,17.319174 c 0,0 -0.9353,-0.247617 -0.275124,-0.907938 0.660301,-0.660318 1.223073,-1.395873 1.21004,-1.870899 -0.01291,-0.522237 -0.209674,-0.90338 -0.595242,-1.233675 -0.38453,-0.330024 -0.972078,-0.306287 -0.972078,-0.306287 0,0 0.907143,0.02754 1.017716,0.797485 0.109792,0.770509 -0.385177,0.990358 -0.797874,1.320509 -0.412296,0.330031 -0.880407,0.825012 -0.770089,1.348156 0.09101,0.434734 0.302246,0.550137 0.63292,0.742469 0.330154,0.192465 0.549731,0.11018 0.549731,0.11018 z"
         id="path2-2"
         style="stroke-width:0.130393;fill-opacity:1;fill:currentColor;"
         class="ColorScheme-Text" />
      <path
         d="m 41.337839,18.3556 c 0,0 -0.230273,-0.273571 0.144735,-0.720957 0.37488,-0.447901 0.684687,-0.936753 0.651309,-1.232098 -0.03753,-0.324686 -0.192459,-0.537089 -0.439422,-0.735947 0,0 0.0862,0.08137 0.122304,0.387663 0.03597,0.302912 -0.252434,0.554175 -0.491572,0.782241 -0.238095,0.228577 -0.502401,0.56252 -0.404869,0.882385 0.08149,0.265998 0.417515,0.636713 0.417515,0.636713 z"
         id="path4-3-9"
         style="stroke-width:0.130393;fill-opacity:1;fill:currentColor;"
         class="ColorScheme-Text" />
      <path
         id="kteatime-6-1"
         d="M 47.904758,19.793618 H 47.170945 C 47.005085,19.167175 46.433561,18.704 45.755708,18.704 H 37.81745 c -0.807238,0 -1.463941,0.656707 -1.463941,1.463966 v 2.760176 c 0,2.087553 1.278284,3.881972 3.093163,4.642079 v 0 0 0 l 4.678802,3e-6 v 0 0 0 c 1.095617,-0.458676 1.995999,-1.293875 2.537519,-2.343449 h 1.241765 c 0.984319,0 1.785158,-0.800847 1.785158,-1.78519 v -1.862781 c 0,-0.984338 -0.800839,-1.785186 -1.785158,-1.785186 z m -6.11818,5.821313 c 0,0 -2.577021,-1.395903 -2.577021,-3.173792 0,-0.793483 0.643197,-1.436695 1.436661,-1.436695 0.46468,0 0.877751,0.220669 1.14036,0.56288 0.262613,-0.342211 0.67568,-0.56288 1.140364,-0.56288 0.793459,0 1.436661,0.643212 1.436661,1.436695 0,1.794033 -2.577025,3.173792 -2.577025,3.173792 z m 7.123911,-2.007364 c -0.04601,0.638353 -0.953642,0.811023 -1.081966,0.806266 l -0.652999,-0.02424 c 0.03646,-0.243563 0.0442,-1.207888 0.0442,-1.461426 l -0.0082,-2.360065 0.723945,0.02307 c 0.736805,0.02337 0.960051,0.637297 0.960855,0.76571 z"
         sodipodi:nodetypes="ccsssscccccccccssssccscssccscscsscs"
         style="stroke-width:0.0388082;fill-opacity:1;fill:currentColor;"
         class="ColorScheme-Text" />
      <path
         d="m 43.814851,18.3556 c 0,0 -0.935301,-0.247618 -0.275124,-0.90794 0.660301,-0.66032 1.223072,-1.395877 1.210039,-1.870904 -0.01291,-0.522232 -0.209673,-0.903379 -0.595241,-1.23366 -0.38453,-0.330038 -0.972078,-0.306305 -0.972078,-0.306305 0,0 0.907143,0.02754 1.017716,0.797503 0.109792,0.770495 -0.385177,0.990343 -0.797874,1.320506 -0.412296,0.330028 -0.880408,0.825005 -0.770089,1.348157 0.09101,0.434723 0.302245,0.550127 0.63292,0.742458 0.330154,0.192461 0.549731,0.110185 0.549731,0.110185 z"
         id="path2-3-2"
         style="stroke-width:0.130393;fill-opacity:1;fill:currentColor;"
         class="ColorScheme-Text" />
    </g>
  </g>
</svg>
