<?xml version="1.0" encoding="UTF-8" standalone="no"?>
<svg
   width="32"
   height="32"
   version="1.1"
   id="svg12"
   sodipodi:docname="ktorrent.svg"
   inkscape:version="1.1.2 (0a00cf5339, 2022-02-04)"
   xmlns:inkscape="http://www.inkscape.org/namespaces/inkscape"
   xmlns:sodipodi="http://sodipodi.sourceforge.net/DTD/sodipodi-0.dtd"
   xmlns="http://www.w3.org/2000/svg"
   xmlns:svg="http://www.w3.org/2000/svg"
   xmlns:rdf="http://www.w3.org/1999/02/22-rdf-syntax-ns#"
   xmlns:cc="http://creativecommons.org/ns#"
   xmlns:dc="http://purl.org/dc/elements/1.1/">
  <style
     id="current-color-scheme"
     type="text/css">.ColorScheme-Text { color:#d6dbf1; }
</style>
  <metadata
     id="metadata18">
    <rdf:RDF>
      <cc:Work
         rdf:about="">
        <dc:format>image/svg+xml</dc:format>
        <dc:type
           rdf:resource="http://purl.org/dc/dcmitype/StillImage" />
      </cc:Work>
    </rdf:RDF>
  </metadata>
  <defs
     id="defs16" />
  <sodipodi:namedview
     pagecolor="#ffffff"
     bordercolor="#666666"
     borderopacity="1"
     objecttolerance="10"
     gridtolerance="10"
     guidetolerance="10"
     inkscape:pageopacity="0"
     inkscape:pageshadow="2"
     inkscape:window-width="1920"
     inkscape:window-height="1015"
     id="namedview14"
     showgrid="false"
     inkscape:zoom="6.9384853"
     inkscape:cx="31.851332"
     inkscape:cy="17.078655"
     inkscape:window-x="0"
     inkscape:window-y="0"
     inkscape:window-maximized="1"
     inkscape:current-layer="svg12"
     inkscape:document-rotation="0"
     inkscape:pagecheckerboard="0"
     inkscape:lockguides="false">
    <inkscape:grid
       type="xygrid"
       id="grid848"
       originx="0"
       originy="0" />
  </sodipodi:namedview>
  <g
     id="ktorrent">
    <rect
       style="opacity:0.00100002"
       width="32"
       height="32"
       x="0"
       y="0"
       id="rect7" />
    <path
       style="fill:currentColor;fill-opacity:1;stroke-width:0.438789;enable-background:accumulate"
       d="m 14.210643,13 h 3.77237 v 4.999569 H 20.3 L 16.143692,25 11.8,17.999569 h 2.410643 z"
       fill-opacity="1"
       fill-rule="nonzero"
       stroke="none"
       marker="none"
       visibility="visible"
       display="inline"
       overflow="visible"
       id="path10"
       sodipodi:nodetypes="cccccccc"
       class="ColorScheme-Text" />
    <rect
       x="6.1999998"
       y="26.960051"
       width="19.759151"
       height="1.0399553"
       id="rect6"
       style="fill:currentColor;fill-opacity:1;stroke-width:0.0649975"
       class="ColorScheme-Text" />
    <path
       d="m 22.3145,9.4922101 c 0.0472,-0.1535498 0.0711,-0.3125003 0.0711,-0.4739003 0,-0.8865899 -0.72128,-1.6078798 -1.60787,-1.6078798 -0.11455,0 -0.22824,0.012 -0.33875,0.0357 C 19.92841,5.41246 18.11991,4 16.01044,4 13.59005,4 11.56494,5.9401099 11.44877,8.3456603 11.28565,8.3180603 11.11935,8.3041623 10.95304,8.3041623 9.324702,8.3041623 8,9.6288316 8,11.257082 c 0,1.62847 1.32467,2.953171 2.95304,2.953171 h 10.63197 c 1.33154,0 2.41499,-1.08345 2.41499,-2.414991 -1.3e-4,-1.05547 -0.68866,-1.9894094 -1.68539,-2.3031297 z"
       id="path64"
       style="fill:currentColor;fill-opacity:1;stroke-width:0.031397"
       class="ColorScheme-Text" />
  </g>
  <g
     id="22-22-ktorrent"
     transform="translate(32,10.000001)">
    <rect
       style="opacity:0.00100002"
       width="22"
       height="22"
       x="0"
       y="0"
       id="rect2" />
    <path
       style="fill:currentColor;fill-opacity:1;stroke-width:0.292526;enable-background:accumulate"
       d="m 9.7904264,8.9999991 h 2.5149126 v 3.3330449 h 1.544658 l -2.770872,4.666953 -2.8957936,-4.666953 h 1.607095 z"
       fill-opacity="1"
       fill-rule="nonzero"
       stroke="none"
       marker="none"
       visibility="visible"
       display="inline"
       overflow="visible"
       id="path10-0"
       sodipodi:nodetypes="cccccccc"
       class="ColorScheme-Text" />
    <rect
       x="4.4499998"
       y="18.306696"
       width="13.172765"
       height="0.69330335"
       id="rect6-4"
       style="fill:currentColor;fill-opacity:1;stroke-width:0.0433317"
       class="ColorScheme-Text" />
    <path
       d="m 15.192996,6.6614731 c 0.03147,-0.102367 0.0474,-0.208334 0.0474,-0.315934 0,-0.5910601 -0.480853,-1.0719191 -1.071913,-1.0719191 -0.07637,0 -0.15216,0.008 -0.225833,0.0238 C 13.60227,3.94164 12.396604,3 10.990291,3 9.3766984,3 8.0266254,4.293406 7.9491784,5.897106 c -0.108747,-0.0184 -0.219613,-0.02767 -0.330487,-0.02767 -1.085558,0 -1.968693,0.8831141 -1.968693,1.9686131 0,1.085647 0.883113,1.968781 1.968693,1.968781 H 14.70667 c 0.887693,0 1.609993,-0.7223 1.609993,-1.609994 -8.7e-5,-0.703647 -0.459107,-1.326272 -1.123593,-1.53542 z"
       id="path64-8"
       style="fill:currentColor;fill-opacity:1;stroke-width:0.0209313"
       class="ColorScheme-Text" />
  </g>
</svg>
