<?xml version="1.0" encoding="UTF-8" standalone="no"?>
<svg
   width="32"
   height="32"
   version="1.1"
   id="svg22"
   sodipodi:docname="mail.svg"
   inkscape:version="1.1.2 (0a00cf5339, 2022-02-04)"
   xmlns:inkscape="http://www.inkscape.org/namespaces/inkscape"
   xmlns:sodipodi="http://sodipodi.sourceforge.net/DTD/sodipodi-0.dtd"
   xmlns="http://www.w3.org/2000/svg"
   xmlns:svg="http://www.w3.org/2000/svg"
   xmlns:rdf="http://www.w3.org/1999/02/22-rdf-syntax-ns#"
   xmlns:cc="http://creativecommons.org/ns#"
   xmlns:dc="http://purl.org/dc/elements/1.1/">
  <style id="current-color-scheme" type="text/css">.ColorScheme-Highlight { color:#476382; }
.ColorScheme-Text { color:#d6dbf1; }
</style>
  <g
     id="22-22-mail-unread"
     transform="translate(32,42)">
    <rect
       style="opacity:0.00100002"
       width="22"
       height="22"
       x="0"
       y="0"
       id="rect2-6" />
    <path
       d="m 4.2009381,15.848076 c -0.2438675,-0.24011 -0.2438675,-0.629831 0,-0.869903 l 1.7678514,-1.740612 c 0.2439835,-0.240955 0.639648,-0.240955 0.8836324,0 0.2439842,0.240072 0.2439842,0.629793 0,0.869864 l -1.7678514,1.740651 c -0.2440233,0.240302 -0.6396491,0.240302 -0.8836324,0 z m 12.7143349,0 -1.76785,-1.740651 c -0.24379,-0.240071 -0.24379,-0.629792 0,-0.869864 0.24414,-0.240955 0.639609,-0.240955 0.883788,0 l 1.767892,1.740612 c 0.243749,0.240072 0.243749,0.629793 0,0.869903 -0.24418,0.240302 -0.639727,0.240302 -0.88383,0 z m 3.365433,-9.261085 -7.512971,6.781875 c -0.976291,0.961246 -2.559218,0.961246 -3.5355867,0 L 4.8240623,9.028586 4.5422652,8.751285 3.3385543,7.565929 l -0.00456,0.0015 C 3.2199994,7.427092 3.05746,7.307517 2.8752728,7.307517 c -0.3454296,0 -0.6251565,0.275571 -0.6251565,0.61537 v 1.733689 0.728329 6.153044 c 0,0.680253 0.5595312,1.230932 1.2501567,1.230932 h 14.999455 c 0.690624,0 1.24992,-0.550679 1.24992,-1.230932 V 9.153896 c 0,-0.340146 0.279884,-0.61537 0.625352,-0.61537 0.345195,0 0.625,0.275263 0.625,0.61537 v 7.384053 C 20.999967,17.897565 19.880278,19 18.499692,19 H 3.500274 C 2.1195312,18.999961 1,17.897527 1,16.537944 V 7.92292 C 1,6.903714 1.8398435,6.077387 2.8752738,6.077387 c 0.4824995,0 0.9179683,0.217264 1.2501173,0.532488 v -0.01054 l 5.9909759,5.898819 c 0.487852,0.481104 1.279297,0.481104 1.767266,0 L 19.396249,5.716281 C 19.641054,5.47621 19.758476,5.160987 19.756993,4.846417 h -0.0072 c 0,-0.679945 -0.559298,-0.61537 -1.249924,-0.61537 H 5.3749221 C 5.0302341,4.231047 4.749805,3.955515 4.749805,3.61537 4.749805,3.27557 5.0302341,3 5.3749221,3 H 18.499728 c 1.146521,0 2.111131,0.338031 2.40535,1.231009 v 0 c 0.213283,0.816442 0.02468,1.71719 -0.624372,2.355982 z M 2.8752738,4.231047 C 2.5298432,4.231047 2.2501173,3.955515 2.2501173,3.61537 2.2501173,3.27557 2.5298432,3 2.8752738,3 3.2205864,3 3.500274,3.275532 3.500274,3.61537 c 0,0.340145 -0.2796876,0.615677 -0.6250002,0.615677 z"
       id="path2-3"
       style="stroke-width:0.0387604;fill-opacity:1;fill:currentColor;"
       class="ColorScheme-Text" />
  </g>
  <metadata
     id="metadata28">
    <rdf:RDF>
      <cc:Work
         rdf:about="">
        <dc:format>image/svg+xml</dc:format>
        <dc:type
           rdf:resource="http://purl.org/dc/dcmitype/StillImage" />
      </cc:Work>
    </rdf:RDF>
  </metadata>
  <defs
     id="defs26" />
  <sodipodi:namedview
     pagecolor="#ffffff"
     bordercolor="#000000"
     borderopacity="1"
     objecttolerance="10"
     gridtolerance="10"
     guidetolerance="10"
     inkscape:pageopacity="0"
     inkscape:pageshadow="2"
     inkscape:window-width="1920"
     inkscape:window-height="1015"
     id="namedview24"
     showgrid="false"
     inkscape:zoom="4.90625"
     inkscape:cx="36.280255"
     inkscape:cy="34.343949"
     inkscape:window-x="0"
     inkscape:window-y="0"
     inkscape:window-maximized="1"
     inkscape:current-layer="svg22"
     inkscape:document-rotation="0"
     showguides="false"
     inkscape:showpageshadow="false"
     inkscape:lockguides="true"
     inkscape:pagecheckerboard="0">
    <inkscape:grid
       type="xygrid"
       id="grid884"
       originx="0"
       originy="32" />
  </sodipodi:namedview>
  <g
     id="mail-unread"
     transform="translate(0,32)">
    <rect
       style="opacity:0.00100002"
       width="32"
       height="32"
       x="0"
       y="0"
       id="rect7-3" />
    <path
       d="m 7.8411317,22.060095 c -0.2926415,-0.300137 -0.2926415,-0.787289 0,-1.087378 l 2.1214256,-2.175765 c 0.2927817,-0.301195 0.7675797,-0.301195 1.0603607,0 0.292782,0.300089 0.292782,0.78724 0,1.08733 l -2.1214253,2.175813 c -0.2928285,0.300377 -0.7675798,0.300377 -1.060361,0 z m 15.2572303,0 -2.121427,-2.175813 c -0.292548,-0.30009 -0.292548,-0.787241 0,-1.08733 0.29297,-0.301195 0.767532,-0.301195 1.060549,0 l 2.121474,2.175765 c 0.292498,0.300089 0.292498,0.78724 0,1.087378 -0.293017,0.300377 -0.767675,0.300377 -1.060596,0 z m 4.038523,-11.576357 -9.015579,8.477344 c -1.171551,1.201558 -3.071068,1.201558 -4.24271,0 L 8.5888824,13.535733 8.2507261,13.189106 6.8062702,11.707411 l -0.00551,0.0019 c -0.1367948,-0.175422 -0.3318417,-0.32489 -0.550467,-0.32489 -0.4145162,0 -0.7501892,0.344463 -0.7501892,0.769212 v 2.167112 0.91041 7.691306 c 0,0.850316 0.671439,1.538664 1.5001907,1.538664 H 24.999669 c 0.82875,0 1.499907,-0.688348 1.499907,-1.538664 v -9.230067 c 0,-0.425182 0.335861,-0.769212 0.750424,-0.769212 0.414234,0 0.75,0.344078 0.75,0.769212 v 9.230067 C 28,24.621956 26.656374,26 24.999669,26 H 7.0003335 C 5.3434401,25.999952 4,24.621908 4,22.92243 V 12.15365 c 0,-1.274008 1.0078143,-2.3069158 2.250332,-2.3069158 0.5790007,0 1.1015645,0.2715798 1.5001435,0.6656088 v -0.01318 l 7.1891835,7.373524 c 0.585423,0.60138 1.535158,0.60138 2.120722,0 L 26.075536,9.3953508 C 26.369302,9.0952625 26.510212,8.7012333 26.50843,8.3080217 h -0.0088 c 0,-0.8499316 -0.671157,-0.7692125 -1.499908,-0.7692125 H 9.2499153 c -0.4136259,0 -0.7501418,-0.344415 -0.7501418,-0.7695967 C 8.4997735,6.3444625 8.8362894,6 9.2499153,6 H 24.999708 c 1.375829,0 2.533362,0.4225383 2.886428,1.5387608 v 0 c 0.255937,1.0205525 0.02961,2.1464875 -0.749251,2.9449772 z M 6.250332,7.5388092 c -0.4145166,0 -0.7501892,-0.344415 -0.7501892,-0.7695967 C 5.5001428,6.3444625 5.8358154,6 6.250332,6 c 0.4143757,0 0.7500015,0.344415 0.7500015,0.7692125 0,0.4251817 -0.3356258,0.7695967 -0.7500015,0.7695967 z"
       id="path2"
       style="stroke-width:0.0474716;fill-opacity:1;fill:currentColor;"
       class="ColorScheme-Text" />
  </g>
  <g
     id="mail-unread-new"
     transform="translate(32,10)">
    <rect
       style="opacity:0.00100002"
       width="32"
       height="32"
       x="-32"
       y="-10"
       id="rect7-5" />
    <path
       d="m -24.158867,12.060095 c -0.292641,-0.300137 -0.292641,-0.787289 0,-1.087378 l 2.121427,-2.1757656 c 0.29278,-0.3011942 0.767579,-0.3011942 1.060361,0 0.292781,0.3000892 0.292781,0.7872412 0,1.0873304 l -2.121427,2.1758132 c -0.292828,0.300377 -0.76758,0.300377 -1.060361,0 z m 15.257236,0 -2.121428,-2.1758132 c -0.292548,-0.3000892 -0.292548,-0.7872412 0,-1.0873304 0.29297,-0.3011942 0.767532,-0.3011942 1.060549,0 l 2.121474,2.1757656 c 0.292499,0.300089 0.292499,0.787241 0,1.087378 -0.293017,0.300377 -0.767674,0.300377 -1.060595,0 z M -4.8631075,0.4837383 -13.878689,8.9610822 c -1.171551,1.2015578 -3.071069,1.2015578 -4.242712,0 l -5.289715,-5.4253499 -0.338156,-0.3466266 -1.444457,-1.481695 -0.0055,0.00192 c -0.136795,-0.1754216 -0.331841,-0.32489 -0.550467,-0.32489 -0.414516,0 -0.750189,0.3444634 -0.750189,0.7692125 V 4.3207645 5.2311753 12.92248 c 0,0.850318 0.671439,1.538665 1.500191,1.538665 h 17.999382 c 0.8287505,0 1.4999075,-0.688347 1.4999075,-1.538665 V 3.6924107 c 0,-0.4251817 0.3358609,-0.7692117 0.7504242,-0.7692117 C -4.3357657,2.923199 -4,3.2672773 -4,3.6924107 V 12.922477 C -3.999992,14.621955 -5.343618,16 -7.000324,16 H -24.999665 C -26.65656,15.999951 -28,14.621908 -28,12.92243 V 2.1536499 c 0,-1.2740075 1.007815,-2.3069158 2.250333,-2.3069158 0.579001,0 1.101565,0.27158 1.500143,0.6656092 v -0.013175 l 7.189187,7.373524 c 0.585422,0.6013799 1.535158,0.6013799 2.120722,0 l 9.0151584,-8.4773415 c 0.2937665,-0.3000884 0.4346761,-0.6941175 0.4328937,-1.0873292 h -0.00883 c 0,-0.8499316 -0.671157,-0.7692125 -1.4999081,-0.7692125 h -15.74978 c -0.413626,0 -0.750142,-0.344415 -0.750142,-0.7695966 0,-0.42475 0.336516,-0.7692125 0.750142,-0.7692125 h 15.749798 c 1.3758293,0 2.5333632,0.4225383 2.886429,1.5387608 v 0 c 0.2559368,1.0205525 0.029608,2.1464875 -0.7492515,2.9449775 z M -25.749667,-2.4611909 c -0.414517,0 -0.750189,-0.344415 -0.750189,-0.7695966 0,-0.42475 0.335672,-0.7692125 0.750189,-0.7692125 0.414376,0 0.750002,0.344415 0.750002,0.7692125 0,0.4251816 -0.335626,0.7695966 -0.750002,0.7695966 z"
       id="path2-6"
       style="stroke-width:0.0474716;fill-opacity:1;fill:currentColor;"
       class="ColorScheme-Highlight" />
  </g>
  <g
     id="22-22-mail-unread-new"
     transform="translate(32,10)">
    <rect
       style="opacity:0.00100002"
       width="22"
       height="22"
       x="0"
       y="4.7683716e-07"
       id="rect2" />
    <path
       d="m 4.2009381,15.848076 c -0.2438675,-0.24011 -0.2438675,-0.629831 0,-0.869903 l 1.7678514,-1.740612 c 0.2439835,-0.240955 0.639648,-0.240955 0.8836324,0 0.2439842,0.240072 0.2439842,0.629793 0,0.869864 l -1.7678514,1.740651 c -0.2440233,0.240302 -0.6396491,0.240302 -0.8836324,0 z m 12.7143349,0 -1.76785,-1.740651 c -0.24379,-0.240071 -0.24379,-0.629792 0,-0.869864 0.24414,-0.240955 0.639609,-0.240955 0.883788,0 l 1.767892,1.740612 c 0.243749,0.240072 0.243749,0.629793 0,0.869903 -0.24418,0.240302 -0.639727,0.240302 -0.88383,0 z m 3.365433,-9.261085 -7.512971,6.781875 c -0.976291,0.961246 -2.559218,0.961246 -3.535587,0 L 4.8240623,9.028586 4.5422652,8.751285 3.3385543,7.565929 l -0.00456,0.0015 C 3.2199994,7.427092 3.05746,7.307517 2.8752728,7.307517 c -0.3454296,0 -0.6251565,0.275571 -0.6251565,0.61537 v 1.733689 0.728329 6.153044 c 0,0.680253 0.5595312,1.230932 1.2501567,1.230932 h 14.999455 c 0.690624,0 1.24992,-0.550679 1.24992,-1.230932 V 9.153896 c 0,-0.340146 0.279884,-0.61537 0.625352,-0.61537 0.345195,0 0.625,0.275263 0.625,0.61537 v 7.384053 C 20.999967,17.897565 19.880278,19 18.499692,19 H 3.500274 C 2.1195312,18.999961 1,17.897527 1,16.537944 V 7.92292 C 1,6.903714 1.8398435,6.077387 2.8752738,6.077387 c 0.4824995,0 0.9179683,0.217264 1.2501173,0.532488 v -0.01054 l 5.9909759,5.898819 c 0.487852,0.481104 1.279297,0.481104 1.767266,0 L 19.396249,5.716281 C 19.641054,5.47621 19.758476,5.160987 19.756993,4.846417 h -0.0072 c 0,-0.679945 -0.559298,-0.61537 -1.249924,-0.61537 H 5.3749221 C 5.0302341,4.231047 4.749805,3.955515 4.749805,3.61537 4.749805,3.27557 5.0302341,3 5.3749221,3 H 18.499728 c 1.146521,0 2.111131,0.338031 2.40535,1.231009 v 0 c 0.213283,0.816442 0.02468,1.71719 -0.624372,2.355982 z M 2.8752738,4.231047 C 2.5298432,4.231047 2.2501173,3.955515 2.2501173,3.61537 2.2501173,3.27557 2.5298432,3 2.8752738,3 3.2205864,3 3.500274,3.275532 3.500274,3.61537 c 0,0.340145 -0.2796876,0.615677 -0.6250002,0.615677 z"
       id="path2-3-7"
       style="stroke-width:0.0387604;fill-opacity:1;fill:currentColor;"
       class="ColorScheme-Highlight" />
  </g>
</svg>
