<?xml version="1.0" encoding="UTF-8" standalone="no"?>
<svg
   width="32"
   height="32"
   version="1.1"
   id="svg12"
   sodipodi:docname="nepomuk.svg"
   inkscape:version="1.1.2 (0a00cf5339, 2022-02-04)"
   xmlns:inkscape="http://www.inkscape.org/namespaces/inkscape"
   xmlns:sodipodi="http://sodipodi.sourceforge.net/DTD/sodipodi-0.dtd"
   xmlns="http://www.w3.org/2000/svg"
   xmlns:svg="http://www.w3.org/2000/svg"
   xmlns:rdf="http://www.w3.org/1999/02/22-rdf-syntax-ns#"
   xmlns:cc="http://creativecommons.org/ns#"
   xmlns:dc="http://purl.org/dc/elements/1.1/">
  <style id="current-color-scheme" type="text/css">.ColorScheme-Text { color:#d6dbf1; }
</style>
  <g
     id="22-22-nepomuk"
     transform="translate(32.000002,10.000001)">
    <path
       style="opacity:0.00100002;fill:#d6dbf1;fill-opacity:1"
       d="M 0,0 V 22 H 22 V 0 Z"
       id="path2" />
    <path
       id="path3256-3"
       d="m 9.641682,3.0012643 c -1.292955,0.03516 -2.48606,0.865941 -2.921595,2.162883 -0.557485,1.660087 0.336408,3.459856 1.996423,4.017365 0.192232,0.06456 0.386429,0.111292 0.580262,0.13797 0.09861,0.0082 0.194177,0.02797 0.292159,0.06087 0.393266,0.1320757 0.678138,0.4442347 0.795323,0.8115877 0.120892,0.275335 0.143777,0.593563 0.04057,0.900865 -0.05237,0.155929 -0.130565,0.2959 -0.231291,0.41391 -0.0074,0.0087 -0.01667,0.01583 -0.02435,0.02435 -0.0093,0.0083 -0.01922,0.01601 -0.02841,0.02435 -0.691936,0.628962 -1.168773,1.489198 -1.306601,2.459112 -0.01031,0.05496 -0.02661,0.111829 -0.04463,0.166375 -0.217031,0.656617 -0.925939,1.012403 -1.582527,0.795359 -0.112962,-0.03733 -0.214571,-0.0905 -0.308392,-0.154199 h -0.0041 C 6.7282,14.711305 6.545544,14.619961 6.346712,14.554233 5.151967,14.159295 3.860616,14.808125 3.465695,16.002921 c -0.394924,1.194793 0.253879,2.486201 1.448624,2.881141 1.116076,0.368933 2.316709,-0.170404 2.791746,-1.217384 0.244436,-0.608563 0.926974,-0.930967 1.558184,-0.722315 0.227432,0.07518 0.41599,0.206779 0.559973,0.377388 0.754238,0.854321 1.856172,1.391875 3.083906,1.391875 2.270451,0 4.110522,-1.844204 4.110522,-4.114755 0,-0.84985 -0.260234,-1.637634 -0.701994,-2.292737 -0.133131,-0.232374 -0.194015,-0.505738 -0.154197,-0.791299 0.02673,-0.191679 0.09438,-0.368326 0.194775,-0.519417 l 0.255638,-0.344925 c 0.183577,-0.221968 0.438994,-0.378523 0.726352,-0.4342 l 0.0041,-0.0041 c 0.639675,-0.131279 1.158557,-0.655728 1.253852,-1.3391207 0.120973,-0.86755 -0.483726,-1.668576 -1.351238,-1.789553 -0.867514,-0.120978 -1.672564,0.483745 -1.793536,1.351295 -0.02479,0.177854 -0.02011,0.356415 0.01218,0.523474 0.01437,0.109241 0.01596,0.218355 0,0.332752 C 15.436962,9.489115 15.36358,9.6721 15.257636,9.826689 l -0.247525,0.33681 c -0.268134,0.320702 -0.687889,0.500205 -1.132117,0.438257 -0.02141,-0.003 -0.04393,-0.0082 -0.06493,-0.01217 -0.243307,-0.05475 -0.493162,-0.08784 -0.750686,-0.09739 -0.0162,-1.14e-4 -0.03245,-0.0033 -0.0487,-0.0041 -0.01627,-4.16e-4 -0.03238,2.22e-4 -0.0487,0 -0.09752,-0.0083 -0.195266,-0.02833 -0.29216,-0.06087 -0.392066,-0.131674 -0.673422,-0.437596 -0.791265,-0.803473 -0.122241,-0.2761227 -0.14826,-0.5962827 -0.04462,-0.9049067 0.04557,-0.1357 0.116063,-0.261827 0.198832,-0.369272 0.306632,-0.324062 0.546648,-0.718184 0.697935,-1.168688 0.557471,-1.660086 -0.33642,-3.459856 -1.996436,-4.017365 -0.363128,-0.121955 -0.73357,-0.172163 -1.095598,-0.162317 z m 0.117676,1.034775 c 0.209594,0.0047 0.419833,0.03933 0.628953,0.109565 1.11531,0.374571 1.717678,1.583176 1.343124,2.698533 -0.374556,1.115356 -1.583109,1.71775 -2.698418,1.343179 -1.115308,-0.374571 -1.717678,-1.583177 -1.343122,-2.698532 0.304326,-0.906228 1.16122,-1.472971 2.069463,-1.452745 z m 7.214715,3.692729 c 0.0611,-0.0039 0.119623,-6.67e-4 0.182601,0.0081 0.503838,0.07026 0.857464,0.534975 0.787208,1.038833 -0.07025,0.503859 -0.534951,0.8534437 -1.038791,0.7831847 -0.503833,-0.07026 -0.857464,-0.5349767 -0.787209,-1.0388347 0.06148,-0.440876 0.428503,-0.764112 0.856191,-0.791299 z m -4.065885,3.9646107 c 1.60521,10e-7 2.905364,1.300209 2.905364,2.905487 -10e-7,1.605277 -1.300154,2.909547 -2.905364,2.909547 -1.605209,0 -2.909421,-1.30427 -2.909421,-2.909547 0,-1.605278 1.304212,-2.905487 2.909421,-2.905487 z m -7.332392,3.623743 c 0.04737,-0.0021 0.09366,0.0013 0.142022,0.0041 0.773793,0.0445 1.367331,0.707323 1.322834,1.481151 -0.0445,0.773825 -0.707293,1.363331 -1.481088,1.318832 -0.773793,-0.04451 -1.367331,-0.707324 -1.322831,-1.481149 0.04172,-0.725465 0.628397,-1.291735 1.339063,-1.322892 z"
       style="stroke-width:0.810852;stroke:none;fill-rule:evenodd;fill-opacity:1;fill:currentColor;"
       inkscape:transform-center-x="1.9729777"
       inkscape:transform-center-y="-3.522136"
       class="ColorScheme-Text" />
  </g>
  <metadata
     id="metadata18">
    <rdf:RDF>
      <cc:Work
         rdf:about="">
        <dc:format>image/svg+xml</dc:format>
        <dc:type
           rdf:resource="http://purl.org/dc/dcmitype/StillImage" />
      </cc:Work>
    </rdf:RDF>
  </metadata>
  <defs
     id="defs16" />
  <sodipodi:namedview
     pagecolor="#ffffff"
     bordercolor="#666666"
     borderopacity="1"
     objecttolerance="10"
     gridtolerance="10"
     guidetolerance="10"
     inkscape:pageopacity="0"
     inkscape:pageshadow="2"
     inkscape:window-width="1920"
     inkscape:window-height="1015"
     id="namedview14"
     showgrid="false"
     inkscape:zoom="6.9384853"
     inkscape:cx="28.536488"
     inkscape:cy="20.3935"
     inkscape:window-x="0"
     inkscape:window-y="0"
     inkscape:window-maximized="1"
     inkscape:current-layer="svg12"
     inkscape:document-rotation="0"
     inkscape:pagecheckerboard="0"
     inkscape:lockguides="false">
    <inkscape:grid
       type="xygrid"
       id="grid1424"
       originx="32.000002"
       originy="10.000001" />
  </sodipodi:namedview>
  <g
     id="nepomuk">
    <path
       style="opacity:0.00100002;fill:#d6dbf1;fill-opacity:1"
       d="M -5.0000001e-7,-1e-6 V 32 H 32 V -1e-6 Z"
       id="path7" />
    <path
       id="path3256"
       d="m 13.437471,4.0018115 c -1.939437,0.05274 -3.7290975,1.298914 -4.3824015,3.244331 -0.836229,2.4901348 0.504613,5.1897925 2.9946405,6.0260585 0.288348,0.09684 0.579645,0.166938 0.870394,0.206955 0.147908,0.01228 0.291266,0.04195 0.43824,0.09131 0.5899,0.198114 1.017209,0.666354 1.192987,1.217385 0.181338,0.413003 0.215666,0.890345 0.06086,1.351299 -0.07855,0.233894 -0.195848,0.443851 -0.346938,0.620866 -0.01107,0.01309 -0.02501,0.02374 -0.03652,0.03652 -0.01388,0.01242 -0.02883,0.02401 -0.04261,0.03652 -1.037905,0.943446 -1.753162,2.233802 -1.959905,3.688676 -0.01546,0.08244 -0.03991,0.167744 -0.06694,0.249563 -0.325548,0.984927 -1.388912,1.518607 -2.3737952,1.19304 -0.1694433,-0.056 -0.3218583,-0.13575 -0.4625883,-0.231299 h -0.0061 c -0.249486,-0.166135 -0.52347,-0.303151 -0.821719,-0.401743 -1.79212,-0.592409 -3.729149,0.380838 -4.321533,2.173036 -0.592386,1.792192 0.380819,3.729308 2.17294,4.32172 1.674117,0.5534 3.4750703,-0.255607 4.1876275,-1.82608 0.366654,-0.912846 1.390464,-1.396454 2.33728,-1.083475 0.341149,0.112773 0.623987,0.31017 0.839961,0.566084 1.13136,1.281484 2.784264,2.087816 4.625869,2.087816 3.405683,0 6.165795,-2.766312 6.165795,-6.172144 0,-1.274778 -0.390352,-2.456456 -1.052993,-3.439112 -0.199698,-0.348563 -0.291024,-0.758609 -0.231297,-1.186951 0.04009,-0.28752 0.141575,-0.55249 0.292163,-0.779128 l 0.383459,-0.517388 c 0.275366,-0.332952 0.658491,-0.567786 1.089529,-0.651301 l 0.0061,-0.0061 c 0.959514,-0.19692 1.737839,-0.983595 1.880781,-2.008686 0.18146,-1.301328 -0.72559,-2.502869 -2.026861,-2.684335 -1.301274,-0.1814664 -2.50885,0.725619 -2.690309,2.026947 -0.03719,0.266781 -0.03016,0.534623 0.01827,0.785213 0.02156,0.163862 0.02394,0.327532 0,0.499129 -0.04143,0.297112 -0.151504,0.571591 -0.310419,0.803474 l -0.371289,0.505216 c -0.402202,0.481054 -1.031836,0.75031 -1.698179,0.657388 -0.03211,-0.0045 -0.0659,-0.01228 -0.09739,-0.01826 -0.364961,-0.08213 -0.739745,-0.131767 -1.126032,-0.146086 -0.0243,-1.71e-4 -0.04868,-0.005 -0.07305,-0.0061 -0.02441,-6.24e-4 -0.04857,3.34e-4 -0.07305,0 -0.146285,-0.01242 -0.2929,-0.04249 -0.43824,-0.09131 -0.588101,-0.197511 -1.010135,-0.656394 -1.186901,-1.205211 -0.183361,-0.414185 -0.22239,-0.894426 -0.06693,-1.357363 0.06836,-0.20355 0.174096,-0.392742 0.298249,-0.553909 0.459949,-0.486094 0.819974,-1.077279 1.046905,-1.753036 0.836208,-2.490134 -0.504632,-5.1897935 -2.99466,-6.0260585 -0.544693,-0.182933 -1.100358,-0.258245 -1.6434,-0.243476 z m 0.176514,1.552166 c 0.314391,0.0071 0.629751,0.059 0.943432,0.164347 1.672967,0.561858 2.576522,2.374768 2.014689,4.0478061 C 16.010271,11.439169 14.197438,12.342762 12.524472,11.780903 10.851506,11.219046 9.947949,9.406134 10.509784,7.7330974 10.966274,6.3737545 12.251618,5.5236375 13.613985,5.5539775 Z M 24.436079,11.09308 c 0.09165,-0.0058 0.179434,-0.001 0.273901,0.01214 0.755759,0.10539 1.286199,0.802464 1.180814,1.558253 -0.105379,0.75579 -0.802427,1.280169 -1.558189,1.174779 -0.755751,-0.105391 -1.286199,-0.802466 -1.180815,-1.558255 0.09222,-0.661315 0.642755,-1.14617 1.284289,-1.186951 z m -6.09884,5.946929 c 2.40782,10e-7 4.358055,1.950317 4.358055,4.358238 -2e-6,2.40792 -1.950235,4.364329 -4.358055,4.364329 -2.407818,0 -4.36414,-1.956409 -4.36414,-4.364329 0,-2.407921 1.956322,-4.358238 4.36414,-4.358238 z M 7.3386295,22.475633 c 0.07106,-0.0032 0.14049,0.002 0.213035,0.0061 1.160691,0.06675 2.051,1.060987 1.984253,2.221732 -0.06675,1.160739 -1.060942,2.044999 -2.221635,1.978251 -1.160693,-0.06676 -2.051002,-1.060988 -1.984252,-2.221728 0.06258,-1.088199 0.942598,-1.937606 2.008599,-1.984342 z"
       style="stroke-width:1.21628;stroke:none;fill-rule:evenodd;fill-opacity:1;fill:currentColor;"
       inkscape:transform-center-x="2.9594271"
       inkscape:transform-center-y="-5.283211"
       class="ColorScheme-Text" />
  </g>
</svg>
