<?xml version="1.0" encoding="UTF-8" standalone="no"?>
<svg
   width="8.4666662mm"
   height="8.4666662mm"
   viewBox="0 0 31.999999 31.999999"
   version="1.1"
   id="svg881"
   inkscape:version="1.1.2 (0a00cf5339, 2022-02-04)"
   sodipodi:docname="notification.svg"
   xmlns:inkscape="http://www.inkscape.org/namespaces/inkscape"
   xmlns:sodipodi="http://sodipodi.sourceforge.net/DTD/sodipodi-0.dtd"
   xmlns="http://www.w3.org/2000/svg"
   xmlns:svg="http://www.w3.org/2000/svg"
   xmlns:rdf="http://www.w3.org/1999/02/22-rdf-syntax-ns#"
   xmlns:cc="http://creativecommons.org/ns#"
   xmlns:dc="http://purl.org/dc/elements/1.1/">
  <style
     id="current-color-scheme"
     type="text/css">.ColorScheme-Highlight { color:#5e81ac; }
.ColorScheme-Text { color:#d6dbf1; }
</style>
  <defs
     id="defs875" />
  <sodipodi:namedview
     id="base"
     pagecolor="#ffffff"
     bordercolor="#000000"
     borderopacity="1"
     inkscape:pageopacity="0.0"
     inkscape:pageshadow="2"
     inkscape:zoom="4"
     inkscape:cx="30.5"
     inkscape:cy="-11.375"
     inkscape:document-units="px"
     inkscape:current-layer="layer1"
     showgrid="false"
     inkscape:window-width="1920"
     inkscape:window-height="1015"
     inkscape:window-x="0"
     inkscape:window-y="0"
     inkscape:window-maximized="1"
     inkscape:lockguides="false"
     inkscape:document-rotation="0"
     inkscape:pagecheckerboard="0"
     inkscape:showpageshadow="false">
    <inkscape:grid
       type="xygrid"
       id="grid866"
       originx="5.0000108"
       originy="-34.999994" />
  </sodipodi:namedview>
  <metadata
     id="metadata878">
    <rdf:RDF>
      <cc:Work
         rdf:about="">
        <dc:format>image/svg+xml</dc:format>
        <dc:type
           rdf:resource="http://purl.org/dc/dcmitype/StillImage" />
      </cc:Work>
    </rdf:RDF>
  </metadata>
  <g
     inkscape:label="Layer 1"
     inkscape:groupmode="layer"
     id="layer1"
     transform="translate(-204.82493,-721.24546)">
    <g
       id="notification-disabled">
      <path
         style="fill:none;stroke-width:1.45455"
         inkscape:connector-curvature="0"
         d="m 204.82493,641.24546 h 32 v 32 h -32 z"
         id="path25" />
      <path
         d="m 226.02494,663.01446 -3.84636,-1.5e-4 c -0.26733,0 -0.51711,0.13341 -0.66555,0.35603 l -2.28806,3.43442 -2.28805,-3.43189 c -0.14839,-0.22261 -0.39821,-0.3583 -0.66556,-0.3583 h -3.84413 c -2.00226,-0.0227 -2.00226,-0.0189 -2.00226,-2.01917 l -1e-5,-9.15001 c 0,-2.00001 0,-2.00001 2.01697,-1.9999 h 10.78306 v -1.59999 l -12.40002,-4e-5 v 0 c -1.00002,0 -2.00004,0.99999 -2.00004,1.99998 v 12.34998 c 0,0.99999 1.00002,1.99998 2.00004,1.99998 v 0 l 5.01759,0.0189 2.72001,4.07441 v -1.9e-4 c 0.1482,0.22262 0.39804,0.35641 0.66555,0.35641 0.26753,0 0.51712,-0.13342 0.66557,-0.35641 l 2.72,-4.0744 5.01125,-0.0189 v 0 c 1,0 2,-0.99999 2,-1.99998 l -1e-5,-7.95084 h -1.60001 l 6e-5,6.35959 c -4e-5,1.99144 -4e-5,2.01049 -2.00004,2.01048 z"
         id="path2-2-6-3"
         style="fill:currentColor;fill-opacity:1;stroke-width:0.0457141"
         sodipodi:nodetypes="cscccscccccccccccccccsccccccccc"
         class="ColorScheme-Text" />
      <path
         d="m 228.82459,645.24546 c -1.06087,0 -2.07818,0.42142 -2.82834,1.17158 -0.75016,0.75016 -1.17159,1.76746 -1.17159,2.82833 0,1.06088 0.42143,2.07818 1.17159,2.82834 0.75017,0.75016 1.76747,1.17161 2.82834,1.17161 1.06088,0 2.07818,-0.42145 2.82834,-1.17161 0.75016,-0.75016 1.17159,-1.76746 1.17159,-2.82834 -0.001,-1.06049 -0.42303,-2.07711 -1.17301,-2.82693 -0.74979,-0.74997 -1.76641,-1.17177 -2.82692,-1.17298 z m 0,6.39988 c -0.6366,0 -1.24692,-0.25285 -1.69711,-0.70285 -0.45,-0.45017 -0.70285,-1.06053 -0.70285,-1.69712 0,-0.63662 0.25285,-1.24694 0.70285,-1.69712 0.45017,-0.44999 1.06051,-0.70284 1.69711,-0.70284 0.63661,0 1.24693,0.25285 1.69712,0.70284 0.44999,0.45018 0.70284,1.0605 0.70284,1.69712 0,0.63659 -0.25285,1.24695 -0.70284,1.69712 -0.45018,0.45 -1.06051,0.70285 -1.69712,0.70285 z"
         id="path4-7-0-5"
         style="fill:#bf616a;fill-opacity:1;stroke-width:0.0457134" />
      <path
         d="m 213.62486,654.0453 h 11.1998 v 1.59995 h -11.1998 z"
         id="path6-3-0-6-6"
         style="fill:currentColor;fill-opacity:1;stroke-width:0.0457134"
         class="ColorScheme-Text" />
      <path
         d="m 213.62486,658.04521 h 5.5999 v 1.59999 h -5.5999 z"
         id="path8-9-2-2"
         style="fill:currentColor;fill-opacity:1;stroke-width:0.0457134"
         class="ColorScheme-Text" />
      <circle
         id="circle-transparent-6-3-6-9"
         cx="228.82481"
         cy="649.24548"
         r="2.5"
         style="fill:#bf616a;fill-opacity:1;stroke-width:0.3125" />
    </g>
    <g
       id="notification-progress-active"
       transform="translate(248.82493,685.24546)">
      <path
         style="fill:none"
         inkscape:connector-curvature="0"
         id="empty-rectangle"
         d="M 1,1 H 23 V 23 H 1 Z" />
      <circle
         id="circle-blue"
         cx="12"
         cy="12"
         r="8"
         class="ColorScheme-ButtonFocus  ColorScheme-Highlight"
         style="fill-opacity:1;fill:currentColor;" />
    </g>
    <g
       id="notification-progress-inactive"
       transform="translate(248.82493,725.24546)">
      <path
         style="fill:none"
         inkscape:connector-curvature="0"
         id="path10"
         d="M 1,1 H 23 V 23 H 1 Z" />
      <circle
         id="circle-transparent"
         cx="12"
         cy="12"
         r="8"
         style="fill-opacity:1;fill:currentColor;opacity:0.4;"
         class="ColorScheme-Highlight" />
    </g>
    <path
       inkscape:connector-curvature="0"
       id="expander-bottom"
       d="m 191.82493,709.24546 2,-2 2,2 z"
       class="ColorScheme-Text"
       style="fill-opacity:1;fill:currentColor;" />
    <path
       inkscape:connector-curvature="0"
       id="expander-top"
       d="m 191.82493,703.24546 2,2 2,-2 z"
       class="ColorScheme-Text"
       style="fill-opacity:1;fill:currentColor;" />
    <path
       inkscape:connector-curvature="0"
       id="expander-right"
       d="m 196.82493,704.24546 -2,2 2,2 z"
       class="ColorScheme-Text"
       style="fill-opacity:1;fill:currentColor;" />
    <path
       inkscape:connector-curvature="0"
       id="expander-left"
       d="m 190.82493,704.24546 2,2 -2,2 z"
       class="ColorScheme-Text"
       style="fill-opacity:1;fill:currentColor;" />
    <g
       id="notification-empty"
       transform="translate(248.82493,645.24546)">
      <path
         style="fill:none"
         inkscape:connector-curvature="0"
         id="path31"
         d="M 1,1 H 23 V 23 H 1 Z" />
      <path
         inkscape:connector-curvature="0"
         id="circle-outline"
         d="m 12,4 a 8,8 0 0 0 -8,8 8,8 0 0 0 8,8 8,8 0 0 0 8,-8 8,8 0 0 0 -8,-8 z m 0,1 a 7,7 0 0 1 7,7 7,7 0 0 1 -7,7 7,7 0 0 1 -7,-7 7,7 0 0 1 7,-7 z"
         class="ColorScheme-Text"
         style="fill-opacity:1;fill:currentColor;" />
    </g>
    <g
       id="notification-inactive">
      <path
         style="fill:none;stroke-width:1.45455"
         inkscape:connector-curvature="0"
         d="m 204.82493,684.24546 h 32 v 32 h -32 z"
         id="path14-1" />
      <path
         d="m 230.82589,688.24657 -20.00191,0.008 v 0 c -0.99953,0 -1.99905,0.99963 -1.99905,1.99923 l 0.0114,14.82648 c 0,0.99959 0.99953,1.99918 1.99905,1.99918 v 0 l 6.11142,-0.001 3.2072,4.81092 1.9e-4,-1.9e-4 c 0.14832,0.22252 0.39784,0.35627 0.66524,0.35627 0.26739,0 0.51687,-0.13337 0.66524,-0.35627 l 3.20722,-4.81092 6.13399,10e-4 h 10e-6 c 0.99953,0 1.99905,-0.99959 1.99905,-1.99926 v -14.83532 c 0,-0.99959 -0.99952,-1.99923 -1.99905,-1.99923 z m 0.39982,15.23378 c 0,1.99923 0,1.99923 -1.99772,1.99946 h -4.96396 c -0.26739,-1.9e-4 -0.51688,0.13337 -0.66538,0.35589 l -2.77939,4.17122 -2.77939,-4.16876 c -0.14851,-0.22254 -0.39803,-0.35589 -0.66538,-0.35589 h -6.95031 l -0.0386,-13.63711 c 0,-1.9992 0,-1.9992 2.01883,-1.99017 l 16.82221,-0.008 c 1.99905,0 1.99905,0 1.98769,1.96765 z"
         id="path2-3-3"
         style="fill:currentColor;fill-opacity:1;stroke-width:0.0456946"
         sodipodi:nodetypes="ccccccccccscccccccccccccccsccccc"
         class="ColorScheme-Text" />
      <path
         d="m 214.42495,693.0452 h 12.80002 v 1.59999 h -12.80002 z"
         id="path4-5-6"
         style="fill:currentColor;fill-opacity:1;stroke-width:0.0457145"
         class="ColorScheme-Text" />
      <path
         d="m 214.42495,697.04523 h 12.80002 v 1.59999 h -12.80002 z"
         id="path6-6-7"
         style="fill:currentColor;fill-opacity:1;stroke-width:0.0457145"
         class="ColorScheme-Text" />
      <path
         d="m 214.42495,701.04522 h 6.40001 v 1.60002 h -6.40001 z"
         id="path8-2-5"
         style="fill:currentColor;fill-opacity:1;stroke-width:0.0457145"
         class="ColorScheme-Text" />
    </g>
    <g
       id="notification-active">
      <path
         style="fill:none;stroke-width:1.45455"
         inkscape:connector-curvature="0"
         d="m 204.82493,721.24546 h 32 v 32 h -32 z"
         id="path14" />
      <path
         d="m 230.62486,723.74546 c -1.06087,0 -2.07818,0.42142 -2.82834,1.17159 -0.75016,0.75016 -1.17159,1.76746 -1.17159,2.82834 0,1.06087 0.42143,2.07818 1.17159,2.82834 0.75017,0.75015 1.76747,1.17159 2.82834,1.17159 1.06088,0 2.07818,-0.42143 2.82834,-1.17159 0.75016,-0.75017 1.17159,-1.76747 1.17159,-2.82834 -10e-4,-1.06051 -0.42303,-2.07713 -1.17301,-2.82693 -0.74979,-0.74997 -1.76641,-1.17177 -2.82692,-1.173 z m 0,6.39988 c -0.6366,0 -1.24692,-0.25285 -1.69711,-0.70284 -0.45,-0.45017 -0.70285,-1.06051 -0.70285,-1.69711 0,-0.63661 0.25285,-1.24693 0.70285,-1.69712 0.45017,-0.44999 1.06051,-0.70284 1.69711,-0.70284 0.63661,0 1.24693,0.25285 1.69712,0.70284 0.44999,0.45018 0.70284,1.06051 0.70284,1.69712 0,0.6366 -0.25285,1.24692 -0.70284,1.69711 -0.45018,0.44999 -1.06051,0.70284 -1.69712,0.70284 z"
         id="path4"
         style="fill:#00d4aa;fill-opacity:1;stroke-width:0.0457135" />
      <path
         d="m 213.62485,734.0453 h 11.1998 v 1.59998 h -11.1998 z"
         id="path6-3"
         style="fill:currentColor;fill-opacity:1;stroke-width:0.0457135"
         class="ColorScheme-Text" />
      <path
         d="m 213.62485,738.04523 h 5.5999 v 1.59998 h -5.5999 z"
         id="path8"
         style="fill:currentColor;fill-opacity:1;stroke-width:0.0457135"
         class="ColorScheme-Text" />
      <circle
         id="circle-transparent-6"
         cx="230.62532"
         cy="727.74585"
         r="2.5"
         style="fill:#00d4aa;fill-opacity:1;stroke-width:0.3125" />
      <path
         d="m 228.67129,742.28683 -4.4381,-1.5e-4 c -0.30863,0 -0.5968,0.1539 -0.76796,0.41077 l -2.6401,3.96282 -2.64008,-3.95997 c -0.17144,-0.25686 -0.45967,-0.41336 -0.76798,-0.41336 h -4.43554 c -2.31045,-0.0259 -2.31045,-0.0221 -2.31045,-2.32994 l -1e-5,-10.5576 c 0,-2.30789 0,-2.30789 2.3274,-2.30779 h 12.44211 v -1.84611 l -14.30807,-4e-5 v 0 c -1.15362,0 -2.30758,1.15394 -2.30758,2.30755 v 14.25018 c 0,1.15389 1.15396,2.30783 2.30758,2.30783 v 0 l 5.78984,0.0221 3.13828,4.7014 v -2e-4 c 0.17093,0.25687 0.45949,0.41114 0.76796,0.41114 0.30882,0 0.59682,-0.15391 0.76799,-0.41114 l 3.1386,-4.70138 5.7822,-0.0221 v 0 c 1.15373,0 2.30755,-1.15393 2.30755,-2.30787 l -1e-5,-9.17409 h -1.84612 l 6e-5,7.33799 c -4e-5,2.29806 -4e-5,2.31998 -2.30757,2.31997 z"
         id="path2-2-6-3-1"
         style="fill:currentColor;fill-opacity:1;stroke-width:0.0527487"
         sodipodi:nodetypes="cscccscccccccccccccccsccccccccc"
         class="ColorScheme-Text" />
      <path
         d="m 213.62493,730.04546 h 12.80002 v 1.59999 h -12.80002 z"
         id="path4-5-6-3"
         style="fill:currentColor;fill-opacity:1;stroke-width:0.0457145"
         class="ColorScheme-Text" />
    </g>
  </g>
</svg>
