<?xml version="1.0" encoding="UTF-8" standalone="no"?>
<svg
   sodipodi:docname="phone.svg"
   inkscape:version="1.1.2 (0a00cf5339, 2022-02-04)"
   id="svg"
   viewBox="0 0 32.000015 31.999973"
   height="31.999973"
   width="32.000015"
   version="1.1"
   xmlns:inkscape="http://www.inkscape.org/namespaces/inkscape"
   xmlns:sodipodi="http://sodipodi.sourceforge.net/DTD/sodipodi-0.dtd"
   xmlns="http://www.w3.org/2000/svg"
   xmlns:svg="http://www.w3.org/2000/svg"
   xmlns:rdf="http://www.w3.org/1999/02/22-rdf-syntax-ns#"
   xmlns:cc="http://creativecommons.org/ns#"
   xmlns:dc="http://purl.org/dc/elements/1.1/">
  <style id="current-color-scheme" type="text/css">.ColorScheme-Text { color:#d6dbf1; }
</style>
  <sodipodi:namedview
     inkscape:document-rotation="0"
     fit-margin-bottom="0"
     fit-margin-right="0"
     fit-margin-left="0"
     fit-margin-top="0"
     inkscape:snap-bbox-midpoints="true"
     inkscape:snap-bbox="true"
     inkscape:current-layer="svg"
     inkscape:window-maximized="1"
     inkscape:window-y="0"
     inkscape:window-x="0"
     inkscape:cy="44.375"
     inkscape:cx="1.5"
     inkscape:zoom="4"
     showgrid="false"
     id="namedview10"
     inkscape:window-height="1015"
     inkscape:window-width="1920"
     inkscape:pageshadow="2"
     inkscape:pageopacity="0"
     guidetolerance="10"
     gridtolerance="10"
     objecttolerance="10"
     borderopacity="1"
     bordercolor="#000000"
     pagecolor="#ffffff"
     showguides="true"
     inkscape:lockguides="false"
     inkscape:pagecheckerboard="0">
    <inkscape:grid
       spacingy="1.0666667"
       spacingx="1.0666667"
       originy="-27.733348"
       originx="-104.26665"
       empopacity="0.07843137"
       empcolor="#0000ff"
       opacity="0.03921569"
       color="#0000ff"
       snapvisiblegridlinesonly="true"
       enabled="true"
       visible="true"
       empspacing="4"
       id="grid2987"
       type="xygrid" />
  </sodipodi:namedview>
  <defs
     id="defs81">
    <style
       id="current-color-scheme"
       type="text/css" />
  </defs>
  <metadata
     id="metadata34">
    <rdf:RDF>
      <cc:Work
         rdf:about="">
        <dc:format>image/svg+xml</dc:format>
        <dc:type
           rdf:resource="http://purl.org/dc/dcmitype/StillImage" />
      </cc:Work>
    </rdf:RDF>
  </metadata>
  <g
     id="22-22-phone-battery"
     transform="translate(7.562474,73.281212)">
    <rect
       y="-34.5"
       x="-2.999994"
       height="22"
       width="22"
       id="rect3054"
       style="fill:#000000;fill-opacity:0;stroke:none" />
    <path
       style="fill:#bf616a;fill-opacity:1;fill-rule:evenodd;stroke:none;stroke-width:0.71"
       d="m 8.654779,-27.200001 -2.581773,3.872694 h 1.29085 v 3.227306 L 9.94563,-23.972767 H 8.654779 Z"
       id="path3072"
       inkscape:connector-curvature="0"
       sodipodi:nodetypes="ccccccc" />
    <path
       d="M 11.022592,-31.100001 H 4.9193253 c -0.6406743,0 -1.1633297,0.522655 -1.1633297,1.16333 v 13.67334 c 0,0.640674 0.5226554,1.163329 1.1633297,1.163329 h 6.1032667 c 0.640674,0 1.16333,-0.522655 1.16333,-1.163329 v -13.67334 c 0,-0.640675 -0.522656,-1.16333 -1.16333,-1.16333 z m -4.6027398,0.927292 h 3.068493 c 0.118019,0 0.2023183,0.0843 0.2023183,0.202318 0,0.118019 -0.084299,0.202318 -0.2023183,0.202318 h -3.068493 c -0.118019,0 -0.2023182,-0.0843 -0.2023182,-0.202318 0,-0.101159 0.084299,-0.202318 0.2023182,-0.202318 z m 1.5342465,14.061116 c -0.337197,0 -0.6069547,-0.269757 -0.6069547,-0.606954 0,-0.337197 0.2697577,-0.606955 0.6069547,-0.606955 0.337197,0 0.6069547,0.269758 0.6069547,0.606955 -0.01686,0.337197 -0.2866175,0.606954 -0.6069547,0.606954 z m 3.6754473,-2.2255 H 4.3123707 v -10.503688 h 7.3171753 z"
       id="path10-2-6"
       style="stroke-width:0.168599;fill-opacity:1;fill:currentColor;"
       class="ColorScheme-Text" />
  </g>
  <g
     id="22-22-phone"
     transform="translate(7.562474,73.281212)">
    <rect
       style="fill:#000000;fill-opacity:0;stroke:none"
       id="rect3841"
       width="22"
       height="22"
       x="-54.999996"
       y="-34.5" />
    <path
       d="m -40.977408,-31.100001 h -6.103267 c -0.640674,0 -1.163329,0.522655 -1.163329,1.16333 v 13.67334 c 0,0.640674 0.522655,1.163329 1.163329,1.163329 h 6.103267 c 0.640674,0 1.16333,-0.522655 1.16333,-1.163329 v -13.67334 c 0,-0.640675 -0.522656,-1.16333 -1.16333,-1.16333 z m -4.60274,0.927292 h 3.068493 c 0.118019,0 0.202318,0.0843 0.202318,0.202318 0,0.118019 -0.0843,0.202318 -0.202318,0.202318 h -3.068493 c -0.118019,0 -0.202318,-0.0843 -0.202318,-0.202318 0,-0.101159 0.0843,-0.202318 0.202318,-0.202318 z m 1.534247,14.061116 c -0.337197,0 -0.606955,-0.269757 -0.606955,-0.606954 0,-0.337197 0.269758,-0.606955 0.606955,-0.606955 0.337197,0 0.606954,0.269758 0.606954,0.606955 -0.01686,0.337197 -0.286617,0.606954 -0.606954,0.606954 z m 3.675447,-2.2255 h -7.317175 v -10.503688 h 7.317175 z"
       id="path10-2-6-9"
       style="stroke-width:0.168599;fill-opacity:1;fill:currentColor;"
       class="ColorScheme-Text" />
  </g>
  <g
     id="16-16-phone"
     transform="translate(7.562474,73.281212)">
    <rect
       style="fill:#566060;fill-opacity:0;stroke:none"
       id="rect3889"
       width="16"
       height="16"
       x="-51.999996"
       y="-4.2628317e-13"
       ry="2.9278411e-07" />
    <g
       id="g16-7-2-2-2"
       transform="matrix(0.12644889,0,0,0.12644889,69.557324,-118.26902)">
      <path
         d="m -880.91223,953.5 h -36.2 c -3.8,0 -6.9,3.1 -6.9,6.9 v 81.1 c 0,3.8 3.1,6.9 6.9,6.9 h 36.2 c 3.8,0 6.9,-3.1 6.9,-6.9 v -81.1 c 0,-3.8 -3.1,-6.9 -6.9,-6.9 z m -27.3,5.5 h 18.2 c 0.7,0 1.2,0.5 1.2,1.2 0,0.7 -0.5,1.2 -1.2,1.2 h -18.2 c -0.7,0 -1.2,-0.5 -1.2,-1.2 0,-0.6 0.5,-1.2 1.2,-1.2 z m 9.1,83.4 c -2,0 -3.6,-1.6 -3.6,-3.6 0,-2 1.6,-3.6 3.6,-3.6 2,0 3.6,1.6 3.6,3.6 -0.1,2 -1.7,3.6 -3.6,3.6 z m 21.8,-13.2 h -43.4 v -62.3 h 43.4 z"
         id="path10-2-6-9-2"
         style="fill-opacity:1;fill:currentColor;"
         class="ColorScheme-Text" />
    </g>
  </g>
  <g
     id="16-16-phone-battery"
     transform="translate(7.562474,73.281212)">
    <rect
       ry="2.9278411e-07"
       y="-4.2628317e-13"
       x="4.7402793e-13"
       height="16"
       width="16"
       id="rect3060"
       style="fill:#566060;fill-opacity:0;stroke:none" />
    <path
       sodipodi:nodetypes="ccccccc"
       inkscape:connector-curvature="0"
       id="path3863"
       d="M 8.4181432,4.9 6.2,8.227244 H 7.3090402 V 11 l 2.218144,-3.3273057 h -1.109041 z"
       style="fill:#bf616a;fill-opacity:1;fill-rule:evenodd;stroke:none;stroke-width:0.7625" />
    <g
       id="g16-7-2-2-2-9"
       transform="matrix(0.12644889,0,0,0.12644889,121.55732,-118.26902)">
      <path
         d="m -880.91223,953.5 h -36.2 c -3.8,0 -6.9,3.1 -6.9,6.9 v 81.1 c 0,3.8 3.1,6.9 6.9,6.9 h 36.2 c 3.8,0 6.9,-3.1 6.9,-6.9 v -81.1 c 0,-3.8 -3.1,-6.9 -6.9,-6.9 z m -27.3,5.5 h 18.2 c 0.7,0 1.2,0.5 1.2,1.2 0,0.7 -0.5,1.2 -1.2,1.2 h -18.2 c -0.7,0 -1.2,-0.5 -1.2,-1.2 0,-0.6 0.5,-1.2 1.2,-1.2 z m 9.1,83.4 c -2,0 -3.6,-1.6 -3.6,-3.6 0,-2 1.6,-3.6 3.6,-3.6 2,0 3.6,1.6 3.6,3.6 -0.1,2 -1.7,3.6 -3.6,3.6 z m 21.8,-13.2 h -43.4 v -62.3 h 43.4 z"
         id="path10-2-6-9-2-2"
         style="fill-opacity:1;fill:currentColor;"
         class="ColorScheme-Text" />
    </g>
  </g>
  <g
     id="phone"
     transform="translate(-52)">
    <rect
       width="32.000015"
       height="31.999973"
       rx="0"
       ry="0"
       x="-2.9711913e-07"
       y="-3.8330079e-08"
       id="rect3860"
       style="opacity:0.01;fill:#eff0f1;fill-opacity:0;stroke:none" />
    <path
       d="M 10.26955,6.9663805 C 10.11963,6.9663805 10,7.0882675 10,7.2385615 v 0.534415 c 0,0.152552 0.12076,0.272181 0.26955,0.272181 v 0.808845 C 10.11963,8.8540025 10,8.9736365 10,9.1212965 v 1.0836595 c 0,0.145403 0.12076,0.267107 0.26955,0.267107 V 11.01134 C 10.11963,11.01134 10,11.130974 10,11.278634 v 1.083469 c 0,0.145589 0.12076,0.267294 0.26955,0.267294 V 26.651876 C 10.26955,27.395617 10.87393,28 11.61917,28 h 9.16614 c 0.74489,0 1.34961,-0.603612 1.34961,-1.348124 V 5.6176745 c 0,-0.7435475 -0.60419,-1.3481225 -1.34961,-1.3481225 H 20.51688 C 20.51688,4.119634 20.39669,4 20.24846,4 h -2.15981 c -0.14558,0 -0.26842,0.120573 -0.26842,0.269552 h -6.2008 c -0.7449,0 -1.34962,0.603612 -1.34962,1.3481225 z m 4.98877,19.5505725 c 0,-0.52122 0.42361,-0.943723 0.94392,-0.943723 0.52122,0 0.94372,0.423606 0.94372,0.943723 0,0.52122 -0.42361,0.943917 -0.94372,0.943917 -0.52142,0 -0.94392,-0.423606 -0.94392,-0.943917 z M 10.80897,6.1573915 H 21.5955 V 25.033806 H 10.80897 Z m 4.17964,-0.9437246 c 0,-0.07449 0.06,-0.1348695 0.1375,-0.1348695 h 2.15206 c 0.076,0 0.1375,0.06264 0.1375,0.1348695 0,0.07449 -0.06,0.1348702 -0.1375,0.1348702 h -2.15206 c -0.0758,0 -0.1375,-0.06264 -0.1375,-0.1348702 z"
       fill-rule="evenodd"
       id="path76"
       style="stroke-width:0.0481541;fill-opacity:1;fill:currentColor;"
       class="ColorScheme-Text" />
  </g>
  <g
     id="phone-battery">
    <rect
       style="opacity:0.01;fill:#eff0f1;fill-opacity:0;stroke:none"
       id="rect3038"
       y="0"
       x="0"
       ry="0"
       rx="0"
       height="31.999973"
       width="32.000015" />
    <path
       sodipodi:nodetypes="ccccccc"
       inkscape:connector-curvature="0"
       id="path4444"
       d="M 17.313559,9.55 12.95,16.0954 h 2.181719 V 21.55 l 4.36356,-6.54552 h -2.18172 z"
       style="fill:#bf616a;fill-opacity:1;fill-rule:evenodd;stroke:none" />
    <path
       d="m 10.269551,6.9663798 c -0.14992,0 -0.26955,0.121887 -0.26955,0.272181 v 0.534415 c 0,0.152552 0.12076,0.272181 0.26955,0.272181 v 0.808845 c -0.14992,0 -0.26955,0.119634 -0.26955,0.267294 v 1.0836602 c 0,0.145403 0.12076,0.267107 0.26955,0.267107 v 0.539277 c -0.14992,0 -0.26955,0.119634 -0.26955,0.267294 v 1.083469 c 0,0.145589 0.12076,0.267294 0.26955,0.267294 v 14.022479 c 0,0.743741 0.60438,1.348124 1.34962,1.348124 h 9.16614 c 0.74489,0 1.34961,-0.603612 1.34961,-1.348124 V 5.6176738 c 0,-0.743547 -0.60419,-1.348122 -1.34961,-1.348122 h -0.26843 c 0,-0.149918 -0.12019,-0.269552 -0.26842,-0.269552 h -2.15981 c -0.14558,0 -0.26842,0.120573 -0.26842,0.269552 h -6.2008 c -0.7449,0 -1.34962,0.603612 -1.34962,1.348122 z m 4.98877,19.5505732 c 0,-0.52122 0.42361,-0.943723 0.94392,-0.943723 0.52122,0 0.94372,0.423606 0.94372,0.943723 0,0.52122 -0.42361,0.943917 -0.94372,0.943917 -0.52142,0 -0.94392,-0.423606 -0.94392,-0.943917 z M 10.808971,6.1573908 h 10.78653 V 25.033806 h -10.78653 z m 4.17964,-0.943724 c 0,-0.07449 0.06,-0.13487 0.1375,-0.13487 h 2.15206 c 0.076,0 0.1375,0.06264 0.1375,0.13487 0,0.07449 -0.06,0.13487 -0.1375,0.13487 h -2.15206 c -0.0758,0 -0.1375,-0.06264 -0.1375,-0.13487 z"
       fill-rule="evenodd"
       id="path76-3"
       style="stroke-width:0.0481541;fill-opacity:1;fill:currentColor;"
       class="ColorScheme-Text" />
  </g>
</svg>
