<?xml version="1.0" encoding="UTF-8" standalone="no"?>
<svg
   width="32"
   height="32"
   version="1.1"
   id="svg12"
   sodipodi:docname="plasmavault_error.svg"
   inkscape:version="1.2 (dc2aedaf03, 2022-05-15)"
   xmlns:inkscape="http://www.inkscape.org/namespaces/inkscape"
   xmlns:sodipodi="http://sodipodi.sourceforge.net/DTD/sodipodi-0.dtd"
   xmlns="http://www.w3.org/2000/svg"
   xmlns:svg="http://www.w3.org/2000/svg"
   xmlns:rdf="http://www.w3.org/1999/02/22-rdf-syntax-ns#"
   xmlns:cc="http://creativecommons.org/ns#"
   xmlns:dc="http://purl.org/dc/elements/1.1/">
  <g
     id="plasmavault_error">
    <g
       id="g3535">
      <rect
         style="opacity:0.00100002"
         width="32"
         height="32"
         x="0"
         y="0"
         id="rect7" />
      <path
         style="color:#d6dbf1;fill:#bf616a;fill-opacity:1;stroke:none;stroke-width:1.51477"
         d="M 7.789952,4 C 5.701296,4.01077 4.010769,5.701296 4,7.789952 V 24.210048 C 4.01077,26.298704 5.701296,27.989231 7.789952,28 H 24.210048 C 26.298704,27.989231 27.989231,26.298704 28,24.210048 V 10.390811 C 27.98923,8.302155 26.298704,7.010769 24.210048,7 H 17 L 15.679,5.263317 15.121,4.607422 14.615501,4.001515 Z m 0,1 H 13.625 L 15.186569,7 9,13 H 5 V 7.789952 C 5,6.390305 6.391682,4.937962 7.789952,5 Z M 12.689,11 H 27 V 24.210048 C 27,25.609695 25.609695,27 24.210048,27 H 7.789952 C 6.39314,27.00336 4.996638,25.60686 5,24.210048 V 14 h 4.748548 v 0 h 0.01212 z"
         class="ColorScheme-Text "
         id="path4-6"
         sodipodi:nodetypes="cccccccccccccsccccssccssccccccc" />
      <path
         d="M 24.041344,17.882663 H 23.71201 l -9.75e-4,-1.641327 c -9.75e-4,-1.788 -1.456001,-3.242672 -3.243998,-3.241335 -1.788001,0.0016 -3.242664,1.456005 -3.241336,3.244005 l 0.0035,1.64133 H 17.112 C 16.497351,17.886936 15.998673,18.385326 16.000003,19 v 4.886674 C 16.000003,24.501342 16.5,25 17.114673,25 l 6.930672,-0.0043 c 0.61466,0 1.113328,-0.498665 1.111986,-1.113331 v -4.887967 c 0,-0.614663 -0.499984,-1.112002 -1.114658,-1.112002 z m -5.618658,0.0034 -0.0035,-1.641329 c 0,-1.129335 0.917336,-2.048003 2.046669,-2.049337 1.129333,0 2.04799,0.918666 2.04799,2.046666 l 0.0035,1.641336 z"
         id="path2-3-0"
         style="color:#d6dbf1;fill:#bf616a;fill-opacity:1;stroke-width:0.13333"
         class="ColorScheme-Text " />
    </g>
  </g>
  <metadata
     id="metadata18">
    <rdf:RDF>
      <cc:Work
         rdf:about="">
        <dc:format>image/svg+xml</dc:format>
        <dc:type
           rdf:resource="http://purl.org/dc/dcmitype/StillImage" />
      </cc:Work>
    </rdf:RDF>
  </metadata>
  <defs
     id="defs16" />
  <sodipodi:namedview
     pagecolor="#ffffff"
     bordercolor="#666666"
     borderopacity="1"
     objecttolerance="10"
     gridtolerance="10"
     guidetolerance="10"
     inkscape:pageopacity="0"
     inkscape:pageshadow="2"
     inkscape:window-width="1920"
     inkscape:window-height="1002"
     id="namedview14"
     showgrid="false"
     inkscape:zoom="9.8125"
     inkscape:cx="17.732484"
     inkscape:cy="15.847134"
     inkscape:window-x="0"
     inkscape:window-y="0"
     inkscape:window-maximized="1"
     inkscape:current-layer="svg12"
     inkscape:document-rotation="0"
     inkscape:lockguides="false"
     inkscape:pagecheckerboard="0"
     inkscape:showpageshadow="2"
     inkscape:deskcolor="#d1d1d1">
    <inkscape:grid
       type="xygrid"
       id="grid868"
       originx="0"
       originy="0" />
  </sodipodi:namedview>
  <g
     id="22-22-plasmavault_error"
     transform="translate(32,10)">
    <rect
       style="opacity:0.00100002"
       width="22"
       height="22"
       x="0"
       y="0"
       id="rect2" />
    <path
       style="color:#d6dbf1;fill:#bf616a;fill-opacity:1;stroke:none;stroke-width:1.00985"
       d="m 5.5266348,2.9999996 c -1.392438,0.00718 -2.519456,1.134197 -2.526635,2.526635 V 16.473365 c 0.0072,1.392438 1.134197,2.519456 2.526635,2.526635 H 16.473365 C 17.865803,18.992821 18.992821,17.865803 19,16.473365 V 7.2605406 C 18.9928,5.8681026 17.865803,5.0071786 16.473365,4.9999996 H 12 l -1.080787,-1.157789 -0.438274,-0.437263 -0.403938,-0.403938 z m 0,1 h 3.956576 l 0.9745022,1 -3.4577132,4 h -3 v -3.473365 c 0,-0.933098 0.594278,-1.489452 1.526635,-1.526635 z m 3.473365,4 H 18 V 16.473365 C 18,17.406463 17.406463,18 16.473365,18 H 5.5266348 c -0.931209,0.0022 -1.528877,-0.595426 -1.526635,-1.526635 V 9.9999996 h 3.3 v 0 0 z"
       class="ColorScheme-Text"
       id="path4-8"
       sodipodi:nodetypes="cccccccccccccsccccssccssccccccc" />
    <path
       d="M 16.360896,12.255109 H 16.14134 l -6.5e-4,-1.094218 c -6.5e-4,-1.1920004 -0.970667,-2.1617824 -2.162665,-2.1608904 -1.192001,0.0011 -2.161776,0.97067 -2.160891,2.1626704 l 0.0023,1.09422 h -0.07813 C 11.331567,12.257991 10.999115,12.590217 11.000002,13 v 3.257783 C 11.000002,16.667561 11.333333,17 11.743115,17 l 4.620448,-0.0029 c 0.409774,0 0.742219,-0.332443 0.741324,-0.742221 v -3.258614 c 0,-0.409775 -0.333322,-0.741335 -0.743105,-0.741335 z m -3.745772,0.0023 -0.0023,-1.09422 c 0,-0.75289 0.611557,-1.3653354 1.364446,-1.3662244 0.752888,0 1.365326,0.6124444 1.365326,1.3644444 l 0.0023,1.094224 z"
       id="path2-3-0-7"
       style="color:#d6dbf1;fill:#bf616a;fill-opacity:1;stroke-width:0.0888867"
       class="ColorScheme-Text" />
  </g>
</svg>
