<?xml version="1.0" encoding="UTF-8" standalone="no"?>
<svg
   width="32"
   height="32"
   version="1.1"
   id="svg12"
   sodipodi:docname="printer.svg"
   inkscape:version="1.1.2 (0a00cf5339, 2022-02-04)"
   xmlns:inkscape="http://www.inkscape.org/namespaces/inkscape"
   xmlns:sodipodi="http://sodipodi.sourceforge.net/DTD/sodipodi-0.dtd"
   xmlns="http://www.w3.org/2000/svg"
   xmlns:svg="http://www.w3.org/2000/svg"
   xmlns:rdf="http://www.w3.org/1999/02/22-rdf-syntax-ns#"
   xmlns:cc="http://creativecommons.org/ns#"
   xmlns:dc="http://purl.org/dc/elements/1.1/">
  <style
     id="current-color-scheme"
     type="text/css">.ColorScheme-Text { color:#d6dbf1; }
</style>
  <g
     id="22-22-printer"
     transform="translate(32,10.000001)">
    <rect
       style="opacity:0.00100002"
       width="22"
       height="22"
       x="0"
       y="0"
       id="rect2" />
    <path
       sodipodi:nodetypes="ccccsccscccccccccccccccccccsccccccccccccccscscccsccccccccccscccccsccccccccccc"
       inkscape:connector-curvature="0"
       style="fill:currentColor;fill-opacity:1;stroke-width:0.00201524"
       id="path4-9"
       d="m 6,2.999999 v 0 c -0.6415067,0 -1,0.3499274 -1,1 v 3 L 3.5631305,7 C 2.3559681,7.0000008 2.1957614,7.121468 1.9808598,7.186298 1.6877935,7.273858 1.3949313,7.4834 1.2386032,7.712046 0.99227232,8.07402 1.0000272,7.959597 1.0000272,11.472079 v 3.203839 l 0.093674,0.217105 c 0.1602068,0.38466 0.4298039,0.643753 0.843892,0.811506 0.1602065,0.06865 0.3085761,0.07622 1.5745145,0.08756 L 5,15.8 v 2.199999 c 0,0.683967 0.2872321,1 1,1 l 5.005498,-9.2e-5 L 16,18.999999 c 0.723403,0 1,-0.292363 1,-1 v -2.209304 l 1.51459,0.0018 1.414308,-0.01135 0.25776,-0.121984 c 0.30878,-0.148452 0.546949,-0.38864 0.691438,-0.689522 l 0.105514,-0.217105 0.01164,-3.272293 C 21.006878,7.853528 21.018713,8.036406 20.749117,7.678412 20.581156,7.453745 20.315438,7.274648 20.018494,7.18311 19.811348,7.12222 19.639508,7.0000008 18.440102,7 L 17,6.999999 v -3 c 0,-0.6955989 -0.277756,-1 -1,-1 l -4.990837,1.5e-5 z m 10,3 v 3 H 11 6 v -3 -2 h 5 5 z M 4.809273,10.637695 c 0.062449,0.05711 0.097757,0.137108 0.097757,0.209543 0,0.07243 -0.035103,0.152431 -0.097757,0.209542 -0.058574,0.06089 -0.1406142,0.09532 -0.2149014,0.09532 -0.074285,0 -0.1563293,-0.03423 -0.2149012,-0.09532 -0.1953094,-0.186658 -0.058574,-0.514205 0.2149012,-0.514205 0.074286,-2e-4 0.1563289,0.03423 0.2149014,0.09512 z m 13.502259,-0.04577 c 0.171841,0.129547 0.183677,0.33909 0.02737,0.48376 -0.183677,0.167555 -0.500006,0.02289 -0.500006,-0.228646 0,-0.228448 0.296737,-0.388441 0.472658,-0.255114 z M 16.99886,10.71391 c 0.06244,0.05711 0.09776,0.137109 0.09776,0.209543 0,0.07243 -0.03511,0.152431 -0.09776,0.209543 l -0.09369,0.09532 h -0.902465 -0.902462 l -0.09389,-0.09532 c -0.06244,-0.05711 -0.09776,-0.137109 -0.09776,-0.209544 0,-0.07243 0.0351,-0.152431 0.09776,-0.209543 l 0.09369,-0.09532 h 0.902463 0.902463 z M 16,15.21527 v 2.784729 H 11 6 v -2 -3 h 5 5 v 2 z"
       class="ColorScheme-Text" />
    <path
       inkscape:connector-curvature="0"
       style="fill:currentColor;fill-opacity:1;stroke-width:0.00198996"
       id="path6-5"
       d="m 7,13.999999 v 0 0 0.5 l 2,10e-7 1.404547,-10e-7 v 0 L 10,13.999999 v 0 0 l -1.000001,-1e-6 z"
       class="ColorScheme-Text"
       sodipodi:nodetypes="cccccccccccc" />
    <path
       inkscape:connector-curvature="0"
       style="fill:currentColor;fill-opacity:1;stroke-width:0.00198996"
       id="path8-0"
       d="m 11.286683,13.999999 v 0 H 11 l 0.488773,0.5 H 13 15 v -0.5 0 0 0 h -2 z"
       class="ColorScheme-Text"
       sodipodi:nodetypes="cccccccccccc" />
    <path
       inkscape:connector-curvature="0"
       style="fill:currentColor;fill-opacity:1;stroke-width:0.00198996"
       id="path10-4"
       d="m 7,14.999999 v 0 0 1 h 4 4 v -0.784116 -0.215884 0 h -4 z"
       class="ColorScheme-Text"
       sodipodi:nodetypes="cccccccccccc" />
    <path
       inkscape:connector-curvature="0"
       style="fill:currentColor;fill-opacity:1;stroke-width:0.00198996"
       id="path12-8"
       d="m 7,16.999999 v 0 0 0.5 h 3 2.593599 L 12,16.999999 v 0 0 h -2 z"
       class="ColorScheme-Text"
       sodipodi:nodetypes="ccccccccccc" />
    <path
       inkscape:connector-curvature="0"
       style="fill:currentColor;fill-opacity:1;stroke-width:0.00198996"
       id="path14-7"
       d="M 14.284913,16.999999 H 12.984 L 13.580963,17.5 H 14.273526 15 v -0.500001 0 z"
       class="ColorScheme-Text"
       sodipodi:nodetypes="cccccccc" />
  </g>
  <metadata
     id="metadata18">
    <rdf:RDF>
      <cc:Work
         rdf:about="">
        <dc:format>image/svg+xml</dc:format>
        <dc:type
           rdf:resource="http://purl.org/dc/dcmitype/StillImage" />
      </cc:Work>
    </rdf:RDF>
  </metadata>
  <defs
     id="defs16" />
  <sodipodi:namedview
     pagecolor="#ffffff"
     bordercolor="#000000"
     borderopacity="1"
     objecttolerance="10"
     gridtolerance="10"
     guidetolerance="10"
     inkscape:pageopacity="0"
     inkscape:pageshadow="2"
     inkscape:window-width="1920"
     inkscape:window-height="1009"
     id="namedview14"
     showgrid="false"
     inkscape:zoom="11.313709"
     inkscape:cx="23.069359"
     inkscape:cy="16.484427"
     inkscape:window-x="0"
     inkscape:window-y="0"
     inkscape:window-maximized="1"
     inkscape:current-layer="svg12"
     inkscape:document-rotation="0"
     inkscape:lockguides="false"
     inkscape:pagecheckerboard="0"
     inkscape:showpageshadow="false">
    <inkscape:grid
       type="xygrid"
       id="grid10216"
       originx="0"
       originy="-4.6325681e-08" />
  </sodipodi:namedview>
  <g
     id="printer">
    <rect
       style="opacity:0.00100002"
       width="32"
       height="32"
       x="0"
       y="4.6325681e-08"
       id="rect7"
       ry="2.173614" />
    <path
       sodipodi:nodetypes="ccccsccscccccscscccccccccccsccccccccccccccscccccscccccccsccscccccscccccccccc"
       inkscape:connector-curvature="0"
       style="fill:currentColor;fill-opacity:1;stroke-width:0.00298494"
       id="path4"
       d="m 7.999999,4 v 0 c -0.6821351,0 -1,0.3363652 -1,1 v 5 L 4.9733432,10.01225 C 3.2077835,10.02292 3.1489158,10.182138 2.8346016,10.27945 2.4059642,10.410785 1.9776253,10.7251 1.7489789,11.068069 1.3886967,11.61103 1.4000394,11.439396 1.4000394,16.708113 V 21.414 l 0.1370088,0.425524 C 1.771366,22.416513 2.4396168,23 3.1,23 h 1.899999 2 L 7,27.002617 C 7.0000002,28.000078 7.999999,28 7.999999,28 c 0,0 2.073977,-3.26e-4 8.034007,-1.63e-4 C 21.999999,28 23.999999,28 23.999999,28 c 0,0 1,0 0.982509,-1.008008 L 24.999999,23 h 2 2 l 0.462355,-0.111 c 0.451621,-0.222677 0.799964,-0.483239 1.011297,-0.934562 l 0.154322,-0.325657 0.01701,-4.908435 c 0.01701,-5.440054 0.03433,-5.165738 -0.359984,-5.702728 -0.24566,-0.337 -0.6343,-0.605645 -1.068608,-0.742952 C 28.913417,10.183325 28.719823,10 26.965574,10 H 24.999999 V 5 c 0,-0.7404526 -0.332886,-1 -1,-1 l -7.96062,2.98e-5 z m 16,5 0.02827,3.68531 H 16.028633 8.0286956 L 7.999999,9 V 5 h 8 8 z M 6.9714299,15.456528 c 0.091339,0.08567 0.1429786,0.205662 0.1429786,0.314314 0,0.108652 -0.051341,0.228647 -0.1429786,0.314314 -0.085668,0.09134 -0.2056624,0.142979 -0.3143142,0.142979 -0.1086518,0 -0.2286464,-0.05134 -0.3143142,-0.142979 -0.2856588,-0.279987 -0.085668,-0.771308 0.3143142,-0.771308 0.1086518,-2.99e-4 0.2286464,0.05134 0.3143142,0.14268 z m 19.7483631,-0.06865 c 0.251332,0.19432 0.268644,0.508634 0.04,0.725639 -0.268645,0.251332 -0.73131,0.03433 -0.73131,-0.342969 0,-0.342671 0.43401,-0.582661 0.691312,-0.38267 z m -1.919914,0.182977 c 0.09134,0.08567 0.142979,0.205663 0.142979,0.314314 0,0.108652 -0.05134,0.228647 -0.142979,0.314315 l -0.137008,0.142978 H 23.34293 22.02299 L 21.885683,16.19948 c -0.09134,-0.08567 -0.142979,-0.205663 -0.142979,-0.314315 0,-0.108651 0.05134,-0.228646 0.142979,-0.314314 l 0.137008,-0.142978 h 1.319941 1.31994 z M 23.999999,23 v 4 L 15.971725,26.91504 7.999999,27 8.0286956,22.97082 7.999999,19 h 8 8 z"
       class="ColorScheme-Text" />
    <path
       inkscape:connector-curvature="0"
       style="fill:currentColor;fill-opacity:1;stroke-width:0.00298494"
       id="path6"
       d="m 9.999999,20 v 0 0 1 h 2.364013 2.635987 v -1 0 0 0 l -2.635987,0.028 z"
       class="ColorScheme-Text"
       sodipodi:nodetypes="ccccccccccccc" />
    <path
       inkscape:connector-curvature="0"
       style="fill:currentColor;fill-opacity:1;stroke-width:0.00298494"
       id="path8"
       d="m 16.999999,20 v 0 0 1 h 2 3 v -1 0 0 0 h -3 z"
       class="ColorScheme-Text"
       sodipodi:nodetypes="ccccccccccccc" />
    <path
       inkscape:connector-curvature="0"
       style="fill:currentColor;fill-opacity:1;stroke-width:0.00298494"
       id="path10"
       d="m 9.999999,22 v 0 0 1 h 6 6 v -1 0 0 h -6 z"
       class="ColorScheme-Text"
       sodipodi:nodetypes="cccccccccccc" />
    <path
       inkscape:connector-curvature="0"
       style="fill:currentColor;fill-opacity:1;stroke-width:0.00298494"
       id="path12"
       d="m 9.999999,24 v 0 0 2 h 4 5 v -2 0 0 h -5 z"
       class="ColorScheme-Text"
       sodipodi:nodetypes="cccccccccccc" />
    <path
       inkscape:connector-curvature="0"
       style="fill:currentColor;fill-opacity:1;stroke-width:0.00298494"
       id="path14"
       d="m 19.999999,25 v 0 1 h 1.065226 0.934774 v -1 0 h -1 -0.999998 z"
       class="ColorScheme-Text"
       sodipodi:nodetypes="cccccccccc" />
  </g>
</svg>
