<?xml version="1.0" encoding="UTF-8" standalone="no"?>
<svg
   width="32"
   height="32"
   version="1.1"
   id="svg1404"
   sodipodi:docname="ring.svg"
   inkscape:version="1.2.2 (b0a8486541, 2022-12-01)"
   xmlns:inkscape="http://www.inkscape.org/namespaces/inkscape"
   xmlns:sodipodi="http://sodipodi.sourceforge.net/DTD/sodipodi-0.dtd"
   xmlns="http://www.w3.org/2000/svg"
   xmlns:svg="http://www.w3.org/2000/svg">
  <style
     id="current-color-scheme"
     type="text/css">.ColorScheme-Text { color:#eceff4; }
</style>
  <sodipodi:namedview
     id="namedview1406"
     pagecolor="#ffffff"
     bordercolor="#000000"
     borderopacity="1"
     inkscape:showpageshadow="2"
     inkscape:pageopacity="0.0"
     inkscape:pagecheckerboard="0"
     inkscape:deskcolor="#cccccc"
     showgrid="false"
     inkscape:zoom="10.429825"
     inkscape:cx="18.408746"
     inkscape:cy="16.730866"
     inkscape:window-width="1920"
     inkscape:window-height="1000"
     inkscape:window-x="0"
     inkscape:window-y="0"
     inkscape:window-maximized="1"
     inkscape:current-layer="svg1404">
    <inkscape:grid
       type="xygrid"
       id="grid1730"
       originx="0"
       originy="0" />
  </sodipodi:namedview>
  <defs
     id="l4k1">
    <style
       type="text/css"
       id="current-color-scheme" />
  </defs>
  <g
     id="kde-ring">
    <rect
       style="opacity:0.00100002"
       width="32"
       height="32"
       x="0"
       y="0"
       id="rect1394" />
    <path
       inkscape:connector-curvature="0"
       style="stroke-width:0.295438;fill-opacity:0.6;fill:currentColor;"
       id="path6313"
       d="m 11.397086,12.220576 -0.872831,1.558853 c -0.581899,1.039229 9.496767,7.039229 10.078657,6 l 0.872833,-1.558853 c 0.581898,-1.039232 -9.496769,-7.039232 -10.078659,-6 z"
       class="ColorScheme-Text" />
    <path
       inkscape:connector-curvature="0"
       style="stroke-width:0.295438;fill-opacity:0.6;fill:currentColor;"
       id="path6309"
       d="m 20.602912,12.220576 0.872833,1.558853 c 0.581898,1.039229 -9.496769,7.039229 -10.078659,6 l -0.872831,-1.558853 c -0.581899,-1.039232 9.496767,-7.039232 10.078657,-6 z"
       class="ColorScheme-Text" />
    <path
       inkscape:connector-curvature="0"
       style="stroke-width:0.295438;fill-opacity:1;fill:currentColor;"
       id="rect5354"
       d="m 15.127159,10.000003 h 1.745676 c 1.16379,0 1.16379,12 0,12 h -1.745676 c -1.163774,0 -1.163774,-12 0,-12 z"
       class="ColorScheme-Text" />
    <path
       d="m 25.268485,13.024908 c 0.01098,0 0.02049,-0.0063 0.03185,-0.0073 1.514259,0.149766 2.699682,1.427489 2.699682,2.982383 0,1.558035 -1.186881,2.838336 -2.707039,2.985523 -0.0018,0.0073 -0.0065,0.01317 -0.0095,0.02053 -0.01098,-7.51e-4 -0.01975,-0.0066 -0.03185,-0.0066 -0.382218,0 -0.808125,0.06811 -0.966331,0.450376 -0.158206,0.383063 0.06591,0.717049 0.358873,1.009268 0.01025,0.01026 0.02382,0.01462 0.0348,0.02344 0.95794,1.177738 0.90371,2.904804 -0.194104,4.002713 -1.096789,1.097111 -2.825303,1.1528 -4.00342,0.195564 -0.01754,0.0095 -0.03665,0.01317 -0.05416,0.02123 -0.0074,-0.0095 -0.01096,-0.02053 -0.01978,-0.03005 -0.271363,-0.270282 -0.618892,-0.52369 -1.001589,-0.364033 -0.383335,0.158203 -0.459518,0.552236 -0.459518,0.966755 0,0.03735 0.01024,0.07105 0.02234,0.104717 -0.188584,1.476614 -1.440672,2.620644 -2.968889,2.620644 -1.555642,0 -2.834064,-1.184344 -2.985337,-2.700429 -0.0165,-0.0059 -0.03071,-0.01539 -0.0476,-0.02123 7.58e-4,-0.0074 0.004,-0.01392 0.004,-0.02123 0,-0.382268 -0.06778,-0.807097 -0.450087,-0.965301 -0.382693,-0.158954 -0.717048,0.06591 -1.0096,0.358876 -0.01754,0.01758 -0.0263,0.03956 -0.0388,0.06005 -1.176665,0.92133 -2.8751321,0.857628 -3.9576241,-0.225563 -1.099355,-1.099362 -1.153218,-2.830085 -0.19078,-4.008573 -0.01029,-0.02053 -0.01576,-0.04247 -0.02459,-0.06445 0.2702859,-0.270282 0.522565,-0.618189 0.364032,-1.000502 -0.158949,-0.382267 -0.553689,-0.45994 -0.967871,-0.45994 -0.02714,0 -0.0509,0.01026 -0.0765,0.01683 -1.475443,-0.187369 -2.619106,-1.442028 -2.619106,-2.968564 0,-1.561503 1.192412,-2.842132 2.716507,-2.985335 0.005,-0.01355 0.0125,-0.02564 0.01836,-0.03881 0.376823,-0.0033 0.788809,-0.07397 0.944108,-0.44972 0.1582,-0.381611 -0.0644,-0.714096 -0.356679,-1.006315 C 6.3624239,10.342872 6.4162839,8.6136022 7.5148949,7.5149899 8.6174869,6.411598 10.358855,6.36069 11.536967,7.3351766 c 0.0125,-0.00616 0.02522,-0.00876 0.038,-0.014297 0.26808,0.2640468 0.609379,0.5035312 0.984009,0.3486565 0.382692,-0.1585786 0.459609,-0.553689 0.459609,-0.9675491 0,-0.0015 -7.46e-4,-0.0023 -7.46e-4,-0.0042 0.15192,-1.515006 1.427064,-2.697851 2.981963,-2.697851 1.564077,0 2.846205,1.196065 2.986084,2.723118 0.004,0.0012 0.006,0.0037 0.0084,0.0045 0,0.089721 0.005,0.1820156 0.01614,0.2724376 h -0.01064 c 0,0.4138136 -0.335436,0.7503772 -0.750005,0.7503772 -0.413439,0 -0.749252,-0.3365636 -0.749252,-0.7503772 0,-0.8287516 -0.672,-1.5000036 -1.500378,-1.5000036 -0.828746,0 -1.500006,0.671252 -1.500006,1.5000036 v 0.7503772 l -0.005,0.00616 c 0.01356,0.4958448 -0.301735,0.9587369 -0.799407,1.1066744 -0.0121,0.00366 -0.02494,0.00366 -0.03665,0.0073 l -0.0094,0.01172 C 13.298882,9.00017 12.958286,9.140795 12.63161,9.3063117 l -0.0216,-0.00334 c -0.01274,0.0069 -0.02306,0.017206 -0.0359,0.02452 -0.485242,0.2625893 -1.076999,0.1311046 -1.410229,-0.2849118 l -0.467676,-0.467298 c -0.586319,-0.5859387 -1.5362381,-0.5859387 -2.1214781,0 -0.585516,0.585939 -0.585516,1.5359091 0,2.1210991 l 0.530252,0.530626 0.004,0.02236 c 0.350813,0.342751 0.451929,0.884768 0.206908,1.337394 -0.004,0.0069 -0.0094,0.01172 -0.01356,0.01903 l 0.004,0.02526 c -0.163314,0.327048 -0.306141,0.667595 -0.423324,1.019159 l -0.02273,0.01758 c -0.004,0.01317 -0.005,0.02601 -0.0084,0.03956 -0.159286,0.535407 -0.681848,0.859127 -1.217259,0.792471 h -0.634505 c -0.828755,0 -1.50033,0.672002 -1.50033,1.500003 0,0.827815 0.671575,1.500192 1.50033,1.500192 h 0.749253 l 0.02234,0.01683 c 0.48525,-7.49e-4 0.934548,0.310548 1.080284,0.799081 0.002,0.0044 0.002,0.0088 0.002,0.01317 l 0.02786,0.02053 c 0.11794,0.350814 0.259262,0.691409 0.42408,1.018034 l -0.0064,0.04543 c 0.005,0.0088 0.01134,0.01538 0.01615,0.02418 0.262596,0.484876 0.131114,1.076674 -0.284906,1.40991 l -0.455576,0.456281 c -0.585525,0.58519 -0.585525,1.535161 0,2.1211 0.585185,0.585189 1.5351581,0.585189 2.1214681,0 l 0.53063,-0.530251 0.022,-0.0037 c 0.341999,-0.341298 0.878112,-0.437252 1.32525,-0.195563 0.004,0.0015 0.005,0.0044 0.0084,0.0058 l 0.0484,-0.0073 c 0.327045,0.163312 0.667595,0.30614 1.019157,0.423329 l 0.03011,0.03956 c 0.005,0.0015 0.01062,0.0015 0.01542,0.0037 0.489985,0.145031 0.80086,0.596204 0.799412,1.083236 l 0.005,0.0058 v 0.75065 c 0,0.828379 0.671251,1.500003 1.500007,1.500003 0.828378,0 1.500379,-0.671624 1.500379,-1.500003 v -0.750679 l 0.005,-0.0058 c -0.002,-0.48708 0.309472,-0.937503 0.799458,-1.083237 0.0059,-0.0022 0.01026,-0.0022 0.01576,-0.0037 l 0.02964,-0.03881 c 0.350803,-0.117938 0.69103,-0.258563 1.017983,-0.424079 l 0.04946,0.0073 c 0.003,-0.0015 0.005,-0.0044 0.0074,-0.0058 0.44714,-0.241688 0.983299,-0.145734 1.325299,0.195562 l 0.02233,0.0037 0.530632,0.530252 c 0.585184,0.585189 1.535157,0.585189 2.121467,0 0.585572,-0.585939 0.585572,-1.53591 0,-2.121099 l -0.457138,-0.456247 c -0.41615,-0.333238 -0.547263,-0.925036 -0.284667,-1.409912 0.0046,-0.0088 0.01098,-0.01613 0.01578,-0.02418 l -0.0074,-0.04978 c 0.163316,-0.326627 0.30727,-0.662815 0.423337,-1.012879 l 0.02926,-0.02199 c 9.23e-4,-0.0044 0.0018,-0.008 0.0028,-0.01247 0.145403,-0.488533 0.594378,-0.79908 1.079583,-0.79908 l 0.02197,-0.01683 h 0.750285 c 0.828747,0 1.499998,-0.672376 1.499998,-1.500191 0,-0.828002 -0.671251,-1.500004 -1.499998,-1.500004 h -0.634959 c -0.536159,0.06665 -1.057974,-0.257063 -1.216928,-0.792471 -0.0037,-0.01355 -0.0046,-0.02709 -0.0083,-0.04064 l -0.02234,-0.01649 c -0.117579,-0.350807 -0.25929,-0.691402 -0.423726,-1.017325 l 0.0037,-0.02634 c -0.0037,-0.0073 -0.0095,-0.01279 -0.01357,-0.01978 -0.245012,-0.452626 -0.143908,-0.994643 0.206529,-1.337394 l 0.0037,-0.02236 0.53063,-0.530626 c 0.585562,-0.58519 0.585562,-1.5351609 0,-2.1211 -0.278344,-0.2775477 -0.68555,-0.4361254 -1.049906,-0.4504233 -0.414563,0 -0.750378,-0.3354381 -0.750378,-0.7500015 0,-0.4145634 0.335815,-0.7500012 0.750378,-0.7500012 0.05382,0 0.10584,0.0054 0.156747,0.01648 0.705332,0.04615 1.416515,0.3358142 1.953385,0.8734254 1.101839,1.1015654 1.154205,2.8388506 0.184588,4.0169636 0.0037,0.0069 0.0046,0.0157 0.0092,0.02307 -0.0037,0.0032 -0.0083,0.0041 -0.01172,0.008 -0.270609,0.270984 -0.523689,0.618892 -0.365104,1.00233 0.158058,0.382642 0.553171,0.459564 0.96694,0.459564 z M 20.125117,9.2500077 c -0.414565,0 -0.750008,-0.3361877 -0.750008,-0.7503767 0,-0.4134379 0.335443,-0.7492519 0.750008,-0.7492519 0.413435,0 0.74925,0.335814 0.74925,0.7492519 0,0.414189 -0.335815,0.7503767 -0.74925,0.7503767 z m -4.12529,2.2500063 z"
       id="path2-36753-6"
       sodipodi:nodetypes="scsccsccccccccscsccscccccccscsccccccccscsccccsssscccccccccccccccccccccsssccccccccccccccccccccccsssccccccccccccccccccccccsssccccccccccccssccccccssssssccccccccccc"
       style="fill:currentColor;fill-opacity:1;stroke-width:0.0468753"
       class="ColorScheme-Text " />
  </g>
  <g
     id="22-22-kde-ring"
     transform="translate(32,10)">
    <rect
       style="opacity:0.00100002"
       width="22"
       height="22"
       x="0"
       y="0"
       id="rect1399" />
    <path
       d="m 17.17877,9.0160179 c 0.0077,0 0.01365,-0.0039 0.0212,-0.0047 1.009461,0.09984 1.79971,0.951656 1.79971,1.9882491 0,1.038682 -0.791226,1.892214 -1.804617,1.990341 -0.002,0.0048 -0.0038,0.0088 -0.0067,0.01368 -0.0077,-5.05e-4 -0.0132,-0.004 -0.02122,-0.004 -0.254794,0 -0.538725,0.04544 -0.64419,0.300251 -0.105466,0.255373 0.04394,0.478034 0.239234,0.672847 0.0076,0.0072 0.01581,0.0098 0.02323,0.0156 0.638606,0.785157 0.602448,1.936533 -0.129394,2.668466 -0.73116,0.731408 -1.883466,0.768533 -2.668831,0.130374 -0.01168,0.0064 -0.0244,0.0088 -0.03616,0.01416 -0.0048,-0.0064 -0.0072,-0.01368 -0.0132,-0.02 -0.180902,-0.18023 -0.412577,-0.349171 -0.667699,-0.242733 -0.255547,0.105471 -0.306328,0.368155 -0.306328,0.644502 0,0.0249 0.0072,0.04738 0.01488,0.06982 -0.125644,0.984447 -0.960334,1.747135 -1.979104,1.747135 -1.0370484,0 -1.8892983,-0.789563 -1.9901409,-1.800282 -0.01104,-0.0038 -0.020479,-0.01026 -0.031758,-0.01416 5.041e-4,-0.0049 0.00239,-0.0093 0.00239,-0.01415 0,-0.254844 -0.045196,-0.538064 -0.3000478,-0.643526 -0.2551144,-0.105975 -0.4780063,0.04392 -0.6730357,0.239244 -0.01168,0.01176 -0.017518,0.0264 -0.025839,0.04 -0.7844139,0.614219 -1.9166811,0.57175 -2.6383063,-0.150373 -0.7328725,-0.73291 -0.7687828,-1.886718 -0.1271852,-2.672379 -0.00719,-0.01368 -0.010479,-0.02832 -0.0164,-0.04296 0.1801824,-0.180181 0.3483575,-0.412122 0.242683,-0.666998 -0.1059703,-0.254845 -0.3691161,-0.30662 -0.6452212,-0.30662 -0.018079,0 -0.033918,0.0072 -0.051037,0.0112 C 3.762087,12.854089 2.99968,12.017652 2.99968,10.999971 c 0,-1.0410051 0.7949093,-1.8947611 1.8109347,-1.9902291 0.0032,-0.009 0.00831,-0.01713 0.012242,-0.02592 0.2512106,-0.0026 0.5258597,-0.04928 0.6293821,-0.29981 0.1054586,-0.254405 -0.042957,-0.476071 -0.2377711,-0.670871 -0.6398778,-0.78467 -0.6039755,-1.937503 0.1284011,-2.669915 0.7350324,-0.735589 1.8958901,-0.769525 2.681264,-0.119881 0.00833,-0.0038 0.016799,-0.0066 0.025361,-0.0096 0.1787103,0.176028 0.4062337,0.335692 0.6559724,0.232433 0.2551147,-0.105715 0.3063918,-0.36912 0.3063918,-0.645029 0,-0.002 -4.96e-4,-0.002 -4.96e-4,-0.0026 0.1012745,-1.009999 0.9513408,-1.79856 1.987892,-1.79856 1.042674,0 1.897395,0.79737 1.990637,1.815407 0.0024,6.19e-4 0.004,0.0026 0.0056,0.0033 0,0.05986 0.0032,0.121345 0.0108,0.181622 h -0.0072 c 0,0.275877 -0.223612,0.500249 -0.49999,0.500249 -0.275609,0 -0.499476,-0.224372 -0.499476,-0.500249 0,-0.552504 -0.447976,-1 -1.000211,-1 -0.552474,0 -0.9999613,0.447496 -0.9999613,1 v 0.500249 l -0.0032,0.0038 c 0.00904,0.330562 -0.2011492,0.639151 -0.5329154,0.737782 -0.0081,0.0026 -0.016639,0.0026 -0.0244,0.0047 l -0.0064,0.008 c -0.2338594,0.07865 -0.4609193,0.17238 -0.6786915,0.282724 l -0.014399,-0.0026 c -0.00845,0.0038 -0.015359,0.01145 -0.023919,0.01639 -0.3234867,0.175051 -0.7179693,0.08739 -0.9401173,-0.189944 L 7.4636719,6.0500019 c -0.3908671,-0.390625 -1.024121,-0.390625 -1.41426,0 -0.390331,0.390628 -0.390331,1.02394 0,1.414059 l 0.3534849,0.353755 0.0024,0.01487 c 0.2338674,0.228505 0.3012719,0.589854 0.1379286,0.8916 -0.0024,0.0039 -0.0064,0.008 -0.00904,0.0127 l 0.0024,0.01685 c -0.1088652,0.218025 -0.2040841,0.445051 -0.2821999,0.679436 l -0.015118,0.01167 c -0.0024,0.0087 -0.0032,0.01734 -0.0056,0.02639 -0.106186,0.356942 -0.4545436,0.5727561 -0.8114683,0.528312 H 4.9992454 c -0.5524821,0 -1.0001781,0.4480041 -1.0001781,0.9999981 0,0.551881 0.447696,1.000129 1.0001781,1.000129 h 0.4994773 l 0.014879,0.0112 c 0.3234866,-4.96e-4 0.6230064,0.207029 0.7201532,0.532721 0.0016,0.0032 0.0016,0.0064 0.0016,0.0088 l 0.018559,0.01368 c 0.078635,0.233877 0.1728388,0.460946 0.2827129,0.678694 l -0.004,0.03024 c 0.0032,0.0056 0.0072,0.01024 0.0108,0.01616 0.1750626,0.323252 0.087412,0.717782 -0.1899259,0.939939 l -0.3037038,0.304188 c -0.3903389,0.390123 -0.3903389,1.023434 0,1.41406 0.3901073,0.390131 1.0233932,0.390131 1.4142521,0 l 0.3537411,-0.353499 0.014639,-0.0024 c 0.2280527,-0.227392 0.5854414,-0.291367 0.8835214,-0.130241 0.00239,8e-4 0.0032,0.0032 0.0056,0.004 l 0.032239,-0.0048 c 0.2180284,0.108878 0.4450479,0.204093 0.6794116,0.282219 l 0.020082,0.0264 c 0.0032,8e-4 0.00719,8e-4 0.01024,0.0024 0.3266384,0.09669 0.533883,0.397467 0.5329153,0.72215 l 0.0032,0.004 v 0.500436 c 0,0.552251 0.4474794,1.000001 0.9999614,1.000001 0.552226,0 1.000211,-0.44775 1.000211,-1.000001 v -0.500356 l 0.0032,-0.004 c -0.0016,-0.324715 0.206309,-0.624999 0.532948,-0.72215 0.004,-0.0016 0.0072,-0.0016 0.01056,-0.0024 l 0.01976,-0.02584 c 0.233887,-0.0785 0.460699,-0.172239 0.678655,-0.282582 l 0.03296,0.0048 c 0.0016,-8e-4 0.0032,-0.0032 0.0048,-0.004 0.298079,-0.161126 0.655499,-0.09716 0.883487,0.130374 l 0.01488,0.0024 0.35374,0.353499 c 0.390106,0.390123 1.023394,0.390123 1.414253,0 0.390361,-0.390626 0.390361,-1.023937 0,-1.41406 l -0.303902,-0.303976 c -0.277333,-0.222157 -0.364733,-0.616687 -0.189681,-0.939939 0.0035,-0.0064 0.0075,-0.0108 0.01054,-0.01616 l -0.0049,-0.0332 c 0.108861,-0.217675 0.204824,-0.4418 0.282196,-0.675173 l 0.01955,-0.01464 c 6.16e-4,-0.0032 0.0018,-0.0056 0.0018,-0.0083 0.09693,-0.325691 0.396234,-0.53272 0.719687,-0.53272 l 0.01466,-0.0112 h 0.500168 c 0.552475,0 0.999955,-0.448251 0.999955,-1.000131 0,-0.551999 -0.44748,-1 -0.999955,-1 h -0.423267 c -0.357429,0.04441 -0.70529,-0.1713741 -0.811253,-0.5283131 -0.0027,-0.009 -0.0035,-0.01798 -0.0057,-0.027 l -0.01488,-0.011 c -0.0784,-0.233867 -0.172863,-0.460936 -0.282481,-0.678214 l 0.0026,-0.0175 c -0.0026,-0.0047 -0.0067,-0.0085 -0.009,-0.0132 -0.163343,-0.301756 -0.09594,-0.663103 0.137678,-0.891604 l 0.0026,-0.01487 0.353743,-0.353755 c 0.390362,-0.390122 0.390362,-1.023436 0,-1.414063 -0.185551,-0.185027 -0.457019,-0.290745 -0.699909,-0.300282 -0.27636,0 -0.500229,-0.22362 -0.500229,-0.500001 0,-0.276371 0.223869,-0.499991 0.500229,-0.499991 0.03593,0 0.07057,0.0033 0.10449,0.011 0.470208,0.0308 0.944312,0.223878 1.302203,0.582281 0.73453,0.734376 0.769449,1.892566 0.123064,2.677971 0.0027,0.0047 0.0034,0.01046 0.0067,0.01533 -0.0027,0.0026 -0.0057,0.0026 -0.008,0.0057 -0.180398,0.180653 -0.349111,0.412593 -0.243403,0.668222 0.105378,0.255085 0.368775,0.306371 0.644607,0.306371 z m -3.428766,-2.516598 c -0.276369,0 -0.499989,-0.224123 -0.499989,-0.500246 0,-0.27562 0.22362,-0.499497 0.499989,-0.499497 0.275609,0 0.499477,0.223877 0.499477,0.499497 0,0.276123 -0.223868,0.500246 -0.499477,0.500246 z m -2.750076,1.500004 z"
       id="path2-36753-6-3-3"
       sodipodi:nodetypes="scsccsccccccccscsccscccccccscsccccccccscsccccsssscccccccccccccccccccccsssccccccccccccccccccccccsssccccccccccccccccccccccsssccccccccccccssccccccssssssccccccccccc"
       style="fill:currentColor;fill-opacity:1;stroke-width:0.0312498"
       class="ColorScheme-Text" />
    <path
       inkscape:connector-curvature="0"
       style="stroke-width:0.196958;fill-opacity:0.6;fill:currentColor;"
       id="path6313-3"
       d="m 7.9980471,8.480379 -0.581881,1.039242 c -0.387939,0.692819 6.3311729,4.692819 6.7190999,4 l 0.581895,-1.039242 c 0.387924,-0.692819 -6.3311839,-4.692819 -6.7191139,-4 z"
       class="ColorScheme-Text" />
    <path
       inkscape:connector-curvature="0"
       style="stroke-width:0.196958;fill-opacity:0.6;fill:currentColor;"
       id="path6309-6"
       d="m 14.135266,8.480379 0.581895,1.039242 c 0.387924,0.692819 -6.3311839,4.692819 -6.7191139,4 l -0.581881,-1.039242 c -0.387939,-0.692819 6.3311729,-4.692819 6.7190999,-4 z"
       class="ColorScheme-Text" />
    <path
       inkscape:connector-curvature="0"
       style="stroke-width:0.196958;fill-opacity:1;fill:currentColor;"
       id="rect5354-7"
       d="m 10.484761,7 h 1.163786 c 0.775868,0 0.775868,8 0,8 h -1.163786 c -0.7758409,0 -0.7758409,-8 0,-8 z"
       class="ColorScheme-Text" />
  </g>
</svg>
