<?xml version="1.0" encoding="UTF-8" standalone="no"?>
<svg
   id="svg12"
   width="32"
   height="32"
   version="1.1"
   sodipodi:docname="start.svg"
   inkscape:version="1.1.2 (0a00cf5339, 2022-02-04)"
   xmlns:inkscape="http://www.inkscape.org/namespaces/inkscape"
   xmlns:sodipodi="http://sodipodi.sourceforge.net/DTD/sodipodi-0.dtd"
   xmlns="http://www.w3.org/2000/svg"
   xmlns:svg="http://www.w3.org/2000/svg"
   xmlns:rdf="http://www.w3.org/1999/02/22-rdf-syntax-ns#"
   xmlns:cc="http://creativecommons.org/ns#"
   xmlns:dc="http://purl.org/dc/elements/1.1/">
  <style id="current-color-scheme" type="text/css">.ColorScheme-Text { color:#c0c5d8; }
</style>
  <g
     id="start-here-kde">
    <rect
       id="rect7"
       style="opacity:0.00100002"
       width="32"
       height="32"
       x="0"
       y="0" />
    <path
       d="M 31.994448,4.00067 C 29.650425,5.3149699 27.718603,6.77179 26.127602,8.2997499 27.184629,6.04242 27.06634,4.00067 27.06634,4.00067 25.658585,4.79004 24.455967,5.65017 23.428406,6.5515999 23.921954,5.14553 23.855249,4.00067 23.855249,4.00067 15.276763,8.8102699 16.791695,17.116 16.791695,17.116 c 0,0 0.795115,-3.65359 2.979705,-6.12423 -3.02733,5.29553 -2.090302,10.43522 -2.090302,10.43522 0,0 1.366806,-6.27791 5.261186,-9.38331 -5.356678,7.81534 -3.872536,15.95565 -3.872536,15.95565 0,0 1.97398,-9.07126 7.641965,-13.22689 C 32.379449,10.61756 31.994494,4 31.994494,4 Z"
       id="path79"
       style="stroke-width:0.0729798;fill-opacity:1;fill:currentColor;"
       class="ColorScheme-Text" />
    <path
       d="m 8.1447162,4.00067 c 0,0 -0.06668,1.14486 0.426843,2.5509299 C 7.5439912,5.65017 6.3411232,4.7900199 4.9336182,4.00067 c 0,0 -0.118305,2.04175 0.938738,4.2990799 C 4.2813022,6.77213 2.3495332,5.3149699 0.00551417,4.00067 c 0,0 -0.385171,6.61739 5.28277503,10.77244 C 10.956237,18.92815 12.930262,28 12.930262,28 c 0,0 1.484142,-8.14006 -3.8725418,-15.95565 3.8943868,3.1054 5.2611858,9.383309 5.2611858,9.383309 0,0 0.937026,-5.139599 -2.090303,-10.435219 2.184779,2.47064 2.979712,6.12423 2.979712,6.12423 -2.57e-4,0 1.514614,-8.3059001 -7.0635538,-13.11533 z"
       id="path81"
       style="stroke-width:0.0729798;fill-opacity:1;fill:currentColor;"
       class="ColorScheme-Text" />
  </g>
  <metadata
     id="metadata19">
    <rdf:RDF>
      <cc:Work
         rdf:about="">
        <dc:format>image/svg+xml</dc:format>
        <dc:type
           rdf:resource="http://purl.org/dc/dcmitype/StillImage" />
      </cc:Work>
    </rdf:RDF>
  </metadata>
  <defs
     id="g17">
    <linearGradient
       id="linearGradient1154"
       x1="0"
       x2="0"
       y1="0"
       y2="1">
      <stop
         offset="0%"
         style="stop-color:#87deaa;stop-opacity:1"
         id="stop1150" />
      <stop
         offset="100%"
         style="stop-color:#5e81ac;stop-opacity:1"
         id="stop1152" />
    </linearGradient>
    <linearGradient
       id="linearGradient956"
       x1="0"
       x2="0"
       y1="0"
       y2="1">
      <stop
         offset="0%"
         style="stop-color:#c0c5d8;stop-opacity:1"
         id="stop952" />
      <stop
         offset="100%"
         style="stop-color:#363e58;stop-opacity:1"
         id="stop954" />
    </linearGradient>
    <linearGradient
       id="linearGradient2586"
       x1="0"
       x2="0"
       y1="0"
       y2="1">
      <stop
         offset="0%"
         style="stop-color:#a5ffff;stop-opacity:1"
         id="stop2582" />
      <stop
         offset="100%"
         style="stop-color:#ffd1b3;stop-opacity:1"
         id="stop2584" />
    </linearGradient>
    <linearGradient
       id="linearGradient2260"
       x1="0"
       x2="0"
       y1="0"
       y2="1">
      <stop
         offset="0%"
         style="stop-color:#aa87de;stop-opacity:1"
         id="stop2256" />
      <stop
         offset="100%"
         style="stop-color:#00dcdc;stop-opacity:1"
         id="stop2258" />
    </linearGradient>
    <linearGradient
       id="linearGradient1806"
       x1="0"
       x2="0"
       y1="0"
       y2="1">
      <stop
         offset="0%"
         style="stop-color:#ffb9ff;stop-opacity:1"
         id="stop1802" />
      <stop
         offset="100%"
         style="stop-color:#ffeeaa;stop-opacity:1"
         id="stop1804" />
    </linearGradient>
    <linearGradient
       id="linearGradient1544"
       x1="0"
       x2="0"
       y1="0"
       y2="1">
      <stop
         offset="0%"
         style="stop-color:#ff8080;stop-opacity:1"
         id="stop1540" />
      <stop
         offset="100%"
         style="stop-color:#ffe6d5;stop-opacity:1"
         id="stop1542" />
    </linearGradient>
    <linearGradient
       id="linearGradient1282"
       x1="0"
       x2="0"
       y1="0"
       y2="1">
      <stop
         offset="0%"
         style="stop-color:#5599ff;stop-opacity:1"
         id="stop1278" />
      <stop
         offset="100%"
         style="stop-color:#5fd3bc;stop-opacity:1"
         id="stop1280" />
    </linearGradient>
    <linearGradient
       id="linearGradient865"
       x1="0"
       x2="0"
       y1="0"
       y2="1">
      <stop
         offset="0%"
         style="stop-color:#096b83;stop-opacity:1"
         id="stop861" />
      <stop
         offset="100%"
         style="stop-color:#11c3ee;stop-opacity:1"
         id="stop863" />
    </linearGradient>
    <clipPath
       id="_clipPath_gNaW6PK2HuleaAjec1GHnM0Z84ZMay60">
      <rect
         width="16"
         height="16"
         id="rect56"
         x="0"
         y="0" />
    </clipPath>
    <linearGradient
       id="oomox"
       x1="0"
       x2="0"
       y1="0"
       y2="1">
      <stop
         offset="0%"
         style="stop-color:#303b3d; stop-opacity:1"
         id="stop18" />
      <stop
         offset="100%"
         style="stop-color:#bc985d; stop-opacity:1"
         id="stop20" />
    </linearGradient>
    <linearGradient
       id="oomox-3"
       x1="15.097227"
       x2="0"
       y1="0.76177037"
       y2="16.018156"
       gradientTransform="matrix(1.874518,0,0,1.7041711,1.699976,1.701813)"
       gradientUnits="userSpaceOnUse"
       spreadMethod="pad">
      <stop
         offset="0%"
         style="stop-color:#303b3d; stop-opacity:1"
         id="stop18-6" />
      <stop
         offset="100%"
         style="stop-color:#bc985d; stop-opacity:1"
         id="stop20-7" />
    </linearGradient>
  </defs>
  <sodipodi:namedview
     pagecolor="#ffffff"
     bordercolor="#666666"
     borderopacity="1"
     objecttolerance="10"
     gridtolerance="10"
     guidetolerance="10"
     inkscape:pageopacity="0"
     inkscape:pageshadow="2"
     inkscape:window-width="1920"
     inkscape:window-height="1015"
     id="namedview15"
     showgrid="false"
     inkscape:zoom="7.1363635"
     inkscape:cx="8.2675161"
     inkscape:cy="22.490446"
     inkscape:window-x="0"
     inkscape:window-y="0"
     inkscape:window-maximized="1"
     inkscape:current-layer="svg12"
     inkscape:document-rotation="0"
     inkscape:lockguides="true"
     inkscape:pagecheckerboard="0">
    <inkscape:grid
       type="xygrid"
       id="grid1122"
       originx="0"
       originy="0" />
  </sodipodi:namedview>
  <g
     id="g16"
     transform="matrix(0.046875,0,0,0.046875,-59.692605,-9.860676)">
    <g
       id="g857" />
  </g>
  <g
     id="22-22-start-here-kde"
     transform="translate(-22,10)">
    <rect
       id="rect2"
       style="opacity:0.00100002"
       width="22"
       height="22"
       x="0"
       y="0" />
    <path
       d="m 21.679632,3.000447 c -1.562682,0.8762 -2.850563,1.847413 -3.911231,2.866053 0.704685,-1.504887 0.625826,-2.866053 0.625826,-2.866053 -0.938504,0.526246 -1.740249,1.099666 -2.42529,1.70062 0.329032,-0.93738 0.284562,-1.70062 0.284562,-1.70062 -5.71899,3.2064 -4.709036,8.743553 -4.709036,8.743553 0,0 0.530077,-2.4357267 1.98647,-4.08282 -2.01822,3.530353 -1.393534,6.956813 -1.393534,6.956813 0,0 0.911204,-4.185273 3.507457,-6.25554 -3.571119,5.210227 -2.581691,10.6371 -2.581691,10.6371 0,0 1.315987,-6.047506 5.094644,-8.817926 C 21.936299,7.411707 21.679663,3 21.679663,3 Z"
       id="path79-4"
       style="stroke-width:0.0486532;fill-opacity:1;fill:currentColor;"
       class="ColorScheme-Text" />
    <path
       d="m 5.7798111,3.000447 c 0,0 -0.04445,0.76324 0.284562,1.70062 -0.685046,-0.600954 -1.486958,-1.174387 -2.425294,-1.70062 0,0 -0.07887,1.361166 0.625825,2.866053 -1.060703,-1.018413 -2.348549,-1.989853 -3.91122798,-2.866053 0,0 -0.256781,4.411593 3.52184998,7.181626 C 7.6541581,12.9521 8.9701751,19 8.9701751,19 c 0,0 0.989428,-5.426707 -2.581695,-10.6371 2.596258,2.070267 3.507457,6.255539 3.507457,6.255539 0,0 0.6246839,-3.426399 -1.393535,-6.956812 1.456519,1.647093 1.9864749,4.08282 1.9864749,4.08282 -1.72e-4,0 1.009742,-5.537267 -4.7090359,-8.743554 z"
       id="path81-8"
       style="stroke-width:0.0486532;fill-opacity:1;fill:currentColor"
       class="ColorScheme-Text " />
  </g>
</svg>
