<?xml version="1.0" encoding="UTF-8" standalone="no"?>
<svg
   version="1.1"
   id="svg2"
   viewBox="0 0 32 32"
   sodipodi:docname="system.svg"
   inkscape:version="1.1.2 (0a00cf5339, 2022-02-04)"
   width="32"
   height="32"
   xmlns:inkscape="http://www.inkscape.org/namespaces/inkscape"
   xmlns:sodipodi="http://sodipodi.sourceforge.net/DTD/sodipodi-0.dtd"
   xmlns="http://www.w3.org/2000/svg"
   xmlns:svg="http://www.w3.org/2000/svg"
   xmlns:rdf="http://www.w3.org/1999/02/22-rdf-syntax-ns#"
   xmlns:cc="http://creativecommons.org/ns#"
   xmlns:dc="http://purl.org/dc/elements/1.1/">
  <style
     id="current-color-scheme"
     type="text/css">.ColorScheme-Background { color:#181c27; }
.ColorScheme-Text { color:#d6dbf1; }
</style>
  <g
     id="system-shutdown"
     transform="translate(47)">
    <path
       inkscape:connector-curvature="0"
       d="M 16,0 C 7.17141,0 0,7.171413 0,16 0,24.828587 7.17141,32 16,32 24.82859,32 32,24.828587 32,16 32,7.171413 24.82859,0 16,0 Z"
       overflow="visible"
       id="path945"
       style="color:#000000;overflow:visible;fill:none;fill-opacity:1;stroke-width:1.06667" />
    <path
       d="M 18.945177,4.7799622 C 24.290748,6.0699643 28,10.800142 28,16.17519 28,22.7326 22.545174,28 16.000008,28 9.3454398,28 4,22.73247 4,16.17519 4,10.800015 7.7091108,6.0699643 12.945829,4.7799622 c 1.200142,-0.107624 1.636531,1.6126311 0,2.257568 -4.0365162,1.290002 -6.764188,4.9448998 -6.764188,9.1374098 0,5.37518 4.363666,9.67501 9.818367,9.67501 5.345561,0 9.818342,-4.29996 9.818342,-9.67501 0,-4.19257 -2.836392,-7.8474078 -6.873173,-9.1374098 -1.636512,-0.6450009 -1.200123,-2.3649609 0,-2.257568 z M 16.000008,28 Z m 0,0 z M 14.799865,5.2094733 V 15.9597 c 0,1.61263 2.291028,1.61263 2.291028,0 V 5.2094733 c 0,-1.6126311 -2.291028,-1.6126311 -2.291028,0 z"
       id="path67-36-5-7"
       sodipodi:nodetypes="csssccsssccccccccccccccccccccsssss"
       style="fill:currentColor;fill-opacity:1;fill-rule:nonzero;stroke-width:0.0643966"
       class="ColorScheme-Text" />
  </g>
  <g
     id="system-log-out"
     transform="translate(142)">
    <path
       inkscape:connector-curvature="0"
       d="M 16,0 C 7.1723733,0 0,7.1723733 0,16 0,24.827627 7.1723733,32 16,32 24.827627,32 32,24.827627 32,16 32,7.1723733 24.827627,0 16,0 Z"
       overflow="visible"
       id="path951"
       style="color:#000000;overflow:visible;opacity:0;fill:none;fill-opacity:1;stroke-width:1.06667" />
    <path
       d="m 23.29984,13.32716 c -0.001,-0.110014 -0.0502,-0.214937 -0.1344,-0.292812 L 18.71083,8.923873 C 18.5795,8.802886 18.38223,8.76678 18.21075,8.832183 c -0.17146,0.0656 -0.28313,0.21985 -0.28332,0.391119 l -0.0161,2.243622 c -5.71108,0.05482 -9.60776,3.737083 -9.17916,8.721337 0.13613,1.000593 0.3848,1.992466 0.75071,2.931023 v 1.95e-4 c 0.075,0.192817 0.2886298,0.308506 0.50763,0.274666 0.2188,-0.03366 0.38024,-0.207185 0.38333,-0.411907 0.0628,-3.995488 2.94726,-7.494333 7.55371,-7.633629 v 2.09569 c 2.2e-4,0.171268 0.11181,0.325521 0.28332,0.391119 0.17148,0.06538 0.36877,0.02931 0.50009,-0.09166 l 4.45462,-4.110485 c 0.0878,-0.08103 0.13623,-0.191493 0.13438,-0.306039 z m -1.1077,0.007 h -1.6e-4 -10e-6 v 0 0 0 0 0 0 0 0 0 z"
       id="path2-367-7"
       sodipodi:nodetypes="ccccccccccccccccccccccccccccccc"
       style="fill:currentColor;fill-opacity:1;stroke-width:0.050378"
       class="ColorScheme-Text" />
    <path
       d="M 16.00318,4 C 9.38672,4 4,9.381408 4,15.999756 3.99981,22.618102 9.38672,28 16.00318,28 22.61964,28 28,22.618591 28,15.999756 28,9.381408 22.62013,4 16.00318,4 Z m 0,2.111 c 5.69171,0 9.88582,4.195521 9.88582,9.888756 0,5.693332 -4.19372,9.895244 -9.88582,9.895244 C 10.31147,25.895 6.111,21.693137 6.111,15.999756 6.11081,10.306422 10.31122,6.111 16.00318,6.111 Z"
       fill-rule="evenodd"
       id="path2-3675-2"
       style="fill:currentColor;fill-opacity:1;stroke-width:0.0488838"
       sodipodi:nodetypes="scsssssscs"
       class="ColorScheme-Text" />
  </g>
  <g
     id="22-22-system-log-out"
     transform="translate(75,147)">
    <path
       id="path29"
       d="M 0,0 V 22 H 22 V 0 Z"
       style="fill:none" />
    <path
       d="M 17.0832,8.605967 C 17.08237,8.514287 17.0414,8.42685 16.9712,8.361958 l -3.71218,-3.4254 C 13.14958,4.835742 12.98519,4.80565 12.84229,4.860138 c -0.14288,0.05467 -0.23594,0.183208 -0.2361,0.325933 l -0.0134,1.869683 c -4.7592299,0.04567 -8.0064599,3.114239 -7.6492999,7.267784 0.11345,0.833828 0.32067,1.660389 0.6256,2.44252 v 1.62e-4 c 0.0625,0.160681 0.24052,0.257088 0.42302,0.228888 0.18233,-0.02805 0.31687,-0.172654 0.31944,-0.343255 0.0523,-3.329574 2.45605,-6.245278 6.2947599,-6.361358 v 1.746408 c 1.8e-4,0.142724 0.0932,0.271268 0.2361,0.325933 0.1429,0.05448 0.30731,0.02443 0.41674,-0.07638 l 3.71219,-3.425407 c 0.0732,-0.0675 0.11352,-0.159575 0.11198,-0.255033 z m -0.92308,0.0058 h -1.4e-4 -10e-6 v 0 0 0 0 0 0 0 0 0 z"
       id="path2-367-7-7"
       sodipodi:nodetypes="ccccccccccccccccccccccccccccccc"
       style="stroke-width:0.0419817;fill-opacity:1;fill:currentColor;"
       class="ColorScheme-Text" />
    <path
       d="M 11.00265,1 C 5.4889301,1 1,5.484508 1,10.999797 0.99984,16.515085 5.4889301,21 11.00265,21 16.51637,21 21,16.515493 21,10.999797 21,5.484508 16.51677,1 11.00265,1 Z m 0,1.759167 c 4.74309,0 8.23818,3.496266 8.23818,8.24063 0,4.744443 -3.49476,8.246036 -8.23818,8.246036 -4.7430899,0 -8.2434799,-3.501552 -8.2434799,-8.246036 -1.6e-4,-4.744447 3.50018,-8.24063 8.2434799,-8.24063 z"
       fill-rule="evenodd"
       id="path2-3675-2-1"
       style="stroke-width:0.0407365;fill-opacity:1;fill:currentColor;"
       sodipodi:nodetypes="scsssssscs"
       class="ColorScheme-Text" />
  </g>
  <sodipodi:namedview
     pagecolor="#ffffff"
     bordercolor="#666666"
     borderopacity="1"
     objecttolerance="10"
     gridtolerance="10"
     guidetolerance="10"
     inkscape:pageopacity="0"
     inkscape:pageshadow="2"
     inkscape:window-width="1920"
     inkscape:window-height="1015"
     id="namedview78"
     showgrid="false"
     inkscape:zoom="1.9999999"
     inkscape:cx="111"
     inkscape:cy="107.25"
     inkscape:window-x="0"
     inkscape:window-y="0"
     inkscape:window-maximized="1"
     inkscape:current-layer="svg2"
     showguides="false"
     inkscape:guide-bbox="true"
     inkscape:lockguides="false"
     inkscape:snap-bbox="true"
     inkscape:bbox-nodes="true"
     inkscape:snap-nodes="false"
     inkscape:snap-intersection-paths="true"
     inkscape:pagecheckerboard="0"
     inkscape:showpageshadow="false">
    <inkscape:grid
       type="xygrid"
       id="grid885"
       originx="21"
       originy="73.000001" />
    <sodipodi:guide
       position="-81,-55.000001"
       orientation="0.70710678,0.70710678"
       id="guide948"
       inkscape:locked="false" />
    <sodipodi:guide
       position="-83,-57.000001"
       orientation="-0.70710678,0.70710678"
       id="guide950"
       inkscape:locked="false" />
  </sodipodi:namedview>
  <metadata
     id="metadata62">
    <rdf:RDF>
      <cc:Work
         rdf:about="">
        <dc:format>image/svg+xml</dc:format>
        <dc:type
           rdf:resource="http://purl.org/dc/dcmitype/StillImage" />
      </cc:Work>
    </rdf:RDF>
  </metadata>
  <defs
     id="defs3051">
    <linearGradient
       gradientUnits="userSpaceOnUse"
       y2="31"
       y1="1"
       x2="16"
       x1="16"
       id="linearGradient9332">
      <stop
         id="stop9328"
         offset="0"
         stop-color="#4d83f3"
         style="stop-color:#2ad4ff;stop-opacity:1" />
      <stop
         id="stop9330"
         offset="1"
         stop-color="#46cafa"
         style="stop-color:#2a7fff;stop-opacity:1" />
    </linearGradient>
    <linearGradient
       gradientUnits="userSpaceOnUse"
       y2="31"
       y1="1"
       x2="16"
       x1="16"
       id="linearGradient1543">
      <stop
         id="stop1539"
         offset="0"
         stop-color="#f4282c"
         style="stop-color:#2ad4ff;stop-opacity:1" />
      <stop
         id="stop1541"
         offset="1"
         stop-color="#fac136"
         style="stop-color:#37c8ab;stop-opacity:0" />
    </linearGradient>
    <linearGradient
       gradientUnits="userSpaceOnUse"
       y2="31"
       y1="1"
       x2="16"
       x1="16"
       id="linearGradient2629">
      <stop
         id="stop2625"
         offset="0"
         stop-color="#f4282c"
         style="stop-color:#fcb6b7;stop-opacity:1" />
      <stop
         id="stop2627"
         offset="1"
         stop-color="#fac136"
         style="stop-color:#fde09b;stop-opacity:1" />
    </linearGradient>
    <linearGradient
       gradientUnits="userSpaceOnUse"
       y2="31"
       y1="1"
       x2="16"
       x1="16"
       id="linearGradient1776">
      <stop
         id="stop1772"
         offset="0"
         stop-color="#ff791d"
         style="stop-color:#ffd7bd;stop-opacity:1" />
      <stop
         id="stop1774"
         offset="1"
         stop-color="#f8c430"
         style="stop-color:#fde7a8;stop-opacity:1" />
    </linearGradient>
    <linearGradient
       gradientUnits="userSpaceOnUse"
       y2="31"
       y1="1"
       x2="16"
       x1="16"
       id="linearGradient1137">
      <stop
         id="stop1133"
         offset="0"
         stop-color="#f4282c"
         style="stop-color:#ccaaff;stop-opacity:1" />
      <stop
         id="stop1135"
         offset="1"
         stop-color="#fac136"
         style="stop-color:#aaffaa;stop-opacity:1" />
    </linearGradient>
    <style
       type="text/css"
       id="style58" />
    <linearGradient
       gradientUnits="userSpaceOnUse"
       y2="31"
       y1="1"
       x2="16"
       x1="16"
       id="a">
      <stop
         id="stop929"
         offset="0"
         stop-color="#37414a"
         style="stop-color:#ffccaa;stop-opacity:1" />
      <stop
         id="stop931"
         offset="1"
         stop-color="#6c7582"
         style="stop-color:#ffffbd;stop-opacity:1" />
    </linearGradient>
    <filter
       color-interpolation-filters="sRGB"
       height="1.072"
       width="1.072"
       y="-0.035999998"
       x="-0.035999998"
       id="c">
      <feGaussianBlur
         id="feGaussianBlur934"
         stdDeviation="0.45000001" />
    </filter>
    <filter
       color-interpolation-filters="sRGB"
       height="1.072"
       width="1.072"
       y="-0.035999998"
       x="-0.035999998"
       id="b">
      <feGaussianBlur
         id="feGaussianBlur937"
         stdDeviation="0.285" />
    </filter>
    <linearGradient
       gradientUnits="userSpaceOnUse"
       y2="31"
       y1="1"
       x2="16"
       x1="16"
       id="a-3">
      <stop
         id="stop969"
         offset="0"
         stop-color="#4d83f3" />
      <stop
         id="stop971"
         offset="1"
         stop-color="#46cafa" />
    </linearGradient>
    <filter
       color-interpolation-filters="sRGB"
       height="1.072"
       width="1.072"
       y="-0.035999998"
       x="-0.035999998"
       id="c-6">
      <feGaussianBlur
         id="feGaussianBlur974"
         stdDeviation="0.45" />
    </filter>
    <filter
       color-interpolation-filters="sRGB"
       height="1.0669"
       width="1.0779999"
       y="-0.033427998"
       x="-0.039000001"
       id="b-7">
      <feGaussianBlur
         id="feGaussianBlur977"
         stdDeviation="0.2367975" />
    </filter>
    <linearGradient
       gradientUnits="userSpaceOnUse"
       y2="31"
       y1="1"
       x2="16"
       x1="16"
       id="a-5">
      <stop
         id="stop1009"
         offset="0"
         stop-color="#f4282c"
         style="stop-color:#f9898b;stop-opacity:1" />
      <stop
         id="stop1011"
         offset="1"
         stop-color="#fac136"
         style="stop-color:#fde2a2;stop-opacity:1" />
    </linearGradient>
    <filter
       color-interpolation-filters="sRGB"
       height="1.072"
       width="1.072"
       y="-0.035999998"
       x="-0.035999998"
       id="c-3">
      <feGaussianBlur
         id="feGaussianBlur1014"
         stdDeviation="0.45" />
    </filter>
    <filter
       color-interpolation-filters="sRGB"
       height="1.0696"
       width="1.0746"
       y="-0.034798998"
       x="-0.037287001"
       id="b-5">
      <feGaussianBlur
         id="feGaussianBlur1017"
         stdDeviation="0.28136255" />
    </filter>
    <filter
       color-interpolation-filters="sRGB"
       height="1.072"
       width="1.072"
       y="-0.035999998"
       x="-0.035999998"
       id="c-62">
      <feGaussianBlur
         id="feGaussianBlur1049"
         stdDeviation="0.45" />
    </filter>
    <linearGradient
       gradientUnits="userSpaceOnUse"
       y2="1121.5"
       y1="1091.5"
       x2="16"
       x1="16"
       id="a-9">
      <stop
         id="stop1052"
         offset="0"
         stop-color="#9575cd"
         style="stop-color:#b9a2de;stop-opacity:0" />
      <stop
         id="stop1054"
         offset="1"
         stop-color="#cd75bc"
         style="stop-color:#dea1d1;stop-opacity:1" />
    </linearGradient>
    <filter
       color-interpolation-filters="sRGB"
       height="1.084"
       width="1.063"
       y="-0.041999999"
       x="-0.031500001"
       id="b-1">
      <feGaussianBlur
         id="feGaussianBlur1057"
         stdDeviation="0.21000005" />
    </filter>
    <linearGradient
       gradientUnits="userSpaceOnUse"
       y2="31"
       y1="1"
       x2="16"
       x1="16"
       id="a-2">
      <stop
         id="stop1090"
         offset="0"
         stop-color="#ff791d"
         style="stop-color:#ffc49b;stop-opacity:1" />
      <stop
         id="stop1092"
         offset="1"
         stop-color="#f8c430"
         style="stop-color:#fbdc84;stop-opacity:1" />
    </linearGradient>
    <filter
       color-interpolation-filters="sRGB"
       height="1.072"
       width="1.072"
       y="-0.035999998"
       x="-0.035999998"
       id="c-7">
      <feGaussianBlur
         id="feGaussianBlur1095"
         stdDeviation="0.45000001" />
    </filter>
    <filter
       color-interpolation-filters="sRGB"
       height="1.0797"
       width="1.0656"
       y="-0.039857"
       x="-0.032823998"
       id="b-0">
      <feGaussianBlur
         id="feGaussianBlur1098"
         stdDeviation="0.2325" />
    </filter>
    <linearGradient
       gradientUnits="userSpaceOnUse"
       y2="31"
       y1="1"
       x2="16"
       x1="16"
       id="a-93">
      <stop
         id="stop1130"
         offset="0"
         stop-color="#72da70" />
      <stop
         id="stop1132"
         offset="1"
         stop-color="#52eea4" />
    </linearGradient>
    <filter
       color-interpolation-filters="sRGB"
       height="1.072"
       width="1.072"
       y="-0.035999998"
       x="-0.035999998"
       id="c-60">
      <feGaussianBlur
         id="feGaussianBlur1135"
         stdDeviation="0.45000001" />
    </filter>
    <filter
       color-interpolation-filters="sRGB"
       height="1.0648"
       width="1.081"
       y="-0.032400001"
       x="-0.0405"
       id="b-6">
      <feGaussianBlur
         id="feGaussianBlur1138"
         stdDeviation="0.2025" />
    </filter>
    <linearGradient
       gradientUnits="userSpaceOnUse"
       y2="-1091.5"
       y1="-1121.5"
       x2="16"
       x1="16"
       id="a-26">
      <stop
         id="stop1173"
         offset="0"
         stop-color="#70d8c3"
         style="stop-color:#5fd3bd;stop-opacity:1" />
      <stop
         id="stop1175"
         offset="1"
         stop-color="#66e26b"
         style="stop-color:#c299ff;stop-opacity:1" />
    </linearGradient>
    <filter
       color-interpolation-filters="sRGB"
       height="1.072"
       width="1.072"
       y="-0.035999998"
       x="-0.035999998"
       id="c-1">
      <feGaussianBlur
         id="feGaussianBlur1178"
         stdDeviation="0.45" />
    </filter>
    <filter
       color-interpolation-filters="sRGB"
       height="1.0635"
       width="1.0831"
       y="-0.031766001"
       x="-0.041537002"
       id="b-8">
      <feGaussianBlur
         id="feGaussianBlur1181"
         stdDeviation="0.22499171" />
    </filter>
  </defs>
  <g
     transform="translate(133,105)"
     id="22-22-system-save-session">
    <path
       id="path37"
       class="ColorScheme-Text"
       d="m 2.999995,13.003509 v 0 0.9999 15 H 4 19 v -0.9999 -11.0001 -0.69915 h -0.007 l 0.007,-0.015 -3.29297,-3.29295 -0.008,0.015 v -0.015 h -0.69922 -12 z M 4,14.005359 h 3 v 4.00005 1.00005 h 8 v -1.00005 -4.00005 h 0.29298 L 18,16.712409 v 0.29295 11.0001 h -2 v -7.00005 H 15 7 5.999995 v 7.00005 H 4 Z m 4.000005,0 h 3.90039 v 4.00005 H 8.000005 Z M 7,22.005459 h 8 v 6 H 7 Z"
       style="stroke:none;fill-opacity:1;fill:currentColor;" />
    <path
       id="path39"
       d="M 0,10 V 32 H 22 V 10 Z"
       style="opacity:1;fill:none" />
  </g>
  <g
     transform="translate(133,105)"
     id="system-save-session">
    <path
       id="path42"
       class="ColorScheme-Text"
       d="m 26,4 v 24 h 5 14 5 V 10 L 49,9 45,5 44,4 H 43 32 Z m 1,1 h 5 v 8 H 43 V 5 h 0.585938 L 49,10.414062 V 27 H 45 V 19 H 31 v 8 h -4 z m 6,0 h 6 v 7 h -6 z m -1,15 h 12 v 7 H 32 Z"
       style="stroke:none;fill-opacity:1;fill:currentColor;" />
    <path
       id="path44"
       d="M 22,0 V 32 H 54 V 0 Z"
       style="opacity:1;fill:none" />
  </g>
  <g
     transform="translate(75,105)"
     id="22-22-system-users">
    <path
       id="path87"
       class="ColorScheme-Text"
       d="m 13.999995,12.999864 c -1.661999,0 -3,1.338 -3,3 0,1.662 1.338001,3 3,3 1.661999,0 3,-1.338 3,-3 0,-1.662 -1.338001,-3 -3,-3 z m -6,3 c -1.661999,0 -3,1.338 -3,3 0,1.662 1.338001,3 3,3 1.661999,0 3,-1.338 3,-3 0,-1.662 -1.338001,-3 -3,-3 z m 6,4 c -0.646349,0 -1.255999,0.134093 -1.818359,0.361328 l 0.455078,0.914063 c 0.427816,-0.1605 0.877758,-0.275391 1.363281,-0.275391 2.216023,0 4,1.783975 4,4 h -3.5 l 0.5,1 h 4 v -1 c 0,-2.77002 -2.229982,-5 -5,-5 z m -6,3 c -2.770018,0 -5,2.22998 -5,5 v 1 h 10 v -1 c 0,-2.77002 -2.229982,-5 -5,-5 z m 0,1 c 2.216008,0 4,1.783975 4,4 h -8 c 0,-2.216025 1.783977,-4 4,-4 z"
       style="stroke:none;fill-opacity:1;fill:currentColor;" />
    <path
       id="path89"
       d="M 0,10 V 32 H 22 V 10 Z"
       style="opacity:1;fill:none" />
  </g>
  <g
     transform="translate(75,105)"
     id="system-users">
    <path
       id="path92"
       class="ColorScheme-Text"
       d="M 42.5,4 A 4.5,4.5 0 0 0 38,8.5 4.5,4.5 0 0 0 42.5,13 4.5,4.5 0 0 0 47,8.5 4.5,4.5 0 0 0 42.5,4 Z m 0,1 A 3.5,3.5 0 0 1 46,8.5 3.5,3.5 0 0 1 42.5,12 3.5,3.5 0 0 1 39,8.5 3.5,3.5 0 0 1 42.5,5 Z m -9,4 C 31.014719,9 29,11.014719 29,13.5 29,15.985281 31.014719,18 33.5,18 35.985281,18 38,15.985281 38,13.5 38,11.014719 35.985281,9 33.5,9 Z m 0,1 A 3.5,3.5 0 0 1 37,13.5 3.5,3.5 0 0 1 33.5,17 3.5,3.5 0 0 1 30,13.5 3.5,3.5 0 0 1 33.5,10 Z m 9,4 c -0.88285,0.003 -1.758266,0.172285 -2.585938,0.5 -0.06618,0.423679 -0.174132,0.839768 -0.322265,1.242188 C 40.494507,15.254879 41.490227,15.000767 42.5,15 c 3.589851,0 6.5,3.134007 6.5,7 h -8.341797 c 0.170323,0.323289 0.325499,0.657112 0.464844,1 H 50 v -1 c 0,-4.418278 -3.357864,-8 -7.5,-8 z m -9,5 C 29.357864,19 26,22.581722 26,27 v 1 h 15 v -1 c 0,-4.418278 -3.357864,-8 -7.5,-8 z m 0,1 c 3.589851,0 6.5,3.134007 6.5,7 H 27 c 0,-3.865993 2.910149,-7 6.5,-7 z"
       style="stroke:none;fill-opacity:1;fill:currentColor;" />
    <path
       id="path94"
       d="M 22,0 V 32 H 54 V 0 Z"
       style="opacity:1;fill:none" />
  </g>
  <g
     transform="translate(21,41)"
     id="22-22-system-search">
    <path
       id="path61"
       class="ColorScheme-Text"
       d="m 9.0000001,13 c -3.3240047,0 -6,2.675995 -6,6 0,3.324005 2.6759953,6 6,6 C 10.481206,25 11.830584,24.465318 12.875,23.582031 L 18.292969,29 19,28.292969 13.582032,22.875 C 14.465318,21.830584 15,20.481205 15,19 15,15.675995 12.324005,13 9.0000001,13 Z m 0,1 C 11.770005,14 14,16.229995 14,19 c 0,2.770005 -2.229995,5 -4.9999999,5 -2.7700048,0 -5,-2.229995 -5,-5 0,-2.770005 2.2299952,-5 5,-5 z"
       style="stroke:none;fill-opacity:1;fill:currentColor;" />
    <path
       id="path63"
       d="M 0,10 V 32 H 22 V 10 Z"
       style="opacity:1;fill:none" />
  </g>
  <g
     transform="translate(21,41)"
     id="system-search">
    <path
       id="path66"
       class="ColorScheme-Text"
       d="m 35,4 a 9,9 0 0 0 -9,9 9,9 0 0 0 9,9 9,9 0 0 0 5.994141,-2.298828 L 49.292969,28 50,27.292969 41.699219,18.992187 A 9,9 0 0 0 44,13 9,9 0 0 0 35,4 Z m 0,1 a 8,8 0 0 1 8,8 8,8 0 0 1 -8,8 8,8 0 0 1 -8,-8 8,8 0 0 1 8,-8 z"
       style="stroke:none;fill-opacity:1;fill:currentColor;" />
    <path
       id="path68"
       d="M 22,0 V 32 H 54 V 0 Z"
       style="opacity:1;fill:none" />
  </g>
  <g
     transform="translate(129,73.000001)"
     id="system-user-list">
    <path
       id="path110"
       class="ColorScheme-Text"
       d="m 45,9 c -0.58947,0 -1.13295,0.174573 -1.59375,0.46875 0.04318,0.464252 0.0075,0.922667 -0.008,1.335882 C 43.775357,10.29878 44.369053,10.00054 45,10 c 1.104569,0 2,0.895431 2,2 0,1.104569 -0.895431,2 -2,2 -1.040548,-5.56e-4 -1.906833,-0.798896 -1.99219,-1.835938 -0.184344,0.419479 -0.464656,0.770321 -0.6956,1.09959 -10e-4,0.0013 -0.003,0.0026 -0.004,0.0039 C 42.78421,14.287279 43.79697,15 45,15 c 1.66119,0 2.99805,-1.338 2.99805,-3 0,-1.662 -1.33686,-3 -2.99805,-3 z m -6.99999,9 C 42.43204,18 46,21.56798 46,26 H 30 c 0,-4.43202 3.56798,-8 8.00001,-8 z m 10e-6,-1 C 33.01445,17 29,20.716633 29,25.333333 V 27 H 47 V 25.333333 C 47,20.716633 42.98557,17 38.00002,17 Z m 6.97654,-1 c -1.26188,4.88e-4 -2.39619,0.47884 -3.27539,1.240234 0.380034,0.156147 0.766084,0.335754 1.142399,0.50783 0.005,0.0025 0.009,0.0052 0.0137,0.0078 C 43.47258,17.305934 44.19048,17 44.97461,17 c 2.22686,5e-5 4.02344,2.337992 4.02344,4 h -2.72852 c 0.196162,0.339095 0.301576,0.64811 0.449,1 H 50 v -1 c 0,-2.769366 -2.2402,-4.998947 -5.02148,-5 z M 38,5.9999995 c 2.20915,0 4,1.7908576 4,4.0000005 0,2.209141 -1.79085,4 -4,4 -2.20915,0 -4,-1.790859 -4,-4 0,-2.2091429 1.79085,-4.0000005 4,-4.0000005 z m 0,-1 c -2.76144,0 -5,2.2385703 -5,5.0000005 0,2.76143 2.23856,5 5,5 2.350785,0 4.322665,-1.622301 4.857137,-3.808418 C 42.950498,10.809711 43,10.410637 43,10 43,7.2385698 40.76142,4.9999995 38,4.9999995 Z M 31.02344,16 c 1.26188,4.88e-4 2.39619,0.47884 3.27539,1.240234 -0.404465,0.162919 -0.805479,0.355411 -1.156104,0.515606 C 32.52742,17.305934 31.80952,17 31.02539,17 c -2.22686,5e-5 -4.02344,2.337992 -4.02344,4 h 2.72852 c -0.186972,0.33326 -0.318326,0.689701 -0.449,1 H 26 v -1 c 0,-2.769366 2.2402,-4.998947 5.02148,-5 z M 30.99805,9 c 0.58947,0 1.13295,0.174573 1.59375,0.46875 -0.04841,0.460072 -0.0093,0.927542 0.008,1.33588 C 32.222693,10.29878 31.628997,10.00054 30.99805,10 c -1.104569,0 -2,0.895431 -2,2 0,1.104569 0.895431,2 2,2 1.040548,-5.56e-4 1.906833,-0.798896 1.99219,-1.835938 0.188312,0.402683 0.471649,0.770111 0.6956,1.09959 10e-4,0.0013 0.003,0.0026 0.004,0.0039 C 33.21384,14.287279 32.20108,15 30.99805,15 29.33686,15 28,13.662 28,12 28,10.338 29.33686,9.000001 30.99805,9 Z"
       style="stroke:none;fill-opacity:1;fill:currentColor;" />
    <path
       id="path84-3"
       d="M 22,0 V 32 H 54 V 0 Z"
       style="opacity:1;fill:none" />
  </g>
  <g
     transform="translate(133,137)"
     id="system-user-prompt">
    <path
       id="path44-5"
       d="M 22,0 V 32 H 54 V 0 Z"
       style="opacity:1;fill:none" />
    <path
       id="path889"
       class="ColorScheme-Text"
       d="m 37,10.75 v 1.5 h 5 v -1.5 z m -4,0 v 1.5 h 3 v -1.5 z m -6,0 v 1.5 h 5 v -1.5 z M 26,9 h 24 v 5 H 26 Z M 25,8 v 7 H 51 V 8 Z m 1,10 h 24 v 5 H 26 Z m -1,-1 v 7 h 26 v -7 z m 3.5,2 C 27.671573,19 27,19.671573 27,20.5 27,21.328427 27.671573,22 28.5,22 29.328427,22 30,21.328427 30,20.5 30,19.671573 29.328427,19 28.5,19 Z m 4,0 C 31.671573,19 31,19.671573 31,20.5 31,21.328427 31.671573,22 32.5,22 33.328427,22 34,21.328427 34,20.5 34,19.671573 33.328427,19 32.5,19 Z m 4,0 C 35.671573,19 35,19.671573 35,20.5 35,21.328427 35.671573,22 36.5,22 37.328427,22 38,21.328427 38,20.5 38,19.671573 37.328427,19 36.5,19 Z m 4,0 C 39.671573,19 39,19.671573 39,20.5 39,21.328427 39.671573,22 40.5,22 41.328427,22 42,21.328427 42,20.5 42,19.671573 41.328427,19 40.5,19 Z"
       style="stroke:none;fill-opacity:1;fill:currentColor;" />
  </g>
  <g
     transform="matrix(0.6875,0,0,0.6875,117.875,147)"
     id="22-22-system-user-prompt"
     style="stroke-width:1.45455">
    <path
       id="path909-5"
       class="ColorScheme-Text"
       d="m 35.818183,21.09091 a 0.72727275,0.72727275 0 0 1 -0.727272,0.727273 0.72727275,0.72727275 0 0 1 -0.727273,-0.727273 0.72727275,0.72727275 0 0 1 0.727273,-0.727273 0.72727275,0.72727275 0 0 1 0.727272,0.727273 z m -2.181818,0 a 0.72727275,0.72727275 0 0 1 -0.727273,0.727273 0.72727275,0.72727275 0 0 1 -0.727272,-0.727273 0.72727275,0.72727275 0 0 1 0.727272,-0.727273 0.72727275,0.72727275 0 0 1 0.727273,0.727273 z m -2.181818,0 a 0.72727275,0.72727275 0 0 1 -0.727273,0.727273 0.72727275,0.72727275 0 0 1 -0.727273,-0.727273 0.72727275,0.72727275 0 0 1 0.727273,-0.727273 0.72727275,0.72727275 0 0 1 0.727273,0.727273 z m -2.181818,0 a 0.72727275,0.72727275 0 0 1 -0.727273,0.727273 0.72727275,0.72727275 0 0 1 -0.727273,-0.727273 0.72727275,0.72727275 0 0 1 0.727273,-0.727273 0.72727275,0.72727275 0 0 1 0.727273,0.727273 z m 5.81818,-10.909091 H 38 v 1.454545 h -2.909091 z m -2.909091,0 h 1.454545 v 1.454545 h -1.454545 z m -4.363635,0 h 2.909091 v 1.454545 h -2.909091 z m -2.909091,7.272727 v 7.272728 h 26.181819 v -7.272728 z m 1.454546,1.454546 h 23.272728 v 4.363636 H 26.363638 Z M 24.909097,7.2727345 V 14.545462 H 51.090916 V 7.2727345 Z M 26.363643,8.72728 h 23.272728 v 4.363637 H 26.363643 Z"
       style="stroke:none;fill-opacity:1;fill:currentColor;" />
    <path
       id="path44-5-7"
       d="M 22,0 V 32 H 54 V 0 Z"
       style="opacity:1;fill:none" />
  </g>
  <g
     transform="matrix(0.6875,0,0,0.6875,113.875,83.000001)"
     id="22-22-system-user-list"
     style="stroke-width:1.45455">
    <path
       id="path340-1-2"
       class="ColorScheme-Text"
       d="m 44.552119,10.181819 c -0.374531,0 -0.720437,0.103636 -1.028408,0.269887 1.89e-4,0.0019 -0.09527,0.05843 -0.09498,0.06047 0.114764,1.452661 -0.249454,2.376872 -0.665091,3.098603 0.396059,0.563505 1.048422,0.934682 1.788481,0.934682 1.025803,0 1.886094,-0.707989 2.119316,-1.661932 0.04073,-0.166636 0.06255,-0.340697 0.06255,-0.519887 -1.4e-5,-1.204987 -0.976843,-2.181818 -2.181818,-2.181818 z m -13.097528,0 c 0.374531,0 0.720436,0.103636 1.028407,0.269887 -1.89e-4,0.0019 0.09527,0.05843 0.09498,0.06047 -0.114764,1.452661 0.249455,2.376872 0.665091,3.098603 -0.396058,0.563505 -1.048422,0.934682 -1.78848,0.934682 -1.025804,0 -1.886095,-0.707989 -2.119317,-1.661932 -0.04073,-0.166636 -0.06254,-0.340697 -0.06254,-0.519887 1.4e-5,-1.204987 0.976844,-2.181818 2.181818,-2.181818 z m -4.4e-5,5.818168 c 1.226473,0 2.302211,0.565518 2.960233,1.477273 -0.369265,0.195739 -0.745004,0.436224 -1.070982,0.630662 -0.358356,-0.422659 -1.025004,-0.65339 -1.889251,-0.65339 -1.309454,0 -2.18182,0.960799 -2.18182,2.909104 h 1.818182 l -0.727273,1.454546 h -2.545454 l 1e-6,-2.21024 c 10e-7,-2.093049 1.622008,-3.607955 3.636364,-3.607955 z m 13.09091,1.4e-5 c -1.226473,0 -2.302211,0.565519 -2.960233,1.477273 0.369265,0.19574 0.745004,0.436224 1.070982,0.630662 0.358356,-0.422659 1.025003,-0.653389 1.889251,-0.653389 1.309454,0 2.181816,0.993887 2.181816,2.909089 h -1.818182 l 0.727273,1.454546 h 2.545454 l 2e-6,-2.210225 c 2e-6,-2.093049 -1.622007,-3.607956 -3.636363,-3.607956 z M 38,18.909091 c 2.909091,0 5.818182,1.454545 5.818182,5.818182 H 32.181818 c 0,-4.363637 2.909091,-5.818182 5.818182,-5.818182 z m 0,-1.454546 c -4.230226,0 -7.261221,2.974329 -7.269818,7.272728 l -0.0029,1.454545 h 14.545454 l -0.0029,-1.454545 C 45.261176,20.405961 42.230211,17.454545 38,17.454545 Z m 7.5e-5,-11.6363628 c -2.81168,0 -5.090953,2.2792686 -5.090953,5.0909048 0,2.811643 2.279273,5.090914 5.090953,5.090914 2.393556,0 4.401294,-1.651796 4.945498,-3.877663 0.09498,-0.388814 0.145469,-0.795143 0.145469,-1.213251 0,-2.8116362 -2.279316,-5.0909048 -5.090967,-5.0909048 z"
       style="stroke:none;fill-opacity:1;fill:currentColor;" />
    <path
       id="path84-3-7"
       d="M 22,0 V 32 H 54 V 0 Z"
       style="opacity:1;fill:none" />
  </g>
  <g
     id="g1147"
     style="isolation:auto;mix-blend-mode:normal;fill:#ffffff"
     transform="translate(189)" />
  <g
     id="g2297"
     transform="translate(21,83.000001)" />
  <g
     id="g6"
     transform="matrix(0.01836735,0,0,0.01836735,-40.18367,6.81633)" />
  <g
     id="system-suspend-hibernate"
     transform="translate(-47)">
    <path
       style="color:#000000;overflow:visible;opacity:0;fill:none;fill-opacity:1;stroke-width:1.06667"
       inkscape:connector-curvature="0"
       d="M 16,0 C 7.1723733,0 0,7.1723733 0,16 0,24.827627 7.1723733,32 16,32 24.827627,32 32,24.827627 32,16 32,7.1723733 24.827627,0 16,0 Z"
       overflow="visible"
       id="path938" />
    <rect
       x="24.721432"
       y="12.658059"
       width="3.2785513"
       height="0.91139299"
       id="rect12"
       style="stroke-width:1.54016;fill-opacity:1;fill:currentColor;"
       class="ColorScheme-Text" />
    <rect
       x="24.721432"
       y="15.088"
       width="3.2785513"
       height="0.91139299"
       id="rect14"
       style="stroke-width:1.54016;fill-opacity:1;fill:currentColor;"
       class="ColorScheme-Text" />
    <polygon
       points="-780.1,577.4 -780.1,581 -782.7,578.4 -783.6,579.3 -781,581.9 -784.6,581.9 -784.6,583.1 -781,583.1 -783.6,585.7 -782.7,586.5 -780.1,584 -780.1,587.6 -778.9,587.6 -778.9,584 -776.9,586 -776.9,584.3 -778,583.1 -776.9,583.1 -776.9,581.9 -778,581.9 -776.9,580.7 -776.9,579 -778.9,581 -778.9,577.4 "
       id="polygon16"
       transform="matrix(1.5612116,0,0,1.5189889,1228.9266,-872.76069)"
       style="fill-opacity:1;fill:currentColor;"
       class="ColorScheme-Text" />
    <path
       d="M 23.827021,19.34176 V 6.886153 C 23.827021,5.367193 22.421663,4 20.860485,4 19.299322,4 17.894298,5.215229 17.894298,6.886153 V 19.34176 c -1.249169,0.91152 -2.029556,2.278604 -2.029556,3.797585 0,2.58227 2.185672,4.860655 4.995743,4.860655 2.654108,0 4.99604,-2.126575 4.99604,-4.860655 0,-1.518981 -0.780683,-2.886065 -2.029504,-3.797585 z m -0.82911,0.651603 -4.996278,0.02028 4.98985,-0.01933 -0.0026,-0.0039 0.0062,-12.9558308 -4.980894,-0.024822 0.01103,-0.012174 -0.02272,13.0098008 5.010509,-0.0092 z"
       id="path6-6"
       style="stroke-width:1.54016;fill-opacity:1;fill:currentColor;"
       sodipodi:nodetypes="cssscsssccccccccccc"
       class="ColorScheme-Text" />
    <rect
       x="24.721432"
       y="10.380027"
       width="3.2785513"
       height="0.91139299"
       id="rect10"
       style="stroke-width:1.54016;fill-opacity:1;fill:currentColor"
       class="ColorScheme-Text " />
  </g>
  <g
     id="system-switch-user"
     transform="translate(236)">
    <circle
       transform="scale(1,-1)"
       cx="16"
       cy="-16"
       r="16"
       id="circle955"
       style="opacity:0;fill:none;fill-opacity:1;stroke-width:1.06667" />
    <path
       d="M 9.60011,15.199933 H 22.40003 C 25.48801,15.199933 28,12.687853 28,9.599967 28,6.51208 25.48792,4 22.40003,4 L 9.60011,4.000186 c -3.08798,0 -5.59997,2.51208 -5.59997,5.599966 0,3.087982 2.51208,5.599967 5.59997,5.599967 z m 0,-10.133273 h 12.79992 c 2.4987,0 4.53326,2.034607 4.53326,4.533259 0,2.498652 -2.0346,4.533259 -4.53326,4.533259 l -12.79992,1.9e-4 c -2.4987,0 -4.53326,-2.034607 -4.53326,-4.533258 -1.9e-4,-2.4987 2.03461,-4.53345 4.53326,-4.53345 z m 9.33328,4.53345 c 0,-1.911989 1.55465,-3.466694 3.46669,-3.466694 1.91204,0 3.46669,1.554657 3.46669,3.466694 0,1.911988 -1.55465,3.466693 -3.46669,3.466693 -1.91218,-1.9e-4 -3.46669,-1.554657 -3.46669,-3.466693 z m 3.4665,7.199957 H 9.59997 C 6.51199,16.800067 4,19.311956 4,22.400033 4,25.488014 6.51208,28 9.59997,28 h 12.79992 c 3.08798,0 5.59997,-2.51208 5.59997,-5.599967 -1.9e-4,-3.087981 -2.51227,-5.599966 -5.60045,-5.599966 z m -9.34375,5.813298 c -0.016,0.269341 -0.0614,0.533283 -0.13598,0.784042 -0.096,0.311942 -0.23195,0.602664 -0.40532,0.871995 -0.15736,0.242747 -0.34133,0.463913 -0.55209,0.661283 -0.24274,0.226746 -0.51728,0.418711 -0.81861,0.568092 -0.30934,0.157366 -0.64805,0.26395 -1.00261,0.319941 -0.17597,0.02939 -0.35733,0.04799 -0.54129,0.04799 -0.37332,0 -0.73323,-0.06139 -1.06937,-0.170755 C 8.23493,25.599973 7.95478,25.463997 7.69883,25.29603 7.46408,25.141455 7.25091,24.957305 7.06154,24.751938 6.8268,24.501198 6.63223,24.213276 6.48026,23.901324 6.26151,23.445414 6.13354,22.938711 6.13354,22.400049 c 0,-0.159972 0.016,-0.317337 0.0374,-0.474702 0.0266,-0.194752 0.0666,-0.386718 0.12537,-0.573283 0.36532,-1.151945 1.31994,-2.042607 2.50669,-2.3227 0.25577,-0.0612 0.4979407,-0.09747 0.7726507,-0.09747 0.0854,0 0.1925593,0.0096 0.2753293,0.01505 1.79446,0.12779 3.21574,1.626467 3.21574,3.453121 0,0.07199 -0.005,0.141371 -0.0106,0.213356 z m -3.4834359,-3.67608 -0.00105,0.0033 0.00844,-0.0011 -4.76e-4,0.0014 z"
       id="path67-6"
       style="fill:currentColor;fill-opacity:1;stroke-width:0.0476188"
       sodipodi:nodetypes="cssccsccssscccsssscscsssscccccccccsccccscccscsccccccc"
       class="ColorScheme-Text" />
  </g>
  <g
     id="system-lock-screen"
     transform="translate(189)">
    <path
       inkscape:connector-curvature="0"
       d="M 16,0 C 7.1723733,0 0,7.1723733 0,16 0,24.827627 7.1723733,32 16,32 24.827627,32 32,24.827627 32,16 32,7.1723733 24.827627,0 16,0 Z"
       overflow="visible"
       id="path953"
       style="color:#000000;overflow:visible;opacity:0;fill:none;fill-opacity:1;stroke-width:1.06667" />
    <path
       d="M 22.50029,14.051036 V 10.50012 C 22.50029,6.916032 19.58417,4 16.00017,4 12.41617,4 9.50005,6.915947 9.50005,10.50012 v 3.550916 C 8.35997,14.283068 7.5,15.293031 7.5,16.500098 v 8.999968 C 7.50017,26.878004 8.62114,28 10.00011,28 H 22.00006 C 23.379029,28 24.5,26.878004 24.5,25.500066 v -8.999968 c 0,-1.207024 -0.85997,-2.216992 -1.999881,-2.449062 z M 12.50004,10.50012 c 0,-1.930065 1.56998,-3.500045 3.50004,-3.500045 1.93007,0 3.50005,1.56998 3.50005,3.500045 v 3.499873 H 12.5003 Z m 4.60884,11.229817 0.38605,2.699004 c 0.0209,0.143974 -0.0219,0.288951 -0.11702,0.397936 -0.0949,0.109153 -0.23304,0.173104 -0.37802,0.173104 h -2.00005 c -0.14497,0 -0.28292,-0.06295 -0.37801,-0.17193 -0.0949,-0.108985 -0.13794,-0.254964 -0.11702,-0.397935 l 0.38605,-2.699005 c -0.83588,-0.41819 -1.39084,-1.28121 -1.39084,-2.231092 0,-1.377938 1.12097,-2.499934 2.49994,-2.499934 1.37896,0 2.49993,1.121996 2.49993,2.499934 0,0.949882 -0.55496,1.812893 -1.39101,2.229892 z"
       id="path2"
       style="stroke-width:0.042857;fill-opacity:1;fill:currentColor;"
       class="ColorScheme-Text" />
  </g>
  <g
     id="system-suspend"
     transform="translate(96)">
    <path
       d="m 18.491128,21.321934 c -1.657913,0 -3.210682,-0.451953 -4.546513,-1.238639 H 7.5141725 c -0.1624898,0 -0.2917017,-0.132813 -0.2917017,-0.292383 0,-0.162734 0.1326137,-0.292383 0.2917017,-0.292383 H 13.0689 c -2.169698,-1.645333 -3.5715618,-4.25195 -3.5715618,-7.181132 0,-2.151786 0.7701978,-4.2339533 2.1665278,-5.8644663 C 12.58752,5.3773177 13.746081,4.5393321 15.034097,4 8.8685328,4.4940359 4,9.6805793 4,15.98163 c 0,6.626917 5.382993,12.018371 11.99972,12.018371 2.997164,0 5.741262,-1.105815 7.844369,-2.932109 H 13.655612 c -0.16249,0 -0.291944,-0.132569 -0.291944,-0.292382 0,-0.162734 0.132371,-0.29214 0.291944,-0.29214 H 24.473329 C 26.648811,22.307733 28,19.300027 28,15.982085 c 0,-1.211365 -0.174633,-2.386736 -0.520498,-3.516899 -0.07529,4.897081 -4.080178,8.856854 -8.98782,8.856854 z"
       id="path4-7"
       style="stroke-opacity:1;stroke-width:0.0622246;stroke:none;fill-rule:nonzero;fill-opacity:1;fill:currentColor;opacity:1;"
       class="ColorScheme-Text" />
    <path
       d="m 18.133563,5.0090703 v 0 h 0.0264 z m 4.70172,7.1099497 h 0.0152 c 0,1.46559 1.19911,2.66454 2.66454,2.66454 v 0.0155 c -1.46559,0 -2.66454,1.19912 -2.66454,2.66427 h -0.0152 c 0,-1.46511 -1.19912,-2.66427 -2.66455,-2.66427 v -0.0155 c 1.46559,0 2.66455,-1.19911 2.66455,-2.66454 z m -4.70172,-7.1099497 h 0.0264 c 0,2.5640495 2.09796,4.6620097 4.66161,4.6620097 v 0.0264 c -2.56373,0 -4.66161,2.09764 -4.66161,4.66161 h -0.0264 c 0,-2.56405 -2.09796,-4.66161 -4.66201,-4.66161 v -0.0264 c 2.56405,0 4.66201,-2.0979602 4.66201,-4.6620097 z"
       fill-rule="evenodd"
       id="path67"
       sodipodi:nodetypes="cccccccccccccccccccccc"
       style="stroke-width:0.0397071;fill-opacity:1;fill:currentColor;opacity:1;"
       class="ColorScheme-Text" />
    <path
       inkscape:connector-curvature="0"
       d="M 16,0 C 7.17141,0 0,7.171413 0,16 0,24.828587 7.17141,32 16,32 24.82859,32 32,24.828587 32,16 32,7.171413 24.82859,0 16,0 Z"
       overflow="visible"
       id="path945-6"
       style="color:#000000;overflow:visible;fill:none;fill-opacity:1;stroke-width:1.06667" />
  </g>
  <g
     id="22-22-system-suspend-hibernate"
     transform="translate(21,147)">
    <path
       id="path49-1"
       d="M 0,0 V 22 H 22 V 0 Z"
       style="fill:none" />
    <rect
       x="18.418087"
       y="8.2150555"
       width="2.7321262"
       height="0.75949419"
       id="rect12-6"
       style="stroke-width:1.28347;fill-opacity:1;fill:currentColor;"
       class="ColorScheme-Text" />
    <rect
       x="18.418087"
       y="10.239998"
       width="2.7321262"
       height="0.75949419"
       id="rect14-0"
       style="stroke-width:1.28347;fill-opacity:1;fill:currentColor;"
       class="ColorScheme-Text" />
    <polygon
       points="-782.7,578.4 -783.6,579.3 -781,581.9 -784.6,581.9 -784.6,583.1 -781,583.1 -783.6,585.7 -782.7,586.5 -780.1,584 -780.1,587.6 -778.9,587.6 -778.9,584 -776.9,586 -776.9,584.3 -778,583.1 -776.9,583.1 -776.9,581.9 -778,581.9 -776.9,580.7 -776.9,579 -778.9,581 -778.9,577.4 -780.1,577.4 -780.1,581 "
       id="polygon16-6"
       transform="matrix(1.3010097,0,0,1.2658241,1021.9222,-729.63392)"
       style="fill-opacity:1;fill:currentColor;"
       class="ColorScheme-Text" />
    <path
       d="M 17.672744,13.7848 V 3.405125 C 17.672744,2.139325 16.501612,1 15.200631,1 13.899661,1 12.728808,2.0126917 12.728808,3.405125 V 13.7848 c -1.040974,0.7596 -1.691297,1.898833 -1.691297,3.164658 0,2.151884 1.821394,4.050542 4.16312,4.050542 2.211756,0 4.163366,-1.77215 4.163366,-4.050542 0,-1.265825 -0.650569,-2.405058 -1.691253,-3.164658 z m -0.690925,0.543 -4.163565,0.01692 4.158208,-0.01608 -0.0022,-0.0033 0.0052,-10.796525 -4.150745,-0.020667 0.0092,-0.010167 -0.01893,10.8415 4.175424,-0.0075 z"
       id="path6-6-2"
       style="stroke-width:1.28347;fill-opacity:1;fill:currentColor;"
       sodipodi:nodetypes="cssscsssccccccccccc"
       class="ColorScheme-Text" />
    <rect
       x="18.418087"
       y="6.3166838"
       width="2.7321262"
       height="0.75949419"
       id="rect10-6"
       style="stroke-width:1.28347;fill-opacity:1;fill:currentColor;"
       class="ColorScheme-Text" />
  </g>
  <g
     id="22-22-system-suspend"
     transform="translate(21,178)">
    <path
       id="path69"
       d="M 0,0 V 22 H 21.999999 V 0 Z"
       style="fill:none;stroke-width:1.02353" />
    <path
       d="m 13.094083,15.434942 c -1.38367,0 -2.679589,-0.376625 -3.794454,-1.032192 H 3.932877 c -0.135612,0 -0.24345,-0.110683 -0.24345,-0.243658 0,-0.135609 0.110677,-0.24365 0.24345,-0.24365 H 8.5687708 C 6.757973,12.544333 5.587998,10.37215 5.587998,7.931167 c 0,-1.793159 0.642795,-3.5283 1.808152,-4.887059 C 8.1670175,2.147767 9.133936,1.449442 10.208895,1 5.063206,1.4117 1,5.733817 1,10.984692 1,16.507125 5.492567,21 11.01479,21 c 2.501388,0 4.791573,-0.921508 6.546794,-2.443425 H 9.058432 c -0.1356122,0 -0.2436528,-0.110475 -0.2436528,-0.24365 0,-0.135608 0.1104746,-0.24345 0.2436528,-0.24345 h 9.028307 c 1.815628,-1.813033 2.943311,-4.31945 2.943311,-7.084408 0,-1.009467 -0.14575,-1.988942 -0.4344,-2.930742 -0.06283,4.0809 -3.40526,7.380708 -7.501106,7.380708 z"
       id="path4-7-2"
       style="stroke-opacity:1;stroke-width:0.0518927;stroke:none;fill-rule:nonzero;fill-opacity:1;fill:currentColor;"
       class="ColorScheme-Text" />
    <path
       d="m 12.777969,1.840892 v 0 h 0.022 z m 3.9181,5.924958 h 0.01267 c 0,1.221325 0.999258,2.22045 2.220447,2.22045 v 0.01292 c -1.221325,0 -2.22045,0.999266 -2.22045,2.220225 h -0.01267 c 0,-1.220925 -0.999266,-2.220225 -2.220458,-2.220225 V 9.9863 c 1.221325,0 2.220458,-0.999258 2.220458,-2.22045 z m -3.9181,-5.924958 h 0.022 c 0,2.136708 1.7483,3.885008 3.884675,3.885008 v 0.022 c -2.136441,0 -3.884675,1.748033 -3.884675,3.884675 h -0.022 c 0,-2.136708 -1.7483,-3.884675 -3.8850082,-3.884675 v -0.022 c 2.1367082,0 3.8850082,-1.7483 3.8850082,-3.885008 z"
       fill-rule="evenodd"
       id="path67-0"
       sodipodi:nodetypes="cccccccccccccccccccccc"
       style="stroke-width:0.0330893;fill-opacity:1;fill:currentColor;"
       class="ColorScheme-Text" />
  </g>
  <g
     id="22-22-system-switch-user"
     transform="translate(75,83.000001)">
    <path
       id="path79"
       d="M 0,0 V 22 H 22 V 0 Z"
       style="fill:none" />
    <path
       d="m 5.666758,10.333278 h 10.6666 C 18.906675,10.333278 21,8.239878 21,5.666639 21,3.0934 18.9066,1 16.333358,1 l -10.6666,1.55e-4 c -2.573316,0 -4.666641,2.0934 -4.666641,4.666638 0,2.573319 2.0934,4.66664 4.666641,4.66664 z m 0,-8.4443947 h 10.6666 c 2.08225,0 3.777717,1.6955059 3.777717,3.7777157 0,2.08221 -1.6955,3.777716 -3.777717,3.777716 l -10.6666,1.58e-4 c -2.08225,0 -3.777716,-1.695505 -3.777716,-3.777715 C 1.888883,3.5845083 3.58455,1.8888833 5.666758,1.8888833 Z m 7.777734,3.7778747 c 0,-1.5933238 1.295541,-2.8889113 2.888908,-2.8889113 1.593367,0 2.888908,1.2955475 2.888908,2.8889113 0,1.593324 -1.295541,2.888911 -2.888908,2.888911 -1.593483,-1.58e-4 -2.888908,-1.295547 -2.888908,-2.888911 z m 2.88875,5.999965 H 5.666642 C 3.093325,11.666722 1,13.759963 1,16.333361 1,18.906678 3.0934,21 5.666642,21 h 10.6666 c 2.573316,0 4.666641,-2.0934 4.666641,-4.666639 -1.58e-4,-2.573318 -2.093558,-4.666639 -4.667041,-4.666639 z m -7.786459,4.844415 c -0.01333,0.22445 -0.05117,0.444402 -0.113316,0.653368 -0.08,0.259951 -0.193292,0.50222 -0.337767,0.726662 -0.131133,0.20229 -0.284442,0.386595 -0.460075,0.551069 -0.202283,0.188955 -0.431067,0.348926 -0.682175,0.473411 -0.257783,0.131138 -0.540042,0.219958 -0.835508,0.266617 -0.146642,0.02449 -0.297775,0.03999 -0.451075,0.03999 -0.3111,0 -0.611025,-0.05116 -0.891142,-0.142296 C 4.529108,18.999979 4.29565,18.886662 4.082358,18.74669 3.886733,18.617877 3.709092,18.464419 3.551283,18.29328 3.355667,18.08433 3.193525,17.844395 3.066883,17.584435 2.884592,17.20451 2.77795,16.782257 2.77795,16.333372 c 0,-0.13331 0.01333,-0.264447 0.03117,-0.395585 0.02217,-0.162293 0.0555,-0.322265 0.104475,-0.477736 0.304433,-0.959954 1.09995,-1.702172 2.088908,-1.935583 0.213142,-0.051 0.41495,-0.08122 0.643875,-0.08122 0.07117,0 0.160467,0.008 0.229442,0.01254 1.495383,0.106491 2.679783,1.355389 2.679783,2.8776 0,0.05999 -0.0042,0.11781 -0.0088,0.177797 z m -2.902866,-3.0634 -8.34e-4,0.0027 0.0067,-9.16e-4 -3.92e-4,0.0012 z"
       id="path67-6-9"
       style="stroke-width:0.0396823;fill-opacity:1;fill:currentColor;"
       sodipodi:nodetypes="cssccsccssscccsssscscsssscccccccccsccccscccscsccccccc"
       class="ColorScheme-Text" />
  </g>
  <g
     id="22-22-system-lock-screen"
     transform="translate(75,179)">
    <path
       id="path19"
       d="M 0,0 V 22 H 22 V 0 Z"
       style="fill:none" />
    <path
       d="M 16.400242,9.375863 V 6.416767 C 16.400242,3.430027 13.970142,1 10.983475,1 7.996808,1 5.566708,3.429956 5.566708,6.416767 V 9.375863 C 4.616642,9.569223 3.9,10.410859 3.9,11.416748 v 7.499974 C 3.900142,20.065003 4.834283,21 5.983425,21 h 9.999958 c 1.149141,0 2.083284,-0.934997 2.083284,-2.083278 v -7.499974 c 0,-1.005853 -0.716642,-1.847493 -1.666568,-2.040885 z M 8.0667,6.416767 c 0,-1.608388 1.308317,-2.916705 2.9167,-2.916705 1.608392,0 2.916708,1.308317 2.916708,2.916705 V 9.333328 H 8.066917 Z m 3.8407,9.358181 0.321708,2.24917 c 0.01742,0.119978 -0.01825,0.240792 -0.09752,0.331613 -0.07908,0.09096 -0.1942,0.144253 -0.315017,0.144253 h -1.666708 c -0.120809,0 -0.235767,-0.05246 -0.315009,-0.143275 -0.07908,-0.09082 -0.11495,-0.21247 -0.09752,-0.331612 l 0.321708,-2.249171 C 9.362475,15.427434 8.900009,14.708251 8.900009,13.916683 c 0,-1.148282 0.934141,-2.083279 2.083283,-2.083279 1.149133,0 2.083275,0.934997 2.083275,2.083279 0,0.791568 -0.462467,1.510744 -1.159175,1.858243 z"
       id="path2-1"
       style="stroke-width:0.0357142;fill-opacity:1;fill:currentColor;"
       class="ColorScheme-Text" />
  </g>
  <g
     id="22-22-system-shutdown"
     transform="translate(75,147)">
    <path
       id="path49"
       d="m -54,-32 v 22 h 22 v -22 z"
       style="fill:none" />
    <path
       d="m -40.545689,-30.350031 c 4.454643,1.075002 7.545689,5.016812 7.545689,9.496022 0,5.46451 -4.545692,9.85401 -9.99999,9.85401 -5.545478,0 -10.00001,-4.38961 -10.00001,-9.85401 0,-4.47931 3.090926,-8.42102 7.454853,-9.496022 1.000121,-0.08969 1.36378,1.343852 0,1.881302 -3.363758,1.075 -5.636822,4.12075 -5.636822,7.61451 0,4.47932 3.636388,8.06251 8.181979,8.06251 4.454633,0 8.181949,-3.5833 8.181949,-8.06251 0,-3.49381 -2.363656,-6.53951 -5.727648,-7.61451 -1.363759,-0.5375 -1.000101,-1.970796 0,-1.881302 z m -2.454301,19.350032 z m 0,0 z m -1.000122,-18.99211 v 8.95853 c 0,1.34385 1.909192,1.34385 1.909192,0 v -8.95853 c 0,-1.343855 -1.909192,-1.343855 -1.909192,0 z"
       id="path67-36-5-7-9"
       sodipodi:nodetypes="csssccsssccccccccccccccccccccsssss"
       style="stroke-width:0.0536639;fill-rule:nonzero;fill-opacity:1;fill:currentColor;"
       class="ColorScheme-Text" />
  </g>
  <g
     id="system-reboot">
    <path
       inkscape:connector-curvature="0"
       d="M 16,0 C 7.1714133,0 0,7.1714133 0,16 0,24.828587 7.1714133,32 16,32 24.82752,32 32,24.828587 32,16 32,7.17248 24.828587,0 16,0 Z"
       overflow="visible"
       id="path940"
       style="color:#000000;overflow:visible;opacity:0;fill:none;fill-opacity:1;stroke-width:1.06667" />
    <path
       d="m 15.013115,4 c -1.46404,0.00367 -2.917213,0.2586 -4.295025,0.75419 -0.28272,0.101446 -0.452345,0.390536 -0.40273,0.686826 0.04929,0.296298 0.303776,0.51443 0.603951,0.518594 5.858034,0.084829 10.519184,4.54535 11.192564,10.22259 h -3.07274 c -0.25113,2.9e-4 -0.4773,0.15133 -0.57347,0.38333 -0.0959,0.23198 -0.0429,0.4989 0.13443,0.67658 l 6.02683,6.026841 c 0.24254,0.242229 0.63555,0.242229 0.878087,0 l 6.026844,-6.026841 c 0.177389,-0.17767 0.230319,-0.44459 0.134429,-0.67658 -0.0962,-0.232 -0.32236,-0.38305 -0.57348,-0.38333 h -3.40005 C 27.349894,9.423382 21.858845,4.000516 15.015805,4.000516 h -0.003 z m 0.003,1.2417231 c 6.392122,0 11.560817,5.1689909 11.560817,11.5608169 2.85e-4,0.342851 0.278011,0.62086 0.620871,0.62086 h 2.396156 L 25.066127,21.951231 20.538295,17.4234 h 2.359835 c 0.171016,2.9e-4 0.334828,-0.0702 0.452342,-0.19456 0.117506,-0.12446 0.178484,-0.29187 0.168507,-0.46261 -0.322523,-5.5146 -4.210692,-9.918898 -9.349302,-11.377036 0.28688,-0.022431 0.55794,-0.147176 0.8465,-0.148006 z M 7.0127977,8.549754 c -0.161308,0.0028 -0.315138,0.06794 -0.429342,0.181828 L 0.55662173,14.75841 c -0.177386,0.17767 -0.230334,0.44459 -0.134426,0.67658 0.09617,0.232 0.32234602,0.38305 0.57345997,0.38333 h 3.40005 C 4.7380107,22.57742 10.22933,28.00071 17.072645,28 c 1.467093,0 2.9214,-0.26165 4.29751,-0.75667 h 2.9e-4 c 0.28272,-0.10146 0.45234,-0.39054 0.40273,-0.686826 -0.0493,-0.296024 -0.30377,-0.514434 -0.60396,-0.518604 -5.85824,-0.08509 -10.519184,-4.54307 -11.19255,-10.21974 h 3.072739 c 0.25112,-2.9e-4 0.477281,-0.15134 0.57346,-0.38333 0.09591,-0.231998 0.0429,-0.4989 -0.134419,-0.67658 L 7.4616047,8.731416 C 7.3426937,8.612504 7.1808317,8.547096 7.0128597,8.549588 Z m 0.01,1.498652 v 2.12e-4 1e-5 0 0 0 0 0 0 0 0 0 z"
       id="path2-36-2"
       sodipodi:nodetypes="ccccccccccccccsccccsccccscccccccccccccccccccsccccccccccccccc"
       style="fill:currentColor;fill-opacity:1;stroke:none;stroke-width:0.070956;stroke-opacity:1"
       class="ColorScheme-Text" />
  </g>
  <g
     id="22-22-system-reboot"
     transform="translate(21.1,83.000001)">
    <path
       id="path9"
       d="m 0.913995,0 v 20 h 20 V 0 Z"
       style="fill:none;stroke-width:0.909091" />
    <path
       d="M 10.124672,1.75 C 9.1120442,1.7526 8.1069322,1.928865 7.1539462,2.271648 c -0.195548,0.07017 -0.312872,0.270121 -0.278555,0.475055 0.03409,0.204939 0.210111,0.355814 0.417733,0.358694 4.0518068,0.05867 7.2757688,3.143867 7.7415238,7.070625 h -2.125312 c -0.173698,2e-4 -0.330132,0.10467 -0.39665,0.265136 -0.06633,0.160453 -0.02967,0.345073 0.09298,0.467968 l 4.168557,4.168565 c 0.167757,0.167542 0.439589,0.167542 0.607344,0 l 4.168567,-4.168565 c 0.122694,-0.122888 0.159304,-0.307508 0.09298,-0.467968 -0.06654,-0.160466 -0.222966,-0.264943 -0.396657,-0.265136 H 18.894756 C 18.65761,5.501173 14.859634,1.750357 10.126532,1.750357 h -0.0021 z m 0.0021,0.858858 c 4.421218,0 7.996232,3.575219 7.996232,7.996232 1.97e-4,0.237139 0.192291,0.429428 0.429436,0.429428 h 1.657341 l -3.13175,3.13175 -3.131751,-3.13175 h 1.632219 c 0.118286,2.01e-4 0.23159,-0.04855 0.31287,-0.13457 0.08127,-0.08608 0.123452,-0.201877 0.116551,-0.319972 C 15.784841,6.765711 13.095525,3.719405 9.541319,2.710859 9.739745,2.695349 9.927228,2.609062 10.126815,2.608488 Z M 4.5911442,4.896913 c -0.111572,0.0019 -0.217971,0.04699 -0.296962,0.125765 L 0.12562215,9.191234 c -0.122692,0.122888 -0.159314,0.307508 -0.09298,0.467967 0.06652,0.160467 0.222956,0.264943 0.39664303,0.265137 H 2.7809862 c 0.236761,4.675044 4.034924,8.426153 8.7682178,8.425662 1.014739,0 2.020635,-0.180975 2.972444,-0.523363 h 2.01e-4 c 0.195547,-0.07018 0.312868,-0.270124 0.278554,-0.475055 -0.0341,-0.20475 -0.210107,-0.355817 -0.417739,-0.358701 -4.051949,-0.05885 -7.2757688,-3.14229 -7.7415138,-7.068654 h 2.125311 c 0.173691,-2e-4 0.330119,-0.104677 0.396643,-0.265136 0.06634,-0.160466 0.02967,-0.345073 -0.09297,-0.467968 L 4.9015702,5.022563 C 4.8193202,4.940313 4.7073682,4.895075 4.5911882,4.896798 Z m 0.0069,1.036568 v 1.46e-4 7e-6 0 0 0 0 0 0 0 0 0 z"
       id="path2-36-2-0"
       sodipodi:nodetypes="ccccccccccccccsccccsccccscccccccccccccccccccsccccccccccccccc"
       style="stroke-opacity:1;stroke-width:0.0490779;stroke:none;fill-opacity:1;fill:currentColor;"
       class="ColorScheme-Text" />
  </g>
</svg>
