<?xml version="1.0" encoding="UTF-8" standalone="no"?>
<svg
   sodipodi:docname="update.svg"
   inkscape:version="1.1.2 (0a00cf5339, 2022-02-04)"
   id="svg846"
   version="1.1"
   viewBox="0 0 5.8208332 5.8208335"
   height="22"
   width="22"
   xmlns:inkscape="http://www.inkscape.org/namespaces/inkscape"
   xmlns:sodipodi="http://sodipodi.sourceforge.net/DTD/sodipodi-0.dtd"
   xmlns="http://www.w3.org/2000/svg"
   xmlns:svg="http://www.w3.org/2000/svg"
   xmlns:rdf="http://www.w3.org/1999/02/22-rdf-syntax-ns#"
   xmlns:cc="http://creativecommons.org/ns#"
   xmlns:dc="http://purl.org/dc/elements/1.1/">
  <defs
     id="defs840">
    <linearGradient
       id="oomox"
       x1="-0.0001251408"
       x2="-0.0001251408"
       y1="-3.4729623e-05"
       y2="16.000065"
       gradientTransform="matrix(0.39687166,0,0,0.39687166,1.058403,298.05833)"
       gradientUnits="userSpaceOnUse">
      <stop
         offset="0%"
         style="stop-color:#303b3d; stop-opacity:1"
         id="stop18" />
      <stop
         offset="100%"
         style="stop-color:#bc985d; stop-opacity:1"
         id="stop20" />
    </linearGradient>
    <linearGradient
       id="oomox-3"
       x1="2.9855692"
       x2="2.9855692"
       y1="0"
       y2="13.290598"
       gradientTransform="matrix(0.17857078,0,0,0.25879833,2.5095723,299.51354)"
       gradientUnits="userSpaceOnUse">
      <stop
         offset="0%"
         style="stop-color:#303b3d; stop-opacity:1"
         id="stop18-6" />
      <stop
         offset="100%"
         style="stop-color:#bc985d; stop-opacity:1"
         id="stop20-7" />
    </linearGradient>
  </defs>
  <sodipodi:namedview
     inkscape:document-rotation="0"
     inkscape:snap-midpoints="true"
     inkscape:object-paths="true"
     inkscape:snap-intersection-paths="true"
     inkscape:snap-smooth-nodes="true"
     inkscape:window-maximized="1"
     inkscape:window-y="0"
     inkscape:window-x="0"
     inkscape:window-height="1015"
     inkscape:window-width="1920"
     units="px"
     showgrid="false"
     inkscape:current-layer="layer1"
     inkscape:document-units="px"
     inkscape:cy="26.874999"
     inkscape:cx="-28.499999"
     inkscape:zoom="4.0000002"
     inkscape:pageshadow="2"
     inkscape:pageopacity="0.0"
     borderopacity="1.0"
     bordercolor="#666666"
     pagecolor="#ffffff"
     id="base"
     inkscape:lockguides="false"
     inkscape:pagecheckerboard="0">
    <inkscape:grid
       id="grid1394"
       type="xygrid"
       originx="-17.462483"
       originy="6.7465632e-05" />
  </sodipodi:namedview>
  <metadata
     id="metadata843">
    <rdf:RDF>
      <cc:Work
         rdf:about="">
        <dc:format>image/svg+xml</dc:format>
        <dc:type
           rdf:resource="http://purl.org/dc/dcmitype/StillImage" />
      </cc:Work>
    </rdf:RDF>
  </metadata>
  <style
     id="current-color-scheme"
     type="text/css">.ColorScheme-Highlight { color:#7997b9; }
.ColorScheme-Text { color:#d6dbf1; }
</style>
  <g
     transform="translate(-17.4625,-291.17914)"
     id="layer1"
     inkscape:groupmode="layer"
     inkscape:label="Layer 1">
    <g
       id="22-22-update-low">
      <rect
         style="opacity:0.003;fill:#000000;fill-opacity:1;stroke:none;stroke-width:0.10795;stroke-miterlimit:4;stroke-dasharray:none;stroke-opacity:1"
         id="rect1396-3-2"
         width="5.8208332"
         height="5.8208332"
         x="17.4625"
         y="291.17914"
         ry="1.2988288e-06" />
      <path
         style="fill:currentColor;fill-opacity:1;stroke-width:0.264583"
         d="m 20.372916,291.97288 c -1.170516,0 -2.116666,0.94615 -2.116666,2.11667 0,1.17052 0.94615,2.11666 2.116666,2.11666 1.170517,0 2.116667,-0.94614 2.116667,-2.11666 0,-1.17052 -0.94615,-2.11667 -2.116667,-2.11667 z m 0,0.26459 c 1.023934,0 1.852084,0.82814 1.852084,1.85208 0,1.02393 -0.82815,1.85208 -1.852084,1.85208 -1.023941,0 -1.852083,-0.82815 -1.852083,-1.85208 0,-1.02394 0.828142,-1.85208 1.852083,-1.85208 z m 0.198434,1.51315 v 0 0 0 0 0 c 0,0 -0.009,0.002 0,0 z m -0.206638,1.19062 z"
         id="path58-06-90"
         sodipodi:nodetypes="ssssssssssccccccccccccccccc"
         class="ColorScheme-Text" />
      <path
         d="m 20.26845,292.87687 c -0.148326,3.8e-4 -0.295552,0.0262 -0.435142,0.0764 -0.02864,0.0103 -0.04583,0.0395 -0.0408,0.0696 0.005,0.03 0.03078,0.0521 0.06119,0.0525 0.593496,0.009 1.065732,0.46051 1.133954,1.03569 h -0.311309 c -0.02544,2e-5 -0.04836,0.0153 -0.0581,0.0388 -0.0097,0.0235 -0.0043,0.0505 0.01362,0.0685 l 0.610597,0.6106 c 0.02457,0.0245 0.06439,0.0245 0.08896,0 l 0.610599,-0.6106 c 0.01797,-0.018 0.02333,-0.0451 0.01362,-0.0685 -0.0098,-0.0235 -0.03266,-0.0388 -0.0581,-0.0388 h -0.344474 c -0.03474,-0.68476 -0.591052,-1.23417 -1.284342,-1.23417 h -3.04e-4 z m 1.018503,1.81867 z m -1.82904,-1.35771 c -0.01634,2.8e-4 -0.03193,0.007 -0.0435,0.0184 l -0.610598,0.6106 c -0.01797,0.018 -0.02334,0.0451 -0.01362,0.0685 0.0097,0.0235 0.03266,0.0388 0.0581,0.0388 h 0.34447 c 0.03468,0.68479 0.591023,1.23424 1.284341,1.23417 0.148636,0 0.295976,-0.0265 0.435394,-0.0767 h 3e-5 c 0.02864,-0.0103 0.04583,-0.0395 0.0408,-0.0696 -0.005,-0.03 -0.03078,-0.0521 -0.06119,-0.0525 -0.593517,-0.009 -1.065732,-0.46027 -1.133953,-1.03539 h 0.311309 c 0.02544,-4e-5 0.04836,-0.0153 0.0581,-0.0388 0.0097,-0.0235 0.0044,-0.0505 -0.01362,-0.0685 l -0.610598,-0.6106 c -0.01205,-0.0121 -0.02845,-0.0187 -0.04546,-0.0184 z m 10e-4,0.15183 v 2e-5 0 0 0 0 0 0 0 0 0 0 z"
         id="path2-36-15-9"
         sodipodi:nodetypes="ccccccccccccccscccccccccccccccccccccccccccccsccccccccccccccc"
         style="color:#d6dbf1;fill:#5599ff;fill-opacity:1;stroke:none;stroke-width:0.0071888;stroke-opacity:1" />
    </g>
    <g
       id="22-22-update-medium">
      <rect
         style="opacity:0.003;fill:#000000;fill-opacity:1;stroke:none;stroke-width:0.10795;stroke-miterlimit:4;stroke-dasharray:none;stroke-opacity:1"
         id="rect1396-3-1"
         width="5.8208332"
         height="5.8208332"
         x="11.641666"
         y="291.17914"
         ry="1.2988288e-06" />
      <path
         style="fill:currentColor;fill-opacity:1;stroke-width:0.264583"
         d="m 14.552083,291.97289 c -1.170516,0 -2.116666,0.94615 -2.116666,2.11667 0,1.17052 0.94615,2.11666 2.116666,2.11666 1.170517,0 2.116667,-0.94614 2.116667,-2.11666 0,-1.17052 -0.94615,-2.11667 -2.116667,-2.11667 z m 0,0.26459 c 1.023934,0 1.852084,0.82814 1.852084,1.85208 0,1.02393 -0.82815,1.85208 -1.852084,1.85208 -1.023941,0 -1.852083,-0.82815 -1.852083,-1.85208 0,-1.02394 0.828142,-1.85208 1.852083,-1.85208 z m 0.198434,1.51315 v 0 0 0 0 0 c 0,0 -0.009,0.002 0,0 z m -0.206638,1.19062 z"
         id="path58-06-1"
         sodipodi:nodetypes="ssssssssssccccccccccccccccc"
         class="ColorScheme-Text" />
      <path
         d="m 14.447617,292.87688 c -0.148326,3.8e-4 -0.295552,0.0262 -0.435142,0.0764 -0.02864,0.0103 -0.04583,0.0395 -0.0408,0.0696 0.005,0.03 0.03078,0.0521 0.06119,0.0525 0.593496,0.009 1.065732,0.46051 1.133954,1.03569 H 14.85551 c -0.02544,2e-5 -0.04836,0.0153 -0.0581,0.0388 -0.0097,0.0235 -0.0044,0.0505 0.01362,0.0685 l 0.610597,0.6106 c 0.02457,0.0245 0.06439,0.0245 0.08896,0 l 0.610599,-0.6106 c 0.01797,-0.018 0.02333,-0.0451 0.01362,-0.0685 -0.0097,-0.0235 -0.03266,-0.0388 -0.0581,-0.0388 h -0.344474 c -0.03474,-0.68476 -0.591052,-1.23417 -1.284342,-1.23417 h -3.04e-4 z m 1.018503,1.81867 z m -1.82904,-1.35771 c -0.01634,2.8e-4 -0.03193,0.007 -0.0435,0.0184 l -0.610598,0.6106 c -0.01797,0.018 -0.02334,0.0451 -0.01362,0.0685 0.0097,0.0235 0.03266,0.0388 0.0581,0.0388 h 0.34447 c 0.03468,0.68479 0.591023,1.23424 1.284341,1.23417 0.148636,0 0.295976,-0.0265 0.435394,-0.0767 h 3e-5 c 0.02864,-0.0103 0.04583,-0.0395 0.0408,-0.0696 -0.005,-0.03 -0.03078,-0.0521 -0.06119,-0.0525 -0.593517,-0.009 -1.065732,-0.46027 -1.133953,-1.03539 h 0.311309 c 0.02544,-4e-5 0.04835,-0.0153 0.0581,-0.0388 0.0097,-0.0235 0.0043,-0.0505 -0.01362,-0.0685 l -0.610598,-0.6106 c -0.01205,-0.0121 -0.02845,-0.0187 -0.04546,-0.0184 z m 0.001,0.15183 v 2e-5 0 0 0 0 0 0 0 0 0 0 z"
         id="path2-36-15-7"
         sodipodi:nodetypes="ccccccccccccccscccccccccccccccccccccccccccccsccccccccccccccc"
         style="color:#d6dbf1;fill:#ff944c;fill-opacity:1;stroke:none;stroke-width:0.0071888;stroke-opacity:1" />
    </g>
    <g
       id="update-none">
      <rect
         style="opacity:0.003;fill:#a8aeca;fill-opacity:1;stroke:none;stroke-width:0.157018;stroke-miterlimit:4;stroke-dasharray:none;stroke-opacity:1"
         id="rect1396-6"
         width="8.4666672"
         height="8.46667"
         x="0"
         y="297"
         ry="1.8892064e-06" />
      <path
         style="fill:currentColor;fill-opacity:1;stroke-width:0.396875"
         class="ColorScheme-Text "
         d="m 4.2333331,298.05833 c -1.755775,0 -3.1749998,1.41923 -3.1749998,3.175 0,1.75578 1.4192248,3.175 3.1749998,3.175 1.755775,0 3.1749999,-1.41922 3.1749999,-3.175 0,-1.75577 -1.4192249,-3.175 -3.1749999,-3.175 z m 0,0.39688 c 1.5359009,0 2.7781249,1.24222 2.7781249,2.77812 0,1.5359 -1.242224,2.77813 -2.7781249,2.77813 -1.5359115,0 -2.7781253,-1.24223 -2.7781253,-2.77813 0,-1.5359 1.2422138,-2.77812 2.7781253,-2.77812 z m 0.2976509,2.26973 v 0 0 0 0 0 c 0,0 -0.01347,0.003 0,0 z m -0.309957,1.78593 z"
         id="path58"
         sodipodi:nodetypes="ssssssssssccccccccccccccccc" />
      <path
         d="m 4.0766341,299.41432 c -0.2224897,5.6e-4 -0.4433281,0.0393 -0.6527138,0.11462 -0.042965,0.0154 -0.068743,0.0593 -0.061203,0.10437 0.00749,0.045 0.046165,0.0782 0.091782,0.0788 0.890244,0.0129 1.5985977,0.69076 1.7009311,1.55353 H 4.6884669 c -0.038164,4e-5 -0.072535,0.023 -0.08715,0.0582 -0.014574,0.0353 -0.00652,0.0758 0.020429,0.10282 l 0.9158958,0.9159 c 0.036859,0.0368 0.096584,0.0368 0.1334427,0 l 0.9158979,-0.9159 c 0.026958,-0.027 0.035002,-0.0676 0.020429,-0.10282 -0.014619,-0.0353 -0.048989,-0.0582 -0.087152,-0.0582 H 6.0035558 C 5.9514518,300.2385 5.116978,299.41439 4.077043,299.41439 h -4.56e-4 z m 1.5277541,2.728 z m -2.7435604,-2.03657 c -0.024514,4.2e-4 -0.047891,0.0103 -0.065247,0.0276 l -0.9158963,0.9159 c -0.026957,0.027 -0.035004,0.0676 -0.020429,0.10282 0.014615,0.0353 0.048987,0.0582 0.087149,0.0582 h 0.5167047 c 0.05202,1.02718 0.8865345,1.85136 1.9265114,1.85125 0.2229537,0 0.4439644,-0.0397 0.6530915,-0.11499 h 4.4e-5 c 0.042965,-0.0154 0.068742,-0.0593 0.061203,-0.10438 -0.00749,-0.045 -0.046164,-0.0782 -0.091784,-0.0788 -0.8902753,-0.0129 -1.5985978,-0.69041 -1.7009291,-1.55309 h 0.4669634 c 0.038163,-5e-5 0.072532,-0.023 0.087149,-0.0582 0.014575,-0.0353 0.00652,-0.0758 -0.020428,-0.10282 l -0.9158976,-0.9159 c -0.018071,-0.0181 -0.042669,-0.028 -0.068196,-0.0276 z m 0.00152,0.22775 v 3e-5 0 0 0 0 0 0 0 0 0 0 z"
         id="path2-36"
         sodipodi:nodetypes="ccccccccccccccscccccccccccccccccccccccccccccsccccccccccccccc"
         style="fill:currentColor;fill-opacity:1;stroke:none;stroke-width:0.0107832;stroke-opacity:1"
         class="ColorScheme-Text" />
    </g>
    <g
       id="update-high">
      <rect
         style="opacity:0.003;fill:#000000;fill-opacity:1;stroke:none;stroke-width:0.157018;stroke-miterlimit:4;stroke-dasharray:none;stroke-opacity:1"
         id="rect1396-6-9"
         width="8.4666672"
         height="8.46667"
         x="8.4666672"
         y="296.99997"
         ry="1.8892064e-06" />
      <path
         style="fill:currentColor;fill-opacity:1;stroke-width:0.396875"
         d="m 12.7,298.05831 c -1.755775,0 -3.1749995,1.41923 -3.1749995,3.175 0,1.75578 1.4192245,3.175 3.1749995,3.175 1.755775,0 3.175,-1.41922 3.175,-3.175 0,-1.75577 -1.419225,-3.175 -3.175,-3.175 z m 0,0.39688 c 1.535901,0 2.778125,1.24222 2.778125,2.77812 0,1.5359 -1.242224,2.77813 -2.778125,2.77813 -1.535912,0 -2.7781255,-1.24223 -2.7781255,-2.77813 0,-1.5359 1.2422135,-2.77812 2.7781255,-2.77812 z m 0.297651,2.26973 v 0 0 0 0 0 c 0,0 -0.01347,0.003 0,0 z m -0.309957,1.78593 z"
         id="path58-7"
         sodipodi:nodetypes="ssssssssssccccccccccccccccc"
         class="ColorScheme-Text" />
      <path
         d="m 12.543301,299.4143 c -0.22249,5.6e-4 -0.443328,0.0393 -0.652714,0.11462 -0.04297,0.0154 -0.06874,0.0593 -0.0612,0.10437 0.0075,0.045 0.04616,0.0782 0.09178,0.0788 0.890244,0.0129 1.598598,0.69076 1.700931,1.55353 h -0.466963 c -0.03816,4e-5 -0.07254,0.023 -0.08715,0.0582 -0.01457,0.0353 -0.0065,0.0758 0.02043,0.10282 l 0.915896,0.9159 c 0.03686,0.0368 0.09658,0.0368 0.133442,0 l 0.915898,-0.9159 c 0.02696,-0.027 0.035,-0.0676 0.02043,-0.10282 -0.01462,-0.0353 -0.04899,-0.0582 -0.08715,-0.0582 h -0.516703 c -0.0521,-1.02714 -0.886578,-1.85125 -1.926513,-1.85125 h -4.56e-4 z m 1.527754,2.728 z m -2.74356,-2.03657 c -0.02451,4.2e-4 -0.04789,0.0103 -0.06525,0.0276 l -0.915897,0.9159 c -0.02696,0.027 -0.035,0.0676 -0.02043,0.10282 0.01461,0.0353 0.04899,0.0582 0.08715,0.0582 h 0.516705 c 0.05202,1.02718 0.886535,1.85136 1.926511,1.85125 0.222954,0 0.443965,-0.0397 0.653092,-0.11499 h 4.4e-5 c 0.04297,-0.0154 0.06874,-0.0593 0.0612,-0.10438 -0.0075,-0.045 -0.04616,-0.0782 -0.09178,-0.0788 -0.890275,-0.0129 -1.598598,-0.69041 -1.700929,-1.55309 h 0.466963 c 0.03816,-5e-5 0.07253,-0.023 0.08715,-0.0582 0.01458,-0.0353 0.0065,-0.0758 -0.02043,-0.10282 l -0.915897,-0.9159 c -0.01807,-0.0181 -0.04267,-0.028 -0.0682,-0.0276 z m 0.0015,0.22775 v 3e-5 0 0 0 0 0 0 0 0 0 0 z"
         id="path2-36-1"
         sodipodi:nodetypes="ccccccccccccccscccccccccccccccccccccccccccccsccccccccccccccc"
         style="color:#d6dbf1;fill:#bf616a;fill-opacity:1;stroke:none;stroke-width:0.0107832;stroke-opacity:1" />
    </g>
    <g
       id="update-medium">
      <rect
         style="opacity:0.003;fill:#000000;fill-opacity:1;stroke:none;stroke-width:0.157018;stroke-miterlimit:4;stroke-dasharray:none;stroke-opacity:1"
         id="rect1396-6-9-5"
         width="8.4666672"
         height="8.46667"
         x="16.933332"
         y="296.99997"
         ry="1.8892064e-06" />
      <path
         style="fill:currentColor;fill-opacity:1;stroke-width:0.396875"
         d="m 21.166665,298.05831 c -1.755775,0 -3.175,1.41923 -3.175,3.175 0,1.75578 1.419225,3.175 3.175,3.175 1.755775,0 3.175,-1.41922 3.175,-3.175 0,-1.75577 -1.419225,-3.175 -3.175,-3.175 z m 0,0.39688 c 1.535901,0 2.778125,1.24222 2.778125,2.77812 0,1.5359 -1.242224,2.77813 -2.778125,2.77813 -1.535911,0 -2.778125,-1.24223 -2.778125,-2.77813 0,-1.5359 1.242214,-2.77812 2.778125,-2.77812 z m 0.297651,2.26973 v 0 0 0 0 0 c 0,0 -0.01347,0.003 0,0 z m -0.309957,1.78593 z"
         id="path58-72"
         sodipodi:nodetypes="ssssssssssccccccccccccccccc"
         class="ColorScheme-Text" />
      <path
         d="m 21.009966,299.4143 c -0.22249,5.6e-4 -0.443328,0.0393 -0.652714,0.11462 -0.04296,0.0154 -0.06874,0.0593 -0.0612,0.10437 0.0075,0.045 0.04617,0.0782 0.09178,0.0788 0.890244,0.0129 1.598598,0.69076 1.700931,1.55353 H 21.6218 c -0.03816,4e-5 -0.07253,0.023 -0.08715,0.0582 -0.01457,0.0353 -0.0065,0.0758 0.02043,0.10282 l 0.915896,0.9159 c 0.03686,0.0368 0.09658,0.0368 0.133442,0 l 0.915898,-0.9159 c 0.02696,-0.027 0.035,-0.0676 0.02043,-0.10282 -0.01462,-0.0353 -0.04899,-0.0582 -0.08715,-0.0582 h -0.516703 c -0.0521,-1.02714 -0.886578,-1.85125 -1.926513,-1.85125 h -4.56e-4 z m 1.527754,2.728 z m -2.74356,-2.03657 c -0.02451,4.2e-4 -0.04789,0.0103 -0.06525,0.0276 l -0.915897,0.9159 c -0.02696,0.027 -0.035,0.0676 -0.02043,0.10282 0.01461,0.0353 0.04899,0.0582 0.08715,0.0582 h 0.516705 c 0.05202,1.02718 0.886535,1.85136 1.926512,1.85125 0.222953,0 0.443964,-0.0397 0.653091,-0.11499 h 4.4e-5 c 0.04296,-0.0154 0.06874,-0.0593 0.0612,-0.10438 -0.0075,-0.045 -0.04616,-0.0782 -0.09178,-0.0788 -0.890275,-0.0129 -1.598598,-0.69041 -1.700929,-1.55309 h 0.466963 c 0.03816,-5e-5 0.07253,-0.023 0.08715,-0.0582 0.01458,-0.0353 0.0065,-0.0758 -0.02043,-0.10282 l -0.915897,-0.9159 c -0.01807,-0.0181 -0.04267,-0.028 -0.0682,-0.0276 z m 0.0015,0.22775 v 3e-5 0 0 0 0 0 0 0 0 0 0 z"
         id="path2-36-72"
         sodipodi:nodetypes="ccccccccccccccscccccccccccccccccccccccccccccsccccccccccccccc"
         style="color:#d6dbf1;fill:#ff944c;fill-opacity:1;stroke:none;stroke-width:0.0107832;stroke-opacity:1" />
    </g>
    <g
       id="update-low">
      <rect
         style="opacity:0.003;fill:#000000;fill-opacity:1;stroke:none;stroke-width:0.157018;stroke-miterlimit:4;stroke-dasharray:none;stroke-opacity:1"
         id="rect1396-6-9-1"
         width="8.4666672"
         height="8.46667"
         x="25.4"
         y="296.99997"
         ry="1.8892064e-06" />
      <path
         style="fill:currentColor;fill-opacity:1;stroke-width:0.396875"
         d="m 29.633334,298.0583 c -1.755775,0 -3.175,1.41923 -3.175,3.175 0,1.75578 1.419225,3.175 3.175,3.175 1.755775,0 3.175,-1.41922 3.175,-3.175 0,-1.75577 -1.419225,-3.175 -3.175,-3.175 z m 0,0.39688 c 1.535901,0 2.778125,1.24222 2.778125,2.77812 0,1.5359 -1.242224,2.77813 -2.778125,2.77813 -1.535911,0 -2.778125,-1.24223 -2.778125,-2.77813 0,-1.5359 1.242214,-2.77812 2.778125,-2.77812 z m 0.297651,2.26973 v 0 0 0 0 0 c 0,0 -0.01347,0.003 0,0 z m -0.309957,1.78593 z"
         id="path58-2"
         sodipodi:nodetypes="ssssssssssccccccccccccccccc"
         class="ColorScheme-Text" />
      <path
         d="m 29.476635,299.41429 c -0.22249,5.6e-4 -0.443328,0.0393 -0.652714,0.11462 -0.04296,0.0154 -0.06874,0.0593 -0.0612,0.10437 0.0075,0.045 0.04616,0.0782 0.09178,0.0788 0.890244,0.0129 1.598598,0.69076 1.700931,1.55353 h -0.466963 c -0.03816,4e-5 -0.07254,0.023 -0.08715,0.0582 -0.01457,0.0353 -0.0065,0.0758 0.02043,0.10282 l 0.915896,0.9159 c 0.03686,0.0368 0.09658,0.0368 0.133442,0 l 0.915898,-0.9159 c 0.02696,-0.027 0.035,-0.0676 0.02043,-0.10282 -0.01462,-0.0353 -0.04899,-0.0582 -0.08715,-0.0582 h -0.516703 c -0.0521,-1.02714 -0.886578,-1.85125 -1.926513,-1.85125 h -4.56e-4 z m 1.527754,2.728 z m -2.74356,-2.03657 c -0.02451,4.2e-4 -0.04789,0.0103 -0.06525,0.0276 l -0.915897,0.9159 c -0.02696,0.027 -0.035,0.0676 -0.02043,0.10282 0.01461,0.0353 0.04899,0.0582 0.08715,0.0582 h 0.516705 c 0.05202,1.02718 0.886535,1.85136 1.926512,1.85125 0.222953,0 0.443964,-0.0397 0.653091,-0.11499 h 4.4e-5 c 0.04297,-0.0154 0.06874,-0.0593 0.0612,-0.10438 -0.0075,-0.045 -0.04616,-0.0782 -0.09178,-0.0788 -0.890275,-0.0129 -1.598598,-0.69041 -1.700929,-1.55309 h 0.466963 c 0.03816,-5e-5 0.07253,-0.023 0.08715,-0.0582 0.01458,-0.0353 0.0065,-0.0758 -0.02043,-0.10282 l -0.915894,-0.9159 c -0.01807,-0.0181 -0.04267,-0.028 -0.0682,-0.0276 z m 0.0015,0.22775 v 3e-5 0 0 0 0 0 0 0 0 0 0 z"
         id="path2-36-61"
         sodipodi:nodetypes="ccccccccccccccscccccccccccccccccccccccccccccsccccccccccccccc"
         style="color:#d6dbf1;fill:#5599ff;fill-opacity:1;stroke:none;stroke-width:0.0107832;stroke-opacity:1" />
    </g>
    <g
       id="22-22-update-none">
      <rect
         style="opacity:0.003;fill:#a8aeca;fill-opacity:1;stroke:none;stroke-width:0.10795;stroke-miterlimit:4;stroke-dasharray:none;stroke-opacity:1"
         id="rect1396"
         width="5.8208332"
         height="5.8208332"
         x="0"
         y="291.17914"
         ry="1.2988289e-06" />
      <path
         style="fill:currentColor;fill-opacity:1;stroke-width:0.264583"
         d="m 2.9104165,291.97288 c -1.1705166,0 -2.1166665,0.94615 -2.1166665,2.11667 0,1.17052 0.9461499,2.11666 2.1166665,2.11666 1.1705167,0 2.1166666,-0.94614 2.1166666,-2.11666 0,-1.17052 -0.9461499,-2.11667 -2.1166666,-2.11667 z m 0,0.26459 c 1.023934,0 1.8520833,0.82814 1.8520833,1.85208 0,1.02393 -0.8281493,1.85208 -1.8520833,1.85208 -1.023941,0 -1.8520835,-0.82815 -1.8520835,-1.85208 0,-1.02394 0.8281425,-1.85208 1.8520835,-1.85208 z m 0.198434,1.51315 v 0 0 0 0 0 c 0,0 -0.00898,0.002 0,0 z m -0.206638,1.19062 z"
         id="path58-06"
         sodipodi:nodetypes="ssssssssssccccccccccccccccc"
         class="ColorScheme-Text" />
      <path
         d="m 2.8059505,292.87687 c -0.1483264,3.8e-4 -0.295552,0.0262 -0.4351425,0.0764 -0.028643,0.0103 -0.045829,0.0395 -0.040802,0.0696 0.00499,0.03 0.030777,0.0521 0.061188,0.0525 0.593496,0.009 1.0657318,0.46051 1.1339541,1.03569 h -0.311309 c -0.025443,2e-5 -0.048357,0.0153 -0.0581,0.0388 -0.00972,0.0235 -0.00435,0.0505 0.013619,0.0685 l 0.6105972,0.6106 c 0.024573,0.0245 0.064389,0.0245 0.088962,0 l 0.6105986,-0.6106 c 0.017972,-0.018 0.023335,-0.0451 0.013619,-0.0685 -0.00975,-0.0235 -0.032659,-0.0388 -0.058101,-0.0388 H 4.0905649 C 4.0558289,293.4263 3.499513,292.87689 2.806223,292.87689 h -3.04e-4 z m 1.0185028,1.81867 z M 1.995413,293.33783 c -0.016343,2.8e-4 -0.031927,0.007 -0.043498,0.0184 l -0.6105975,0.6106 c -0.017971,0.018 -0.023336,0.0451 -0.013619,0.0685 0.00974,0.0235 0.032658,0.0388 0.058099,0.0388 h 0.3444698 c 0.03468,0.68479 0.591023,1.23424 1.2843409,1.23417 0.1486358,0 0.2959763,-0.0265 0.4353943,-0.0767 h 2.94e-5 c 0.028643,-0.0103 0.045828,-0.0395 0.040802,-0.0696 -0.00499,-0.03 -0.030776,-0.0521 -0.061189,-0.0525 -0.5935168,-0.009 -1.0657318,-0.46027 -1.1339527,-1.03539 h 0.3113089 c 0.025442,-4e-5 0.048355,-0.0153 0.058099,-0.0388 0.00972,-0.0235 0.00435,-0.0505 -0.013619,-0.0685 l -0.6105984,-0.6106 c -0.012047,-0.0121 -0.028446,-0.0187 -0.045464,-0.0184 z m 0.00101,0.15183 v 2e-5 0 0 0 0 0 0 0 0 0 0 z"
         id="path2-36-15"
         sodipodi:nodetypes="ccccccccccccccscccccccccccccccccccccccccccccsccccccccccccccc"
         style="fill:currentColor;fill-opacity:1;stroke:none;stroke-width:0.0071888;stroke-opacity:1"
         class="ColorScheme-Text" />
    </g>
    <g
       id="22-22-update-high">
      <rect
         style="opacity:0.003;fill:#000000;fill-opacity:1;stroke:none;stroke-width:0.10795;stroke-miterlimit:4;stroke-dasharray:none;stroke-opacity:1"
         id="rect1396-3"
         width="5.8208332"
         height="5.8208332"
         x="5.8208332"
         y="291.17914"
         ry="1.2988288e-06" />
      <path
         style="fill:currentColor;fill-opacity:1;stroke-width:0.264583"
         d="m 8.7312497,291.97288 c -1.1705166,0 -2.1166665,0.94615 -2.1166665,2.11667 0,1.17052 0.9461499,2.11666 2.1166665,2.11666 1.1705166,0 2.1166663,-0.94614 2.1166663,-2.11666 0,-1.17052 -0.9461497,-2.11667 -2.1166663,-2.11667 z m 0,0.26459 c 1.0239336,0 1.8520833,0.82814 1.8520833,1.85208 0,1.02393 -0.8281497,1.85208 -1.8520833,1.85208 -1.023941,0 -1.8520835,-0.82815 -1.8520835,-1.85208 0,-1.02394 0.8281425,-1.85208 1.8520835,-1.85208 z m 0.198434,1.51315 v 0 0 0 0 0 c 0,0 -0.00898,0.002 0,0 z m -0.206638,1.19062 z"
         id="path58-06-9"
         sodipodi:nodetypes="ssssssssssccccccccccccccccc"
         class="ColorScheme-Text" />
      <path
         d="m 8.6267837,292.87687 c -0.1483264,3.8e-4 -0.295552,0.0262 -0.4351425,0.0764 -0.028643,0.0103 -0.045829,0.0395 -0.040802,0.0696 0.00499,0.03 0.030777,0.0521 0.061188,0.0525 0.593496,0.009 1.0657318,0.46051 1.1339541,1.03569 h -0.311309 c -0.025443,2e-5 -0.048357,0.0153 -0.0581,0.0388 -0.00972,0.0235 -0.00435,0.0505 0.013619,0.0685 l 0.610597,0.6106 c 0.02457,0.0245 0.06439,0.0245 0.08896,0 l 0.6105987,-0.6106 c 0.01797,-0.018 0.02334,-0.0451 0.01362,-0.0685 -0.0098,-0.0235 -0.03266,-0.0388 -0.0581,-0.0388 H 9.9113983 c -0.03474,-0.68476 -0.5910521,-1.23417 -1.2843421,-1.23417 h -3.04e-4 z m 1.0185026,1.81867 z m -1.8290401,-1.35771 c -0.016343,2.8e-4 -0.031927,0.007 -0.043498,0.0184 l -0.6105975,0.6106 c -0.017971,0.018 -0.023336,0.0451 -0.013619,0.0685 0.00974,0.0235 0.032658,0.0388 0.058099,0.0388 h 0.3444698 c 0.03468,0.68479 0.591023,1.23424 1.2843409,1.23417 0.1486358,0 0.2959763,-0.0265 0.4353943,-0.0767 h 2.94e-5 c 0.028643,-0.0103 0.045828,-0.0395 0.040802,-0.0696 -0.00499,-0.03 -0.030776,-0.0521 -0.061189,-0.0525 -0.5935168,-0.009 -1.0657318,-0.46027 -1.1339527,-1.03539 h 0.3113089 c 0.025442,-4e-5 0.048355,-0.0153 0.058099,-0.0388 0.00972,-0.0235 0.00435,-0.0505 -0.013619,-0.0685 l -0.6105984,-0.6106 c -0.012047,-0.0121 -0.028446,-0.0187 -0.045464,-0.0184 z m 0.00101,0.15183 v 2e-5 0 0 0 0 0 0 0 0 0 0 z"
         id="path2-36-15-4"
         sodipodi:nodetypes="ccccccccccccccscccccccccccccccccccccccccccccsccccccccccccccc"
         style="color:#d6dbf1;fill:#bf616a;fill-opacity:1;stroke:none;stroke-width:0.0071888;stroke-opacity:1" />
    </g>
  </g>
</svg>
