<?xml version="1.0" encoding="UTF-8" standalone="no"?>
<svg
   width="32"
   height="32"
   version="1.1"
   id="svg12"
   sodipodi:docname="video.svg"
   inkscape:version="1.1.2 (0a00cf5339, 2022-02-04)"
   xmlns:inkscape="http://www.inkscape.org/namespaces/inkscape"
   xmlns:sodipodi="http://sodipodi.sourceforge.net/DTD/sodipodi-0.dtd"
   xmlns="http://www.w3.org/2000/svg"
   xmlns:svg="http://www.w3.org/2000/svg"
   xmlns:rdf="http://www.w3.org/1999/02/22-rdf-syntax-ns#"
   xmlns:cc="http://creativecommons.org/ns#"
   xmlns:dc="http://purl.org/dc/elements/1.1/">
  <style
     id="current-color-scheme"
     type="text/css">.ColorScheme-Highlight { color:#ffeeaa; }
.ColorScheme-Text { color:#d6dbf1; }
</style>
  <metadata
     id="metadata18">
    <rdf:RDF>
      <cc:Work
         rdf:about="">
        <dc:format>image/svg+xml</dc:format>
        <dc:type
           rdf:resource="http://purl.org/dc/dcmitype/StillImage" />
      </cc:Work>
    </rdf:RDF>
  </metadata>
  <defs
     id="defs16" />
  <sodipodi:namedview
     pagecolor="#ffffff"
     bordercolor="#000000"
     borderopacity="1"
     objecttolerance="10"
     gridtolerance="10"
     guidetolerance="10"
     inkscape:pageopacity="0"
     inkscape:pageshadow="2"
     inkscape:window-width="1920"
     inkscape:window-height="1015"
     id="namedview14"
     showgrid="true"
     inkscape:zoom="19.625001"
     inkscape:cx="21.554139"
     inkscape:cy="11.490446"
     inkscape:window-x="0"
     inkscape:window-y="0"
     inkscape:window-maximized="1"
     inkscape:current-layer="svg12"
     inkscape:document-rotation="0"
     inkscape:lockguides="false"
     inkscape:showpageshadow="false"
     inkscape:pagecheckerboard="0">
    <inkscape:grid
       type="xygrid"
       id="grid988"
       originx="0"
       originy="-1.3897705e-07" />
  </sodipodi:namedview>
  <g
     id="video-display-brightness"
     transform="translate(32,10.000003)"
     style="fill:#d6dbf1;fill-opacity:1">
    <rect
       style="opacity:0.00100002;fill:#d6dbf1;fill-opacity:1"
       width="32"
       height="32"
       x="-32"
       y="-10.000003"
       id="rect7" />
    <path
       d="m -11.935615,2.9651216 c -0.257059,-0.3340895 -0.257059,-0.7878298 0,-1.1219193 l 0.891061,-1.15158356 c 0.515177,-0.6669203 -0.05023,-1.59752922 -0.915586,-1.50718508 l -1.492594,0.15463775 c -0.435678,0.0457642 -0.851947,-0.18333225 -1.026965,-0.56519151 l -0.605928,-1.3060856 c -0.35043,-0.7570631 -1.480794,-0.7570631 -1.831226,0 l -0.605931,1.3060856 c -0.17597,0.37859965 -0.589542,0.60547555 -1.022568,0.56096306 l -1.492577,-0.15465721 c -0.865454,-0.090358 -1.430802,0.84025899 -0.915601,1.50718549 l 0.891114,1.15157126 c 0.257053,0.3340883 0.257053,0.7878251 0,1.1219116 l -0.891114,1.1515571 c -0.515202,0.6669266 0.05025,1.5975425 0.915601,1.5071853 l 1.492577,-0.1544523 c 0.433028,-0.044518 0.8466,0.1823682 1.022568,0.5609698 l 0.605931,1.3060857 c 0.350432,0.757063 1.480796,0.757063 1.831226,0 l 0.605928,-1.3060857 c 0.175965,-0.3785786 0.589491,-0.6054533 1.022517,-0.5609698 l 1.492594,0.1544523 c 0.865429,0.090338 1.430758,-0.8402651 0.915566,-1.5071853 z m -1.978269,-4.7861824 z m -6.959466,4.5575592 z m 9.756417,-0.6435386 z m -7.622221,-3.5456667 z m 0.617058,8.0397315 z m 5.001313,-0.4297228 z"
       id="path4"
       style="fill:currentColor;fill-opacity:1;stroke-width:0.217159"
       sodipodi:nodetypes="ccccccccccccccccccccccccccccccccccccccccccccccccccccccc"
       class="ColorScheme-Highlight" />
    <path
       d="m -4.013179,-6.0000029 h -24.076338 c -0.887911,0 -1.610483,0.7225716 -1.610483,1.6104833 V 13.053161 c 0,0.887912 0.722572,1.610483 1.610483,1.610483 h 8.861528 c -0.276505,0.895651 -0.92696,2.350644 -2.238072,2.350644 v 0.985709 h 10.829427 v -0.985709 c -1.311112,0 -1.961567,-1.454993 -2.238072,-2.350644 h 8.861527 c 0.887912,0 1.610483,-0.722571 1.610483,-1.610483 V -4.3898714 c 0,-0.8879117 -0.722571,-1.6101315 -1.610483,-1.6101315 z M -3.72999,13.052809 c 0,0.156194 -0.126995,0.283189 -0.283541,0.283189 h -24.075986 c -0.156193,0 -0.28354,-0.126995 -0.28354,-0.283189 V 10.743676 H -3.72999 Z m 0,-3.6364269 H -28.372706 V -4.3898714 c 0,-0.1561937 0.126996,-0.283189 0.283541,-0.283189 h 24.075986 c 0.156194,0 0.283541,0.1269953 0.283541,0.283189 V 9.4163821 Z"
       id="path2"
       style="fill:currentColor;fill-opacity:1;stroke-width:0.351788"
       class="ColorScheme-Text" />
  </g>
  <g
     id="22-22-video-display-brightness"
     transform="translate(32,10.000003)"
     style="fill:#d6dbf1;fill-opacity:1">
    <g
       id="g893"
       style="fill:#d6dbf1;fill-opacity:1">
      <rect
         style="opacity:0.00100002;fill:#d6dbf1;fill-opacity:1"
         width="22"
         height="22"
         x="0"
         y="-1.3897704e-07"
         id="rect2" />
      <path
         d="m 13.471677,8.9595833 c -0.155436,-0.2125989 -0.155436,-0.5013389 0,-0.7139379 L 14.01048,7.5128404 C 14.322001,7.0884416 13.98016,6.4962426 13.456853,6.5537394 l -0.902529,0.098357 c -0.26344,0.029127 -0.51515,-0.1166556 -0.620983,-0.3596525 L 11.566945,5.4613132 c -0.211894,-0.4817549 -0.895389,-0.4817549 -1.107282,0 l -0.366397,0.831131 C 9.986867,6.533368 9.736797,6.6777455 9.474958,6.6494252 L 8.572437,6.551052 C 8.0491219,6.4935458 7.7072734,7.0857506 8.018799,7.5101533 l 0.5388254,0.7327994 c 0.155434,0.2125984 0.155434,0.5013368 0,0.7139353 L 8.018799,9.689684 c -0.3115232,0.424404 0.030322,1.016605 0.553638,0.959101 l 0.902521,-0.09821 c 0.261838,-0.02826 0.51191,0.11607 0.618308,0.356974 l 0.366397,0.831132 c 0.211893,0.481755 0.895388,0.481755 1.107282,0 l 0.366396,-0.831132 c 0.106399,-0.240911 0.356453,-0.385286 0.618287,-0.356974 l 0.902528,0.09821 c 0.523307,0.05747 0.865142,-0.534699 0.553628,-0.959099 z M 8.0672899,8.3264704 Z m 5.8996321,0.078118 z"
         id="path4-5"
         style="fill:currentColor;fill-opacity:1;stroke-width:0.1347"
         sodipodi:nodetypes="ccccccccccccccccccccccccccccccccccc"
         class="ColorScheme-Highlight" />
      <path
         d="M 19.124557,2.999997 H 3.073661 C 2.481714,2.999997 2,3.481711 2,4.073658 v 11.628448 c 0,0.591942 0.481714,1.073656 1.073661,1.073656 h 5.907686 c -0.184343,0.597101 -0.617976,1.567095 -1.492048,1.567095 v 0.65714 h 7.219609 v -0.65714 c -0.874072,0 -1.307708,-0.969994 -1.492038,-1.567095 h 5.907687 c 0.591936,0 1.073642,-0.481714 1.073642,-1.073656 V 4.07341 c 0,-0.591931 -0.481706,-1.073413 -1.073642,-1.073413 z m 0.188789,12.701875 c 0,0.104129 -0.08464,0.188792 -0.189037,0.188792 H 3.073661 c -0.104141,0 -0.189038,-0.08467 -0.189038,-0.188792 V 14.16245 h 16.428723 z m 0,-2.424285 H 2.88487 V 4.07341 c 0,-0.104115 0.08463,-0.188791 0.189014,-0.188791 h 16.050673 c 0.104125,0 0.189012,0.08465 0.189012,0.188791 v 9.204178 z"
         id="path2-3"
         style="fill:currentColor;fill-opacity:1;stroke-width:0.234519"
         class="ColorScheme-Text" />
    </g>
  </g>
</svg>
