<?xml version="1.0" encoding="UTF-8" standalone="no"?>
<svg
   width="32"
   height="32"
   version="1.1"
   id="svg12"
   sodipodi:docname="vlc.svg"
   inkscape:version="1.1.2 (0a00cf5339, 2022-02-04)"
   xmlns:inkscape="http://www.inkscape.org/namespaces/inkscape"
   xmlns:sodipodi="http://sodipodi.sourceforge.net/DTD/sodipodi-0.dtd"
   xmlns="http://www.w3.org/2000/svg"
   xmlns:svg="http://www.w3.org/2000/svg"
   xmlns:rdf="http://www.w3.org/1999/02/22-rdf-syntax-ns#"
   xmlns:cc="http://creativecommons.org/ns#"
   xmlns:dc="http://purl.org/dc/elements/1.1/">
  <style id="current-color-scheme" type="text/css">.ColorScheme-Text { color:#d6dbf1; }
</style>
  <metadata
     id="metadata18">
    <rdf:RDF>
      <cc:Work
         rdf:about="">
        <dc:format>image/svg+xml</dc:format>
        <dc:type
           rdf:resource="http://purl.org/dc/dcmitype/StillImage" />
      </cc:Work>
    </rdf:RDF>
  </metadata>
  <defs
     id="defs16" />
  <sodipodi:namedview
     pagecolor="#ffffff"
     bordercolor="#000000"
     borderopacity="1"
     objecttolerance="10"
     gridtolerance="10"
     guidetolerance="10"
     inkscape:pageopacity="0"
     inkscape:pageshadow="2"
     inkscape:window-width="1920"
     inkscape:window-height="1015"
     id="namedview14"
     showgrid="false"
     inkscape:zoom="8"
     inkscape:cx="20.125"
     inkscape:cy="14.3125"
     inkscape:window-x="0"
     inkscape:window-y="0"
     inkscape:window-maximized="1"
     inkscape:current-layer="svg12"
     inkscape:lockguides="false"
     inkscape:document-rotation="0"
     inkscape:showpageshadow="false"
     inkscape:pagecheckerboard="0">
    <inkscape:grid
       type="xygrid"
       id="grid868"
       originx="0"
       originy="0" />
  </sodipodi:namedview>
  <g
     id="vlc">
    <rect
       style="opacity:0.00100002"
       width="32"
       height="32"
       x="0"
       y="0"
       id="rect7" />
    <path
       d="m 13.653743,4.8057983 -1.052478,3.4791265 h 6.205981 L 17.791063,4.8057983 c -1.32762,-1.0259286 -2.701916,-1.121798 -4.13732,0 z M 11.222157,12.923769 9.8067623,17.562612 H 21.601746 L 20.18635,12.923769 Z M 8.4639492,22.201426 7.7743977,24.520847 H 6.3227061 L 4,26.840267 V 28 h 23.227054 v -1.159733 l -2.322707,-2.31942 H 23.634118 L 22.94456,22.201426 Z"
       id="path2"
       style="stroke-width:0.290132;fill-opacity:1;fill:currentColor;"
       sodipodi:nodetypes="ccccccccccccccccccccc"
       class="ColorScheme-Text" />
  </g>
  <g
     id="22-22-vlc"
     transform="translate(32,10)">
    <rect
       style="opacity:0.00100002"
       width="22"
       height="22"
       x="0"
       y="0"
       id="rect2" />
    <path
       d="m 9.685823,3.5371996 -0.701652,2.31941 h 4.137322 l -0.677454,-2.31941 c -0.885076,-0.68396 -1.801279,-0.74786 -2.758216,0 z M 8.064778,8.9491856 7.121171,12.041738 h 7.863321 L 14.040905,8.9491856 Z M 6.22596,15.134286 5.766258,16.680565 H 4.798466 L 3.25,18.226845 v 0.773156 h 15.48471 v -0.773156 l -1.54847,-1.54628 h -0.846829 l -0.45971,-1.546279 z"
       id="path2-3"
       style="stroke-width:0.193417;fill-opacity:1;fill:currentColor;"
       sodipodi:nodetypes="ccccccccccccccccccccc"
       class="ColorScheme-Text" />
  </g>
</svg>
