<?xml version="1.0" encoding="UTF-8" standalone="no"?>
<svg
   id="svg18"
   width="32"
   height="32"
   version="1"
   sodipodi:docname="yakuake.svg"
   inkscape:version="1.2.1 (9c6d41e410, 2022-07-14)"
   xmlns:inkscape="http://www.inkscape.org/namespaces/inkscape"
   xmlns:sodipodi="http://sodipodi.sourceforge.net/DTD/sodipodi-0.dtd"
   xmlns="http://www.w3.org/2000/svg"
   xmlns:svg="http://www.w3.org/2000/svg">
  <style
     id="current-color-scheme"
     type="text/css">.ColorScheme-Text { color:#eceff4; }
</style>
  <sodipodi:namedview
     id="namedview14"
     pagecolor="#ffffff"
     bordercolor="#666666"
     borderopacity="1.0"
     inkscape:pageshadow="2"
     inkscape:pageopacity="0.0"
     inkscape:pagecheckerboard="0"
     showgrid="false"
     inkscape:zoom="9.71875"
     inkscape:cx="39.099679"
     inkscape:cy="25.054662"
     inkscape:window-width="1920"
     inkscape:window-height="1002"
     inkscape:window-x="0"
     inkscape:window-y="0"
     inkscape:window-maximized="1"
     inkscape:current-layer="svg18"
     inkscape:lockguides="true"
     inkscape:showpageshadow="2"
     inkscape:deskcolor="#d1d1d1">
    <inkscape:grid
       type="xygrid"
       id="grid865"
       originx="0"
       originy="0" />
  </sodipodi:namedview>
  <defs
     id="1987">
    <style
       id="style9"
       type="text/css" />
  </defs>
  <g
     id="yakuake">
    <rect
       id="rect11"
       width="32"
       height="32"
       opacity="0.00100002"
       x="0"
       y="0" />
    <path
       d="M 9.725949,10 8.6,11.125949 13.103732,15.62968 8.6,20.133413 9.725949,21.259362 15.355744,15.629566 9.725949,9.999771 Z m 5.629795,10.407266 v 1.592505 h 7.962481 v -1.592505 z"
       id="path7"
       style="fill:#d6dbf1;fill-opacity:1;stroke-width:1.59247"
       class="ColorScheme-Text" />
    <path
       fill-rule="evenodd"
       clip-rule="evenodd"
       d="m 24.572286,28 h -12.858 C 11.241571,28 10.858,27.4725 10.858,27 c 0,-0.473786 0.383571,-1 0.856286,-1 h 12.858 C 25.519,26 26,25.517714 26,24.571 V 7.428143 C 26,6.481429 25.519,6 24.572286,6 H 7.429 C 6.4825,6 6,6.481429 6,7.428143 V 23.713857 C 6,24.187643 5.473786,24.571 5,24.571 4.527072,24.571 4,24.187643 4,23.713857 V 7.428143 C 4,5.534714 5.535786,4 7.429,4 H 24.572286 C 26.465286,4 28,5.534714 28,7.428143 V 24.571 C 28,26.464429 26.465286,28 24.572286,28 Z M 8.286357,26.1 C 8.759071,26.1 9.2,26.526214 9.2,27 9.2,27.4725 8.7588925,27.9 8.2861785,27.9 7.8123925,27.9 7.4,27.4725 7.4,27 c 0,-0.473786 0.412571,-0.9 0.886357,-0.9 z"
       id="path2"
       style="fill:#d6dbf1;fill-opacity:1;stroke-width:0.0535714"
       class="ColorScheme-Text"
       sodipodi:nodetypes="ssssssssssssssssssssssss" />
    <path
       d="m 18.458602,10.870899 0.586864,0.600995 c 0.0817,0.08367 0.121421,0.182852 0.120053,0.298439 -0.0014,0.115601 -0.04389,0.214232 -0.127125,0.295492 l -3.807514,3.717981 c -0.08367,0.0817 -0.182853,0.121421 -0.298437,0.120052 -0.115601,-0.0014 -0.213791,-0.04345 -0.295494,-0.12712 l -0.586862,-0.600999 c -0.0817,-0.08367 -0.121421,-0.182851 -0.120053,-0.298436 0.0014,-0.115602 0.04389,-0.214229 0.12712,-0.295494 l 3.807066,-3.71754 c 0.08367,-0.0817 0.182853,-0.121421 0.298435,-0.120051 0.116055,0.0011 0.214242,0.04303 0.295947,0.126681 z"
       id="path6"
       style="fill:#d6dbf1;fill-opacity:0.4;stroke-width:0.00628747"
       class="ColorScheme-Text" />
  </g>
  <g
     id="22-22-yakuake"
     transform="translate(32,10)">
    <rect
       id="rect2"
       width="22"
       height="22"
       opacity="0.00100002"
       x="0"
       y="0" />
    <path
       d="M 6.8172989,7 6.0666669,7.750632 9.0691548,10.75312 6.0666669,13.755609 6.8172989,14.506242 10.570495,10.753044 6.8172989,6.999847 Z M 11,14 v 1 h 5 v -1 z"
       id="path7-36-3"
       style="fill:#d6dbf1;fill-opacity:1;stroke-width:1.06165"
       class="ColorScheme-Text "
       sodipodi:nodetypes="ccccccccccccc" />
    <path
       fill-rule="evenodd"
       clip-rule="evenodd"
       d="M 16.714856,19 H 8.1428568 c -0.315143,0 -0.5708569,-0.185 -0.5708569,-0.5 0,-0.315857 0.2557139,-0.5 0.5708569,-0.5 H 16.714856 C 17.345999,18 18,17.345142 18,16.714 V 5.285428 C 18,4.654286 17.345999,4 16.714856,4 H 5.2859999 C 4.6549999,4 4,4.654286 4,5.285428 V 16.142571 C 4,16.458428 3.815858,16.714 3.5,16.714 3.184715,16.714 3.0002207,16.458428 3.0002145,16.142571 L 3,5.285428 C 2.9999751,4.023142 4.023857,3 5.2859999,3 H 16.714856 C 17.976856,3 19,4.023142 19,5.285428 V 16.714 C 19,17.976286 17.976856,19 16.714856,19 Z M 5.8575709,17.856857 c 0.315143,0 0.571429,0.255857 0.571429,0.571714 0,0.315 -0.256286,0.571429 -0.571429,0.571429 -0.315857,0 -0.571571,-0.256429 -0.571571,-0.571429 0,-0.315857 0.255714,-0.571714 0.571571,-0.571714 z"
       id="path2-7-6"
       style="fill:#d6dbf1;fill-opacity:1;stroke-width:0.0357143"
       class="ColorScheme-Text "
       sodipodi:nodetypes="ssssssssssssssssssssssss" />
    <path
       d="m 12.639067,7.580599 0.391243,0.400663 c 0.05447,0.05578 0.08095,0.121902 0.08004,0.19896 -9.33e-4,0.07707 -0.02926,0.142821 -0.08475,0.196994 l -2.538342,2.478655 c -0.05578,0.05447 -0.121902,0.08095 -0.198958,0.08004 -0.07707,-9.34e-4 -0.142527,-0.02897 -0.196996,-0.08475 L 9.7000628,10.450493 c -0.05447,-0.05578 -0.08095,-0.121901 -0.08003,-0.198958 9.33e-4,-0.07707 0.02926,-0.142819 0.08475,-0.196996 l 2.5380292,-2.47836 c 0.05578,-0.05447 0.121903,-0.08095 0.198957,-0.08003 0.07737,7.33e-4 0.142828,0.02869 0.197298,0.08445 z"
       id="path6-5-7"
       style="fill:#d6dbf1;fill-opacity:0.4;stroke-width:0.00419165"
       class="ColorScheme-Text " />
  </g>
</svg>
