<?xml version="1.0" encoding="UTF-8" standalone="no"?>
<svg
   width="22"
   height="22"
   id="svg7229"
   sodipodi:version="0.32"
   inkscape:version="1.2 (dc2aedaf03, 2022-05-15)"
   version="1.0"
   sodipodi:docname="zoom.svg"
   inkscape:output_extension="org.inkscape.output.svg.inkscape"
   viewBox="0 0 22 22"
   xmlns:inkscape="http://www.inkscape.org/namespaces/inkscape"
   xmlns:sodipodi="http://sodipodi.sourceforge.net/DTD/sodipodi-0.dtd"
   xmlns="http://www.w3.org/2000/svg"
   xmlns:svg="http://www.w3.org/2000/svg"
   xmlns:rdf="http://www.w3.org/1999/02/22-rdf-syntax-ns#"
   xmlns:cc="http://creativecommons.org/ns#"
   xmlns:dc="http://purl.org/dc/elements/1.1/">
  <style
     id="current-color-scheme"
     type="text/css">.ColorScheme-Text { color:#d6dbf1; }
</style>
  <defs
     id="defs7231">
    <style
       id="style3"
       type="text/css" />
    <style
       type="text/css"
       id="style5" />
  </defs>
  <sodipodi:namedview
     id="base"
     pagecolor="#ffffff"
     bordercolor="#000000"
     borderopacity="1"
     inkscape:pageopacity="0"
     inkscape:pageshadow="2"
     inkscape:zoom="8"
     inkscape:cx="14.5"
     inkscape:cy="-0.5"
     inkscape:document-units="px"
     inkscape:current-layer="layer1"
     showgrid="false"
     inkscape:window-width="1920"
     inkscape:window-height="1002"
     inkscape:window-x="0"
     inkscape:window-y="0"
     showguides="false"
     inkscape:guide-bbox="true"
     gridtolerance="6"
     inkscape:window-maximized="1"
     inkscape:snap-bbox="true"
     inkscape:snap-bbox-edge-midpoints="false"
     inkscape:bbox-nodes="false"
     inkscape:bbox-paths="false"
     inkscape:snap-bbox-midpoints="false"
     inkscape:object-paths="true"
     inkscape:snap-intersection-paths="true"
     inkscape:object-nodes="true"
     fit-margin-top="0"
     fit-margin-left="0"
     fit-margin-right="0"
     fit-margin-bottom="0"
     inkscape:snap-nodes="true"
     inkscape:showpageshadow="false"
     borderlayer="true"
     inkscape:document-rotation="0"
     inkscape:lockguides="false"
     inkscape:pagecheckerboard="0"
     inkscape:deskcolor="#d1d1d1">
    <inkscape:grid
       type="xygrid"
       id="grid1046"
       originx="-23.999996"
       originy="9.5996094e-06" />
  </sodipodi:namedview>
  <metadata
     id="metadata7234">
    <rdf:RDF>
      <cc:Work
         rdf:about="">
        <dc:format>image/svg+xml</dc:format>
        <dc:type
           rdf:resource="http://purl.org/dc/dcmitype/StillImage" />
      </cc:Work>
    </rdf:RDF>
  </metadata>
  <g
     inkscape:label="Camada 1"
     inkscape:groupmode="layer"
     id="layer1"
     transform="translate(-301.54822,-390.50504)">
    <g
       id="zoom-fit-height">
      <rect
         y="390.50504"
         x="277.54822"
         height="22"
         width="22"
         id="rect3046"
         style="fill:#566060;fill-opacity:0;stroke:none" />
      <path
         d="m 291.23927,396.94805 c -0.0127,-0.0215 -0.0291,-0.0478 -0.0623,-0.0694 l -2.57129,-2.30659 c -0.1326,-0.0895 -0.28194,-0.0895 -0.41465,0 l -2.37081,2.30659 c -0.13263,0.0895 -0.0757,0.18047 0.124,0.18047 h 1.604 v 8.89164 h -1.604 c -0.19904,0 -0.25603,0.0917 -0.124,0.1805 l 2.37081,2.3067 c 0.13271,0.0893 0.28205,0.0893 0.41465,0 l 2.57129,-2.3067 c 0.13276,-0.0895 0.0737,-0.1805 -0.12481,-0.1805 h -1.50394 v -8.89161 h 1.50394 c 0.14944,0 0.21443,-0.0489 0.1866,-0.11123 z"
         id="path2-3"
         style="fill:currentColor;fill-opacity:1;stroke-width:0.543146"
         class="ColorScheme-Text"
         sodipodi:nodetypes="cccccsccsccccsccscc" />
      <path
         d="m 297.85047,391.50605 h -18.60465 c -0.18305,0 -0.35233,0.0834 -0.47793,0.23373 -0.007,0.007 -0.0125,0.0143 -0.0204,0.0245 l -0.0139,0.0165 c -0.1195,0.1535 -0.18536,0.35903 -0.18536,0.58115 v 0.28579 c 0,0.47248 0.31296,0.85703 0.69765,0.85703 h 18.6047 c 0.38467,0 0.69765,-0.38455 0.69765,-0.85703 v -0.28579 c 0,-0.47263 -0.31298,-0.85718 -0.69765,-0.85718 z"
         id="path2"
         style="fill:currentColor;fill-opacity:1;stroke-width:0.25777"
         class="ColorScheme-Text" />
      <path
         d="m 297.85047,409.50633 h -18.60465 c -0.18305,0 -0.35233,0.0834 -0.47793,0.23368 -0.007,0.007 -0.0125,0.0151 -0.0204,0.0245 l -0.0139,0.0165 c -0.1195,0.15356 -0.18536,0.35909 -0.18536,0.58104 v 0.28579 c 0,0.47265 0.31296,0.8572 0.69765,0.8572 h 18.6047 c 0.38467,0 0.69765,-0.38455 0.69765,-0.8572 v -0.28579 c 0,-0.47246 -0.31298,-0.85701 -0.69765,-0.85701 z"
         id="path2-7"
         style="fill:currentColor;fill-opacity:1;stroke-width:0.25777"
         class="ColorScheme-Text" />
    </g>
    <g
       id="zoom-fit-width">
      <rect
         style="fill:#566060;fill-opacity:0;stroke:none"
         id="rect3827"
         width="22"
         height="22"
         x="390.50504"
         y="-323.54822"
         transform="rotate(90)" />
      <path
         d="m 317.10522,404.49563 c 0.0212,-0.0133 0.0478,-0.0306 0.0694,-0.0656 l 2.30651,-2.70662 c 0.0894,-0.1396 0.0894,-0.29685 0,-0.43651 l -2.30651,-2.70665 c -0.0895,-0.13957 -0.18053,-0.0787 -0.18053,0.13136 v 1.79343 h -8.89168 v -1.79343 c 0,-0.20951 -0.0919,-0.2703 -0.18052,-0.13136 l -2.30669,2.70665 c -0.0893,0.13966 -0.0893,0.29691 0,0.43651 l 2.30669,2.70662 c 0.0894,0.13975 0.18052,0.0776 0.18052,-0.13139 v -1.7936 h 8.89166 v 1.7936 c 0,0.1573 0.049,0.22571 0.11111,0.19642 z"
         id="path2-3-6"
         style="fill:currentColor;fill-opacity:1;stroke-width:0.557254"
         class="ColorScheme-Text"
         sodipodi:nodetypes="cccccsccsccccsccscc" />
      <path
         d="m 304.54722,410.80729 v -18.60465 c 0,-0.18305 -0.0835,-0.35233 -0.23371,-0.47793 -0.007,-0.007 -0.0145,-0.0125 -0.0245,-0.0204 l -0.0166,-0.0139 c -0.15337,-0.1195 -0.35899,-0.18536 -0.58099,-0.18536 h -0.28587 c -0.47261,0 -0.85707,0.31296 -0.85707,0.69765 v 18.6047 c 0,0.38467 0.38446,0.69765 0.85707,0.69765 h 0.28587 c 0.47252,0 0.85706,-0.31298 0.85706,-0.69765 z"
         id="path2-5"
         style="fill:currentColor;fill-opacity:1;stroke-width:0.257763"
         class="ColorScheme-Text" />
      <path
         d="m 322.54692,410.80729 v -18.60465 c 0,-0.18305 -0.0835,-0.35233 -0.23365,-0.47793 -0.007,-0.007 -0.0146,-0.0125 -0.0245,-0.0204 l -0.0165,-0.0139 c -0.15349,-0.1195 -0.3591,-0.18536 -0.58111,-0.18536 h -0.28587 c -0.47253,0 -0.85707,0.31296 -0.85707,0.69765 v 18.6047 c 0,0.38467 0.38454,0.69765 0.85707,0.69765 h 0.28587 c 0.4726,0 0.85706,-0.31298 0.85706,-0.69765 z"
         id="path2-5-3"
         style="fill:currentColor;fill-opacity:1;stroke-width:0.257763"
         class="ColorScheme-Text" />
    </g>
    <g
       id="16-16-zoom-fit-height">
      <rect
         y="368.50504"
         x="300.54825"
         height="16"
         width="16"
         id="rect3841"
         style="fill:#566060;fill-opacity:0;stroke:none" />
      <path
         d="m 310.21183,372.68956 c -0.01,-0.0184 -0.018,-0.0392 -0.0376,-0.0587 l -1.56509,-1.94288 c -0.0806,-0.0753 -0.17169,-0.0753 -0.25243,0 l -1.56513,1.94288 c -0.0806,0.0753 -0.0457,0.152 0.0764,0.152 h 0.68027 v 7.49009 h -0.68027 c -0.12123,0 -0.15634,0.0772 -0.0764,0.15204 l 1.56513,1.943 c 0.0807,0.0751 0.17167,0.0751 0.25243,0 l 1.56509,-1.943 c 0.0807,-0.0753 0.0451,-0.15204 -0.0763,-0.15204 h -0.54968 v -7.49003 h 0.54965 c 0.0909,0 0.13046,-0.0407 0.11355,-0.0933 z"
         id="path2-3-9"
         style="fill:currentColor;fill-opacity:1;stroke-width:0.38892"
         class="ColorScheme-Text"
         sodipodi:nodetypes="cccccsccsccccsccscc" />
      <path
         d="m 315.06012,369.50505 h -13.02319 c -0.12808,0 -0.24666,0.0445 -0.33458,0.12351 -0.007,0.007 -0.01,0.01 -0.0144,0.0126 l -0.01,0.01 c -0.0836,0.081 -0.12971,0.1896 -0.12971,0.30705 v 0.15092 c 0,0.24957 0.21909,0.39591 0.48834,0.39591 h 13.02321 c 0.2692,0 0.48834,-0.14634 0.48834,-0.39591 v -0.15092 c 0,-0.2497 -0.21914,-0.45289 -0.48834,-0.45289 z"
         id="path2-1"
         style="fill:currentColor;fill-opacity:1;stroke-width:0.156751"
         class="ColorScheme-Text"
         sodipodi:nodetypes="cscccsssssscc" />
      <path
         d="m 315.06012,382.50504 -13.02319,-3e-5 c -0.12808,0 -0.24666,-0.0122 -0.33458,0.0667 -0.007,0.007 -0.01,0.01 -0.0144,0.0126 l -0.01,0.01 c -0.0836,0.0811 -0.12971,0.18962 -0.12971,0.3069 v 0.15094 c 0,0.2497 0.21909,0.45289 0.48834,0.45289 h 13.02321 c 0.2692,0 0.48834,-0.20319 0.48834,-0.45289 v -0.1509 c 0,-0.24956 -0.21914,-0.39628 -0.48834,-0.39628 z"
         id="path2-7-2"
         style="fill:currentColor;fill-opacity:1;stroke-width:0.156751"
         class="ColorScheme-Text"
         sodipodi:nodetypes="cscccsssssscc" />
    </g>
    <g
       id="16-16-zoom-fit-width">
      <rect
         style="fill:#566060;fill-opacity:0;stroke:none"
         id="rect3851"
         width="16"
         height="16"
         x="368.50504"
         y="-295.53574"
         transform="rotate(90)" />
      <path
         d="m 291.41706,378.2188 c 0.0181,-0.0101 0.039,-0.0182 0.0593,-0.0377 l 1.95217,-1.5651 c 0.0756,-0.0804 0.0756,-0.1717 0,-0.25251 l -1.95217,-1.56512 c -0.0756,-0.0803 -0.15275,-0.0457 -0.15275,0.0766 v 0.63007 h -7.52536 l -3.3e-4,-0.63007 c -6e-5,-0.12127 -0.0773,-0.15674 -0.15277,-0.077 l -1.95217,1.5655 c -0.0756,0.0804 -0.0756,0.17177 0,0.25251 l 1.95217,1.5651 c 0.0757,0.0805 0.15277,0.0453 0.15277,-0.0767 v -0.59934 h 7.52565 v 0.59934 c 0,0.0912 0.041,0.13046 0.0939,0.11356 z"
         id="path2-3-6-5"
         style="fill:currentColor;fill-opacity:1;stroke-width:0.389835"
         class="ColorScheme-Text"
         sodipodi:nodetypes="cccccsccsccccsccscc" />
      <path
         d="m 281.54825,383.01719 -10e-6,-13.02335 c 0,-0.12803 0.004,-0.24666 -0.0747,-0.33457 -0.007,-0.007 -0.0101,-0.0101 -0.0127,-0.0144 l -0.0101,-0.0101 c -0.0808,-0.0836 -0.19051,-0.12972 -0.30828,-0.12972 h -0.1518 c -0.25091,0 -0.44241,0.21911 -0.44241,0.48829 v 13.02342 c 0,0.26918 0.1915,0.48829 0.44241,0.48829 h 0.1518 c 0.25077,0 0.40579,-0.21911 0.40579,-0.48829 z"
         id="path2-5-6"
         style="fill:currentColor;fill-opacity:1;stroke-width:0.157128"
         class="ColorScheme-Text"
         sodipodi:nodetypes="cscccsssssscc" />
      <path
         d="m 294.54825,383.01719 -10e-6,-13.02335 c 0,-0.12803 0.004,-0.24666 -0.0747,-0.33457 -0.007,-0.007 -0.0101,-0.0101 -0.0127,-0.0144 l -0.0101,-0.0101 c -0.0808,-0.0836 -0.19051,-0.12973 -0.30828,-0.12973 h -0.1518 c -0.25091,0 -0.44241,0.21911 -0.44241,0.48829 v 13.02342 c 0,0.26918 0.1915,0.48829 0.44241,0.48829 h 0.1518 c 0.25077,0 0.40579,-0.21911 0.40579,-0.48829 z"
         id="path2-5-6-3"
         style="fill:currentColor;fill-opacity:1;stroke-width:0.157128"
         class="  ColorScheme-Text"
         sodipodi:nodetypes="cscccsssssscc" />
    </g>
  </g>
</svg>
