<?xml version="1.0" encoding="UTF-8" standalone="no"?>
<svg
   xmlns:dc="http://purl.org/dc/elements/1.1/"
   xmlns:cc="http://creativecommons.org/ns#"
   xmlns:rdf="http://www.w3.org/1999/02/22-rdf-syntax-ns#"
   xmlns:svg="http://www.w3.org/2000/svg"
   xmlns="http://www.w3.org/2000/svg"
   xmlns:sodipodi="http://sodipodi.sourceforge.net/DTD/sodipodi-0.dtd"
   xmlns:inkscape="http://www.inkscape.org/namespaces/inkscape"
   viewBox="0 0 24 24"
   width="24"
   height="24"
   version="1.1"
   id="svg8"
   sodipodi:docname="redshift-status-off.svg"
   inkscape:version="1.0.1 (3bc2e813f5, 2020-09-07)">
  <metadata
     id="metadata12">
    <rdf:RDF>
      <cc:Work
         rdf:about="">
        <dc:format>image/svg+xml</dc:format>
        <dc:type
           rdf:resource="http://purl.org/dc/dcmitype/StillImage" />
      </cc:Work>
    </rdf:RDF>
  </metadata>
  <sodipodi:namedview
     pagecolor="#ffffff"
     bordercolor="#666666"
     borderopacity="1"
     objecttolerance="10"
     gridtolerance="10"
     guidetolerance="10"
     inkscape:pageopacity="0"
     inkscape:pageshadow="2"
     inkscape:window-width="1920"
     inkscape:window-height="1016"
     id="namedview10"
     showgrid="false"
     inkscape:zoom="26.166667"
     inkscape:cx="5.8280255"
     inkscape:cy="12"
     inkscape:window-x="0"
     inkscape:window-y="0"
     inkscape:window-maximized="1"
     inkscape:current-layer="svg8" />
  <defs
     id="defs3051">
    <style
       type="text/css"
       id="current-color-scheme">
      .ColorScheme-Text {
        color:#eff0f1;
      }
      </style>
  </defs>
  <path
     d="m 14.152309,6.153846 v 5.977231 c 0.198461,-0.05631 0.403692,-0.09631 0.615384,-0.115693 V 6.153846 c 0,-0.169539 -0.138154,-0.307692 -0.307692,-0.307692 -0.169539,0 -0.307692,0.138153 -0.307692,0.307692 z"
     id="path12-0-2"
     style="fill:#b2bacd;fill-opacity:1;stroke-width:0.307692" />
  <path
     d="m 10.46,17.538462 c -0.104615,0 -0.206769,-0.01015 -0.307692,-0.02462 v 1.255385 h 3.076923 v 0.615384 h -3.076923 v 0.307693 c 0,0.169538 0.138154,0.307692 0.307692,0.307692 h 3.076924 c 0.169538,0 0.307692,-0.138154 0.307692,-0.307692 v -2.178462 c -0.100923,0.01446 -0.203077,0.02462 -0.307692,0.02462 z"
     id="path14-6-0"
     style="fill:#00cccc;fill-opacity:1;stroke-width:0.307692" />
  <path
     d="m 14.460001,5.230769 c 0.508923,0 0.923077,0.414154 0.923077,0.923077 V 12 h 0.615385 V 6.153846 c 0,-0.848308 -0.690154,-1.538462 -1.538462,-1.538462 -0.164308,0 -0.325539,0.02923 -0.48,0.07969 0.08,0.186769 0.133231,0.387384 0.157231,0.596923 0.100923,-0.03785 0.208923,-0.06123 0.322769,-0.06123 z"
     id="path16-2-2"
     style="fill:#b2bacd;fill-opacity:1;stroke-width:0.307692" />
  <path
     d="m 11.075385,5.538461 c 0,-0.508923 0.414154,-0.923077 0.923077,-0.923077 0.508923,0 0.923077,0.414154 0.923077,0.923077 v 7.237231 c 0.188615,-0.156 0.395692,-0.289538 0.615385,-0.402154 V 5.538461 C 13.536924,4.690154 12.84677,4 11.998462,4 11.150154,4 10.46,4.690154 10.46,5.538461 v 6.835077 c 0.219693,0.112616 0.42677,0.246154 0.615385,0.402154 z"
     id="path18-6-3"
     style="fill:#b2bacd;fill-opacity:1;stroke-width:0.307692" />
  <path
     d="m 12.306154,15.384615 v 0.307693 H 11.69077 v -0.307693 c 0,-1.526769 -1.242462,-2.769231 -2.769231,-2.769231 H 7.4 c 0.153539,1.38277 1.329231,2.461539 2.752308,2.461539 h 0.923077 v 0.615385 h -0.923077 c -0.431692,0 -0.843077,-0.08431 -1.223077,-0.232308 0.04031,0.812615 0.708308,1.463078 1.530769,1.463078 h 1.23077 v -0.615386 h 0.615384 v 0.615386 h 1.23077 c 0.822462,0 1.490462,-0.650463 1.530769,-1.463078 -0.38,0.148 -0.791384,0.232308 -1.223077,0.232308 h -0.923077 v -0.615385 h 0.923077 c 1.423077,0 2.59877,-1.078769 2.752308,-2.461539 h -1.521538 c -1.52677,0 -2.769232,1.242462 -2.769232,2.769231 z"
     id="path20-1-7"
     style="fill:#d3dae3;fill-opacity:1;stroke-width:0.307692" />
  <path
     d="m 9.229231,6.153846 v 5.861846 c 0.211692,0.01908 0.416923,0.05908 0.615385,0.115692 V 6.153846 c 0,-0.169539 -0.138154,-0.307692 -0.307693,-0.307692 -0.169538,0 -0.307692,0.138153 -0.307692,0.307692 z"
     id="path22-8-5"
     style="fill:#b2bacd;fill-opacity:1;stroke-width:0.307692" />
  <path
     d="m 11.69077,5.538461 v 7.906154 c 0.118461,0.168616 0.22123,0.348923 0.307692,0.538154 0.08646,-0.189231 0.189231,-0.369538 0.307692,-0.538154 V 5.538461 c 0,-0.169538 -0.138154,-0.307692 -0.307692,-0.307692 -0.169539,0 -0.307692,0.138154 -0.307692,0.307692 z"
     id="path24-3-9"
     style="fill:#b2b9cd;fill-opacity:1;stroke-width:0.307692" />
  <path
     d="m 8.613847,6.153846 c 0,-0.508923 0.414153,-0.923077 0.923076,-0.923077 0.113847,0 0.221847,0.02338 0.32277,0.06154 0.024,-0.209538 0.07723,-0.410153 0.15723,-0.596923 -0.154461,-0.05077 -0.315692,-0.08 -0.48,-0.08 -0.848307,0 -1.538461,0.690154 -1.538461,1.538462 V 12 h 0.615385 z"
     id="path26-7-2"
     style="fill:#b2bacd;fill-opacity:1;stroke-width:0.307692" />
</svg>
