<?xml version="1.0" encoding="UTF-8" standalone="no"?>
<svg
   width="16"
   height="16"
   viewBox="0 0 16 16"
   id="svg8694"
   version="1.1"
   inkscape:version="1.1.1 (3bf5ae0d25, 2021-09-20)"
   sodipodi:docname="system-file-manager.svg"
   xmlns:inkscape="http://www.inkscape.org/namespaces/inkscape"
   xmlns:sodipodi="http://sodipodi.sourceforge.net/DTD/sodipodi-0.dtd"
   xmlns:xlink="http://www.w3.org/1999/xlink"
   xmlns="http://www.w3.org/2000/svg"
   xmlns:svg="http://www.w3.org/2000/svg"
   xmlns:rdf="http://www.w3.org/1999/02/22-rdf-syntax-ns#"
   xmlns:cc="http://creativecommons.org/ns#"
   xmlns:dc="http://purl.org/dc/elements/1.1/">
  <defs
     id="defs8696">
    <linearGradient
       inkscape:collect="always"
       id="linearGradient1016">
      <stop
         style="stop-color:#00bdbd;stop-opacity:1"
         offset="0"
         id="stop1012" />
      <stop
         style="stop-color:#80b3ff;stop-opacity:1"
         offset="1"
         id="stop1014" />
    </linearGradient>
    <linearGradient
       xlink:href="#linearGradient1016"
       id="linearGradient4225-3"
       gradientUnits="userSpaceOnUse"
       x1="396.57101"
       y1="498.798"
       x2="426.57101"
       y2="511.798"
       gradientTransform="matrix(0.25503851,0,0,0.10945197,-98.205353,987.50736)" />
    <linearGradient
       id="linearGradient4227">
      <stop
         offset="0"
         style="stop-color:#f5f5f5;stop-opacity:1"
         id="stop21" />
      <stop
         offset="1"
         style="stop-color:#f9f9f9;stop-opacity:1"
         id="stop23" />
    </linearGradient>
    <linearGradient
       inkscape:collect="always"
       id="linearGradient2230">
      <stop
         style="stop-color:#4e99ca;stop-opacity:0.80000001"
         offset="0"
         id="stop2226" />
      <stop
         style="stop-color:#20ffff;stop-opacity:0.80000001"
         offset="0.50507295"
         id="stop2332" />
      <stop
         style="stop-color:#ffaeff;stop-opacity:0.69"
         offset="1"
         id="stop2228" />
    </linearGradient>
    <linearGradient
       inkscape:collect="always"
       xlink:href="#linearGradient1295"
       id="linearGradient1493"
       gradientUnits="userSpaceOnUse"
       x1="20.750315"
       y1="1025.9873"
       x2="-12.062732"
       y2="995.35931" />
    <linearGradient
       inkscape:collect="always"
       id="linearGradient1295">
      <stop
         style="stop-color:#1d212f;stop-opacity:1;"
         offset="0"
         id="stop1291" />
      <stop
         style="stop-color:#717da8;stop-opacity:1"
         offset="1"
         id="stop1293" />
    </linearGradient>
    <linearGradient
       inkscape:collect="always"
       xlink:href="#linearGradient952"
       id="linearGradient1297"
       x1="2.0000021"
       y1="1025.9873"
       x2="62.938519"
       y2="1025.9873"
       gradientUnits="userSpaceOnUse" />
    <linearGradient
       inkscape:collect="always"
       id="linearGradient952">
      <stop
         style="stop-color:#2e354b;stop-opacity:1"
         offset="0"
         id="stop948" />
      <stop
         style="stop-color:#717da8;stop-opacity:1"
         offset="1"
         id="stop950" />
    </linearGradient>
    <linearGradient
       inkscape:collect="always"
       xlink:href="#linearGradient2230"
       id="linearGradient1531"
       gradientUnits="userSpaceOnUse"
       gradientTransform="translate(1.1500003,-1.799766)"
       x1="7.3499999"
       y1="1046.662"
       x2="14.172306"
       y2="1046.662" />
  </defs>
  <sodipodi:namedview
     id="base"
     pagecolor="#ffffff"
     bordercolor="#666666"
     borderopacity="1.0"
     inkscape:pageopacity="0.0"
     inkscape:pageshadow="2"
     inkscape:zoom="16.000001"
     inkscape:cx="4.3124997"
     inkscape:cy="9.9687494"
     inkscape:document-units="px"
     inkscape:current-layer="layer1"
     showgrid="true"
     units="px"
     inkscape:snap-bbox="true"
     inkscape:bbox-nodes="true"
     inkscape:object-nodes="true"
     inkscape:snap-global="true"
     inkscape:showpageshadow="true"
     showborder="true"
     inkscape:document-rotation="0"
     inkscape:window-width="1920"
     inkscape:window-height="1005"
     inkscape:window-x="0"
     inkscape:window-y="0"
     inkscape:window-maximized="1"
     inkscape:lockguides="false"
     inkscape:pagecheckerboard="0">
    <inkscape:grid
       type="xygrid"
       id="grid9302" />
  </sodipodi:namedview>
  <metadata
     id="metadata8699">
    <rdf:RDF>
      <cc:Work
         rdf:about="">
        <dc:format>image/svg+xml</dc:format>
        <dc:type
           rdf:resource="http://purl.org/dc/dcmitype/StillImage" />
      </cc:Work>
    </rdf:RDF>
  </metadata>
  <g
     inkscape:label="Livello 1"
     inkscape:groupmode="layer"
     id="layer1"
     transform="translate(0,-1036.3622)">
    <g
       transform="matrix(0.26666223,0,0,0.28568698,-0.53334144,752.001)"
       id="g19">
      <rect
         width="60"
         height="42"
         x="2"
         y="1002.36"
         rx="6.5219998"
         ry="6.5619998"
         style="opacity:0.85;fill:url(#linearGradient1493);fill-opacity:1;stroke:none"
         id="rect11" />
      <path
         d="m 8.522,1002.36 c -3.613,0 -6.522,3.3302 -6.522,6.1002 v 0.8998 c 0,-2.77 2.909,-5 6.522,-5 h 46.957 c 3.613,0 6.522,2.23 6.522,5 v -0.8998 c 0,-2.77 -2.909,-6.1002 -6.522,-6.1002 z"
         style="opacity:0.2;fill:#ffffff;fill-opacity:1;stroke:none"
         id="path13"
         sodipodi:nodetypes="sscsscsss" />
      <path
         d="m 8.522,1013.3603 h 10.435 c 14.348,-1.333 11.86095,-6.5781 20.991951,-6.5781 h 15.361736 c 3.612989,0 6.689313,1.4143 6.689313,5.1083 v 25.8035 c 0,3.693 -2.908,6.667 -6.521,6.667 H 8.522 c -3.613,0 -6.522,-2.973 -6.522,-6.667 v -18.667 c 0,-4 2.609,-5.6667 6.522,-5.6667 z"
         style="opacity:0.6;fill:url(#linearGradient1297);fill-opacity:1;stroke:none"
         id="path15"
         sodipodi:nodetypes="scsssssssss" />
      <path
         d="m 2,1035.03 v 2.667 c 0,3.693 2.909,6.667 6.522,6.667 h 46.957 c 3.613,0 6.522,-2.973 6.522,-6.667 v -2.667 c 0,3.693 -2.909,7.333 -6.522,7.333 H 8.522 c -3.613,0 -6.522,-3.64 -6.522,-7.333 z"
         style="opacity:0.15;fill:#333333;fill-opacity:1;stroke:none"
         id="path17" />
    </g>
    <rect
       y="1048.5627"
       x="10"
       height="0.085714288"
       width="5.4666729"
       id="rect4209"
       style="fill:#000000;fill-opacity:1;fill-rule:nonzero;stroke:none;stroke-width:0.105624;stroke-linecap:round;stroke-linejoin:round;stroke-miterlimit:4;stroke-dasharray:none;stroke-dashoffset:0;stroke-opacity:1" />
    <path
       d="m 15.267297,1043.7748 c 0.01314,-0.271 -0.275865,-0.5501 -0.393405,-0.6513 -0.64967,-1.6438 -2.982284,-1.0692 -3.437746,-0.9387 -1.186743,-0.7541 -2.100841,0.049 -2.109017,0.057 -0.04408,0.039 -0.06362,0.1 -0.05062,0.1583 0.01307,0.057 0.05715,0.1028 0.114293,0.1191 0.36567,0.1045 0.641535,0.4588 0.757388,0.6302 -0.852075,0.9973 -0.883077,2.419 -0.874935,2.7848 -1.06268,0.8798 -0.726399,1.7858 -0.710108,1.8249 0.02287,0.057 0.07509,0.098 0.137146,0.1028 0.0047,0 0.0098,0 0.0146,0 0.05548,0 0.109411,-0.03 0.13878,-0.078 0.194261,-0.3133 0.437504,-0.5027 0.721504,-0.5631 0.507644,-0.1077 1.000623,0.2204 1.005518,0.2236 0.03748,0.026 0.08485,0.036 0.13057,0.024 0.04408,-0.012 0.08322,-0.041 0.104456,-0.082 0.256253,-0.4717 -0.140406,-1.0724 -0.287328,-1.2699 0.187687,-0.7967 0.648044,-1.2586 1.008766,-1.5083 l -0.07343,0.1221 c -0.02287,0.041 -0.02934,0.088 -0.01474,0.1322 0.01307,0.046 0.04568,0.082 0.08818,0.1012 0.159938,0.07 0.383582,0.077 0.667649,0.018 0.236733,-0.051 0.465245,-0.173 0.661133,-0.3542 0.256253,-0.235 0.541954,-0.253 0.541954,-0.253 h 1.622606 c 0.03754,0 0.07183,-0.013 0.101202,-0.034 0.138779,-0.1094 0.177923,-0.2286 0.187686,-0.3101 0.0132,-0.108 -0.02107,-0.1994 -0.05208,-0.2582 z m -1.147538,-0.1763 h -0.08981 c -0.08981,0 -0.163273,-0.073 -0.163273,-0.1633 0,-0.09 0.07347,-0.1633 0.163273,-0.1633 h 0.08981 c 0.09143,0 0.163266,0.073 0.163266,0.1633 0,0.09 -0.07183,0.1633 -0.163266,0.1633 z"
       id="path49-5"
       style="fill:url(#linearGradient1531);fill-opacity:1;stroke-width:0.016032" />
  </g>
</svg>
