<?xml version="1.0" encoding="UTF-8" standalone="no"?>
<svg
   id="svg4306"
   width="22"
   height="22"
   version="1.1"
   style="enable-background:new"
   sodipodi:docname="shade.svg"
   inkscape:version="1.1.1 (3bf5ae0d25, 2021-09-20)"
   xmlns:inkscape="http://www.inkscape.org/namespaces/inkscape"
   xmlns:sodipodi="http://sodipodi.sourceforge.net/DTD/sodipodi-0.dtd"
   xmlns="http://www.w3.org/2000/svg"
   xmlns:svg="http://www.w3.org/2000/svg"
   xmlns:rdf="http://www.w3.org/1999/02/22-rdf-syntax-ns#"
   xmlns:cc="http://creativecommons.org/ns#"
   xmlns:dc="http://purl.org/dc/elements/1.1/">
  <g
     id="pressed-inactive-center">
    <rect
       style="opacity:0.00100002;fill:#000000;fill-opacity:1;fill-rule:nonzero;stroke:none;stroke-width:2;stroke-linecap:round;stroke-linejoin:round;stroke-miterlimit:4;stroke-dasharray:none;stroke-opacity:1"
       y="0"
       x="0"
       height="22"
       width="22"
       id="rect4266-3-6-5" />
    <path
       id="path839-3-3"
       style="fill:#2b4254;fill-opacity:1;stroke-width:1.125;enable-background:new"
       d="M 11,2 C 6.02953,2 2,6.029441 2,10.999998 2,15.970557 6.02953,20 11,20 15.97048,20 20,15.970557 20,10.999998 20,6.029441 15.97048,2 11,2 Z m 0,1.125 c 4.34919,0 7.875,3.525746 7.875,7.874998 C 18.875,15.349232 15.34919,18.875 11,18.875 6.6508,18.875 3.125,15.349232 3.125,10.999998 3.125,6.650746 6.6508,3.125 11,3.125 Z m 0,0 z"
       sodipodi:nodetypes="ssssssssssccccc" />
    <rect
       style="fill:#0090b2;fill-opacity:1;stroke:none;stroke-width:0.39374;enable-background:new"
       id="center-3-35-5-6"
       width="15.749992"
       height="15.749992"
       x="3.125"
       y="3.124999"
       ry="7.8749838" />
    <path
       d="m 5.6759595,10.07 a 0.42633605,0.42718882 0 0 1 0.301277,0.125314 l 5.0279275,5.037978 5.02792,-5.037978 a 0.42633605,0.42718882 0 0 1 0.602553,0.603753 l -5.329205,5.33986 a 0.42633605,0.42718882 0 0 1 -0.602543,0 L 5.3746815,10.799067 A 0.42633605,0.42718882 0 0 1 5.6759595,10.07 Z"
       id="path4-3-62-7-1-4-3-7"
       style="fill:#ffffff;fill-opacity:1;stroke-width:0.142247;enable-background:new" />
    <path
       d="M 16.156098,8.4353034 H 5.8241771 c -0.3168463,0 -0.5739958,-0.2095072 -0.5739958,-0.4676511 C 5.2501813,7.7095083 5.5073308,7.5 5.8241771,7.5 H 16.156098 c 0.316846,0 0.573995,0.2095083 0.573995,0.4676523 0,0.2581429 -0.257149,0.4676511 -0.573995,0.4676511 z"
       id="path2-91-0-8-7-6-53"
       style="fill:#ffffff;fill-opacity:1;stroke-width:0.259056;enable-background:new" />
  </g>
  <g
     id="hover-inactive-center"
     transform="translate(-22)">
    <rect
       id="rect4266-3-67"
       width="22"
       height="22"
       x="0"
       y="0"
       style="opacity:0.00100002;fill:#000000;fill-opacity:1;fill-rule:nonzero;stroke:none;stroke-width:2;stroke-linecap:round;stroke-linejoin:round;stroke-miterlimit:4;stroke-dasharray:none;stroke-opacity:1" />
    <path
       id="path839-3-5"
       style="fill:#2b4254;fill-opacity:1;stroke-width:1.125;enable-background:new"
       d="M 11,2 C 6.02953,2 2,6.029441 2,10.999998 2,15.970557 6.02953,20 11,20 15.97048,20 19.999998,15.970557 19.999998,10.999998 19.999998,6.029441 15.97048,2 11,2 Z m 0,1.125 c 4.34919,0 7.874998,3.525746 7.874998,7.874998 C 18.874998,15.349232 15.34919,18.875 11,18.875 6.6508,18.875 3.125,15.349232 3.125,10.999998 3.125,6.650746 6.6508,3.125 11,3.125 Z m 0,0 z"
       sodipodi:nodetypes="ssssssssssccccc" />
    <rect
       style="fill:#0090b2;fill-opacity:0.60000002;stroke:none;stroke-width:0.39374;enable-background:new"
       id="center-3-35-5-62"
       width="15.749992"
       height="15.749992"
       x="3.1249971"
       y="3.1250002"
       ry="7.8749838" />
    <path
       d="M 16.32404,15.463529 A 0.42633605,0.42718882 0 0 1 16.022763,15.338215 L 10.994837,10.300237 5.9669157,15.338215 A 0.42633605,0.42718882 0 0 1 5.3643624,14.734462 L 10.693568,9.3946014 a 0.42633605,0.42718882 0 0 1 0.602543,0 l 5.329207,5.3398606 a 0.42633605,0.42718882 0 0 1 -0.301278,0.729067 z"
       id="path4-3-62-7-1-4-3-91"
       style="fill:#ffffff;fill-opacity:1;stroke-width:0.142247;enable-background:new" />
    <path
       d="M 16.156098,8.4353034 H 5.8241771 c -0.3168463,0 -0.5739958,-0.2095072 -0.5739958,-0.4676511 C 5.2501813,7.7095083 5.5073308,7.5 5.8241771,7.5 H 16.156098 c 0.316846,0 0.573995,0.2095083 0.573995,0.4676523 0,0.2581429 -0.257149,0.4676511 -0.573995,0.4676511 z"
       id="path2-91-0-8-7-6-2"
       style="fill:#ffffff;fill-opacity:1;stroke-width:0.259056;enable-background:new" />
  </g>
  <g
     id="inactive-center"
     transform="translate(-44)">
    <rect
       style="opacity:0.00100002;fill:#000000;fill-opacity:1;fill-rule:nonzero;stroke:none;stroke-width:2;stroke-linecap:round;stroke-linejoin:round;stroke-miterlimit:4;stroke-dasharray:none;stroke-opacity:1"
       y="0"
       x="0"
       height="22"
       width="22"
       id="rect4266-9" />
    <path
       id="path839-3-70"
       style="fill:#2b4254;fill-opacity:1;stroke-width:1.125;enable-background:new"
       d="M 11,2 C 6.02953,2 2,6.029441 2,10.999998 2,15.970557 6.02953,20 11,20 15.97048,20 20,15.970557 20,10.999998 20,6.029441 15.97048,2 11,2 Z m 0,1.125 c 4.34919,0 7.875,3.525746 7.875,7.874998 C 18.875,15.349232 15.34919,18.875 11,18.875 6.6508,18.875 3.125,15.349232 3.125,10.999998 3.125,6.650746 6.6508,3.125 11,3.125 Z m 0,0 z"
       sodipodi:nodetypes="ssssssssssccccc" />
    <rect
       style="fill:#4e5a7e;fill-opacity:0.65098;stroke:none;stroke-width:0.39374;enable-background:new"
       id="center-3-35-5-9"
       width="15.749992"
       height="15.749992"
       x="3.125"
       y="3.125"
       ry="7.8749838" />
    <path
       d="M 16.324042,15.451491 A 0.42633606,0.42633605 0 0 1 16.022765,15.326427 L 10.994839,10.298506 5.9669172,15.326427 A 0.42633606,0.42633605 0 0 1 5.3643639,14.723879 L 10.693569,9.3946779 a 0.42633606,0.42633605 0 0 1 0.602544,0 l 5.329207,5.3292011 a 0.42633606,0.42633605 0 0 1 -0.301278,0.727612 z"
       id="path4-3-62-7-1-4-3-36"
       style="fill:#ffffff;fill-opacity:0.6;stroke-width:0.142105;enable-background:new" />
    <path
       d="M 16.1561,8.433436 H 5.8241787 C 5.5073323,8.433436 5.2501829,8.224347 5.2501829,7.966719 5.2501829,7.70909 5.5073323,7.5 5.8241787,7.5 H 16.1561 c 0.316846,0 0.573995,0.20909 0.573995,0.466719 0,0.257627 -0.257149,0.466717 -0.573995,0.466717 z"
       id="path2-91-0-8-7-6-0"
       style="fill:#ffffff;fill-opacity:0.6;stroke-width:0.258797;enable-background:new" />
  </g>
  <g
     id="pressed-center"
     transform="translate(0,-22)">
    <rect
       id="rect4266-3-6"
       width="22"
       height="22"
       x="0"
       y="0"
       style="opacity:0.00100002;fill:#000000;fill-opacity:1;fill-rule:nonzero;stroke:none;stroke-width:2;stroke-linecap:round;stroke-linejoin:round;stroke-miterlimit:4;stroke-dasharray:none;stroke-opacity:1" />
    <path
       id="path839-3-6"
       style="fill:#2b4254;fill-opacity:1;stroke-width:1.125;enable-background:new"
       d="M 11,2 C 6.02953,2 2,6.029441 2,10.999998 2,15.970557 6.02953,20 11,20 15.97048,20 20,15.970557 20,10.999998 20,6.029441 15.97048,2 11,2 Z m 0,1.125 c 4.34919,0 7.875,3.525746 7.875,7.874998 C 18.875,15.349232 15.34919,18.875 11,18.875 6.6508,18.875 3.125,15.349232 3.125,10.999998 3.125,6.650746 6.6508,3.125 11,3.125 Z m 0,0 z"
       sodipodi:nodetypes="ssssssssssccccc" />
    <rect
       style="fill:#0090b2;fill-opacity:1;stroke:none;stroke-width:0.39374;enable-background:new"
       id="center-3-35-5-2"
       width="15.749992"
       height="15.749992"
       x="3.1249998"
       y="3.1250002"
       ry="7.8749838" />
    <path
       d="m 5.6759595,10.17 a 0.42633605,0.42718882 0 0 1 0.301277,0.125314 l 5.0279265,5.037978 5.027921,-5.037978 a 0.42633605,0.42718882 0 0 1 0.602553,0.603753 l -5.329205,5.33986 a 0.42633605,0.42718882 0 0 1 -0.602543,0 L 5.3746815,10.899067 A 0.42633605,0.42718882 0 0 1 5.6759595,10.17 Z"
       id="path4-3-62-7-1-4-3-9"
       style="fill:#ffffff;fill-opacity:1;stroke-width:0.142247;enable-background:new" />
    <path
       d="M 16.156098,8.4353034 H 5.8241771 c -0.3168463,0 -0.5739958,-0.2095072 -0.5739958,-0.4676511 C 5.2501813,7.7095083 5.5073308,7.5 5.8241771,7.5 H 16.156098 c 0.316846,0 0.573995,0.2095083 0.573995,0.4676523 0,0.2581429 -0.257149,0.4676511 -0.573995,0.4676511 z"
       id="path2-91-0-8-7-6-1"
       style="fill:#ffffff;fill-opacity:1;stroke-width:0.259056;enable-background:new" />
  </g>
  <g
     id="active-center"
     transform="translate(-44,-22)">
    <rect
       id="rect4266"
       width="22"
       height="22"
       x="0"
       y="0"
       style="opacity:0.00100002;fill:#000000;fill-opacity:1;fill-rule:nonzero;stroke:none;stroke-width:2;stroke-linecap:round;stroke-linejoin:round;stroke-miterlimit:4;stroke-dasharray:none;stroke-opacity:1" />
    <path
       id="path839-3"
       style="fill:#2b4254;fill-opacity:1;stroke-width:1.125;enable-background:new"
       d="M 11,2 C 6.02953,2 2,6.0294414 2,10.999998 2,15.970557 6.02953,20 11,20 15.97048,20 20,15.970557 20,10.999998 20,6.0294414 15.97048,2 11,2 Z m 0,1.1249999 c 4.34919,0 7.875,3.5257465 7.875,7.8749981 0,4.349234 -3.52581,7.875002 -7.875,7.875002 -4.3492,0 -7.875,-3.525768 -7.875,-7.875002 0,-4.3492516 3.5258,-7.8749981 7.875,-7.8749981 z m 0,0 z"
       sodipodi:nodetypes="ssssssssssccccc" />
    <rect
       style="fill:#4e5a7e;fill-opacity:0.652479;stroke:none;stroke-width:0.39374;enable-background:new"
       id="center-3-35-5"
       width="15.749992"
       height="15.749992"
       x="3.125"
       y="3.1250005"
       ry="7.8749838" />
    <path
       d="M 16.324041,15.451483 A 0.42633555,0.42633554 0 0 1 16.022765,15.326421 L 10.994843,10.298506 5.9669286,15.326421 A 0.42633555,0.42633554 0 0 1 5.364376,14.723872 l 5.329198,-5.3291933 a 0.42633555,0.42633554 0 0 1 0.602545,0 l 5.329199,5.3291933 a 0.42633555,0.42633554 0 0 1 -0.301277,0.727611 z"
       id="path4-3-62-7-1-4-3"
       style="fill:#ffffff;fill-opacity:1;stroke-width:0.142109;enable-background:new" />
    <path
       d="M 16.156099,8.4334351 H 5.8241901 c -0.3168461,0 -0.573995,-0.2090887 -0.573995,-0.4667171 C 5.2501951,7.7090896 5.507344,7.5 5.8241901,7.5 H 16.156099 c 0.316846,0 0.573995,0.2090896 0.573995,0.466718 0,0.2576275 -0.257149,0.4667171 -0.573995,0.4667171 z"
       id="path2-91-0-8-7-6"
       style="fill:#ffffff;fill-opacity:1;stroke-width:0.258792;enable-background:new" />
  </g>
  <metadata
     id="metadata28">
    <rdf:RDF>
      <cc:Work
         rdf:about="">
        <dc:format>image/svg+xml</dc:format>
        <dc:type
           rdf:resource="http://purl.org/dc/dcmitype/StillImage" />
      </cc:Work>
    </rdf:RDF>
  </metadata>
  <defs
     id="defs26" />
  <sodipodi:namedview
     inkscape:document-rotation="0"
     pagecolor="#ffffff"
     bordercolor="#666666"
     borderopacity="1"
     objecttolerance="10"
     gridtolerance="10"
     guidetolerance="10"
     inkscape:pageopacity="0"
     inkscape:pageshadow="2"
     inkscape:window-width="1920"
     inkscape:window-height="1015"
     id="namedview24"
     showgrid="true"
     inkscape:zoom="11.313709"
     inkscape:cx="-12.374368"
     inkscape:cy="1.9887377"
     inkscape:window-x="0"
     inkscape:window-y="0"
     inkscape:window-maximized="1"
     inkscape:current-layer="svg4306"
     inkscape:snap-bbox="true"
     inkscape:bbox-nodes="true"
     inkscape:lockguides="false"
     inkscape:pagecheckerboard="0"
     showguides="false">
    <inkscape:grid
       type="xygrid"
       id="grid853"
       originx="-44"
       originy="-22" />
  </sodipodi:namedview>
  <style
     type="text/css"
     id="current-color-scheme" />
  <g
     id="hover-center"
     transform="translate(-22,-22)">
    <rect
       style="opacity:0.00100002;fill:#000000;fill-opacity:1;fill-rule:nonzero;stroke:none;stroke-width:2;stroke-linecap:round;stroke-linejoin:round;stroke-miterlimit:4;stroke-dasharray:none;stroke-opacity:1"
       y="0"
       x="0"
       height="22"
       width="22"
       id="rect4266-3" />
    <path
       id="path839-3-7"
       style="fill:#2b4254;fill-opacity:1;stroke-width:1.125;enable-background:new"
       d="M 11,2 C 6.02953,2 2,6.029441 2,10.999998 2,15.970557 6.02953,20 11,20 15.97048,20 20,15.970557 20,10.999998 20,6.029441 15.97048,2 11,2 Z m 0,1.125 c 4.34919,0 7.875,3.525746 7.875,7.874998 C 18.875,15.349232 15.34919,18.875 11,18.875 6.6508,18.875 3.125,15.349232 3.125,10.999998 3.125,6.650746 6.6508,3.125 11,3.125 Z m 0,0 z"
       sodipodi:nodetypes="ssssssssssccccc" />
    <rect
       style="fill:#0090b2;fill-opacity:0.60000002;stroke:none;stroke-width:0.39374;enable-background:new"
       id="center-3-35-5-5"
       width="15.749992"
       height="15.749992"
       x="3.125"
       y="3.1249995"
       ry="7.8749838" />
    <path
       d="M 16.32404,15.463523 A 0.4263354,0.42718856 0 0 1 16.022764,15.338211 L 10.994846,10.300235 5.966932,15.338211 A 0.4263354,0.42718856 0 0 1 5.36438,14.734456 l 5.329197,-5.3398558 a 0.4263354,0.42718856 0 0 1 0.602544,0 l 5.329197,5.3398558 a 0.4263354,0.42718856 0 0 1 -0.301278,0.729067 z"
       id="path4-3-62-7-1-4-3-3"
       style="fill:#ffffff;fill-opacity:1;stroke-width:0.142247;enable-background:new" />
    <path
       d="M 16.156099,8.4353027 H 5.824194 c -0.316846,0 -0.573995,-0.2095071 -0.573995,-0.4676506 C 5.250199,7.7095082 5.507348,7.5 5.824194,7.5 h 10.331905 c 0.316845,0 0.573994,0.2095082 0.573994,0.4676521 0,0.2581426 -0.257149,0.4676506 -0.573994,0.4676506 z"
       id="path2-91-0-8-7-6-5"
       style="fill:#ffffff;fill-opacity:1;stroke-width:0.259056;enable-background:new" />
  </g>
</svg>
