<?xml version="1.0" encoding="UTF-8" standalone="no"?>
<svg
   height="32"
   width="32"
   version="1.1"
   id="svg42"
   sodipodi:docname="preferences-desktop-cryptography.svg"
   inkscape:version="1.1.2 (0a00cf5339, 2022-02-04)"
   xmlns:inkscape="http://www.inkscape.org/namespaces/inkscape"
   xmlns:sodipodi="http://sodipodi.sourceforge.net/DTD/sodipodi-0.dtd"
   xmlns="http://www.w3.org/2000/svg"
   xmlns:svg="http://www.w3.org/2000/svg">
  <defs
     id="defs46" />
  <sodipodi:namedview
     id="namedview44"
     pagecolor="#ffffff"
     bordercolor="#666666"
     borderopacity="1.0"
     inkscape:pageshadow="2"
     inkscape:pageopacity="0.0"
     inkscape:pagecheckerboard="0"
     showgrid="true"
     inkscape:zoom="19.4375"
     inkscape:cx="16"
     inkscape:cy="15.974277"
     inkscape:window-width="1920"
     inkscape:window-height="1015"
     inkscape:window-x="0"
     inkscape:window-y="0"
     inkscape:window-maximized="1"
     inkscape:current-layer="svg42">
    <inkscape:grid
       type="xygrid"
       id="grid882" />
  </sodipodi:namedview>
  <linearGradient
     id="a"
     gradientTransform="matrix(.54545384 0 0 .53846154 177.71482 249.75292)"
     gradientUnits="userSpaceOnUse"
     x1="386.57101"
     x2="386.57101"
     y1="549.79797"
     y2="497.798">
    <stop
       offset="0"
       stop-color="#7f8c8d"
       id="stop2" />
    <stop
       offset="1"
       stop-color="#afb0b3"
       id="stop4" />
  </linearGradient>
  <linearGradient
     id="b"
     gradientUnits="userSpaceOnUse"
     x1="400.57144"
     x2="400.57144"
     y1="522.79797"
     y2="535.79797">
    <stop
       offset="0"
       stop-color="#da4453"
       id="stop7" />
    <stop
       offset="1"
       stop-color="#c72737"
       id="stop9" />
  </linearGradient>
  <linearGradient
     id="c"
     gradientUnits="userSpaceOnUse"
     x1="12"
     x2="26"
     y1="11"
     y2="25">
    <stop
       offset="0"
       stop-color="#292c2f"
       id="stop12" />
    <stop
       offset="1"
       stop-color="#292c2f"
       stop-opacity=".137755"
       id="stop14" />
  </linearGradient>
  <linearGradient
     id="d"
     gradientTransform="matrix(.55555494 0 0 .54843315 382.79368 514.4732)"
     gradientUnits="userSpaceOnUse"
     x1="12"
     x2="12"
     y1="48"
     y2="10">
    <stop
       offset="0"
       stop-color="#eef1f2"
       id="stop17" />
    <stop
       offset="1"
       stop-color="#f9fafb"
       id="stop19" />
  </linearGradient>
  <g
     transform="translate(-384.57143,-515.798)"
     id="g40">
    <path
       d="m 388.57143,520.798 c 0,-3 0,-3 3.01889,-3 h 17.86965 c 3.11146,0 3.11146,0 3.11146,3 v 22 c 0,3 0,3 -3.00732,3 h -17.9765 c -3.01618,0 -3.01618,0 -3.01618,-3 z"
       fill="url(#a)"
       stroke-width="0.541946"
       id="path22"
       sodipodi:nodetypes="ccccccccc" />
    <path
       d="m 391.57145,542.798 h 17.99998 v 3 h -17.99998 z"
       fill="#292c2e"
       stroke-width="0.984823"
       id="path26" />
    <path
       d="m 393.57143,543.798 h 9 v 1 h -9 z m 10,0 h 4 v 1 h -4 z"
       fill="#f6b44d"
       stroke-width="1.00639"
       id="path28" />
    <path
       d="m 395.57143,519.86245 c -2.76142,0 -5,2.20953 -5,4.93555 v 5 c 0.70597,0.62334 1.1102,1.56499 1.11133,2.5 -10e-4,0.93463 -0.40565,1.87691 -1.11133,2.5 v 3 l 3,3 h 14 l 3,-3 v -3 c -0.70568,-0.62309 -1.11033,-1.56537 -1.11133,-2.5 10e-4,-0.93501 0.40536,-1.87666 1.11133,-2.5 v -5 c 0,-2.72602 -2.23858,-4.93555 -5,-4.93555 z"
       fill="url(#d)"
       stroke-width="0.551983"
       id="path30" />
    <path
       d="M 16,7 V 7.00195 C 15.20468,7.00155 14.441736,7.3169832 13.878906,7.8789031 13.326676,8.4308563 13.01138,9.1763413 13,9.9570312 c 5.5e-4,0.0143 9.53e-4,0.028569 0.002,0.042969 H 13 v 3 h -2 v 7 l 7,7 H 28 V 17.75787 L 18.121094,7.8789062 Z"
       fill="url(#c)"
       opacity="0.2"
       transform="translate(384.57143,515.798)"
       id="path32" />
    <path
       d="m 391.57143,544.798 h 18 v 1 h -18 z"
       fill="#292c2f"
       opacity="0.4"
       stroke-width="0.639604"
       id="path34" />
    <path
       d="m 400.57143,522.798 c -1.662,0 -3,1.338 -3,3 v 3 h -2 v 7 h 10 v -7 h -2 v -3 c 0,-1.662 -1.338,-3 -3,-3 z m 0,1 c 1.2465,0 2,0.5458 2,2 v 3 h -4 v -3 c 0,-1.4542 0.75351,-2 2,-2 z"
       fill="url(#b)"
       id="path36" />
  </g>
</svg>
