<?xml version="1.0" encoding="UTF-8" standalone="no"?>
<svg
   width="86"
   height="86"
   version="1"
   id="svg46"
   sodipodi:docname="clock.svg"
   inkscape:version="1.2.1 (9c6d41e410, 2022-07-14)"
   xmlns:inkscape="http://www.inkscape.org/namespaces/inkscape"
   xmlns:sodipodi="http://sodipodi.sourceforge.net/DTD/sodipodi-0.dtd"
   xmlns="http://www.w3.org/2000/svg"
   xmlns:svg="http://www.w3.org/2000/svg"
   xmlns:rdf="http://www.w3.org/1999/02/22-rdf-syntax-ns#"
   xmlns:cc="http://creativecommons.org/ns#"
   xmlns:dc="http://purl.org/dc/elements/1.1/">
  <style
     id="current-color-scheme"
     type="text/css">.ColorScheme-Highlight { color:#6085ba; }
.ColorScheme-Text { color:#ffffff; }
.ColorScheme-Background { color:#1f222d; }
</style>
  <metadata
     id="metadata52">
    <rdf:RDF>
      <cc:Work
         rdf:about="">
        <dc:format>image/svg+xml</dc:format>
        <dc:type
           rdf:resource="http://purl.org/dc/dcmitype/StillImage" />
      </cc:Work>
    </rdf:RDF>
  </metadata>
  <defs
     id="defs50">
    <linearGradient
       id="linearGradient1199">
      <stop
         style="stop-color:#b4b4b4;stop-opacity:1;"
         offset="0"
         id="stop1195" />
      <stop
         style="stop-color:#ffffff;stop-opacity:1"
         offset="1"
         id="stop1197" />
    </linearGradient>
    <linearGradient
       id="linearGradient3815">
      <stop
         style="stop-color:#b4b4b4;stop-opacity:1;"
         offset="0"
         id="stop3817" />
      <stop
         style="stop-color:#fafafa;stop-opacity:1;"
         offset="1"
         id="stop3819" />
    </linearGradient>
  </defs>
  <sodipodi:namedview
     pagecolor="#ffffff"
     bordercolor="#000000"
     borderopacity="1"
     objecttolerance="10"
     gridtolerance="10"
     guidetolerance="10"
     inkscape:pageopacity="0"
     inkscape:pageshadow="2"
     inkscape:window-width="1920"
     inkscape:window-height="1002"
     id="namedview48"
     showgrid="false"
     inkscape:zoom="5.1635239"
     inkscape:cx="35.537746"
     inkscape:cy="56.937859"
     inkscape:window-x="0"
     inkscape:window-y="0"
     inkscape:window-maximized="1"
     inkscape:current-layer="svg46"
     inkscape:document-rotation="0"
     inkscape:showpageshadow="true"
     inkscape:lockguides="true"
     inkscape:snap-intersection-paths="true"
     inkscape:pagecheckerboard="0"
     inkscape:deskcolor="#d1d1d1">
    <inkscape:grid
       type="xygrid"
       id="grid1134" />
  </sodipodi:namedview>
  <g
     id="MinuteHand"
     transform="translate(-53.5)">
    <path
       style="opacity:0.00100002"
       d="m 39.5,39.5 h 7 V 86 h -7 z"
       id="path25" />
    <path
       style="stroke-width:0.972161;fill-opacity:1;fill:currentColor;opacity:1;"
       d="m 43.579,41.978676 -0.01066,29.292591 c 0,0 -0.03759,0.706829 -0.614156,0.706829 -0.576563,0 -0.588184,-0.707408 -0.588184,-0.707408 l 0.01066,-29.292592 z"
       id="path27"
       class="ColorScheme-Text" />
    <circle
       style="fill-opacity:1;fill:currentColor;opacity:1;"
       cx="15.554"
       cy="-58.731998"
       r="1.835"
       transform="rotate(120.21865)"
       id="circle29"
       class="ColorScheme-Highlight" />
  </g>
  <g
     id="SecondHand"
     transform="translate(-46.5)">
    <path
       style="opacity:0.00100002"
       d="m 39.5,39.5 h 7 V 86 h -7 z"
       id="path32" />
    <path
       style="fill-opacity:1;fill:currentColor;"
       d="m 42.483496,44.037905 c -0.46273,-0.267603 -0.62092,-0.859662 -0.35332,-1.322395 0.2676,-0.462746 0.85966,-0.620935 1.3224,-0.353332 0.46274,0.267603 0.62093,0.859662 0.35332,1.322408 -0.2676,0.462733 -0.85966,0.620922 -1.3224,0.353319 z"
       id="path34"
       class="ColorScheme-Highlight" />
    <path
       style="stroke-width:0.947552;fill-opacity:1;fill:currentColor;opacity:1;"
       d="m 43.42,42.631836 -4.73e-4,33.598709 c 0,0 0.03162,0.40075 -0.420527,0.40075 -0.452146,0 -0.445523,-0.401328 -0.445523,-0.401328 L 42.553,42.631295 Z"
       id="path36"
       sodipodi:nodetypes="ccsccc"
       class="ColorScheme-Highlight" />
  </g>
  <g
     id="HourHand"
     transform="translate(-60.5)">
    <path
       style="opacity:0.00100002"
       d="m 39.5,39.499996 h 7 V 86 h -7 z"
       id="path39" />
    <path
       style="stroke-width:0.849726;fill-opacity:1;fill:currentColor;opacity:1;"
       d="m 41.951506,62.448878 c 0,0 -0.07224,1.751122 0.7839,1.751122 0.856002,0 0.761503,-1.751122 0.761503,-1.751122 V 42 h -1.545403 z"
       id="path41"
       sodipodi:nodetypes="cscccc"
       class="ColorScheme-Text" />
    <circle
       style="opacity:0.01;fill:#f1f2f3;fill-opacity:1;stroke-width:0.923075"
       cx="-60.020153"
       cy="8.3588982"
       transform="rotate(-126.87095)"
       id="circle43"
       r="3" />
  </g>
  <g
     id="g1576">
    <g
       id="g1500">
      <g
         id="g1425">
        <g
           id="g6319">
          <g
             id="ClockFace">
            <rect
               style="opacity:0.00100002"
               width="86"
               height="86"
               x="0"
               y="0"
               id="rect2" />
            <path
               style="opacity:0.03"
               d="M 43,5.5 C 63.775,5.5 80.5,22.225 80.5,43 80.5,63.775 63.775,80.5 43,80.5 22.225,80.5 5.5,63.775 5.5,43 5.5,22.225 22.225,5.5 43,5.5 Z m 0,0 C 21.671,5.5 4.5,22.671 4.5,44 4.5,65.329 21.671,82.5 43,82.5 64.329,82.5 81.5,65.329 81.5,44 81.5,22.671 64.329,5.5 43,5.5 Z"
               id="path4" />
            <path
               style="opacity:0.03"
               d="M 17.678711,15.297852 C 9.7454975,22.296477 4.75,32.540636 4.75,44 4.75,65.1905 21.8095,82.25 43,82.25 64.1905,82.25 81.25,65.1905 81.25,44 81.25,32.540636 76.2545,22.296477 68.32129,15.297852 75.812555,22.145196 80.5,32.004201 80.5,43 80.5,63.775 63.775,80.5 43,80.5 22.225,80.5 5.5,63.775 5.5,43 5.5,32.004201 10.187445,22.145196 17.678711,15.297852 Z"
               id="path6" />
            <path
               style="opacity:0.03"
               d="M 10.513672,24.223633 C 7.0137655,29.978085 5,36.745062 5,44 5,65.052 21.948,82 43,82 64.052,82 81,65.052 81,44 81,36.745062 78.986235,29.978085 75.48633,24.223633 78.67125,29.740354 80.5,36.146894 80.5,43 80.5,63.775 63.775,80.5 43,80.5 22.225,80.5 5.5,63.775 5.5,43 5.5,36.146894 7.328751,29.740354 10.513672,24.223633 Z"
               id="path8" />
            <path
               style="opacity:0.03"
               d="M 6.5771485,34.038086 C 5.71711,37.21054 5.25,40.54801 5.25,44 5.25,64.9135 22.0865,81.75 43,81.75 63.9135,81.75 80.75,64.9135 80.75,44 80.75,40.54801 80.28289,37.21054 79.42285,34.038086 80.121965,36.908768 80.5,39.908127 80.5,43 80.5,63.775 63.775,80.5 43,80.5 22.225,80.5 5.5,63.775 5.5,43 c 0,-3.091873 0.378034,-6.091233 1.0771485,-8.961914 z"
               id="path10" />
            <path
               style="opacity:0.03"
               d="M 7.6152345,30.535156 C 6.0880255,34.645049 5.25,39.095576 5.25,43.75 5.25,64.6635 22.0865,81.5 43,81.5 63.9135,81.5 80.75,64.6635 80.75,43.75 80.75,39.095576 79.911975,34.645049 78.384765,30.535156 79.74997,34.432738 80.5,38.624769 80.5,43 80.5,63.775 63.775,80.5 43,80.5 22.225,80.5 5.5,63.775 5.5,43 5.5,38.624769 6.2500305,34.432738 7.6152345,30.535156 Z"
               id="path12" />
            <path
               style="opacity:0.03"
               d="M 10.713867,23.875 C 7.2450465,29.586946 5.25,36.301828 5.25,43.5 5.25,64.4135 22.0865,81.25 43,81.25 63.9135,81.25 80.75,64.4135 80.75,43.5 80.75,36.301828 78.754955,29.586946 75.286135,23.875 78.59647,29.469083 80.5,36.002744 80.5,43 80.5,63.775 63.775,80.5 43,80.5 22.225,80.5 5.5,63.775 5.5,43 5.5,36.002744 7.403529,29.469083 10.713867,23.875 Z"
               id="path14" />
            <path
               style="opacity:0.03"
               d="M 41.051758,5.548828 C 21.050725,6.5561545 5.25,22.990047 5.25,43.25 5.25,64.1635 22.0865,81 43,81 63.9135,81 80.75,64.1635 80.75,43.25 80.75,22.985791 64.942545,6.549883 44.935547,5.548828 64.80412,6.5494835 80.5,22.874219 80.5,43 80.5,63.775 63.775,80.5 43,80.5 22.225,80.5 5.5,63.775 5.5,43 5.5,22.874219 21.195878,6.5494835 41.064453,5.548828 c -0.0042,2.105e-4 -0.0085,-2.115e-4 -0.0127,0 z"
               id="path16" />
            <path
               style="opacity:0.03"
               d="M 43,5.25 C 22.0865,5.25 5.25,22.0865 5.25,43 5.25,63.9135 22.0865,80.75 43,80.75 63.9135,80.75 80.75,63.9135 80.75,43 80.75,22.0865 63.9135,5.25 43,5.25 Z M 43,5.5 C 63.775,5.5 80.5,22.225 80.5,43 80.5,63.775 63.775,80.5 43,80.5 22.225,80.5 5.5,63.775 5.5,43 5.5,22.225 22.225,5.5 43,5.5 Z"
               id="path18" />
            <rect
               style="opacity:0.9;fill:currentColor;fill-opacity:1"
               width="75.5"
               height="75.5"
               x="-80.699997"
               y="-80.5"
               rx="37.5"
               ry="37.75"
               transform="matrix(0,-1,-1,0,0,0)"
               id="rect20"
               class="ColorScheme-Background" />
            <rect
               y="70.705124"
               x="-44.13929"
               height="5.0894694"
               width="2.0577474"
               id="rect4655-3"
               style="fill:currentColor;fill-opacity:1;stroke:#6085ba;stroke-width:0.276861;stroke-opacity:1"
               ry="1.0005463"
               transform="rotate(-90)"
               rx="1.0005463"
               class="ColorScheme-Highlight" />
            <rect
               y="-48.939388"
               x="57.572636"
               height="3.1412961"
               width="2.1141376"
               id="rect4392-6"
               style="fill:currentColor;fill-opacity:1;stroke:#ffffff;stroke-width:0.22047;stroke-opacity:1"
               ry="1.0005463"
               transform="rotate(59.999999)"
               rx="1.0005463"
               class="ColorScheme-Text" />
            <rect
               transform="rotate(59.999999)"
               ry="1.0005463"
               style="fill:currentColor;fill-opacity:1;stroke:#ffffff;stroke-width:0.22047;stroke-opacity:1"
               id="rect4394-0"
               width="2.1141376"
               height="3.1412964"
               x="57.572636"
               y="14.698833"
               rx="1.0005463"
               class="ColorScheme-Text" />
            <rect
               rx="1.0005463"
               transform="rotate(29.999999)"
               ry="1.0005463"
               style="fill:currentColor;fill-opacity:1;stroke:#ffffff;stroke-width:0.22047;stroke-opacity:1"
               id="rect4408-6"
               width="2.1141376"
               height="3.1412959"
               x="57.492554"
               y="-17.541283"
               class="ColorScheme-Text" />
            <rect
               rx="1.0005463"
               y="46.096943"
               x="57.492554"
               height="3.1412964"
               width="2.1141376"
               id="rect4410-2"
               style="fill:currentColor;fill-opacity:1;stroke:#ffffff;stroke-width:0.22047;stroke-opacity:1"
               ry="1.0005463"
               transform="rotate(29.999999)"
               class="ColorScheme-Text" />
            <rect
               y="-76.361572"
               x="-43.810097"
               height="5.0894694"
               width="2.0577474"
               id="rect4657-6"
               style="fill:currentColor;fill-opacity:1;stroke:#6085ba;stroke-width:0.276861;stroke-opacity:1"
               ry="1.0005463"
               transform="scale(-1)"
               rx="1.0005463"
               class="ColorScheme-Highlight" />
            <rect
               transform="rotate(-90)"
               ry="1.0005463"
               style="fill:currentColor;fill-opacity:1;stroke:#6085ba;stroke-width:0.276861;stroke-opacity:1"
               id="rect4653-1"
               width="2.0577474"
               height="5.0894694"
               x="-44.13929"
               y="9.6384258"
               rx="1.0005463"
               class="ColorScheme-Highlight" />
            <rect
               transform="scale(-1)"
               ry="1.0005463"
               style="fill:currentColor;fill-opacity:1;stroke:#6085ba;stroke-width:0.276861;stroke-opacity:1"
               id="rect4659-8"
               width="2.0577474"
               height="5.0894699"
               x="-43.810097"
               y="-14.727901"
               rx="1.0005463"
               class="ColorScheme-Highlight" />
            <rect
               y="-92.019463"
               x="-16.606695"
               height="3.1412959"
               width="2.1141376"
               id="rect4356-7"
               style="fill:currentColor;fill-opacity:1;stroke:#ffffff;stroke-width:0.22047;stroke-opacity:1"
               ry="1.0005463"
               transform="rotate(150)"
               rx="1.0005463"
               class="ColorScheme-Text" />
            <rect
               transform="rotate(150)"
               ry="1.0005463"
               style="fill:currentColor;fill-opacity:1;stroke:#ffffff;stroke-width:0.22047;stroke-opacity:1"
               id="rect4358-9"
               width="2.1141376"
               height="3.1412964"
               x="-16.606695"
               y="-28.381231"
               rx="1.0005463"
               class="ColorScheme-Text" />
            <rect
               rx="1.0005463"
               transform="rotate(120)"
               ry="1.0005463"
               style="fill:currentColor;fill-opacity:1;stroke:#ffffff;stroke-width:0.22047;stroke-opacity:1"
               id="rect4376-2"
               width="2.1141376"
               height="3.1412959"
               x="14.791409"
               y="-91.939392"
               class="ColorScheme-Text" />
            <rect
               rx="1.0005463"
               y="-28.301163"
               x="14.791409"
               height="3.1412964"
               width="2.1141376"
               id="rect4378-0"
               style="fill:currentColor;fill-opacity:1;stroke:#fefefe;stroke-width:0.22047;stroke-opacity:1"
               ry="1.0005463"
               transform="rotate(120)"
               class="ColorScheme-Text" />
            <circle
               transform="rotate(-5.9999995)"
               id="path4424-2"
               style="stroke-width:0.184118;stroke:none;fill-rule:nonzero;fill-opacity:1;fill:currentColor;opacity:0.4;"
               cx="38.052799"
               cy="14.445452"
               r="0.66703093"
               class="ColorScheme-Text" />
            <circle
               style="stroke-width:0.184118;stroke:none;fill-rule:nonzero;fill-opacity:1;fill:currentColor;opacity:0.4;"
               id="path4426-3"
               transform="rotate(-5.9999995)"
               cx="38.052799"
               cy="80.014587"
               r="0.66703093"
               class="ColorScheme-Text" />
            <circle
               style="stroke-width:0.184118;stroke:none;fill-rule:nonzero;fill-opacity:1;fill:currentColor;opacity:0.4;"
               id="path4464-7"
               transform="rotate(-11.999999)"
               cx="32.907459"
               cy="18.16432"
               r="0.66703087"
               class="ColorScheme-Text" />
            <circle
               transform="rotate(-11.999999)"
               id="path4466-5"
               style="stroke-width:0.184118;stroke:none;fill-rule:nonzero;fill-opacity:1;fill:currentColor;opacity:0.4;"
               cx="32.907459"
               cy="83.733459"
               r="0.66703087"
               class="ColorScheme-Text" />
            <circle
               transform="rotate(-18)"
               id="path4470-9"
               style="stroke-width:0.184118;stroke:none;fill-rule:nonzero;fill-opacity:1;fill:currentColor;opacity:0.4;"
               cx="27.401581"
               cy="21.324984"
               r="0.66703093"
               class="ColorScheme-Text" />
            <circle
               style="stroke-width:0.184118;stroke:none;fill-rule:nonzero;fill-opacity:1;fill:currentColor;opacity:0.4;"
               id="path4472-2"
               transform="rotate(-18)"
               cx="27.401579"
               cy="86.894119"
               r="0.66703093"
               class="ColorScheme-Text" />
            <circle
               style="stroke-width:0.184118;stroke:none;fill-rule:nonzero;fill-opacity:1;fill:currentColor;opacity:0.4;"
               id="path4476-2"
               transform="rotate(-23.999999)"
               cx="21.595486"
               cy="23.892811"
               r="0.66703087"
               class="ColorScheme-Text" />
            <circle
               transform="rotate(-23.999999)"
               id="path4478-8"
               style="stroke-width:0.184118;stroke:none;fill-rule:nonzero;fill-opacity:1;fill:currentColor;opacity:0.4;"
               cx="21.595484"
               cy="89.461952"
               r="0.66703087"
               class="ColorScheme-Text" />
            <ellipse
               transform="rotate(-35.999998)"
               id="path4482-9"
               style="stroke-width:0.184118;stroke:none;fill-rule:nonzero;fill-opacity:1;fill:currentColor;opacity:0.4;"
               cx="9.3396797"
               cy="27.144228"
               rx="0.66703087"
               ry="0.66703093"
               class="ColorScheme-Text" />
            <ellipse
               style="stroke-width:0.184118;stroke:none;fill-rule:nonzero;fill-opacity:1;fill:currentColor;opacity:0.4;"
               id="path4484-7"
               transform="rotate(-35.999998)"
               cx="9.3396816"
               cy="92.713364"
               rx="0.66703087"
               ry="0.66703093"
               class="ColorScheme-Text" />
            <ellipse
               style="stroke-width:0.184118;stroke:none;fill-rule:nonzero;fill-opacity:1;fill:currentColor;opacity:0.4;"
               id="path4488-3"
               transform="rotate(-42)"
               cx="3.024251"
               cy="27.792192"
               rx="0.66703087"
               ry="0.66703093"
               class="ColorScheme-Text" />
            <ellipse
               transform="rotate(-42)"
               id="path4490-6"
               style="stroke-width:0.184118;stroke:none;fill-rule:nonzero;fill-opacity:1;fill:currentColor;opacity:0.4;"
               cx="3.0242522"
               cy="93.361328"
               rx="0.66703087"
               ry="0.66703093"
               class="ColorScheme-Text" />
            <ellipse
               transform="rotate(-48)"
               id="path4494-1"
               style="stroke-width:0.184118;stroke:none;fill-rule:nonzero;fill-opacity:1;fill:currentColor;opacity:0.4;"
               cx="-3.324312"
               cy="27.776468"
               rx="0.66703087"
               ry="0.66703093"
               class="ColorScheme-Text" />
            <ellipse
               style="stroke-width:0.184118;stroke:none;fill-rule:nonzero;fill-opacity:1;fill:currentColor;opacity:0.4;"
               id="path4496-2"
               transform="rotate(-48)"
               cx="-3.3243122"
               cy="93.345604"
               rx="0.66703087"
               ry="0.66703093"
               class="ColorScheme-Text" />
            <ellipse
               style="stroke-width:0.184118;stroke:none;fill-rule:nonzero;fill-opacity:1;fill:currentColor;opacity:0.4;"
               id="path4500-9"
               transform="rotate(-53.999999)"
               cx="-9.6364517"
               cy="27.097223"
               rx="0.66703093"
               ry="0.66703087"
               class="ColorScheme-Text" />
            <ellipse
               transform="rotate(-53.999999)"
               id="path4502-3"
               style="stroke-width:0.184118;stroke:none;fill-rule:nonzero;fill-opacity:1;fill:currentColor;opacity:0.4;"
               cx="-9.6364508"
               cy="92.666359"
               rx="0.66703093"
               ry="0.66703087"
               class="ColorScheme-Text" />
            <circle
               transform="rotate(-65.999999)"
               id="path4506-1"
               style="stroke-width:0.184118;stroke:none;fill-rule:nonzero;fill-opacity:1;fill:currentColor;opacity:0.4;"
               cx="-21.875994"
               cy="23.785133"
               r="0.66703093"
               class="ColorScheme-Text" />
            <circle
               style="stroke-width:0.184118;stroke:none;fill-rule:nonzero;fill-opacity:1;fill:currentColor;opacity:0.4;"
               id="path4508-9"
               transform="rotate(-65.999999)"
               cx="-21.875992"
               cy="89.354271"
               r="0.66703093"
               class="ColorScheme-Text" />
            <circle
               style="stroke-width:0.184118;stroke:none;fill-rule:nonzero;fill-opacity:1;fill:currentColor;opacity:0.4;"
               id="path4512-4"
               transform="rotate(-72)"
               cx="-27.6693"
               cy="21.188572"
               r="0.66703093"
               class="ColorScheme-Text" />
            <circle
               transform="rotate(-72)"
               id="path4514-7"
               style="stroke-width:0.184118;stroke:none;fill-rule:nonzero;fill-opacity:1;fill:currentColor;opacity:0.4;"
               cx="-27.669304"
               cy="86.757713"
               r="0.66703093"
               class="ColorScheme-Text" />
            <circle
               transform="rotate(-77.999999)"
               id="path4518-8"
               style="stroke-width:0.184118;stroke:none;fill-rule:nonzero;fill-opacity:1;fill:currentColor;opacity:0.4;"
               cx="-33.159454"
               cy="18.000673"
               r="0.66703093"
               class="ColorScheme-Text" />
            <circle
               style="stroke-width:0.184118;stroke:none;fill-rule:nonzero;fill-opacity:1;fill:currentColor;opacity:0.4;"
               id="path4520-4"
               transform="rotate(-77.999999)"
               cx="-33.159454"
               cy="83.569809"
               r="0.66703093"
               class="ColorScheme-Text" />
            <circle
               style="stroke-width:0.184118;stroke:none;fill-rule:nonzero;fill-opacity:1;fill:currentColor;opacity:0.4;"
               id="path4524-5"
               transform="rotate(-84)"
               cx="-38.286308"
               cy="14.256359"
               r="0.66703093"
               class="ColorScheme-Text" />
            <circle
               transform="rotate(-84)"
               id="path4526-0"
               style="stroke-width:0.184118;stroke:none;fill-rule:nonzero;fill-opacity:1;fill:currentColor;opacity:0.4;"
               cx="-38.286308"
               cy="79.825493"
               r="0.66703093"
               class="ColorScheme-Text" />
            <circle
               transform="rotate(-96)"
               id="path4530-3"
               style="stroke-width:0.184118;stroke:none;fill-rule:nonzero;fill-opacity:1;fill:currentColor;opacity:0.4;"
               cx="-47.230019"
               cy="5.2682295"
               r="0.66703093"
               class="ColorScheme-Text" />
            <circle
               style="stroke-width:0.184118;stroke:none;fill-rule:nonzero;fill-opacity:1;fill:currentColor;opacity:0.4;"
               id="path4532-6"
               transform="rotate(-96)"
               cx="-47.230022"
               cy="70.837364"
               r="0.66703093"
               class="ColorScheme-Text" />
            <circle
               style="stroke-width:0.184118;stroke:none;fill-rule:nonzero;fill-opacity:1;fill:currentColor;opacity:0.4;"
               id="path4536-1"
               transform="rotate(-102)"
               cx="-50.948891"
               cy="0.1228913"
               r="0.66703087"
               class="ColorScheme-Text" />
            <circle
               transform="rotate(-102)"
               id="path4538-0"
               style="stroke-width:0.184118;stroke:none;fill-rule:nonzero;fill-opacity:1;fill:currentColor;opacity:0.4;"
               cx="-50.948891"
               cy="65.692024"
               r="0.66703087"
               class="ColorScheme-Text" />
            <circle
               transform="rotate(-108)"
               id="path4542-6"
               style="stroke-width:0.184118;stroke:none;fill-rule:nonzero;fill-opacity:1;fill:currentColor;opacity:0.4;"
               cx="-54.109554"
               cy="-5.3829885"
               r="0.66703093"
               class="ColorScheme-Text" />
            <circle
               style="stroke-width:0.184118;stroke:none;fill-rule:nonzero;fill-opacity:1;fill:currentColor;opacity:0.4;"
               id="path4544-3"
               transform="rotate(-108)"
               cx="-54.109554"
               cy="60.18615"
               r="0.66703093"
               class="ColorScheme-Text" />
            <circle
               style="stroke-width:0.184118;stroke:none;fill-rule:nonzero;fill-opacity:1;fill:currentColor;opacity:0.4;"
               id="path4548-2"
               transform="rotate(-114)"
               cx="-56.67738"
               cy="-11.189084"
               r="0.66703087"
               class="ColorScheme-Text" />
            <circle
               transform="rotate(-114)"
               id="path4550-0"
               style="opacity:0.4;fill:currentColor;fill-opacity:1;fill-rule:nonzero;stroke:none;stroke-width:0.184118"
               cx="-56.67738"
               cy="54.380054"
               r="0.66703087"
               class="ColorScheme-Text" />
            <ellipse
               transform="rotate(-126)"
               id="path4554-6"
               style="stroke-width:0.184118;stroke:none;fill-rule:nonzero;fill-opacity:1;fill:currentColor;opacity:0.4;"
               cx="-59.928795"
               cy="-23.444885"
               rx="0.66703087"
               ry="0.66703093"
               class="ColorScheme-Text" />
            <ellipse
               style="opacity:0.4;fill:currentColor;fill-opacity:1;fill-rule:nonzero;stroke:none;stroke-width:0.184118"
               id="path4556-1"
               transform="rotate(-126)"
               cx="-59.928791"
               cy="42.124249"
               rx="0.66703087"
               ry="0.66703093"
               class="ColorScheme-Text" />
            <ellipse
               style="stroke-width:0.184118;stroke:none;fill-rule:nonzero;fill-opacity:1;fill:currentColor;opacity:0.4;"
               id="path4560-5"
               transform="rotate(-132)"
               cx="-60.576763"
               cy="-29.760317"
               rx="0.66703087"
               ry="0.66703093"
               class="ColorScheme-Text" />
            <ellipse
               transform="rotate(-132)"
               id="path4562-5"
               style="opacity:0.4;fill:currentColor;fill-opacity:1;fill-rule:nonzero;stroke:none;stroke-width:0.184118"
               cx="-60.576763"
               cy="35.808819"
               rx="0.66703087"
               ry="0.66703093"
               class="ColorScheme-Text" />
            <ellipse
               transform="rotate(-138)"
               id="path4566-4"
               style="stroke-width:0.184118;stroke:none;fill-rule:nonzero;fill-opacity:1;fill:currentColor;opacity:0.4;"
               cx="-60.561039"
               cy="-36.108879"
               rx="0.66703087"
               ry="0.66703093"
               class="ColorScheme-Text" />
            <ellipse
               style="opacity:0.4;fill:currentColor;fill-opacity:1;fill-rule:nonzero;stroke:none;stroke-width:0.184118"
               id="path4568-7"
               transform="rotate(-138)"
               cx="-60.561039"
               cy="29.460257"
               rx="0.66703087"
               ry="0.66703093"
               class="ColorScheme-Text" />
            <ellipse
               style="stroke-width:0.184118;stroke:none;fill-rule:nonzero;fill-opacity:1;fill:currentColor;opacity:0.4;"
               id="path4572-6"
               transform="rotate(-144)"
               cx="-59.881794"
               cy="-42.421024"
               rx="0.66703093"
               ry="0.66703087"
               class="ColorScheme-Text" />
            <ellipse
               transform="rotate(-144)"
               id="path4574-5"
               style="opacity:0.4;fill:currentColor;fill-opacity:1;fill-rule:nonzero;stroke:none;stroke-width:0.184118"
               cx="-59.881794"
               cy="23.148115"
               rx="0.66703093"
               ry="0.66703087"
               class="ColorScheme-Text" />
            <circle
               transform="rotate(-156)"
               id="path4578-6"
               style="stroke-width:0.184118;stroke:none;fill-rule:nonzero;fill-opacity:1;fill:currentColor;opacity:0.4;"
               cx="-56.569698"
               cy="-54.660568"
               r="0.66703093"
               class="ColorScheme-Text" />
            <circle
               style="opacity:0.4;fill:currentColor;fill-opacity:1;fill-rule:nonzero;stroke:none;stroke-width:0.184118"
               id="path4580-9"
               transform="rotate(-156)"
               cx="-56.569698"
               cy="10.908568"
               r="0.66703093"
               class="ColorScheme-Text" />
            <circle
               style="stroke-width:0.184118;stroke:none;fill-rule:nonzero;fill-opacity:1;fill:currentColor;opacity:0.4;"
               id="path4584-3"
               transform="rotate(-162)"
               cx="-53.973141"
               cy="-60.453876"
               r="0.66703093"
               class="ColorScheme-Text" />
            <circle
               transform="rotate(-162)"
               id="path4586-7"
               style="opacity:0.4;fill:currentColor;fill-opacity:1;fill-rule:nonzero;stroke:none;stroke-width:0.184118"
               cx="-53.973141"
               cy="5.1152625"
               r="0.66703093"
               class="ColorScheme-Text" />
            <circle
               transform="rotate(-168)"
               id="path4590-4"
               style="stroke-width:0.184118;stroke:none;fill-rule:nonzero;fill-opacity:1;fill:currentColor;opacity:0.4;"
               cx="-50.785236"
               cy="-65.944031"
               r="0.66703093"
               class="ColorScheme-Text" />
            <circle
               style="opacity:0.4;fill:currentColor;fill-opacity:1;fill-rule:nonzero;stroke:none;stroke-width:0.184118"
               id="path4592-5"
               transform="rotate(-168)"
               cx="-50.78524"
               cy="-0.37489101"
               r="0.66703093"
               class="ColorScheme-Text" />
            <circle
               style="stroke-width:0.184118;stroke:none;fill-rule:nonzero;fill-opacity:1;fill:currentColor;opacity:0.4;"
               id="path4596-2"
               transform="rotate(-174)"
               cx="-47.040928"
               cy="-71.070877"
               r="0.66703093"
               class="ColorScheme-Text" />
            <circle
               transform="rotate(-174)"
               id="path4598-5"
               style="opacity:0.4;fill:currentColor;fill-opacity:1;fill-rule:nonzero;stroke:none;stroke-width:0.184118"
               cx="-47.040924"
               cy="-5.5017438"
               r="0.66703093"
               class="ColorScheme-Text" />
          </g>
        </g>
      </g>
    </g>
  </g>
</svg>
