<?xml version="1.0" encoding="UTF-8" standalone="no"?>
<svg
   width="38"
   height="114"
   version="1.1"
   id="svg140"
   sodipodi:docname="menubaritem.svg"
   inkscape:version="1.1.2 (0a00cf5339, 2022-02-04)"
   xmlns:inkscape="http://www.inkscape.org/namespaces/inkscape"
   xmlns:sodipodi="http://sodipodi.sourceforge.net/DTD/sodipodi-0.dtd"
   xmlns="http://www.w3.org/2000/svg"
   xmlns:svg="http://www.w3.org/2000/svg">
  <sodipodi:namedview
     id="namedview142"
     pagecolor="#ffffff"
     bordercolor="#000000"
     borderopacity="1"
     inkscape:pageshadow="2"
     inkscape:pageopacity="0"
     inkscape:pagecheckerboard="0"
     showgrid="false"
     inkscape:showpageshadow="false"
     inkscape:zoom="4.2669041"
     inkscape:cx="25.311091"
     inkscape:cy="49.09883"
     inkscape:window-width="1920"
     inkscape:window-height="1013"
     inkscape:window-x="0"
     inkscape:window-y="0"
     inkscape:window-maximized="1"
     inkscape:current-layer="svg140"
     inkscape:lockguides="true">
    <inkscape:grid
       type="xygrid"
       id="grid1509" />
  </sodipodi:namedview>
  <defs
     id="1987">
    <style
       id="current-color-scheme"
       type="text/css">.ColorScheme-Text { stop-color:#20212b;    color:#20212b; }
</style>
  </defs>
  <path
     id="normal-center"
     fill="transparent"
     d="M 30,6 V 28 H 8 V 6 Z" />
  <g
     id="normal-left"
     transform="translate(2)">
    <path
       style="opacity:0.00100002"
       d="M 0,6 H 6 V 28 H 0 Z"
       id="path46" />
    <path
       fill="transparent"
       d="M 2,6 H 6 V 28 H 2 Z"
       id="path48" />
  </g>
  <g
     id="normal-topleft"
     transform="translate(2)">
    <path
       style="opacity:0.00100002"
       d="M 0,0 H 6 V 6 H 0 Z"
       id="path51" />
    <path
       fill="transparent"
       d="M 6,2 V 6 H 2 C 2,2 6,2 6,2 Z"
       id="path53" />
  </g>
  <g
     id="normal-right"
     transform="translate(2)">
    <path
       style="opacity:0.00100002"
       d="m 28,6 h 6 v 22 h -6 z"
       id="path56" />
    <path
       fill="transparent"
       d="m 28,6 h 4 v 22 h -4 z"
       id="path58" />
  </g>
  <g
     id="normal-top"
     transform="translate(2)">
    <path
       style="opacity:0.00100002"
       d="M 28,0 V 6 H 6 V 0 Z"
       id="path61" />
    <path
       fill="transparent"
       d="M 28,2 V 6 H 6 V 2 Z"
       id="path63" />
  </g>
  <g
     id="normal-bottom"
     transform="translate(2)">
    <path
       style="opacity:0.00100002"
       d="m 28,28 v 6 H 6 v -6 z"
       id="path66" />
    <path
       fill="transparent"
       d="m 28,28 v 4 H 6 v -4 z"
       id="path68" />
  </g>
  <g
     id="normal-bottomright"
     transform="translate(2)">
    <path
       style="opacity:0.00100002"
       d="m 28,28 h 6 v 6 h -6 z"
       id="path71" />
    <path
       fill="transparent"
       d="m 28,32 v -4 h 4 c 0,4 -4,4 -4,4 z"
       id="path73" />
  </g>
  <g
     id="normal-topright"
     transform="translate(2)">
    <path
       style="opacity:0.00100002"
       d="m 28,0 h 6 v 6 h -6 z"
       id="path76" />
    <path
       fill="transparent"
       d="m 28,2 v 4 h 4 C 32,2 28,2 28,2 Z"
       id="path78" />
  </g>
  <g
     id="normal-bottomleft"
     transform="translate(2)">
    <path
       style="opacity:0.00100002"
       d="m 0,28 h 6 v 6 H 0 Z"
       id="path81" />
    <path
       fill="transparent"
       d="M 6,32 V 28 H 2 c 0,4 4,4 4,4 z"
       id="path83" />
  </g>
  <path
     id="pressed-center"
     style="fill-opacity:0.3019608;fill:currentColor;opacity:1;"
     class="ColorScheme-Text"
     d="m 30,86 v 22.00001 H 8 V 86 Z" />
  <g
     id="pressed-left"
     transform="translate(2,80)"
     style="opacity:1">
    <path
       style="opacity:0.00100002"
       d="M 0,6 H 6 V 28 H 0 Z"
       id="path87" />
    <path
       style="fill-opacity:0.3019608;fill:currentColor;opacity:1;"
       class="ColorScheme-Text"
       d="M 2,6 H 6 V 28 H 2 Z"
       id="path89" />
  </g>
  <g
     id="pressed-topleft"
     transform="translate(2,80)"
     style="opacity:1">
    <path
       style="opacity:0.00100002"
       d="M 0,0 H 6 V 6 H 0 Z"
       id="path92" />
    <path
       style="fill-opacity:0.30000001;fill:currentColor;opacity:1;"
       class="ColorScheme-Text"
       d="M 6,2 V 6 H 2 C 2,2 6,2 6,2 Z"
       id="path94" />
  </g>
  <g
     id="pressed-right"
     transform="translate(2,80)"
     style="opacity:1">
    <path
       style="opacity:0.00100002"
       d="m 28,6 h 6 v 22 h -6 z"
       id="path97" />
    <path
       style="fill-opacity:0.3019608;fill:currentColor;opacity:1;"
       class="ColorScheme-Text"
       d="m 28,6 h 4 v 22 h -4 z"
       id="path99" />
  </g>
  <g
     id="pressed-top"
     transform="translate(2,80)"
     style="opacity:1">
    <path
       style="opacity:0.00100002"
       d="M 28,0 V 6 H 6 V 0 Z"
       id="path102" />
    <path
       style="fill-opacity:0.3019608;fill:currentColor;opacity:1;"
       class="ColorScheme-Text"
       d="M 28,2 V 6 H 6 V 2 Z"
       id="path104" />
  </g>
  <g
     id="pressed-bottom"
     transform="translate(2,80)"
     style="opacity:1">
    <path
       style="opacity:0.00100002"
       d="m 28,28 v 6 H 6 v -6 z"
       id="path107" />
    <path
       style="fill-opacity:0.3019608;fill:currentColor;opacity:1;"
       class="ColorScheme-Text"
       d="m 28,28 v 4 H 6 v -4 z"
       id="path109" />
  </g>
  <g
     id="pressed-bottomright"
     transform="translate(2,80)"
     style="opacity:1">
    <path
       style="opacity:0.00100002"
       d="m 28,28 h 6 v 6 h -6 z"
       id="path112" />
    <path
       style="fill-opacity:0.3019608;fill:currentColor;opacity:1;"
       class="ColorScheme-Text"
       d="m 28,32 v -4 h 4 c 0,4 -4,4 -4,4 z"
       id="path114" />
  </g>
  <g
     id="pressed-topright"
     transform="translate(2,80)"
     style="opacity:1">
    <path
       style="opacity:0.00100002"
       d="m 28,0 h 6 v 6 h -6 z"
       id="path117" />
    <path
       style="fill-opacity:0.3019608;fill:currentColor;opacity:1;"
       class="ColorScheme-Text"
       d="m 28,2 v 4 h 4 C 32,2 28,2 28,2 Z"
       id="path119" />
  </g>
  <g
     id="pressed-bottomleft"
     transform="translate(2,80)"
     style="opacity:1">
    <path
       style="opacity:0.00100002"
       d="m 0,28 h 6 v 6 H 0 Z"
       id="path122" />
    <path
       style="fill-opacity:0.3019608;fill:currentColor;opacity:1;"
       class="ColorScheme-Text"
       d="M 6,32 V 28 H 2 c 0,4 4,4 4,4 z"
       id="path124" />
  </g>
  <path
     id="normal-hint-top-margin"
     style="opacity:0.01;fill:#008080"
     d="m 18,0 h 2 v 6 h -2 z" />
  <path
     id="normal-hint-bottom-margin"
     style="opacity:0.01;fill:#008080"
     d="m 18,28 h 2 v 6 h -2 z" />
  <path
     id="normal-hint-left-margin"
     style="opacity:0.01;fill:#008080"
     d="m 2,16 h 6.0000002 v 2 H 2 Z" />
  <path
     id="normal-hint-right-margin"
     style="opacity:0.01;fill:#008080"
     d="m 30,16 h 6 v 2 h -6 z" />
  <path
     id="pressed-hint-top-margin"
     style="opacity:0.01;fill:#008080"
     d="m 18,80 h 2 v 6 h -2 z" />
  <path
     id="pressed-hint-bottom-margin"
     style="opacity:0.01;fill:#008080"
     d="m 18,108.00001 h 2 v 6 h -2 z" />
  <path
     id="pressed-hint-left-margin"
     style="opacity:0.01;fill:#008080"
     d="m 2,96 h 6 v 2 H 2 Z" />
  <path
     id="pressed-hint-right-margin"
     style="opacity:0.01;fill:#008080"
     d="m 30,96 h 6 v 2 h -6 z" />
  <rect
     id="hint-stretch-borders"
     style="opacity:0.01;fill:#008080"
     width="2"
     height="2"
     x="38"
     y="0" />
  <g
     id="hover-center">
    <path
       id="hover-center-3"
       style="fill-opacity:0.14901961;fill:currentColor;opacity:1;"
       class="ColorScheme-Text"
       d="M 30,46 V 68 H 8 V 46 Z" />
  </g>
  <g
     id="hover-left">
    <path
       style="opacity:0.00100002"
       d="M 2,46 H 8 V 68 H 2 Z"
       id="path5-7" />
    <path
       style="fill:currentColor;fill-opacity:0.14902"
       class="ColorScheme-Text"
       d="M 4,46 H 8 V 68 H 4 Z"
       id="path7-5" />
  </g>
  <g
     id="hover-topleft">
    <path
       style="opacity:0.00100002"
       d="m 2,40 h 6 v 6 H 2 Z"
       id="path10-5" />
    <path
       style="fill:currentColor;fill-opacity:0.14902"
       class="ColorScheme-Text"
       d="m 8,42 v 4 H 4 c 0,-4 4,-4 4,-4 z"
       id="path12-6" />
  </g>
  <g
     id="hover-right">
    <path
       style="opacity:0.00100002"
       d="m 30,46 h 6 v 22 h -6 z"
       id="path15-9" />
    <path
       style="fill:currentColor;fill-opacity:0.14902"
       class="ColorScheme-Text"
       d="m 30,46 h 4 v 22 h -4 z"
       id="path17-1" />
  </g>
  <g
     id="hover-top">
    <path
       style="opacity:0.00100002"
       d="m 30,40 v 6 H 8 v -6 z"
       id="path20-7" />
    <path
       style="fill:currentColor;fill-opacity:0.14902"
       class="ColorScheme-Text "
       d="m 30,42 v 4 H 8 v -4 z"
       id="path22-0" />
  </g>
  <g
     id="hover-bottom">
    <path
       style="opacity:0.00100002"
       d="m 30,68 v 6 H 8 v -6 z"
       id="path25-3" />
    <path
       style="fill:currentColor;fill-opacity:0.14902"
       class="ColorScheme-Text"
       d="m 30,68 v 4 H 8 v -4 z"
       id="path27-6" />
  </g>
  <g
     id="hover-bottomright">
    <path
       style="opacity:0.00100002"
       d="m 30,68 h 6 v 6 h -6 z"
       id="path30-6" />
    <path
       style="fill:currentColor;fill-opacity:0.14902"
       class="ColorScheme-Text"
       d="m 30,72 v -4 h 4 c 0,4 -4,4 -4,4 z"
       id="path32-2" />
  </g>
  <g
     id="hover-topright">
    <path
       style="opacity:0.00100002"
       d="m 30,40 h 6 v 6 h -6 z"
       id="path35-1" />
    <path
       style="fill:currentColor;fill-opacity:0.14902"
       class="ColorScheme-Text"
       d="m 30,42 v 4 h 4 c 0,-4 -4,-4 -4,-4 z"
       id="path37-8" />
  </g>
  <g
     id="hover-bottomleft">
    <path
       style="opacity:0.00100002"
       d="m 2,68 h 6 v 6 H 2 Z"
       id="path40-9" />
    <path
       style="fill:currentColor;fill-opacity:0.14902"
       class="ColorScheme-Text"
       d="M 8,72 V 68 H 4 c 0,4 4,4 4,4 z"
       id="path42-2" />
  </g>
  <path
     id="hover-hint-top-margin-0"
     style="opacity:0.01;fill:#008080"
     d="m 18,40 h 2 v 6 h -2 z" />
  <path
     id="hover-hint-bottom-margin-2"
     style="opacity:0.01;fill:#008080"
     d="m 18,68 h 2 v 6 h -2 z" />
  <path
     id="hover-hint-left-margin-3"
     style="opacity:0.01;fill:#008080"
     d="m 2,56 h 6 v 2 H 2 Z" />
  <path
     id="hover-hint-right-margin-7"
     style="opacity:0.01;fill:#008080"
     d="m 30,56 h 6 v 2 h -6 z" />
</svg>
