<?xml version="1.0" encoding="UTF-8" standalone="no"?>
<svg
   width="35"
   height="135"
   version="1"
   id="svg128"
   sodipodi:docname="viewitem.svg"
   inkscape:version="1.1.2 (0a00cf5339, 2022-02-04)"
   xmlns:inkscape="http://www.inkscape.org/namespaces/inkscape"
   xmlns:sodipodi="http://sodipodi.sourceforge.net/DTD/sodipodi-0.dtd"
   xmlns="http://www.w3.org/2000/svg"
   xmlns:svg="http://www.w3.org/2000/svg">
  <sodipodi:namedview
     id="namedview130"
     pagecolor="#ffffff"
     bordercolor="#000000"
     borderopacity="1"
     inkscape:pageshadow="2"
     inkscape:pageopacity="0.0"
     inkscape:pagecheckerboard="0"
     showgrid="false"
     inkscape:zoom="2.6026786"
     inkscape:cx="55.135505"
     inkscape:cy="62.435677"
     inkscape:window-width="1920"
     inkscape:window-height="1015"
     inkscape:window-x="0"
     inkscape:window-y="0"
     inkscape:window-maximized="1"
     inkscape:current-layer="svg128"
     inkscape:lockguides="true"
     inkscape:showpageshadow="false">
    <inkscape:grid
       type="xygrid"
       id="grid7270" />
  </sodipodi:namedview>
  <defs
     id="defs5">
    <style
       id="current-color-scheme"
       type="text/css">
   .ColorScheme-Background {color:#181818; } .ColorScheme-ButtonBackground { color:#343434; } .ColorScheme-Highlight { color:#4285f4; } .ColorScheme-Text { color:#dfdfdf; } .ColorScheme-ViewBackground { color:#242424; } .ColorScheme-NegativeText { color:#f44336; } .ColorScheme-PositiveText { color:#4caf50; } .ColorScheme-NeutralText { color:#ff9800; }
  </style>
  </defs>
  <rect
     id="hint-stretch-borders"
     style="opacity:0.01;fill:#008080"
     width="4"
     height="4"
     x="0"
     y="36" />
  <g
     id="selected-top"
     transform="matrix(1.625,0,0,1.625,-103.875,-1201.625)">
    <path
       style="opacity:0.15;fill:currentColor"
       class="ColorScheme-Highlight"
       d="m 71,745 h 8 v 4 h -8 z"
       id="path7" />
  </g>
  <g
     id="selected-bottom"
     transform="matrix(1.625,0,0,1.625,-103.875,-1201.625)">
    <path
       style="opacity:0.15;fill:currentColor"
       class="ColorScheme-Highlight"
       d="m 71,757 h 8 v 4 h -8 z"
       id="path12" />
  </g>
  <path
     id="selected-center"
     style="opacity:0.15;fill:currentColor;stroke-width:0.8125"
     class="ColorScheme-Highlight"
     d="m 11.500004,15.500011 h 13 v 13 h -13 z" />
  <g
     id="selected-right"
     transform="matrix(1.625,0,0,1.625,-103.875,-1201.625)">
    <path
       style="opacity:0.15;fill:currentColor"
       class="ColorScheme-Highlight"
       d="m 79,749 h 4 v 8 h -4 z"
       id="path18" />
  </g>
  <g
     id="selected-left"
     transform="matrix(1.625,0,0,1.625,-103.875,-1201.625)">
    <path
       style="opacity:0.15;fill:currentColor"
       class="ColorScheme-Highlight"
       d="m 67,749 h 4 v 8 h -4 z"
       id="path23" />
  </g>
  <g
     id="selected-topleft"
     transform="matrix(1.625,0,0,1.625,-103.875,-1201.625)">
    <path
       style="opacity:0.15;fill:currentColor"
       class="ColorScheme-Highlight"
       d="m 71,745 v 4 h -4 c 0,0 0,-4 4,-4 z"
       id="path28" />
  </g>
  <g
     id="selected-topright"
     transform="matrix(1.625,0,0,1.625,-103.875,-1201.625)">
    <path
       style="opacity:0.15;fill:currentColor"
       class="ColorScheme-Highlight"
       d="m 79,745 c 4,0 4,4 4,4 h -4 z"
       id="path33" />
  </g>
  <g
     id="selected-bottomleft"
     transform="matrix(1.625,0,0,1.625,-103.875,-1201.625)">
    <path
       style="opacity:0.15;fill:currentColor"
       class="ColorScheme-Highlight"
       d="m 67,757 h 4 v 4 c 0,0 -4,0 -4,-4 z"
       id="path38" />
  </g>
  <g
     id="selected-bottomright"
     transform="matrix(1.625,0,0,1.625,-103.875,-1201.625)">
    <path
       style="opacity:0.15;fill:currentColor"
       class="ColorScheme-Highlight"
       d="m 79,757 h 4 c 0,0 0.01477,4 -4,4 z"
       id="path43" />
  </g>
  <g
     id="hover-top"
     transform="matrix(1.625,0,0,1.625,-103.875,-1155.3269)">
    <path
       style="opacity:0.15;fill:currentColor"
       class="ColorScheme-Highlight"
       d="m 71,745 h 8 v 4 h -8 z"
       id="path48" />
  </g>
  <g
     id="hover-bottom"
     transform="matrix(1.625,0,0,1.625,-103.875,-1155.3269)">
    <path
       style="opacity:0.15;fill:currentColor"
       class="ColorScheme-Highlight"
       d="m 71,757 h 8 v 4 h -8 z"
       id="path53" />
  </g>
  <path
     id="hover-center"
     style="opacity:0.15;fill:currentColor;stroke-width:0.8125"
     class="ColorScheme-Highlight"
     d="m 11.500006,61.79812 h 13 v 13 h -13 z" />
  <g
     id="hover-right"
     transform="matrix(1.625,0,0,1.625,-103.875,-1155.3269)">
    <path
       style="opacity:0.15;fill:currentColor"
       class="ColorScheme-Highlight"
       d="m 79,749 h 4 v 8 h -4 z"
       id="path59" />
  </g>
  <g
     id="hover-left"
     transform="matrix(1.625,0,0,1.625,-103.875,-1155.3269)">
    <path
       style="opacity:0.15;fill:currentColor"
       class="ColorScheme-Highlight"
       d="m 67,749 h 4 v 8 h -4 z"
       id="path64" />
  </g>
  <g
     id="hover-topleft"
     transform="matrix(1.625,0,0,1.625,-103.875,-1155.3269)">
    <path
       style="opacity:0.15;fill:currentColor"
       class="ColorScheme-Highlight"
       d="m 71,745 v 4 h -4 c 0,0 0,-4 4,-4 z"
       id="path69" />
  </g>
  <g
     id="hover-topright"
     transform="matrix(1.625,0,0,1.625,-103.875,-1155.3269)">
    <path
       style="opacity:0.15;fill:currentColor"
       class="ColorScheme-Highlight"
       d="m 79,745 c 4,0 4,4 4,4 h -4 z"
       id="path74" />
  </g>
  <g
     id="hover-bottomleft"
     transform="matrix(1.625,0,0,1.625,-103.875,-1155.3269)">
    <path
       style="opacity:0.15;fill:currentColor"
       class="ColorScheme-Highlight"
       d="m 67,757 h 4 v 4 c 0,0 -4,0 -4,-4 z"
       id="path79" />
  </g>
  <g
     id="hover-bottomright"
     transform="matrix(1.625,0,0,1.625,-103.875,-1155.3269)">
    <path
       style="opacity:0.15;fill:currentColor"
       class="ColorScheme-Highlight"
       d="m 79,757 h 4 c 0,0 0.01477,4 -4,4 z"
       id="path84" />
  </g>
  <g
     id="selected_hover-top"
     transform="matrix(1.625,0,0,1.625,-103.875,-1110.625)"
     style="fill:#008080;fill-opacity:1">
    <path
       style="opacity:0.9;fill:#008080;fill-opacity:1"
       class="ColorScheme-Highlight"
       d="m 71,745 h 8 v 4 h -8 z"
       id="path89" />
  </g>
  <g
     id="selected_hover-bottom"
     transform="matrix(1.625,0,0,1.625,-103.875,-1110.625)"
     style="fill:#008080;fill-opacity:1">
    <path
       style="opacity:0.9;fill:#008080;fill-opacity:1"
       class="ColorScheme-Highlight"
       d="m 71,757 h 8 v 4 h -8 z"
       id="path94" />
  </g>
  <path
     id="selected_hover-center"
     style="opacity:0.9;fill:#008080;fill-opacity:1;stroke-width:0.8125"
     class="ColorScheme-Highlight"
     d="M 11.500002,106.50002 H 24.5 v 13 H 11.500002 Z" />
  <g
     id="selected_hover-right"
     transform="matrix(1.625,0,0,1.625,-103.875,-1110.625)"
     style="fill:#008080;fill-opacity:1">
    <path
       style="opacity:0.9;fill:#008080;fill-opacity:1"
       class="ColorScheme-Highlight"
       d="m 79,749 h 4 v 8 h -4 z"
       id="path100" />
  </g>
  <g
     id="selected_hover-left"
     transform="matrix(1.625,0,0,1.625,-103.875,-1110.625)"
     style="fill:#008080;fill-opacity:1">
    <path
       style="opacity:0.9;fill:#008080;fill-opacity:1"
       class="ColorScheme-Highlight"
       d="m 67,749 h 4 v 8 h -4 z"
       id="path105" />
  </g>
  <g
     id="selected_hover-topleft"
     transform="matrix(1.625,0,0,1.625,-103.875,-1110.625)"
     style="fill:#008080;fill-opacity:1">
    <path
       style="opacity:0.9;fill:#008080;fill-opacity:1"
       class="ColorScheme-Highlight"
       d="m 71,745 v 4 h -4 c 0,0 0,-4 4,-4 z"
       id="path110" />
  </g>
  <g
     id="selected_hover-topright"
     transform="matrix(1.625,0,0,1.625,-103.875,-1110.625)"
     style="fill:#008080;fill-opacity:1">
    <path
       style="opacity:0.9;fill:#008080;fill-opacity:1"
       class="ColorScheme-Highlight"
       d="m 79,745 c 4,0 4,4 4,4 h -4 z"
       id="path115" />
  </g>
  <g
     id="selected_hover-bottomleft"
     transform="matrix(1.625,0,0,1.625,-103.875,-1110.625)"
     style="fill:#008080;fill-opacity:1">
    <path
       style="opacity:0.9;fill:#008080;fill-opacity:1"
       class="ColorScheme-Highlight"
       d="m 67,757 h 4 v 4 c 0,0 -4,0 -4,-4 z"
       id="path120" />
  </g>
  <g
     id="selected_hover-bottomright"
     transform="matrix(1.625,0,0,1.625,-103.875,-1110.625)"
     style="fill:#008080;fill-opacity:1">
    <path
       style="opacity:0.9;fill:#008080;fill-opacity:1"
       class="ColorScheme-Highlight"
       d="m 79,757 h 4 c 0,0 0.01477,4 -4,4 z"
       id="path125" />
  </g>
</svg>
