<?xml version="1.0" encoding="UTF-8" standalone="no"?>
<svg
   width="64"
   version="1.1"
   height="64"
   id="svg15"
   sodipodi:docname="folder-sign.svg"
   inkscape:version="1.1.2 (0a00cf5339, 2022-02-04)"
   xmlns:inkscape="http://www.inkscape.org/namespaces/inkscape"
   xmlns:sodipodi="http://sodipodi.sourceforge.net/DTD/sodipodi-0.dtd"
   xmlns:xlink="http://www.w3.org/1999/xlink"
   xmlns="http://www.w3.org/2000/svg"
   xmlns:svg="http://www.w3.org/2000/svg"
   xmlns:rdf="http://www.w3.org/1999/02/22-rdf-syntax-ns#"
   xmlns:cc="http://creativecommons.org/ns#"
   xmlns:dc="http://purl.org/dc/elements/1.1/">
  <sodipodi:namedview
     pagecolor="#ffffff"
     bordercolor="#666666"
     borderopacity="1"
     objecttolerance="10"
     gridtolerance="10"
     guidetolerance="10"
     inkscape:pageopacity="0"
     inkscape:pageshadow="2"
     inkscape:window-width="1920"
     inkscape:window-height="1015"
     id="namedview17"
     showgrid="true"
     inkscape:zoom="9.8125"
     inkscape:cx="21.808917"
     inkscape:cy="36.433121"
     inkscape:window-x="0"
     inkscape:window-y="0"
     inkscape:window-maximized="1"
     inkscape:current-layer="layer1"
     inkscape:document-rotation="0"
     inkscape:pagecheckerboard="0"
     inkscape:lockguides="true">
    <inkscape:grid
       type="xygrid"
       id="grid850" />
  </sodipodi:namedview>
  <defs
     id="defs5455">
    <linearGradient
       inkscape:collect="always"
       xlink:href="#linearGradient1295"
       id="linearGradient1493"
       gradientUnits="userSpaceOnUse"
       x1="20.750315"
       y1="1025.9873"
       x2="-12.062732"
       y2="995.35931" />
    <linearGradient
       inkscape:collect="always"
       id="linearGradient1295">
      <stop
         style="stop-color:#1d212f;stop-opacity:1;"
         offset="0"
         id="stop1291" />
      <stop
         style="stop-color:#717da8;stop-opacity:1"
         offset="1"
         id="stop1293" />
    </linearGradient>
    <linearGradient
       inkscape:collect="always"
       xlink:href="#linearGradient952"
       id="linearGradient1297"
       x1="2.0000021"
       y1="1025.9873"
       x2="62.938519"
       y2="1025.9873"
       gradientUnits="userSpaceOnUse" />
    <linearGradient
       inkscape:collect="always"
       id="linearGradient952">
      <stop
         style="stop-color:#2e354b;stop-opacity:1"
         offset="0"
         id="stop948" />
      <stop
         style="stop-color:#717da8;stop-opacity:1"
         offset="1"
         id="stop950" />
    </linearGradient>
    <linearGradient
       inkscape:collect="always"
       xlink:href="#linearGradient876"
       id="linearGradient878"
       x1="5"
       y1="40"
       x2="24.99983"
       y2="40"
       gradientUnits="userSpaceOnUse"
       gradientTransform="translate(384.57143,483.798)" />
    <linearGradient
       inkscape:collect="always"
       id="linearGradient876">
      <stop
         style="stop-color:#404868;stop-opacity:1"
         offset="0"
         id="stop872" />
      <stop
         style="stop-color:#becad8;stop-opacity:1"
         offset="1"
         id="stop874" />
    </linearGradient>
  </defs>
  <metadata
     id="metadata5458">
    <rdf:RDF>
      <cc:Work
         rdf:about="">
        <dc:format>image/svg+xml</dc:format>
        <dc:type
           rdf:resource="http://purl.org/dc/dcmitype/StillImage" />
      </cc:Work>
    </rdf:RDF>
  </metadata>
  <g
     inkscape:label="Capa 1"
     inkscape:groupmode="layer"
     id="layer1"
     transform="translate(-384.57143,-483.798)">
    <g
       transform="matrix(1.0666489,0,0,1.1427479,382.43812,-653.64677)"
       id="g19">
      <rect
         width="60"
         height="42"
         x="2"
         y="1002.36"
         rx="6.5219998"
         ry="6.5619998"
         style="opacity:0.85;fill:url(#linearGradient1493);fill-opacity:1;stroke:none"
         id="rect11" />
      <path
         d="m 8.522,1002.36 c -3.613,0 -6.522,3.3302 -6.522,6.1002 v 0.8998 c 0,-2.77 2.909,-5 6.522,-5 h 46.957 c 3.613,0 6.522,2.23 6.522,5 v -0.8998 c 0,-2.77 -2.909,-6.1002 -6.522,-6.1002 z"
         style="opacity:0.2;fill:#ffffff;fill-opacity:1;stroke:none"
         id="path13"
         sodipodi:nodetypes="sscsscsss" />
      <path
         d="m 8.522,1013.3603 h 10.435 c 14.348,-1.333 11.86095,-6.5781 20.991951,-6.5781 h 15.361736 c 3.612989,0 6.689313,1.4143 6.689313,5.1083 v 25.8035 c 0,3.693 -2.908,6.667 -6.521,6.667 H 8.522 c -3.613,0 -6.522,-2.973 -6.522,-6.667 v -18.667 c 0,-4 2.609,-5.6667 6.522,-5.6667 z"
         style="opacity:0.6;fill:url(#linearGradient1297);fill-opacity:1;stroke:none"
         id="path15"
         sodipodi:nodetypes="scsssssssss" />
      <path
         d="m 2,1035.03 v 2.667 c 0,3.693 2.909,6.667 6.522,6.667 h 46.957 c 3.613,0 6.522,-2.973 6.522,-6.667 v -2.667 c 0,3.693 -2.909,7.333 -6.522,7.333 H 8.522 c -3.613,0 -6.522,-3.64 -6.522,-7.333 z"
         style="opacity:0.15;fill:#000000;fill-opacity:1;stroke:none"
         id="path17" />
    </g>
    <rect
       y="532.59851"
       x="424.57144"
       height="0.34285715"
       width="21.866692"
       id="rect4209"
       style="fill:#000000;fill-opacity:1;fill-rule:nonzero;stroke:none;stroke-width:0.422498;stroke-linecap:round;stroke-linejoin:round;stroke-miterlimit:4;stroke-dasharray:none;stroke-dashoffset:0;stroke-opacity:1" />
    <path
       d="m 408.78868,519.91903 c -0.49831,-1.18624 -1.23374,-2.25382 -2.13516,-3.17909 -0.92528,-0.92528 -1.99286,-1.63707 -3.1791,-2.13516 -1.23391,-0.52212 -2.53866,-0.80678 -3.89106,-0.80678 -1.35241,0 -2.65716,0.28465 -3.89089,0.80661 -1.18625,0.4983 -2.25383,1.23373 -3.1791,2.13516 -0.92528,0.92527 -1.63707,1.99285 -2.13516,3.1791 -0.52212,1.23391 -0.80678,2.53865 -0.80678,3.89106 0,1.3524 0.28465,2.65715 0.80661,3.89089 0.4983,1.18624 1.23374,2.25382 2.13516,3.1791 0.92527,0.92527 1.99285,1.63706 3.1791,2.13516 1.23374,0.52195 2.53865,0.78292 3.89089,0.78292 1.3524,0 2.65715,-0.26098 3.89089,-0.78292 1.18624,-0.49831 2.25382,-1.23374 3.1791,-2.13516 0.92527,-0.92528 1.63706,-1.99286 2.13516,-3.1791 0.52195,-1.23374 0.78292,-2.53866 0.78292,-3.89089 3.4e-4,-1.35241 -0.26065,-2.65715 -0.78263,-3.8909 z"
       id="path67"
       style="fill:url(#linearGradient878);fill-opacity:1;stroke-width:0.042366" />
    <path
       d="m 397.42256,526.25764 c 0.0556,0.041 0.12043,0.061 0.18466,0.061 0.0954,0 0.18944,-0.0437 0.25041,-0.12628 0.55312,-0.74842 1.17601,-1.45258 1.85141,-2.09325 0.12456,-0.11826 0.12987,-0.31508 0.0117,-0.43985 -0.11837,-0.12456 -0.31508,-0.12977 -0.43984,-0.0117 -0.70167,0.66553 -1.34884,1.39736 -1.92357,2.17496 -0.10231,0.13823 -0.0731,0.33298 0.0652,0.43519 z"
       id="path79"
       style="stroke-width:0.0277755;fill:#3a435f;fill-opacity:1" />
    <path
       d="m 400.12789,523.6148 c 0.0714,0 0.14322,-0.0245 0.20192,-0.0745 0.21135,-0.18054 0.43108,-0.35836 0.65293,-0.52837 l 1.63268,-1.25162 c 0.13627,-0.10449 0.16209,-0.2999 0.0577,-0.43616 -0.10437,-0.13627 -0.29979,-0.16188 -0.43616,-0.0577 l -1.63268,1.25162 c -0.23055,0.17685 -0.45884,0.36153 -0.67844,0.54912 -0.13063,0.11153 -0.14603,0.30803 -0.0345,0.43866 0.0612,0.0721 0.14865,0.10904 0.23652,0.10904 z"
       id="path81"
       style="stroke-width:0.0277755;fill:#3a435f;fill-opacity:1" />
    <path
       d="m 393.48233,530.79865 h 1.1594 4.4e-4 6.4e-4 1.66523 c 0.17175,0 0.31106,-0.13942 0.31106,-0.31106 0,-0.17175 -0.13942,-0.31105 -0.31106,-0.31105 h -1.10125 l 0.56399,-0.89371 c 0.0509,-0.0326 0.10654,-0.0724 0.17652,-0.12412 0.32473,-0.24032 1.00056,-0.74072 1.96512,-1.18229 0.85552,-0.42163 2.74164,-1.11861 2.76064,-1.12565 0.10263,-0.038 0.17793,-0.12706 0.198,-0.23469 0.0201,-0.10762 -0.0177,-0.21786 -0.0998,-0.29045 l -0.12184,-0.10752 c 1.35372,-0.0649 1.48393,-0.14159 1.54729,-0.17891 0.31269,-0.1902 0.56928,-0.3547 0.80743,-0.51776 1.05438,-0.72172 1.87074,-1.67261 2.42633,-2.82588 0.009,-0.0185 0.0162,-0.0379 0.0213,-0.0583 0.003,-0.0101 0.003,-0.0202 0.005,-0.0304 7.5e-4,-0.009 0.004,-0.018 0.004,-0.0275 0,-6.6e-4 -1.1e-4,-7.5e-4 0,-10e-4 7.5e-4,-0.0158 -3.2e-4,-0.0314 -0.002,-0.0471 -4.2e-4,-0.005 0,-0.0101 -7.5e-4,-0.015 -0.002,-0.0126 -0.006,-0.0247 -0.009,-0.0369 -0.005,-0.0185 -0.0117,-0.0364 -0.0201,-0.0534 -0.004,-0.007 -0.006,-0.0154 -0.0104,-0.0226 -0.004,-0.007 -0.009,-0.0119 -0.013,-0.0182 -0.0107,-0.0155 -0.0227,-0.0301 -0.0361,-0.0435 -0.01,-0.01 -0.0191,-0.0196 -0.0301,-0.0279 -0.003,-0.002 -0.007,-0.005 -0.0105,-0.007 -0.0136,-0.009 -0.0273,-0.0187 -0.0424,-0.026 -4.3e-4,-1.1e-4 -7.5e-4,-6.5e-4 -7.5e-4,-7.5e-4 -0.005,-0.002 -0.0111,-0.004 -0.0165,-0.006 -0.013,-0.005 -0.0261,-0.0109 -0.0401,-0.0146 -0.0117,-0.003 -0.0234,-0.005 -0.0353,-0.006 -0.008,-7.5e-4 -0.0155,-0.004 -0.0237,-0.004 l -0.29239,-0.0184 0.84899,-0.49246 c 0.007,-0.004 0.0126,-0.009 0.0191,-0.0139 0.005,-0.004 0.0108,-0.007 0.0161,-0.0115 0.0232,-0.0182 0.0437,-0.0384 0.0603,-0.0614 0.002,-0.003 0.004,-0.006 0.006,-0.009 0.0165,-0.0246 0.0293,-0.0508 0.0381,-0.0786 7.5e-4,-0.002 0.002,-0.004 0.003,-0.007 7.5e-4,-0.002 7.5e-4,-0.005 0.002,-0.008 1.2e-4,-3.2e-4 1.2e-4,-6.4e-4 3.3e-4,-7.5e-4 0.10547,-0.35847 0.18543,-0.72575 0.23642,-1.08519 0.23739,-1.44963 0.0255,-2.81087 -0.0444,-3.25806 -0.006,-0.0362 -0.0103,-0.0649 -0.013,-0.0853 0,-0.002 1e-4,-0.005 1e-4,-0.008 0,-0.0119 -0.002,-0.0233 -0.004,-0.035 -4.3e-4,-0.005 -6.5e-4,-0.009 -7.5e-4,-0.0129 -0.002,-0.0158 -0.006,-0.0311 -0.0112,-0.046 -7.5e-4,-0.004 -0.002,-0.008 -0.004,-0.0122 -0.005,-0.0141 -0.0115,-0.0275 -0.0187,-0.0406 -0.003,-0.005 -0.005,-0.01 -0.008,-0.0146 -0.007,-0.0114 -0.0147,-0.0219 -0.0232,-0.0322 -0.005,-0.006 -0.009,-0.0117 -0.0141,-0.0172 -0.008,-0.009 -0.0171,-0.0168 -0.0263,-0.0246 -0.006,-0.005 -0.0126,-0.0111 -0.0194,-0.0161 -0.01,-0.007 -0.0204,-0.0133 -0.0311,-0.0191 -0.005,-0.004 -0.0101,-0.007 -0.0158,-0.0102 -0.003,-0.002 -0.005,-0.002 -0.008,-0.003 -0.006,-0.002 -0.0121,-0.005 -0.0183,-0.007 -0.15211,-0.0617 -0.26213,10e-4 -0.55606,0.17533 -0.32472,0.19226 -0.92917,0.54999 -1.81291,0.95304 -0.33872,0.16762 -0.84226,0.37552 -1.37511,0.59553 -0.64611,0.2668 -1.31434,0.54248 -1.86824,0.81613 -0.0867,0.0424 -0.2453,0.1201 -0.58577,1.0418 l -0.0268,-0.12054 c -0.0218,-0.0982 -0.0897,-0.17968 -0.18228,-0.21906 -0.0924,-0.0391 -0.19834,-0.0313 -0.28415,0.0213 -0.0238,0.0146 -0.58545,0.35944 -0.86992,0.5542 -0.74049,0.50657 -1.37022,1.13469 -1.87052,1.86563 -0.0471,0.0682 -0.14538,0.21049 -0.094,1.38011 l -0.0943,-0.12238 c -0.07,-0.0908 -0.18444,-0.13639 -0.2975,-0.11697 -0.11327,0.0188 -0.20668,0.0984 -0.24358,0.20723 -0.0169,0.0501 -0.41607,1.2334 -0.50376,1.84424 -0.23544,1.43857 -0.0265,2.79949 0.0422,3.24696 0.002,0.0114 0.003,0.0197 0.005,0.0297 l -0.75893,1.20204 h -0.98875 c -0.17175,0 -0.31106,0.13942 -0.31106,0.31106 0,0.17164 0.13931,0.31106 0.31106,0.31106 z m 2.31556,-5.00625 c 0.0442,-0.30737 0.1826,-0.79746 0.29922,-1.17937 l 0.35339,0.45851 c 0.0839,0.10916 0.22958,0.14995 0.35806,0.10047 0.12847,-0.0495 0.20918,-0.1775 0.19843,-0.31452 -0.0641,-0.81786 -0.10296,-1.80433 -0.0581,-2.0287 0.45407,-0.65564 1.02227,-1.2192 1.68919,-1.67531 0.12347,-0.0844 0.30781,-0.20256 0.47274,-0.30638 l 0.17544,0.79062 c 0.0306,0.1378 0.15027,0.23783 0.29153,0.24347 0.14105,0.006 0.26831,-0.0846 0.30964,-0.21982 0.22014,-0.71858 0.53087,-1.57334 0.66195,-1.76016 0.52882,-0.25887 1.1706,-0.5237 1.79185,-0.78021 0.54304,-0.22416 1.05603,-0.43593 1.40482,-0.60878 0.81072,-0.36975 1.39333,-0.70306 1.74695,-0.91118 0.0792,0.57873 0.18303,1.64873 -1.2e-4,2.76822 -0.0426,0.29922 -0.10653,0.59945 -0.18824,0.89457 l -1.62747,0.94414 c -0.0517,0.0301 -0.0905,0.0729 -0.11686,0.12184 -0.002,0.003 -0.004,0.006 -0.006,0.009 -0.006,0.0128 -0.0105,0.0262 -0.0151,0.0395 -0.002,0.006 -0.005,0.0115 -0.007,0.0177 -0.005,0.0197 -0.009,0.0399 -0.01,0.0605 0,1.1e-4 -1.2e-4,4.3e-4 -1.2e-4,6.5e-4 -3.3e-4,0.005 6.6e-4,0.008 4.3e-4,0.0125 -3.1e-4,0.0162 -3.1e-4,0.0323 0.002,0.0485 7.5e-4,0.01 0.004,0.0194 0.007,0.029 0.002,0.0101 0.004,0.0202 0.007,0.0301 0.005,0.0154 0.0125,0.0297 0.02,0.044 0.002,0.004 0.003,0.008 0.005,0.0114 1.2e-4,1.2e-4 1.2e-4,3.3e-4 3.3e-4,4.4e-4 0.0126,0.0215 0.0283,0.0408 0.0456,0.0586 0.005,0.005 0.0105,0.01 0.0161,0.015 0.0136,0.0122 0.028,0.023 0.0435,0.0326 0.006,0.004 0.0109,0.007 0.0166,0.0104 0.0212,0.0114 0.0434,0.0208 0.0672,0.0272 0.002,6.5e-4 0.005,6.5e-4 0.007,0.002 0.0173,0.004 0.0348,0.008 0.0534,0.009 l 0.8376,0.0524 c -0.49474,0.86906 -1.16505,1.5973 -1.99887,2.16812 -0.22307,0.15277 -0.46416,0.30747 -0.75329,0.4839 -0.20258,0.0484 -1.20488,0.10731 -2.04759,0.13551 -0.12737,0.005 -0.23924,0.0858 -0.28231,0.20583 -0.0431,0.11989 -0.009,0.25399 0.0869,0.33853 l 0.31509,0.2783 c -0.62962,0.23968 -1.7157,0.6639 -2.32609,0.96498 -0.35826,0.16394 -0.67628,0.33514 -0.95598,0.49974 l 0.48824,-0.7253 c 0.0762,-0.1212 0.15385,-0.24141 0.23327,-0.36022 0.0954,-0.14289 0.0568,-0.33614 -0.0861,-0.43149 -0.14289,-0.0954 -0.33614,-0.0566 -0.43149,0.0861 -0.0825,0.12369 -0.16318,0.24857 -0.23707,0.3662 l -0.90184,1.34093 c -0.0627,-0.60804 -0.10459,-1.48913 0.0442,-2.39847 z"
       id="path83"
       style="stroke-width:0.0277755;fill:#3a435f;fill-opacity:1" />
    <path
       d="m 397.21535,530.17648 c -0.17175,0 -0.31105,0.13942 -0.31105,0.31106 0,0.17175 0.13942,0.31105 0.31105,0.31105 h 2.54635 c 0.17175,0 0.31105,-0.13941 0.31105,-0.31105 0,-0.17176 -0.13942,-0.31106 -0.31105,-0.31106 z"
       id="path85"
       style="stroke-width:0.0277755;fill:#3a435f;fill-opacity:1" />
  </g>
</svg>
