<?xml version="1.0" encoding="UTF-8" standalone="no"?>
<svg
   width="64"
   version="1.1"
   height="64"
   id="svg15"
   sodipodi:docname="folder-database.svg"
   inkscape:version="1.1.1 (3bf5ae0d25, 2021-09-20)"
   xmlns:inkscape="http://www.inkscape.org/namespaces/inkscape"
   xmlns:sodipodi="http://sodipodi.sourceforge.net/DTD/sodipodi-0.dtd"
   xmlns:xlink="http://www.w3.org/1999/xlink"
   xmlns="http://www.w3.org/2000/svg"
   xmlns:svg="http://www.w3.org/2000/svg"
   xmlns:rdf="http://www.w3.org/1999/02/22-rdf-syntax-ns#"
   xmlns:cc="http://creativecommons.org/ns#"
   xmlns:dc="http://purl.org/dc/elements/1.1/">
  <sodipodi:namedview
     pagecolor="#ffffff"
     bordercolor="#666666"
     borderopacity="1"
     objecttolerance="10"
     gridtolerance="10"
     guidetolerance="10"
     inkscape:pageopacity="0"
     inkscape:pageshadow="2"
     inkscape:window-width="1920"
     inkscape:window-height="1015"
     id="namedview17"
     showgrid="true"
     inkscape:zoom="9.8125"
     inkscape:cx="32"
     inkscape:cy="31.949045"
     inkscape:window-x="0"
     inkscape:window-y="0"
     inkscape:window-maximized="1"
     inkscape:current-layer="layer1"
     inkscape:document-rotation="0"
     inkscape:pagecheckerboard="0">
    <inkscape:grid
       type="xygrid"
       id="grid850" />
  </sodipodi:namedview>
  <defs
     id="defs5455">
    <linearGradient
       inkscape:collect="always"
       id="linearGradient1053">
      <stop
         style="stop-color:#3a435f;stop-opacity:1"
         offset="0"
         id="stop1049" />
      <stop
         style="stop-color:#becad8;stop-opacity:1"
         offset="1"
         id="stop1051" />
    </linearGradient>
    <linearGradient
       inkscape:collect="always"
       xlink:href="#linearGradient1295"
       id="linearGradient1493"
       gradientUnits="userSpaceOnUse"
       x1="20.750315"
       y1="1025.9873"
       x2="-12.062732"
       y2="995.35931" />
    <linearGradient
       inkscape:collect="always"
       id="linearGradient1295">
      <stop
         style="stop-color:#1d212f;stop-opacity:1;"
         offset="0"
         id="stop1291" />
      <stop
         style="stop-color:#717da8;stop-opacity:1"
         offset="1"
         id="stop1293" />
    </linearGradient>
    <linearGradient
       inkscape:collect="always"
       xlink:href="#linearGradient952"
       id="linearGradient1297"
       x1="2.0000021"
       y1="1025.9873"
       x2="62.938519"
       y2="1025.9873"
       gradientUnits="userSpaceOnUse" />
    <linearGradient
       inkscape:collect="always"
       id="linearGradient952">
      <stop
         style="stop-color:#2e354b;stop-opacity:1"
         offset="0"
         id="stop948" />
      <stop
         style="stop-color:#717da8;stop-opacity:1"
         offset="1"
         id="stop950" />
    </linearGradient>
    <linearGradient
       inkscape:collect="always"
       xlink:href="#linearGradient1053"
       id="linearGradient1055"
       x1="389.57143"
       y1="523.798"
       x2="409.57143"
       y2="523.798"
       gradientUnits="userSpaceOnUse" />
  </defs>
  <metadata
     id="metadata5458">
    <rdf:RDF>
      <cc:Work
         rdf:about="">
        <dc:format>image/svg+xml</dc:format>
        <dc:type
           rdf:resource="http://purl.org/dc/dcmitype/StillImage" />
      </cc:Work>
    </rdf:RDF>
  </metadata>
  <g
     inkscape:label="Capa 1"
     inkscape:groupmode="layer"
     id="layer1"
     transform="translate(-384.57143,-483.798)">
    <g
       transform="matrix(0.74351172,0,0,0.74285356,332.49565,-244.90835)"
       id="g4" />
    <g
       transform="matrix(1.0666489,0,0,1.1427479,382.43813,-653.64677)"
       id="g19">
      <rect
         width="60"
         height="42"
         x="2"
         y="1002.36"
         rx="6.5219998"
         ry="6.5619998"
         style="opacity:0.85;fill:url(#linearGradient1493);fill-opacity:1;stroke:none"
         id="rect11" />
      <path
         d="m 8.522,1002.36 c -3.613,0 -6.522,3.3302 -6.522,6.1002 v 0.8998 c 0,-2.77 2.909,-5 6.522,-5 h 46.957 c 3.613,0 6.522,2.23 6.522,5 v -0.8998 c 0,-2.77 -2.909,-6.1002 -6.522,-6.1002 z"
         style="opacity:0.2;fill:#ffffff;fill-opacity:1;stroke:none"
         id="path13"
         sodipodi:nodetypes="sscsscsss" />
      <path
         d="m 8.522,1013.3603 h 10.435 c 14.348,-1.333 11.86095,-6.5781 20.991951,-6.5781 h 15.361736 c 3.612989,0 6.689313,1.4143 6.689313,5.1083 v 25.8035 c 0,3.693 -2.908,6.667 -6.521,6.667 H 8.522 c -3.613,0 -6.522,-2.973 -6.522,-6.667 v -18.667 c 0,-4 2.609,-5.6667 6.522,-5.6667 z"
         style="opacity:0.6;fill:url(#linearGradient1297);fill-opacity:1;stroke:none"
         id="path15"
         sodipodi:nodetypes="scsssssssss" />
      <path
         d="m 2,1035.03 v 2.667 c 0,3.693 2.909,6.667 6.522,6.667 h 46.957 c 3.613,0 6.522,-2.973 6.522,-6.667 v -2.667 c 0,3.693 -2.909,7.333 -6.522,7.333 H 8.522 c -3.613,0 -6.522,-3.64 -6.522,-7.333 z"
         style="opacity:0.15;fill:#000000;fill-opacity:1;stroke:none"
         id="path17" />
    </g>
    <rect
       y="532.60083"
       x="424.57144"
       height="0.34285715"
       width="21.866692"
       id="rect4209"
       style="fill:#000000;fill-opacity:1;fill-rule:nonzero;stroke:none;stroke-width:0.422498;stroke-linecap:round;stroke-linejoin:round;stroke-miterlimit:4;stroke-dasharray:none;stroke-dashoffset:0;stroke-opacity:1" />
    <path
       d="m 399.57143,513.798 c -2.65219,0 -5.19567,1.05356 -7.07102,2.92898 -1.87541,1.87527 -2.92898,4.4189 -2.92898,7.07102 0,2.65212 1.05357,5.19567 2.92898,7.07102 1.87527,1.87541 4.4189,2.92898 7.07102,2.92898 2.65212,0 5.19568,-1.05357 7.07103,-2.92898 1.87541,-1.87527 2.92897,-4.4189 2.92897,-7.07102 0,-1.75527 -0.46207,-3.47976 -1.3397,-4.99997 -0.87778,-1.5202 -2.14006,-2.78248 -3.66033,-3.66033 -1.52021,-0.87763 -3.2447,-1.3397 -4.99997,-1.3397 z m -4.1714,5.71424 h 8.34245 c 0.45717,0 0.82866,0.3715 0.82866,0.82868 v 1.91406 c 0,0.17926 -0.0689,0.33579 -0.16601,0.47153 0.0971,0.13574 0.16601,0.29227 0.16601,0.47153 v 1.91405 c 0,0.17927 -0.0689,0.3358 -0.16601,0.47154 0.0971,0.13574 0.16601,0.29226 0.16601,0.47153 v 1.91406 c 0,0.45718 -0.37149,0.82867 -0.82866,0.82867 h -8.34245 c -0.45717,0 -0.82867,-0.37149 -0.82867,-0.82867 v -1.91406 c 0,-0.17927 0.0689,-0.33579 0.16602,-0.47153 -0.0971,-0.13575 -0.16602,-0.29227 -0.16602,-0.47154 v -1.91405 c 0,-0.17927 0.0689,-0.3358 0.16602,-0.47153 -0.0971,-0.13574 -0.16602,-0.29228 -0.16602,-0.47153 v -1.91406 c 0,-0.45718 0.3715,-0.82868 0.82867,-0.82868 z m 0,0.71429 c -0.0636,0 -0.11439,0.0508 -0.11439,0.11439 v 1.91406 c 0,0.0636 0.0508,0.11439 0.11439,0.11439 h 8.34245 c 0.0636,0 0.11439,-0.0508 0.11439,-0.11439 v -1.91406 c 0,-0.0636 -0.0508,-0.11439 -0.11439,-0.11439 z m 0.59989,0.71427 h 2.85712 v 0.71429 h -2.85712 z m 6.42853,0 h 0.71428 v 0.71429 h -0.71428 z m -7.02852,2.14284 c -0.0636,0 -0.1144,0.0508 -0.1144,0.1144 v 1.91406 c 0,0.0636 0.0508,0.1144 0.1144,0.1144 h 8.34243 c 0.0636,0 0.1144,-0.0508 0.1144,-0.1144 v -1.91406 c 0,-0.0636 -0.0508,-0.1144 -0.1144,-0.1144 z m 0.59988,0.71429 h 2.85713 v 0.71428 h -2.85713 z m 6.42853,0.053 h 0.71428 v 0.71429 h -0.71428 z m -7.02852,2.08985 c -0.0636,0 -0.1144,0.0508 -0.1144,0.1144 v 1.91405 c 0,0.0636 0.0508,0.1144 0.1144,0.1144 h 8.34244 c 0.0636,0 0.1144,-0.0508 0.1144,-0.1144 v -1.91405 c 0,-0.0636 -0.0508,-0.1144 -0.1144,-0.1144 z m 0.59989,0.71428 h 2.85712 v 0.71428 h -2.85712 z m 6.42853,0.0893 h 0.71427 v 0.71428 h -0.71427 z"
       fill-rule="evenodd"
       id="path2"
       style="stroke-width:0.035714;fill-opacity:1;fill:url(#linearGradient1055)" />
  </g>
</svg>
