<?xml version="1.0" encoding="UTF-8" standalone="no"?>
<svg
   width="64"
   version="1.1"
   height="64"
   id="svg15"
   sodipodi:docname="folder-Neon.svg"
   inkscape:version="1.1.1 (3bf5ae0d25, 2021-09-20)"
   xmlns:inkscape="http://www.inkscape.org/namespaces/inkscape"
   xmlns:sodipodi="http://sodipodi.sourceforge.net/DTD/sodipodi-0.dtd"
   xmlns:xlink="http://www.w3.org/1999/xlink"
   xmlns="http://www.w3.org/2000/svg"
   xmlns:svg="http://www.w3.org/2000/svg"
   xmlns:rdf="http://www.w3.org/1999/02/22-rdf-syntax-ns#"
   xmlns:cc="http://creativecommons.org/ns#"
   xmlns:dc="http://purl.org/dc/elements/1.1/">
  <sodipodi:namedview
     pagecolor="#ffffff"
     bordercolor="#666666"
     borderopacity="1"
     objecttolerance="10"
     gridtolerance="10"
     guidetolerance="10"
     inkscape:pageopacity="0"
     inkscape:pageshadow="2"
     inkscape:window-width="1920"
     inkscape:window-height="1007"
     id="namedview17"
     showgrid="true"
     inkscape:zoom="9.8125"
     inkscape:cx="25.171975"
     inkscape:cy="52.738854"
     inkscape:window-x="0"
     inkscape:window-y="0"
     inkscape:window-maximized="1"
     inkscape:current-layer="layer1"
     inkscape:document-rotation="0"
     inkscape:pagecheckerboard="0"
     inkscape:lockguides="false">
    <inkscape:grid
       type="xygrid"
       id="grid933" />
  </sodipodi:namedview>
  <defs
     id="defs5455">
    <linearGradient
       inkscape:collect="always"
       id="linearGradient875">
      <stop
         style="stop-color:#404868;stop-opacity:1"
         offset="0"
         id="stop871" />
      <stop
         style="stop-color:#becad8;stop-opacity:1"
         offset="1"
         id="stop873" />
    </linearGradient>
    <linearGradient
       inkscape:collect="always"
       xlink:href="#linearGradient1295"
       id="linearGradient1493"
       gradientUnits="userSpaceOnUse"
       x1="20.750315"
       y1="1025.9873"
       x2="-12.062732"
       y2="995.35931" />
    <linearGradient
       inkscape:collect="always"
       id="linearGradient1295">
      <stop
         style="stop-color:#1d212f;stop-opacity:1;"
         offset="0"
         id="stop1291" />
      <stop
         style="stop-color:#717da8;stop-opacity:1"
         offset="1"
         id="stop1293" />
    </linearGradient>
    <linearGradient
       inkscape:collect="always"
       xlink:href="#linearGradient952"
       id="linearGradient1297"
       x1="2.0000021"
       y1="1025.9873"
       x2="62.938519"
       y2="1025.9873"
       gradientUnits="userSpaceOnUse" />
    <linearGradient
       inkscape:collect="always"
       id="linearGradient952">
      <stop
         style="stop-color:#2e354b;stop-opacity:1"
         offset="0"
         id="stop948" />
      <stop
         style="stop-color:#717da8;stop-opacity:1"
         offset="1"
         id="stop950" />
    </linearGradient>
    <linearGradient
       inkscape:collect="always"
       xlink:href="#linearGradient875"
       id="linearGradient877"
       x1="389.57143"
       y1="523.798"
       x2="409.57126"
       y2="523.798"
       gradientUnits="userSpaceOnUse" />
  </defs>
  <metadata
     id="metadata5458">
    <rdf:RDF>
      <cc:Work
         rdf:about="">
        <dc:format>image/svg+xml</dc:format>
        <dc:type
           rdf:resource="http://purl.org/dc/dcmitype/StillImage" />
      </cc:Work>
    </rdf:RDF>
  </metadata>
  <g
     inkscape:label="Capa 1"
     inkscape:groupmode="layer"
     id="layer1"
     transform="translate(-384.57143,-483.798)">
    <g
       transform="matrix(1.0666489,0,0,1.1427479,382.43813,-653.64677)"
       id="g19">
      <rect
         width="60"
         height="42"
         x="2"
         y="1002.36"
         rx="6.5219998"
         ry="6.5619998"
         style="opacity:0.85;fill:url(#linearGradient1493);fill-opacity:1;stroke:none"
         id="rect11" />
      <path
         d="m 8.522,1002.36 c -3.613,0 -6.522,3.3302 -6.522,6.1002 v 0.8998 c 0,-2.77 2.909,-5 6.522,-5 h 46.957 c 3.613,0 6.522,2.23 6.522,5 v -0.8998 c 0,-2.77 -2.909,-6.1002 -6.522,-6.1002 z"
         style="opacity:0.2;fill:#ffffff;fill-opacity:1;stroke:none"
         id="path13"
         sodipodi:nodetypes="sscsscsss" />
      <path
         d="m 8.522,1013.3603 h 10.435 c 14.348,-1.333 11.86095,-6.5781 20.991951,-6.5781 h 15.361736 c 3.612989,0 6.689313,1.4143 6.689313,5.1083 v 25.8035 c 0,3.693 -2.908,6.667 -6.521,6.667 H 8.522 c -3.613,0 -6.522,-2.973 -6.522,-6.667 v -18.667 c 0,-4 2.609,-5.6667 6.522,-5.6667 z"
         style="opacity:0.6;fill:url(#linearGradient1297);fill-opacity:1;stroke:none"
         id="path15"
         sodipodi:nodetypes="scsssssssss" />
      <path
         d="m 2,1035.03 v 2.667 c 0,3.693 2.909,6.667 6.522,6.667 h 46.957 c 3.613,0 6.522,-2.973 6.522,-6.667 v -2.667 c 0,3.693 -2.909,7.333 -6.522,7.333 H 8.522 c -3.613,0 -6.522,-3.64 -6.522,-7.333 z"
         style="opacity:0.15;fill:#000000;fill-opacity:1;stroke:none"
         id="path17" />
    </g>
    <rect
       y="532.60052"
       x="424.57144"
       height="0.34285715"
       width="21.866692"
       id="rect4209"
       style="fill:#000000;fill-opacity:1;fill-rule:nonzero;stroke:none;stroke-width:0.422498;stroke-linecap:round;stroke-linejoin:round;stroke-miterlimit:4;stroke-dasharray:none;stroke-dashoffset:0;stroke-opacity:1" />
    <path
       d="m 408.78868,519.91903 c -0.49831,-1.18624 -1.23374,-2.25382 -2.13516,-3.17909 -0.92528,-0.92528 -1.99286,-1.63707 -3.1791,-2.13516 -1.23391,-0.52212 -2.53866,-0.80678 -3.89106,-0.80678 -1.35241,0 -2.65716,0.28465 -3.89089,0.80661 -1.18625,0.4983 -2.25383,1.23373 -3.1791,2.13516 -0.92528,0.92527 -1.63707,1.99285 -2.13516,3.1791 -0.52212,1.23391 -0.80678,2.53865 -0.80678,3.89106 0,1.3524 0.28465,2.65715 0.80661,3.89089 0.4983,1.18624 1.23374,2.25382 2.13516,3.1791 0.92527,0.92527 1.99285,1.63706 3.1791,2.13516 1.23374,0.52195 2.53865,0.78292 3.89089,0.78292 1.3524,0 2.65715,-0.26098 3.89089,-0.78292 1.18624,-0.49831 2.25382,-1.23374 3.1791,-2.13516 0.92527,-0.92528 1.63706,-1.99286 2.13516,-3.1791 0.52195,-1.23374 0.78292,-2.53866 0.78292,-3.89089 3.4e-4,-1.35241 -0.26065,-2.65715 -0.78263,-3.8909 z"
       id="path67"
       style="fill:url(#linearGradient877);fill-opacity:1;stroke-width:0.042366" />
    <path
       d="m 399.57142,521.97988 c -1.00411,0 -1.81813,0.81403 -1.81813,1.81813 0,1.0041 0.81402,1.81813 1.81813,1.81813 1.0041,0 1.81812,-0.81403 1.81812,-1.81813 0,-1.0041 -0.81402,-1.81813 -1.81812,-1.81813 z m -0.31547,0.58473 c -0.34082,0.087 -0.63342,0.31453 -0.80251,0.62533 -0.0165,0.03 -0.0479,0.0475 -0.0799,0.0475 -0.0148,0 -0.0295,-0.003 -0.0434,-0.0111 -0.044,-0.0241 -0.0606,-0.0793 -0.0364,-0.12335 0.19335,-0.35466 0.5278,-0.61506 0.91746,-0.71431 0.049,-0.0131 0.0982,0.0169 0.11044,0.0657 0.0125,0.0487 -0.0171,0.098 -0.0657,0.11029 z"
       id="path2-6"
       style="fill:#2e354b;fill-opacity:1;stroke-width:0.155555" />
    <path
       d="m 400.20577,519.68715 c -0.0107,-0.34206 -0.28949,-0.61646 -0.63435,-0.61646 -0.34487,0 -0.62362,0.2744 -0.63436,0.61646 -1.99344,0.3066 -3.52472,2.03311 -3.52472,4.11086 0,2.07775 1.53144,3.80426 3.52472,4.11086 0.0107,0.34206 0.28949,0.61646 0.63436,0.61646 0.34486,0 0.62362,-0.2744 0.63435,-0.61646 1.99344,-0.3066 3.52473,-2.03311 3.52473,-4.11086 0,-2.07775 -1.53129,-3.80426 -3.52473,-4.11086 z m -0.01,8.08498 c -0.0551,-0.29555 -0.31313,-0.51955 -0.62471,-0.51955 -0.31157,0 -0.56964,0.22384 -0.6247,0.51955 -1.92251,-0.30131 -3.39795,-1.96823 -3.39795,-3.97412 0,-2.00588 1.47544,-3.67281 3.3981,-3.97412 0.0551,0.29555 0.31313,0.51955 0.62471,0.51955 0.31157,0 0.56964,-0.22384 0.62471,-0.51955 1.92235,0.30131 3.39779,1.96824 3.39779,3.97412 0,2.00589 -1.47544,3.67281 -3.39795,3.97412 z"
       id="path4"
       style="fill:#2e354b;fill-opacity:1;stroke-width:0.155555" />
    <path
       d="m 406.5714,523.79801 c 0,-0.33895 -0.26538,-0.6132 -0.59951,-0.63264 -0.1274,-1.29951 -0.64322,-2.48655 -1.42924,-3.44368 0.22446,-0.24982 0.21886,-0.63295 -0.0216,-0.87344 -0.24033,-0.24033 -0.62362,-0.24609 -0.87329,-0.0215 -0.95698,-0.78618 -2.14417,-1.30168 -3.44352,-1.42924 -0.0196,-0.33382 -0.29385,-0.59951 -0.6328,-0.59951 -0.33895,0 -0.6132,0.26569 -0.63264,0.59951 -1.29935,0.1274 -2.4864,0.64306 -3.44352,1.42924 -0.24967,-0.22462 -0.63311,-0.21886 -0.8736,0.0215 -0.24033,0.24049 -0.24609,0.62393 -0.0215,0.8736 -0.78618,0.95697 -1.30168,2.14417 -1.42924,3.44352 -0.33413,0.0195 -0.59951,0.29369 -0.59951,0.63264 0,0.33895 0.26538,0.6132 0.59951,0.63264 0.1274,1.29935 0.64306,2.48624 1.42908,3.44337 -0.22462,0.24982 -0.21886,0.63327 0.0215,0.87375 0.24049,0.24033 0.62378,0.24609 0.87376,0.0215 0.95697,0.78633 2.14417,1.30168 3.44352,1.42924 0.0195,0.33382 0.29369,0.59951 0.63264,0.59951 0.33895,0 0.6132,-0.26569 0.63264,-0.59951 1.29935,-0.1274 2.4864,-0.64291 3.44352,-1.42924 0.24998,0.22462 0.63312,0.21886 0.8736,-0.0215 0.24033,-0.24048 0.24609,-0.62393 0.0215,-0.8736 0.78633,-0.95697 1.30168,-2.14417 1.42924,-3.44352 0.33413,-0.0195 0.59951,-0.29369 0.59951,-0.63264 z m -0.73578,0.62642 c -0.12569,1.26668 -0.62844,2.42402 -1.39424,3.35828 -0.24873,-0.17889 -0.59624,-0.15867 -0.81993,0.0652 -0.22369,0.22383 -0.24422,0.57135 -0.0652,0.81992 -0.93411,0.7658 -2.09159,1.26855 -3.35859,1.39425 -0.0479,-0.30396 -0.30862,-0.53683 -0.62611,-0.53683 -0.31749,0 -0.57835,0.23287 -0.62611,0.53683 -1.26699,-0.1257 -2.42448,-0.62845 -3.35859,-1.39425 0.17905,-0.24889 0.15867,-0.59655 -0.0652,-0.82009 -0.22369,-0.22368 -0.57135,-0.24437 -0.82009,-0.0653 -0.7658,-0.93396 -1.2687,-2.09129 -1.39439,-3.35797 0.30395,-0.0482 0.53682,-0.30893 0.53682,-0.62642 0,-0.31749 -0.23287,-0.57836 -0.53682,-0.62642 0.12569,-1.26669 0.62844,-2.42386 1.39408,-3.35813 0.24889,0.1792 0.59671,0.15867 0.82025,-0.0652 0.22368,-0.2237 0.24406,-0.57152 0.0652,-0.82025 0.93426,-0.76564 2.09143,-1.26839 3.35843,-1.39409 0.0479,0.30396 0.30862,0.53683 0.62611,0.53683 0.31748,0 0.57835,-0.23287 0.62611,-0.53683 1.26699,0.1257 2.42433,0.62845 3.35843,1.39409 -0.17889,0.24889 -0.15867,0.5964 0.0652,0.82009 0.22369,0.22369 0.57135,0.24406 0.82009,0.0652 0.7658,0.93411 1.26855,2.09159 1.39424,3.35828 -0.30396,0.0482 -0.53682,0.30893 -0.53682,0.62642 0,0.31749 0.23302,0.57835 0.53713,0.62642 z"
       id="path6"
       style="fill:#2e354b;fill-opacity:1;stroke-width:0.155555" />
  </g>
</svg>
