<?xml version="1.0" encoding="UTF-8" standalone="no"?>
<svg
   width="64"
   version="1.1"
   height="64"
   id="svg15"
   sodipodi:docname="folder-calculate.svg"
   inkscape:version="1.1.1 (3bf5ae0d25, 2021-09-20)"
   xmlns:inkscape="http://www.inkscape.org/namespaces/inkscape"
   xmlns:sodipodi="http://sodipodi.sourceforge.net/DTD/sodipodi-0.dtd"
   xmlns:xlink="http://www.w3.org/1999/xlink"
   xmlns="http://www.w3.org/2000/svg"
   xmlns:svg="http://www.w3.org/2000/svg"
   xmlns:rdf="http://www.w3.org/1999/02/22-rdf-syntax-ns#"
   xmlns:cc="http://creativecommons.org/ns#"
   xmlns:dc="http://purl.org/dc/elements/1.1/">
  <sodipodi:namedview
     pagecolor="#ffffff"
     bordercolor="#666666"
     borderopacity="1"
     objecttolerance="10"
     gridtolerance="10"
     guidetolerance="10"
     inkscape:pageopacity="0"
     inkscape:pageshadow="2"
     inkscape:window-width="1920"
     inkscape:window-height="1015"
     id="namedview17"
     showgrid="true"
     inkscape:zoom="4.90625"
     inkscape:cx="-19.159236"
     inkscape:cy="14.77707"
     inkscape:window-x="0"
     inkscape:window-y="0"
     inkscape:window-maximized="1"
     inkscape:current-layer="layer1"
     inkscape:document-rotation="0"
     inkscape:pagecheckerboard="0">
    <inkscape:grid
       type="xygrid"
       id="grid850" />
  </sodipodi:namedview>
  <defs
     id="defs5455">
    <linearGradient
       inkscape:collect="always"
       id="linearGradient1257">
      <stop
         style="stop-color:#404868;stop-opacity:1"
         offset="0"
         id="stop1253" />
      <stop
         style="stop-color:#becad8;stop-opacity:1"
         offset="1"
         id="stop1255" />
    </linearGradient>
    <linearGradient
       inkscape:collect="always"
       xlink:href="#linearGradient1295"
       id="linearGradient1493"
       gradientUnits="userSpaceOnUse"
       x1="20.750315"
       y1="1025.9873"
       x2="-12.062732"
       y2="995.35931" />
    <linearGradient
       inkscape:collect="always"
       id="linearGradient1295">
      <stop
         style="stop-color:#1d212f;stop-opacity:1;"
         offset="0"
         id="stop1291" />
      <stop
         style="stop-color:#717da8;stop-opacity:1"
         offset="1"
         id="stop1293" />
    </linearGradient>
    <linearGradient
       inkscape:collect="always"
       xlink:href="#linearGradient952"
       id="linearGradient1297"
       x1="2.0000021"
       y1="1025.9873"
       x2="62.938519"
       y2="1025.9873"
       gradientUnits="userSpaceOnUse" />
    <linearGradient
       inkscape:collect="always"
       id="linearGradient952">
      <stop
         style="stop-color:#2e354b;stop-opacity:1"
         offset="0"
         id="stop948" />
      <stop
         style="stop-color:#717da8;stop-opacity:1"
         offset="1"
         id="stop950" />
    </linearGradient>
    <linearGradient
       inkscape:collect="always"
       xlink:href="#linearGradient1257"
       id="linearGradient1259"
       x1="389.57143"
       y1="523.798"
       x2="409.57143"
       y2="523.798"
       gradientUnits="userSpaceOnUse" />
  </defs>
  <metadata
     id="metadata5458">
    <rdf:RDF>
      <cc:Work
         rdf:about="">
        <dc:format>image/svg+xml</dc:format>
        <dc:type
           rdf:resource="http://purl.org/dc/dcmitype/StillImage" />
      </cc:Work>
    </rdf:RDF>
  </metadata>
  <g
     inkscape:label="Capa 1"
     inkscape:groupmode="layer"
     id="layer1"
     transform="translate(-384.57143,-483.798)">
    <g
       transform="matrix(1.0666489,0,0,1.1427479,382.43812,-653.64677)"
       id="g19">
      <rect
         width="60"
         height="42"
         x="2"
         y="1002.36"
         rx="6.5219998"
         ry="6.5619998"
         style="opacity:0.85;fill:url(#linearGradient1493);fill-opacity:1;stroke:none"
         id="rect11" />
      <path
         d="m 8.522,1002.36 c -3.613,0 -6.522,3.3302 -6.522,6.1002 v 0.8998 c 0,-2.77 2.909,-5 6.522,-5 h 46.957 c 3.613,0 6.522,2.23 6.522,5 v -0.8998 c 0,-2.77 -2.909,-6.1002 -6.522,-6.1002 z"
         style="opacity:0.2;fill:#ffffff;fill-opacity:1;stroke:none"
         id="path13"
         sodipodi:nodetypes="sscsscsss" />
      <path
         d="m 8.522,1013.3603 h 10.435 c 14.348,-1.333 11.86095,-6.5781 20.991951,-6.5781 h 15.361736 c 3.612989,0 6.689313,1.4143 6.689313,5.1083 v 25.8035 c 0,3.693 -2.908,6.667 -6.521,6.667 H 8.522 c -3.613,0 -6.522,-2.973 -6.522,-6.667 v -18.667 c 0,-4 2.609,-5.6667 6.522,-5.6667 z"
         style="opacity:0.6;fill:url(#linearGradient1297);fill-opacity:1;stroke:none"
         id="path15"
         sodipodi:nodetypes="scsssssssss" />
      <path
         d="m 2,1035.03 v 2.667 c 0,3.693 2.909,6.667 6.522,6.667 h 46.957 c 3.613,0 6.522,-2.973 6.522,-6.667 v -2.667 c 0,3.693 -2.909,7.333 -6.522,7.333 H 8.522 c -3.613,0 -6.522,-3.64 -6.522,-7.333 z"
         style="opacity:0.15;fill:#000000;fill-opacity:1;stroke:none"
         id="path17" />
    </g>
    <rect
       y="532.60095"
       x="424.57144"
       height="0.34285715"
       width="21.866692"
       id="rect4209"
       style="fill:#000000;fill-opacity:1;fill-rule:nonzero;stroke:none;stroke-width:0.422498;stroke-linecap:round;stroke-linejoin:round;stroke-miterlimit:4;stroke-dasharray:none;stroke-dashoffset:0;stroke-opacity:1" />
    <path
       d="m 399.57143,513.798 c -1.75527,0 -3.47976,0.46207 -4.99996,1.3397 -1.52021,0.87779 -2.78248,2.14006 -3.66033,3.66033 -0.87764,1.52021 -1.33971,3.2447 -1.33971,4.99997 0,1.75527 0.46207,3.47976 1.33971,4.99996 0.87778,1.52021 2.14006,2.78248 3.66033,3.66033 1.5202,0.87764 3.24469,1.33971 4.99996,1.33971 1.75527,0 3.47976,-0.46207 4.99997,-1.33971 1.5202,-0.87778 2.78248,-2.14006 3.66033,-3.66033 0.87763,-1.5202 1.3397,-3.24469 1.3397,-4.99996 0,-1.75527 -0.46207,-3.47976 -1.3397,-4.99997 -0.87778,-1.5202 -2.14006,-2.78248 -3.66033,-3.66033 -1.52021,-0.87763 -3.2447,-1.3397 -4.99997,-1.3397 z m -4.66425,5.31246 h 8.12994 v 4.1014 c -1.4e-4,0.0424 -0.009,0.0844 -0.0255,0.12333 0.73857,0.51114 1.22431,1.36327 1.22431,2.32659 0,1.55663 -1.26688,2.82351 -2.82351,2.82351 -0.97446,0 -1.83717,-0.49678 -2.34609,-1.24999 h -4.1589 z m 0.62749,0.6225 v 6.87994 h 3.22752 c -0.10826,-0.29868 -0.17704,-0.61549 -0.17704,-0.95088 0,-1.55663 1.2705,-2.82837 2.82713,-2.82837 0.35197,0 0.68624,0.0731 0.99735,0.19168 v -3.29226 z m 1.56485,0.62749 h 0.62264 v 0.9375 h 0.93625 v 0.62735 h -0.93625 v 0.93638 h -0.62264 v -0.93638 h -0.94239 v -0.62735 h 0.94239 z m 2.18638,0.9375 h 2.50109 v 0.62735 h -2.50109 z m 2.12638,2.16305 c -1.21889,0 -2.19977,0.982 -2.19963,2.20088 0,0.37639 0.10198,0.72474 0.2673,1.03388 0.0483,0.0457 0.0808,0.10561 0.0928,0.1709 0.39243,0.59961 1.06681,0.9961 1.83956,0.9961 1.21888,0 2.19598,-0.98199 2.19598,-2.20087 0,-1.21889 -0.9771,-2.20088 -2.19598,-2.20088 z m -4.66426,0.31375 0.66167,0.66282 0.66282,-0.66282 0.44307,0.44307 -0.66153,0.66153 0.66153,0.66293 -0.44307,0.44307 -0.66282,-0.66167 -0.66167,0.66167 -0.44307,-0.44307 0.66282,-0.66293 -0.66282,-0.66153 z m 3.38627,0.95939 h 2.55244 v 0.62749 h -2.55244 z m -0.0134,1.25124 h 2.57924 v 0.62736 h -2.57924 z"
       id="path2"
       style="stroke-width:0.035714;fill-opacity:1;fill:url(#linearGradient1259)" />
  </g>
</svg>
