<?xml version="1.0" encoding="UTF-8" standalone="no"?>
<svg
   width="64"
   version="1.1"
   height="64"
   id="svg15"
   sodipodi:docname="folder-build.svg"
   inkscape:version="1.1.1 (3bf5ae0d25, 2021-09-20)"
   xmlns:inkscape="http://www.inkscape.org/namespaces/inkscape"
   xmlns:sodipodi="http://sodipodi.sourceforge.net/DTD/sodipodi-0.dtd"
   xmlns:xlink="http://www.w3.org/1999/xlink"
   xmlns="http://www.w3.org/2000/svg"
   xmlns:svg="http://www.w3.org/2000/svg"
   xmlns:rdf="http://www.w3.org/1999/02/22-rdf-syntax-ns#"
   xmlns:cc="http://creativecommons.org/ns#"
   xmlns:dc="http://purl.org/dc/elements/1.1/">
  <sodipodi:namedview
     pagecolor="#ffffff"
     bordercolor="#666666"
     borderopacity="1"
     objecttolerance="10"
     gridtolerance="10"
     guidetolerance="10"
     inkscape:pageopacity="0"
     inkscape:pageshadow="2"
     inkscape:window-width="1920"
     inkscape:window-height="1015"
     id="namedview17"
     showgrid="true"
     inkscape:zoom="4.90625"
     inkscape:cx="-10.191083"
     inkscape:cy="17.019108"
     inkscape:window-x="0"
     inkscape:window-y="0"
     inkscape:window-maximized="1"
     inkscape:current-layer="layer1"
     inkscape:document-rotation="0"
     inkscape:pagecheckerboard="0">
    <inkscape:grid
       type="xygrid"
       id="grid850" />
  </sodipodi:namedview>
  <defs
     id="defs5455">
    <linearGradient
       inkscape:collect="always"
       id="linearGradient1635">
      <stop
         style="stop-color:#404868;stop-opacity:1"
         offset="0"
         id="stop1631" />
      <stop
         style="stop-color:#becad8;stop-opacity:1"
         offset="1"
         id="stop1633" />
    </linearGradient>
    <linearGradient
       inkscape:collect="always"
       xlink:href="#linearGradient1295"
       id="linearGradient1493"
       gradientUnits="userSpaceOnUse"
       x1="20.750315"
       y1="1025.9873"
       x2="-12.062732"
       y2="995.35931" />
    <linearGradient
       inkscape:collect="always"
       id="linearGradient1295">
      <stop
         style="stop-color:#1d212f;stop-opacity:1;"
         offset="0"
         id="stop1291" />
      <stop
         style="stop-color:#717da8;stop-opacity:1"
         offset="1"
         id="stop1293" />
    </linearGradient>
    <linearGradient
       inkscape:collect="always"
       xlink:href="#linearGradient952"
       id="linearGradient1297"
       x1="2.0000021"
       y1="1025.9873"
       x2="62.938519"
       y2="1025.9873"
       gradientUnits="userSpaceOnUse" />
    <linearGradient
       inkscape:collect="always"
       id="linearGradient952">
      <stop
         style="stop-color:#2e354b;stop-opacity:1"
         offset="0"
         id="stop948" />
      <stop
         style="stop-color:#717da8;stop-opacity:1"
         offset="1"
         id="stop950" />
    </linearGradient>
    <linearGradient
       inkscape:collect="always"
       xlink:href="#linearGradient1635"
       id="linearGradient1637"
       x1="389.57143"
       y1="523.798"
       x2="409.57142"
       y2="523.798"
       gradientUnits="userSpaceOnUse" />
  </defs>
  <metadata
     id="metadata5458">
    <rdf:RDF>
      <cc:Work
         rdf:about="">
        <dc:format>image/svg+xml</dc:format>
        <dc:type
           rdf:resource="http://purl.org/dc/dcmitype/StillImage" />
      </cc:Work>
    </rdf:RDF>
  </metadata>
  <g
     inkscape:label="Capa 1"
     inkscape:groupmode="layer"
     id="layer1"
     transform="translate(-384.57143,-483.798)">
    <g
       transform="matrix(1.0666489,0,0,1.1427479,382.43812,-653.64677)"
       id="g19">
      <rect
         width="60"
         height="42"
         x="2"
         y="1002.36"
         rx="6.5219998"
         ry="6.5619998"
         style="opacity:0.85;fill:url(#linearGradient1493);fill-opacity:1;stroke:none"
         id="rect11" />
      <path
         d="m 8.522,1002.36 c -3.613,0 -6.522,3.3302 -6.522,6.1002 v 0.8998 c 0,-2.77 2.909,-5 6.522,-5 h 46.957 c 3.613,0 6.522,2.23 6.522,5 v -0.8998 c 0,-2.77 -2.909,-6.1002 -6.522,-6.1002 z"
         style="opacity:0.2;fill:#ffffff;fill-opacity:1;stroke:none"
         id="path13"
         sodipodi:nodetypes="sscsscsss" />
      <path
         d="m 8.522,1013.3603 h 10.435 c 14.348,-1.333 11.86095,-6.5781 20.991951,-6.5781 h 15.361736 c 3.612989,0 6.689313,1.4143 6.689313,5.1083 v 25.8035 c 0,3.693 -2.908,6.667 -6.521,6.667 H 8.522 c -3.613,0 -6.522,-2.973 -6.522,-6.667 v -18.667 c 0,-4 2.609,-5.6667 6.522,-5.6667 z"
         style="opacity:0.6;fill:url(#linearGradient1297);fill-opacity:1;stroke:none"
         id="path15"
         sodipodi:nodetypes="scsssssssss" />
      <path
         d="m 2,1035.03 v 2.667 c 0,3.693 2.909,6.667 6.522,6.667 h 46.957 c 3.613,0 6.522,-2.973 6.522,-6.667 v -2.667 c 0,3.693 -2.909,7.333 -6.522,7.333 H 8.522 c -3.613,0 -6.522,-3.64 -6.522,-7.333 z"
         style="opacity:0.15;fill:#000000;fill-opacity:1;stroke:none"
         id="path17" />
    </g>
    <rect
       y="532.60095"
       x="424.57144"
       height="0.34285715"
       width="21.866692"
       id="rect4209"
       style="fill:#000000;fill-opacity:1;fill-rule:nonzero;stroke:none;stroke-width:0.422498;stroke-linecap:round;stroke-linejoin:round;stroke-miterlimit:4;stroke-dasharray:none;stroke-dashoffset:0;stroke-opacity:1" />
    <path
       d="m 399.57143,513.798 c 5.51919,0 9.99999,4.48081 9.99999,10 0,5.5192 -4.4808,10 -9.99999,10 -5.5192,0 -10,-4.4808 -10,-10 0,-5.51919 4.4808,-10 10,-10 z m 4.69509,11.43616 c -0.0909,-0.12242 -0.19915,-0.23071 -0.32157,-0.32157 l -0.2403,0.15468 c -0.12156,-0.076 -0.25495,-0.13148 -0.39465,-0.16357 l -0.0607,-0.27937 c -0.15067,-0.0223 -0.30396,-0.0223 -0.45465,0 l -0.0607,0.27937 c -0.13986,0.0321 -0.27327,0.0874 -0.39464,0.16357 l -0.2403,-0.15468 c -0.12242,0.0909 -0.23071,0.19915 -0.32157,0.32157 l 0.15468,0.2403 c -0.076,0.12156 -0.13149,0.25496 -0.16357,0.39482 l -0.2792,0.0605 c -0.0223,0.15085 -0.0223,0.30396 0,0.45465 l 0.2792,0.0607 c 0.0321,0.13969 0.0874,0.27309 0.16357,0.39464 l -0.15468,0.2403 c 0.0909,0.12242 0.19915,0.23071 0.32157,0.32157 l 0.2403,-0.15468 c 0.12155,0.0762 0.25495,0.13149 0.39464,0.16357 l 0.0607,0.27937 c 0.15067,0.0223 0.30396,0.0223 0.45465,0 l 0.0607,-0.27937 c 0.13986,-0.0321 0.27327,-0.0874 0.39465,-0.16357 l 0.2403,0.15468 c 0.12242,-0.0909 0.23072,-0.19915 0.32157,-0.32157 l -0.15468,-0.2403 c 0.076,-0.12156 0.13149,-0.25495 0.16358,-0.39464 l 0.27919,-0.0607 c 0.0223,-0.15067 0.0223,-0.30396 0,-0.45465 l -0.27919,-0.0605 c -0.0321,-0.13986 -0.0874,-0.27326 -0.16358,-0.39482 z m -5.49598,-5.30491 c -0.35628,-0.0528 -0.71849,-0.0528 -1.07474,0 l -0.14316,0.66004 c -0.33046,0.0759 -0.64576,0.20665 -0.93295,0.38644 l -0.56799,-0.36551 c -0.28914,0.2145 -0.54531,0.47067 -0.75996,0.75996 l 0.36552,0.56799 c -0.17997,0.28721 -0.31058,0.60268 -0.38645,0.93295 l -0.66004,0.14316 c -0.0528,0.35628 -0.0528,0.71849 0,1.07456 l 0.66004,0.14317 c 0.0759,0.33045 0.20648,0.64575 0.38645,0.93294 l -0.36552,0.56799 c 0.21466,0.28914 0.47067,0.54531 0.75996,0.75983 l 0.56799,-0.36534 c 0.2872,0.17996 0.60268,0.31057 0.93295,0.38644 l 0.14316,0.66004 c 0.35628,0.0528 0.71849,0.0528 1.07474,0 l 0.14317,-0.66004 c 0.33027,-0.0759 0.64575,-0.20648 0.93294,-0.38644 l 0.56799,0.36534 c 0.28931,-0.2145 0.54531,-0.47067 0.75996,-0.75983 l -0.36552,-0.56799 c 0.17997,-0.28721 0.31059,-0.60267 0.38643,-0.93294 l 0.66006,-0.14317 c 0.0528,-0.35627 0.0528,-0.71831 0,-1.07456 l -0.66006,-0.14316 c -0.0759,-0.33029 -0.20664,-0.64576 -0.38643,-0.93295 l 0.36552,-0.56799 c -0.21468,-0.28931 -0.47067,-0.54549 -0.75996,-0.75996 l -0.56799,0.36551 c -0.28722,-0.17996 -0.60268,-0.31057 -0.93294,-0.38644 z m 4.91964,5.55982 c 0.36883,0.36883 0.36883,0.96786 0,1.33665 -0.36884,0.36883 -0.96786,0.36883 -1.33683,0 -0.36884,-0.36882 -0.36884,-0.96785 0,-1.33665 0.36883,-0.36879 0.96786,-0.36882 1.33683,0 z m -5.45714,-4.17147 c 1.23308,0 2.23424,1.00116 2.23424,2.23424 0,1.23308 -1.00116,2.23424 -2.23424,2.23424 -1.23309,0 -2.23425,-1.00116 -2.23425,-2.23424 0,-1.23308 1.00116,-2.23424 2.23425,-2.23424 z"
       fill-rule="evenodd"
       id="path73"
       style="stroke-width:0.0446429;fill-opacity:1;fill:url(#linearGradient1637)" />
  </g>
</svg>
