<?xml version="1.0" encoding="UTF-8" standalone="no"?>
<svg
   width="64"
   version="1.1"
   height="64"
   id="svg15"
   sodipodi:docname="folder-rpm.svg"
   inkscape:version="1.1.2 (0a00cf5339, 2022-02-04)"
   xmlns:inkscape="http://www.inkscape.org/namespaces/inkscape"
   xmlns:sodipodi="http://sodipodi.sourceforge.net/DTD/sodipodi-0.dtd"
   xmlns:xlink="http://www.w3.org/1999/xlink"
   xmlns="http://www.w3.org/2000/svg"
   xmlns:svg="http://www.w3.org/2000/svg"
   xmlns:rdf="http://www.w3.org/1999/02/22-rdf-syntax-ns#"
   xmlns:cc="http://creativecommons.org/ns#"
   xmlns:dc="http://purl.org/dc/elements/1.1/">
  <sodipodi:namedview
     pagecolor="#ffffff"
     bordercolor="#666666"
     borderopacity="1"
     objecttolerance="10"
     gridtolerance="10"
     guidetolerance="10"
     inkscape:pageopacity="0"
     inkscape:pageshadow="2"
     inkscape:window-width="1920"
     inkscape:window-height="1015"
     id="namedview17"
     showgrid="true"
     inkscape:zoom="9.8124999"
     inkscape:cx="17.528663"
     inkscape:cy="40.203822"
     inkscape:window-x="0"
     inkscape:window-y="0"
     inkscape:window-maximized="1"
     inkscape:current-layer="layer1"
     inkscape:pagecheckerboard="0">
    <inkscape:grid
       type="xygrid"
       id="grid874" />
  </sodipodi:namedview>
  <defs
     id="defs5455">
    <linearGradient
       inkscape:collect="always"
       id="linearGradient1061">
      <stop
         style="stop-color:#404868;stop-opacity:1"
         offset="0"
         id="stop1057" />
      <stop
         style="stop-color:#becad8;stop-opacity:1"
         offset="1"
         id="stop1059" />
    </linearGradient>
    <linearGradient
       id="linearGradient4194">
      <stop
         style="stop-color:#b5006a"
         id="stop4196" />
      <stop
         offset="1"
         style="stop-color:#c70073"
         id="stop4198" />
    </linearGradient>
    <linearGradient
       inkscape:collect="always"
       xlink:href="#linearGradient1295"
       id="linearGradient1493"
       gradientUnits="userSpaceOnUse"
       x1="20.750315"
       y1="1025.9873"
       x2="-12.062732"
       y2="995.35931" />
    <linearGradient
       inkscape:collect="always"
       id="linearGradient1295">
      <stop
         style="stop-color:#1d212f;stop-opacity:1;"
         offset="0"
         id="stop1291" />
      <stop
         style="stop-color:#717da8;stop-opacity:1"
         offset="1"
         id="stop1293" />
    </linearGradient>
    <linearGradient
       inkscape:collect="always"
       xlink:href="#linearGradient952"
       id="linearGradient1297"
       x1="2.0000021"
       y1="1025.9873"
       x2="62.938519"
       y2="1025.9873"
       gradientUnits="userSpaceOnUse" />
    <linearGradient
       inkscape:collect="always"
       id="linearGradient952">
      <stop
         style="stop-color:#2e354b;stop-opacity:1"
         offset="0"
         id="stop948" />
      <stop
         style="stop-color:#717da8;stop-opacity:1"
         offset="1"
         id="stop950" />
    </linearGradient>
    <linearGradient
       inkscape:collect="always"
       xlink:href="#linearGradient1061"
       id="linearGradient1063"
       x1="96.245"
       y1="280.0025"
       x2="603.745"
       y2="280.0025"
       gradientUnits="userSpaceOnUse" />
  </defs>
  <metadata
     id="metadata5458">
    <rdf:RDF>
      <cc:Work
         rdf:about="">
        <dc:format>image/svg+xml</dc:format>
        <dc:type
           rdf:resource="http://purl.org/dc/dcmitype/StillImage" />
      </cc:Work>
    </rdf:RDF>
  </metadata>
  <g
     inkscape:label="Capa 1"
     inkscape:groupmode="layer"
     id="layer1"
     transform="translate(-384.57143,-483.798)">
    <g
       transform="matrix(1.0666489,0,0,1.1427479,382.43812,-653.64677)"
       id="g19">
      <rect
         width="60"
         height="42"
         x="2"
         y="1002.36"
         rx="6.5219998"
         ry="6.5619998"
         style="opacity:0.85;fill:url(#linearGradient1493);fill-opacity:1;stroke:none"
         id="rect11" />
      <path
         d="m 8.522,1002.36 c -3.613,0 -6.522,3.3302 -6.522,6.1002 v 0.8998 c 0,-2.77 2.909,-5 6.522,-5 h 46.957 c 3.613,0 6.522,2.23 6.522,5 v -0.8998 c 0,-2.77 -2.909,-6.1002 -6.522,-6.1002 z"
         style="opacity:0.2;fill:#ffffff;fill-opacity:1;stroke:none"
         id="path13"
         sodipodi:nodetypes="sscsscsss" />
      <path
         d="m 8.522,1013.3603 h 10.435 c 14.348,-1.333 11.86095,-6.5781 20.991951,-6.5781 h 15.361736 c 3.612989,0 6.689313,1.4143 6.689313,5.1083 v 25.8035 c 0,3.693 -2.908,6.667 -6.521,6.667 H 8.522 c -3.613,0 -6.522,-2.973 -6.522,-6.667 v -18.667 c 0,-4 2.609,-5.6667 6.522,-5.6667 z"
         style="opacity:0.6;fill:url(#linearGradient1297);fill-opacity:1;stroke:none"
         id="path15"
         sodipodi:nodetypes="scsssssssss" />
      <path
         d="m 2,1035.03 v 2.667 c 0,3.693 2.909,6.667 6.522,6.667 h 46.957 c 3.613,0 6.522,-2.973 6.522,-6.667 v -2.667 c 0,3.693 -2.909,7.333 -6.522,7.333 H 8.522 c -3.613,0 -6.522,-3.64 -6.522,-7.333 z"
         style="opacity:0.15;fill:#000000;fill-opacity:1;stroke:none"
         id="path17" />
    </g>
    <rect
       y="532.59747"
       x="424.57144"
       height="0.34285715"
       width="21.866692"
       id="rect4209"
       style="fill:#000000;fill-opacity:1;fill-rule:nonzero;stroke:none;stroke-width:0.422498;stroke-linecap:round;stroke-linejoin:round;stroke-miterlimit:4;stroke-dasharray:none;stroke-dashoffset:0;stroke-opacity:1" />
    <g
       id="g6"
       transform="matrix(0.03940848,0,0,0.03940848,385.77856,512.76353)"
       style="fill-opacity:1;fill:url(#linearGradient1063)">
      <path
         d="m 350,26.25 c -44.543,0 -88.301,11.723 -126.88,33.996 -38.574,22.27 -70.609,54.305 -92.879,92.879 -22.27,38.574 -33.996,82.332 -33.996,126.88 0,67.297 26.734,131.84 74.32,179.43 47.59,47.586 112.13,74.32 179.43,74.32 67.3,0 131.84,-26.734 179.43,-74.32 47.586,-47.59 74.32,-112.13 74.32,-179.43 0,-44.543 -11.723,-88.301 -33.996,-126.88 C 547.479,114.551 515.444,82.516 476.87,60.246 438.296,37.973 394.538,26.25 349.99,26.25 Z m 8.75,41.766 c 12.57,0.52734 25.141,2.2891 37.633,5.0938 l -3.8281,14.355 c -0.74609,2.2852 -0.51953,4.7734 0.62891,6.8867 1.1445,2.1133 3.1094,3.6602 5.4297,4.2812 2.3242,0.61719 4.7969,0.25781 6.8438,-1 2.0469,-1.2617 3.4844,-3.3047 3.9805,-5.6562 l 3.8633,-14.32 c 2.7539,0.85938 5.5352,1.6055 8.2695,2.5977 9.3203,3.3398 18.254,7.3555 26.832,11.863 l -19.961,34.555 c -6.4219,-3.3945 -13.07,-6.4883 -20.027,-9.0586 -16.246,-6.0039 -32.98,-9.3242 -49.664,-10.184 z m -17.5,0.26562 v 39.203 c -24.34,1.2773 -48.152,7.7891 -69.727,19.141 l -19.789,-34.316 c 11.262,-5.8867 22.863,-11.059 34.934,-14.832 l 3.8984,14.523 h -0.004 c 0.58984,2.2539 2.0508,4.1797 4.0664,5.3516 2.0117,1.168 4.4062,1.4922 6.6562,0.89063 2.25,-0.60156 4.168,-2.0703 5.332,-4.0898 1.1641,-2.0156 1.4727,-4.4141 0.86328,-6.6602 l -3.8281,-14.289 c 12.34,-2.7656 24.895,-4.3906 37.598,-4.9219 z m 122.29,32.609 c 10.762,6.8555 20.719,14.699 29.941,23.273 l -10.355,10.391 c -1.7031,1.6289 -2.6758,3.875 -2.7031,6.2266 -0.0273,2.3555 0.89844,4.6211 2.5625,6.2891 1.668,1.6641 3.9336,2.5859 6.2852,2.5625 2.3555,-0.0273 4.6016,-1.0039 6.2305,-2.7031 l 10.289,-10.289 c 8.5078,9.3516 16.234,19.367 22.934,30.078 l -35.238,20.336 h -0.004 c -0.21875,0.125 -0.4375,0.25781 -0.64453,0.39844 -12.43,-20.48 -29.172,-38.199 -49.355,-51.781 z m -227.02,0.19922 19.996,34.59 c -13.578,9.0586 -26.02,20.113 -36.742,33.188 -4.832,5.8945 -9.1211,12.07 -13.023,18.422 -0.082,-0.0664 -0.16406,-0.13281 -0.24609,-0.19922 l -35.648,-20.609 c 4.9023,-7.7539 10.266,-15.301 16.27,-22.488 2.207,-2.6445 4.6953,-4.9414 7.0078,-7.4531 l 10.355,10.391 c 3.418,3.418 8.957,3.4219 12.379,0.008 3.4258,-3.4141 3.4375,-8.9531 0.0273,-12.379 l -10.527,-10.527 c 9.4062,-8.668 19.527,-16.273 30.148,-23.004 z m 113.48,56.5 25.977,151.62 v -0.004 c 5.7891,6.4141 9.0039,14.738 9.0234,23.379 0,9.2812 -3.6875,18.184 -10.25,24.75 -6.5664,6.5625 -15.469,10.25 -24.75,10.25 -9.281,0 -18.184,-3.6875 -24.75,-10.25 -6.5625,-6.5664 -10.25,-15.469 -10.25,-24.75 0.0195,-8.6406 3.2344,-16.965 9.0234,-23.379 z m -187.89,24.133 35.648,20.574 v -0.004 c 0.1875,0.11719 0.38281,0.22656 0.57812,0.33203 -10.398,21.785 -15.793,45.375 -16.168,69.145 -0.93359,-0.31641 -1.918,-0.47266 -2.9062,-0.46094 h -40.672 c 0.4375,-12.633 2.0547,-25.203 4.75,-37.562 l 14.082,3.7969 v -0.004 c 4.6719,1.2539 9.4766,-1.5156 10.734,-6.1875 1.2539,-4.6719 -1.5156,-9.4766 -6.1875,-10.73 l -14.219,-3.7969 c 3.6992,-12.043 8.4609,-23.812 14.355,-35.137 z m 375.29,0.26562 c 5.7656,11.164 10.441,22.906 14.184,35.035 l -13.57,3.625 0.004,-0.008 c -2.2617,0.58984 -4.1953,2.0547 -5.3672,4.0742 -1.1758,2.0195 -1.4961,4.4219 -0.89062,6.6797 0.60547,2.2539 2.0898,4.1719 4.1172,5.332 2.0273,1.1562 4.4336,1.457 6.6875,0.83203 l 13.5,-3.625 c 2.7383,12.387 4.5508,25.07 5.0586,38.043 l -43.648,0.52734 c -0.48828,-24.602 -6.3164,-48.242 -16.441,-69.625 v 0.004 c 0.41016,-0.16797 0.80859,-0.36719 1.1914,-0.59766 z m -354.65,106.16 c 1.9453,23.918 8.9102,47.633 21.09,69.418 l -39.992,22.457 c -6.3828,-11.906 -11.434,-24.262 -15.414,-36.844 l 13.535,-3.625 v -0.004 c 4.3438,-1.0391 7.207,-5.1836 6.6445,-9.6133 -0.55859,-4.4297 -4.3672,-7.7266 -8.832,-7.6484 -0.78516,0.004 -1.5664,0.11719 -2.3242,0.33203 l -13.602,3.6562 c -2.8281,-12.379 -4.6367,-24.898 -5.2305,-37.461 h 40.641 c 1.1953,0.0156 2.3828,-0.21875 3.4844,-0.67969 z m 105.99,166.93 h 17.5 v 17.5 h -17.5 z m 35,0 h 17.5 v 17.5 h -17.5 z m 35,0 h 17.5 v 17.5 h -17.5 z m 35,0 h 17.5 v 17.5 h -17.5 z"
         id="path2"
         style="fill-opacity:1;fill:url(#linearGradient1063)" />
      <path
         d="m 358.75,332.5 c 0,4.8359 -3.918,8.75 -8.75,8.75 -4.832,0 -8.75,-3.9141 -8.75,-8.75 0,-4.832 3.918,-8.75 8.75,-8.75 4.832,0 8.75,3.918 8.75,8.75 z"
         id="path4"
         style="fill-opacity:1;fill:url(#linearGradient1063)" />
    </g>
  </g>
</svg>
