<?xml version="1.0" encoding="UTF-8" standalone="no"?>
<svg
   width="64"
   version="1.1"
   height="64"
   id="svg15"
   sodipodi:docname="folder-library.svg"
   inkscape:version="1.1.2 (0a00cf5339, 2022-02-04)"
   xmlns:inkscape="http://www.inkscape.org/namespaces/inkscape"
   xmlns:sodipodi="http://sodipodi.sourceforge.net/DTD/sodipodi-0.dtd"
   xmlns:xlink="http://www.w3.org/1999/xlink"
   xmlns="http://www.w3.org/2000/svg"
   xmlns:svg="http://www.w3.org/2000/svg"
   xmlns:rdf="http://www.w3.org/1999/02/22-rdf-syntax-ns#"
   xmlns:cc="http://creativecommons.org/ns#"
   xmlns:dc="http://purl.org/dc/elements/1.1/">
  <sodipodi:namedview
     pagecolor="#ffffff"
     bordercolor="#666666"
     borderopacity="1"
     objecttolerance="10"
     gridtolerance="10"
     guidetolerance="10"
     inkscape:pageopacity="0"
     inkscape:pageshadow="2"
     inkscape:window-width="1920"
     inkscape:window-height="1015"
     id="namedview17"
     showgrid="true"
     inkscape:zoom="9.8124999"
     inkscape:cx="28.738854"
     inkscape:cy="41.22293"
     inkscape:window-x="0"
     inkscape:window-y="0"
     inkscape:window-maximized="1"
     inkscape:current-layer="layer1"
     inkscape:pagecheckerboard="0">
    <inkscape:grid
       type="xygrid"
       id="grid981" />
  </sodipodi:namedview>
  <defs
     id="defs5455">
    <linearGradient
       id="linearGradient4194">
      <stop
         style="stop-color:#b5006a"
         id="stop4196" />
      <stop
         offset="1"
         style="stop-color:#c70073"
         id="stop4198" />
    </linearGradient>
    <linearGradient
       inkscape:collect="always"
       xlink:href="#linearGradient1295"
       id="linearGradient1493"
       gradientUnits="userSpaceOnUse"
       x1="20.750315"
       y1="1025.9873"
       x2="-12.062732"
       y2="995.35931" />
    <linearGradient
       inkscape:collect="always"
       id="linearGradient1295">
      <stop
         style="stop-color:#1d212f;stop-opacity:1;"
         offset="0"
         id="stop1291" />
      <stop
         style="stop-color:#717da8;stop-opacity:1"
         offset="1"
         id="stop1293" />
    </linearGradient>
    <linearGradient
       inkscape:collect="always"
       xlink:href="#linearGradient952"
       id="linearGradient1297"
       x1="2.0000021"
       y1="1025.9873"
       x2="62.938519"
       y2="1025.9873"
       gradientUnits="userSpaceOnUse" />
    <linearGradient
       inkscape:collect="always"
       id="linearGradient952">
      <stop
         style="stop-color:#2e354b;stop-opacity:1"
         offset="0"
         id="stop948" />
      <stop
         style="stop-color:#717da8;stop-opacity:1"
         offset="1"
         id="stop950" />
    </linearGradient>
    <linearGradient
       inkscape:collect="always"
       xlink:href="#linearGradient876"
       id="linearGradient878"
       x1="5"
       y1="40"
       x2="24.99983"
       y2="40"
       gradientUnits="userSpaceOnUse"
       gradientTransform="translate(384.57143,483.798)" />
    <linearGradient
       inkscape:collect="always"
       id="linearGradient876">
      <stop
         style="stop-color:#404868;stop-opacity:1"
         offset="0"
         id="stop872" />
      <stop
         style="stop-color:#becad8;stop-opacity:1"
         offset="1"
         id="stop874" />
    </linearGradient>
  </defs>
  <metadata
     id="metadata5458">
    <rdf:RDF>
      <cc:Work
         rdf:about="">
        <dc:format>image/svg+xml</dc:format>
        <dc:type
           rdf:resource="http://purl.org/dc/dcmitype/StillImage" />
      </cc:Work>
    </rdf:RDF>
  </metadata>
  <g
     inkscape:label="Capa 1"
     inkscape:groupmode="layer"
     id="layer1"
     transform="translate(-384.57143,-483.798)">
    <g
       transform="matrix(1.0666489,0,0,1.1427479,382.43813,-653.64677)"
       id="g19">
      <rect
         width="60"
         height="42"
         x="2"
         y="1002.36"
         rx="6.5219998"
         ry="6.5619998"
         style="opacity:0.85;fill:url(#linearGradient1493);fill-opacity:1;stroke:none"
         id="rect11" />
      <path
         d="m 8.522,1002.36 c -3.613,0 -6.522,3.3302 -6.522,6.1002 v 0.8998 c 0,-2.77 2.909,-5 6.522,-5 h 46.957 c 3.613,0 6.522,2.23 6.522,5 v -0.8998 c 0,-2.77 -2.909,-6.1002 -6.522,-6.1002 z"
         style="opacity:0.2;fill:#ffffff;fill-opacity:1;stroke:none"
         id="path13"
         sodipodi:nodetypes="sscsscsss" />
      <path
         d="m 8.522,1013.3603 h 10.435 c 14.348,-1.333 11.86095,-6.5781 20.991951,-6.5781 h 15.361736 c 3.612989,0 6.689313,1.4143 6.689313,5.1083 v 25.8035 c 0,3.693 -2.908,6.667 -6.521,6.667 H 8.522 c -3.613,0 -6.522,-2.973 -6.522,-6.667 v -18.667 c 0,-4 2.609,-5.6667 6.522,-5.6667 z"
         style="opacity:0.6;fill:url(#linearGradient1297);fill-opacity:1;stroke:none"
         id="path15"
         sodipodi:nodetypes="scsssssssss" />
      <path
         d="m 2,1035.03 v 2.667 c 0,3.693 2.909,6.667 6.522,6.667 h 46.957 c 3.613,0 6.522,-2.973 6.522,-6.667 v -2.667 c 0,3.693 -2.909,7.333 -6.522,7.333 H 8.522 c -3.613,0 -6.522,-3.64 -6.522,-7.333 z"
         style="opacity:0.15;fill:#000000;fill-opacity:1;stroke:none"
         id="path17" />
    </g>
    <rect
       y="532.59772"
       x="424.57144"
       height="0.34285715"
       width="21.866692"
       id="rect4209"
       style="fill:#000000;fill-opacity:1;fill-rule:nonzero;stroke:none;stroke-width:0.422498;stroke-linecap:round;stroke-linejoin:round;stroke-miterlimit:4;stroke-dasharray:none;stroke-dashoffset:0;stroke-opacity:1" />
    <path
       d="m 408.78868,519.91903 c -0.49831,-1.18624 -1.23374,-2.25382 -2.13516,-3.17909 -0.92528,-0.92528 -1.99286,-1.63707 -3.1791,-2.13516 -1.23391,-0.52212 -2.53866,-0.80678 -3.89106,-0.80678 -1.35241,0 -2.65716,0.28465 -3.89089,0.80661 -1.18625,0.4983 -2.25383,1.23373 -3.1791,2.13516 -0.92528,0.92527 -1.63707,1.99285 -2.13516,3.1791 -0.52212,1.23391 -0.80678,2.53865 -0.80678,3.89106 0,1.3524 0.28465,2.65715 0.80661,3.89089 0.4983,1.18624 1.23374,2.25382 2.13516,3.1791 0.92527,0.92527 1.99285,1.63706 3.1791,2.13516 1.23374,0.52195 2.53865,0.78292 3.89089,0.78292 1.3524,0 2.65715,-0.26098 3.89089,-0.78292 1.18624,-0.49831 2.25382,-1.23374 3.1791,-2.13516 0.92527,-0.92528 1.63706,-1.99286 2.13516,-3.1791 0.52195,-1.23374 0.78292,-2.53866 0.78292,-3.89089 3.4e-4,-1.35241 -0.26065,-2.65715 -0.78263,-3.8909 z"
       id="path67"
       style="fill:url(#linearGradient878);fill-opacity:1;stroke-width:0.042366" />
    <path
       d="m 405.17742,522.20195 v 0.73796 h -11.02208 v -0.73796 z m -12.00599,6.8522 v 0.74385 h 12.88448 v -0.74385 z m 0.89599,-1.04241 v 0.73797 h 11.1275 v -0.76149 z m 10.14359,-4.04103 v 3.22699 h 0.21675 v 0.26943 h 0.16982 v 0.35141 l -1.90929,-1.4e-4 v -0.35139 h 0.14643 v -0.26943 h 0.25177 v -3.25041 h -0.25177 v -0.26943 h -0.14054 v -0.35139 l 1.8975,1.4e-4 v 0.35139 h -0.1757 v 0.26943 z m -1.12453,3.32646 h -0.10536 v 0.0644 h 0.10536 z m 1.11276,0 v 0.0644 h 0.0996 v -0.0644 z m 0,0 v 0.0644 h 0.0996 v -0.0644 z m -1.21811,0 v 0.0644 h 0.10538 v -0.0644 z m -3.9885,0.12301 v -0.26942 h -0.25177 v -3.20361 h 0.24603 v -0.26944 h 0.14641 v -0.35139 l -1.89763,1.3e-4 v 0.3514 h 0.17569 v 0.26943 h 0.21675 v 3.22699 h -0.21675 v 0.26943 l -0.14053,-1.2e-4 v 0.35139 h 1.8975 v -0.35139 z m 1.24167,-0.26942 v 0.26942 h -0.14641 v 0.3514 h 1.8975 v -0.3514 h -0.16983 v -0.26942 h -0.21674 v -3.20361 h 0.21674 v -0.26944 h 0.17571 v -0.35139 l -1.8975,1.3e-4 v 0.3514 h 0.14053 v 0.26943 h 0.25177 v 3.22699 z m -3.84192,0.26942 v -0.26942 h -0.25177 v -3.20361 h 0.24603 v -0.26944 h 0.14641 v -0.35139 l -1.89763,1.3e-4 v 0.3514 h 0.17569 v 0.26943 h 0.21675 v 3.22699 l -0.21675,-1.2e-4 v 0.26943 h -0.16981 v 0.35139 h 1.8975 v -0.35139 z m 8.42177,-5.51121 h -10.29587 c -0.82582,0 0,-0.62082 0,-0.62082 0,0 3.25629,-2.3953 3.99418,-3.01614 0.30604,-0.30354 0.71966,-0.47401 1.1508,-0.47401 0.43115,0 0.84475,0.17047 1.1508,0.47401 0.74386,0.62084 3.99988,3.01614 3.99988,3.01614 0,0 0.81993,0.62082 0,0.62082 z m -4.57985,-1.26504 h 1.3e-4 c 0,-0.16459 -0.0655,-0.3225 -0.18185,-0.43899 -0.11647,-0.11634 -0.27439,-0.18183 -0.43896,-0.18183 -0.16459,0 -0.32251,0.0655 -0.43899,0.18183 -0.11635,0.11649 -0.18184,0.27441 -0.18184,0.43899 0,0.16472 0.0655,0.32262 0.18184,0.43896 0.11648,0.11649 0.2744,0.18186 0.43899,0.18186 0.1651,0.002 0.32393,-0.0633 0.44067,-0.18015 0.11674,-0.11674 0.18171,-0.27558 0.18014,-0.44068 z"
       id="path2"
       style="stroke-width:0.0334662;fill:#3a435f;fill-opacity:1" />
  </g>
</svg>
