<?xml version="1.0" encoding="UTF-8" standalone="no"?>
<svg
   width="64"
   version="1.1"
   height="64"
   id="svg17"
   sodipodi:docname="folder-script.svg"
   inkscape:version="1.1.2 (0a00cf5339, 2022-02-04)"
   xmlns:inkscape="http://www.inkscape.org/namespaces/inkscape"
   xmlns:sodipodi="http://sodipodi.sourceforge.net/DTD/sodipodi-0.dtd"
   xmlns:xlink="http://www.w3.org/1999/xlink"
   xmlns="http://www.w3.org/2000/svg"
   xmlns:svg="http://www.w3.org/2000/svg"
   xmlns:rdf="http://www.w3.org/1999/02/22-rdf-syntax-ns#"
   xmlns:cc="http://creativecommons.org/ns#"
   xmlns:dc="http://purl.org/dc/elements/1.1/">
  <sodipodi:namedview
     pagecolor="#ffffff"
     bordercolor="#666666"
     borderopacity="1"
     objecttolerance="10"
     gridtolerance="10"
     guidetolerance="10"
     inkscape:pageopacity="0"
     inkscape:pageshadow="2"
     inkscape:window-width="1920"
     inkscape:window-height="1015"
     id="namedview19"
     showgrid="true"
     inkscape:zoom="8"
     inkscape:cx="-8.25"
     inkscape:cy="46.1875"
     inkscape:window-x="0"
     inkscape:window-y="0"
     inkscape:window-maximized="1"
     inkscape:current-layer="layer1"
     inkscape:document-rotation="0"
     showguides="false"
     inkscape:pagecheckerboard="0">
    <inkscape:grid
       type="xygrid"
       id="grid939" />
  </sodipodi:namedview>
  <defs
     id="defs5455">
    <linearGradient
       inkscape:collect="always"
       id="linearGradient1193">
      <stop
         style="stop-color:#404868;stop-opacity:1"
         offset="0"
         id="stop1189" />
      <stop
         style="stop-color:#becad8;stop-opacity:1"
         offset="1"
         id="stop1191" />
    </linearGradient>
    <linearGradient
       inkscape:collect="always"
       xlink:href="#linearGradient1295"
       id="linearGradient1493"
       gradientUnits="userSpaceOnUse"
       x1="20.750315"
       y1="1025.9873"
       x2="-12.062732"
       y2="995.35931" />
    <linearGradient
       inkscape:collect="always"
       id="linearGradient1295">
      <stop
         style="stop-color:#1d212f;stop-opacity:1;"
         offset="0"
         id="stop1291" />
      <stop
         style="stop-color:#717da8;stop-opacity:1"
         offset="1"
         id="stop1293" />
    </linearGradient>
    <linearGradient
       inkscape:collect="always"
       xlink:href="#linearGradient952"
       id="linearGradient1297"
       x1="2.0000021"
       y1="1025.9873"
       x2="62.938519"
       y2="1025.9873"
       gradientUnits="userSpaceOnUse" />
    <linearGradient
       inkscape:collect="always"
       id="linearGradient952">
      <stop
         style="stop-color:#2e354b;stop-opacity:1"
         offset="0"
         id="stop948" />
      <stop
         style="stop-color:#717da8;stop-opacity:1"
         offset="1"
         id="stop950" />
    </linearGradient>
    <linearGradient
       inkscape:collect="always"
       xlink:href="#linearGradient1193"
       id="linearGradient1123"
       x1="389.57143"
       y1="523.798"
       x2="409.57142"
       y2="523.798"
       gradientUnits="userSpaceOnUse" />
  </defs>
  <metadata
     id="metadata5458">
    <rdf:RDF>
      <cc:Work
         rdf:about="">
        <dc:format>image/svg+xml</dc:format>
        <dc:type
           rdf:resource="http://purl.org/dc/dcmitype/StillImage" />
      </cc:Work>
    </rdf:RDF>
  </metadata>
  <g
     inkscape:label="Capa 1"
     inkscape:groupmode="layer"
     id="layer1"
     transform="translate(-384.57143,-483.798)">
    <g
       transform="matrix(1.0666489,0,0,1.1427479,382.43813,-653.64677)"
       id="g19">
      <rect
         width="60"
         height="42"
         x="2"
         y="1002.36"
         rx="6.5219998"
         ry="6.5619998"
         style="opacity:0.85;fill:url(#linearGradient1493);fill-opacity:1;stroke:none"
         id="rect11" />
      <path
         d="m 8.522,1002.36 c -3.613,0 -6.522,3.3302 -6.522,6.1002 v 0.8998 c 0,-2.77 2.909,-5 6.522,-5 h 46.957 c 3.613,0 6.522,2.23 6.522,5 v -0.8998 c 0,-2.77 -2.909,-6.1002 -6.522,-6.1002 z"
         style="opacity:0.2;fill:#ffffff;fill-opacity:1;stroke:none"
         id="path13"
         sodipodi:nodetypes="sscsscsss" />
      <path
         d="m 8.522,1013.3603 h 10.435 c 14.348,-1.333 11.86095,-6.5781 20.991951,-6.5781 h 15.361736 c 3.612989,0 6.689313,1.4143 6.689313,5.1083 v 25.8035 c 0,3.693 -2.908,6.667 -6.521,6.667 H 8.522 c -3.613,0 -6.522,-2.973 -6.522,-6.667 v -18.667 c 0,-4 2.609,-5.6667 6.522,-5.6667 z"
         style="opacity:0.6;fill:url(#linearGradient1297);fill-opacity:1;stroke:none"
         id="path15"
         sodipodi:nodetypes="scsssssssss" />
      <path
         d="m 2,1035.03 v 2.667 c 0,3.693 2.909,6.667 6.522,6.667 h 46.957 c 3.613,0 6.522,-2.973 6.522,-6.667 v -2.667 c 0,3.693 -2.909,7.333 -6.522,7.333 H 8.522 c -3.613,0 -6.522,-3.64 -6.522,-7.333 z"
         style="opacity:0.15;fill:#000000;fill-opacity:1;stroke:none"
         id="path17" />
    </g>
    <rect
       y="532.59814"
       x="424.57144"
       height="0.34285715"
       width="21.866692"
       id="rect4209"
       style="fill:#000000;fill-opacity:1;fill-rule:nonzero;stroke:none;stroke-width:0.422498;stroke-linecap:round;stroke-linejoin:round;stroke-miterlimit:4;stroke-dasharray:none;stroke-dashoffset:0;stroke-opacity:1" />
    <path
       d="m 401.44849,522.35903 c -0.0877,0.0877 -0.0877,0.21053 0,0.2807 l 1.35087,1.35087 -1.35087,1.35087 c -0.0877,0.0877 -0.0877,0.21052 0,0.28069 0.0351,0.0351 0.0877,0.0526 0.14034,0.0526 0.0526,0 0.10525,-0.0176 0.14035,-0.0526 l 1.63157,-1.63156 -1.63157,-1.63157 c -0.0702,-0.0702 -0.19299,-0.0702 -0.28069,0 z"
       id="path67"
       style="stroke-width:0.0400994;fill-opacity:1;fill:#becad8" />
    <path
       d="m 400.2908,521.76275 c -0.10525,-0.0351 -0.22806,0.0175 -0.26314,0.14035 l -1.31574,4.08774 c -0.0351,0.10526 0.0175,0.22807 0.14035,0.26315 0.0175,0 0.0351,0.0176 0.0702,0.0176 0.0877,0 0.17544,-0.0526 0.19298,-0.14035 l 1.31574,-4.08774 c 0.0351,-0.14034 -0.0351,-0.24561 -0.14036,-0.28069 z"
       id="path69"
       style="stroke-width:0.0400994;fill-opacity:1;fill:#becad8" />
    <path
       d="m 397.69436,522.35903 c -0.0877,-0.0877 -0.21051,-0.0877 -0.28068,0 l -1.63158,1.63157 1.63158,1.63156 c 0.0351,0.0351 0.0877,0.0526 0.14034,0.0526 0.0526,0 0.10527,-0.0176 0.14034,-0.0526 0.0877,-0.0877 0.0877,-0.21052 0,-0.28069 l -1.35087,-1.35087 1.35087,-1.35087 c 0.0702,-0.0702 0.0702,-0.19298 0,-0.2807 z"
       id="path71"
       style="stroke-width:0.0400994;fill-opacity:1;fill:#becad8" />
    <path
       d="m 399.57143,513.798 c -5.5261,0 -10,4.47349 -10,10 0,5.52651 4.47349,10 10,10 5.52651,0 9.99999,-4.47349 9.99999,-10 0,-5.52651 -4.47348,-10 -9.99999,-10 z m 3.98235,5.50886 1.614,1.77191 h -1.614 z m 1.71927,9.05245 c -3.10522,0 -8.24526,0.0176 -11.35056,0.0176 -0.0175,-4.08774 -0.0351,-5.10506 -0.0526,-9.17516 h 9.47349 v 2.08767 h 1.92979 z"
       id="path73"
       style="stroke-width:0.0400994;fill-opacity:1;fill:url(#linearGradient1123)" />
  </g>
</svg>
