<?xml version="1.0" encoding="UTF-8" standalone="no"?>
<svg
   width="64"
   version="1.1"
   height="64"
   id="svg15"
   sodipodi:docname="folder-docker.svg"
   inkscape:version="1.1.2 (0a00cf5339, 2022-02-04)"
   xmlns:inkscape="http://www.inkscape.org/namespaces/inkscape"
   xmlns:sodipodi="http://sodipodi.sourceforge.net/DTD/sodipodi-0.dtd"
   xmlns:xlink="http://www.w3.org/1999/xlink"
   xmlns="http://www.w3.org/2000/svg"
   xmlns:svg="http://www.w3.org/2000/svg"
   xmlns:rdf="http://www.w3.org/1999/02/22-rdf-syntax-ns#"
   xmlns:cc="http://creativecommons.org/ns#"
   xmlns:dc="http://purl.org/dc/elements/1.1/">
  <sodipodi:namedview
     pagecolor="#ffffff"
     bordercolor="#666666"
     borderopacity="1"
     objecttolerance="10"
     gridtolerance="10"
     guidetolerance="10"
     inkscape:pageopacity="0"
     inkscape:pageshadow="2"
     inkscape:window-width="1920"
     inkscape:window-height="1015"
     id="namedview17"
     showgrid="true"
     inkscape:zoom="6.9384853"
     inkscape:cx="25.365767"
     inkscape:cy="27.023189"
     inkscape:window-x="0"
     inkscape:window-y="0"
     inkscape:window-maximized="1"
     inkscape:current-layer="layer1"
     inkscape:document-rotation="0"
     inkscape:pagecheckerboard="0">
    <inkscape:grid
       type="xygrid"
       id="grid850" />
  </sodipodi:namedview>
  <defs
     id="defs5455">
    <linearGradient
       inkscape:collect="always"
       xlink:href="#linearGradient1295"
       id="linearGradient1493"
       gradientUnits="userSpaceOnUse"
       x1="20.750315"
       y1="1025.9873"
       x2="-12.062732"
       y2="995.35931" />
    <linearGradient
       inkscape:collect="always"
       id="linearGradient1295">
      <stop
         style="stop-color:#1d212f;stop-opacity:1;"
         offset="0"
         id="stop1291" />
      <stop
         style="stop-color:#717da8;stop-opacity:1"
         offset="1"
         id="stop1293" />
    </linearGradient>
    <linearGradient
       inkscape:collect="always"
       xlink:href="#linearGradient952-5"
       id="linearGradient1297"
       x1="2.0000021"
       y1="1025.9873"
       x2="62.938519"
       y2="1025.9873"
       gradientUnits="userSpaceOnUse" />
    <linearGradient
       inkscape:collect="always"
       id="linearGradient952-5">
      <stop
         style="stop-color:#2e354b;stop-opacity:1"
         offset="0"
         id="stop948" />
      <stop
         style="stop-color:#717da8;stop-opacity:1"
         offset="1"
         id="stop950" />
    </linearGradient>
    <linearGradient
       inkscape:collect="always"
       xlink:href="#linearGradient876"
       id="linearGradient878"
       x1="5"
       y1="40"
       x2="24.99983"
       y2="40"
       gradientUnits="userSpaceOnUse"
       gradientTransform="translate(384.57143,483.798)" />
    <linearGradient
       inkscape:collect="always"
       id="linearGradient876">
      <stop
         style="stop-color:#404868;stop-opacity:1"
         offset="0"
         id="stop872" />
      <stop
         style="stop-color:#becad8;stop-opacity:1"
         offset="1"
         id="stop874" />
    </linearGradient>
  </defs>
  <metadata
     id="metadata5458">
    <rdf:RDF>
      <cc:Work
         rdf:about="">
        <dc:format>image/svg+xml</dc:format>
        <dc:type
           rdf:resource="http://purl.org/dc/dcmitype/StillImage" />
      </cc:Work>
    </rdf:RDF>
  </metadata>
  <g
     inkscape:label="Capa 1"
     inkscape:groupmode="layer"
     id="layer1"
     transform="translate(-384.57143,-483.798)">
    <g
       transform="matrix(1.0666489,0,0,1.1427479,382.43813,-653.64677)"
       id="g19">
      <rect
         width="60"
         height="42"
         x="2"
         y="1002.36"
         rx="6.5219998"
         ry="6.5619998"
         style="opacity:0.85;fill:url(#linearGradient1493);fill-opacity:1;stroke:none"
         id="rect11" />
      <path
         d="m 8.522,1002.36 c -3.613,0 -6.522,3.3302 -6.522,6.1002 v 0.8998 c 0,-2.77 2.909,-5 6.522,-5 h 46.957 c 3.613,0 6.522,2.23 6.522,5 v -0.8998 c 0,-2.77 -2.909,-6.1002 -6.522,-6.1002 z"
         style="opacity:0.2;fill:#ffffff;fill-opacity:1;stroke:none"
         id="path13"
         sodipodi:nodetypes="sscsscsss" />
      <path
         d="m 8.522,1013.3603 h 10.435 c 14.348,-1.333 11.86095,-6.5781 20.991951,-6.5781 h 15.361736 c 3.612989,0 6.689313,1.4143 6.689313,5.1083 v 25.8035 c 0,3.693 -2.908,6.667 -6.521,6.667 H 8.522 c -3.613,0 -6.522,-2.973 -6.522,-6.667 v -18.667 c 0,-4 2.609,-5.6667 6.522,-5.6667 z"
         style="opacity:0.6;fill:url(#linearGradient1297);fill-opacity:1;stroke:none"
         id="path15"
         sodipodi:nodetypes="scsssssssss" />
      <path
         d="m 2,1035.03 v 2.667 c 0,3.693 2.909,6.667 6.522,6.667 h 46.957 c 3.613,0 6.522,-2.973 6.522,-6.667 v -2.667 c 0,3.693 -2.909,7.333 -6.522,7.333 H 8.522 c -3.613,0 -6.522,-3.64 -6.522,-7.333 z"
         style="opacity:0.15;fill:#000000;fill-opacity:1;stroke:none"
         id="path17" />
    </g>
    <path
       d="m 408.78868,519.91903 c -0.49831,-1.18624 -1.23374,-2.25382 -2.13516,-3.17909 -0.92528,-0.92528 -1.99286,-1.63707 -3.1791,-2.13517 -1.23391,-0.52211 -2.53866,-0.80677 -3.89106,-0.80677 -1.35241,0 -2.65716,0.28465 -3.89089,0.80661 -1.18625,0.4983 -2.25383,1.23374 -3.1791,2.13516 -0.92528,0.92527 -1.63707,1.99285 -2.13516,3.1791 -0.52212,1.2339 -0.80678,2.53865 -0.80678,3.89106 0,1.3524 0.28465,2.65715 0.80661,3.89089 0.4983,1.18624 1.23374,2.25382 2.13516,3.1791 0.92527,0.92527 1.99285,1.63706 3.1791,2.13516 1.23374,0.52195 2.53865,0.78292 3.89089,0.78292 1.3524,0 2.65715,-0.26098 3.89089,-0.78292 1.18624,-0.49831 2.25382,-1.23374 3.1791,-2.13516 0.92527,-0.92528 1.63706,-1.99286 2.13516,-3.1791 0.52195,-1.23374 0.78292,-2.53866 0.78292,-3.89089 3.4e-4,-1.35241 -0.26065,-2.65716 -0.78263,-3.89089 z"
       id="path67"
       style="fill:url(#linearGradient878);fill-opacity:1;stroke-width:0.042366" />
    <rect
       y="532.59802"
       x="424.57144"
       height="0.34285715"
       width="21.866692"
       id="rect4209"
       style="fill:#000000;fill-opacity:1;fill-rule:nonzero;stroke:none;stroke-width:0.422498;stroke-linecap:round;stroke-linejoin:round;stroke-miterlimit:4;stroke-dasharray:none;stroke-dashoffset:0;stroke-opacity:1" />
    <g
       id="g20-0-6-9"
       transform="matrix(0.5,0,0,0.5,387.02143,512.798)"
       style="fill:#3a435f;fill-opacity:1">
      <path
         d="m 20.1,35 c -5.5513,0 -9,-4.2148 -9,-11 0,-0.5522 0.4478,-1 1,-1 H 28.2416 C 28.1469,22.6157 28.1,22.2339 28.1,21.8569 c 0,-2.5474 2.1689,-4.519 2.2617,-4.6021 0.3789,-0.3398 0.9551,-0.3398 1.334,0 0.0928,0.083 2.2617,2.0547 2.2617,4.6021 0,0.0981 -0.0029,0.1968 -0.0098,0.2954 2.6543,-0.1616 4.8115,2.1563 4.8975,2.252 0.3398,0.3799 0.3398,0.9541 0,1.334 C 38.7621,25.8306 36.7914,28 34.2426,28 33.5932,28 32.935,27.8618 32.2748,27.5879 30.3305,31.7637 25.1386,35 20.1,35 Z M 13.1347,25 c 0.187,2.7349 1.2866,8 6.9653,8 4.5854,0 9.4834,-3.2573 10.6953,-7.1128 0.0938,-0.2964 0.3193,-0.5327 0.6104,-0.6396 0.2949,-0.1069 0.6162,-0.0713 0.8799,0.0952 0.6874,0.436 1.3457,0.6572 1.957,0.6572 0.9141,0 1.7725,-0.4917 2.3555,-0.9297 -0.5811,-0.437 -1.4385,-0.9277 -2.3555,-0.9277 -0.3926,0 -0.8066,0.0967 -1.2656,0.2954 -0.376,0.1636 -0.8145,0.0791 -1.1045,-0.2104 -0.29,-0.29 -0.374,-0.7275 -0.2109,-1.1045 0.1992,-0.4595 0.2959,-0.8735 0.2959,-1.2661 0,-0.9136 -0.4922,-1.772 -0.9297,-2.355 -0.4376,0.5815 -0.9278,1.4384 -0.9278,2.3549 0,0.5186 0.1621,1.0781 0.4824,1.6626 0.1699,0.3101 0.1631,0.686 -0.0166,0.9902 C 30.3861,24.8135 30.059,25 29.7055,25 Z"
         id="path2-9-1-4"
         style="fill:#3a435f;fill-opacity:1" />
      <path
         d="m 26.1,22 h -3 c -0.5522,0 -1,-0.4478 -1,-1 v -3 c 0,-0.5522 0.4478,-1 1,-1 h 3 c 0.5527,0 1,0.4478 1,1 v 3 c 0,0.5522 -0.4473,1 -1,1 z m -2,-2 h 1 v -1 h -1 z"
         id="path4-3-5-8"
         style="fill:#3a435f;fill-opacity:1" />
      <path
         d="m 17.1,22 h -3 c -0.5522,0 -1,-0.4478 -1,-1 v -3 c 0,-0.5522 0.4478,-1 1,-1 h 3 c 0.5522,0 1,0.4478 1,1 v 3 c 0,0.5522 -0.4478,1 -1,1 z m -2,-2 h 1 v -1 h -1 z"
         id="path6-6-9-1"
         style="fill:#3a435f;fill-opacity:1" />
      <path
         d="m 20.1,19 h -3 c -0.5522,0 -1,-0.4478 -1,-1 v -3 c 0,-0.5522 0.4478,-1 1,-1 h 3 c 0.5522,0 1,0.4478 1,1 v 3 c 0,0.5522 -0.4478,1 -1,1 z m -2,-2 h 1 v -1 h -1 z"
         id="path8-0-4-2"
         style="fill:#3a435f;fill-opacity:1" />
      <path
         d="m 20.1,22 h -3 c -0.5522,0 -1,-0.4478 -1,-1 v -3 c 0,-0.5522 0.4478,-1 1,-1 h 3 c 0.5522,0 1,0.4478 1,1 v 3 c 0,0.5522 -0.4478,1 -1,1 z m -2,-2 h 1 v -1 h -1 z"
         id="path10-6-9-9"
         style="fill:#3a435f;fill-opacity:1" />
      <path
         d="m 23.1,16 h -3 c -0.5522,0 -1,-0.4478 -1,-1 v -3 c 0,-0.5522 0.4478,-1 1,-1 h 3 c 0.5522,0 1,0.4478 1,1 v 3 c 0,0.5522 -0.4478,1 -1,1 z m -2,-2 h 1 v -1 h -1 z"
         id="path12-2-0-3"
         style="fill:#3a435f;fill-opacity:1" />
      <path
         d="m 23.1,19 h -3 c -0.5522,0 -1,-0.4478 -1,-1 v -3 c 0,-0.5522 0.4478,-1 1,-1 h 3 c 0.5522,0 1,0.4478 1,1 v 3 c 0,0.5522 -0.4478,1 -1,1 z m -2,-2 h 1 v -1 h -1 z"
         id="path14-6-9-9"
         style="fill:#3a435f;fill-opacity:1" />
      <path
         d="m 23.1,22 h -3 c -0.5522,0 -1,-0.4478 -1,-1 v -3 c 0,-0.5522 0.4478,-1 1,-1 h 3 c 0.5522,0 1,0.4478 1,1 v 3 c 0,0.5522 -0.4478,1 -1,1 z m -2,-2 h 1 v -1 h -1 z"
         id="path16-1-1-0"
         style="fill:#3a435f;fill-opacity:1" />
      <circle
         cx="16.599997"
         cy="27.499996"
         r="1.5"
         id="circle18-8-7-8"
         style="fill:#3a435f;fill-opacity:1" />
    </g>
  </g>
</svg>
