<?xml version="1.0" encoding="UTF-8" standalone="no"?>
<svg
   width="64"
   version="1.1"
   height="64"
   id="svg15"
   sodipodi:docname="folder-Pop_OS.svg"
   inkscape:version="1.1.2 (0a00cf5339, 2022-02-04)"
   xmlns:inkscape="http://www.inkscape.org/namespaces/inkscape"
   xmlns:sodipodi="http://sodipodi.sourceforge.net/DTD/sodipodi-0.dtd"
   xmlns:xlink="http://www.w3.org/1999/xlink"
   xmlns="http://www.w3.org/2000/svg"
   xmlns:svg="http://www.w3.org/2000/svg"
   xmlns:rdf="http://www.w3.org/1999/02/22-rdf-syntax-ns#"
   xmlns:cc="http://creativecommons.org/ns#"
   xmlns:dc="http://purl.org/dc/elements/1.1/">
  <sodipodi:namedview
     pagecolor="#ffffff"
     bordercolor="#666666"
     borderopacity="1"
     objecttolerance="10"
     gridtolerance="10"
     guidetolerance="10"
     inkscape:pageopacity="0"
     inkscape:pageshadow="2"
     inkscape:window-width="1920"
     inkscape:window-height="1015"
     id="namedview17"
     showgrid="true"
     inkscape:zoom="9.8125"
     inkscape:cx="50.038217"
     inkscape:cy="31.949045"
     inkscape:window-x="0"
     inkscape:window-y="0"
     inkscape:window-maximized="1"
     inkscape:current-layer="layer1"
     inkscape:document-rotation="0"
     inkscape:pagecheckerboard="0">
    <inkscape:grid
       type="xygrid"
       id="grid850" />
  </sodipodi:namedview>
  <defs
     id="defs5455">
    <linearGradient
       inkscape:collect="always"
       xlink:href="#linearGradient1295"
       id="linearGradient1493"
       gradientUnits="userSpaceOnUse"
       x1="20.750315"
       y1="1025.9873"
       x2="-12.062732"
       y2="995.35931" />
    <linearGradient
       inkscape:collect="always"
       id="linearGradient1295">
      <stop
         style="stop-color:#1d212f;stop-opacity:1;"
         offset="0"
         id="stop1291" />
      <stop
         style="stop-color:#717da8;stop-opacity:1"
         offset="1"
         id="stop1293" />
    </linearGradient>
    <linearGradient
       inkscape:collect="always"
       xlink:href="#linearGradient952"
       id="linearGradient1297"
       x1="2.0000021"
       y1="1025.9873"
       x2="62.938519"
       y2="1025.9873"
       gradientUnits="userSpaceOnUse" />
    <linearGradient
       inkscape:collect="always"
       id="linearGradient952">
      <stop
         style="stop-color:#2e354b;stop-opacity:1"
         offset="0"
         id="stop948" />
      <stop
         style="stop-color:#717da8;stop-opacity:1"
         offset="1"
         id="stop950" />
    </linearGradient>
    <linearGradient
       inkscape:collect="always"
       xlink:href="#linearGradient876"
       id="linearGradient878"
       x1="5"
       y1="40"
       x2="24.99983"
       y2="40"
       gradientUnits="userSpaceOnUse"
       gradientTransform="translate(384.57143,483.798)" />
    <linearGradient
       inkscape:collect="always"
       id="linearGradient876">
      <stop
         style="stop-color:#404868;stop-opacity:1"
         offset="0"
         id="stop872" />
      <stop
         style="stop-color:#becad8;stop-opacity:1"
         offset="1"
         id="stop874" />
    </linearGradient>
  </defs>
  <metadata
     id="metadata5458">
    <rdf:RDF>
      <cc:Work
         rdf:about="">
        <dc:format>image/svg+xml</dc:format>
        <dc:type
           rdf:resource="http://purl.org/dc/dcmitype/StillImage" />
      </cc:Work>
    </rdf:RDF>
  </metadata>
  <g
     inkscape:label="Capa 1"
     inkscape:groupmode="layer"
     id="layer1"
     transform="translate(-384.57143,-483.798)">
    <g
       transform="matrix(1.0666489,0,0,1.1427479,382.43813,-653.64677)"
       id="g19">
      <rect
         width="60"
         height="42"
         x="2"
         y="1002.36"
         rx="6.5219998"
         ry="6.5619998"
         style="opacity:0.85;fill:url(#linearGradient1493);fill-opacity:1;stroke:none"
         id="rect11" />
      <path
         d="m 8.522,1002.36 c -3.613,0 -6.522,3.3302 -6.522,6.1002 v 0.8998 c 0,-2.77 2.909,-5 6.522,-5 h 46.957 c 3.613,0 6.522,2.23 6.522,5 v -0.8998 c 0,-2.77 -2.909,-6.1002 -6.522,-6.1002 z"
         style="opacity:0.2;fill:#ffffff;fill-opacity:1;stroke:none"
         id="path13"
         sodipodi:nodetypes="sscsscsss" />
      <path
         d="m 8.522,1013.3603 h 10.435 c 14.348,-1.333 11.86095,-6.5781 20.991951,-6.5781 h 15.361736 c 3.612989,0 6.689313,1.4143 6.689313,5.1083 v 25.8035 c 0,3.693 -2.908,6.667 -6.521,6.667 H 8.522 c -3.613,0 -6.522,-2.973 -6.522,-6.667 v -18.667 c 0,-4 2.609,-5.6667 6.522,-5.6667 z"
         style="opacity:0.6;fill:url(#linearGradient1297);fill-opacity:1;stroke:none"
         id="path15"
         sodipodi:nodetypes="scsssssssss" />
      <path
         d="m 2,1035.03 v 2.667 c 0,3.693 2.909,6.667 6.522,6.667 h 46.957 c 3.613,0 6.522,-2.973 6.522,-6.667 v -2.667 c 0,3.693 -2.909,7.333 -6.522,7.333 H 8.522 c -3.613,0 -6.522,-3.64 -6.522,-7.333 z"
         style="opacity:0.15;fill:#000000;fill-opacity:1;stroke:none"
         id="path17" />
    </g>
    <rect
       y="532.59814"
       x="424.57144"
       height="0.34285715"
       width="21.866692"
       id="rect4209"
       style="fill:#000000;fill-opacity:1;fill-rule:nonzero;stroke:none;stroke-width:0.422498;stroke-linecap:round;stroke-linejoin:round;stroke-miterlimit:4;stroke-dasharray:none;stroke-dashoffset:0;stroke-opacity:1" />
    <path
       d="m 408.78868,519.91903 c -0.49831,-1.18624 -1.23374,-2.25382 -2.13516,-3.17909 -0.92528,-0.92528 -1.99286,-1.63707 -3.1791,-2.13516 -1.23391,-0.52212 -2.53866,-0.80678 -3.89106,-0.80678 -1.35241,0 -2.65716,0.28465 -3.89089,0.80661 -1.18625,0.4983 -2.25383,1.23373 -3.1791,2.13516 -0.92528,0.92527 -1.63707,1.99285 -2.13516,3.1791 -0.52212,1.23391 -0.80678,2.53865 -0.80678,3.89106 0,1.3524 0.28465,2.65715 0.80661,3.89089 0.4983,1.18624 1.23374,2.25382 2.13516,3.1791 0.92527,0.92527 1.99285,1.63706 3.1791,2.13516 1.23374,0.52195 2.53865,0.78292 3.89089,0.78292 1.3524,0 2.65715,-0.26098 3.89089,-0.78292 1.18624,-0.49831 2.25382,-1.23374 3.1791,-2.13516 0.92527,-0.92528 1.63706,-1.99286 2.13516,-3.1791 0.52195,-1.23374 0.78292,-2.53866 0.78292,-3.89089 3.4e-4,-1.35241 -0.26065,-2.65715 -0.78263,-3.8909 z"
       id="path67"
       style="fill:url(#linearGradient878);fill-opacity:1;stroke-width:0.042366" />
    <path
       style="fill:#3a435f;fill-opacity:1;stroke-width:0.0162378"
       id="path2-3-3-4"
       d="m 406.01196,524.41393 c -0.0317,0.12969 -0.0965,0.24449 -0.20879,0.3167 -0.17677,0.11333 -0.39201,0.0804 -0.54462,-0.0575 -0.14297,-0.12801 -0.19119,-0.3445 -0.14622,-0.53174 0.0464,-0.19537 0.19439,-0.36768 0.38396,-0.42188 0.4225,-0.1197 0.59764,0.34958 0.51567,0.69437 z m -0.25861,-1.33274 c -0.26183,-0.10678 -0.17193,-1.50996 0.0676,-3.21342 0.0676,-0.47601 0.18318,-0.70106 0.3133,-0.816 0.18634,-0.16234 0.5253,-0.16904 0.75496,-0.13456 0.26348,0.038 0.51573,0.16426 0.70688,0.35295 0.16868,0.16756 0.18794,0.33807 0.13008,0.55979 -0.0948,0.35292 -0.25698,0.69103 -0.41286,1.02072 -0.0362,0.0803 -0.35988,0.70573 -0.40318,0.78284 -0.77911,1.40172 -0.93494,1.5379 -1.15659,1.44768 z" />
    <path
       style="fill:#3a435f;fill-opacity:1;stroke-width:0.0162378"
       id="path4-8"
       d="m 400.4682,522.44925 c 0.15419,0.67308 0.13812,1.41156 0.004,1.94328 -0.12361,0.50223 -0.45935,0.95191 -0.9927,1.1029 -0.4676,0.13299 -1.01206,0.0356 -1.34628,-0.29212 -0.54937,-0.53836 -0.87065,-1.80214 -0.7277,-2.71961 0.11571,-0.73675 0.50446,-1.68063 1.35751,-1.72176 0.0555,-0.002 0.10924,-9.5e-4 0.16376,0.002 0.86915,0.0804 1.34302,0.82895 1.53907,1.68408 z m -1.57104,1.53129 c 0.0475,0.01 0.0965,0.01 0.14451,-0.004 0.16224,-0.047 0.25543,-0.21996 0.29878,-0.38731 0.0662,-0.25443 0.0567,-0.52852 -0.0304,-0.77802 -0.0441,-0.1264 -0.10746,-0.24949 -0.20564,-0.34141 -0.3453,-0.32327 -0.69056,0.0126 -0.75012,0.39555 -0.0464,0.29876 0.0216,0.64505 0.20397,0.88635 0.0854,0.11161 0.20738,0.20839 0.33751,0.23137 z" />
    <path
       style="fill:#3a435f;fill-opacity:1;stroke-width:0.0162378"
       id="path6-7"
       d="m 402.34933,523.87566 c -9.6e-4,1.24227 0.12045,2.19258 -0.41451,2.30589 -0.43371,0.0901 -0.4192,-0.29873 -0.45303,-0.62536 -0.12843,-1.26535 -0.24569,-3.36771 -0.29559,-4.6399 0.0351,-0.54658 0.39367,-0.88137 0.76635,-0.96326 0.57508,-0.12642 1.18871,-0.0904 1.69798,0.2313 1.00726,0.63692 1.08759,1.80544 0.47714,2.75895 -0.33419,0.5203 -1.34461,0.89791 -1.77834,0.86492 z m 0.12848,-2.78526 c -0.0625,0.0104 -0.16542,0.0379 -0.19439,0.10159 -0.0691,0.14606 -0.0648,1.07359 0.0567,1.46249 0.0204,0.0646 0.0617,0.12466 0.12529,0.14764 0.22813,0.0855 0.43377,-0.20026 0.52695,-0.37257 0.13012,-0.23959 0.17183,-0.52185 0.0898,-0.78455 -0.0772,-0.24449 -0.31646,-0.59908 -0.60401,-0.5546 z" />
    <path
       style="fill:#3a435f;fill-opacity:1;stroke-width:0.0162378"
       id="path8-1"
       d="m 396.58859,521.70741 c -0.37751,0.81585 -1.00403,1.464 -1.87145,1.78417 0.24913,0.66468 0.50274,1.32124 0.75017,1.9842 0.13822,0.35776 0.2699,0.75004 0.14935,1.1029 -0.12529,0.3611 -0.61344,0.46118 -0.96857,0.0771 -0.68284,-0.74189 -2.99114,-5.44241 -3.1614,-5.79536 -0.14469,-0.3036 -0.36135,-0.62863 -0.35513,-0.9798 0.0113,-0.52855 0.81146,-1.06359 1.19505,-1.33755 0.53675,-0.38258 1.15671,-0.64358 1.8202,-0.64507 0.51735,0 0.95907,0.14457 1.3511,0.40038 0.60072,0.39409 1.01851,1.02244 1.1728,1.73312 0.13481,0.6254 0.10595,1.26566 -0.0821,1.67591 m -1.75893,-0.89295 c -0.13498,-0.50044 -0.44026,-0.96161 -0.82425,-1.2849 -0.0834,-0.0706 -0.17354,-0.13642 -0.27765,-0.17237 -0.71974,-0.24135 -0.40809,0.98794 -0.29081,1.29826 0.1622,0.43485 0.40809,0.98463 0.73726,1.31284 0.0722,0.0722 0.15747,0.1363 0.25538,0.15596 0.14942,0.0321 0.28753,-0.0756 0.36318,-0.20019 0.0617,-0.10344 0.0865,-0.22652 0.1012,-0.34625 0.0261,-0.25434 0.002,-0.51384 -0.065,-0.76335 z" />
    <path
       style="fill:#3a435f;fill-opacity:1;stroke-width:0.0162378"
       id="path10-7"
       d="m 405.19488,527.95524 c -0.002,0.72056 -0.4337,1.44107 -1.38318,1.44107 -0.94936,0 -1.39112,-0.70901 -1.39112,-1.43284 0,-0.9027 0.61524,-1.46074 1.41045,-1.46074 0.92213,0.01 1.3719,0.70738 1.36385,1.45251 z m -1.36385,-0.99783 c -0.59598,0 -0.93018,0.4235 -0.93336,1.00116 0,0.50222 0.27468,0.97328 0.92206,0.97328 0.64737,0 0.89478,-0.51039 0.89478,-0.9782 0.01,-0.48585 -0.24411,-0.98475 -0.88348,-0.99624 z m 1.76222,2.0696 c 0,0.10672 0.002,-0.50716 0,-0.60069 h 0.43696 l 0.0317,0.37588 c 0.14305,0.0838 0.36467,0.14609 0.54621,0.14609 0.33741,0 0.68921,-0.0868 0.68921,-0.42348 -0.0113,-0.3053 -0.40324,-0.36764 -0.71967,-0.40053 -0.53817,-0.0563 -0.9719,-0.19025 -0.9719,-0.80745 0,-0.54983 0.60879,-0.82382 1.0618,-0.82382 0.36468,-0.01 0.6233,0.0494 0.95261,0.31994 0,0.22167 -0.002,0.35293 -0.002,0.57444 h -0.4224 l -0.0261,-0.36426 c -0.17028,-0.0839 -0.34541,-0.10675 -0.48032,-0.1034 -0.29078,0.002 -0.60082,0.14272 -0.60082,0.39222 0,0.24449 0.20081,0.31179 0.55741,0.3644 0.58159,0.0788 1.1422,0.21328 1.1422,0.84683 -0.002,0.69258 -0.63937,0.87481 -1.18554,0.87481 -0.41604,9.5e-4 -0.67633,-0.0772 -1.00562,-0.37098 z"
       inkscape:connector-curvature="0" />
    <path
       style="fill:#3a435f;fill-opacity:1;stroke-width:0.0162378"
       id="path12-2"
       d="m 401.83099,529.16 c 0,0.12638 -0.0996,0.2281 -0.22323,0.2281 h -2.58161 c -0.1237,0 -0.22323,-0.10172 -0.22323,-0.2281 v -0.0206 c 0,-0.12643 0.0995,-0.22804 0.22323,-0.22804 h 2.58161 c 0.12359,0 0.22323,0.10161 0.22323,0.22804 z"
       inkscape:connector-curvature="0" />
  </g>
</svg>
