<?xml version="1.0" encoding="UTF-8" standalone="no"?>
<svg
   width="64"
   version="1.1"
   height="64"
   id="svg15"
   sodipodi:docname="folder-blender.svg"
   inkscape:version="1.1.1 (3bf5ae0d25, 2021-09-20)"
   xmlns:inkscape="http://www.inkscape.org/namespaces/inkscape"
   xmlns:sodipodi="http://sodipodi.sourceforge.net/DTD/sodipodi-0.dtd"
   xmlns:xlink="http://www.w3.org/1999/xlink"
   xmlns="http://www.w3.org/2000/svg"
   xmlns:svg="http://www.w3.org/2000/svg"
   xmlns:rdf="http://www.w3.org/1999/02/22-rdf-syntax-ns#"
   xmlns:cc="http://creativecommons.org/ns#"
   xmlns:dc="http://purl.org/dc/elements/1.1/">
  <sodipodi:namedview
     pagecolor="#ffffff"
     bordercolor="#666666"
     borderopacity="1"
     objecttolerance="10"
     gridtolerance="10"
     guidetolerance="10"
     inkscape:pageopacity="0"
     inkscape:pageshadow="2"
     inkscape:window-width="1920"
     inkscape:window-height="1015"
     id="namedview17"
     showgrid="true"
     inkscape:zoom="6.9384853"
     inkscape:cx="16.430099"
     inkscape:cy="23.13185"
     inkscape:window-x="0"
     inkscape:window-y="0"
     inkscape:window-maximized="1"
     inkscape:current-layer="layer1"
     inkscape:document-rotation="0"
     inkscape:pagecheckerboard="0">
    <inkscape:grid
       type="xygrid"
       id="grid850" />
  </sodipodi:namedview>
  <defs
     id="defs5455">
    <linearGradient
       inkscape:collect="always"
       xlink:href="#linearGradient1295"
       id="linearGradient1493"
       gradientUnits="userSpaceOnUse"
       x1="20.750315"
       y1="1025.9873"
       x2="-12.062732"
       y2="995.35931" />
    <linearGradient
       inkscape:collect="always"
       id="linearGradient1295">
      <stop
         style="stop-color:#1d212f;stop-opacity:1;"
         offset="0"
         id="stop1291" />
      <stop
         style="stop-color:#717da8;stop-opacity:1"
         offset="1"
         id="stop1293" />
    </linearGradient>
    <linearGradient
       inkscape:collect="always"
       xlink:href="#linearGradient952"
       id="linearGradient1297"
       x1="2.0000021"
       y1="1025.9873"
       x2="62.938519"
       y2="1025.9873"
       gradientUnits="userSpaceOnUse" />
    <linearGradient
       inkscape:collect="always"
       id="linearGradient952">
      <stop
         style="stop-color:#2e354b;stop-opacity:1"
         offset="0"
         id="stop948" />
      <stop
         style="stop-color:#717da8;stop-opacity:1"
         offset="1"
         id="stop950" />
    </linearGradient>
    <linearGradient
       inkscape:collect="always"
       xlink:href="#linearGradient876"
       id="linearGradient878"
       x1="389.57144"
       y1="523.79797"
       x2="409.57126"
       y2="523.79797"
       gradientUnits="userSpaceOnUse"
       gradientTransform="translate(1.9899999e-6)" />
    <linearGradient
       inkscape:collect="always"
       id="linearGradient876">
      <stop
         style="stop-color:#404868;stop-opacity:1"
         offset="0"
         id="stop872" />
      <stop
         style="stop-color:#becad8;stop-opacity:1"
         offset="1"
         id="stop874" />
    </linearGradient>
  </defs>
  <metadata
     id="metadata5458">
    <rdf:RDF>
      <cc:Work
         rdf:about="">
        <dc:format>image/svg+xml</dc:format>
        <dc:type
           rdf:resource="http://purl.org/dc/dcmitype/StillImage" />
      </cc:Work>
    </rdf:RDF>
  </metadata>
  <g
     inkscape:label="Capa 1"
     inkscape:groupmode="layer"
     id="layer1"
     transform="translate(-384.57143,-483.798)">
    <g
       transform="matrix(1.0666489,0,0,1.1427479,382.43812,-653.64677)"
       id="g19">
      <rect
         width="60"
         height="42"
         x="2"
         y="1002.36"
         rx="6.5219998"
         ry="6.5619998"
         style="opacity:0.85;fill:url(#linearGradient1493);fill-opacity:1;stroke:none"
         id="rect11" />
      <path
         d="m 8.522,1002.36 c -3.613,0 -6.522,3.3302 -6.522,6.1002 v 0.8998 c 0,-2.77 2.909,-5 6.522,-5 h 46.957 c 3.613,0 6.522,2.23 6.522,5 v -0.8998 c 0,-2.77 -2.909,-6.1002 -6.522,-6.1002 z"
         style="opacity:0.2;fill:#ffffff;fill-opacity:1;stroke:none"
         id="path13"
         sodipodi:nodetypes="sscsscsss" />
      <path
         d="m 8.522,1013.3603 h 10.435 c 14.348,-1.333 11.86095,-6.5781 20.991951,-6.5781 h 15.361736 c 3.612989,0 6.689313,1.4143 6.689313,5.1083 v 25.8035 c 0,3.693 -2.908,6.667 -6.521,6.667 H 8.522 c -3.613,0 -6.522,-2.973 -6.522,-6.667 v -18.667 c 0,-4 2.609,-5.6667 6.522,-5.6667 z"
         style="opacity:0.6;fill:url(#linearGradient1297);fill-opacity:1;stroke:none"
         id="path15"
         sodipodi:nodetypes="scsssssssss" />
      <path
         d="m 2,1035.03 v 2.667 c 0,3.693 2.909,6.667 6.522,6.667 h 46.957 c 3.613,0 6.522,-2.973 6.522,-6.667 v -2.667 c 0,3.693 -2.909,7.333 -6.522,7.333 H 8.522 c -3.613,0 -6.522,-3.64 -6.522,-7.333 z"
         style="opacity:0.15;fill:#000000;fill-opacity:1;stroke:none"
         id="path17" />
    </g>
    <rect
       y="532.60095"
       x="424.57144"
       height="0.34285715"
       width="21.866692"
       id="rect4209"
       style="fill:#000000;fill-opacity:1;fill-rule:nonzero;stroke:none;stroke-width:0.422498;stroke-linecap:round;stroke-linejoin:round;stroke-miterlimit:4;stroke-dasharray:none;stroke-dashoffset:0;stroke-opacity:1" />
    <path
       d="m 408.78868,519.91903 c -0.49831,-1.18624 -1.23374,-2.25382 -2.13516,-3.1791 -0.92528,-0.92527 -1.99286,-1.63706 -3.1791,-2.13515 -1.23391,-0.52212 -2.53866,-0.80678 -3.89106,-0.80678 -1.35241,0 -2.65716,0.28465 -3.89089,0.80661 -1.18625,0.4983 -2.25383,1.23373 -3.1791,2.13516 -0.92528,0.92527 -1.63707,1.99285 -2.13516,3.1791 -0.52212,1.23391 -0.80678,2.53865 -0.80678,3.89106 0,1.3524 0.28465,2.65715 0.80661,3.89089 0.4983,1.18624 1.23374,2.25382 2.13516,3.1791 0.92527,0.92527 1.99285,1.63706 3.1791,2.13516 1.23374,0.52195 2.53865,0.78292 3.89089,0.78292 1.3524,0 2.65715,-0.26098 3.89089,-0.78292 1.18624,-0.49831 2.25382,-1.23374 3.1791,-2.13516 0.92527,-0.92528 1.63706,-1.99286 2.13516,-3.1791 0.52195,-1.23374 0.78292,-2.53866 0.78292,-3.89089 3.4e-4,-1.35241 -0.26065,-2.65715 -0.78263,-3.8909 z"
       id="path67"
       style="fill:url(#linearGradient878);fill-opacity:1;stroke-width:0.042366" />
    <path
       style="color:#232629;fill:#3a435f;fill-opacity:1;stroke:none;stroke-width:0.5455"
       d="m 399.46693,517.798 a 0.81818198,0.81818198 0 0 0 -0.8182,0.8182 0.81818198,0.81818198 0 0 0 0.2591,0.5454 h -0.0546 l 1.9091,1.9091 h -6.2727 a 0.81818198,0.81818198 0 0 0 -0.8182,0.8182 0.81818198,0.81818198 0 0 0 0.8182,0.8182 h 3 l -3.4909,3.4909 a 0.81818198,0.81818198 0 0 0 -0.3273,0.6545 0.81818198,0.81818198 0 0 0 0.8182,0.8182 0.81818198,0.81818198 0 0 0 0.6,-0.2727 c 0,0 0,0 0,0 l 1.8545,-1.8545 a 4.3636348,4.3636347 0 0 0 4.3637,4.2545 4.3636348,4.3636347 0 0 0 4.3636,-4.3636 4.3636348,4.3636347 0 0 0 -1.6364,-3.4364 l -3.9818,-3.9273 a 0.81818198,0.81818198 0 0 0 -0.5863,-0.2727 z m 1.8409,4.9091 a 2.7272718,2.7272718 0 0 1 1.6363,0.5454 l 0.4909,0.491 v 0 a 2.7272718,2.7272718 0 0 1 0.6,1.6909 2.7272718,2.7272718 0 0 1 -2.7272,2.7272 2.7272718,2.7272718 0 0 1 -2.7273,-2.7272 2.7272718,2.7272718 0 0 1 2.7273,-2.7273 z m 0,1.6364 a 1.0909089,1.0909089 0 0 0 -1.0909,1.0909 1.0909089,1.0909089 0 0 0 1.0909,1.0909 1.0909089,1.0909089 0 0 0 1.0909,-1.0909 1.0909089,1.0909089 0 0 0 -1.0909,-1.0909 z"
       class="ColorScheme-Text"
       id="path12-5-2-7" />
  </g>
</svg>
