<?xml version="1.0" encoding="UTF-8" standalone="no"?>
<svg
   width="64"
   version="1.1"
   height="64"
   id="svg15"
   sodipodi:docname="folder-deb.svg"
   inkscape:version="1.1.1 (3bf5ae0d25, 2021-09-20)"
   xmlns:inkscape="http://www.inkscape.org/namespaces/inkscape"
   xmlns:sodipodi="http://sodipodi.sourceforge.net/DTD/sodipodi-0.dtd"
   xmlns:xlink="http://www.w3.org/1999/xlink"
   xmlns="http://www.w3.org/2000/svg"
   xmlns:svg="http://www.w3.org/2000/svg"
   xmlns:rdf="http://www.w3.org/1999/02/22-rdf-syntax-ns#"
   xmlns:cc="http://creativecommons.org/ns#"
   xmlns:dc="http://purl.org/dc/elements/1.1/">
  <sodipodi:namedview
     pagecolor="#ffffff"
     bordercolor="#666666"
     borderopacity="1"
     objecttolerance="10"
     gridtolerance="10"
     guidetolerance="10"
     inkscape:pageopacity="0"
     inkscape:pageshadow="2"
     inkscape:window-width="1920"
     inkscape:window-height="1015"
     id="namedview17"
     showgrid="true"
     inkscape:zoom="4.90625"
     inkscape:cx="-22.828026"
     inkscape:cy="8.2547771"
     inkscape:window-x="0"
     inkscape:window-y="0"
     inkscape:window-maximized="1"
     inkscape:current-layer="layer1"
     inkscape:pagecheckerboard="0">
    <inkscape:grid
       type="xygrid"
       id="grid835" />
  </sodipodi:namedview>
  <defs
     id="defs5455">
    <linearGradient
       inkscape:collect="always"
       id="linearGradient3017">
      <stop
         style="stop-color:#ff99c0;stop-opacity:1"
         offset="0"
         id="stop3013" />
      <stop
         style="stop-color:#ffafce;stop-opacity:1"
         offset="1"
         id="stop3015" />
    </linearGradient>
    <linearGradient
       inkscape:collect="always"
       id="linearGradient1631">
      <stop
         style="stop-color:#ff2a7f;stop-opacity:1"
         offset="0"
         id="stop1627" />
      <stop
         style="stop-color:#ff80b2;stop-opacity:1"
         offset="1"
         id="stop1629" />
    </linearGradient>
    <linearGradient
       id="linearGradient4194">
      <stop
         style="stop-color:#b5006a"
         id="stop4196" />
      <stop
         offset="1"
         style="stop-color:#c70073"
         id="stop4198" />
    </linearGradient>
    <linearGradient
       inkscape:collect="always"
       id="linearGradient2230">
      <stop
         style="stop-color:#ff0066;stop-opacity:1"
         offset="0"
         id="stop2226" />
      <stop
         style="stop-color:#ff80b2;stop-opacity:1"
         offset="0.50507295"
         id="stop2332" />
      <stop
         style="stop-color:#ff5599;stop-opacity:1"
         offset="1"
         id="stop2228" />
    </linearGradient>
    <linearGradient
       inkscape:collect="always"
       xlink:href="#linearGradient2230"
       id="linearGradient1493"
       gradientUnits="userSpaceOnUse"
       x1="20.750315"
       y1="1025.9873"
       x2="-12.062732"
       y2="995.35931" />
    <linearGradient
       inkscape:collect="always"
       xlink:href="#linearGradient1631"
       id="linearGradient1297"
       x1="2.0000021"
       y1="1025.9873"
       x2="62.938519"
       y2="1025.9873"
       gradientUnits="userSpaceOnUse" />
    <linearGradient
       inkscape:collect="always"
       xlink:href="#linearGradient3017"
       id="linearGradient2017"
       gradientUnits="userSpaceOnUse"
       x1="389.57144"
       y1="523.79797"
       x2="409.57126"
       y2="523.79797" />
  </defs>
  <metadata
     id="metadata5458">
    <rdf:RDF>
      <cc:Work
         rdf:about="">
        <dc:format>image/svg+xml</dc:format>
        <dc:type
           rdf:resource="http://purl.org/dc/dcmitype/StillImage" />
      </cc:Work>
    </rdf:RDF>
  </metadata>
  <g
     inkscape:label="Capa 1"
     inkscape:groupmode="layer"
     id="layer1"
     transform="translate(-384.57143,-483.798)">
    <g
       transform="matrix(1.0666489,0,0,1.1427479,382.43812,-653.64677)"
       id="g19">
      <rect
         width="60"
         height="42"
         x="2"
         y="1002.36"
         rx="6.5219998"
         ry="6.5619998"
         style="opacity:0.85;fill:url(#linearGradient1493);fill-opacity:1.0;stroke:none"
         id="rect11" />
      <path
         d="m 8.522,1002.36 c -3.613,0 -6.522,3.3302 -6.522,6.1002 v 0.8998 c 0,-2.77 2.909,-5 6.522,-5 h 46.957 c 3.613,0 6.522,2.23 6.522,5 v -0.8998 c 0,-2.77 -2.909,-6.1002 -6.522,-6.1002 z"
         style="opacity:0.2;fill:#ffffff;fill-opacity:1;stroke:none"
         id="path13"
         sodipodi:nodetypes="sscsscsss" />
      <path
         d="m 8.522,1013.3603 h 10.435 c 14.348,-1.333 11.86095,-6.5781 20.991951,-6.5781 h 15.361736 c 3.612989,0 6.689313,1.4143 6.689313,5.1083 v 25.8035 c 0,3.693 -2.908,6.667 -6.521,6.667 H 8.522 c -3.613,0 -6.522,-2.973 -6.522,-6.667 v -18.667 c 0,-4 2.609,-5.6667 6.522,-5.6667 z"
         style="opacity:0.6;fill:url(#linearGradient1297);fill-opacity:1.0;stroke:none"
         id="path15"
         sodipodi:nodetypes="scsssssssss" />
      <path
         d="m 2,1035.03 v 2.667 c 0,3.693 2.909,6.667 6.522,6.667 h 46.957 c 3.613,0 6.522,-2.973 6.522,-6.667 v -2.667 c 0,3.693 -2.909,7.333 -6.522,7.333 H 8.522 c -3.613,0 -6.522,-3.64 -6.522,-7.333 z"
         style="opacity:0.15;fill:#000000;fill-opacity:1;stroke:none"
         id="path17" />
    </g>
    <rect
       y="532.60089"
       x="424.57144"
       height="0.34285715"
       width="21.866692"
       id="rect4209"
       style="fill:#550022;fill-opacity:1;fill-rule:nonzero;stroke:none;stroke-width:0.422498;stroke-linecap:round;stroke-linejoin:round;stroke-miterlimit:4;stroke-dasharray:none;stroke-dashoffset:0;stroke-opacity:1" />
    <path
       d="m 408.78868,519.91903 c -0.49831,-1.18624 -1.23374,-2.25382 -2.13516,-3.1791 -0.92528,-0.92527 -1.99286,-1.63706 -3.1791,-2.13515 -1.23391,-0.52212 -2.53866,-0.80678 -3.89106,-0.80678 -1.35241,0 -2.65716,0.28465 -3.89089,0.80661 -1.18625,0.4983 -2.25383,1.23373 -3.1791,2.13516 -0.92528,0.92527 -1.63707,1.99285 -2.13516,3.1791 -0.52212,1.23391 -0.80678,2.53865 -0.80678,3.89106 0,1.3524 0.28465,2.65715 0.80661,3.89089 0.4983,1.18624 1.23374,2.25382 2.13516,3.1791 0.92527,0.92527 1.99285,1.63706 3.1791,2.13516 1.23374,0.52195 2.53865,0.78292 3.89089,0.78292 1.3524,0 2.65715,-0.26098 3.89089,-0.78292 1.18624,-0.49831 2.25382,-1.23374 3.1791,-2.13516 0.92527,-0.92528 1.63706,-1.99286 2.13516,-3.1791 0.52195,-1.23374 0.78292,-2.53866 0.78292,-3.89089 3.4e-4,-1.35241 -0.26065,-2.65715 -0.78263,-3.8909 z"
       id="path67"
       style="fill:url(#linearGradient2017);fill-opacity:1;stroke-width:0.042366;opacity:1" />
    <path
       style="color:#232629;fill:#cb004e;fill-opacity:1;stroke:none;stroke-width:0.545052"
       d="m 400.29481,530.13493 c -0.65405,-0.10902 -1.58063,-0.49055 -2.12567,-0.84482 -1.2536,-0.81757 -2.07411,-1.72699 -2.58124,-2.86203 -0.16352,-0.38155 -0.26055,-0.65407 -0.54504,-1.63515 -0.0545,-0.24526 -0.14698,-0.52012 -0.18109,-0.60576 -0.0575,-0.14446 -0.0601,-0.1932 -0.0351,-0.67507 0.0238,-0.43604 0.109,-1.09008 0.1635,-1.14242 0.008,-0.0126 0.0268,-0.0153 0.0423,-0.007 0.051,0.0305 0.0986,-0.11019 0.14515,-0.43093 0.0254,-0.17573 0.0656,-0.36 0.0891,-0.40951 0.0235,-0.0494 0.0632,-0.15876 0.0884,-0.24279 0.0578,-0.19342 0.13669,-0.34209 0.38048,-0.71731 0.10721,-0.16501 0.21866,-0.34474 0.24766,-0.39941 0.0343,-0.0643 0.0714,-0.0958 0.10563,-0.0893 0.0332,0.006 0.0874,-0.0355 0.1444,-0.11064 0.24786,-0.32715 1.4153,-1.29234 1.52332,-1.25943 0.0293,0.009 0.15268,-0.0319 0.27376,-0.0901 0.21902,-0.10582 0.3155,-0.13032 0.3155,-0.08 0,0.0143 -0.032,0.0475 -0.0703,0.0732 -0.0679,0.0454 -0.0665,0.0461 0.0388,0.0216 0.0602,-0.0138 0.16153,-0.0341 0.22523,-0.0446 0.0787,-0.0127 0.11069,-0.032 0.0998,-0.0588 -0.01,-0.0238 0.013,-0.0475 0.0561,-0.0585 0.10763,-0.0273 0.27533,-0.0232 0.27533,0.008 0,0.0366 -0.0959,0.0737 -0.17195,0.0665 -0.0517,-0.005 -0.0545,-5e-4 -0.0153,0.0248 0.0385,0.0254 0.0389,0.0313 0.002,0.0317 -0.0243,2.6e-4 -0.0362,0.008 -0.0263,0.0172 0.01,0.01 0.075,-0.011 0.14487,-0.0454 0.0699,-0.0344 0.19786,-0.0768 0.2844,-0.0946 0.10653,-0.0221 0.15735,-0.0474 0.15735,-0.0788 0,-0.04 0.0494,-0.0442 0.38299,-0.0264 0.21063,0.011 0.52849,0.0429 0.70635,0.0704 0.32334,0.0504 0.32338,0.0504 0.44389,-0.0156 0.14452,-0.0798 0.37699,-0.0902 0.43809,-0.0199 0.0225,0.0257 0.0839,0.0684 0.13669,0.0946 0.0862,0.0431 0.0919,0.0432 0.0555,5e-4 -0.0692,-0.0801 -4.7e-4,-0.078 0.26674,0.008 0.86149,0.27687 1.56378,0.76999 2.08492,1.46391 0.12358,0.16457 0.13106,0.23858 0.0138,0.13841 l -0.067,-0.0573 0.051,0.096 c 0.0278,0.0527 0.051,0.11216 0.051,0.13189 0,0.0201 0.0829,0.16554 0.18409,0.32402 0.2282,0.35719 0.29204,0.47753 0.27673,0.52161 -0.007,0.0193 -0.10766,-0.1069 -0.22465,-0.27956 -0.11701,-0.17266 -0.29013,-0.40529 -0.38474,-0.51696 -0.14129,-0.16675 -0.1783,-0.19528 -0.20712,-0.15964 -0.0197,0.0239 -0.0664,0.0477 -0.10476,0.0529 l -0.0697,0.01 0.0689,0.12966 c 0.0377,0.0713 0.074,0.11519 0.0801,0.0975 0.0332,-0.0947 0.1861,0.0296 0.25575,0.20789 0.0227,0.0578 0.0827,0.17669 0.13348,0.2643 0.0506,0.0876 0.086,0.16544 0.0782,0.17294 -0.008,0.008 -0.0542,-0.0161 -0.10295,-0.0533 l -0.0887,-0.067 0.0605,0.0997 c 0.0335,0.0548 0.089,0.12191 0.12385,0.14907 0.0438,0.0341 0.0642,0.0874 0.0662,0.17061 0.003,0.15362 0.0953,0.3351 0.14514,0.28724 0.0777,-0.0745 0.0937,-0.0276 0.0741,0.21621 -0.0142,0.17987 -0.007,0.29842 0.0271,0.42429 0.0517,0.1911 0.0403,0.23825 -0.0352,0.14894 -0.0482,-0.0568 -0.0487,-0.0567 -0.0269,0.002 0.0465,0.12635 0.0809,0.31536 0.0713,0.38955 -0.018,0.13845 -0.0721,0.0809 -0.0908,-0.0965 l -0.018,-0.17309 -0.005,0.18421 c -0.002,0.10132 -0.0274,0.29708 -0.0551,0.43504 -0.0274,0.13934 -0.0416,0.30822 -0.032,0.37991 0.0194,0.13488 0.005,0.14011 -0.11189,0.0439 -0.0478,-0.0391 -0.0561,-0.0318 -0.0889,0.0856 -0.0273,0.0985 -0.0271,0.15454 10e-4,0.23704 0.0207,0.0594 0.0326,0.14 0.0262,0.17908 -0.0135,0.0902 -0.089,0.1183 -0.089,0.0335 0,-0.10695 -0.0426,-0.0689 -0.17195,0.15438 -0.34985,0.6029 -0.90342,1.06949 -1.52996,1.28956 -0.36936,0.12977 -0.61712,0.17788 -1.03364,0.20076 l -0.37518,0.0209 0.18537,0.0549 c 0.14946,0.0446 0.23723,0.0507 0.45332,0.0343 0.28309,-0.0221 0.61546,-0.0809 0.76619,-0.1359 0.0601,-0.0221 0.10077,-0.023 0.12154,-0.003 0.0489,0.0471 -0.38637,0.23199 -0.64483,0.2739 -0.43977,0.0713 -1.02844,-0.006 -1.5481,-0.20266 -0.35256,-0.1336 -0.87577,-0.48151 -0.79559,-0.52905 0.0149,-0.009 0.11472,0.0364 0.22119,0.10107 0.1361,0.0826 0.19357,0.10433 0.19357,0.0732 0,-0.0588 0.0204,-0.0559 0.12826,0.0181 0.0976,0.0667 0.39795,0.19062 0.61426,0.25341 0.23578,0.0684 0.14435,-0.0143 -0.17195,-0.15604 -1.00012,-0.44746 -1.41534,-0.89503 -1.62227,-1.74869 -0.0759,-0.31304 0.005,-0.99931 0.14382,-1.21424 0.0352,-0.0544 0.0638,-0.12144 0.0638,-0.14883 0,-0.11891 0.2066,-0.43305 0.41858,-0.63649 0.37356,-0.35851 0.76194,-0.50732 1.26613,-0.48517 0.24371,0.0108 0.3478,0.0317 0.55064,0.10878 0.23006,0.0879 0.51974,0.27201 0.43102,0.27389 -0.0211,4.5e-4 -0.1123,-0.0285 -0.20321,-0.0653 -0.13819,-0.0553 -0.2268,-0.0663 -0.54045,-0.0675 -0.44045,-0.002 -0.65572,0.0583 -0.96918,0.26998 -0.44439,0.30008 -0.6915,0.6457 -0.77903,1.08958 -0.0587,0.29783 -0.0605,0.38037 -0.0145,0.67581 0.0262,0.17024 0.0454,0.22018 0.0782,0.20803 0.0274,-0.0103 0.0438,0.005 0.0438,0.0412 0,0.1055 0.23922,0.53351 0.40515,0.72484 0.39933,0.46055 1.04528,0.75442 1.65821,0.75442 0.31811,0 0.57527,-0.0586 0.81198,-0.18502 0.0951,-0.0506 0.21503,-0.11284 0.26661,-0.13793 0.18201,-0.0885 0.29493,-0.18967 0.42694,-0.38238 0.0734,-0.1071 0.15319,-0.19475 0.17731,-0.19475 0.0357,0 0.0343,0.0152 -0.009,0.0825 -0.13953,0.22101 0.18794,-0.18086 0.35754,-0.43875 l 0.18999,-0.28883 -0.021,-0.18974 c -0.0202,-0.18233 -0.0166,-0.19346 0.0739,-0.28503 0.0875,-0.0882 0.0954,-0.1143 0.10549,-0.35003 0.009,-0.21097 0.002,-0.25479 -0.036,-0.25502 -0.0361,-2e-4 -0.0514,-0.0558 -0.0671,-0.24032 -0.0208,-0.24423 -0.22778,-1.06602 -0.276,-1.09463 -0.0143,-0.009 -0.055,-0.0877 -0.0898,-0.17562 -0.11749,-0.29679 -0.32362,-0.58218 -0.64499,-0.89309 -0.46244,-0.44736 -1.04494,-0.7928 -1.59518,-0.946 -0.46803,-0.13027 -1.2628,-0.083 -1.8289,0.10886 -0.2763,0.0936 -0.54851,0.21758 -0.59446,0.27069 -0.0211,0.0241 -0.0509,0.036 -0.0672,0.0263 -0.0165,-0.0102 -0.0122,-0.0369 0.0112,-0.064 0.10429,-0.12061 -0.24178,0.1001 -0.46457,0.29629 -0.13469,0.11859 -0.2498,0.21925 -0.2558,0.22364 -0.006,0.004 0.0205,2.3e-4 0.0582,-0.01 0.0633,-0.0155 0.066,-0.0117 0.032,0.0498 -0.0222,0.0392 -0.13662,0.11042 -0.2771,0.17157 -0.23606,0.10277 -0.38872,0.21569 -0.51002,0.37727 -0.0484,0.0645 -0.051,0.0784 -0.0128,0.0643 0.0266,-0.0101 0.0488,-0.004 0.0488,0.0136 0,0.0857 -0.0811,0.18134 -0.20129,0.23739 -0.26624,0.12411 -0.73394,0.78718 -0.98445,1.39568 -0.11166,0.27116 -0.10989,0.26175 -0.0491,0.26175 0.064,0 0.0595,0.0697 -0.028,0.44435 -0.12801,0.54565 -0.12817,0.52817 0.0113,1.29583 0.16987,0.9353 0.26911,1.24776 0.45779,1.44136 0.0446,0.0456 0.0873,0.14202 0.10648,0.23908 0.023,0.11587 0.0614,0.19236 0.13331,0.26516 0.0656,0.0663 0.0875,0.10704 0.0623,0.11587 -0.0493,0.0171 0.10535,0.23879 0.24655,0.35283 0.0711,0.0574 0.1237,0.0767 0.18075,0.0662 0.12501,-0.023 0.25228,0.0463 0.44783,0.24311 0.20325,0.20468 0.22361,0.2597 0.0891,0.24077 -0.0867,-0.0122 -0.0887,-0.0102 -0.0462,0.0524 0.0245,0.036 0.11513,0.12242 0.20128,0.19213 0.12101,0.0979 0.15218,0.14029 0.13698,0.18621 -0.022,0.0661 0.0401,0.1277 0.1814,0.17942 0.0874,0.0324 0.11556,0.10121 0.0496,0.12225 -0.0202,0.007 0.10319,0.12796 0.27354,0.27022 0.19195,0.16025 0.32106,0.2481 0.33947,0.23094 0.0486,-0.0455 0.11091,-0.0319 0.11201,0.0247 10e-4,0.0614 0.0564,0.12598 0.25491,0.29816 0.12544,0.1088 0.15675,0.12248 0.23364,0.10216 0.0704,-0.0189 0.1147,-0.007 0.21386,0.0577 0.19783,0.12834 0.31779,0.17959 0.42049,0.17959 0.10107,0 0.11546,0.0275 0.063,0.12198 -0.0275,0.0497 -0.022,0.058 0.0421,0.058 0.0405,0 0.15615,0.0267 0.2561,0.06 0.22727,0.0751 0.32208,0.0802 0.26512,0.0141 -0.0842,-0.0973 0.005,-0.0707 0.30571,0.0911 0.42009,0.22607 0.63262,0.25191 1.46913,0.17855 0.12384,-0.0109 0.16412,-0.004 0.16412,0.0257 0,0.0259 -0.10745,0.0652 -0.30483,0.11099 -0.25941,0.0602 -0.3979,0.0719 -0.93008,0.0783 -0.41934,0.004 -0.7058,-0.006 -0.86978,-0.0335 z m -0.42764,-4.49776 c 0,-0.006 -0.0385,-0.0343 -0.086,-0.0618 l -0.086,-0.0501 0.0738,0.0618 c 0.072,0.0603 0.0981,0.0737 0.0981,0.0501 z m 4.30447,-3.14439 c -0.0101,-0.0239 -0.017,-0.0164 -0.0192,0.0184 -0.002,0.032 0.006,0.0492 0.016,0.0391 0.0105,-0.0101 0.0115,-0.0359 0.002,-0.0575 z m -7.09471,-3.14671 c 0.0387,-0.0476 0.0376,-0.0486 -0.0118,-0.0114 -0.0302,0.0228 -0.0547,0.0464 -0.0547,0.0523 0,0.0246 0.0255,0.009 0.0665,-0.0409 z m 0.35554,-0.27751 c 0.0315,-0.0333 0.0494,-0.06 0.0405,-0.06 -0.009,0 -0.0407,0.0267 -0.0722,0.06 -0.0315,0.0333 -0.0494,0.06 -0.0405,0.06 0.009,0 0.0407,-0.0267 0.0722,-0.06 z m 0.39353,-0.21092 c 0.10306,-0.0337 0.16162,-0.0391 0.18336,-0.0188 0.0219,0.0211 0.10236,0.009 0.25246,-0.0385 0.12129,-0.038 0.21495,-0.0747 0.20815,-0.0813 -0.007,-0.007 -0.10669,0.0185 -0.22193,0.0552 -0.15828,0.0506 -0.21526,0.0583 -0.2329,0.0312 -0.0298,-0.0465 -0.31431,0.0452 -0.43659,0.14013 l -0.0836,0.065 0.0898,-0.0515 c 0.0493,-0.0281 0.15794,-0.0739 0.24121,-0.10093 z m 0.90132,-0.0762 c 0.0908,-0.0257 0.15965,-0.0521 0.15305,-0.0586 -0.0144,-0.0138 -0.33803,0.0749 -0.33803,0.0929 0,0.0181 0.002,0.0176 0.18498,-0.0344 z m 0.51844,-0.16355 0.12506,-0.0221 -0.10943,-0.002 c -0.0602,-0.002 -0.14458,0.0182 -0.18758,0.0437 -0.0504,0.0299 -0.0561,0.0383 -0.0153,0.0245 0.0345,-0.0118 0.11881,-0.0317 0.18759,-0.0437 z m 0.24832,-0.0566 c 0.01,-0.0147 -0.0107,-0.0204 -0.0453,-0.0115 -0.073,0.0185 -0.0822,0.0385 -0.0172,0.0385 0.0247,0 0.0528,-0.0122 0.0626,-0.0269 z m 1.00939,0.009 c -0.0105,-0.0101 -0.0372,-0.0111 -0.0599,-0.002 -0.0249,0.01 -0.0173,0.0163 0.0193,0.0181 0.0332,10e-4 0.0512,-0.005 0.0406,-0.0154 z m -0.18694,-0.0328 c -0.0302,-0.008 -0.0793,-0.008 -0.10941,0 -0.0302,0.008 -0.005,0.0136 0.0547,0.0136 0.0602,0 0.0848,-0.006 0.0547,-0.0136 z m -0.3118,-0.0315 c -0.064,-0.007 -0.17658,-0.007 -0.2501,-2e-4 -0.0735,0.007 -0.0214,0.0116 0.11641,0.0117 0.13755,1e-4 0.19772,-0.004 0.13369,-0.0115 z m -0.4079,-0.0261 c -0.0105,-0.0101 -0.0372,-0.0111 -0.0599,-0.002 -0.0249,0.01 -0.0173,0.0163 0.0193,0.0184 0.0332,10e-4 0.0512,-0.005 0.0406,-0.0154 z m -0.21162,7.21145 c -0.31846,-0.21899 -0.43644,-0.33224 -0.43644,-0.41897 0,-0.0462 0.0109,-0.0836 0.0241,-0.0836 0.0453,0 0.57746,0.5333 0.56582,0.56682 -0.007,0.0198 -0.071,-0.008 -0.15348,-0.0642 z m -0.16388,-0.55599 c -0.16539,-0.1604 -0.21837,-0.24667 -0.15153,-0.24667 0.0398,0 0.34791,0.33816 0.34791,0.38229 0,0.021 -0.004,0.0376 -0.009,0.0376 -0.005,0 -0.0892,-0.078 -0.18759,-0.17338 z m 1.82991,-0.65657 c -0.0873,-0.034 -0.0331,-0.0965 0.10942,-0.12576 0.0817,-0.0164 0.21147,-0.0576 0.28844,-0.0907 0.077,-0.0333 0.14548,-0.0548 0.15227,-0.0483 0.007,0.007 -0.0277,0.0732 -0.0774,0.14819 -0.0892,0.1355 -0.0908,0.13632 -0.26171,0.13402 -0.0946,-9.9e-4 -0.18952,-0.009 -0.21102,-0.0174 z m 0.9379,-0.67114 c -0.0844,-0.0328 -0.0879,-0.088 -0.0172,-0.2766 0.0605,-0.16203 0.12329,-0.194 0.0884,-0.0453 -0.0125,0.0535 -0.0289,0.13126 -0.0372,0.17251 l -0.0142,0.075 0.0625,-0.0683 c 0.0369,-0.04 0.0712,-0.13525 0.0838,-0.23218 0.0117,-0.0901 0.034,-0.15651 0.049,-0.14747 0.0385,0.023 0.0347,0.26017 -0.008,0.41965 -0.0365,0.13932 -0.0694,0.15555 -0.20731,0.10235 z m -7.39831,-0.37656 c -0.0106,-0.0259 -0.0194,-0.12847 -0.0194,-0.22753 0,-0.13065 0.0108,-0.17665 0.0388,-0.16765 0.0466,0.0145 0.0737,0.44264 0.0278,0.44264 -0.0158,0 -0.0377,-0.0216 -0.0483,-0.0475 z m 7.52115,-0.70179 c -0.0485,-0.0631 -0.0635,-0.11283 -0.0496,-0.16551 0.0279,-0.1082 0.1023,-0.0928 0.15689,0.0329 0.085,0.19511 0.0113,0.28655 -0.10711,0.13289 z m -7.52756,-0.47632 c -0.002,-0.17014 -3e-5,-0.17539 0.0784,-0.17253 0.0666,0.002 0.0826,0.0196 0.0903,0.0946 0.009,0.0849 -0.0876,0.25344 -0.14474,0.25344 -0.0118,0 -0.0227,-0.079 -0.024,-0.17548 z m 8.10386,-3.68837 c 0.004,-0.26847 0.0513,-0.35945 0.0882,-0.17146 0.0255,0.13098 -0.007,0.3623 -0.0566,0.4018 -0.0267,0.0217 -0.0351,-0.037 -0.032,-0.23034 z m -4.10798,-0.16091 c 0.0125,-0.0362 0.44384,-0.20569 0.5234,-0.20569 0.0935,0 -0.0742,0.10993 -0.26757,0.17539 -0.21562,0.073 -0.27302,0.0798 -0.25583,0.0305 z"
       class="ColorScheme-Text"
       id="path12-7-1" />
  </g>
</svg>
