<?xml version="1.0" encoding="UTF-8" standalone="no"?>
<svg
   width="64"
   version="1.1"
   height="64"
   id="svg17"
   sodipodi:docname="folder-print.svg"
   inkscape:version="1.1.2 (0a00cf5339, 2022-02-04)"
   xmlns:inkscape="http://www.inkscape.org/namespaces/inkscape"
   xmlns:sodipodi="http://sodipodi.sourceforge.net/DTD/sodipodi-0.dtd"
   xmlns:xlink="http://www.w3.org/1999/xlink"
   xmlns="http://www.w3.org/2000/svg"
   xmlns:svg="http://www.w3.org/2000/svg"
   xmlns:rdf="http://www.w3.org/1999/02/22-rdf-syntax-ns#"
   xmlns:cc="http://creativecommons.org/ns#"
   xmlns:dc="http://purl.org/dc/elements/1.1/">
  <sodipodi:namedview
     pagecolor="#ffffff"
     bordercolor="#666666"
     borderopacity="1"
     objecttolerance="10"
     gridtolerance="10"
     guidetolerance="10"
     inkscape:pageopacity="0"
     inkscape:pageshadow="2"
     inkscape:window-width="1920"
     inkscape:window-height="1015"
     id="namedview19"
     showgrid="true"
     inkscape:zoom="9.8125"
     inkscape:cx="21.401274"
     inkscape:cy="27.363057"
     inkscape:window-x="0"
     inkscape:window-y="0"
     inkscape:window-maximized="1"
     inkscape:current-layer="layer1"
     inkscape:document-rotation="0"
     inkscape:pagecheckerboard="0">
    <inkscape:grid
       type="xygrid"
       id="grid1098" />
  </sodipodi:namedview>
  <defs
     id="defs5455">
    <linearGradient
       inkscape:collect="always"
       id="linearGradient1203">
      <stop
         style="stop-color:#404868;stop-opacity:1"
         offset="0"
         id="stop1199" />
      <stop
         style="stop-color:#becad8;stop-opacity:1"
         offset="1"
         id="stop1201" />
    </linearGradient>
    <linearGradient
       inkscape:collect="always"
       xlink:href="#linearGradient1295"
       id="linearGradient1493"
       gradientUnits="userSpaceOnUse"
       x1="20.750315"
       y1="1025.9873"
       x2="-12.062732"
       y2="995.35931" />
    <linearGradient
       inkscape:collect="always"
       id="linearGradient1295">
      <stop
         style="stop-color:#1d212f;stop-opacity:1;"
         offset="0"
         id="stop1291" />
      <stop
         style="stop-color:#717da8;stop-opacity:1"
         offset="1"
         id="stop1293" />
    </linearGradient>
    <linearGradient
       inkscape:collect="always"
       xlink:href="#linearGradient952"
       id="linearGradient1297"
       x1="2.0000021"
       y1="1025.9873"
       x2="62.938519"
       y2="1025.9873"
       gradientUnits="userSpaceOnUse" />
    <linearGradient
       inkscape:collect="always"
       id="linearGradient952">
      <stop
         style="stop-color:#2e354b;stop-opacity:1"
         offset="0"
         id="stop948" />
      <stop
         style="stop-color:#717da8;stop-opacity:1"
         offset="1"
         id="stop950" />
    </linearGradient>
    <linearGradient
       inkscape:collect="always"
       xlink:href="#linearGradient1203"
       id="linearGradient1067"
       x1="389.57143"
       y1="523.798"
       x2="409.57143"
       y2="523.798"
       gradientUnits="userSpaceOnUse" />
  </defs>
  <metadata
     id="metadata5458">
    <rdf:RDF>
      <cc:Work
         rdf:about="">
        <dc:format>image/svg+xml</dc:format>
        <dc:type
           rdf:resource="http://purl.org/dc/dcmitype/StillImage" />
      </cc:Work>
    </rdf:RDF>
  </metadata>
  <g
     inkscape:label="Capa 1"
     inkscape:groupmode="layer"
     id="layer1"
     transform="translate(-384.57143,-483.798)">
    <g
       transform="matrix(1.0666489,0,0,1.1427479,382.43812,-653.78963)"
       id="g19">
      <rect
         width="60"
         height="42"
         x="2"
         y="1002.36"
         rx="6.5219998"
         ry="6.5619998"
         style="opacity:0.85;fill:url(#linearGradient1493);fill-opacity:1;stroke:none"
         id="rect11" />
      <path
         d="m 8.522,1002.36 c -3.613,0 -6.522,3.3302 -6.522,6.1002 v 0.8998 c 0,-2.77 2.909,-5 6.522,-5 h 46.957 c 3.613,0 6.522,2.23 6.522,5 v -0.8998 c 0,-2.77 -2.909,-6.1002 -6.522,-6.1002 z"
         style="opacity:0.2;fill:#ffffff;fill-opacity:1;stroke:none"
         id="path13"
         sodipodi:nodetypes="sscsscsss" />
      <path
         d="m 8.522,1013.3603 h 10.435 c 14.348,-1.333 11.86095,-6.5781 20.991951,-6.5781 h 15.361736 c 3.612989,0 6.689313,1.4143 6.689313,5.1083 v 25.8035 c 0,3.693 -2.908,6.667 -6.521,6.667 H 8.522 c -3.613,0 -6.522,-2.973 -6.522,-6.667 v -18.667 c 0,-4 2.609,-5.6667 6.522,-5.6667 z"
         style="opacity:0.6;fill:url(#linearGradient1297);fill-opacity:1;stroke:none"
         id="path15"
         sodipodi:nodetypes="scsssssssss" />
      <path
         d="m 2,1035.03 v 2.667 c 0,3.693 2.909,6.667 6.522,6.667 h 46.957 c 3.613,0 6.522,-2.973 6.522,-6.667 v -2.667 c 0,3.693 -2.909,7.333 -6.522,7.333 H 8.522 c -3.613,0 -6.522,-3.64 -6.522,-7.333 z"
         style="opacity:0.15;fill:#000000;fill-opacity:1;stroke:none"
         id="path17" />
    </g>
    <rect
       y="532.45514"
       x="424.57144"
       height="0.34285715"
       width="21.866692"
       id="rect4209"
       style="fill:#000000;fill-opacity:1;fill-rule:nonzero;stroke:none;stroke-width:0.422498;stroke-linecap:round;stroke-linejoin:round;stroke-miterlimit:4;stroke-dasharray:none;stroke-dashoffset:0;stroke-opacity:1" />
    <path
       d="m 396.56381,526.89514 v 1.28496 h 6.01562 v -2.75833 h -6.01562 z"
       id="path43"
       style="fill:#3a435f;fill-opacity:1;stroke-width:0.0380952" />
    <path
       d="m 396.56381,519.41552 h 6.01562 v 1.88035 h -6.01562 z"
       id="path45"
       style="fill:#3a435f;fill-opacity:1;stroke-width:0.0380952" />
    <path
       d="m 399.57143,513.798 c -5.51391,0 -10,4.48609 -10,10 0,5.51391 4.48609,10 10,10 5.5139,0 10,-4.48609 10,-10 0,-5.51391 -4.4861,-10 -10,-10 z m 6.62781,11.21752 c 0,1.21993 -0.99299,2.21295 -2.21368,2.21295 h -0.73973 v 1.28496 c 0,0.18437 -0.14896,0.33333 -0.33333,0.33333 h -6.6819 c -0.18438,0 -0.33334,-0.14896 -0.33334,-0.33333 v -1.28496 h -0.73897 c -1.22099,0 -2.21429,-0.99298 -2.21429,-2.21295 v -1.50727 c 0,-1.21993 0.99299,-2.21265 2.21429,-2.21265 h 0.73897 v -2.21368 c 0,-0.18437 0.14896,-0.33333 0.33334,-0.33333 h 6.68228 c 0.18437,0 0.33333,0.14896 0.33333,0.33333 v 2.21368 h 0.73973 c 1.22069,0 2.21368,0.99272 2.21368,2.21265 v 1.50727 z"
       id="path47"
       style="fill:url(#linearGradient1067);fill-opacity:1;stroke-width:0.0380952" />
    <path
       d="m 403.98553,521.96219 h -8.82743 c -0.85326,0 -1.54762,0.69329 -1.54762,1.54598 v 1.50728 c 0,0.85268 0.69436,1.54628 1.54762,1.54628 h 0.73897 v -1.14004 l -0.73897,1.6e-4 c -0.18438,0 -0.33333,-0.14896 -0.33333,-0.33334 0,-0.18437 0.14895,-0.33333 0.33333,-0.33333 h 8.82781 c 0.18437,0 0.33333,0.14896 0.33333,0.33333 0,0.18438 -0.14896,0.33334 -0.33333,0.33334 h -0.73974 v 1.14004 h 0.73974 c 0.85299,0 1.54701,-0.6936 1.54701,-1.54629 v -1.50728 c -3.1e-4,-0.85268 -0.69437,-1.54613 -1.54732,-1.54613 z"
       id="path49"
       style="fill:#3a435f;fill-opacity:1;stroke-width:0.0380952" />
  </g>
</svg>
