<?xml version="1.0" encoding="UTF-8" standalone="no"?>
<svg
   width="64"
   version="1.1"
   height="64"
   id="svg15"
   sodipodi:docname="folder-comic.svg"
   inkscape:version="1.1.1 (3bf5ae0d25, 2021-09-20)"
   xmlns:inkscape="http://www.inkscape.org/namespaces/inkscape"
   xmlns:sodipodi="http://sodipodi.sourceforge.net/DTD/sodipodi-0.dtd"
   xmlns:xlink="http://www.w3.org/1999/xlink"
   xmlns="http://www.w3.org/2000/svg"
   xmlns:svg="http://www.w3.org/2000/svg"
   xmlns:rdf="http://www.w3.org/1999/02/22-rdf-syntax-ns#"
   xmlns:cc="http://creativecommons.org/ns#"
   xmlns:dc="http://purl.org/dc/elements/1.1/">
  <sodipodi:namedview
     pagecolor="#ffffff"
     bordercolor="#666666"
     borderopacity="1"
     objecttolerance="10"
     gridtolerance="10"
     guidetolerance="10"
     inkscape:pageopacity="0"
     inkscape:pageshadow="2"
     inkscape:window-width="1920"
     inkscape:window-height="1015"
     id="namedview17"
     showgrid="true"
     inkscape:zoom="6.9384852"
     inkscape:cx="31.130714"
     inkscape:cy="43.165041"
     inkscape:window-x="0"
     inkscape:window-y="0"
     inkscape:window-maximized="1"
     inkscape:current-layer="layer1"
     inkscape:pagecheckerboard="0">
    <inkscape:grid
       type="xygrid"
       id="grid840" />
  </sodipodi:namedview>
  <defs
     id="defs5455">
    <linearGradient
       inkscape:collect="always"
       id="linearGradient1191">
      <stop
         style="stop-color:#404868;stop-opacity:1"
         offset="0"
         id="stop1187" />
      <stop
         style="stop-color:#becad8;stop-opacity:1"
         offset="1"
         id="stop1189" />
    </linearGradient>
    <linearGradient
       id="linearGradient4194">
      <stop
         style="stop-color:#b5006a"
         id="stop4196" />
      <stop
         offset="1"
         style="stop-color:#c70073"
         id="stop4198" />
    </linearGradient>
    <linearGradient
       inkscape:collect="always"
       xlink:href="#linearGradient1295"
       id="linearGradient1493"
       gradientUnits="userSpaceOnUse"
       x1="20.750315"
       y1="1025.9873"
       x2="-12.062732"
       y2="995.35931" />
    <linearGradient
       inkscape:collect="always"
       id="linearGradient1295">
      <stop
         style="stop-color:#1d212f;stop-opacity:1;"
         offset="0"
         id="stop1291" />
      <stop
         style="stop-color:#717da8;stop-opacity:1"
         offset="1"
         id="stop1293" />
    </linearGradient>
    <linearGradient
       inkscape:collect="always"
       xlink:href="#linearGradient952"
       id="linearGradient1297"
       x1="2.0000021"
       y1="1025.9873"
       x2="62.938519"
       y2="1025.9873"
       gradientUnits="userSpaceOnUse" />
    <linearGradient
       inkscape:collect="always"
       id="linearGradient952">
      <stop
         style="stop-color:#2e354b;stop-opacity:1"
         offset="0"
         id="stop948" />
      <stop
         style="stop-color:#717da8;stop-opacity:1"
         offset="1"
         id="stop950" />
    </linearGradient>
    <linearGradient
       inkscape:collect="always"
       xlink:href="#linearGradient1191"
       id="linearGradient1193"
       x1="389.57143"
       y1="523.798"
       x2="409.57142"
       y2="523.798"
       gradientUnits="userSpaceOnUse" />
    <linearGradient
       inkscape:collect="always"
       xlink:href="#linearGradient1191"
       id="linearGradient1984"
       x1="393.64548"
       y1="524.77386"
       x2="405.49722"
       y2="524.77386"
       gradientUnits="userSpaceOnUse" />
  </defs>
  <metadata
     id="metadata5458">
    <rdf:RDF>
      <cc:Work
         rdf:about="">
        <dc:format>image/svg+xml</dc:format>
        <dc:type
           rdf:resource="http://purl.org/dc/dcmitype/StillImage" />
      </cc:Work>
    </rdf:RDF>
  </metadata>
  <g
     inkscape:label="Capa 1"
     inkscape:groupmode="layer"
     id="layer1"
     transform="translate(-384.57143,-483.798)">
    <g
       transform="matrix(1.0666489,0,0,1.1427479,382.43813,-653.64677)"
       id="g19">
      <rect
         width="60"
         height="42"
         x="2"
         y="1002.36"
         rx="6.5219998"
         ry="6.5619998"
         style="opacity:0.85;fill:url(#linearGradient1493);fill-opacity:1;stroke:none"
         id="rect11" />
      <path
         d="m 8.522,1002.36 c -3.613,0 -6.522,3.3302 -6.522,6.1002 v 0.8998 c 0,-2.77 2.909,-5 6.522,-5 h 46.957 c 3.613,0 6.522,2.23 6.522,5 v -0.8998 c 0,-2.77 -2.909,-6.1002 -6.522,-6.1002 z"
         style="opacity:0.2;fill:#ffffff;fill-opacity:1;stroke:none"
         id="path13"
         sodipodi:nodetypes="sscsscsss" />
      <path
         d="m 8.522,1013.3603 h 10.435 c 14.348,-1.333 11.86095,-6.5781 20.991951,-6.5781 h 15.361736 c 3.612989,0 6.689313,1.4143 6.689313,5.1083 v 25.8035 c 0,3.693 -2.908,6.667 -6.521,6.667 H 8.522 c -3.613,0 -6.522,-2.973 -6.522,-6.667 v -18.667 c 0,-4 2.609,-5.6667 6.522,-5.6667 z"
         style="opacity:0.6;fill:url(#linearGradient1297);fill-opacity:1;stroke:none"
         id="path15"
         sodipodi:nodetypes="scsssssssss" />
      <path
         d="m 2,1035.03 v 2.667 c 0,3.693 2.909,6.667 6.522,6.667 h 46.957 c 3.613,0 6.522,-2.973 6.522,-6.667 v -2.667 c 0,3.693 -2.909,7.333 -6.522,7.333 H 8.522 c -3.613,0 -6.522,-3.64 -6.522,-7.333 z"
         style="opacity:0.15;fill:#000000;fill-opacity:1;stroke:none"
         id="path17" />
    </g>
    <rect
       y="532.6012"
       x="424.57144"
       height="0.34285715"
       width="21.866692"
       id="rect4209"
       style="fill:#000000;fill-opacity:1;fill-rule:nonzero;stroke:none;stroke-width:0.422498;stroke-linecap:round;stroke-linejoin:round;stroke-miterlimit:4;stroke-dasharray:none;stroke-dashoffset:0;stroke-opacity:1" />
    <path
       d="m 399.57143,513.798 c -2.65217,0 -5.19589,1.05351 -7.07106,2.92894 -1.87543,1.87528 -2.92894,4.41886 -2.92894,7.07106 0,2.65221 1.05351,5.19589 2.92894,7.07106 1.87528,1.87543 4.41885,2.92894 7.07106,2.92894 2.6522,0 5.19588,-1.05351 7.07106,-2.92894 1.87542,-1.87528 2.92893,-4.41885 2.92893,-7.07106 0,-1.75536 -0.4621,-3.47971 -1.33969,-4.99996 -0.87773,-1.52025 -2.14002,-2.78254 -3.66026,-3.66027 -1.52025,-0.87758 -3.24462,-1.3397 -4.99997,-1.3397 z m 6.66661,13.92212 c 0,0.23683 -0.094,0.46381 -0.26143,0.63122 -0.16738,0.16738 -0.39436,0.26142 -0.63121,0.26142 h -3.48883 l -1.98146,2.80743 c -0.0693,0.0992 -0.18258,0.15842 -0.30368,0.15842 -0.12108,0 -0.23437,-0.0592 -0.30366,-0.15842 l -1.98147,-2.80743 h -3.48883 c -0.23683,0 -0.46381,-0.094 -0.63122,-0.26142 -0.16739,-0.16739 -0.26142,-0.39437 -0.26142,-0.63122 V 519.135 c 0,-0.23684 0.094,-0.46382 0.26142,-0.63122 0.16739,-0.16739 0.39437,-0.26142 0.63122,-0.26142 h 11.54806 c 0.23683,0 0.46381,0.094 0.63122,0.26142 0.16738,0.16739 0.26143,0.39437 0.26143,0.63122 z"
       id="path49"
       style="stroke-width:0.0370368;fill-opacity:1;fill:url(#linearGradient1193)" />
    <path
       d="m 405.34546,518.98315 h -11.54807 c -0.0839,0 -0.1519,0.068 -0.1519,0.15191 v 8.58512 c 0,0.0839 0.068,0.15191 0.1519,0.15191 h 3.68139 c 0.12051,-5.8e-4 0.23379,0.0575 0.30367,0.15552 l 1.78891,2.53702 1.78891,-2.53702 c 0.0699,-0.0981 0.18316,-0.1561 0.30367,-0.15552 h 3.68138 c 0.0403,0 0.079,-0.016 0.10749,-0.0444 0.0283,-0.0285 0.0444,-0.0671 0.0444,-0.10749 v -8.58513 c 0,-0.0839 -0.068,-0.15191 -0.15191,-0.15191 z m -5.77403,6.66661 h -4.07405 c -0.20457,0 -0.37036,-0.16579 -0.37036,-0.37036 0,-0.20457 0.16579,-0.37037 0.37036,-0.37037 h 4.07405 c 0.20457,0 0.37036,0.1658 0.37036,0.37037 0,0.20457 -0.16579,0.37036 -0.37036,0.37036 z m 4.07404,-1.85183 h -8.14809 c -0.20457,0 -0.37036,-0.1658 -0.37036,-0.37037 0,-0.20457 0.16579,-0.37037 0.37036,-0.37037 h 8.14809 c 0.20457,0 0.37037,0.1658 0.37037,0.37037 0,0.20457 -0.1658,0.37037 -0.37037,0.37037 z m 0,-1.85184 h -8.14809 c -0.20457,0 -0.37036,-0.1658 -0.37036,-0.37037 0,-0.20457 0.16579,-0.37037 0.37036,-0.37037 h 8.14809 c 0.20457,0 0.37037,0.1658 0.37037,0.37037 0,0.20457 -0.1658,0.37037 -0.37037,0.37037 z"
       id="path51"
       style="stroke-width:0.0370368;fill:url(#linearGradient1984);fill-opacity:1.0" />
  </g>
</svg>
