<?xml version="1.0" encoding="UTF-8" standalone="no"?>
<svg
   width="64"
   version="1.1"
   height="64"
   id="svg15"
   sodipodi:docname="folder-KDE.svg"
   inkscape:version="1.1.1 (3bf5ae0d25, 2021-09-20)"
   xmlns:inkscape="http://www.inkscape.org/namespaces/inkscape"
   xmlns:sodipodi="http://sodipodi.sourceforge.net/DTD/sodipodi-0.dtd"
   xmlns:xlink="http://www.w3.org/1999/xlink"
   xmlns="http://www.w3.org/2000/svg"
   xmlns:svg="http://www.w3.org/2000/svg"
   xmlns:rdf="http://www.w3.org/1999/02/22-rdf-syntax-ns#"
   xmlns:cc="http://creativecommons.org/ns#"
   xmlns:dc="http://purl.org/dc/elements/1.1/">
  <sodipodi:namedview
     pagecolor="#ffffff"
     bordercolor="#666666"
     borderopacity="1"
     objecttolerance="10"
     gridtolerance="10"
     guidetolerance="10"
     inkscape:pageopacity="0"
     inkscape:pageshadow="2"
     inkscape:window-width="1920"
     inkscape:window-height="1007"
     id="namedview17"
     showgrid="true"
     inkscape:zoom="5.656854"
     inkscape:cx="27.577166"
     inkscape:cy="50.469749"
     inkscape:window-x="0"
     inkscape:window-y="0"
     inkscape:window-maximized="1"
     inkscape:current-layer="layer1"
     inkscape:document-rotation="0"
     inkscape:pagecheckerboard="0"
     showguides="false"
     inkscape:lockguides="false">
    <inkscape:grid
       type="xygrid"
       id="grid929" />
  </sodipodi:namedview>
  <defs
     id="defs5455">
    <linearGradient
       inkscape:collect="always"
       id="linearGradient873">
      <stop
         style="stop-color:#404868;stop-opacity:1"
         offset="0"
         id="stop869" />
      <stop
         style="stop-color:#becad8;stop-opacity:1"
         offset="1"
         id="stop871" />
    </linearGradient>
    <linearGradient
       inkscape:collect="always"
       xlink:href="#linearGradient1295"
       id="linearGradient1493"
       gradientUnits="userSpaceOnUse"
       x1="20.750315"
       y1="1025.9873"
       x2="-12.062732"
       y2="995.35931" />
    <linearGradient
       inkscape:collect="always"
       id="linearGradient1295">
      <stop
         style="stop-color:#1d212f;stop-opacity:1;"
         offset="0"
         id="stop1291" />
      <stop
         style="stop-color:#717da8;stop-opacity:1"
         offset="1"
         id="stop1293" />
    </linearGradient>
    <linearGradient
       inkscape:collect="always"
       xlink:href="#linearGradient952"
       id="linearGradient1297"
       x1="2.0000021"
       y1="1025.9873"
       x2="62.938519"
       y2="1025.9873"
       gradientUnits="userSpaceOnUse" />
    <linearGradient
       inkscape:collect="always"
       id="linearGradient952">
      <stop
         style="stop-color:#2e354b;stop-opacity:1"
         offset="0"
         id="stop948" />
      <stop
         style="stop-color:#717da8;stop-opacity:1"
         offset="1"
         id="stop950" />
    </linearGradient>
    <linearGradient
       inkscape:collect="always"
       xlink:href="#linearGradient873"
       id="linearGradient875"
       x1="389.57143"
       y1="523.798"
       x2="409.57126"
       y2="523.798"
       gradientUnits="userSpaceOnUse" />
  </defs>
  <metadata
     id="metadata5458">
    <rdf:RDF>
      <cc:Work
         rdf:about="">
        <dc:format>image/svg+xml</dc:format>
        <dc:type
           rdf:resource="http://purl.org/dc/dcmitype/StillImage" />
      </cc:Work>
    </rdf:RDF>
  </metadata>
  <g
     inkscape:label="Capa 1"
     inkscape:groupmode="layer"
     id="layer1"
     transform="translate(-384.57143,-483.798)">
    <g
       transform="matrix(1.0666489,0,0,1.1427479,382.43813,-653.64677)"
       id="g19">
      <rect
         width="60"
         height="42"
         x="2"
         y="1002.36"
         rx="6.5219998"
         ry="6.5619998"
         style="opacity:0.85;fill:url(#linearGradient1493);fill-opacity:1;stroke:none"
         id="rect11" />
      <path
         d="m 8.522,1002.36 c -3.613,0 -6.522,3.3302 -6.522,6.1002 v 0.8998 c 0,-2.77 2.909,-5 6.522,-5 h 46.957 c 3.613,0 6.522,2.23 6.522,5 v -0.8998 c 0,-2.77 -2.909,-6.1002 -6.522,-6.1002 z"
         style="opacity:0.2;fill:#ffffff;fill-opacity:1;stroke:none"
         id="path13"
         sodipodi:nodetypes="sscsscsss" />
      <path
         d="m 8.522,1013.3603 h 10.435 c 14.348,-1.333 11.86095,-6.5781 20.991951,-6.5781 h 15.361736 c 3.612989,0 6.689313,1.4143 6.689313,5.1083 v 25.8035 c 0,3.693 -2.908,6.667 -6.521,6.667 H 8.522 c -3.613,0 -6.522,-2.973 -6.522,-6.667 v -18.667 c 0,-4 2.609,-5.6667 6.522,-5.6667 z"
         style="opacity:0.6;fill:url(#linearGradient1297);fill-opacity:1;stroke:none"
         id="path15"
         sodipodi:nodetypes="scsssssssss" />
      <path
         d="m 2,1035.03 v 2.667 c 0,3.693 2.909,6.667 6.522,6.667 h 46.957 c 3.613,0 6.522,-2.973 6.522,-6.667 v -2.667 c 0,3.693 -2.909,7.333 -6.522,7.333 H 8.522 c -3.613,0 -6.522,-3.64 -6.522,-7.333 z"
         style="opacity:0.15;fill:#000000;fill-opacity:1;stroke:none"
         id="path17" />
    </g>
    <rect
       y="532.60059"
       x="424.57144"
       height="0.34285715"
       width="21.866692"
       id="rect4209"
       style="fill:#000000;fill-opacity:1;fill-rule:nonzero;stroke:none;stroke-width:0.422498;stroke-linecap:round;stroke-linejoin:round;stroke-miterlimit:4;stroke-dasharray:none;stroke-dashoffset:0;stroke-opacity:1" />
    <path
       d="m 408.78868,519.91903 c -0.49831,-1.18624 -1.23374,-2.25382 -2.13516,-3.17909 -0.92528,-0.92528 -1.99286,-1.63707 -3.1791,-2.13516 -1.23391,-0.52212 -2.53866,-0.80678 -3.89106,-0.80678 -1.35241,0 -2.65716,0.28465 -3.89089,0.80661 -1.18625,0.4983 -2.25383,1.23373 -3.1791,2.13516 -0.92528,0.92527 -1.63707,1.99285 -2.13516,3.1791 -0.52212,1.23391 -0.80678,2.53865 -0.80678,3.89106 0,1.3524 0.28465,2.65715 0.80661,3.89089 0.4983,1.18624 1.23374,2.25382 2.13516,3.1791 0.92527,0.92527 1.99285,1.63706 3.1791,2.13516 1.23374,0.52195 2.53865,0.78292 3.89089,0.78292 1.3524,0 2.65715,-0.26098 3.89089,-0.78292 1.18624,-0.49831 2.25382,-1.23374 3.1791,-2.13516 0.92527,-0.92528 1.63706,-1.99286 2.13516,-3.1791 0.52195,-1.23374 0.78292,-2.53866 0.78292,-3.89089 3.4e-4,-1.35241 -0.26065,-2.65715 -0.78263,-3.8909 z"
       id="path67"
       style="fill:url(#linearGradient875);fill-opacity:1;stroke-width:0.042366" />
    <path
       style="color:#d3dae3;fill:#2e354b;fill-opacity:1;stroke-width:0.668298"
       d="m 400.80965,516.898 -2.67983,0.40361 v 9.64555 l 2.67983,-0.71609 v -3.72651 l 2.67976,4.39315 2.67978,-0.99998 -3.3497,-3.99988 3.35101,-4.33188 -2.59996,-0.66797 -2.76089,4.37227 z m -5.45639,2.61583 c -0.0639,0 -0.12682,0.0249 -0.17535,0.0725 l -1.05335,1.04816 c -0.0973,0.0969 -0.0732,0.23489 0,0.35023 l 1.09001,1.70305 c -0.0813,0.16683 -0.15073,0.33863 -0.20943,0.51432 -0.002,0.006 -0.006,0.0145 -0.008,0.0226 l -1.97719,0.43755 c -0.13401,0.0295 -0.24852,0.11067 -0.24852,0.24734 v 0.65497 0.65496 c 0,0.13669 0.11446,0.21765 0.24852,0.24731 l 1.97719,0.43758 c 0.004,0.013 0.012,0.0252 0.0155,0.0382 0.057,0.17069 0.12484,0.33766 0.20285,0.5 l -1.08995,1.70175 c -0.0732,0.11529 -0.0973,0.25354 0,0.35024 l 1.05334,1.04806 c 0.0973,0.0969 0.25347,0.0969 0.3506,0 l 1.70898,-1.08319 c 0.16793,0.0817 0.34103,0.1517 0.5181,0.21082 0.012,0.004 0.0231,0.009 0.0333,0.0143 l 0.43835,1.96597 c 0,0.13682 0.11123,0.24745 0.24866,0.24745 h 1.48768 c 0.1375,0 0.21883,-0.11378 0.24867,-0.24745 l 0.43834,-2.02588 c 0.20138,-0.0746 0.39684,-0.16542 0.58486,-0.26963 l 1.66835,1.18747 c 0.0973,0.0969 0.25348,0.0969 0.35067,0 l 1.05333,-1.04806 c 0.0973,-0.0969 0.0733,-0.23491 0,-0.35024 l -0.63459,-0.95839 -0.0671,0.0251 c -0.1509,0.0564 -0.32076,-0.002 -0.4043,-0.13926 l -0.66732,-1.09372 c -0.55602,1.32343 -1.86913,2.2538 -3.40076,2.2538 -2.03501,0 -3.6847,-1.64158 -3.6847,-3.66656 0,-1.55383 0.97328,-2.87878 2.34477,-3.41262 v -0.73047 l -0.005,0.0239 c -0.0147,0.004 -0.0284,0.0132 -0.043,0.0178 -0.17473,0.0576 -0.34559,0.12639 -0.51164,0.20572 l -1.70627,-1.08205 c -0.0483,-0.0482 -0.112,-0.0725 -0.1753,-0.0725 z"
       class="ColorScheme-Text"
       id="path10-7-7" />
  </g>
</svg>
