<?xml version="1.0" encoding="UTF-8" standalone="no"?>
<svg
   height="64"
   width="64"
   version="1.1"
   id="svg19"
   sodipodi:docname="folder-root.svg"
   inkscape:version="1.1.2 (0a00cf5339, 2022-02-04)"
   xmlns:inkscape="http://www.inkscape.org/namespaces/inkscape"
   xmlns:sodipodi="http://sodipodi.sourceforge.net/DTD/sodipodi-0.dtd"
   xmlns:xlink="http://www.w3.org/1999/xlink"
   xmlns="http://www.w3.org/2000/svg"
   xmlns:svg="http://www.w3.org/2000/svg"
   xmlns:rdf="http://www.w3.org/1999/02/22-rdf-syntax-ns#"
   xmlns:cc="http://creativecommons.org/ns#"
   xmlns:dc="http://purl.org/dc/elements/1.1/">
  <metadata
     id="metadata25">
    <rdf:RDF>
      <cc:Work
         rdf:about="">
        <dc:format>image/svg+xml</dc:format>
        <dc:type
           rdf:resource="http://purl.org/dc/dcmitype/StillImage" />
      </cc:Work>
    </rdf:RDF>
  </metadata>
  <defs
     id="defs23">
    <linearGradient
       inkscape:collect="always"
       id="linearGradient1198">
      <stop
         style="stop-color:#404868;stop-opacity:1"
         offset="0"
         id="stop1194" />
      <stop
         style="stop-color:#becad8;stop-opacity:1"
         offset="1"
         id="stop1196" />
    </linearGradient>
    <linearGradient
       inkscape:collect="always"
       xlink:href="#linearGradient1295"
       id="linearGradient1493"
       gradientUnits="userSpaceOnUse"
       x1="20.750315"
       y1="1025.9873"
       x2="-12.062732"
       y2="995.35931" />
    <linearGradient
       inkscape:collect="always"
       id="linearGradient1295">
      <stop
         style="stop-color:#1d212f;stop-opacity:1;"
         offset="0"
         id="stop1291" />
      <stop
         style="stop-color:#717da8;stop-opacity:1"
         offset="1"
         id="stop1293" />
    </linearGradient>
    <linearGradient
       inkscape:collect="always"
       xlink:href="#linearGradient952"
       id="linearGradient1297"
       x1="2.0000021"
       y1="1025.9873"
       x2="62.938519"
       y2="1025.9873"
       gradientUnits="userSpaceOnUse" />
    <linearGradient
       inkscape:collect="always"
       id="linearGradient952">
      <stop
         style="stop-color:#2e354b;stop-opacity:1"
         offset="0"
         id="stop948" />
      <stop
         style="stop-color:#717da8;stop-opacity:1"
         offset="1"
         id="stop950" />
    </linearGradient>
    <linearGradient
       inkscape:collect="always"
       xlink:href="#linearGradient1198"
       id="linearGradient1200"
       x1="5"
       y1="40"
       x2="25"
       y2="40"
       gradientUnits="userSpaceOnUse" />
  </defs>
  <sodipodi:namedview
     pagecolor="#ffffff"
     bordercolor="#666666"
     borderopacity="1"
     objecttolerance="10"
     gridtolerance="10"
     guidetolerance="10"
     inkscape:pageopacity="0"
     inkscape:pageshadow="2"
     inkscape:window-width="1920"
     inkscape:window-height="1015"
     id="namedview21"
     showgrid="true"
     inkscape:zoom="9.8124999"
     inkscape:cx="24.458599"
     inkscape:cy="28.280255"
     inkscape:window-x="0"
     inkscape:window-y="0"
     inkscape:window-maximized="1"
     inkscape:current-layer="svg19"
     inkscape:document-rotation="0"
     inkscape:pagecheckerboard="0">
    <inkscape:grid
       type="xygrid"
       id="grid977" />
  </sodipodi:namedview>
  <linearGradient
     id="a"
     gradientUnits="userSpaceOnUse"
     x1="3"
     x2="3"
     y1="58"
     y2="16">
    <stop
       offset="0"
       stop-color="#3daee9"
       id="stop2" />
    <stop
       offset="1"
       stop-color="#6cc1ef"
       id="stop4" />
  </linearGradient>
  <g
     transform="matrix(1.0666489,0,0,1.1427479,-2.1333114,-1137.4448)"
     id="g19">
    <rect
       width="60"
       height="42"
       x="2"
       y="1002.36"
       rx="6.5219998"
       ry="6.5619998"
       style="opacity:0.85;fill:url(#linearGradient1493);fill-opacity:1;stroke:none"
       id="rect11" />
    <path
       d="m 8.522,1002.36 c -3.613,0 -6.522,3.3302 -6.522,6.1002 v 0.8998 c 0,-2.77 2.909,-5 6.522,-5 h 46.957 c 3.613,0 6.522,2.23 6.522,5 v -0.8998 c 0,-2.77 -2.909,-6.1002 -6.522,-6.1002 z"
       style="opacity:0.2;fill:#ffffff;fill-opacity:1;stroke:none"
       id="path13"
       sodipodi:nodetypes="sscsscsss" />
    <path
       d="m 8.522,1013.3603 h 10.435 c 14.348,-1.333 11.86095,-6.5781 20.991951,-6.5781 h 15.361736 c 3.612989,0 6.689313,1.4143 6.689313,5.1083 v 25.8035 c 0,3.693 -2.908,6.667 -6.521,6.667 H 8.522 c -3.613,0 -6.522,-2.973 -6.522,-6.667 v -18.667 c 0,-4 2.609,-5.6667 6.522,-5.6667 z"
       style="opacity:0.6;fill:url(#linearGradient1297);fill-opacity:1;stroke:none"
       id="path15"
       sodipodi:nodetypes="scsssssssss" />
    <path
       d="m 2,1035.03 v 2.667 c 0,3.693 2.909,6.667 6.522,6.667 h 46.957 c 3.613,0 6.522,-2.973 6.522,-6.667 v -2.667 c 0,3.693 -2.909,7.333 -6.522,7.333 H 8.522 c -3.613,0 -6.522,-3.64 -6.522,-7.333 z"
       style="opacity:0.15;fill:#000000;fill-opacity:1;stroke:none"
       id="path17" />
  </g>
  <rect
     y="48.800331"
     x="40"
     height="0.34285715"
     width="21.866692"
     id="rect4209"
     style="fill:#000000;fill-opacity:1;fill-rule:nonzero;stroke:none;stroke-width:0.422498;stroke-linecap:round;stroke-linejoin:round;stroke-miterlimit:4;stroke-dasharray:none;stroke-dashoffset:0;stroke-opacity:1" />
  <path
     d="M 15,30 C 9.47698,30 5,34.476984 5,40 5,45.523017 9.47698,50 15,50 20.52302,50 25,45.523017 25,40 25,34.476984 20.52302,30 15,30 Z m 5.55556,7.777778 h -4.3135 L 12.22222,45.817857 9.86885,41.111112 H 8.33333 v -2.222223 h 2.908931 l 0.979959,1.95996 2.64663,-5.293254 h 5.68651 z"
     id="path70"
     style="stroke-width:0.0396825;fill-opacity:1;fill:url(#linearGradient1200)" />
</svg>
