<?xml version="1.0" encoding="UTF-8" standalone="no"?>
<svg
   width="64"
   version="1.1"
   height="64"
   id="svg17"
   sodipodi:docname="folder-network.svg"
   inkscape:version="1.1.2 (0a00cf5339, 2022-02-04)"
   xmlns:inkscape="http://www.inkscape.org/namespaces/inkscape"
   xmlns:sodipodi="http://sodipodi.sourceforge.net/DTD/sodipodi-0.dtd"
   xmlns:xlink="http://www.w3.org/1999/xlink"
   xmlns="http://www.w3.org/2000/svg"
   xmlns:svg="http://www.w3.org/2000/svg"
   xmlns:rdf="http://www.w3.org/1999/02/22-rdf-syntax-ns#"
   xmlns:cc="http://creativecommons.org/ns#"
   xmlns:dc="http://purl.org/dc/elements/1.1/">
  <sodipodi:namedview
     pagecolor="#ffffff"
     bordercolor="#666666"
     borderopacity="1"
     objecttolerance="10"
     gridtolerance="10"
     guidetolerance="10"
     inkscape:pageopacity="0"
     inkscape:pageshadow="2"
     inkscape:window-width="1920"
     inkscape:window-height="1015"
     id="namedview19"
     showgrid="true"
     inkscape:zoom="8"
     inkscape:cx="28.5"
     inkscape:cy="30.6875"
     inkscape:window-x="0"
     inkscape:window-y="0"
     inkscape:window-maximized="1"
     inkscape:current-layer="layer1"
     inkscape:document-rotation="0"
     inkscape:lockguides="false"
     inkscape:pagecheckerboard="0">
    <inkscape:grid
       type="xygrid"
       id="grid896" />
  </sodipodi:namedview>
  <defs
     id="defs5455">
    <linearGradient
       inkscape:collect="always"
       id="linearGradient1052">
      <stop
         style="stop-color:#404868;stop-opacity:1"
         offset="0"
         id="stop1048" />
      <stop
         style="stop-color:#becad8;stop-opacity:1"
         offset="1"
         id="stop1050" />
    </linearGradient>
    <linearGradient
       inkscape:collect="always"
       xlink:href="#linearGradient1295"
       id="linearGradient1493"
       gradientUnits="userSpaceOnUse"
       x1="20.750315"
       y1="1025.9873"
       x2="-12.062732"
       y2="995.35931" />
    <linearGradient
       inkscape:collect="always"
       id="linearGradient1295">
      <stop
         style="stop-color:#1d212f;stop-opacity:1;"
         offset="0"
         id="stop1291" />
      <stop
         style="stop-color:#717da8;stop-opacity:1"
         offset="1"
         id="stop1293" />
    </linearGradient>
    <linearGradient
       inkscape:collect="always"
       xlink:href="#linearGradient952"
       id="linearGradient1297"
       x1="2.0000021"
       y1="1025.9873"
       x2="62.938519"
       y2="1025.9873"
       gradientUnits="userSpaceOnUse" />
    <linearGradient
       inkscape:collect="always"
       id="linearGradient952">
      <stop
         style="stop-color:#2e354b;stop-opacity:1"
         offset="0"
         id="stop948" />
      <stop
         style="stop-color:#717da8;stop-opacity:1"
         offset="1"
         id="stop950" />
    </linearGradient>
    <linearGradient
       inkscape:collect="always"
       xlink:href="#linearGradient1052"
       id="linearGradient1054"
       x1="389.57143"
       y1="523.798"
       x2="409.57144"
       y2="523.798"
       gradientUnits="userSpaceOnUse" />
  </defs>
  <metadata
     id="metadata5458">
    <rdf:RDF>
      <cc:Work
         rdf:about="">
        <dc:format>image/svg+xml</dc:format>
        <dc:type
           rdf:resource="http://purl.org/dc/dcmitype/StillImage" />
      </cc:Work>
    </rdf:RDF>
  </metadata>
  <g
     inkscape:label="Capa 1"
     inkscape:groupmode="layer"
     id="layer1"
     transform="translate(-384.57143,-483.798)">
    <g
       transform="matrix(1.0666489,0,0,1.1427479,382.43813,-653.64677)"
       id="g19">
      <rect
         width="60"
         height="42"
         x="2"
         y="1002.36"
         rx="6.5219998"
         ry="6.5619998"
         style="opacity:0.85;fill:url(#linearGradient1493);fill-opacity:1;stroke:none"
         id="rect11" />
      <path
         d="m 8.522,1002.36 c -3.613,0 -6.522,3.3302 -6.522,6.1002 v 0.8998 c 0,-2.77 2.909,-5 6.522,-5 h 46.957 c 3.613,0 6.522,2.23 6.522,5 v -0.8998 c 0,-2.77 -2.909,-6.1002 -6.522,-6.1002 z"
         style="opacity:0.2;fill:#ffffff;fill-opacity:1;stroke:none"
         id="path13"
         sodipodi:nodetypes="sscsscsss" />
      <path
         d="m 8.522,1013.3603 h 10.435 c 14.348,-1.333 11.86095,-6.5781 20.991951,-6.5781 h 15.361736 c 3.612989,0 6.689313,1.4143 6.689313,5.1083 v 25.8035 c 0,3.693 -2.908,6.667 -6.521,6.667 H 8.522 c -3.613,0 -6.522,-2.973 -6.522,-6.667 v -18.667 c 0,-4 2.609,-5.6667 6.522,-5.6667 z"
         style="opacity:0.6;fill:url(#linearGradient1297);fill-opacity:1;stroke:none"
         id="path15"
         sodipodi:nodetypes="scsssssssss" />
      <path
         d="m 2,1035.03 v 2.667 c 0,3.693 2.909,6.667 6.522,6.667 h 46.957 c 3.613,0 6.522,-2.973 6.522,-6.667 v -2.667 c 0,3.693 -2.909,7.333 -6.522,7.333 H 8.522 c -3.613,0 -6.522,-3.64 -6.522,-7.333 z"
         style="opacity:0.15;fill:#000000;fill-opacity:1;stroke:none"
         id="path17" />
    </g>
    <rect
       y="532.59814"
       x="424.57144"
       height="0.34285715"
       width="21.866692"
       id="rect4209"
       style="fill:#000000;fill-opacity:1;fill-rule:nonzero;stroke:none;stroke-width:0.422498;stroke-linecap:round;stroke-linejoin:round;stroke-miterlimit:4;stroke-dasharray:none;stroke-dashoffset:0;stroke-opacity:1" />
    <path
       d="m 399.57144,513.798 c -5.52381,0 -10.00001,4.47619 -10.00001,10 0,5.52381 4.4762,10 10.00001,10 5.52381,0 10,-4.47619 10,-10 0,-5.52381 -4.47619,-10 -10,-10 z m 6.47619,13.73809 c -0.66668,-0.14283 -1.09532,-0.76198 -1.02372,-1.42865 l -3.54767,-1.23814 c -0.23817,0.45242 -0.6429,0.76199 -1.11904,0.92857 l 0.47614,3.04762 c 0.0477,0 0.11909,0 0.16674,0.0238 0.71433,0.14284 1.16672,0.85714 1.00001,1.57147 -0.14283,0.71433 -0.85715,1.16671 -1.57148,1 -0.71433,-0.14283 -1.16671,-0.85714 -1,-1.57147 0.0952,-0.42849 0.40474,-0.78571 0.78573,-0.92857 l -0.47615,-3.02385 c -0.14283,0 -0.26193,-0.0238 -0.40474,-0.0477 -0.40475,-0.0952 -0.73806,-0.28567 -1.00001,-0.57147 l -3.40468,2.30952 c 0.0952,0.23816 0.11908,0.47615 0.0477,0.73805 -0.14283,0.71433 -0.85715,1.16671 -1.57148,1.00001 -0.71431,-0.14284 -1.1667,-0.85715 -1,-1.57148 0.14284,-0.71433 0.85716,-1.16671 1.57149,-1 0.23815,0.0477 0.45241,0.16675 0.61899,0.30957 l 3.40468,-2.30952 c -0.11908,-0.23816 -0.16675,-0.47615 -0.1905,-0.73805 l -2.1667,-0.26192 c -0.21426,0.59524 -0.85715,0.97624 -1.50005,0.83343 -0.71433,-0.14284 -1.16671,-0.85715 -1,-1.57148 0.14283,-0.71433 0.85714,-1.16671 1.57147,-1 0.57147,0.11908 0.97623,0.59524 1.02372,1.14282 l 2.16671,0.26191 c 0.16675,-0.54757 0.54759,-0.97624 1.02373,-1.21424 l -1.02373,-3.45217 c -0.11907,0 -0.23816,0 -0.33332,-0.0238 -0.71433,-0.14283 -1.16671,-0.85715 -1,-1.57147 0.14283,-0.71433 0.85714,-1.16672 1.57147,-1.00001 0.71433,0.14283 1.16672,0.85715 1.00001,1.57148 -0.0714,0.38098 -0.30959,0.69039 -0.6429,0.85714 l 0.99999,3.40467 c 0.21426,-0.0238 0.4285,-0.0238 0.66667,0.0238 0.381,0.0714 0.69039,0.26191 0.95229,0.50008 l 2.85711,-2.14277 c -0.0952,-0.23816 -0.14283,-0.52381 -0.0714,-0.80948 0.14283,-0.71433 0.85713,-1.16671 1.57146,-1 0.71433,0.14283 1.16672,0.85714 1.00001,1.57147 -0.14283,0.71433 -0.85715,1.16671 -1.57148,1 -0.21424,-0.0477 -0.40473,-0.14283 -0.57147,-0.28566 l -2.85709,2.14277 c 0.19048,0.38099 0.26191,0.80948 0.19048,1.23814 l 3.54767,1.23814 c 0.28567,-0.45243 0.83341,-0.69039 1.38096,-0.57147 0.71433,0.14283 1.16671,0.85714 1,1.57147 -0.14283,0.73788 -0.83325,1.1903 -1.54755,1.04749 z"
       id="path67"
       style="stroke-width:0.042517;fill-opacity:1;fill:url(#linearGradient1054)" />
  </g>
</svg>
