<?xml version="1.0" encoding="UTF-8" standalone="no"?>
<svg
   width="64"
   version="1.1"
   height="64"
   id="svg17"
   sodipodi:docname="folder-chart.svg"
   inkscape:version="1.1.2 (0a00cf5339, 2022-02-04)"
   xmlns:inkscape="http://www.inkscape.org/namespaces/inkscape"
   xmlns:sodipodi="http://sodipodi.sourceforge.net/DTD/sodipodi-0.dtd"
   xmlns:xlink="http://www.w3.org/1999/xlink"
   xmlns="http://www.w3.org/2000/svg"
   xmlns:svg="http://www.w3.org/2000/svg"
   xmlns:rdf="http://www.w3.org/1999/02/22-rdf-syntax-ns#"
   xmlns:cc="http://creativecommons.org/ns#"
   xmlns:dc="http://purl.org/dc/elements/1.1/">
  <sodipodi:namedview
     pagecolor="#ffffff"
     bordercolor="#666666"
     borderopacity="1"
     objecttolerance="10"
     gridtolerance="10"
     guidetolerance="10"
     inkscape:pageopacity="0"
     inkscape:pageshadow="2"
     inkscape:window-width="1920"
     inkscape:window-height="1015"
     id="namedview19"
     showgrid="true"
     inkscape:zoom="6.9384855"
     inkscape:cx="23.348035"
     inkscape:cy="28.464425"
     inkscape:window-x="0"
     inkscape:window-y="0"
     inkscape:window-maximized="1"
     inkscape:current-layer="layer1"
     inkscape:document-rotation="0"
     inkscape:pagecheckerboard="0"
     inkscape:lockguides="true">
    <inkscape:grid
       type="xygrid"
       id="grid941" />
  </sodipodi:namedview>
  <defs
     id="defs5455">
    <linearGradient
       inkscape:collect="always"
       id="linearGradient1343">
      <stop
         style="stop-color:#404868;stop-opacity:1"
         offset="0"
         id="stop1339" />
      <stop
         style="stop-color:#becad8;stop-opacity:1"
         offset="1"
         id="stop1341" />
    </linearGradient>
    <linearGradient
       inkscape:collect="always"
       xlink:href="#linearGradient1295"
       id="linearGradient1493"
       gradientUnits="userSpaceOnUse"
       x1="20.750315"
       y1="1025.9873"
       x2="-12.062732"
       y2="995.35931" />
    <linearGradient
       inkscape:collect="always"
       id="linearGradient1295">
      <stop
         style="stop-color:#1d212f;stop-opacity:1;"
         offset="0"
         id="stop1291" />
      <stop
         style="stop-color:#717da8;stop-opacity:1"
         offset="1"
         id="stop1293" />
    </linearGradient>
    <linearGradient
       inkscape:collect="always"
       xlink:href="#linearGradient952"
       id="linearGradient1297"
       x1="2.0000021"
       y1="1025.9873"
       x2="62.938519"
       y2="1025.9873"
       gradientUnits="userSpaceOnUse" />
    <linearGradient
       inkscape:collect="always"
       id="linearGradient952">
      <stop
         style="stop-color:#2e354b;stop-opacity:1"
         offset="0"
         id="stop948" />
      <stop
         style="stop-color:#717da8;stop-opacity:1"
         offset="1"
         id="stop950" />
    </linearGradient>
    <linearGradient
       inkscape:collect="always"
       xlink:href="#linearGradient1343"
       id="linearGradient1271"
       x1="389.57143"
       y1="523.798"
       x2="409.57142"
       y2="523.798"
       gradientUnits="userSpaceOnUse" />
  </defs>
  <metadata
     id="metadata5458">
    <rdf:RDF>
      <cc:Work
         rdf:about="">
        <dc:format>image/svg+xml</dc:format>
        <dc:type
           rdf:resource="http://purl.org/dc/dcmitype/StillImage" />
      </cc:Work>
    </rdf:RDF>
  </metadata>
  <g
     inkscape:label="Capa 1"
     inkscape:groupmode="layer"
     id="layer1"
     transform="translate(-384.57143,-483.798)">
    <g
       inkscape:label="Capa 1"
       id="layer1-9" />
    <g
       transform="matrix(1.0666489,0,0,1.1427479,382.43812,-653.64677)"
       id="g19">
      <rect
         width="60"
         height="42"
         x="2"
         y="1002.36"
         rx="6.5219998"
         ry="6.5619998"
         style="opacity:0.85;fill:url(#linearGradient1493);fill-opacity:1;stroke:none"
         id="rect11" />
      <path
         d="m 8.522,1002.36 c -3.613,0 -6.522,3.3302 -6.522,6.1002 v 0.8998 c 0,-2.77 2.909,-5 6.522,-5 h 46.957 c 3.613,0 6.522,2.23 6.522,5 v -0.8998 c 0,-2.77 -2.909,-6.1002 -6.522,-6.1002 z"
         style="opacity:0.2;fill:#ffffff;fill-opacity:1;stroke:none"
         id="path13"
         sodipodi:nodetypes="sscsscsss" />
      <path
         d="m 8.522,1013.3603 h 10.435 c 14.348,-1.333 11.86095,-6.5781 20.991951,-6.5781 h 15.361736 c 3.612989,0 6.689313,1.4143 6.689313,5.1083 v 25.8035 c 0,3.693 -2.908,6.667 -6.521,6.667 H 8.522 c -3.613,0 -6.522,-2.973 -6.522,-6.667 v -18.667 c 0,-4 2.609,-5.6667 6.522,-5.6667 z"
         style="opacity:0.6;fill:url(#linearGradient1297);fill-opacity:1;stroke:none"
         id="path15"
         sodipodi:nodetypes="scsssssssss" />
      <path
         d="m 2,1035.03 v 2.667 c 0,3.693 2.909,6.667 6.522,6.667 h 46.957 c 3.613,0 6.522,-2.973 6.522,-6.667 v -2.667 c 0,3.693 -2.909,7.333 -6.522,7.333 H 8.522 c -3.613,0 -6.522,-3.64 -6.522,-7.333 z"
         style="opacity:0.15;fill:#000000;fill-opacity:1;stroke:none"
         id="path17" />
    </g>
    <rect
       y="532.60083"
       x="424.57144"
       height="0.34285715"
       width="21.866692"
       id="rect4209"
       style="fill:#000000;fill-opacity:1;fill-rule:nonzero;stroke:none;stroke-width:0.422498;stroke-linecap:round;stroke-linejoin:round;stroke-miterlimit:4;stroke-dasharray:none;stroke-dashoffset:0;stroke-opacity:1" />
    <path
       d="m 398.08996,523.05719 c -0.20457,0 -0.37037,0.1658 -0.37037,0.37037 v 5.92588 c 0,0.20457 0.1658,0.37037 0.37037,0.37037 0.20456,0 0.37037,-0.1658 0.37037,-0.37037 v -5.92588 c 0,-0.0982 -0.0391,-0.19242 -0.10851,-0.26186 -0.0695,-0.0695 -0.16363,-0.10851 -0.26186,-0.10851 z"
       id="path49"
       style="fill:#becad8;fill-opacity:1;stroke-width:0.0370368" />
    <path
       d="m 395.12701,525.64976 c -0.20456,0 -0.37036,0.16581 -0.37036,0.37037 v 3.33331 c 0,0.20457 0.1658,0.37037 0.37036,0.37037 0.20458,0 0.37037,-0.1658 0.37037,-0.37037 v -3.33331 c 0,-0.0982 -0.0391,-0.19241 -0.1085,-0.26186 -0.0695,-0.0694 -0.16363,-0.10851 -0.26187,-0.10851 z"
       id="path51"
       style="fill:#becad8;fill-opacity:1;stroke-width:0.0370368" />
    <path
       d="m 401.0529,520.46462 c -0.20457,0 -0.37037,0.1658 -0.37037,0.37036 v 8.51846 c 0,0.20457 0.1658,0.37037 0.37037,0.37037 0.20457,0 0.37036,-0.1658 0.37036,-0.37037 v -8.51846 c 0,-0.0982 -0.0391,-0.19241 -0.1085,-0.26186 -0.0695,-0.0694 -0.16363,-0.1085 -0.26186,-0.1085 z"
       id="path53"
       style="fill:#becad8;fill-opacity:1;stroke-width:0.0370368" />
    <path
       d="m 399.57143,513.798 c -2.65217,0 -5.19589,1.05351 -7.07106,2.92894 -1.87543,1.87528 -2.92894,4.41886 -2.92894,7.07106 0,2.6522 1.05351,5.19589 2.92894,7.07106 1.87528,1.87543 4.41886,2.92894 7.07106,2.92894 2.6522,0 5.19589,-1.05351 7.07106,-2.92894 1.87543,-1.87528 2.92893,-4.41886 2.92893,-7.07106 0,-1.75535 -0.4621,-3.47971 -1.33969,-4.99996 -0.87773,-1.52025 -2.14002,-2.78254 -3.66027,-3.66027 -1.52025,-0.87759 -3.2446,-1.3397 -4.99996,-1.3397 z m -3.33331,15.55544 c 0,0.397 -0.2118,0.76373 -0.55555,0.96221 -0.34375,0.19849 -0.76737,0.1985 -1.1111,0 -0.34375,-0.19849 -0.55556,-0.56525 -0.55556,-0.96221 v -3.33331 c 0,-0.397 0.21181,-0.76373 0.55556,-0.96221 0.34374,-0.19848 0.76736,-0.1985 1.1111,0 0.34373,0.19849 0.55555,0.56525 0.55555,0.96221 z m 2.96294,0 c 0,0.397 -0.21181,0.76373 -0.55555,0.96221 -0.34375,0.19849 -0.76737,0.1985 -1.11111,0 -0.34373,-0.19849 -0.55554,-0.56525 -0.55554,-0.96221 v -5.92588 c 0,-0.397 0.2118,-0.76374 0.55554,-0.96221 0.34375,-0.19848 0.76737,-0.1985 1.11111,0 0.34374,0.19849 0.55555,0.56525 0.55555,0.96221 z m 2.96294,0 c 0,0.397 -0.21181,0.76373 -0.55555,0.96221 -0.34375,0.19849 -0.76737,0.1985 -1.1111,0 -0.34374,-0.19849 -0.55556,-0.56525 -0.55556,-0.96221 v -8.51846 c 0,-0.39699 0.21181,-0.76373 0.55556,-0.96221 0.34374,-0.19848 0.76736,-0.19849 1.1111,0 0.34374,0.19849 0.55555,0.56526 0.55555,0.96221 z m 2.96294,0 c 0,0.397 -0.2118,0.76373 -0.55555,0.96221 -0.34374,0.19849 -0.76737,0.1985 -1.1111,0 -0.34374,-0.19849 -0.55556,-0.56525 -0.55556,-0.96221 v -11.11103 c 0,-0.397 0.21181,-0.76373 0.55556,-0.96221 0.34374,-0.19848 0.76736,-0.1985 1.1111,0 0.34374,0.19849 0.55555,0.56526 0.55555,0.96221 z"
       id="path55"
       style="fill:url(#linearGradient1271);fill-opacity:1;stroke-width:0.0370368" />
    <path
       d="m 404.01584,517.87205 c -0.20457,0 -0.37037,0.16579 -0.37037,0.37036 v 11.11103 c 0,0.20457 0.1658,0.37037 0.37037,0.37037 0.20457,0 0.37037,-0.1658 0.37037,-0.37037 v -11.11103 c 0,-0.0982 -0.0391,-0.19241 -0.10851,-0.26186 -0.0694,-0.0694 -0.16363,-0.1085 -0.26186,-0.1085 z"
       id="path57"
       style="fill:#becad8;fill-opacity:1;stroke-width:0.0370368" />
  </g>
</svg>
