<?xml version="1.0" encoding="UTF-8" standalone="no"?>
<svg
   width="64"
   version="1.1"
   height="64"
   id="svg17"
   sodipodi:docname="folder-mail.svg"
   inkscape:version="1.1.1 (3bf5ae0d25, 2021-09-20)"
   xmlns:inkscape="http://www.inkscape.org/namespaces/inkscape"
   xmlns:sodipodi="http://sodipodi.sourceforge.net/DTD/sodipodi-0.dtd"
   xmlns:xlink="http://www.w3.org/1999/xlink"
   xmlns="http://www.w3.org/2000/svg"
   xmlns:svg="http://www.w3.org/2000/svg"
   xmlns:rdf="http://www.w3.org/1999/02/22-rdf-syntax-ns#"
   xmlns:cc="http://creativecommons.org/ns#"
   xmlns:dc="http://purl.org/dc/elements/1.1/">
  <sodipodi:namedview
     pagecolor="#ffffff"
     bordercolor="#666666"
     borderopacity="1"
     objecttolerance="10"
     gridtolerance="10"
     guidetolerance="10"
     inkscape:pageopacity="0"
     inkscape:pageshadow="2"
     inkscape:window-width="1920"
     inkscape:window-height="1007"
     id="namedview19"
     showgrid="true"
     inkscape:zoom="9.8125"
     inkscape:cx="23.949045"
     inkscape:cy="32.254777"
     inkscape:window-x="0"
     inkscape:window-y="0"
     inkscape:window-maximized="1"
     inkscape:current-layer="layer1"
     inkscape:document-rotation="0"
     inkscape:pagecheckerboard="0">
    <inkscape:grid
       type="xygrid"
       id="grid969" />
  </sodipodi:namedview>
  <defs
     id="defs5455">
    <linearGradient
       inkscape:collect="always"
       id="linearGradient875">
      <stop
         style="stop-color:#404868;stop-opacity:1"
         offset="0"
         id="stop871" />
      <stop
         style="stop-color:#becad8;stop-opacity:1"
         offset="1"
         id="stop873" />
    </linearGradient>
    <linearGradient
       inkscape:collect="always"
       xlink:href="#linearGradient1295"
       id="linearGradient1493"
       gradientUnits="userSpaceOnUse"
       x1="20.750315"
       y1="1025.9873"
       x2="-12.062732"
       y2="995.35931" />
    <linearGradient
       inkscape:collect="always"
       id="linearGradient1295">
      <stop
         style="stop-color:#1d212f;stop-opacity:1;"
         offset="0"
         id="stop1291" />
      <stop
         style="stop-color:#717da8;stop-opacity:1"
         offset="1"
         id="stop1293" />
    </linearGradient>
    <linearGradient
       inkscape:collect="always"
       xlink:href="#linearGradient952"
       id="linearGradient1297"
       x1="2.0000021"
       y1="1025.9873"
       x2="62.938519"
       y2="1025.9873"
       gradientUnits="userSpaceOnUse" />
    <linearGradient
       inkscape:collect="always"
       id="linearGradient952">
      <stop
         style="stop-color:#2e354b;stop-opacity:1"
         offset="0"
         id="stop948" />
      <stop
         style="stop-color:#717da8;stop-opacity:1"
         offset="1"
         id="stop950" />
    </linearGradient>
    <linearGradient
       inkscape:collect="always"
       xlink:href="#linearGradient875"
       id="linearGradient877"
       x1="389.57143"
       y1="523.798"
       x2="409.57126"
       y2="523.798"
       gradientUnits="userSpaceOnUse" />
  </defs>
  <metadata
     id="metadata5458">
    <rdf:RDF>
      <cc:Work
         rdf:about="">
        <dc:format>image/svg+xml</dc:format>
        <dc:type
           rdf:resource="http://purl.org/dc/dcmitype/StillImage" />
      </cc:Work>
    </rdf:RDF>
  </metadata>
  <g
     inkscape:label="Capa 1"
     inkscape:groupmode="layer"
     id="layer1"
     transform="translate(-384.57143,-483.798)">
    <g
       transform="matrix(1.0666489,0,0,1.1427479,382.43813,-653.64677)"
       id="g19">
      <rect
         width="60"
         height="42"
         x="2"
         y="1002.36"
         rx="6.5219998"
         ry="6.5619998"
         style="opacity:0.85;fill:url(#linearGradient1493);fill-opacity:1;stroke:none"
         id="rect11" />
      <path
         d="m 8.522,1002.36 c -3.613,0 -6.522,3.3302 -6.522,6.1002 v 0.8998 c 0,-2.77 2.909,-5 6.522,-5 h 46.957 c 3.613,0 6.522,2.23 6.522,5 v -0.8998 c 0,-2.77 -2.909,-6.1002 -6.522,-6.1002 z"
         style="opacity:0.2;fill:#ffffff;fill-opacity:1;stroke:none"
         id="path13"
         sodipodi:nodetypes="sscsscsss" />
      <path
         d="m 8.522,1013.3603 h 10.435 c 14.348,-1.333 11.86095,-6.5781 20.991951,-6.5781 h 15.361736 c 3.612989,0 6.689313,1.4143 6.689313,5.1083 v 25.8035 c 0,3.693 -2.908,6.667 -6.521,6.667 H 8.522 c -3.613,0 -6.522,-2.973 -6.522,-6.667 v -18.667 c 0,-4 2.609,-5.6667 6.522,-5.6667 z"
         style="opacity:0.6;fill:url(#linearGradient1297);fill-opacity:1;stroke:none"
         id="path15"
         sodipodi:nodetypes="scsssssssss" />
      <path
         d="m 2,1035.03 v 2.667 c 0,3.693 2.909,6.667 6.522,6.667 h 46.957 c 3.613,0 6.522,-2.973 6.522,-6.667 v -2.667 c 0,3.693 -2.909,7.333 -6.522,7.333 H 8.522 c -3.613,0 -6.522,-3.64 -6.522,-7.333 z"
         style="opacity:0.15;fill:#000000;fill-opacity:1;stroke:none"
         id="path17" />
    </g>
    <rect
       y="532.60065"
       x="424.57144"
       height="0.34285715"
       width="21.866692"
       id="rect4209"
       style="fill:#000000;fill-opacity:1;fill-rule:nonzero;stroke:none;stroke-width:0.422498;stroke-linecap:round;stroke-linejoin:round;stroke-miterlimit:4;stroke-dasharray:none;stroke-dashoffset:0;stroke-opacity:1" />
    <path
       d="m 408.78868,519.91903 c -0.49831,-1.18624 -1.23374,-2.25382 -2.13516,-3.1791 -0.92528,-0.92527 -1.99286,-1.63706 -3.1791,-2.13515 -1.23391,-0.52212 -2.53866,-0.80678 -3.89106,-0.80678 -1.35241,0 -2.65716,0.28465 -3.89089,0.80661 -1.18625,0.4983 -2.25383,1.23373 -3.1791,2.13516 -0.92528,0.92527 -1.63707,1.99285 -2.13516,3.1791 -0.52212,1.23391 -0.80678,2.53865 -0.80678,3.89106 0,1.3524 0.28465,2.65715 0.80661,3.89089 0.4983,1.18624 1.23374,2.25382 2.13516,3.1791 0.92527,0.92527 1.99285,1.63706 3.1791,2.13516 1.23374,0.52195 2.53865,0.78292 3.89089,0.78292 1.3524,0 2.65715,-0.26098 3.89089,-0.78292 1.18624,-0.49831 2.25382,-1.23374 3.1791,-2.13516 0.92527,-0.92528 1.63706,-1.99286 2.13516,-3.1791 0.52195,-1.23374 0.78292,-2.53866 0.78292,-3.89089 3.4e-4,-1.35241 -0.26065,-2.65715 -0.78263,-3.8909 z"
       id="path67-3"
       style="fill:url(#linearGradient877);fill-opacity:1;stroke-width:0.042366" />
    <path
       d="m 399.59752,525.27368 -6.3257,-3.57396 v 6.74271 c 0,0.7484 0.60669,1.35557 1.35557,1.35557 h 9.94052 c 0.74856,0 1.35574,-0.60669 1.35574,-1.35557 v -6.74331 z"
       id="path2-3"
       style="fill:#2e354b;fill-opacity:1;stroke-width:0.485339" />
    <path
       d="m 395.28111,522.83531 -0.004,-4.02003 c -1.6e-4,-0.18691 0.15189,-0.33867 0.33868,-0.33867 h 7.96437 c 0.18693,0 0.33878,0.15176 0.33878,0.33867 l 0.0139,4.05023 0.98418,-0.59332 1.00662,-0.57307 -1.32767,-0.94543 v -1.93841 c 0,-0.56057 -0.45569,-1.01669 -1.01682,-1.01669 h -2.86839 l -1.00247,-5.9e-4 -1.22452,8e-4 h -2.86844 c -0.56066,-2.5e-4 -1.0169,0.45579 -1.0169,1.0163 v 1.93856 l -1.327,0.94604 1.14361,0.6624 z"
       id="path4"
       style="fill:#2e354b;fill-opacity:1;stroke-width:0.485344"
       sodipodi:nodetypes="cssssccccssccccscccc" />
    <path
       d="m 401.11419,520.28876 c -0.19293,-0.11702 -0.65455,-0.21821 -1.03245,-0.21821 -1.22531,0 -1.95524,0.9143 -1.95524,1.92991 0,0.6961 0.39418,1.11633 0.95651,1.11633 0.42798,0 0.7884,-0.21821 1.03236,-0.613 h 0.0247 c 0.068,0.4116 0.33685,0.613 0.75643,0.613 0.95649,0 1.63629,-0.78912 1.63629,-1.9975 0,-1.41818 -1.09092,-2.43375 -2.57658,-2.43375 -1.89609,0 -3.17208,1.48557 -3.17208,3.18892 0,1.65319 1.25843,2.6519 2.65194,2.6519 0.61243,0 1.03184,-0.0675 1.55255,-0.28562 0,0 0.34532,-0.12042 0.23618,-0.3829 -0.10913,-0.2626 -0.38677,-0.15355 -0.38677,-0.15355 -0.33631,0.15969 -0.79758,0.24343 -1.20005,0.24343 -1.25067,0 -2.14031,-0.75565 -2.14031,-2.165 0,-1.56094 1.11574,-2.52641 2.36626,-2.52641 1.29231,0 1.98061,0.83113 1.98061,1.87193 0,0.96497 -0.43634,1.376 -0.76368,1.35915 -0.21819,-0.006 -0.2608,-0.20975 -0.19396,-0.62918 z m -1.09145,1.28429 c -0.067,0.46959 -0.33642,0.76376 -0.57882,0.76376 -0.22658,0 -0.34345,-0.16818 -0.34345,-0.46172 0,-0.57085 0.36105,-1.04932 0.83057,-1.04932 0.0675,0 0.13435,0.006 0.19282,0.0257 z"
       id="path6"
       style="fill:#2e354b;fill-opacity:1;stroke-width:0.562324" />
  </g>
</svg>
