<?xml version="1.0" encoding="UTF-8" standalone="no"?>
<svg
   width="64"
   version="1.1"
   height="64"
   id="svg17"
   sodipodi:docname="network-workgroup.svg"
   inkscape:version="1.1.2 (0a00cf5339, 2022-02-04)"
   xmlns:inkscape="http://www.inkscape.org/namespaces/inkscape"
   xmlns:sodipodi="http://sodipodi.sourceforge.net/DTD/sodipodi-0.dtd"
   xmlns:xlink="http://www.w3.org/1999/xlink"
   xmlns="http://www.w3.org/2000/svg"
   xmlns:svg="http://www.w3.org/2000/svg"
   xmlns:rdf="http://www.w3.org/1999/02/22-rdf-syntax-ns#"
   xmlns:cc="http://creativecommons.org/ns#"
   xmlns:dc="http://purl.org/dc/elements/1.1/">
  <sodipodi:namedview
     pagecolor="#ffffff"
     bordercolor="#666666"
     borderopacity="1"
     objecttolerance="10"
     gridtolerance="10"
     guidetolerance="10"
     inkscape:pageopacity="0"
     inkscape:pageshadow="2"
     inkscape:window-width="1920"
     inkscape:window-height="1015"
     id="namedview19"
     showgrid="true"
     inkscape:zoom="6.9384852"
     inkscape:cx="13.691749"
     inkscape:cy="28.176179"
     inkscape:window-x="0"
     inkscape:window-y="0"
     inkscape:window-maximized="1"
     inkscape:current-layer="layer1"
     inkscape:document-rotation="0"
     inkscape:pagecheckerboard="0">
    <inkscape:grid
       type="xygrid"
       id="grid876" />
  </sodipodi:namedview>
  <defs
     id="defs5455">
    <linearGradient
       inkscape:collect="always"
       id="linearGradient934">
      <stop
         style="stop-color:#ffcc00;stop-opacity:1"
         offset="0"
         id="stop930" />
      <stop
         style="stop-color:#00ffff;stop-opacity:1"
         offset="1"
         id="stop932" />
    </linearGradient>
    <linearGradient
       inkscape:collect="always"
       xlink:href="#linearGradient934"
       id="linearGradient902"
       x1="2.9999995"
       y1="1035.3622"
       x2="29"
       y2="1035.3622"
       gradientUnits="userSpaceOnUse" />
    <linearGradient
       inkscape:collect="always"
       xlink:href="#linearGradient1295"
       id="linearGradient1493"
       gradientUnits="userSpaceOnUse"
       x1="20.750315"
       y1="1025.9873"
       x2="-12.062732"
       y2="995.35931" />
    <linearGradient
       inkscape:collect="always"
       id="linearGradient1295">
      <stop
         style="stop-color:#1d212f;stop-opacity:1;"
         offset="0"
         id="stop1291" />
      <stop
         style="stop-color:#717da8;stop-opacity:1"
         offset="1"
         id="stop1293" />
    </linearGradient>
    <linearGradient
       inkscape:collect="always"
       xlink:href="#linearGradient952"
       id="linearGradient1297"
       x1="2.0000021"
       y1="1025.9873"
       x2="62.938519"
       y2="1025.9873"
       gradientUnits="userSpaceOnUse" />
    <linearGradient
       inkscape:collect="always"
       id="linearGradient952">
      <stop
         style="stop-color:#2e354b;stop-opacity:1"
         offset="0"
         id="stop948" />
      <stop
         style="stop-color:#717da8;stop-opacity:1"
         offset="1"
         id="stop950" />
    </linearGradient>
    <linearGradient
       inkscape:collect="always"
       xlink:href="#linearGradient3047"
       id="linearGradient2841"
       x1="389.57144"
       y1="523.79797"
       x2="409.57141"
       y2="523.79797"
       gradientUnits="userSpaceOnUse" />
    <linearGradient
       inkscape:collect="always"
       id="linearGradient3047">
      <stop
         style="stop-color:#404868;stop-opacity:1"
         offset="0"
         id="stop3043" />
      <stop
         style="stop-color:#becad8;stop-opacity:1"
         offset="1"
         id="stop3045" />
    </linearGradient>
  </defs>
  <metadata
     id="metadata5458">
    <rdf:RDF>
      <cc:Work
         rdf:about="">
        <dc:format>image/svg+xml</dc:format>
        <dc:type
           rdf:resource="http://purl.org/dc/dcmitype/StillImage" />
      </cc:Work>
    </rdf:RDF>
  </metadata>
  <g
     inkscape:label="Capa 1"
     inkscape:groupmode="layer"
     id="layer1"
     transform="translate(-384.57143,-483.798)">
    <g
       transform="matrix(0.66666667,0,0,0.66666667,405.9691,-171.96902)"
       id="g4"
       style="fill:url(#linearGradient902);fill-opacity:1" />
    <g
       transform="matrix(1.0666489,0,0,1.1427479,382.43813,-653.64677)"
       id="g19">
      <rect
         width="60"
         height="42"
         x="2"
         y="1002.36"
         rx="6.5219998"
         ry="6.5619998"
         style="opacity:0.85;fill:url(#linearGradient1493);fill-opacity:1;stroke:none"
         id="rect11" />
      <path
         d="m 8.522,1002.36 c -3.613,0 -6.522,3.3302 -6.522,6.1002 v 0.8998 c 0,-2.77 2.909,-5 6.522,-5 h 46.957 c 3.613,0 6.522,2.23 6.522,5 v -0.8998 c 0,-2.77 -2.909,-6.1002 -6.522,-6.1002 z"
         style="opacity:0.2;fill:#ffffff;fill-opacity:1;stroke:none"
         id="path13"
         sodipodi:nodetypes="sscsscsss" />
      <path
         d="m 8.522,1013.3603 h 10.435 c 14.348,-1.333 11.86095,-6.5781 20.991951,-6.5781 h 15.361736 c 3.612989,0 6.689313,1.4143 6.689313,5.1083 v 25.8035 c 0,3.693 -2.908,6.667 -6.521,6.667 H 8.522 c -3.613,0 -6.522,-2.973 -6.522,-6.667 v -18.667 c 0,-4 2.609,-5.6667 6.522,-5.6667 z"
         style="opacity:0.6;fill:url(#linearGradient1297);fill-opacity:1;stroke:none"
         id="path15"
         sodipodi:nodetypes="scsssssssss" />
      <path
         d="m 2,1035.03 v 2.667 c 0,3.693 2.909,6.667 6.522,6.667 h 46.957 c 3.613,0 6.522,-2.973 6.522,-6.667 v -2.667 c 0,3.693 -2.909,7.333 -6.522,7.333 H 8.522 c -3.613,0 -6.522,-3.64 -6.522,-7.333 z"
         style="opacity:0.15;fill:#000000;fill-opacity:1;stroke:none"
         id="path17" />
    </g>
    <rect
       y="532.59802"
       x="424.57144"
       height="0.34285715"
       width="21.866692"
       id="rect4209"
       style="fill:#000000;fill-opacity:1;fill-rule:nonzero;stroke:none;stroke-width:0.422498;stroke-linecap:round;stroke-linejoin:round;stroke-miterlimit:4;stroke-dasharray:none;stroke-dashoffset:0;stroke-opacity:1" />
    <path
       d="m 400.72949,522.20144 c 0,0.26159 -0.21208,0.47366 -0.47364,0.47366 -0.26157,0 -0.47367,-0.2121 -0.47367,-0.47366 0,-0.26156 0.2121,-0.47365 0.47367,-0.47365 0.26156,0 0.47364,0.21209 0.47364,0.47365"
       id="path67"
       style="fill:#becad8;fill-opacity:1;stroke-width:0.0400994" />
    <path
       d="m 398.76463,524.90294 h -2.82453 c -0.21053,0 -0.36842,0.17543 -0.36842,0.36842 0,0.19297 0.17544,0.36841 0.36842,0.36841 h 2.82453 c 0.21052,0 0.36841,-0.17544 0.36841,-0.36841 0,-0.19299 -0.15789,-0.36842 -0.36841,-0.36842 z"
       id="path69"
       style="fill:#becad8;fill-opacity:1;stroke-width:0.0400994" />
    <path
       d="m 402.2204,522.20144 c 0,0.26159 -0.2121,0.47366 -0.47367,0.47366 -0.26155,0 -0.47364,-0.2121 -0.47364,-0.47366 0,-0.26156 0.21209,-0.47365 0.47364,-0.47365 0.26157,0 0.47367,0.21209 0.47367,0.47365"
       id="path71"
       style="fill:#becad8;fill-opacity:1;stroke-width:0.0400994" />
    <path
       d="m 400.72949,525.30634 c 0,0.26159 -0.21208,0.47366 -0.47364,0.47366 -0.26157,0 -0.47367,-0.21209 -0.47367,-0.47366 0,-0.26157 0.2121,-0.47365 0.47367,-0.47365 0.26156,0 0.47364,0.21208 0.47364,0.47365"
       id="path73"
       style="fill:#becad8;fill-opacity:1;stroke-width:0.0400994" />
    <path
       d="m 403.69405,522.20144 c 0,0.26159 -0.21209,0.47366 -0.47366,0.47366 -0.26157,0 -0.47365,-0.2121 -0.47365,-0.47366 0,-0.26156 0.21208,-0.47365 0.47365,-0.47365 0.26157,0 0.47366,0.21209 0.47366,0.47365"
       id="path75"
       style="fill:#becad8;fill-opacity:1;stroke-width:0.0400994" />
    <path
       d="m 403.69405,525.30634 c 0,0.26159 -0.21209,0.47366 -0.47366,0.47366 -0.26157,0 -0.47365,-0.21209 -0.47365,-0.47366 0,-0.26157 0.21208,-0.47365 0.47365,-0.47365 0.26157,0 0.47366,0.21208 0.47366,0.47365"
       id="path77"
       style="fill:#becad8;fill-opacity:1;stroke-width:0.0400994" />
    <path
       d="m 402.2204,525.30634 c 0,0.26159 -0.2121,0.47366 -0.47367,0.47366 -0.26155,0 -0.47364,-0.21209 -0.47364,-0.47366 0,-0.26157 0.21209,-0.47365 0.47364,-0.47365 0.26157,0 0.47367,0.21208 0.47367,0.47365"
       id="path79"
       style="fill:#becad8;fill-opacity:1;stroke-width:0.0400994" />
    <path
       d="m 398.76463,521.79764 h -2.82453 c -0.21053,0 -0.36842,0.17543 -0.36842,0.36842 0,0.21051 0.17544,0.3684 0.36842,0.3684 h 2.82453 c 0.21052,0 0.36841,-0.15789 0.36841,-0.3684 0,-0.19299 -0.15789,-0.36842 -0.36841,-0.36842 z"
       id="path81"
       style="fill:#becad8;fill-opacity:1;stroke-width:0.0400994" />
    <path
       d="m 399.57143,513.798 c -5.5261,0 -10,4.47349 -10,10 0,5.52651 4.47349,10 10,10 5.52651,0 9.99999,-4.47349 9.99999,-10 0,-5.52651 -4.47348,-10 -9.99999,-10 z m 0.94734,13.87681 v 0.52631 h 3.78941 v 0.64913 h -3.78941 v 0.64913 h -1.89469 v -0.64913 h -3.78941 v -0.64913 h 3.78941 v -0.52631 h 0.63157 v -1.35087 h -3.40344 c -0.5614,0 -1.01754,-0.45612 -1.01754,-1.01752 0,-0.56139 0.45614,-1.01753 1.01754,-1.01753 h 7.45608 c 0.56139,0 1.01753,0.45614 1.01753,1.01753 0,0.5614 -0.45614,1.01752 -1.01753,1.01752 h -3.36835 v 1.35087 z m 2.77188,-4.45584 h -7.43844 c -0.5614,0 -1.01754,-0.45614 -1.01754,-1.01753 0,-0.56139 0.45614,-1.01752 1.01754,-1.01752 h 7.45608 c 0.56139,0 1.01753,0.45613 1.01753,1.01752 0,0.56139 -0.47366,1.01753 -1.03505,1.01753 z m 0,-3.08766 h -7.43844 c -0.5614,0 -1.01754,-0.45613 -1.01754,-1.01753 0,-0.56139 0.45614,-1.01752 1.01754,-1.01752 h 7.45608 c 0.56139,0 1.01753,0.45613 1.01753,1.01752 0,0.5614 -0.47366,1.01753 -1.03505,1.01753 z"
       id="path83"
       style="fill:url(#linearGradient2841);fill-opacity:1;stroke-width:0.0400994" />
    <path
       d="m 402.2204,519.11378 c 0,0.26159 -0.2121,0.47366 -0.47367,0.47366 -0.26155,0 -0.47364,-0.21209 -0.47364,-0.47366 0,-0.26156 0.21209,-0.47365 0.47364,-0.47365 0.26157,0 0.47367,0.21209 0.47367,0.47365"
       id="path85"
       style="fill:#becad8;fill-opacity:1;stroke-width:0.0400994" />
    <path
       d="m 400.72949,519.11378 c 0,0.26159 -0.21208,0.47366 -0.47364,0.47366 -0.26157,0 -0.47367,-0.21209 -0.47367,-0.47366 0,-0.26156 0.2121,-0.47365 0.47367,-0.47365 0.26156,0 0.47364,0.21209 0.47364,0.47365"
       id="path87"
       style="fill:#becad8;fill-opacity:1;stroke-width:0.0400994" />
    <path
       d="m 403.69405,519.11378 c 0,0.26159 -0.21209,0.47366 -0.47366,0.47366 -0.26157,0 -0.47365,-0.21209 -0.47365,-0.47366 0,-0.26156 0.21208,-0.47365 0.47365,-0.47365 0.26157,0 0.47366,0.21209 0.47366,0.47365"
       id="path89"
       style="fill:#becad8;fill-opacity:1;stroke-width:0.0400994" />
    <path
       d="m 398.76463,518.70998 h -2.82453 c -0.21053,0 -0.36842,0.17543 -0.36842,0.36842 0,0.19297 0.17544,0.36841 0.36842,0.36841 h 2.82453 c 0.21052,0 0.36841,-0.17544 0.36841,-0.36841 0,-0.19299 -0.15789,-0.36842 -0.36841,-0.36842 z"
       id="path91"
       style="fill:#becad8;fill-opacity:1;stroke-width:0.0400994" />
  </g>
</svg>
