<?xml version="1.0" encoding="UTF-8" standalone="no"?>
<svg
   width="31.999998"
   height="31.999998"
   viewBox="0 0 8.466666 8.4666664"
   version="1.1"
   id="svg847"
   inkscape:version="1.1.1 (3bf5ae0d25, 2021-09-20)"
   sodipodi:docname="activities.svg"
   xmlns:inkscape="http://www.inkscape.org/namespaces/inkscape"
   xmlns:sodipodi="http://sodipodi.sourceforge.net/DTD/sodipodi-0.dtd"
   xmlns="http://www.w3.org/2000/svg"
   xmlns:svg="http://www.w3.org/2000/svg"
   xmlns:rdf="http://www.w3.org/1999/02/22-rdf-syntax-ns#"
   xmlns:cc="http://creativecommons.org/ns#"
   xmlns:dc="http://purl.org/dc/elements/1.1/">
  <defs
     id="defs841">
    <linearGradient
       x1="0.00021740334"
       x2="0.00021740334"
       y1="2.2170208"
       y2="16.152622"
       gradientTransform="matrix(0.60065215,0,0,0.45566747,0.06601531,0.04810909)"
       gradientUnits="userSpaceOnUse"
       id="linearGradient4">
      <stop
         offset="0%"
         style="stop-color:#303b3d; stop-opacity:1"
         id="stop18" />
      <stop
         offset="100%"
         style="stop-color:#bc985d; stop-opacity:1"
         id="stop20" />
    </linearGradient>
  </defs>
  <sodipodi:namedview
     id="base"
     pagecolor="#ffffff"
     bordercolor="#000000"
     borderopacity="1"
     inkscape:pageopacity="0.0"
     inkscape:pageshadow="2"
     inkscape:zoom="11.2"
     inkscape:cx="24.196429"
     inkscape:cy="18.169643"
     inkscape:document-units="px"
     inkscape:current-layer="layer1"
     inkscape:document-rotation="0"
     showgrid="false"
     units="px"
     inkscape:window-width="1920"
     inkscape:window-height="1013"
     inkscape:window-x="0"
     inkscape:window-y="0"
     inkscape:window-maximized="1"
     inkscape:snap-bbox="true"
     inkscape:bbox-nodes="true"
     inkscape:showpageshadow="false"
     inkscape:lockguides="true"
     inkscape:pagecheckerboard="0"
     showguides="false">
    <inkscape:grid
       type="xygrid"
       id="grid1410"
       originx="1.2e-06"
       originy="0" />
  </sodipodi:namedview>
  <metadata
     id="metadata844">
    <rdf:RDF>
      <cc:Work
         rdf:about="">
        <dc:format>image/svg+xml</dc:format>
        <dc:type
           rdf:resource="http://purl.org/dc/dcmitype/StillImage" />
      </cc:Work>
    </rdf:RDF>
    <style
       id="current-color-scheme" />
  </metadata>
  <g
     inkscape:label="Layer 1"
     inkscape:groupmode="layer"
     id="layer1">
    <g
       id="22-22-activities">
      <rect
         style="opacity:0.003;fill:#d6dbf1;fill-opacity:1;stroke-width:0.363802"
         id="rect1430-3-7-5"
         width="5.8208323"
         height="5.8208323"
         x="8.4666681"
         y="2.6458333" />
      <path
         d="m 12.719083,7.6729167 h -2.675182 c -0.3413671,0 -0.6567551,-0.1817405 -0.8274641,-0.4767516 -0.170664,-0.29498 -0.170664,-0.6584613 0,-0.9534067 0.170699,-0.2950111 0.486088,-0.4767518 0.8274641,-0.4767518 h 2.675182 c 0.341366,0 0.656755,0.1817407 0.827466,0.4767518 0.170664,0.2949783 0.170664,0.6584596 0,0.9534067 -0.170698,0.2950111 -0.486091,0.4767516 -0.827466,0.4767516 z m -2.675182,-1.525564 c -0.2048341,0 -0.3940521,0.1090603 -0.4964871,0.2860372 -0.102406,0.1769856 -0.102406,0.3950923 0,0.5720762 0.10244,0.1769856 0.291653,0.286039 0.4964871,0.286039 h 2.675182 c 0.204833,0 0.394052,-0.1090603 0.496482,-0.286039 0.102406,-0.1769839 0.102406,-0.3950906 0,-0.5720762 C 13.113133,6.2564061 12.923916,6.1473527 12.719083,6.1473527 Z"
         id="path2-3-8"
         style="fill:#d6dbf1;fill-opacity:1;stroke-width:0.00818093" />
      <path
         d="m 12.879657,6.696598 c 0,0.1011381 -0.04027,0.1981542 -0.111939,0.2696635 -0.07169,0.071542 -0.168913,0.1117068 -0.270253,0.1117068 -0.101348,0 -0.198562,-0.040182 -0.270252,-0.1117068 -0.07166,-0.071508 -0.111939,-0.1685289 -0.111939,-0.2696635 0,-0.1011727 0.04027,-0.198149 0.111939,-0.2696912 0.07169,-0.071508 0.168913,-0.1117068 0.270252,-0.1117068 0.101348,0 0.198562,0.040182 0.270253,0.1117068 0.07166,0.071542 0.111939,0.1685289 0.111939,0.2696912 z"
         id="path8-7"
         style="fill:#d6dbf1;fill-opacity:1;stroke-width:0.00818093" />
      <path
         d="m 12.719087,5.3464935 h -2.675181 c -0.3413661,0 -0.6567531,-0.1817405 -0.8274621,-0.4767521 -0.170673,-0.2949786 -0.170673,-0.6584599 0,-0.9534062 0.1707,-0.2950114 0.486087,-0.4767519 0.8274621,-0.4767519 h 2.675181 c 0.341368,0 0.656755,0.1817405 0.827464,0.4767519 0.170664,0.2949792 0.170664,0.6584601 0,0.9534062 -0.170699,0.2950116 -0.486087,0.4767521 -0.827464,0.4767521 z m -2.675181,0 z"
         id="path4-5-1"
         sodipodi:nodetypes="ssccssccsccccc"
         style="fill:#d6dbf1;fill-opacity:1;stroke-width:0.00818093" />
      <path
         d="m 9.8413339,4.7439176 c -0.101348,0 -0.198565,-0.040192 -0.270223,-0.1117016 -0.07169,-0.071542 -0.111934,-0.1685582 -0.111934,-0.2696934 0,-0.1011346 0.04027,-0.1981507 0.111934,-0.2696929 0.07166,-0.071509 0.168875,-0.1117016 0.270223,-0.1117016 0.101376,0 0.1985591,0.040193 0.2702491,0.1117016 0.07166,0.07154 0.111934,0.1685583 0.111934,0.2696929 0,0.1011346 -0.04027,0.1981514 -0.111934,0.2696934 -0.07169,0.071509 -0.1688721,0.1117016 -0.2702491,0.1117016 z"
         id="path8-5-7"
         style="fill:#181c27;fill-opacity:1;stroke-width:0.00818093" />
    </g>
    <g
       id="activities">
      <rect
         y="0"
         x="0"
         height="8.4666662"
         width="8.4666662"
         id="rect1430"
         style="opacity:0.003;fill:#d6dbf1;fill-opacity:1;stroke-width:0.529167" />
      <path
         d="M 6.2397166,7.4083333 H 2.2269442 c -0.5120521,0 -0.9851329,-0.2726107 -1.24119671,-0.7151274 -0.25599655,-0.4424699 -0.25599655,-0.9876918 0,-1.4301099 C 1.2417957,4.8205793 1.714879,4.5479683 2.2269442,4.5479683 h 4.0127724 c 0.51205,0 0.985133,0.272611 1.2412004,0.7151277 0.2559962,0.4424674 0.2559962,0.9876893 0,1.4301099 C 7.2248689,7.1357226 6.7517803,7.4083333 6.2397166,7.4083333 Z M 2.2269442,5.1199874 c -0.3072526,0 -0.5910792,0.1635905 -0.7447315,0.4290558 -0.1536082,0.2654784 -0.1536082,0.5926385 0,0.8581143 0.15366,0.2654783 0.4374789,0.4290584 0.7447315,0.4290584 h 4.0127724 c 0.3072501,0 0.591078,-0.1635904 0.7447237,-0.4290584 0.1536083,-0.2654758 0.1536083,-0.5926359 0,-0.8581143 C 6.8307933,5.2835675 6.5469667,5.1199874 6.2397166,5.1199874 Z"
         id="path2-3"
         style="fill:#d6dbf1;fill-opacity:1;stroke-width:0.0122714" />
      <path
         d="m 6.4805783,5.9438553 c 0,0.1517072 -0.060398,0.2972313 -0.1679081,0.4044953 -0.1075361,0.1073132 -0.2533703,0.1675602 -0.4053793,0.1675602 -0.1520221,0 -0.2978433,-0.060273 -0.4053793,-0.1675602 -0.1074841,-0.1072614 -0.167908,-0.2527933 -0.167908,-0.4044953 0,-0.151759 0.060398,-0.2972234 0.167908,-0.4045367 0.107536,-0.1072613 0.2533702,-0.1675602 0.4053793,-0.1675602 0.1520221,0 0.2978432,0.060273 0.4053793,0.1675602 0.1074841,0.1073133 0.1679081,0.2527933 0.1679081,0.4045367 z"
         id="path8"
         style="fill:#d6dbf1;fill-opacity:1;stroke-width:0.0122714" />
      <path
         d="M 6.2397243,3.9186986 H 2.2269524 c -0.512051,0 -0.9851317,-0.2726107 -1.24119528,-0.7151282 -0.25600949,-0.4424679 -0.25600949,-0.9876898 0,-1.4301092 C 1.2418079,1.330944 1.7148876,1.0583333 2.2269524,1.0583333 h 4.0127719 c 0.5120511,0 0.9851318,0.2726107 1.2411953,0.7151279 0.2559961,0.4424687 0.2559961,0.9876901 0,1.4301092 C 7.2248715,3.6460879 6.7517892,3.9186986 6.2397243,3.9186986 Z m -4.0127719,0 z"
         id="path4-5"
         sodipodi:nodetypes="ssccssccsccccc"
         style="fill:#d6dbf1;fill-opacity:1;stroke-width:0.0122714" />
      <path
         d="m 1.923092,3.0148348 c -0.152022,0 -0.297847,-0.060288 -0.4053344,-0.1675524 C 1.4102214,2.7399691 1.3498572,2.594445 1.3498572,2.4427423 c 0,-0.151702 0.060398,-0.2972261 0.1679004,-0.4045394 0.1074866,-0.1072639 0.253313,-0.1675524 0.4053344,-0.1675524 0.1520638,0 0.2978407,0.060289 0.4053763,0.1675524 0.1074867,0.1073107 0.1679003,0.2528374 0.1679003,0.4045394 0,0.1517019 -0.060398,0.2972271 -0.1679003,0.4045401 C 2.2209322,2.9545463 2.0751578,3.0148348 1.923092,3.0148348 Z"
         id="path8-5"
         style="fill:#181c27;fill-opacity:1;stroke-width:0.0122714" />
    </g>
  </g>
</svg>
