<?xml version="1.0" encoding="UTF-8" standalone="no"?>
<svg
   id="svg50"
   width="32"
   height="32"
   version="1.1"
   sodipodi:docname="audio.svg"
   inkscape:version="1.1.1 (3bf5ae0d25, 2021-09-20)"
   xmlns:inkscape="http://www.inkscape.org/namespaces/inkscape"
   xmlns:sodipodi="http://sodipodi.sourceforge.net/DTD/sodipodi-0.dtd"
   xmlns="http://www.w3.org/2000/svg"
   xmlns:svg="http://www.w3.org/2000/svg"
   xmlns:rdf="http://www.w3.org/1999/02/22-rdf-syntax-ns#"
   xmlns:cc="http://creativecommons.org/ns#"
   xmlns:dc="http://purl.org/dc/elements/1.1/">
  <g
     id="22-22-audio-volume-low"
     transform="translate(64.000002,-22)">
    <path
       style="opacity:0.00100002;fill:#a8aeca;fill-opacity:1"
       d="M 0,0 H 22 V 22 H 0 Z"
       id="path19" />
    <path
       d="m 6.585165,14.734742 5.171857,4.158682 C 11.863589,18.946824 11.970349,19 12.076922,19 c 0.0534,0 0.159947,0 0.213327,-0.0534 0.159946,-0.106576 0.3199,-0.266525 0.3199,-0.479855 V 3.5379613 c 0,-0.213326 -0.106574,-0.373272 -0.3199,-0.479846 -0.159954,-0.106572 -0.426474,-0.0534 -0.586426,0.0534 L 6.531965,7.2702083 H 4.665768 C 3.172845,7.2702083 2,8.4432323 2,9.935976 v 2.13272 c 0,1.492928 1.173025,2.665771 2.665768,2.665771 z m 0.533226,-0.959794 v 0 0 0 -5.5449477 l 4.478585,-3.572274 V 17.347217 Z"
       id="path16-6-4"
       sodipodi:nodetypes="ccscsscccssscccccccccccccc"
       style="fill:#d6dbf1;fill-opacity:1;stroke-width:0.0456999" />
    <path
       d="m 14.689124,12.921825 c 0.106572,0.10657 0.266519,0.159945 0.373279,0.159945 0.106573,0 0.266519,-0.0534 0.373273,-0.159945 0.586426,-0.586419 0.959698,-1.386173 0.959698,-2.239297 0,-0.8531247 -0.3199,-1.6528697 -0.959698,-2.2392957 -0.213326,-0.213326 -0.533226,-0.213326 -0.746366,0 -0.213333,0.213326 -0.213333,0.533226 0,0.746372 0.853125,0.8531247 0.853125,2.1859157 0,3.0390417 -0.213333,0.15995 -0.213333,0.47985 -1.86e-4,0.693179 z"
       id="path18-1-9"
       style="opacity:0.4;fill:#d6dbf1;fill-opacity:1;stroke-width:0.0456999" />
    <path
       d="m 17.355259,5.7775573 c -0.213327,0.213326 -0.213327,0.533226 0,0.746372 1.119645,1.119645 1.706063,2.559195 1.706063,4.1586927 0,1.546114 -0.586418,3.039042 -1.706063,4.15869 -0.213327,0.213329 -0.213327,0.533229 0,0.746368 0.106573,0.10657 0.266519,0.15995 0.373273,0.15995 0.106573,0 0.266526,-0.0534 0.373279,-0.15995 1.332971,-1.332972 2.025971,-3.039044 2.025971,-4.904972 0,-1.8659227 -0.746373,-3.5722657 -2.025971,-4.9049637 -0.213507,-0.213327 -0.533412,-0.213327 -0.746551,0 z"
       id="path20-06-0"
       style="opacity:0.4;fill:#d6dbf1;fill-opacity:1;stroke-width:0.0456999" />
  </g>
  <g
     id="audio-volume-high">
    <path
       style="opacity:0.00100002;fill:#a8aeca;fill-opacity:1"
       d="M 0,0 H 32.000001 V 32.000001 H 0 Z"
       id="path2" />
    <path
       d="m 9.2777474,21.602113 7.7577856,6.238024 C 17.195384,27.920237 17.355524,28 17.515383,28 c 0.0801,0 0.23992,0 0.31999,-0.0801 0.239919,-0.159863 0.47985,-0.399787 0.47985,-0.719782 V 4.8069424 c 0,-0.31999 -0.15986,-0.559909 -0.47985,-0.719769 -0.23993,-0.159859 -0.63971,-0.0801 -0.879639,0.0801 L 9.1979475,10.405312 H 6.3986524 C 4.1592666,10.405312 2.4,12.164848 2.4,14.403965 v 3.19908 c 0,2.239391 1.7595366,3.998656 3.9986524,3.998656 z m 0.7998396,-1.43969 v 0 0 0 V 11.845 L 16.795464,6.4865894 V 25.520826 Z"
       id="path16"
       sodipodi:nodetypes="ccscsscccssscccccccccccccc"
       style="fill:#d6dbf1;fill-opacity:1;stroke-width:0.0685499" />
    <path
       d="m 21.433686,18.882738 c 0.159859,0.159855 0.399779,0.239917 0.559919,0.239917 0.159859,0 0.399779,-0.0801 0.559909,-0.239917 0.879639,-0.879628 1.439547,-2.079259 1.439547,-3.358945 0,-1.279688 -0.479849,-2.479306 -1.439547,-3.358945 -0.319989,-0.319989 -0.799839,-0.319989 -1.119548,0 -0.32,0.31999 -0.32,0.79984 0,1.119559 1.279687,1.279687 1.279687,3.278874 0,4.558563 -0.32,0.239925 -0.32,0.719774 -2.8e-4,1.039768 z"
       id="path18"
       style="fill:#d6dbf1;fill-opacity:1;stroke-width:0.0685499" />
    <path
       d="m 25.432889,8.1663364 c -0.31999,0.319989 -0.31999,0.799839 0,1.119558 1.679467,1.6794666 2.559095,3.8387926 2.559095,6.2380386 0,2.319172 -0.879628,4.558563 -2.559095,6.238035 -0.31999,0.319994 -0.31999,0.799844 0,1.119553 0.159859,0.159855 0.399779,0.239925 0.559909,0.239925 0.15986,0 0.399789,-0.0801 0.559919,-0.239925 1.999456,-1.999459 3.038956,-4.558567 3.038956,-7.357458 0,-2.798885 -1.119559,-5.3584 -3.038956,-7.3574466 -0.32026,-0.31999 -0.800118,-0.31999 -1.119827,0 z"
       id="path20"
       style="fill:#d6dbf1;fill-opacity:1;stroke-width:0.0685499" />
  </g>
  <metadata
     id="metadata67">
    <rdf:RDF>
      <cc:Work
         rdf:about="">
        <dc:format>image/svg+xml</dc:format>
        <dc:type
           rdf:resource="http://purl.org/dc/dcmitype/StillImage" />
      </cc:Work>
    </rdf:RDF>
  </metadata>
  <defs
     id="defs65" />
  <sodipodi:namedview
     pagecolor="#ffffff"
     bordercolor="#000000"
     borderopacity="1"
     objecttolerance="10"
     gridtolerance="10"
     guidetolerance="10"
     inkscape:pageopacity="0"
     inkscape:pageshadow="2"
     inkscape:window-width="1920"
     inkscape:window-height="1015"
     id="namedview63"
     showgrid="false"
     inkscape:zoom="4"
     inkscape:cx="57.125"
     inkscape:cy="2.375"
     inkscape:window-x="0"
     inkscape:window-y="0"
     inkscape:window-maximized="1"
     inkscape:current-layer="svg50"
     inkscape:document-rotation="0"
     inkscape:lockguides="false"
     inkscape:showpageshadow="false"
     inkscape:pagecheckerboard="0">
    <inkscape:grid
       type="xygrid"
       id="grid902"
       originx="96.000003"
       originy="0" />
  </sodipodi:namedview>
  <g
     id="audio-volume-medium"
     transform="translate(32.000001)">
    <path
       style="opacity:0.00100002;fill:#a8aeca;fill-opacity:1"
       d="M 0,0 H 32.000001 V 32.000001 H 0 Z"
       id="path31" />
    <path
       d="m 9.277747,21.602113 7.757786,6.238024 C 17.195384,27.920237 17.355524,28 17.515383,28 c 0.0801,0 0.23992,0 0.31999,-0.0801 0.239919,-0.159863 0.47985,-0.399787 0.47985,-0.719782 V 4.8069424 c 0,-0.31999 -0.15986,-0.559909 -0.47985,-0.719769 -0.23993,-0.159859 -0.63971,-0.0801 -0.879639,0.0801 L 9.197947,10.405312 H 6.398652 C 4.159267,10.405312 2.4,12.164848 2.4,14.403965 v 3.19908 c 0,2.239391 1.759537,3.998656 3.998652,3.998656 z m 0.79984,-1.43969 v 0 0 0 V 11.845 L 16.795464,6.4865894 V 25.520826 Z"
       id="path16-9"
       sodipodi:nodetypes="ccscsscccssscccccccccccccc"
       style="fill:#d6dbf1;fill-opacity:1;stroke-width:0.0685499" />
    <path
       d="m 21.433686,18.882738 c 0.159859,0.159855 0.399779,0.239917 0.559919,0.239917 0.159859,0 0.399779,-0.0801 0.559909,-0.239917 0.879639,-0.879628 1.439547,-2.079259 1.439547,-3.358945 0,-1.279688 -0.479849,-2.479306 -1.439547,-3.358945 -0.319989,-0.319989 -0.799839,-0.319989 -1.119548,0 -0.32,0.31999 -0.32,0.79984 0,1.119559 1.279687,1.279687 1.279687,3.278874 0,4.558563 -0.32,0.239925 -0.32,0.719774 -2.8e-4,1.039768 z"
       id="path18-5"
       style="fill:#d6dbf1;fill-opacity:1;stroke-width:0.0685499" />
    <path
       d="m 25.432889,8.1663364 c -0.31999,0.319989 -0.31999,0.799839 0,1.119558 1.679467,1.6794666 2.559095,3.8387926 2.559095,6.2380386 0,2.319172 -0.879628,4.558563 -2.559095,6.238035 -0.31999,0.319994 -0.31999,0.799844 0,1.119553 0.159859,0.159855 0.399779,0.239925 0.559909,0.239925 0.15986,0 0.399789,-0.0801 0.559919,-0.239925 1.999456,-1.999459 3.038956,-4.558567 3.038956,-7.357458 0,-2.798885 -1.119559,-5.3584 -3.038956,-7.3574466 -0.32026,-0.31999 -0.800118,-0.31999 -1.119827,0 z"
       id="path20-0"
       style="opacity:0.4;fill:#d6dbf1;fill-opacity:1;stroke-width:0.0685499" />
  </g>
  <g
     id="audio-volume-muted"
     transform="translate(96.000003)">
    <path
       style="opacity:0.00100002"
       d="M 0,0 H 31.999997 V 32.000001 H 0 Z"
       id="path45" />
    <path
       d="m 21.803157,12.000172 h 0.99962 c 0.0108,-1.4e-4 0.0208,-3.05e-4 0.0312,0 0.25486,0.01615 0.50967,0.12849 0.68725,0.312408 l 2.28034,2.281421 2.3116,-2.281421 c 0.26552,-0.230274 0.44649,-0.305418 0.68722,-0.312408 h 0.99961 v 0.999888 c 0,0.286519 -0.0343,0.550861 -0.2499,0.75006 l -2.28035,2.281366 2.24912,2.249903 c 0.1881,0.188003 0.28112,0.453449 0.28113,0.71857 v 1.00004 h -0.99958 c -0.2652,-1.5e-5 -0.53039,-0.09087 -0.71848,-0.28119 l -2.28036,-2.281309 -2.28035,2.281309 c -0.18808,0.188004 -0.45328,0.28119 -0.71847,0.28119 h -0.9996 v -1.00004 c 0,-0.26512 0.0931,-0.530567 0.28115,-0.71857 l 2.28036,-2.249903 -2.28036,-2.281366 c -0.21066,-0.194636 -0.30305,-0.46928 -0.28115,-0.75006 z"
       style="fill:#bf616a;fill-opacity:1;stroke-width:1.16643"
       id="path48"
       inkscape:connector-curvature="0" />
    <path
       d="m 9.077747,21.602113 7.75778,6.238024 C 16.995377,27.920237 17.155517,28 17.315377,28 c 0.0801,0 0.23992,0 0.31999,-0.0801 0.23992,-0.159863 0.47985,-0.399787 0.47985,-0.719782 V 4.8069424 c 0,-0.31999 -0.15986,-0.559909 -0.47985,-0.719769 -0.23993,-0.159859 -0.63971,-0.0801 -0.87964,0.0801 l -7.75778,6.2380386 h -2.7993 C 3.959267,10.405312 2.2,12.164848 2.2,14.403965 v 3.19908 c 0,2.239391 1.759537,3.998656 3.998647,3.998656 z m 0.79984,-1.43969 v 0 0 0 V 11.845 l 6.71787,-5.3584106 V 25.520826 Z"
       id="path16-7"
       sodipodi:nodetypes="ccscsscccssscccccccccccccc"
       style="fill:#d6dbf1;fill-opacity:1;stroke-width:0.0685499" />
  </g>
  <g
     id="audio-volume-low"
     transform="translate(64.000002)">
    <path
       style="opacity:0.00100002;fill:#a8aeca;fill-opacity:1"
       d="M 0,0 H 32.000001 V 32.000001 H 0 Z"
       id="path38" />
    <path
       d="m 9.277747,21.602113 7.757786,6.238024 C 17.195384,27.920237 17.355524,28 17.515383,28 c 0.0801,0 0.23992,0 0.31999,-0.0801 0.239919,-0.159863 0.47985,-0.399787 0.47985,-0.719782 V 4.8069424 c 0,-0.31999 -0.15986,-0.559909 -0.47985,-0.719769 -0.23993,-0.159859 -0.63971,-0.0801 -0.879639,0.0801 L 9.197947,10.405312 H 6.398652 C 4.159267,10.405312 2.4,12.164848 2.4,14.403965 v 3.19908 c 0,2.239391 1.759537,3.998656 3.998652,3.998656 z m 0.79984,-1.43969 v 0 0 0 V 11.845 L 16.795464,6.4865894 V 25.520826 Z"
       id="path16-8"
       sodipodi:nodetypes="ccscsscccssscccccccccccccc"
       style="fill:#d6dbf1;fill-opacity:1;stroke-width:0.0685499" />
    <path
       d="m 21.433686,18.882738 c 0.159859,0.159855 0.399779,0.239917 0.559919,0.239917 0.159859,0 0.399779,-0.0801 0.559909,-0.239917 0.879639,-0.879628 1.439547,-2.079259 1.439547,-3.358945 0,-1.279688 -0.479849,-2.479306 -1.439547,-3.358945 -0.319989,-0.319989 -0.799839,-0.319989 -1.119548,0 -0.32,0.31999 -0.32,0.79984 0,1.119559 1.279687,1.279687 1.279687,3.278874 0,4.558563 -0.32,0.239925 -0.32,0.719774 -2.8e-4,1.039768 z"
       id="path18-7"
       style="opacity:0.4;fill:#d6dbf1;fill-opacity:1;stroke-width:0.0685499" />
    <path
       d="m 25.432889,8.1663364 c -0.31999,0.319989 -0.31999,0.799839 0,1.119558 1.679467,1.6794666 2.559095,3.8387926 2.559095,6.2380386 0,2.319172 -0.879628,4.558563 -2.559095,6.238035 -0.31999,0.319994 -0.31999,0.799844 0,1.119553 0.159859,0.159855 0.399779,0.239925 0.559909,0.239925 0.15986,0 0.399789,-0.0801 0.559919,-0.239925 1.999456,-1.999459 3.038956,-4.558567 3.038956,-7.357458 0,-2.798885 -1.119559,-5.3584 -3.038956,-7.3574466 -0.32026,-0.31999 -0.800118,-0.31999 -1.119827,0 z"
       id="path20-1"
       style="opacity:0.4;fill:#d6dbf1;fill-opacity:1;stroke-width:0.0685499" />
  </g>
  <g
     id="22-22-audio-volume-high"
     transform="translate(0,-22)">
    <path
       style="opacity:0.00100002;fill:#a8aeca;fill-opacity:1"
       d="M 0,0 H 22 V 22 H 0 Z"
       id="path7" />
    <path
       d="m 6.585165,14.734742 5.171857,4.158682 C 11.863589,18.946824 11.970349,19 12.076922,19 c 0.0534,0 0.159947,0 0.213327,-0.0534 0.159946,-0.106576 0.3199,-0.266525 0.3199,-0.479855 V 3.5379613 c 0,-0.213326 -0.106574,-0.373272 -0.3199,-0.479846 -0.159954,-0.106572 -0.426474,-0.0534 -0.586426,0.0534 L 6.531965,7.2702084 H 4.665768 C 3.172845,7.2702084 2,8.4432324 2,9.9359764 v 2.1327196 c 0,1.492928 1.173025,2.665771 2.665768,2.665771 z m 0.533226,-0.959794 v 0 0 0 -5.5449476 L 11.596976,4.6577263 V 17.347217 Z"
       id="path16-6"
       sodipodi:nodetypes="ccscsscccssscccccccccccccc"
       style="fill:#d6dbf1;fill-opacity:1;stroke-width:0.0456999" />
    <path
       d="m 14.689124,12.921825 c 0.106572,0.10657 0.266519,0.159945 0.373279,0.159945 0.106573,0 0.266519,-0.0534 0.373273,-0.159945 0.586426,-0.586419 0.959698,-1.386173 0.959698,-2.239297 0,-0.8531246 -0.3199,-1.6528696 -0.959698,-2.2392956 -0.213326,-0.213326 -0.533226,-0.213326 -0.746366,0 -0.213333,0.213326 -0.213333,0.533226 0,0.746372 0.853125,0.8531246 0.853125,2.1859156 0,3.0390416 -0.213333,0.15995 -0.213333,0.47985 -1.86e-4,0.693179 z"
       id="path18-1"
       style="fill:#d6dbf1;fill-opacity:1;stroke-width:0.0456999" />
    <path
       d="m 17.355259,5.7775573 c -0.213327,0.213326 -0.213327,0.533226 0,0.746372 1.119645,1.1196451 1.706063,2.5591951 1.706063,4.1586927 0,1.546114 -0.586418,3.039042 -1.706063,4.15869 -0.213327,0.213329 -0.213327,0.533229 0,0.746368 0.106573,0.10657 0.266519,0.15995 0.373273,0.15995 0.106573,0 0.266526,-0.0534 0.373279,-0.15995 1.332971,-1.332972 2.025971,-3.039044 2.025971,-4.904972 0,-1.8659226 -0.746373,-3.5722656 -2.025971,-4.9049637 -0.213507,-0.213327 -0.533412,-0.213327 -0.746551,0 z"
       id="path20-06"
       style="fill:#d6dbf1;fill-opacity:1;stroke-width:0.0456999" />
  </g>
  <g
     id="22-22-audio-volume-medium"
     transform="translate(32.000001,-22)">
    <path
       style="opacity:0.00100002;fill:#a8aeca;fill-opacity:1"
       d="M 0,0 H 22 V 22 H 0 Z"
       id="path12" />
    <path
       d="m 6.585165,14.734742 5.171857,4.158682 C 11.863589,18.946824 11.970349,19 12.076922,19 c 0.0534,0 0.159947,0 0.213327,-0.0534 0.159946,-0.106576 0.3199,-0.266525 0.3199,-0.479855 V 3.5379613 c 0,-0.213326 -0.106574,-0.373272 -0.3199,-0.479846 -0.159954,-0.106572 -0.426474,-0.0534 -0.586426,0.0534 L 6.531965,7.2702083 H 4.665768 C 3.172845,7.2702083 2,8.4432323 2,9.935976 v 2.13272 c 0,1.492928 1.173025,2.665771 2.665768,2.665771 z m 0.533226,-0.959794 v 0 0 0 -5.5449477 l 4.478585,-3.572274 V 17.347217 Z"
       id="path16-6-1"
       sodipodi:nodetypes="ccscsscccssscccccccccccccc"
       style="fill:#d6dbf1;fill-opacity:1;stroke-width:0.0456999" />
    <path
       d="m 14.689124,12.921825 c 0.106572,0.10657 0.266519,0.159945 0.373279,0.159945 0.106573,0 0.266519,-0.0534 0.373273,-0.159945 0.586426,-0.586419 0.959698,-1.386173 0.959698,-2.239297 0,-0.853125 -0.3199,-1.6528697 -0.959698,-2.2392957 -0.213326,-0.213326 -0.533226,-0.213326 -0.746366,0 -0.213333,0.213326 -0.213333,0.533226 0,0.746372 0.853125,0.8531247 0.853125,2.1859157 0,3.0390417 -0.213333,0.15995 -0.213333,0.47985 -1.86e-4,0.693179 z"
       id="path18-1-5"
       style="fill:#d6dbf1;fill-opacity:1;stroke-width:0.0456999" />
    <path
       d="m 17.355259,5.7775573 c -0.213327,0.213326 -0.213327,0.533226 0,0.746372 1.119645,1.119645 1.706063,2.559195 1.706063,4.1586927 0,1.546114 -0.586418,3.039042 -1.706063,4.15869 -0.213327,0.213329 -0.213327,0.533229 0,0.746368 0.106573,0.10657 0.266519,0.15995 0.373273,0.15995 0.106573,0 0.266526,-0.0534 0.373279,-0.15995 1.332971,-1.332972 2.025971,-3.039044 2.025971,-4.904972 0,-1.8659227 -0.746373,-3.5722657 -2.025971,-4.9049637 -0.213507,-0.213327 -0.533412,-0.213327 -0.746551,0 z"
       id="path20-06-9"
       style="opacity:0.4;fill:#d6dbf1;fill-opacity:1;stroke-width:0.0456999" />
  </g>
  <g
     id="22-22-audio-volume-muted"
     transform="translate(96.000003,-22)">
    <path
       style="opacity:0.00100002"
       d="M 0,0 H 21.999997 V 22 H 0 Z"
       id="path26" />
    <path
       d="m 14.868767,8.3334483 h 0.66642 c 0.007,-9.4e-5 0.0139,-2.04e-4 0.0208,0 0.1699,0.01077 0.33978,0.08566 0.45816,0.208272 l 1.52023,1.5209467 1.54107,-1.5209467 c 0.17701,-0.153516 0.29766,-0.203612 0.45814,-0.208272 h 0.66641 v 0.666592 c 0,0.191012 -0.0229,0.36724 -0.1666,0.50004 l -1.52023,1.5209097 1.49941,1.499936 c 0.1254,0.125335 0.18741,0.302299 0.18742,0.479046 v 0.666694 h -0.66639 c -0.1768,-10e-6 -0.35359,-0.06058 -0.47898,-0.18746 l -1.52024,-1.520873 -1.52024,1.520873 c -0.12538,0.125336 -0.30218,0.18746 -0.47898,0.18746 h -0.6664 v -0.666694 c 0,-0.176746 0.0621,-0.353711 0.18744,-0.479046 l 1.52024,-1.499936 -1.52024,-1.5209097 c -0.14044,-0.129758 -0.20204,-0.312854 -0.18744,-0.50004 z"
       style="fill:#bf616a;fill-opacity:1;stroke-width:0.77762"
       id="path48-2"
       inkscape:connector-curvature="0" />
    <path
       d="m 6.385165,14.734742 5.171852,4.158682 c 0.10657,0.0534 0.21333,0.106576 0.3199,0.106576 0.0534,0 0.15995,0 0.21333,-0.0534 0.15994,-0.106576 0.3199,-0.266525 0.3199,-0.479855 V 3.5379613 c 0,-0.213326 -0.10658,-0.373272 -0.3199,-0.479846 -0.15996,-0.106572 -0.42648,-0.0534 -0.58643,0.0534 l -5.171852,4.158693 h -1.8662 C 2.972845,7.2702083 1.8,8.4432323 1.8,9.935976 v 2.13272 c 0,1.492928 1.173025,2.665771 2.665765,2.665771 z m 0.533226,-0.959794 v 0 0 0 -5.5449477 l 4.478576,-3.572274 V 17.347217 Z"
       id="path16-7-2"
       sodipodi:nodetypes="ccscsscccssscccccccccccccc"
       style="fill:#d6dbf1;fill-opacity:1;stroke-width:0.0456999" />
  </g>
</svg>
