<?xml version="1.0" encoding="UTF-8" standalone="no"?>
<svg
   sodipodi:docname="cantata.svg"
   inkscape:version="1.1.2 (0a00cf5339, 2022-02-04)"
   viewBox="0 0 32 32"
   id="svg2"
   version="1.1"
   width="32"
   height="32"
   xmlns:inkscape="http://www.inkscape.org/namespaces/inkscape"
   xmlns:sodipodi="http://sodipodi.sourceforge.net/DTD/sodipodi-0.dtd"
   xmlns="http://www.w3.org/2000/svg"
   xmlns:svg="http://www.w3.org/2000/svg"
   xmlns:rdf="http://www.w3.org/1999/02/22-rdf-syntax-ns#"
   xmlns:cc="http://creativecommons.org/ns#"
   xmlns:dc="http://purl.org/dc/elements/1.1/">
  <sodipodi:namedview
     inkscape:document-rotation="0"
     inkscape:lockguides="false"
     inkscape:current-layer="svg2"
     inkscape:window-maximized="1"
     inkscape:window-y="0"
     inkscape:window-x="0"
     inkscape:cy="21.250001"
     inkscape:cx="20.312501"
     inkscape:zoom="7.9999996"
     showgrid="false"
     id="namedview14"
     inkscape:window-height="1009"
     inkscape:window-width="1920"
     inkscape:pageshadow="2"
     inkscape:pageopacity="0"
     guidetolerance="10"
     gridtolerance="10"
     objecttolerance="10"
     borderopacity="1"
     bordercolor="#000000"
     pagecolor="#ffffff"
     inkscape:pagecheckerboard="0"
     inkscape:showpageshadow="false">
    <inkscape:grid
       type="xygrid"
       id="grid1754"
       originx="0"
       originy="0" />
  </sodipodi:namedview>
  <metadata
     id="metadata20">
    <rdf:RDF>
      <cc:Work
         rdf:about="">
        <dc:format>image/svg+xml</dc:format>
        <dc:type
           rdf:resource="http://purl.org/dc/dcmitype/StillImage" />
      </cc:Work>
    </rdf:RDF>
  </metadata>
  <defs
     id="defs3051">
    <style
       type="text/css"
       id="current-color-scheme">
      .ColorScheme-Text {
        color:#31363b;
      }
      </style>
    <linearGradient
       id="oomox"
       x1="0"
       x2="0"
       y1="0"
       y2="16"
       gradientUnits="userSpaceOnUse"
       gradientTransform="matrix(1.5000001,0,0,1.5000001,25.843999,4.0940002)">
      <stop
         offset="0%"
         style="stop-color:#303b3d; stop-opacity:1"
         id="stop18" />
      <stop
         offset="100%"
         style="stop-color:#bc985d; stop-opacity:1"
         id="stop20" />
    </linearGradient>
  </defs>
  <g
     id="22-22-cantata">
    <rect
       style="opacity:0.00100002"
       width="22"
       height="22"
       x="32"
       y="10"
       id="rect2" />
    <path
       style="color:#d5c289;fill:#d6dbf1;fill-opacity:1;stroke-width:1"
       class="ColorScheme-Text"
       d="m 43,13 c -4.424,0 -8,3.576 -8,7.999999 C 35,25.424 38.576,29 43,29 47.424,29 51,25.424 51,20.999999 51,16.576 47.424,13 43,13 Z m 0,1 c 3.869987,0 7,3.13 7,6.999999 C 50,24.869987 46.869987,28 43,28 39.129987,28 36,24.869987 36,20.999999 36,17.13 39.129987,14 43,14 Z m 0.749987,5.718999 v 0 0 0 0 0 c 0,0 -0.03394,0.008 0,0 z m -0.780994,4.500003 z"
       id="path58-36-5"
       sodipodi:nodetypes="ssssssssssccccccccccccccccc" />
    <path
       d="m 46.681836,17 h -7.353419 c -0.183261,0 -0.332146,-0.31575 -0.332146,-0.5 0,-0.18375 0.135467,-0.5 0.318729,-0.5 h 7.35674 c 0.183261,0 0.296115,0.31625 0.296115,0.5 0,0.18425 -0.102758,0.5 -0.286019,0.5 z M 38,18 h 4.649877 c 0.183593,0 0.332145,0.31575 0.332145,0.5 0,0.183917 -0.148552,0.5 -0.332145,0.5 H 38 c -0.183594,0 -0.332146,-0.316083 -0.332146,-0.5 0,-0.18425 0.148552,-0.5 0.332146,-0.5 z m 0,2 h 4.648405 c 0.183593,0 0.333616,0.31575 0.333616,0.5 0,0.18425 -0.104807,0.5 -0.288399,0.5 H 38 c -0.183594,0 -0.332146,-0.31575 -0.332146,-0.5 0,-0.18425 0.148552,-0.5 0.332146,-0.5 z m 0,2 h 1.992875 c 0.183262,0 0.33198,0.316084 0.33198,0.5 0,0.18425 -0.148718,0.5 -0.33198,0.5 H 38 c -0.183594,0 -0.332146,-0.31575 -0.332146,-0.5 0,-0.183916 0.148552,-0.5 0.332146,-0.5 z"
       id="path2-3-0"
       style="fill:#d6dbf1;fill-opacity:1;stroke-width:0.0207962"
       sodipodi:nodetypes="cccccccccccccccccccccccccccc" />
    <path
       style="color:#31363b;fill:#d6dbf1;fill-opacity:1;stroke:none;stroke-width:0.666667"
       d="m 44.600379,16.333333 v 7.363282 c -0.55812,-0.2408 -1.206216,-0.175724 -1.897136,0.110677 -1.156506,0.478933 -1.81963,1.528785 -1.48177,2.345052 0.337853,0.816534 1.550258,1.091179 2.707031,0.611979 0.912507,-0.378934 1.471354,-1.363698 1.471354,-1.957031 V 19 c 0,0 2.134115,0.266407 2.134115,2.399739 0,1.6 -0.533888,2.134115 -1.867188,3.467448 1.3333,-0.8 2.39974,-1.867448 2.39974,-3.467448 0,-2.133332 -1.646122,-3.092722 -2.067709,-3.514322 -0.26666,-0.266667 -0.598958,-1.285156 -0.598958,-1.285156 z"
       class="ColorScheme-Text"
       id="path9-4" />
  </g>
  <g
     id="cantata">
    <rect
       style="opacity:0.00100002"
       width="32"
       height="32"
       x="0"
       y="0"
       id="rect9" />
    <path
       style="color:#d5c289;fill:#d6dbf1;fill-opacity:1;stroke-width:1.5"
       class="ColorScheme-Text"
       d="M 16,4 C 9.364,4 4,9.364 4,15.999999 4,22.636 9.364,28 16,28 22.636,28 28,22.636 28,15.999999 28,9.364 22.636,4 16,4 Z m 0,1.5 c 5.80498,0 10.5,4.695 10.5,10.499999 C 26.5,21.80498 21.80498,26.5 16,26.5 10.19498,26.5 5.5,21.80498 5.5,15.999999 5.5,10.195 10.19498,5.5 16,5.5 Z m 1.12498,8.578498 v 0 0 0 0 0 c 0,0 -0.05091,0.012 0,0 z m -1.171491,6.750005 z"
       id="path58-36"
       sodipodi:nodetypes="ssssssssssccccccccccccccccc" />
    <path
       d="m 21.499875,9.00025 z m 0,0 H 10.49975 c -0.275875,0 -0.5,-0.223875 -0.5,-0.50025 0,-0.275625 0.224125,-0.5 0.5,-0.5 h 11.000125 c 0.275876,0 0.5,0.224375 0.5,0.5 0,0.276375 -0.224124,0.50025 -0.5,0.50025 z M 8.5,11.0005 h 6.999751 c 0.276374,0 0.5,0.223625 0.5,0.5 0,0.275875 -0.223626,0.5 -0.5,0.5 H 8.5 c -0.276375,0 -0.5,-0.224125 -0.5,-0.5 0,-0.276375 0.223625,-0.5 0.5,-0.5 z m 0,2.99975 h 6.999751 c 0.276374,0 0.5,0.223625 0.5,0.5 0,0.276375 -0.223626,0.5 -0.5,0.5 H 8.5 c -0.276375,0 -0.5,-0.223625 -0.5,-0.5 0,-0.276375 0.223625,-0.5 0.5,-0.5 z m 0,2.999875 h 2.99975 c 0.275875,0 0.5,0.224125 0.5,0.5 0,0.276375 -0.224125,0.5 -0.5,0.5 H 8.5 c -0.276375,0 -0.5,-0.223625 -0.5,-0.5 0,-0.275875 0.223625,-0.5 0.5,-0.5 z"
       id="path2-3"
       style="fill:#d6dbf1;fill-opacity:1;stroke-width:0.03125"
       sodipodi:nodetypes="ccccccccccccccccccccccccccccccccsccsssscssssccccsssccscs" />
    <path
       style="color:#31363b;fill:#d6dbf1;fill-opacity:1;stroke:none"
       d="m 18.400568,9 v 11.044922 c -0.83718,-0.3612 -1.809323,-0.263585 -2.845703,0.166016 -1.73476,0.7184 -2.729446,2.293178 -2.222656,3.517578 0.50678,1.2248 2.325387,1.636768 4.060547,0.917968 1.36876,-0.5684 2.207031,-2.045546 2.207031,-2.935546 V 13 c 0,0 3.201172,0.39961 3.201172,3.599609 0,2.4 -0.800832,3.201172 -2.800782,5.201172 1.99995,-1.2 3.59961,-2.801172 3.59961,-5.201172 0,-3.199999 -2.469183,-4.639084 -3.101563,-5.271484 -0.39999,-0.4 -0.898437,-1.927734 -0.898437,-1.927734 z"
       class="ColorScheme-Text"
       id="path9" />
  </g>
</svg>
