<?xml version="1.0" encoding="UTF-8" standalone="no"?>
<svg
   sodipodi:docname="configure.svg"
   height="22.000006"
   width="22"
   inkscape:version="1.1.1 (3bf5ae0d25, 2021-09-20)"
   version="1.1"
   id="svg"
   viewBox="0 0 22 22.000006"
   xmlns:inkscape="http://www.inkscape.org/namespaces/inkscape"
   xmlns:sodipodi="http://sodipodi.sourceforge.net/DTD/sodipodi-0.dtd"
   xmlns="http://www.w3.org/2000/svg"
   xmlns:svg="http://www.w3.org/2000/svg"
   xmlns:rdf="http://www.w3.org/1999/02/22-rdf-syntax-ns#"
   xmlns:cc="http://creativecommons.org/ns#"
   xmlns:dc="http://purl.org/dc/elements/1.1/">
  <defs
     id="defs81">
    <style
       type="text/css"
       id="current-color-scheme">
      .ColorScheme-Text {
        color:#7B7C7E;
      }
      .ColorScheme-Background{
        color:#EFF0F1;
      }
      .ColorScheme-Highlight{
        color:#3DAEE6;
      }
      .ColorScheme-ViewText {
        color:#7B7C7E;
      }
      .ColorScheme-ViewBackground{
        color:#FCFCFC;
      }
      .ColorScheme-ViewHover {
        color:#3DAEE6;
      }
      .ColorScheme-ViewFocus{
        color:#1E92FF;
      }
      .ColorScheme-ButtonText {
        color:#7B7C7E;
      }
      .ColorScheme-ButtonBackground{
        color:#EFF0F1;
      }
      .ColorScheme-ButtonHover {
        color:#3DAEE6;
      }
      .ColorScheme-ButtonFocus{
        color:#1E92FF;
      }
</style>
    <linearGradient
       id="linearGradient5606"
       inkscape:swatch="solid">
      <stop
         id="stop5608"
         offset="0"
         style="stop-color:#000000;stop-opacity:1;" />
    </linearGradient>
  </defs>
  <metadata
     id="metadata34">
    <rdf:RDF>
      <cc:Work
         rdf:about="">
        <dc:format>image/svg+xml</dc:format>
        <dc:type
           rdf:resource="http://purl.org/dc/dcmitype/StillImage" />
      </cc:Work>
    </rdf:RDF>
  </metadata>
  <sodipodi:namedview
     inkscape:document-rotation="0"
     inkscape:showpageshadow="false"
     inkscape:snap-bbox="true"
     inkscape:guide-bbox="true"
     showguides="true"
     borderlayer="false"
     inkscape:current-layer="svg"
     inkscape:window-maximized="1"
     inkscape:window-y="0"
     inkscape:window-x="0"
     inkscape:cy="9.9457626"
     inkscape:cx="21.823845"
     inkscape:zoom="8.7977165"
     showgrid="false"
     id="namedview32"
     inkscape:window-height="1007"
     inkscape:window-width="1920"
     inkscape:pageshadow="2"
     inkscape:pageopacity="0.10196078"
     guidetolerance="10"
     gridtolerance="10"
     objecttolerance="10"
     borderopacity="1"
     bordercolor="#666666"
     pagecolor="#ffffff"
     inkscape:lockguides="false"
     inkscape:pagecheckerboard="0">
    <inkscape:grid
       snapvisiblegridlinesonly="true"
       enabled="true"
       visible="true"
       empspacing="4"
       id="grid3046"
       type="xygrid"
       originx="-2.2031237e-08"
       originy="6.1102054e-06" />
  </sodipodi:namedview>
  <g
     transform="translate(-486.16354,15.513279)"
     style="display:inline"
     inkscape:label="status"
     id="layer9" />
  <g
     transform="translate(-245.16334,-601.48672)"
     style="display:inline"
     inkscape:label="places"
     id="layer1" />
  <g
     transform="translate(-486.16354,15.513279)"
     style="display:inline"
     inkscape:label="mimetypes"
     id="layer14" />
  <g
     transform="translate(-486.16354,15.513279)"
     style="display:inline"
     inkscape:label="emblems"
     id="layer15" />
  <g
     transform="translate(-486.16354,15.513279)"
     style="display:inline"
     inkscape:label="emotes"
     id="g71291" />
  <g
     transform="translate(-245.16334,-451.48672)"
     style="display:inline"
     inkscape:label="apps"
     id="g6058" />
  <g
     transform="translate(-486.16354,15.513279)"
     style="display:inline"
     inkscape:label="actions"
     id="layer12" />
  <g
     id="configure">
    <g
       id="g1137">
      <rect
         y="-6.2102054e-06"
         x="2.2031236e-08"
         height="22.000006"
         width="22"
         id="rect2985"
         style="opacity:0.00100002;fill:#000000;fill-opacity:1;stroke:none" />
      <rect
         id="rect4156"
         style="fill:#d6dbf1;fill-opacity:1;stroke:none"
         rx="1"
         y="9"
         height="4"
         width="4"
         x="3" />
      <rect
         id="rect4158"
         style="fill:#d6dbf1;fill-opacity:1;stroke:none"
         width="4"
         height="4"
         x="15"
         y="9"
         rx="1" />
      <rect
         id="rect4160"
         style="fill:#d6dbf1;fill-opacity:1;stroke:none"
         rx="1"
         x="9"
         height="4"
         width="4"
         y="3" />
      <rect
         id="rect4162"
         style="fill:#d6dbf1;fill-opacity:1;stroke:none"
         width="4"
         height="4"
         x="9"
         y="15"
         rx="1" />
      <rect
         id="rect4164"
         style="fill:#d6dbf1;fill-opacity:1;stroke:none"
         transform="rotate(45)"
         width="4"
         height="4"
         x="7.5566406"
         y="-2"
         rx="1" />
      <rect
         id="rect4166"
         style="fill:#d6dbf1;fill-opacity:1;stroke:none"
         transform="rotate(45)"
         rx="1"
         y="-2"
         x="19.556641"
         height="4"
         width="4" />
      <rect
         id="rect4168"
         style="fill:#d6dbf1;fill-opacity:1;stroke:none"
         transform="rotate(45)"
         width="4"
         height="4"
         x="13.556641"
         y="-8"
         rx="1" />
      <rect
         id="rect4170"
         style="fill:#d6dbf1;fill-opacity:1;stroke:none"
         transform="rotate(45)"
         rx="1"
         y="4"
         x="13.556641"
         height="4"
         width="4" />
      <path
         id="path4172"
         style="fill:#d6dbf1;fill-opacity:1;stroke:none"
         d="m 10.876828,4.3768285 a 6.5,6.5 0 0 0 -6.4999997,6.5000005 6.5,6.5 0 0 0 6.4999997,6.499999 6.5,6.5 0 0 0 6.500001,-6.5 6.5,6.5 0 0 0 -6.500001,-6.4999995 m 0,3.5 a 3,3 0 0 1 3.000001,2.9999995 3,3 0 0 1 -3.000001,3 3,3 0 0 1 -2.9999997,-2.999999 3,3 0 0 1 2.9999997,-3.0000005"
         inkscape:connector-curvature="0" />
      <path
         id="path4174"
         style="fill:#5e81ac;fill-opacity:1;stroke:none"
         d="m 11,6 a 5,5 0 0 0 -5,5 5,5 0 0 0 5,5 5,5 0 0 0 5,-5 5,5 0 0 0 -5,-5 m 0,3 a 2,2 0 0 1 2,2 2,2 0 0 1 -2,2 2,2 0 0 1 -2,-2 2,2 0 0 1 2,-2"
         inkscape:connector-curvature="0" />
    </g>
  </g>
  <g
     id="22-22-configure"
     transform="translate(22,6.0000014)">
    <rect
       style="opacity:0.00100002;fill:#000000;fill-opacity:1;stroke:none"
       id="rect4159"
       width="16"
       height="16.000004"
       x="0"
       y="3.1628417e-08" />
    <rect
       id="rect4165"
       style="fill:#d6dbf1;fill-opacity:1;stroke:none"
       rx="0.875"
       y="6.2500048"
       height="3.5"
       width="3.5"
       x="1" />
    <rect
       id="rect4167"
       style="fill:#d6dbf1;fill-opacity:1;stroke:none"
       width="3.5"
       height="3.5"
       x="11.5"
       y="6.2500048"
       rx="0.875" />
    <rect
       id="rect4169"
       style="fill:#d6dbf1;fill-opacity:1;stroke:none"
       rx="0.875"
       x="6.25"
       height="3.5"
       width="3.5"
       y="1.0000048" />
    <rect
       id="rect4171"
       style="fill:#d6dbf1;fill-opacity:1;stroke:none"
       width="3.5"
       height="3.5"
       x="6.25"
       y="11.500005"
       rx="0.875" />
    <rect
       id="rect4173"
       style="fill:#d6dbf1;fill-opacity:1;stroke:none"
       transform="rotate(45)"
       width="3.5"
       height="3.5"
       x="4.3139668"
       y="-1.7499973"
       rx="0.875" />
    <rect
       id="rect4175"
       style="fill:#d6dbf1;fill-opacity:1;stroke:none"
       transform="rotate(45)"
       rx="0.875"
       y="-1.7499973"
       x="14.813967"
       height="3.5"
       width="3.5" />
    <rect
       id="rect4177"
       style="fill:#d6dbf1;fill-opacity:1;stroke:none"
       transform="rotate(45)"
       width="3.5"
       height="3.5"
       x="9.5639668"
       y="-6.9999971"
       rx="0.875" />
    <rect
       id="rect4179"
       style="fill:#d6dbf1;fill-opacity:1;stroke:none"
       transform="rotate(45)"
       rx="0.875"
       y="3.5000026"
       x="9.5639668"
       height="3.5"
       width="3.5" />
    <path
       id="path4181"
       style="fill:#d6dbf1;fill-opacity:1;stroke:none"
       d="M 8,2.3125046 A 5.6875,5.6875 0 0 0 2.3125,8.0000048 5.6875,5.6875 0 0 0 8,13.687505 5.6875,5.6875 0 0 0 13.6875,8.0000048 5.6875,5.6875 0 0 0 8,2.3125046 m 0,3.0625002 a 2.625,2.625 0 0 1 2.625,2.625 A 2.625,2.625 0 0 1 8,10.625005 2.625,2.625 0 0 1 5.375,8.0000048 2.625,2.625 0 0 1 8,5.3750048"
       inkscape:connector-curvature="0" />
    <path
       id="path4242"
       d="m 8,4.0000048 a 4,4 0 0 0 -4,4 4,4 0 0 0 4,4.0000002 4,4 0 0 0 4,-4.0000002 4,4 0 0 0 -4,-4 z m 0,2 a 2,2 0 0 1 2,2 2,2 0 0 1 -2,2.0000002 2,2 0 0 1 -2,-2.0000002 2,2 0 0 1 2,-2 z"
       style="fill:#5e81ac;fill-opacity:1;stroke:none" />
  </g>
</svg>
