<?xml version="1.0" encoding="UTF-8" standalone="no"?>
<svg
   width="32"
   height="32"
   version="1.1"
   id="svg78"
   sodipodi:docname="disk.svg"
   inkscape:version="1.1.2 (0a00cf5339, 2022-02-04)"
   xmlns:inkscape="http://www.inkscape.org/namespaces/inkscape"
   xmlns:sodipodi="http://sodipodi.sourceforge.net/DTD/sodipodi-0.dtd"
   xmlns="http://www.w3.org/2000/svg"
   xmlns:svg="http://www.w3.org/2000/svg">
  <g
     id="22-22-disk-quota-missing"
     transform="translate(96,-22)">
    <rect
       style="opacity:0.00100002"
       width="22"
       height="22"
       x="0"
       y="0"
       id="rect34" />
    <path
       d="M 16.870072,3 H 5.196614 C 4.3734847,3 3.7,3.6 3.7,4.333332 V 17.666667 C 3.7,18.4 4.3734847,19 5.196614,19 h 11.673458 c 0.82313,0 1.496595,-0.6 1.496595,-1.333333 V 4.333332 C 18.366667,3.6 17.693202,3 16.870072,3 Z m 0.748304,14.666667 c 0,0.36666 -0.336755,0.66666 -0.748304,0.66666 H 5.196614 c -0.411582,0 -0.7483047,-0.3 -0.7483047,-0.66666 V 4.333332 c 0,-0.366665 0.3367227,-0.666665 0.7483047,-0.666665 h 11.673458 c 0.411549,0 0.748304,0.3 0.748304,0.666665 z"
       id="path2-3-3-3-7-7"
       style="opacity:0.4;fill:#d6dbf1;fill-opacity:1;stroke-width:0.353151" />
    <path
       d="m 11.033333,14.333333 a 4,4 0 1 0 -3.9999997,-4 4.0056102,4.0056102 0 0 0 3.9999997,4 z m 0,-7.198878 a 3.1988777,3.1988777 0 1 1 -3.198877,3.198878 3.2026172,3.2026172 0 0 1 3.198877,-3.198878 z"
       id="path12-6-1-7"
       style="opacity:0.4;fill:#d6dbf1;fill-opacity:1;stroke-width:0.26704;image-rendering:optimizeQuality;shape-rendering:geometricPrecision;text-rendering:geometricPrecision" />
    <path
       d="M 15.353633,15.666667 H 6.7551067 C 6.44822,15.666667 6.2,15.91552 6.2,16.221247 v 0.139286 c 0,0.30612 0.2483467,0.554087 0.5551067,0.554087 h 8.5985263 c 0.306507,0 0.554974,-0.24796 0.554974,-0.554087 v -0.139286 c 0,-0.305487 -0.248474,-0.55458 -0.554974,-0.55458 z m -0.07163,0.901646 h -8.438 c -0.16314,0 -0.2946667,-0.131886 -0.2946667,-0.294386 0,-0.16352 0.1317867,-0.295154 0.2946667,-0.295154 h 8.438 c 0.162753,0 0.295333,0.131894 0.295333,0.295154 0,0.162626 -0.13258,0.294386 -0.295333,0.294386 z"
       id="path79-3-15-6"
       style="opacity:0.4;fill:#d6dbf1;fill-opacity:1;stroke-width:0.0326531"
       sodipodi:nodetypes="ssssssssssssssss" />
    <path
       d="m 11.03658,8.666667 c -0.451693,0 -0.884885,0.179515 -1.204365,0.49888 C 9.512853,9.485 9.333333,9.918193 9.333333,10.369913 c 0,0.45172 0.179515,0.884887 0.498882,1.204367 0.319455,0.31936 0.752648,0.498873 1.204365,0.498873 0.451717,0 0.884886,-0.179513 1.204365,-0.498873 0.319362,-0.31946 0.498882,-0.752653 0.498882,-1.204367 C 12.739337,9.918387 12.559649,9.48548 12.240273,9.16622 11.920984,8.846858 11.488081,8.667244 11.03658,8.666667 Z m 0,2.985233 v 9.3e-5 l -0.0032,0.01467 v 0 0 0 0 0 0 0 z"
       id="path74-6-9-7"
       style="opacity:0.4;fill:#d6dbf1;fill-opacity:1;stroke-width:0.0240609"
       sodipodi:nodetypes="ccscsccccccccccccccc" />
  </g>
  <g
     id="disk-quota-missing"
     transform="translate(96)">
    <rect
       style="opacity:0.00100002"
       width="32"
       height="32"
       x="0"
       y="0"
       id="rect71" />
    <path
       d="M 24.755108,4 H 7.244921 C 6.010227,4 5,4.9 5,5.999998 V 26 c 0,1.1 1.010227,2 2.244921,2 H 24.755108 C 25.989803,28 27,27.1 27,26 V 5.999998 C 27,4.9 25.989803,4 24.755108,4 Z m 1.122456,22 c 0,0.54999 -0.505133,0.99999 -1.122456,0.99999 H 7.244921 c -0.617373,0 -1.122457,-0.45 -1.122457,-0.99999 V 5.999998 C 6.122464,5.45 6.627548,5 7.244921,5 h 17.510187 c 0.617323,0 1.122456,0.45 1.122456,0.999998 z"
       id="path2-3-3-3-7"
       style="opacity:0.4;fill:#d6dbf1;fill-opacity:1;stroke-width:0.529727" />
    <path
       d="m 16,21 a 6,6 0 1 0 -6,-6 6.0084153,6.0084153 0 0 0 6,6 z M 16,10.201682 A 4.7983166,4.7983166 0 1 1 11.201684,15 4.8039258,4.8039258 0 0 1 16,10.201682 Z"
       id="path12-6-1"
       style="opacity:0.4;fill:#d6dbf1;fill-opacity:1;stroke-width:0.40056;image-rendering:optimizeQuality;shape-rendering:geometricPrecision;text-rendering:geometricPrecision" />
    <path
       d="M 22.48045,23 H 9.58266 C 9.12233,23 8.75,23.37328 8.75,23.83187 v 0.20893 c 0,0.45918 0.37252,0.83113 0.83266,0.83113 h 12.89779 c 0.45976,0 0.83246,-0.37194 0.83246,-0.83113 V 23.83187 C 23.31291,23.37364 22.9402,23 22.48045,23 Z M 22.373,24.35247 H 9.716 c -0.24471,0 -0.442,-0.19783 -0.442,-0.44158 0,-0.24528 0.19768,-0.44273 0.442,-0.44273 h 12.657 c 0.24413,0 0.443,0.19784 0.443,0.44273 0,0.24394 -0.19887,0.44158 -0.443,0.44158 z"
       id="path79-3-15"
       style="opacity:0.4;fill:#d6dbf1;fill-opacity:1;stroke-width:0.0489796"
       sodipodi:nodetypes="ssssssssssssssss" />
    <path
       d="m 16.00487,12.5 c -0.677539,0 -1.327328,0.269273 -1.806548,0.74832 C 13.719279,13.7275 13.45,14.37729 13.45,15.05487 c 0,0.67758 0.269272,1.32733 0.748322,1.80655 0.479183,0.47904 1.128972,0.74831 1.806548,0.74831 0.677576,0 1.327329,-0.26927 1.806548,-0.74831 0.479043,-0.47919 0.748323,-1.12898 0.748323,-1.80655 -7.35e-4,-0.67729 -0.270267,-1.32665 -0.749332,-1.80554 C 17.331476,12.770287 16.682122,12.500866 16.00487,12.5 Z m 0,4.47785 v 1.4e-4 L 16,17 v 0 0 0 0 0 0 0 z"
       id="path74-6-9"
       style="opacity:0.4;fill:#d6dbf1;fill-opacity:1;stroke-width:0.0360913"
       sodipodi:nodetypes="ccscsccccccccccccccc" />
  </g>
  <g
     id="22-22-disk-quota-critical"
     transform="translate(64,-22)">
    <rect
       style="opacity:0.00100002"
       width="22"
       height="22"
       x="0"
       y="0"
       id="rect27" />
    <path
       d="m 6.9975,16.583333 h 8.159 c 0.298498,0 0.4975,-0.123333 0.4975,-0.308334 0,-0.185 -0.199002,-0.308332 -0.4975,-0.308332 h -8.159 c -0.298499,0 -0.4975,0.123332 -0.4975,0.308332 0,0.185001 0.199001,0.308334 0.4975,0.308334 z"
       id="path10-5-6-0-9"
       style="fill:#bf616a;fill-opacity:1;stroke-width:0.391658" />
    <path
       d="M 16.870072,3 H 5.196614 C 4.373485,3 3.7,3.6 3.7,4.333332 V 17.666665 C 3.7,18.4 4.373485,19 5.196614,19 h 11.673458 c 0.82313,0 1.496595,-0.6 1.496595,-1.333335 V 4.333332 C 18.366667,3.6 17.693202,3 16.870072,3 Z m 0.748304,14.666665 c 0,0.366663 -0.336755,0.666663 -0.748304,0.666663 H 5.196614 c -0.411582,0 -0.748305,-0.3 -0.748305,-0.666663 V 4.333332 c 0,-0.366665 0.336723,-0.666665 0.748305,-0.666665 h 11.673458 c 0.411549,0 0.748304,0.3 0.748304,0.666665 z"
       id="path2-3-3-3-2-9-0"
       style="fill:#d6dbf1;fill-opacity:1;stroke-width:0.353151" />
    <path
       d="m 11.033333,14.333333 a 4,4 0 1 0 -4,-4 4.0056102,4.0056102 0 0 0 4,4 z m 0,-7.198878 a 3.1988777,3.1988777 0 1 1 -3.198877,3.198878 3.2026172,3.2026172 0 0 1 3.198877,-3.198878 z"
       id="path12-6-9-3-9"
       style="fill:#bf616a;fill-opacity:1;stroke-width:0.26704;image-rendering:optimizeQuality;shape-rendering:geometricPrecision;text-rendering:geometricPrecision" />
    <path
       d="M 15.353633,15.666667 H 6.755107 C 6.44822,15.666667 6.2,15.915519 6.2,16.221246 v 0.139285 c 0,0.306123 0.248347,0.55409 0.555107,0.55409 h 8.598526 c 0.306507,0 0.554974,-0.247961 0.554974,-0.55409 v -0.139285 c 0,-0.305486 -0.248474,-0.554579 -0.554974,-0.554579 z m -0.07163,0.901649 h -8.438 c -0.16314,0 -0.294667,-0.131889 -0.294667,-0.294387 0,-0.16352 0.131787,-0.295155 0.294667,-0.295155 h 8.438 c 0.162753,0 0.295333,0.13189 0.295333,0.295155 0,0.162628 -0.13258,0.294387 -0.295333,0.294387 z"
       id="path79-3-1-6-1"
       style="fill:#d6dbf1;fill-opacity:1;stroke-width:0.0326531"
       sodipodi:nodetypes="ssssssssssssssss" />
    <path
       d="m 11.03658,8.666667 c -0.451693,0 -0.884885,0.179515 -1.204365,0.498878 -0.319362,0.319456 -0.498882,0.752648 -0.498882,1.204366 0,0.451719 0.179515,0.884887 0.498882,1.204368 0.319455,0.31936 0.752648,0.498877 1.204365,0.498877 0.451717,0 0.884886,-0.179515 1.204365,-0.498877 0.319362,-0.319457 0.498882,-0.75265 0.498882,-1.204368 C 12.739337,9.918385 12.559649,9.485481 12.240273,9.166217 11.920984,8.846858 11.488081,8.667244 11.03658,8.666667 Z m 0,2.985231 v 9.7e-5 l -0.0032,0.01467 v 0 0 0 0 0 0 l 0.0033,-0.01467 z"
       id="path74-6-2-0-7"
       style="fill:#bf616a;fill-opacity:1;stroke-width:0.0240609"
       sodipodi:nodetypes="ccscsccccccccccccccc" />
  </g>
  <g
     id="22-22-disk-quota-high"
     transform="translate(32,-22)">
    <rect
       style="opacity:0.00100002"
       width="22"
       height="22"
       x="0"
       y="0"
       id="rect18" />
    <path
       d="m 6.863441,16.583333 h 5.960456 c 0.21806,0 0.363436,-0.123333 0.363436,-0.308334 0,-0.185 -0.145376,-0.308332 -0.363436,-0.308332 H 6.863441 C 6.645378,15.966667 6.5,16.089999 6.5,16.274999 6.5,16.46 6.645378,16.583333 6.863441,16.583333 Z"
       id="path10-5-6-6"
       style="fill:#ff9955;fill-opacity:1;stroke-width:0.334757" />
    <path
       d="M 16.870072,3 H 5.196614 C 4.373485,3 3.7,3.6 3.7,4.333332 V 17.666665 C 3.7,18.4 4.373485,19 5.196614,19 h 11.673458 c 0.82313,0 1.496595,-0.6 1.496595,-1.333335 V 4.333332 C 18.366667,3.6 17.693202,3 16.870072,3 Z m 0.748304,14.666665 c 0,0.366663 -0.336755,0.666663 -0.748304,0.666663 H 5.196614 c -0.411582,0 -0.748305,-0.3 -0.748305,-0.666663 V 4.333332 c 0,-0.366665 0.336723,-0.666665 0.748305,-0.666665 h 11.673458 c 0.411549,0 0.748304,0.3 0.748304,0.666665 z"
       id="path2-3-3-3-2-1"
       style="fill:#d6dbf1;fill-opacity:1;stroke-width:0.353151" />
    <path
       d="m 11.033333,14.333333 a 4,4 0 1 0 -4,-4 4.0056102,4.0056102 0 0 0 4,4 z m 0,-7.198878 a 3.1988777,3.1988777 0 1 1 -3.198877,3.198878 3.2026172,3.2026172 0 0 1 3.198877,-3.198878 z"
       id="path12-6-9-5"
       style="fill:#ff9955;fill-opacity:1;stroke-width:0.26704;image-rendering:optimizeQuality;shape-rendering:geometricPrecision;text-rendering:geometricPrecision" />
    <path
       d="M 15.353633,15.666667 H 6.755107 C 6.44822,15.666667 6.2,15.915519 6.2,16.221246 v 0.139285 c 0,0.306123 0.248347,0.55409 0.555107,0.55409 h 8.598526 c 0.306507,0 0.554974,-0.247961 0.554974,-0.55409 v -0.139285 c 0,-0.305486 -0.248474,-0.554579 -0.554974,-0.554579 z m -0.07163,0.901649 h -8.438 c -0.16314,0 -0.294667,-0.131889 -0.294667,-0.294387 0,-0.16352 0.131787,-0.295155 0.294667,-0.295155 h 8.438 c 0.162753,0 0.295333,0.13189 0.295333,0.295155 0,0.162628 -0.13258,0.294387 -0.295333,0.294387 z"
       id="path79-3-1-9"
       style="fill:#d6dbf1;fill-opacity:1;stroke-width:0.0326531"
       sodipodi:nodetypes="ssssssssssssssss" />
    <path
       d="m 11.03658,8.666667 c -0.451693,0 -0.884885,0.179515 -1.204365,0.498878 -0.319362,0.319456 -0.498882,0.752648 -0.498882,1.204366 0,0.451719 0.179515,0.884887 0.498882,1.204368 0.319455,0.31936 0.752648,0.498877 1.204365,0.498877 0.451717,0 0.884886,-0.179515 1.204365,-0.498877 0.319362,-0.319457 0.498882,-0.75265 0.498882,-1.204368 C 12.739337,9.918385 12.559649,9.485481 12.240273,9.166217 11.920984,8.846858 11.488081,8.667244 11.03658,8.666667 Z m -0.0033,3 z"
       id="path74-6-2-4"
       style="fill:#ff9955;fill-opacity:1;stroke-width:0.0240609"
       sodipodi:nodetypes="ccscscccccccccccccc" />
  </g>
  <g
     id="22-22-disk-quota-low"
     transform="translate(0,-22)">
    <rect
       style="opacity:0.00100002"
       width="22"
       height="22"
       x="0"
       y="0"
       id="rect11" />
    <path
       d="m 6.769789,16.583333 h 4.118427 c 0.15067,0 0.251117,-0.123333 0.251117,-0.308334 0,-0.185 -0.100447,-0.308332 -0.251117,-0.308332 H 6.769789 c -0.150672,0 -0.251122,0.123332 -0.251122,0.308332 0,0.185001 0.10045,0.308334 0.251122,0.308334 z"
       id="path10-5-2"
       style="fill:#5f8dd3;fill-opacity:1;stroke-width:0.278263" />
    <path
       d="M 16.870072,3 H 5.196614 C 4.373485,3 3.7,3.6 3.7,4.333332 V 17.666665 C 3.7,18.4 4.373485,19 5.196614,19 h 11.673458 c 0.82313,0 1.496595,-0.6 1.496595,-1.333335 V 4.333332 C 18.366667,3.6 17.693202,3 16.870072,3 Z m 0.748304,14.666665 c 0,0.366663 -0.336755,0.666663 -0.748304,0.666663 H 5.196614 c -0.411582,0 -0.748305,-0.3 -0.748305,-0.666663 V 4.333332 c 0,-0.366665 0.336723,-0.666665 0.748305,-0.666665 h 11.673458 c 0.411549,0 0.748304,0.3 0.748304,0.666665 z"
       id="path2-3-3-3-6-2"
       style="fill:#d6dbf1;fill-opacity:1;stroke-width:0.353151" />
    <path
       d="m 11.033333,14.333333 a 4,4 0 1 0 -4,-4 4.0056102,4.0056102 0 0 0 4,4 z m 0,-7.198878 a 3.1988777,3.1988777 0 1 1 -3.198877,3.198878 3.2026172,3.2026172 0 0 1 3.198877,-3.198878 z"
       id="path12-6-7-6"
       style="fill:#5f8dd3;fill-opacity:1;stroke-width:0.26704;image-rendering:optimizeQuality;shape-rendering:geometricPrecision;text-rendering:geometricPrecision" />
    <path
       d="M 15.353633,15.666667 H 6.755107 C 6.44822,15.666667 6.2,15.915519 6.2,16.221246 v 0.139285 c 0,0.306123 0.248347,0.55409 0.555107,0.55409 h 8.598526 c 0.306507,0 0.554974,-0.247961 0.554974,-0.55409 v -0.139285 c 0,-0.305486 -0.248474,-0.554579 -0.554974,-0.554579 z m -0.07163,0.901649 h -8.438 c -0.16314,0 -0.294667,-0.131889 -0.294667,-0.294387 0,-0.16352 0.131787,-0.295155 0.294667,-0.295155 h 8.438 c 0.162753,0 0.295333,0.13189 0.295333,0.295155 0,0.162628 -0.13258,0.294387 -0.295333,0.294387 z"
       id="path79-3-5-1"
       style="fill:#d6dbf1;fill-opacity:1;stroke-width:0.0326531"
       sodipodi:nodetypes="ssssssssssssssss" />
    <path
       d="m 11.03658,8.666667 c -0.451693,0 -0.884885,0.179515 -1.204365,0.498878 -0.319362,0.319456 -0.498882,0.752648 -0.498882,1.204366 0,0.451719 0.179515,0.884887 0.498882,1.204368 0.319455,0.31936 0.752648,0.498877 1.204365,0.498877 0.451717,0 0.884886,-0.179515 1.204365,-0.498877 0.319362,-0.319457 0.498882,-0.75265 0.498882,-1.204368 C 12.739337,9.918385 12.559649,9.485481 12.240273,9.166217 11.920984,8.846858 11.488081,8.667244 11.03658,8.666667 Z m -0.0032,3 z"
       id="path74-6-3-0"
       style="fill:#5f8dd3;fill-opacity:1;stroke-width:0.0240609"
       sodipodi:nodetypes="ccscsccccccccccccc" />
  </g>
  <g
     id="22-22-disk-quota"
     transform="translate(-32,-22)">
    <rect
       style="opacity:0.00100002"
       width="22"
       height="22"
       x="0"
       y="0"
       id="rect4" />
    <path
       d="M 16.870072,3 H 5.196614 C 4.373485,3 3.7,3.6 3.7,4.333332 V 17.666665 C 3.7,18.4 4.373485,19 5.196614,19 h 11.673458 c 0.82313,0 1.496595,-0.6 1.496595,-1.333335 V 4.333332 C 18.366667,3.6 17.693202,3 16.870072,3 Z m 0.748304,14.666665 c 0,0.366663 -0.336755,0.666663 -0.748304,0.666663 H 5.196614 c -0.411582,0 -0.748305,-0.3 -0.748305,-0.666663 V 4.333332 c 0,-0.366665 0.336723,-0.666665 0.748305,-0.666665 h 11.673458 c 0.411549,0 0.748304,0.3 0.748304,0.666665 z"
       id="path2-3-3-3-0"
       style="fill:#d6dbf1;fill-opacity:1;stroke-width:0.353151" />
    <path
       d="m 11.033333,14.333333 a 4,4 0 1 0 -4,-4 4.0056102,4.0056102 0 0 0 4,4 z m 0,-7.198878 a 3.1988777,3.1988777 0 1 1 -3.198877,3.198878 3.2026172,3.2026172 0 0 1 3.198877,-3.198878 z"
       id="path12-6-4"
       style="fill:#d6dbf1;fill-opacity:1;stroke-width:0.26704;image-rendering:optimizeQuality;shape-rendering:geometricPrecision;text-rendering:geometricPrecision" />
    <path
       d="M 15.353633,15.666667 H 6.755107 C 6.44822,15.666667 6.2,15.915519 6.2,16.221246 v 0.139285 c 0,0.306123 0.248347,0.55409 0.555107,0.55409 h 8.598526 c 0.306507,0 0.554974,-0.247961 0.554974,-0.55409 v -0.139285 c 0,-0.305486 -0.248474,-0.554579 -0.554974,-0.554579 z m -0.07163,0.901649 h -8.438 c -0.16314,0 -0.294667,-0.131889 -0.294667,-0.294387 0,-0.16352 0.131787,-0.295155 0.294667,-0.295155 h 8.438 c 0.162753,0 0.295333,0.13189 0.295333,0.295155 0,0.162628 -0.13258,0.294387 -0.295333,0.294387 z"
       id="path79-3-8"
       style="fill:#d6dbf1;fill-opacity:1;stroke-width:0.0326531"
       sodipodi:nodetypes="ssssssssssssssss" />
    <path
       d="m 11.03658,8.666667 c -0.451693,0 -0.884885,0.179515 -1.204365,0.498878 -0.319362,0.319456 -0.498882,0.752648 -0.498882,1.204366 0,0.451719 0.179515,0.884887 0.498882,1.204368 0.319455,0.31936 0.752648,0.498877 1.204365,0.498877 0.451717,0 0.884886,-0.179515 1.204365,-0.498877 0.319362,-0.319457 0.498882,-0.75265 0.498882,-1.204368 C 12.739337,9.918385 12.559649,9.485481 12.240273,9.166217 11.920984,8.846858 11.488081,8.667244 11.03658,8.666667 Z m 0,2.985231 v 9.7e-5 l -0.0032,0.01467 v 0 0 0 0 0 0 0 z"
       id="path74-6-7"
       style="fill:#d6dbf1;fill-opacity:1;stroke-width:0.0240609"
       sodipodi:nodetypes="ccscsccccccccccccccc" />
  </g>
  <g
     id="disk-quota-critical"
     transform="translate(64)">
    <rect
       style="opacity:0.00100002"
       width="32"
       height="32"
       x="0"
       y="0"
       id="rect64" />
    <path
       d="M 9.9462496,24.375 H 22.18475 c 0.447747,0 0.74625,-0.185 0.74625,-0.462501 C 22.931,23.634998 22.632497,23.45 22.18475,23.45 H 9.9462496 C 9.4985013,23.45 9.2,23.634998 9.2,23.912499 9.2,24.19 9.4985013,24.375 9.9462496,24.375 Z"
       id="path10-5-6-0"
       style="fill:#bf616a;fill-opacity:1;stroke-width:0.587487" />
    <path
       d="M 24.755108,4 H 7.244921 C 6.010227,4 5,4.9 5,5.999998 V 25.999997 C 5,27.1 6.010227,28 7.244921,28 H 24.755108 C 25.989803,28 27,27.1 27,25.999997 V 5.999998 C 27,4.9 25.989803,4 24.755108,4 Z m 1.122456,21.999997 c 0,0.549995 -0.505133,0.999995 -1.122456,0.999995 H 7.244921 c -0.617373,0 -1.122457,-0.45 -1.122457,-0.999995 V 5.999998 C 6.122464,5.45 6.627548,5 7.244921,5 h 17.510187 c 0.617323,0 1.122456,0.45 1.122456,0.999998 z"
       id="path2-3-3-3-2-9"
       style="fill:#d6dbf1;fill-opacity:1;stroke-width:0.529727" />
    <path
       d="m 16,21 a 6,6 0 1 0 -6,-6 6.0084153,6.0084153 0 0 0 6,6 z M 16,10.201682 A 4.7983166,4.7983166 0 1 1 11.201684,15 4.8039258,4.8039258 0 0 1 16,10.201682 Z"
       id="path12-6-9-3"
       style="fill:#bf616a;fill-opacity:1;stroke-width:0.40056;image-rendering:optimizeQuality;shape-rendering:geometricPrecision;text-rendering:geometricPrecision" />
    <path
       d="M 22.48045,23 H 9.58266 C 9.12233,23 8.75,23.373278 8.75,23.831869 v 0.208927 c 0,0.459185 0.37252,0.831135 0.83266,0.831135 h 12.89779 c 0.45976,0 0.83246,-0.371941 0.83246,-0.831135 V 23.831869 C 23.31291,23.37364 22.9402,23 22.48045,23 Z M 22.373,24.352474 H 9.716 c -0.24471,0 -0.442,-0.197834 -0.442,-0.441581 0,-0.24528 0.19768,-0.442732 0.442,-0.442732 h 12.657 c 0.24413,0 0.443,0.197835 0.443,0.442732 0,0.243942 -0.19887,0.441581 -0.443,0.441581 z"
       id="path79-3-1-6"
       style="fill:#d6dbf1;fill-opacity:1;stroke-width:0.0489796"
       sodipodi:nodetypes="ssssssssssssssss" />
    <path
       d="m 16.00487,12.5 c -0.677539,0 -1.327328,0.269273 -1.806548,0.748317 -0.479043,0.479184 -0.748322,1.128972 -0.748322,1.80655 0,0.677578 0.269272,1.32733 0.748322,1.806551 0.479183,0.47904 1.128972,0.748316 1.806548,0.748316 0.677576,0 1.327329,-0.269273 1.806548,-0.748316 0.479043,-0.479185 0.748323,-1.128974 0.748323,-1.806552 -7.35e-4,-0.677289 -0.270267,-1.326644 -0.749332,-1.80554 C 17.331476,12.770287 16.682122,12.500866 16.00487,12.5 Z m 0,4.477847 v 1.45e-4 L 16,17 v 0 0 0 0 0 0 l 0.0049,-0.02201 z"
       id="path74-6-2-0"
       style="fill:#bf616a;fill-opacity:1;stroke-width:0.0360913"
       sodipodi:nodetypes="ccscsccccccccccccccc" />
  </g>
  <g
     id="disk-quota"
     transform="translate(-32)">
    <rect
       style="opacity:0.00100002"
       width="32"
       height="32"
       x="0"
       y="0"
       id="rect41" />
    <path
       d="M 24.755108,4 H 7.244921 C 6.010227,4 5,4.9 5,5.999998 V 25.999997 C 5,27.1 6.010227,28 7.244921,28 H 24.755108 C 25.989803,28 27,27.1 27,25.999997 V 5.999998 C 27,4.9 25.989803,4 24.755108,4 Z m 1.122456,21.999997 c 0,0.549995 -0.505133,0.999995 -1.122456,0.999995 H 7.244921 c -0.617373,0 -1.122457,-0.45 -1.122457,-0.999995 V 5.999998 C 6.122464,5.45 6.627548,5 7.244921,5 h 17.510187 c 0.617323,0 1.122456,0.45 1.122456,0.999998 z"
       id="path2-3-3-3"
       style="fill:#d6dbf1;fill-opacity:1;stroke-width:0.529727" />
    <path
       d="m 16,21 a 6,6 0 1 0 -6,-6 6.0084153,6.0084153 0 0 0 6,6 z M 16,10.201682 A 4.7983166,4.7983166 0 1 1 11.201684,15 4.8039258,4.8039258 0 0 1 16,10.201682 Z"
       id="path12-6"
       style="fill:#d6dbf1;fill-opacity:1;stroke-width:0.40056;image-rendering:optimizeQuality;shape-rendering:geometricPrecision;text-rendering:geometricPrecision" />
    <path
       d="M 22.48045,23 H 9.58266 C 9.12233,23 8.75,23.373278 8.75,23.831869 v 0.208927 c 0,0.459185 0.37252,0.831135 0.83266,0.831135 h 12.89779 c 0.45976,0 0.83246,-0.371941 0.83246,-0.831135 V 23.831869 C 23.31291,23.37364 22.9402,23 22.48045,23 Z M 22.373,24.352474 H 9.716 c -0.24471,0 -0.442,-0.197834 -0.442,-0.441581 0,-0.24528 0.19768,-0.442732 0.442,-0.442732 h 12.657 c 0.24413,0 0.443,0.197835 0.443,0.442732 0,0.243942 -0.19887,0.441581 -0.443,0.441581 z"
       id="path79-3"
       style="fill:#d6dbf1;fill-opacity:1;stroke-width:0.0489796"
       sodipodi:nodetypes="ssssssssssssssss" />
    <path
       d="m 16.00487,12.5 c -0.677539,0 -1.327328,0.269273 -1.806548,0.748317 -0.479043,0.479184 -0.748322,1.128972 -0.748322,1.80655 0,0.677578 0.269272,1.32733 0.748322,1.806551 0.479183,0.47904 1.128972,0.748316 1.806548,0.748316 0.677576,0 1.327329,-0.269273 1.806548,-0.748316 0.479043,-0.479185 0.748323,-1.128974 0.748323,-1.806552 -7.35e-4,-0.677289 -0.270267,-1.326644 -0.749332,-1.80554 C 17.331476,12.770287 16.682122,12.500866 16.00487,12.5 Z m 0,4.477847 v 1.45e-4 L 16,17 v 0 0 0 0 0 0 0 z"
       id="path74-6"
       style="fill:#d6dbf1;fill-opacity:1;stroke-width:0.0360913"
       sodipodi:nodetypes="ccscsccccccccccccccc" />
  </g>
  <sodipodi:namedview
     id="namedview80"
     pagecolor="#ffffff"
     bordercolor="#000000"
     borderopacity="1"
     inkscape:pageshadow="2"
     inkscape:pageopacity="0.0"
     inkscape:pagecheckerboard="0"
     showgrid="false"
     inkscape:zoom="2.8284271"
     inkscape:cx="53.740115"
     inkscape:cy="21.036427"
     inkscape:window-width="1920"
     inkscape:window-height="1015"
     inkscape:window-x="0"
     inkscape:window-y="0"
     inkscape:window-maximized="1"
     inkscape:current-layer="svg78"
     showguides="false"
     inkscape:lockguides="false"
     inkscape:showpageshadow="false">
    <inkscape:grid
       type="xygrid"
       id="grid1005"
       originx="-32"
       originy="0" />
  </sodipodi:namedview>
  <defs
     id="nova">
    <style
       id="current-color-scheme"
       type="text/css">
   .ColorScheme-Background {color:#181818; } .ColorScheme-ButtonBackground { color:#343434; } .ColorScheme-Highlight { color:#4285f4; } .ColorScheme-Text { color:#dfdfdf; } .ColorScheme-ViewBackground { color:#242424; } .ColorScheme-NegativeText { color:#f44336; } .ColorScheme-PositiveText { color:#4caf50; } .ColorScheme-NeutralText { color:#ff9800; }
  </style>
  </defs>
  <g
     transform="matrix(1.5,0,0,1.5,100,4.0003)"
     id="g75" />
  <g
     id="disk-quota-low">
    <rect
       style="opacity:0.00100002"
       width="32"
       height="32"
       x="0"
       y="0"
       id="rect48" />
    <path
       d="M 9.6046835,24.375 H 15.782324 C 16.008329,24.375 16.159,24.19 16.159,23.912499 16.159,23.634998 16.008329,23.45 15.782324,23.45 H 9.6046835 C 9.3786751,23.45 9.228,23.634998 9.228,23.912499 9.228,24.19 9.3786751,24.375 9.6046835,24.375 Z"
       id="path10-5"
       style="fill:#5f8dd3;fill-opacity:1;stroke-width:0.417394" />
    <path
       d="M 24.755108,4 H 7.244921 C 6.010227,4 5,4.9 5,5.999998 V 25.999997 C 5,27.1 6.010227,28 7.244921,28 H 24.755108 C 25.989803,28 27,27.1 27,25.999997 V 5.999998 C 27,4.9 25.989803,4 24.755108,4 Z m 1.122456,21.999997 c 0,0.549995 -0.505133,0.999995 -1.122456,0.999995 H 7.244921 c -0.617373,0 -1.122457,-0.45 -1.122457,-0.999995 V 5.999998 C 6.122464,5.45 6.627548,5 7.244921,5 h 17.510187 c 0.617323,0 1.122456,0.45 1.122456,0.999998 z"
       id="path2-3-3-3-6"
       style="fill:#d6dbf1;fill-opacity:1;stroke-width:0.529727" />
    <path
       d="m 16,21 a 6,6 0 1 0 -6,-6 6.0084153,6.0084153 0 0 0 6,6 z M 16,10.201682 A 4.7983166,4.7983166 0 1 1 11.201684,15 4.8039258,4.8039258 0 0 1 16,10.201682 Z"
       id="path12-6-7"
       style="fill:#5f8dd3;fill-opacity:1;stroke-width:0.40056;image-rendering:optimizeQuality;shape-rendering:geometricPrecision;text-rendering:geometricPrecision" />
    <path
       d="M 22.48045,23 H 9.58266 C 9.12233,23 8.75,23.373278 8.75,23.831869 v 0.208927 c 0,0.459185 0.37252,0.831135 0.83266,0.831135 h 12.89779 c 0.45976,0 0.83246,-0.371941 0.83246,-0.831135 V 23.831869 C 23.31291,23.37364 22.9402,23 22.48045,23 Z M 22.373,24.352474 H 9.716 c -0.24471,0 -0.442,-0.197834 -0.442,-0.441581 0,-0.24528 0.19768,-0.442732 0.442,-0.442732 h 12.657 c 0.24413,0 0.443,0.197835 0.443,0.442732 0,0.243942 -0.19887,0.441581 -0.443,0.441581 z"
       id="path79-3-5"
       style="fill:#d6dbf1;fill-opacity:1;stroke-width:0.0489796"
       sodipodi:nodetypes="ssssssssssssssss" />
    <path
       d="m 16.00487,12.5 c -0.677539,0 -1.327328,0.269273 -1.806548,0.748317 -0.479043,0.479184 -0.748322,1.128972 -0.748322,1.80655 0,0.677578 0.269272,1.32733 0.748322,1.806551 0.479183,0.47904 1.128972,0.748316 1.806548,0.748316 0.677576,0 1.327329,-0.269273 1.806548,-0.748316 0.479043,-0.479185 0.748323,-1.128974 0.748323,-1.806552 -7.35e-4,-0.677289 -0.270267,-1.326644 -0.749332,-1.80554 C 17.331476,12.770287 16.682122,12.500866 16.00487,12.5 Z M 16,17 Z"
       id="path74-6-3"
       style="fill:#5f8dd3;fill-opacity:1;stroke-width:0.0360913"
       sodipodi:nodetypes="ccscsccccccccccccc" />
  </g>
  <g
     id="disk-quota-high"
     transform="translate(32)">
    <rect
       style="opacity:0.00100002"
       width="32"
       height="32"
       x="0"
       y="0"
       id="rect55" />
    <path
       d="M 9.7451617,24.375 H 18.685845 C 19.012935,24.375 19.231,24.19 19.231,23.912499 19.231,23.634998 19.012935,23.45 18.685845,23.45 H 9.7451617 C 9.4180666,23.45 9.2,23.634998 9.2,23.912499 9.2,24.19 9.4180666,24.375 9.7451617,24.375 Z"
       id="path10-5-6"
       style="fill:#ff9955;fill-opacity:1;stroke-width:0.502135" />
    <path
       d="M 24.755108,4 H 7.244921 C 6.010227,4 5,4.9 5,5.999998 V 25.999997 C 5,27.1 6.010227,28 7.244921,28 H 24.755108 C 25.989803,28 27,27.1 27,25.999997 V 5.999998 C 27,4.9 25.989803,4 24.755108,4 Z m 1.122456,21.999997 c 0,0.549995 -0.505133,0.999995 -1.122456,0.999995 H 7.244921 c -0.617373,0 -1.122457,-0.45 -1.122457,-0.999995 V 5.999998 C 6.122464,5.45 6.627548,5 7.244921,5 h 17.510187 c 0.617323,0 1.122456,0.45 1.122456,0.999998 z"
       id="path2-3-3-3-2"
       style="fill:#d6dbf1;fill-opacity:1;stroke-width:0.529727" />
    <path
       d="m 16,21 a 6,6 0 1 0 -6,-6 6.0084153,6.0084153 0 0 0 6,6 z M 16,10.201682 A 4.7983166,4.7983166 0 1 1 11.201684,15 4.8039258,4.8039258 0 0 1 16,10.201682 Z"
       id="path12-6-9"
       style="fill:#ff9955;fill-opacity:1;stroke-width:0.40056;image-rendering:optimizeQuality;shape-rendering:geometricPrecision;text-rendering:geometricPrecision" />
    <path
       d="M 22.48045,23 H 9.58266 C 9.12233,23 8.75,23.373278 8.75,23.831869 v 0.208927 c 0,0.459185 0.37252,0.831135 0.83266,0.831135 h 12.89779 c 0.45976,0 0.83246,-0.371941 0.83246,-0.831135 V 23.831869 C 23.31291,23.37364 22.9402,23 22.48045,23 Z M 22.373,24.352474 H 9.716 c -0.24471,0 -0.442,-0.197834 -0.442,-0.441581 0,-0.24528 0.19768,-0.442732 0.442,-0.442732 h 12.657 c 0.24413,0 0.443,0.197835 0.443,0.442732 0,0.243942 -0.19887,0.441581 -0.443,0.441581 z"
       id="path79-3-1"
       style="fill:#d6dbf1;fill-opacity:1;stroke-width:0.0489796"
       sodipodi:nodetypes="ssssssssssssssss" />
    <path
       d="m 16.00487,12.5 c -0.677539,0 -1.327328,0.269273 -1.806548,0.748317 -0.479043,0.479184 -0.748322,1.128972 -0.748322,1.80655 0,0.677578 0.269272,1.32733 0.748322,1.806551 0.479183,0.47904 1.128972,0.748316 1.806548,0.748316 0.677576,0 1.327329,-0.269273 1.806548,-0.748316 0.479043,-0.479185 0.748323,-1.128974 0.748323,-1.806552 -7.35e-4,-0.677289 -0.270267,-1.326644 -0.749332,-1.80554 C 17.331476,12.770287 16.682122,12.500866 16.00487,12.5 Z M 16,17 Z"
       id="path74-6-2"
       style="fill:#ff9955;fill-opacity:1;stroke-width:0.0360913"
       sodipodi:nodetypes="ccscscccccccccccccc" />
  </g>
</svg>
