<?xml version="1.0" encoding="UTF-8" standalone="no"?>
<svg
   width="32"
   height="32"
   id="svg3869"
   version="1.1"
   viewBox="0 0 32 32.000001"
   sodipodi:docname="input.svg"
   inkscape:version="1.1.1 (3bf5ae0d25, 2021-09-20)"
   xmlns:inkscape="http://www.inkscape.org/namespaces/inkscape"
   xmlns:sodipodi="http://sodipodi.sourceforge.net/DTD/sodipodi-0.dtd"
   xmlns="http://www.w3.org/2000/svg"
   xmlns:svg="http://www.w3.org/2000/svg"
   xmlns:rdf="http://www.w3.org/1999/02/22-rdf-syntax-ns#"
   xmlns:cc="http://creativecommons.org/ns#"
   xmlns:dc="http://purl.org/dc/elements/1.1/">
  <g
     id="22-22-input-keyboard-virtual-on"
     transform="translate(-22,10)">
    <rect
       y="0"
       x="0"
       height="22"
       width="22"
       id="rect4140"
       style="fill:none;fill-opacity:1;stroke:none;stroke-linejoin:bevel" />
    <path
       id="path8-9-0-8-9-2"
       d="M 5.084615,4 A 1.3846151,1.3873602 0 0 0 3.7,5.387368 1.3846151,1.3873602 0 0 0 5.084615,6.774737 1.3846151,1.3873602 0 0 0 6.46923,5.387368 1.3846151,1.3873602 0 0 0 5.084615,4 Z"
       style="fill:#7b96b7;fill-opacity:1;stroke:none;stroke-width:0.806407"
       inkscape:connector-curvature="0" />
    <path
       d="m 15.384192,9.742698 h -0.981294 c -0.113285,0 -0.204697,0.09297 -0.204697,0.207345 v 0.995656 c 0,0.114482 0.09141,0.207456 0.204697,0.207456 h 0.981294 c 0.112838,0 0.204359,-0.09297 0.204359,-0.207456 V 9.950043 c 0,-0.114372 -0.09152,-0.207345 -0.204359,-0.207345 z m -0.20436,0.995536 H 14.607268 V 10.15752 h 0.572564 z"
       id="path64-3-2-4-3-2"
       style="fill:#d6dbf1;fill-opacity:1;stroke-width:0.0287806" />
    <path
       d="m 15.384192,11.698968 h -0.981294 c -0.113285,0 -0.204697,0.09297 -0.204697,0.207348 v 0.995647 c 0,0.114486 0.09141,0.207465 0.204697,0.207465 h 0.981294 c 0.112838,0 0.204359,-0.09298 0.204359,-0.207465 v -0.995647 c 0,-0.114604 -0.09152,-0.207348 -0.204359,-0.207348 z m -0.20436,0.995651 h -0.572564 v -0.580708 h 0.572564 z"
       id="path66-5-3-5-7-6"
       style="fill:#d6dbf1;fill-opacity:1;stroke-width:0.0287806" />
    <path
       d="m 15.384192,13.654371 h -0.981294 c -0.113285,0 -0.204697,0.09297 -0.204697,0.207467 v 0.994943 c 0,0.114496 0.09141,0.207355 0.204697,0.207355 h 0.981294 c 0.112838,0 0.204359,-0.09274 0.204359,-0.207355 v -0.994943 c 0,-0.114495 -0.09152,-0.207467 -0.204359,-0.207467 z m -0.20436,0.995183 h -0.572564 v -0.580149 h 0.572564 z"
       id="path68-6-7-0-4-1"
       style="fill:#d6dbf1;fill-opacity:1;stroke-width:0.0287806" />
    <path
       d="m 17.316835,9.742698 h -0.981608 c -0.113284,0 -0.204696,0.09297 -0.204696,0.207345 v 0.995656 c 0,0.114482 0.09141,0.207456 0.204696,0.207456 h 0.981608 c 0.112838,0 0.204696,-0.09297 0.204696,-0.207456 V 9.950043 c 1.14e-4,-0.114372 -0.09197,-0.207345 -0.204696,-0.207345 z m -0.204247,0.995536 H 16.539566 V 10.15752 h 0.572908 z"
       id="path70-2-5-3-5-0"
       style="fill:#d6dbf1;fill-opacity:1;stroke-width:0.0287806" />
    <path
       d="m 17.316835,11.698968 h -0.981608 c -0.113284,0 -0.204696,0.09297 -0.204696,0.207348 v 0.995647 c 0,0.114486 0.09141,0.207465 0.204696,0.207465 h 0.981608 c 0.112838,0 0.204696,-0.09298 0.204696,-0.207465 v -0.995647 c 1.14e-4,-0.114604 -0.09197,-0.207348 -0.204696,-0.207348 z m -0.204247,0.995651 h -0.573022 v -0.580708 h 0.572908 z"
       id="path72-9-9-6-2-6"
       style="fill:#d6dbf1;fill-opacity:1;stroke-width:0.0287806" />
    <path
       d="m 17.316835,13.654371 h -0.981608 c -0.113284,0 -0.204696,0.09297 -0.204696,0.207467 v 0.994943 c 0,0.114496 0.09141,0.207355 0.204696,0.207355 h 0.981608 c 0.112838,0 0.204696,-0.09274 0.204696,-0.207355 v -0.994943 c 1.14e-4,-0.114495 -0.09197,-0.207467 -0.204696,-0.207467 z m -0.204247,0.995183 h -0.573022 v -0.580149 h 0.572908 z"
       id="path74-1-2-1-5-1"
       style="fill:#d6dbf1;fill-opacity:1;stroke-width:0.0287806" />
    <path
       d="m 13.424404,9.742698 h -0.981608 c -0.112839,0 -0.20436,0.09297 -0.20436,0.207345 v 0.995656 c 0,0.114482 0.09141,0.207456 0.20436,0.207456 h 0.981608 c 0.112839,0 0.204359,-0.09297 0.204359,-0.207456 V 9.950043 c 0,-0.114372 -0.09141,-0.207345 -0.204359,-0.207345 z m -0.204696,0.995536 H 12.647485 V 10.15752 h 0.572223 z"
       id="path76-2-2-0-4-5"
       style="fill:#d6dbf1;fill-opacity:1;stroke-width:0.0287806" />
    <path
       d="m 13.424404,11.698968 h -0.981608 c -0.112839,0 -0.20436,0.09297 -0.20436,0.207348 v 0.995647 c 0,0.114486 0.09141,0.207465 0.20436,0.207465 h 0.981608 c 0.112839,0 0.204359,-0.09298 0.204359,-0.207465 v -0.995647 c 0,-0.114604 -0.09141,-0.207348 -0.204359,-0.207348 z m -0.204696,0.995651 h -0.572223 v -0.580708 h 0.572223 z"
       id="path78-7-8-6-7-9"
       style="fill:#d6dbf1;fill-opacity:1;stroke-width:0.0287806" />
    <path
       d="m 13.424404,13.654371 h -0.981608 c -0.112839,0 -0.20436,0.09297 -0.20436,0.207467 v 0.994943 c 0,0.114496 0.09141,0.207355 0.20436,0.207355 h 0.981608 c 0.112839,0 0.204359,-0.09274 0.204359,-0.207355 v -0.994943 c 0,-0.114495 -0.09141,-0.207467 -0.204359,-0.207467 z m -0.204696,0.995183 h -0.572223 v -0.580149 h 0.572223 z"
       id="path80-0-9-3-4-4"
       style="fill:#d6dbf1;fill-opacity:1;stroke-width:0.0287806" />
    <path
       d="m 11.472331,9.742698 h -0.980837 c -0.112839,0 -0.204359,0.09297 -0.204359,0.207345 v 0.995656 c 0,0.114482 0.09141,0.207456 0.204359,0.207456 h 0.980837 c 0.112838,0 0.204696,-0.09297 0.204696,-0.207456 V 9.950043 c 0,-0.114372 -0.09174,-0.207345 -0.204696,-0.207345 z m -0.204359,0.995536 H 10.696179 V 10.15752 h 0.571793 z"
       id="path82-9-7-2-4-9"
       style="fill:#d6dbf1;fill-opacity:1;stroke-width:0.0287806" />
    <path
       d="m 11.472331,11.698968 h -0.980837 c -0.112839,0 -0.204359,0.09297 -0.204359,0.207348 v 0.995647 c 0,0.114486 0.09141,0.207465 0.204359,0.207465 h 0.980837 c 0.112838,0 0.204696,-0.09298 0.204696,-0.207465 v -0.995647 c 0,-0.114604 -0.09174,-0.207348 -0.204696,-0.207348 z m -0.204359,0.995651 h -0.571793 v -0.580708 h 0.571793 z"
       id="path84-3-3-3-0-3-0"
       style="fill:#d6dbf1;fill-opacity:1;stroke-width:0.0287806" />
    <path
       d="m 8.570793,11.153374 h 0.981952 c 0.112838,0 0.204358,-0.09298 0.204358,-0.207464 V 9.950262 c 0,-0.114485 -0.09141,-0.207346 -0.204358,-0.207346 H 8.570793 c -0.112838,0 -0.204358,0.09297 -0.204358,0.207346 v 0.995648 c 0,0.114482 0.09163,0.207464 0.204358,0.207464 z m 0.204696,-0.995768 h 0.572908 v 0.580713 H 8.775489 Z"
       id="path86-6-6-6-6-0-9"
       style="fill:#d6dbf1;fill-opacity:1;stroke-width:0.0287806" />
    <path
       d="m 8.570793,13.109355 h 0.981952 c 0.112838,0 0.204358,-0.09297 0.204358,-0.207457 v -0.995656 c 0,-0.114482 -0.09141,-0.207344 -0.204358,-0.207344 H 8.570793 c -0.112838,0 -0.204358,0.09297 -0.204358,0.207344 v 0.995656 c 0,0.114482 0.09163,0.207457 0.204358,0.207457 z m 0.204696,-0.995649 h 0.572908 v 0.580708 H 8.775489 Z"
       id="path88-7-0-1-1-7-1"
       style="fill:#d6dbf1;fill-opacity:1;stroke-width:0.0287806" />
    <path
       d="m 6.628149,11.153374 h 0.980494 c 0.112838,0 0.204696,-0.09298 0.204696,-0.207464 V 9.950262 c 0,-0.114485 -0.09185,-0.207346 -0.204696,-0.207346 H 6.628149 c -0.113284,0 -0.204696,0.09297 -0.204696,0.207346 v 0.995648 c 0,0.114482 0.09163,0.207464 0.204696,0.207464 z M 6.832508,10.157606 H 7.4043 v 0.580713 H 6.832508 Z"
       id="path90-5-6-2-5-8-7"
       style="fill:#d6dbf1;fill-opacity:1;stroke-width:0.0287806" />
    <path
       d="m 6.628149,13.109355 h 0.980494 c 0.112838,0 0.204696,-0.09297 0.204696,-0.207457 v -0.995656 c 0,-0.114482 -0.09185,-0.207344 -0.204696,-0.207344 H 6.628149 c -0.113284,0 -0.204696,0.09297 -0.204696,0.207344 v 0.995656 c 0,0.114482 0.09163,0.207457 0.204696,0.207457 z M 6.832508,12.113706 H 7.4043 v 0.580708 l -0.571792,1.2e-4 z"
       id="path92-3-26-9-5-6-7"
       style="fill:#d6dbf1;fill-opacity:1;stroke-width:0.0287806" />
    <path
       d="M 11.472331,13.654371 H 6.628435 c -0.113284,0 -0.204696,0.09297 -0.204696,0.207467 v 0.994943 c 0,0.114496 0.09141,0.207355 0.204696,0.207355 h 4.843896 c 0.112838,0 0.204696,-0.09274 0.204696,-0.207355 v -0.994943 c 0,-0.114495 -0.09174,-0.207467 -0.204696,-0.207467 z m -0.204359,0.995183 H 6.832663 v -0.580149 h 4.435309 z"
       id="path94-5-1-3-4-8-1"
       style="fill:#d6dbf1;fill-opacity:1;stroke-width:0.0287806" />
    <path
       d="M 5.665256,9.742698 H 4.683191 c -0.112839,0 -0.20436,0.09297 -0.20436,0.207345 v 0.995656 c 0,0.114482 0.09141,0.207456 0.20436,0.207456 h 0.98195 c 0.112839,0 0.20436,-0.09297 0.20436,-0.207456 V 9.950043 C 5.869615,9.835671 5.778091,9.742698 5.665253,9.742698 Z M 5.460559,10.738234 H 4.887652 V 10.15752 h 0.572907 z"
       id="path96-6-8-1-7-8-1"
       style="fill:#d6dbf1;fill-opacity:1;stroke-width:0.0287806" />
    <path
       d="M 5.665256,11.698968 H 4.683191 c -0.112839,0 -0.20436,0.09297 -0.20436,0.207348 v 0.995647 c 0,0.114486 0.09141,0.207465 0.20436,0.207465 h 0.98195 c 0.112839,0 0.20436,-0.09298 0.20436,-0.207465 V 11.906316 C 5.869615,11.791712 5.778091,11.698968 5.665253,11.698968 Z M 5.460559,12.694619 H 4.887652 v -0.580708 h 0.572907 z"
       id="path98-2-7-9-6-4-5"
       style="fill:#d6dbf1;fill-opacity:1;stroke-width:0.0287806" />
    <path
       d="M 5.665256,13.654371 H 4.683191 c -0.112839,0 -0.20436,0.09297 -0.20436,0.207467 v 0.994943 c 0,0.114496 0.09141,0.207355 0.20436,0.207355 h 0.98195 c 0.112839,0 0.20436,-0.09274 0.20436,-0.207355 V 13.861838 C 5.869615,13.747343 5.778091,13.654371 5.665253,13.654371 Z M 5.460559,14.649554 H 4.887652 v -0.580149 h 0.572907 z"
       id="path100-9-9-4-5-3-9"
       style="fill:#d6dbf1;fill-opacity:1;stroke-width:0.0287806" />
    <path
       d="m 18.125437,8.229688 h -3.354126 v -0.08413 c 0,-0.254686 -0.205811,-0.457617 -0.466646,-0.481619 -0.02355,-0.08935 -0.303468,-1.108652 -1.091898,-1.470802 -0.42993,-0.197949 -0.915777,-0.161934 -1.441682,0.108606 0,2.3e-4 -0.0011,0 -0.0011,2.3e-4 -0.0096,0.005 -0.988208,0.497711 -1.754752,0.201009 C 9.670169,6.36957 9.42216,6.098587 9.257982,5.675035 9.202842,5.533031 9.045139,5.4635 8.904055,5.519214 8.764095,5.575414 8.69534,5.73585 8.750143,5.878085 c 0.22166,0.569053 0.582508,0.953731 1.073469,1.142982 0.244095,0.09388 0.497333,0.12966 0.741542,0.12966 0.75037,0 1.41491,-0.336231 1.450826,-0.355132 0.370871,-0.190474 0.697455,-0.224672 0.970121,-0.09909 0.427131,0.195351 0.659283,0.723169 0.749258,0.976719 -0.237064,0.04427 -0.418988,0.234182 -0.418988,0.472452 v 0.08413 L 3.875732,8.22993 C 3.392529,8.22993 3,8.62832 3,9.11823 v 6.571833 c 0,0.488859 0.392529,0.886934 0.87569,0.886934 H 18.125081 C 18.6079,16.576999 19,16.178954 19,15.690065 V 9.118232 C 19.000115,8.628346 18.608014,8.229814 18.125196,8.229814 Z m -4.40045,-0.08413 c 0,-0.04096 0.04855,-0.07599 0.105584,-0.07599 h 0.42713 c 0.05659,0 0.105138,0.03497 0.105138,0.07599 v 0.08413 h -0.637624 v -0.08413 z m 4.730463,7.544455 c 0,0.184252 -0.148109,0.333849 -0.330041,0.333849 H 3.876017 c -0.181926,0 -0.330355,-0.149702 -0.330355,-0.33385 L 3.545551,9.117893 c 0,-0.184817 0.148442,-0.335189 0.330355,-0.335189 h 14.249391 c 0.181927,0 0.330042,0.15039 0.330042,0.335189 z"
       id="path102-1-2-7-6-1-7"
       style="fill:#d6dbf1;fill-opacity:1;stroke-width:0.0287806" />
  </g>
  <g
     id="22-22-input-caps-on"
     transform="translate(-21,133.99965)">
    <rect
       y="0"
       x="0"
       height="22"
       width="22"
       id="rect964"
       style="opacity:0.00100002;fill-opacity:1;stroke:none;stroke-width:0.49066;stroke-linecap:round;stroke-linejoin:round;stroke-miterlimit:4;stroke-dasharray:none;stroke-opacity:1" />
    <path
       inkscape:connector-curvature="0"
       id="path880-8-6-2-6"
       d="m 4,4.33332 v 10.6666 c 0,0.66667 0.666663,1.33333 1.333325,1.66676 l 5.3333,2.33332 5.3333,-2.38275 c 0.666663,-0.284 1.333325,-0.95066 1.333325,-1.69683 v -10.5871 0 C 17.33325,3.66666 16.666588,3 15.999925,3 L 5.324269,3.0001 C 4.666663,3 4,3.66666 4,4.33332 Z M 4.666663,4.6304 c 0,-0.68556 0.267902,-0.96374 1.037098,-0.96374 l 9.951971,1e-4 c 0.662076,-1e-4 1.010856,0.31045 1.010856,0.984 v 0 8.34918 c 0,1.33332 0,1.33332 -1.390158,1.33341 l -9.276442,-9e-5 c -1.333325,0 -1.333325,0 -1.333325,-1.33332 z m 5.604131,1.03635 -2.937481,6.66662 h 0.867181 l 0.881508,-1.99998 h 3.148413 l 0.899735,1.99998 h 0.869788 L 10.999956,5.66675 Z m 0.368485,1.1302 1.291658,2.86977 H 9.374966 Z m -5.972616,8.20307 h 11.999925 c 0,0.66657 -0.666663,0.66657 -1.333325,0.66657 H 5.999988 c -0.666663,0 -1.333325,0 -1.333325,-0.66657 z"
       style="fill:#d6dbf1;fill-opacity:1;stroke:none;stroke-width:0.666663"
       sodipodi:nodetypes="ccccccccccccccccccccccccccccccccccccccc" />
  </g>
  <sodipodi:namedview
     pagecolor="#ffffff"
     bordercolor="#000000"
     borderopacity="1"
     objecttolerance="10"
     gridtolerance="10"
     guidetolerance="10"
     inkscape:pageopacity="0"
     inkscape:pageshadow="2"
     inkscape:window-width="1920"
     inkscape:window-height="1015"
     id="namedview49"
     showgrid="false"
     inkscape:zoom="2.32"
     inkscape:cx="45.689655"
     inkscape:cy="95.905172"
     inkscape:window-x="0"
     inkscape:window-y="0"
     inkscape:window-maximized="1"
     inkscape:current-layer="svg3869"
     inkscape:document-rotation="0"
     inkscape:lockguides="false"
     inkscape:showpageshadow="false"
     inkscape:pagecheckerboard="0"
     showguides="false">
    <inkscape:grid
       type="xygrid"
       id="grid874"
       originx="-38"
       originy="-32.000208" />
  </sodipodi:namedview>
  <metadata
     id="metadata25">
    <rdf:RDF>
      <cc:Work
         rdf:about="">
        <dc:format>image/svg+xml</dc:format>
        <dc:type
           rdf:resource="http://purl.org/dc/dcmitype/StillImage" />
      </cc:Work>
    </rdf:RDF>
  </metadata>
  <defs
     id="defs3871">
    <style
       type="text/css"
       id="current-color-scheme" />
    <linearGradient
       id="a"
       gradientUnits="userSpaceOnUse"
       x1="41"
       x2="23"
       y1="58"
       y2="6"
       gradientTransform="matrix(0.46153841,0,0,0.46153841,1.215575,1.2307666)">
      <stop
         offset="0"
         stop-color="#848f9a"
         id="stop2" />
      <stop
         offset=".33333299"
         stop-color="#bdc2c7"
         id="stop4" />
      <stop
         offset="1"
         stop-color="#f6f6f6"
         id="stop6" />
    </linearGradient>
    <linearGradient
       id="d"
       gradientUnits="userSpaceOnUse"
       x1="32"
       x2="32"
       y1="6"
       y2="28"
       gradientTransform="matrix(0.46153841,0,0,0.46153841,1.215575,1.2307666)">
      <stop
         offset="0"
         stop-color="#68737e"
         id="stop21" />
      <stop
         offset="1"
         stop-color="#7a8692"
         id="stop23" />
    </linearGradient>
    <linearGradient
       id="c"
       gradientTransform="matrix(-0.46153841,0,0,0.46153841,-10.322886,1.2307666)"
       gradientUnits="userSpaceOnUse"
       x1="-60"
       x2="-54"
       y1="22"
       y2="12">
      <stop
         offset="0"
         stop-color="#8e98a2"
         id="stop16" />
      <stop
         offset="1"
         stop-color="#6c7884"
         id="stop18" />
    </linearGradient>
    <linearGradient
       id="e"
       gradientTransform="matrix(-0.46153846,0,0,0.46153846,-10.322887,1.2307616)"
       gradientUnits="userSpaceOnUse"
       x1="-55"
       x2="-55"
       y1="22"
       y2="12">
      <stop
         offset="0"
         stop-color="#232629"
         id="stop26" />
      <stop
         offset=".333"
         stop-color="#373d43"
         id="stop28" />
      <stop
         offset=".667"
         stop-color="#565f68"
         id="stop30" />
      <stop
         offset="1"
         stop-color="#474e55"
         id="stop32" />
    </linearGradient>
    <linearGradient
       id="b"
       gradientTransform="matrix(-0.46153846,0,0,0.46153846,-10.322887,1.2307616)"
       gradientUnits="userSpaceOnUse"
       x1="-55"
       x2="-55"
       y1="12"
       y2="22">
      <stop
         offset="0"
         stop-color="#54b5e8"
         id="stop9" />
      <stop
         offset=".333"
         stop-color="#8fd9ff"
         id="stop11" />
      <stop
         offset="1"
         stop-color="#369acf"
         id="stop13" />
    </linearGradient>
    <linearGradient
       id="f"
       gradientUnits="userSpaceOnUse"
       x1="21.005859"
       x2="21"
       y1="21.005859"
       y2="58"
       gradientTransform="matrix(0.46153846,0,0,0.46153846,1.215574,1.2307616)">
      <stop
         offset="0"
         stop-color="#565f68"
         id="stop35" />
      <stop
         offset=".5945304"
         stop-color="#68737e"
         id="stop37" />
      <stop
         offset="1"
         stop-color="#424950"
         id="stop39" />
    </linearGradient>
    <linearGradient
       id="a-3"
       gradientUnits="userSpaceOnUse"
       x1="41"
       x2="23"
       y1="58"
       y2="6"
       gradientTransform="matrix(0.30769228,0,0,0.30769228,-18.922785,11.15386)">
      <stop
         offset="0"
         stop-color="#848f9a"
         id="stop2-6" />
      <stop
         offset=".33333299"
         stop-color="#bdc2c7"
         id="stop4-7" />
      <stop
         offset="1"
         stop-color="#f6f6f6"
         id="stop6-5" />
    </linearGradient>
    <linearGradient
       id="d-3"
       gradientUnits="userSpaceOnUse"
       x1="32"
       x2="32"
       y1="6"
       y2="28"
       gradientTransform="matrix(0.30769228,0,0,0.30769228,-18.922785,11.15386)">
      <stop
         offset="0"
         stop-color="#68737e"
         id="stop21-5" />
      <stop
         offset="1"
         stop-color="#7a8692"
         id="stop23-6" />
    </linearGradient>
    <linearGradient
       id="c-2"
       gradientTransform="matrix(-0.30769228,0,0,0.30769228,-26.615092,11.15386)"
       gradientUnits="userSpaceOnUse"
       x1="-60"
       x2="-54"
       y1="22"
       y2="12">
      <stop
         offset="0"
         stop-color="#8e98a2"
         id="stop16-9" />
      <stop
         offset="1"
         stop-color="#6c7884"
         id="stop18-1" />
    </linearGradient>
    <linearGradient
       id="e-2"
       gradientTransform="matrix(-0.30769232,0,0,0.30769232,-26.615093,11.153857)"
       gradientUnits="userSpaceOnUse"
       x1="-55"
       x2="-55"
       y1="22"
       y2="12">
      <stop
         offset="0"
         stop-color="#232629"
         id="stop26-7" />
      <stop
         offset=".333"
         stop-color="#373d43"
         id="stop28-0" />
      <stop
         offset=".667"
         stop-color="#565f68"
         id="stop30-9" />
      <stop
         offset="1"
         stop-color="#474e55"
         id="stop32-3" />
    </linearGradient>
    <linearGradient
       id="b-6"
       gradientTransform="matrix(-0.30769232,0,0,0.30769232,-26.615093,11.153857)"
       gradientUnits="userSpaceOnUse"
       x1="-55"
       x2="-55"
       y1="12"
       y2="22">
      <stop
         offset="0"
         stop-color="#54b5e8"
         id="stop9-0" />
      <stop
         offset=".333"
         stop-color="#8fd9ff"
         id="stop11-6" />
      <stop
         offset="1"
         stop-color="#369acf"
         id="stop13-2" />
    </linearGradient>
    <linearGradient
       id="f-6"
       gradientUnits="userSpaceOnUse"
       x1="21.005859"
       x2="21"
       y1="21.005859"
       y2="58"
       gradientTransform="matrix(0.30769232,0,0,0.30769232,-18.922785,11.153857)">
      <stop
         offset="0"
         stop-color="#565f68"
         id="stop35-1" />
      <stop
         offset=".5945304"
         stop-color="#68737e"
         id="stop37-8" />
      <stop
         offset="1"
         stop-color="#424950"
         id="stop39-7" />
    </linearGradient>
  </defs>
  <g
     id="16-16-input-mouse-battery"
     transform="translate(-341,-329.36219)">
    <path
       id="path4196"
       transform="translate(319,457.36217)"
       d="m -8,82 a 4,4 0 0 0 -4,4 v 4 a 4,4 0 0 0 4,4 4,4 0 0 0 4,-4 v -4 a 4,4 0 0 0 -4,-4 z m 0,1 a 3,3 0 0 1 3,3 v 4 a 3,3 0 0 1 -3,3 3,3 0 0 1 -3,-3 v -4 a 3,3 0 0 1 3,-3 z m 0,1 -2,5 h 2 v 3 l 2,-5 h -2 z"
       style="fill:#d6dbf1;fill-opacity:1;stroke:none"
       inkscape:connector-curvature="0" />
    <rect
       style="opacity:1;fill:none"
       id="rect4442"
       width="16"
       height="16"
       x="303"
       y="537.36218" />
  </g>
  <g
     id="input-mouse-battery"
     transform="translate(0,191.99996)">
    <rect
       style="fill:none"
       id="rect4378-6"
       width="32"
       height="32"
       x="0"
       y="0"
       ry="0" />
    <path
       d="m 15.523272,4.2305936 c 0,0 -0.37368,0.017672 -0.461528,0.023431 C 11.444329,4.491131 8.600198,7.24364 8.600198,10.923076 c 0,0 0.923074,3.384617 0.923074,5.076923 0,1.692311 -0.461528,3.377642 -0.461528,5.076925 0,3.835381 2.626148,6.692325 6.461528,6.692325 h 0.923077 c 3.835394,0 6.461543,-2.856944 6.461543,-6.692325 0,-1.699282 -0.461543,-3.384614 -0.461543,-5.076925 0,-1.692306 0.923082,-3.377637 0.923082,-5.076923 0,-3.679436 -2.847823,-6.3813605 -6.461539,-6.6690507 -0.101875,-0.00815 -0.461543,-0.023432 -0.461543,-0.023432 v 2.5386422 h -0.923077 z"
       fill="url(#a)"
       fill-rule="evenodd"
       id="path42"
       style="fill:url(#a);stroke-width:0.461549" />
    <path
       d="m 15.523272,4.0000056 c 0,0 -0.37368,0.017669 -0.461528,0.023428 -3.617415,0.2371068 -6.461546,3.2202044 -6.461546,6.8996394 0,0.09297 0.0064,0.185655 0.0092,0.278546 0.09329,-3.5941323 2.89584,-6.4835203 6.452537,-6.7166467 0.08783,-0.00583 0.461532,-0.023428 0.461532,-0.023428 h 0.92308 c 0,0 0.359666,0.015321 0.461536,0.023428 3.5533,0.2828783 6.359445,3.1247314 6.452515,6.7175477 0.0034,-0.09319 0.0093,-0.186175 0.0093,-0.279447 0,-3.6794349 -2.847817,-6.6119495 -6.461536,-6.8996393 -0.101877,-0.00815 -0.461539,-0.023429 -0.461539,-0.023429 z"
       fill="#c9cdd1"
       id="path44"
       style="stroke-width:0.461549" />
    <path
       d="m 15.523272,4.0000056 v 1.8461545 l -0.923073,0.9230754 v 4.6153855 l 0.461545,0.461539 v 1.846153 c 0,0.511385 0.411686,0.923076 0.923065,0.923076 0.51139,0 0.923083,-0.411691 0.923083,-0.923076 V 11.84616 L 17.36943,11.384621 V 6.7692355 L 16.446349,5.8461601 V 4.0000056 Z"
       fill="url(#d)"
       id="path46"
       style="fill:url(#d);stroke-width:0.461549" />
    <path
       d="M 8.6092,20.791194 C 8.6058,20.886464 8.6,20.981563 8.6,21.076926 c 0,3.835382 3.087686,6.923078 6.923066,6.923078 h 0.923124 c 3.835378,0 6.923065,-3.087696 6.923065,-6.923078 0,-0.09537 -0.0062,-0.190461 -0.0093,-0.285753 -0.0936,3.752634 -3.138076,6.747283 -6.914056,6.747283 H 15.52279 c -3.775994,0 -6.820466,-2.994649 -6.914067,-6.747283 z"
       fill="#7a8692"
       fill-rule="evenodd"
       id="path48"
       style="stroke-width:0.461549" />
    <path
       d="M 17.36943,6.7692355 V 11.384621 L 16.446349,10.461544 V 7.6923131 Z m -2.769231,0 0.923073,0.9230776 v 2.7692309 l -0.923073,0.923077 z"
       fill="url(#c)"
       id="path50"
       style="fill:url(#c);stroke-width:0.461549" />
    <rect
       fill="#2a2e32"
       height="1.3846154"
       rx="0.46153846"
       width="0.92307693"
       x="15.523266"
       y="12.307685"
       id="rect52"
       style="fill:#2a2e32;fill-opacity:1;fill-rule:evenodd;stroke-width:0.461538" />
    <path
       d="m 15.984805,6.7692231 c 0.172145,0 0.323888,0.029612 0.461538,0.070313 v 4.4747599 c -0.13765,0.0407 -0.289393,0.07031 -0.461538,0.07031 -0.172146,0 -0.323888,-0.02961 -0.461539,-0.07031 V 6.8395361 c 0.137651,-0.040701 0.289393,-0.070313 0.461539,-0.070313 z"
       fill="url(#e)"
       id="path54"
       style="fill:url(#e);fill-rule:evenodd;stroke-width:0.461538" />
    <path
       d="m 16.446343,6.8395357 c 0.271261,0.080208 0.461539,0.6831448 0.461539,0.8527643 v 2.769231 c 0,0.169619 -0.190278,0.772557 -0.461539,0.852764 z m -0.923077,0 V 11.314295 C 15.252005,11.234088 15.061728,10.63115 15.061728,10.461531 V 7.6923 c 0,-0.1696195 0.190277,-0.7725567 0.461538,-0.8527643 z"
       fill="url(#b)"
       id="path56"
       style="fill:url(#b);fill-rule:evenodd;stroke-width:0.461538" />
    <path
       d="m 8.600189,10.925773 c 4.62e-4,1.698363 0.461539,3.375835 0.461539,5.074219 0,1.698385 -0.461049,3.375857 -0.461539,5.074219 v 0.0027 c 0,3.643494 2.788313,6.606289 6.355168,6.894231 -2.799586,-0.282616 -4.970552,-2.633077 -4.970552,-5.509616 v -5.538457 c 0,-1.562058 -0.518363,-4.841363 -1.384616,-5.997296 z m 14.769231,0 c -0.86625,1.155933 -1.384615,4.435238 -1.384615,5.997296 v 5.538461 c 0,2.876539 -2.170966,5.227 -4.970553,5.509616 3.566856,-0.287942 6.355168,-3.250737 6.355168,-6.894231 v -0.0027 c -5.08e-4,-1.698343 -0.461538,-3.375815 -0.461538,-5.0742 0,-1.698384 0.461049,-3.375856 0.461538,-5.074219 z"
       fill="url(#f)"
       stroke-width="0.461536"
       id="path58"
       style="fill:url(#f);fill-rule:evenodd" />
  </g>
  <g
     id="22-22-input-mouse-battery"
     transform="translate(0,191.99996)">
    <rect
       style="fill:none"
       width="22"
       height="22"
       x="-22"
       y="10.000017"
       ry="0"
       id="rect8" />
    <path
       style="fill:#d6dbf1;fill-opacity:1;stroke:none"
       d="m -17,13.000034 -2,5 h 2 v 3 l 2,-5 h -2 z"
       id="path12"
       inkscape:connector-curvature="0" />
    <path
       d="m -9.384318,13.153735 c 0,0 -0.249119,0.01183 -0.307696,0.0156 -2.411603,0.158082 -4.307691,1.993083 -4.307691,4.446036 0,0 0.615388,2.256404 0.615388,3.384614 0,1.128213 -0.307698,2.251766 -0.307698,3.384616 0,2.556924 1.750776,4.461543 4.307697,4.461543 h 0.615381 c 2.556925,0 4.307698,-1.904619 4.307698,-4.461543 0,-1.13285 -0.307697,-2.256403 -0.307697,-3.384616 0,-1.12821 0.615388,-2.251753 0.615388,-3.384614 0,-2.452953 -1.898548,-4.254241 -4.307691,-4.446026 -0.06795,-0.0057 -0.307698,-0.01561 -0.307698,-0.01561 v 1.692436 h -0.615381 z"
       fill="url(#a)"
       fill-rule="evenodd"
       id="path42-9"
       style="fill:url(#a-3);stroke-width:0.307696" />
    <path
       d="m -9.384318,13.000014 c 0,0 -0.249119,0.01184 -0.307696,0.01565 -2.411603,0.158076 -4.307691,2.146816 -4.307691,4.59977 0,0.06195 0.0042,0.123765 0.0066,0.185688 0.06211,-2.396078 1.930562,-4.322334 4.301686,-4.477762 0.05851,-0.0038 0.307686,-0.01562 0.307686,-0.01562 h 0.615389 c 0,0 0.239782,0.01024 0.307694,0.01562 2.368862,0.188593 4.239625,2.08316 4.301683,4.478366 0.0026,-0.06205 0.0066,-0.124122 0.0066,-0.186291 0,-2.452955 -1.898544,-4.407964 -4.307694,-4.599765 -0.06792,-0.0057 -0.307683,-0.01564 -0.307683,-0.01564 z"
       fill="#c9cdd1"
       id="path44-2"
       style="stroke-width:0.307696" />
    <path
       d="m -9.384318,13.000014 v 1.23077 l -0.61539,0.615393 v 3.076916 l 0.307694,0.30769 v 1.230766 c 0,0.340932 0.274466,0.615386 0.615386,0.615386 0.34092,0 0.615389,-0.274454 0.615389,-0.615386 v -1.230766 l 0.307691,-0.30769 v -3.076916 l -0.615389,-0.615393 v -1.23077 z"
       fill="url(#d)"
       id="path46-0"
       style="fill:url(#d-3);stroke-width:0.307696" />
    <path
       d="M -13.9937,24.194135 C -13.9964,24.257665 -14,24.321051 -14,24.384622 c 0,2.556932 2.058468,4.615392 4.615395,4.615392 h 0.615372 c 2.556932,0 4.61539,-2.05846 4.61539,-4.615392 0,-0.06355 -0.0039,-0.126969 -0.0066,-0.190489 -0.0624,2.501754 -2.092049,4.498188 -4.609377,4.498188 h -0.615232 c -2.517323,0 -4.546974,-1.996434 -4.609375,-4.498188 z"
       fill="#7a8692"
       fill-rule="evenodd"
       id="path48-2"
       style="stroke-width:0.307696" />
    <path
       d="m -8.153548,14.846177 v 3.076916 l -0.615389,-0.615381 v -1.846166 z m -1.84616,0 0.61539,0.615369 v 1.846166 l -0.61539,0.615381 z"
       fill="url(#c)"
       id="path50-3"
       style="fill:url(#c-2);stroke-width:0.307696" />
    <rect
       fill="#2a2e32"
       height="0.92307699"
       rx="0.30769232"
       width="0.61538464"
       x="-9.3843231"
       y="18.538473"
       id="rect52-5"
       style="fill:#2a2e32;fill-opacity:1;fill-rule:evenodd;stroke-width:0.307692" />
    <path
       d="m -9.0766308,14.846165 c 0.1147637,0 0.2159253,0.01974 0.3076924,0.04687 v 2.983173 c -0.091767,0.02713 -0.1929287,0.04687 -0.3076924,0.04687 -0.1147637,0 -0.2159252,-0.01974 -0.3076923,-0.04687 V 14.89304 c 0.091767,-0.02713 0.1929286,-0.04687 0.3076923,-0.04687 z"
       fill="url(#e)"
       id="path54-9"
       style="fill:url(#e-2);fill-rule:evenodd;stroke-width:0.307692" />
    <path
       d="m -8.7689384,14.89304 c 0.1808406,0.05347 0.3076923,0.45543 0.3076923,0.568509 v 1.846154 c 0,0.11308 -0.1268517,0.515038 -0.3076923,0.56851 z m -0.6153847,0 v 2.983173 c -0.1808406,-0.05347 -0.3076923,-0.45543 -0.3076923,-0.56851 v -1.846154 c 0,-0.113079 0.1268517,-0.515037 0.3076923,-0.568509 z"
       fill="url(#b)"
       id="path56-2"
       style="fill:url(#b-6);fill-rule:evenodd;stroke-width:0.307692" />
    <path
       d="m -13.999708,17.617198 c 3.08e-4,1.132242 0.307692,2.250557 0.307692,3.382813 0,1.132257 -0.307366,2.250571 -0.307692,3.382813 v 0.0018 c 0,2.428996 1.858875,4.404192 4.2367791,4.596154 -1.8663911,-0.188411 -3.3137021,-1.755385 -3.3137021,-3.673077 v -3.692308 c 0,-1.041372 -0.345575,-3.227576 -0.923077,-3.998198 z m 9.8461544,0 c -0.5775001,0.770622 -0.923077,2.956826 -0.923077,3.998198 v 3.692308 c 0,1.917692 -1.4473108,3.484666 -3.313702,3.673077 2.3779041,-0.191962 4.236779,-2.167158 4.236779,-4.596154 v -0.0018 c -3.385e-4,-1.132229 -0.3076924,-2.250543 -0.3076924,-3.3828 0,-1.132256 0.3073662,-2.250571 0.3076924,-3.382813 z"
       fill="url(#f)"
       stroke-width="0.307691"
       id="path58-2"
       style="fill:url(#f-6);fill-rule:evenodd" />
  </g>
  <g
     id="input-keyboard">
    <rect
       style="fill:none;fill-rule:evenodd;stroke:none;stroke-width:1.45455px;stroke-linecap:butt;stroke-linejoin:miter;stroke-opacity:1"
       id="rect4196"
       width="32"
       height="32"
       x="0"
       y="-32" />
    <path
       d="m 23.124312,-18.105659 h -1.594603 c -0.184087,0 -0.332632,0.151076 -0.332632,0.336936 v 1.617921 c 0,0.186042 0.14854,0.337118 0.332632,0.337118 h 1.594603 c 0.183362,0 0.332083,-0.151076 0.332083,-0.337118 v -1.617921 c 0,-0.18586 -0.148721,-0.336936 -0.332083,-0.336936 z m -0.332085,1.617728 h -0.930416 v -0.943644 h 0.930416 z"
       id="path64"
       style="fill:#d6dbf1;fill-opacity:1;stroke-width:0.0467684" />
    <path
       d="m 23.124312,-14.926734 h -1.594603 c -0.184087,0 -0.332632,0.151076 -0.332632,0.336933 v 1.617914 c 0,0.186039 0.14854,0.337128 0.332632,0.337128 h 1.594603 c 0.183362,0 0.332083,-0.151089 0.332083,-0.337128 v -1.617914 c 0,-0.186232 -0.148721,-0.336933 -0.332083,-0.336933 z m -0.332085,1.617912 h -0.930416 v -0.943635 h 0.930416 z"
       id="path66"
       style="fill:#d6dbf1;fill-opacity:1;stroke-width:0.0467684" />
    <path
       d="m 23.124312,-11.749231 h -1.594603 c -0.184087,0 -0.332632,0.151079 -0.332632,0.337127 v 1.616775 c 0,0.186052 0.14854,0.336946 0.332632,0.336946 h 1.594603 c 0.183362,0 0.332083,-0.150711 0.332083,-0.336946 v -1.616775 c 0,-0.186048 -0.148721,-0.337127 -0.332083,-0.337127 z m -0.332085,1.617163 h -0.930416 v -0.942745 h 0.930416 z"
       id="path68"
       style="fill:#d6dbf1;fill-opacity:1;stroke-width:0.0467684" />
    <path
       d="m 26.264857,-18.105659 h -1.595114 c -0.184085,0 -0.33263,0.151076 -0.33263,0.336936 v 1.617921 c 0,0.186042 0.14854,0.337118 0.33263,0.337118 h 1.595114 c 0.183362,0 0.332631,-0.151076 0.332631,-0.337118 v -1.617921 c 1.86e-4,-0.18586 -0.14945,-0.336936 -0.332631,-0.336936 z m -0.331902,1.617728 h -0.93116 v -0.943644 h 0.930975 z"
       id="path70"
       style="fill:#d6dbf1;fill-opacity:1;stroke-width:0.0467684" />
    <path
       d="m 26.264857,-14.926734 h -1.595114 c -0.184085,0 -0.33263,0.151076 -0.33263,0.336933 v 1.617914 c 0,0.186039 0.14854,0.337128 0.33263,0.337128 h 1.595114 c 0.183362,0 0.332631,-0.151089 0.332631,-0.337128 v -1.617914 c 1.86e-4,-0.186232 -0.14945,-0.336933 -0.332631,-0.336933 z m -0.331902,1.617912 h -0.93116 v -0.943635 h 0.930975 z"
       id="path72"
       style="fill:#d6dbf1;fill-opacity:1;stroke-width:0.0467684" />
    <path
       d="m 26.264857,-11.749231 h -1.595114 c -0.184085,0 -0.33263,0.151079 -0.33263,0.337127 v 1.616775 c 0,0.186052 0.14854,0.336946 0.33263,0.336946 h 1.595114 c 0.183362,0 0.332631,-0.150711 0.332631,-0.336946 v -1.616775 c 1.86e-4,-0.186048 -0.14945,-0.337127 -0.332631,-0.337127 z m -0.331902,1.617163 h -0.93116 v -0.942745 h 0.930975 z"
       id="path74"
       style="fill:#d6dbf1;fill-opacity:1;stroke-width:0.0467684" />
    <path
       d="m 19.939656,-18.105659 h -1.595113 c -0.183363,0 -0.332084,0.151076 -0.332084,0.336936 v 1.617921 c 0,0.186042 0.14854,0.337118 0.332084,0.337118 h 1.595113 c 0.183363,0 0.332084,-0.151076 0.332084,-0.337118 v -1.617921 c 0,-0.18586 -0.14854,-0.336936 -0.332084,-0.336936 z m -0.332631,1.617728 h -0.929861 v -0.943644 h 0.929861 z"
       id="path76"
       style="fill:#d6dbf1;fill-opacity:1;stroke-width:0.0467684" />
    <path
       d="m 19.939656,-14.926734 h -1.595113 c -0.183363,0 -0.332084,0.151076 -0.332084,0.336933 v 1.617914 c 0,0.186039 0.14854,0.337128 0.332084,0.337128 h 1.595113 c 0.183363,0 0.332084,-0.151089 0.332084,-0.337128 v -1.617914 c 0,-0.186232 -0.14854,-0.336933 -0.332084,-0.336933 z m -0.332631,1.617912 h -0.929861 v -0.943635 h 0.929861 z"
       id="path78"
       style="fill:#d6dbf1;fill-opacity:1;stroke-width:0.0467684" />
    <path
       d="m 19.939656,-11.749231 h -1.595113 c -0.183363,0 -0.332084,0.151079 -0.332084,0.337127 v 1.616775 c 0,0.186052 0.14854,0.336946 0.332084,0.336946 h 1.595113 c 0.183363,0 0.332084,-0.150711 0.332084,-0.336946 v -1.616775 c 0,-0.186048 -0.14854,-0.337127 -0.332084,-0.337127 z m -0.332631,1.617163 h -0.929861 v -0.942745 h 0.929861 z"
       id="path80"
       style="fill:#d6dbf1;fill-opacity:1;stroke-width:0.0467684" />
    <path
       d="m 16.767538,-18.105659 h -1.59386 c -0.183363,0 -0.332084,0.151076 -0.332084,0.336936 v 1.617921 c 0,0.186042 0.14854,0.337118 0.332084,0.337118 h 1.59386 c 0.183362,0 0.332631,-0.151076 0.332631,-0.337118 v -1.617921 c 0,-0.18586 -0.149083,-0.336936 -0.332631,-0.336936 z m -0.332084,1.617728 H 15.50629 v -0.943644 h 0.929164 z"
       id="path82"
       style="fill:#d6dbf1;fill-opacity:1;stroke-width:0.0467684" />
    <path
       d="m 16.767538,-14.926734 h -1.59386 c -0.183363,0 -0.332084,0.151076 -0.332084,0.336933 v 1.617914 c 0,0.186039 0.14854,0.337128 0.332084,0.337128 h 1.59386 c 0.183362,0 0.332631,-0.151089 0.332631,-0.337128 v -1.617914 c 0,-0.186232 -0.149083,-0.336933 -0.332631,-0.336933 z m -0.332084,1.617912 H 15.50629 v -0.943635 h 0.929164 z"
       id="path84-3"
       style="fill:#d6dbf1;fill-opacity:1;stroke-width:0.0467684" />
    <path
       d="m 12.052539,-15.813329 h 1.595671 c 0.183362,0 0.332083,-0.151086 0.332083,-0.337128 v -1.617911 c 0,-0.186042 -0.14854,-0.336936 -0.332083,-0.336936 h -1.595671 c -0.183362,0 -0.332083,0.151076 -0.332083,0.336936 v 1.617911 c 0,0.186042 0.148902,0.337128 0.332083,0.337128 z m 0.332631,-1.618103 h 0.930975 v 0.943644 H 12.38517 Z"
       id="path86-6"
       style="fill:#d6dbf1;fill-opacity:1;stroke-width:0.0467684" />
    <path
       d="m 12.052539,-12.634882 h 1.595671 c 0.183362,0 0.332083,-0.151076 0.332083,-0.337118 v -1.617921 c 0,-0.186042 -0.14854,-0.336935 -0.332083,-0.336935 h -1.595671 c -0.183362,0 -0.332083,0.151076 -0.332083,0.336935 V -12.972 c 0,0.186042 0.148902,0.337118 0.332083,0.337118 z m 0.332631,-1.617911 h 0.930975 v 0.943636 H 12.38517 Z"
       id="path88-7"
       style="fill:#d6dbf1;fill-opacity:1;stroke-width:0.0467684" />
    <path
       d="m 8.8957419,-15.813329 h 1.5933031 c 0.183362,0 0.332631,-0.151086 0.332631,-0.337128 v -1.617911 c 0,-0.186042 -0.149264,-0.336936 -0.332631,-0.336936 H 8.8957419 c -0.1840869,0 -0.3326309,0.151076 -0.3326309,0.336936 v 1.617911 c 0,0.186042 0.148902,0.337128 0.3326309,0.337128 z m 0.332084,-1.618103 h 0.9291621 v 0.943644 H 9.2278259 Z"
       id="path90-5"
       style="fill:#d6dbf1;fill-opacity:1;stroke-width:0.0467684" />
    <path
       d="m 8.8957419,-12.634882 h 1.5933031 c 0.183362,0 0.332631,-0.151076 0.332631,-0.337118 v -1.617921 c 0,-0.186042 -0.149264,-0.336935 -0.332631,-0.336935 H 8.8957419 c -0.1840869,0 -0.3326309,0.151076 -0.3326309,0.336935 V -12.972 c 0,0.186042 0.148902,0.337118 0.3326309,0.337118 z m 0.332084,-1.617911 h 0.9291621 v 0.943636 l -0.9291621,1.92e-4 z"
       id="path92-3"
       style="fill:#d6dbf1;fill-opacity:1;stroke-width:0.0467684" />
    <path
       d="M 16.767538,-11.749231 H 8.8962069 c -0.1840869,0 -0.332632,0.151079 -0.332632,0.337127 v 1.616775 c 0,0.186052 0.1485401,0.336946 0.332632,0.336946 h 7.8713311 c 0.183362,0 0.332631,-0.150711 0.332631,-0.336946 v -1.616775 c 0,-0.186048 -0.149083,-0.337127 -0.332631,-0.337127 z m -0.332084,1.617163 H 9.2280769 v -0.942745 h 7.2073771 z"
       id="path94-5"
       style="fill:#d6dbf1;fill-opacity:1;stroke-width:0.0467684" />
    <path
       d="M 7.3310409,-18.105659 H 5.735185 c -0.183363,0 -0.332084,0.151076 -0.332084,0.336936 v 1.617921 c 0,0.186042 0.14854,0.337118 0.332084,0.337118 h 1.59567 c 0.1833629,0 0.3320839,-0.151076 0.3320839,-0.337118 v -1.617921 c 1.85e-4,-0.18586 -0.14854,-0.336936 -0.331903,-0.336936 z M 6.998409,-16.487931 H 6.067435 v -0.943644 h 0.930974 z"
       id="path96-6"
       style="fill:#d6dbf1;fill-opacity:1;stroke-width:0.0467684" />
    <path
       d="M 7.3310409,-14.926734 H 5.735185 c -0.183363,0 -0.332084,0.151076 -0.332084,0.336933 v 1.617914 c 0,0.186039 0.14854,0.337128 0.332084,0.337128 h 1.59567 c 0.1833629,0 0.3320839,-0.151089 0.3320839,-0.337128 v -1.617914 c 1.85e-4,-0.186232 -0.14854,-0.336933 -0.331903,-0.336933 z M 6.998409,-13.308822 H 6.067435 v -0.943635 h 0.930974 z"
       id="path98-2"
       style="fill:#d6dbf1;fill-opacity:1;stroke-width:0.0467684" />
    <path
       d="M 7.3310409,-11.749231 H 5.735185 c -0.183363,0 -0.332084,0.151079 -0.332084,0.337127 v 1.616775 c 0,0.186052 0.14854,0.336946 0.332084,0.336946 h 1.59567 c 0.1833629,0 0.3320839,-0.150711 0.3320839,-0.336946 v -1.616775 c 1.85e-4,-0.186048 -0.14854,-0.337127 -0.331903,-0.337127 z M 6.998409,-10.132068 H 6.067435 v -0.942745 h 0.930974 z"
       id="path100-9"
       style="fill:#d6dbf1;fill-opacity:1;stroke-width:0.0467684" />
    <path
       d="m 27.578836,-20.564285 h -5.450455 v -0.136721 c 0,-0.413862 -0.334443,-0.743623 -0.7583,-0.782626 -0.03827,-0.145191 -0.493136,-1.801548 -1.774334,-2.390037 -0.698637,-0.321665 -1.488138,-0.263141 -2.342734,0.176483 0,3.75e-4 -0.0018,0 -0.0018,3.75e-4 -0.0156,0.0081 -1.605838,0.808774 -2.851471,0.326637 -0.560785,-0.216784 -0.9638,-0.657129 -1.230589,-1.345396 -0.0896,-0.230755 -0.345869,-0.343743 -0.575132,-0.253208 -0.227434,0.09132 -0.33916,0.352032 -0.250106,0.583162 0.360197,0.924704 0.946575,1.549801 1.744387,1.857333 0.396654,0.152547 0.808166,0.210695 1.205005,0.210695 1.219353,0 2.299229,-0.546372 2.357592,-0.577085 0.602666,-0.30952 1.133364,-0.36509 1.576448,-0.16102 0.694087,0.317444 1.071334,1.175142 1.217543,1.587158 -0.385229,0.07194 -0.680855,0.380543 -0.680855,0.767731 v 0.136722 l -15.341039,1.93e-4 C 3.63786,-20.563889 3,-19.91651 3,-19.120411 V -8.441257 C 3,-7.646862 3.63786,-7 4.422996,-7 H 27.578257 C 28.362837,-7 29,-7.646809 29,-8.441257 v -10.679154 c 1.86e-4,-0.796059 -0.636977,-1.443671 -1.421557,-1.443671 z m -7.150733,-0.136721 c 0,-0.06656 0.0789,-0.123479 0.171574,-0.123479 h 0.694087 c 0.09195,0 0.17085,0.05683 0.17085,0.123479 v 0.136721 h -1.036139 v -0.136721 z m 7.687003,12.259669 c 0,0.299403 -0.240676,0.542506 -0.536317,0.542506 H 4.423528 c -0.295631,0 -0.536827,-0.243275 -0.536827,-0.542506 L 3.88652,-19.120969 c 0,-0.300326 0.241219,-0.544678 0.536827,-0.544678 h 23.155261 c 0.295631,0 0.536317,0.244382 0.536317,0.544678 z"
       id="path102-1"
       style="fill:#d6dbf1;fill-opacity:1;stroke-width:0.0467684" />
  </g>
  <g
     id="22-22-input-keyboard"
     transform="translate(-22,10)">
    <rect
       y="-32"
       x="0"
       height="22"
       width="22"
       id="rect4147"
       style="fill:none;fill-rule:evenodd;stroke:none;stroke-width:1px;stroke-linecap:butt;stroke-linejoin:miter;stroke-opacity:1" />
    <path
       d="M 15.384184,-22.257325 H 14.40289 c -0.113284,0 -0.204697,0.09297 -0.204697,0.207346 v 0.995643 c 0,0.114488 0.09141,0.207458 0.204697,0.207458 h 0.981294 c 0.112838,0 0.204359,-0.09297 0.204359,-0.207458 v -0.995643 c 0,-0.114376 -0.09152,-0.207346 -0.204359,-0.207346 z m -0.20436,0.995525 H 14.60726 v -0.580704 h 0.572564 z"
       id="path64-2-9"
       style="fill:#d6dbf1;fill-opacity:1;stroke-width:0.0287806" />
    <path
       d="M 15.384184,-20.301063 H 14.40289 c -0.113284,0 -0.204697,0.09297 -0.204697,0.207343 v 0.99564 c 0,0.114485 0.09141,0.207463 0.204697,0.207463 h 0.981294 c 0.112838,0 0.204359,-0.09298 0.204359,-0.207463 v -0.99564 c 0,-0.114604 -0.09152,-0.207343 -0.204359,-0.207343 z m -0.20436,0.995638 H 14.60726 v -0.580698 h 0.572564 z"
       id="path66-7-2"
       style="fill:#d6dbf1;fill-opacity:1;stroke-width:0.0287806" />
    <path
       d="M 15.384184,-18.345677 H 14.40289 c -0.113284,0 -0.204697,0.09297 -0.204697,0.207463 v 0.994939 c 0,0.114493 0.09141,0.207351 0.204697,0.207351 h 0.981294 c 0.112838,0 0.204359,-0.09274 0.204359,-0.207351 v -0.994939 c 0,-0.114491 -0.09152,-0.207463 -0.204359,-0.207463 z m -0.20436,0.995178 H 14.60726 v -0.580151 h 0.572564 z"
       id="path68-0-2"
       style="fill:#d6dbf1;fill-opacity:1;stroke-width:0.0287806" />
    <path
       d="m 17.316827,-22.257325 h -0.981609 c -0.113283,0 -0.204695,0.09297 -0.204695,0.207346 v 0.995643 c 0,0.114488 0.09141,0.207458 0.204695,0.207458 h 0.981609 c 0.112838,0 0.204696,-0.09297 0.204696,-0.207458 v -0.995643 c 1.15e-4,-0.114376 -0.09197,-0.207346 -0.204696,-0.207346 z M 17.11258,-21.2618 h -0.573022 v -0.580704 h 0.572908 z"
       id="path70-9-8"
       style="fill:#d6dbf1;fill-opacity:1;stroke-width:0.0287806" />
    <path
       d="m 17.316827,-20.301063 h -0.981609 c -0.113283,0 -0.204695,0.09297 -0.204695,0.207343 v 0.99564 c 0,0.114485 0.09141,0.207463 0.204695,0.207463 h 0.981609 c 0.112838,0 0.204696,-0.09298 0.204696,-0.207463 v -0.99564 c 1.15e-4,-0.114604 -0.09197,-0.207343 -0.204696,-0.207343 z m -0.204247,0.995638 h -0.573022 v -0.580698 h 0.572908 z"
       id="path72-3-9"
       style="fill:#d6dbf1;fill-opacity:1;stroke-width:0.0287806" />
    <path
       d="m 17.316827,-18.345677 h -0.981609 c -0.113283,0 -0.204695,0.09297 -0.204695,0.207463 v 0.994939 c 0,0.114493 0.09141,0.207351 0.204695,0.207351 h 0.981609 c 0.112838,0 0.204696,-0.09274 0.204696,-0.207351 v -0.994939 c 1.15e-4,-0.114491 -0.09197,-0.207463 -0.204696,-0.207463 z m -0.204247,0.995178 h -0.573022 v -0.580151 h 0.572908 z"
       id="path74-6-7"
       style="fill:#d6dbf1;fill-opacity:1;stroke-width:0.0287806" />
    <path
       d="m 13.424396,-22.257325 h -0.981608 c -0.112839,0 -0.20436,0.09297 -0.20436,0.207346 v 0.995643 c 0,0.114488 0.09141,0.207458 0.20436,0.207458 h 0.981608 c 0.112838,0 0.204359,-0.09297 0.204359,-0.207458 v -0.995643 c 0,-0.114376 -0.09141,-0.207346 -0.204359,-0.207346 z M 13.2197,-21.2618 h -0.572222 v -0.580704 H 13.2197 Z"
       id="path76-0-3"
       style="fill:#d6dbf1;fill-opacity:1;stroke-width:0.0287806" />
    <path
       d="m 13.424396,-20.301063 h -0.981608 c -0.112839,0 -0.20436,0.09297 -0.20436,0.207343 v 0.99564 c 0,0.114485 0.09141,0.207463 0.20436,0.207463 h 0.981608 c 0.112838,0 0.204359,-0.09298 0.204359,-0.207463 v -0.99564 c 0,-0.114604 -0.09141,-0.207343 -0.204359,-0.207343 z m -0.204696,0.995638 h -0.572222 v -0.580698 H 13.2197 Z"
       id="path78-6-6"
       style="fill:#d6dbf1;fill-opacity:1;stroke-width:0.0287806" />
    <path
       d="m 13.424396,-18.345677 h -0.981608 c -0.112839,0 -0.20436,0.09297 -0.20436,0.207463 v 0.994939 c 0,0.114493 0.09141,0.207351 0.20436,0.207351 h 0.981608 c 0.112838,0 0.204359,-0.09274 0.204359,-0.207351 v -0.994939 c 0,-0.114491 -0.09141,-0.207463 -0.204359,-0.207463 z M 13.2197,-17.350499 H 12.647478 V -17.93065 H 13.2197 Z"
       id="path80-2-1"
       style="fill:#d6dbf1;fill-opacity:1;stroke-width:0.0287806" />
    <path
       d="m 11.472323,-22.257325 h -0.980837 c -0.112839,0 -0.204359,0.09297 -0.204359,0.207346 v 0.995643 c 0,0.114488 0.09141,0.207458 0.204359,0.207458 h 0.980837 c 0.112838,0 0.204696,-0.09297 0.204696,-0.207458 v -0.995643 c 0,-0.114376 -0.09174,-0.207346 -0.204696,-0.207346 z M 11.267964,-21.2618 H 10.69617 v -0.580704 h 0.571794 z"
       id="path82-6-2"
       style="fill:#d6dbf1;fill-opacity:1;stroke-width:0.0287806" />
    <path
       d="m 11.472323,-20.301063 h -0.980837 c -0.112839,0 -0.204359,0.09297 -0.204359,0.207343 v 0.99564 c 0,0.114485 0.09141,0.207463 0.204359,0.207463 h 0.980837 c 0.112838,0 0.204696,-0.09298 0.204696,-0.207463 v -0.99564 c 0,-0.114604 -0.09174,-0.207343 -0.204696,-0.207343 z m -0.204359,0.995638 H 10.69617 v -0.580698 h 0.571794 z"
       id="path84-3-1-9"
       style="fill:#d6dbf1;fill-opacity:1;stroke-width:0.0287806" />
    <path
       d="m 8.570785,-20.84666 h 0.981952 c 0.112838,0 0.204358,-0.09298 0.204358,-0.207463 v -0.995638 c 0,-0.114487 -0.09141,-0.207345 -0.204358,-0.207345 H 8.570785 c -0.112838,0 -0.204359,0.09297 -0.204359,0.207345 v 0.995638 c 0,0.114487 0.09163,0.207463 0.204359,0.207463 z m 0.204696,-0.995756 h 0.572908 v 0.580704 H 8.775481 Z"
       id="path86-6-8-3"
       style="fill:#d6dbf1;fill-opacity:1;stroke-width:0.0287806" />
    <path
       d="m 8.570785,-18.890693 h 0.981952 c 0.112838,0 0.204358,-0.09297 0.204358,-0.207457 v -0.995644 c 0,-0.114487 -0.09141,-0.207344 -0.204358,-0.207344 H 8.570785 c -0.112838,0 -0.204359,0.09297 -0.204359,0.207344 v 0.995644 c 0,0.114487 0.09163,0.207457 0.204359,0.207457 z m 0.204696,-0.995637 h 0.572908 v 0.580699 H 8.775481 Z"
       id="path88-7-7-1"
       style="fill:#d6dbf1;fill-opacity:1;stroke-width:0.0287806" />
    <path
       d="m 6.628141,-20.84666 h 0.980494 c 0.112838,0 0.204696,-0.09298 0.204696,-0.207463 v -0.995638 c 0,-0.114487 -0.09185,-0.207345 -0.204696,-0.207345 H 6.628141 c -0.113284,0 -0.204696,0.09297 -0.204696,0.207345 v 0.995638 c 0,0.114487 0.09163,0.207463 0.204696,0.207463 z M 6.8325,-21.842416 h 0.571792 v 0.580704 H 6.8325 Z"
       id="path90-5-9-9"
       style="fill:#d6dbf1;fill-opacity:1;stroke-width:0.0287806" />
    <path
       d="m 6.628141,-18.890693 h 0.980494 c 0.112838,0 0.204696,-0.09297 0.204696,-0.207457 v -0.995644 c 0,-0.114487 -0.09185,-0.207344 -0.204696,-0.207344 H 6.628141 c -0.113284,0 -0.204696,0.09297 -0.204696,0.207344 v 0.995644 c 0,0.114487 0.09163,0.207457 0.204696,0.207457 z M 6.8325,-19.88633 h 0.571792 v 0.580699 l -0.571792,1.18e-4 z"
       id="path92-3-2-4"
       style="fill:#d6dbf1;fill-opacity:1;stroke-width:0.0287806" />
    <path
       d="M 11.472323,-18.345677 H 6.628427 c -0.113284,0 -0.204697,0.09297 -0.204697,0.207463 v 0.994939 c 0,0.114493 0.09141,0.207351 0.204697,0.207351 h 4.843896 c 0.112838,0 0.204696,-0.09274 0.204696,-0.207351 v -0.994939 c 0,-0.114491 -0.09174,-0.207463 -0.204696,-0.207463 z m -0.204359,0.995178 H 6.832655 v -0.580151 h 4.435309 z"
       id="path94-5-0-7"
       style="fill:#d6dbf1;fill-opacity:1;stroke-width:0.0287806" />
    <path
       d="M 5.665248,-22.257325 H 4.683183 c -0.112839,0 -0.20436,0.09297 -0.20436,0.207346 v 0.995643 c 0,0.114488 0.09141,0.207458 0.20436,0.207458 h 0.981951 c 0.112838,0 0.204359,-0.09297 0.204359,-0.207458 v -0.995643 c 1.14e-4,-0.114376 -0.09141,-0.207346 -0.204248,-0.207346 z M 5.460551,-21.2618 H 4.887644 v -0.580704 h 0.572907 z"
       id="path96-6-2-8"
       style="fill:#d6dbf1;fill-opacity:1;stroke-width:0.0287806" />
    <path
       d="M 5.665248,-20.301063 H 4.683183 c -0.112839,0 -0.20436,0.09297 -0.20436,0.207343 v 0.99564 c 0,0.114485 0.09141,0.207463 0.20436,0.207463 h 0.981951 c 0.112838,0 0.204359,-0.09298 0.204359,-0.207463 v -0.99564 c 1.14e-4,-0.114604 -0.09141,-0.207343 -0.204248,-0.207343 z m -0.204697,0.995638 H 4.887644 v -0.580698 h 0.572907 z"
       id="path98-2-3-4"
       style="fill:#d6dbf1;fill-opacity:1;stroke-width:0.0287806" />
    <path
       d="M 5.665248,-18.345677 H 4.683183 c -0.112839,0 -0.20436,0.09297 -0.20436,0.207463 v 0.994939 c 0,0.114493 0.09141,0.207351 0.20436,0.207351 h 0.981951 c 0.112838,0 0.204359,-0.09274 0.204359,-0.207351 v -0.994939 c 1.14e-4,-0.114491 -0.09141,-0.207463 -0.204248,-0.207463 z m -0.204697,0.995178 H 4.887644 v -0.580151 h 0.572907 z"
       id="path100-9-7-5"
       style="fill:#d6dbf1;fill-opacity:1;stroke-width:0.0287806" />
    <path
       d="m 18.12543,-23.770325 h -3.354127 v -0.08414 c 0,-0.254685 -0.205811,-0.457614 -0.466646,-0.481616 -0.02355,-0.08935 -0.303468,-1.108645 -1.091898,-1.470792 -0.42993,-0.197948 -0.915777,-0.161934 -1.441682,0.108605 0,2.3e-4 -0.0011,0 -0.0011,2.3e-4 -0.0096,0.005 -0.988208,0.497708 -1.754751,0.201008 -0.345099,-0.133406 -0.593108,-0.404387 -0.757286,-0.827936 -0.05514,-0.142003 -0.212842,-0.211534 -0.353927,-0.15582 -0.139959,0.0562 -0.208714,0.216635 -0.153911,0.358868 0.221659,0.569049 0.582507,0.953724 1.073468,1.142974 0.244095,0.09388 0.497333,0.129659 0.741542,0.129659 0.750371,0 1.41491,-0.336229 1.450826,-0.355129 0.370871,-0.190474 0.697455,-0.224671 0.970122,-0.09909 0.42713,0.19535 0.659282,0.723164 0.749257,0.976712 -0.237064,0.04427 -0.418988,0.234181 -0.418988,0.47245 v 0.08414 l -9.440639,1.19e-4 C 3.392529,-23.770083 3,-23.371696 3,-22.881789 v 6.571787 c 0,0.488858 0.392529,0.886927 0.87569,0.886927 h 14.249391 c 0.482811,2e-6 0.874911,-0.398034 0.874911,-0.886925 v -6.571787 c 1.14e-4,-0.489883 -0.391986,-0.888413 -0.874804,-0.888413 z m -4.400452,-0.08414 c 0,-0.04096 0.04855,-0.07599 0.105584,-0.07599 h 0.427131 c 0.05658,0 0.105138,0.03497 0.105138,0.07599 v 0.08414 h -0.637624 v -0.08414 z m 4.730464,7.544411 c 0,0.184248 -0.148108,0.33385 -0.330041,0.33385 H 3.876009 c -0.181927,0 -0.330355,-0.149707 -0.330355,-0.33385 l -1.11e-4,-6.572081 c 0,-0.184816 0.148442,-0.335186 0.330355,-0.335186 h 14.249391 c 0.181927,0 0.330041,0.150389 0.330041,0.335186 z"
       id="path102-1-5-0"
       style="fill:#d6dbf1;fill-opacity:1;stroke-width:0.0287806" />
  </g>
  <g
     id="22-22-input-num-on"
     transform="translate(-21,165.99966)">
    <rect
       style="opacity:0.00100002;fill-opacity:1;stroke:none;stroke-width:0.49066;stroke-linecap:round;stroke-linejoin:round;stroke-miterlimit:4;stroke-dasharray:none;stroke-opacity:1"
       id="rect972"
       width="22"
       height="22"
       x="0"
       y="0" />
    <path
       inkscape:connector-curvature="0"
       id="path896-7-7-5-1"
       d="m 4,4.33332 v 9.94864 c 0,1.38463 0.666663,2.0513 1.333326,2.36116 L 10.666628,19 15.99993,16.7036 c 0.666663,-0.37034 1.333326,-1.03701 1.333326,-2.41482 v -9.95546 0 C 17.333256,3.66666 16.666593,3 15.99993,3 l -10.671518,9e-5 C 4.666663,3 4,3.66666 4,4.33332 Z m 0.666663,0.26911 c 0,-0.67339 0.254974,-0.93577 0.927098,-0.93577 l 10.069489,9e-5 c 0.683947,-9e-5 1.003343,0.24059 1.003343,1.00713 v 8.32606 c 0,1.33333 0,1.33333 -1.355359,1.33342 h -9.32268 c -1.321891,-9e-5 -1.321891,-9e-5 -1.321891,-1.33342 z m 5.999965,1.06431 V 7.00007 H 9.333302 v 0.66666 h 1.333326 v 3.99998 H 9.333302 v 0.66666 h 3.333314 V 11.66671 H 11.333291 V 5.66674 Z m -5.999965,9.33328 h 11.99993 c 0,0.66657 -0.666663,0.66657 -1.333326,0.66657 H 5.999988 c -0.666662,0 -1.333325,0 -1.333325,-0.66657 z"
       style="fill:#d6dbf1;fill-opacity:1;stroke:none;stroke-width:0.666663"
       sodipodi:nodetypes="cccccccccccccccccccccccccccccccccccccc" />
  </g>
  <g
     id="22-22-input-keyboard-brightness"
     transform="translate(-21,69.99967)">
    <rect
       ry="0"
       y="0"
       x="0"
       height="22"
       width="22"
       style="fill:none"
       id="rect20" />
    <path
       inkscape:connector-curvature="0"
       id="path880-8-6-6-9"
       d="m 4,4.333325 v 10.6666 c 0,0.666663 0.666663,1.333326 1.333325,1.666757 l 5.333301,2.333319 5.333301,-2.382752 c 0.666663,-0.283998 1.333325,-0.950661 1.333325,-1.69683 v -10.587094 0 C 17.333252,3.666663 16.66659,3 15.999927,3 L 5.324272,3.0001 C 4.666663,3 4,3.666663 4,4.333325 Z m 0.666663,0.297072 c 0,-0.685556 0.267905,-0.963734 1.0371,-0.963734 l 9.951973,9.3e-5 c 0.662076,-9.3e-5 1.010854,0.310458 1.010854,0.984007 v 0 8.349175 c 0,1.333325 0,1.333325 -1.390159,1.333411 l -9.276443,-8.6e-5 c -1.333325,0 -1.333325,0 -1.333325,-1.333325 z m 5.604132,1.036353 -2.937482,6.666625 h 0.867181 l 0.881508,-1.999989 h 3.148415 l 0.899734,1.999989 h 0.869788 L 10.999957,5.66675 Z m 0.368485,1.1302 1.291658,2.869776 H 9.374967 Z M 4.666663,15.000025 H 16.66659 c 0,0.666563 -0.666663,0.666563 -1.333326,0.666563 H 5.999988 c -0.666663,0 -1.333325,0 -1.333325,-0.666563 z"
       style="fill:#d6dbf1;fill-opacity:1;stroke:none;stroke-width:0.666663"
       sodipodi:nodetypes="ccccccccccccccccccccccccccccccccccccccc" />
    <path
       style="fill:#d6dbf1;fill-opacity:1;stroke:none;stroke-width:0.399998"
       d="m 13.91836,4.312065 c -0.1108,0 -0.199999,0.0892 -0.199999,0.199999 v 0.399998 c 0,0.110799 0.0892,0.199998 0.199999,0.199998 0.110799,0 0.199998,-0.0892 0.199998,-0.199998 V 4.512064 c 0,-0.110799 -0.0892,-0.199999 -0.199998,-0.199999 z m -1.272646,0.527337 c -0.05113,0 -0.102233,0.0194 -0.141412,0.0586 -0.07835,0.07835 -0.07835,0.204465 0,0.282811 l 0.282811,0.282812 c 0.07835,0.07835 0.204466,0.07835 0.282818,0 0.07834,-0.07835 0.07834,-0.204472 0,-0.282812 L 12.787113,4.898002 c -0.03913,-0.03913 -0.09028,-0.0586 -0.141399,-0.0586 z m 2.545291,0 c -0.05113,0 -0.102226,0.0194 -0.141406,0.0586 l -0.282811,0.282811 c -0.07834,0.07834 -0.07834,0.204466 0,0.282812 0.07835,0.07835 0.204472,0.07835 0.282811,0 l 0.282819,-0.282812 c 0.07834,-0.07835 0.07834,-0.204465 0,-0.282811 -0.03913,-0.03913 -0.09029,-0.0586 -0.141413,-0.0586 z M 13.91836,5.512058 c -0.441824,0 -0.799995,0.358171 -0.799995,0.799995 0,0.441824 0.358171,0.799995 0.799995,0.799995 0.441824,0 0.799995,-0.358171 0.799995,-0.799995 0,-0.441824 -0.358171,-0.799995 -0.799995,-0.799995 z m 0,0.399998 v 0.799995 c -0.220912,0 -0.399998,-0.179086 -0.399998,-0.399998 0,-0.220912 0.179086,-0.399997 0.399998,-0.399997 z m -1.799989,0.199998 c -0.1108,0 -0.199999,0.0892 -0.199999,0.199999 0,0.1108 0.0892,0.199999 0.199999,0.199999 h 0.399997 c 0.1108,0 0.199999,-0.0892 0.199999,-0.199999 0,-0.110799 -0.0892,-0.199999 -0.199999,-0.199999 z m 3.19998,0 c -0.110799,0 -0.199999,0.0892 -0.199999,0.199999 0,0.1108 0.0892,0.199999 0.199999,0.199999 h 0.399998 c 0.110799,0 0.199998,-0.0892 0.199998,-0.199999 0,-0.110799 -0.0892,-0.199999 -0.199998,-0.199999 z m -2.389832,0.989834 c -0.05113,0 -0.102226,0.0194 -0.141406,0.0586 l -0.282811,0.282818 c -0.07835,0.07834 -0.07835,0.204459 0,0.282812 0.07835,0.07835 0.204472,0.07835 0.282811,0 l 0.282818,-0.282812 c 0.07834,-0.07835 0.07834,-0.204465 0,-0.282818 -0.03913,-0.03913 -0.09029,-0.0586 -0.141412,-0.0586 z m 1.979681,0 c -0.05113,0 -0.102232,0.0194 -0.141412,0.0586 -0.07834,0.07835 -0.07834,0.204472 0,0.282818 l 0.282811,0.282812 c 0.07835,0.07835 0.204466,0.07835 0.282819,0 0.07834,-0.07835 0.07834,-0.204472 0,-0.282812 L 15.049599,7.160488 c -0.03913,-0.03913 -0.09028,-0.0586 -0.141399,-0.0586 z m -0.98984,0.410158 c -0.1108,0 -0.199999,0.0892 -0.199999,0.199999 v 0.399997 c 0,0.1108 0.0892,0.199999 0.199999,0.199999 0.110799,0 0.199998,-0.0892 0.199998,-0.199999 V 7.712045 c 0,-0.1108 -0.0892,-0.199999 -0.199998,-0.199999 z"
       id="path4274-9-2-3-1"
       inkscape:connector-curvature="0" />
  </g>
  <g
     id="input-caps-on"
     transform="translate(1,123.99969)">
    <rect
       y="7.3486326e-08"
       x="0"
       height="32"
       width="32"
       id="rect978"
       style="opacity:0.00100002;fill-opacity:1;stroke:none;stroke-width:0.713687;stroke-linecap:round;stroke-linejoin:round;stroke-miterlimit:4;stroke-dasharray:none;stroke-opacity:1" />
    <path
       inkscape:connector-curvature="0"
       id="path880-8-6"
       d="m 6,6 v 16 c 0,1 1,2 2,2.50015 l 8.000002,3.5 8,-3.57415 c 1,-0.426 2,-1.426 2,-2.54526 V 6 6 c 0,-1 -1,-2 -2,-2 L 7.986416,4.00015 C 7,4 6,5 6,6 Z M 7,6.44561 C 7,5.41727 7.401856,5 8.555658,5 l 14.928054,1.4e-4 c 0.99312,-1.4e-4 1.51629,0.46569 1.51629,1.47602 v 0 V 19 c 0,2 0,2 -2.08525,2.00013 L 9,21 C 7,21 7,21 7,19 Z m 8.406252,1.55454 -4.40625,10 h 1.30078 l 1.32227,-3 h 4.72265 l 1.34961,3 h 1.30469 l -4.5,-10 z m 0.55273,1.69531 1.9375,4.30469 h -3.83398 z M 7,22.00015 h 18.000002 c 0,0.99985 -1,0.99985 -2,0.99985 H 9 C 8,23 7,23 7,22.00015 Z"
       style="fill:#d6dbf1;fill-opacity:1;stroke:none"
       sodipodi:nodetypes="ccccccccccccccccccccccccccccccccccccccc" />
  </g>
  <g
     id="input-keyboard-brightness"
     transform="translate(1,91.99967)">
    <rect
       ry="0"
       y="-31.999996"
       x="0"
       height="32"
       width="32"
       id="rect4266"
       style="fill:none" />
    <path
       inkscape:connector-curvature="0"
       id="path880-8-6-6"
       d="m 6,-25.999996 v 15.9999962 c 0,1 1,2 2,2.50015 l 8,3.5 8,-3.57415 c 1,-0.426 2,-1.426 2,-2.5452602 v -15.880736 0 c 0,-1 -1,-2 -2,-2 l -16.01358,1.5e-4 C 7,-27.999996 6,-26.999996 6,-25.999996 Z m 1,0.44561 c 0,-1.02834 0.40186,-1.44561 1.55566,-1.44561 l 14.92805,1.4e-4 c 0.99312,-1.4e-4 1.51629,0.46569 1.51629,1.47602 v 0 V -13 c 0,2 0,2 -2.08525,2.00013 L 9,-11 c -2,0 -2,0 -2,-2 z m 8.40625,1.55454 L 11,-13.99985 h 1.30078 l 1.32227,-3 h 4.72265 l 1.34961,3 H 21 l -4.5,-9.999996 z m 0.55273,1.695311 1.9375,4.304689 H 14.0625 Z M 7,-9.9998498 h 18 c 0,0.99985 -1,0.99985 -2,0.99985 H 9 c -1,0 -2,0 -2,-0.99985 z"
       style="fill:#d6dbf1;fill-opacity:1;stroke:none"
       sodipodi:nodetypes="ccccccccccccccccccccccccccccccccccccccc" />
    <path
       style="fill:#d6dbf1;fill-opacity:1;stroke:none;stroke-width:0.6"
       d="m 20.87763,-26.031886 c -0.1662,0 -0.3,0.1338 -0.3,0.3 v 0.6 c 0,0.1662 0.1338,0.3 0.3,0.3 0.1662,0 0.3,-0.1338 0.3,-0.3 v -0.6 c 0,-0.1662 -0.1338,-0.3 -0.3,-0.3 z m -1.90898,0.79101 c -0.0767,0 -0.15335,0.0291 -0.21212,0.0879 -0.11752,0.11752 -0.11752,0.3067 0,0.42422 l 0.42422,0.42422 c 0.11752,0.11752 0.3067,0.11752 0.42423,0 0.11751,-0.11752 0.11751,-0.30671 0,-0.42422 l -0.42423,-0.42422 c -0.0587,-0.0587 -0.13542,-0.0879 -0.2121,-0.0879 z m 3.81796,0 c -0.0767,0 -0.15334,0.0291 -0.21211,0.0879 l -0.42422,0.42422 c -0.11751,0.11751 -0.11751,0.3067 0,0.42422 0.11753,0.11752 0.30671,0.11752 0.42422,0 l 0.42423,-0.42422 c 0.11751,-0.11752 0.11751,-0.3067 0,-0.42422 -0.0587,-0.0587 -0.13543,-0.0879 -0.21212,-0.0879 z m -1.90898,1.00899 c -0.66274,0 -1.2,0.53726 -1.2,1.200001 0,0.66274 0.53726,1.199999 1.2,1.199999 0.66274,0 1.2,-0.537259 1.2,-1.199999 0,-0.662741 -0.53726,-1.200001 -1.2,-1.200001 z m 0,0.6 v 1.200001 c -0.33137,0 -0.6,-0.26863 -0.6,-0.6 0,-0.33137 0.26863,-0.600001 0.6,-0.600001 z m -2.7,0.300001 c -0.1662,0 -0.3,0.1338 -0.3,0.3 0,0.1662 0.1338,0.3 0.3,0.3 h 0.6 c 0.1662,0 0.3,-0.1338 0.3,-0.3 0,-0.1662 -0.1338,-0.3 -0.3,-0.3 z m 4.8,0 c -0.1662,0 -0.3,0.1338 -0.3,0.3 0,0.1662 0.1338,0.3 0.3,0.3 h 0.6 c 0.1662,0 0.3,-0.1338 0.3,-0.3 0,-0.1662 -0.1338,-0.3 -0.3,-0.3 z m -3.58477,1.484759 c -0.0767,0 -0.15334,0.0291 -0.21211,0.0879 l -0.42422,0.42423 c -0.11752,0.11751 -0.11752,0.30669 0,0.42422 0.11753,0.11752 0.30671,0.11752 0.42422,0 l 0.42423,-0.42422 c 0.11751,-0.11752 0.11751,-0.3067 0,-0.42423 -0.0587,-0.0587 -0.13543,-0.0879 -0.21212,-0.0879 z m 2.96954,0 c -0.0767,0 -0.15335,0.0291 -0.21212,0.0879 -0.11751,0.11753 -0.11751,0.30671 0,0.42423 l 0.42422,0.42422 c 0.11752,0.11752 0.3067,0.11752 0.42423,0 0.11751,-0.11753 0.11751,-0.30671 0,-0.42422 l -0.42423,-0.42423 c -0.0587,-0.0587 -0.13542,-0.0879 -0.2121,-0.0879 z m -1.48477,0.61524 c -0.1662,0 -0.3,0.1338 -0.3,0.3 v 0.6 c 0,0.1662 0.1338,0.3 0.3,0.3 0.1662,0 0.3,-0.1338 0.3,-0.3 v -0.6 c 0,-0.1662 -0.1338,-0.3 -0.3,-0.3 z"
       id="path4274-9-2-3"
       inkscape:connector-curvature="0" />
  </g>
  <g
     id="input-keyboard-battery"
     transform="translate(1,91.99967)">
    <rect
       style="fill:none"
       id="rect4378"
       width="32"
       height="32"
       x="0"
       y="-1.8530272e-07"
       ry="0" />
    <path
       inkscape:connector-curvature="0"
       id="path880-8-6-5"
       d="m 6,6 v 16 c 0,1 1,2 2,2.50015 l 8,3.5 8,-3.57415 C 25,24 26,23 26,21.88074 V 6 6 C 26,5 25,4 24,4 L 7.98642,4.00015 C 7,4 6,5 6,6 Z M 7,6.44561 C 7,5.41727 7.40186,5 8.55566,5 l 14.92805,1.4e-4 C 24.47683,5 25,5.46583 25,6.47616 v 0 V 19 c 0,2 0,2 -2.08525,2.00013 L 9,21 C 7,21 7,21 7,19 Z m 8.40625,1.55454 -4.40625,10 h 1.30078 l 1.32227,-3 h 4.72265 l 1.34961,3 H 21 l -4.5,-10 z m 0.55273,1.69531 1.9375,4.30469 H 14.0625 Z M 7,22.00015 H 25 C 25,23 24,23 23,23 H 9 C 8,23 7,23 7,22.00015 Z"
       style="fill:#d6dbf1;fill-opacity:1;stroke:none"
       sodipodi:nodetypes="ccccccccccccccccccccccccccccccccccccccc" />
    <path
       style="fill:#bf616a;fill-opacity:1;stroke:none"
       d="m 20.92789,5.53992 -2,5 h 2 v 3 l 2,-5 h -2 z"
       id="path12-2-5"
       inkscape:connector-curvature="0" />
  </g>
  <g
     id="22-22-input-keyboard-battery"
     transform="translate(-21,69.99967)">
    <rect
       style="fill:none"
       width="22"
       height="22"
       x="0"
       y="32"
       ry="0"
       id="rect15" />
    <path
       inkscape:connector-curvature="0"
       id="path880-8-6-5-7"
       d="m 4,36.333325 v 10.6666 c 0,0.666663 0.666663,1.333325 1.333325,1.666756 L 10.666625,51 l 5.3333,-2.382752 c 0.666663,-0.283998 1.333325,-0.95066 1.333325,-1.696829 v -10.587094 0 C 17.33325,35.666663 16.666588,35 15.999925,35 l -10.675653,1e-4 C 4.666663,35 4,35.666663 4,36.333325 Z m 0.666663,0.297071 c 0,-0.685555 0.267904,-0.963733 1.0371,-0.963733 l 9.951971,9.3e-5 c 0.662076,-9.3e-5 1.010854,0.310458 1.010854,0.984007 v 0 8.349174 c 0,1.333325 0,1.333325 -1.390158,1.333412 l -9.276442,-8.7e-5 c -1.333325,0 -1.333325,0 -1.333325,-1.333325 z m 5.604131,1.036354 -2.937481,6.666625 h 0.867181 l 0.881508,-1.999988 h 3.148413 l 0.899735,1.999988 h 0.869788 L 10.999956,37.66675 Z m 0.368485,1.1302 1.291658,2.869775 H 9.374966 Z m -5.972616,8.203075 h 11.999925 c 0,0.666563 -0.666663,0.666563 -1.333325,0.666563 H 5.999988 c -0.666663,0 -1.333325,0 -1.333325,-0.666563 z"
       style="fill:#d6dbf1;fill-opacity:1;stroke:none;stroke-width:0.666663"
       sodipodi:nodetypes="ccccccccccccccccccccccccccccccccccccccc" />
    <path
       style="fill:#bf616a;fill-opacity:1;stroke:none;stroke-width:0.666663"
       d="m 13.951864,36.026607 -1.333325,3.333312 h 1.333325 v 1.999988 l 1.333325,-3.333313 h -1.333325 z"
       id="path12-2-5-0"
       inkscape:connector-curvature="0" />
  </g>
  <g
     id="input-num-on"
     transform="translate(-21,165.99966)">
    <rect
       style="opacity:0.00100002;fill-opacity:1;stroke:none;stroke-width:0.713687;stroke-linecap:round;stroke-linejoin:round;stroke-miterlimit:4;stroke-dasharray:none;stroke-opacity:1"
       id="rect984"
       width="32"
       height="32"
       x="22"
       y="-9.9999981" />
    <path
       inkscape:connector-curvature="0"
       id="path896-7-7-5"
       d="M 28,-3.9 V 11.02304 C 28,13.1 29,14.1 30,14.5648 l 8,3.53534 8,-3.44462 C 47,14.1 48,13.1 48,11.03328 V -3.9 v 0 c 0,-1 -1,-2 -2,-2 l -16.00737,1.4e-4 C 29,-5.9 28,-4.9 28,-3.9 Z m 1,0.40366 C 29,-4.50643 29.382463,-4.9 30.390655,-4.9 l 15.104322,1.3e-4 C 46.520903,-4.9 47,-4.53898 47,-3.38916 V 9.1 c 0,2 0,2 -2.03305,2.00014 H 30.982849 C 29,11.1 29,11.1 29,9.1 Z m 9,1.59648 v 2 h -2 v 1 h 2 v 6 h -2 v 1 h 5 v -1 h -2 v -9 z m -9,14 H 47 C 47,13.1 46,13.1 45,13.1 H 31 c -1,0 -2,0 -2,-0.99986 z"
       style="fill:#d6dbf1;fill-opacity:1;stroke:none"
       sodipodi:nodetypes="cccccccccccccccccccccccccccccccccccccc" />
  </g>
  <g
     id="input-keyboard-virtual-on">
    <rect
       style="fill:none;fill-rule:evenodd;stroke:none;stroke-width:1.45455px;stroke-linecap:butt;stroke-linejoin:miter;stroke-opacity:1"
       id="rect4192"
       width="32"
       height="32"
       x="0"
       y="0" />
    <path
       id="path8-9"
       d="M 6.0000001,5.5 A 1.9999996,2.0039647 0 0 0 4,7.5039763 1.9999996,2.0039647 0 0 0 6.0000001,9.507953 1.9999996,2.0039647 0 0 0 8.0000002,7.5039763 1.9999996,2.0039647 0 0 0 6.0000001,5.5 Z"
       style="fill:#7b96b7;fill-opacity:1;stroke:none;stroke-width:1.16481"
       inkscape:connector-curvature="0" />
    <path
       d="m 23.124312,13.894341 h -1.594603 c -0.184087,0 -0.332632,0.151076 -0.332632,0.336936 v 1.617921 c 0,0.186042 0.14854,0.337118 0.332632,0.337118 h 1.594603 c 0.183362,0 0.332083,-0.151076 0.332083,-0.337118 v -1.617921 c 0,-0.18586 -0.148721,-0.336936 -0.332083,-0.336936 z m -0.332085,1.617728 h -0.930416 v -0.943644 h 0.930416 z"
       id="path64-3"
       style="fill:#d6dbf1;fill-opacity:1;stroke-width:0.0467684" />
    <path
       d="m 23.124312,17.073266 h -1.594603 c -0.184087,0 -0.332632,0.151076 -0.332632,0.336933 v 1.617914 c 0,0.186039 0.14854,0.337128 0.332632,0.337128 h 1.594603 c 0.183362,0 0.332083,-0.151089 0.332083,-0.337128 v -1.617914 c 0,-0.186232 -0.148721,-0.336933 -0.332083,-0.336933 z m -0.332085,1.617912 h -0.930416 v -0.943635 h 0.930416 z"
       id="path66-5"
       style="fill:#d6dbf1;fill-opacity:1;stroke-width:0.0467684" />
    <path
       d="m 23.124312,20.250769 h -1.594603 c -0.184087,0 -0.332632,0.151079 -0.332632,0.337127 v 1.616775 c 0,0.186052 0.14854,0.336946 0.332632,0.336946 h 1.594603 c 0.183362,0 0.332083,-0.150711 0.332083,-0.336946 v -1.616775 c 0,-0.186048 -0.148721,-0.337127 -0.332083,-0.337127 z m -0.332085,1.617163 h -0.930416 v -0.942745 h 0.930416 z"
       id="path68-6"
       style="fill:#d6dbf1;fill-opacity:1;stroke-width:0.0467684" />
    <path
       d="m 26.264857,13.894341 h -1.595114 c -0.184085,0 -0.33263,0.151076 -0.33263,0.336936 v 1.617921 c 0,0.186042 0.14854,0.337118 0.33263,0.337118 h 1.595114 c 0.183362,0 0.332631,-0.151076 0.332631,-0.337118 v -1.617921 c 1.86e-4,-0.18586 -0.14945,-0.336936 -0.332631,-0.336936 z m -0.331902,1.617728 h -0.93116 v -0.943644 h 0.930975 z"
       id="path70-2"
       style="fill:#d6dbf1;fill-opacity:1;stroke-width:0.0467684" />
    <path
       d="m 26.264857,17.073266 h -1.595114 c -0.184085,0 -0.33263,0.151076 -0.33263,0.336933 v 1.617914 c 0,0.186039 0.14854,0.337128 0.33263,0.337128 h 1.595114 c 0.183362,0 0.332631,-0.151089 0.332631,-0.337128 v -1.617914 c 1.86e-4,-0.186232 -0.14945,-0.336933 -0.332631,-0.336933 z m -0.331902,1.617912 h -0.93116 v -0.943635 h 0.930975 z"
       id="path72-9"
       style="fill:#d6dbf1;fill-opacity:1;stroke-width:0.0467684" />
    <path
       d="m 26.264857,20.250769 h -1.595114 c -0.184085,0 -0.33263,0.151079 -0.33263,0.337127 v 1.616775 c 0,0.186052 0.14854,0.336946 0.33263,0.336946 h 1.595114 c 0.183362,0 0.332631,-0.150711 0.332631,-0.336946 v -1.616775 c 1.86e-4,-0.186048 -0.14945,-0.337127 -0.332631,-0.337127 z m -0.331902,1.617163 h -0.93116 v -0.942745 h 0.930975 z"
       id="path74-1"
       style="fill:#d6dbf1;fill-opacity:1;stroke-width:0.0467684" />
    <path
       d="m 19.939656,13.894341 h -1.595113 c -0.183363,0 -0.332084,0.151076 -0.332084,0.336936 v 1.617921 c 0,0.186042 0.14854,0.337118 0.332084,0.337118 h 1.595113 c 0.183363,0 0.332084,-0.151076 0.332084,-0.337118 v -1.617921 c 0,-0.18586 -0.14854,-0.336936 -0.332084,-0.336936 z m -0.332631,1.617728 h -0.929861 v -0.943644 h 0.929861 z"
       id="path76-2"
       style="fill:#d6dbf1;fill-opacity:1;stroke-width:0.0467684" />
    <path
       d="m 19.939656,17.073266 h -1.595113 c -0.183363,0 -0.332084,0.151076 -0.332084,0.336933 v 1.617914 c 0,0.186039 0.14854,0.337128 0.332084,0.337128 h 1.595113 c 0.183363,0 0.332084,-0.151089 0.332084,-0.337128 v -1.617914 c 0,-0.186232 -0.14854,-0.336933 -0.332084,-0.336933 z m -0.332631,1.617912 h -0.929861 v -0.943635 h 0.929861 z"
       id="path78-7"
       style="fill:#d6dbf1;fill-opacity:1;stroke-width:0.0467684" />
    <path
       d="m 19.939656,20.250769 h -1.595113 c -0.183363,0 -0.332084,0.151079 -0.332084,0.337127 v 1.616775 c 0,0.186052 0.14854,0.336946 0.332084,0.336946 h 1.595113 c 0.183363,0 0.332084,-0.150711 0.332084,-0.336946 v -1.616775 c 0,-0.186048 -0.14854,-0.337127 -0.332084,-0.337127 z m -0.332631,1.617163 h -0.929861 v -0.942745 h 0.929861 z"
       id="path80-0"
       style="fill:#d6dbf1;fill-opacity:1;stroke-width:0.0467684" />
    <path
       d="m 16.767538,13.894341 h -1.59386 c -0.183363,0 -0.332084,0.151076 -0.332084,0.336936 v 1.617921 c 0,0.186042 0.14854,0.337118 0.332084,0.337118 h 1.59386 c 0.183362,0 0.332631,-0.151076 0.332631,-0.337118 v -1.617921 c 0,-0.18586 -0.149083,-0.336936 -0.332631,-0.336936 z m -0.332084,1.617728 H 15.50629 v -0.943644 h 0.929164 z"
       id="path82-9"
       style="fill:#d6dbf1;fill-opacity:1;stroke-width:0.0467684" />
    <path
       d="m 16.767538,17.073266 h -1.59386 c -0.183363,0 -0.332084,0.151076 -0.332084,0.336933 v 1.617914 c 0,0.186039 0.14854,0.337128 0.332084,0.337128 h 1.59386 c 0.183362,0 0.332631,-0.151089 0.332631,-0.337128 v -1.617914 c 0,-0.186232 -0.149083,-0.336933 -0.332631,-0.336933 z m -0.332084,1.617912 H 15.50629 v -0.943635 h 0.929164 z"
       id="path84-3-3"
       style="fill:#d6dbf1;fill-opacity:1;stroke-width:0.0467684" />
    <path
       d="m 12.052539,16.186671 h 1.595671 c 0.183362,0 0.332083,-0.151086 0.332083,-0.337128 v -1.617911 c 0,-0.186042 -0.14854,-0.336936 -0.332083,-0.336936 h -1.595671 c -0.183362,0 -0.332083,0.151076 -0.332083,0.336936 v 1.617911 c 0,0.186042 0.148902,0.337128 0.332083,0.337128 z m 0.332631,-1.618103 h 0.930975 v 0.943644 H 12.38517 Z"
       id="path86-6-6"
       style="fill:#d6dbf1;fill-opacity:1;stroke-width:0.0467684" />
    <path
       d="m 12.052539,19.365118 h 1.595671 c 0.183362,0 0.332083,-0.151076 0.332083,-0.337118 v -1.617921 c 0,-0.186042 -0.14854,-0.336935 -0.332083,-0.336935 h -1.595671 c -0.183362,0 -0.332083,0.151076 -0.332083,0.336935 V 19.028 c 0,0.186042 0.148902,0.337118 0.332083,0.337118 z m 0.332631,-1.617911 h 0.930975 v 0.943636 H 12.38517 Z"
       id="path88-7-0"
       style="fill:#d6dbf1;fill-opacity:1;stroke-width:0.0467684" />
    <path
       d="m 8.895742,16.186671 h 1.593303 c 0.183362,0 0.332631,-0.151086 0.332631,-0.337128 v -1.617911 c 0,-0.186042 -0.149264,-0.336936 -0.332631,-0.336936 H 8.895742 c -0.184087,0 -0.332631,0.151076 -0.332631,0.336936 v 1.617911 c 0,0.186042 0.148902,0.337128 0.332631,0.337128 z m 0.332084,-1.618103 h 0.929162 v 0.943644 H 9.227826 Z"
       id="path90-5-6"
       style="fill:#d6dbf1;fill-opacity:1;stroke-width:0.0467684" />
    <path
       d="m 8.895742,19.365118 h 1.593303 c 0.183362,0 0.332631,-0.151076 0.332631,-0.337118 v -1.617921 c 0,-0.186042 -0.149264,-0.336935 -0.332631,-0.336935 H 8.895742 c -0.184087,0 -0.332631,0.151076 -0.332631,0.336935 V 19.028 c 0,0.186042 0.148902,0.337118 0.332631,0.337118 z m 0.332084,-1.617911 h 0.929162 v 0.943636 l -0.929162,1.92e-4 z"
       id="path92-3-26"
       style="fill:#d6dbf1;fill-opacity:1;stroke-width:0.0467684" />
    <path
       d="M 16.767538,20.250769 H 8.896207 c -0.184087,0 -0.332632,0.151079 -0.332632,0.337127 v 1.616775 c 0,0.186052 0.14854,0.336946 0.332632,0.336946 h 7.871331 c 0.183362,0 0.332631,-0.150711 0.332631,-0.336946 v -1.616775 c 0,-0.186048 -0.149083,-0.337127 -0.332631,-0.337127 z m -0.332084,1.617163 H 9.228077 v -0.942745 h 7.207377 z"
       id="path94-5-1"
       style="fill:#d6dbf1;fill-opacity:1;stroke-width:0.0467684" />
    <path
       d="M 7.331041,13.894341 H 5.735185 c -0.183363,0 -0.332084,0.151076 -0.332084,0.336936 v 1.617921 c 0,0.186042 0.14854,0.337118 0.332084,0.337118 h 1.59567 c 0.183363,0 0.332084,-0.151076 0.332084,-0.337118 v -1.617921 c 1.85e-4,-0.18586 -0.14854,-0.336936 -0.331903,-0.336936 z M 6.998409,15.512069 H 6.067435 v -0.943644 h 0.930974 z"
       id="path96-6-8"
       style="fill:#d6dbf1;fill-opacity:1;stroke-width:0.0467684" />
    <path
       d="M 7.331041,17.073266 H 5.735185 c -0.183363,0 -0.332084,0.151076 -0.332084,0.336933 v 1.617914 c 0,0.186039 0.14854,0.337128 0.332084,0.337128 h 1.59567 c 0.183363,0 0.332084,-0.151089 0.332084,-0.337128 V 17.410199 C 7.663124,17.223967 7.514399,17.073266 7.331036,17.073266 Z M 6.998409,18.691178 H 6.067435 v -0.943635 h 0.930974 z"
       id="path98-2-7"
       style="fill:#d6dbf1;fill-opacity:1;stroke-width:0.0467684" />
    <path
       d="M 7.331041,20.250769 H 5.735185 c -0.183363,0 -0.332084,0.151079 -0.332084,0.337127 v 1.616775 c 0,0.186052 0.14854,0.336946 0.332084,0.336946 h 1.59567 c 0.183363,0 0.332084,-0.150711 0.332084,-0.336946 V 20.587896 C 7.663124,20.401848 7.514399,20.250769 7.331036,20.250769 Z M 6.998409,21.867932 H 6.067435 v -0.942745 h 0.930974 z"
       id="path100-9-9"
       style="fill:#d6dbf1;fill-opacity:1;stroke-width:0.0467684" />
    <path
       d="m 27.578836,11.435715 h -5.450455 v -0.136721 c 0,-0.413862 -0.334443,-0.743623 -0.7583,-0.782626 C 21.331811,10.371177 20.876945,8.71482 19.595747,8.126331 18.89711,7.804666 18.107609,7.86319 17.253013,8.302814 c 0,3.75e-4 -0.0018,0 -0.0018,3.75e-4 -0.0156,0.0081 -1.605838,0.808774 -2.851471,0.326637 -0.560785,-0.216784 -0.9638,-0.657129 -1.230589,-1.345396 -0.0896,-0.230755 -0.345869,-0.343743 -0.575132,-0.253208 -0.227434,0.09132 -0.33916,0.352032 -0.250106,0.583162 0.360197,0.924704 0.946575,1.549801 1.744387,1.857333 0.396654,0.152547 0.808166,0.210695 1.205005,0.210695 1.219353,0 2.299229,-0.546372 2.357592,-0.577085 0.602666,-0.30952 1.133364,-0.36509 1.576448,-0.16102 0.694087,0.317444 1.071334,1.175142 1.217543,1.587158 -0.385229,0.07194 -0.680855,0.380543 -0.680855,0.767731 v 0.136722 L 4.422996,11.436111 C 3.63786,11.436111 3,12.08349 3,12.879589 V 23.558743 C 3,24.353138 3.63786,25 4.422996,25 H 27.578257 C 28.362837,25 29,24.353191 29,23.558743 V 12.879589 c 1.86e-4,-0.796059 -0.636977,-1.443671 -1.421557,-1.443671 z m -7.150733,-0.136721 c 0,-0.06656 0.0789,-0.123479 0.171574,-0.123479 h 0.694087 c 0.09195,0 0.17085,0.05683 0.17085,0.123479 v 0.136721 h -1.036139 v -0.136721 z m 7.687003,12.259669 c 0,0.299403 -0.240676,0.542506 -0.536317,0.542506 H 4.423528 c -0.295631,0 -0.536827,-0.243275 -0.536827,-0.542506 L 3.88652,12.879031 c 0,-0.300326 0.241219,-0.544678 0.536827,-0.544678 h 23.155261 c 0.295631,0 0.536317,0.244382 0.536317,0.544678 z"
       id="path102-1-2"
       style="fill:#d6dbf1;fill-opacity:1;stroke-width:0.0467684" />
  </g>
  <g
     id="input-keyboard-virtual-off"
     transform="translate(0,32)">
    <rect
       style="fill:none;fill-rule:evenodd;stroke:none;stroke-width:1.45455px;stroke-linecap:butt;stroke-linejoin:miter;stroke-opacity:1"
       id="rect4176"
       width="32"
       height="32"
       x="0"
       y="0" />
    <path
       id="path8-9-0-8"
       d="M 6,5.5 A 1.9999996,2.0039647 0 0 0 4,7.503976 1.9999996,2.0039647 0 0 0 6,9.507953 1.9999996,2.0039647 0 0 0 8,7.503976 1.9999996,2.0039647 0 0 0 6,5.5 Z"
       style="fill:#bf616a;fill-opacity:1;stroke:none;stroke-width:1.16481"
       inkscape:connector-curvature="0" />
    <path
       d="m 23.124312,13.894341 h -1.594603 c -0.184087,0 -0.332632,0.151076 -0.332632,0.336936 v 1.617921 c 0,0.186042 0.14854,0.337118 0.332632,0.337118 h 1.594603 c 0.183362,0 0.332083,-0.151076 0.332083,-0.337118 v -1.617921 c 0,-0.18586 -0.148721,-0.336936 -0.332083,-0.336936 z m -0.332085,1.617728 h -0.930416 v -0.943644 h 0.930416 z"
       id="path64-3-2-4"
       style="fill:#d6dbf1;fill-opacity:1;stroke-width:0.0467684" />
    <path
       d="m 23.124312,17.073266 h -1.594603 c -0.184087,0 -0.332632,0.151076 -0.332632,0.336933 v 1.617914 c 0,0.186039 0.14854,0.337128 0.332632,0.337128 h 1.594603 c 0.183362,0 0.332083,-0.151089 0.332083,-0.337128 v -1.617914 c 0,-0.186232 -0.148721,-0.336933 -0.332083,-0.336933 z m -0.332085,1.617912 h -0.930416 v -0.943635 h 0.930416 z"
       id="path66-5-3-5"
       style="fill:#d6dbf1;fill-opacity:1;stroke-width:0.0467684" />
    <path
       d="m 23.124312,20.250769 h -1.594603 c -0.184087,0 -0.332632,0.151079 -0.332632,0.337127 v 1.616775 c 0,0.186052 0.14854,0.336946 0.332632,0.336946 h 1.594603 c 0.183362,0 0.332083,-0.150711 0.332083,-0.336946 v -1.616775 c 0,-0.186048 -0.148721,-0.337127 -0.332083,-0.337127 z m -0.332085,1.617163 h -0.930416 v -0.942745 h 0.930416 z"
       id="path68-6-7-0"
       style="fill:#d6dbf1;fill-opacity:1;stroke-width:0.0467684" />
    <path
       d="m 26.264857,13.894341 h -1.595114 c -0.184085,0 -0.33263,0.151076 -0.33263,0.336936 v 1.617921 c 0,0.186042 0.14854,0.337118 0.33263,0.337118 h 1.595114 c 0.183362,0 0.332631,-0.151076 0.332631,-0.337118 v -1.617921 c 1.86e-4,-0.18586 -0.14945,-0.336936 -0.332631,-0.336936 z m -0.331902,1.617728 h -0.93116 v -0.943644 h 0.930975 z"
       id="path70-2-5-3"
       style="fill:#d6dbf1;fill-opacity:1;stroke-width:0.0467684" />
    <path
       d="m 26.264857,17.073266 h -1.595114 c -0.184085,0 -0.33263,0.151076 -0.33263,0.336933 v 1.617914 c 0,0.186039 0.14854,0.337128 0.33263,0.337128 h 1.595114 c 0.183362,0 0.332631,-0.151089 0.332631,-0.337128 v -1.617914 c 1.86e-4,-0.186232 -0.14945,-0.336933 -0.332631,-0.336933 z m -0.331902,1.617912 h -0.93116 v -0.943635 h 0.930975 z"
       id="path72-9-9-6"
       style="fill:#d6dbf1;fill-opacity:1;stroke-width:0.0467684" />
    <path
       d="m 26.264857,20.250769 h -1.595114 c -0.184085,0 -0.33263,0.151079 -0.33263,0.337127 v 1.616775 c 0,0.186052 0.14854,0.336946 0.33263,0.336946 h 1.595114 c 0.183362,0 0.332631,-0.150711 0.332631,-0.336946 v -1.616775 c 1.86e-4,-0.186048 -0.14945,-0.337127 -0.332631,-0.337127 z m -0.331902,1.617163 h -0.93116 v -0.942745 h 0.930975 z"
       id="path74-1-2-1"
       style="fill:#d6dbf1;fill-opacity:1;stroke-width:0.0467684" />
    <path
       d="m 19.939656,13.894341 h -1.595113 c -0.183363,0 -0.332084,0.151076 -0.332084,0.336936 v 1.617921 c 0,0.186042 0.14854,0.337118 0.332084,0.337118 h 1.595113 c 0.183363,0 0.332084,-0.151076 0.332084,-0.337118 v -1.617921 c 0,-0.18586 -0.14854,-0.336936 -0.332084,-0.336936 z m -0.332631,1.617728 h -0.929861 v -0.943644 h 0.929861 z"
       id="path76-2-2-0"
       style="fill:#d6dbf1;fill-opacity:1;stroke-width:0.0467684" />
    <path
       d="m 19.939656,17.073266 h -1.595113 c -0.183363,0 -0.332084,0.151076 -0.332084,0.336933 v 1.617914 c 0,0.186039 0.14854,0.337128 0.332084,0.337128 h 1.595113 c 0.183363,0 0.332084,-0.151089 0.332084,-0.337128 v -1.617914 c 0,-0.186232 -0.14854,-0.336933 -0.332084,-0.336933 z m -0.332631,1.617912 h -0.929861 v -0.943635 h 0.929861 z"
       id="path78-7-8-6"
       style="fill:#d6dbf1;fill-opacity:1;stroke-width:0.0467684" />
    <path
       d="m 19.939656,20.250769 h -1.595113 c -0.183363,0 -0.332084,0.151079 -0.332084,0.337127 v 1.616775 c 0,0.186052 0.14854,0.336946 0.332084,0.336946 h 1.595113 c 0.183363,0 0.332084,-0.150711 0.332084,-0.336946 v -1.616775 c 0,-0.186048 -0.14854,-0.337127 -0.332084,-0.337127 z m -0.332631,1.617163 h -0.929861 v -0.942745 h 0.929861 z"
       id="path80-0-9-3"
       style="fill:#d6dbf1;fill-opacity:1;stroke-width:0.0467684" />
    <path
       d="m 16.767538,13.894341 h -1.59386 c -0.183363,0 -0.332084,0.151076 -0.332084,0.336936 v 1.617921 c 0,0.186042 0.14854,0.337118 0.332084,0.337118 h 1.59386 c 0.183362,0 0.332631,-0.151076 0.332631,-0.337118 v -1.617921 c 0,-0.18586 -0.149083,-0.336936 -0.332631,-0.336936 z m -0.332084,1.617728 H 15.50629 v -0.943644 h 0.929164 z"
       id="path82-9-7-2"
       style="fill:#d6dbf1;fill-opacity:1;stroke-width:0.0467684" />
    <path
       d="m 16.767538,17.073266 h -1.59386 c -0.183363,0 -0.332084,0.151076 -0.332084,0.336933 v 1.617914 c 0,0.186039 0.14854,0.337128 0.332084,0.337128 h 1.59386 c 0.183362,0 0.332631,-0.151089 0.332631,-0.337128 v -1.617914 c 0,-0.186232 -0.149083,-0.336933 -0.332631,-0.336933 z m -0.332084,1.617912 H 15.50629 v -0.943635 h 0.929164 z"
       id="path84-3-3-3-0"
       style="fill:#d6dbf1;fill-opacity:1;stroke-width:0.0467684" />
    <path
       d="m 12.052539,16.186671 h 1.595671 c 0.183362,0 0.332083,-0.151086 0.332083,-0.337128 v -1.617911 c 0,-0.186042 -0.14854,-0.336936 -0.332083,-0.336936 h -1.595671 c -0.183362,0 -0.332083,0.151076 -0.332083,0.336936 v 1.617911 c 0,0.186042 0.148902,0.337128 0.332083,0.337128 z m 0.332631,-1.618103 h 0.930975 v 0.943644 H 12.38517 Z"
       id="path86-6-6-6-6"
       style="fill:#d6dbf1;fill-opacity:1;stroke-width:0.0467684" />
    <path
       d="m 12.052539,19.365118 h 1.595671 c 0.183362,0 0.332083,-0.151076 0.332083,-0.337118 v -1.617921 c 0,-0.186042 -0.14854,-0.336935 -0.332083,-0.336935 h -1.595671 c -0.183362,0 -0.332083,0.151076 -0.332083,0.336935 V 19.028 c 0,0.186042 0.148902,0.337118 0.332083,0.337118 z m 0.332631,-1.617911 h 0.930975 v 0.943636 H 12.38517 Z"
       id="path88-7-0-1-1"
       style="fill:#d6dbf1;fill-opacity:1;stroke-width:0.0467684" />
    <path
       d="m 8.895742,16.186671 h 1.593303 c 0.183362,0 0.332631,-0.151086 0.332631,-0.337128 v -1.617911 c 0,-0.186042 -0.149264,-0.336936 -0.332631,-0.336936 H 8.895742 c -0.184087,0 -0.332631,0.151076 -0.332631,0.336936 v 1.617911 c 0,0.186042 0.148902,0.337128 0.332631,0.337128 z m 0.332084,-1.618103 h 0.929162 v 0.943644 H 9.227826 Z"
       id="path90-5-6-2-5"
       style="fill:#d6dbf1;fill-opacity:1;stroke-width:0.0467684" />
    <path
       d="m 8.895742,19.365118 h 1.593303 c 0.183362,0 0.332631,-0.151076 0.332631,-0.337118 v -1.617921 c 0,-0.186042 -0.149264,-0.336935 -0.332631,-0.336935 H 8.895742 c -0.184087,0 -0.332631,0.151076 -0.332631,0.336935 V 19.028 c 0,0.186042 0.148902,0.337118 0.332631,0.337118 z m 0.332084,-1.617911 h 0.929162 v 0.943636 l -0.929162,1.92e-4 z"
       id="path92-3-26-9-5"
       style="fill:#d6dbf1;fill-opacity:1;stroke-width:0.0467684" />
    <path
       d="M 16.767538,20.250769 H 8.896207 c -0.184087,0 -0.332632,0.151079 -0.332632,0.337127 v 1.616775 c 0,0.186052 0.14854,0.336946 0.332632,0.336946 h 7.871331 c 0.183362,0 0.332631,-0.150711 0.332631,-0.336946 v -1.616775 c 0,-0.186048 -0.149083,-0.337127 -0.332631,-0.337127 z m -0.332084,1.617163 H 9.228077 v -0.942745 h 7.207377 z"
       id="path94-5-1-3-4"
       style="fill:#d6dbf1;fill-opacity:1;stroke-width:0.0467684" />
    <path
       d="M 7.331041,13.894341 H 5.735185 c -0.183363,0 -0.332084,0.151076 -0.332084,0.336936 v 1.617921 c 0,0.186042 0.14854,0.337118 0.332084,0.337118 h 1.59567 c 0.183363,0 0.332084,-0.151076 0.332084,-0.337118 v -1.617921 c 1.85e-4,-0.18586 -0.14854,-0.336936 -0.331903,-0.336936 z M 6.998409,15.512069 H 6.067435 v -0.943644 h 0.930974 z"
       id="path96-6-8-1-7"
       style="fill:#d6dbf1;fill-opacity:1;stroke-width:0.0467684" />
    <path
       d="M 7.331041,17.073266 H 5.735185 c -0.183363,0 -0.332084,0.151076 -0.332084,0.336933 v 1.617914 c 0,0.186039 0.14854,0.337128 0.332084,0.337128 h 1.59567 c 0.183363,0 0.332084,-0.151089 0.332084,-0.337128 V 17.410199 C 7.663124,17.223967 7.514399,17.073266 7.331036,17.073266 Z M 6.998409,18.691178 H 6.067435 v -0.943635 h 0.930974 z"
       id="path98-2-7-9-6"
       style="fill:#d6dbf1;fill-opacity:1;stroke-width:0.0467684" />
    <path
       d="M 7.331041,20.250769 H 5.735185 c -0.183363,0 -0.332084,0.151079 -0.332084,0.337127 v 1.616775 c 0,0.186052 0.14854,0.336946 0.332084,0.336946 h 1.59567 c 0.183363,0 0.332084,-0.150711 0.332084,-0.336946 V 20.587896 C 7.663124,20.401848 7.514399,20.250769 7.331036,20.250769 Z M 6.998409,21.867932 H 6.067435 v -0.942745 h 0.930974 z"
       id="path100-9-9-4-5"
       style="fill:#d6dbf1;fill-opacity:1;stroke-width:0.0467684" />
    <path
       d="m 27.578836,11.435715 h -5.450455 v -0.136721 c 0,-0.413862 -0.334443,-0.743623 -0.7583,-0.782626 C 21.331811,10.371177 20.876945,8.71482 19.595747,8.126331 18.89711,7.804666 18.107609,7.86319 17.253013,8.302814 c 0,3.75e-4 -0.0018,0 -0.0018,3.75e-4 -0.0156,0.0081 -1.605838,0.808774 -2.851471,0.326637 -0.560785,-0.216784 -0.9638,-0.657129 -1.230589,-1.345396 -0.0896,-0.230755 -0.345869,-0.343743 -0.575132,-0.253208 -0.227434,0.09132 -0.33916,0.352032 -0.250106,0.583162 0.360197,0.924704 0.946575,1.549801 1.744387,1.857333 0.396654,0.152547 0.808166,0.210695 1.205005,0.210695 1.219353,0 2.299229,-0.546372 2.357592,-0.577085 0.602666,-0.30952 1.133364,-0.36509 1.576448,-0.16102 0.694087,0.317444 1.071334,1.175142 1.217543,1.587158 -0.385229,0.07194 -0.680855,0.380543 -0.680855,0.767731 v 0.136722 L 4.422996,11.436111 C 3.63786,11.436111 3,12.08349 3,12.879589 V 23.558743 C 3,24.353138 3.63786,25 4.422996,25 H 27.578257 C 28.362837,25 29,24.353191 29,23.558743 V 12.879589 c 1.86e-4,-0.796059 -0.636977,-1.443671 -1.421557,-1.443671 z m -7.150733,-0.136721 c 0,-0.06656 0.0789,-0.123479 0.171574,-0.123479 h 0.694087 c 0.09195,0 0.17085,0.05683 0.17085,0.123479 v 0.136721 h -1.036139 v -0.136721 z m 7.687003,12.259669 c 0,0.299403 -0.240676,0.542506 -0.536317,0.542506 H 4.423528 c -0.295631,0 -0.536827,-0.243275 -0.536827,-0.542506 L 3.88652,12.879031 c 0,-0.300326 0.241219,-0.544678 0.536827,-0.544678 h 23.155261 c 0.295631,0 0.536317,0.244382 0.536317,0.544678 z"
       id="path102-1-2-7-6"
       style="fill:#d6dbf1;fill-opacity:1;stroke-width:0.0467684" />
  </g>
  <g
     id="22-22-input-keyboard-virtual-off"
     transform="translate(-22,42)">
    <rect
       style="fill:none;fill-opacity:1;stroke:none;stroke-linejoin:bevel"
       id="rect4172"
       width="22"
       height="22"
       x="0"
       y="0" />
    <path
       id="path8-9-0-8-9"
       d="M 5.084615,4.000001 A 1.3846151,1.3873602 0 0 0 3.7,5.387369 1.3846151,1.3873602 0 0 0 5.084615,6.774738 1.3846151,1.3873602 0 0 0 6.46923,5.387369 1.3846151,1.3873602 0 0 0 5.084615,4.000001 Z"
       style="fill:#bf616a;fill-opacity:1;stroke:none;stroke-width:0.806407"
       inkscape:connector-curvature="0" />
    <path
       d="m 15.384192,9.7426986 h -0.981294 c -0.113285,0 -0.204697,0.092972 -0.204697,0.2073458 V 10.9457 c 0,0.114482 0.09141,0.207456 0.204697,0.207456 h 0.981294 c 0.112838,0 0.204359,-0.09297 0.204359,-0.207456 V 9.9500444 c 0,-0.1143722 -0.09152,-0.2073458 -0.204359,-0.2073458 z m -0.20436,0.9955364 h -0.572564 v -0.580714 h 0.572564 z"
       id="path64-3-2-4-3"
       style="fill:#d6dbf1;fill-opacity:1;stroke-width:0.0287806" />
    <path
       d="m 15.384192,11.698969 h -0.981294 c -0.113285,0 -0.204697,0.09297 -0.204697,0.207348 v 0.995647 c 0,0.114486 0.09141,0.207465 0.204697,0.207465 h 0.981294 c 0.112838,0 0.204359,-0.09298 0.204359,-0.207465 v -0.995647 c 0,-0.114604 -0.09152,-0.207348 -0.204359,-0.207348 z m -0.20436,0.995651 h -0.572564 v -0.580708 h 0.572564 z"
       id="path66-5-3-5-7"
       style="fill:#d6dbf1;fill-opacity:1;stroke-width:0.0287806" />
    <path
       d="m 15.384192,13.654372 h -0.981294 c -0.113285,0 -0.204697,0.09297 -0.204697,0.207467 v 0.994943 c 0,0.114496 0.09141,0.207355 0.204697,0.207355 h 0.981294 c 0.112838,0 0.204359,-0.09274 0.204359,-0.207355 v -0.994943 c 0,-0.114495 -0.09152,-0.207467 -0.204359,-0.207467 z m -0.20436,0.995183 h -0.572564 v -0.580149 h 0.572564 z"
       id="path68-6-7-0-4"
       style="fill:#d6dbf1;fill-opacity:1;stroke-width:0.0287806" />
    <path
       d="m 17.316835,9.7426986 h -0.981608 c -0.113284,0 -0.204696,0.092972 -0.204696,0.2073458 V 10.9457 c 0,0.114482 0.09141,0.207456 0.204696,0.207456 h 0.981608 c 0.112838,0 0.204696,-0.09297 0.204696,-0.207456 V 9.9500444 c 1.14e-4,-0.1143722 -0.09197,-0.2073458 -0.204696,-0.2073458 z m -0.204247,0.9955364 h -0.573022 v -0.580714 h 0.572908 z"
       id="path70-2-5-3-5"
       style="fill:#d6dbf1;fill-opacity:1;stroke-width:0.0287806" />
    <path
       d="m 17.316835,11.698969 h -0.981608 c -0.113284,0 -0.204696,0.09297 -0.204696,0.207348 v 0.995647 c 0,0.114486 0.09141,0.207465 0.204696,0.207465 h 0.981608 c 0.112838,0 0.204696,-0.09298 0.204696,-0.207465 v -0.995647 c 1.14e-4,-0.114604 -0.09197,-0.207348 -0.204696,-0.207348 z m -0.204247,0.995651 h -0.573022 v -0.580708 h 0.572908 z"
       id="path72-9-9-6-2"
       style="fill:#d6dbf1;fill-opacity:1;stroke-width:0.0287806" />
    <path
       d="m 17.316835,13.654372 h -0.981608 c -0.113284,0 -0.204696,0.09297 -0.204696,0.207467 v 0.994943 c 0,0.114496 0.09141,0.207355 0.204696,0.207355 h 0.981608 c 0.112838,0 0.204696,-0.09274 0.204696,-0.207355 v -0.994943 c 1.14e-4,-0.114495 -0.09197,-0.207467 -0.204696,-0.207467 z m -0.204247,0.995183 h -0.573022 v -0.580149 h 0.572908 z"
       id="path74-1-2-1-5"
       style="fill:#d6dbf1;fill-opacity:1;stroke-width:0.0287806" />
    <path
       d="m 13.424404,9.7426986 h -0.981608 c -0.112839,0 -0.20436,0.092972 -0.20436,0.2073458 V 10.9457 c 0,0.114482 0.09141,0.207456 0.20436,0.207456 h 0.981608 c 0.112839,0 0.204359,-0.09297 0.204359,-0.207456 V 9.9500444 c 0,-0.1143722 -0.09141,-0.2073458 -0.204359,-0.2073458 z m -0.204696,0.9955364 h -0.572223 v -0.580714 h 0.572223 z"
       id="path76-2-2-0-4"
       style="fill:#d6dbf1;fill-opacity:1;stroke-width:0.0287806" />
    <path
       d="m 13.424404,11.698969 h -0.981608 c -0.112839,0 -0.20436,0.09297 -0.20436,0.207348 v 0.995647 c 0,0.114486 0.09141,0.207465 0.20436,0.207465 h 0.981608 c 0.112839,0 0.204359,-0.09298 0.204359,-0.207465 v -0.995647 c 0,-0.114604 -0.09141,-0.207348 -0.204359,-0.207348 z m -0.204696,0.995651 h -0.572223 v -0.580708 h 0.572223 z"
       id="path78-7-8-6-7"
       style="fill:#d6dbf1;fill-opacity:1;stroke-width:0.0287806" />
    <path
       d="m 13.424404,13.654372 h -0.981608 c -0.112839,0 -0.20436,0.09297 -0.20436,0.207467 v 0.994943 c 0,0.114496 0.09141,0.207355 0.20436,0.207355 h 0.981608 c 0.112839,0 0.204359,-0.09274 0.204359,-0.207355 v -0.994943 c 0,-0.114495 -0.09141,-0.207467 -0.204359,-0.207467 z m -0.204696,0.995183 h -0.572223 v -0.580149 h 0.572223 z"
       id="path80-0-9-3-4"
       style="fill:#d6dbf1;fill-opacity:1;stroke-width:0.0287806" />
    <path
       d="m 11.472331,9.7426986 h -0.980837 c -0.112839,0 -0.204359,0.092972 -0.204359,0.2073458 V 10.9457 c 0,0.114482 0.09141,0.207456 0.204359,0.207456 h 0.980837 c 0.112838,0 0.204696,-0.09297 0.204696,-0.207456 V 9.9500444 c 0,-0.1143722 -0.09174,-0.2073458 -0.204696,-0.2073458 z m -0.204359,0.9955364 h -0.571793 v -0.580714 h 0.571793 z"
       id="path82-9-7-2-4"
       style="fill:#d6dbf1;fill-opacity:1;stroke-width:0.0287806" />
    <path
       d="m 11.472331,11.698969 h -0.980837 c -0.112839,0 -0.204359,0.09297 -0.204359,0.207348 v 0.995647 c 0,0.114486 0.09141,0.207465 0.204359,0.207465 h 0.980837 c 0.112838,0 0.204696,-0.09298 0.204696,-0.207465 v -0.995647 c 0,-0.114604 -0.09174,-0.207348 -0.204696,-0.207348 z m -0.204359,0.995651 h -0.571793 v -0.580708 h 0.571793 z"
       id="path84-3-3-3-0-3"
       style="fill:#d6dbf1;fill-opacity:1;stroke-width:0.0287806" />
    <path
       d="m 8.5707929,11.153375 h 0.981952 c 0.1128382,0 0.2043582,-0.09298 0.2043582,-0.207464 V 9.9502628 c 0,-0.1144844 -0.091409,-0.2073457 -0.2043582,-0.2073457 h -0.981952 c -0.1128382,0 -0.2043582,0.092972 -0.2043582,0.2073457 v 0.9956482 c 0,0.114482 0.091632,0.207464 0.2043582,0.207464 z m 0.204696,-0.995768 H 9.3483973 V 10.73832 H 8.7754889 Z"
       id="path86-6-6-6-6-0"
       style="fill:#d6dbf1;fill-opacity:1;stroke-width:0.0287806" />
    <path
       d="m 8.5707929,13.109356 h 0.981952 c 0.1128382,0 0.2043582,-0.09297 0.2043582,-0.207457 v -0.995656 c 0,-0.114482 -0.091409,-0.207344 -0.2043582,-0.207344 h -0.981952 c -0.1128382,0 -0.2043582,0.09297 -0.2043582,0.207344 v 0.995656 c 0,0.114482 0.091632,0.207457 0.2043582,0.207457 z m 0.204696,-0.995649 h 0.5729084 v 0.580708 H 8.7754889 Z"
       id="path88-7-0-1-1-7"
       style="fill:#d6dbf1;fill-opacity:1;stroke-width:0.0287806" />
    <path
       d="m 6.6281493,11.153375 h 0.9804934 c 0.1128382,0 0.204696,-0.09298 0.204696,-0.207464 V 9.9502628 c 0,-0.1144844 -0.091854,-0.2073457 -0.204696,-0.2073457 H 6.6281493 c -0.1132844,0 -0.204696,0.092972 -0.204696,0.2073457 v 0.9956482 c 0,0.114482 0.091632,0.207464 0.204696,0.207464 z m 0.2043591,-0.995768 h 0.571792 v 0.580713 h -0.571792 z"
       id="path90-5-6-2-5-8"
       style="fill:#d6dbf1;fill-opacity:1;stroke-width:0.0287806" />
    <path
       d="m 6.6281493,13.109356 h 0.9804934 c 0.1128382,0 0.204696,-0.09297 0.204696,-0.207457 v -0.995656 c 0,-0.114482 -0.091854,-0.207344 -0.204696,-0.207344 H 6.6281493 c -0.1132844,0 -0.204696,0.09297 -0.204696,0.207344 v 0.995656 c 0,0.114482 0.091632,0.207457 0.204696,0.207457 z m 0.2043591,-0.995649 h 0.571792 v 0.580708 l -0.571792,1.2e-4 z"
       id="path92-3-26-9-5-6"
       style="fill:#d6dbf1;fill-opacity:1;stroke-width:0.0287806" />
    <path
       d="M 11.472331,13.654372 H 6.6284347 c -0.1132836,0 -0.204696,0.09297 -0.204696,0.207467 v 0.994943 c 0,0.114496 0.091409,0.207355 0.204696,0.207355 h 4.8438963 c 0.112838,0 0.204696,-0.09274 0.204696,-0.207355 v -0.994943 c 0,-0.114495 -0.09174,-0.207467 -0.204696,-0.207467 z m -0.204359,0.995183 H 6.8326631 v -0.580149 h 4.4353089 z"
       id="path94-5-1-3-4-8"
       style="fill:#d6dbf1;fill-opacity:1;stroke-width:0.0287806" />
    <path
       d="M 5.665256,9.7426986 H 4.6831911 c -0.1128391,0 -0.20436,0.092972 -0.20436,0.2073458 V 10.9457 c 0,0.114482 0.09141,0.207456 0.20436,0.207456 h 0.9819502 c 0.1128391,0 0.20436,-0.09297 0.20436,-0.207456 V 9.9500444 C 5.8696151,9.8356722 5.7780913,9.7426986 5.6652533,9.7426986 Z M 5.4605591,10.738235 H 4.8876524 v -0.580714 h 0.5729067 z"
       id="path96-6-8-1-7-8"
       style="fill:#d6dbf1;fill-opacity:1;stroke-width:0.0287806" />
    <path
       d="M 5.665256,11.698969 H 4.6831911 c -0.1128391,0 -0.20436,0.09297 -0.20436,0.207348 v 0.995647 c 0,0.114486 0.09141,0.207465 0.20436,0.207465 h 0.9819502 c 0.1128391,0 0.20436,-0.09298 0.20436,-0.207465 v -0.995647 c 1.138e-4,-0.114604 -0.09141,-0.207348 -0.204248,-0.207348 z M 5.4605591,12.69462 H 4.8876524 v -0.580708 h 0.5729067 z"
       id="path98-2-7-9-6-4"
       style="fill:#d6dbf1;fill-opacity:1;stroke-width:0.0287806" />
    <path
       d="M 5.665256,13.654372 H 4.6831911 c -0.1128391,0 -0.20436,0.09297 -0.20436,0.207467 v 0.994943 c 0,0.114496 0.09141,0.207355 0.20436,0.207355 h 0.9819502 c 0.1128391,0 0.20436,-0.09274 0.20436,-0.207355 v -0.994943 c 1.138e-4,-0.114495 -0.09141,-0.207467 -0.204248,-0.207467 z M 5.4605591,14.649555 H 4.8876524 v -0.580149 h 0.5729067 z"
       id="path100-9-9-4-5-3"
       style="fill:#d6dbf1;fill-opacity:1;stroke-width:0.0287806" />
    <path
       d="m 18.125437,8.2296893 h -3.354126 v -0.084131 c 0,-0.2546862 -0.205811,-0.4576173 -0.466646,-0.4816192 -0.02355,-0.089346 -0.303468,-1.1086524 -1.091898,-1.4708023 -0.42993,-0.197949 -0.915777,-0.1619336 -1.441682,0.108606 0,2.299e-4 -0.0011,0 -0.0011,2.299e-4 -0.0096,0.00498 -0.988208,0.4977109 -1.754752,0.2010097 C 9.6701689,6.3695702 9.42216,6.0985867 9.2579822,5.6750352 9.2028444,5.533031 9.0451395,5.4634998 8.9040551,5.5192135 c -0.13996,0.056198 -0.2087147,0.2166367 -0.153912,0.3588715 0.2216596,0.5690527 0.5825076,0.9537305 1.0734693,1.1429817 0.2440946,0.093876 0.4973326,0.12966 0.7415416,0.12966 0.75037,0 1.41491,-0.3362308 1.450826,-0.3551317 0.370871,-0.1904745 0.697455,-0.2246724 0.970121,-0.099089 0.427131,0.1953513 0.659283,0.7231691 0.749258,0.9767191 -0.237064,0.044272 -0.418988,0.2341822 -0.418988,0.4724522 v 0.084132 l -9.4406394,1.24e-4 C 3.3925289,8.2299329 3,8.6283231 3,9.1182331 V 15.690066 C 3,16.178925 3.3925289,16.577 3.8756898,16.577 H 18.125081 C 18.6079,16.577 19,16.178955 19,15.690066 V 9.1182331 C 19.000115,8.6283472 18.608014,8.2298147 18.125196,8.2298147 Z m -4.40045,-0.084131 c 0,-0.040957 0.04855,-0.075992 0.105584,-0.075992 h 0.42713 c 0.05659,0 0.105138,0.034965 0.105138,0.075992 v 0.084131 h -0.637624 v -0.084131 z m 4.730463,7.5444547 c 0,0.184252 -0.148109,0.333849 -0.330041,0.333849 H 3.8760169 c -0.1819262,0 -0.3303547,-0.149702 -0.3303547,-0.33385 L 3.5455511,9.1178927 c 0,-0.1848172 0.1484418,-0.3351889 0.3303547,-0.3351889 H 18.125297 c 0.181927,0 0.330042,0.1503903 0.330042,0.3351889 z"
       id="path102-1-2-7-6-1"
       style="fill:#d6dbf1;fill-opacity:1;stroke-width:0.0287806" />
  </g>
</svg>
