<?xml version="1.0" encoding="UTF-8" standalone="no"?>
<svg
   width="32"
   height="32"
   id="svg3869"
   version="1.1"
   viewBox="0 0 32 32.000001"
   sodipodi:docname="input.svg"
   inkscape:version="1.1.2 (0a00cf5339, 2022-02-04)"
   xmlns:inkscape="http://www.inkscape.org/namespaces/inkscape"
   xmlns:sodipodi="http://sodipodi.sourceforge.net/DTD/sodipodi-0.dtd"
   xmlns="http://www.w3.org/2000/svg"
   xmlns:svg="http://www.w3.org/2000/svg"
   xmlns:rdf="http://www.w3.org/1999/02/22-rdf-syntax-ns#"
   xmlns:cc="http://creativecommons.org/ns#"
   xmlns:dc="http://purl.org/dc/elements/1.1/">
  <g
     id="input-keyboard"
     transform="translate(0,-32)">
    <rect
       style="fill:none;fill-rule:evenodd;stroke:none;stroke-width:1.45455px;stroke-linecap:butt;stroke-linejoin:miter;stroke-opacity:1"
       id="rect4196"
       width="32"
       height="32"
       x="0"
       y="0" />
    <path
       d="M 26.706264,12.999819 H 25.293901 C 25.131621,12.999819 25,13.13165 25,13.293832 v 1.411808 c 0,0.162338 0.131461,0.294179 0.293901,0.294179 h 1.412198 C 26.868379,14.999819 27,14.867978 27,14.70564 v -1.411808 c 1.63e-4,-0.162508 -0.131461,-0.294013 -0.293741,-0.294013 z m -0.294386,0.588384 z"
       id="path98-2-5-3-5"
       style="fill:#d6dbf1;fill-opacity:1;stroke-width:0.0410998"
       sodipodi:nodetypes="csssssscccccccc" />
    <path
       d="M 22.706264,12.999819 H 21.293901 C 21.131621,12.999819 21,13.13165 21,13.293832 v 1.411808 c 0,0.162338 0.131461,0.294179 0.293901,0.294179 h 1.412198 C 22.868379,14.999819 23,14.867978 23,14.70564 v -1.411808 c 1.63e-4,-0.162508 -0.131461,-0.294013 -0.293741,-0.294013 z m -0.294386,0.588384 z"
       id="path98-2-5-6"
       style="fill:#d6dbf1;fill-opacity:1;stroke-width:0.0410998"
       sodipodi:nodetypes="csssssscccccccc" />
    <path
       d="M 18.706264,12.999819 H 17.293901 C 17.131621,12.999819 17,13.13165 17,13.293832 v 1.411808 c 0,0.162338 0.131461,0.294179 0.293901,0.294179 h 1.412198 C 18.868379,14.999819 19,14.867978 19,14.70564 v -1.411808 c 1.63e-4,-0.162508 -0.131461,-0.294013 -0.293741,-0.294013 z m -0.294386,0.588384 z"
       id="path98-2-7-2"
       style="fill:#d6dbf1;fill-opacity:1;stroke-width:0.0410998"
       sodipodi:nodetypes="csssssscccccccc" />
    <path
       d="M 14.706264,12.999819 H 13.293901 C 13.131621,12.999819 13,13.13165 13,13.293832 v 1.411808 c 0,0.162338 0.131461,0.294179 0.293901,0.294179 h 1.412198 C 14.868379,14.999819 15,14.867978 15,14.70564 v -1.411808 c 1.64e-4,-0.162508 -0.131461,-0.294013 -0.293741,-0.294013 z m -0.294386,0.588384 z"
       id="path98-2-6-9"
       style="fill:#d6dbf1;fill-opacity:1;stroke-width:0.0410998"
       sodipodi:nodetypes="csssssscccccccc" />
    <path
       d="M 10.706264,12.999819 H 9.293901 C 9.131621,12.999819 9,13.13165 9,13.293832 v 1.411808 c 0,0.162338 0.131461,0.294179 0.293901,0.294179 h 1.412198 C 10.868379,14.999819 11,14.867978 11,14.70564 v -1.411808 c 1.63e-4,-0.162508 -0.131461,-0.294013 -0.293741,-0.294013 z m -0.294386,0.588384 z"
       id="path98-2-3-1"
       style="fill:#d6dbf1;fill-opacity:1;stroke-width:0.0410998"
       sodipodi:nodetypes="csssssscccccccc" />
    <path
       d="M 6.706264,12.999819 H 5.293901 C 5.131621,12.999819 5,13.13165 5,13.293832 v 1.411808 c 0,0.162338 0.131461,0.294179 0.293901,0.294179 H 6.706099 C 6.868379,14.999819 7,14.867978 7,14.70564 V 13.293832 C 7.000163,13.131324 6.868539,12.999819 6.706259,12.999819 Z m -0.294386,0.588384 z"
       id="path98-2-2"
       style="fill:#d6dbf1;fill-opacity:1;stroke-width:0.0410998"
       sodipodi:nodetypes="csssssscccccccc" />
    <path
       d="M 26.706264,16.999819 H 25.293901 C 25.131621,16.999819 25,17.13165 25,17.293832 v 1.411808 c 0,0.162338 0.131461,0.294179 0.293901,0.294179 h 1.412198 C 26.868379,18.999819 27,18.867978 27,18.70564 v -1.411808 c 1.63e-4,-0.162508 -0.131461,-0.294013 -0.293741,-0.294013 z m -0.294386,0.588384 z"
       id="path98-2-5-3"
       style="fill:#d6dbf1;fill-opacity:1;stroke-width:0.0410998"
       sodipodi:nodetypes="csssssscccccccc" />
    <path
       d="M 22.706264,16.999819 H 21.293901 C 21.131621,16.999819 21,17.13165 21,17.293832 v 1.411808 c 0,0.162338 0.131461,0.294179 0.293901,0.294179 h 1.412198 C 22.868379,18.999819 23,18.867978 23,18.70564 v -1.411808 c 1.63e-4,-0.162508 -0.131461,-0.294013 -0.293741,-0.294013 z m -0.294386,0.588384 z"
       id="path98-2-5"
       style="fill:#d6dbf1;fill-opacity:1;stroke-width:0.0410998"
       sodipodi:nodetypes="csssssscccccccc" />
    <path
       d="M 18.706264,16.999819 H 17.293901 C 17.131621,16.999819 17,17.13165 17,17.293832 v 1.411808 c 0,0.162338 0.131461,0.294179 0.293901,0.294179 h 1.412198 C 18.868379,18.999819 19,18.867978 19,18.70564 v -1.411808 c 1.63e-4,-0.162508 -0.131461,-0.294013 -0.293741,-0.294013 z m -0.294386,0.588384 z"
       id="path98-2-7"
       style="fill:#d6dbf1;fill-opacity:1;stroke-width:0.0410998"
       sodipodi:nodetypes="csssssscccccccc" />
    <path
       d="M 14.706264,16.999819 H 13.293901 C 13.131621,16.999819 13,17.13165 13,17.293832 v 1.411808 c 0,0.162338 0.131461,0.294179 0.293901,0.294179 h 1.412198 C 14.868379,18.999819 15,18.867978 15,18.70564 v -1.411808 c 1.64e-4,-0.162508 -0.131461,-0.294013 -0.293741,-0.294013 z m -0.294386,0.588384 z"
       id="path98-2-6"
       style="fill:#d6dbf1;fill-opacity:1;stroke-width:0.0410998"
       sodipodi:nodetypes="csssssscccccccc" />
    <path
       d="M 10.706264,16.999819 H 9.293901 C 9.131621,16.999819 9,17.13165 9,17.293832 v 1.411808 c 0,0.162338 0.131461,0.294179 0.293901,0.294179 h 1.412198 C 10.868379,18.999819 11,18.867978 11,18.70564 v -1.411808 c 1.63e-4,-0.162508 -0.131461,-0.294013 -0.293741,-0.294013 z m -0.294386,0.588384 z"
       id="path98-2-3-3"
       style="fill:#d6dbf1;fill-opacity:1;stroke-width:0.0410998"
       sodipodi:nodetypes="csssssscccccccc" />
    <path
       d="M 22.706034,20.999819 H 21.294457 C 21.131494,20.999819 21,21.131716 21,21.294148 v 1.411501 c 0,0.162434 0.13149,0.29417 0.294457,0.29417 h 1.411577 C 22.868351,22.999819 23,22.868242 23,22.705649 v -1.411501 c 0,-0.162432 -0.131649,-0.294329 -0.293966,-0.294329 z m -0.293968,0.588791 z"
       id="path68-6"
       style="fill:#d6dbf1;fill-opacity:1;stroke-width:0.0411146"
       sodipodi:nodetypes="sssssssssccccc" />
    <path
       d="M 26.70568,20.999819 H 25.294309 C 25.131432,20.999819 25,21.131716 25,21.294148 v 1.411501 c 0,0.162434 0.131429,0.29417 0.294309,0.29417 h 1.411371 c 0.162243,0 0.29432,-0.131577 0.29432,-0.29417 v -1.411501 c 1.63e-4,-0.162432 -0.132236,-0.294329 -0.29432,-0.294329 z m -0.293833,0.588791 z"
       id="path74-7"
       style="fill:#d6dbf1;fill-opacity:1;stroke-width:0.0411049"
       sodipodi:nodetypes="ssssssscsccccc" />
    <path
       d="M 18.706028,20.999819 H 17.293972 C 17.13165,20.999819 17,21.131716 17,21.294148 v 1.411501 c 0,0.162434 0.131492,0.29417 0.293972,0.29417 h 1.412056 C 18.868349,22.999819 19,22.868242 19,22.705649 v -1.411501 c 0,-0.162432 -0.131493,-0.294329 -0.293972,-0.294329 z m -0.294455,0.588791 z"
       id="path80-5"
       style="fill:#d6dbf1;fill-opacity:1;stroke-width:0.0411149"
       sodipodi:nodetypes="sssssssssccccc" />
    <path
       d="M 15.688282,20.999819 H 8.311724 C 8.139209,20.999819 8,21.131716 8,21.294148 v 1.411501 c 0,0.162434 0.139204,0.29417 0.311724,0.29417 h 7.376558 C 15.860121,22.999819 16,22.868242 16,22.705649 v -1.411501 c 0,-0.162432 -0.139706,-0.294329 -0.311718,-0.294329 z m -0.311208,1.411847 z"
       id="path94-5-3"
       style="fill:#d6dbf1;fill-opacity:1;stroke-width:0.0423031"
       sodipodi:nodetypes="sssssssssccccc" />
    <path
       d="M 6.706264,16.999819 H 5.293901 C 5.131621,16.999819 5,17.13165 5,17.293832 v 1.411808 c 0,0.162338 0.131461,0.294179 0.293901,0.294179 H 6.706099 C 6.868379,18.999819 7,18.867978 7,18.70564 V 17.293832 C 7.000163,17.131324 6.868539,16.999819 6.706259,16.999819 Z m -0.294386,0.588384 z"
       id="path98-2-56"
       style="fill:#d6dbf1;fill-opacity:1;stroke-width:0.0410998"
       sodipodi:nodetypes="csssssscccccccc" />
    <path
       d="M 6.706264,20.999819 H 5.2939 C 5.131621,20.999819 5,21.131716 5,21.294148 v 1.411501 c 0,0.162434 0.131461,0.29417 0.2939,0.29417 H 6.706099 C 6.868379,22.999819 7,22.868242 7,22.705649 V 21.294148 C 7.000164,21.131716 6.86854,20.999819 6.706259,20.999819 Z M 6.411879,21.58861 Z"
       id="path100-9-2"
       style="fill:#d6dbf1;fill-opacity:1;stroke-width:0.0411098"
       sodipodi:nodetypes="csssssscccccccc" />
    <path
       d="m 27.578836,10.999819 h -5.450455 v -0.001 c 0,0.001 -0.334443,-0.443629 -0.7583,-0.482632 C 21.331811,10.370996 20.876945,8.714639 19.595747,8.12615 18.89711,7.804485 18.107609,7.863009 17.253013,8.302633 c 0,3.75e-4 -0.0018,0 -0.0018,3.75e-4 -0.0156,0.0081 -1.605838,0.808774 -2.851471,0.326637 -0.560785,-0.216784 -0.9638,-0.657129 -1.230589,-1.345396 -0.0896,-0.230755 -0.345869,-0.343743 -0.575132,-0.253208 -0.227434,0.09132 -0.33916,0.352032 -0.250106,0.583162 0.360197,0.924704 0.946575,1.549801 1.744387,1.857332 0.396654,0.152548 0.808166,0.210696 1.205005,0.210696 1.219353,0 2.299229,-0.546372 2.357592,-0.577085 0.602666,-0.30952 1.133364,-0.36509 1.576448,-0.16102 0.694087,0.317444 1.071334,1.175142 1.217543,1.587158 -0.385229,0.07194 -0.680855,0.468535 -0.680855,0.468535 v 0 H 4.422996 C 3.63786,10.999819 3,11.68372 3,12.479819 v 11.078743 c 0,0.794395 0.63786,1.441257 1.422996,1.441257 H 27.578257 C 28.362837,24.999819 29,24.35301 29,23.558562 V 12.479819 c 1.86e-4,-0.796059 -0.636977,-1.48 -1.421557,-1.48 z m -7.150733,0.298994 c 0,-0.06656 0.0789,-0.123479 0.171574,-0.123479 h 0.694087 c 0.09195,0 0.17085,0.05683 0.17085,0.123479 v 0.136721 H 20.428475 V 11.298813 Z M 28,23.558482 c 0,0.299403 -0.12557,0.441332 -0.421211,0.441337 L 4.423528,24.000234 C 4.127897,24.000239 4,23.857713 4,23.558482 V 12.678819 c 0,-0.300326 0.128392,-0.679 0.424,-0.679 h 22.955 c 0.295631,0 0.621,0.378704 0.621,0.679 z"
       id="path102-1-9"
       style="fill:#d6dbf1;fill-opacity:1;stroke-width:0.0467684"
       sodipodi:nodetypes="ccccccccccccscccsccsssssccccssscccccssccsscc" />
  </g>
  <g
     id="input-keyboard-brightness"
     transform="translate(0,63.99998)">
    <rect
       ry="0"
       y="-4.2773436e-06"
       x="0"
       height="32"
       width="32"
       id="rect4266"
       style="fill:none" />
    <path
       style="fill:#d6dbf1;fill-opacity:1;stroke:none"
       d="m 16,10.2 c -0.277,0 -0.5,0.223 -0.5,0.5 v 1 c 0,0.277 0.223,0.5 0.5,0.5 0.277,0 0.5,-0.223 0.5,-0.5 v -1 c 0,-0.277 -0.223,-0.5 -0.5,-0.5 z m -3.18164,1.318359 c -0.12781,0 -0.25558,0.04855 -0.35352,0.146485 -0.19587,0.195868 -0.19587,0.511162 0,0.707031 l 0.70704,0.707031 c 0.19586,0.195869 0.51116,0.195869 0.70703,0 0.19586,-0.195868 0.19586,-0.511162 0,-0.707031 l -0.70703,-0.707031 c -0.0979,-0.09793 -0.22571,-0.146485 -0.35352,-0.146485 z m 6.36328,0 c -0.12781,0 -0.25558,0.04855 -0.35352,0.146485 l -0.70703,0.707031 c -0.19586,0.195869 -0.19586,0.511163 0,0.707031 0.19587,0.195869 0.51117,0.195869 0.70703,0 l 0.70704,-0.707031 c 0.19586,-0.195869 0.19586,-0.511163 0,-0.707031 -0.0979,-0.09793 -0.22571,-0.146485 -0.35352,-0.146485 z M 16,13.2 c -1.10457,0 -2,0.895431 -2,2 0,1.104569 0.89543,2 2,2 1.10457,0 2,-0.895431 2,-2 0,-1.104569 -0.89543,-2 -2,-2 z m 0,1 v 2 c -0.55228,0 -1,-0.447715 -1,-1 0,-0.552285 0.44772,-1 1,-1 z m -4.5,0.5 c -0.277,0 -0.5,0.223 -0.5,0.5 0,0.277 0.223,0.5 0.5,0.5 h 1 c 0.277,0 0.5,-0.223 0.5,-0.5 0,-0.277 -0.223,-0.5 -0.5,-0.5 z m 8,0 c -0.277,0 -0.5,0.223 -0.5,0.5 0,0.277 0.223,0.5 0.5,0.5 h 1 c 0.277,0 0.5,-0.223 0.5,-0.5 0,-0.277 -0.223,-0.5 -0.5,-0.5 z m -5.97461,2.474609 c -0.12781,0 -0.25558,0.04855 -0.35351,0.146485 l -0.70704,0.707031 c -0.19587,0.195869 -0.19587,0.511163 0,0.707031 0.19587,0.195869 0.51117,0.195869 0.70704,0 l 0.70703,-0.707031 c 0.19586,-0.195869 0.19586,-0.511163 0,-0.707031 -0.0979,-0.09793 -0.22571,-0.146485 -0.35352,-0.146485 z m 4.94922,0 c -0.12781,0 -0.25558,0.04855 -0.35352,0.146485 -0.19586,0.195868 -0.19586,0.511162 0,0.707031 l 0.70703,0.707031 c 0.19587,0.195869 0.51117,0.195869 0.70704,0 0.19586,-0.195868 0.19586,-0.511162 0,-0.707031 l -0.70704,-0.707031 c -0.0979,-0.09793 -0.2257,-0.146485 -0.35351,-0.146485 z M 16,18.2 c -0.277,0 -0.5,0.223 -0.5,0.5 v 1 c 0,0.277 0.223,0.5 0.5,0.5 0.277,0 0.5,-0.223 0.5,-0.5 v -1 c 0,-0.277 -0.223,-0.5 -0.5,-0.5 z"
       id="path4274-6"
       inkscape:connector-curvature="0" />
    <path
       d="m 21.5633,5.02377 c 1.9367,0 3.5,1.97623 3.5,4.30031 v 13.3494 c 0,2.32405 -1.5633,4.30024 -3.5,4.30024 H 10.4367 c -1.9367,0 -3.5,-1.97619 -3.5,-4.30024 V 9.32408 C 6.9367,7 8.5,5.02372 10.4367,5.02372 H 21.5633 M 21.5633,4 H 10.4367 C 8,4 6,6.4 6,9.32408 v 13.3494 C 6,25.6 8,28 10.4367,28 H 21.56124 C 24,28 26,25.6 26,22.67595 V 9.32408 C 26,6.4 24,4 21.5633,4 Z"
       id="path4-3-7-2-9"
       style="clip-rule:evenodd;fill:#d6dbf1;fill-opacity:1;fill-rule:evenodd;stroke-width:0.0223579;stroke-linejoin:round;stroke-miterlimit:1.41421"
       sodipodi:nodetypes="cssssssscsssssssss" />
    <path
       d="m 21.5633,5.080947 c 1.9367,0 3.5,1.89405 3.5,4.121301 v 12.793175 c 0,2.227216 -1.5633,4.121071 -3.5,4.121071 H 10.4367 c -1.9367,0 -3.5,-1.893855 -3.5,-4.121071 V 9.202248 c 0,-2.227251 1.5633,-4.121186 3.5,-4.121186 h 11.1266 m 0,-0.981065 H 10.4367 C 8,4.099997 6,6.399997 6,9.202248 v 12.793175 c 0,2.804585 2,5.104574 4.4367,5.104574 H 21.56124 C 24,27.099997 26,24.800008 26,21.997792 V 9.202248 C 26,6.399997 24,4.099997 21.5633,4.099997 Z"
       id="path4-3-3-5-7-3"
       style="clip-rule:evenodd;fill:#d6dbf1;fill-opacity:1;fill-rule:evenodd;stroke-width:0.0218872;stroke-linejoin:round;stroke-miterlimit:1.41421"
       sodipodi:nodetypes="cssssssscsssssssss" />
  </g>
  <sodipodi:namedview
     pagecolor="#ffffff"
     bordercolor="#000000"
     borderopacity="1"
     objecttolerance="10"
     gridtolerance="10"
     guidetolerance="10"
     inkscape:pageopacity="0"
     inkscape:pageshadow="2"
     inkscape:window-width="1920"
     inkscape:window-height="1007"
     id="namedview49"
     showgrid="false"
     inkscape:zoom="2.8284271"
     inkscape:cx="11.313708"
     inkscape:cy="94.398755"
     inkscape:window-x="0"
     inkscape:window-y="0"
     inkscape:window-maximized="1"
     inkscape:current-layer="svg3869"
     inkscape:document-rotation="0"
     inkscape:lockguides="false"
     inkscape:showpageshadow="false"
     inkscape:pagecheckerboard="0"
     showguides="false">
    <inkscape:grid
       type="xygrid"
       id="grid1192"
       originx="-22"
       originy="-22.000005" />
  </sodipodi:namedview>
  <metadata
     id="metadata25">
    <rdf:RDF>
      <cc:Work
         rdf:about="">
        <dc:format>image/svg+xml</dc:format>
        <dc:type
           rdf:resource="http://purl.org/dc/dcmitype/StillImage" />
      </cc:Work>
    </rdf:RDF>
  </metadata>
  <defs
     id="defs3871">
    <style
       type="text/css"
       id="current-color-scheme" />
    <linearGradient
       id="a"
       gradientUnits="userSpaceOnUse"
       x1="41"
       x2="23"
       y1="58"
       y2="6"
       gradientTransform="matrix(0.46153841,0,0,0.46153841,1.215575,1.2307666)">
      <stop
         offset="0"
         stop-color="#848f9a"
         id="stop2" />
      <stop
         offset=".33333299"
         stop-color="#bdc2c7"
         id="stop4" />
      <stop
         offset="1"
         stop-color="#f6f6f6"
         id="stop6" />
    </linearGradient>
    <linearGradient
       id="d"
       gradientUnits="userSpaceOnUse"
       x1="32"
       x2="32"
       y1="6"
       y2="28"
       gradientTransform="matrix(0.46153841,0,0,0.46153841,1.215575,1.2307666)">
      <stop
         offset="0"
         stop-color="#68737e"
         id="stop21" />
      <stop
         offset="1"
         stop-color="#7a8692"
         id="stop23" />
    </linearGradient>
    <linearGradient
       id="c"
       gradientTransform="matrix(-0.46153841,0,0,0.46153841,-10.322886,1.2307666)"
       gradientUnits="userSpaceOnUse"
       x1="-60"
       x2="-54"
       y1="22"
       y2="12">
      <stop
         offset="0"
         stop-color="#8e98a2"
         id="stop16" />
      <stop
         offset="1"
         stop-color="#6c7884"
         id="stop18" />
    </linearGradient>
    <linearGradient
       id="e"
       gradientTransform="matrix(-0.46153846,0,0,0.46153846,-10.322887,1.2307616)"
       gradientUnits="userSpaceOnUse"
       x1="-55"
       x2="-55"
       y1="22"
       y2="12">
      <stop
         offset="0"
         stop-color="#232629"
         id="stop26" />
      <stop
         offset=".333"
         stop-color="#373d43"
         id="stop28" />
      <stop
         offset=".667"
         stop-color="#565f68"
         id="stop30" />
      <stop
         offset="1"
         stop-color="#474e55"
         id="stop32" />
    </linearGradient>
    <linearGradient
       id="b"
       gradientTransform="matrix(-0.46153846,0,0,0.46153846,-10.322887,1.2307616)"
       gradientUnits="userSpaceOnUse"
       x1="-55"
       x2="-55"
       y1="12"
       y2="22">
      <stop
         offset="0"
         stop-color="#54b5e8"
         id="stop9" />
      <stop
         offset=".333"
         stop-color="#8fd9ff"
         id="stop11" />
      <stop
         offset="1"
         stop-color="#369acf"
         id="stop13" />
    </linearGradient>
    <linearGradient
       id="f"
       gradientUnits="userSpaceOnUse"
       x1="21.005859"
       x2="21"
       y1="21.005859"
       y2="58"
       gradientTransform="matrix(0.46153846,0,0,0.46153846,1.215574,1.2307616)">
      <stop
         offset="0"
         stop-color="#565f68"
         id="stop35" />
      <stop
         offset=".5945304"
         stop-color="#68737e"
         id="stop37" />
      <stop
         offset="1"
         stop-color="#424950"
         id="stop39" />
    </linearGradient>
    <linearGradient
       id="a-3"
       gradientUnits="userSpaceOnUse"
       x1="41"
       x2="23"
       y1="58"
       y2="6"
       gradientTransform="matrix(0.30769228,0,0,0.30769228,-18.922785,11.15386)">
      <stop
         offset="0"
         stop-color="#848f9a"
         id="stop2-6" />
      <stop
         offset=".33333299"
         stop-color="#bdc2c7"
         id="stop4-7" />
      <stop
         offset="1"
         stop-color="#f6f6f6"
         id="stop6-5" />
    </linearGradient>
    <linearGradient
       id="d-3"
       gradientUnits="userSpaceOnUse"
       x1="32"
       x2="32"
       y1="6"
       y2="28"
       gradientTransform="matrix(0.30769228,0,0,0.30769228,-18.922785,11.15386)">
      <stop
         offset="0"
         stop-color="#68737e"
         id="stop21-5" />
      <stop
         offset="1"
         stop-color="#7a8692"
         id="stop23-6" />
    </linearGradient>
    <linearGradient
       id="c-2"
       gradientTransform="matrix(-0.30769228,0,0,0.30769228,-26.615092,11.15386)"
       gradientUnits="userSpaceOnUse"
       x1="-60"
       x2="-54"
       y1="22"
       y2="12">
      <stop
         offset="0"
         stop-color="#8e98a2"
         id="stop16-9" />
      <stop
         offset="1"
         stop-color="#6c7884"
         id="stop18-1" />
    </linearGradient>
    <linearGradient
       id="e-2"
       gradientTransform="matrix(-0.30769232,0,0,0.30769232,-26.615093,11.153857)"
       gradientUnits="userSpaceOnUse"
       x1="-55"
       x2="-55"
       y1="22"
       y2="12">
      <stop
         offset="0"
         stop-color="#232629"
         id="stop26-7" />
      <stop
         offset=".333"
         stop-color="#373d43"
         id="stop28-0" />
      <stop
         offset=".667"
         stop-color="#565f68"
         id="stop30-9" />
      <stop
         offset="1"
         stop-color="#474e55"
         id="stop32-3" />
    </linearGradient>
    <linearGradient
       id="b-6"
       gradientTransform="matrix(-0.30769232,0,0,0.30769232,-26.615093,11.153857)"
       gradientUnits="userSpaceOnUse"
       x1="-55"
       x2="-55"
       y1="12"
       y2="22">
      <stop
         offset="0"
         stop-color="#54b5e8"
         id="stop9-0" />
      <stop
         offset=".333"
         stop-color="#8fd9ff"
         id="stop11-6" />
      <stop
         offset="1"
         stop-color="#369acf"
         id="stop13-2" />
    </linearGradient>
    <linearGradient
       id="f-6"
       gradientUnits="userSpaceOnUse"
       x1="21.005859"
       x2="21"
       y1="21.005859"
       y2="58"
       gradientTransform="matrix(0.30769232,0,0,0.30769232,-18.922785,11.153857)">
      <stop
         offset="0"
         stop-color="#565f68"
         id="stop35-1" />
      <stop
         offset=".5945304"
         stop-color="#68737e"
         id="stop37-8" />
      <stop
         offset="1"
         stop-color="#424950"
         id="stop39-7" />
    </linearGradient>
  </defs>
  <g
     id="16-16-input-mouse-battery"
     transform="translate(-341,-329.36219)">
    <path
       id="path4196"
       transform="translate(319,457.36217)"
       d="m -8,82 a 4,4 0 0 0 -4,4 v 4 a 4,4 0 0 0 4,4 4,4 0 0 0 4,-4 v -4 a 4,4 0 0 0 -4,-4 z m 0,1 a 3,3 0 0 1 3,3 v 4 a 3,3 0 0 1 -3,3 3,3 0 0 1 -3,-3 v -4 a 3,3 0 0 1 3,-3 z m 0,1 -2,5 h 2 v 3 l 2,-5 h -2 z"
       style="fill:#d6dbf1;fill-opacity:1;stroke:none"
       inkscape:connector-curvature="0" />
    <rect
       style="opacity:1;fill:none"
       id="rect4442"
       width="16"
       height="16"
       x="303"
       y="537.36218" />
  </g>
  <g
     id="input-mouse-battery"
     transform="translate(0,191.99996)">
    <rect
       style="fill:none"
       id="rect4378-6"
       width="32"
       height="32"
       x="0"
       y="0"
       ry="0" />
    <path
       d="m 15.523272,4.2305936 c 0,0 -0.37368,0.017672 -0.461528,0.023431 C 11.444329,4.491131 8.600198,7.24364 8.600198,10.923076 c 0,0 0.923074,3.384617 0.923074,5.076923 0,1.692311 -0.461528,3.377642 -0.461528,5.076925 0,3.835381 2.626148,6.692325 6.461528,6.692325 h 0.923077 c 3.835394,0 6.461543,-2.856944 6.461543,-6.692325 0,-1.699282 -0.461543,-3.384614 -0.461543,-5.076925 0,-1.692306 0.923082,-3.377637 0.923082,-5.076923 0,-3.679436 -2.847823,-6.3813605 -6.461539,-6.6690507 -0.101875,-0.00815 -0.461543,-0.023432 -0.461543,-0.023432 v 2.5386422 h -0.923077 z"
       fill="url(#a)"
       fill-rule="evenodd"
       id="path42"
       style="fill:url(#a);stroke-width:0.461549" />
    <path
       d="m 15.523272,4.0000056 c 0,0 -0.37368,0.017669 -0.461528,0.023428 -3.617415,0.2371068 -6.461546,3.2202044 -6.461546,6.8996394 0,0.09297 0.0064,0.185655 0.0092,0.278546 0.09329,-3.5941323 2.89584,-6.4835203 6.452537,-6.7166467 0.08783,-0.00583 0.461532,-0.023428 0.461532,-0.023428 h 0.92308 c 0,0 0.359666,0.015321 0.461536,0.023428 3.5533,0.2828783 6.359445,3.1247314 6.452515,6.7175477 0.0034,-0.09319 0.0093,-0.186175 0.0093,-0.279447 0,-3.6794349 -2.847817,-6.6119495 -6.461536,-6.8996393 -0.101877,-0.00815 -0.461539,-0.023429 -0.461539,-0.023429 z"
       fill="#c9cdd1"
       id="path44"
       style="stroke-width:0.461549" />
    <path
       d="m 15.523272,4.0000056 v 1.8461545 l -0.923073,0.9230754 v 4.6153855 l 0.461545,0.461539 v 1.846153 c 0,0.511385 0.411686,0.923076 0.923065,0.923076 0.51139,0 0.923083,-0.411691 0.923083,-0.923076 V 11.84616 L 17.36943,11.384621 V 6.7692355 L 16.446349,5.8461601 V 4.0000056 Z"
       fill="url(#d)"
       id="path46"
       style="fill:url(#d);stroke-width:0.461549" />
    <path
       d="M 8.6092,20.791194 C 8.6058,20.886464 8.6,20.981563 8.6,21.076926 c 0,3.835382 3.087686,6.923078 6.923066,6.923078 h 0.923124 c 3.835378,0 6.923065,-3.087696 6.923065,-6.923078 0,-0.09537 -0.0062,-0.190461 -0.0093,-0.285753 -0.0936,3.752634 -3.138076,6.747283 -6.914056,6.747283 H 15.52279 c -3.775994,0 -6.820466,-2.994649 -6.914067,-6.747283 z"
       fill="#7a8692"
       fill-rule="evenodd"
       id="path48"
       style="stroke-width:0.461549" />
    <path
       d="M 17.36943,6.7692355 V 11.384621 L 16.446349,10.461544 V 7.6923131 Z m -2.769231,0 0.923073,0.9230776 v 2.7692309 l -0.923073,0.923077 z"
       fill="url(#c)"
       id="path50"
       style="fill:url(#c);stroke-width:0.461549" />
    <rect
       fill="#2a2e32"
       height="1.3846154"
       rx="0.46153846"
       width="0.92307693"
       x="15.523266"
       y="12.307685"
       id="rect52"
       style="fill:#2a2e32;fill-opacity:1;fill-rule:evenodd;stroke-width:0.461538" />
    <path
       d="m 15.984805,6.7692231 c 0.172145,0 0.323888,0.029612 0.461538,0.070313 v 4.4747599 c -0.13765,0.0407 -0.289393,0.07031 -0.461538,0.07031 -0.172146,0 -0.323888,-0.02961 -0.461539,-0.07031 V 6.8395361 c 0.137651,-0.040701 0.289393,-0.070313 0.461539,-0.070313 z"
       fill="url(#e)"
       id="path54"
       style="fill:url(#e);fill-rule:evenodd;stroke-width:0.461538" />
    <path
       d="m 16.446343,6.8395357 c 0.271261,0.080208 0.461539,0.6831448 0.461539,0.8527643 v 2.769231 c 0,0.169619 -0.190278,0.772557 -0.461539,0.852764 z m -0.923077,0 V 11.314295 C 15.252005,11.234088 15.061728,10.63115 15.061728,10.461531 V 7.6923 c 0,-0.1696195 0.190277,-0.7725567 0.461538,-0.8527643 z"
       fill="url(#b)"
       id="path56"
       style="fill:url(#b);fill-rule:evenodd;stroke-width:0.461538" />
    <path
       d="m 8.600189,10.925773 c 4.62e-4,1.698363 0.461539,3.375835 0.461539,5.074219 0,1.698385 -0.461049,3.375857 -0.461539,5.074219 v 0.0027 c 0,3.643494 2.788313,6.606289 6.355168,6.894231 -2.799586,-0.282616 -4.970552,-2.633077 -4.970552,-5.509616 v -5.538457 c 0,-1.562058 -0.518363,-4.841363 -1.384616,-5.997296 z m 14.769231,0 c -0.86625,1.155933 -1.384615,4.435238 -1.384615,5.997296 v 5.538461 c 0,2.876539 -2.170966,5.227 -4.970553,5.509616 3.566856,-0.287942 6.355168,-3.250737 6.355168,-6.894231 v -0.0027 c -5.08e-4,-1.698343 -0.461538,-3.375815 -0.461538,-5.0742 0,-1.698384 0.461049,-3.375856 0.461538,-5.074219 z"
       fill="url(#f)"
       stroke-width="0.461536"
       id="path58"
       style="fill:url(#f);fill-rule:evenodd" />
  </g>
  <g
     id="22-22-input-mouse-battery"
     transform="translate(0,191.99996)">
    <rect
       style="fill:none"
       width="22"
       height="22"
       x="-22"
       y="10.000017"
       ry="0"
       id="rect8" />
    <path
       style="fill:#d6dbf1;fill-opacity:1;stroke:none"
       d="m -17,13.000034 -2,5 h 2 v 3 l 2,-5 h -2 z"
       id="path12"
       inkscape:connector-curvature="0" />
    <path
       d="m -9.384318,13.153735 c 0,0 -0.249119,0.01183 -0.307696,0.0156 -2.411603,0.158082 -4.307691,1.993083 -4.307691,4.446036 0,0 0.615388,2.256404 0.615388,3.384614 0,1.128213 -0.307698,2.251766 -0.307698,3.384616 0,2.556924 1.750776,4.461543 4.307697,4.461543 h 0.615381 c 2.556925,0 4.307698,-1.904619 4.307698,-4.461543 0,-1.13285 -0.307697,-2.256403 -0.307697,-3.384616 0,-1.12821 0.615388,-2.251753 0.615388,-3.384614 0,-2.452953 -1.898548,-4.254241 -4.307691,-4.446026 -0.06795,-0.0057 -0.307698,-0.01561 -0.307698,-0.01561 v 1.692436 h -0.615381 z"
       fill="url(#a)"
       fill-rule="evenodd"
       id="path42-9"
       style="fill:url(#a-3);stroke-width:0.307696" />
    <path
       d="m -9.384318,13.000014 c 0,0 -0.249119,0.01184 -0.307696,0.01565 -2.411603,0.158076 -4.307691,2.146816 -4.307691,4.59977 0,0.06195 0.0042,0.123765 0.0066,0.185688 0.06211,-2.396078 1.930562,-4.322334 4.301686,-4.477762 0.05851,-0.0038 0.307686,-0.01562 0.307686,-0.01562 h 0.615389 c 0,0 0.239782,0.01024 0.307694,0.01562 2.368862,0.188593 4.239625,2.08316 4.301683,4.478366 0.0026,-0.06205 0.0066,-0.124122 0.0066,-0.186291 0,-2.452955 -1.898544,-4.407964 -4.307694,-4.599765 -0.06792,-0.0057 -0.307683,-0.01564 -0.307683,-0.01564 z"
       fill="#c9cdd1"
       id="path44-2"
       style="stroke-width:0.307696" />
    <path
       d="m -9.384318,13.000014 v 1.23077 l -0.61539,0.615393 v 3.076916 l 0.307694,0.30769 v 1.230766 c 0,0.340932 0.274466,0.615386 0.615386,0.615386 0.34092,0 0.615389,-0.274454 0.615389,-0.615386 v -1.230766 l 0.307691,-0.30769 v -3.076916 l -0.615389,-0.615393 v -1.23077 z"
       fill="url(#d)"
       id="path46-0"
       style="fill:url(#d-3);stroke-width:0.307696" />
    <path
       d="M -13.9937,24.194135 C -13.9964,24.257665 -14,24.321051 -14,24.384622 c 0,2.556932 2.058468,4.615392 4.615395,4.615392 h 0.615372 c 2.556932,0 4.61539,-2.05846 4.61539,-4.615392 0,-0.06355 -0.0039,-0.126969 -0.0066,-0.190489 -0.0624,2.501754 -2.092049,4.498188 -4.609377,4.498188 h -0.615232 c -2.517323,0 -4.546974,-1.996434 -4.609375,-4.498188 z"
       fill="#7a8692"
       fill-rule="evenodd"
       id="path48-2"
       style="stroke-width:0.307696" />
    <path
       d="m -8.153548,14.846177 v 3.076916 l -0.615389,-0.615381 v -1.846166 z m -1.84616,0 0.61539,0.615369 v 1.846166 l -0.61539,0.615381 z"
       fill="url(#c)"
       id="path50-3"
       style="fill:url(#c-2);stroke-width:0.307696" />
    <rect
       fill="#2a2e32"
       height="0.92307699"
       rx="0.30769232"
       width="0.61538464"
       x="-9.3843231"
       y="18.538473"
       id="rect52-5"
       style="fill:#2a2e32;fill-opacity:1;fill-rule:evenodd;stroke-width:0.307692" />
    <path
       d="m -9.0766308,14.846165 c 0.1147637,0 0.2159253,0.01974 0.3076924,0.04687 v 2.983173 c -0.091767,0.02713 -0.1929287,0.04687 -0.3076924,0.04687 -0.1147637,0 -0.2159252,-0.01974 -0.3076923,-0.04687 V 14.89304 c 0.091767,-0.02713 0.1929286,-0.04687 0.3076923,-0.04687 z"
       fill="url(#e)"
       id="path54-9"
       style="fill:url(#e-2);fill-rule:evenodd;stroke-width:0.307692" />
    <path
       d="m -8.7689384,14.89304 c 0.1808406,0.05347 0.3076923,0.45543 0.3076923,0.568509 v 1.846154 c 0,0.11308 -0.1268517,0.515038 -0.3076923,0.56851 z m -0.6153847,0 v 2.983173 c -0.1808406,-0.05347 -0.3076923,-0.45543 -0.3076923,-0.56851 v -1.846154 c 0,-0.113079 0.1268517,-0.515037 0.3076923,-0.568509 z"
       fill="url(#b)"
       id="path56-2"
       style="fill:url(#b-6);fill-rule:evenodd;stroke-width:0.307692" />
    <path
       d="m -13.999708,17.617198 c 3.08e-4,1.132242 0.307692,2.250557 0.307692,3.382813 0,1.132257 -0.307366,2.250571 -0.307692,3.382813 v 0.0018 c 0,2.428996 1.858875,4.404192 4.2367791,4.596154 -1.8663911,-0.188411 -3.3137021,-1.755385 -3.3137021,-3.673077 v -3.692308 c 0,-1.041372 -0.345575,-3.227576 -0.923077,-3.998198 z m 9.8461544,0 c -0.5775001,0.770622 -0.923077,2.956826 -0.923077,3.998198 v 3.692308 c 0,1.917692 -1.4473108,3.484666 -3.313702,3.673077 2.3779041,-0.191962 4.236779,-2.167158 4.236779,-4.596154 v -0.0018 c -3.385e-4,-1.132229 -0.3076924,-2.250543 -0.3076924,-3.3828 0,-1.132256 0.3073662,-2.250571 0.3076924,-3.382813 z"
       fill="url(#f)"
       stroke-width="0.307691"
       id="path58-2"
       style="fill:url(#f-6);fill-rule:evenodd" />
  </g>
  <g
     id="input-caps-on"
     transform="translate(0,128)">
    <rect
       y="0"
       x="0"
       height="32"
       width="32"
       id="rect978"
       style="opacity:0.00100002;fill:#a8aeca;fill-opacity:1;stroke:none;stroke-width:0.713687;stroke-linecap:round;stroke-linejoin:round;stroke-miterlimit:4;stroke-dasharray:none;stroke-opacity:1" />
    <path
       d="m 21.5633,5.02377 c 1.9367,0 3.5,1.97623 3.5,4.30031 v 13.3494 c 0,2.324049 -1.5633,4.300239 -3.5,4.300239 H 10.4367 c -1.9367,0 -3.5,-1.97619 -3.5,-4.300239 V 9.32408 C 6.9367,7 8.6003,5.02372 10.537,5.02372 H 21.5633 M 21.5633,4 H 10.4367 C 8,4 6,6.4 6,9.32408 v 13.3494 c 0,2.926519 2,5.326519 4.4367,5.326519 H 21.56124 C 24,27.999999 26,25.599999 26,22.67595 V 9.32408 C 26,6.4 24,4 21.5633,4 Z"
       id="path4-3-7-2"
       style="clip-rule:evenodd;fill:#d6dbf1;fill-opacity:1;fill-rule:evenodd;stroke-width:0.0223579;stroke-linejoin:round;stroke-miterlimit:1.41421"
       sodipodi:nodetypes="cssssssscsssssssss" />
    <path
       d="m 21.5633,5.180927 c 1.9367,0 3.5,2.01898 3.5,4.121307 v 12.793164 c 0,2.22723 -1.5633,4.12108 -3.5,4.12108 H 10.4367 c -1.9367,0 -3.5,-1.89385 -3.5,-4.12108 V 9.302234 c 0,-2.102327 1.5636,-4.121192 3.5003,-4.121192 h 11.1263 m 0,-0.981065 H 10.437 C 8.0003,4.199977 6,6.4999771 6,9.302234 v 12.793164 c 0,2.80459 2,5.104579 4.4367,5.104579 H 21.563 c 2.43876,0 4.437,-2.299989 4.437,-5.10219 V 9.302234 C 26,6.4999771 24,4.199977 21.5633,4.199977 Z"
       id="path4-3-3-5-7"
       style="clip-rule:evenodd;fill:#d6dbf1;fill-opacity:1;fill-rule:evenodd;stroke-width:0.0218872;stroke-linejoin:round;stroke-miterlimit:1.41421"
       sodipodi:nodetypes="cssssssscsssssssss" />
    <path
       d="m 21.24989,19.99967 h -0.18604 c -0.31506,0 -0.58214,-0.19659 -0.69467,-0.46812 L 16.69925,9.97714 c -0.003,-0.006 -0.007,-0.0105 -0.0106,-0.0165 -0.021,-0.0525 -0.057,-0.0945 -0.09,-0.141 -0.024,-0.0345 -0.042,-0.0735 -0.072,-0.10356 -0.0256,-0.0256 -0.06,-0.0405 -0.0885,-0.0631 -0.0511,-0.0359 -0.0991,-0.0749 -0.15606,-0.0975 -0.006,-0.003 -0.009,-0.007 -0.0135,-0.009 -0.0316,-0.012 -0.0631,-0.009 -0.0945,-0.0165 -0.0585,-0.0135 -0.11402,-0.03 -0.17406,-0.03 -0.0615,0 -0.11856,0.0165 -0.17708,0.0315 -0.03,0.007 -0.0616,0.003 -0.0915,0.015 -0.002,0 -0.005,0.006 -0.006,0.006 -0.18897,0.075 -0.34805,0.22053 -0.42608,0.42458 l -3.66996,9.55442 c -0.11103,0.27153 -0.37813,0.46812 -0.69318,0.46812 H 10.75019 C 10.33456,19.9996 10,20.33568 10,20.74978 c 0,0.41111 0.33456,0.7502 0.75019,0.7502 h 1.23027 0.0165 1.75248 c 0.41411,0 0.7502,-0.33909 0.7502,-0.7502 0,-0.4141 -0.33609,-0.75018 -0.7502,-0.75018 h -0.14099 c -0.20856,0 -0.3751,-0.16955 -0.3751,-0.3751 0,-0.048 0.008,-0.093 0.024,-0.13655 0.002,-0.003 -0.006,0.005 -0.006,0.002 l 0.38112,-0.99326 h 4.00452 l 0.42609,1.13877 c 0.001,0.001 0,0.001 0,0.003 0.0616,0.17256 -0.0105,0.36161 -0.16051,0.45011 0,0 0.006,0.005 0.006,0.006 -0.24163,0.12451 -0.40817,0.36756 -0.40817,0.65567 0,0.4111 0.33456,0.75019 0.75019,0.75019 h 1.62045 0.0585 1.32038 c 0.4141,0 0.75019,-0.33909 0.75019,-0.75019 -8e-5,-0.41411 -0.33617,-0.75019 -0.75028,-0.75019 z m -7.03978,-3.00376 1.04273,-2.71719 c 0.002,-0.003 0.003,0.009 0.006,0 0.078,-0.21903 0.31958,-0.33609 0.54011,-0.25804 0.11856,0.042 0.21007,0.13656 0.2521,0.24758 v -0.002 l 1.02322,2.73069 h -2.86422 z"
       id="path2"
       style="fill:#d6dbf1;fill-opacity:1;stroke-width:0.021434"
       sodipodi:nodetypes="cscccccccccscccccssssccsssssccccccccssccscccccccccccc" />
  </g>
  <g
     id="input-num-on"
     style="fill:#d6dbf1;fill-opacity:1"
     transform="translate(-22,42)">
    <rect
       style="opacity:0.00100002;fill:#d6dbf1;fill-opacity:1;stroke:none;stroke-width:0.713687;stroke-linecap:round;stroke-linejoin:round;stroke-miterlimit:4;stroke-dasharray:none;stroke-opacity:1"
       id="rect984"
       width="32"
       height="32"
       x="22"
       y="117.99998" />
    <path
       d="m 40.62484,136.94959 h -1.49992 v -8.62461 c 0,-0.29857 -0.11853,-0.5846 -0.32947,-0.79554 -0.21093,-0.21093 -0.49721,-0.32946 -0.79554,-0.32946 h -2.62492 c -0.40204,0 -0.773433,0.21445 -0.974323,0.5625 -0.200889,0.34805 -0.200889,0.77696 0,1.125 0.20089,0.34805 0.572293,0.56251 0.974323,0.56251 h 1.49992 v 7.50024 h -1.49992 v -2.6e-4 c -0.40204,0 -0.773433,0.21446 -0.974323,0.56251 -0.200889,0.34804 -0.200889,0.77695 0,1.125 0.20089,0.34805 0.572293,0.5625 0.974323,0.5625 h 5.2501 -2.5e-4 c 0.40203,0 0.77342,-0.21445 0.97431,-0.5625 0.2009,-0.34805 0.2009,-0.77696 0,-1.125 -0.20089,-0.34805 -0.57229,-0.56251 -0.97431,-0.56251 z"
       id="path6-1"
       style="fill:#d6dbf1;fill-opacity:1;stroke-width:0.0642859" />
    <path
       d="m 43.5633,123.02376 c 1.9367,0 3.5,1.97622 3.5,4.3003 v 13.3494 c 0,2.32405 -1.5633,4.30025 -3.5,4.30025 H 32.4367 c -1.9367,0 -3.5,-1.9762 -3.5,-4.30025 v -13.3494 c 0,-2.32408 1.5633,-4.30036 3.5,-4.30036 h 11.1266 m 0,-1.02372 H 32.4367 c -2.4367,0 -4.4367,2.4 -4.4367,5.32408 v 13.3494 c 0,2.92653 2,5.32652 4.4367,5.32652 H 43.56124 C 46,145.99998 48,143.59998 48,140.67593 v -13.35187 c 0,-2.92408 -2,-5.32408 -4.4367,-5.32408 z"
       id="path4-3-7-2-6"
       style="clip-rule:evenodd;fill:#d6dbf1;fill-opacity:1;fill-rule:evenodd;stroke-width:0.0223579;stroke-linejoin:round;stroke-miterlimit:1.41421"
       sodipodi:nodetypes="cssssssscsssssssss" />
    <path
       d="m 43.5633,123.08093 c 1.9367,0 3.5,1.89405 3.5,4.12131 v 12.79316 c 0,2.22723 -1.5633,4.12108 -3.5,4.12108 H 32.4367 c -1.9367,0 -3.5,-1.89385 -3.5,-4.12108 v -12.79316 c 0,-2.22726 1.5633,-4.1212 3.5,-4.1212 h 11.1266 m 0,-0.98106 H 32.4367 c -2.4367,0 -4.4367,2.3 -4.4367,5.10226 v 12.79316 c 0,2.8046 2,5.10458 4.4367,5.10458 H 43.56124 C 46,145.09998 48,142.8 48,139.9978 v -12.79556 c 0,-2.80226 -2,-5.10226 -4.4367,-5.10226 z"
       id="path4-3-3-5-7-1"
       style="clip-rule:evenodd;fill:#d6dbf1;fill-opacity:1;fill-rule:evenodd;stroke-width:0.0218872;stroke-linejoin:round;stroke-miterlimit:1.41421"
       sodipodi:nodetypes="cssssssscsssssssss" />
  </g>
  <g
     id="input-keyboard-battery"
     transform="translate(0,95.99998)">
    <rect
       style="fill:none"
       id="rect4378"
       width="32"
       height="32"
       x="0"
       y="-4.2773436e-06"
       ry="0" />
    <path
       style="fill:#bf616a;fill-opacity:1;stroke:none;stroke-width:1.5"
       d="m 16,9.3 -3,7.5 h 3 v 4.5 l 3,-7.5 h -3 z"
       id="path12-5"
       inkscape:connector-curvature="0" />
    <path
       d="m 21.563299,5.02377 c 1.9367,0 3.5,1.97623 3.5,4.30031 v 13.3494 c 0,2.32405 -1.5633,4.30024 -3.5,4.30024 H 10.4367 c -1.9367,0 -3.5,-1.97619 -3.5,-4.30024 V 9.32408 C 6.9367,7 8.5,5.02372 10.4367,5.02372 h 11.126599 m 0,-1.02372 H 10.4367 C 8,4 6,6.4 6,9.32408 v 13.3494 C 6,25.6 8,28 10.4367,28 h 11.124539 c 2.43876,0 4.43876,-2.4 4.43876,-5.32405 V 9.32408 C 25.999999,6.4 23.999999,4 21.563299,4 Z"
       id="path4-3-7-2-0"
       style="clip-rule:evenodd;fill:#d6dbf1;fill-opacity:1;fill-rule:evenodd;stroke-width:0.0223579;stroke-linejoin:round;stroke-miterlimit:1.41421"
       sodipodi:nodetypes="cssssssscsssssssss" />
    <path
       d="m 21.563299,5.080947 c 1.9367,0 3.5,1.89405 3.5,4.121301 v 12.793175 c 0,2.227217 -1.5633,4.121071 -3.5,4.121071 H 10.4367 c -1.9367,0 -3.5,-1.893854 -3.5,-4.121071 V 9.202248 c 0,-2.227251 1.5633,-4.121186 3.5,-4.121186 h 11.126599 m 0,-0.981065 H 10.4367 C 8,4.099997 6,6.399997 6,9.202248 v 12.793175 c 0,2.804586 2,5.104574 4.4367,5.104574 h 11.124539 c 2.43876,0 4.43876,-2.299988 4.43876,-5.102205 V 9.202248 c 0,-2.802251 -2,-5.102251 -4.4367,-5.102251 z"
       id="path4-3-3-5-7-6"
       style="clip-rule:evenodd;fill:#d6dbf1;fill-opacity:1;fill-rule:evenodd;stroke-width:0.0218872;stroke-linejoin:round;stroke-miterlimit:1.41421"
       sodipodi:nodetypes="cssssssscsssssssss" />
  </g>
  <g
     id="22-22-input-keyboard-brightness"
     transform="translate(-22,73.99999)">
    <rect
       ry="0"
       y="2.6171874e-06"
       x="0"
       height="22"
       width="22"
       style="fill:none"
       id="rect20" />
    <path
       style="fill:#d6dbf1;fill-opacity:1;stroke:none;stroke-width:0.7"
       d="m 11,7.299997 c -0.1939,0 -0.35,0.1561 -0.35,0.35 v 0.7 c 0,0.1939 0.1561,0.35 0.35,0.35 0.1939,0 0.35,-0.1561 0.35,-0.35 v -0.7 c 0,-0.1939 -0.1561,-0.35 -0.35,-0.35 z M 8.772852,8.222848 c -0.08947,0 -0.178906,0.03398 -0.247464,0.10254 -0.137109,0.137107 -0.137109,0.357813 0,0.494921 l 0.494928,0.494922 c 0.137102,0.137108 0.357812,0.137108 0.494921,0 0.137102,-0.137107 0.137102,-0.357813 0,-0.494922 L 9.020316,8.325388 C 8.951786,8.256838 8.862319,8.222848 8.772852,8.222848 Z m 4.454296,0 c -0.08947,0 -0.178906,0.03398 -0.247464,0.10254 l -0.494921,0.494921 c -0.137102,0.137109 -0.137102,0.357815 0,0.494922 0.137109,0.137108 0.357819,0.137108 0.494921,0 l 0.494928,-0.494922 c 0.137102,-0.137108 0.137102,-0.357814 0,-0.494921 -0.06853,-0.06855 -0.157997,-0.10254 -0.247464,-0.10254 z M 11,9.399997 c -0.773199,0 -1.4,0.626802 -1.4,1.4 0,0.773198 0.626801,1.4 1.4,1.4 0.773199,0 1.4,-0.626802 1.4,-1.4 0,-0.773198 -0.626801,-1.4 -1.4,-1.4 z m 0,0.7 v 1.4 c -0.386596,0 -0.7,-0.3134 -0.7,-0.7 0,-0.3866 0.313404,-0.7 0.7,-0.7 z m -3.15,0.35 c -0.1939,0 -0.35,0.1561 -0.35,0.35 0,0.1939 0.1561,0.35 0.35,0.35 h 0.7 c 0.1939,0 0.35,-0.1561 0.35,-0.35 0,-0.1939 -0.1561,-0.35 -0.35,-0.35 z m 5.6,0 c -0.1939,0 -0.35,0.1561 -0.35,0.35 0,0.1939 0.1561,0.35 0.35,0.35 h 0.7 c 0.1939,0 0.35,-0.1561 0.35,-0.35 0,-0.1939 -0.1561,-0.35 -0.35,-0.35 z m -4.182227,1.732226 c -0.08947,0 -0.178906,0.03399 -0.247457,0.10254 l -0.494928,0.494921 c -0.137109,0.137109 -0.137109,0.357815 0,0.494922 0.137109,0.137108 0.357819,0.137108 0.494928,0 l 0.494921,-0.494922 c 0.137102,-0.137108 0.137102,-0.357814 0,-0.494921 -0.06853,-0.06855 -0.157997,-0.10254 -0.247464,-0.10254 z m 3.464454,0 c -0.08947,0 -0.178906,0.03399 -0.247464,0.10254 -0.137102,0.137107 -0.137102,0.357813 0,0.494921 l 0.494921,0.494922 c 0.137109,0.137108 0.357819,0.137108 0.494928,0 0.137102,-0.137107 0.137102,-0.357813 0,-0.494922 l -0.494928,-0.494921 c -0.06853,-0.06855 -0.15799,-0.10254 -0.247457,-0.10254 z M 11,12.899997 c -0.1939,0 -0.35,0.1561 -0.35,0.35 v 0.7 c 0,0.1939 0.1561,0.35 0.35,0.35 0.1939,0 0.35,-0.1561 0.35,-0.35 v -0.7 c 0,-0.1939 -0.1561,-0.35 -0.35,-0.35 z"
       id="path4274-6-3"
       inkscape:connector-curvature="0" />
    <path
       d="m 14.89431,3.316639 c 1.35569,0 2.45,1.383361 2.45,3.010217 v 9.34458 c 0,1.626835 -1.09431,3.010168 -2.45,3.010168 H 7.10569 c -1.35569,0 -2.45,-1.383333 -2.45,-3.010168 V 6.326856 C 4.65569,4.7 5.75,3.316604 7.10569,3.316604 h 7.78862 m 0,-0.716604 H 7.10569 C 5.4,2.6 4,4.28 4,6.326856 v 9.34458 C 4,17.72 5.4,19.4 7.10569,19.4 h 7.787178 C 16.6,19.4 18,17.72 18,15.673165 V 6.326856 C 18,4.28 16.6,2.6 14.89431,2.6 Z"
       id="path4-3-7-2-9-6"
       style="clip-rule:evenodd;fill:#d6dbf1;fill-opacity:1;fill-rule:evenodd;stroke-width:0.0156505;stroke-linejoin:round;stroke-miterlimit:1.41421"
       sodipodi:nodetypes="cssssssscsssssssss" />
    <path
       d="m 14.89431,3.386669 c 1.35569,0 2.45,1.325835 2.45,2.884911 v 8.955222 c 0,1.559051 -1.09431,2.88475 -2.45,2.88475 H 7.10569 c -1.35569,0 -2.45,-1.325699 -2.45,-2.88475 V 6.27158 c 0,-1.559076 1.09431,-2.884831 2.45,-2.884831 h 7.78862 m 0,-0.686745 H 7.10569 C 5.4,2.700004 4,4.310004 4,6.27158 v 8.955222 c 0,1.96321 1.4,3.573202 3.10569,3.573202 h 7.787178 C 16.6,18.800004 18,17.190012 18,15.22846 V 6.27158 C 18,4.310004 16.6,2.700004 14.89431,2.700004 Z"
       id="path4-3-3-5-7-3-7"
       style="clip-rule:evenodd;fill:#d6dbf1;fill-opacity:1;fill-rule:evenodd;stroke-width:0.015321;stroke-linejoin:round;stroke-miterlimit:1.41421"
       sodipodi:nodetypes="cssssssscsssssssss" />
  </g>
  <g
     id="22-22-input-keyboard-battery"
     transform="translate(-22,105.99999)">
    <rect
       style="fill:none"
       width="22"
       height="22"
       x="0"
       y="0"
       ry="0"
       id="rect15" />
    <path
       style="fill:#bf616a;fill-opacity:1;stroke:none;stroke-width:1.05"
       d="m 11,6.399993 -2.1,5.25 H 11 v 3.150001 L 13.100001,9.549993 H 11 Z"
       id="path12-5-5"
       inkscape:connector-curvature="0" />
    <path
       d="m 14.89431,3.316639 c 1.35569,0 2.45,1.383361 2.45,3.010217 v 9.344581 c 0,1.626835 -1.09431,3.010168 -2.45,3.010168 H 7.10569 c -1.35569,0 -2.45,-1.383333 -2.45,-3.010168 V 6.326856 C 4.65569,4.7 5.75,3.316604 7.10569,3.316604 h 7.78862 m 0,-0.716604 H 7.10569 C 5.4,2.6 4,4.28 4,6.326856 v 9.344581 c 0,2.048564 1.4,3.728564 3.10569,3.728564 h 7.787178 C 16.6,19.400001 18,17.720001 18,15.673166 V 6.326856 C 18,4.28 16.6,2.6 14.89431,2.6 Z"
       id="path4-3-7-2-0-3"
       style="clip-rule:evenodd;fill:#d6dbf1;fill-opacity:1;fill-rule:evenodd;stroke-width:0.0156505;stroke-linejoin:round;stroke-miterlimit:1.41421"
       sodipodi:nodetypes="cssssssscsssssssss" />
    <path
       d="m 14.89431,3.386665 c 1.35569,0 2.45,1.325835 2.45,2.8849109 v 8.9552231 c 0,1.559052 -1.09431,2.884749 -2.45,2.884749 H 7.10569 c -1.35569,0 -2.45,-1.325697 -2.45,-2.884749 V 6.2715759 c 0,-1.5590759 1.09431,-2.8848304 2.45,-2.8848304 h 7.78862 M 14.89431,2.7 H 7.10569 C 5.4,2.7 4,4.31 4,6.2715759 v 8.9552231 c 0,1.96321 1.4,3.573202 3.10569,3.573202 h 7.787178 C 16.6,18.800001 18,17.190009 18,15.228457 V 6.2715759 C 18,4.31 16.6,2.7 14.89431,2.7 Z"
       id="path4-3-3-5-7-6-5"
       style="clip-rule:evenodd;fill:#d6dbf1;fill-opacity:1;fill-rule:evenodd;stroke-width:0.0153211;stroke-linejoin:round;stroke-miterlimit:1.41421"
       sodipodi:nodetypes="cssssssscsssssssss" />
  </g>
  <g
     id="22-22-input-caps-on"
     transform="translate(-22,137.99998)"
     style="fill:#d6dbf1;fill-opacity:1">
    <rect
       y="-1.2158202e-06"
       x="2.1582031e-07"
       height="22"
       width="22"
       id="rect964"
       style="opacity:0.00100002;fill:#d6dbf1;fill-opacity:1;stroke:none;stroke-width:0.49066;stroke-linecap:round;stroke-linejoin:round;stroke-miterlimit:4;stroke-dasharray:none;stroke-opacity:1" />
    <path
       d="m 14.89431,3.316639 c 1.35569,0 2.45,1.383361 2.45,3.010217 v 9.344584 c 0,1.62683 -1.09431,3.01016 -2.45,3.01016 H 7.10569 c -1.35569,0 -2.45,-1.38333 -2.45,-3.01016 V 6.326856 C 4.65569,4.7 5.82021,3.316604 7.1759,3.316604 h 7.71841 m 0,-0.716604 H 7.10569 C 5.4,2.6 4,4.28 4,6.326856 V 15.67144 C 4,17.72 5.4,19.4 7.10569,19.4 h 7.787178 C 16.6,19.4 18,17.72 18,15.67317 V 6.326856 C 18,4.28 16.6,2.6 14.89431,2.6 Z"
       id="path4-3-7-2-62"
       style="clip-rule:evenodd;fill:#d6dbf1;fill-opacity:1;fill-rule:evenodd;stroke-width:0.0156505;stroke-linejoin:round;stroke-miterlimit:1.41421"
       sodipodi:nodetypes="cssssssscsssssssss" />
    <path
       d="m 14.89431,3.356665 c 1.35569,0 2.45,1.413286 2.45,2.884915 v 8.95521 c 0,1.55907 -1.09431,2.88476 -2.45,2.88476 H 7.10569 c -1.35569,0 -2.45,-1.32569 -2.45,-2.88476 V 6.24158 c 0,-1.471629 1.09452,-2.884834 2.45021,-2.884834 h 7.78841 m 0,-0.686746 H 7.1059 C 5.40021,2.67 4,4.28 4,6.24158 v 8.95521 C 4,17.16001 5.4,18.77 7.10569,18.77 H 14.8941 C 16.601232,18.77 18,17.16001 18,15.19847 V 6.24158 C 18,4.28 16.6,2.67 14.89431,2.67 Z"
       id="path4-3-3-5-7-9"
       style="clip-rule:evenodd;fill:#d6dbf1;fill-opacity:1;fill-rule:evenodd;stroke-width:0.015321;stroke-linejoin:round;stroke-miterlimit:1.41421"
       sodipodi:nodetypes="cssssssscsssssssss" />
    <path
       d="m 14.674923,13.79977 h -0.130228 c -0.220542,0 -0.407498,-0.13761 -0.486269,-0.32768 L 11.489475,6.783998 c -0.0021,-0.0042 -0.0049,-0.0074 -0.0074,-0.01155 -0.0147,-0.03675 -0.0399,-0.06615 -0.063,-0.0987 -0.0168,-0.02415 -0.0294,-0.05145 -0.0504,-0.07249 -0.01792,-0.01792 -0.042,-0.02835 -0.06195,-0.04417 -0.03577,-0.02513 -0.06937,-0.05243 -0.109242,-0.06825 -0.0042,-0.0021 -0.0063,-0.0049 -0.0095,-0.0063 -0.02212,-0.0084 -0.04417,-0.0063 -0.06615,-0.01155 -0.04095,-0.0095 -0.07981,-0.021 -0.121842,-0.021 -0.04305,0 -0.08299,0.01155 -0.123956,0.02205 -0.021,0.0049 -0.04312,0.0021 -0.06405,0.0105 -0.0014,0 -0.0035,0.0042 -0.0042,0.0042 -0.132279,0.0525 -0.243635,0.154371 -0.298256,0.297206 L 7.940557,13.47204 c -0.07772,0.19007 -0.264691,0.32768 -0.485226,0.32768 H 7.325103 c -0.290941,0 -0.525133,0.23526 -0.525133,0.52513 0,0.28777 0.234192,0.52514 0.525133,0.52514 h 0.861189 0.01155 1.226736 c 0.289877,0 0.52514,-0.23737 0.52514,-0.52514 0,-0.28987 -0.235263,-0.52513 -0.52514,-0.52513 h -0.09869 c -0.145992,0 -0.26257,-0.11869 -0.26257,-0.26257 0,-0.0336 0.0056,-0.0651 0.0168,-0.0956 0.0014,-0.002 -0.0042,0.004 -0.0042,0.001 l 0.266784,-0.69528 h 2.803164 l 0.298263,0.79714 c 7e-4,7e-4 0,7e-4 0,0.002 0.04312,0.12079 -0.0074,0.25313 -0.112357,0.31508 0,0 0.0042,0.004 0.0042,0.004 -0.169141,0.0872 -0.285719,0.25729 -0.285719,0.45897 0,0.28777 0.234192,0.52513 0.525133,0.52513 h 1.134315 0.04095 0.924266 c 0.28987,0 0.525133,-0.23736 0.525133,-0.52513 -5.6e-5,-0.28988 -0.235319,-0.52514 -0.525196,-0.52514 z M 9.747077,11.697137 10.476988,9.795104 c 0.0014,-0.0021 0.0021,0.0063 0.0042,0 0.0546,-0.153321 0.223706,-0.235263 0.378077,-0.180628 0.08299,0.0294 0.147049,0.09559 0.17647,0.173306 v -0.0014 l 0.716254,1.911483 H 9.747035 Z"
       id="path2-1"
       style="fill:#d6dbf1;fill-opacity:1;stroke-width:0.0150038"
       sodipodi:nodetypes="cscccccccccscccccssssccsssssccccccccssccscccccccccccc" />
  </g>
  <g
     id="22-22-input-num-on"
     transform="translate(-22,169.99998)"
     style="fill:#d6dbf1;fill-opacity:1">
    <rect
       style="opacity:0.00100002;fill:#d6dbf1;fill-opacity:1;stroke:none;stroke-width:0.49066;stroke-linecap:round;stroke-linejoin:round;stroke-miterlimit:4;stroke-dasharray:none;stroke-opacity:1"
       id="rect972"
       width="22"
       height="22"
       x="0"
       y="0" />
    <path
       d="M 12.837388,13.06473 H 11.787444 V 7.0275 c 0,-0.209 -0.08297,-0.40922 -0.230629,-0.55688 C 11.409164,6.32297 11.208768,6.24 10.999937,6.24 H 9.162493 c -0.281428,0 -0.541403,0.15012 -0.682026,0.39375 -0.140622,0.24364 -0.140622,0.54387 0,0.7875 0.140623,0.24364 0.400605,0.39376 0.682026,0.39376 h 1.049944 v 5.25016 H 9.162493 v -1.8e-4 c -0.281428,0 -0.541403,0.15012 -0.682026,0.39376 -0.140622,0.24363 -0.140622,0.54387 0,0.7875 C 8.62109,14.48989 8.881072,14.64 9.162493,14.64 h 3.67507 -1.75e-4 c 0.281421,0 0.541394,-0.15011 0.682017,-0.39375 0.14063,-0.24363 0.14063,-0.54387 0,-0.7875 -0.140623,-0.24364 -0.400603,-0.39376 -0.682017,-0.39376 z"
       id="path6-1-2"
       style="fill:#d6dbf1;fill-opacity:1;stroke-width:0.0450001" />
    <path
       d="m 14.89431,3.31665 c 1.35569,0 2.45,1.38335 2.45,3.01021 v 9.34458 c 0,1.62683 -1.09431,3.01017 -2.45,3.01017 H 7.10569 c -1.35569,0 -2.45,-1.38334 -2.45,-3.01017 V 6.32686 C 4.65569,4.7 5.75,3.3166 7.10569,3.3166 h 7.78862 m 0,-0.7166 H 7.10569 C 5.4,2.6 4,4.28 4,6.32686 v 9.34458 C 4,17.72001 5.4,19.4 7.10569,19.4 h 7.787178 C 16.6,19.4 18,17.72 18,15.67316 V 6.32686 C 18,4.28 16.6,2.6 14.89431,2.6 Z"
       id="path4-3-7-2-6-7"
       style="clip-rule:evenodd;fill:#d6dbf1;fill-opacity:1;fill-rule:evenodd;stroke-width:0.0156505;stroke-linejoin:round;stroke-miterlimit:1.41421"
       sodipodi:nodetypes="cssssssscsssssssss" />
    <path
       d="m 14.89431,3.38667 c 1.35569,0 2.45,1.32583 2.45,2.88491 v 8.95521 c 0,1.55906 -1.09431,2.88476 -2.45,2.88476 H 7.10569 c -1.35569,0 -2.45,-1.32569 -2.45,-2.88476 V 6.27158 c 0,-1.55908 1.09431,-2.88484 2.45,-2.88484 h 7.78862 m 0,-0.68674 H 7.10569 C 5.4,2.7 4,4.31 4,6.27158 v 8.95521 C 4,17.19001 5.4,18.8 7.10569,18.8 h 7.787178 C 16.6,18.8 18,17.19001 18,15.22847 V 6.27158 C 18,4.31 16.6,2.7 14.89431,2.7 Z"
       id="path4-3-3-5-7-1-0"
       style="clip-rule:evenodd;fill:#d6dbf1;fill-opacity:1;fill-rule:evenodd;stroke-width:0.015321;stroke-linejoin:round;stroke-miterlimit:1.41421"
       sodipodi:nodetypes="cssssssscsssssssss" />
  </g>
  <g
     id="input-keyboard-virtual-on">
    <rect
       style="fill:none;fill-rule:evenodd;stroke:none;stroke-width:1.45455px;stroke-linecap:butt;stroke-linejoin:miter;stroke-opacity:1"
       id="rect4192"
       width="32"
       height="32"
       x="0"
       y="0" />
    <path
       id="path8-9"
       d="M 6.5000001,4.5 A 2.4999996,2.4999855 0 0 0 4,7 2.4999996,2.4999855 0 0 0 6.5000001,9.5 2.4999996,2.4999855 0 0 0 9.0000002,7 2.4999996,2.4999855 0 0 0 6.5000001,4.5 Z"
       style="fill:#7b96b7;fill-opacity:1;stroke:none;stroke-width:1.45455"
       inkscape:connector-curvature="0" />
    <path
       d="M 26.706264,13 H 25.293901 C 25.131621,13 25,13.131831 25,13.294013 v 1.411808 C 25,14.868159 25.131461,15 25.293901,15 h 1.412198 C 26.868379,15 27,14.868159 27,14.705821 V 13.294013 C 27.000163,13.131505 26.868539,13 26.706259,13 Z m -0.294386,0.588384 z"
       id="path98-2-5-3-5-3"
       style="fill:#d6dbf1;fill-opacity:1;stroke-width:0.0410998"
       sodipodi:nodetypes="csssssscccccccc" />
    <path
       d="M 22.706264,13 H 21.293901 C 21.131621,13 21,13.131831 21,13.294013 v 1.411808 C 21,14.868159 21.131461,15 21.293901,15 h 1.412198 C 22.868379,15 23,14.868159 23,14.705821 V 13.294013 C 23.000163,13.131505 22.868539,13 22.706259,13 Z m -0.294386,0.588384 z"
       id="path98-2-5-6-6"
       style="fill:#d6dbf1;fill-opacity:1;stroke-width:0.0410998"
       sodipodi:nodetypes="csssssscccccccc" />
    <path
       d="M 18.706264,13 H 17.293901 C 17.131621,13 17,13.131831 17,13.294013 v 1.411808 C 17,14.868159 17.131461,15 17.293901,15 h 1.412198 C 18.868379,15 19,14.868159 19,14.705821 V 13.294013 C 19.000163,13.131505 18.868539,13 18.706259,13 Z m -0.294386,0.588384 z"
       id="path98-2-7-2-7"
       style="fill:#d6dbf1;fill-opacity:1;stroke-width:0.0410998"
       sodipodi:nodetypes="csssssscccccccc" />
    <path
       d="M 14.706264,13 H 13.293901 C 13.131621,13 13,13.131831 13,13.294013 v 1.411808 C 13,14.868159 13.131461,15 13.293901,15 h 1.412198 C 14.868379,15 15,14.868159 15,14.705821 V 13.294013 C 15.000164,13.131505 14.868539,13 14.706259,13 Z m -0.294386,0.588384 z"
       id="path98-2-6-9-5"
       style="fill:#d6dbf1;fill-opacity:1;stroke-width:0.0410998"
       sodipodi:nodetypes="csssssscccccccc" />
    <path
       d="M 10.706264,13 H 9.293901 C 9.131621,13 9,13.131831 9,13.294013 v 1.411808 C 9,14.868159 9.131461,15 9.293901,15 h 1.412198 C 10.868379,15 11,14.868159 11,14.705821 V 13.294013 C 11.000163,13.131505 10.868539,13 10.706259,13 Z m -0.294386,0.588384 z"
       id="path98-2-3-1-3"
       style="fill:#d6dbf1;fill-opacity:1;stroke-width:0.0410998"
       sodipodi:nodetypes="csssssscccccccc" />
    <path
       d="M 6.706264,13 H 5.293901 C 5.131621,13 5,13.131831 5,13.294013 v 1.411808 C 5,14.868159 5.131461,15 5.293901,15 H 6.706099 C 6.868379,15 7,14.868159 7,14.705821 V 13.294013 C 7.000163,13.131505 6.868539,13 6.706259,13 Z m -0.294386,0.588384 z"
       id="path98-2-2-5"
       style="fill:#d6dbf1;fill-opacity:1;stroke-width:0.0410998"
       sodipodi:nodetypes="csssssscccccccc" />
    <path
       d="M 26.706264,17 H 25.293901 C 25.131621,17 25,17.131831 25,17.294013 v 1.411808 C 25,18.868159 25.131461,19 25.293901,19 h 1.412198 C 26.868379,19 27,18.868159 27,18.705821 V 17.294013 C 27.000163,17.131505 26.868539,17 26.706259,17 Z m -0.294386,0.588384 z"
       id="path98-2-5-3-6"
       style="fill:#d6dbf1;fill-opacity:1;stroke-width:0.0410998"
       sodipodi:nodetypes="csssssscccccccc" />
    <path
       d="M 22.706264,17 H 21.293901 C 21.131621,17 21,17.131831 21,17.294013 v 1.411808 C 21,18.868159 21.131461,19 21.293901,19 h 1.412198 C 22.868379,19 23,18.868159 23,18.705821 V 17.294013 C 23.000163,17.131505 22.868539,17 22.706259,17 Z m -0.294386,0.588384 z"
       id="path98-2-5-2"
       style="fill:#d6dbf1;fill-opacity:1;stroke-width:0.0410998"
       sodipodi:nodetypes="csssssscccccccc" />
    <path
       d="M 18.706264,17 H 17.293901 C 17.131621,17 17,17.131831 17,17.294013 v 1.411808 C 17,18.868159 17.131461,19 17.293901,19 h 1.412198 C 18.868379,19 19,18.868159 19,18.705821 V 17.294013 C 19.000163,17.131505 18.868539,17 18.706259,17 Z m -0.294386,0.588384 z"
       id="path98-2-7-9"
       style="fill:#d6dbf1;fill-opacity:1;stroke-width:0.0410998"
       sodipodi:nodetypes="csssssscccccccc" />
    <path
       d="M 14.706264,17 H 13.293901 C 13.131621,17 13,17.131831 13,17.294013 v 1.411808 C 13,18.868159 13.131461,19 13.293901,19 h 1.412198 C 14.868379,19 15,18.868159 15,18.705821 V 17.294013 C 15.000164,17.131505 14.868539,17 14.706259,17 Z m -0.294386,0.588384 z"
       id="path98-2-6-1"
       style="fill:#d6dbf1;fill-opacity:1;stroke-width:0.0410998"
       sodipodi:nodetypes="csssssscccccccc" />
    <path
       d="M 10.706264,17 H 9.293901 C 9.131621,17 9,17.131831 9,17.294013 v 1.411808 C 9,18.868159 9.131461,19 9.293901,19 h 1.412198 C 10.868379,19 11,18.868159 11,18.705821 V 17.294013 C 11.000163,17.131505 10.868539,17 10.706259,17 Z m -0.294386,0.588384 z"
       id="path98-2-3-3-2"
       style="fill:#d6dbf1;fill-opacity:1;stroke-width:0.0410998"
       sodipodi:nodetypes="csssssscccccccc" />
    <path
       d="M 22.706034,21 H 21.294457 C 21.131494,21 21,21.131897 21,21.294329 V 22.70583 C 21,22.868264 21.13149,23 21.294457,23 h 1.411577 C 22.868351,23 23,22.868423 23,22.70583 V 21.294329 C 23,21.131897 22.868351,21 22.706034,21 Z m -0.293968,0.588791 z"
       id="path68-6-7"
       style="fill:#d6dbf1;fill-opacity:1;stroke-width:0.0411146"
       sodipodi:nodetypes="sssssssssccccc" />
    <path
       d="M 26.70568,21 H 25.294309 C 25.131432,21 25,21.131897 25,21.294329 V 22.70583 C 25,22.868264 25.131429,23 25.294309,23 H 26.70568 C 26.867923,23 27,22.868423 27,22.70583 V 21.294329 C 27.000163,21.131897 26.867764,21 26.70568,21 Z m -0.293833,0.588791 z"
       id="path74-7-0"
       style="fill:#d6dbf1;fill-opacity:1;stroke-width:0.0411049"
       sodipodi:nodetypes="ssssssscsccccc" />
    <path
       d="M 18.706028,21 H 17.293972 C 17.13165,21 17,21.131897 17,21.294329 V 22.70583 C 17,22.868264 17.131492,23 17.293972,23 h 1.412056 C 18.868349,23 19,22.868423 19,22.70583 V 21.294329 C 19,21.131897 18.868507,21 18.706028,21 Z m -0.294455,0.588791 z"
       id="path80-5-9"
       style="fill:#d6dbf1;fill-opacity:1;stroke-width:0.0411149"
       sodipodi:nodetypes="sssssssssccccc" />
    <path
       d="M 15.688282,21 H 8.311724 C 8.139209,21 8,21.131897 8,21.294329 V 22.70583 C 8,22.868264 8.139204,23 8.311724,23 h 7.376558 C 15.860121,23 16,22.868423 16,22.70583 V 21.294329 C 16,21.131897 15.860294,21 15.688282,21 Z m -0.311208,1.411847 z"
       id="path94-5-3-3"
       style="fill:#d6dbf1;fill-opacity:1;stroke-width:0.0423031"
       sodipodi:nodetypes="sssssssssccccc" />
    <path
       d="M 6.706264,17 H 5.293901 C 5.131621,17 5,17.131831 5,17.294013 v 1.411808 C 5,18.868159 5.131461,19 5.293901,19 H 6.706099 C 6.868379,19 7,18.868159 7,18.705821 V 17.294013 C 7.000163,17.131505 6.868539,17 6.706259,17 Z m -0.294386,0.588384 z"
       id="path98-2-56-6"
       style="fill:#d6dbf1;fill-opacity:1;stroke-width:0.0410998"
       sodipodi:nodetypes="csssssscccccccc" />
    <path
       d="M 6.706264,21 H 5.2939 C 5.131621,21 5,21.131897 5,21.294329 V 22.70583 C 5,22.868264 5.131461,23 5.2939,23 H 6.706099 C 6.868379,23 7,22.868423 7,22.70583 V 21.294329 C 7.000164,21.131897 6.86854,21 6.706259,21 Z m -0.294385,0.588791 z"
       id="path100-9-2-0"
       style="fill:#d6dbf1;fill-opacity:1;stroke-width:0.0411098"
       sodipodi:nodetypes="csssssscccccccc" />
    <path
       d="m 27.578836,11 h -5.450455 v -10e-4 c 0,10e-4 -0.334443,-0.443629 -0.7583,-0.482632 C 21.331811,10.371177 20.876945,8.71482 19.595747,8.126331 18.89711,7.804666 18.107609,7.86319 17.253013,8.302814 c 0,3.75e-4 -0.0018,0 -0.0018,3.75e-4 -0.0156,0.0081 -1.605838,0.808774 -2.851471,0.326637 -0.560785,-0.216784 -0.9638,-0.657129 -1.230589,-1.345396 -0.0896,-0.230755 -0.345869,-0.343743 -0.575132,-0.253208 -0.227434,0.09132 -0.33916,0.352032 -0.250106,0.583162 0.360197,0.924704 0.946575,1.549801 1.744387,1.857332 0.396654,0.152548 0.808166,0.210696 1.205005,0.210696 1.219353,0 2.299229,-0.546372 2.357592,-0.577085 0.602666,-0.30952 1.133364,-0.36509 1.576448,-0.16102 0.694087,0.317444 1.071334,1.175142 1.217543,1.587158 C 20.059661,10.603405 19.764035,11 19.764035,11 v 0 H 4.422996 C 3.63786,11 3,11.683901 3,12.48 V 23.558743 C 3,24.353138 3.63786,25 4.422996,25 H 27.578257 C 28.362837,25 29,24.353191 29,23.558743 V 12.48 C 29.000186,11.683941 28.363023,11 27.578443,11 Z m -7.150733,0.298994 c 0,-0.06656 0.0789,-0.123479 0.171574,-0.123479 h 0.694087 c 0.09195,0 0.17085,0.05683 0.17085,0.123479 v 0.136721 H 20.428475 V 11.298994 Z M 28,23.558663 C 28,23.858066 27.87443,23.999995 27.578789,24 L 4.423528,24.000415 C 4.127897,24.00042 4,23.857894 4,23.558663 V 12.679 C 4,12.378674 4.128392,12 4.424,12 H 27.379 C 27.674631,12 28,12.378704 28,12.679 Z"
       id="path102-1-9-6"
       style="fill:#d6dbf1;fill-opacity:1;stroke-width:0.0467684"
       sodipodi:nodetypes="ccccccccccccscccsccsssssccccssscccccssccsscc" />
  </g>
  <g
     id="input-keyboard-virtual-off"
     transform="translate(0,32)">
    <rect
       style="fill:none;fill-rule:evenodd;stroke:none;stroke-width:1.45455px;stroke-linecap:butt;stroke-linejoin:miter;stroke-opacity:1"
       id="rect4176"
       width="32"
       height="32"
       x="0"
       y="0" />
    <path
       d="M 26.706264,13 H 25.293901 C 25.131621,13 25,13.131831 25,13.294013 v 1.411808 C 25,14.868159 25.131461,15 25.293901,15 h 1.412198 C 26.868379,15 27,14.868159 27,14.705821 V 13.294013 C 27.000163,13.131505 26.868539,13 26.706259,13 Z m -0.294386,0.588384 z"
       id="path98-2-5-3-5-2"
       style="fill:#d6dbf1;fill-opacity:1;stroke-width:0.0410998"
       sodipodi:nodetypes="csssssscccccccc" />
    <path
       d="M 22.706264,13 H 21.293901 C 21.131621,13 21,13.131831 21,13.294013 v 1.411808 C 21,14.868159 21.131461,15 21.293901,15 h 1.412198 C 22.868379,15 23,14.868159 23,14.705821 V 13.294013 C 23.000163,13.131505 22.868539,13 22.706259,13 Z m -0.294386,0.588384 z"
       id="path98-2-5-6-61"
       style="fill:#d6dbf1;fill-opacity:1;stroke-width:0.0410998"
       sodipodi:nodetypes="csssssscccccccc" />
    <path
       d="M 18.706264,13 H 17.293901 C 17.131621,13 17,13.131831 17,13.294013 v 1.411808 C 17,14.868159 17.131461,15 17.293901,15 h 1.412198 C 18.868379,15 19,14.868159 19,14.705821 V 13.294013 C 19.000163,13.131505 18.868539,13 18.706259,13 Z m -0.294386,0.588384 z"
       id="path98-2-7-2-8"
       style="fill:#d6dbf1;fill-opacity:1;stroke-width:0.0410998"
       sodipodi:nodetypes="csssssscccccccc" />
    <path
       d="M 14.706264,13 H 13.293901 C 13.131621,13 13,13.131831 13,13.294013 v 1.411808 C 13,14.868159 13.131461,15 13.293901,15 h 1.412198 C 14.868379,15 15,14.868159 15,14.705821 V 13.294013 C 15.000164,13.131505 14.868539,13 14.706259,13 Z m -0.294386,0.588384 z"
       id="path98-2-6-9-7"
       style="fill:#d6dbf1;fill-opacity:1;stroke-width:0.0410998"
       sodipodi:nodetypes="csssssscccccccc" />
    <path
       d="M 10.706264,13 H 9.293901 C 9.131621,13 9,13.131831 9,13.294013 v 1.411808 C 9,14.868159 9.131461,15 9.293901,15 h 1.412198 C 10.868379,15 11,14.868159 11,14.705821 V 13.294013 C 11.000163,13.131505 10.868539,13 10.706259,13 Z m -0.294386,0.588384 z"
       id="path98-2-3-1-9"
       style="fill:#d6dbf1;fill-opacity:1;stroke-width:0.0410998"
       sodipodi:nodetypes="csssssscccccccc" />
    <path
       d="M 6.706264,13 H 5.293901 C 5.131621,13 5,13.131831 5,13.294013 v 1.411808 C 5,14.868159 5.131461,15 5.293901,15 H 6.706099 C 6.868379,15 7,14.868159 7,14.705821 V 13.294013 C 7.000163,13.131505 6.868539,13 6.706259,13 Z m -0.294386,0.588384 z"
       id="path98-2-2-2"
       style="fill:#d6dbf1;fill-opacity:1;stroke-width:0.0410998"
       sodipodi:nodetypes="csssssscccccccc" />
    <path
       d="M 26.706264,17 H 25.293901 C 25.131621,17 25,17.131831 25,17.294013 v 1.411808 C 25,18.868159 25.131461,19 25.293901,19 h 1.412198 C 26.868379,19 27,18.868159 27,18.705821 V 17.294013 C 27.000163,17.131505 26.868539,17 26.706259,17 Z m -0.294386,0.588384 z"
       id="path98-2-5-3-0"
       style="fill:#d6dbf1;fill-opacity:1;stroke-width:0.0410998"
       sodipodi:nodetypes="csssssscccccccc" />
    <path
       d="M 22.706264,17 H 21.293901 C 21.131621,17 21,17.131831 21,17.294013 v 1.411808 C 21,18.868159 21.131461,19 21.293901,19 h 1.412198 C 22.868379,19 23,18.868159 23,18.705821 V 17.294013 C 23.000163,17.131505 22.868539,17 22.706259,17 Z m -0.294386,0.588384 z"
       id="path98-2-5-23"
       style="fill:#d6dbf1;fill-opacity:1;stroke-width:0.0410998"
       sodipodi:nodetypes="csssssscccccccc" />
    <path
       d="M 18.706264,17 H 17.293901 C 17.131621,17 17,17.131831 17,17.294013 v 1.411808 C 17,18.868159 17.131461,19 17.293901,19 h 1.412198 C 18.868379,19 19,18.868159 19,18.705821 V 17.294013 C 19.000163,17.131505 18.868539,17 18.706259,17 Z m -0.294386,0.588384 z"
       id="path98-2-7-7"
       style="fill:#d6dbf1;fill-opacity:1;stroke-width:0.0410998"
       sodipodi:nodetypes="csssssscccccccc" />
    <path
       d="M 14.706264,17 H 13.293901 C 13.131621,17 13,17.131831 13,17.294013 v 1.411808 C 13,18.868159 13.131461,19 13.293901,19 h 1.412198 C 14.868379,19 15,18.868159 15,18.705821 V 17.294013 C 15.000164,17.131505 14.868539,17 14.706259,17 Z m -0.294386,0.588384 z"
       id="path98-2-6-5"
       style="fill:#d6dbf1;fill-opacity:1;stroke-width:0.0410998"
       sodipodi:nodetypes="csssssscccccccc" />
    <path
       d="M 10.706264,17 H 9.293901 C 9.131621,17 9,17.131831 9,17.294013 v 1.411808 C 9,18.868159 9.131461,19 9.293901,19 h 1.412198 C 10.868379,19 11,18.868159 11,18.705821 V 17.294013 C 11.000163,17.131505 10.868539,17 10.706259,17 Z m -0.294386,0.588384 z"
       id="path98-2-3-3-9"
       style="fill:#d6dbf1;fill-opacity:1;stroke-width:0.0410998"
       sodipodi:nodetypes="csssssscccccccc" />
    <path
       d="M 22.706034,21 H 21.294457 C 21.131494,21 21,21.131897 21,21.294329 V 22.70583 C 21,22.868264 21.13149,23 21.294457,23 h 1.411577 C 22.868351,23 23,22.868423 23,22.70583 V 21.294329 C 23,21.131897 22.868351,21 22.706034,21 Z m -0.293968,0.588791 z"
       id="path68-6-2"
       style="fill:#d6dbf1;fill-opacity:1;stroke-width:0.0411146"
       sodipodi:nodetypes="sssssssssccccc" />
    <path
       d="M 26.70568,21 H 25.294309 C 25.131432,21 25,21.131897 25,21.294329 V 22.70583 C 25,22.868264 25.131429,23 25.294309,23 H 26.70568 C 26.867923,23 27,22.868423 27,22.70583 V 21.294329 C 27.000163,21.131897 26.867764,21 26.70568,21 Z m -0.293833,0.588791 z"
       id="path74-7-2"
       style="fill:#d6dbf1;fill-opacity:1;stroke-width:0.0411049"
       sodipodi:nodetypes="ssssssscsccccc" />
    <path
       d="M 18.706028,21 H 17.293972 C 17.13165,21 17,21.131897 17,21.294329 V 22.70583 C 17,22.868264 17.131492,23 17.293972,23 h 1.412056 C 18.868349,23 19,22.868423 19,22.70583 V 21.294329 C 19,21.131897 18.868507,21 18.706028,21 Z m -0.294455,0.588791 z"
       id="path80-5-8"
       style="fill:#d6dbf1;fill-opacity:1;stroke-width:0.0411149"
       sodipodi:nodetypes="sssssssssccccc" />
    <path
       d="M 15.688282,21 H 8.311724 C 8.139209,21 8,21.131897 8,21.294329 V 22.70583 C 8,22.868264 8.139204,23 8.311724,23 h 7.376558 C 15.860121,23 16,22.868423 16,22.70583 V 21.294329 C 16,21.131897 15.860294,21 15.688282,21 Z m -0.311208,1.411847 z"
       id="path94-5-3-9"
       style="fill:#d6dbf1;fill-opacity:1;stroke-width:0.0423031"
       sodipodi:nodetypes="sssssssssccccc" />
    <path
       d="M 6.706264,17 H 5.293901 C 5.131621,17 5,17.131831 5,17.294013 v 1.411808 C 5,18.868159 5.131461,19 5.293901,19 H 6.706099 C 6.868379,19 7,18.868159 7,18.705821 V 17.294013 C 7.000163,17.131505 6.868539,17 6.706259,17 Z m -0.294386,0.588384 z"
       id="path98-2-56-7"
       style="fill:#d6dbf1;fill-opacity:1;stroke-width:0.0410998"
       sodipodi:nodetypes="csssssscccccccc" />
    <path
       d="M 6.706264,21 H 5.2939 C 5.131621,21 5,21.131897 5,21.294329 V 22.70583 C 5,22.868264 5.131461,23 5.2939,23 H 6.706099 C 6.868379,23 7,22.868423 7,22.70583 V 21.294329 C 7.000164,21.131897 6.86854,21 6.706259,21 Z m -0.294385,0.588791 z"
       id="path100-9-2-3"
       style="fill:#d6dbf1;fill-opacity:1;stroke-width:0.0411098"
       sodipodi:nodetypes="csssssscccccccc" />
    <path
       d="m 27.578836,11 h -5.450455 v -10e-4 c 0,10e-4 -0.334443,-0.443629 -0.7583,-0.482632 C 21.331811,10.371177 20.876945,8.71482 19.595747,8.126331 18.89711,7.804666 18.107609,7.86319 17.253013,8.302814 c 0,3.75e-4 -0.0018,0 -0.0018,3.75e-4 -0.0156,0.0081 -1.605838,0.808774 -2.851471,0.326637 -0.560785,-0.216784 -0.9638,-0.657129 -1.230589,-1.345396 -0.0896,-0.230755 -0.345869,-0.343743 -0.575132,-0.253208 -0.227434,0.09132 -0.33916,0.352032 -0.250106,0.583162 0.360197,0.924704 0.946575,1.549801 1.744387,1.857332 0.396654,0.152548 0.808166,0.210696 1.205005,0.210696 1.219353,0 2.299229,-0.546372 2.357592,-0.577085 0.602666,-0.30952 1.133364,-0.36509 1.576448,-0.16102 0.694087,0.317444 1.071334,1.175142 1.217543,1.587158 C 20.059661,10.603405 19.764035,11 19.764035,11 v 0 H 4.422996 C 3.63786,11 3,11.683901 3,12.48 V 23.558743 C 3,24.353138 3.63786,25 4.422996,25 H 27.578257 C 28.362837,25 29,24.353191 29,23.558743 V 12.48 C 29.000186,11.683941 28.363023,11 27.578443,11 Z m -7.150733,0.298994 c 0,-0.06656 0.0789,-0.123479 0.171574,-0.123479 h 0.694087 c 0.09195,0 0.17085,0.05683 0.17085,0.123479 v 0.136721 H 20.428475 V 11.298994 Z M 28,23.558663 C 28,23.858066 27.87443,23.999995 27.578789,24 L 4.423528,24.000415 C 4.127897,24.00042 4,23.857894 4,23.558663 V 12.679 C 4,12.378674 4.128392,12 4.424,12 H 27.379 C 27.674631,12 28,12.378704 28,12.679 Z"
       id="path102-1-9-61"
       style="fill:#d6dbf1;fill-opacity:1;stroke-width:0.0467684"
       sodipodi:nodetypes="ccccccccccccscccsccsssssccccssscccccssccsscc" />
    <path
       id="path8-9-2"
       d="m 6.174705,3.5 a 2.4999996,2.4999855 0 0 0 -2.5,2.5 2.4999996,2.4999855 0 0 0 2.5,2.5 2.4999996,2.4999855 0 0 0 2.5,-2.5 2.4999996,2.4999855 0 0 0 -2.5,-2.5 z"
       style="fill:#bf616a;fill-opacity:1;stroke:none;stroke-width:1.45455"
       inkscape:connector-curvature="0" />
  </g>
  <g
     id="22-22-input-keyboard"
     transform="translate(-22,-22)">
    <rect
       y="0"
       x="0"
       height="22"
       width="22"
       id="rect4147"
       style="fill:none;fill-rule:evenodd;stroke:none;stroke-width:1px;stroke-linecap:butt;stroke-linejoin:miter;stroke-opacity:1" />
    <path
       d="M 18.852834,15 H 18.147151 C 18.065711,15 18,15.06593 18,15.147166 v 0.705752 C 18,15.934128 18.06574,16 18.147151,16 h 0.705683 C 18.933954,16 19,15.93426 19,15.852918 V 15.147166 C 19.00008,15.065944 18.933881,15 18.852834,15 Z m -0.146915,0.294395 z"
       id="path74-7-1"
       style="fill:#d6dbf1;fill-opacity:1;stroke-width:0.0205525"
       sodipodi:nodetypes="ssssssscsccccc" />
    <path
       d="M 15.852834,15 H 15.147151 C 15.065711,15 15,15.06593 15,15.147166 v 0.705752 C 15,15.934128 15.06574,16 15.147151,16 h 0.705683 C 15.933954,16 16,15.93426 16,15.852918 V 15.147166 C 16.00008,15.065946 15.93388,15 15.852834,15 Z m -0.146915,0.294395 z"
       id="path74-7-1-626"
       style="fill:#d6dbf1;fill-opacity:1;stroke-width:0.0205525"
       sodipodi:nodetypes="ssssssscsccccc" />
    <path
       d="M 12.852834,15 H 12.147151 C 12.065711,15 12,15.06593 12,15.147166 v 0.705752 C 12,15.934128 12.06574,16 12.147151,16 h 0.705683 C 12.933954,16 13,15.93426 13,15.852918 V 15.147166 C 13.00008,15.065946 12.93388,15 12.852834,15 Z m -0.146915,0.294395 z"
       id="path74-7-1-8"
       style="fill:#d6dbf1;fill-opacity:1;stroke-width:0.0205525"
       sodipodi:nodetypes="ssssssscsccccc" />
    <path
       d="M 3.852834,15 H 3.147151 C 3.065711,15 3,15.06593 3,15.147166 v 0.705752 C 3,15.934128 3.06574,16 3.147151,16 H 3.852834 C 3.933954,16 4,15.93426 4,15.852918 V 15.147166 C 4.00008,15.065946 3.93388,15 3.852834,15 Z m -0.146915,0.294395 z"
       id="path74-7-1-1"
       style="fill:#d6dbf1;fill-opacity:1;stroke-width:0.0205525"
       sodipodi:nodetypes="ssssssscsccccc" />
    <path
       d="M 11,15 H 5.2683927 c -0.1340446,0 -0.2422109,0.06594 -0.2422109,0.147166 v 0.705751 C 5.0261818,15.934127 5.134341,16 5.2683927,16 H 11 c 0.133521,0 0.242207,-0.06576 0.242207,-0.147083 V 15.147166 C 11.242207,15.065946 11.133671,15 11,15 Z m -0.241811,0.705925 z"
       id="path94-5-3-6"
       style="fill:#d6dbf1;fill-opacity:1;stroke-width:0.0263671"
       sodipodi:nodetypes="sssssssssccccc" />
    <path
       d="m 19.906798,6.9999999 -4.192662,-0.044445 v -7.882e-4 c 0,7.882e-4 -0.257265,-0.3499735 -0.583306,-0.3807427 C 15.10138,6.459481 14.751493,5.1528026 13.765953,4.6885502 13.228543,4.4347919 12.621232,4.480961 11.963852,4.8277759 c 0,2.947e-4 -0.0014,0 -0.0014,2.947e-4 -0.012,0.00643 -1.235259,0.6380341 -2.1934382,0.2576811 C 9.3376629,4.9147324 9.0276509,4.5673498 8.8224287,4.0243835 8.7535037,3.8423434 8.5563766,3.7532086 8.3800194,3.8246309 8.2050705,3.8966765 8.1191268,4.1023449 8.1876306,4.2846797 8.4647045,5.014169 8.9157648,5.5073009 9.529467,5.749909 c 0.3051191,0.1203482 0.621665,0.1662156 0.926926,0.1662156 0.937967,0 1.768641,-0.4310268 1.813536,-0.4552555 0.463589,-0.2441773 0.871819,-0.2880159 1.212653,-0.1270287 0.533911,0.2504279 0.824101,0.9270561 0.93657,1.2520906 -0.296329,0.056753 -0.523735,0.3696217 -0.523735,0.3696217 v 0 L 2.0946131,6.9999999 C 1.4906616,7.0000005 1,7.4950764 1,8.1231096 V 16.863009 C 1,17.489696 1.4906616,18 2.0946131,18 H 19.906361 C 20.509872,18.000001 21,17.489742 21,16.86301 V 8.1231115 C 21.000142,7.4951086 20.510016,6.9999999 19.906492,6.9999999 Z m -5.500569,0.1914287 c 0,-0.05251 0.06068,-0.097414 0.13198,-0.097414 h 0.533915 c 0.07073,0 0.131422,0.04483 0.131422,0.097414 V 7.2992923 H 14.406515 V 7.1914286 Z M 20,16.763 c 0,0.236194 -0.293,0.248 -0.293,0.248 L 2.395,17 C 2,16.999749 1.9910714,16.663 1.9910714,16.663 V 8.3799998 c 0.00893,-0.38 0.4088572,-0.38 0.3999286,-0.38 h 17.162 c 0,0 0.447,0 0.447,0.48 z"
       id="path102-1-9-0"
       style="fill:#d6dbf1;fill-opacity:1;stroke-width:0.0364325"
       sodipodi:nodetypes="ccccccccccccscccsccsssssccccsssccccccscccccc" />
    <path
       d="M 18.852834,9 H 18.147151 C 18.065711,9 18,9.06593 18,9.147166 V 9.852918 C 18,9.934128 18.06574,10 18.147151,10 h 0.705683 C 18.933954,10 19,9.93426 19,9.852918 V 9.147166 C 19.00008,9.065944 18.933881,9 18.852834,9 Z m -0.146915,0.294395 z"
       id="path74-7-1-3"
       style="fill:#d6dbf1;fill-opacity:1;stroke-width:0.0205525"
       sodipodi:nodetypes="ssssssscsccccc" />
    <path
       d="M 9.852834,12 H 9.147151 C 9.065711,12 9,12.06593 9,12.147166 v 0.705752 C 9,12.934128 9.06574,13 9.147151,13 H 9.852834 C 9.933954,13 10,12.93426 10,12.852918 V 12.147166 C 10.00008,12.065944 9.933881,12 9.852834,12 Z m -0.146915,0.294395 z"
       id="path74-7-1-6"
       style="fill:#d6dbf1;fill-opacity:1;stroke-width:0.0205525"
       sodipodi:nodetypes="ssssssscsccccc" />
    <path
       d="M 12.852834,12 H 12.147151 C 12.065711,12 12,12.06593 12,12.147166 v 0.705752 C 12,12.934128 12.06574,13 12.147151,13 h 0.705683 C 12.933954,13 13,12.93426 13,12.852918 V 12.147166 C 13.00008,12.065946 12.93388,12 12.852834,12 Z m -0.146915,0.294395 z"
       id="path74-7-1-7"
       style="fill:#d6dbf1;fill-opacity:1;stroke-width:0.0205525"
       sodipodi:nodetypes="ssssssscsccccc" />
    <path
       d="M 12.852834,9 H 12.147151 C 12.065711,9 12,9.06593 12,9.147166 V 9.852918 C 12,9.934128 12.06574,10 12.147151,10 h 0.705683 C 12.933954,10 13,9.93426 13,9.852918 V 9.147166 C 13.00008,9.065944 12.933881,9 12.852834,9 Z m -0.146915,0.294395 z"
       id="path74-7-1-5"
       style="fill:#d6dbf1;fill-opacity:1;stroke-width:0.0205525"
       sodipodi:nodetypes="ssssssscsccccc" />
    <path
       d="M 6.852834,12 H 6.147151 C 6.065711,12 6,12.06593 6,12.147166 v 0.705752 C 6,12.934128 6.06574,13 6.147151,13 H 6.852834 C 6.933954,13 7,12.93426 7,12.852918 V 12.147166 C 7.00008,12.065944 6.933881,12 6.852834,12 Z m -0.146915,0.294395 z"
       id="path74-7-1-35"
       style="fill:#d6dbf1;fill-opacity:1;stroke-width:0.0205525"
       sodipodi:nodetypes="ssssssscsccccc" />
    <path
       d="M 3.852834,12 H 3.147151 C 3.065711,12 3,12.06593 3,12.147166 v 0.705752 C 3,12.934128 3.06574,13 3.147151,13 H 3.852834 C 3.933954,13 4,12.93426 4,12.852918 V 12.147166 C 4.00008,12.065944 3.933881,12 3.852834,12 Z m -0.146915,0.294395 z"
       id="path74-7-1-62"
       style="fill:#d6dbf1;fill-opacity:1;stroke-width:0.0205525"
       sodipodi:nodetypes="ssssssscsccccc" />
    <path
       d="M 3.852834,9 H 3.147151 C 3.065711,9 3,9.06593 3,9.147166 V 9.852918 C 3,9.934128 3.06574,10 3.147151,10 H 3.852834 C 3.933954,10 4,9.93426 4,9.852918 V 9.147166 C 4.00008,9.065944 3.933881,9 3.852834,9 Z M 3.705919,9.294395 Z"
       id="path74-7-1-91"
       style="fill:#d6dbf1;fill-opacity:1;stroke-width:0.0205525"
       sodipodi:nodetypes="ssssssscsccccc" />
    <path
       d="M 6.852834,9 H 6.147151 C 6.065711,9 6,9.06593 6,9.147166 V 9.852918 C 6,9.934128 6.06574,10 6.147151,10 H 6.852834 C 6.933954,10 7,9.93426 7,9.852918 V 9.147166 C 7.00008,9.065944 6.933881,9 6.852834,9 Z M 6.705919,9.294395 Z"
       id="path74-7-1-2"
       style="fill:#d6dbf1;fill-opacity:1;stroke-width:0.0205525"
       sodipodi:nodetypes="ssssssscsccccc" />
    <path
       d="M 9.852834,9 H 9.147151 C 9.065711,9 9,9.06593 9,9.147166 V 9.852918 C 9,9.934128 9.06574,10 9.147151,10 H 9.852834 C 9.933954,10 10,9.93426 10,9.852918 V 9.147166 C 10.00008,9.065944 9.933881,9 9.852834,9 Z M 9.705919,9.294395 Z"
       id="path74-7-1-70"
       style="fill:#d6dbf1;fill-opacity:1;stroke-width:0.0205525"
       sodipodi:nodetypes="ssssssscsccccc" />
    <path
       d="M 15.852834,9 H 15.147151 C 15.065711,9 15,9.06593 15,9.147166 V 9.852918 C 15,9.934128 15.06574,10 15.147151,10 h 0.705683 C 15.933954,10 16,9.93426 16,9.852918 V 9.147166 C 16.00008,9.065944 15.933881,9 15.852834,9 Z m -0.146915,0.294395 z"
       id="path74-7-1-93"
       style="fill:#d6dbf1;fill-opacity:1;stroke-width:0.0205525"
       sodipodi:nodetypes="ssssssscsccccc" />
    <path
       d="M 15.852834,12 H 15.147151 C 15.065711,12 15,12.06593 15,12.147166 v 0.705752 C 15,12.934128 15.06574,13 15.147151,13 h 0.705683 C 15.933954,13 16,12.93426 16,12.852918 V 12.147166 C 16.00008,12.065946 15.93388,12 15.852834,12 Z m -0.146915,0.294395 z"
       id="path74-7-1-7-6"
       style="fill:#d6dbf1;fill-opacity:1;stroke-width:0.0205525"
       sodipodi:nodetypes="ssssssscsccccc" />
    <path
       d="M 18.852834,12 H 18.147151 C 18.065711,12 18,12.06593 18,12.147166 v 0.705752 C 18,12.934128 18.06574,13 18.147151,13 h 0.705683 C 18.933954,13 19,12.93426 19,12.852918 V 12.147166 C 19.00008,12.065946 18.93388,12 18.852834,12 Z m -0.146915,0.294395 z"
       id="path74-7-1-7-0"
       style="fill:#d6dbf1;fill-opacity:1;stroke-width:0.0205525"
       sodipodi:nodetypes="ssssssscsccccc" />
  </g>
  <g
     id="22-22-input-keyboard-virtual-off"
     transform="translate(-22,42)">
    <rect
       style="fill:none;fill-opacity:1;stroke:none;stroke-linejoin:bevel"
       id="rect4172"
       width="22"
       height="22"
       x="0"
       y="0" />
    <path
       id="path8-9-2-6"
       d="M 4.4,2.5 A 1.4999996,1.4999915 0 0 0 2.9,4 1.4999996,1.4999915 0 0 0 4.4,5.5 1.4999996,1.4999915 0 0 0 5.9,4 1.4999996,1.4999915 0 0 0 4.4,2.5 Z"
       style="fill:#bf616a;fill-opacity:1;stroke:none;stroke-width:0.872745"
       inkscape:connector-curvature="0" />
    <path
       d="M 18.852834,14.999995 H 18.147151 C 18.065711,14.999995 18,15.065925 18,15.147161 v 0.705752 c 0,0.08121 0.06574,0.147082 0.147151,0.147082 h 0.705683 C 18.933954,15.999995 19,15.934255 19,15.852913 v -0.705752 c 8e-5,-0.08122 -0.06612,-0.147166 -0.147166,-0.147166 z m -0.146915,0.294395 z"
       id="path74-7-1-19"
       style="fill:#d6dbf1;fill-opacity:1;stroke-width:0.0205525"
       sodipodi:nodetypes="ssssssscsccccc" />
    <path
       d="M 15.852834,14.999995 H 15.147151 C 15.065711,14.999995 15,15.065925 15,15.147161 v 0.705752 c 0,0.08121 0.06574,0.147082 0.147151,0.147082 h 0.705683 C 15.933954,15.999995 16,15.934255 16,15.852913 v -0.705752 c 8e-5,-0.08122 -0.06612,-0.147166 -0.147166,-0.147166 z m -0.146915,0.294395 z"
       id="path74-7-1-626-4"
       style="fill:#d6dbf1;fill-opacity:1;stroke-width:0.0205525"
       sodipodi:nodetypes="ssssssscsccccc" />
    <path
       d="M 12.852834,14.999995 H 12.147151 C 12.065711,14.999995 12,15.065925 12,15.147161 v 0.705752 c 0,0.08121 0.06574,0.147082 0.147151,0.147082 h 0.705683 C 12.933954,15.999995 13,15.934255 13,15.852913 v -0.705752 c 8e-5,-0.08122 -0.06612,-0.147166 -0.147166,-0.147166 z m -0.146915,0.294395 z"
       id="path74-7-1-8-7"
       style="fill:#d6dbf1;fill-opacity:1;stroke-width:0.0205525"
       sodipodi:nodetypes="ssssssscsccccc" />
    <path
       d="M 3.852834,14.999995 H 3.147151 C 3.065711,14.999995 3,15.065925 3,15.147161 v 0.705752 c 0,0.08121 0.06574,0.147082 0.147151,0.147082 H 3.852834 C 3.933954,15.999995 4,15.934255 4,15.852913 v -0.705752 c 8e-5,-0.08122 -0.06612,-0.147166 -0.147166,-0.147166 z M 3.705919,15.29439 Z"
       id="path74-7-1-1-8"
       style="fill:#d6dbf1;fill-opacity:1;stroke-width:0.0205525"
       sodipodi:nodetypes="ssssssscsccccc" />
    <path
       d="M 11,14.999995 H 5.268393 c -0.134045,0 -0.242211,0.06594 -0.242211,0.147166 v 0.705751 c 0,0.08121 0.108159,0.147083 0.242211,0.147083 H 11 c 0.133521,0 0.242207,-0.06576 0.242207,-0.147083 v -0.705751 c 0,-0.08122 -0.108536,-0.147166 -0.242207,-0.147166 z m -0.241811,0.705925 z"
       id="path94-5-3-6-4"
       style="fill:#d6dbf1;fill-opacity:1;stroke-width:0.0263671"
       sodipodi:nodetypes="sssssssssccccc" />
    <path
       d="m 19.906798,6.9999948 -4.192662,-0.04444 v -7.88e-4 c 0,7.88e-4 -0.257265,-0.349974 -0.583306,-0.380743 -0.02945,-0.114543 -0.379337,-1.421221 -1.364877,-1.885474 -0.53741,-0.253758 -1.144721,-0.207589 -1.802101,0.139226 0,2.95e-4 -0.0014,0 -0.0014,2.95e-4 -0.012,0.0064 -1.235259,0.638034 -2.193438,0.257681 -0.431351,-0.17102 -0.741363,-0.518402 -0.946585,-1.061369 -0.06893,-0.18204 -0.266052,-0.271174 -0.44241,-0.199752 -0.174949,0.07205 -0.260892,0.277714 -0.192388,0.460049 0.277073,0.729489 0.728134,1.222621 1.341836,1.465229 0.305119,0.120348 0.621665,0.166216 0.926926,0.166216 0.937967,0 1.768641,-0.431027 1.813536,-0.455256 0.463589,-0.244177 0.871819,-0.288016 1.212653,-0.127029 0.533911,0.250428 0.824101,0.927056 0.93657,1.252091 -0.296329,0.05675 -0.523735,0.369622 -0.523735,0.369622 v 0 L 2.094613,6.9999948 C 1.490662,6.9999948 1,7.4950708 1,8.1231048 v 8.7398992 c 0,0.626687 0.490662,1.136991 1.094613,1.136991 H 19.906361 C 20.509872,17.999996 21,17.489737 21,16.863005 V 8.1231058 c 1.42e-4,-0.628002 -0.489984,-1.123111 -1.093508,-1.123111 z m -5.500569,0.191429 c 0,-0.05251 0.06068,-0.09741 0.13198,-0.09741 h 0.533915 c 0.07073,0 0.131422,0.04483 0.131422,0.09741 v 0.107863 H 14.406515 V 7.1914238 Z M 20,16.762995 c 0,0.236194 -0.293,0.248 -0.293,0.248 l -17.312,-0.011 C 2,16.999744 1.991071,16.662995 1.991071,16.662995 V 8.3799948 c 0.00893,-0.38 0.408858,-0.38 0.399929,-0.38 h 17.162 c 0,0 0.447,0 0.447,0.4800002 z"
       id="path102-1-9-0-5"
       style="fill:#d6dbf1;fill-opacity:1;stroke-width:0.0364325"
       sodipodi:nodetypes="ccccccccccccscccsccsssssccccsssccccccscccccc" />
    <path
       d="M 18.852834,8.999995 H 18.147151 C 18.065711,8.999995 18,9.065925 18,9.147161 v 0.705752 c 0,0.08121 0.06574,0.147082 0.147151,0.147082 h 0.705683 C 18.933954,9.999995 19,9.934255 19,9.852913 V 9.147161 c 8e-5,-0.08122 -0.06612,-0.147166 -0.147166,-0.147166 z M 18.705919,9.29439 Z"
       id="path74-7-1-3-0"
       style="fill:#d6dbf1;fill-opacity:1;stroke-width:0.0205525"
       sodipodi:nodetypes="ssssssscsccccc" />
    <path
       d="M 9.852834,11.999995 H 9.147151 C 9.065711,11.999995 9,12.065925 9,12.147161 v 0.705752 c 0,0.08121 0.06574,0.147082 0.147151,0.147082 H 9.852834 C 9.933954,12.999995 10,12.934255 10,12.852913 v -0.705752 c 8e-5,-0.08122 -0.06612,-0.147166 -0.147166,-0.147166 z M 9.705919,12.29439 Z"
       id="path74-7-1-6-3"
       style="fill:#d6dbf1;fill-opacity:1;stroke-width:0.0205525"
       sodipodi:nodetypes="ssssssscsccccc" />
    <path
       d="M 12.852834,11.999995 H 12.147151 C 12.065711,11.999995 12,12.065925 12,12.147161 v 0.705752 c 0,0.08121 0.06574,0.147082 0.147151,0.147082 h 0.705683 C 12.933954,12.999995 13,12.934255 13,12.852913 v -0.705752 c 8e-5,-0.08122 -0.06612,-0.147166 -0.147166,-0.147166 z m -0.146915,0.294395 z"
       id="path74-7-1-7-61"
       style="fill:#d6dbf1;fill-opacity:1;stroke-width:0.0205525"
       sodipodi:nodetypes="ssssssscsccccc" />
    <path
       d="M 12.852834,8.999995 H 12.147151 C 12.065711,8.999995 12,9.065925 12,9.147161 v 0.705752 c 0,0.08121 0.06574,0.147082 0.147151,0.147082 h 0.705683 C 12.933954,9.999995 13,9.934255 13,9.852913 V 9.147161 c 8e-5,-0.08122 -0.06612,-0.147166 -0.147166,-0.147166 z M 12.705919,9.29439 Z"
       id="path74-7-1-5-0"
       style="fill:#d6dbf1;fill-opacity:1;stroke-width:0.0205525"
       sodipodi:nodetypes="ssssssscsccccc" />
    <path
       d="M 6.852834,11.999995 H 6.147151 C 6.065711,11.999995 6,12.065925 6,12.147161 v 0.705752 c 0,0.08121 0.06574,0.147082 0.147151,0.147082 H 6.852834 C 6.933954,12.999995 7,12.934255 7,12.852913 v -0.705752 c 8e-5,-0.08122 -0.066119,-0.147166 -0.147166,-0.147166 z M 6.705919,12.29439 Z"
       id="path74-7-1-35-6"
       style="fill:#d6dbf1;fill-opacity:1;stroke-width:0.0205525"
       sodipodi:nodetypes="ssssssscsccccc" />
    <path
       d="M 3.852834,11.999995 H 3.147151 C 3.065711,11.999995 3,12.065925 3,12.147161 v 0.705752 c 0,0.08121 0.06574,0.147082 0.147151,0.147082 H 3.852834 C 3.933954,12.999995 4,12.934255 4,12.852913 v -0.705752 c 8e-5,-0.08122 -0.066119,-0.147166 -0.147166,-0.147166 z M 3.705919,12.29439 Z"
       id="path74-7-1-62-3"
       style="fill:#d6dbf1;fill-opacity:1;stroke-width:0.0205525"
       sodipodi:nodetypes="ssssssscsccccc" />
    <path
       d="M 3.852834,8.999995 H 3.147151 C 3.065711,8.999995 3,9.065925 3,9.147161 v 0.705752 c 0,0.08121 0.06574,0.147082 0.147151,0.147082 H 3.852834 C 3.933954,9.999995 4,9.934255 4,9.852913 V 9.147161 C 4.00008,9.065941 3.933881,8.999995 3.852834,8.999995 Z M 3.705919,9.29439 Z"
       id="path74-7-1-91-2"
       style="fill:#d6dbf1;fill-opacity:1;stroke-width:0.0205525"
       sodipodi:nodetypes="ssssssscsccccc" />
    <path
       d="M 6.852834,8.999995 H 6.147151 C 6.065711,8.999995 6,9.065925 6,9.147161 v 0.705752 c 0,0.08121 0.06574,0.147082 0.147151,0.147082 H 6.852834 C 6.933954,9.999995 7,9.934255 7,9.852913 V 9.147161 C 7.00008,9.065941 6.933881,8.999995 6.852834,8.999995 Z M 6.705919,9.29439 Z"
       id="path74-7-1-2-0"
       style="fill:#d6dbf1;fill-opacity:1;stroke-width:0.0205525"
       sodipodi:nodetypes="ssssssscsccccc" />
    <path
       d="M 9.852834,8.999995 H 9.147151 C 9.065711,8.999995 9,9.065925 9,9.147161 v 0.705752 c 0,0.08121 0.06574,0.147082 0.147151,0.147082 H 9.852834 C 9.933954,9.999995 10,9.934255 10,9.852913 V 9.147161 C 10.00008,9.065941 9.93388,8.999995 9.852834,8.999995 Z M 9.705919,9.29439 Z"
       id="path74-7-1-70-6"
       style="fill:#d6dbf1;fill-opacity:1;stroke-width:0.0205525"
       sodipodi:nodetypes="ssssssscsccccc" />
    <path
       d="M 15.852834,8.999995 H 15.147151 C 15.065711,8.999995 15,9.065925 15,9.147161 v 0.705752 c 0,0.08121 0.06574,0.147082 0.147151,0.147082 h 0.705683 C 15.933954,9.999995 16,9.934255 16,9.852913 V 9.147161 c 8e-5,-0.08122 -0.06612,-0.147166 -0.147166,-0.147166 z M 15.705919,9.29439 Z"
       id="path74-7-1-93-1"
       style="fill:#d6dbf1;fill-opacity:1;stroke-width:0.0205525"
       sodipodi:nodetypes="ssssssscsccccc" />
    <path
       d="M 15.852834,11.999995 H 15.147151 C 15.065711,11.999995 15,12.065925 15,12.147161 v 0.705752 c 0,0.08121 0.06574,0.147082 0.147151,0.147082 h 0.705683 C 15.933954,12.999995 16,12.934255 16,12.852913 v -0.705752 c 8e-5,-0.08122 -0.06612,-0.147166 -0.147166,-0.147166 z m -0.146915,0.294395 z"
       id="path74-7-1-7-6-5"
       style="fill:#d6dbf1;fill-opacity:1;stroke-width:0.0205525"
       sodipodi:nodetypes="ssssssscsccccc" />
    <path
       d="M 18.852834,11.999995 H 18.147151 C 18.065711,11.999995 18,12.065925 18,12.147161 v 0.705752 c 0,0.08121 0.06574,0.147082 0.147151,0.147082 h 0.705683 C 18.933954,12.999995 19,12.934255 19,12.852913 v -0.705752 c 8e-5,-0.08122 -0.06612,-0.147166 -0.147166,-0.147166 z m -0.146915,0.294395 z"
       id="path74-7-1-7-0-5"
       style="fill:#d6dbf1;fill-opacity:1;stroke-width:0.0205525"
       sodipodi:nodetypes="ssssssscsccccc" />
  </g>
  <g
     id="22-22-input-keyboard-virtual-on"
     transform="translate(-22,10)">
    <path
       id="path8"
       d="M 4.4,2.5 A 1.4999997,1.4999915 0 0 0 2.9,4 1.4999997,1.4999915 0 0 0 4.4,5.5 1.4999997,1.4999915 0 0 0 5.9,4 1.4999997,1.4999915 0 0 0 4.4,2.5 Z"
       style="fill:#7b96b7;fill-opacity:1;stroke:none;stroke-width:0.6"
       inkscape:connector-curvature="0" />
    <rect
       y="0"
       x="0"
       height="22"
       width="22"
       id="rect4140"
       style="fill:none;fill-opacity:1;stroke:none;stroke-linejoin:bevel" />
    <path
       d="M 18.852834,14.000005 H 18.147151 C 18.065711,14.000005 18,14.065935 18,14.147171 v 0.705752 c 0,0.08121 0.06574,0.147082 0.147151,0.147082 h 0.705683 C 18.933954,15.000005 19,14.934265 19,14.852923 v -0.705752 c 8e-5,-0.08122 -0.06612,-0.147166 -0.147166,-0.147166 z M 18.705919,14.2944 Z"
       id="path74-7-1-79"
       style="fill:#d6dbf1;fill-opacity:1;stroke-width:0.0205525"
       sodipodi:nodetypes="ssssssscsccccc" />
    <path
       d="M 15.852834,14.000005 H 15.147151 C 15.065711,14.000005 15,14.065935 15,14.147171 v 0.705752 c 0,0.08121 0.06574,0.147082 0.147151,0.147082 h 0.705683 C 15.933954,15.000005 16,14.934265 16,14.852923 v -0.705752 c 8e-5,-0.08122 -0.06612,-0.147166 -0.147166,-0.147166 z M 15.705919,14.2944 Z"
       id="path74-7-1-626-2"
       style="fill:#d6dbf1;fill-opacity:1;stroke-width:0.0205525"
       sodipodi:nodetypes="ssssssscsccccc" />
    <path
       d="M 12.852834,14.000005 H 12.147151 C 12.065711,14.000005 12,14.065935 12,14.147171 v 0.705752 c 0,0.08121 0.06574,0.147082 0.147151,0.147082 h 0.705683 C 12.933954,15.000005 13,14.934265 13,14.852923 v -0.705752 c 8e-5,-0.08122 -0.06612,-0.147166 -0.147166,-0.147166 z M 12.705919,14.2944 Z"
       id="path74-7-1-8-0"
       style="fill:#d6dbf1;fill-opacity:1;stroke-width:0.0205525"
       sodipodi:nodetypes="ssssssscsccccc" />
    <path
       d="M 3.852834,14.000005 H 3.147151 C 3.065711,14.000005 3,14.065935 3,14.147171 v 0.705752 c 0,0.08121 0.06574,0.147082 0.147151,0.147082 H 3.852834 C 3.933954,15.000005 4,14.934265 4,14.852923 v -0.705752 c 8e-5,-0.08122 -0.06612,-0.147166 -0.147166,-0.147166 z M 3.705919,14.2944 Z"
       id="path74-7-1-1-2"
       style="fill:#d6dbf1;fill-opacity:1;stroke-width:0.0205525"
       sodipodi:nodetypes="ssssssscsccccc" />
    <path
       d="M 11,14.000005 H 5.268393 c -0.134045,0 -0.242211,0.06594 -0.242211,0.147166 v 0.705751 c 0,0.08121 0.108159,0.147083 0.242211,0.147083 H 11 c 0.133521,0 0.242207,-0.06576 0.242207,-0.147083 v -0.705751 c 0,-0.08122 -0.108536,-0.147166 -0.242207,-0.147166 z m -0.241811,0.705925 z"
       id="path94-5-3-6-3"
       style="fill:#d6dbf1;fill-opacity:1;stroke-width:0.0263671"
       sodipodi:nodetypes="sssssssssccccc" />
    <path
       d="m 19.906798,6.0000048 -4.192662,-0.04445 v -7.88e-4 c 0,7.88e-4 -0.257265,-0.349974 -0.583306,-0.380743 -0.02945,-0.114543 -0.379337,-1.421221 -1.364877,-1.885474 -0.53741,-0.253758 -1.144721,-0.207589 -1.802101,0.139226 0,2.95e-4 -0.0014,0 -0.0014,2.95e-4 -0.012,0.0064 -1.235259,0.638034 -2.193438,0.257681 -0.431351,-0.17102 -0.741363,-0.518402 -0.946585,-1.061369 -0.06893,-0.18204 -0.266052,-0.271174 -0.44241,-0.199752 -0.174949,0.07205 -0.260892,0.277714 -0.192388,0.460049 0.277073,0.729489 0.728134,1.222621 1.341836,1.465229 0.305119,0.120348 0.621665,0.166216 0.926926,0.166216 0.937967,0 1.768641,-0.431027 1.813536,-0.455256 0.463589,-0.244177 0.871819,-0.288016 1.212653,-0.127029 0.533911,0.250428 0.824101,0.927056 0.93657,1.252091 -0.296329,0.05675 -0.523735,0.369622 -0.523735,0.369622 v 0 L 2.094613,6.0000048 C 1.490662,6.0000048 1,6.4950808 1,7.1231148 v 8.7398992 c 0,0.626687 0.490662,1.136991 1.094613,1.136991 H 19.906361 C 20.509872,17.000006 21,16.489747 21,15.863015 V 7.1231158 c 1.42e-4,-0.628002 -0.489984,-1.123111 -1.093508,-1.123111 z m -5.500569,0.191429 c 0,-0.05251 0.06068,-0.09741 0.13198,-0.09741 h 0.533915 c 0.07073,0 0.131422,0.04483 0.131422,0.09741 v 0.107863 H 14.406515 V 6.1914338 Z M 20,15.763005 c 0,0.236194 -0.293,0.248 -0.293,0.248 l -17.312,-0.011 C 2,15.999754 1.991071,15.663005 1.991071,15.663005 V 7.3800048 c 0.00893,-0.38 0.408858,-0.38 0.399929,-0.38 h 17.162 c 0,0 0.447,0 0.447,0.48 z"
       id="path102-1-9-0-75"
       style="fill:#d6dbf1;fill-opacity:1;stroke-width:0.0364325"
       sodipodi:nodetypes="ccccccccccccscccsccsssssccccsssccccccscccccc" />
    <path
       d="M 18.852834,8.0000048 H 18.147151 C 18.065711,8.0000048 18,8.0659348 18,8.1471708 v 0.705752 c 0,0.08121 0.06574,0.147082 0.147151,0.147082 h 0.705683 C 18.933954,9.0000048 19,8.9342648 19,8.8529228 v -0.705752 c 8e-5,-0.081222 -0.06612,-0.147166 -0.147166,-0.147166 z m -0.146915,0.294395 z"
       id="path74-7-1-3-9"
       style="fill:#d6dbf1;fill-opacity:1;stroke-width:0.0205525"
       sodipodi:nodetypes="ssssssscsccccc" />
    <path
       d="M 9.852834,11.000005 H 9.147151 C 9.065711,11.000005 9,11.065935 9,11.147171 v 0.705752 c 0,0.08121 0.06574,0.147082 0.147151,0.147082 H 9.852834 C 9.933954,12.000005 10,11.934265 10,11.852923 v -0.705752 c 8e-5,-0.08122 -0.06612,-0.147166 -0.147166,-0.147166 z M 9.705919,11.2944 Z"
       id="path74-7-1-6-2"
       style="fill:#d6dbf1;fill-opacity:1;stroke-width:0.0205525"
       sodipodi:nodetypes="ssssssscsccccc" />
    <path
       d="M 12.852834,11.000005 H 12.147151 C 12.065711,11.000005 12,11.065935 12,11.147171 v 0.705752 c 0,0.08121 0.06574,0.147082 0.147151,0.147082 h 0.705683 C 12.933954,12.000005 13,11.934265 13,11.852923 v -0.705752 c 8e-5,-0.08122 -0.06612,-0.147166 -0.147166,-0.147166 z M 12.705919,11.2944 Z"
       id="path74-7-1-7-2"
       style="fill:#d6dbf1;fill-opacity:1;stroke-width:0.0205525"
       sodipodi:nodetypes="ssssssscsccccc" />
    <path
       d="M 12.852834,8.0000048 H 12.147151 C 12.065711,8.0000048 12,8.0659348 12,8.1471708 v 0.705752 c 0,0.08121 0.06574,0.147082 0.147151,0.147082 h 0.705683 C 12.933954,9.0000048 13,8.9342648 13,8.8529228 v -0.705752 c 8e-5,-0.081222 -0.06612,-0.147166 -0.147166,-0.147166 z m -0.146915,0.294395 z"
       id="path74-7-1-5-8"
       style="fill:#d6dbf1;fill-opacity:1;stroke-width:0.0205525"
       sodipodi:nodetypes="ssssssscsccccc" />
    <path
       d="M 6.852834,11.000005 H 6.147151 C 6.065711,11.000005 6,11.065935 6,11.147171 v 0.705752 c 0,0.08121 0.06574,0.147082 0.147151,0.147082 H 6.852834 C 6.933954,12.000005 7,11.934265 7,11.852923 v -0.705752 c 8e-5,-0.08122 -0.066119,-0.147166 -0.147166,-0.147166 z M 6.705919,11.2944 Z"
       id="path74-7-1-35-9"
       style="fill:#d6dbf1;fill-opacity:1;stroke-width:0.0205525"
       sodipodi:nodetypes="ssssssscsccccc" />
    <path
       d="M 3.852834,11.000005 H 3.147151 C 3.065711,11.000005 3,11.065935 3,11.147171 v 0.705752 c 0,0.08121 0.06574,0.147082 0.147151,0.147082 H 3.852834 C 3.933954,12.000005 4,11.934265 4,11.852923 v -0.705752 c 8e-5,-0.08122 -0.066119,-0.147166 -0.147166,-0.147166 z M 3.705919,11.2944 Z"
       id="path74-7-1-62-7"
       style="fill:#d6dbf1;fill-opacity:1;stroke-width:0.0205525"
       sodipodi:nodetypes="ssssssscsccccc" />
    <path
       d="M 3.852834,8.0000048 H 3.147151 C 3.065711,8.0000048 3,8.0659348 3,8.1471708 v 0.705752 c 0,0.08121 0.06574,0.147082 0.147151,0.147082 H 3.852834 C 3.933954,9.0000048 4,8.9342648 4,8.8529228 v -0.705752 c 8e-5,-0.081222 -0.066119,-0.147166 -0.147166,-0.147166 z m -0.146915,0.294395 z"
       id="path74-7-1-91-3"
       style="fill:#d6dbf1;fill-opacity:1;stroke-width:0.0205525"
       sodipodi:nodetypes="ssssssscsccccc" />
    <path
       d="M 6.852834,8.0000048 H 6.147151 C 6.065711,8.0000048 6,8.0659348 6,8.1471708 v 0.705752 c 0,0.08121 0.06574,0.147082 0.147151,0.147082 H 6.852834 C 6.933954,9.0000048 7,8.9342648 7,8.8529228 v -0.705752 c 8e-5,-0.081222 -0.066119,-0.147166 -0.147166,-0.147166 z m -0.146915,0.294395 z"
       id="path74-7-1-2-6"
       style="fill:#d6dbf1;fill-opacity:1;stroke-width:0.0205525"
       sodipodi:nodetypes="ssssssscsccccc" />
    <path
       d="M 9.852834,8.0000048 H 9.147151 C 9.065711,8.0000048 9,8.0659348 9,8.1471708 v 0.705752 c 0,0.08121 0.06574,0.147082 0.147151,0.147082 H 9.852834 C 9.933954,9.0000048 10,8.9342648 10,8.8529228 v -0.705752 c 8e-5,-0.081222 -0.06612,-0.147166 -0.147166,-0.147166 z m -0.146915,0.294395 z"
       id="path74-7-1-70-1"
       style="fill:#d6dbf1;fill-opacity:1;stroke-width:0.0205525"
       sodipodi:nodetypes="ssssssscsccccc" />
    <path
       d="M 15.852834,8.0000048 H 15.147151 C 15.065711,8.0000048 15,8.0659348 15,8.1471708 v 0.705752 c 0,0.08121 0.06574,0.147082 0.147151,0.147082 h 0.705683 C 15.933954,9.0000048 16,8.9342648 16,8.8529228 v -0.705752 c 8e-5,-0.081222 -0.06612,-0.147166 -0.147166,-0.147166 z m -0.146915,0.294395 z"
       id="path74-7-1-93-2"
       style="fill:#d6dbf1;fill-opacity:1;stroke-width:0.0205525"
       sodipodi:nodetypes="ssssssscsccccc" />
    <path
       d="M 15.852834,11.000005 H 15.147151 C 15.065711,11.000005 15,11.065935 15,11.147171 v 0.705752 c 0,0.08121 0.06574,0.147082 0.147151,0.147082 h 0.705683 C 15.933954,12.000005 16,11.934265 16,11.852923 v -0.705752 c 8e-5,-0.08122 -0.06612,-0.147166 -0.147166,-0.147166 z M 15.705919,11.2944 Z"
       id="path74-7-1-7-6-9"
       style="fill:#d6dbf1;fill-opacity:1;stroke-width:0.0205525"
       sodipodi:nodetypes="ssssssscsccccc" />
    <path
       d="M 18.852834,11.000005 H 18.147151 C 18.065711,11.000005 18,11.065935 18,11.147171 v 0.705752 c 0,0.08121 0.06574,0.147082 0.147151,0.147082 h 0.705683 C 18.933954,12.000005 19,11.934265 19,11.852923 v -0.705752 c 8e-5,-0.08122 -0.06612,-0.147166 -0.147166,-0.147166 z M 18.705919,11.2944 Z"
       id="path74-7-1-7-0-3"
       style="fill:#d6dbf1;fill-opacity:1;stroke-width:0.0205525"
       sodipodi:nodetypes="ssssssscsccccc" />
  </g>
</svg>
