<?xml version="1.0" encoding="UTF-8" standalone="no"?>
<svg
   sodipodi:docname="kdeconnect.svg"
   height="31.999973"
   width="32.000015"
   inkscape:version="1.1.1 (3bf5ae0d25, 2021-09-20)"
   version="1.1"
   id="svg"
   viewBox="0 0 32.000012 31.999973"
   xmlns:inkscape="http://www.inkscape.org/namespaces/inkscape"
   xmlns:sodipodi="http://sodipodi.sourceforge.net/DTD/sodipodi-0.dtd"
   xmlns="http://www.w3.org/2000/svg"
   xmlns:svg="http://www.w3.org/2000/svg"
   xmlns:rdf="http://www.w3.org/1999/02/22-rdf-syntax-ns#"
   xmlns:cc="http://creativecommons.org/ns#"
   xmlns:dc="http://purl.org/dc/elements/1.1/">
  <g
     id="22-22-kdeconnect"
     transform="translate(4.8620001,38.081004)">
    <rect
       style="fill:#000000;fill-opacity:0;stroke:none"
       id="rect3841"
       width="22"
       height="22"
       x="0"
       y="0" />
    <path
       d="M 6.507316,4.9775867 C 6.392013,4.9775867 6.3,5.0588467 6.3,5.1590407 v 0.356276 c 0,0.101702 0.09288,0.181454 0.207316,0.181454 v 0.53923 C 6.392013,6.2360007 6.3,6.3157607 6.3,6.4141967 v 0.722441 c 0,0.09694 0.09288,0.178071 0.207316,0.178071 v 0.359518 C 6.392013,7.6742267 6.3,7.7539867 6.3,7.8524227 v 0.722313 c 0,0.09706 0.09288,0.178196 0.207316,0.178196 V 18.101251 C 6.507316,18.597079 6.972169,19 7.545352,19 h 7.049952 c 0.572925,0 1.03803,-0.402408 1.03803,-0.898749 V 4.0784497 c 0,-0.495699 -0.464702,-0.898749 -1.03803,-0.898749 h -0.206456 c 0,-0.09995 -0.09244,-0.179701 -0.206451,-0.179701 h -1.661172 c -0.111973,0 -0.206449,0.08038 -0.206449,0.179701 H 7.54555 c -0.572919,0 -1.038036,0.402408 -1.038036,0.898749 z m 3.837016,13.0337163 c 0,-0.34748 0.325812,-0.629149 0.726002,-0.629149 0.400884,0 0.725845,0.282404 0.725845,0.629149 0,0.34748 -0.325813,0.629278 -0.725845,0.629278 -0.401042,0 -0.726002,-0.282405 -0.726002,-0.629278 z M 7.122,4.4382607 h 7.896667 V 17.022538 H 7.122 Z m 3.014896,-0.62915 c 0,-0.04966 0.0461,-0.08991 0.105754,-0.08991 h 1.65521 c 0.0585,0 0.105754,0.04176 0.105754,0.08991 0,0.04966 -0.0461,0.08991 -0.105754,0.08991 h -1.65521 c -0.05829,0 -0.105754,-0.04176 -0.105754,-0.08991 z"
       fill-rule="evenodd"
       id="path76-5"
       style="fill:#d6dbf1;fill-opacity:1;stroke-width:0.0344815"
       sodipodi:nodetypes="cssccssccsscsssssscsscsccssssscccccsssssss" />
    <path
       style="color:#d3dae3;fill:#d6dbf1;fill-opacity:1;stroke-width:0.353605"
       d="m 11.454607,7.9333417 -1.066345,0.185783 v 3.6728013 l 1.06082,-0.136746 -0.0055,-1.6554563 1.251432,1.8322563 1.229331,-0.1768 -1.41442,-1.8964883 1.419254,-1.591222 -1.244524,-0.229296 -1.241073,1.591228 z m -2.242493,0.937881 c -0.01026,6.65e-4 -0.01989,0.0053 -0.02764,0.0131 l -0.366036,0.370183 c -0.01591,0.016 -0.01856,0.04097 -0.0061,0.06009 l 0.442007,0.678895 C 9.170965,10.141467 9.107961,10.303717 9.06718,10.473483 l -0.763147,0.187163 c -0.02115,0.0052 -0.03733,0.02433 -0.03733,0.04629 V 10.947968 11.189 c 0,0.02195 0.01614,0.04109 0.03733,0.0463 l 0.763146,0.18716 c 0.04077,0.169768 0.103779,0.332019 0.187165,0.479994 l -0.442006,0.678891 c -0.01235,0.01912 -0.0097,0.04409 0.0061,0.06009 l 0.366039,0.370182 c 0.01541,0.01561 0.0394,0.01685 0.05798,0.0055 l 0.692706,-0.424738 c 0.135899,0.07917 0.348482,0.14287 0.503475,0.18509 l 0.162302,0.783866 c 0.0048,0.02262 0.02251,0.03867 0.04487,0.03867 h 0.272799 0.272802 c 0.02244,0 0.04037,-0.01601 0.04487,-0.03867 l 0.162301,-0.783866 c 0.154993,-0.04223 0.367573,-0.105922 0.503475,-0.185093 l 0.692709,0.42474 c 0.01865,0.0113 0.04255,0.01006 0.05797,-0.0055 l 0.366042,-0.370183 c 0.01591,-0.01601 0.01857,-0.04097 0.0062,-0.06009 l -0.368108,-0.565627 -0.04559,0.0067 -0.2583,-0.37847 c -0.26381,0.553024 -0.821723,0.905449 -1.434448,0.906113 -0.878813,0 -1.5912286,-0.712413 -1.5912286,-1.591222 6.41e-4,-0.604005 0.342945,-1.1556483 0.8840106,-1.4240933 v -0.347358 c -0.100858,0.03361 -0.199963,0.07157 -0.2762496,0.1160298 L 9.242398,8.8786977 c -0.0093,-0.0057 -0.02011,-0.0084 -0.03041,-0.0075 z"
       class="ColorScheme-Text"
       id="path10-0" />
  </g>
  <defs
     id="defs81">
    <style
       type="text/css"
       id="current-color-scheme" />
    <style
       id="current-color-scheme-9"
       type="text/css" />
    <linearGradient
       id="oomox"
       x1="448.98987"
       x2="448.98987"
       y1="94.879333"
       y2="107.52991"
       gradientTransform="matrix(1.1859917,0,0,1.8971464,-523.99826,-176)"
       gradientUnits="userSpaceOnUse">
      <stop
         offset="0%"
         style="stop-color:#303b3d; stop-opacity:1"
         id="stop18" />
      <stop
         offset="100%"
         style="stop-color:#bc985d; stop-opacity:1"
         id="stop20" />
    </linearGradient>
    <linearGradient
       id="oomox-3"
       x1="0"
       x2="0"
       y1="0"
       y2="1">
      <stop
         offset="0%"
         style="stop-color:#303b3d; stop-opacity:1"
         id="stop18-6" />
      <stop
         offset="100%"
         style="stop-color:#bc985d; stop-opacity:1"
         id="stop20-7" />
    </linearGradient>
  </defs>
  <metadata
     id="metadata34">
    <rdf:RDF>
      <cc:Work
         rdf:about="">
        <dc:format>image/svg+xml</dc:format>
        <dc:type
           rdf:resource="http://purl.org/dc/dcmitype/StillImage" />
      </cc:Work>
    </rdf:RDF>
  </metadata>
  <sodipodi:namedview
     inkscape:document-rotation="0"
     fit-margin-bottom="0"
     fit-margin-right="0"
     fit-margin-left="0"
     fit-margin-top="0"
     inkscape:snap-bbox-midpoints="true"
     inkscape:snap-bbox="true"
     inkscape:guide-bbox="true"
     showguides="false"
     borderlayer="false"
     inkscape:current-layer="svg"
     inkscape:window-maximized="1"
     inkscape:window-y="0"
     inkscape:window-x="0"
     inkscape:cy="42.338018"
     inkscape:cx="18.826718"
     inkscape:zoom="5.6568543"
     showgrid="false"
     id="namedview32"
     inkscape:window-height="1015"
     inkscape:window-width="1920"
     inkscape:pageshadow="2"
     inkscape:pageopacity="0.11372549"
     guidetolerance="10"
     gridtolerance="10"
     objecttolerance="10"
     borderopacity="1"
     bordercolor="#000000"
     pagecolor="#ffffff"
     inkscape:lockguides="true"
     inkscape:showpageshadow="false"
     inkscape:pagecheckerboard="0">
    <inkscape:grid
       spacingy="0.99999995"
       spacingx="0.99999995"
       originy="-31.966645"
       originx="-51.166632"
       snapvisiblegridlinesonly="true"
       enabled="true"
       visible="true"
       empspacing="5"
       id="grid3046"
       type="xygrid" />
  </sodipodi:namedview>
  <g
     id="kdeconnect">
    <rect
       width="32.000015"
       height="31.999973"
       rx="0"
       ry="0"
       x="-4.4677737e-09"
       y="9.5214844e-08"
       id="rect3860"
       style="opacity:0.01;fill:#a8aeca;fill-opacity:1;stroke:none" />
    <path
       d="M 9.360974,6.9663675 C 9.18802,6.9663675 9.05,7.0882545 9.05,7.2385485 v 0.534415 c 0,0.152552 0.139318,0.272181 0.310974,0.272181 v 0.808845 C 9.18802,8.8539895 9.05,8.9736235 9.05,9.1212835 v 1.0836595 c 0,0.145403 0.139318,0.267107 0.310974,0.267107 v 0.539277 C 9.18802,11.011327 9.05,11.130961 9.05,11.278621 v 1.083469 c 0,0.145589 0.139318,0.267294 0.310974,0.267294 v 14.022479 c 0,0.743741 0.697279,1.348123 1.557054,1.348123 h 10.574928 c 0.859387,0 1.557044,-0.603612 1.557044,-1.348123 V 5.6176615 C 23.05,4.874114 22.352948,4.269539 21.492956,4.269539 h -0.309685 c 0,-0.149918 -0.138656,-0.269552 -0.309676,-0.269552 h -2.491758 c -0.16796,0 -0.309674,0.120573 -0.309674,0.269552 h -7.153838 c -0.859379,0 -1.557054,0.603612 -1.557054,1.3481225 z M 15.116497,26.51694 c 0,-0.52122 0.488719,-0.943724 1.089004,-0.943724 0.601325,0 1.088767,0.423607 1.088767,0.943724 0,0.52122 -0.48872,0.943917 -1.088767,0.943917 -0.601563,0 -1.089004,-0.423607 -1.089004,-0.943917 z M 10.283,6.1573785 H 22.128 V 25.033793 H 10.283 Z m 4.522344,-0.9437246 c 0,-0.07449 0.06915,-0.1348695 0.158631,-0.1348695 h 2.482814 c 0.08775,0 0.158631,0.06264 0.158631,0.1348695 0,0.07449 -0.06915,0.1348702 -0.158631,0.1348702 h -2.482814 c -0.08744,0 -0.158631,-0.06264 -0.158631,-0.1348702 z"
       fill-rule="evenodd"
       id="path76"
       style="fill:#d6dbf1;fill-opacity:1;stroke-width:0.0517223"
       sodipodi:nodetypes="cssccssccsscsssssscsscsccssssscccccsssssss" />
    <path
       style="color:#d3dae3;fill:#d6dbf1;fill-opacity:1;stroke-width:0.530408"
       d="m 16.78191,11.4 -1.599518,0.278674 v 5.509201 l 1.591231,-0.205119 -0.0083,-2.483183 1.877148,2.748384 1.843997,-0.265201 -2.12163,-2.844731 2.128881,-2.386833 -1.866786,-0.343945 -1.86161,2.386842 z m -3.363739,1.406821 c -0.01539,9.97e-4 -0.02984,0.008 -0.04146,0.01965 l -0.549054,0.555274 c -0.02387,0.024 -0.02784,0.06145 -0.0092,0.09014 l 0.663011,1.018342 c -0.125077,0.221964 -0.219576,0.465339 -0.280748,0.719988 L 12.056,15.49096 C 12.02428,15.49876 12,15.52746 12,15.5604 v 0.361548 0.361548 c 0,0.03292 0.02421,0.06163 0.056,0.06945 l 1.144719,0.280739 c 0.06115,0.254652 0.155669,0.498029 0.280748,0.719991 l -0.66301,1.018337 c -0.01853,0.02868 -0.01453,0.06613 0.0092,0.09013 l 0.549058,0.555273 c 0.02311,0.02341 0.0591,0.02528 0.08697,0.0083 l 1.03906,-0.637107 c 0.203848,0.118758 0.522723,0.214305 0.755211,0.277635 l 0.243454,1.175798 c 0.0072,0.03393 0.03376,0.058 0.0673,0.058 h 0.409199 0.409203 c 0.03366,0 0.06055,-0.02402 0.06731,-0.058 l 0.243452,-1.175798 c 0.23249,-0.06335 0.55136,-0.158884 0.755212,-0.27764 l 1.039064,0.63711 c 0.02797,0.01695 0.06383,0.01509 0.08696,-0.0083 l 0.549063,-0.555274 c 0.02387,-0.02401 0.02785,-0.06145 0.0093,-0.09013 l -0.552163,-0.848441 -0.06838,0.01011 -0.38745,-0.567705 c -0.395715,0.829537 -1.232584,1.358173 -2.151672,1.35917 -1.318213,0 -2.386837,-1.06862 -2.386837,-2.386833 9.62e-4,-0.906007 0.514418,-1.733472 1.326017,-2.136139 v -0.521038 c -0.151291,0.05041 -0.299948,0.107355 -0.414378,0.174045 l -1.039002,-0.637076 c -0.01401,-0.0085 -0.03017,-0.01267 -0.04562,-0.0113 z"
       class="ColorScheme-Text"
       id="path10" />
  </g>
</svg>
