<?xml version="1.0" encoding="UTF-8" standalone="no"?>
<svg
   sodipodi:docname="kdeconnect.svg"
   height="31.999973"
   width="32.000015"
   inkscape:version="1.1.2 (0a00cf5339, 2022-02-04)"
   version="1.1"
   id="svg"
   viewBox="0 0 32.000012 31.999973"
   xmlns:inkscape="http://www.inkscape.org/namespaces/inkscape"
   xmlns:sodipodi="http://sodipodi.sourceforge.net/DTD/sodipodi-0.dtd"
   xmlns="http://www.w3.org/2000/svg"
   xmlns:svg="http://www.w3.org/2000/svg"
   xmlns:rdf="http://www.w3.org/1999/02/22-rdf-syntax-ns#"
   xmlns:cc="http://creativecommons.org/ns#"
   xmlns:dc="http://purl.org/dc/elements/1.1/">
  <g
     id="22-22-kdeconnect"
     transform="translate(3.9624743,38.981212)">
    <rect
       style="fill:#000000;fill-opacity:0;stroke:none"
       id="rect3841"
       width="22"
       height="22"
       x="-4.9206541e-08"
       y="-1.4697265e-07" />
    <path
       class="fil0"
       d="M 7.6677614,3 H 15.384805 C 16.282136,3 17,3.602511 17,4.271967 V 17.728033 C 17,18.464435 16.282136,19 15.384805,19 H 7.6677614 C 6.7704314,19 6,18.464435 6,17.728033 V 4.271967 C 6,3.602511 6.7704314,3 7.6677614,3 Z m 2.5125266,14.393305 h 2.602265 c 0.448663,0 0.607447,0.267783 0.607447,0.602511 0,0.267782 -0.158784,0.535565 -0.607447,0.535565 h -2.602265 c -0.4486644,0 -0.607288,-0.267783 -0.607288,-0.535565 0,-0.334728 0.1586236,-0.602511 0.607288,-0.602511 z M 10.449489,3.669456 h 2.063869 c 0.269195,0 0.348642,0.133891 0.348642,0.267783 0,0.200836 -0.07945,0.334728 -0.348642,0.334728 h -2.063869 c -0.179467,0 -0.258489,-0.1338919 -0.258489,-0.334728 0,-0.133892 0.07902,-0.267783 0.258489,-0.267783 z M 7.677,5.0000001 h 7.699 c 0.358943,0 0.624,0.331937 0.624,0.666667 V 16.2 C 16,16.534729 15.734949,17 15.376,17 H 7.677 C 7.228334,17 7,16.534729 7,16.2 V 5.6666671 C 7,5.331938 7.2283381,5.0000001 7.677,5.0000001 Z"
       id="path6-3"
       style="fill:#d6dbf1;fill-opacity:1;fill-rule:evenodd;stroke-width:0.0775053;image-rendering:optimizeQuality;shape-rendering:geometricPrecision;text-rendering:geometricPrecision"
       sodipodi:nodetypes="ssssssssssssssssssssssssssssssss" />
    <path
       style="color:#d3dae3;fill:#d6dbf1;fill-opacity:1;fill-rule:evenodd;stroke-width:0.359087;image-rendering:optimizeQuality;shape-rendering:geometricPrecision;text-rendering:geometricPrecision"
       d="M 11.865687,8.2 10.76602,8.385782 v 3.672801 l 1.093971,-0.136746 -0.0059,-1.655455 1.29054,1.832256 1.267793,-0.176801 L 12.953903,10.02535 14.417509,8.434128 13.134093,8.204831 11.854236,9.796059 Z M 9.5531175,9.13788 c -0.01058,6.65e-4 -0.020511,0.0053 -0.028503,0.0131 L 9.147139,9.521163 c -0.016407,0.016 -0.01914,0.04097 -0.0063,0.06009 l 0.4558199,0.678895 c -0.085989,0.147976 -0.150961,0.310226 -0.1930165,0.479992 L 8.616655,10.927303 c -0.02181,0.0052 -0.038496,0.02433 -0.038496,0.04629 v 0.241032 0.241032 c 0,0.02195 0.016644,0.04109 0.038496,0.0463 l 0.786995,0.187159 c 0.042044,0.169768 0.1070232,0.332019 0.1930151,0.479994 l -0.4558194,0.678891 c -0.012736,0.01912 -0.01,0.04409 0.0063,0.06009 l 0.3774778,0.370182 c 0.015891,0.01561 0.040631,0.01685 0.059793,0.0055 L 10.29877,12.859035 c 0.140146,0.07917 0.359373,0.14287 0.51921,0.18509 l 0.167372,0.783866 c 0.0048,0.02262 0.02321,0.03867 0.04627,0.03867 h 0.281321 0.281329 c 0.02314,0 0.04164,-0.01601 0.04627,-0.03867 l 0.167372,-0.783866 c 0.159836,-0.04223 0.379059,-0.105922 0.519209,-0.185093 l 0.714357,0.42474 c 0.01921,0.0113 0.04388,0.01006 0.05977,-0.0055 l 0.377486,-0.370183 c 0.01641,-0.01601 0.01913,-0.04097 0.0066,-0.06009 l -0.379611,-0.565627 -0.04702,0.0067 -0.266373,-0.37847 c -0.272052,0.553025 -0.847402,0.905449 -1.479274,0.906113 -0.906272,0 -1.6409508,-0.712413 -1.6409508,-1.591222 C 9.6725985,10.621489 10.0256,10.069845 10.583577,9.801401 V 9.454042 c -0.10402,0.03361 -0.206215,0.07157 -0.284886,0.11603 L 9.5843489,9.145355 c -0.0096,-0.0057 -0.02074,-0.0084 -0.03136,-0.0075 z"
       class="ColorScheme-Text"
       id="path10-6" />
  </g>
  <defs
     id="defs81">
    <style
       type="text/css"
       id="current-color-scheme" />
    <style
       id="current-color-scheme-9"
       type="text/css" />
  </defs>
  <metadata
     id="metadata34">
    <rdf:RDF>
      <cc:Work
         rdf:about="">
        <dc:format>image/svg+xml</dc:format>
        <dc:type
           rdf:resource="http://purl.org/dc/dcmitype/StillImage" />
      </cc:Work>
    </rdf:RDF>
  </metadata>
  <sodipodi:namedview
     inkscape:document-rotation="0"
     fit-margin-bottom="0"
     fit-margin-right="0"
     fit-margin-left="0"
     fit-margin-top="0"
     inkscape:snap-bbox-midpoints="true"
     inkscape:snap-bbox="true"
     inkscape:guide-bbox="true"
     showguides="false"
     borderlayer="false"
     inkscape:current-layer="svg"
     inkscape:window-maximized="1"
     inkscape:window-y="0"
     inkscape:window-x="0"
     inkscape:cy="35.750002"
     inkscape:cx="13.812501"
     inkscape:zoom="7.9999996"
     showgrid="false"
     id="namedview32"
     inkscape:window-height="1009"
     inkscape:window-width="1920"
     inkscape:pageshadow="2"
     inkscape:pageopacity="0.11372549"
     guidetolerance="10"
     gridtolerance="10"
     objecttolerance="10"
     borderopacity="1"
     bordercolor="#000000"
     pagecolor="#ffffff"
     inkscape:lockguides="true"
     inkscape:pagecheckerboard="0"
     inkscape:showpageshadow="false">
    <inkscape:grid
       type="xygrid"
       id="grid866" />
  </sodipodi:namedview>
  <g
     id="kdeconnect"
     transform="translate(7.5624752,73.281212)"
     style="fill:#d6dbf1;fill-opacity:1">
    <rect
       width="32.000015"
       height="31.999973"
       rx="0"
       ry="0"
       x="-7.5624752"
       y="-73.281212"
       id="rect3860"
       style="opacity:0.01;fill:#d6dbf1;fill-opacity:1;stroke:none" />
    <path
       class="fil0"
       d="M 2.8633602,-69.281212 H 14.08815 c 1.30521,0 2.349375,0.903766 2.349375,1.90795 v 20.1841 c 0,1.104603 -1.044165,1.90795 -2.349375,1.90795 H 2.8633602 c -1.3052077,0 -2.4258354,-0.803347 -2.4258354,-1.90795 v -20.1841 c 0,-1.004184 1.1206277,-1.90795 2.4258354,-1.90795 z m 3.654583,21.589958 h 3.7851098 c 0.652605,0 1.174685,0.401674 1.174685,0.903766 0,0.401673 -0.52208,0.803347 -1.174685,0.803347 H 6.5179432 c -0.6526027,0 -1.1746858,-0.401674 -1.1746858,-0.803347 0,-0.502092 0.5220831,-0.903766 1.1746858,-0.903766 z M 6.9095053,-68.277028 H 9.911498 c 0.391555,0 0.652602,0.200837 0.652602,0.401674 0,0.301255 -0.261047,0.502092 -0.652602,0.502092 H 6.9095053 c -0.261041,0 -0.5220821,-0.200837 -0.5220821,-0.502092 0,-0.200837 0.2610411,-0.401674 0.5220821,-0.401674 z m -4.1786569,1.995816 H 14.220804 c 0.5221,0 1.216721,0.497906 1.216721,1 v 15.8 c 0,0.502093 -0.694623,1.2 -1.216727,1.2 H 2.7308484 c -0.6526041,0 -1.2933236,-0.697907 -1.2933236,-1.2 v -15.8 c 0,-0.502093 0.6407252,-1 1.2933236,-1 z"
       id="path6"
       style="fill:#d6dbf1;fill-opacity:1;fill-rule:evenodd;stroke-width:0.114483;image-rendering:optimizeQuality;shape-rendering:geometricPrecision;text-rendering:geometricPrecision"
       sodipodi:nodetypes="ssssssssssssssssssssssssssssssss" />
    <path
       style="color:#d3dae3;fill:#d6dbf1;fill-opacity:1;fill-rule:evenodd;stroke-width:0.530408;image-rendering:optimizeQuality;shape-rendering:geometricPrecision;text-rendering:geometricPrecision"
       d="m 8.9694346,-61.636209 -1.599518,0.278674 v 5.509201 l 1.591231,-0.205119 -0.0083,-2.483183 1.8771484,2.748384 1.843997,-0.265201 -2.12163,-2.844731 2.128881,-2.386833 -1.866786,-0.343945 -1.8616104,2.386842 z m -3.3637388,1.406821 c -0.01539,9.97e-4 -0.02984,0.008 -0.04146,0.01965 l -0.549054,0.555274 c -0.02387,0.024 -0.02784,0.06145 -0.0092,0.09014 l 0.663011,1.018342 c -0.125077,0.221964 -0.219576,0.465339 -0.280748,0.719988 l -1.14472,0.280745 c -0.03172,0.0078 -0.056,0.0365 -0.056,0.06944 v 0.361548 0.361548 c 0,0.03292 0.02421,0.06163 0.056,0.06945 l 1.144719,0.280739 c 0.06115,0.254652 0.155669,0.498029 0.280748,0.719991 l -0.66301,1.018337 c -0.01853,0.02868 -0.01453,0.06613 0.0092,0.09013 l 0.549058,0.555273 c 0.02311,0.02341 0.0591,0.02528 0.08697,0.0083 l 1.03906,-0.637107 c 0.2038478,0.118758 0.5227228,0.214305 0.7552108,0.277635 l 0.243454,1.175798 c 0.0072,0.03393 0.03376,0.058 0.0673,0.058 h 0.409199 0.409203 c 0.03366,0 0.06055,-0.02402 0.06731,-0.058 l 0.243452,-1.175798 c 0.23249,-0.06335 0.55136,-0.158884 0.755212,-0.27764 l 1.0390644,0.63711 c 0.02797,0.01695 0.06383,0.01509 0.08696,-0.0083 l 0.549063,-0.555274 c 0.02387,-0.02401 0.02785,-0.06145 0.0093,-0.09013 l -0.552163,-0.848441 -0.06838,0.01011 -0.38745,-0.567705 c -0.395715,0.829537 -1.2325844,1.358173 -2.1516724,1.35917 -1.318213,0 -2.3868368,-1.06862 -2.3868368,-2.386833 9.62e-4,-0.906007 0.514418,-1.733472 1.3260168,-2.136139 v -0.521038 c -0.151291,0.05041 -0.299948,0.107355 -0.4143778,0.174045 l -1.039002,-0.637076 c -0.01401,-0.0085 -0.03017,-0.01267 -0.04562,-0.0113 z"
       class="ColorScheme-Text"
       id="path10" />
  </g>
</svg>
