<?xml version="1.0" encoding="UTF-8" standalone="no"?>
<svg
   id="svg4153"
   version="1.1"
   inkscape:version="1.1.2 (0a00cf5339, 2022-02-04)"
   width="32.000004"
   height="32"
   sodipodi:docname="klipper.svg"
   viewBox="0 0 32.000004 32"
   xmlns:inkscape="http://www.inkscape.org/namespaces/inkscape"
   xmlns:sodipodi="http://sodipodi.sourceforge.net/DTD/sodipodi-0.dtd"
   xmlns="http://www.w3.org/2000/svg"
   xmlns:svg="http://www.w3.org/2000/svg"
   xmlns:rdf="http://www.w3.org/1999/02/22-rdf-syntax-ns#"
   xmlns:cc="http://creativecommons.org/ns#"
   xmlns:dc="http://purl.org/dc/elements/1.1/">
  <g
     id="22-22-klipper"
     transform="translate(31.999853,10)">
    <rect
       style="fill:none;fill-opacity:1;stroke:none;stroke-width:0.1;stroke-linecap:square;stroke-linejoin:miter;stroke-miterlimit:4;stroke-dasharray:none;stroke-dashoffset:0;stroke-opacity:1"
       id="rect4148"
       width="22"
       height="22"
       x="1.3415527e-07"
       y="0" />
    <path
       d="M 9.526278,2.7 C 8.8442468,2.7 8.2715356,3.1279171 8.1058742,3.700007 H 5.4737158 C 4.6636574,3.700007 4,4.300469 4,5.033388 V 17.366619 C 4,18.099539 4.6636574,18.7 5.4737158,18.7 H 16.526277 C 17.336348,18.7 18,18.099539 18,17.366619 V 5.033388 C 18,4.300469 17.336348,3.700007 16.526277,3.700007 H 13.894122 C 13.728464,3.1279171 13.155725,2.7 12.473726,2.7 Z m 0,0 h 2.947448 v 0 0 z M 5.4737825,4.3666411 H 8.1059326 C 8.2716009,4.93873 8.8443408,5.366647 9.526346,5.366647 h 2.947434 c 0.682044,0 1.254758,-0.427917 1.420415,-1.0000059 h 2.632149 c 0.414595,0 0.736798,0.29163 0.736798,0.6667469 v 12.333231 c 0,0.375117 -0.322203,0.666747 -0.736798,0.666747 H 5.4737825 c -0.4146004,0 -0.7367949,-0.291631 -0.7367949,-0.666747 V 5.033388 c 0,-0.3751169 0.3221945,-0.6667469 0.7367949,-0.6667469 z M 7.3158339,7.366662 c -0.2034095,0 -0.3683342,0.149332 -0.3683342,0.3333739 0,0.088389 0.038763,0.173215 0.1078161,0.2357162 0.069186,0.0625 0.1628247,0.09766 0.2605219,0.09766 h 7.3685843 c 0.09772,0 0.191332,-0.03516 0.260524,-0.09766 0.069,-0.0625 0.10781,-0.1473221 0.10781,-0.2357162 0,-0.088399 -0.0388,-0.1732159 -0.10781,-0.2357159 -0.06913,-0.0625 -0.162825,-0.09766 -0.260524,-0.09766 z m 0,2.0000138 c -0.2034095,0 -0.3683342,0.1493317 -0.3683342,0.333374 0,0.088386 0.038763,0.173215 0.1078161,0.2357172 0.069186,0.062507 0.1628247,0.097659 0.2605219,0.097659 h 7.3685843 c 0.09772,0 0.191332,-0.035164 0.260524,-0.097659 0.069,-0.062507 0.10781,-0.1473227 0.10781,-0.2357172 0,-0.088404 -0.0388,-0.1732159 -0.10781,-0.2357157 -0.06913,-0.062503 -0.162825,-0.09766 -0.260524,-0.09766 z m 0,2.0000142 c -0.2034095,0 -0.3683342,0.149331 -0.3683342,0.333373 0,0.08841 0.038763,0.173217 0.1078161,0.235717 0.069186,0.06251 0.1628247,0.09766 0.2605219,0.09766 h 7.3685843 c 0.09772,0 0.191332,-0.03516 0.260524,-0.09766 0.069,-0.06251 0.10781,-0.14732 0.10781,-0.235717 0,-0.0884 -0.0388,-0.173215 -0.10781,-0.235714 -0.06913,-0.06251 -0.162825,-0.09766 -0.260524,-0.09766 z m 0,2.000014 c -0.2034095,0 -0.3683342,0.149333 -0.3683342,0.333375 0,0.08838 0.038763,0.173215 0.1078161,0.235716 0.069186,0.06251 0.1628247,0.09766 0.2605219,0.09766 h 7.3685843 c 0.09772,0 0.191332,-0.03517 0.260524,-0.09766 0.069,-0.06251 0.10781,-0.147322 0.10781,-0.235716 0,-0.08838 -0.0388,-0.173216 -0.10781,-0.235718 -0.06913,-0.06251 -0.162825,-0.09766 -0.260524,-0.09766 z m 0,2.000016 c -0.2034095,0 -0.3683342,0.149331 -0.3683342,0.333372 0,0.184043 0.1649247,0.333373 0.3683342,0.333373 h 3.3157741 c 0.203524,0 0.368448,-0.14933 0.368448,-0.333373 0,-0.184041 -0.164924,-0.333372 -0.368448,-0.333372 z"
       fill-rule="evenodd"
       id="path28-9"
       sodipodi:nodetypes="scsssssssscsscccccccscsscsssssssssscsscscsssscsscscsssscsscscsssscsscscsssssssss"
       style="fill:#d6dbf1;fill-opacity:1;stroke-width:0.0300374" />
  </g>
  <g
     id="klipper">
    <rect
       y="0"
       x="0"
       height="32"
       width="32.000004"
       id="rect4230"
       style="fill:none;fill-opacity:1;stroke:none" />
    <path
       d="M 13.894682,4 C 12.920354,4 12.102194,4.641876 11.865537,5.5000106 H 8.1053087 C 6.9480822,5.5000106 6,6.4007028 6,7.500082 V 25.999929 C 6,27.099308 6.9480822,28 8.1053087,28 H 23.894687 C 25.051921,28 26,27.099308 26,25.999929 V 7.500082 C 26,6.4007028 25.051921,5.5000106 23.894687,5.5000106 H 20.134464 C 19.897806,4.641876 19.079607,4 18.105318,4 Z m 0,0 h 4.210636 V 4 4 Z M 8.1054037,6.4999606 h 3.7602133 c 0.236667,0.8581347 1.054867,1.5000106 2.029164,1.5000106 H 18.1054 c 0.974346,0 1.792506,-0.6418759 2.029163,-1.5000106 h 3.760213 c 0.592283,0 1.052567,0.437446 1.052567,1.0001214 v 18.499847 c 0,0.562675 -0.460284,1.000121 -1.052567,1.000121 H 8.1054037 c -0.5922866,0 -1.0525639,-0.437447 -1.0525639,-1.000122 V 7.500082 c 0,-0.5626754 0.4602773,-1.0001214 1.0525639,-1.0001214 z M 10.73691,10.999993 c -0.290586,0 -0.526193,0.223999 -0.526193,0.50006 0,0.132593 0.0554,0.259824 0.154019,0.353574 0.0988,0.09375 0.232607,0.146488 0.372174,0.146488 h 10.52655 c 0.139568,0 0.273327,-0.05274 0.372175,-0.146488 0.0986,-0.09375 0.154018,-0.220981 0.154018,-0.353574 0,-0.132591 -0.0554,-0.259822 -0.154018,-0.353573 -0.0988,-0.09375 -0.232607,-0.146487 -0.372175,-0.146487 z m 0,3.000021 c -0.290586,0 -0.526193,0.223999 -0.526193,0.50006 0,0.132593 0.0554,0.259824 0.154019,0.353575 0.0988,0.09375 0.232607,0.146487 0.372174,0.146487 h 10.52655 c 0.139568,0 0.273327,-0.05274 0.372175,-0.146487 0.0986,-0.09375 0.154018,-0.220982 0.154018,-0.353575 0,-0.132591 -0.0554,-0.259822 -0.154018,-0.353574 -0.0988,-0.09375 -0.232607,-0.146486 -0.372175,-0.146486 z m 0,3.000022 c -0.290586,0 -0.526193,0.223997 -0.526193,0.500059 0,0.132594 0.0554,0.259824 0.154019,0.353575 0.0988,0.09375 0.232607,0.146486 0.372174,0.146486 h 10.52655 c 0.139568,0 0.273327,-0.05274 0.372175,-0.146486 0.0986,-0.09375 0.154018,-0.220981 0.154018,-0.353575 0,-0.132591 -0.0554,-0.259822 -0.154018,-0.353574 -0.0988,-0.09375 -0.232607,-0.146485 -0.372175,-0.146485 z m 0,3.00002 c -0.290586,0 -0.526193,0.223999 -0.526193,0.500062 0,0.132591 0.0554,0.259822 0.154019,0.353574 0.0988,0.09375 0.232607,0.146486 0.372174,0.146486 h 10.52655 c 0.139568,0 0.273327,-0.05274 0.372175,-0.146486 0.0986,-0.09375 0.154018,-0.220983 0.154018,-0.353574 0,-0.132593 -0.0554,-0.259824 -0.154018,-0.353575 -0.0988,-0.09375 -0.232607,-0.146487 -0.372175,-0.146487 z m 0,3.000023 c -0.290586,0 -0.526193,0.223997 -0.526193,0.50006 0,0.276062 0.235607,0.500059 0.526193,0.500059 h 4.736811 c 0.290757,0 0.526364,-0.223997 0.526364,-0.500059 0,-0.276063 -0.235607,-0.50006 -0.526364,-0.50006 z"
       fill-rule="evenodd"
       id="path28"
       sodipodi:nodetypes="scsssssssscsscccccccscsscsssssssssscsscscsssscsscscsssscsscscsssscsscscsssssssss"
       style="fill:#d6dbf1;fill-opacity:1;stroke-width:0.0439705" />
  </g>
  <metadata
     id="metadata4159">
    <rdf:RDF>
      <cc:Work
         rdf:about="">
        <dc:format>image/svg+xml</dc:format>
        <dc:type
           rdf:resource="http://purl.org/dc/dcmitype/StillImage" />
      </cc:Work>
    </rdf:RDF>
  </metadata>
  <defs
     id="defs4157">
    <style
       type="text/css"
       id="current-color-scheme" />
    <linearGradient
       id="oomox"
       x1="33"
       x2="33"
       y1="81"
       y2="95"
       gradientUnits="userSpaceOnUse">
      <stop
         offset="0%"
         style="stop-color:#303b3d; stop-opacity:1"
         id="stop18" />
      <stop
         offset="100%"
         style="stop-color:#bc985d; stop-opacity:1"
         id="stop20" />
    </linearGradient>
  </defs>
  <sodipodi:namedview
     pagecolor="#ffffff"
     bordercolor="#000000"
     borderopacity="1"
     objecttolerance="10"
     gridtolerance="10000"
     guidetolerance="10"
     inkscape:pageopacity="0"
     inkscape:pageshadow="2"
     inkscape:window-width="1920"
     inkscape:window-height="1011"
     id="namedview4155"
     inkscape:document-units="px"
     showgrid="false"
     inkscape:showpageshadow="false"
     borderlayer="false"
     inkscape:zoom="8.0000004"
     inkscape:cx="30.937498"
     inkscape:cy="23.249999"
     inkscape:window-x="0"
     inkscape:window-y="0"
     inkscape:window-maximized="1"
     inkscape:current-layer="svg4153"
     fit-margin-top="0"
     fit-margin-left="0"
     fit-margin-right="0"
     fit-margin-bottom="0"
     inkscape:snap-bbox="true"
     inkscape:bbox-nodes="true"
     inkscape:document-rotation="0"
     showguides="false"
     inkscape:lockguides="false"
     inkscape:pagecheckerboard="0">
    <inkscape:grid
       type="xygrid"
       id="grid4140"
       originx="5"
       originy="5.000002" />
    <sodipodi:guide
       position="33.999853,19.999999"
       orientation="28,0"
       id="guide4186"
       inkscape:locked="false" />
    <sodipodi:guide
       position="33.999853,-8.000001"
       orientation="0,28.000004"
       id="guide4188"
       inkscape:locked="false" />
    <sodipodi:guide
       position="61.999857,-8.000001"
       orientation="-28,0"
       id="guide4190"
       inkscape:locked="false" />
    <sodipodi:guide
       position="61.999857,19.999999"
       orientation="0,-28.000004"
       id="guide4192"
       inkscape:locked="false" />
    <sodipodi:guide
       position="31.999853,21.999999"
       orientation="32,0"
       id="guide4194"
       inkscape:locked="false" />
    <sodipodi:guide
       position="31.999853,-10.000001"
       orientation="0,32.000004"
       id="guide4196"
       inkscape:locked="false" />
    <sodipodi:guide
       position="63.999857,-10.000001"
       orientation="-32,0"
       id="guide4198"
       inkscape:locked="false" />
    <sodipodi:guide
       position="63.999857,21.999999"
       orientation="0,-32.000004"
       id="guide4200"
       inkscape:locked="false" />
  </sodipodi:namedview>
  <inkscape:clipboard
     style="opacity:0.01000001;fill:#00000f;fill-opacity:0;stroke-width:1;stroke-linecap:butt;stroke-linejoin:miter;stroke-miterlimit:4;stroke-dasharray:none;stroke-dashoffset:0;stroke-opacity:1;stroke:none"
     min="0,0"
     max="22,22" />
</svg>
