<?xml version="1.0" encoding="UTF-8" standalone="no"?>
<svg
   id="svg4153"
   version="1.1"
   inkscape:version="1.1.2 (0a00cf5339, 2022-02-04)"
   width="32.000004"
   height="32"
   sodipodi:docname="klipper.svg"
   viewBox="0 0 32.000004 32"
   xmlns:inkscape="http://www.inkscape.org/namespaces/inkscape"
   xmlns:sodipodi="http://sodipodi.sourceforge.net/DTD/sodipodi-0.dtd"
   xmlns="http://www.w3.org/2000/svg"
   xmlns:svg="http://www.w3.org/2000/svg"
   xmlns:rdf="http://www.w3.org/1999/02/22-rdf-syntax-ns#"
   xmlns:cc="http://creativecommons.org/ns#"
   xmlns:dc="http://purl.org/dc/elements/1.1/">
  <g
     id="22-22-klipper"
     transform="translate(31.999853,10)">
    <rect
       style="fill:none;fill-opacity:1;stroke:none;stroke-width:0.1;stroke-linecap:square;stroke-linejoin:miter;stroke-miterlimit:4;stroke-dasharray:none;stroke-dashoffset:0;stroke-opacity:1"
       id="rect4148"
       width="22"
       height="22"
       x="1.3415527e-07"
       y="0" />
    <path
       d="m 9.526278,3 c -0.6820312,0 -1.526131,2e-6 -1.526131,1.000002 l -2.5264312,5e-6 C 4.6636574,4.0000086 4,4.600469 4,5.333388 V 17.666619 C 4,18.399539 4.6636574,19 5.4737158,19 H 16.526277 C 17.336348,19 18,18.399539 18,17.666619 V 5.333388 C 18,4.600469 17.336348,4.0000086 16.526277,4.000007 l -2.52613,-5e-6 C 14.000147,3.000002 13.155725,3 12.473726,3 Z m 0,0 h 2.947448 v 0 0 z m -4.0524955,2 2.5263645,2e-6 c 0,1 1,0.999998 1.520853,0.999998 h 2.95278 c 0.526367,2e-6 1.526367,2e-6 1.526367,-0.999998 L 16.526344,5 C 16.940939,4.9999997 17,4.9582711 17,5.333388 V 17.666619 C 17,18.041736 16.940939,18 16.526344,18 H 5.4737825 C 5.0591821,18 5,18.041735 5,17.666619 V 5.333388 C 5,4.9582711 5.0591821,4.9999997 5.4737825,5 Z M 7.3158339,7 C 7.1124244,7 6.9474997,7.3159581 6.9474997,7.5 c 0,0.088389 0.038763,0.2734988 0.1078161,0.336 C 7.1245018,7.8985 7.2181405,8 7.3158377,8 h 7.3685843 c 0.09772,0 0.191332,-0.1015 0.260524,-0.164 0.069,-0.0625 0.10781,-0.2476059 0.10781,-0.336 0,-0.088399 -0.0388,-0.2735 -0.10781,-0.336 C 14.875816,7.1015001 14.782121,7 14.684422,7 Z m 0,2 C 7.1124244,9 6.9474997,9.3159577 6.9474997,9.5 c 0,0.088386 0.038763,0.273498 0.1078161,0.336 C 7.1245018,9.89851 7.2183028,10 7.316,10 h 7.368422 c 0.09772,0 0.191332,-0.10147 0.260524,-0.164 0.069,-0.06251 0.10781,-0.2476055 0.10781,-0.336 0,-0.088404 -0.0388,-0.2735002 -0.10781,-0.336 C 14.875816,9.101497 14.782121,9 14.684422,9 Z m 0,2 c -0.2034095,0 -0.3683342,0.315958 -0.3683342,0.5 0,0.08841 0.038763,0.2735 0.1078161,0.336 C 7.1245018,11.89851 7.2181405,12 7.3158377,12 h 7.3685843 c 0.09772,0 0.191332,-0.10148 0.260524,-0.164 0.069,-0.06251 0.10781,-0.247603 0.10781,-0.336 0,-0.0884 -0.0388,-0.273501 -0.10781,-0.336 C 14.875816,11.10149 14.782121,11 14.684422,11 Z m 0,2 c -0.2034095,0 -0.3683342,0.315958 -0.3683342,0.5 0,0.08838 0.038763,0.273499 0.1078161,0.336 C 7.1245018,13.89851 7.2181405,14 7.3158377,14 h 7.3685843 c 0.09772,0 0.191332,-0.1015 0.260524,-0.164 0.069,-0.06251 0.10781,-0.247606 0.10781,-0.336 0,-0.08838 -0.0388,-0.273498 -0.10781,-0.336 C 14.875816,13.101485 14.782121,13 14.684422,13 Z m 0,2 c -0.2034094,0 -0.3683342,0.315959 -0.3683342,0.5 0,0.184043 0.1649247,0.5 0.3683342,0.5 h 3.3157741 c 0.203525,0 0.368448,-0.315957 0.368448,-0.5 0,-0.184041 -0.164924,-0.5 -0.368448,-0.5 z"
       fill-rule="evenodd"
       id="path28-9"
       sodipodi:nodetypes="scsssssssscsscccccscsccscsssssscssscsscsccssscsscsccssscsscsccssscsscscsssssss"
       style="fill:#d6dbf1;fill-opacity:1;stroke-width:0.0300374" />
  </g>
  <g
     id="klipper">
    <rect
       y="0"
       x="0"
       height="32"
       width="32.000004"
       id="rect4230"
       style="fill:none;fill-opacity:1;stroke:none" />
    <path
       d="M 13.894682,4 C 12.920354,4 12.102194,4.1418654 11.865537,5 H 8.1053087 C 6.9480822,5 6,6.3006208 6,7.4 V 25.999929 C 6,27.099308 6.9480822,28 8.1053087,28 H 23.894687 C 25.051921,28 26,27.099308 26,25.999929 V 7.4 C 26,6.3006208 25.051921,5 23.894687,5 H 20.134464 C 19.897806,4.1418654 19.079607,4 18.105318,4 Z m 0,0 h 4.210636 V 4 4 Z M 8.305,6 h 3.560418 c 0.236667,0.8581347 0.955285,1 1.929582,1 h 4.3104 c 0.974346,0 1.8946,2e-6 2.029163,-1 H 23.695 c 0.592283,0 1.252343,0.9374066 1.252343,1.500082 v 18.499847 c 0,0.562675 -0.460284,1.000121 -1.052567,1.000121 H 8.1054037 c -0.5922866,0 -1.0525688,-0.437447 -1.0525639,-1.000122 L 7.053,7.500082 C 7.0530049,6.9374066 7.7127134,6 8.305,6 Z m 2.43191,4.999993 c -0.290586,0 -0.526193,0.223999 -0.526193,0.50006 0,0.132593 0.0554,0.259824 0.154019,0.353574 0.0988,0.09375 0.232607,0.146488 0.372174,0.146488 h 10.52655 c 0.139568,0 0.273327,-0.05274 0.372175,-0.146488 0.0986,-0.09375 0.154018,-0.220981 0.154018,-0.353574 0,-0.132591 -0.0554,-0.259822 -0.154018,-0.353573 -0.0988,-0.09375 -0.232607,-0.146487 -0.372175,-0.146487 z m 0,3.000021 c -0.290586,0 -0.526193,0.223999 -0.526193,0.50006 0,0.132593 0.0554,0.259824 0.154019,0.353575 0.0988,0.09375 0.232607,0.146487 0.372174,0.146487 h 10.52655 c 0.139568,0 0.273327,-0.05274 0.372175,-0.146487 0.0986,-0.09375 0.154018,-0.220982 0.154018,-0.353575 0,-0.132591 -0.0554,-0.259822 -0.154018,-0.353574 -0.0988,-0.09375 -0.232607,-0.146486 -0.372175,-0.146486 z m 0,3.000022 c -0.290586,0 -0.526193,0.223997 -0.526193,0.500059 0,0.132594 0.0554,0.259824 0.154019,0.353575 0.0988,0.09375 0.232607,0.146486 0.372174,0.146486 h 10.52655 c 0.139568,0 0.273327,-0.05274 0.372175,-0.146486 0.0986,-0.09375 0.154018,-0.220981 0.154018,-0.353575 0,-0.132591 -0.0554,-0.259822 -0.154018,-0.353574 -0.0988,-0.09375 -0.232607,-0.146485 -0.372175,-0.146485 z m 0,3.00002 c -0.290586,0 -0.526193,0.223999 -0.526193,0.500062 0,0.132591 0.0554,0.259822 0.154019,0.353574 0.0988,0.09375 0.232607,0.146486 0.372174,0.146486 h 10.52655 c 0.139568,0 0.273327,-0.05274 0.372175,-0.146486 0.0986,-0.09375 0.154018,-0.220983 0.154018,-0.353574 0,-0.132593 -0.0554,-0.259824 -0.154018,-0.353575 -0.0988,-0.09375 -0.232607,-0.146487 -0.372175,-0.146487 z m 0,3.000023 c -0.290586,0 -0.526193,0.223997 -0.526193,0.50006 0,0.276062 0.235607,0.500059 0.526193,0.500059 h 4.736811 c 0.290757,0 0.526364,-0.223997 0.526364,-0.500059 0,-0.276063 -0.235607,-0.50006 -0.526364,-0.50006 z"
       fill-rule="evenodd"
       id="path28"
       sodipodi:nodetypes="scsssssssscsscccccscsccscsssssscssscsscsccssscsscsccssscsscsccssscsscscsssssss"
       style="fill:#d6dbf1;fill-opacity:1;stroke-width:0.0439705" />
  </g>
  <metadata
     id="metadata4159">
    <rdf:RDF>
      <cc:Work
         rdf:about="">
        <dc:format>image/svg+xml</dc:format>
        <dc:type
           rdf:resource="http://purl.org/dc/dcmitype/StillImage" />
      </cc:Work>
    </rdf:RDF>
  </metadata>
  <defs
     id="defs4157">
    <style
       type="text/css"
       id="current-color-scheme" />
    <linearGradient
       id="oomox"
       x1="33"
       x2="33"
       y1="81"
       y2="95"
       gradientUnits="userSpaceOnUse">
      <stop
         offset="0%"
         style="stop-color:#303b3d; stop-opacity:1"
         id="stop18" />
      <stop
         offset="100%"
         style="stop-color:#bc985d; stop-opacity:1"
         id="stop20" />
    </linearGradient>
  </defs>
  <sodipodi:namedview
     pagecolor="#ffffff"
     bordercolor="#000000"
     borderopacity="1"
     objecttolerance="10"
     gridtolerance="10000"
     guidetolerance="10"
     inkscape:pageopacity="0"
     inkscape:pageshadow="2"
     inkscape:window-width="1920"
     inkscape:window-height="1009"
     id="namedview4155"
     inkscape:document-units="px"
     showgrid="false"
     inkscape:showpageshadow="false"
     borderlayer="false"
     inkscape:zoom="8.0000005"
     inkscape:cx="22.562499"
     inkscape:cy="13.999999"
     inkscape:window-x="0"
     inkscape:window-y="0"
     inkscape:window-maximized="1"
     inkscape:current-layer="svg4153"
     fit-margin-top="0"
     fit-margin-left="0"
     fit-margin-right="0"
     fit-margin-bottom="0"
     inkscape:snap-bbox="true"
     inkscape:bbox-nodes="true"
     inkscape:document-rotation="0"
     showguides="false"
     inkscape:lockguides="false"
     inkscape:pagecheckerboard="0">
    <inkscape:grid
       type="xygrid"
       id="grid4140"
       originx="5"
       originy="5.000002" />
    <sodipodi:guide
       position="33.999853,19.999999"
       orientation="28,0"
       id="guide4186"
       inkscape:locked="false" />
    <sodipodi:guide
       position="33.999853,-8.000001"
       orientation="0,28.000004"
       id="guide4188"
       inkscape:locked="false" />
    <sodipodi:guide
       position="61.999857,-8.000001"
       orientation="-28,0"
       id="guide4190"
       inkscape:locked="false" />
    <sodipodi:guide
       position="61.999857,19.999999"
       orientation="0,-28.000004"
       id="guide4192"
       inkscape:locked="false" />
    <sodipodi:guide
       position="31.999853,21.999999"
       orientation="32,0"
       id="guide4194"
       inkscape:locked="false" />
    <sodipodi:guide
       position="31.999853,-10.000001"
       orientation="0,32.000004"
       id="guide4196"
       inkscape:locked="false" />
    <sodipodi:guide
       position="63.999857,-10.000001"
       orientation="-32,0"
       id="guide4198"
       inkscape:locked="false" />
    <sodipodi:guide
       position="63.999857,21.999999"
       orientation="0,-32.000004"
       id="guide4200"
       inkscape:locked="false" />
  </sodipodi:namedview>
  <inkscape:clipboard
     style="opacity:0.01000001;fill:#00000f;fill-opacity:0;stroke-width:1;stroke-linecap:butt;stroke-linejoin:miter;stroke-miterlimit:4;stroke-dasharray:none;stroke-dashoffset:0;stroke-opacity:1;stroke:none"
     min="0,0"
     max="22,22" />
</svg>
