<?xml version="1.0" encoding="UTF-8" standalone="no"?>
<svg
   width="32"
   height="32"
   version="1.1"
   id="svg12"
   sodipodi:docname="korgac.svg"
   inkscape:version="1.1.2 (0a00cf5339, 2022-02-04)"
   xmlns:inkscape="http://www.inkscape.org/namespaces/inkscape"
   xmlns:sodipodi="http://sodipodi.sourceforge.net/DTD/sodipodi-0.dtd"
   xmlns="http://www.w3.org/2000/svg"
   xmlns:svg="http://www.w3.org/2000/svg"
   xmlns:rdf="http://www.w3.org/1999/02/22-rdf-syntax-ns#"
   xmlns:cc="http://creativecommons.org/ns#"
   xmlns:dc="http://purl.org/dc/elements/1.1/">
  <metadata
     id="metadata18">
    <rdf:RDF>
      <cc:Work
         rdf:about="">
        <dc:format>image/svg+xml</dc:format>
        <dc:type
           rdf:resource="http://purl.org/dc/dcmitype/StillImage" />
      </cc:Work>
    </rdf:RDF>
  </metadata>
  <defs
     id="defs16" />
  <sodipodi:namedview
     pagecolor="#ffffff"
     bordercolor="#000000"
     borderopacity="1"
     objecttolerance="10"
     gridtolerance="10"
     guidetolerance="10"
     inkscape:pageopacity="0"
     inkscape:pageshadow="2"
     inkscape:window-width="1920"
     inkscape:window-height="1015"
     id="namedview14"
     showgrid="false"
     inkscape:zoom="6.9384853"
     inkscape:cx="30.914528"
     inkscape:cy="24.573087"
     inkscape:window-x="0"
     inkscape:window-y="0"
     inkscape:window-maximized="1"
     inkscape:current-layer="korgac"
     inkscape:document-rotation="0"
     inkscape:pagecheckerboard="0"
     inkscape:lockguides="true"
     inkscape:showpageshadow="false">
    <inkscape:grid
       type="xygrid"
       id="grid858"
       originx="0"
       originy="0" />
  </sodipodi:namedview>
  <g
     id="korgac">
    <rect
       style="opacity:0.00100002;fill:#a8aeca;fill-opacity:1"
       width="32"
       height="32"
       x="0"
       y="0"
       id="rect7" />
    <path
       d="M 16.200003,14.5 C 13.167272,14.5 10.7,16.967232 10.7,20 c 0,3.032769 2.467235,5.5 5.500003,5.5 3.032733,0 5.499995,-2.467231 5.499995,-5.5 0,-3.032768 -2.467225,-5.5 -5.499995,-5.5 z m 0,10.290328 c -2.641487,0 -4.790331,-2.148938 -4.790331,-4.790328 0,-2.641483 2.148942,-4.790327 4.790331,-4.790327 2.641483,0 4.790323,2.148937 4.790323,4.790327 1.62e-4,2.641484 -2.148756,4.790328 -4.790323,4.790328 z"
       id="path81-2"
       style="fill:#d6dbf1;fill-opacity:1;stroke-width:0.0422432" />
    <path
       d="m 18.067754,21.508029 c -0.0632,0 -0.127398,-0.01827 -0.184289,-0.05586 l -1.995977,-1.330667 c -0.09248,-0.06189 -0.148027,-0.165663 -0.148027,-0.276767 v -3.326624 c 0,-0.183635 0.14903,-0.332666 0.332665,-0.332666 0.183621,0 0.332652,0.149031 0.332652,0.332666 v 3.148648 l 1.847951,1.231845 c 0.153017,0.102129 0.194276,0.308376 0.09212,0.461401 -0.06388,0.09615 -0.169647,0.148041 -0.277109,0.148041 z"
       id="path12-3"
       style="fill:#d6dbf1;fill-opacity:1;stroke-width:0.332665" />
    <path
       d="M 25.78357,6.26574 H 23.43306 V 4.59465 C 23.40636,4.258701 23.12583,4 22.78903,4 22.45193,4 22.17169,4.258701 22.1447,4.59465 V 6.26574 H 10.10881 V 4.59465 C 10.08181,4.258701 9.8015702,4 9.4644799,4 c -0.3368,0 -0.61733,0.258701 -0.64404,0.59465 v 1.67109 h -2.3505 c -0.65524,0 -1.2832,0.26043 -1.7466499,0.72358 C 4.26014,7.452471 4,8.08074 4,8.73568 v 16.79468 c 0,0.65495 0.26015,1.28319 0.72329,1.74635 C 5.18672,27.73986 5.8146999,28 6.4699399,28 H 25.78367 c 0.65524,0 1.2832,-0.26015 1.74666,-0.72329 0.46314,-0.46314 0.72328,-1.09141 0.72328,-1.74635 V 8.748171 C 28.25661,8.09092 27.99806,7.45954 27.53463,6.993801 27.07091,6.52779 26.44094,6.26592 25.78372,6.26592 Z m -3.63885,1.16889 v 1.556271 c -0.0144,0.179749 0.0471,0.357489 0.16941,0.489859 0.12232,0.13265 0.2946,0.207881 0.47492,0.207881 0.18032,0 0.3526,-0.0752 0.47491,-0.207881 0.12233,-0.13237 0.18348,-0.31011 0.16913,-0.489859 V 7.43493 c 0.079,0.033 0.15476,0.0729 0.22654,0.11944 0.50909,0.29948 0.82209,0.84591 0.8232,1.436531 0.003,0.60069 -0.31384,1.15743 -0.8315,1.46241 -0.51742,0.304639 -1.15802,0.31125 -1.68204,0.0175 -0.52374,-0.29402 -0.85194,-0.84414 -0.86172,-1.44483 -0.009,-0.60069 0.30063,-1.16118 0.81489,-1.4716 0.0712,-0.0451 0.14558,-0.085 0.22224,-0.11944 z m -13.3244501,0 2.9e-4,1.556271 c -0.0144,0.179749 0.0468,0.357489 0.16912,0.489859 0.12233,0.13265 0.2946,0.207881 0.47492,0.207881 0.18032,0 0.3526003,-0.0752 0.4749201,-0.207881 0.12232,-0.13237 0.18376,-0.31011 0.16941,-0.489859 V 7.43493 c 0.0795,0.0339 0.15677,0.0738 0.23056,0.11944 0.42352,0.25584 0.71353,0.684821 0.79306,1.17324 0.0795,0.48869 -0.0594,0.98748 -0.38017,1.36442 -0.32073,0.37729 -0.79078,0.59436 -1.2857701,0.59436 -0.49473,0 -0.96476,-0.21707 -1.2854699,-0.59436 C 7.8604099,9.71502 7.7214399,9.21627 7.8009699,8.72761 c 0.0795,-0.488419 0.36954,-0.917359 0.79306,-1.17324 0.0718,-0.0465 0.14759,-0.0864 0.22655,-0.11944 z m 18.1611601,18.11191 2.9e-4,3e-4 c -9.75e-4,0.31728 -0.12749,0.62135 -0.35203,0.8459 -0.22454,0.22426 -0.52832,0.35088 -0.84591,0.35203 H 6.47005 C 6.1524799,26.74377 5.8486899,26.617 5.6241399,26.39274 5.3996,26.16821 5.27327,25.86413 5.27211,25.54684 V 13.46169 h 21.7093 z"
       id="path61"
       style="fill:#d6dbf1;fill-opacity:1;stroke-width:0.0735061" />
  </g>
  <g
     id="22-22-korgac"
     transform="translate(32.000001,10.000001)">
    <rect
       style="opacity:0.00100002;fill:#a8aeca;fill-opacity:1"
       width="22"
       height="22"
       x="0"
       y="0"
       id="rect2" />
    <path
       d="m 11.133335,9.999999 c -2.02182,0 -3.666668,1.644821 -3.666668,3.666667 0,2.021846 1.644823,3.666666 3.666668,3.666666 2.021822,0 3.666664,-1.64482 3.666664,-3.666666 0,-2.021846 -1.644817,-3.666667 -3.666664,-3.666667 z m 0,6.860219 c -1.760991,0 -3.193554,-1.432626 -3.193554,-3.193552 0,-1.760989 1.432628,-3.193552 3.193554,-3.193552 1.760989,0 3.193549,1.432625 3.193549,3.193552 1.08e-4,1.760989 -1.432504,3.193552 -3.193549,3.193552 z"
       id="path81-2-4"
       style="fill:#d6dbf1;fill-opacity:1;stroke-width:0.0281621" />
    <path
       d="m 12.378503,14.672018 c -0.04213,0 -0.08493,-0.01218 -0.12286,-0.03724 l -1.330651,-0.887111 c -0.06165,-0.04126 -0.09869,-0.110442 -0.09869,-0.184511 v -2.21775 c 0,-0.122423 0.09935,-0.221777 0.221777,-0.221777 0.122414,0 0.221768,0.09935 0.221768,0.221777 v 2.099099 l 1.231967,0.82123 c 0.102012,0.06809 0.129518,0.205584 0.06141,0.307601 -0.04259,0.0641 -0.113098,0.09869 -0.18474,0.09869 z"
       id="path12-3-8"
       style="fill:#d6dbf1;fill-opacity:1;stroke-width:0.221777" />
    <path
       d="m 17.52238,4.510492 h -1.567007 v -1.11406 c -0.0178,-0.223966 -0.20482,-0.396433 -0.429353,-0.396433 -0.224733,0 -0.41156,0.172467 -0.429553,0.396433 v 1.11406 H 7.07254 V 3.396432 C 7.05454,3.172466 6.867713,2.999999 6.642987,2.999999 c -0.224534,0 -0.411554,0.172467 -0.42936,0.396433 v 1.11406 h -1.567 C 4.2098,4.510492 3.79116,4.684112 3.482193,4.992879 3.173427,5.301646 3,5.720492 3,6.157119 v 11.196453 c 0,0.436634 0.173433,0.85546 0.482193,1.164234 0.308954,0.308766 0.727607,0.482193 1.164434,0.482193 h 12.87582 c 0.436826,0 0.855466,-0.173433 1.16444,-0.482193 0.30876,-0.30876 0.482186,-0.727607 0.482186,-1.164234 V 6.165446 c 0.002,-0.438167 -0.170366,-0.859087 -0.47932,-1.16958 C 18.380607,4.685192 17.960627,4.510612 17.52248,4.510612 Z m -2.4259,0.77926 v 1.037514 c -0.0096,0.119833 0.0314,0.238326 0.11294,0.326573 0.08155,0.08843 0.1964,0.138587 0.316613,0.138587 0.120214,0 0.235067,-0.05013 0.316607,-0.138587 0.08155,-0.08825 0.12232,-0.20674 0.112753,-0.326573 V 5.289952 c 0.05267,0.022 0.103174,0.0486 0.151027,0.07963 0.339393,0.199653 0.54806,0.56394 0.5488,0.957687 0.002,0.40046 -0.209227,0.77162 -0.554333,0.97494 -0.344947,0.203093 -0.772014,0.2075 -1.12136,0.01167 -0.34916,-0.196013 -0.56796,-0.56276 -0.57448,-0.96322 -0.006,-0.40046 0.20042,-0.77412 0.54326,-0.981067 0.04747,-0.03007 0.09705,-0.05667 0.14816,-0.07963 z m -8.882967,0 1.94e-4,1.037514 c -0.0096,0.119833 0.0312,0.238326 0.112746,0.326573 0.08155,0.08843 0.1964,0.138587 0.316614,0.138587 0.120213,0 0.235066,-0.05013 0.316613,-0.138587 0.08155,-0.08825 0.122507,-0.20674 0.11294,-0.326573 V 5.289952 c 0.053,0.0226 0.104513,0.0492 0.153707,0.07963 0.282346,0.17056 0.475686,0.456547 0.528706,0.78216 0.053,0.325793 -0.0396,0.65832 -0.253446,0.909613 -0.21382,0.251527 -0.527187,0.39624 -0.85718,0.39624 -0.32982,0 -0.643174,-0.144713 -0.85698,-0.39624 C 5.573607,6.810015 5.48096,6.477515 5.53398,6.151742 c 0.053,-0.325613 0.24636,-0.611573 0.528707,-0.78216 0.04787,-0.031 0.09839,-0.0576 0.151033,-0.07963 z m 12.10744,12.074607 1.94e-4,2e-4 c -6.5e-4,0.21152 -0.08499,0.414233 -0.234687,0.563933 -0.149693,0.149507 -0.352213,0.23392 -0.56394,0.234687 H 4.6467 C 4.434987,18.162512 4.23246,18.077999 4.08276,17.928492 3.933067,17.778806 3.848847,17.576086 3.848073,17.364559 V 9.307792 H 18.32094 Z"
       id="path61-7"
       style="fill:#d6dbf1;fill-opacity:1;stroke-width:0.0490041" />
  </g>
</svg>
