<?xml version="1.0" encoding="UTF-8" standalone="no"?>
<!-- Created with Inkscape (http://www.inkscape.org/) -->

<svg
   id="svg4153"
   version="1.1"
   inkscape:version="1.1.2 (0a00cf5339, 2022-02-04)"
   width="22"
   height="22"
   sodipodi:docname="kpackagekit.svg"
   viewBox="0 0 22 22"
   xmlns:inkscape="http://www.inkscape.org/namespaces/inkscape"
   xmlns:sodipodi="http://sodipodi.sourceforge.net/DTD/sodipodi-0.dtd"
   xmlns="http://www.w3.org/2000/svg"
   xmlns:svg="http://www.w3.org/2000/svg"
   xmlns:rdf="http://www.w3.org/1999/02/22-rdf-syntax-ns#"
   xmlns:cc="http://creativecommons.org/ns#"
   xmlns:dc="http://purl.org/dc/elements/1.1/">
  <metadata
     id="metadata4159">
    <rdf:RDF>
      <cc:Work
         rdf:about="">
        <dc:format>image/svg+xml</dc:format>
        <dc:type
           rdf:resource="http://purl.org/dc/dcmitype/StillImage" />
      </cc:Work>
    </rdf:RDF>
  </metadata>
  <defs
     id="defs4157">
    <style
       type="text/css"
       id="current-color-scheme">
      .ColorScheme-Text {
        color:#31363b;
      }
      .ColorScheme-Background {
        color:#eff0f1;
      }
      .ColorScheme-Highlight {
        color:#3daee9;
      }
      .ColorScheme-ViewText {
        color:#31363b;
      }
      .ColorScheme-ViewBackground {
        color:#fcfcfc;
      }
      .ColorScheme-ViewHover {
        color:#93cee9;
      }
      .ColorScheme-ViewFocus{
        color:#3daee9;
      }
      .ColorScheme-ButtonText {
        color:#31363b;
      }
      .ColorScheme-ButtonBackground {
        color:#eff0f1;
      }
      .ColorScheme-ButtonHover {
        color:#93cee9;
      }
      .ColorScheme-ButtonFocus{
        color:#3daee9;
      }
      </style>
  </defs>
  <sodipodi:namedview
     pagecolor="#ffffff"
     bordercolor="#666666"
     borderopacity="1"
     objecttolerance="10"
     gridtolerance="10000"
     guidetolerance="10"
     inkscape:pageopacity="0"
     inkscape:pageshadow="2"
     inkscape:window-width="1920"
     inkscape:window-height="1015"
     id="namedview4155"
     inkscape:document-units="px"
     showgrid="false"
     inkscape:showpageshadow="false"
     borderlayer="true"
     inkscape:zoom="5.6568543"
     inkscape:cx="-2.298097"
     inkscape:cy="26.781669"
     inkscape:window-x="0"
     inkscape:window-y="0"
     inkscape:window-maximized="1"
     inkscape:current-layer="svg4153"
     inkscape:pagecheckerboard="0"
     showguides="false"
     inkscape:lockguides="true">
    <inkscape:grid
       type="xygrid"
       id="grid4140"
       originx="-22"
       originy="1.5987211e-14" />
    <sodipodi:guide
       position="22,22"
       orientation="22,0"
       id="guide4146"
       inkscape:locked="true" />
    <sodipodi:guide
       position="22,-1.7763568e-14"
       orientation="0,22"
       id="guide4148"
       inkscape:locked="true" />
    <sodipodi:guide
       position="44,-1.7763568e-14"
       orientation="-22,0"
       id="guide4150"
       inkscape:locked="true" />
    <sodipodi:guide
       position="44,22"
       orientation="0,-22"
       id="guide4152"
       inkscape:locked="true" />
    <sodipodi:guide
       position="25,19"
       orientation="16,0"
       id="guide4154"
       inkscape:locked="true" />
    <sodipodi:guide
       position="40,3"
       orientation="0,16"
       id="guide4156"
       inkscape:locked="true" />
    <sodipodi:guide
       position="41,3"
       orientation="-16,0"
       id="guide4158"
       inkscape:locked="true" />
    <sodipodi:guide
       position="41,19"
       orientation="0,-16"
       id="guide4160"
       inkscape:locked="true" />
  </sodipodi:namedview>
  <inkscape:clipboard
     style="opacity:0.01000001;fill:#00000f;fill-opacity:0;stroke-width:1;stroke-linecap:butt;stroke-linejoin:miter;stroke-miterlimit:4;stroke-dasharray:none;stroke-dashoffset:0;stroke-opacity:1;stroke:none"
     min="0,0"
     max="22,22" />
  <g
     id="kpackagekit-updates"
     transform="translate(-22)">
    <rect
       style="fill:none;fill-opacity:0.599057;stroke:none"
       id="rect4212"
       width="22"
       height="22"
       x="0"
       y="-2.6645353e-15" />
    <path
       style="color:#d5c289;fill:#d6dbf1;fill-opacity:1;stroke-width:1"
       class="ColorScheme-Text"
       d="M 10.999999,3 C 6.575999,3 3,6.576013 3,11 c 0,4.424013 3.575999,8 7.999999,8 4.424,0 8,-3.575987 8,-8 0,-4.423987 -3.576,-8 -8,-8 z m 0,1.000013 c 3.869987,0 7,3.130002 7,6.999987 0,3.869984 -3.130013,7.000013 -7,7.000013 -3.870013,0 -7,-3.130029 -7,-7.000013 0,-3.869985 3.129987,-6.999987 7,-6.999987 z m 0.749987,5.719004 v 0 0 0 0 0 c 0,0 -0.03394,0.0076 0,0 z m -0.780994,4.499981 z"
       id="path58"
       sodipodi:nodetypes="ssssssssssccccccccccccccccc" />
    <path
       d="m 10.605167,6.416667 c -0.560604,0.0014 -1.117047,0.09902 -1.644633,0.288807 -0.108258,0.0388 -0.173211,0.149417 -0.154212,0.262979 0.01887,0.113386 0.116321,0.19704 0.231261,0.198552 2.243135,0.03251 4.027964,1.740497 4.285811,3.914406 h -1.176601 c -0.09616,1e-4 -0.182765,0.05795 -0.21959,0.146646 -0.03672,0.08894 -0.01643,0.190992 0.05147,0.259074 l 2.307769,2.307779 c 0.09287,0.09273 0.243362,0.09273 0.336234,0 l 2.307774,-2.307779 c 0.06793,-0.06803 0.08819,-0.170331 0.05147,-0.259074 -0.03683,-0.08895 -0.123437,-0.146646 -0.219595,-0.146646 h -1.30193 C 15.329109,8.493341 13.226498,6.416844 10.606189,6.416844 h -0.0011 z m 0.0011,0.475465 c 2.447644,0 4.42682,1.979313 4.42682,4.426835 1.09e-4,0.131276 0.106454,0.237606 0.237742,0.237606 h 0.917526 l -1.733778,1.733796 -1.733779,-1.733796 h 0.903618 c 0.06549,1.26e-4 0.128212,-0.02696 0.173209,-0.07458 0.04499,-0.04762 0.06834,-0.111622 0.06453,-0.177134 -0.1235,-2.111622 -1.612341,-3.798098 -3.579996,-4.356435 0.10985,-0.0076 0.213644,-0.05644 0.324138,-0.05669 z M 7.541669,8.158853 c -0.06177,0.0011 -0.120671,0.02595 -0.164402,0.06954 l -2.307771,2.307779 c -0.06792,0.06803 -0.0882,0.170331 -0.05147,0.259074 0.03683,0.08895 0.123432,0.146646 0.219588,0.146646 h 1.301933 c 0.131074,2.58817 2.233788,4.664844 4.854202,4.664567 0.561773,0 1.118651,-0.100032 1.645585,-0.289739 h 1.11e-4 c 0.108258,-0.0388 0.173208,-0.149417 0.154212,-0.263005 -0.01887,-0.113385 -0.116319,-0.197039 -0.231267,-0.19855 -2.243213,-0.03251 -4.027962,-1.739616 -4.285805,-3.913298 h 1.176601 c 0.09616,-1.26e-4 0.182757,-0.05795 0.219588,-0.146646 0.03673,-0.08894 0.01643,-0.190992 -0.05147,-0.259074 L 7.71353,8.228367 C 7.668,8.182757 7.606018,8.157817 7.541698,8.158827 Z m 0.0038,0.573858 v 7.6e-5 0 0 0 0 0 0 0 0 0 0 z"
       id="path2-36"
       sodipodi:nodetypes="ccccccccccccccsccccsccccscccccccccccccccccccsccccccccccccccc"
       style="fill:#7b96b7;fill-opacity:1;stroke:none;stroke-width:0.0271703;stroke-opacity:1" />
  </g>
  <g
     id="kpackagekit-security">
    <rect
       style="fill:none;fill-opacity:0.599057;stroke:none"
       id="rect4208"
       width="22"
       height="22"
       x="0"
       y="-2.6645353e-15" />
    <path
       style="color:#d5c289;fill:#d6dbf1;fill-opacity:1;stroke-width:1"
       class="ColorScheme-Text"
       d="M 10.999999,3 C 6.575999,3 3,6.576013 3,11 c 0,4.424013 3.575999,8 7.999999,8 4.424,0 8,-3.575987 8,-8 0,-4.423987 -3.576,-8 -8,-8 z m 0,1.000013 c 3.869987,0 7,3.130002 7,6.999987 0,3.869984 -3.130013,7.000013 -7,7.000013 -3.870013,0 -7,-3.130029 -7,-7.000013 0,-3.869985 3.129987,-6.999987 7,-6.999987 z m 0.749987,5.719004 v 0 0 0 0 0 c 0,0 -0.03394,0.0076 0,0 z m -0.780994,4.499981 z"
       id="path58-3"
       sodipodi:nodetypes="ssssssssssccccccccccccccccc" />
    <path
       d="m 10.605167,6.416667 c -0.560604,0.0014 -1.117047,0.09902 -1.644633,0.288807 -0.108258,0.0388 -0.173211,0.149417 -0.154212,0.262979 0.01887,0.113386 0.116321,0.19704 0.231261,0.198552 2.243135,0.03251 4.027964,1.740497 4.285811,3.914406 h -1.176601 c -0.09616,1e-4 -0.182765,0.05795 -0.21959,0.146646 -0.03672,0.08894 -0.01643,0.190992 0.05147,0.259074 l 2.307769,2.307779 c 0.09287,0.09273 0.243362,0.09273 0.336234,0 l 2.307774,-2.307779 c 0.06793,-0.06803 0.08819,-0.170331 0.05147,-0.259074 -0.03683,-0.08895 -0.123437,-0.146646 -0.219595,-0.146646 h -1.30193 C 15.329109,8.493341 13.226498,6.416844 10.606189,6.416844 h -0.0011 z m 0.0011,0.475465 c 2.447644,0 4.42682,1.979313 4.42682,4.426835 1.09e-4,0.131276 0.106454,0.237606 0.237742,0.237606 h 0.917526 l -1.733778,1.733796 -1.733779,-1.733796 h 0.903618 c 0.06549,1.26e-4 0.128212,-0.02696 0.173209,-0.07458 0.04499,-0.04762 0.06834,-0.111622 0.06453,-0.177134 -0.1235,-2.111622 -1.612341,-3.798098 -3.579996,-4.356435 0.10985,-0.0076 0.213644,-0.05644 0.324138,-0.05669 z M 7.541669,8.158853 c -0.06177,0.0011 -0.120671,0.02595 -0.164402,0.06954 l -2.307771,2.307779 c -0.06792,0.06803 -0.0882,0.170331 -0.05147,0.259074 0.03683,0.08895 0.123432,0.146646 0.219588,0.146646 h 1.301933 c 0.131074,2.58817 2.233788,4.664844 4.854202,4.664567 0.561773,0 1.118651,-0.100032 1.645585,-0.289739 h 1.11e-4 c 0.108258,-0.0388 0.173208,-0.149417 0.154212,-0.263005 -0.01887,-0.113385 -0.116319,-0.197039 -0.231267,-0.19855 -2.243213,-0.03251 -4.027962,-1.739616 -4.285805,-3.913298 h 1.176601 c 0.09616,-1.26e-4 0.182757,-0.05795 0.219588,-0.146646 0.03673,-0.08894 0.01643,-0.190992 -0.05147,-0.259074 L 7.71353,8.228367 C 7.668,8.182757 7.606018,8.157817 7.541698,8.158827 Z m 0.0038,0.573858 v 7.6e-5 0 0 0 0 0 0 0 0 0 0 z"
       id="path2-36-6"
       sodipodi:nodetypes="ccccccccccccccsccccsccccscccccccccccccccccccsccccccccccccccc"
       style="fill:#ffb380;fill-opacity:1;stroke:none;stroke-width:0.0271703;stroke-opacity:1" />
  </g>
  <g
     id="kpackagekit-inactive"
     transform="translate(-44)">
    <rect
       y="-2.6645353e-15"
       x="0"
       height="22"
       width="22"
       id="rect4214"
       style="fill:none;fill-opacity:0.599057;stroke:none" />
    <path
       style="color:#d5c289;fill:#d6dbf1;fill-opacity:1;stroke-width:1"
       class="ColorScheme-Text"
       d="M 10.999999,3 C 6.575999,3 3,6.576013 3,11 c 0,4.424013 3.575999,8 7.999999,8 4.424,0 8,-3.575987 8,-8 0,-4.423987 -3.576,-8 -8,-8 z m 0,1.000013 c 3.869987,0 7,3.130002 7,6.999987 0,3.869984 -3.130013,7.000013 -7,7.000013 -3.870013,0 -7,-3.130029 -7,-7.000013 0,-3.869985 3.129987,-6.999987 7,-6.999987 z m 0.749987,5.719004 v 0 0 0 0 0 c 0,0 -0.03394,0.0076 0,0 z m -0.780994,4.499981 z"
       id="path58-7"
       sodipodi:nodetypes="ssssssssssccccccccccccccccc" />
    <path
       d="m 10.605167,6.416667 c -0.560604,0.0014 -1.117047,0.09902 -1.644633,0.288807 -0.108258,0.0388 -0.173211,0.149417 -0.154212,0.262979 0.01887,0.113386 0.116321,0.19704 0.231261,0.198552 2.243135,0.03251 4.027964,1.740497 4.285811,3.914406 h -1.176601 c -0.09616,1e-4 -0.182765,0.05795 -0.21959,0.146646 -0.03672,0.08894 -0.01643,0.190992 0.05147,0.259074 l 2.307769,2.307779 c 0.09287,0.09273 0.243362,0.09273 0.336234,0 l 2.307774,-2.307779 c 0.06793,-0.06803 0.08819,-0.170331 0.05147,-0.259074 -0.03683,-0.08895 -0.123437,-0.146646 -0.219595,-0.146646 h -1.30193 C 15.329109,8.493341 13.226498,6.416844 10.606189,6.416844 h -0.0011 z m 0.0011,0.475465 c 2.447644,0 4.42682,1.979313 4.42682,4.426835 1.09e-4,0.131276 0.106454,0.237606 0.237742,0.237606 h 0.917526 l -1.733778,1.733796 -1.733779,-1.733796 h 0.903618 c 0.06549,1.26e-4 0.128212,-0.02696 0.173209,-0.07458 0.04499,-0.04762 0.06834,-0.111622 0.06453,-0.177134 -0.1235,-2.111622 -1.612341,-3.798098 -3.579996,-4.356435 0.10985,-0.0076 0.213644,-0.05644 0.324138,-0.05669 z M 7.541669,8.158853 c -0.06177,0.0011 -0.120671,0.02595 -0.164402,0.06954 l -2.307771,2.307779 c -0.06792,0.06803 -0.0882,0.170331 -0.05147,0.259074 0.03683,0.08895 0.123432,0.146646 0.219588,0.146646 h 1.301933 c 0.131074,2.58817 2.233788,4.664844 4.854202,4.664567 0.561773,0 1.118651,-0.100032 1.645585,-0.289739 h 1.11e-4 c 0.108258,-0.0388 0.173208,-0.149417 0.154212,-0.263005 -0.01887,-0.113385 -0.116319,-0.197039 -0.231267,-0.19855 -2.243213,-0.03251 -4.027962,-1.739616 -4.285805,-3.913298 h 1.176601 c 0.09616,-1.26e-4 0.182757,-0.05795 0.219588,-0.146646 0.03673,-0.08894 0.01643,-0.190992 -0.05147,-0.259074 L 7.71353,8.228367 C 7.668,8.182757 7.606018,8.157817 7.541698,8.158827 Z m 0.0038,0.573858 v 7.6e-5 0 0 0 0 0 0 0 0 0 0 z"
       id="path2-36-5"
       sodipodi:nodetypes="ccccccccccccccsccccsccccscccccccccccccccccccsccccccccccccccc"
       style="fill:#d6dbf1;fill-opacity:1;stroke:none;stroke-width:0.0271703;stroke-opacity:1" />
  </g>
  <g
     id="kpackagekit-important"
     transform="translate(22)">
    <rect
       y="-2.6645353e-15"
       x="0"
       height="22"
       width="22"
       id="rect4206"
       style="fill:none;fill-opacity:0.599057;stroke:none" />
    <path
       style="color:#d5c289;fill:#d6dbf1;fill-opacity:1;stroke-width:1"
       class="ColorScheme-Text"
       d="M 10.999999,3 C 6.575999,3 3,6.576013 3,11 c 0,4.424013 3.575999,8 7.999999,8 4.424,0 8,-3.575987 8,-8 0,-4.423987 -3.576,-8 -8,-8 z m 0,1.000013 c 3.869987,0 7,3.130002 7,6.999987 0,3.869984 -3.130013,7.000013 -7,7.000013 -3.870013,0 -7,-3.130029 -7,-7.000013 0,-3.869985 3.129987,-6.999987 7,-6.999987 z m 0.749987,5.719004 v 0 0 0 0 0 c 0,0 -0.03394,0.0076 0,0 z m -0.780994,4.499981 z"
       id="path58-35"
       sodipodi:nodetypes="ssssssssssccccccccccccccccc" />
    <path
       d="m 10.605167,6.416667 c -0.560604,0.0014 -1.117047,0.09902 -1.644633,0.288807 -0.108258,0.0388 -0.173211,0.149417 -0.154212,0.262979 0.01887,0.113386 0.116321,0.19704 0.231261,0.198552 2.243135,0.03251 4.027964,1.740497 4.285811,3.914406 h -1.176601 c -0.09616,1e-4 -0.182765,0.05795 -0.21959,0.146646 -0.03672,0.08894 -0.01643,0.190992 0.05147,0.259074 l 2.307769,2.307779 c 0.09287,0.09273 0.243362,0.09273 0.336234,0 l 2.307774,-2.307779 c 0.06793,-0.06803 0.08819,-0.170331 0.05147,-0.259074 -0.03683,-0.08895 -0.123437,-0.146646 -0.219595,-0.146646 h -1.30193 C 15.329109,8.493341 13.226498,6.416844 10.606189,6.416844 h -0.0011 z m 0.0011,0.475465 c 2.447644,0 4.42682,1.979313 4.42682,4.426835 1.09e-4,0.131276 0.106454,0.237606 0.237742,0.237606 h 0.917526 l -1.733778,1.733796 -1.733779,-1.733796 h 0.903618 c 0.06549,1.26e-4 0.128212,-0.02696 0.173209,-0.07458 0.04499,-0.04762 0.06834,-0.111622 0.06453,-0.177134 -0.1235,-2.111622 -1.612341,-3.798098 -3.579996,-4.356435 0.10985,-0.0076 0.213644,-0.05644 0.324138,-0.05669 z M 7.541669,8.158853 c -0.06177,0.0011 -0.120671,0.02595 -0.164402,0.06954 l -2.307771,2.307779 c -0.06792,0.06803 -0.0882,0.170331 -0.05147,0.259074 0.03683,0.08895 0.123432,0.146646 0.219588,0.146646 h 1.301933 c 0.131074,2.58817 2.233788,4.664844 4.854202,4.664567 0.561773,0 1.118651,-0.100032 1.645585,-0.289739 h 1.11e-4 c 0.108258,-0.0388 0.173208,-0.149417 0.154212,-0.263005 -0.01887,-0.113385 -0.116319,-0.197039 -0.231267,-0.19855 -2.243213,-0.03251 -4.027962,-1.739616 -4.285805,-3.913298 h 1.176601 c 0.09616,-1.26e-4 0.182757,-0.05795 0.219588,-0.146646 0.03673,-0.08894 0.01643,-0.190992 -0.05147,-0.259074 L 7.71353,8.228367 C 7.668,8.182757 7.606018,8.157817 7.541698,8.158827 Z m 0.0038,0.573858 v 7.6e-5 0 0 0 0 0 0 0 0 0 0 z"
       id="path2-36-62"
       sodipodi:nodetypes="ccccccccccccccsccccsccccscccccccccccccccccccsccccccccccccccc"
       style="fill:#bf616a;fill-opacity:1;stroke:none;stroke-width:0.0271703;stroke-opacity:1" />
  </g>
</svg>
