<?xml version="1.0" encoding="UTF-8" standalone="no"?>
<svg
   width="32"
   height="32"
   version="1.1"
   id="svg12"
   sodipodi:docname="ktorrent.svg"
   inkscape:version="1.1.1 (3bf5ae0d25, 2021-09-20)"
   xmlns:inkscape="http://www.inkscape.org/namespaces/inkscape"
   xmlns:sodipodi="http://sodipodi.sourceforge.net/DTD/sodipodi-0.dtd"
   xmlns="http://www.w3.org/2000/svg"
   xmlns:svg="http://www.w3.org/2000/svg"
   xmlns:rdf="http://www.w3.org/1999/02/22-rdf-syntax-ns#"
   xmlns:cc="http://creativecommons.org/ns#"
   xmlns:dc="http://purl.org/dc/elements/1.1/">
  <g
     id="22-22-ktorrent"
     transform="translate(32,10.000001)">
    <g
       id="g926">
      <rect
         style="opacity:0.00100002"
         width="22"
         height="22"
         x="0"
         y="0"
         id="rect2" />
      <path
         style="color:#000000;fill:#d6dbf1;fill-opacity:1;stroke-width:0.276465;enable-background:accumulate"
         d="m 9.7483048,9.8610006 h 2.5387532 v 2.9491804 h 1.559307 l -2.797139,4.129452 -2.9232522,-4.129452 h 1.622331 z"
         fill-opacity="1"
         fill-rule="nonzero"
         stroke="none"
         marker="none"
         visibility="visible"
         display="inline"
         overflow="visible"
         id="path10-5"
         sodipodi:nodetypes="cccccccc" />
      <rect
         x="4.5"
         y="18.306696"
         width="13.172761"
         height="0.69330347"
         id="rect6-35"
         style="fill:#d6dbf1;fill-opacity:1;stroke-width:0.0433316" />
      <path
         class="fil0"
         d="m 8.9917978,9.8610006 c 0.189088,0 0.324142,0.1620734 0.324142,0.3511544 0,0.189089 -0.135054,0.351161 -0.324142,0.351161 h -1.917839 c -1.269564,0 -2.296008,-1.0534683 -2.296008,-2.3230183 0,-1.1615159 0.891386,-2.1609529 2.052899,-2.2960069 C 7.4521228,4.1885179 9.1268578,3 11.017675,3 c 1.863821,0 3.53856,1.1885179 4.159823,2.9442908 1.161518,0.135054 2.052905,1.134491 2.052905,2.2960069 0,1.26955 -1.026448,2.3230183 -2.296008,2.3230183 h -1.89083 c -0.216088,0 -0.351147,-0.162072 -0.351147,-0.351161 0,-0.189081 0.135059,-0.3511544 0.351147,-0.3511544 h 1.89083 c 0.891389,0 1.620708,-0.7293159 1.620708,-1.6207029 0,-0.8913919 -0.729319,-1.5937009 -1.620708,-1.6207179 -0.162064,0 -0.29713,-0.08108 -0.351154,-0.243103 C 14.12404,4.7827749 12.665405,3.675299 11.017675,3.675299 c -1.6747262,0 -3.1333692,1.1074759 -3.5925692,2.7011778 -0.027,0.13506 -0.162068,0.243103 -0.324134,0.243103 -0.891393,0 -1.647727,0.729326 -1.647727,1.6207179 0,0.891387 0.729323,1.6207029 1.620714,1.6207029 z"
         id="path6-3-6"
         style="fill:#d6dbf1;fill-opacity:1;stroke-width:0.0270118;image-rendering:optimizeQuality;shape-rendering:geometricPrecision;text-rendering:geometricPrecision" />
    </g>
  </g>
  <metadata
     id="metadata18">
    <rdf:RDF>
      <cc:Work
         rdf:about="">
        <dc:format>image/svg+xml</dc:format>
        <dc:type
           rdf:resource="http://purl.org/dc/dcmitype/StillImage" />
      </cc:Work>
    </rdf:RDF>
  </metadata>
  <defs
     id="defs16" />
  <sodipodi:namedview
     pagecolor="#ffffff"
     bordercolor="#666666"
     borderopacity="1"
     objecttolerance="10"
     gridtolerance="10"
     guidetolerance="10"
     inkscape:pageopacity="0"
     inkscape:pageshadow="2"
     inkscape:window-width="1920"
     inkscape:window-height="1013"
     id="namedview14"
     showgrid="false"
     inkscape:zoom="9.8125"
     inkscape:cx="7.9490446"
     inkscape:cy="5.9617834"
     inkscape:window-x="0"
     inkscape:window-y="0"
     inkscape:window-maximized="1"
     inkscape:current-layer="svg12"
     inkscape:document-rotation="0"
     inkscape:pagecheckerboard="0">
    <inkscape:grid
       type="xygrid"
       id="grid848"
       originx="0"
       originy="-4.6325683e-08" />
  </sodipodi:namedview>
  <g
     id="ktorrent">
    <rect
       style="opacity:0.00100002"
       width="32"
       height="32"
       x="0"
       y="0"
       id="rect7" />
    <path
       style="color:#000000;fill:#d6dbf1;fill-opacity:1;stroke-width:0.414702;enable-background:accumulate"
       d="m 14.072458,14.291503 h 3.80813 v 4.423762 h 2.338951 l -4.195707,6.194179 -4.384868,-6.194179 h 2.433494 z"
       fill-opacity="1"
       fill-rule="nonzero"
       stroke="none"
       marker="none"
       visibility="visible"
       display="inline"
       overflow="visible"
       id="path10"
       sodipodi:nodetypes="cccccccc" />
    <rect
       x="6.1999998"
       y="26.960051"
       width="19.759151"
       height="1.0399553"
       id="rect6"
       style="fill:#d6dbf1;fill-opacity:1;stroke-width:0.0649975" />
    <path
       class="fil0"
       d="m 12.937694,14.291503 c 0.283627,0 0.48621,0.243106 0.48621,0.52673 0,0.283625 -0.202583,0.526731 -0.48621,0.526731 h -2.876757 c -1.9043354,0 -3.4440074,-1.580192 -3.4440074,-3.484524 0,-1.742263 1.337083,-3.2414187 3.079343,-3.4440077 C 10.628181,5.7827801 13.14028,4 15.976522,4 c 2.795724,0 5.307827,1.7827801 6.239729,4.4164323 1.742264,0.202589 3.079349,1.7017447 3.079349,3.4440077 0,1.904332 -1.539674,3.484524 -3.444007,3.484524 h -2.836242 c -0.32414,0 -0.52673,-0.243106 -0.52673,-0.526731 0,-0.283624 0.20259,-0.52673 0.52673,-0.52673 h 2.836242 c 1.337085,0 2.431064,-1.093979 2.431064,-2.431063 0,-1.337086 -1.093979,-2.3905463 -2.431064,-2.4310646 -0.243105,0 -0.445697,-0.121553 -0.526731,-0.3646596 C 20.63606,6.67417 18.4481,5.0129433 15.976522,5.0129433 c -2.512098,0 -4.700057,1.6612267 -5.388858,4.0517725 -0.0405,0.2025888 -0.243106,0.3646596 -0.486212,0.3646596 -1.3370864,0 -2.4715844,1.0939786 -2.4715844,2.4310646 0,1.337084 1.093981,2.431063 2.4310694,2.431063 z"
       id="path6-3"
       style="fill:#d6dbf1;fill-opacity:1;stroke-width:0.0405179;image-rendering:optimizeQuality;shape-rendering:geometricPrecision;text-rendering:geometricPrecision" />
  </g>
</svg>
