<?xml version="1.0" encoding="UTF-8" standalone="no"?>
<svg
   width="8.4666662mm"
   height="8.4666662mm"
   viewBox="0 0 31.999999 31.999999"
   version="1.1"
   id="svg881"
   inkscape:version="1.2 (dc2aedaf03, 2022-05-15)"
   sodipodi:docname="notification.svg"
   xmlns:inkscape="http://www.inkscape.org/namespaces/inkscape"
   xmlns:sodipodi="http://sodipodi.sourceforge.net/DTD/sodipodi-0.dtd"
   xmlns="http://www.w3.org/2000/svg"
   xmlns:svg="http://www.w3.org/2000/svg"
   xmlns:rdf="http://www.w3.org/1999/02/22-rdf-syntax-ns#"
   xmlns:cc="http://creativecommons.org/ns#"
   xmlns:dc="http://purl.org/dc/elements/1.1/">
  <defs
     id="defs875" />
  <sodipodi:namedview
     id="base"
     pagecolor="#ffffff"
     bordercolor="#000000"
     borderopacity="1"
     inkscape:pageopacity="0.0"
     inkscape:pageshadow="2"
     inkscape:zoom="4"
     inkscape:cx="43.875"
     inkscape:cy="-9.875"
     inkscape:document-units="px"
     inkscape:current-layer="layer1"
     showgrid="false"
     inkscape:window-width="1920"
     inkscape:window-height="1002"
     inkscape:window-x="0"
     inkscape:window-y="0"
     inkscape:window-maximized="1"
     inkscape:lockguides="true"
     inkscape:document-rotation="0"
     inkscape:pagecheckerboard="0"
     inkscape:showpageshadow="false"
     showguides="true"
     inkscape:deskcolor="#d1d1d1">
    <inkscape:grid
       type="xygrid"
       id="grid4000"
       originx="0"
       originy="-36.999999" />
  </sodipodi:namedview>
  <metadata
     id="metadata878">
    <rdf:RDF>
      <cc:Work
         rdf:about="">
        <dc:format>image/svg+xml</dc:format>
        <dc:type
           rdf:resource="http://purl.org/dc/dcmitype/StillImage" />
      </cc:Work>
    </rdf:RDF>
  </metadata>
  <g
     inkscape:label="Layer 1"
     inkscape:groupmode="layer"
     id="layer1"
     transform="translate(-204.82493,-721.24546)">
    <g
       id="notification-progress-active"
       transform="translate(248.82493,685.24546)">
      <path
         style="fill:none"
         inkscape:connector-curvature="0"
         id="empty-rectangle"
         d="M 1,1 H 23 V 23 H 1 Z" />
      <circle
         id="circle-blue"
         cx="12"
         cy="12"
         r="8"
         class="ColorScheme-ButtonFocus"
         style="fill:#5e81ac;fill-opacity:1" />
    </g>
    <g
       id="notification-progress-inactive"
       transform="translate(248.82493,725.24546)">
      <path
         style="fill:none"
         inkscape:connector-curvature="0"
         id="path10"
         d="M 1,1 H 23 V 23 H 1 Z" />
      <circle
         id="circle-transparent"
         cx="12"
         cy="12"
         r="8"
         class="ColorScheme-Text"
         style="opacity:0.4;fill:#5e81ac;fill-opacity:1" />
    </g>
    <path
       inkscape:connector-curvature="0"
       id="expander-bottom"
       d="m 191.82493,709.24546 2,-2 2,2 z"
       class="ColorScheme-Text"
       style="fill:#5e81ac;fill-opacity:1" />
    <path
       inkscape:connector-curvature="0"
       id="expander-top"
       d="m 191.82493,703.24546 2,2 2,-2 z"
       class="ColorScheme-Text"
       style="fill:#5e81ac;fill-opacity:1" />
    <path
       inkscape:connector-curvature="0"
       id="expander-right"
       d="m 196.82493,704.24546 -2,2 2,2 z"
       class="ColorScheme-Text"
       style="fill:#5e81ac;fill-opacity:1" />
    <path
       inkscape:connector-curvature="0"
       id="expander-left"
       d="m 190.82493,704.24546 2,2 -2,2 z"
       class="ColorScheme-Text"
       style="fill:#5e81ac;fill-opacity:1" />
    <g
       id="notification-empty"
       transform="translate(248.82493,645.24546)">
      <path
         style="fill:none"
         inkscape:connector-curvature="0"
         id="path31"
         d="M 1,1 H 23 V 23 H 1 Z" />
      <path
         inkscape:connector-curvature="0"
         id="circle-outline"
         d="m 12,4 a 8,8 0 0 0 -8,8 8,8 0 0 0 8,8 8,8 0 0 0 8,-8 8,8 0 0 0 -8,-8 z m 0,1 a 7,7 0 0 1 7,7 7,7 0 0 1 -7,7 7,7 0 0 1 -7,-7 7,7 0 0 1 7,-7 z"
         class="ColorScheme-Text"
         style="fill:#d6dbf1;fill-opacity:1" />
    </g>
    <g
       id="notification-inactive">
      <path
         style="fill:none;stroke-width:1.45455"
         inkscape:connector-curvature="0"
         d="m 204.82493,684.24546 h 32 v 32 h -32 z"
         id="path14-1" />
      <path
         d="m 230.82589,688.24657 -20.00191,0.008 v 0 c -0.99953,0 -1.99905,0.99963 -1.99905,1.99923 l 0.0114,14.82648 c 0,0.99959 0.99953,2.16518 1.99905,2.16518 v 0 h 6.11142 l 3.2072,4.64392 1.9e-4,-1.9e-4 c 0.14832,0.22252 0.39784,0.35627 0.66524,0.35627 0.26739,0 0.51687,-0.13337 0.66524,-0.35627 l 3.20722,-4.64373 h 6.13399 10e-6 c 0.99953,0 1.99905,-1.16578 1.99905,-2.16545 v -14.83532 c 0,-0.99959 -0.99952,-1.99923 -1.99905,-1.99923 z m -9.6e-4,16.23389 c 1e-5,0.76511 -5e-5,0.765 -0.597,0.765 h -5.9639 c -0.26739,-1.9e-4 -0.51688,0.36772 -0.66538,0.59024 l -2.77939,4.17122 -2.77939,-4.16876 c -0.14851,-0.22254 -0.39803,-0.5927 -0.66538,-0.5927 h -5.87056 c -0.67899,0 -0.67899,0 -0.679,-0.7 l 1e-5,-13.7 c 0,-0.6 -4.8e-4,-0.6 0.57899,-0.6 h 18.823 c 0.59832,0 0.59801,0.0998 0.598,0.669 z"
         id="path2-3-3"
         style="fill:#d6dbf1;fill-opacity:1;stroke-width:0.0456946"
         sodipodi:nodetypes="ccccccccccscccccccccccccccccccccc" />
      <path
         d="m 213.82494,693.24546 h 13 v 2 h -13 z"
         id="path4-5-6"
         style="fill:#d6dbf1;fill-opacity:1;stroke-width:0.0457145"
         sodipodi:nodetypes="ccccc" />
      <path
         d="m 213.82494,697.24546 h 13 v 2 h -13 z"
         id="path6-6-7"
         style="fill:#d6dbf1;fill-opacity:1;stroke-width:0.0457145"
         sodipodi:nodetypes="ccccc" />
      <path
         d="m 213.82494,701.24546 h 7 v 2 h -7 z"
         id="path8-2-5"
         style="fill:#d6dbf1;fill-opacity:1;stroke-width:0.0457145"
         sodipodi:nodetypes="ccccc" />
    </g>
    <g
       id="notification-active">
      <path
         style="fill:none;stroke-width:1.45455"
         inkscape:connector-curvature="0"
         d="m 204.82493,721.24546 h 32 v 32 h -32 z"
         id="path14" />
      <path
         d="m 230.62486,723.74546 c -1.06087,0 -2.07818,0.42142 -2.82834,1.17159 -0.75016,0.75016 -1.17159,1.76746 -1.17159,2.82834 0,1.06087 0.42143,2.07818 1.17159,2.82834 0.75017,0.75015 1.76747,1.17159 2.82834,1.17159 1.06088,0 2.07818,-0.42143 2.82834,-1.17159 0.75016,-0.75017 1.17159,-1.76747 1.17159,-2.82834 -10e-4,-1.06051 -0.42303,-2.07713 -1.17301,-2.82693 -0.74979,-0.74997 -1.76641,-1.17177 -2.82692,-1.173 z m 0,6.39988 c -0.6366,0 -1.24692,-0.25285 -1.69711,-0.70284 -0.45,-0.45017 -0.70285,-1.06051 -0.70285,-1.69711 0,-0.63661 0.25285,-1.24693 0.70285,-1.69712 0.45017,-0.44999 1.06051,-0.70284 1.69711,-0.70284 0.63661,0 1.24693,0.25285 1.69712,0.70284 0.44999,0.45018 0.70284,1.06051 0.70284,1.69712 0,0.6366 -0.25285,1.24692 -0.70284,1.69711 -0.45018,0.44999 -1.06051,0.70284 -1.69712,0.70284 z"
         id="path4"
         style="fill:#00d4aa;fill-opacity:1;stroke-width:0.0457135" />
      <path
         d="m 212.82494,734.24547 h 12 v 2 h -12 z"
         id="path6-3"
         style="fill:#d6dbf1;fill-opacity:1;stroke-width:0.0457135"
         sodipodi:nodetypes="ccccc" />
      <path
         d="m 212.82494,738.24547 h 7 v 2 h -7 z"
         id="path8"
         style="fill:#d6dbf1;fill-opacity:1;stroke-width:0.0457135"
         sodipodi:nodetypes="ccccc" />
      <circle
         id="circle-transparent-6"
         cx="230.62532"
         cy="727.74585"
         r="2.5"
         class="ColorScheme-Text"
         style="fill:#00d4aa;fill-opacity:1;stroke-width:0.3125" />
      <path
         d="m 228.67129,742.24546 -4.4381,-3e-5 c -0.30863,0 -0.5968,0.19512 -0.76796,0.45199 l -2.6401,3.96282 -2.64008,-3.95997 c -0.17144,-0.25686 -0.45967,-0.45484 -0.76798,-0.45484 h -4.43554 c -2.31045,-0.0259 -2.1566,0.0194 -2.1566,-2.28846 v -10.5576 c 0,-2.30789 -0.15386,-2.15404 2.17354,-2.15394 h 12.44211 v -1.99996 l -14.30807,-4e-5 v 0 c -1.15362,0 -2.30758,1.15394 -2.30758,2.30755 v 14.25018 c 0,1.15389 1.15396,2.44227 2.30758,2.44227 v 0 h 5.78984 l 3.13828,4.58906 v -2e-4 c 0.17093,0.25687 0.45949,0.41114 0.76796,0.41114 0.30882,0 0.59682,-0.15391 0.76799,-0.41114 l 3.1386,-4.58886 5.7822,3e-5 v 0 c 1.15373,0 2.30755,-1.28858 2.30755,-2.44252 l -1e-5,-9.17409 h -1.99999 v 7.33799 c -4e-5,2.29806 0.15389,2.2786 -2.15364,2.27859 z"
         id="path2-2-6-3-1"
         style="fill:#d6dbf1;fill-opacity:1;stroke-width:0.0527487"
         sodipodi:nodetypes="cscccscccccccccccccccscccccccccc" />
      <path
         d="m 212.82494,730.24547 h 13 v 2 h -13 z"
         id="path4-5-6-3"
         style="fill:#d6dbf1;fill-opacity:1;stroke-width:0.0511105"
         sodipodi:nodetypes="ccccc" />
    </g>
    <path
       style="fill:none;stroke-width:1.45455"
       inkscape:connector-curvature="0"
       d="m 204.82493,641.24546 h 32 v 32 h -32 z"
       id="path25" />
    <path
       d="m 230.62486,643.74545 c -1.06087,0 -2.07818,0.42143 -2.82834,1.1716 -0.75016,0.75017 -1.17159,1.76747 -1.17159,2.82835 0,1.06087 0.42143,2.07817 1.17159,2.82834 0.75017,0.75015 1.76747,1.17159 2.82834,1.17159 1.06088,0 2.07818,-0.42143 2.82834,-1.17159 0.75016,-0.75017 1.17159,-1.76747 1.17159,-2.82834 -10e-4,-1.06052 -0.42303,-2.07713 -1.17301,-2.82693 -0.74979,-0.74997 -1.76641,-1.17177 -2.82692,-1.17302 z m 0,6.3999 c -0.6366,0 -1.24692,-0.25285 -1.69711,-0.70285 -0.45,-0.45016 -0.70285,-1.06052 -0.70285,-1.6971 0,-0.63662 0.25285,-1.24694 0.70285,-1.69713 0.45017,-0.44998 1.06051,-0.70285 1.69711,-0.70285 0.63661,0 1.24693,0.25285 1.69712,0.70285 0.44999,0.45019 0.70284,1.06051 0.70284,1.69713 0,0.6366 -0.25285,1.24692 -0.70284,1.6971 -0.45018,0.44998 -1.06051,0.70285 -1.69712,0.70285 z"
       id="path4-5"
       style="fill:#bf616a;fill-opacity:1;stroke-width:0.0457135" />
    <path
       d="m 212.82494,654.24546 h 12 v 2 h -12 z"
       id="path6-3-6"
       style="fill:#d6dbf1;fill-opacity:1;stroke-width:0.0457135"
       sodipodi:nodetypes="ccccc" />
    <path
       d="m 212.82494,658.24546 h 7 v 2 h -7 z"
       id="path8-2"
       style="fill:#d6dbf1;fill-opacity:1;stroke-width:0.0457135"
       sodipodi:nodetypes="ccccc" />
    <circle
       id="circle-transparent-6-9"
       cx="230.62535"
       cy="647.74585"
       r="2.5"
       class="ColorScheme-Text"
       style="fill:#bf616a;fill-opacity:1;stroke-width:0.3125" />
    <path
       d="m 228.67129,662.24545 -4.4381,-3e-5 c -0.30863,0 -0.5968,0.19512 -0.76796,0.45199 l -2.6401,3.96282 -2.64008,-3.95997 c -0.17144,-0.25686 -0.45967,-0.45484 -0.76798,-0.45484 h -4.43554 c -2.31045,-0.0259 -2.1566,0.0194 -2.1566,-2.28846 v -10.5576 c 0,-2.30789 -0.15386,-2.15404 2.17354,-2.15394 h 12.44211 v -1.99996 l -14.30807,-4e-5 v 0 c -1.15362,0 -2.30758,1.15394 -2.30758,2.30755 v 14.25018 c 0,1.15389 1.15396,2.44227 2.30758,2.44227 v 0 h 5.78984 l 3.13828,4.58906 v -1.9e-4 c 0.17093,0.25688 0.45949,0.41115 0.76796,0.41115 0.30882,0 0.59682,-0.15391 0.76799,-0.41115 l 3.1386,-4.58885 5.7822,3e-5 v 0 c 1.15373,0 2.30755,-1.28858 2.30755,-2.44252 l -1e-5,-9.17409 h -1.99999 v 7.33799 c -4e-5,2.29806 0.15389,2.2786 -2.15364,2.27859 z"
       id="path2-2-6-3-1-1"
       style="fill:#d6dbf1;fill-opacity:1;stroke-width:0.0527487"
       sodipodi:nodetypes="cscccscccccccccccccccscccccccccc" />
    <path
       d="m 212.82494,650.24546 h 13 v 2 h -13 z"
       id="path4-5-6-3-2"
       style="fill:#d6dbf1;fill-opacity:1;stroke-width:0.0511105"
       sodipodi:nodetypes="ccccc" />
  </g>
</svg>
