<?xml version="1.0" encoding="UTF-8" standalone="no"?>
<svg
   width="32"
   height="32"
   viewBox="0 0 8.4666662 8.4666666"
   version="1.1"
   id="svg830"
   inkscape:version="1.2 (dc2aedaf03, 2022-05-15)"
   sodipodi:docname="notifications.svg"
   xmlns:inkscape="http://www.inkscape.org/namespaces/inkscape"
   xmlns:sodipodi="http://sodipodi.sourceforge.net/DTD/sodipodi-0.dtd"
   xmlns="http://www.w3.org/2000/svg"
   xmlns:svg="http://www.w3.org/2000/svg"
   xmlns:rdf="http://www.w3.org/1999/02/22-rdf-syntax-ns#"
   xmlns:cc="http://creativecommons.org/ns#"
   xmlns:dc="http://purl.org/dc/elements/1.1/">
  <defs
     id="defs824" />
  <sodipodi:namedview
     id="base"
     pagecolor="#ffffff"
     bordercolor="#000000"
     borderopacity="1"
     inkscape:pageopacity="0.0"
     inkscape:pageshadow="2"
     inkscape:zoom="3.2822975"
     inkscape:cx="41.282059"
     inkscape:cy="63.522578"
     inkscape:document-units="px"
     inkscape:current-layer="layer1"
     showgrid="false"
     units="px"
     inkscape:snap-intersection-paths="true"
     inkscape:object-paths="true"
     inkscape:snap-smooth-nodes="true"
     inkscape:object-nodes="true"
     inkscape:window-width="1920"
     inkscape:window-height="1002"
     inkscape:window-x="0"
     inkscape:window-y="0"
     inkscape:window-maximized="1"
     inkscape:snap-global="true"
     showguides="true"
     inkscape:document-rotation="0"
     inkscape:lockguides="false"
     inkscape:pagecheckerboard="0"
     inkscape:showpageshadow="false"
     inkscape:deskcolor="#d1d1d1">
    <inkscape:grid
       type="xygrid"
       id="grid11894" />
  </sodipodi:namedview>
  <metadata
     id="metadata827">
    <rdf:RDF>
      <cc:Work
         rdf:about="">
        <dc:format>image/svg+xml</dc:format>
        <dc:type
           rdf:resource="http://purl.org/dc/dcmitype/StillImage" />
      </cc:Work>
    </rdf:RDF>
  </metadata>
  <style
     type="text/css"
     id="current-color-scheme" />
  <g
     inkscape:label="Layer 1"
     inkscape:groupmode="layer"
     id="layer1"
     transform="translate(-2.1268741,-274.24815)">
    <g
       id="22-22-notifications-disabled"
       style="fill:#d6dbf1;fill-opacity:1">
      <rect
         ry="1.2988282e-06"
         y="291.18149"
         x="0.010207531"
         height="5.8208332"
         width="5.8208332"
         id="rect1383"
         style="opacity:0.003;fill:#d6dbf1;fill-opacity:1;stroke:none;stroke-width:0.10795;stroke-miterlimit:4;stroke-dasharray:none;stroke-opacity:1" />
      <path
         d="m 4.6905064,291.6842 c -0.188719,0 -0.369689,0.075 -0.503135,0.20841 -0.133447,0.13345 -0.208414,0.31442 -0.208414,0.50314 0,0.18871 0.07497,0.36968 0.208414,0.50313 0.133449,0.13344 0.314416,0.20842 0.503135,0.20842 0.18872,0 0.369687,-0.075 0.503134,-0.20842 0.133445,-0.13345 0.208414,-0.31442 0.208414,-0.50313 -1.78e-4,-0.18865 -0.07525,-0.36951 -0.208667,-0.50289 -0.133381,-0.13342 -0.314228,-0.20844 -0.502881,-0.20866 z m 0,1.13848 c -0.113246,0 -0.221816,-0.045 -0.301901,-0.12504 -0.08004,-0.0801 -0.125029,-0.18865 -0.125029,-0.30189 0,-0.11325 0.04498,-0.22182 0.125029,-0.3019 0.08008,-0.08 0.188655,-0.12504 0.301901,-0.12504 0.113245,0 0.221816,0.045 0.3019,0.12504 0.08005,0.0801 0.125029,0.18865 0.125029,0.3019 0,0.11324 -0.04498,0.22182 -0.125029,0.30189 -0.08009,0.08 -0.188655,0.12504 -0.3019,0.12504 z"
         id="path4-7-0-7"
         style="fill:#bf616a;fill-opacity:1;stroke-width:0.00813198" />
      <circle
         id="circle-transparent-6-3-6-5"
         cx="4.6905608"
         cy="292.39575"
         r="0.44472581"
         class="ColorScheme-Text"
         style="fill:#bf616a;fill-opacity:1;stroke-width:0.0555908" />
      <path
         d="m 1.5977075,293.56274 h 2.1166666 v 0.26458 H 1.5977075 Z"
         id="path6-3-6-5"
         style="fill:#d6dbf1;fill-opacity:1;stroke-width:0.00806333"
         sodipodi:nodetypes="ccccc" />
      <path
         d="m 1.5977075,294.35649 h 1.3229166 v 0.26458 H 1.5977075 Z"
         id="path8-2-6"
         style="fill:#d6dbf1;fill-opacity:1;stroke-width:0.00806333"
         sodipodi:nodetypes="ccccc" />
      <path
         d="m 4.3046339,295.15024 h -0.782831 c -0.05444,0 -0.105269,0.0698 -0.13546,0.11509 l -0.465684,0.64585 -0.465681,-0.64558 c -0.03024,-0.0453 -0.08108,-0.11536 -0.135463,-0.11536 H 1.5371354 c -0.4075377,-0.005 -0.4685946,-0.17339 -0.4685946,-0.58005 v -1.86224 c 0,-0.40709 0.061055,-0.46815 0.4715826,-0.46813 h 2.1742507 l 0.020399,-0.26457 -2.523784,-1e-5 v 0 c -0.2034856,0 -0.4070314,0.20354 -0.4070314,0.40703 v 2.51357 c 0,0.20353 0.2035458,0.51898 0.4070314,0.51898 v 0 h 1.021263 l 0.553558,0.72127 v -4e-5 c 0.03015,0.0453 0.08105,0.0725 0.13546,0.0725 0.05447,0 0.105272,-0.0271 0.135464,-0.0725 l 0.553614,-0.72123 h 1.019916 v 0 c 0.203505,0 0.407026,-0.31547 0.407026,-0.51901 l -2e-6,-1.61822 -0.2645805,0.0206 v 1.27377 c -6e-6,0.40536 -0.061045,0.57831 -0.4680735,0.57831 z"
         id="path2-2-6-3-1-1-9"
         style="fill:#d6dbf1;fill-opacity:1;stroke-width:0.00930427"
         sodipodi:nodetypes="cscccscccccccccccccccscccccccccc" />
      <path
         d="m 1.5977075,292.76899 h 2.1166666 v 0.26458 H 1.5977075 Z"
         id="path4-5-6-3-2-1"
         style="fill:#d6dbf1;fill-opacity:1;stroke-width:0.00901533"
         sodipodi:nodetypes="ccccc" />
    </g>
    <g
       id="22-22-notifications"
       style="fill:#d6dbf1;fill-opacity:1">
      <rect
         ry="1.2988282e-06"
         y="297.00232"
         x="0.01020753"
         height="5.8208332"
         width="5.8208332"
         id="rect1383-2"
         style="opacity:0.003;fill:#d6dbf1;fill-opacity:1;stroke:none;stroke-width:0.10795;stroke-miterlimit:4;stroke-dasharray:none;stroke-opacity:1" />
      <path
         d="m 4.6846574,297.79668 -3.528092,0.001 v 0 c -0.1763039,0 -0.3526079,0.17632 -0.3526079,0.35263 l 0.002,2.74747 c 0,0.17632 0.176304,0.33787 0.3526079,0.33787 v 0 h 1.07798 l 0.56571,0.73092 3.4e-5,-3e-5 c 0.02616,0.0393 0.07017,0.0629 0.11734,0.0629 0.04717,0 0.09117,-0.0235 0.11734,-0.0629 l 0.565714,-0.73089 h 1.081961 2e-6 c 0.176305,0 0.352608,-0.16154 0.352608,-0.33787 v -2.74903 c 0,-0.17631 -0.176303,-0.35264 -0.352608,-0.35264 z m 0.08805,2.86347 c 2e-6,0.13495 0,0.31092 -0.193523,0.31092 h -1.051958 c -0.04717,-4e-5 -0.09117,0.074 -0.117365,0.11324 l -0.490251,0.68289 -0.49025,-0.68236 c -0.02619,-0.0393 -0.07021,-0.11377 -0.117365,-0.11377 H 1.2587762 c -0.1902354,0 -0.1902334,-0.17599 -0.1902354,-0.29946 v -2.41651 c 0,-0.10583 0.08811,-0.19445 0.1903206,-0.19445 h 3.320147 c 0.105536,0 0.193701,0.10622 0.193699,0.20662 z"
         id="path2-3-3-3"
         style="fill:#d6dbf1;fill-opacity:1;stroke-width:0.00805995"
         sodipodi:nodetypes="ccccccccccscccccccccccccccccccccc" />
      <path
         d="m 1.5977075,298.58982 h 2.3812499 v 0.26458 H 1.5977075 Z"
         id="path4-5-6-6"
         style="fill:#d6dbf1;fill-opacity:1;stroke-width:0.00806348"
         sodipodi:nodetypes="ccccc" />
      <path
         d="m 1.5977075,299.38357 2.3812319,4.1e-4 1.8e-5,0.26417 H 1.5977075 Z"
         id="path6-6-7-7"
         style="fill:#d6dbf1;fill-opacity:1;stroke-width:0.00806348"
         sodipodi:nodetypes="ccccc" />
      <path
         d="m 1.5977075,300.17732 h 1.3229166 l -1.17e-5,0.26499 -1.3229049,-4.1e-4 z"
         id="path8-2-5-5"
         style="fill:#d6dbf1;fill-opacity:1;stroke-width:0.00806348"
         sodipodi:nodetypes="ccccc" />
    </g>
    <g
       id="notifications-disabled"
       transform="translate(0.01020734,0.01475561)"
       style="fill:#d6dbf1;fill-opacity:1">
      <rect
         ry="1.2988289e-06"
         y="274.2334"
         x="2.1166668"
         height="8.4666662"
         width="8.4666662"
         id="rect891-7-2"
         style="opacity:0.003;fill:#d6dbf1;fill-opacity:1;stroke:none;stroke-width:0.10795;stroke-miterlimit:4;stroke-dasharray:none;stroke-opacity:1" />
      <path
         d="m 8.9428971,274.90726 c -0.280688,0 -0.549852,0.11151 -0.748331,0.30999 -0.19848,0.19848 -0.309984,0.46764 -0.309984,0.74833 0,0.28069 0.111504,0.54985 0.309984,0.74833 0.198482,0.19848 0.467643,0.30999 0.748331,0.30999 0.280691,0 0.549852,-0.11151 0.748332,-0.30999 0.19848,-0.19848 0.3099829,-0.46764 0.3099829,-0.74833 -2.65e-4,-0.28059 -0.1119269,-0.54957 -0.3103589,-0.74796 -0.198382,-0.19843 -0.467363,-0.31003 -0.747956,-0.31036 z m 0,1.69331 c -0.168434,0 -0.329914,-0.0669 -0.449027,-0.18596 -0.119062,-0.11911 -0.185962,-0.2806 -0.185962,-0.44903 0,-0.16844 0.0669,-0.32992 0.185962,-0.44903 0.119108,-0.11906 0.280593,-0.18596 0.449027,-0.18596 0.168437,0 0.329917,0.0669 0.44903,0.18596 0.11906,0.11911 0.18596,0.28059 0.18596,0.44903 0,0.16844 -0.0669,0.32992 -0.18596,0.44903 -0.11911,0.11905 -0.280593,0.18596 -0.44903,0.18596 z"
         id="path4-5"
         style="fill:#bf616a;fill-opacity:1;stroke-width:0.012095" />
      <path
         d="m 4.2333353,277.68539 h 3.1749998 v 0.52917 H 4.2333353 Z"
         id="path6-3-6"
         style="fill:#d6dbf1;fill-opacity:1;stroke-width:0.012095"
         sodipodi:nodetypes="ccccc" />
      <path
         d="m 4.2333353,278.74372 h 1.8520832 v 0.52917 H 4.2333353 Z"
         id="path8-2"
         style="fill:#d6dbf1;fill-opacity:1;stroke-width:0.012095"
         sodipodi:nodetypes="ccccc" />
      <circle
         id="circle-transparent-6-9"
         cx="8.9430265"
         cy="275.9657"
         r="0.66145831"
         class="ColorScheme-Text"
         style="fill:#bf616a;fill-opacity:1;stroke-width:0.0826823" />
      <path
         d="m 8.4260151,279.80205 h -1.174247 c -0.08166,0 -0.157903,0.0516 -0.20319,0.11958 l -0.698526,1.0485 -0.6985211,-1.04774 c -0.04536,-0.068 -0.121621,-0.12034 -0.2031947,-0.12034 H 4.2747664 c -0.6113065,-0.007 -0.5706004,0.005 -0.5706004,-0.60549 v -2.79337 c 0,-0.61063 -0.040709,-0.56992 0.5750824,-0.56989 h 3.2919747 v -0.52916 l -3.7856765,-1e-5 v 0 c -0.3052287,0 -0.6105472,0.30531 -0.6105472,0.61054 v 3.77036 c 0,0.3053 0.3053185,0.64618 0.6105472,0.64618 v 0 h 1.531895 l 0.8303366,1.21419 v -5e-5 c 0.045225,0.068 0.1215734,0.10878 0.2031894,0.10878 0.081709,0 0.1579086,-0.0407 0.2031973,-0.10878 l 0.8304212,-1.21413 1.529874,1e-5 v 0 c 0.305257,0 0.610539,-0.34094 0.610539,-0.64625 l -3e-6,-2.42732 h -0.529164 v 1.94151 c -10e-6,0.60803 0.04072,0.60288 -0.569817,0.60288 z"
         id="path2-2-6-3-1-1"
         style="fill:#d6dbf1;fill-opacity:1;stroke-width:0.0139564"
         sodipodi:nodetypes="cscccscccccccccccccccscccccccccc" />
      <path
         d="m 4.2333353,276.62706 h 3.4395828 v 0.52916 H 4.2333353 Z"
         id="path4-5-6-3-2"
         style="fill:#d6dbf1;fill-opacity:1;stroke-width:0.013523"
         sodipodi:nodetypes="ccccc" />
    </g>
    <g
       id="notifications"
       transform="translate(0.01020757,0.00232655)"
       style="fill:#d6dbf1;fill-opacity:1">
      <rect
         ry="1.2988289e-06"
         y="282.71249"
         x="2.1166666"
         height="8.4666662"
         width="8.4666662"
         id="rect891-7"
         style="opacity:0.003;fill:#d6dbf1;fill-opacity:1;stroke:none;stroke-width:0.10795;stroke-miterlimit:4;stroke-dasharray:none;stroke-opacity:1" />
      <path
         d="m 8.9960854,283.77123 -5.2921709,0.002 v 0 c -0.2644591,0 -0.5289161,0.26448 -0.5289161,0.52896 l 0.003,3.92284 c 0,0.26448 0.264458,0.57287 0.5289151,0.57287 v 0 h 1.6169799 l 0.848571,1.22871 5.1e-5,-5e-5 c 0.03924,0.0589 0.105261,0.0943 0.176011,0.0943 0.07075,0 0.136755,-0.0353 0.176011,-0.0943 l 0.848577,-1.22866 h 1.622952 2e-6 c 0.2644591,0 0.5289161,-0.30844 0.5289161,-0.57294 v -3.92518 c 0,-0.26447 -0.264457,-0.52896 -0.5289161,-0.52896 z m -2.54e-4,4.29522 c 3e-6,0.20243 -1.29e-5,0.20241 -0.157956,0.20241 h -1.577948 c -0.07075,-6e-5 -0.136758,0.0973 -0.176049,0.15616 l -0.73538,1.10364 -0.73538,-1.10299 c -0.03929,-0.0589 -0.105312,-0.15681 -0.176049,-0.15681 h -1.553252 c -0.179649,0 -0.179649,0 -0.179652,-0.18521 l 3e-6,-3.62479 c 0,-0.15875 -1.27e-4,-0.15875 0.153191,-0.15875 h 4.980251 c 0.158306,0 0.158224,0.0264 0.158221,0.177 z"
         id="path2-3-3"
         style="fill:#d6dbf1;fill-opacity:1;stroke-width:0.01209"
         sodipodi:nodetypes="ccccccccccscccccccccccccccccccccc" />
      <path
         d="m 4.4979184,285.09386 h 3.439583 v 0.52916 h -3.439583 z"
         id="path4-5-6"
         style="fill:#d6dbf1;fill-opacity:1;stroke-width:0.0120953"
         sodipodi:nodetypes="ccccc" />
      <path
         d="m 4.4979184,286.15219 h 3.439583 v 0.52917 h -3.439583 z"
         id="path6-6-7"
         style="fill:#d6dbf1;fill-opacity:1;stroke-width:0.0120953"
         sodipodi:nodetypes="ccccc" />
      <path
         d="m 4.4979184,287.21052 h 1.852083 v 0.52917 h -1.852083 z"
         id="path8-2-5"
         style="fill:#d6dbf1;fill-opacity:1;stroke-width:0.0120953"
         sodipodi:nodetypes="ccccc" />
    </g>
  </g>
</svg>
