<?xml version="1.0" encoding="UTF-8" standalone="no"?>
<svg
   sodipodi:docname="phone.svg"
   inkscape:version="1.2 (dc2aedaf03, 2022-05-15)"
   id="svg"
   viewBox="0 0 32.000015 31.999973"
   height="31.999973"
   width="32.000015"
   version="1.1"
   xmlns:inkscape="http://www.inkscape.org/namespaces/inkscape"
   xmlns:sodipodi="http://sodipodi.sourceforge.net/DTD/sodipodi-0.dtd"
   xmlns="http://www.w3.org/2000/svg"
   xmlns:svg="http://www.w3.org/2000/svg"
   xmlns:rdf="http://www.w3.org/1999/02/22-rdf-syntax-ns#"
   xmlns:cc="http://creativecommons.org/ns#"
   xmlns:dc="http://purl.org/dc/elements/1.1/">
  <sodipodi:namedview
     inkscape:document-rotation="0"
     fit-margin-bottom="0"
     fit-margin-right="0"
     fit-margin-left="0"
     fit-margin-top="0"
     inkscape:snap-bbox-midpoints="true"
     inkscape:snap-bbox="true"
     inkscape:current-layer="svg"
     inkscape:window-maximized="1"
     inkscape:window-y="0"
     inkscape:window-x="0"
     inkscape:cy="32.125"
     inkscape:cx="41.1875"
     inkscape:zoom="8"
     showgrid="false"
     id="namedview10"
     inkscape:window-height="1002"
     inkscape:window-width="1920"
     inkscape:pageshadow="2"
     inkscape:pageopacity="0"
     guidetolerance="10"
     gridtolerance="10"
     objecttolerance="10"
     borderopacity="1"
     bordercolor="#000000"
     pagecolor="#ffffff"
     showguides="true"
     inkscape:lockguides="true"
     inkscape:pagecheckerboard="0"
     inkscape:showpageshadow="2"
     inkscape:deskcolor="#d1d1d1">
    <inkscape:grid
       type="xygrid"
       id="grid1094"
       originx="56.999999"
       originy="38" />
  </sodipodi:namedview>
  <defs
     id="defs81">
    <style
       id="current-color-scheme"
       type="text/css" />
  </defs>
  <metadata
     id="metadata34">
    <rdf:RDF>
      <cc:Work
         rdf:about="">
        <dc:format>image/svg+xml</dc:format>
        <dc:type
           rdf:resource="http://purl.org/dc/dcmitype/StillImage" />
      </cc:Work>
    </rdf:RDF>
  </metadata>
  <g
     id="22-22-phone-battery"
     transform="translate(59.999993,72.5)">
    <rect
       y="-34.5"
       x="-2.999994"
       height="22"
       width="22"
       id="rect3054"
       style="fill:#000000;fill-opacity:0;stroke:none" />
    <path
       class="ColorScheme-Text"
       style="color:#7b7c7e;fill:#bf616a;fill-opacity:1;fill-rule:evenodd;stroke:none;stroke-width:0.71"
       d="m 8.581779,-27.200001 -2.581773,3.872694 h 1.29085 v 3.227306 L 9.87263,-23.972767 H 8.581779 Z"
       id="path3072"
       inkscape:connector-curvature="0"
       sodipodi:nodetypes="ccccccc" />
    <path
       d="M 11.620005,-31.5 H 4.3800041 c -0.7599981,0 -1.3799981,0.522655 -1.3799981,1.16333 v 13.67334 c 0,0.640674 0.62,1.163329 1.3799981,1.163329 h 7.2400009 c 0.76,0 1.380001,-0.522655 1.380001,-1.163329 v -13.67334 c 0,-0.640675 -0.620001,-1.16333 -1.380001,-1.16333 z m -5.4600012,0.927292 H 9.800003 c 0.140001,0 0.240001,0.0843 0.240001,0.202318 0,0.118019 -0.1,0.202318 -0.240001,0.202318 H 6.1600038 c -0.1400001,0 -0.24,-0.0843 -0.24,-0.202318 0,-0.101159 0.1,-0.202318 0.24,-0.202318 z m 1.8199977,14.061116 c -0.3999997,0 -0.7199997,-0.269757 -0.7199997,-0.606954 0,-0.337197 0.32,-0.606955 0.7199997,-0.606955 0.3999998,0 0.7199991,0.269758 0.7199991,0.606955 -0.02,0.337197 -0.3399992,0.606954 -0.7199991,0.606954 z M 12.000006,-18.5 h -8 v -11 h 8 z"
       id="path10-2-6"
       style="fill:#d6dbf1;fill-opacity:1;stroke-width:0.183629"
       sodipodi:nodetypes="ssssssssssssssssssscsccccc" />
  </g>
  <g
     id="22-22-phone"
     transform="translate(61.02904,73.481212)">
    <rect
       style="fill:#000000;fill-opacity:0;stroke:none"
       id="rect3841"
       width="22"
       height="22"
       x="-54.999996"
       y="-34.5" />
    <path
       d="m -40.379996,-31.5 h -7.240001 c -0.759999,0 -1.379999,0.522655 -1.379999,1.16333 v 13.67334 c 0,0.640674 0.62,1.163329 1.379999,1.163329 h 7.240001 c 0.759999,0 1.38,-0.522655 1.38,-1.163329 v -13.67334 c 0,-0.640675 -0.620001,-1.16333 -1.38,-1.16333 z m -5.460001,0.927292 h 3.64 c 0.14,0 0.24,0.0843 0.24,0.202318 0,0.118019 -0.1,0.202318 -0.24,0.202318 h -3.64 c -0.14,0 -0.239999,-0.0843 -0.239999,-0.202318 0,-0.101159 0.1,-0.202318 0.239999,-0.202318 z m 1.820001,14.061116 c -0.4,0 -0.72,-0.269757 -0.72,-0.606954 0,-0.337197 0.32,-0.606955 0.72,-0.606955 0.4,0 0.719999,0.269758 0.719999,0.606955 -0.02,0.337197 -0.339999,0.606954 -0.719999,0.606954 z m 3.990955,-1.96962 h -8 v -11 h 8 z"
       id="path10-2-6-9"
       style="fill:#d6dbf1;fill-opacity:1;stroke-width:0.18363"
       sodipodi:nodetypes="ssssssssssssssssssscsccccc" />
  </g>
  <g
     id="phone-battery"
     transform="translate(51.999999)">
    <rect
       style="opacity:0.01;fill:#eff0f1;fill-opacity:0;stroke:none"
       id="rect3038"
       y="0"
       x="0"
       ry="0"
       rx="0"
       height="31.999973"
       width="32.000015" />
    <path
       sodipodi:nodetypes="ccccccc"
       inkscape:connector-curvature="0"
       id="path4444"
       d="M 17.113559,9.55 12.75,16.0954 h 2.181719 V 21.55 l 4.36356,-6.54552 h -2.18172 z"
       style="color:#7b7c7e;fill:#bf616a;fill-opacity:1;fill-rule:evenodd;stroke:none"
       class="ColorScheme-Text" />
    <path
       d="M 9.0176376,6.9663798 C 8.8409777,6.9663798 8.7,7.0882668 8.7,7.2385608 v 0.534415 c 0,0.152552 0.1423033,0.272181 0.3176376,0.272181 v 0.808845 C 8.8409777,8.8540018 8.7,8.9736358 8.7,9.1212958 v 1.0836602 c 0,0.145403 0.1423033,0.267107 0.3176376,0.267107 V 11.01134 C 8.8409777,11.01134 8.7,11.130974 8.7,11.278634 v 1.083469 c 0,0.145589 0.1423033,0.267294 0.3176376,0.267294 V 26.651876 C 9.0176376,27.395617 9.7298584,28 10.608057,28 H 21.40959 C 22.287394,28 23,27.396388 23,26.651876 V 5.6176738 c 0,-0.743547 -0.711989,-1.348122 -1.59041,-1.348122 h -0.316321 c 0,-0.149918 -0.141626,-0.269552 -0.316312,-0.269552 h -2.545152 c -0.17156,0 -0.31631,0.120573 -0.31631,0.269552 H 10.60836 c -0.8777936,0 -1.5904188,0.603612 -1.5904188,1.348122 z M 14.896493,26.516953 c 0,-0.52122 0.499192,-0.943723 1.112341,-0.943723 0.61421,0 1.112098,0.423606 1.112098,0.943723 0,0.52122 -0.499193,0.943917 -1.112098,0.943917 -0.614454,0 -1.112341,-0.423606 -1.112341,-0.943917 z M 10,6 H 22 V 25 H 10 Z m 4.578674,-0.7863332 c 0,-0.07449 0.07062,-0.13487 0.16203,-0.13487 h 2.536016 c 0.08964,0 0.16203,0.06264 0.16203,0.13487 0,0.07449 -0.07061,0.13487 -0.16203,0.13487 h -2.536016 c -0.08931,0 -0.16203,-0.06264 -0.16203,-0.13487 z"
       fill-rule="evenodd"
       id="path76-3"
       style="fill:#d6dbf1;fill-opacity:1;stroke-width:0.0522735"
       sodipodi:nodetypes="cssccssccsscsssssscsscsccssssscccccsssssss" />
  </g>
  <g
     id="phone">
    <rect
       width="32.000015"
       height="31.999973"
       rx="0"
       ry="0"
       x="0"
       y="0"
       id="rect3860"
       style="opacity:0.01;fill:#eff0f1;fill-opacity:0;stroke:none" />
    <path
       d="M 9.017638,6.96638 C 8.840978,6.96638 8.7,7.088267 8.7,7.238561 v 0.534415 c 0,0.152552 0.142303,0.272181 0.317638,0.272181 V 8.854002 C 8.840978,8.854002 8.7,8.973636 8.7,9.121296 v 1.08366 c 0,0.145403 0.142303,0.267107 0.317638,0.267107 V 11.01134 C 8.840978,11.01134 8.7,11.130974 8.7,11.278634 v 1.083469 c 0,0.145589 0.142303,0.267294 0.317638,0.267294 V 26.651876 C 9.017638,27.395617 9.729858,28 10.608057,28 H 21.40959 C 22.287394,28 23,27.396388 23,26.651876 V 5.617674 C 23,4.874127 22.288011,4.269552 21.40959,4.269552 H 21.093269 C 21.093269,4.119634 20.951643,4 20.776957,4 h -2.545152 c -0.17156,0 -0.31631,0.120573 -0.31631,0.269552 H 10.60836 c -0.877794,0 -1.590419,0.603612 -1.590419,1.348122 z m 5.878855,19.550573 c 0,-0.52122 0.499192,-0.943723 1.112341,-0.943723 0.61421,0 1.112098,0.423606 1.112098,0.943723 0,0.52122 -0.499193,0.943917 -1.112098,0.943917 -0.614454,0 -1.112341,-0.423606 -1.112341,-0.943917 z M 10,6.0000002 H 22 V 25 H 10 Z M 14.578674,5.213667 c 0,-0.07449 0.07062,-0.13487 0.16203,-0.13487 h 2.536016 c 0.08964,0 0.16203,0.06264 0.16203,0.13487 0,0.07449 -0.07061,0.13487 -0.16203,0.13487 h -2.536016 c -0.08931,0 -0.16203,-0.06264 -0.16203,-0.13487 z"
       fill-rule="evenodd"
       id="path76-3-3"
       style="fill:#d6dbf1;fill-opacity:1;stroke-width:0.0522735"
       sodipodi:nodetypes="cssccssccsscsssssscsscsccssssscccccsssssss" />
  </g>
</svg>
