<?xml version="1.0" encoding="UTF-8" standalone="no"?>
<svg
   width="32"
   height="32"
   version="1.1"
   id="svg12"
   sodipodi:docname="plasmavault_error.svg"
   inkscape:version="1.1.2 (0a00cf5339, 2022-02-04)"
   xmlns:inkscape="http://www.inkscape.org/namespaces/inkscape"
   xmlns:sodipodi="http://sodipodi.sourceforge.net/DTD/sodipodi-0.dtd"
   xmlns:xlink="http://www.w3.org/1999/xlink"
   xmlns="http://www.w3.org/2000/svg"
   xmlns:svg="http://www.w3.org/2000/svg"
   xmlns:rdf="http://www.w3.org/1999/02/22-rdf-syntax-ns#"
   xmlns:cc="http://creativecommons.org/ns#"
   xmlns:dc="http://purl.org/dc/elements/1.1/">
  <g
     id="22-22-plasmavault_error"
     transform="translate(32,10)">
    <rect
       style="opacity:0.00100002"
       width="22"
       height="22"
       x="0"
       y="0"
       id="rect2" />
    <rect
       width="15.999734"
       height="11.998854"
       x="2.9999924"
       y="5"
       rx="1.7391711"
       ry="1.8746779"
       style="opacity:0.85;fill:url(#linearGradient1136);fill-opacity:1;stroke:none;stroke-width:0.276011"
       id="rect11-2" />
    <path
       d="m 4.7391634,5.0000037 c -0.963451,0 -1.739171,0.951395 -1.739171,1.742748 v 0.257061 c 0,-0.791353 0.77572,-1.428435 1.739171,-1.428435 H 17.260821 c 0.963451,0 1.739171,0.637082 1.739171,1.428435 v -0.257061 c 0,-0.791353 -0.77572,-1.742748 -1.739171,-1.742748 z"
       style="opacity:0.2;fill:#ffffff;fill-opacity:1;stroke:none;stroke-width:0.276011"
       id="path13-9"
       sodipodi:nodetypes="sscsscsss" />
    <path
       d="m 4.7391634,8.1426467 h 2.782621 C 11.347853,7.7618247 10.68465,6.2633687 13.119544,6.2633687 h 4.096395 c 0.963447,0 1.783786,0.404047 1.783786,1.459374 v 7.3717253 c 0,1.055042 -0.775453,1.904675 -1.738904,1.904675 H 4.7391634 c -0.963451,0 -1.739171,-0.849347 -1.739171,-1.904675 V 9.7615487 c 0,-1.142748 0.695721,-1.618902 1.739171,-1.618902 z"
       style="opacity:0.6;fill:url(#linearGradient1138);fill-opacity:1;stroke:none;stroke-width:0.276011"
       id="path15-1"
       sodipodi:nodetypes="scsssssssss" />
    <path
       d="m 2.9999924,14.333398 v 0.761927 C 2.9999924,16.150367 3.7757124,17 4.7391634,17 H 17.260821 c 0.963451,0 1.739171,-0.849347 1.739171,-1.904675 v -0.761927 c 0,1.055042 -0.77572,2.094943 -1.739171,2.094943 H 4.7391634 c -0.963451,0 -1.739171,-1.039901 -1.739171,-2.094943 z"
       style="opacity:0.15;fill:#000000;fill-opacity:1;stroke:none;stroke-width:0.276011"
       id="path17-2" />
    <rect
       y="15.200687"
       x="13"
       height="0.085714296"
       width="5.4666729"
       id="rect4209-7"
       style="fill:#bf616a;fill-opacity:1;fill-rule:nonzero;stroke:none;stroke-width:0.105625;stroke-linecap:round;stroke-linejoin:round;stroke-miterlimit:4;stroke-dasharray:none;stroke-dashoffset:0;stroke-opacity:1" />
    <path
       d="m 9.2146694,11.966205 c -0.132888,-0.316333 -0.329002,-0.601021 -0.569375,-0.847763 -0.246744,-0.246735 -0.53143,-0.436546 -0.847764,-0.569375 -0.329036,-0.139228 -0.67698,-0.215139 -1.037618,-0.215139 -0.360643,0 -0.708574,0.07591 -1.037567,0.215096 -0.316334,0.132878 -0.601022,0.328995 -0.847763,0.569374 -0.246737,0.246742 -0.436548,0.531429 -0.569375,0.847764 -0.139229,0.329038 -0.21514,0.676969 -0.21514,1.037611 0,0.36064 0.07591,0.708582 0.215096,1.037574 0.132877,0.316336 0.328996,0.601023 0.569375,0.847755 0.246741,0.246743 0.531428,0.436553 0.847763,0.569385 0.328995,0.139184 0.676968,0.208775 1.037567,0.208775 0.360639,0 0.708572,-0.06959 1.037576,-0.208774 0.31633,-0.13289 0.60102,-0.329007 0.847753,-0.569386 0.246743,-0.246732 0.436553,-0.531419 0.569377,-0.847755 0.139191,-0.328993 0.208782,-0.676978 0.208782,-1.037574 8.9e-5,-0.360642 -0.06951,-0.708573 -0.208702,-1.037568 z"
       id="path67-0"
       style="fill:url(#linearGradient1140);fill-opacity:1;stroke-width:0.011298" />
    <path
       d="m 7.8807674,12.627559 h -0.109789 l -5.72e-4,-0.547109 c -5.83e-4,-0.596003 -0.48534,-1.080892 -1.081337,-1.080447 -0.596003,5.71e-4 -1.080891,0.485331 -1.080448,1.081335 l 0.0011,0.547112 h -0.03909 c -0.204886,5.82e-4 -0.371111,0.166661 -0.370666,0.371558 V 14.6289 c 4e-6,0.204885 0.166669,0.371103 0.371558,0.371103 l 2.310225,-0.0017 c 0.204893,0 0.371114,-0.16622 0.370671,-0.37111 V 12.99789 c 0,-0.204889 -0.166665,-0.370667 -0.37156,-0.370667 z m -1.872894,0.0013 -0.0011,-0.54711 c 0,-0.376447 0.305778,-0.682669 0.682227,-0.683113 0.376444,0 0.682665,0.306221 0.682665,0.682222 l 0.0013,0.547122 z"
       id="path2-3-3-9"
       style="fill:url(#linearGradient1174);fill-opacity:1.0;stroke-width:0.0444463" />
  </g>
  <g
     id="plasmavault_error">
    <rect
       style="opacity:0.00100002"
       width="32"
       height="32"
       x="0"
       y="0"
       id="rect7" />
    <rect
       width="23.999599"
       height="17.99828"
       x="4"
       y="7"
       rx="2.6087565"
       ry="2.8120167"
       style="opacity:0.85;fill:url(#linearGradient1493);fill-opacity:1;stroke:none;stroke-width:0.414016"
       id="rect11" />
    <path
       d="M 6.608756,7.0000063 C 5.16358,7.0000063 4,8.4270984 4,9.6141279 V 9.9997196 C 4,8.8126901 5.16358,7.8570672 6.608756,7.8570672 h 18.782487 c 1.445176,0 2.608756,0.9556229 2.608756,2.1426524 V 9.6141279 c 0,-1.1870295 -1.16358,-2.6141216 -2.608756,-2.6141216 z"
       style="opacity:0.2;fill:#ffffff;fill-opacity:1;stroke:none;stroke-width:0.414016"
       id="path13"
       sodipodi:nodetypes="sscsscsss" />
    <path
       d="m 6.608756,11.71397 h 4.173931 c 5.739104,-0.571232 4.7443,-2.8189163 8.39664,-2.8189163 h 6.144592 c 1.445171,0 2.67568,0.6060707 2.67568,2.1890613 v 11.057586 c 0,1.582563 -1.16318,2.857013 -2.608356,2.857013 H 6.608756 C 5.16358,24.998714 4,23.724693 4,22.141701 V 14.142323 C 4,12.428201 5.043582,11.71397 6.608756,11.71397 Z"
       style="opacity:0.6;fill:url(#linearGradient1297);fill-opacity:1;stroke:none;stroke-width:0.414016"
       id="path15"
       sodipodi:nodetypes="scsssssssss" />
    <path
       d="m 4,21.000096 v 1.142891 c 0,1.582563 1.16358,2.857012 2.608756,2.857012 h 18.782487 c 1.445176,0 2.608756,-1.274021 2.608756,-2.857012 v -1.142891 c 0,1.582563 -1.16358,3.142414 -2.608756,3.142414 H 6.608756 C 5.16358,24.14251 4,22.582659 4,21.000096 Z"
       style="opacity:0.15;fill:#000000;fill-opacity:1;stroke:none;stroke-width:0.414016"
       id="path17" />
    <rect
       y="22.301031"
       x="19.000015"
       height="0.12857144"
       width="8.2000093"
       id="rect4209"
       style="fill:#bf616a;fill-opacity:1;fill-rule:nonzero;stroke:none;stroke-width:0.158437;stroke-linecap:round;stroke-linejoin:round;stroke-miterlimit:4;stroke-dasharray:none;stroke-dashoffset:0;stroke-opacity:1" />
    <path
       d="m 13.322015,17.449307 c -0.199332,-0.4745 -0.493503,-0.901531 -0.854063,-1.271644 -0.370115,-0.370103 -0.797145,-0.654819 -1.271645,-0.854063 -0.493555,-0.208842 -1.01547,-0.322708 -1.556427,-0.322708 -0.540964,0 -1.062861,0.113862 -1.55635,0.322643 -0.474502,0.199318 -0.901534,0.493493 -1.271645,0.854062 -0.370106,0.370113 -0.654822,0.797143 -0.854062,1.271645 -0.208844,0.493558 -0.322711,1.015454 -0.322711,1.556417 0,0.54096 0.113862,1.062872 0.322644,1.556361 0.199316,0.474504 0.493494,0.901534 0.854063,1.271632 0.370111,0.370115 0.797142,0.65483 1.271644,0.854078 0.493493,0.208775 1.015453,0.313162 1.556351,0.313162 0.540958,0 1.062858,-0.104391 1.556363,-0.313161 0.474495,-0.199335 0.90153,-0.493511 1.27163,-0.854079 0.370115,-0.370098 0.65483,-0.797128 0.854065,-1.271632 0.208787,-0.49349 0.313173,-1.015467 0.313173,-1.556361 1.34e-4,-0.540963 -0.104262,-1.062859 -0.313053,-1.556352 z"
       id="path67"
       style="fill:url(#linearGradient878);fill-opacity:1;stroke-width:0.016947" />
    <path
       d="m 11.321162,18.441338 h -0.164683 l -8.59e-4,-0.820663 c -8.74e-4,-0.894005 -0.728009,-1.621339 -1.622004,-1.620671 -0.894005,8.57e-4 -1.621337,0.727997 -1.620672,1.622002 l 0.0017,0.820668 h -0.05864 c -0.30733,8.73e-4 -0.556667,0.249992 -0.555999,0.557338 v 2.443337 c 5e-6,0.307328 0.250003,0.556655 0.557336,0.556655 l 3.465337,-0.0025 c 0.30734,0 0.556672,-0.249331 0.556007,-0.556666 V 18.99688 c 0,-0.307334 -0.249997,-0.556001 -0.55734,-0.556001 z m -2.809341,0.0019 -0.0017,-0.820665 c 0,-0.56467 0.458667,-1.024003 1.02334,-1.02467 0.564666,0 1.023997,0.459332 1.023997,1.023334 l 0.0019,0.820683 z"
       id="path2-3-3"
       style="fill:url(#linearGradient910);fill-opacity:1;stroke-width:0.0666695" />
  </g>
  <metadata
     id="metadata18">
    <rdf:RDF>
      <cc:Work
         rdf:about="">
        <dc:format>image/svg+xml</dc:format>
        <dc:type
           rdf:resource="http://purl.org/dc/dcmitype/StillImage" />
      </cc:Work>
    </rdf:RDF>
  </metadata>
  <defs
     id="defs16">
    <linearGradient
       inkscape:collect="always"
       id="linearGradient958">
      <stop
         style="stop-color:#ad4650;stop-opacity:0.5"
         offset="0"
         id="stop954" />
      <stop
         style="stop-color:#c46e77;stop-opacity:1"
         offset="1"
         id="stop956" />
    </linearGradient>
    <linearGradient
       inkscape:collect="always"
       xlink:href="#linearGradient1295"
       id="linearGradient1493"
       gradientUnits="userSpaceOnUse"
       x1="20.750315"
       y1="1025.9873"
       x2="-12.062732"
       y2="995.35931"
       gradientTransform="matrix(0.39999333,0,0,0.42853047,3.200013,-422.54179)" />
    <linearGradient
       inkscape:collect="always"
       id="linearGradient1295">
      <stop
         style="stop-color:#1d212f;stop-opacity:1;"
         offset="0"
         id="stop1291" />
      <stop
         style="stop-color:#717da8;stop-opacity:1"
         offset="1"
         id="stop1293" />
    </linearGradient>
    <linearGradient
       inkscape:collect="always"
       xlink:href="#linearGradient952"
       id="linearGradient1297"
       x1="2.0000021"
       y1="1025.9873"
       x2="62.938519"
       y2="1025.9873"
       gradientUnits="userSpaceOnUse"
       gradientTransform="matrix(0.39999333,0,0,0.42853047,3.200013,-422.54179)" />
    <linearGradient
       inkscape:collect="always"
       id="linearGradient952">
      <stop
         style="stop-color:#2e354b;stop-opacity:1"
         offset="0"
         id="stop948" />
      <stop
         style="stop-color:#717da8;stop-opacity:1"
         offset="1"
         id="stop950" />
    </linearGradient>
    <linearGradient
       inkscape:collect="always"
       xlink:href="#linearGradient876"
       id="linearGradient878"
       x1="5"
       y1="40"
       x2="24.99983"
       y2="40"
       gradientUnits="userSpaceOnUse"
       gradientTransform="matrix(0.39999999,0,0,0.4,3.635112,3.0008923)" />
    <linearGradient
       inkscape:collect="always"
       id="linearGradient876">
      <stop
         style="stop-color:#404868;stop-opacity:1"
         offset="0"
         id="stop872" />
      <stop
         style="stop-color:#becad8;stop-opacity:1"
         offset="1"
         id="stop874" />
    </linearGradient>
    <linearGradient
       inkscape:collect="always"
       xlink:href="#linearGradient1295"
       id="linearGradient1136"
       gradientUnits="userSpaceOnUse"
       gradientTransform="matrix(0.26666223,0,0,0.28568699,2.4666674,-281.3612)"
       x1="20.750315"
       y1="1025.9873"
       x2="-12.062732"
       y2="995.35931" />
    <linearGradient
       inkscape:collect="always"
       xlink:href="#linearGradient952"
       id="linearGradient1138"
       gradientUnits="userSpaceOnUse"
       gradientTransform="matrix(0.26666223,0,0,0.28568699,2.4666674,-281.3612)"
       x1="2.0000021"
       y1="1025.9873"
       x2="62.938519"
       y2="1025.9873" />
    <linearGradient
       inkscape:collect="always"
       xlink:href="#linearGradient876"
       id="linearGradient1140"
       gradientUnits="userSpaceOnUse"
       gradientTransform="matrix(0.26666667,0,0,0.26666668,2.7567334,2.3339277)"
       x1="5"
       y1="40"
       x2="24.99983"
       y2="40" />
    <linearGradient
       inkscape:collect="always"
       xlink:href="#linearGradient958"
       id="linearGradient910"
       x1="7.3000037"
       y1="19.000004"
       x2="11.878686"
       y2="19.000004"
       gradientUnits="userSpaceOnUse" />
    <linearGradient
       inkscape:collect="always"
       xlink:href="#linearGradient958"
       id="linearGradient1174"
       x1="5.1999645"
       y1="13.000003"
       x2="8.2524204"
       y2="13.000003"
       gradientUnits="userSpaceOnUse" />
  </defs>
  <sodipodi:namedview
     pagecolor="#ffffff"
     bordercolor="#666666"
     borderopacity="1"
     objecttolerance="10"
     gridtolerance="10"
     guidetolerance="10"
     inkscape:pageopacity="0"
     inkscape:pageshadow="2"
     inkscape:window-width="1920"
     inkscape:window-height="1015"
     id="namedview14"
     showgrid="false"
     inkscape:zoom="9.8125"
     inkscape:cx="37.605096"
     inkscape:cy="17.987261"
     inkscape:window-x="0"
     inkscape:window-y="0"
     inkscape:window-maximized="1"
     inkscape:current-layer="svg12"
     inkscape:document-rotation="0"
     inkscape:lockguides="false"
     inkscape:pagecheckerboard="0">
    <inkscape:grid
       type="xygrid"
       id="grid868"
       originx="0"
       originy="0" />
  </sodipodi:namedview>
</svg>
