<?xml version="1.0" encoding="UTF-8" standalone="no"?>
<svg
   width="32"
   height="32"
   version="1.1"
   id="svg12"
   sodipodi:docname="plasmavault.svg"
   inkscape:version="1.1.2 (0a00cf5339, 2022-02-04)"
   xmlns:inkscape="http://www.inkscape.org/namespaces/inkscape"
   xmlns:sodipodi="http://sodipodi.sourceforge.net/DTD/sodipodi-0.dtd"
   xmlns:xlink="http://www.w3.org/1999/xlink"
   xmlns="http://www.w3.org/2000/svg"
   xmlns:svg="http://www.w3.org/2000/svg"
   xmlns:rdf="http://www.w3.org/1999/02/22-rdf-syntax-ns#"
   xmlns:cc="http://creativecommons.org/ns#"
   xmlns:dc="http://purl.org/dc/elements/1.1/">
  <metadata
     id="metadata18">
    <rdf:RDF>
      <cc:Work
         rdf:about="">
        <dc:format>image/svg+xml</dc:format>
        <dc:type
           rdf:resource="http://purl.org/dc/dcmitype/StillImage" />
      </cc:Work>
    </rdf:RDF>
  </metadata>
  <defs
     id="defs16">
    <linearGradient
       inkscape:collect="always"
       xlink:href="#linearGradient1295"
       id="linearGradient1493"
       gradientUnits="userSpaceOnUse"
       x1="20.750315"
       y1="1025.9873"
       x2="-12.062732"
       y2="995.35931"
       gradientTransform="matrix(0.39999333,0,0,0.42853046,3.200013,-422.54179)" />
    <linearGradient
       inkscape:collect="always"
       id="linearGradient1295">
      <stop
         style="stop-color:#1d212f;stop-opacity:1;"
         offset="0"
         id="stop1291" />
      <stop
         style="stop-color:#717da8;stop-opacity:1"
         offset="1"
         id="stop1293" />
    </linearGradient>
    <linearGradient
       inkscape:collect="always"
       xlink:href="#linearGradient952"
       id="linearGradient1297"
       x1="2.0000021"
       y1="1025.9873"
       x2="62.938519"
       y2="1025.9873"
       gradientUnits="userSpaceOnUse"
       gradientTransform="matrix(0.39999333,0,0,0.42853046,3.200013,-422.54179)" />
    <linearGradient
       inkscape:collect="always"
       id="linearGradient952">
      <stop
         style="stop-color:#2e354b;stop-opacity:1"
         offset="0"
         id="stop948" />
      <stop
         style="stop-color:#717da8;stop-opacity:1"
         offset="1"
         id="stop950" />
    </linearGradient>
    <linearGradient
       inkscape:collect="always"
       xlink:href="#linearGradient876"
       id="linearGradient878"
       x1="5"
       y1="40"
       x2="24.99983"
       y2="40"
       gradientUnits="userSpaceOnUse"
       gradientTransform="matrix(0.39999999,0,0,0.39999999,3.635112,3.0008881)" />
    <linearGradient
       inkscape:collect="always"
       id="linearGradient876">
      <stop
         style="stop-color:#404868;stop-opacity:1"
         offset="0"
         id="stop872" />
      <stop
         style="stop-color:#becad8;stop-opacity:1"
         offset="1"
         id="stop874" />
    </linearGradient>
    <linearGradient
       inkscape:collect="always"
       xlink:href="#linearGradient1295"
       id="linearGradient1260"
       gradientUnits="userSpaceOnUse"
       x1="20.750315"
       y1="1025.9873"
       x2="-12.062732"
       y2="995.35931"
       gradientTransform="matrix(0.26666222,0,0,0.28568698,2.4666756,-281.3612)" />
    <linearGradient
       inkscape:collect="always"
       xlink:href="#linearGradient952"
       id="linearGradient1262"
       gradientUnits="userSpaceOnUse"
       x1="2.0000021"
       y1="1025.9873"
       x2="62.938519"
       y2="1025.9873"
       gradientTransform="matrix(0.26666222,0,0,0.28568698,2.4666756,-281.3612)" />
    <linearGradient
       inkscape:collect="always"
       xlink:href="#linearGradient876"
       id="linearGradient1264"
       gradientUnits="userSpaceOnUse"
       gradientTransform="matrix(0.26666666,0,0,0.26666666,2.7567416,2.3339259)"
       x1="5"
       y1="40"
       x2="24.99983"
       y2="40" />
    <linearGradient
       inkscape:collect="always"
       xlink:href="#linearGradient1295"
       id="linearGradient910"
       x1="7.2999997"
       y1="19"
       x2="11.878682"
       y2="19"
       gradientUnits="userSpaceOnUse" />
    <linearGradient
       inkscape:collect="always"
       xlink:href="#linearGradient952"
       id="linearGradient918"
       x1="5.1999626"
       y1="13.000001"
       x2="8.2524176"
       y2="13.000001"
       gradientUnits="userSpaceOnUse" />
  </defs>
  <sodipodi:namedview
     pagecolor="#ffffff"
     bordercolor="#666666"
     borderopacity="1"
     objecttolerance="10"
     gridtolerance="10"
     guidetolerance="10"
     inkscape:pageopacity="0"
     inkscape:pageshadow="2"
     inkscape:window-width="1920"
     inkscape:window-height="1015"
     id="namedview14"
     showgrid="true"
     inkscape:zoom="13.876971"
     inkscape:cx="23.708344"
     inkscape:cy="16.394068"
     inkscape:window-x="0"
     inkscape:window-y="0"
     inkscape:window-maximized="1"
     inkscape:current-layer="svg12"
     inkscape:document-rotation="0"
     inkscape:pagecheckerboard="0"
     inkscape:lockguides="false">
    <inkscape:grid
       type="xygrid"
       id="grid860"
       originx="0"
       originy="0" />
  </sodipodi:namedview>
  <g
     id="plasmavault">
    <rect
       style="opacity:0.00100002;fill:#a8aeca;fill-opacity:1"
       width="32"
       height="32"
       x="0"
       y="0"
       id="rect7" />
    <rect
       width="23.999599"
       height="17.99828"
       x="3.9999998"
       y="6.9999957"
       rx="2.6087565"
       ry="2.8120167"
       style="opacity:0.85;fill:url(#linearGradient1493);fill-opacity:1;stroke:none;stroke-width:0.414016"
       id="rect11" />
    <path
       d="m 6.6087562,7.0000019 c -1.4451759,0 -2.6087565,1.4270921 -2.6087565,2.6141215 v 0.3855917 c 0,-1.1870294 1.1635806,-2.1426523 2.6087565,-2.1426523 H 25.391243 c 1.445176,0 2.608756,0.9556229 2.608756,2.1426523 V 9.6141234 c 0,-1.1870294 -1.16358,-2.6141215 -2.608756,-2.6141215 z"
       style="opacity:0.2;fill:#ffffff;fill-opacity:1;stroke:none;stroke-width:0.414016"
       id="path13"
       sodipodi:nodetypes="sscsscsss" />
    <path
       d="m 6.6087562,11.713966 h 4.1739308 c 5.739104,-0.571232 4.7443,-2.8189167 8.39664,-2.8189167 h 6.144592 c 1.445171,0 2.67568,0.6060706 2.67568,2.1890617 v 11.057586 c 0,1.582563 -1.16318,2.857013 -2.608356,2.857013 H 6.6087562 c -1.4451759,0 -2.6087565,-1.274021 -2.6087565,-2.857013 v -7.999378 c 0,-1.714122 1.0435826,-2.428353 2.6087565,-2.428353 z"
       style="opacity:0.6;fill:url(#linearGradient1297);fill-opacity:1;stroke:none;stroke-width:0.414016"
       id="path15"
       sodipodi:nodetypes="scsssssssss" />
    <path
       d="m 3.9999997,21.000092 v 1.142891 c 0,1.582563 1.1635806,2.857012 2.6087565,2.857012 H 25.391243 c 1.445176,0 2.608756,-1.274021 2.608756,-2.857012 v -1.142891 c 0,1.582563 -1.16358,3.142414 -2.608756,3.142414 H 6.6087562 c -1.4451759,0 -2.6087565,-1.559851 -2.6087565,-3.142414 z"
       style="opacity:0.15;fill:#000000;fill-opacity:1;stroke:none;stroke-width:0.414016"
       id="path17" />
    <rect
       y="22.301025"
       x="19.000017"
       height="0.12857144"
       width="8.2000093"
       id="rect4209"
       style="fill:#000000;fill-opacity:1;fill-rule:nonzero;stroke:none;stroke-width:0.158437;stroke-linecap:round;stroke-linejoin:round;stroke-miterlimit:4;stroke-dasharray:none;stroke-dashoffset:0;stroke-opacity:1" />
    <path
       d="m 13.322015,17.449303 c -0.199332,-0.4745 -0.493503,-0.901531 -0.854063,-1.271644 -0.370115,-0.370103 -0.797145,-0.654819 -1.271645,-0.854063 -0.493555,-0.208842 -1.01547,-0.322708 -1.556427,-0.322708 -0.540964,0 -1.062861,0.113862 -1.55635,0.322643 -0.474502,0.199318 -0.901534,0.493493 -1.271645,0.854062 -0.370106,0.370113 -0.654822,0.797143 -0.854062,1.271645 -0.208844,0.493558 -0.322711,1.015454 -0.322711,1.556417 0,0.54096 0.113862,1.062872 0.322644,1.556361 0.199316,0.474504 0.493494,0.901534 0.854063,1.271632 0.370111,0.370115 0.797142,0.65483 1.271644,0.854078 0.493493,0.208775 1.015453,0.313162 1.556351,0.313162 0.540958,0 1.062858,-0.104391 1.556363,-0.313161 0.474495,-0.199335 0.90153,-0.493511 1.27163,-0.854079 0.370115,-0.370098 0.65483,-0.797128 0.854065,-1.271632 0.208787,-0.49349 0.313173,-1.015467 0.313173,-1.556361 1.34e-4,-0.540963 -0.104262,-1.062859 -0.313053,-1.556352 z"
       id="path67"
       style="fill:url(#linearGradient878);fill-opacity:1;stroke-width:0.016947" />
    <path
       d="M 11.321162,18.441334 H 11.156479 L 11.15562,17.620671 C 11.154746,16.726666 10.427611,15.999332 9.533616,16 8.639611,16.000857 7.912279,16.727997 7.912944,17.622002 l 0.0017,0.820668 H 7.856 c -0.30733,8.73e-4 -0.556667,0.249992 -0.555999,0.557338 v 2.443337 C 7.300006,21.750673 7.550004,22 7.857337,22 l 3.465337,-0.0025 c 0.30734,0 0.556672,-0.249331 0.556007,-0.556666 v -2.443958 c 0,-0.307334 -0.249997,-0.556001 -0.55734,-0.556001 z m -2.809341,0.0019 -0.0017,-0.820665 c 0,-0.56467 0.458667,-1.024003 1.02334,-1.02467 0.564666,0 1.023997,0.459332 1.023997,1.023334 l 0.0019,0.820683 z"
       id="path2-3"
       style="fill:url(#linearGradient910);fill-opacity:1.0;stroke-width:0.0666695" />
  </g>
  <g
     id="22-22-plasmavault"
     transform="translate(32,10)">
    <rect
       style="opacity:0.00100002;fill:#a8aeca;fill-opacity:1"
       width="22"
       height="22"
       x="0"
       y="0"
       id="rect2" />
    <rect
       width="15.999733"
       height="11.998853"
       x="3"
       y="4.9999971"
       rx="1.7391709"
       ry="1.8746779"
       style="opacity:0.85;fill:url(#linearGradient1260);fill-opacity:1;stroke:none;stroke-width:0.276011"
       id="rect11-29" />
    <path
       d="M 4.739171,5.0000013 C 3.7757204,5.0000013 3,5.9513961 3,6.742749 V 6.9998101 C 3,6.2084572 3.7757204,5.5713752 4.739171,5.5713752 H 17.260829 C 18.22428,5.5713752 19,6.2084572 19,6.9998101 V 6.742749 C 19,5.9513961 18.22428,5.0000013 17.260829,5.0000013 Z"
       style="opacity:0.2;fill:#ffffff;fill-opacity:1;stroke:none;stroke-width:0.276011"
       id="path13-1"
       sodipodi:nodetypes="sscsscsss" />
    <path
       d="M 4.739171,8.1426438 H 7.5217913 C 11.347861,7.761823 10.684659,6.2633662 13.119552,6.2633662 h 4.096394 c 0.963448,0 1.783787,0.4040471 1.783787,1.4593748 v 7.371724 c 0,1.055042 -0.775453,1.904675 -1.738904,1.904675 H 4.739171 C 3.7757204,16.99914 3,16.149793 3,15.094465 V 9.7615462 C 3,8.6187982 3.6957218,8.1426438 4.739171,8.1426438 Z"
       style="opacity:0.6;fill:url(#linearGradient1262);fill-opacity:1;stroke:none;stroke-width:0.276011"
       id="path15-2"
       sodipodi:nodetypes="scsssssssss" />
    <path
       d="m 3,14.333395 v 0.761927 c 0,1.055042 0.7757204,1.904675 1.739171,1.904675 H 17.260829 C 18.22428,16.999997 19,16.15065 19,15.095322 v -0.761927 c 0,1.055042 -0.77572,2.094943 -1.739171,2.094943 H 4.739171 C 3.7757204,16.428338 3,15.388437 3,14.333395 Z"
       style="opacity:0.15;fill:#000000;fill-opacity:1;stroke:none;stroke-width:0.276011"
       id="path17-7" />
    <rect
       y="15.200686"
       x="13.000012"
       height="0.085714288"
       width="5.4666729"
       id="rect4209-0"
       style="fill:#000000;fill-opacity:1;fill-rule:nonzero;stroke:none;stroke-width:0.105625;stroke-linecap:round;stroke-linejoin:round;stroke-miterlimit:4;stroke-dasharray:none;stroke-dashoffset:0;stroke-opacity:1" />
    <path
       d="m 9.2146776,11.966203 c -0.132888,-0.316334 -0.329002,-0.601021 -0.569376,-0.847763 -0.246743,-0.246735 -0.53143,-0.436546 -0.847763,-0.569375 -0.329037,-0.139228 -0.67698,-0.215139 -1.037618,-0.215139 -0.360643,0 -0.708574,0.07591 -1.037567,0.215095 -0.316334,0.132879 -0.601022,0.328996 -0.847763,0.569375 -0.246737,0.246742 -0.436548,0.531429 -0.569375,0.847763 -0.139229,0.329039 -0.21514,0.67697 -0.21514,1.037612 0,0.36064 0.07591,0.708581 0.215096,1.037574 0.132877,0.316336 0.328996,0.601022 0.569375,0.847754 0.246741,0.246744 0.531428,0.436554 0.847763,0.569386 0.328995,0.139183 0.676968,0.208774 1.037567,0.208774 0.360639,0 0.708572,-0.06959 1.037575,-0.208774 0.31633,-0.13289 0.60102,-0.329007 0.847754,-0.569386 0.246743,-0.246732 0.436553,-0.531418 0.569376,-0.847754 0.139192,-0.328994 0.208782,-0.676978 0.208782,-1.037574 9e-5,-0.360642 -0.06951,-0.708573 -0.208702,-1.037568 z"
       id="path67-9"
       style="fill:url(#linearGradient1264);fill-opacity:1;stroke-width:0.011298" />
    <path
       d="m 7.8807756,12.627557 h -0.109789 l -5.73e-4,-0.547109 c -5.82e-4,-0.596003 -0.485339,-1.080893 -1.081336,-1.080447 -0.596003,5.71e-4 -1.080891,0.485331 -1.080448,1.081334 l 0.0011,0.547112 h -0.0391 c -0.204887,5.82e-4 -0.371112,0.166662 -0.370666,0.371559 v 1.628891 c 3e-6,0.204886 0.166668,0.371104 0.371557,0.371104 l 2.310225,-0.0017 c 0.204893,0 0.371114,-0.166221 0.370671,-0.371111 v -1.629305 c 0,-0.204889 -0.166665,-0.370667 -0.37156,-0.370667 z m -1.872894,0.0013 -0.0011,-0.54711 c 0,-0.376446 0.305778,-0.682668 0.682227,-0.683113 0.376444,0 0.682665,0.306221 0.682665,0.682223 l 0.0013,0.547122 z"
       id="path2-3-3"
       style="fill:url(#linearGradient918);fill-opacity:1.0;stroke-width:0.0444463" />
  </g>
</svg>
