<?xml version="1.0" encoding="UTF-8" standalone="no"?>
<svg
   width="32"
   height="32"
   version="1.1"
   id="svg12"
   sodipodi:docname="printer.svg"
   inkscape:version="1.2 (dc2aedaf03, 2022-05-15)"
   xmlns:inkscape="http://www.inkscape.org/namespaces/inkscape"
   xmlns:sodipodi="http://sodipodi.sourceforge.net/DTD/sodipodi-0.dtd"
   xmlns="http://www.w3.org/2000/svg"
   xmlns:svg="http://www.w3.org/2000/svg"
   xmlns:rdf="http://www.w3.org/1999/02/22-rdf-syntax-ns#"
   xmlns:cc="http://creativecommons.org/ns#"
   xmlns:dc="http://purl.org/dc/elements/1.1/">
  <metadata
     id="metadata18">
    <rdf:RDF>
      <cc:Work
         rdf:about="">
        <dc:format>image/svg+xml</dc:format>
        <dc:type
           rdf:resource="http://purl.org/dc/dcmitype/StillImage" />
      </cc:Work>
    </rdf:RDF>
  </metadata>
  <defs
     id="defs16" />
  <sodipodi:namedview
     pagecolor="#ffffff"
     bordercolor="#000000"
     borderopacity="1"
     objecttolerance="10"
     gridtolerance="10"
     guidetolerance="10"
     inkscape:pageopacity="0"
     inkscape:pageshadow="2"
     inkscape:window-width="1920"
     inkscape:window-height="1002"
     id="namedview14"
     showgrid="false"
     inkscape:zoom="13.876971"
     inkscape:cx="26.374632"
     inkscape:cy="20.393499"
     inkscape:window-x="0"
     inkscape:window-y="0"
     inkscape:window-maximized="1"
     inkscape:current-layer="svg12"
     inkscape:document-rotation="0"
     inkscape:lockguides="false"
     inkscape:pagecheckerboard="0"
     inkscape:showpageshadow="false"
     inkscape:deskcolor="#d1d1d1"
     showguides="false">
    <inkscape:grid
       type="xygrid"
       id="grid908"
       originx="-1e-06"
       originy="-4.6325681e-08" />
  </sodipodi:namedview>
  <g
     id="printer">
    <rect
       style="opacity:0.00100002"
       width="32"
       height="32"
       x="0"
       y="4.6325681e-08"
       id="rect7"
       ry="0" />
    <path
       sodipodi:nodetypes="ccccsccccccccccccccsccccccccccccccccccccccccccccccccccccccsccccscccccsccccc"
       inkscape:connector-curvature="0"
       style="fill:#d6dbf1;fill-opacity:1;stroke-width:0.00298494"
       id="path4"
       d="m 7.999999,4 c -1,0 -1,1 -1,1 v 2 3 h -2 -2 c -1,0 -2,1 -2,2 v 5 4 0 c 0,1 1,2 2,2 0,0 0.1484418,-0.01702 2,0 h 2 v 2 1.981932 c 0,1.018068 1,1.018068 1,1.018068 L 16.034006,27.999837 23.999999,28 c 0,0 1,0 1,-1.063984 V 25 23 h 2 2 v 0 c 1,0 2,-1 2,-2 v 0 -4 c 0.01701,-5.440054 0,-5 0,-5 0,-1 -1,-2 -2,-2 h -2 -2 V 7 c 0.05774,-0.2001841 0,-2 0,-2 0,0 0,-1 -1.071669,-0.9999964 l -7.888949,2.62e-5 c -0.03114,-2.36e-5 -8.0210669,-2.95e-5 -8.0210669,-2.95e-5 z m 16,5 v 4 h -8 -8 V 9 5 h 8 8 z m -17,6 z m 18,0 v 0 1 1 h -2 -2 v 0 -2 0 0 h 2 z M 24.028273,22.97082 23.999999,27 h -8 -8 L 8.0286956,22.97082 7.999999,19 h 8 8 l 0.02857,3.97082 z" />
    <path
       inkscape:connector-curvature="0"
       style="fill:#d6dbf1;fill-opacity:1;stroke-width:0.00298494"
       id="path6"
       d="m 9.999999,20 v 0 1 0 h 2 3 v 0 -1 0 0 h -3 z"
       sodipodi:nodetypes="ccccccccccccc" />
    <path
       inkscape:connector-curvature="0"
       style="fill:#d6dbf1;fill-opacity:1;stroke-width:0.00298494"
       id="path8"
       d="m 16.999999,20 v 0 1 0 h 2 3 v 0 0 -1 0 h -3 z"
       sodipodi:nodetypes="ccccccccccccc" />
    <path
       inkscape:connector-curvature="0"
       style="fill:#d6dbf1;fill-opacity:1;stroke-width:0.00298494"
       id="path10"
       d="m 9.999999,22 v 1 0 0 h 6 6 v 0 -1 0 h -6 z"
       sodipodi:nodetypes="cccccccccccc" />
    <path
       inkscape:connector-curvature="0"
       style="fill:#d6dbf1;fill-opacity:1;stroke-width:0.00298494"
       id="path12"
       d="m 9.999999,25 v 0 1 0 h 4 5 v 0 -1 0 h -5 z"
       sodipodi:nodetypes="cccccccccccc" />
    <path
       inkscape:connector-curvature="0"
       style="fill:#d6dbf1;fill-opacity:1;stroke-width:0.00298494"
       id="path14"
       d="m 19.999999,25 v 0 1 h 1 1 v -1 0 h -1 z"
       sodipodi:nodetypes="ccccccccc" />
  </g>
  <g
     id="22-22-printer"
     transform="translate(32,10)">
    <rect
       style="opacity:0.00100002;stroke-width:0.6875"
       width="22"
       height="22"
       x="0"
       y="3.1848906e-08"
       id="rect7-6"
       ry="0" />
    <path
       sodipodi:nodetypes="ccccsccccccccccccccscccccccccccccccccccccccccccccccccccccccccccsccc"
       inkscape:connector-curvature="0"
       style="fill:#d6dbf1;fill-opacity:1;stroke-width:0.0019897"
       id="path4-7"
       d="M 5.6654905,3 C 4.998992,3 4.998992,3.6666666 4.998992,3.6666666 v 1.3333335 2 H 3.6659945 2.233 C 1.566501,7.0000001 1,7.566333 1,8.233 v 3.433665 L 0.999999,14.8 v 0 c 0,0.666665 0.6664995,1.2 1.3329985,1.2 0,0 0.098937,-0.01135 1.332997,0 H 4.999999 l -0.00101,1 v 1.321288 C 4.998992,19 5.6654905,19 5.6654905,19 L 11.020144,18.999893 16.32947,19 c 0,0 0.666497,0 0.666497,-0.709324 V 17 l 0.004,-1 h 1.328967 1.332994 v 0 c 0.666503,0 1.333,-0.600335 1.333,-1.267 v 0 -3.066335 c 0.01134,-3.626701 0,-3.433665 0,-3.433665 0,-0.666667 -0.566425,-1.2329999 -1.232928,-1.2329999 h -1.433066 -1.332999 v -2 c 0.03849,-0.1334561 0,-1.3333335 0,-1.3333335 0,0 0,-0.6666666 -0.714267,-0.6666641 l -5.257972,1.75e-5 c -0.02075,-1.57e-5 -5.3460305,-1.98e-5 -5.3460305,-1.98e-5 z M 15.999999,6 v 3 l -5.002519,10e-8 L 5.999999,9 V 6 4 h 5 5 z m 1,4 v 0 0 2 h -1 -2 v 0 -2 0 0 h 2 z m -1,6 v 2 h -5 -5 v -2 -3 h 4.997481 5.002519 z" />
    <path
       inkscape:connector-curvature="0"
       style="fill:#d6dbf1;fill-opacity:1;stroke-width:0.00205215"
       id="path10-5"
       d="m 6.999999,15 v 1 0 1 h 4 4 v 0 -2 0 h -4 z"
       sodipodi:nodetypes="ccccccccccc" />
  </g>
</svg>
