<?xml version="1.0" encoding="UTF-8" standalone="no"?>
<svg
   width="32"
   height="32"
   version="1.1"
   id="svg12"
   sodipodi:docname="printer.svg"
   inkscape:version="1.1.1 (3bf5ae0d25, 2021-09-20)"
   xmlns:inkscape="http://www.inkscape.org/namespaces/inkscape"
   xmlns:sodipodi="http://sodipodi.sourceforge.net/DTD/sodipodi-0.dtd"
   xmlns="http://www.w3.org/2000/svg"
   xmlns:svg="http://www.w3.org/2000/svg"
   xmlns:rdf="http://www.w3.org/1999/02/22-rdf-syntax-ns#"
   xmlns:cc="http://creativecommons.org/ns#"
   xmlns:dc="http://purl.org/dc/elements/1.1/">
  <g
     id="22-22-printer"
     transform="translate(32,10.000001)">
    <rect
       style="opacity:0.00100002"
       width="22"
       height="22"
       x="0"
       y="0"
       id="rect2" />
    <path
       sodipodi:nodetypes="ccccsccscccccscscscccccccccscsscccccccccccccccccscscccccsccscccccsccccccccccccccc"
       inkscape:connector-curvature="0"
       style="fill:#d6dbf1;fill-opacity:1;stroke-width:0.00198996"
       id="path4-9"
       d="m 5.1433869,3.060716 -0.083777,0.05711 v 1.999911 1.996131 h -1.31039 c -1.1770624,0 -1.3332744,0.0076 -1.5428174,0.07243 -0.285759,0.08756 -0.571319,0.297102 -0.723749,0.525748 -0.240189,0.361974 -0.232627,0.247551 -0.232627,3.760033 v 3.203839 l 0.09134,0.217105 c 0.156212,0.38466 0.419087,0.643753 0.82285,0.811506 0.156212,0.06865 0.300882,0.07622 1.535255,0.08756 l 1.3599401,0.01532 v 1.447697 c 0,1.573264 0.0038,1.607691 0.2171049,1.702811 0.064673,0.03045 1.7561411,0.04199 5.7294985,0.04199 6.129481,0 5.794173,0.01134 5.893273,-0.209543 0.03423,-0.07244 0.04577,-0.502864 0.04577,-1.542818 v -1.443717 l 1.382824,-0.01134 1.379044,-0.01135 0.251332,-0.121984 c 0.301081,-0.148452 0.53331,-0.38864 0.674199,-0.689522 l 0.102881,-0.217105 0.01134,-3.272293 C 20.758015,7.853528 20.769562,8.036406 20.506686,7.678412 20.342912,7.453745 20.083818,7.274648 19.794279,7.18311 19.592298,7.12222 19.424743,7.11446 18.255243,7.11446 H 16.944857 V 5.133457 c 0,-1.931457 -0.0038,-1.984788 -0.07622,-2.057223 -0.07621,-0.07622 -0.125766,-0.07622 -5.859045,-0.07622 -5.1691257,-3.98e-4 -5.7899937,0.0074 -5.8662097,0.06069 z M 16.335531,6.199682 V 8.790214 H 11.002432 5.6691354 V 6.199682 3.609149 H 11.002432 16.33573 V 6.199682 Z M 3.623454,10.291043 Z m 1.3408367,0.346652 c 0.060893,0.05711 0.095319,0.137108 0.095319,0.209543 0,0.07243 -0.034227,0.152431 -0.095319,0.209542 -0.057113,0.06089 -0.1371082,0.09532 -0.2095429,0.09532 -0.072435,0 -0.1524315,-0.03423 -0.2095429,-0.09532 -0.1904395,-0.186658 -0.057113,-0.514205 0.2095429,-0.514205 0.072435,-2e-4 0.1524308,0.03423 0.2095429,0.09512 z m 13.1655883,-0.04577 c 0.167555,0.129547 0.179097,0.33909 0.02667,0.48376 -0.179096,0.167555 -0.48754,0.02289 -0.48754,-0.228646 0,-0.228448 0.28934,-0.388441 0.460875,-0.255114 z m -1.279944,0.121985 c 0.06089,0.05711 0.09532,0.137109 0.09532,0.209543 0,0.07243 -0.03423,0.152431 -0.09532,0.209543 l -0.09134,0.09532 h -0.879961 -0.879961 l -0.09154,-0.09532 c -0.06089,-0.05711 -0.09532,-0.137109 -0.09532,-0.209544 0,-0.07243 0.03423,-0.152431 0.09532,-0.209543 l 0.09134,-0.09532 h 0.879962 0.879961 z m -0.514404,4.933315 V 18.38999 H 11.002432 5.6691354 V 15.647225 12.90446 h 5.3332966 5.333298 v 2.742765 z" />
    <path
       inkscape:connector-curvature="0"
       style="fill:#d6dbf1;fill-opacity:1;stroke-width:0.00198996"
       id="path6-5"
       d="m 6.8260926,13.913769 c -0.060893,0.05711 -0.095319,0.137109 -0.095319,0.209543 0,0.07243 0.034227,0.152431 0.095319,0.209543 l 0.091339,0.09532 h 1.6419177 1.6419177 l 0.09154,-0.09532 c 0.06089,-0.05711 0.09532,-0.137108 0.09532,-0.209543 0,-0.07243 -0.03423,-0.152431 -0.09532,-0.209543 l -0.09154,-0.09532 H 8.5593493 6.9174316 Z" />
    <path
       inkscape:connector-curvature="0"
       style="fill:#d6dbf1;fill-opacity:1;stroke-width:0.00198996"
       id="path8-0"
       d="m 11.397433,13.913769 c -0.06089,0.05711 -0.09532,0.137109 -0.09532,0.209543 0,0.07243 0.03423,0.152431 0.09532,0.209543 l 0.09134,0.09532 h 1.641918 1.641917 l 0.09154,-0.09532 c 0.06089,-0.05711 0.09532,-0.137108 0.09532,-0.209543 0,-0.07243 -0.03423,-0.152431 -0.09532,-0.209543 l -0.09154,-0.09532 h -1.641917 -1.641918 z" />
    <path
       inkscape:connector-curvature="0"
       style="fill:#d6dbf1;fill-opacity:1;stroke-width:0.00198996"
       id="path10-4"
       d="m 6.8260926,15.437682 c -0.060893,0.05711 -0.095319,0.137108 -0.095319,0.209543 0,0.07243 0.034227,0.152431 0.095319,0.209543 l 0.091339,0.09532 h 3.9275884 3.927588 l 0.09154,-0.09532 c 0.125765,-0.121985 0.125765,-0.297101 0,-0.419086 l -0.09154,-0.09532 H 10.845219 6.917631 Z" />
    <path
       inkscape:connector-curvature="0"
       style="fill:#d6dbf1;fill-opacity:1;stroke-width:0.00198996"
       id="path12-8"
       d="m 6.8260926,16.961396 c -0.060893,0.05711 -0.095319,0.137109 -0.095319,0.209543 0,0.07243 0.034227,0.152431 0.095319,0.209543 l 0.091339,0.09532 h 2.8380844 2.838083 l 0.102882,-0.08756 c 0.140889,-0.125766 0.140889,-0.308643 0,-0.43421 l -0.102882,-0.08756 H 9.755516 6.9176307 Z" />
    <path
       inkscape:connector-curvature="0"
       style="fill:#d6dbf1;fill-opacity:1;stroke-width:0.00198996"
       id="path14-7"
       d="m 13.683104,16.961396 c -0.06089,0.05711 -0.09532,0.137109 -0.09532,0.209543 0,0.07243 0.03423,0.152431 0.09532,0.209543 0.08756,0.09154 0.110442,0.09532 0.590422,0.09532 0.479978,0 0.502863,-0.0038 0.590421,-0.09532 0.06089,-0.05711 0.09532,-0.137109 0.09532,-0.209543 0,-0.07243 -0.03423,-0.152431 -0.09532,-0.209543 -0.08756,-0.09154 -0.110443,-0.09532 -0.590421,-0.09532 -0.47998,0 -0.502665,0.004 -0.590422,0.09532 z" />
  </g>
  <metadata
     id="metadata18">
    <rdf:RDF>
      <cc:Work
         rdf:about="">
        <dc:format>image/svg+xml</dc:format>
        <dc:type
           rdf:resource="http://purl.org/dc/dcmitype/StillImage" />
      </cc:Work>
    </rdf:RDF>
  </metadata>
  <defs
     id="defs16" />
  <sodipodi:namedview
     pagecolor="#ffffff"
     bordercolor="#000000"
     borderopacity="1"
     objecttolerance="10"
     gridtolerance="10"
     guidetolerance="10"
     inkscape:pageopacity="0"
     inkscape:pageshadow="2"
     inkscape:window-width="1920"
     inkscape:window-height="1015"
     id="namedview14"
     showgrid="false"
     inkscape:zoom="9.8125003"
     inkscape:cx="22.726114"
     inkscape:cy="11.159235"
     inkscape:window-x="0"
     inkscape:window-y="0"
     inkscape:window-maximized="1"
     inkscape:current-layer="svg12"
     inkscape:document-rotation="0"
     inkscape:lockguides="false"
     inkscape:pagecheckerboard="0"
     inkscape:showpageshadow="false">
    <inkscape:grid
       type="xygrid"
       id="grid908"
       originx="-1e-06"
       originy="-4.6325681e-08" />
  </sodipodi:namedview>
  <g
     id="printer">
    <rect
       style="opacity:0.00100002"
       width="32"
       height="32"
       x="0"
       y="4.6325681e-08"
       id="rect7"
       ry="2.173614" />
    <path
       sodipodi:nodetypes="ccccsccscccccscscscccccccccscsscccccccccccccccccscscccccsccscccccsccccccccccccccc"
       inkscape:connector-curvature="0"
       style="fill:#d6dbf1;fill-opacity:1;stroke-width:0.00298494"
       id="path4"
       d="m 7.2400745,4.0910705 -0.125666,0.085668 v 2.9998647 2.9941928 h -1.965583 c -1.7655919,0 -1.9999097,0.01134 -2.3142239,0.108652 C 2.4059642,10.410785 1.9776253,10.7251 1.7489789,11.068069 1.3886967,11.61103 1.4000394,11.439396 1.4000394,16.708113 v 4.805754 l 0.1370088,0.325657 c 0.2343178,0.576989 0.6286283,0.965628 1.2342727,1.217258 0.2343178,0.102981 0.4513229,0.114323 2.3028811,0.131338 L 7.11411,23.2111 v 2.171543 c 0,2.359894 0.00567,2.411534 0.3256569,2.554214 0.097011,0.04567 2.6342091,0.06298 8.5942391,0.06298 9.194212,0 8.69125,0.01701 8.8399,-0.314314 0.05134,-0.108652 0.06865,-0.754295 0.06865,-2.314224 v -2.165574 l 2.074234,-0.01701 2.068564,-0.01702 0.376998,-0.182976 c 0.451621,-0.222677 0.799964,-0.582959 1.011297,-1.034282 l 0.154322,-0.325657 0.01701,-4.908435 c 0.01701,-5.440054 0.03433,-5.165738 -0.359984,-5.702728 -0.24566,-0.337 -0.6343,-0.605645 -1.068608,-0.742952 -0.302972,-0.09134 -0.554304,-0.10298 -2.308553,-0.10298 H 24.942261 V 7.200184 c 0,-2.8971828 -0.0057,-2.9771792 -0.114323,-3.085831 C 24.713615,4.0000298 24.63929,4.0000298 16.039379,4.0000298 8.2856989,3.9994328 7.3543977,4.0110741 7.2400745,4.0910705 Z M 24.028273,8.7995148 V 12.68531 H 16.028633 8.0286956 V 8.7995148 4.9137199 h 7.9999374 7.999938 V 8.7995148 Z M 4.9601773,14.936551 Z m 2.0112526,0.519977 c 0.091339,0.08567 0.1429786,0.205662 0.1429786,0.314314 0,0.108652 -0.051341,0.228647 -0.1429786,0.314314 -0.085668,0.09134 -0.2056624,0.142979 -0.3143142,0.142979 -0.1086518,0 -0.2286464,-0.05134 -0.3143142,-0.142979 -0.2856588,-0.279987 -0.085668,-0.771308 0.3143142,-0.771308 0.1086518,-2.99e-4 0.2286464,0.05134 0.3143142,0.14268 z m 19.7483631,-0.06865 c 0.251332,0.19432 0.268644,0.508634 0.04,0.725639 -0.268645,0.251332 -0.73131,0.03433 -0.73131,-0.342969 0,-0.342671 0.43401,-0.582661 0.691312,-0.38267 z m -1.919914,0.182977 c 0.09134,0.08567 0.142979,0.205663 0.142979,0.314314 0,0.108652 -0.05134,0.228647 -0.142979,0.314315 l -0.137008,0.142978 H 23.34293 22.02299 L 21.885683,16.19948 c -0.09134,-0.08567 -0.142979,-0.205663 -0.142979,-0.314315 0,-0.108651 0.05134,-0.228646 0.142979,-0.314314 l 0.137008,-0.142978 h 1.319941 1.31994 z m -0.771606,7.399965 v 4.114143 H 16.028633 8.0286956 V 22.97082 18.856677 h 7.9999374 7.999938 v 4.114143 z" />
    <path
       inkscape:connector-curvature="0"
       style="fill:#d6dbf1;fill-opacity:1;stroke-width:0.00298494"
       id="path6"
       d="m 9.7641296,20.370635 c -0.091339,0.08567 -0.1429787,0.205662 -0.1429787,0.314314 0,0.108652 0.051341,0.228646 0.1429787,0.314314 l 0.1370087,0.142979 h 2.4628737 2.462874 l 0.137308,-0.142979 c 0.09134,-0.08567 0.142978,-0.205662 0.142978,-0.314314 0,-0.108652 -0.05134,-0.228646 -0.142978,-0.314314 L 14.826886,20.227656 H 12.364012 9.9011383 Z" />
    <path
       inkscape:connector-curvature="0"
       style="fill:#d6dbf1;fill-opacity:1;stroke-width:0.00298494"
       id="path8"
       d="m 16.621134,20.370635 c -0.09134,0.08567 -0.142979,0.205662 -0.142979,0.314314 0,0.108652 0.05134,0.228646 0.142979,0.314314 l 0.137008,0.142979 h 2.462874 2.462874 l 0.137308,-0.142979 c 0.09134,-0.08567 0.142978,-0.205662 0.142978,-0.314314 0,-0.108652 -0.05134,-0.228646 -0.142978,-0.314314 L 21.68389,20.227656 h -2.462874 -2.462874 z" />
    <path
       inkscape:connector-curvature="0"
       style="fill:#d6dbf1;fill-opacity:1;stroke-width:0.00298494"
       id="path10"
       d="m 9.7641296,22.656502 c -0.091339,0.08567 -0.1429787,0.205662 -0.1429787,0.314314 0,0.108652 0.051341,0.228646 0.1429787,0.314314 l 0.1370087,0.142979 h 5.8913757 5.891376 l 0.137308,-0.142979 c 0.188648,-0.182977 0.188648,-0.445651 0,-0.628628 L 21.68389,22.513523 H 15.792813 9.9014368 Z" />
    <path
       inkscape:connector-curvature="0"
       style="fill:#d6dbf1;fill-opacity:1;stroke-width:0.00298494"
       id="path12"
       d="m 9.7641296,24.94207 c -0.091339,0.08567 -0.1429787,0.205663 -0.1429787,0.314315 0,0.108651 0.051341,0.228646 0.1429787,0.314314 l 0.1370087,0.142978 h 4.2571217 4.257121 l 0.154322,-0.131337 c 0.211333,-0.188648 0.211333,-0.462964 0,-0.651314 L 18.415381,24.799689 H 14.15826 9.9014368 Z" />
    <path
       inkscape:connector-curvature="0"
       style="fill:#d6dbf1;fill-opacity:1;stroke-width:0.00298494"
       id="path14"
       d="m 20.049636,24.94207 c -0.09134,0.08567 -0.142979,0.205663 -0.142979,0.314315 0,0.108651 0.05134,0.228646 0.142979,0.314314 0.131337,0.137307 0.165664,0.142978 0.885632,0.142978 0.719967,0 0.754294,-0.0057 0.885631,-0.142978 0.09134,-0.08567 0.142979,-0.205663 0.142979,-0.314314 0,-0.108652 -0.05134,-0.228647 -0.142979,-0.314315 -0.131337,-0.137307 -0.165664,-0.142978 -0.885631,-0.142978 -0.719968,0 -0.753996,0.006 -0.885632,0.142978 z" />
  </g>
</svg>
