<?xml version="1.0" encoding="UTF-8" standalone="no"?>
<svg
   width="32"
   height="32"
   viewBox="0 0 32 32"
   version="1.1"
   id="svg867"
   inkscape:version="1.1.1 (3bf5ae0d25, 2021-09-20)"
   sodipodi:docname="redshift.svg"
   xmlns:inkscape="http://www.inkscape.org/namespaces/inkscape"
   xmlns:sodipodi="http://sodipodi.sourceforge.net/DTD/sodipodi-0.dtd"
   xmlns="http://www.w3.org/2000/svg"
   xmlns:svg="http://www.w3.org/2000/svg"
   xmlns:rdf="http://www.w3.org/1999/02/22-rdf-syntax-ns#"
   xmlns:cc="http://creativecommons.org/ns#"
   xmlns:dc="http://purl.org/dc/elements/1.1/">
  <defs
     id="defs3871">
    <style
       type="text/css"
       id="current-color-scheme" />
  </defs>
  <sodipodi:namedview
     inkscape:object-paths="true"
     guideopacity="0.62745098"
     guidecolor="#0000ff"
     inkscape:bbox-nodes="true"
     inkscape:snap-intersection-paths="true"
     inkscape:snap-bbox="true"
     id="base"
     pagecolor="#ffffff"
     bordercolor="#000000"
     borderopacity="1"
     inkscape:pageopacity="0"
     inkscape:pageshadow="2"
     inkscape:zoom="5.6"
     inkscape:cx="8.3928571"
     inkscape:cy="27.410714"
     inkscape:document-units="px"
     inkscape:current-layer="layer1"
     inkscape:document-rotation="0"
     showgrid="false"
     inkscape:window-width="1920"
     inkscape:window-height="1015"
     inkscape:window-x="0"
     inkscape:window-y="0"
     inkscape:window-maximized="1"
     units="px"
     inkscape:snap-bbox-edge-midpoints="false"
     inkscape:lockguides="false"
     inkscape:pagecheckerboard="0">
    <inkscape:grid
       opacity="0.41960784"
       color="#3f3fff"
       type="xygrid"
       id="grid1448"
       originx="0"
       originy="0" />
  </sodipodi:namedview>
  <metadata
     id="metadata864">
    <rdf:RDF>
      <cc:Work
         rdf:about="">
        <dc:format>image/svg+xml</dc:format>
        <dc:type
           rdf:resource="http://purl.org/dc/dcmitype/StillImage" />
      </cc:Work>
    </rdf:RDF>
  </metadata>
  <g
     inkscape:label="Layer 1"
     inkscape:groupmode="layer"
     id="layer1">
    <g
       id="redshift-status-on">
      <rect
         y="0"
         x="3.5527137e-15"
         height="32"
         width="32"
         id="rect910"
         style="opacity:0.003;fill:#000000;stroke-width:1" />
      <path
         d="m 19.257461,7.3297688 v 8.9658442 c 0.297691,-0.08446 0.605537,-0.144461 0.923076,-0.173538 V 7.3297688 c 0,-0.2543077 -0.207231,-0.4615384 -0.461538,-0.4615384 -0.254308,0 -0.461538,0.2072307 -0.461538,0.4615384 z"
         id="path12"
         style="fill:#ffeeaa;fill-opacity:1;stroke-width:0.461538" />
      <path
         d="m 13.719,25.03692 c -0.156923,0 -0.310154,-0.01523 -0.461538,-0.03692 v 1.883075 h 4.615383 v 0.923078 h -4.615383 v 0.461538 c 0,0.254308 0.20723,0.461539 0.461538,0.461539 h 4.615384 c 0.254308,0 0.461538,-0.207231 0.461538,-0.461539 V 25 c -0.151384,0.02169 -0.304616,0.03692 -0.461538,0.03692 z"
         id="path14"
         style="fill:#d6dbf1;fill-opacity:1;stroke-width:0.461538" />
      <path
         d="m 19.718999,5.9451536 c 0.763385,0 1.384615,0.6212306 1.384615,1.3846152 V 16.098998 H 22.02669 V 7.3297688 c 0,-1.2724614 -1.035231,-2.307692 -2.307691,-2.307692 -0.246462,0 -0.488308,0.043846 -0.72,0.1195384 0.12,0.2801538 0.199846,0.5810768 0.235846,0.8953845 0.151384,-0.05677 0.313384,-0.091846 0.484154,-0.091846 z"
         id="path16"
         style="fill:#ffeeaa;fill-opacity:1;stroke-width:0.461538" />
      <path
         d="m 14.642077,6.406692 c 0,-0.7633846 0.62123,-1.3846152 1.384614,-1.3846152 0.763385,0 1.384615,0.6212306 1.384615,1.3846152 v 10.855845 c 0.282924,-0.234 0.593539,-0.434309 0.923078,-0.603232 V 6.406692 C 18.334384,5.1342306 17.299153,4.099 16.026691,4.099 14.754231,4.099 13.719,5.1342306 13.719,6.406692 v 10.252613 c 0.329538,0.168923 0.640154,0.369232 0.923077,0.603232 z"
         id="path18"
         style="fill:#ffeeaa;fill-opacity:1;stroke-width:0.461538" />
      <path
         d="m 16.48823,21.17592 v 0.461538 H 15.565153 V 21.17592 c 0,-2.290153 -1.863692,-4.153846 -4.153846,-4.153846 H 9.129 c 0.230308,2.074155 1.993846,3.692308 4.128462,3.692308 h 1.384615 v 0.923076 h -1.384615 c -0.647539,0 -1.264616,-0.126461 -1.834616,-0.348461 0.06047,1.218923 1.062462,2.194615 2.296154,2.194615 h 1.846153 v -0.923076 h 0.923077 v 0.923076 h 1.846154 c 1.233692,0 2.235691,-0.975692 2.296153,-2.194615 -0.57,0.222 -1.187077,0.348461 -1.834615,0.348461 h -1.384616 v -0.923076 h 1.384616 c 2.134615,0 3.898153,-1.618153 4.128461,-3.692308 h -2.282308 c -2.290153,0 -4.153845,1.863693 -4.153845,4.153846 z"
         id="path20"
         style="fill:#d6dbf1;fill-opacity:1;stroke-width:0.461538" />
      <path
         d="m 11.872846,7.3297688 v 8.7927682 c 0.317539,0.02862 0.625385,0.08862 0.923076,0.173538 V 7.3297688 c 0,-0.2543077 -0.20723,-0.4615384 -0.461538,-0.4615384 -0.254308,0 -0.461538,0.2072307 -0.461538,0.4615384 z"
         id="path22"
         style="fill:#ffeeaa;fill-opacity:1;stroke-width:0.461538" />
      <path
         d="m 15.565153,6.406692 v 11.859229 c 0.177692,0.252922 0.331846,0.523384 0.461538,0.80723 0.129693,-0.283846 0.283847,-0.554308 0.461539,-0.80723 V 6.406692 c 0,-0.2543077 -0.207231,-0.4615384 -0.461539,-0.4615384 -0.254307,0 -0.461538,0.2072307 -0.461538,0.4615384 z"
         id="path24"
         style="fill:#ffeeaa;fill-opacity:1;stroke-width:0.461538" />
      <path
         d="m 10.949769,7.3297688 c 0,-0.7633846 0.621231,-1.3846152 1.384615,-1.3846152 0.17077,0 0.332769,0.035077 0.484154,0.092308 0.036,-0.3143077 0.115846,-0.6152307 0.235847,-0.8953845 -0.231693,-0.076154 -0.473539,-0.12 -0.720001,-0.12 -1.272461,0 -2.307691,1.0352306 -2.307691,2.307692 v 8.7692289 h 0.923076 z"
         id="path26"
         style="fill:#ffeeaa;fill-opacity:1;stroke-width:0.461538" />
    </g>
    <g
       id="22-22-redshift-status-on">
      <g
         id="g1042">
        <rect
           y="10"
           x="-44"
           height="22"
           width="22"
           id="rect1467-9-7-9-9-4"
           style="opacity:0.003;fill-opacity:1" />
        <path
           d="m -30.893705,15.129845 v 5.977213 c 0.198456,-0.05627 0.403692,-0.09627 0.615383,-0.115691 v -5.861522 c 0,-0.16954 -0.138151,-0.307698 -0.307691,-0.307698 -0.169539,0 -0.307692,0.138158 -0.307692,0.307698 z"
           id="path12-6"
           style="fill:#ffeeaa;fill-opacity:1;stroke-width:0.307691" />
        <path
           d="m -34.586005,27.02458 c -0.104587,0 -0.206768,-0.01044 -0.307691,-0.02458 v 1.255381 h 3.076917 v 0.615386 h -3.076917 v 0.30769 c 0,0.169542 0.138152,0.307691 0.307691,0.307691 h 3.076917 c 0.169537,0 0.307694,-0.138149 0.307694,-0.307691 V 27 c -0.100906,0.01446 -0.203077,0.02458 -0.307694,0.02458 z"
           id="path14-2"
           style="fill:#d6dbf1;fill-opacity:1;stroke-width:0.307691" />
        <path
           d="m -30.586013,14.206766 c 0.508923,0 0.923073,0.414156 0.923073,0.923079 v 5.84614 h 0.615385 v -5.84614 c 0,-0.848308 -0.69015,-1.538464 -1.538458,-1.538464 -0.164309,0 -0.325538,0.02921 -0.479998,0.07973 0.08,0.186771 0.133231,0.38738 0.157231,0.596922 0.100908,-0.03787 0.208919,-0.06122 0.322767,-0.06122 z"
           id="path16-9"
           style="fill:#ffeeaa;fill-opacity:1;stroke-width:0.307691" />
        <path
           d="m -33.970624,14.514457 c 0,-0.50892 0.414158,-0.923076 0.923075,-0.923076 0.508923,0 0.923079,0.414156 0.923079,0.923076 v 7.237218 c 0.188612,-0.156 0.395691,-0.28954 0.615382,-0.402151 v -6.835067 c 0,-0.848308 -0.690154,-1.538457 -1.538461,-1.538457 -0.848308,0 -1.538456,0.690149 -1.538456,1.538457 v 6.835067 c 0.21969,0.112611 0.426766,0.246151 0.615381,0.402151 z"
           id="path18-1"
           style="fill:#ffeeaa;fill-opacity:1;stroke-width:0.307691" />
        <path
           d="m -32.739858,24.360595 v 0.307693 h -0.615382 v -0.307693 c 0,-1.526769 -1.242457,-2.769229 -2.769223,-2.769229 H -37.646 c 0.153541,1.382766 1.329229,2.461536 2.752304,2.461536 h 0.923072 v 0.615386 h -0.923072 c -0.431691,0 -0.843075,-0.08433 -1.223075,-0.232309 0.04028,0.812613 0.708307,1.463072 1.530766,1.463072 h 1.230765 v -0.615382 h 0.615382 v 0.615382 h 1.23077 c 0.822458,0 1.490457,-0.650459 1.530765,-1.463072 -0.379999,0.148 -0.79138,0.232309 -1.223071,0.232309 h -0.923076 v -0.615386 h 0.923076 c 1.423071,0 2.598761,-1.07877 2.752299,-2.461536 h -1.521536 c -1.526762,0 -2.769227,1.24246 -2.769227,2.769229 z"
           id="path20-2"
           style="fill:#d6dbf1;fill-opacity:1;stroke-width:0.307691" />
        <path
           d="m -35.816771,15.129845 v 5.861831 c 0.211692,0.01909 0.416918,0.05909 0.615383,0.115691 v -5.977522 c 0,-0.16954 -0.138156,-0.307698 -0.307691,-0.307698 -0.169541,0 -0.307692,0.138158 -0.307692,0.307698 z"
           id="path22-7"
           style="fill:#ffeeaa;fill-opacity:1;stroke-width:0.307691" />
        <path
           d="m -33.35524,14.514457 v 7.906142 c 0.118466,0.168614 0.221233,0.348923 0.307691,0.538148 0.08646,-0.189225 0.189232,-0.369534 0.307691,-0.538148 v -7.906142 c 0,-0.169534 -0.138149,-0.307691 -0.307691,-0.307691 -0.169534,0 -0.307691,0.138157 -0.307691,0.307691 z"
           id="path24-0"
           style="fill:#ffeeaa;fill-opacity:1;stroke-width:0.307691" />
        <path
           d="m -36.432153,15.129845 c 0,-0.508923 0.414152,-0.923079 0.923074,-0.923079 0.113844,0 0.221844,0.02342 0.322766,0.06156 0.024,-0.209541 0.07719,-0.410152 0.157234,-0.596922 -0.154465,-0.05081 -0.315693,-0.08 -0.48,-0.08 -0.848305,0 -1.538462,0.690156 -1.538462,1.538463 v 5.846142 h 0.615388 z"
           id="path26-9"
           style="fill:#ffeeaa;fill-opacity:1;stroke-width:0.307691" />
      </g>
    </g>
    <g
       id="redshift-status-off">
      <g
         id="g1085">
        <rect
           style="opacity:0.003;fill:#000000;stroke-width:1"
           id="rect1033"
           width="32"
           height="32"
           x="32"
           y="0" />
        <path
           d="m 51.333077,7.3077692 v 8.9658458 c 0.297692,-0.08446 0.605538,-0.144461 0.923077,-0.173538 V 7.3077692 c 0,-0.2543077 -0.207231,-0.4615384 -0.461539,-0.4615384 -0.254307,0 -0.461538,0.2072307 -0.461538,0.4615384 z"
           id="path12-0"
           style="fill:#d6dbf1;fill-opacity:0.5;stroke-width:0.461538" />
        <path
           d="m 45.794615,25.03692 c -0.156923,0 -0.310153,-0.01523 -0.461538,-0.03692 v 1.883077 h 4.615385 v 0.923077 h -4.615385 v 0.461538 c 0,0.254308 0.207231,0.461539 0.461538,0.461539 H 50.41 c 0.254308,0 0.461538,-0.207231 0.461538,-0.461539 V 25 C 50.720154,25.02169 50.566923,25.03692 50.41,25.03692 Z"
           id="path14-6"
           style="fill:#d6dbf1;fill-opacity:1;stroke-width:0.461538" />
        <path
           d="m 51.794615,5.9231538 c 0.763385,0 1.384616,0.6212308 1.384616,1.3846154 V 16.077 h 0.923077 V 7.3077692 c 0,-1.2724615 -1.035231,-2.3076923 -2.307693,-2.3076923 -0.246461,0 -0.488307,0.043846 -0.72,0.1195385 0.12,0.2801538 0.199847,0.5810769 0.235847,0.8953846 0.151384,-0.056769 0.313384,-0.091846 0.484153,-0.091846 z"
           id="path16-2"
           style="fill:#d6dbf1;fill-opacity:0.5;stroke-width:0.461538" />
        <path
           d="m 46.717692,6.3846923 c 0,-0.7633846 0.621231,-1.3846154 1.384616,-1.3846154 0.763384,0 1.384615,0.6212308 1.384615,1.3846154 V 17.240538 c 0.282923,-0.234 0.593539,-0.434307 0.923077,-0.60323 V 6.3846923 C 50.41,5.1122308 49.374769,4.077 48.102308,4.077 c -1.272462,0 -2.307693,1.0352308 -2.307693,2.3076923 V 16.637308 c 0.329539,0.168923 0.640154,0.36923 0.923077,0.60323 z"
           id="path18-6"
           style="fill:#d6dbf1;fill-opacity:0.5011273;stroke-width:0.461538" />
        <path
           d="m 48.563846,21.153923 v 0.461538 h -0.923077 v -0.461538 c 0,-2.290154 -1.863692,-4.153846 -4.153846,-4.153846 h -2.282308 c 0.230308,2.074154 1.993847,3.692308 4.128462,3.692308 h 1.384615 v 0.923076 h -1.384615 c -0.647538,0 -1.264615,-0.126461 -1.834615,-0.348461 0.06046,1.218923 1.062461,2.194615 2.296153,2.194615 h 1.846154 v -0.923077 h 0.923077 v 0.923077 H 50.41 c 1.233692,0 2.235692,-0.975692 2.296154,-2.194615 -0.57,0.222 -1.187077,0.348461 -1.834616,0.348461 h -1.384615 v -0.923076 h 1.384615 c 2.134616,0 3.898154,-1.618154 4.128462,-3.692308 h -2.282308 c -2.290154,0 -4.153846,1.863692 -4.153846,4.153846 z"
           id="path20-1"
           style="fill:#d6dbf1;fill-opacity:1;stroke-width:0.461538" />
        <path
           d="m 43.948462,7.3077692 v 8.7927688 c 0.317538,0.02862 0.625384,0.08862 0.923076,0.173539 V 7.3077692 c 0,-0.2543077 -0.20723,-0.4615384 -0.461538,-0.4615384 -0.254308,0 -0.461538,0.2072307 -0.461538,0.4615384 z"
           id="path22-8"
           style="fill:#d6dbf1;fill-opacity:0.5;stroke-width:0.461538" />
        <path
           d="M 47.640769,6.3846923 V 18.243923 c 0.177693,0.252923 0.331846,0.523385 0.461539,0.807231 0.129692,-0.283846 0.283846,-0.554308 0.461538,-0.807231 V 6.3846923 c 0,-0.2543077 -0.207231,-0.4615385 -0.461538,-0.4615385 -0.254308,0 -0.461539,0.2072308 -0.461539,0.4615385 z"
           id="path24-3"
           style="fill:#d6dbf1;fill-opacity:0.5;stroke-width:0.461538" />
        <path
           d="m 43.025385,7.3077692 c 0,-0.7633846 0.62123,-1.3846154 1.384615,-1.3846154 0.170769,0 0.332769,0.035077 0.484154,0.092308 0.036,-0.314308 0.115846,-0.615231 0.235846,-0.8953849 -0.231692,-0.076154 -0.473538,-0.12 -0.72,-0.12 -1.272461,0 -2.307692,1.0352308 -2.307692,2.3076923 V 16.077 h 0.923077 z"
           id="path26-7"
           style="fill:#d6dbf1;fill-opacity:0.5;stroke-width:0.461538" />
      </g>
    </g>
    <g
       id="22-22-redshift-status-off">
      <g
         id="g1117">
        <rect
           style="opacity:0.003;fill-opacity:1"
           id="rect1467-9-7-9-9-4-67"
           width="22"
           height="22"
           x="-22"
           y="10" />
        <path
           d="m -8.8156919,15.138846 v 5.977231 c 0.1984615,-0.05631 0.4036923,-0.09631 0.6153846,-0.115693 v -5.861538 c 0,-0.169539 -0.1381538,-0.307692 -0.3076923,-0.307692 -0.1695385,0 -0.3076923,0.138153 -0.3076923,0.307692 z"
           id="path12-0-2"
           style="fill:#d6dbf1;fill-opacity:0.5034095;stroke-width:0.307692" />
        <path
           d="m -12.508,27.02462 c -0.104615,0 -0.206769,-0.01015 -0.307692,-0.02462 v 1.255385 h 3.0769232 v 0.615384 h -3.0769232 v 0.307693 c 0,0.169538 0.138154,0.307692 0.307692,0.307692 h 3.0769235 c 0.1695384,0 0.3076923,-0.138154 0.3076923,-0.307692 V 27 c -0.1009231,0.01446 -0.2030769,0.02462 -0.3076923,0.02462 z"
           id="path14-6-0"
           style="fill:#d6dbf1;fill-opacity:1;stroke-width:0.307692" />
        <path
           d="m -8.5079996,14.215769 c 0.5089231,0 0.9230769,0.414154 0.9230769,0.923077 V 20.985 h 0.6153847 v -5.846154 c 0,-0.848308 -0.6901539,-1.538462 -1.5384616,-1.538462 -0.1643077,0 -0.3255385,0.02923 -0.48,0.07969 0.08,0.186769 0.1332308,0.387384 0.1572308,0.596923 0.100923,-0.03785 0.208923,-0.06123 0.3227692,-0.06123 z"
           id="path16-2-2"
           style="fill:#d6dbf1;fill-opacity:0.49801117;stroke-width:0.307692" />
        <path
           d="m -11.892615,14.523461 c 0,-0.508923 0.414154,-0.923077 0.923077,-0.923077 0.508923,0 0.923077,0.414154 0.923077,0.923077 v 7.237231 c 0.1886152,-0.156 0.3956922,-0.289538 0.6153845,-0.402154 v -6.835077 c 0,-0.848307 -0.6901535,-1.538461 -1.5384615,-1.538461 -0.848308,0 -1.538462,0.690154 -1.538462,1.538461 v 6.835077 c 0.219693,0.112616 0.42677,0.246154 0.615385,0.402154 z"
           id="path18-6-3"
           style="fill:#d6dbf1;fill-opacity:0.50118965;stroke-width:0.307692" />
        <path
           d="m -10.661846,24.369615 v 0.307693 h -0.615384 v -0.307693 c 0,-1.526769 -1.242462,-2.769231 -2.769231,-2.769231 H -15.568 c 0.153539,1.38277 1.329231,2.461539 2.752308,2.461539 h 0.923077 v 0.615385 h -0.923077 c -0.431692,0 -0.843077,-0.08431 -1.223077,-0.232308 0.04031,0.812615 0.708308,1.463077 1.530769,1.463077 h 1.23077 v -0.615385 h 0.615384 v 0.615385 h 1.2307695 c 0.8224615,0 1.4904615,-0.650462 1.5307692,-1.463077 -0.38,0.148 -0.7913846,0.232308 -1.2230769,0.232308 h -0.9230768 v -0.615385 h 0.9230768 c 1.4230769,0 2.5987692,-1.078769 2.7523077,-2.461539 H -7.892615 c -1.5267692,0 -2.769231,1.242462 -2.769231,2.769231 z"
           id="path20-1-7"
           style="fill:#d6dbf1;fill-opacity:1;stroke-width:0.307692" />
        <path
           d="m -13.738769,15.138846 v 5.861846 c 0.211692,0.01908 0.416923,0.05908 0.615385,0.115692 v -5.977538 c 0,-0.169539 -0.138154,-0.307692 -0.307693,-0.307692 -0.169538,0 -0.307692,0.138153 -0.307692,0.307692 z"
           id="path22-8-5"
           style="fill:#d6dbf1;fill-opacity:0.49713472;stroke-width:0.307692" />
        <path
           d="m -11.27723,14.523461 v 7.906154 c 0.118461,0.168616 0.22123,0.348923 0.307692,0.538154 0.08646,-0.189231 0.189231,-0.369538 0.307692,-0.538154 v -7.906154 c 0,-0.169538 -0.138154,-0.307692 -0.307692,-0.307692 -0.169539,0 -0.307692,0.138154 -0.307692,0.307692 z"
           id="path24-3-9"
           style="fill:#d6dbf1;fill-opacity:0.49915195;stroke-width:0.307692" />
        <path
           d="m -14.354153,15.138846 c 0,-0.508923 0.414153,-0.923077 0.923076,-0.923077 0.113847,0 0.221847,0.02338 0.32277,0.06154 0.024,-0.209538 0.07723,-0.410153 0.15723,-0.596923 -0.154461,-0.05077 -0.315692,-0.08 -0.48,-0.08 -0.848307,0 -1.538461,0.690154 -1.538461,1.538462 V 20.985 h 0.615385 z"
           id="path26-7-2"
           style="fill:#d6dbf1;fill-opacity:0.49754307;stroke-width:0.307692" />
      </g>
    </g>
  </g>
</svg>
