<?xml version="1.0" encoding="UTF-8" standalone="no"?>
<svg
   width="32"
   height="32"
   version="1.1"
   id="svg22"
   sodipodi:docname="touchpad.svg"
   inkscape:version="1.1.1 (3bf5ae0d25, 2021-09-20)"
   xmlns:inkscape="http://www.inkscape.org/namespaces/inkscape"
   xmlns:sodipodi="http://sodipodi.sourceforge.net/DTD/sodipodi-0.dtd"
   xmlns:xlink="http://www.w3.org/1999/xlink"
   xmlns="http://www.w3.org/2000/svg"
   xmlns:svg="http://www.w3.org/2000/svg"
   xmlns:rdf="http://www.w3.org/1999/02/22-rdf-syntax-ns#"
   xmlns:cc="http://creativecommons.org/ns#"
   xmlns:dc="http://purl.org/dc/elements/1.1/">
  <g
     id="22-22-touchpad_disabled"
     transform="translate(32,-22.000015)">
    <rect
       style="opacity:0.00100002"
       width="22"
       height="22"
       x="0"
       y="-2.5878907e-07"
       id="rect7" />
    <path
       d="M 5.147494,3.0354095 C 4.861306,3.1117895 4.600415,3.3375355 4.46685,3.6237235 L 4.4,3.7701065 v 7.2833625 7.283201 l 0.07001,0.149501 c 0.09542,0.20996 0.305242,0.423041 0.515202,0.524736 l 0.178091,0.08904 h 5.868028 5.868025 l 0.178081,-0.08904 c 0.209957,-0.10186 0.419751,-0.31494 0.515202,-0.524736 l 0.07001,-0.149501 V 11.053469 3.7702725 l -0.08901,-0.178091 c -0.101848,-0.20996 -0.314933,-0.419756 -0.524731,-0.515205 l -0.149503,-0.07002 -5.804282,-0.0062 c -4.519553,-0.0032 -5.836322,0.0029 -5.947549,0.03485 z m 11.513278,6.555081 V 15.204033 H 11.031296 5.401814 V 9.5904905 3.9769445 h 5.629482 5.629476 z M 9.886374,16.70825 c 0.07637,0.03812 0.07948,0.05717 0.08901,0.340239 0.0062,0.165438 0,0.333997 -0.0098,0.372112 -0.04142,0.165438 -0.07637,0.168559 -1.787446,0.168559 -1.526567,0 -1.587019,-0.0031 -1.688883,-0.06358 -0.130443,-0.07952 -0.165439,-0.171844 -0.165439,-0.438812 0,-0.232139 0.04766,-0.340404 0.171684,-0.388047 0.03499,-0.01594 0.798274,-0.02858 1.688874,-0.02858 1.246782,-0.0033 1.641234,0.0063 1.701698,0.03812 z m 5.778816,0.03187 c 0.07001,0.06999 0.09856,0.473971 0.04142,0.639244 -0.07002,0.213082 -0.03814,0.209959 -1.796978,0.209959 -1.940073,0 -1.828685,0.03187 -1.828685,-0.502556 0,-0.289474 0.02219,-0.346647 0.159032,-0.397576 0.02548,-0.0095 0.795149,-0.01594 1.707932,-0.01281 1.542333,0.0064 1.66637,0.0095 1.717296,0.06374 z"
       id="path4-3-367-6-3"
       inkscape:connector-curvature="0"
       style="opacity:0.5;fill:#d6dbf1;fill-opacity:1;stroke-width:0.00164289" />
    <rect
       style="opacity:0.5;fill:#7b96b7;fill-opacity:1;stroke-width:0.657421;stroke-opacity:0.550265"
       height="9.391736"
       rx="4.6958685"
       y="5.0169859"
       x="6.484283"
       width="9.391736"
       id="rect16-5-2-6" />
    <path
       style="opacity:0.5;fill:#d6dbf1;fill-opacity:1;fill-rule:nonzero;stroke:none;stroke-width:9.987;stroke-miterlimit:4;stroke-dasharray:none;stroke-opacity:1"
       d="m 11.196033,6.5827785 c -0.631584,-0.0026 -1.173108,0.114334 -1.665566,0.360901 -0.163942,0.08207 -0.189458,0.110869 -0.178843,0.199485 0.02175,0.180851 0.115053,0.198408 0.391626,0.07426 0.514165,-0.230739 0.764335,-0.279948 1.412886,-0.280651 0.744331,-6.03e-4 1.018445,0.06314 1.628883,0.379247 0.104879,0.05427 0.436914,0.310541 0.560848,0.172885 0.122735,-0.12273 0.05785,-0.224314 -0.258186,-0.404008 -0.62333,-0.354388 -1.167953,-0.498721 -1.891648,-0.502149 z m -0.01926,0.730979 c -0.833338,-6.37e-4 -1.666145,0.328607 -2.276853,0.988241 -0.236252,0.255178 -0.511781,0.673423 -0.511781,0.776833 0,0.120578 0.04972,0.187103 0.139873,0.187103 0.07066,0 0.142563,-0.0762 0.313662,-0.33339 0.382681,-0.575115 0.878772,-0.956653 1.517912,-1.167548 0.495673,-0.16178 1.076116,-0.143052 1.633915,0 0.720232,0.236735 1.3381,0.764125 1.676578,1.431232 0.07366,0.145156 0.11771,0.189396 0.189851,0.189396 0.124245,0 0.197195,-0.09245 0.163253,-0.207276 -0.05468,-0.185199 -0.346674,-0.633929 -0.567721,-0.872686 -0.611554,-0.660559 -1.445357,-0.991279 -2.278689,-0.991905 z m 0.03943,0.725928 c -0.177614,-0.0029 -0.35783,0.01369 -0.537915,0.05136 -0.855731,0.178876 -1.57097,0.871905 -1.799925,1.743983 -0.121508,0.4627895 -0.06567,1.2187035 0.134819,1.8233205 0.05992,0.180686 0.08882,0.21837 0.174719,0.228372 0.197458,0.02294 0.216748,-0.07101 0.09858,-0.479675 -0.338094,-1.169306 -0.04704,-2.1641175 0.791513,-2.7065455 0.829034,-0.536294 1.969226,-0.377576 2.618039,0.364112 0.406575,0.464781 0.62958,1.2509435 0.452154,1.5940305 -0.117201,0.22665 -0.402561,0.362866 -0.636967,0.304041 -0.171294,-0.04301 -0.37435,-0.253503 -0.40034,-0.41502 -0.09172,-0.5699565 -0.221199,-0.7930025 -0.54892,-0.9455915 -0.279563,-0.130168 -0.512581,-0.126576 -0.786927,0.01241 -0.255624,0.129483 -0.451475,0.3908175 -0.491138,0.6553165 -0.0143,0.0953 -0.008,0.301579 0.01425,0.458123 0.138292,0.975117 0.835961,1.746519 1.79397,1.983821 0.120485,0.02984 0.317468,0.05094 0.437946,0.04678 l 0.219203,-0.007 c 0.123815,-0.06285 0.130594,-0.207509 0,-0.278818 l -0.310007,-0.0472 c -0.390179,-0.05945 -0.551752,-0.110862 -0.819944,-0.261842 -0.583222,-0.328329 -1.001081,-1.040076 -1.001081,-1.705003 0,-0.293025 0.110939,-0.4641965 0.369619,-0.5713935 0.186899,-0.07744 0.189583,-0.07744 0.376488,0 0.236548,0.09805 0.350401,0.2620915 0.379704,0.5461715 0.05375,0.521351 0.415604,0.864424 0.91166,0.864424 0.398112,0 0.733214,-0.258347 0.852045,-0.656687 0.116309,-0.389843 -0.03985,-1.0446205 -0.367781,-1.5426655 -0.434626,-0.660046 -1.154073,-1.045039 -1.923748,-1.058411 z m -0.02565,0.755288 c -0.247887,0.003 -0.502798,0.04886 -0.711718,0.130236 -0.322126,0.15776 -0.629075,0.472826 -0.787843,0.808019 -0.120816,0.255047 -0.128013,0.2947665 -0.127947,0.7277695 9.5e-5,0.532721 0.06457,0.815711 0.29395,1.294113 0.197669,0.412222 0.471522,0.771745 0.775922,1.018051 0.26385,0.213492 0.291882,0.223855 0.401715,0.143535 0.112451,-0.08222 0.04972,-0.223409 -0.177466,-0.397589 -0.246346,-0.18886 -0.512409,-0.530476 -0.692,-0.88873 -0.29498,-0.588445 -0.369301,-1.315706 -0.177015,-1.7320615 0.139559,-0.302169 0.352354,-0.527574 0.62367,-0.660814 0.325981,-0.160085 0.802132,-0.160085 1.128114,0 0.389075,0.191064 0.637846,0.538971 0.725937,1.0162175 0.05258,0.284874 0.132159,0.379562 0.253591,0.301287 0.05621,-0.03627 0.06852,-0.09671 0.06326,-0.313672 -0.01271,-0.5274015 -0.382239,-1.0569295 -0.922211,-1.3220885 -0.181261,-0.08821 -0.422095,-0.12741 -0.669983,-0.124273 z"
       id="path20-3-9-0" />
    <path
       style="opacity:0.5;fill:#d6dbf1;fill-opacity:1;fill-rule:nonzero;stroke:none;stroke-width:9.987;stroke-miterlimit:4;stroke-dasharray:none;stroke-opacity:1"
       d="m 12.291163,11.999555 c -0.680577,-0.148462 -1.205147,-0.748088 -1.264041,-1.444897 -0.01864,-0.220233 -0.01214,-0.249338 0.0641,-0.290153 0.14526,-0.07774 0.229217,0.0036 0.258269,0.251072 0.07303,0.621593 0.529858,1.090398 1.144372,1.174435 0.300658,0.04113 0.397353,0.156552 0.252488,0.301416 -0.07256,0.07254 -0.153311,0.07397 -0.455174,0.0076 z"
       id="path22-5-1-6" />
  </g>
  <g
     id="touchpad_enabled">
    <rect
       style="opacity:0.00100002"
       width="32"
       height="32"
       x="0"
       y="0"
       id="rect12" />
    <path
       d="M 7.1142905,4.0530687 C 6.6876765,4.1669467 6.2987768,4.5034379 6.099674,4.930052 L 6,5.148257 v 10.857107 10.856862 l 0.1043269,0.222858 c 0.1422864,0.312981 0.4550224,0.630615 0.7680033,0.782208 l 0.2654705,0.132735 h 8.7473023 8.747302 l 0.265471,-0.132735 c 0.312981,-0.151838 0.625717,-0.469472 0.768003,-0.782208 l 0.104327,-0.222858 V 16.005364 5.1485019 L 25.637471,4.8830314 C 25.485634,4.5700505 25.168,4.2573144 24.855264,4.1150281 l -0.222859,-0.1043269 -8.652281,-0.00955 c -6.7371714,-0.0049 -8.7000369,0.00465 -8.8658335,0.051919 z M 24.276812,13.824538 v 8.367954 H 15.885103 7.4933942 V 13.824538 5.4565849 h 8.3917088 8.391709 z m -10.09841,10.610249 c 0.113878,0.05682 0.118531,0.08523 0.132735,0.507186 0.0096,0.246614 0,0.49788 -0.0142,0.554697 -0.06171,0.246613 -0.113878,0.251266 -2.664501,0.251266 -2.2756013,0 -2.3657242,-0.0047 -2.5175616,-0.09478 -0.1944498,-0.118531 -0.2466132,-0.256164 -0.2466132,-0.654125 0,-0.346043 0.071021,-0.507431 0.2559194,-0.578452 0.052164,-0.02376 1.1899644,-0.04261 2.5175614,-0.04261 1.858539,-0.0049 2.446541,0.0093 2.536664,0.05682 z m 8.614322,0.04751 c 0.104327,0.104327 0.14694,0.706533 0.06172,0.952902 -0.104327,0.317634 -0.05682,0.312981 -2.678706,0.312981 -2.892012,0 -2.72597,0.04751 -2.72597,-0.749146 0,-0.431512 0.03306,-0.516737 0.237062,-0.592656 0.03796,-0.0142 1.185311,-0.02376 2.54597,-0.0191 2.299112,0.0096 2.484011,0.0142 2.559929,0.09502 z"
       id="path4-3"
       inkscape:connector-curvature="0"
       style="fill:#d6dbf1;fill-opacity:1;stroke-width:0.00244899" />
    <rect
       style="opacity:1;fill:#7b96b7;fill-opacity:1;stroke-width:0.980001;stroke-opacity:0.550265"
       height="14"
       rx="7"
       y="6.7278376"
       x="8.974"
       width="14"
       id="rect16" />
    <path
       style="fill:#d6dbf1;fill-opacity:1;fill-rule:nonzero;stroke:none;stroke-width:14.8874;stroke-miterlimit:4;stroke-dasharray:none;stroke-opacity:1"
       d="m 15.797698,8.9624948 c -0.941492,-0.00433 -1.748728,0.1704387 -2.482813,0.5379886 -0.244379,0.1223524 -0.282422,0.1652697 -0.266602,0.2973634 0.03234,0.2695942 0.171513,0.2957662 0.583786,0.1107421 0.766452,-0.3439592 1.13938,-0.41731 2.106153,-0.41836 1.109555,-9.005e-4 1.518164,0.094131 2.428128,0.5653331 0.156345,0.08085 0.651298,0.462916 0.836039,0.257715 0.182963,-0.182952 0.08629,-0.3343777 -0.384866,-0.6022468 -0.92918,-0.5282725 -1.74104,-0.7434254 -2.819825,-0.7485354 z m -0.02874,1.0896492 c -1.242229,-9.46e-4 -2.483683,0.489849 -3.394041,1.473145 -0.352174,0.38039 -0.762894,1.003858 -0.762894,1.158007 0,0.17974 0.07409,0.278907 0.208497,0.278907 0.105335,0 0.21252,-0.113642 0.467579,-0.496973 0.570439,-0.857311 1.309957,-1.426056 2.262698,-1.74043 0.738886,-0.241164 1.604139,-0.213244 2.435642,0 1.073618,0.352895 1.994666,1.139059 2.499223,2.133496 0.109786,0.216382 0.175462,0.282326 0.283006,0.282326 0.185208,0 0.293951,-0.137828 0.243358,-0.308985 -0.08154,-0.276066 -0.516781,-0.944974 -0.846287,-1.30088 -0.91163,-0.984681 -2.154553,-1.477674 -3.396781,-1.478613 z m 0.05879,1.082129 c -0.264765,-0.0046 -0.533409,0.02045 -0.801852,0.07656 -1.275616,0.266645 -2.34181,1.299727 -2.683107,2.599709 -0.181123,0.68986 -0.09786,1.816684 0.200973,2.717969 0.08933,0.269347 0.132432,0.32552 0.260451,0.34043 0.29434,0.03421 0.323102,-0.105882 0.146972,-0.715039 -0.503983,-1.743049 -0.07012,-3.225988 1.179888,-4.034572 1.235821,-0.799432 2.935472,-0.562842 3.902639,0.542774 0.606068,0.692832 0.938494,1.864746 0.674018,2.376173 -0.174709,0.337862 -0.60009,0.540919 -0.949511,0.453223 -0.255348,-0.06409 -0.558034,-0.377891 -0.596778,-0.618653 -0.136736,-0.849619 -0.329734,-1.182113 -0.818262,-1.409571 -0.416732,-0.194037 -0.764085,-0.18868 -1.173046,0.01846 -0.381053,0.193011 -0.673005,0.582571 -0.732131,0.976856 -0.02133,0.142083 -0.01194,0.449555 0.02121,0.682911 0.206155,1.453581 1.246139,2.603489 2.674217,2.957227 0.179601,0.04446 0.473238,0.07589 0.652836,0.06973 l 0.326757,-0.01094 c 0.184573,-0.09369 0.194676,-0.309327 0,-0.415625 l -0.462108,-0.07041 c -0.581624,-0.08863 -0.822476,-0.165268 -1.222264,-0.390332 -0.869399,-0.48943 -1.492283,-1.550409 -1.492283,-2.541602 0,-0.436808 0.165379,-0.691959 0.550974,-0.851759 0.278615,-0.115472 0.282611,-0.115472 0.561228,0 0.352609,0.146132 0.522335,0.390692 0.566015,0.814161 0.08018,0.777168 0.619526,1.288575 1.358986,1.288575 0.593452,0 1.092979,-0.385111 1.270122,-0.978907 0.173374,-0.581127 -0.0594,-1.55719 -0.548243,-2.299611 -0.647893,-0.983912 -1.720345,-1.557803 -2.86768,-1.577735 z m -0.03829,1.12588 c -0.369519,0.0047 -0.749515,0.07286 -1.060941,0.19414 -0.48018,0.235172 -0.937741,0.704829 -1.174412,1.204493 -0.180096,0.380191 -0.190833,0.439401 -0.190725,1.084864 1.32e-4,0.794112 0.09624,1.215966 0.438182,1.929102 0.294656,0.614485 0.702881,1.150419 1.156644,1.517579 0.393311,0.318248 0.435097,0.333694 0.598826,0.213966 0.167626,-0.122561 0.07411,-0.33303 -0.264549,-0.592677 -0.367216,-0.281526 -0.763838,-0.790764 -1.031541,-1.324805 -0.439723,-0.877174 -0.550507,-1.961287 -0.26387,-2.581935 0.208032,-0.450443 0.525244,-0.786445 0.929688,-0.985059 0.485925,-0.23863 1.195715,-0.23863 1.681642,0 0.579988,0.284816 0.950827,0.803427 1.082132,1.514844 0.07836,0.424655 0.19701,0.565808 0.378025,0.449122 0.08386,-0.05407 0.102139,-0.144164 0.09434,-0.467579 -0.01894,-0.786184 -0.569793,-1.575532 -1.374712,-1.970802 -0.2702,-0.131474 -0.62921,-0.189927 -0.998727,-0.185253 z"
       id="path20" />
    <path
       style="fill:#d6dbf1;fill-opacity:1;fill-rule:nonzero;stroke:none;stroke-width:14.8874;stroke-miterlimit:4;stroke-dasharray:none;stroke-opacity:1"
       d="m 17.430173,17.037136 c -1.014518,-0.221306 -1.79648,-1.11515 -1.884271,-2.15387 -0.02776,-0.32829 -0.01811,-0.371676 0.09552,-0.432524 0.21654,-0.115888 0.341692,0.0058 0.385,0.374267 0.10891,0.926593 0.78984,1.625428 1.705887,1.750704 0.44818,0.0613 0.592317,0.233366 0.376376,0.449309 -0.108123,0.108118 -0.228544,0.110271 -0.678519,0.01215 z"
       id="path22" />
  </g>
  <metadata
     id="metadata28">
    <rdf:RDF>
      <cc:Work
         rdf:about="">
        <dc:format>image/svg+xml</dc:format>
        <dc:type
           rdf:resource="http://purl.org/dc/dcmitype/StillImage" />
      </cc:Work>
    </rdf:RDF>
  </metadata>
  <defs
     id="defs26">
    <linearGradient
       gradientTransform="matrix(0.35000018,0,0,0.35000018,-127.12577,-169.60226)"
       xlink:href="#linearGradient4177"
       id="linearGradient4205"
       x1="388.73499"
       y1="503.991"
       x2="428.40799"
       y2="543.93201"
       gradientUnits="userSpaceOnUse" />
    <linearGradient
       id="linearGradient4177">
      <stop
         offset="0"
         style="stop-color:#3f3f3f;stop-opacity:1;"
         id="stop3" />
      <stop
         style="stop-color:#de7d9c;stop-opacity:1"
         offset=".11"
         id="stop5" />
      <stop
         offset=".449"
         style="stop-color:#cc3d8a;stop-opacity:1"
         id="stop7" />
      <stop
         style="stop-color:#5f2b76;stop-opacity:1"
         offset=".934"
         id="stop9" />
      <stop
         offset="1"
         style="stop-color:#3f3f3f;stop-opacity:0;"
         id="stop11" />
    </linearGradient>
  </defs>
  <sodipodi:namedview
     pagecolor="#ffffff"
     bordercolor="#000000"
     borderopacity="1"
     objecttolerance="10"
     gridtolerance="10"
     guidetolerance="10"
     inkscape:pageopacity="0"
     inkscape:pageshadow="2"
     inkscape:window-width="1920"
     inkscape:window-height="1013"
     id="namedview24"
     showgrid="false"
     inkscape:zoom="6.9384853"
     inkscape:cx="38.192774"
     inkscape:cy="2.3780406"
     inkscape:window-x="0"
     inkscape:window-y="0"
     inkscape:window-maximized="1"
     inkscape:current-layer="svg22"
     inkscape:document-rotation="0"
     inkscape:lockguides="false"
     inkscape:showpageshadow="false"
     inkscape:pagecheckerboard="0">
    <inkscape:grid
       type="xygrid"
       id="grid917"
       originx="0"
       originy="0" />
  </sodipodi:namedview>
  <g
     id="touchpad_disabled"
     transform="translate(0,-22.000015)">
    <rect
       style="opacity:0.00100002"
       width="32"
       height="32"
       x="32"
       y="22.000015"
       id="rect17" />
    <path
       d="m 39.214286,26.053136 c -0.426614,0.113878 -0.815513,0.450369 -1.014616,0.876984 L 38.1,27.148325 v 10.857107 10.856862 l 0.104327,0.222858 c 0.142286,0.312981 0.455022,0.630615 0.768003,0.782208 l 0.26547,0.132735 h 8.747303 8.747302 l 0.265471,-0.132735 c 0.312981,-0.151838 0.625717,-0.469472 0.768003,-0.782208 l 0.104327,-0.222858 V 38.005432 27.148569 l -0.132735,-0.26547 C 57.585634,26.570118 57.268,26.257382 56.955264,26.115096 l -0.222859,-0.104327 -8.652281,-0.0096 c -6.737172,-0.0049 -8.700037,0.0046 -8.865834,0.05192 z m 17.162522,9.77147 V 44.19256 H 47.985099 39.59339 v -8.367954 -8.367954 h 8.391709 8.391709 z m -10.09841,10.610249 c 0.113878,0.05682 0.118531,0.08523 0.132735,0.507186 0.0096,0.246614 0,0.49788 -0.0142,0.554697 -0.06171,0.246613 -0.113878,0.251266 -2.664501,0.251266 -2.275602,0 -2.365724,-0.0047 -2.517562,-0.09478 -0.19445,-0.118531 -0.246613,-0.256164 -0.246613,-0.654125 0,-0.346043 0.07102,-0.507431 0.255919,-0.578452 0.05216,-0.02376 1.189965,-0.04261 2.517562,-0.04261 1.858539,-0.0049 2.446541,0.0093 2.536664,0.05682 z m 8.614322,0.04751 c 0.104327,0.104327 0.14694,0.706533 0.06172,0.952902 -0.104327,0.317634 -0.05682,0.312981 -2.678706,0.312981 -2.892012,0 -2.72597,0.04751 -2.72597,-0.749146 0,-0.431512 0.03306,-0.516737 0.237062,-0.592656 0.03796,-0.0142 1.185311,-0.02376 2.54597,-0.0191 2.299112,0.0096 2.484011,0.0142 2.559929,0.09502 z"
       id="path4-3-367"
       inkscape:connector-curvature="0"
       style="opacity:0.5;fill:#d6dbf1;fill-opacity:1;stroke-width:0.00244899" />
    <rect
       style="opacity:0.5;fill:#7b96b7;fill-opacity:1;stroke-width:0.980001;stroke-opacity:0.550265"
       height="14"
       rx="7"
       y="29.007015"
       x="41.207001"
       width="14"
       id="rect16-5" />
    <path
       style="opacity:0.5;fill:#d6dbf1;fill-opacity:1;fill-rule:nonzero;stroke:none;stroke-width:14.8874;stroke-miterlimit:4;stroke-dasharray:none;stroke-opacity:1"
       d="m 48.230675,31.341093 c -0.941492,-0.0043 -1.748728,0.170439 -2.482813,0.537988 -0.244379,0.122353 -0.282422,0.16527 -0.266602,0.297364 0.03234,0.269594 0.171513,0.295766 0.583786,0.110742 0.766452,-0.343959 1.13938,-0.41731 2.106153,-0.41836 1.109555,-9.01e-4 1.518164,0.09413 2.428128,0.565333 0.156345,0.08085 0.651298,0.462916 0.836039,0.257715 0.182963,-0.182952 0.08629,-0.334378 -0.384866,-0.602247 -0.92918,-0.528272 -1.74104,-0.743425 -2.819825,-0.748535 z m -0.02874,1.089649 c -1.242229,-9.46e-4 -2.483683,0.489849 -3.394041,1.473145 -0.352174,0.38039 -0.762894,1.003858 -0.762894,1.158007 0,0.17974 0.07409,0.278907 0.208497,0.278907 0.105335,0 0.21252,-0.113642 0.467579,-0.496973 0.570439,-0.857311 1.309957,-1.426056 2.262698,-1.74043 0.738886,-0.241164 1.604139,-0.213244 2.435642,0 1.073618,0.352895 1.994666,1.139059 2.499223,2.133496 0.109786,0.216382 0.175462,0.282326 0.283006,0.282326 0.185208,0 0.293951,-0.137828 0.243358,-0.308985 -0.08154,-0.276066 -0.516781,-0.944974 -0.846287,-1.30088 -0.91163,-0.984681 -2.154553,-1.477674 -3.396781,-1.478613 z m 0.05879,1.082129 c -0.264765,-0.0046 -0.533409,0.02045 -0.801852,0.07656 -1.275616,0.266645 -2.34181,1.299727 -2.683107,2.599709 -0.181123,0.68986 -0.09786,1.816684 0.200973,2.717969 0.08933,0.269347 0.132432,0.32552 0.260451,0.34043 0.29434,0.03421 0.323102,-0.105882 0.146972,-0.715039 -0.503983,-1.743049 -0.07012,-3.225988 1.179888,-4.034572 1.235821,-0.799432 2.935472,-0.562842 3.902639,0.542774 0.606068,0.692832 0.938494,1.864746 0.674018,2.376173 -0.174709,0.337862 -0.60009,0.540919 -0.949511,0.453223 -0.255348,-0.06409 -0.558034,-0.377891 -0.596778,-0.618653 -0.136736,-0.849619 -0.329734,-1.182113 -0.818262,-1.409571 -0.416732,-0.194037 -0.764085,-0.18868 -1.173046,0.01846 -0.381053,0.193011 -0.673005,0.582571 -0.732131,0.976856 -0.02133,0.142083 -0.01194,0.449555 0.02121,0.682911 0.206155,1.453581 1.246139,2.603489 2.674217,2.957227 0.179601,0.04446 0.473238,0.07589 0.652836,0.06973 l 0.326757,-0.01094 c 0.184573,-0.09369 0.194676,-0.309327 0,-0.415625 l -0.462108,-0.07041 c -0.581624,-0.08863 -0.822476,-0.165268 -1.222264,-0.390332 -0.869399,-0.48943 -1.492283,-1.550409 -1.492283,-2.541602 0,-0.436808 0.165379,-0.691959 0.550974,-0.851759 0.278615,-0.115472 0.282611,-0.115472 0.561228,0 0.352609,0.146132 0.522335,0.390692 0.566015,0.814161 0.08018,0.777168 0.619526,1.288575 1.358986,1.288575 0.593452,0 1.092979,-0.385111 1.270122,-0.978907 0.173374,-0.581127 -0.0594,-1.55719 -0.548243,-2.299611 -0.647893,-0.983912 -1.720345,-1.557803 -2.86768,-1.577735 z m -0.03829,1.12588 c -0.369519,0.0047 -0.749515,0.07286 -1.060941,0.19414 -0.48018,0.235172 -0.937741,0.704829 -1.174412,1.204493 -0.180096,0.380191 -0.190833,0.439401 -0.190725,1.084864 1.32e-4,0.794112 0.09624,1.215966 0.438182,1.929102 0.294656,0.614485 0.702881,1.150419 1.156644,1.517579 0.393311,0.318248 0.435097,0.333694 0.598826,0.213966 0.167626,-0.122561 0.07411,-0.33303 -0.264549,-0.592677 -0.367216,-0.281526 -0.763838,-0.790764 -1.031541,-1.324805 -0.439723,-0.877174 -0.550507,-1.961287 -0.26387,-2.581935 0.208032,-0.450443 0.525244,-0.786445 0.929688,-0.985059 0.485925,-0.23863 1.195715,-0.23863 1.681642,0 0.579988,0.284816 0.950827,0.803427 1.082132,1.514844 0.07836,0.424655 0.19701,0.565808 0.378025,0.449122 0.08386,-0.05407 0.102139,-0.144164 0.09434,-0.467579 -0.01894,-0.786184 -0.569793,-1.575532 -1.374712,-1.970802 -0.2702,-0.131474 -0.62921,-0.189927 -0.998727,-0.185253 z"
       id="path20-3" />
    <path
       style="opacity:0.5;fill:#d6dbf1;fill-opacity:1;fill-rule:nonzero;stroke:none;stroke-width:14.8874;stroke-miterlimit:4;stroke-dasharray:none;stroke-opacity:1"
       d="m 49.86315,39.415734 c -1.014518,-0.221306 -1.79648,-1.11515 -1.884271,-2.15387 -0.02776,-0.32829 -0.01811,-0.371676 0.09552,-0.432524 0.21654,-0.115888 0.341692,0.0058 0.385,0.374267 0.10891,0.926593 0.78984,1.625428 1.705887,1.750704 0.44818,0.0613 0.592317,0.233366 0.376376,0.449309 -0.108123,0.108118 -0.228544,0.110271 -0.678519,0.01215 z"
       id="path22-5" />
  </g>
  <g
     id="22-22-touchpad_enabled"
     transform="translate(0,-22.000015)">
    <rect
       style="opacity:0.00100002"
       width="22"
       height="22"
       x="0"
       y="0"
       id="rect2" />
    <path
       d="m 5.1428,3.0356997 c -0.284398,0.07591 -0.543666,0.300237 -0.67639,0.58464 L 4.4,3.7658027 v 7.2379023 7.237743 l 0.06956,0.148565 c 0.09483,0.208652 0.303337,0.420404 0.511991,0.521461 l 0.176976,0.08847 h 5.831404 5.831397 l 0.176974,-0.08847 c 0.208647,-0.101216 0.417133,-0.312973 0.511993,-0.521461 l 0.06956,-0.148565 V 11.003705 3.7659657 l -0.08847,-0.176973 c -0.101216,-0.20865 -0.312971,-0.417134 -0.521457,-0.511993 l -0.14857,-0.06954 -5.76805,-0.0066 c -4.491343,-0.0036 -5.799893,0.0034 -5.910429,0.03459 z m 11.441415,6.514157 V 15.128367 H 10.989875 5.395539 V 9.5498567 3.9713517 h 5.594336 5.59434 z M 9.852103,16.623194 c 0.07592,0.03788 0.07901,0.05678 0.08847,0.338116 0.0066,0.164401 0,0.331909 -0.0096,0.369787 -0.04116,0.16441 -0.07592,0.16751 -1.776292,0.16751 -1.517037,0 -1.577111,-0.0031 -1.678341,-0.0632 -0.129627,-0.07901 -0.164404,-0.170772 -0.164404,-0.436071 0,-0.230693 0.04732,-0.338283 0.170611,-0.385629 0.0348,-0.01579 0.793292,-0.02842 1.678332,-0.02842 1.239,-0.0033 1.63099,0.0061 1.691078,0.03788 z m 5.742744,0.03168 c 0.06954,0.06954 0.09795,0.47101 0.04117,0.63525 -0.06957,0.211751 -0.03787,0.208649 -1.785761,0.208649 -1.927963,0 -1.817271,0.03166 -1.817271,-0.499418 0,-0.287667 0.02202,-0.344481 0.158036,-0.395092 0.02528,-0.0096 0.79019,-0.01581 1.697277,-0.0127 1.532705,0.0064 1.655969,0.0096 1.706577,0.06333 z"
       id="path4-3-2"
       inkscape:connector-curvature="0"
       style="fill:#d6dbf1;fill-opacity:1;stroke-width:0.00163264" />
    <rect
       style="fill:#7b96b7;fill-opacity:1;stroke-width:0.653321;stroke-opacity:0.550265"
       height="9.3331156"
       rx="4.6665578"
       y="4.9176774"
       x="6.2766747"
       width="9.3331156"
       id="rect16-7" />
    <path
       style="fill:#d6dbf1;fill-opacity:1;fill-rule:nonzero;stroke:none;stroke-width:9.9246;stroke-miterlimit:4;stroke-dasharray:none;stroke-opacity:1"
       d="m 10.892542,6.4074177 c -0.627646,-0.003 -1.16579,0.113619 -1.655171,0.358648 -0.162915,0.08156 -0.188276,0.110175 -0.177726,0.198241 0.02157,0.179723 0.114332,0.197171 0.38918,0.07386 0.510957,-0.229299 0.759566,-0.278202 1.404068,-0.278898 0.739686,-6.05e-4 1.012086,0.06274 1.618715,0.37688 0.104227,0.0539 0.434186,0.308598 0.557347,0.1718 0.121969,-0.12196 0.05749,-0.222907 -0.256571,-0.401485 -0.61944,-0.352172 -1.160668,-0.495603 -1.879842,-0.499011 z m -0.01914,0.726412 c -0.828135,-6.32e-4 -1.65575,0.326561 -2.262641,0.982076 -0.234777,0.253591 -0.508587,0.66922 -0.508587,0.77199 0,0.119821 0.04935,0.185928 0.138995,0.185928 0.07018,0 0.141681,-0.07577 0.31171,-0.331302 0.380287,-0.57153 0.873284,-0.950686 1.508435,-1.160264 0.492581,-0.160769 1.069398,-0.142158 1.623721,0 0.71573,0.235257 1.329748,0.759355 1.666112,1.4223 0.0732,0.144248 0.116971,0.188213 0.188663,0.188213 0.123473,0 0.195965,-0.09188 0.162234,-0.205987 -0.05434,-0.184041 -0.344509,-0.629969 -0.564174,-0.867234 -0.607738,-0.656438 -1.436337,-0.985088 -2.264468,-0.98572 z m 0.03919,0.721404 c -0.176505,-0.0033 -0.355596,0.01363 -0.534551,0.05098 -0.850387,0.177759 -1.561173,0.866464 -1.788699,1.733095 -0.120745,0.4598963 -0.06524,1.2110973 0.133981,1.8119393 0.05954,0.17956 0.0883,0.217006 0.173628,0.226946 0.196225,0.02283 0.215398,-0.07063 0.09797,-0.476676 -0.335981,-1.162006 -0.04678,-2.1506103 0.786577,-2.6896563 0.823857,-0.53294 1.956934,-0.37522 2.601696,0.361843 0.404034,0.46188 0.625649,1.2431353 0.449334,1.5840783 -0.116469,0.225236 -0.400049,0.360605 -0.632994,0.30214 -0.170226,-0.04274 -0.372015,-0.251919 -0.397842,-0.412423 -0.09115,-0.5663983 -0.219817,-0.7880573 -0.545493,-0.9396923 -0.277815,-0.129354 -0.50938,-0.125785 -0.782014,0.01231 -0.254032,0.128674 -0.448661,0.388377 -0.488075,0.6512243 -0.01417,0.09472 -0.0082,0.299697 0.0141,0.455261 0.137434,0.969033 0.830739,1.735622 1.782769,1.971441 0.119735,0.02963 0.315485,0.05058 0.435212,0.04653 l 0.217833,-0.0076 c 0.123046,-0.06249 0.129783,-0.206208 0,-0.277075 l -0.308065,-0.04696 c -0.387739,-0.05903 -0.548303,-0.110173 -0.814821,-0.26021 -0.579587,-0.326282 -0.994834,-1.033582 -0.994834,-1.694362 0,-0.2911977 0.110248,-0.4612943 0.367309,-0.5678263 0.185734,-0.07701 0.188404,-0.07701 0.37414,0 0.235072,0.09742 0.348218,0.2604556 0.377337,0.5427593 0.05348,0.518101 0.413008,0.859028 0.905971,0.859028 0.395623,0 0.728634,-0.25673 0.846725,-0.652588 0.115584,-0.387409 -0.03956,-1.0381003 -0.365483,-1.5330363 -0.43192,-0.655925 -1.146868,-1.03851 -1.911745,-1.051801 z m -0.02549,0.750571 c -0.246343,0.0034 -0.499666,0.04859 -0.707273,0.129421 -0.320119,0.156777 -0.625153,0.469876 -0.78293,0.802981 -0.120058,0.253451 -0.127221,0.292923 -0.127142,0.7232233 8.1e-5,0.529394 0.06422,0.810623 0.292108,1.286037 0.196437,0.409647 0.468581,0.766926 0.771086,1.011691 0.262194,0.212159 0.290052,0.222465 0.399207,0.142642 0.111745,-0.08173 0.04935,-0.222009 -0.176368,-0.395108 C 10.310984,12.119011 10.046576,11.779534 9.868113,11.423513 9.574973,10.83874 9.501121,10.116014 9.692208,9.7022617 c 0.138681,-0.300286 0.350148,-0.524283 0.61978,-0.656688 0.323936,-0.159087 0.797123,-0.159087 1.121064,0 0.386646,0.189873 0.633866,0.535604 0.721403,1.0098723 0.05222,0.283093 0.131336,0.377196 0.252014,0.299405 0.05586,-0.03601 0.06807,-0.09611 0.06289,-0.311712 -0.01258,-0.5241093 -0.379851,-1.0503323 -0.916452,-1.3138383 -0.180126,-0.08764 -0.419467,-0.126611 -0.665805,-0.123496 z"
       id="path20-0" />
    <path
       style="fill:#d6dbf1;fill-opacity:1;fill-rule:nonzero;stroke:none;stroke-width:9.9246;stroke-miterlimit:4;stroke-dasharray:none;stroke-opacity:1"
       d="m 11.980833,11.790382 c -0.676329,-0.147535 -1.197628,-0.743412 -1.25615,-1.435878 -0.01846,-0.218856 -0.01203,-0.247775 0.06368,-0.288341 0.144349,-0.07725 0.227788,0.0038 0.256659,0.249504 0.07263,0.617713 0.526549,1.083593 1.137228,1.167108 0.298783,0.04084 0.394875,0.155574 0.250915,0.299534 -0.07211,0.07211 -0.152359,0.07348 -0.452336,0.0081 z"
       id="path22-9" />
  </g>
</svg>
