<?xml version="1.0" encoding="UTF-8" standalone="no"?>
<svg
   sodipodi:docname="update.svg"
   inkscape:version="1.1.1 (3bf5ae0d25, 2021-09-20)"
   id="svg846"
   version="1.1"
   viewBox="0 0 8.4666665 8.4666699"
   height="32.000011"
   width="32"
   xmlns:inkscape="http://www.inkscape.org/namespaces/inkscape"
   xmlns:sodipodi="http://sodipodi.sourceforge.net/DTD/sodipodi-0.dtd"
   xmlns="http://www.w3.org/2000/svg"
   xmlns:svg="http://www.w3.org/2000/svg"
   xmlns:rdf="http://www.w3.org/1999/02/22-rdf-syntax-ns#"
   xmlns:cc="http://creativecommons.org/ns#"
   xmlns:dc="http://purl.org/dc/elements/1.1/">
  <defs
     id="defs840">
    <linearGradient
       id="oomox"
       x1="-0.0001251408"
       x2="-0.0001251408"
       y1="-3.4729623e-05"
       y2="16.000065"
       gradientTransform="matrix(0.39687166,0,0,0.39687166,1.058403,298.05833)"
       gradientUnits="userSpaceOnUse">
      <stop
         offset="0%"
         style="stop-color:#303b3d; stop-opacity:1"
         id="stop18" />
      <stop
         offset="100%"
         style="stop-color:#bc985d; stop-opacity:1"
         id="stop20" />
    </linearGradient>
    <linearGradient
       id="oomox-3"
       x1="2.9855692"
       x2="2.9855692"
       y1="0"
       y2="13.290598"
       gradientTransform="matrix(0.17857078,0,0,0.25879833,2.5095723,299.51354)"
       gradientUnits="userSpaceOnUse">
      <stop
         offset="0%"
         style="stop-color:#303b3d; stop-opacity:1"
         id="stop18-6" />
      <stop
         offset="100%"
         style="stop-color:#bc985d; stop-opacity:1"
         id="stop20-7" />
    </linearGradient>
  </defs>
  <sodipodi:namedview
     inkscape:document-rotation="0"
     inkscape:snap-midpoints="true"
     inkscape:object-paths="true"
     inkscape:snap-intersection-paths="true"
     inkscape:snap-smooth-nodes="true"
     inkscape:window-maximized="1"
     inkscape:window-y="0"
     inkscape:window-x="0"
     inkscape:window-height="1015"
     inkscape:window-width="1920"
     units="px"
     showgrid="false"
     inkscape:current-layer="layer1"
     inkscape:document-units="px"
     inkscape:cy="3.8749998"
     inkscape:cx="73.499996"
     inkscape:zoom="4.0000002"
     inkscape:pageshadow="2"
     inkscape:pageopacity="0.0"
     borderopacity="1.0"
     bordercolor="#666666"
     pagecolor="#ffffff"
     id="base"
     inkscape:lockguides="false"
     inkscape:pagecheckerboard="0">
    <inkscape:grid
       id="grid1394"
       type="xygrid"
       originx="1.5e-05"
       originy="-5.820801" />
  </sodipodi:namedview>
  <metadata
     id="metadata843">
    <rdf:RDF>
      <cc:Work
         rdf:about="">
        <dc:format>image/svg+xml</dc:format>
        <dc:type
           rdf:resource="http://purl.org/dc/dcmitype/StillImage" />
      </cc:Work>
    </rdf:RDF>
  </metadata>
  <style
     type="text/css"
     id="current-color-scheme" />
  <g
     transform="translate(0,-297)"
     id="layer1"
     inkscape:groupmode="layer"
     inkscape:label="Layer 1">
    <g
       id="22.22-update-low">
      <rect
         style="opacity:0.003;fill:#000000;fill-opacity:1;stroke:none;stroke-width:0.10795;stroke-miterlimit:4;stroke-dasharray:none;stroke-opacity:1"
         id="rect1396-3-2"
         width="5.8208332"
         height="5.8208332"
         x="17.4625"
         y="291.17914"
         ry="1.2988288e-06" />
      <path
         style="color:#d5c289;fill:#d6dbf1;fill-opacity:1;stroke-width:0.264583"
         class="ColorScheme-Text"
         d="m 20.372917,291.97289 c -1.170517,0 -2.116667,0.94615 -2.116667,2.11667 0,1.17052 0.94615,2.11666 2.116667,2.11666 1.170516,0 2.116666,-0.94614 2.116666,-2.11666 0,-1.17052 -0.94615,-2.11667 -2.116666,-2.11667 z m 0,0.26459 c 1.023934,0 1.852083,0.82814 1.852083,1.85208 0,1.02393 -0.828149,1.85208 -1.852083,1.85208 -1.023941,0 -1.852084,-0.82815 -1.852084,-1.85208 0,-1.02394 0.828143,-1.85208 1.852084,-1.85208 z m 0.198434,1.51315 v 0 0 0 0 0 c 0,0 -0.009,0.002 0,0 z m -0.206638,1.19062 z"
         id="path58-1-7-6"
         sodipodi:nodetypes="ssssssssssccccccccccccccccc" />
      <path
         d="m 20.268451,292.87688 c -0.148327,3.8e-4 -0.295552,0.0262 -0.435143,0.0764 -0.02864,0.0103 -0.04583,0.0395 -0.0408,0.0696 0.005,0.03 0.03078,0.0521 0.06119,0.0525 0.593496,0.009 1.065732,0.46051 1.133954,1.03569 h -0.31131 c -0.02544,2e-5 -0.04836,0.0153 -0.0581,0.0388 -0.0097,0.0235 -0.0043,0.0505 0.01362,0.0685 l 0.610598,0.6106 c 0.02457,0.0245 0.06439,0.0245 0.08896,0 l 0.610599,-0.6106 c 0.01797,-0.018 0.02333,-0.0451 0.01362,-0.0685 -0.0097,-0.0235 -0.03266,-0.0388 -0.0581,-0.0388 H 21.55307 c -0.03473,-0.68476 -0.591052,-1.23417 -1.284342,-1.23417 h -3.04e-4 z m 3.04e-4,0.1258 c 0.647606,0 1.171263,0.5237 1.171263,1.17127 2.9e-5,0.0347 0.02817,0.0629 0.0629,0.0629 h 0.242762 l -0.458729,0.45873 -0.458729,-0.45873 h 0.239082 c 0.01733,3e-5 0.03392,-0.007 0.04583,-0.0197 0.01191,-0.0126 0.01808,-0.0295 0.01707,-0.0469 -0.03267,-0.5587 -0.426598,-1.00492 -0.947207,-1.15264 0.02907,-0.002 0.05653,-0.0149 0.08576,-0.015 z m -0.810842,0.33516 c -0.01634,2.8e-4 -0.03193,0.007 -0.0435,0.0184 l -0.610597,0.6106 c -0.01797,0.018 -0.02333,0.0451 -0.01362,0.0685 0.0097,0.0235 0.03266,0.0388 0.0581,0.0388 h 0.344469 c 0.03468,0.68479 0.591024,1.23424 1.284342,1.23417 0.148635,0 0.295976,-0.0265 0.435394,-0.0767 h 2.9e-5 c 0.02865,-0.0103 0.04583,-0.0395 0.0408,-0.0696 -0.005,-0.03 -0.03077,-0.0521 -0.06119,-0.0525 -0.593516,-0.009 -1.065732,-0.46027 -1.133952,-1.03539 h 0.311308 c 0.02544,-4e-5 0.04835,-0.0153 0.0581,-0.0388 0.0097,-0.0235 0.0043,-0.0505 -0.01362,-0.0686 l -0.610598,-0.6106 c -0.01205,-0.0121 -0.02845,-0.0187 -0.04547,-0.0184 z m 10e-4,0.15183 v 2e-5 0 0 0 0 0 0 0 0 0 0 z"
         id="path2-36-72-2-1"
         sodipodi:nodetypes="ccccccccccccccsccccsccccscccccccccccccccccccsccccccccccccccc"
         style="fill:#7997b9;fill-opacity:1;stroke:none;stroke-width:0.0071888;stroke-opacity:1" />
    </g>
    <g
       id="update-low">
      <rect
         style="opacity:0.003;fill:#000000;fill-opacity:1;stroke:none;stroke-width:0.157018;stroke-miterlimit:4;stroke-dasharray:none;stroke-opacity:1"
         id="rect1396-6-9-1"
         width="8.4666672"
         height="8.46667"
         x="25.4"
         y="296.99997"
         ry="1.8892064e-06" />
      <path
         style="color:#d5c289;fill:#d6dbf1;fill-opacity:1;stroke-width:0.396875"
         class="ColorScheme-Text"
         d="m 29.633333,298.0583 c -1.755775,0 -3.175,1.41923 -3.175,3.175 0,1.75578 1.419225,3.175 3.175,3.175 1.755775,0 3.175,-1.41922 3.175,-3.175 0,-1.75577 -1.419225,-3.175 -3.175,-3.175 z m 0,0.39688 c 1.535901,0 2.778125,1.24222 2.778125,2.77812 0,1.5359 -1.242224,2.77813 -2.778125,2.77813 -1.535911,0 -2.778125,-1.24223 -2.778125,-2.77813 0,-1.5359 1.242214,-2.77812 2.778125,-2.77812 z m 0.297651,2.26973 v 0 0 0 0 0 c 0,0 -0.01347,0.003 0,0 z m -0.309957,1.78593 z"
         id="path58-3"
         sodipodi:nodetypes="ssssssssssccccccccccccccccc" />
      <path
         d="m 29.476634,299.41429 c -0.22249,5.6e-4 -0.443328,0.0393 -0.652714,0.11462 -0.04297,0.0154 -0.06874,0.0593 -0.0612,0.10437 0.0075,0.045 0.04617,0.0782 0.09178,0.0788 0.890244,0.0129 1.598598,0.69076 1.700931,1.55353 h -0.466963 c -0.03816,4e-5 -0.07254,0.023 -0.08715,0.0582 -0.01457,0.0353 -0.0065,0.0758 0.02043,0.10282 l 0.915896,0.9159 c 0.03686,0.0368 0.09658,0.0368 0.133442,0 l 0.915898,-0.9159 c 0.02696,-0.027 0.035,-0.0676 0.02043,-0.10282 -0.01462,-0.0353 -0.04899,-0.0582 -0.08715,-0.0582 h -0.516703 c -0.0521,-1.02714 -0.886578,-1.85125 -1.926513,-1.85125 h -4.56e-4 z m 4.56e-4,0.1887 c 0.971409,0 1.756894,0.78554 1.756894,1.7569 4.4e-5,0.0521 0.04225,0.0943 0.09435,0.0943 h 0.364144 l -0.688094,0.6881 -0.688093,-0.6881 h 0.358623 c 0.02599,5e-5 0.05088,-0.0107 0.06874,-0.0296 0.01786,-0.0189 0.02712,-0.0443 0.02561,-0.0703 -0.04901,-0.83805 -0.639898,-1.50737 -1.420811,-1.72896 0.0436,-0.003 0.08479,-0.0224 0.128643,-0.0225 z m -1.216262,0.50273 c -0.02451,4.2e-4 -0.04789,0.0103 -0.06525,0.0276 l -0.915897,0.9159 c -0.02696,0.027 -0.035,0.0676 -0.02043,0.10282 0.01461,0.0353 0.04899,0.0582 0.08715,0.0582 h 0.516705 c 0.05202,1.02718 0.886535,1.85136 1.926512,1.85125 0.222953,0 0.443964,-0.0397 0.653091,-0.11499 h 4.4e-5 c 0.04297,-0.0154 0.06874,-0.0593 0.0612,-0.10438 -0.0075,-0.045 -0.04616,-0.0782 -0.09178,-0.0788 -0.890275,-0.0129 -1.598598,-0.69041 -1.700929,-1.55309 h 0.466963 c 0.03816,-5e-5 0.07253,-0.023 0.08715,-0.0582 0.01458,-0.0353 0.0065,-0.0758 -0.02043,-0.10282 l -0.915897,-0.9159 c -0.01807,-0.0181 -0.04267,-0.028 -0.0682,-0.0276 z m 0.0015,0.22775 v 3e-5 0 0 0 0 0 0 0 0 0 0 z"
         id="path2-36-6"
         sodipodi:nodetypes="ccccccccccccccsccccsccccscccccccccccccccccccsccccccccccccccc"
         style="fill:#7997b9;fill-opacity:1;stroke:none;stroke-width:0.0107832;stroke-opacity:1" />
    </g>
    <g
       id="update-none">
      <rect
         style="opacity:0.003;fill:#a8aeca;fill-opacity:1;stroke:none;stroke-width:0.157018;stroke-miterlimit:4;stroke-dasharray:none;stroke-opacity:1"
         id="rect1396-6"
         width="8.4666672"
         height="8.46667"
         x="0"
         y="297"
         ry="1.8892064e-06" />
      <path
         style="color:#d5c289;fill:#d6dbf1;fill-opacity:1;stroke-width:0.396875"
         class="ColorScheme-Text"
         d="m 4.2333331,298.05833 c -1.755775,0 -3.1749998,1.41923 -3.1749998,3.175 0,1.75578 1.4192248,3.175 3.1749998,3.175 1.755775,0 3.1749999,-1.41922 3.1749999,-3.175 0,-1.75577 -1.4192249,-3.175 -3.1749999,-3.175 z m 0,0.39688 c 1.5359009,0 2.7781249,1.24222 2.7781249,2.77812 0,1.5359 -1.242224,2.77813 -2.7781249,2.77813 -1.5359115,0 -2.7781253,-1.24223 -2.7781253,-2.77813 0,-1.5359 1.2422138,-2.77812 2.7781253,-2.77812 z m 0.2976509,2.26973 v 0 0 0 0 0 c 0,0 -0.01347,0.003 0,0 z m -0.309957,1.78593 z"
         id="path58"
         sodipodi:nodetypes="ssssssssssccccccccccccccccc" />
      <path
         d="m 4.0766341,299.41432 c -0.2224897,5.6e-4 -0.4433281,0.0393 -0.6527138,0.11462 -0.042965,0.0154 -0.068743,0.0593 -0.061203,0.10437 0.00749,0.045 0.046165,0.0782 0.091782,0.0788 0.890244,0.0129 1.5985977,0.69076 1.7009311,1.55353 H 4.6884669 c -0.038164,4e-5 -0.072535,0.023 -0.08715,0.0582 -0.014574,0.0353 -0.00652,0.0758 0.020429,0.10282 l 0.9158958,0.9159 c 0.036859,0.0368 0.096584,0.0368 0.1334427,0 l 0.9158979,-0.9159 c 0.026958,-0.027 0.035002,-0.0676 0.020429,-0.10282 -0.014619,-0.0353 -0.048989,-0.0582 -0.087152,-0.0582 H 6.0035558 C 5.9514518,300.2385 5.116978,299.41439 4.077043,299.41439 h -4.56e-4 z m 4.56e-4,0.1887 c 0.9714091,0 1.7568944,0.78554 1.7568944,1.7569 4.33e-5,0.0521 0.042249,0.0943 0.094354,0.0943 h 0.3641432 l -0.6880935,0.6881 -0.6880934,-0.6881 h 0.3586235 c 0.025989,5e-5 0.050884,-0.0107 0.068742,-0.0296 0.017857,-0.0189 0.027124,-0.0443 0.025608,-0.0703 -0.049014,-0.83805 -0.6398978,-1.50737 -1.420811,-1.72896 0.043597,-0.003 0.08479,-0.0224 0.1286424,-0.0225 z m -1.2162623,0.50273 c -0.024514,4.2e-4 -0.047891,0.0103 -0.065247,0.0276 l -0.9158963,0.9159 c -0.026957,0.027 -0.035004,0.0676 -0.020429,0.10282 0.014615,0.0353 0.048987,0.0582 0.087149,0.0582 h 0.5167047 c 0.05202,1.02718 0.8865345,1.85136 1.9265114,1.85125 0.2229537,0 0.4439644,-0.0397 0.6530915,-0.11499 h 4.4e-5 c 0.042965,-0.0154 0.068742,-0.0593 0.061203,-0.10438 -0.00749,-0.045 -0.046164,-0.0782 -0.091784,-0.0788 -0.8902753,-0.0129 -1.5985978,-0.69041 -1.7009291,-1.55309 h 0.4669634 c 0.038163,-5e-5 0.072532,-0.023 0.087149,-0.0582 0.014575,-0.0353 0.00652,-0.0758 -0.020428,-0.10282 l -0.9158976,-0.9159 c -0.018071,-0.0181 -0.042669,-0.028 -0.068196,-0.0276 z m 0.00152,0.22775 v 3e-5 0 0 0 0 0 0 0 0 0 0 z"
         id="path2-36"
         sodipodi:nodetypes="ccccccccccccccsccccsccccscccccccccccccccccccsccccccccccccccc"
         style="fill:#d6dbf1;fill-opacity:1;stroke:none;stroke-width:0.0107832;stroke-opacity:1" />
    </g>
    <g
       id="update-high">
      <rect
         style="opacity:0.003;fill:#000000;fill-opacity:1;stroke:none;stroke-width:0.157018;stroke-miterlimit:4;stroke-dasharray:none;stroke-opacity:1"
         id="rect1396-6-9"
         width="8.4666672"
         height="8.46667"
         x="8.4666672"
         y="296.99997"
         ry="1.8892064e-06" />
      <path
         style="color:#d5c289;fill:#d6dbf1;fill-opacity:1;stroke-width:0.396875"
         class="ColorScheme-Text"
         d="m 12.7,298.0583 c -1.755775,0 -3.1749995,1.41923 -3.1749995,3.175 0,1.75578 1.4192245,3.175 3.1749995,3.175 1.755775,0 3.175,-1.41922 3.175,-3.175 0,-1.75577 -1.419225,-3.175 -3.175,-3.175 z m 0,0.39688 c 1.535901,0 2.778125,1.24222 2.778125,2.77812 0,1.5359 -1.242224,2.77813 -2.778125,2.77813 -1.535911,0 -2.7781244,-1.24223 -2.7781244,-2.77813 0,-1.5359 1.2422134,-2.77812 2.7781244,-2.77812 z m 0.297651,2.26973 v 0 0 0 0 0 c 0,0 -0.01347,0.003 0,0 z m -0.309957,1.78593 z"
         id="path58-0"
         sodipodi:nodetypes="ssssssssssccccccccccccccccc" />
      <path
         d="m 12.543301,299.41429 c -0.22249,5.6e-4 -0.443328,0.0393 -0.652714,0.11462 -0.04297,0.0154 -0.06874,0.0593 -0.0612,0.10437 0.0075,0.045 0.04617,0.0782 0.09178,0.0788 0.890244,0.0129 1.598598,0.69076 1.700931,1.55353 h -0.466964 c -0.03816,4e-5 -0.07254,0.023 -0.08715,0.0582 -0.01457,0.0353 -0.0065,0.0758 0.02043,0.10282 l 0.915896,0.9159 c 0.03686,0.0368 0.09658,0.0368 0.133442,0 l 0.915898,-0.9159 c 0.02696,-0.027 0.035,-0.0676 0.02043,-0.10282 -0.01462,-0.0353 -0.04899,-0.0582 -0.08715,-0.0582 h -0.516703 c -0.0521,-1.02714 -0.886578,-1.85125 -1.926513,-1.85125 h -4.56e-4 z m 4.56e-4,0.1887 c 0.971409,0 1.756894,0.78554 1.756894,1.7569 4.4e-5,0.0521 0.04225,0.0943 0.09435,0.0943 h 0.364144 l -0.688094,0.6881 -0.688093,-0.6881 h 0.358623 c 0.02599,5e-5 0.05088,-0.0107 0.06874,-0.0296 0.01786,-0.0189 0.02712,-0.0443 0.02561,-0.0703 -0.04901,-0.83805 -0.639897,-1.50737 -1.420811,-1.72896 0.0436,-0.003 0.08479,-0.0224 0.128643,-0.0225 z m -1.216262,0.50273 c -0.02451,4.2e-4 -0.04789,0.0103 -0.06525,0.0276 l -0.915896,0.9159 c -0.02696,0.027 -0.035,0.0676 -0.02043,0.10282 0.01461,0.0353 0.04899,0.0582 0.08715,0.0582 h 0.516703 c 0.05202,1.02718 0.886535,1.85136 1.926512,1.85125 0.222953,0 0.443964,-0.0397 0.653091,-0.11499 h 4.4e-5 c 0.04296,-0.0154 0.06874,-0.0593 0.0612,-0.10438 -0.0075,-0.045 -0.04616,-0.0782 -0.09178,-0.0788 -0.890275,-0.0129 -1.598598,-0.69041 -1.700929,-1.55309 h 0.466963 c 0.03816,-5e-5 0.07253,-0.023 0.08715,-0.0582 0.01458,-0.0353 0.0065,-0.0758 -0.02043,-0.10282 l -0.915897,-0.9159 c -0.01807,-0.0181 -0.04267,-0.028 -0.0682,-0.0276 z m 0.0015,0.22775 v 3e-5 0 0 0 0 0 0 0 0 0 0 z"
         id="path2-36-4"
         sodipodi:nodetypes="ccccccccccccccsccccsccccscccccccccccccccccccsccccccccccccccc"
         style="fill:#bf616a;fill-opacity:1;stroke:none;stroke-width:0.0107832;stroke-opacity:1" />
    </g>
    <g
       id="update-medium">
      <rect
         style="opacity:0.003;fill:#000000;fill-opacity:1;stroke:none;stroke-width:0.157018;stroke-miterlimit:4;stroke-dasharray:none;stroke-opacity:1"
         id="rect1396-6-9-5"
         width="8.4666672"
         height="8.46667"
         x="16.933332"
         y="296.99997"
         ry="1.8892064e-06" />
      <path
         style="color:#d5c289;fill:#d6dbf1;fill-opacity:1;stroke-width:0.396875"
         class="ColorScheme-Text"
         d="m 21.166681,298.0583 c -1.755775,0 -3.175,1.41923 -3.175,3.175 0,1.75578 1.419225,3.175 3.175,3.175 1.755775,0 3.175,-1.41922 3.175,-3.175 0,-1.75577 -1.419225,-3.175 -3.175,-3.175 z m 0,0.39688 c 1.535901,0 2.778125,1.24222 2.778125,2.77812 0,1.5359 -1.242224,2.77813 -2.778125,2.77813 -1.535911,0 -2.778125,-1.24223 -2.778125,-2.77813 0,-1.5359 1.242214,-2.77812 2.778125,-2.77812 z m 0.297651,2.26973 v 0 0 0 0 0 c 0,0 -0.01347,0.003 0,0 z m -0.309957,1.78593 z"
         id="path58-8"
         sodipodi:nodetypes="ssssssssssccccccccccccccccc" />
      <path
         d="m 21.009982,299.41429 c -0.22249,5.6e-4 -0.443328,0.0393 -0.652714,0.11462 -0.04296,0.0154 -0.06874,0.0593 -0.0612,0.10437 0.0075,0.045 0.04616,0.0782 0.09178,0.0788 0.890244,0.0129 1.598598,0.69076 1.700931,1.55353 h -0.466963 c -0.03816,4e-5 -0.07253,0.023 -0.08715,0.0582 -0.01457,0.0353 -0.0065,0.0758 0.02043,0.10282 l 0.915896,0.9159 c 0.03686,0.0368 0.09658,0.0368 0.133442,0 l 0.915898,-0.9159 c 0.02696,-0.027 0.035,-0.0676 0.02043,-0.10282 -0.01462,-0.0353 -0.04899,-0.0582 -0.08715,-0.0582 h -0.516703 c -0.0521,-1.02714 -0.886578,-1.85125 -1.926513,-1.85125 h -4.56e-4 z m 4.56e-4,0.1887 c 0.971409,0 1.756894,0.78554 1.756894,1.7569 4.4e-5,0.0521 0.04225,0.0943 0.09435,0.0943 h 0.364144 l -0.688094,0.6881 -0.688093,-0.6881 h 0.358623 c 0.02599,5e-5 0.05088,-0.0107 0.06874,-0.0296 0.01786,-0.0189 0.02712,-0.0443 0.02561,-0.0703 -0.04901,-0.83805 -0.639897,-1.50737 -1.420811,-1.72896 0.0436,-0.003 0.08479,-0.0224 0.128643,-0.0225 z m -1.216262,0.50273 c -0.02451,4.2e-4 -0.04789,0.0103 -0.06525,0.0276 l -0.915897,0.9159 c -0.02696,0.027 -0.035,0.0676 -0.02043,0.10282 0.01461,0.0353 0.04899,0.0582 0.08715,0.0582 h 0.516705 c 0.05202,1.02718 0.886535,1.85136 1.926512,1.85125 0.222953,0 0.443964,-0.0397 0.653091,-0.11499 h 4.4e-5 c 0.04296,-0.0154 0.06874,-0.0593 0.0612,-0.10438 -0.0075,-0.045 -0.04616,-0.0782 -0.09178,-0.0788 -0.890275,-0.0129 -1.598598,-0.69041 -1.700929,-1.55309 h 0.466963 c 0.03816,-5e-5 0.07253,-0.023 0.08715,-0.0582 0.01458,-0.0353 0.0065,-0.0758 -0.02043,-0.10282 l -0.915897,-0.9159 c -0.01807,-0.0181 -0.04267,-0.028 -0.0682,-0.0276 z m 0.0015,0.22775 v 3e-5 0 0 0 0 0 0 0 0 0 0 z"
         id="path2-36-7"
         sodipodi:nodetypes="ccccccccccccccsccccsccccscccccccccccccccccccsccccccccccccccc"
         style="fill:#ff9955;fill-opacity:1;stroke:none;stroke-width:0.0107832;stroke-opacity:1" />
    </g>
    <g
       id="22-22-update-none">
      <rect
         style="opacity:0.003;fill:#a8aeca;fill-opacity:1;stroke:none;stroke-width:0.10795;stroke-miterlimit:4;stroke-dasharray:none;stroke-opacity:1"
         id="rect1396"
         width="5.8208332"
         height="5.8208332"
         x="0"
         y="291.17914"
         ry="1.2988289e-06" />
      <path
         style="color:#d5c289;fill:#d6dbf1;fill-opacity:1;stroke-width:0.264583"
         class="ColorScheme-Text"
         d="m 2.9104167,291.97289 c -1.170517,0 -2.1166667,0.94615 -2.1166667,2.11667 0,1.17052 0.9461497,2.11666 2.1166667,2.11666 1.170516,0 2.116666,-0.94614 2.116666,-2.11666 0,-1.17052 -0.94615,-2.11667 -2.116666,-2.11667 z m 0,0.26459 c 1.023934,0 1.852083,0.82814 1.852083,1.85208 0,1.02393 -0.828149,1.85208 -1.852083,1.85208 -1.023941,0 -1.8520838,-0.82815 -1.8520838,-1.85208 0,-1.02394 0.8281428,-1.85208 1.8520838,-1.85208 z m 0.198434,1.51315 v 0 0 0 0 0 c 0,0 -0.009,0.002 0,0 z m -0.206638,1.19062 z"
         id="path58-1-7-2"
         sodipodi:nodetypes="ssssssssssccccccccccccccccc" />
      <path
         d="m 2.8059507,292.87688 c -0.148327,3.8e-4 -0.295552,0.0262 -0.435143,0.0764 -0.02864,0.0103 -0.04583,0.0395 -0.0408,0.0696 0.005,0.03 0.03078,0.0521 0.06119,0.0525 0.593496,0.009 1.065732,0.46051 1.133954,1.03569 h -0.31131 c -0.02544,2e-5 -0.04836,0.0153 -0.0581,0.0388 -0.0097,0.0235 -0.0043,0.0505 0.01362,0.0685 l 0.610598,0.6106 c 0.02457,0.0245 0.06439,0.0245 0.08896,0 l 0.610599,-0.6106 c 0.01797,-0.018 0.02333,-0.0451 0.01362,-0.0685 -0.0097,-0.0235 -0.03266,-0.0388 -0.0581,-0.0388 h -0.344469 c -0.03473,-0.68476 -0.591052,-1.23417 -1.284342,-1.23417 h -3.04e-4 z m 3.04e-4,0.1258 c 0.647606,0 1.171263,0.5237 1.171263,1.17127 2.9e-5,0.0347 0.02817,0.0629 0.0629,0.0629 h 0.242762 l -0.458729,0.45873 -0.458729,-0.45873 h 0.239082 c 0.01733,3e-5 0.03392,-0.007 0.04583,-0.0197 0.01191,-0.0126 0.01808,-0.0295 0.01707,-0.0469 -0.03267,-0.5587 -0.426598,-1.00492 -0.947207,-1.15264 0.02907,-0.002 0.05653,-0.0149 0.08576,-0.015 z m -0.810842,0.33516 c -0.01634,2.8e-4 -0.03193,0.007 -0.0435,0.0184 l -0.610597,0.6106 c -0.01797,0.018 -0.02333,0.0451 -0.01362,0.0685 0.0097,0.0235 0.03266,0.0388 0.0581,0.0388 h 0.344469 c 0.03468,0.68479 0.591024,1.23424 1.284342,1.23417 0.148635,0 0.295976,-0.0265 0.435394,-0.0767 h 2.9e-5 c 0.02865,-0.0103 0.04583,-0.0395 0.0408,-0.0696 -0.005,-0.03 -0.03077,-0.0521 -0.06119,-0.0525 -0.593516,-0.009 -1.065732,-0.46027 -1.133952,-1.03539 h 0.311308 c 0.02544,-4e-5 0.04835,-0.0153 0.0581,-0.0388 0.0097,-0.0235 0.0043,-0.0505 -0.01362,-0.0686 l -0.610598,-0.6106 c -0.01205,-0.0121 -0.02845,-0.0187 -0.04547,-0.0184 z m 0.001,0.15183 v 2e-5 0 0 0 0 0 0 0 0 0 0 z"
         id="path2-36-72-2-6"
         sodipodi:nodetypes="ccccccccccccccsccccsccccscccccccccccccccccccsccccccccccccccc"
         style="fill:#d6dbf1;fill-opacity:1;stroke:none;stroke-width:0.0071888;stroke-opacity:1" />
    </g>
    <g
       id="22-22-update-medium">
      <rect
         style="opacity:0.003;fill:#000000;fill-opacity:1;stroke:none;stroke-width:0.10795;stroke-miterlimit:4;stroke-dasharray:none;stroke-opacity:1"
         id="rect1396-3-1"
         width="5.8208332"
         height="5.8208332"
         x="11.641666"
         y="291.17914"
         ry="1.2988288e-06" />
      <path
         style="color:#d5c289;fill:#d6dbf1;fill-opacity:1;stroke-width:0.264583"
         class="ColorScheme-Text"
         d="m 14.552083,291.97289 c -1.170517,0 -2.116667,0.94615 -2.116667,2.11667 0,1.17052 0.94615,2.11666 2.116667,2.11666 1.170516,0 2.116666,-0.94614 2.116666,-2.11666 0,-1.17052 -0.94615,-2.11667 -2.116666,-2.11667 z m 0,0.26459 c 1.023934,0 1.852083,0.82814 1.852083,1.85208 0,1.02393 -0.828149,1.85208 -1.852083,1.85208 -1.023941,0 -1.852084,-0.82815 -1.852084,-1.85208 0,-1.02394 0.828143,-1.85208 1.852084,-1.85208 z m 0.198434,1.51315 v 0 0 0 0 0 c 0,0 -0.009,0.002 0,0 z m -0.206638,1.19062 z"
         id="path58-1-7"
         sodipodi:nodetypes="ssssssssssccccccccccccccccc" />
      <path
         d="m 14.447617,292.87688 c -0.148327,3.8e-4 -0.295552,0.0262 -0.435143,0.0764 -0.02864,0.0103 -0.04583,0.0395 -0.0408,0.0696 0.005,0.03 0.03078,0.0521 0.06119,0.0525 0.593496,0.009 1.065732,0.46051 1.133954,1.03569 h -0.31131 c -0.02544,2e-5 -0.04836,0.0153 -0.0581,0.0388 -0.0097,0.0235 -0.0043,0.0505 0.01362,0.0685 l 0.610598,0.6106 c 0.02457,0.0245 0.06439,0.0245 0.08896,0 l 0.610599,-0.6106 c 0.01797,-0.018 0.02333,-0.0451 0.01362,-0.0685 -0.0097,-0.0235 -0.03266,-0.0388 -0.0581,-0.0388 h -0.344469 c -0.03473,-0.68476 -0.591052,-1.23417 -1.284342,-1.23417 h -3.04e-4 z m 3.04e-4,0.1258 c 0.647606,0 1.171263,0.5237 1.171263,1.17127 2.9e-5,0.0347 0.02817,0.0629 0.0629,0.0629 h 0.242762 l -0.458729,0.45873 -0.458729,-0.45873 h 0.239082 c 0.01733,3e-5 0.03392,-0.007 0.04583,-0.0197 0.01191,-0.0126 0.01808,-0.0295 0.01707,-0.0469 -0.03267,-0.5587 -0.426598,-1.00492 -0.947207,-1.15264 0.02907,-0.002 0.05653,-0.0149 0.08576,-0.015 z m -0.810842,0.33516 c -0.01634,2.8e-4 -0.03193,0.007 -0.0435,0.0184 l -0.610597,0.6106 c -0.01797,0.018 -0.02333,0.0451 -0.01362,0.0685 0.0097,0.0235 0.03266,0.0388 0.0581,0.0388 h 0.344469 c 0.03468,0.68479 0.591024,1.23424 1.284342,1.23417 0.148635,0 0.295976,-0.0265 0.435394,-0.0767 h 2.9e-5 c 0.02865,-0.0103 0.04583,-0.0395 0.0408,-0.0696 -0.005,-0.03 -0.03077,-0.0521 -0.06119,-0.0525 -0.593516,-0.009 -1.065732,-0.46027 -1.133952,-1.03539 h 0.311308 c 0.02544,-4e-5 0.04835,-0.0153 0.0581,-0.0388 0.0097,-0.0235 0.0043,-0.0505 -0.01362,-0.0686 l -0.610598,-0.6106 c -0.01205,-0.0121 -0.02845,-0.0187 -0.04547,-0.0184 z m 10e-4,0.15183 v 2e-5 0 0 0 0 0 0 0 0 0 0 z"
         id="path2-36-72-2"
         sodipodi:nodetypes="ccccccccccccccsccccsccccscccccccccccccccccccsccccccccccccccc"
         style="fill:#ff9955;fill-opacity:1;stroke:none;stroke-width:0.0071888;stroke-opacity:1" />
    </g>
    <g
       id="22-22-update-high">
      <rect
         style="opacity:0.003;fill:#000000;fill-opacity:1;stroke:none;stroke-width:0.10795;stroke-miterlimit:4;stroke-dasharray:none;stroke-opacity:1"
         id="rect1396-3"
         width="5.8208332"
         height="5.8208332"
         x="5.8208332"
         y="291.17914"
         ry="1.2988288e-06" />
      <path
         style="color:#d5c289;fill:#d6dbf1;fill-opacity:1;stroke-width:0.264583"
         class="ColorScheme-Text"
         d="m 8.7312503,291.97289 c -1.1705171,0 -2.1166671,0.94615 -2.1166671,2.11667 0,1.17052 0.94615,2.11666 2.1166671,2.11666 1.170516,0 2.1166647,-0.94614 2.1166647,-2.11666 0,-1.17052 -0.9461487,-2.11667 -2.1166647,-2.11667 z m 0,0.26459 c 1.023934,0 1.8520817,0.82814 1.8520817,1.85208 0,1.02393 -0.8281477,1.85208 -1.8520817,1.85208 -1.0239411,0 -1.8520841,-0.82815 -1.8520841,-1.85208 0,-1.02394 0.828143,-1.85208 1.8520841,-1.85208 z m 0.198434,1.51315 v 0 0 0 0 0 c 0,0 -0.009,0.002 0,0 z m -0.206638,1.19062 z"
         id="path58-1-7-1"
         sodipodi:nodetypes="ssssssssssccccccccccccccccc" />
      <path
         d="m 8.6267842,292.87688 c -0.148327,3.8e-4 -0.295552,0.0262 -0.435143,0.0764 -0.02864,0.0103 -0.04583,0.0395 -0.0408,0.0696 0.005,0.03 0.03078,0.0521 0.06119,0.0525 0.5934961,0.009 1.0657321,0.46051 1.1339541,1.03569 h -0.31131 c -0.02544,2e-5 -0.04836,0.0153 -0.0581,0.0388 -0.0097,0.0235 -0.0043,0.0505 0.01362,0.0685 l 0.610598,0.6106 c 0.02457,0.0245 0.06439,0.0245 0.08896,0 l 0.6105977,-0.6106 c 0.01797,-0.018 0.02333,-0.0451 0.01362,-0.0685 -0.0097,-0.0235 -0.03266,-0.0388 -0.0581,-0.0388 H 9.9114033 c -0.03473,-0.68476 -0.591052,-1.23417 -1.2843421,-1.23417 h -3.04e-4 z m 3.04e-4,0.1258 c 0.6476061,0 1.1712631,0.5237 1.1712631,1.17127 2.9e-5,0.0347 0.02817,0.0629 0.0629,0.0629 h 0.2427607 l -0.4587277,0.45873 -0.458729,-0.45873 h 0.239082 c 0.01733,3e-5 0.03392,-0.007 0.04583,-0.0197 0.01191,-0.0126 0.01808,-0.0295 0.01707,-0.0469 -0.03267,-0.5587 -0.426598,-1.00492 -0.9472071,-1.15264 0.02907,-0.002 0.05653,-0.0149 0.08576,-0.015 z m -0.810842,0.33516 c -0.01634,2.8e-4 -0.03193,0.007 -0.0435,0.0184 l -0.610597,0.6106 c -0.01797,0.018 -0.02333,0.0451 -0.01362,0.0685 0.0097,0.0235 0.03266,0.0388 0.0581,0.0388 h 0.344469 c 0.03468,0.68479 0.591024,1.23424 1.2843421,1.23417 0.148635,0 0.295976,-0.0265 0.435394,-0.0767 h 2.9e-5 c 0.02865,-0.0103 0.04583,-0.0395 0.0408,-0.0696 -0.005,-0.03 -0.03077,-0.0521 -0.06119,-0.0525 -0.593516,-0.009 -1.0657321,-0.46027 -1.1339521,-1.03539 h 0.311308 c 0.02544,-4e-5 0.04835,-0.0153 0.0581,-0.0388 0.0097,-0.0235 0.0043,-0.0505 -0.01362,-0.0686 l -0.610598,-0.6106 c -0.01205,-0.0121 -0.02845,-0.0187 -0.04547,-0.0184 z m 10e-4,0.15183 v 2e-5 0 0 0 0 0 0 0 0 0 0 z"
         id="path2-36-72-2-0"
         sodipodi:nodetypes="ccccccccccccccsccccsccccscccccccccccccccccccsccccccccccccccc"
         style="fill:#bf616a;fill-opacity:1;stroke:none;stroke-width:0.0071888;stroke-opacity:1" />
    </g>
  </g>
</svg>
