<?xml version="1.0" encoding="UTF-8" standalone="no"?>
<svg
   width="32"
   height="32"
   version="1.1"
   id="svg12"
   sodipodi:docname="video.svg"
   inkscape:version="1.1.2 (0a00cf5339, 2022-02-04)"
   xmlns:inkscape="http://www.inkscape.org/namespaces/inkscape"
   xmlns:sodipodi="http://sodipodi.sourceforge.net/DTD/sodipodi-0.dtd"
   xmlns="http://www.w3.org/2000/svg"
   xmlns:svg="http://www.w3.org/2000/svg"
   xmlns:rdf="http://www.w3.org/1999/02/22-rdf-syntax-ns#"
   xmlns:cc="http://creativecommons.org/ns#"
   xmlns:dc="http://purl.org/dc/elements/1.1/">
  <metadata
     id="metadata18">
    <rdf:RDF>
      <cc:Work
         rdf:about="">
        <dc:format>image/svg+xml</dc:format>
        <dc:type
           rdf:resource="http://purl.org/dc/dcmitype/StillImage" />
      </cc:Work>
    </rdf:RDF>
  </metadata>
  <defs
     id="defs16" />
  <sodipodi:namedview
     pagecolor="#ffffff"
     bordercolor="#000000"
     borderopacity="1"
     objecttolerance="10"
     gridtolerance="10"
     guidetolerance="10"
     inkscape:pageopacity="0"
     inkscape:pageshadow="2"
     inkscape:window-width="1920"
     inkscape:window-height="1015"
     id="namedview14"
     showgrid="false"
     inkscape:zoom="6.9384855"
     inkscape:cx="38.769267"
     inkscape:cy="15.060924"
     inkscape:window-x="0"
     inkscape:window-y="0"
     inkscape:window-maximized="1"
     inkscape:current-layer="svg12"
     inkscape:document-rotation="0"
     inkscape:lockguides="false"
     inkscape:showpageshadow="false"
     inkscape:pagecheckerboard="0">
    <inkscape:grid
       type="xygrid"
       id="grid988"
       originx="0"
       originy="-1.3897705e-07" />
  </sodipodi:namedview>
  <g
     id="video-display-brightness"
     transform="translate(32,10.000003)"
     style="fill:#d6dbf1;fill-opacity:1">
    <rect
       style="opacity:0.00100002;fill:#d6dbf1;fill-opacity:1"
       width="32"
       height="32"
       x="-32"
       y="-10.000003"
       id="rect7" />
    <path
       d="m -12.872827,2.9791297 c -0.197095,-0.2695814 -0.197095,-0.6357114 0,-0.9052928 l 0.683208,-0.9292308 c 0.395015,-0.53814795 -0.03844,-1.28906996 -0.702011,-1.21617 l -1.144437,0.1247795 c -0.334047,0.03692853 -0.653223,-0.14793347 -0.787418,-0.4560613 l -0.464599,-1.0539001 c -0.268684,-0.6108854 -1.135386,-0.6108854 -1.40407,0 l -0.464599,1.0539001 c -0.134921,0.30549754 -0.452022,0.48856707 -0.784049,0.4526493 l -1.144425,-0.1247951 c -0.663575,-0.07291101 -1.097041,0.67801756 -0.702022,1.2161699 l 0.683256,0.9292207 c 0.197093,0.2695802 0.197093,0.635707 0,0.9052872 l -0.683256,0.9292086 c -0.39502,0.5381524 0.03845,1.2890811 0.702022,1.21617 l 1.144425,-0.1246301 c 0.332029,-0.035917 0.64913,0.1471555 0.784049,0.4526555 l 0.464599,1.0539 c 0.268684,0.6108854 1.135386,0.6108854 1.40407,0 l 0.464599,-1.0539 c 0.134913,-0.3054813 0.451988,-0.4885498 0.784,-0.4526555 l 1.144436,0.1246301 c 0.66357,0.0729 1.097026,-0.678022 0.702011,-1.21617 z m -1.516828,-3.86204198 z m -5.336116,3.67756268 z m 7.480655,-0.5192818 z m -5.844281,-2.86105052 z m 0.473135,6.48737912 z m 3.834711,-0.3467493 z"
       id="path4"
       style="fill:#ffeeaa;fill-opacity:1;stroke-width:0.170814"
       sodipodi:nodetypes="ccccccccccccccccccccccccccccccccccccccccccccccccccccccc" />
    <path
       d="m -4.013179,-6.0000029 h -24.076338 c -0.887911,0 -1.610483,0.7225716 -1.610483,1.6104833 V 13.053161 c 0,0.887912 0.722572,1.610483 1.610483,1.610483 h 8.861528 c -0.276505,0.895651 -0.92696,2.350644 -2.238072,2.350644 v 0.985709 h 10.829427 v -0.985709 c -1.311112,0 -1.961567,-1.454993 -2.238072,-2.350644 h 8.861527 c 0.887912,0 1.610483,-0.722571 1.610483,-1.610483 V -4.3898714 c 0,-0.8879117 -0.722571,-1.6101315 -1.610483,-1.6101315 z M -3.72999,13.052809 c 0,0.156194 -0.126995,0.283189 -0.283541,0.283189 h -24.075986 c -0.156193,0 -0.28354,-0.126995 -0.28354,-0.283189 V 10.743676 H -3.72999 Z m 0,-3.6364269 H -28.372706 V -4.3898714 c 0,-0.1561937 0.126996,-0.283189 0.283541,-0.283189 h 24.075986 c 0.156194,0 0.283541,0.1269953 0.283541,0.283189 V 9.4163821 Z"
       id="path2"
       style="fill:#d6dbf1;fill-opacity:1;stroke-width:0.351788" />
  </g>
  <g
     id="22-22-video-display-brightness"
     transform="translate(32,10.000003)"
     style="fill:#d6dbf1;fill-opacity:1">
    <g
       id="g893"
       style="fill:#d6dbf1;fill-opacity:1">
      <rect
         style="opacity:0.00100002;fill:#d6dbf1;fill-opacity:1"
         width="22"
         height="22"
         x="0"
         y="-1.3897704e-07"
         id="rect2" />
      <path
         d="m 12.876301,8.9584745 c -0.118258,-0.1617492 -0.118258,-0.3814281 0,-0.5431773 L 13.286233,7.8577655 C 13.523244,7.534875 13.263166,7.0843191 12.865022,7.1280635 l -0.686661,0.074833 c -0.200428,0.02216 -0.391935,-0.088755 -0.472454,-0.273631 l -0.278761,-0.63234 c -0.161212,-0.3665282 -0.681228,-0.3665282 -0.84244,0 l -0.278761,0.63234 C 10.224996,7.1125648 10.034738,7.2224096 9.835522,7.2008632 L 9.1488693,7.1260192 C 8.7507216,7.0822674 8.490637,7.5328277 8.727651,7.8557212 l 0.4099485,0.5575274 c 0.1182569,0.1617488 0.1182569,0.3814264 0,0.5431752 L 8.727651,9.513949 C 8.4906385,9.8368423 8.750723,10.287401 9.1488693,10.24365 L 9.835522,10.16888 c 0.199215,-0.02155 0.389472,0.08829 0.470423,0.271591 l 0.278761,0.632341 c 0.161212,0.366528 0.681228,0.366528 0.84244,0 l 0.278761,-0.632341 c 0.08095,-0.183289 0.271196,-0.29313 0.470404,-0.271591 l 0.68666,0.07477 c 0.398141,0.04374 0.658216,-0.4068093 0.42121,-0.729699 z M 8.7645438,8.4767904 Z m 4.4885482,0.059433 z"
         id="path4-5"
         style="fill:#ffeeaa;fill-opacity:1;stroke-width:0.102486"
         sodipodi:nodetypes="ccccccccccccccccccccccccccccccccccc" />
      <path
         d="M 19.124557,2.999997 H 3.073661 C 2.481714,2.999997 2,3.481711 2,4.073658 v 11.628448 c 0,0.591942 0.481714,1.073656 1.073661,1.073656 h 5.907686 c -0.184343,0.597101 -0.617976,1.567095 -1.492048,1.567095 v 0.65714 h 7.219609 v -0.65714 c -0.874072,0 -1.307708,-0.969994 -1.492038,-1.567095 h 5.907687 c 0.591936,0 1.073642,-0.481714 1.073642,-1.073656 V 4.07341 c 0,-0.591931 -0.481706,-1.073413 -1.073642,-1.073413 z m 0.188789,12.701875 c 0,0.104129 -0.08464,0.188792 -0.189037,0.188792 H 3.073661 c -0.104141,0 -0.189038,-0.08467 -0.189038,-0.188792 V 14.16245 h 16.428723 z m 0,-2.424285 H 2.88487 V 4.07341 c 0,-0.104115 0.08463,-0.188791 0.189014,-0.188791 h 16.050673 c 0.104125,0 0.189012,0.08465 0.189012,0.188791 v 9.204178 z"
         id="path2-3"
         style="fill:#d6dbf1;fill-opacity:1;stroke-width:0.234519" />
    </g>
  </g>
</svg>
