<?xml version="1.0" encoding="UTF-8" standalone="no"?>
<svg
   version="1.1"
   id="svg2"
   viewBox="0 0 22 22"
   sodipodi:docname="video-card.svg"
   inkscape:version="1.2.1 (9c6d41e410, 2022-07-14)"
   xmlns:inkscape="http://www.inkscape.org/namespaces/inkscape"
   xmlns:sodipodi="http://sodipodi.sourceforge.net/DTD/sodipodi-0.dtd"
   xmlns="http://www.w3.org/2000/svg"
   xmlns:svg="http://www.w3.org/2000/svg"
   xmlns:rdf="http://www.w3.org/1999/02/22-rdf-syntax-ns#"
   xmlns:cc="http://creativecommons.org/ns#"
   xmlns:dc="http://purl.org/dc/elements/1.1/">
  <sodipodi:namedview
     pagecolor="#ffffff"
     bordercolor="#000000"
     borderopacity="1"
     objecttolerance="10"
     gridtolerance="10"
     guidetolerance="10"
     inkscape:pageopacity="0"
     inkscape:pageshadow="2"
     inkscape:window-width="1920"
     inkscape:window-height="1002"
     id="namedview10"
     showgrid="false"
     inkscape:zoom="20.184686"
     inkscape:cx="17.587591"
     inkscape:cy="11.64249"
     inkscape:window-x="0"
     inkscape:window-y="0"
     inkscape:window-maximized="1"
     inkscape:current-layer="svg2"
     inkscape:document-rotation="0"
     inkscape:showpageshadow="false"
     inkscape:pagecheckerboard="0"
     inkscape:lockguides="false"
     inkscape:deskcolor="#d1d1d1">
    <inkscape:grid
       type="xygrid"
       id="grid877" />
  </sodipodi:namedview>
  <metadata
     id="metadata12">
    <rdf:RDF>
      <cc:Work
         rdf:about="">
        <dc:format>image/svg+xml</dc:format>
        <dc:type
           rdf:resource="http://purl.org/dc/dcmitype/StillImage" />
      </cc:Work>
    </rdf:RDF>
  </metadata>
  <defs
     id="defs3051">
    <style
       type="text/css"
       id="current-color-scheme" />
  </defs>
  <g
     id="22-22-video-card-inactive">
    <g
       id="g1821">
      <path
         id="path7"
         style="fill:none"
         d="M 0,0 V 22 H 22 V 0 Z" />
      <path
         d="M 19.2,6 H 4 V 3.6 C 4,3 4,3 3,3 H 1.8000122 C 1.5789124,3 1.4,3.2789377 1.4,3.5 1.4,3.7210998 1.5789124,4 1.8000122,4 H 2.599999 C 2.8203114,4 3.0000112,3.9792742 3.0000112,4.199999 V 6.599997 7.0000092 L 2,7 C 1,7 1,7 1,8 v 2 c 0,1 0,1 1,1 L 3.0000112,10.999981 3,12 H 2 c -1,0 -1,0 -1,1 v 2 c 0,1 0,1 1,1 h 1 v 0 l 1.12e-5,2.599987 C 3.0000122,18.821087 3.2789002,19 3.5,19 3.7210998,19 4,18.821087 4,18.599987 V 17 h 1 v 1 c 0,0 0,1 1,1 h 6 c 1,0 1,-1 1,-1 v -1 h 1 v 1 c 0,1 1,1 1,1 h 1 2 c 0,0 1,0 1,-1 v -1 c 0.882037,0 2,-1.11756 2,-2.00001 V 7.6 C 20.999888,6.7175507 20.082037,6 19.2,6 Z M 3.0000112,14.99999 2,15 v -2 h 1 l -2.63e-5,1.99999 z M 3,10 H 2 V 8 h 1 z m 9,8 H 6 v -1 h 6 z m 5,0 h -2 v -1 h 3 v 1 z m 3,-3.00001 C 20,15.44099 19.441375,16 19,16 H 4 V 7 l 15.1,-2.83e-5 C 19.541413,6.9999709 20,7.2590004 20,7.7 Z"
         id="path2"
         style="fill:#d6dbf1;fill-opacity:1;stroke-width:0.0375"
         sodipodi:nodetypes="scscsssssccccccccccscccsssccccccccscccccscsccccccccccccccccccccccscsccss" />
      <path
         d="M 17.8,8 H 9 c -1.9851734,0 -3.5999907,1.5148646 -3.5999907,3.5 0,1.985136 1.6148612,3.511928 3.5999971,3.511928 h 8.8000056 c 0.2211,0 0.400012,-0.178913 0.400012,-0.400013 V 8.412 C 18.199987,8.1909376 18.0211,8 17.8,8 Z M 17,14 H 9 C 7.4562388,14 6.4,13.043761 6.4,11.5 6.4,9.9562762 7.4562388,9 9,9 h 8 z"
         id="path4"
         style="fill:#bf616a;fill-opacity:1;stroke-width:0.0375"
         sodipodi:nodetypes="sssssscscssscc" />
      <path
         d="m 6.999983,11.549985 c 0,1.102725 0.8968868,1.999986 1.9999859,1.999986 1.1031371,0 2.0000231,-0.897261 2.0000231,-1.999986 C 10.999992,10.447261 10.103106,9.55 9.0000064,9.55 7.8968698,9.5499625 6.999983,10.447224 6.999983,11.549985 Z m 3.200022,0 c 0,0.661725 -0.5382741,1.2 -1.1999986,1.2 -0.6617245,0 -1.199999,-0.538275 -1.199999,-1.2 0,-0.661724 0.5382745,-1.199999 1.199999,-1.199999 0.6617245,0 1.1999986,0.538275 1.1999986,1.199999 z"
         id="path6"
         style="fill:#bf616a;fill-opacity:1;stroke-width:0.0375" />
      <path
         d="m 12.105301,10.99406 h 3.789442 c 0.279279,0 0.505257,-0.2789 0.505257,-0.5 0,-0.2211 -0.22598,-0.500876 -0.505257,-0.5 l -3.789465,0.01188 C 11.825993,10.006816 11.6,10.27296 11.6,10.49406 c 4.8e-5,0.221138 0.22607,0.5 0.505301,0.5 z"
         id="path10-3"
         style="fill:#bf616a;fill-opacity:1;stroke-width:0.0421463"
         sodipodi:nodetypes="ssssscs" />
      <path
         d="m 12,13 h 4 c 0.2211,0 0.4,-0.2789 0.4,-0.5 C 16.4,12.2789 16.2211,12 16,12 h -4 c -0.2211,0 -0.4,0.2789 -0.4,0.5 3.8e-5,0.2211 0.17894,0.5 0.4,0.5 z"
         id="path12"
         style="fill:#bf616a;fill-opacity:1;stroke-width:0.0375"
         sodipodi:nodetypes="ssssscs" />
    </g>
  </g>
</svg>
