<?xml version="1.0" encoding="UTF-8" standalone="no"?>
<svg
   width="32"
   height="32"
   version="1.1"
   style="enable-background:new"
   id="svg43"
   sodipodi:docname="view.svg"
   inkscape:version="1.1.1 (3bf5ae0d25, 2021-09-20)"
   xmlns:inkscape="http://www.inkscape.org/namespaces/inkscape"
   xmlns:sodipodi="http://sodipodi.sourceforge.net/DTD/sodipodi-0.dtd"
   xmlns:xlink="http://www.w3.org/1999/xlink"
   xmlns="http://www.w3.org/2000/svg"
   xmlns:svg="http://www.w3.org/2000/svg"
   xmlns:rdf="http://www.w3.org/1999/02/22-rdf-syntax-ns#"
   xmlns:cc="http://creativecommons.org/ns#"
   xmlns:dc="http://purl.org/dc/elements/1.1/">
  <g
     id="view-history">
    <rect
       width="32"
       height="32"
       x="0"
       y="0"
       style="opacity:0.00100002"
       id="rect14" />
    <path
       d="M 6.2654686,4.1114522 C 6.1232659,4.1647144 5.9200435,4.2891639 5.8186975,4.3780285 5.6258204,4.5557389 5.3615786,4.9408934 5.310905,5.1306876 5.280396,5.2371921 5.219641,5.2433858 4.391893,5.2433858 c -0.9954218,0 -1.1782145,0.047357 -1.3100721,0.3495521 -0.1016109,0.2250827 -0.1016109,0.3792735 0,0.6043573 0.1270797,0.2962984 0.3199575,0.3495508 1.2644399,0.3495508 h 0.8378291 v 8.699732 c 0,7.834381 0.010077,8.729157 0.081192,8.983961 0.1066526,0.355432 0.5077916,0.871242 0.8227082,1.054842 l 0.2387725,0.136224 4.1639454,0.02977 4.163932,0.02977 0.228431,0.148303 c 0.279362,0.1836 0.507797,0.551104 0.543335,0.877131 l 0.03037,0.248926 h -4.925754 c -4.1994958,0 -4.9611836,-0.0117 -5.2100384,-0.0889 C 4.8842945,26.536184 4.5744195,26.275495 4.3409527,25.84885 4.0565472,25.339236 4.0666283,25.659059 4.0666283,16.610087 c 0,-6.340818 -0.015132,-8.3734087 -0.061005,-8.4919871 -0.071113,-0.1904124 -0.284418,-0.3266405 -0.5027627,-0.3266405 -0.1116927,0 -0.2082639,0.059169 -0.3300374,0.2015544 L 3.0001096,8.1945647 v 8.4981843 c 0,9.327621 -0.015123,8.853612 0.3098751,9.600389 0.2082621,0.486096 0.736218,1.102215 1.1527444,1.345258 0.6499957,0.385154 -0.1016113,0.361316 11.5372699,0.361316 11.669402,0 10.907713,0.0238 11.547621,-0.367511 0.396102,-0.24304 0.929363,-0.865042 1.137365,-1.327294 0.330034,-0.735025 0.314908,-0.254804 0.314908,-9.618043 V 8.1948641 L 28.827183,7.9933098 C 28.578325,7.7028913 28.24829,7.7267338 28.0249,8.0524788 c -0.08128,0.1185785 -0.09157,0.6517296 -0.09157,8.5099422 0,9.096657 0.01001,8.776522 -0.274324,9.28613 -0.233467,0.426654 -0.543344,0.687342 -0.980026,0.817683 -0.248858,0.0771 -1.01055,0.0889 -5.205006,0.0889 h -4.915545 v -0.148308 c 0,-0.201554 0.13212,-0.556984 0.269017,-0.728816 0.162638,-0.207445 0.441732,-0.35543 0.741522,-0.403124 0.472245,-0.07113 0.700672,-0.444593 0.543347,-0.883007 -0.08629,-0.230958 -0.304571,-0.385151 -0.548372,-0.385151 -0.431664,0 -1.010558,0.27865 -1.386231,0.663801 L 16,25.048252 15.822258,24.870528 c -0.263985,-0.272754 -0.578906,-0.468125 -0.913975,-0.569054 -0.258936,-0.08299 -0.847921,-0.09474 -4.306153,-0.09474 H 6.5955087 L 6.422796,24.005171 6.2500827,23.803621 v -9.031338 c 0,-8.8418476 0,-9.031328 0.1016121,-9.2149183 C 6.4127102,5.4328941 6.5143253,5.3440384 6.6411411,5.302546 6.7783029,5.255191 7.991803,5.24338 10.744066,5.255191 c 3.889888,0.017635 3.910052,0.017635 4.113283,0.1483114 0.25388,0.1600611 0.40618,0.3436613 0.507786,0.6223113 0.06614,0.1956743 0.07627,1.1437032 0.07627,8.2845513 0,6.945486 0.01,8.095068 0.07627,8.272782 0.16263,0.462251 0.741522,0.474011 0.944479,0.0238 0.09129,-0.195676 0.09631,-0.53346 0.09631,-8.284551 0,-7.152926 0.01001,-8.1009552 0.07627,-8.2966294 0.10161,-0.2786466 0.253894,-0.4622469 0.507793,-0.6223088 0.203222,-0.1303477 0.223388,-0.1303477 4.113271,-0.1483107 2.752259,-0.01172 3.966024,0 4.102919,0.047357 0.127085,0.041443 0.228434,0.1303476 0.289451,0.2548157 0.101613,0.1835939 0.101613,0.3733878 0.101613,9.2090442 v 9.025443 l -0.147253,0.189793 -0.147242,0.195676 -2.95549,0.02977 -2.955486,0.02977 -0.147243,0.195678 c -0.218345,0.284523 -0.187841,0.663803 0.07627,0.912731 0.09657,0.09474 0.34012,0.106504 3.082298,0.106504 3.458237,0 3.285524,0.0238 3.778199,-0.556993 0.528216,-0.628197 0.482318,0.314256 0.482318,-9.653648 V 6.5474653 h 0.83783 c 0.944485,0 1.137627,-0.05326 1.264441,-0.349552 0.101613,-0.2250829 0.101613,-0.3792743 0,-0.6043571 C 28.785797,5.2913775 28.603003,5.2440043 27.617931,5.2440043 H 26.739507 L 26.617725,4.9774294 C 26.470483,4.645527 26.170952,4.3256985 25.85603,4.1538681 25.622569,4.0294001 25.587016,4.0294001 21.48887,4.01176 17.822638,4.000037 17.319878,4.00622 17.071033,4.094743 16.746036,4.2012484 16.426066,4.4028026 16.177214,4.663803 L 15.99946,4.8415237 15.821715,4.6638038 C 15.557732,4.3913485 15.242803,4.1956742 14.907741,4.0947445 14.648806,4.01176 14.059815,4 10.566038,4 6.8239259,4.00461 6.5092752,4.010524 6.265461,4.111462 Z"
       id="path4-3"
       style="fill:url(#linearGradient865);fill-opacity:1;stroke-width:0.00286605" />
    <path
       d="m 7.6315184,9.124967 c -0.198181,0.1006246 -0.3350783,0.4325265 -0.2894456,0.681454 0.01513,0.08889 0.1016109,0.237156 0.1827937,0.331901 l 0.1522843,0.171832 2.7777332,0.01763 c 1.883924,0.01172 2.838745,0 2.965555,-0.04736 0.401152,-0.136229 0.528244,-0.6579165 0.248854,-1.0192366 L 13.522062,9.0655209 10.658106,9.0537969 c -2.3970205,-0.011818 -2.8846498,0 -3.0265876,0.07117 z"
       id="path6-6"
       style="fill:url(#linearGradient1223);fill-opacity:1;stroke-width:0.00286605" />
    <path
       d="m 18.508443,9.0952433 c -0.177742,0.082982 -0.324998,0.3495512 -0.324998,0.5925987 0,0.284529 0.152292,0.509613 0.396108,0.592588 0.12708,0.04736 1.081644,0.05917 2.965565,0.04736 l 2.777728,-0.01763 0.152288,-0.17183 C 24.66801,9.919126 24.708604,9.699921 24.6123,9.4271523 24.470093,9.0302378 24.510685,9.0361178 21.397874,9.0419978 c -1.528416,0 -2.833434,0.02354 -2.889431,0.05326 z"
       id="path8-7"
       style="fill:url(#linearGradient1231);fill-opacity:1;stroke-width:0.00286605" />
    <path
       d="m 7.5299076,12.384239 c -0.192876,0.189795 -0.2438142,0.426634 -0.1422031,0.699399 0.147244,0.414885 0.055728,0.403126 3.2600545,0.385161 l 2.874042,-0.01767 0.147232,-0.195671 c 0.208262,-0.26657 0.208262,-0.604356 0,-0.847398 L 13.521801,12.236251 H 10.602128 7.6821919 Z"
       id="path10"
       style="fill:url(#linearGradient1255);fill-opacity:1;stroke-width:0.00286605" />
    <path
       d="m 18.330968,12.407769 c -0.20826,0.243045 -0.20826,0.580828 0,0.847405 l 0.147235,0.195665 2.874307,0.01767 c 3.204342,0.01767 3.112807,0.02977 3.260057,-0.385153 0.101612,-0.272467 0.05068,-0.509627 -0.142209,-0.699418 l -0.152282,-0.147985 h -2.920202 -2.919938 z"
       id="path12"
       style="fill:url(#linearGradient1239);fill-opacity:1;stroke-width:0.00286605" />
    <path
       d="m 7.5755399,15.471662 c -0.06607,0.0533 -0.1522845,0.189485 -0.1928759,0.30218 -0.091266,0.254822 -0.02016,0.551106 0.1727129,0.728833 0.1270799,0.118569 0.198182,0.118569 2.9960771,0.118569 2.01099,0 2.899505,-0.01767 2.975645,-0.065 0.187852,-0.112695 0.289451,-0.308065 0.289451,-0.556995 0,-0.248926 -0.101599,-0.444595 -0.289451,-0.556981 -0.07627,-0.04733 -0.964913,-0.0654 -2.970604,-0.0654 -2.5646936,0 -2.8743031,0.0117 -2.9809551,0.09475 z"
       id="path14"
       style="fill:url(#linearGradient1263);fill-opacity:1;stroke-width:0.00286605" />
    <path
       d="m 18.427267,15.471662 c -0.355505,0.219206 -0.325003,0.859174 0.04564,1.084571 0.07119,0.04147 0.59932,0.065 1.589426,0.065 1.538759,0 1.619942,-0.0117 1.787616,-0.260689 0.187841,-0.266582 0.08129,-0.752668 -0.198182,-0.918623 -0.07627,-0.04149 -0.599059,-0.06539 -1.59952,-0.06539 -1.213489,0.0067 -1.513279,0.0238 -1.624986,0.09503 z"
       id="path16"
       style="fill:url(#linearGradient1247);fill-opacity:1;stroke-width:0.00286605" />
    <path
       d="m 7.5906623,18.630305 c -0.1827953,0.13035 -0.2944881,0.444297 -0.2438147,0.681458 0.01513,0.08294 0.1016114,0.219206 0.1827949,0.30218 l 0.1522839,0.148301 h 1.5438041 c 1.3100705,0 1.5639665,-0.0117 1.6655785,-0.0889 0.269017,-0.207438 0.294486,-0.717055 0.05068,-0.983627 l -0.132123,-0.142105 -1.5284165,-0.01763 c -1.4419274,-0.0124 -1.5435385,-0.0067 -1.6907818,0.10031 z"
       id="path18"
       style="fill:url(#linearGradient1271);fill-opacity:1;stroke-width:0.00286605" />
  </g>
  <metadata
     id="metadata47">
    <rdf:RDF>
      <cc:Work
         rdf:about="">
        <dc:format>image/svg+xml</dc:format>
        <dc:type
           rdf:resource="http://purl.org/dc/dcmitype/StillImage" />
      </cc:Work>
    </rdf:RDF>
  </metadata>
  <sodipodi:namedview
     pagecolor="#ffffff"
     bordercolor="#000000"
     borderopacity="1"
     objecttolerance="10"
     gridtolerance="10"
     guidetolerance="10"
     inkscape:pageopacity="0"
     inkscape:pageshadow="2"
     inkscape:window-width="1920"
     inkscape:window-height="1007"
     id="namedview45"
     showgrid="false"
     inkscape:zoom="8.0000001"
     inkscape:cx="18.125"
     inkscape:cy="13.9375"
     inkscape:window-x="0"
     inkscape:window-y="0"
     inkscape:window-maximized="1"
     inkscape:current-layer="svg43"
     inkscape:lockguides="true"
     inkscape:document-rotation="0"
     inkscape:pagecheckerboard="0">
    <inkscape:grid
       type="xygrid"
       id="grid833"
       originx="0"
       originy="0" />
  </sodipodi:namedview>
  <defs
     id="defs4">
    <linearGradient
       inkscape:collect="always"
       id="linearGradient863">
      <stop
         style="stop-color:#aa87de;stop-opacity:1"
         offset="0"
         id="stop859" />
      <stop
         style="stop-color:#9fffff;stop-opacity:1"
         offset="1"
         id="stop861" />
    </linearGradient>
    <linearGradient
       id="linearGradient5606"
       inkscape:swatch="solid">
      <stop
         id="stop5608"
         offset="0"
         style="stop-color:#000000" />
    </linearGradient>
    <linearGradient
       inkscape:collect="always"
       xlink:href="#linearGradient863"
       id="linearGradient865"
       x1="0.89999998"
       y1="16.000002"
       x2="31.242046"
       y2="16.000002"
       gradientUnits="userSpaceOnUse"
       gradientTransform="matrix(0.85689673,0,0,1,2.228793,0)" />
    <linearGradient
       inkscape:collect="always"
       xlink:href="#linearGradient863"
       id="linearGradient1223"
       x1="5.9569259"
       y1="9.6909065"
       x2="13.526027"
       y2="9.6909065"
       gradientUnits="userSpaceOnUse"
       gradientTransform="matrix(0.85689673,0,0,1,2.228793,0)" />
    <linearGradient
       inkscape:collect="always"
       xlink:href="#linearGradient863"
       id="linearGradient1231"
       x1="18.619114"
       y1="9.6863127"
       x2="26.180128"
       y2="9.6863127"
       gradientUnits="userSpaceOnUse"
       gradientTransform="matrix(0.85689673,0,0,1,2.228793,0)" />
    <linearGradient
       inkscape:collect="always"
       xlink:href="#linearGradient863"
       id="linearGradient1239"
       x1="18.608976"
       y1="12.85552"
       x2="26.181595"
       y2="12.85552"
       gradientUnits="userSpaceOnUse"
       gradientTransform="matrix(0.85689673,0,0,1,2.228793,0)" />
    <linearGradient
       inkscape:collect="always"
       xlink:href="#linearGradient863"
       id="linearGradient1247"
       x1="18.611628"
       y1="15.998882"
       x2="23.007971"
       y2="15.998882"
       gradientUnits="userSpaceOnUse"
       gradientTransform="matrix(0.85689673,0,0,1,2.228793,0)" />
    <linearGradient
       inkscape:collect="always"
       xlink:href="#linearGradient863"
       id="linearGradient1255"
       x1="5.9607544"
       y1="12.855868"
       x2="13.533072"
       y2="12.855868"
       gradientUnits="userSpaceOnUse"
       gradientTransform="matrix(0.85689673,0,0,1,2.228793,0)" />
    <linearGradient
       inkscape:collect="always"
       xlink:href="#linearGradient863"
       id="linearGradient1263"
       x1="5.9685655"
       y1="15.999056"
       x2="13.522928"
       y2="15.999056"
       gradientUnits="userSpaceOnUse"
       gradientTransform="matrix(0.85689673,0,0,1,2.228793,0)" />
    <linearGradient
       inkscape:collect="always"
       xlink:href="#linearGradient863"
       id="linearGradient1271"
       x1="5.9585028"
       y1="19.143776"
       x2="10.364404"
       y2="19.143776"
       gradientUnits="userSpaceOnUse"
       gradientTransform="matrix(0.85689673,0,0,1,2.228793,0)" />
  </defs>
  <g
     id="layer12-0"
     transform="translate(-453.06171,-24.01758)" />
  <g
     id="g40" />
  <g
     id="view-refresh"
     transform="translate(32,16)">
    <path
       d="M 0,0 H 16 V 16 H 0 Z"
       style="opacity:0;fill:#ff0000"
       id="path6" />
    <path
       d="M 7.4734377,2 C 6.7259493,2.001818 5.9840078,2.1293054 5.280556,2.3771223 5.1362071,2.4277883 5.0496009,2.5722313 5.0749347,2.7205198 c 0.025154,0.148059 0.1550962,0.2572937 0.3083518,0.2592681 2.9908949,0.042445 5.3707045,2.2727345 5.7145175,5.1114159 H 9.5289657 c -0.1282139,1.32e-4 -0.2436844,0.075674 -0.2927868,0.1914905 -0.048925,0.1161435 -0.021819,0.2493965 0.068605,0.3382973 l 3.0770751,3.0134904 c 0.123836,0.121079 0.324495,0.121079 0.44832,0 L 15.90728,8.6209916 C 15.99785,8.5321574 16.024872,8.3985741 15.97589,8.2826943 15.92675,8.1665499 15.811319,8.0912038 15.683103,8.0912038 H 13.94717 C 13.77212,4.7117128 10.96859,2.0002302 7.4747883,2.0002302 h -0.0018 z m 0.0018,0.6208596 6.2195153,6.0908099 v 0 l 0.252435,-0.6204657 v 0 0 0 0 0 0 0 z m -4.086222,1.6540802 c -0.082316,0.00137 -0.1608916,0.033893 -0.2192036,0.09081 L 0.09272883,7.3792376 c -0.0905651,0.088836 -0.11760019,0.2224168 -0.0686322,0.3382977 0.0491029,0.1161446 0.16457874,0.1914899 0.29278978,0.1914899 H 2.0528261 C 2.2275943,11.28865 5.0312539,14.000362 8.5252062,14 9.2742501,14 10.016758,13.86938 10.719347,13.621663 h 1.52e-4 c 0.144351,-0.05074 0.230949,-0.19511 0.205622,-0.343433 -0.02516,-0.148057 -0.155094,-0.257293 -0.30836,-0.259268 C 7.6257602,12.976516 5.2460488,10.747378 4.902256,7.9089934 H 6.471083 C 6.5992984,7.9088286 6.7147673,7.8333178 6.7638701,7.7175046 6.8128488,7.6013599 6.7858253,7.4681069 6.6952478,7.3792065 L 3.6181637,4.3657161 C 3.5574517,4.3061634 3.4748188,4.2735907 3.3890573,4.2749059 Z m 0.0054,0.7493415 v 9.91e-5 0 0 0 0 0 0 0 0 0 0 z"
       id="path2-36"
       sodipodi:nodetypes="ccccccccccccccscccccccccccccccccccccccccccccsccccccccccccccc"
       style="fill:#d6dbf1;fill-opacity:1;stroke:none;stroke-width:0.0358517;stroke-opacity:1" />
  </g>
</svg>
