<?xml version="1.0" encoding="UTF-8" standalone="no"?>
<svg
   width="32"
   height="32"
   version="1.1"
   id="svg22"
   sodipodi:docname="wallet.svg"
   inkscape:version="1.1.1 (3bf5ae0d25, 2021-09-20)"
   xmlns:inkscape="http://www.inkscape.org/namespaces/inkscape"
   xmlns:sodipodi="http://sodipodi.sourceforge.net/DTD/sodipodi-0.dtd"
   xmlns="http://www.w3.org/2000/svg"
   xmlns:svg="http://www.w3.org/2000/svg"
   xmlns:rdf="http://www.w3.org/1999/02/22-rdf-syntax-ns#"
   xmlns:cc="http://creativecommons.org/ns#"
   xmlns:dc="http://purl.org/dc/elements/1.1/">
  <metadata
     id="metadata28">
    <rdf:RDF>
      <cc:Work
         rdf:about="">
        <dc:format>image/svg+xml</dc:format>
        <dc:type
           rdf:resource="http://purl.org/dc/dcmitype/StillImage" />
      </cc:Work>
    </rdf:RDF>
  </metadata>
  <defs
     id="defs26" />
  <sodipodi:namedview
     pagecolor="#ffffff"
     bordercolor="#000000"
     borderopacity="1"
     objecttolerance="10"
     gridtolerance="10"
     guidetolerance="10"
     inkscape:pageopacity="0"
     inkscape:pageshadow="2"
     inkscape:window-width="1920"
     inkscape:window-height="1013"
     id="namedview24"
     showgrid="false"
     inkscape:zoom="5.6568543"
     inkscape:cx="38.183766"
     inkscape:cy="19.003495"
     inkscape:window-x="0"
     inkscape:window-y="0"
     inkscape:window-maximized="1"
     inkscape:current-layer="svg22"
     inkscape:document-rotation="0"
     inkscape:lockguides="false"
     inkscape:showpageshadow="false"
     inkscape:pagecheckerboard="0">
    <inkscape:grid
       type="xygrid"
       id="grid930"
       originx="-0.032002"
       originy="-0.09832" />
  </sodipodi:namedview>
  <g
     id="g871"
     transform="translate(9.967998,-22.09832)" />
  <g
     id="wallet-closed"
     style="fill:#d6dbf1;fill-opacity:1">
    <rect
       style="opacity:0.00100002;fill:#d6dbf1;fill-opacity:1"
       width="32"
       height="32"
       x="32.09"
       y="-0.041000001"
       id="rect12-5" />
    <path
       d="m 56.955982,18.079047 c 0,1.114086 0,2.222966 0,3.337053 0,0.380038 0.0833,0.911051 -0.06768,1.270266 -0.166592,0.390451 -0.536219,0.546631 -0.92667,0.546631 -1.848133,0.0052 -3.701473,0 -5.549607,0 -2.842481,0 -5.679756,0 -8.522238,0 -0.994348,0 -1.988696,0 -2.983044,0 -0.541425,0 -1.259854,0.119738 -1.608657,-0.395657 -0.166592,-0.244682 -0.150974,-0.510189 -0.150974,-0.791313 0,-0.374833 0,-0.749666 0,-1.124498 0,-1.280679 0,-2.561357 0,-3.842036 0,-2.368734 0,-4.737469 0,-7.1009974 0,-0.2863306 -0.01041,-0.5570431 0.171798,-0.8069316 0.213447,-0.2967425 0.536219,-0.3644207 0.87461,-0.3644207 0.681987,0 1.369181,0 2.051168,0 2.701919,0 5.403838,0 8.105758,0 2.32188,0 4.64376,0 6.965641,0 0.614309,0 1.431653,-0.1041202 1.619069,0.6767813 0.0885,0.3748328 0.02603,0.8277554 0.02603,1.2077944 0,0.708017 0,1.416035 0,2.124052 0,0.385245 0,0.77049 0,1.155734 0,0.671576 1.041202,0.671576 1.041202,0 0,-1.145322 0,-2.285438 0,-3.43076 0,-0.499777 0.05727,-1.0568204 -0.13015,-1.5305673 -0.301949,-0.7704894 -1.025584,-1.2390303 -1.848134,-1.2442364 -1.822103,-0.015618 -3.644207,0 -5.46631,0 -2.915366,0 -5.835937,0 -8.751303,0 -0.994348,0 -1.993902,0 -2.98825,0 -0.229064,0 -0.458129,0 -0.687193,0 -0.671575,0 -1.270267,0.2759186 -1.671129,0.8277556 -0.484159,0.6715753 -0.354009,1.6398931 -0.354009,2.4207951 0,1.296296 0,2.592593 0,3.894095 0,2.405177 0,4.810353 0,7.21553 0,0.520601 0.09891,1.00476 0.432099,1.426447 0.395657,0.494571 0.97873,0.718429 1.593039,0.718429 0.661163,0 1.322326,0 1.98349,0 2.759185,0 5.51837,0 8.282762,0 2.34791,0 4.695821,0 7.043731,0 0.192622,0 0.390451,0 0.583073,0 0.843374,-0.0052 1.582627,-0.510189 1.868958,-1.311914 0.166592,-0.463335 0.10412,-1.025584 0.10412,-1.504537 0,-0.728842 0,-1.452477 0,-2.181319 0,-0.400862 0,-0.796519 0,-1.197382 0,-0.666369 -1.041202,-0.666369 -1.041202,0.0052 z"
       id="path2"
       style="fill:#d6dbf1;fill-opacity:1;stroke-width:0.0520601" />
    <path
       d="m 59.574605,17.558446 c -2.066786,0 -4.133572,0.02082 -6.195152,0 -0.744459,-0.01041 -1.390005,-0.504983 -1.535773,-1.249442 -0.161386,-0.843374 0.442511,-1.686747 1.291091,-1.806486 0.322772,-0.04685 0.676781,-0.01041 0.999554,-0.01041 0.655957,0 1.311914,0 1.962665,0 1.155735,0 2.316675,0 3.472409,0 -0.171798,-0.171798 -0.348803,-0.348802 -0.520601,-0.520601 0,1.369181 0,2.738362 0,4.107542 0,0.671575 1.041202,0.671575 1.041202,0 0,-1.36918 0,-2.738361 0,-4.107542 0,-0.281124 -0.239476,-0.520601 -0.520601,-0.520601 -1.05682,0 -2.108434,0 -3.165254,0 -0.723635,0 -1.442065,0 -2.1657,0 -0.354009,0 -0.71843,-0.02082 -1.072438,0.01041 -1.166146,0.09891 -2.176112,0.968318 -2.358323,2.144876 -0.177004,1.160941 0.432099,2.316675 1.520155,2.785216 0.499777,0.213446 1.00476,0.213446 1.535773,0.213446 0.650751,0 1.296297,0 1.947048,0 1.249442,0 2.504091,0 3.753533,0 0.681987,-0.0052 0.681987,-1.046408 0.01041,-1.046408 z"
       id="path8"
       style="fill:#d6dbf1;fill-opacity:1;stroke-width:0.0520601" />
    <path
       d="m 53.405483,16.017467 c -0.0052,0.07288 -0.114532,0.07809 -0.114532,0 0.0052,-0.07288 0.114532,-0.07288 0.114532,0 0.01562,0.281125 0.229065,0.520601 0.520601,0.520601 0.270713,0 0.536219,-0.239476 0.520601,-0.520601 -0.03124,-0.593485 -0.478953,-1.098468 -1.098468,-1.098468 -0.598691,0 -1.093262,0.504983 -1.098468,1.098468 -0.0052,0.593485 0.489365,1.072438 1.067232,1.098468 0.629927,0.02603 1.098468,-0.494571 1.129704,-1.098468 0.01562,-0.281124 -0.249888,-0.520601 -0.520601,-0.520601 -0.291536,0 -0.504983,0.239477 -0.520601,0.520601 z"
       id="path16"
       style="fill:#d6dbf1;fill-opacity:1;stroke-width:0.0520601" />
  </g>
  <g
     id="wallet-open"
     style="fill:#d6dbf1;fill-opacity:1">
    <rect
       style="opacity:0.00100002;fill:#d6dbf1;fill-opacity:1"
       width="32"
       height="32"
       x="0"
       y="0"
       id="rect12-5-7" />
    <path
       d="m 11.455148,21.493578 c -2.225704,0 -4.2322744,-1.34001 -5.0839839,-3.395135 -0.8516823,-2.055111 -0.3807682,-4.420586 1.1930456,-5.993528 1.5738213,-1.572944 3.9406023,-2.043599 5.9968523,-1.192389 2.056288,0.851236 3.397026,2.856699 3.397026,5.081168 -0.003,3.036073 -2.465177,5.49645 -5.50294,5.499884 z m 0,-9.866578 C 9.7606028,11.6187 8.2871357,12.388478 7.549,14.1696 c -0.7381253,1.781121 -0.4809795,3.28158 0.634,4.6949 1.1944042,1.513997 3.315187,1.870723 5.097279,1.133 C 15.062381,19.259777 15.824,17.9216 15.824,15.993694 15.821,13.362453 13.749041,11.677976 11.455148,11.627 Z"
       id="path4-27"
       sodipodi:nodetypes="cssscccssscc"
       style="fill:#d6dbf1;fill-opacity:1;stroke-width:0.12225" />
    <path
       d="m 11.560269,15.583182 c 1.344501,0.301817 2.026398,0.901902 2.026398,1.783777 0,0.866068 -0.72946,1.590571 -1.695912,1.757012 V 20.10297 H 11.044177 V 19.123971 C 10.077645,18.957551 9.348103,18.233027 9.348103,17.366949 h 0.846556 c 0,0.513355 0.582891,0.946949 1.272844,0.946949 0.68969,0 1.272605,-0.433594 1.272605,-0.946949 0,-0.161207 0,-0.651699 -1.36543,-0.958065 -1.344709,-0.301824 -2.026575,-0.9019 -2.026575,-1.783781 0,-0.866154 0.729542,-1.590674 1.696074,-1.757117 v -0.98353 h 0.846578 v 0.983527 c 0.966452,0.166444 1.695912,0.890963 1.695912,1.75712 h -0.846559 c 0,-0.513349 -0.582915,-0.947046 -1.272605,-0.947046 -0.689951,0 -1.272844,0.433697 -1.272844,0.947046 0,0.161222 0,0.651744 1.36561,0.958079 z"
       id="path6-0"
       style="fill:#d6dbf1;fill-opacity:1;stroke-width:0.12225" />
    <path
       d="m 25.661728,18.251421 c 0,1.214632 0,2.423582 0,3.638214 0,0.414338 0.09081,0.993272 -0.07383,1.384906 -0.181727,0.425691 -0.584939,0.595966 -1.010865,0.595966 -2.016044,0.0053 -4.037761,0 -6.053804,0 -3.100736,0 -6.19579,0 -9.296527,0 -1.0846882,0 -2.1693772,0 -3.2540662,0 -0.5906157,0 -1.3743174,0.130542 -1.7548102,-0.43136 -0.1817281,-0.266764 -0.1646912,-0.55624 -0.1646912,-0.862729 0,-0.408668 0,-0.817325 0,-1.225983 0,-1.396258 0,-2.792515 0,-4.188773 0,-2.582519 0,-5.165025 0,-7.741861 0,-0.3121675 -0.011357,-0.6073116 0.187407,-0.8797528 0.232839,-0.3235225 0.584937,-0.3973093 0.954072,-0.3973093 0.7439486,0 1.4935764,0 2.2375254,0 2.9474002,0 5.8947962,0 8.8422042,0 2.532827,0 5.065668,0 7.598495,0 0.670124,0 1.561731,-0.1135164 1.766174,0.7378607 0.09659,0.4086596 0.02843,0.9024544 0.02843,1.3167934 0,0.771919 0,1.543831 0,2.315752 0,0.420008 0,0.840017 0,1.260035 0,0.732178 1.135796,0.732178 1.135796,0 0,-1.248684 0,-2.491698 0,-3.740382 0,-0.544879 0.06251,-1.1521984 -0.141972,-1.6687008 -0.329385,-0.840025 -1.118765,-1.3508508 -2.016047,-1.356527 -1.987656,-0.017033 -3.975302,0 -5.962947,0 -3.180249,0 -6.36616,0 -9.546404,0 -1.084687,0 -2.1750551,0 -3.2597438,0 -0.2498759,0 -0.4997514,0 -0.7496281,0 -0.7325906,0 -1.3856757,0.3008203 -1.8229584,0.9024593 -0.5281558,0.7321842 -0.3861809,1.7878855 -0.3861809,2.6392655 0,1.413289 0,2.82657 0,4.245539 0,2.622242 0,5.244481 0,7.866722 0,0.567582 0.1079005,1.095431 0.4713569,1.555183 C 3.8203088,24.755938 4.4563567,25 5.1264788,25 c 0.7212326,0 1.4424654,0 2.1636982,0 3.009874,0 6.019742,0 9.035292,0 2.561226,0 5.122455,0 7.683681,0 0.210126,0 0.425925,0 0.636052,0 0.919995,-0.0053 1.726409,-0.55623 2.038759,-1.430311 0.181728,-0.505155 0.113574,-1.118141 0.113574,-1.640319 0,-0.794625 0,-1.583567 0,-2.378179 0,-0.437039 0,-0.868411 0,-1.305451 0,-0.726507 -1.135796,-0.726507 -1.135796,0.0053 z"
       id="path2-3"
       style="fill:#d6dbf1;fill-opacity:1;stroke-width:0.0567739" />
    <path
       d="m 28.518265,17.683839 c -2.254568,0 -4.509126,0.02275 -6.758012,0 -0.812094,-0.01131 -1.51629,-0.550561 -1.675304,-1.362205 -0.176045,-0.919484 0.482713,-1.838978 1.408392,-1.969522 0.352097,-0.05103 3.231352,-0.01131 3.231352,-0.01131 v 0 l 3.191593,-0.03972 v 0 l 0.02843,3.950388 c 0.0049,0.73217 1.135807,0.732188 1.135807,0 v -4.478248 c 0,-0.306497 -0.26124,-0.567582 -0.567908,-0.567582 h -3.452831 -2.36247 c -0.386169,0 -0.783695,-0.02275 -1.169875,0.01131 -1.272094,0.107836 -2.373817,1.055707 -2.572587,2.338444 -0.193083,1.265719 0.471357,2.525753 1.658274,3.03658 0.545183,0.232711 1.09604,0.232711 1.675303,0.232711 h 2.123945 4.094559 c 0.743952,-0.0053 0.743952,-1.140845 0.01132,-1.140845 z"
       id="path8-2"
       sodipodi:nodetypes="scccccccsssscscccsccs"
       style="fill:#d6dbf1;fill-opacity:1;stroke-width:0.0567739" />
  </g>
  <g
     id="22-22-wallet-open"
     transform="translate(32.016998,-21.92932)"
     style="fill:#d6dbf1;fill-opacity:1">
    <rect
       style="opacity:0.00100002;stroke-width:0.6875;fill:#d6dbf1;fill-opacity:1"
       width="22"
       height="22"
       x="-32.071999"
       y="-0.12958908"
       id="rect12-7" />
    <path
       d="m -15.161345,12.150442 c 0,0.742724 0,1.481977 0,2.224701 0,0.253359 0.05553,0.607368 -0.04512,0.846844 -0.111062,0.260301 -0.357479,0.364421 -0.61778,0.364421 -1.232089,0.0035 -2.467648,0 -3.699737,0 -1.894988,0 -3.786505,0 -5.681492,0 -0.662899,0 -1.325797,0 -1.988696,0 -0.36095,0 -0.839903,0.07982 -1.072438,-0.263771 -0.111061,-0.163122 -0.100649,-0.340126 -0.100649,-0.527542 0,-0.249889 0,-0.499777 0,-0.749666 0,-0.853785 0,-1.707571 0,-2.561357 0,-1.5791557 0,-3.1583119 0,-4.7339975 0,-0.190887 -0.0069,-0.371362 0.114532,-0.5379543 0.142298,-0.1978284 0.357479,-0.2429471 0.583073,-0.2429471 0.454658,0 0.912787,0 1.367445,0 1.80128,0 3.602559,0 5.403838,0 1.54792,0 3.09584,0 4.643761,0 0.409539,0 0.954435,-0.069413 1.079379,0.4511875 0.059,0.2498884 0.01735,0.551837 0.01735,0.8051961 0,0.4720115 0,0.9440231 0,1.4160346 0,0.2568298 0,0.5136596 0,0.7704894 0,0.4477168 0.694135,0.4477168 0.694135,0 0,-0.763548 0,-1.5236254 0,-2.2871735 0,-0.3331846 0.03818,-0.7045466 -0.08677,-1.0203779 -0.201299,-0.5136596 -0.683723,-0.8260201 -1.232089,-0.8294908 -1.214735,-0.010412 -2.429471,0 -3.644206,0 -1.943577,0 -3.890625,0 -5.834202,0 -0.662898,0 -1.329268,0 -1.992166,0 -0.15271,0 -0.305419,0 -0.458129,0 -0.447717,0 -0.846844,0.1839457 -1.114086,0.551837 -0.322773,0.4477168 -0.236006,1.093262 -0.236006,1.6138629 0,0.8641976 0,1.7283952 0,2.5960636 0,1.603451 0,3.206902 0,4.810353 0,0.347067 0.06594,0.66984 0.288066,0.950964 0.263771,0.329714 0.652487,0.478953 1.062026,0.478953 0.440776,0 0.881551,0 1.322326,0 1.839457,0 3.678914,0 5.521841,0 1.565274,0 3.130547,0 4.695821,0 0.128415,0 0.2603,0 0.388715,0 0.562249,-0.0035 1.055085,-0.340126 1.245972,-0.87461 0.111061,-0.30889 0.06941,-0.683722 0.06941,-1.003024 0,-0.485894 0,-0.968318 0,-1.454212 0,-0.267242 0,-0.531013 0,-0.798255 0,-0.444246 -0.694134,-0.444246 -0.694134,0.0035 z"
       id="path2-3-6"
       style="fill:#d6dbf1;fill-opacity:1;stroke-width:0.0347067" />
    <path
       d="m -13.415597,11.803374 c -1.377857,0 -2.755714,0.01388 -4.130101,0 -0.496306,-0.0069 -0.926669,-0.336655 -1.023848,-0.832961 -0.107591,-0.562249 0.295007,-1.1244982 0.860727,-1.2043236 0.215181,-0.031236 1.974813,-0.00694 1.974813,-0.00694 v 0 l 1.950518,-0.024295 v 0 l 0.01735,2.4155886 c 0.0032,0.447705 0.694135,0.447717 0.694135,0 V 9.4120807 c 0,-0.1874163 -0.159651,-0.3470673 -0.347068,-0.3470673 h -2.110169 -1.4438 c -0.236005,0 -0.478953,-0.013883 -0.714958,0.00694 -0.777431,0.065943 -1.450742,0.6455451 -1.572215,1.4299176 -0.118003,0.77396 0.288066,1.54445 1.013436,1.85681 0.333185,0.142298 0.66984,0.142298 1.023849,0.142298 h 1.298032 2.502355 c 0.454658,-0.0035 0.454658,-0.697606 0.0069,-0.697606 z"
       id="path8-2-1"
       sodipodi:nodetypes="scccccccsssscscccsccs"
       style="fill:#d6dbf1;fill-opacity:1;stroke-width:0.0347067" />
    <path
       d="m -23.556223,14.132954 c -1.360217,0 -2.586523,-0.819386 -3.107037,-2.076061 -0.520499,-1.256654 -0.232699,-2.7030923 0.72912,-3.6649273 0.961838,-0.961819 2.408276,-1.249622 3.664938,-0.729119 1.256674,0.520512 2.076053,1.746817 2.076053,3.1070383 -0.0026,1.856499 -1.506571,3.360969 -3.363074,3.363069 z m 0,-6.2777123 c -1.178858,0 -2.241649,0.710127 -2.692761,1.799247 -0.451095,1.0891203 -0.201666,2.3426913 0.631891,3.1762803 0.833596,0.833573 2.087179,1.082995 3.176287,0.631884 1.089115,-0.451091 1.799249,-1.513895 1.799249,-2.692768 -0.0026,-1.6089563 -1.305685,-2.9128363 -2.914666,-2.9146433 z"
       id="path4-27-9"
       sodipodi:nodetypes="cssscccssscc"
       style="fill:#d6dbf1;fill-opacity:1;stroke-width:0.0747336" />
    <path
       d="m -23.491973,10.518864 c 0.821677,0.184557 1.238413,0.551493 1.238413,1.090749 0,0.529575 -0.445803,0.972596 -1.036441,1.074375 v 0.598647 h -0.517384 v -0.598647 c -0.590683,-0.101764 -1.036535,-0.5448 -1.036535,-1.074385 h 0.517365 c 0,0.313905 0.356233,0.57904 0.777881,0.57904 0.42151,0 0.777746,-0.265135 0.777746,-0.57904 0,-0.09857 0,-0.398503 -0.834472,-0.585835 -0.821809,-0.184568 -1.23852,-0.551499 -1.23852,-1.0907561 0,-0.5296302 0.445852,-0.9726582 1.036535,-1.0744392 v -0.601407 h 0.517384 v 0.601404 c 0.590638,0.101782 1.036441,0.544809 1.036441,1.0744422 h -0.517368 c 0,-0.3138972 -0.356236,-0.5791012 -0.777746,-0.5791012 -0.421647,0 -0.777881,0.265204 -0.777881,0.5791012 0,0.09859 0,0.3985421 0.834582,0.5858521 z"
       id="path6-0-2"
       style="fill:#d6dbf1;fill-opacity:1;stroke-width:0.0747336" />
  </g>
  <g
     id="22-22-wallet-closed"
     transform="translate(32.016998,-21.92932)"
     style="fill:#d6dbf1;fill-opacity:1">
    <g
       id="g1225"
       style="fill:#d6dbf1;fill-opacity:1">
      <rect
         style="opacity:0.00100002;stroke-width:0.6875;fill:#d6dbf1;fill-opacity:1"
         width="22"
         height="22"
         x="0"
         y="0"
         id="rect12-7-6" />
      <path
         d="m 16.910654,12.280031 c 0,0.742724 0,1.481977 0,2.224701 0,0.253359 0.05553,0.607368 -0.04512,0.846844 -0.111062,0.260301 -0.35748,0.364421 -0.61778,0.364421 -1.232089,0.0035 -2.467649,0 -3.699737,0 -1.894988,0 -3.7865047,0 -5.6814921,0 -0.6628986,0 -1.3257971,0 -1.9886957,0 -0.36095,0 -0.8399028,0.07983 -1.0724379,-0.263771 C 3.6943307,15.289104 3.7047428,15.1121 3.7047428,14.924684 c 0,-0.249889 0,-0.499777 0,-0.749666 0,-0.853785 0,-1.707571 0,-2.561356 0,-1.579157 0,-3.1583128 0,-4.7339984 0,-0.190887 -0.00694,-0.371362 0.1145322,-0.5379543 0.1422976,-0.1978284 0.3574793,-0.2429471 0.583073,-0.2429471 0.4546582,0 0.912787,0 1.3674452,0 1.8012793,0 3.6025586,0 5.4038378,0 1.54792,0 3.09584,0 4.643761,0 0.409539,0 0.954435,-0.069414 1.079379,0.4511875 0.059,0.2498884 0.01735,0.551837 0.01735,0.8051961 0,0.4720115 0,0.9440231 0,1.4160346 0,0.2568298 0,0.5136596 0,0.7704894 0,0.4477168 0.694135,0.4477168 0.694135,0 0,-0.763548 0,-1.5236254 0,-2.2871735 0,-0.3331846 0.03818,-0.7045466 -0.08677,-1.0203779 -0.201299,-0.5136596 -0.683723,-0.8260201 -1.232089,-0.8294908 -1.214735,-0.010412 -2.429471,0 -3.644207,0 -1.943576,0 -3.890624,0 -5.8342009,0 -0.6628986,0 -1.3292678,0 -1.9921663,0 -0.1527096,0 -0.3054192,0 -0.4581288,0 -0.4477169,0 -0.8468443,0.1839457 -1.1140861,0.551837 -0.3227726,0.4477168 -0.2360057,1.093262 -0.2360057,1.6138629 0,0.8641976 0,1.7283952 0,2.5960635 0,1.603451 0,3.206902 0,4.810353 0,0.347067 0.065943,0.66984 0.2880658,0.950964 0.2637712,0.329714 0.6524865,0.478953 1.062026,0.478953 0.4407754,0 0.8815509,0 1.3223264,0 1.8394567,0 3.6789133,0 5.5218406,0 1.565274,0 3.130547,0 4.695821,0 0.128415,0 0.2603,0 0.388715,0 0.562249,-0.0035 1.055085,-0.340126 1.245972,-0.87461 0.111061,-0.308889 0.06941,-0.683722 0.06941,-1.003024 0,-0.485894 0,-0.968318 0,-1.454212 0,-0.267242 0,-0.531013 0,-0.798255 0,-0.444246 -0.694134,-0.444246 -0.694134,0.0035 z"
         id="path2-5"
         style="fill:#d6dbf1;fill-opacity:1;stroke-width:0.0347067" />
      <path
         d="m 18.656402,11.932964 c -1.377857,0 -2.755714,0.01388 -4.130101,0 -0.496306,-0.0069 -0.92667,-0.336656 -1.023848,-0.832962 -0.107591,-0.562249 0.295007,-1.1244981 0.860727,-1.2043235 0.215181,-0.031236 0.451187,-0.00694 0.666369,-0.00694 0.437305,0 0.874609,0 1.308443,0 0.77049,0 1.54445,0 2.314939,0 -0.114532,-0.1145322 -0.232535,-0.2325351 -0.347067,-0.3470673 0,0.9127868 0,1.8255738 0,2.7383608 0,0.447717 0.694135,0.447717 0.694135,0 0,-0.912787 0,-1.825574 0,-2.7383608 0,-0.1874163 -0.159651,-0.3470673 -0.347068,-0.3470673 -0.704546,0 -1.405622,0 -2.110169,0 -0.482423,0 -0.961376,0 -1.4438,0 -0.236006,0 -0.478953,-0.013883 -0.714958,0.00694 -0.777431,0.065943 -1.450742,0.6455451 -1.572215,1.4299171 -0.118003,0.77396 0.288066,1.54445 1.013436,1.85681 0.333185,0.142298 0.66984,0.142298 1.023849,0.142298 0.433834,0 0.864197,0 1.298031,0 0.832962,0 1.669394,0 2.502356,0 0.454658,-0.0035 0.454658,-0.697605 0.0069,-0.697605 z"
         id="path8-28"
         style="fill:#d6dbf1;fill-opacity:1;stroke-width:0.0347067" />
      <path
         d="m 14.543655,10.905644 c -0.0035,0.04859 -0.07635,0.05206 -0.07635,0 0.0035,-0.04859 0.07635,-0.04859 0.07635,0 0.01041,0.187417 0.152709,0.347068 0.347067,0.347068 0.180475,0 0.357479,-0.159651 0.347067,-0.347068 -0.02082,-0.395656 -0.319302,-0.732312 -0.732312,-0.732312 -0.399127,0 -0.728841,0.336656 -0.732312,0.732312 -0.0035,0.395657 0.326243,0.714959 0.711488,0.732312 0.419952,0.01735 0.732312,-0.329714 0.753136,-0.732312 0.01041,-0.187416 -0.166592,-0.347067 -0.347067,-0.347067 -0.194358,0 -0.336655,0.159651 -0.347067,0.347067 z"
         id="path16-6"
         style="fill:#d6dbf1;fill-opacity:1;stroke-width:0.0347067" />
    </g>
  </g>
</svg>
