<?xml version="1.0" encoding="UTF-8" standalone="no"?>
<svg
   inkscape:version="1.1.1 (3bf5ae0d25, 2021-09-20)"
   sodipodi:docname="window.svg"
   viewBox="0 0 22 22"
   version="1.1"
   height="22"
   width="22"
   id="svg"
   xmlns:inkscape="http://www.inkscape.org/namespaces/inkscape"
   xmlns:sodipodi="http://sodipodi.sourceforge.net/DTD/sodipodi-0.dtd"
   xmlns="http://www.w3.org/2000/svg"
   xmlns:svg="http://www.w3.org/2000/svg"
   xmlns:rdf="http://www.w3.org/1999/02/22-rdf-syntax-ns#"
   xmlns:cc="http://creativecommons.org/ns#"
   xmlns:dc="http://purl.org/dc/elements/1.1/">
  <metadata
     id="metadata60">
    <rdf:RDF>
      <cc:Work
         rdf:about="">
        <dc:format>image/svg+xml</dc:format>
        <dc:type
           rdf:resource="http://purl.org/dc/dcmitype/StillImage" />
      </cc:Work>
    </rdf:RDF>
  </metadata>
  <sodipodi:namedview
     inkscape:document-rotation="0"
     inkscape:lockguides="true"
     inkscape:current-layer="svg"
     inkscape:window-maximized="1"
     inkscape:window-y="0"
     inkscape:window-x="0"
     inkscape:cy="-3.8006988"
     inkscape:cx="44.370949"
     inkscape:zoom="5.6568545"
     showgrid="false"
     id="namedview58"
     inkscape:window-height="1011"
     inkscape:window-width="1920"
     inkscape:pageshadow="2"
     inkscape:pageopacity="0"
     guidetolerance="10"
     gridtolerance="10"
     objecttolerance="10"
     borderopacity="1"
     bordercolor="#000000"
     pagecolor="#ffffff"
     inkscape:showpageshadow="false"
     inkscape:pagecheckerboard="0">
    <inkscape:grid
       id="grid863"
       type="xygrid"
       originx="21.999999"
       originy="-10.000002" />
  </sodipodi:namedview>
  <defs
     id="defs4">
    <linearGradient
       id="linearGradient5606"
       inkscape:swatch="solid">
      <stop
         style="stop-color:#000000"
         offset="0"
         id="stop5608" />
    </linearGradient>
  </defs>
  <g
     transform="translate(54)"
     id="22-22-window-close">
    <rect
       id="rect18"
       y="0"
       x="0"
       height="22"
       width="22"
       style="opacity:0.00100002" />
    <g
       id="g24"
       transform="matrix(1.7493122,0,0,1.7499488,-107.95048,-909.47286)"
       style="fill:#ffffff">
      <g
         id="g22"
         transform="translate(19,-242)"
         style="fill:#ffffff">
        <path
           id="path20"
           d="m 45.571203,764.57141 h 0.857142 c 0.0089,-1.1e-4 0.01782,-4e-4 0.02679,0 0.21853,0.01 0.437032,0.11021 0.589286,0.26785 l 1.955357,1.95536 1.982143,-1.95536 c 0.227678,-0.19757 0.382861,-0.26185 0.589285,-0.26785 h 0.857143 v 0.85714 c 0,0.24555 -0.02943,0.47199 -0.214285,0.64286 l -1.955357,1.95535 1.928571,1.92858 c 0.161304,0.16128 0.241064,0.38867 0.241071,0.61607 v 0.85714 h -0.857143 c -0.2274,-10e-6 -0.454788,-0.0798 -0.616071,-0.24107 l -1.955357,-1.95536 -1.955357,1.95536 c -0.161288,0.1613 -0.388684,0.24107 -0.616076,0.24107 h -0.857142 v -0.85714 c -3e-6,-0.22739 0.07977,-0.45479 0.241071,-0.61607 l 1.955357,-1.92858 -1.955357,-1.95535 c -0.180636,-0.16683 -0.259851,-0.40222 -0.241071,-0.64286 z"
           style="fill:#d6dbf1;fill-opacity:1" />
      </g>
    </g>
  </g>
  <g
     transform="translate(76,21.999998)"
     id="16-16-window-close">
    <rect
       id="rect27"
       y="-16"
       x="0"
       height="16"
       width="16"
       style="opacity:0.00100002" />
    <g
       id="g33"
       transform="matrix(1.2495087,0,0,1.2499635,-76.964626,-665.48065)"
       style="fill:#ffffff">
      <g
         id="g31"
         transform="translate(19,-242)"
         style="fill:#ffffff">
        <path
           id="path29"
           d="m 45.000045,763.99995 h 0.999997 c 0.0103,-10e-5 0.02083,-3.7e-4 0.0312,0 0.254951,0.009 0.509869,0.12866 0.687499,0.3126 l 2.281251,2.2812 2.3125,-2.2812 c 0.265626,-0.2306 0.446671,-0.3056 0.687501,-0.3126 h 0.999999 v 1 c 0,0.28658 -0.03427,0.55072 -0.249999,0.75 l -2.281252,2.28129 2.250003,2.25 c 0.188185,0.18819 0.281241,0.45347 0.281248,0.71874 v 1.00001 h -0.999993 c -0.2653,-10e-6 -0.530586,-0.0925 -0.71875,-0.28124 l -2.281252,-2.28122 -2.281251,2.28122 c -0.188161,0.18818 -0.453456,0.28124 -0.718748,0.28124 h -0.999999 v -1.00001 c -3e-6,-0.26526 0.09305,-0.53055 0.28126,-0.71874 l 2.281251,-2.25 -2.281251,-2.28129 c -0.210734,-0.1945 -0.303168,-0.4692 -0.28126,-0.75 z"
           style="fill:#d6dbf1;fill-opacity:1;stroke-width:1.25" />
      </g>
    </g>
  </g>
  <g
     id="window-close"
     transform="translate(22,-10)">
    <rect
       id="rect36"
       style="opacity:0.00100002"
       y="0"
       x="0"
       height="32"
       width="32" />
    <g
       id="g46"
       transform="matrix(1.7493122,0,0,1.7499488,-102.95048,-903.47286)"
       style="opacity:0.2">
      <g
         id="g44"
         transform="translate(19,-242)" />
    </g>
    <g
       id="g52"
       style="fill:#ffffff"
       transform="matrix(1.7493122,0,0,1.7499488,-102.95048,-904.47286)">
      <g
         id="g50"
         style="fill:#ffffff"
         transform="translate(19,-242)">
        <path
           id="path48"
           style="fill:#d6dbf1;fill-opacity:1;stroke-width:1.5"
           d="m 43.857588,762.85718 h 1.285713 c 0.01335,-1.6e-4 0.02673,-6e-4 0.04019,0 0.327795,0.015 0.655548,0.16532 0.883929,0.40178 l 2.933035,2.93304 2.973214,-2.93304 c 0.341516,-0.29636 0.574291,-0.39278 0.883927,-0.40178 h 1.285714 v 1.28571 c 0,0.36833 -0.04415,0.70799 -0.321427,0.96429 l -2.933035,2.93303 2.892856,2.89287 c 0.241956,0.24192 0.361596,0.583 0.361606,0.9241 v 1.28571 h -1.285714 c -0.3411,-10e-6 -0.682182,-0.1197 -0.924106,-0.3616 l -2.933035,-2.93304 -2.933035,2.93304 c -0.241932,0.24195 -0.583026,0.3616 -0.924114,0.3616 h -1.285713 v -1.28571 c -4e-6,-0.34108 0.119655,-0.68218 0.361607,-0.9241 l 2.933034,-2.89287 -2.933034,-2.93303 c -0.270954,-0.25024 -0.389777,-0.60333 -0.361607,-0.96429 z" />
      </g>
    </g>
  </g>
  <g
     id="window-pin">
    <rect
       id="rect16"
       y="0"
       x="0"
       height="22"
       width="22"
       style="fill:#cfd8dc;fill-opacity:0" />
    <path
       d="M 9.105276,14.920741 C 8.7200978,14.536783 8.1985141,14.32121 7.6548165,14.32121 c -0.5437994,0 -1.0654167,0.215573 -1.4505605,0.599531 l -4.0181388,4.020164 c -0.118085,0.115178 -0.185055,0.273024 -0.186108,0.437997 -9e-4,0.164975 0.0642,0.323612 0.1808273,0.440261 0.1166337,0.116649 0.2752667,0.181749 0.4402588,0.180827 0.1649779,-0.001 0.3228209,-0.06807 0.4379958,-0.18611 l 4.0201673,-4.020165 c 0.1533545,-0.152823 0.3611363,-0.238681 0.5776144,-0.238681 0.2164782,0 0.4242656,0.08592 0.5774782,0.238681 l 2.717409,2.719267 c 0.34977,0.353053 0.84759,0.517121 1.338699,0.441173 0.490848,-0.07458 0.914572,-0.383317 1.13623,-0.827535 0.332461,-0.658699 0.559927,-1.365246 0.674053,-2.094246 0.110833,-0.721731 0.110833,-1.456003 0,-2.177705 -0.08592,-0.554247 -0.237101,-1.096452 -0.450676,-1.615167 l 2.70408,-2.696546 c 0.872813,0.174495 1.77657,0.108984 2.615057,-0.189277 0.497715,-0.17885 0.869265,-0.600068 0.984435,-1.1162764 C 20.068815,7.7213313 19.911828,7.1821638 19.53732,6.8086187 L 15.182049,2.4533526 c -0.373414,-0.374322 -0.912577,-0.531525 -1.428782,-0.416218 -0.516212,0.115178 -0.937432,0.4866183 -1.116144,0.984296 -0.298379,0.838626 -0.363774,1.742343 -0.189407,2.6150529 L 9.760672,8.3500724 C 9.246186,8.1380739 8.7084732,7.9874826 8.158723,7.901257 7.4371278,7.7904327 6.7027175,7.7904327 5.981157,7.901257 5.2521572,8.0153793 4.5455089,8.2428475 3.8867738,8.5754437 3.441238,8.7954993 3.1320412,9.220008 3.0592399,9.711536 c -0.07832,0.489626 0.08215,0.987196 0.4318063,1.338838 l 4.7433048,4.743341 v 0 l 0.870925,-0.872974 v 0 L 4.3620392,10.173599 c -0.069608,-0.06953 -0.101968,-0.168145 -0.08692,-0.265362 0.01493,-0.09721 0.07542,-0.181619 0.1627316,-0.226927 1.1027813,-0.556346 2.3531289,-0.7506418 3.5728067,-0.555162 1.2196785,0.195489 2.3466375,0.770729 3.2204005,1.643809 0.873757,0.873213 1.449779,1.999665 1.646202,3.219212 0.196288,1.219544 0.0026,2.470026 -0.552654,3.573144 -0.04527,0.08734 -0.129712,0.147805 -0.22693,0.162731 -0.09721,0.01498 -0.19588,-0.01738 -0.265359,-0.08686 z"
       id="path64"
       sodipodi:nodetypes="cscccscccsccccccccccccccccccccccccccccccccccc"
       style="fill:#d6dbf1;fill-opacity:1;stroke-width:0.0338151" />
    <path
       id="rect838"
       d="M 0,0 H 22 V 22 H 0 Z"
       fill="none" />
  </g>
  <g
     id="window-unpin"
     transform="translate(32,-32)">
    <path
       id="rect838-6"
       d="M 0,0 H 22 V 22 H 0 Z"
       fill="none" />
    <path
       d="m 9.105275,14.920741 c -0.3851776,-0.383958 -0.9067613,-0.59953 -1.450459,-0.59953 -0.5437992,0 -1.0654166,0.215572 -1.4505603,0.59953 l -4.0181385,4.020165 c -0.118085,0.115177 -0.185055,0.273023 -0.186108,0.437996 -9e-4,0.164975 0.0642,0.323612 0.180827,0.440261 0.116634,0.116649 0.275267,0.181749 0.440259,0.180827 0.1649779,-0.001 0.3228209,-0.06807 0.4379958,-0.18611 l 4.0201671,-4.020165 c 0.1533545,-0.152823 0.3611363,-0.238681 0.5776144,-0.238681 0.216478,0 0.4242656,0.08592 0.5774782,0.238681 l 2.7174083,2.719267 c 0.34977,0.353053 0.847589,0.517121 1.3387,0.441173 0.49085,-0.07458 0.91457,-0.383317 1.136234,-0.827535 0.33246,-0.658699 0.55992,-1.365246 0.674052,-2.094246 0.110823,-0.72173 0.110823,-1.456003 0,-2.177705 -0.0859,-0.554246 -0.237106,-1.096452 -0.450684,-1.615166 L 16.354142,9.542955 C 17.226963,9.717451 18.13072,9.651939 18.969206,9.353679 19.466918,9.174828 19.838471,8.7536105 19.953638,8.2374021 20.068815,7.7213309 19.911828,7.1821634 19.53732,6.8086182 L 15.182052,2.4533526 c -0.373413,-0.374322 -0.912576,-0.531525 -1.428783,-0.416218 -0.51621,0.115178 -0.93743,0.4866181 -1.11615,0.984296 -0.298382,0.8386259 -0.36377,1.7423427 -0.1894,2.6150526 L 9.760672,8.350072 C 9.246185,8.1380735 8.7084729,7.9874822 8.1587225,7.9012565 7.4371274,7.7904332 6.7027172,7.7904332 5.9811568,7.9012565 5.252157,8.0153789 4.5455085,8.2428471 3.8867737,8.5754432 3.4412379,8.7954999 3.1320412,9.220008 3.0592397,9.711536 c -0.07832,0.489627 0.082155,0.987197 0.4318064,1.338839 l 4.7433046,4.74334 v 0 L 9.105275,14.920741 v 0 L 4.3620391,10.1736 c -0.06961,-0.06956 -0.101969,-0.168146 -0.08692,-0.265363 0.01493,-0.09721 0.07542,-0.181619 0.1627315,-0.226927 1.1027812,-0.556347 2.3531287,-0.7506424 3.5728064,-0.555162 1.219678,0.195488 2.346639,0.770729 3.220397,1.64381 0.873765,0.873213 1.449785,1.999665 1.646206,3.219211 0.196285,1.219544 0.003,2.470026 -0.552651,3.573144 -0.0453,0.08734 -0.129718,0.147805 -0.22693,0.162731 -0.0972,0.01498 -0.19588,-0.01738 -0.26536,-0.08686 z"
       id="path64-3"
       sodipodi:nodetypes="cscccscccsccccccccccccccccccccccccccccccccccc"
       style="fill:#5e81ac;fill-opacity:1;stroke-width:0.0338151" />
  </g>
</svg>
