<?xml version="1.0" encoding="UTF-8" standalone="no"?>
<svg
   width="40.09"
   height="40.000629"
   viewBox="0 0 40.09 40.000631"
   id="svg6548"
   version="1.1"
   inkscape:version="1.1.1 (3bf5ae0d25, 2021-09-20)"
   sodipodi:docname="system-file-manager.svg"
   xmlns:inkscape="http://www.inkscape.org/namespaces/inkscape"
   xmlns:sodipodi="http://sodipodi.sourceforge.net/DTD/sodipodi-0.dtd"
   xmlns:xlink="http://www.w3.org/1999/xlink"
   xmlns="http://www.w3.org/2000/svg"
   xmlns:svg="http://www.w3.org/2000/svg"
   xmlns:rdf="http://www.w3.org/1999/02/22-rdf-syntax-ns#"
   xmlns:cc="http://creativecommons.org/ns#"
   xmlns:dc="http://purl.org/dc/elements/1.1/">
  <defs
     id="defs6550">
    <linearGradient
       id="linearGradient4274"
       inkscape:collect="always">
      <stop
         id="stop4276"
         offset="0"
         style="stop-color:#ffffff;stop-opacity:1;" />
      <stop
         id="stop4278"
         offset="1"
         style="stop-color:#ffffff;stop-opacity:0.48760331" />
    </linearGradient>
    <linearGradient
       inkscape:collect="always"
       xlink:href="#linearGradient4274"
       id="linearGradient7243-3"
       gradientUnits="userSpaceOnUse"
       gradientTransform="matrix(0.46149782,0,0,0.46149782,-180.18094,1102.9563)"
       x1="390.57144"
       y1="498.298"
       x2="442.57144"
       y2="498.298" />
    <linearGradient
       inkscape:collect="always"
       id="linearGradient2230">
      <stop
         style="stop-color:#4e99ca;stop-opacity:0.80000001"
         offset="0"
         id="stop2226" />
      <stop
         style="stop-color:#20ffff;stop-opacity:0.80000001"
         offset="0.50507295"
         id="stop2332" />
      <stop
         style="stop-color:#ffaeff;stop-opacity:0.69"
         offset="1"
         id="stop2228" />
    </linearGradient>
    <linearGradient
       inkscape:collect="always"
       xlink:href="#linearGradient1295"
       id="linearGradient1493"
       gradientUnits="userSpaceOnUse"
       x1="20.750315"
       y1="1025.9873"
       x2="-12.062732"
       y2="995.35931" />
    <linearGradient
       inkscape:collect="always"
       id="linearGradient1295">
      <stop
         style="stop-color:#1d212f;stop-opacity:1;"
         offset="0"
         id="stop1291" />
      <stop
         style="stop-color:#717da8;stop-opacity:1"
         offset="1"
         id="stop1293" />
    </linearGradient>
    <linearGradient
       inkscape:collect="always"
       xlink:href="#linearGradient952"
       id="linearGradient1297"
       x1="2.0000021"
       y1="1025.9873"
       x2="62.938519"
       y2="1025.9873"
       gradientUnits="userSpaceOnUse" />
    <linearGradient
       inkscape:collect="always"
       id="linearGradient952">
      <stop
         style="stop-color:#2e354b;stop-opacity:1"
         offset="0"
         id="stop948" />
      <stop
         style="stop-color:#717da8;stop-opacity:1"
         offset="1"
         id="stop950" />
    </linearGradient>
    <linearGradient
       inkscape:collect="always"
       xlink:href="#linearGradient2230"
       id="linearGradient1048"
       gradientUnits="userSpaceOnUse"
       gradientTransform="translate(3.300001,-4.8002029)"
       x1="-70.956757"
       y1="1028.8148"
       x2="-55.046471"
       y2="1028.8148" />
  </defs>
  <sodipodi:namedview
     id="base"
     pagecolor="#ffffff"
     bordercolor="#666666"
     borderopacity="1.0"
     inkscape:pageopacity="0.0"
     inkscape:pageshadow="2"
     inkscape:zoom="8.0000004"
     inkscape:cx="-3.7499998"
     inkscape:cy="16.812499"
     inkscape:document-units="px"
     inkscape:current-layer="layer1"
     showgrid="true"
     units="px"
     inkscape:snap-bbox="true"
     inkscape:bbox-nodes="true"
     inkscape:object-nodes="true"
     inkscape:snap-global="true"
     showborder="true"
     inkscape:document-rotation="0"
     inkscape:window-width="1920"
     inkscape:window-height="1005"
     inkscape:window-x="0"
     inkscape:window-y="0"
     inkscape:window-maximized="1"
     inkscape:pagecheckerboard="0">
    <inkscape:grid
       type="xygrid"
       id="grid7247"
       originx="89.656761"
       originy="17.348718" />
  </sodipodi:namedview>
  <metadata
     id="metadata6553">
    <rdf:RDF>
      <cc:Work
         rdf:about="">
        <dc:format>image/svg+xml</dc:format>
        <dc:type
           rdf:resource="http://purl.org/dc/dcmitype/StillImage" />
      </cc:Work>
    </rdf:RDF>
  </metadata>
  <g
     inkscape:label="Livello 1"
     inkscape:groupmode="layer"
     id="layer1"
     transform="translate(89.65676,-1003.0135)">
    <g
       transform="matrix(0.66665557,0,0,0.71421744,-90.990071,292.11052)"
       id="g19">
      <rect
         width="60"
         height="42"
         x="2"
         y="1002.36"
         rx="6.5219998"
         ry="6.5619998"
         style="opacity:0.85;fill:url(#linearGradient1493);fill-opacity:1;stroke:none"
         id="rect11" />
      <path
         d="m 8.522,1002.36 c -3.613,0 -6.522,3.3302 -6.522,6.1002 v 0.8998 c 0,-2.77 2.909,-5 6.522,-5 h 46.957 c 3.613,0 6.522,2.23 6.522,5 v -0.8998 c 0,-2.77 -2.909,-6.1002 -6.522,-6.1002 z"
         style="opacity:0.2;fill:#ffffff;fill-opacity:1;stroke:none"
         id="path13"
         sodipodi:nodetypes="sscsscsss" />
      <path
         d="m 8.522,1013.3603 h 10.435 c 14.348,-1.333 11.86095,-6.5781 20.991951,-6.5781 h 15.361736 c 3.612989,0 6.689313,1.4143 6.689313,5.1083 v 25.8035 c 0,3.693 -2.908,6.667 -6.521,6.667 H 8.522 c -3.613,0 -6.522,-2.973 -6.522,-6.667 v -18.667 c 0,-4 2.609,-5.6667 6.522,-5.6667 z"
         style="opacity:0.6;fill:url(#linearGradient1297);fill-opacity:1;stroke:none"
         id="path15"
         sodipodi:nodetypes="scsssssssss" />
      <path
         d="m 2,1035.03 v 2.667 c 0,3.693 2.909,6.667 6.522,6.667 h 46.957 c 3.613,0 6.522,-2.973 6.522,-6.667 v -2.667 c 0,3.693 -2.909,7.333 -6.522,7.333 H 8.522 c -3.613,0 -6.522,-3.64 -6.522,-7.333 z"
         style="opacity:0.15;fill:#333333;fill-opacity:1;stroke:none"
         id="path17" />
    </g>
    <rect
       y="1033.5159"
       x="-64.656708"
       height="0.2142857"
       width="13.666682"
       id="rect4209"
       style="fill:#000000;fill-opacity:1;fill-rule:nonzero;stroke:none;stroke-width:0.264064;stroke-linecap:round;stroke-linejoin:round;stroke-miterlimit:4;stroke-dasharray:none;stroke-dashoffset:0;stroke-opacity:1" />
    <path
       d="m -51.874863,1021.4738 c 0.0306,-0.6319 -0.64335,-1.2828 -0.91746,-1.5189 -1.51509,-3.8334 -6.95494,-2.4934 -8.01713,-2.1889 -2.76758,-1.7587 -4.89934,0.1142 -4.91841,0.1333 -0.10282,0.091 -0.14839,0.2322 -0.11801,0.3692 0.0305,0.1332 0.13321,0.2398 0.26654,0.278 0.85278,0.2436 1.49613,1.0697 1.7663,1.4695 -1.98711,2.3259 -2.05942,5.6415 -2.04043,6.4943 -2.47827,2.0518 -1.69402,4.1647 -1.65603,4.2559 0.0533,0.1332 0.1751,0.2284 0.31984,0.2398 0.0114,0.01 0.0228,0.01 0.0341,0.01 0.1294,0 0.25515,-0.068 0.32364,-0.1827 0.45304,-0.7308 1.02029,-1.1724 1.68261,-1.3132 1.18386,-0.2512 2.33355,0.5139 2.34495,0.5215 0.0875,0.061 0.19789,0.084 0.30451,0.057 0.10281,-0.027 0.19409,-0.095 0.2436,-0.1903 0.59761,-1.1001 -0.32744,-2.5011 -0.67007,-2.9617 0.43771,-1.8577 1.5113,-2.935 2.35253,-3.5174 l -0.1713,0.2855 c -0.0534,0.095 -0.0685,0.2057 -0.0343,0.3083 0.0305,0.1067 0.10661,0.1903 0.20563,0.2361 0.37301,0.1637 0.89455,0.1789 1.55703,0.042 0.55208,-0.118 1.08499,-0.4035 1.54181,-0.826 0.59761,-0.5483 1.2639,-0.59 1.2639,-0.59 h 3.78404 c 0.0876,0 0.16753,-0.031 0.23601,-0.08 0.32365,-0.255 0.41495,-0.5329 0.43771,-0.7232 0.0308,-0.2517 -0.0492,-0.4649 -0.12151,-0.602 z m -2.67617,-0.4111 h -0.20944 c -0.20943,0 -0.38075,-0.1713 -0.38075,-0.3808 0,-0.2094 0.17132,-0.3807 0.38075,-0.3807 h 0.20944 c 0.21324,0 0.38076,0.1713 0.38076,0.3807 0,0.2095 -0.16751,0.3808 -0.38076,0.3808 z"
       id="path49-5"
       style="fill:url(#linearGradient1048);fill-opacity:1;stroke-width:0.037388" />
  </g>
</svg>
