<?xml version="1.0" encoding="UTF-8" standalone="no"?>
<svg
   inkscape:version="1.1.1 (3bf5ae0d25, 2021-09-20)"
   sodipodi:docname="system-lock-screen.svg"
   id="svg6"
   version="1.1"
   viewBox="0 0 32 32"
   xmlns:inkscape="http://www.inkscape.org/namespaces/inkscape"
   xmlns:sodipodi="http://sodipodi.sourceforge.net/DTD/sodipodi-0.dtd"
   xmlns:xlink="http://www.w3.org/1999/xlink"
   xmlns="http://www.w3.org/2000/svg"
   xmlns:svg="http://www.w3.org/2000/svg"
   xmlns:rdf="http://www.w3.org/1999/02/22-rdf-syntax-ns#"
   xmlns:cc="http://creativecommons.org/ns#"
   xmlns:dc="http://purl.org/dc/elements/1.1/">
  <metadata
     id="metadata10">
    <rdf:RDF>
      <cc:Work
         rdf:about="">
        <dc:format>image/svg+xml</dc:format>
        <dc:type
           rdf:resource="http://purl.org/dc/dcmitype/StillImage" />
      </cc:Work>
    </rdf:RDF>
  </metadata>
  <sodipodi:namedview
     inkscape:document-rotation="0"
     inkscape:current-layer="svg6"
     inkscape:window-maximized="1"
     inkscape:window-y="0"
     inkscape:window-x="0"
     inkscape:cy="17.028029"
     inkscape:cx="8.1085851"
     inkscape:zoom="14.182499"
     showgrid="true"
     id="namedview8"
     inkscape:window-height="1015"
     inkscape:window-width="1920"
     inkscape:pageshadow="2"
     inkscape:pageopacity="0"
     guidetolerance="10"
     gridtolerance="10"
     objecttolerance="10"
     borderopacity="1"
     bordercolor="#666666"
     pagecolor="#ffffff"
     inkscape:pagecheckerboard="0">
    <inkscape:grid
       type="xygrid"
       id="grid862" />
  </sodipodi:namedview>
  <defs
     id="defs3051">
    <style
       id="current-color-scheme"
       type="text/css">
      .ColorScheme-Text {
        color:#eff0f1;
      }
      </style>
    <linearGradient
       inkscape:collect="always"
       xlink:href="#linearGradient1535"
       id="linearGradient1537"
       x1="7.5"
       y1="16"
       x2="24.5"
       y2="16"
       gradientUnits="userSpaceOnUse" />
    <linearGradient
       inkscape:collect="always"
       id="linearGradient1535">
      <stop
         style="stop-color:#b9a2de;stop-opacity:1;"
         offset="0"
         id="stop1531" />
      <stop
         style="stop-color:#ffd1b3;stop-opacity:1"
         offset="1"
         id="stop1533" />
    </linearGradient>
  </defs>
  <path
     d="M 22.50029,14.051036 V 10.50012 C 22.50029,6.916032 19.58417,4 16.00017,4 12.41617,4 9.50005,6.915947 9.50005,10.50012 v 3.550916 C 8.35997,14.283068 7.5,15.293031 7.5,16.500098 v 8.999968 C 7.50017,26.878004 8.62114,28 10.00011,28 H 22.00006 C 23.37903,28 24.5,26.878004 24.5,25.500066 v -8.999968 c 0,-1.207024 -0.85997,-2.216992 -1.99988,-2.449062 z M 12.50004,10.50012 c 0,-1.930065 1.56998,-3.500045 3.50004,-3.500045 1.93007,0 3.50005,1.56998 3.50005,3.500045 v 3.499873 H 12.5003 Z m 4.60884,11.229817 0.38605,2.699004 c 0.0209,0.143974 -0.0219,0.288951 -0.11702,0.397936 -0.0949,0.109153 -0.23304,0.173104 -0.37802,0.173104 h -2.00005 c -0.14497,0 -0.28292,-0.06295 -0.37801,-0.17193 -0.0949,-0.108985 -0.13794,-0.254964 -0.11702,-0.397935 l 0.38605,-2.699005 c -0.83588,-0.41819 -1.39084,-1.28121 -1.39084,-2.231092 0,-1.377938 1.12097,-2.499934 2.49994,-2.499934 1.37896,0 2.49993,1.121996 2.49993,2.499934 0,0.949882 -0.55496,1.812893 -1.39101,2.229892 z"
     id="path2"
     style="fill:url(#linearGradient1537);fill-opacity:1;stroke-width:0.042857" />
</svg>
