<?xml version="1.0" encoding="UTF-8" standalone="no"?>
<svg
   viewBox="0 0 32 32"
   version="1.1"
   id="svg6"
   sodipodi:docname="system-users.svg"
   inkscape:version="1.1.1 (3bf5ae0d25, 2021-09-20)"
   xmlns:inkscape="http://www.inkscape.org/namespaces/inkscape"
   xmlns:sodipodi="http://sodipodi.sourceforge.net/DTD/sodipodi-0.dtd"
   xmlns:xlink="http://www.w3.org/1999/xlink"
   xmlns="http://www.w3.org/2000/svg"
   xmlns:svg="http://www.w3.org/2000/svg">
  <sodipodi:namedview
     id="namedview8"
     pagecolor="#ffffff"
     bordercolor="#666666"
     borderopacity="1.0"
     inkscape:pageshadow="2"
     inkscape:pageopacity="0.0"
     inkscape:pagecheckerboard="0"
     showgrid="true"
     inkscape:zoom="9.8125"
     inkscape:cx="20.89172"
     inkscape:cy="15.847134"
     inkscape:window-width="1920"
     inkscape:window-height="1007"
     inkscape:window-x="0"
     inkscape:window-y="0"
     inkscape:window-maximized="1"
     inkscape:current-layer="svg6">
    <inkscape:grid
       type="xygrid"
       id="grid1111" />
  </sodipodi:namedview>
  <defs
     id="defs3051">
    <style
       type="text/css"
       id="current-color-scheme">
      .ColorScheme-Text {
        color:#eff0f1;
      }
      </style>
    <linearGradient
       inkscape:collect="always"
       xlink:href="#linearGradient2971"
       id="linearGradient1623"
       x1="402.04343"
       y1="520.79852"
       x2="431.58115"
       y2="520.79852"
       gradientUnits="userSpaceOnUse"
       gradientTransform="matrix(0.54167953,0,0,0.61535898,-209.77882,-304.49342)" />
    <linearGradient
       inkscape:collect="always"
       id="linearGradient2971">
      <stop
         style="stop-color:#c9cbff;stop-opacity:0.99529928"
         offset="0"
         id="stop2967" />
      <stop
         style="stop-color:#ddb6f2;stop-opacity:1"
         offset="1"
         id="stop2969" />
    </linearGradient>
    <linearGradient
       inkscape:collect="always"
       xlink:href="#linearGradient2971"
       id="linearGradient3037"
       gradientUnits="userSpaceOnUse"
       gradientTransform="matrix(0.92290089,0,0,0.92290089,1.2312964,1.139007)"
       x1="3.2707753"
       y1="17.335726"
       x2="28.924274"
       y2="16.411364" />
  </defs>
  <path
     d="m 22.000153,20.528543 h -0.500277 c -0.276332,0 -0.499718,-0.254617 -0.499718,-0.567459 0,-0.313975 0.223386,-0.568592 0.499718,-0.568592 h 0.500277 c 0.55172,0 0.999995,-0.508096 0.999995,-1.136045 v -1.703535 c 0,-0.04548 -0.0078,-0.09096 -0.01929,-0.134801 -0.0043,-0.01668 -0.01097,-0.03274 -0.01681,-0.04991 -0.0071,-0.01945 -0.01346,-0.03938 -0.02249,-0.05828 -0.114015,-0.262777 -0.393332,-0.515727 -0.741931,-0.588401 -0.446036,-0.188582 -1.042466,-0.305094 -1.699906,-0.305094 -0.638707,0 -1.219013,0.11733 -1.66067,0.300941 -0.223381,0.03717 -0.419927,0.150603 -0.567356,0.293175 l -0.0031,-0.0037 c -0.08132,0.08183 -0.187502,0.133275 -0.304696,0.133275 -0.25441,0 -0.460947,-0.235061 -0.460947,-0.523794 0,-0.204951 0.104253,-0.380538 0.254411,-0.466239 0.271007,-0.224403 0.600105,-0.417712 0.982652,-0.561669 -0.409635,-0.463187 -0.680642,-1.084995 -0.730456,-1.78008 -0.0069,-0.07683 -0.01033,-0.15422 -0.01033,-0.232427 V 10.872096 C 17.999668,9.61733 18.894904,8.6 19.999892,8.6 h 0.999996 c 1.104253,0 1.999985,1.017367 1.999985,2.272096 v 1.703825 c 0,0.313692 -0.224128,0.568308 -0.500219,0.568308 -0.276391,0 -0.499777,-0.254616 -0.499777,-0.568308 v -1.703825 c 0,-0.627666 -0.448255,-1.136045 -0.999989,-1.136045 h -0.999996 c -0.552481,0 -1.000235,0.508379 -1.000235,1.136045 v 1.703825 c 0,0.941357 0.671866,1.704354 1.499744,1.704354 1.84764,0 3.356896,0.929143 3.487529,2.107794 0.0078,0.05323 0.01297,0.108174 0.01297,0.164763 v 1.703535 c -3.7e-5,1.255296 -0.895762,2.272096 -2.000021,2.272096 z m -5.256559,-4.883015 c -0.0062,0.01969 -0.01217,0.04025 -0.02043,0.05939 -5.29e-4,5.66e-4 -5.29e-4,0.0025 -0.0012,0.0031 h -5.41e-4 c -0.08107,0.189432 -0.249723,0.321179 -0.447479,0.321179 -0.276389,0 -0.500267,-0.254616 -0.500267,-0.568307 0,-0.08127 0.01532,-0.158941 0.04246,-0.228274 l -0.0018,-6.16e-4 c 0.117912,-0.289587 0.185568,-0.610767 0.185568,-0.951086 0,-0.126456 -0.01177,-0.25018 -0.02913,-0.371664 0.01874,-0.102353 0.02913,-0.209136 0.02913,-0.318129 v -2.31238 c 0,-0.851466 -0.59692,-1.542114 -1.333468,-1.542114 h -1.332944 c -0.736799,0 -1.333719,0.690611 -1.333719,1.542114 v 2.31235 c 0,0.108992 0.0105,0.215776 0.02908,0.318128 -0.01734,0.121485 -0.02908,0.245171 -0.02908,0.371665 0,1.254766 0.895737,2.27252 2.000234,2.27252 3.187983,0 5.789015,1.295238 5.981392,2.929478 0.01097,0.06323 0.01874,0.128124 0.01874,0.194158 v 1.420624 c 0,1.254804 -0.895734,2.271566 -2.000231,2.271566 H 10.00005 C 8.895738,23.369212 8,22.352412 8,21.097652 v -1.42063 c 0,-0.066 0.0056,-0.128125 0.01415,-0.189722 0.06494,-0.572456 0.427482,-1.099972 1.001214,-1.545413 0.08132,-0.07824 0.184815,-0.12816 0.299536,-0.12816 0.25563,0 0.462888,0.234668 0.462888,0.52535 0,0.185815 -0.08494,0.347241 -0.213129,0.441003 l 0.0033,0.0055 c -0.361085,0.273996 -0.567871,0.577995 -0.567871,0.891403 v 1.420631 c 0,0.626847 0.448228,1.135515 0.999995,1.135515 h 8.000191 c 0.552481,0 0.999995,-0.508668 0.999995,-1.135515 v -1.420632 c 0,-1.098343 -2.238783,-1.987549 -4.999965,-1.987549 -0.802952,0 -1.530754,-0.361122 -2.06908,-0.944661 -0.142347,-0.154215 -0.272947,-0.325618 -0.386228,-0.509234 -0.110849,-0.179033 -0.206786,-0.371517 -0.285883,-0.573416 -0.0033,-0.0072 -0.0058,-0.01391 -0.009,-0.02111 -0.03299,-0.0857 -0.062,-0.175021 -0.08888,-0.264309 -0.0059,-0.02025 -0.0137,-0.03939 -0.01928,-0.05994 -0.02269,-0.0796 -0.04004,-0.162246 -0.05737,-0.244895 -0.0066,-0.03077 -0.0149,-0.06074 -0.02074,-0.09237 -0.01734,-0.09429 -0.02882,-0.190823 -0.03976,-0.287348 -0.0022,-0.01834 -0.0059,-0.03606 -0.0071,-0.05434 -0.01099,-0.117047 -0.01685,-0.236298 -0.01685,-0.35697 0,-0.06294 0.0049,-0.123435 0.0086,-0.185814 -0.0039,-0.06433 -0.0086,-0.127877 -0.0086,-0.193056 v -2.650389 c 0,-1.464431 1.007805,-2.650966 2.24999,-2.650966 h 1.50023 c 1.242895,0 2.249985,1.186535 2.249985,2.650966 v 2.650438 c 0,0.06518 -0.0049,0.128691 -0.0084,0.193056 0.0037,0.06241 0.0084,0.122869 0.0084,0.185815 0,0.486478 -0.09401,0.946612 -0.256351,1.365137 z m -5.493361,1.758849 c 0,0.313403 -0.22413,0.568057 -0.500263,0.568057 -0.276349,0 -0.499731,-0.254654 -0.499731,-0.568057 0,-0.313408 0.223382,-0.568025 0.499731,-0.568025 0.276133,0 0.500263,0.254617 0.500263,0.568025 z"
     id="path2"
     style="fill:url(#linearGradient1623);fill-opacity:1.0;stroke-width:0.0333086" />
  <path
     fill-rule="evenodd"
     clip-rule="evenodd"
     d="M 24.572987,27.995423 H 11.717443 c -0.472621,0 -0.85612,0.07649 -0.85612,-0.395925 0,-0.473697 0.383499,-0.395925 0.85612,-0.395925 h 12.855544 c 1.483547,0 2.637064,-1.148602 2.637064,-2.636495 V 7.427491 c 0,-1.615716 -1.428486,-2.636539 -2.637064,-2.636566 L 7.4329774,4.790545 c -1.359426,-3.1e-5 -2.637421,1.123184 -2.637421,2.636565 v 16.282986 c 0,0.473697 0.07869,0.856982 -0.395001,0.856982 -0.47284,0 -0.39592,-0.383285 -0.39592,-0.856982 V 7.427491 C 4.0046354,5.534422 5.5401294,4 7.4329824,4 H 24.572992 c 1.892659,0 3.427067,1.534422 3.427067,3.427491 v 17.139587 c 0,1.893065 -1.534408,3.428345 -3.427067,3.428345 z M 8.2901704,26.281035 c 0.472622,0 0.856978,0.383712 0.856978,0.857408 0,0.472412 -0.384356,0.85698 -0.856978,0.85698 -0.473694,0 -0.857193,-0.384568 -0.857193,-0.85698 0,-0.473696 0.383499,-0.857408 0.857193,-0.857408 z"
     id="path2-6-3-3"
     style="fill:url(#linearGradient3037);fill-opacity:1;stroke-width:0.0535618"
     sodipodi:nodetypes="sssssssssssssssssssssssss" />
  <rect
     style="fill:#5599ff;fill-opacity:0.1;stroke:none;stroke-width:0.560661"
     id="center-3-35"
     width="22.426456"
     height="22.426491"
     x="4.7000012"
     y="4.6999998"
     ry="2.651958" />
</svg>
