<?xml version="1.0" encoding="UTF-8" standalone="no"?>
<svg
   viewBox="0 0 32 32"
   version="1.1"
   id="svg6"
   sodipodi:docname="system-save-session.svg"
   inkscape:version="1.1.1 (3bf5ae0d25, 2021-09-20)"
   xmlns:inkscape="http://www.inkscape.org/namespaces/inkscape"
   xmlns:sodipodi="http://sodipodi.sourceforge.net/DTD/sodipodi-0.dtd"
   xmlns:xlink="http://www.w3.org/1999/xlink"
   xmlns="http://www.w3.org/2000/svg"
   xmlns:svg="http://www.w3.org/2000/svg"
   xmlns:rdf="http://www.w3.org/1999/02/22-rdf-syntax-ns#"
   xmlns:cc="http://creativecommons.org/ns#"
   xmlns:dc="http://purl.org/dc/elements/1.1/">
  <metadata
     id="metadata10">
    <rdf:RDF>
      <cc:Work
         rdf:about="">
        <dc:format>image/svg+xml</dc:format>
        <dc:type
           rdf:resource="http://purl.org/dc/dcmitype/StillImage" />
      </cc:Work>
    </rdf:RDF>
  </metadata>
  <sodipodi:namedview
     pagecolor="#ffffff"
     bordercolor="#666666"
     borderopacity="1"
     objecttolerance="10"
     gridtolerance="10"
     guidetolerance="10"
     inkscape:pageopacity="0"
     inkscape:pageshadow="2"
     inkscape:window-width="1920"
     inkscape:window-height="1007"
     id="namedview8"
     showgrid="true"
     inkscape:zoom="19.625"
     inkscape:cx="15.541401"
     inkscape:cy="12.56051"
     inkscape:window-x="0"
     inkscape:window-y="0"
     inkscape:window-maximized="1"
     inkscape:current-layer="svg6"
     inkscape:document-rotation="0"
     inkscape:pagecheckerboard="0">
    <inkscape:grid
       type="xygrid"
       id="grid1234" />
  </sodipodi:namedview>
  <defs
     id="defs3051">
    <linearGradient
       inkscape:collect="always"
       id="linearGradient3050">
      <stop
         style="stop-color:#a3c8ff;stop-opacity:1"
         offset="0"
         id="stop3046" />
      <stop
         style="stop-color:#dac2ff;stop-opacity:1"
         offset="1"
         id="stop3048" />
    </linearGradient>
    <style
       type="text/css"
       id="current-color-scheme">
      .ColorScheme-Text {
        color:#eff0f1;
      }
      </style>
    <linearGradient
       inkscape:collect="always"
       xlink:href="#linearGradient3050"
       id="linearGradient3052"
       x1="4"
       y1="16"
       x2="27.722659"
       y2="16"
       gradientUnits="userSpaceOnUse" />
  </defs>
  <path
     inkscape:connector-curvature="0"
     id="fill-1"
     d="M 5,5.1 V 26.904 H 27.299545 L 27,9 23.211877,5.1 Z"
     style="color:#1e92ff;fill:#5599ff;fill-opacity:0.10196079;fill-rule:nonzero;stroke:none;stroke-width:4.2436"
     class="ColorScheme-ButtonFocus"
     sodipodi:nodetypes="cccccc" />
  <path
     d="M 26.849769,8.4312253 22.949339,4.7561711 C 22.431849,4.268467 21.755269,4 21.044359,4 H 6.777831 C 5.24608,4 4,5.2460301 4,6.7778272 V 25.222174 C 4,26.75392 5.246031,28 6.777831,28 h 18.167008 c 1.53174,0 2.77782,-1.24603 2.77782,-2.777826 V 10.452778 c 0,-0.7623167 -0.318249,-1.4992377 -0.872839,-2.0216547 z M 10.74449,5.1111711 h 8.01124 V 8.6778813 H 10.74449 Z M 21.56668,26.889133 H 10.155279 V 19.65301 c 0,-0.30635 0.2492,-0.555586 0.555581,-0.555586 h 10.30003 c 0.306349,0 0.55558,0.249206 0.55558,0.555586 z m 5.04446,-1.666654 c 0,0.919067 -0.74764,1.666654 -1.666661,1.666654 h -2.26668 V 19.65301 c 0,-0.919068 -0.747639,-1.666656 -1.666659,-1.666656 H 10.711119 c -0.919068,0 -1.666659,0.747638 -1.666659,1.666656 v 7.236123 H 6.77778 c -0.91907,0 -1.666659,-0.747638 -1.666659,-1.666654 V 6.7781313 c 0,-0.919068 0.747639,-1.6666552 1.666659,-1.6666552 h 2.85559 v 3.5667102 c 0,0.612678 0.498419,1.1111197 1.11112,1.1111197 h 8.01124 c 0.612679,0 1.111119,-0.4984167 1.111119,-1.1111197 V 5.1114761 h 1.177411 c 0.42659,0 0.83256,0.161114 1.14287,0.4535762 l 3.900419,3.675053 c 0.33274,0.313694 0.52379,0.7557647 0.52379,1.2131147 z"
     id="path61-3"
     style="stroke-width:0.0507941;fill-opacity:1;fill:url(#linearGradient3052)" />
</svg>
