<?xml version="1.0" encoding="UTF-8" standalone="no"?>
<svg
   inkscape:version="1.1.1 (3bf5ae0d25, 2021-09-20)"
   sodipodi:docname="system-suspend.svg"
   id="svg5"
   version="1.1"
   viewBox="0 0 32 32"
   xmlns:inkscape="http://www.inkscape.org/namespaces/inkscape"
   xmlns:sodipodi="http://sodipodi.sourceforge.net/DTD/sodipodi-0.dtd"
   xmlns:xlink="http://www.w3.org/1999/xlink"
   xmlns="http://www.w3.org/2000/svg"
   xmlns:svg="http://www.w3.org/2000/svg"
   xmlns:rdf="http://www.w3.org/1999/02/22-rdf-syntax-ns#"
   xmlns:cc="http://creativecommons.org/ns#"
   xmlns:dc="http://purl.org/dc/elements/1.1/">
  <metadata
     id="metadata9">
    <rdf:RDF>
      <cc:Work
         rdf:about="">
        <dc:format>image/svg+xml</dc:format>
        <dc:type
           rdf:resource="http://purl.org/dc/dcmitype/StillImage" />
      </cc:Work>
    </rdf:RDF>
  </metadata>
  <sodipodi:namedview
     inkscape:document-rotation="0"
     inkscape:current-layer="svg5"
     inkscape:window-maximized="1"
     inkscape:window-y="0"
     inkscape:window-x="0"
     inkscape:cy="15.194783"
     inkscape:cx="-7.1919624"
     inkscape:zoom="14.182499"
     showgrid="true"
     id="namedview7"
     inkscape:window-height="1015"
     inkscape:window-width="1920"
     inkscape:pageshadow="2"
     inkscape:pageopacity="0"
     guidetolerance="10"
     gridtolerance="10"
     objecttolerance="10"
     borderopacity="1"
     bordercolor="#666666"
     pagecolor="#ffffff"
     inkscape:pagecheckerboard="0">
    <inkscape:grid
       type="xygrid"
       id="grid1065" />
  </sodipodi:namedview>
  <defs
     id="defs3051">
    <style
       id="current-color-scheme"
       type="text/css">
      .ColorScheme-Text {
        color:#eff0f1;
      }
      </style>
    <linearGradient
       inkscape:collect="always"
       xlink:href="#linearGradient4224"
       id="linearGradient3648"
       x1="4"
       y1="16"
       x2="28.036057"
       y2="16"
       gradientUnits="userSpaceOnUse" />
    <linearGradient
       inkscape:collect="always"
       id="linearGradient4224">
      <stop
         style="stop-color:#ffeeaa;stop-opacity:1"
         offset="0"
         id="stop4220" />
      <stop
         style="stop-color:#b3b3ff;stop-opacity:1"
         offset="1"
         id="stop4222" />
    </linearGradient>
    <linearGradient
       inkscape:collect="always"
       xlink:href="#linearGradient4224"
       id="linearGradient2572"
       x1="13.471553"
       y1="11.2362"
       x2="25.515022"
       y2="11.2362"
       gradientUnits="userSpaceOnUse" />
  </defs>
  <path
     d="m 18.5129,21.321934 c -1.6604,0 -3.21551,-0.451953 -4.55335,-1.238639 h -6.4401 c -0.16273,0 -0.29214,-0.132813 -0.29214,-0.292383 0,-0.162734 0.13281,-0.292383 0.29214,-0.292383 h 5.56308 C 10.90957,17.853196 9.5056,15.246579 9.5056,12.317397 c 0,-2.151786 0.77135,-4.2339533 2.16978,-5.8644663 C 12.60042,5.3773177 13.76072,4.5393321 15.05067,4 8.87585,4.4940359 4,9.680579 4,15.98163 c 0,6.626917 5.39108,12.018371 12.01775,12.018371 3.00166,0 5.74989,-1.105815 7.85615,-2.932109 H 13.67012 c -0.16274,0 -0.29238,-0.132569 -0.29238,-0.292382 0,-0.162734 0.13257,-0.29214 0.29238,-0.29214 h 10.83397 c 2.17875,-2.175637 3.53197,-5.183343 3.53197,-8.501285 0,-1.211365 -0.1749,-2.386736 -0.52128,-3.516899 -0.0754,4.897081 -4.08631,8.856854 -9.00133,8.856854 z"
     id="path4-7"
     style="fill:url(#linearGradient3648);fill-opacity:1;fill-rule:nonzero;stroke:none;stroke-width:0.0622713;stroke-opacity:1" />
  <path
     d="m 18.13356,5.0090703 v 0 h 0.0264 z m 4.70172,7.1099497 h 0.0152 c 0,1.46559 1.19911,2.66454 2.66454,2.66454 v 0.0155 c -1.46559,0 -2.66454,1.19912 -2.66454,2.66427 h -0.0152 c 0,-1.46511 -1.19912,-2.66427 -2.66455,-2.66427 v -0.0155 c 1.46559,0 2.66455,-1.19911 2.66455,-2.66454 z M 18.13356,5.0090703 h 0.0264 c 0,2.5640495 2.09796,4.6620097 4.66161,4.6620097 v 0.0264 c -2.56373,0 -4.66161,2.09764 -4.66161,4.66161 h -0.0264 c 0,-2.56405 -2.09796,-4.66161 -4.66201,-4.66161 v -0.0264 c 2.56405,0 4.66201,-2.0979602 4.66201,-4.6620097 z"
     fill-rule="evenodd"
     id="path67"
     sodipodi:nodetypes="cccccccccccccccccccccc"
     style="fill:url(#linearGradient2572);fill-opacity:1;stroke-width:0.0397071" />
</svg>
