<?xml version="1.0" encoding="UTF-8" standalone="no"?>
<svg
   version="1.1"
   viewBox="0 0 32 32"
   id="svg7"
   sodipodi:docname="view-refresh.svg"
   inkscape:version="1.1.1 (3bf5ae0d25, 2021-09-20)"
   xmlns:inkscape="http://www.inkscape.org/namespaces/inkscape"
   xmlns:sodipodi="http://sodipodi.sourceforge.net/DTD/sodipodi-0.dtd"
   xmlns:xlink="http://www.w3.org/1999/xlink"
   xmlns="http://www.w3.org/2000/svg"
   xmlns:svg="http://www.w3.org/2000/svg">
  <sodipodi:namedview
     id="namedview9"
     pagecolor="#ffffff"
     bordercolor="#666666"
     borderopacity="1.0"
     inkscape:pageshadow="2"
     inkscape:pageopacity="0.0"
     inkscape:pagecheckerboard="0"
     showgrid="false"
     inkscape:zoom="9.71875"
     inkscape:cx="-8.3344051"
     inkscape:cy="7.0482315"
     inkscape:window-width="1920"
     inkscape:window-height="1015"
     inkscape:window-x="0"
     inkscape:window-y="0"
     inkscape:window-maximized="1"
     inkscape:current-layer="svg7" />
  <defs
     id="defs3">
    <style
       type="text/css"
       id="current-color-scheme">.ColorScheme-Text {
        color:#eff0f1;
      }</style>
    <linearGradient
       inkscape:collect="always"
       xlink:href="#linearGradient4197"
       id="linearGradient4199"
       x1="0.34999999"
       y1="16"
       x2="31.688475"
       y2="16"
       gradientUnits="userSpaceOnUse"
       gradientTransform="translate(0.04999973)" />
    <linearGradient
       inkscape:collect="always"
       id="linearGradient4197">
      <stop
         style="stop-color:#5fd3bd;stop-opacity:1;"
         offset="0"
         id="stop4193" />
      <stop
         style="stop-color:#c299ff;stop-opacity:1"
         offset="1"
         id="stop4195" />
    </linearGradient>
  </defs>
  <path
     d="m 15.038116,4 c -1.46404,0.0037 -2.917213,0.2586 -4.295025,0.75419 -0.28272,0.101446 -0.452345,0.390536 -0.40273,0.686826 0.04929,0.296298 0.303776,0.51443 0.603951,0.518594 5.858034,0.08483 10.519184,4.54535 11.192564,10.22259 h -3.07274 c -0.25113,2.9e-4 -0.4773,0.15133 -0.57347,0.38333 -0.0959,0.23198 -0.0429,0.4989 0.13443,0.67658 l 6.02683,6.026841 c 0.24254,0.242229 0.63555,0.242229 0.878087,0 l 6.026844,-6.026841 c 0.177389,-0.17767 0.230319,-0.44459 0.134429,-0.67658 -0.0962,-0.232 -0.32236,-0.38305 -0.57348,-0.38333 h -3.40005 C 27.374895,9.423382 21.883846,4.000516 15.040806,4.000516 h -0.003 z m 0.003,1.241723 c 6.392122,0 11.560817,5.168991 11.560817,11.560817 2.85e-4,0.342851 0.278011,0.62086 0.620871,0.62086 H 29.61896 L 25.091128,21.951231 20.563296,17.4234 h 2.359835 c 0.171016,2.9e-4 0.334828,-0.0702 0.452342,-0.19456 0.117506,-0.12446 0.178484,-0.29187 0.168507,-0.46261 -0.322523,-5.5146 -4.210692,-9.918898 -9.349302,-11.377036 0.28688,-0.02243 0.55794,-0.147176 0.8465,-0.148006 z M 7.0377978,8.549754 c -0.161308,0.0028 -0.315138,0.06794 -0.429342,0.181828 L 0.58162173,14.75841 c -0.177386,0.17767 -0.230334,0.44459 -0.134426,0.67658 0.09617,0.232 0.322346,0.38305 0.57346007,0.38333 h 3.40005 C 4.7630108,22.57742 10.254331,28.00071 17.097646,28 c 1.467093,0 2.9214,-0.26165 4.29751,-0.75667 h 2.9e-4 c 0.28272,-0.10146 0.45234,-0.39054 0.40273,-0.686826 -0.0493,-0.296024 -0.30377,-0.514434 -0.60396,-0.518604 -5.85824,-0.08509 -10.519184,-4.54307 -11.19255,-10.21974 h 3.072739 c 0.25112,-2.9e-4 0.477281,-0.15134 0.57346,-0.38333 0.09591,-0.231998 0.0429,-0.4989 -0.134419,-0.67658 L 7.4866048,8.731416 C 7.3676938,8.612504 7.2058318,8.547096 7.0378598,8.549588 Z m 0.01,1.498652 v 2.12e-4 1e-5 0 0 0 0 0 0 0 0 0 z"
     id="path2-36"
     sodipodi:nodetypes="ccccccccccccccsccccsccccscccccccccccccccccccsccccccccccccccc"
     style="fill:url(#linearGradient4199);fill-opacity:1;stroke:none;stroke-width:0.070956;stroke-opacity:1" />
</svg>
