<?xml version="1.0" encoding="UTF-8" standalone="no"?>
<svg
   viewBox="0 0 32 32"
   version="1.1"
   id="svg9"
   sodipodi:docname="xfsm-hibernate.svg"
   inkscape:version="1.1.1 (3bf5ae0d25, 2021-09-20)"
   xmlns:inkscape="http://www.inkscape.org/namespaces/inkscape"
   xmlns:sodipodi="http://sodipodi.sourceforge.net/DTD/sodipodi-0.dtd"
   xmlns:xlink="http://www.w3.org/1999/xlink"
   xmlns="http://www.w3.org/2000/svg"
   xmlns:svg="http://www.w3.org/2000/svg">
  <defs
     id="defs13">
    <linearGradient
       inkscape:collect="always"
       xlink:href="#linearGradient10217"
       id="linearGradient10307"
       x1="24.721432"
       y1="13.113756"
       x2="27.999983"
       y2="13.113756"
       gradientUnits="userSpaceOnUse"
       gradientTransform="translate(6.648e-5)" />
    <linearGradient
       inkscape:collect="always"
       id="linearGradient10217">
      <stop
         style="stop-color:#2ad4ff;stop-opacity:1;"
         offset="0"
         id="stop10213" />
      <stop
         style="stop-color:#e9afdd;stop-opacity:1"
         offset="1"
         id="stop10215" />
    </linearGradient>
    <linearGradient
       inkscape:collect="always"
       xlink:href="#linearGradient10217"
       id="linearGradient10315"
       x1="24.721432"
       y1="15.543697"
       x2="27.999983"
       y2="15.543697"
       gradientUnits="userSpaceOnUse"
       gradientTransform="translate(6.648e-5)" />
    <linearGradient
       inkscape:collect="always"
       xlink:href="#linearGradient10217"
       id="linearGradient10219"
       x1="-784.59998"
       y1="582.5"
       x2="-776.90002"
       y2="582.5"
       gradientUnits="userSpaceOnUse" />
    <linearGradient
       inkscape:collect="always"
       xlink:href="#linearGradient10217"
       id="linearGradient10291"
       x1="15.864742"
       y1="16"
       x2="25.856525"
       y2="16"
       gradientUnits="userSpaceOnUse"
       gradientTransform="translate(6.648e-5)" />
    <linearGradient
       inkscape:collect="always"
       xlink:href="#linearGradient10217"
       id="linearGradient10299"
       x1="24.721432"
       y1="10.835723"
       x2="27.999983"
       y2="10.835723"
       gradientUnits="userSpaceOnUse"
       gradientTransform="translate(6.648e-5)" />
  </defs>
  <sodipodi:namedview
     id="namedview11"
     pagecolor="#ffffff"
     bordercolor="#666666"
     borderopacity="1.0"
     inkscape:pageshadow="2"
     inkscape:pageopacity="0.0"
     inkscape:pagecheckerboard="0"
     showgrid="false"
     inkscape:zoom="9.71875"
     inkscape:cx="-8.3344051"
     inkscape:cy="7.0482315"
     inkscape:window-width="1920"
     inkscape:window-height="1015"
     inkscape:window-x="0"
     inkscape:window-y="0"
     inkscape:window-maximized="1"
     inkscape:current-layer="svg9" />
  <style
     type="text/css"
     id="current-color-scheme">
        .ColorScheme-Text {
            color:#eff0f1;
        }
    </style>
  <path
     style="color:#000000;overflow:visible;opacity:0;fill:none;fill-opacity:1;stroke-width:1.06667"
     inkscape:connector-curvature="0"
     d="m -26.546624,-18.057878 c -8.827627,0 -16,7.172373 -16,16 0,8.827627 7.172373,16 16,16 8.827627,0 16,-7.172373 16,-16 0,-8.827627 -7.172373,-16 -16,-16 z"
     overflow="visible"
     id="path938" />
  <rect
     x="24.7215"
     y="12.658059"
     width="3.2785513"
     height="0.91139299"
     id="rect12"
     style="fill:url(#linearGradient10307);fill-opacity:1;stroke-width:1.54016" />
  <rect
     x="24.7215"
     y="15.088"
     width="3.2785513"
     height="0.91139299"
     id="rect14"
     style="fill:url(#linearGradient10315);fill-opacity:1;stroke-width:1.54016" />
  <polygon
     points="-783.6,579.3 -781,581.9 -784.6,581.9 -784.6,583.1 -781,583.1 -783.6,585.7 -782.7,586.5 -780.1,584 -780.1,587.6 -778.9,587.6 -778.9,584 -776.9,586 -776.9,584.3 -778,583.1 -776.9,583.1 -776.9,581.9 -778,581.9 -776.9,580.7 -776.9,579 -778.9,581 -778.9,577.4 -780.1,577.4 -780.1,581 -782.7,578.4 "
     id="polygon16"
     transform="matrix(1.5612116,0,0,1.5189889,1228.9266,-872.76069)"
     style="fill:url(#linearGradient10219);fill-opacity:1" />
  <path
     d="M 23.827086,19.341759 V 6.886153 C 23.827086,5.367193 22.421728,4 20.86055,4 19.299387,4 17.894363,5.215229 17.894363,6.886153 v 12.455606 c -1.249169,0.91152 -2.029556,2.278604 -2.029556,3.797585 0,2.58227 2.185672,4.860655 4.995743,4.860655 2.654108,0 4.99604,-2.126574 4.99604,-4.860655 0,-1.518981 -0.780683,-2.886065 -2.029504,-3.797585 z m -0.82911,0.651603 -4.996278,0.02028 4.98985,-0.01933 -0.0026,-0.0039 0.0062,-12.95583 -4.980894,-0.02482 0.01103,-0.01217 -0.02272,13.0098 5.010509,-0.0092 z"
     id="path6-6"
     style="fill:url(#linearGradient10291);fill-opacity:1;stroke-width:1.54016"
     sodipodi:nodetypes="cssscsssccccccccccc" />
  <rect
     x="24.7215"
     y="10.380027"
     width="3.2785513"
     height="0.91139299"
     id="rect10"
     style="fill:url(#linearGradient10299);fill-opacity:1;stroke-width:1.54016" />
</svg>
