<?xml version="1.0" encoding="UTF-8" standalone="no"?>
<svg
   viewBox="0 0 16 16"
   version="1.1"
   id="svg6"
   sodipodi:docname="system-help.svg"
   inkscape:version="1.1.1 (3bf5ae0d25, 2021-09-20)"
   xmlns:inkscape="http://www.inkscape.org/namespaces/inkscape"
   xmlns:sodipodi="http://sodipodi.sourceforge.net/DTD/sodipodi-0.dtd"
   xmlns:xlink="http://www.w3.org/1999/xlink"
   xmlns="http://www.w3.org/2000/svg"
   xmlns:svg="http://www.w3.org/2000/svg">
  <sodipodi:namedview
     id="namedview8"
     pagecolor="#ffffff"
     bordercolor="#666666"
     borderopacity="1.0"
     inkscape:pageshadow="2"
     inkscape:pageopacity="0.0"
     inkscape:pagecheckerboard="0"
     showgrid="false"
     inkscape:zoom="38.875"
     inkscape:cx="8"
     inkscape:cy="7.9871383"
     inkscape:window-width="1920"
     inkscape:window-height="1007"
     inkscape:window-x="0"
     inkscape:window-y="0"
     inkscape:window-maximized="1"
     inkscape:current-layer="svg6" />
  <defs
     id="defs3051">
    <linearGradient
       inkscape:collect="always"
       id="linearGradient859">
      <stop
         style="stop-color:#4e99ca;stop-opacity:0.80000001"
         offset="0"
         id="stop855" />
      <stop
         style="stop-color:#20ffff;stop-opacity:0.80000001"
         offset="0.52465403"
         id="stop1089" />
      <stop
         style="stop-color:#ffaeff;stop-opacity:0.6901961"
         offset="1"
         id="stop857" />
    </linearGradient>
    <style
       type="text/css"
       id="current-color-scheme">
      .ColorScheme-Text {
        color:#eff0f1;
      }
      </style>
    <linearGradient
       inkscape:collect="always"
       xlink:href="#linearGradient859"
       id="linearGradient861"
       x1="2"
       y1="8"
       x2="14"
       y2="8"
       gradientUnits="userSpaceOnUse" />
  </defs>
  <path
     style="fill:url(#linearGradient861);fill-opacity:1;stroke:none"
     d="M 8 2 A 6 6 0 0 0 2 8 A 6 6 0 0 0 8 14 A 6 6 0 0 0 14 8 A 6 6 0 0 0 8 2 z M 2 3 L 2 5 L 4 3 L 2 3 z M 8 3 A 5 5 0 0 1 10.390625 3.609375 L 8.8691406 5.1308594 A 3 3 0 0 0 8 5 A 3 3 0 0 0 7.1308594 5.1308594 L 5.6132812 3.6132812 A 5 5 0 0 1 8 3 z M 12 3 L 14 5 L 14 3 L 12 3 z M 3.609375 5.609375 L 5.1308594 7.1308594 A 3 3 0 0 0 5 8 A 3 3 0 0 0 5.1308594 8.8691406 L 3.6132812 10.386719 A 5 5 0 0 1 3 8 A 5 5 0 0 1 3.609375 5.609375 z M 12.386719 5.6132812 A 5 5 0 0 1 13 8 A 5 5 0 0 1 12.390625 10.390625 L 10.869141 8.8691406 A 3 3 0 0 0 11 8 A 3 3 0 0 0 10.869141 7.1308594 L 12.386719 5.6132812 z M 8 6 A 2 2 0 0 1 10 8 A 2 2 0 0 1 8 10 A 2 2 0 0 1 6 8 A 2 2 0 0 1 8 6 z M 7.1308594 10.869141 A 3 3 0 0 0 8 11 A 3 3 0 0 0 8.8691406 10.869141 L 10.386719 12.386719 A 5 5 0 0 1 8 13 A 5 5 0 0 1 5.609375 12.390625 L 7.1308594 10.869141 z M 2 11 L 2 13 L 4 13 L 2 11 z M 14 11 L 12 13 L 14 13 L 14 11 z "
     class="ColorScheme-Text"
     id="path4" />
</svg>
