<?xml version="1.0" encoding="UTF-8" standalone="no"?>
<svg
   viewBox="0 0 22 22"
   version="1.1"
   id="svg6"
   sodipodi:docname="bookmarks.svg"
   inkscape:version="1.1.1 (3bf5ae0d25, 2021-09-20)"
   xmlns:inkscape="http://www.inkscape.org/namespaces/inkscape"
   xmlns:sodipodi="http://sodipodi.sourceforge.net/DTD/sodipodi-0.dtd"
   xmlns:xlink="http://www.w3.org/1999/xlink"
   xmlns="http://www.w3.org/2000/svg"
   xmlns:svg="http://www.w3.org/2000/svg">
  <sodipodi:namedview
     id="namedview8"
     pagecolor="#ffffff"
     bordercolor="#666666"
     borderopacity="1.0"
     inkscape:pageshadow="2"
     inkscape:pageopacity="0.0"
     inkscape:pagecheckerboard="0"
     showgrid="false"
     inkscape:zoom="14.136364"
     inkscape:cx="15.421221"
     inkscape:cy="13.758842"
     inkscape:window-width="1920"
     inkscape:window-height="1007"
     inkscape:window-x="0"
     inkscape:window-y="0"
     inkscape:window-maximized="1"
     inkscape:current-layer="svg6"
     inkscape:lockguides="true">
    <inkscape:grid
       type="xygrid"
       id="grid940" />
  </sodipodi:namedview>
  <defs
     id="defs3051">
    <style
       type="text/css"
       id="current-color-scheme">
      .ColorScheme-Text {
        color:#eff0f1;
      }
      </style>
    <linearGradient
       inkscape:collect="always"
       id="linearGradient1015">
      <stop
         style="stop-color:#f28fad;stop-opacity:1"
         offset="0"
         id="stop1011" />
      <stop
         style="stop-color:#fae3b0;stop-opacity:1"
         offset="1"
         id="stop1013" />
    </linearGradient>
    <linearGradient
       inkscape:collect="always"
       xlink:href="#linearGradient1015"
       id="linearGradient1660"
       gradientUnits="userSpaceOnUse"
       gradientTransform="matrix(1.0434893,0,0,1.1088966,-6.373838,-7.5736008)"
       x1="12.337299"
       y1="18.102324"
       x2="21.920532"
       y2="18.102324" />
    <linearGradient
       inkscape:collect="always"
       xlink:href="#linearGradient1015"
       id="linearGradient1662"
       gradientUnits="userSpaceOnUse"
       gradientTransform="matrix(0.61538462,0,0,0.69230775,1.153846,-0.07692331)"
       x1="3"
       y1="16"
       x2="29.058193"
       y2="16" />
  </defs>
  <rect
     style="fill:#5599ff;fill-opacity:0.15;stroke:none;stroke-width:0.424262"
     id="center-3"
     width="15.999974"
     height="18"
     x="3.0000257"
     y="2.000001"
     ry="1.1381458"
     rx="1.0263171" />
  <path
     d="M 13.834884,8 C 13.122946,8 12.453672,8.294642 11.95032,8.829542 L 11.500002,9.308026 11.049736,8.829603 C 10.54633,8.294642 9.87711,8.0000613 9.1651763,8.0000613 8.4533001,8.0000613 7.7839629,8.294642 7.2806117,8.829603 6.7772045,9.364566 6.5,10.075795 6.5,10.832294 c 0,0.756499 0.2772623,1.467788 0.7806117,2.002689 l 3.7071113,3.939479 C 11.124498,16.919882 11.306485,17 11.500002,17 c 0.193514,0 0.375496,-0.08001 0.512275,-0.225476 l 3.707052,-3.939479 C 16.222796,12.300082 16.5,11.588913 16.5,10.832353 16.5,10.075859 16.222796,9.364627 15.719389,8.829667 15.216036,8.2945802 14.546761,8 13.834884,8 Z m 1.269761,4.181706 -3.604585,3.830588 -3.604648,-3.830588 c -0.3391591,-0.36048 -0.5260099,-0.839705 -0.5260099,-1.349412 0,-0.509772 0.1867936,-0.988996 0.5260099,-1.349477 0.339218,-0.360481 0.7901757,-0.558982 1.2698795,-0.558982 0.4797035,0 0.9306645,0.198501 1.2698795,0.558982 l 0.552669,0.587251 c 0.136774,0.145417 0.318761,0.225539 0.512276,0.225539 0.193514,0 0.375498,-0.08003 0.512215,-0.225476 l 0.552788,-0.587374 c 0.339161,-0.360481 0.790117,-0.558984 1.269765,-0.558984 0.479703,6.2e-5 0.930659,0.198563 1.269879,0.558984 0.339219,0.360479 0.525951,0.839703 0.525951,1.349411 -5.5e-5,0.509833 -0.186792,0.989058 -0.526069,1.349538 z"
     id="path4-3-5"
     style="fill:url(#linearGradient1660);fill-opacity:1;stroke-width:0.059745" />
  <path
     d="m 17.924995,19.984917 c 0.612521,-6.63e-4 1.110816,-0.560621 1.110816,-1.249668 V 3.249668 C 19.035811,2.5606202 18.537516,2 17.924995,2 H 4.268923 C 4.127354,2 4.012308,2.129119 4.012308,2.288384 c 0,0.1592658 0.115046,0.288386 0.256615,0.288386 h 13.656072 c 0.329793,0 0.598132,0.301881 0.598132,0.672898 V 3.8270924 C 18.350318,3.7023174 18.145142,3.6296442 17.924995,3.6296442 H 4.110816 C 3.498329,3.6296442 3,4.1902644 3,4.8793126 v 3.5969298 c 0,0.159265 0.114773,0.2883848 0.256342,0.2883848 0.141569,0 0.256342,-0.1291198 0.256342,-0.2883848 V 4.8793126 c 0,-0.371017 0.268339,-0.6728981 0.598132,-0.6728981 h 13.814179 c 0.329793,0 0.598132,0.3018811 0.598132,0.6728981 V 5.2030732 C 18.350318,5.0782982 18.145142,5.0056254 17.924995,5.0056254 H 5.464508 c -0.612487,0 -1.110816,0.5606202 -1.110816,1.2496676 v 8.776441 c 0,0.159265 0.114773,0.288382 0.256342,0.288382 0.141569,0 0.256343,-0.129117 0.256343,-0.288382 V 6.255255 c 0,-0.371017 0.268338,-0.6728984 0.598131,-0.6728984 h 12.460487 c 0.329793,0 0.598132,0.3018814 0.598132,0.6728984 v 12.479994 c 0,0.371016 -0.268339,0.6729 -0.598132,0.6729 H 5.464508 c -0.329793,0 -0.598131,-0.301884 -0.598131,-0.6729 v -2.446736 c 0,-0.159265 -0.114774,-0.288386 -0.256343,-0.288386 -0.141569,0 -0.256342,0.129121 -0.256342,0.288386 v 2.446736 c 0,0.247666 0.06463,0.478491 0.175543,0.6729 H 4.110816 c -0.329793,0 -0.598132,-0.301884 -0.598132,-0.6729 V 9.733062 C 3.512684,9.573796 3.397911,9.444676 3.256342,9.444676 3.114773,9.444676 3,9.573796 3,9.733062 v 9.002187 c 0,0.247666 0.06463,0.478491 0.175543,0.6729 v 0 0 0 0 0 0 0 0 0 l 0.268944,-0.306593 -0.268944,0.306593 0.268944,-0.306593 -0.268944,0.306593 v 0 0 0 0 0 c 0.221037,0.371387 0.469957,0.503995 0.877909,0.59185 z"
     id="path6-3-3"
     sodipodi:nodetypes="ssssssssscsssssssssscsssssssssssssssssscssssssccccccccccccccccccccs"
     style="fill:url(#linearGradient1662);fill-opacity:1;stroke-width:0.0362524" />
</svg>
