<?xml version="1.0" encoding="UTF-8" standalone="no"?>
<svg
   viewBox="0 0 22 22"
   version="1.1"
   id="svg6"
   sodipodi:docname="system-help.svg"
   inkscape:version="1.1.1 (3bf5ae0d25, 2021-09-20)"
   xmlns:inkscape="http://www.inkscape.org/namespaces/inkscape"
   xmlns:sodipodi="http://sodipodi.sourceforge.net/DTD/sodipodi-0.dtd"
   xmlns:xlink="http://www.w3.org/1999/xlink"
   xmlns="http://www.w3.org/2000/svg"
   xmlns:svg="http://www.w3.org/2000/svg">
  <sodipodi:namedview
     id="namedview8"
     pagecolor="#ffffff"
     bordercolor="#666666"
     borderopacity="1.0"
     inkscape:pageshadow="2"
     inkscape:pageopacity="0.0"
     inkscape:pagecheckerboard="0"
     showgrid="true"
     inkscape:zoom="28.272727"
     inkscape:cx="11"
     inkscape:cy="9.7797429"
     inkscape:window-width="1920"
     inkscape:window-height="1007"
     inkscape:window-x="0"
     inkscape:window-y="0"
     inkscape:window-maximized="1"
     inkscape:current-layer="svg6">
    <inkscape:grid
       type="xygrid"
       id="grid1229" />
  </sodipodi:namedview>
  <defs
     id="defs3051">
    <linearGradient
       inkscape:collect="always"
       id="linearGradient859">
      <stop
         style="stop-color:#4e99ca;stop-opacity:0.80000001"
         offset="0"
         id="stop855" />
      <stop
         style="stop-color:#20ffff;stop-opacity:0.80000001"
         offset="0.50690329"
         id="stop1025" />
      <stop
         style="stop-color:#ffaeff;stop-opacity:0.6901961"
         offset="1"
         id="stop857" />
    </linearGradient>
    <style
       type="text/css"
       id="current-color-scheme">
      .ColorScheme-Text {
        color:#eff0f1;
      }
      </style>
    <linearGradient
       inkscape:collect="always"
       xlink:href="#linearGradient859"
       id="linearGradient954"
       gradientUnits="userSpaceOnUse"
       x1="3"
       y1="11"
       x2="19"
       y2="11" />
  </defs>
  <rect
     style="fill:#4e5a7e;fill-opacity:0.5;stroke:none;stroke-width:0.35"
     id="center-3-35-5"
     width="14"
     height="14"
     x="4"
     y="4"
     ry="6.9999886" />
  <path
     style="color:#eff0f1;fill:url(#linearGradient954);fill-opacity:1;stroke:none"
     d="M 11.000001,3 C 9.1218971,3 7.4030555,3.645037 6.0410156,4.720703 c -0.00511,0.004 -0.01053,0.0077 -0.015625,0.01172 -0.053047,0.0421 -0.10627,0.08354 -0.1582031,0.126953 L 5.0078125,4 H 3 V 6.007812 L 4.0429688,7.050781 C 3.3827678,8.215374 3,9.560439 3,11 c 0,1.439561 0.3827678,2.784626 1.0429688,3.949219 L 3,15.992188 V 18 h 2.0078125 l 0.859375,-0.859375 c 0.051933,0.04341 0.1051562,0.08485 0.1582031,0.126953 0.0051,0.004 0.010518,0.0077 0.015625,0.01172 C 7.4030555,18.354962 9.1218971,19 11,19 c 1.958443,0 3.745099,-0.699284 5.132812,-1.859375 L 16.992189,18 h 2.007812 V 15.992188 L 17.957032,14.949219 C 18.617233,13.784626 19.000001,12.439561 19.000001,11 c 0,-1.439561 -0.382768,-2.784626 -1.042969,-3.949219 L 19,6.007812 V 4 h -2.007812 l -0.859376,0.859375 c -0.05193,-0.04341 -0.105156,-0.08485 -0.158203,-0.126953 -0.0051,-0.004 -0.01051,-0.0077 -0.01563,-0.01172 C 14.596949,3.645037 12.878103,2.999999 11.000001,3 Z m 0,1 c 1.240475,0 2.401828,0.321366 3.410156,0.882812 L 12.117188,7.175781 C 11.760744,7.072275 11.390712,7 11.000001,7 10.60929,7 10.239256,7.07228 9.8828125,7.175781 L 8.7070311,6 7.5898438,4.882812 C 8.5981721,4.321366 9.7595251,4 11.000001,4 Z m -6.6992198,0.707031 0.84375,0.84375 c -0.1427551,0.153391 -0.2816806,0.310284 -0.4121093,0.47461 -0.00404,0.0051 -0.00769,0.01052 -0.011719,0.01563 -0.040368,0.05111 -0.078055,0.104128 -0.1171875,0.15625 L 3.7070312,5.300781 Z m 13.3984388,0 0.59375,0.59375 -0.896485,0.896485 C 17.227387,5.972039 17.046973,5.756553 16.85547,5.550781 Z M 4.8828125,7.589844 7.1757812,9.882812 C 7.0722749,10.239255 7,10.609289 7,11 c 0,0.390711 0.072275,0.760745 0.1757812,1.117188 L 6,13.292969 4.8828125,14.410156 C 4.3213657,13.401828 4,12.240475 4,11 4,9.759525 4.3213657,8.598172 4.8828125,7.589844 Z m 12.2343755,0 C 17.678634,8.598172 18,9.759525 18,11 c 0,1.240475 -0.321366,2.401828 -0.882812,3.410156 L 16,13.292969 14.824219,12.117188 C 14.927725,11.760744 15,11.390711 15,11 15,10.609289 14.92773,10.239255 14.824219,9.882812 Z M 11,8 c 0.09117,0 0.176574,0.01946 0.265625,0.02734 0.394743,0.03495 0.764336,0.142437 1.099609,0.314453 0.557017,0.285783 1.007187,0.735953 1.292969,1.292969 0.172016,0.335273 0.279502,0.704866 0.314453,1.099609 0.0079,0.08905 0.02734,0.174456 0.02734,0.265625 0,0.09117 -0.01946,0.176574 -0.02734,0.265625 -0.03495,0.394743 -0.142436,0.764336 -0.314453,1.099609 -0.285783,0.557016 -0.735953,1.007186 -1.292969,1.292969 -0.335273,0.172016 -0.704865,0.279502 -1.099609,0.314453 -0.08906,0.0079 -0.17446,0.02734 -0.265629,0.02734 -0.09117,0 -0.176574,-0.01946 -0.265625,-0.02734 C 10.339628,13.937702 9.970035,13.830215 9.6347611,13.658199 9.0777461,13.372416 8.6275761,12.922246 8.3417931,12.36523 8.169777,12.029957 8.0622912,11.660364 8.0273398,11.265621 c -0.00788,-0.08905 -0.027344,-0.174456 -0.027344,-0.265625 0,-0.09117 0.019459,-0.176574 0.027344,-0.265625 C 8.0622908,10.339628 8.169777,9.970035 8.3417931,9.634762 8.6275761,9.077746 9.0777461,8.627576 9.6347611,8.341793 9.970035,8.169777 10.339628,8.062291 10.734371,8.02734 10.823421,8.01944 10.908827,8 10.999996,8 Z M 9.8828125,14.824219 C 10.239255,14.927725 10.609289,15 11,15 c 0.390711,0 0.760745,-0.07227 1.117188,-0.175781 l 2.292968,2.292969 C 13.401828,17.678634 12.240475,18 11,18 9.7595251,18 8.5981721,17.678634 7.5898438,17.117188 L 8.7070311,16 Z m -5.2792969,0.978515 c 0.1690983,0.225227 0.3495115,0.440713 0.5410156,0.646485 l -0.84375,0.84375 -0.59375,-0.59375 z m 12.7929684,0 0.896485,0.896485 -0.59375,0.59375 -0.84375,-0.84375 c 0.191504,-0.205772 0.371917,-0.421258 0.541015,-0.646485 z"
     class="ColorScheme-Text"
     id="path4-5" />
</svg>
