<?xml version="1.0" encoding="UTF-8" standalone="no"?>
<svg
   width="32"
   version="1.1"
   height="32"
   viewBox="0 0 32 32"
   id="svg15"
   sodipodi:docname="folder-reddit.svg"
   inkscape:version="1.1.2 (0a00cf5339, 2022-02-04)"
   xmlns:inkscape="http://www.inkscape.org/namespaces/inkscape"
   xmlns:sodipodi="http://sodipodi.sourceforge.net/DTD/sodipodi-0.dtd"
   xmlns:xlink="http://www.w3.org/1999/xlink"
   xmlns="http://www.w3.org/2000/svg"
   xmlns:svg="http://www.w3.org/2000/svg"
   xmlns:rdf="http://www.w3.org/1999/02/22-rdf-syntax-ns#"
   xmlns:cc="http://creativecommons.org/ns#"
   xmlns:dc="http://purl.org/dc/elements/1.1/">
  <sodipodi:namedview
     pagecolor="#ffffff"
     bordercolor="#666666"
     borderopacity="1"
     objecttolerance="10"
     gridtolerance="10"
     guidetolerance="10"
     inkscape:pageopacity="0"
     inkscape:pageshadow="2"
     inkscape:window-width="1920"
     inkscape:window-height="1015"
     id="namedview17"
     showgrid="true"
     inkscape:zoom="9.8125"
     inkscape:cx="-16.203822"
     inkscape:cy="-3.3121019"
     inkscape:window-x="0"
     inkscape:window-y="0"
     inkscape:window-maximized="1"
     inkscape:current-layer="layer1"
     inkscape:document-rotation="0"
     inkscape:pagecheckerboard="0">
    <inkscape:grid
       type="xygrid"
       id="grid847" />
  </sodipodi:namedview>
  <defs
     id="defs5455">
    <linearGradient
       inkscape:collect="always"
       xlink:href="#linearGradient1295"
       id="linearGradient1493"
       gradientUnits="userSpaceOnUse"
       x1="20.750315"
       y1="1025.9873"
       x2="-12.062732"
       y2="995.35931" />
    <linearGradient
       inkscape:collect="always"
       id="linearGradient1295">
      <stop
         style="stop-color:#1d212f;stop-opacity:1;"
         offset="0"
         id="stop1291" />
      <stop
         style="stop-color:#717da8;stop-opacity:1"
         offset="1"
         id="stop1293" />
    </linearGradient>
    <linearGradient
       inkscape:collect="always"
       xlink:href="#linearGradient952"
       id="linearGradient1297"
       x1="2.0000021"
       y1="1025.9873"
       x2="62.938519"
       y2="1025.9873"
       gradientUnits="userSpaceOnUse" />
    <linearGradient
       inkscape:collect="always"
       id="linearGradient952">
      <stop
         style="stop-color:#2e354b;stop-opacity:1"
         offset="0"
         id="stop948" />
      <stop
         style="stop-color:#717da8;stop-opacity:1"
         offset="1"
         id="stop950" />
    </linearGradient>
    <linearGradient
       inkscape:collect="always"
       xlink:href="#linearGradient873"
       id="linearGradient875"
       x1="389.57144"
       y1="523.79797"
       x2="409.57126"
       y2="523.79797"
       gradientUnits="userSpaceOnUse"
       gradientTransform="matrix(0.5,0,0,0.5,192.28572,273.899)" />
    <linearGradient
       inkscape:collect="always"
       id="linearGradient873">
      <stop
         style="stop-color:#404868;stop-opacity:1"
         offset="0"
         id="stop869" />
      <stop
         style="stop-color:#becad8;stop-opacity:1"
         offset="1"
         id="stop871" />
    </linearGradient>
  </defs>
  <metadata
     id="metadata5458">
    <rdf:RDF>
      <cc:Work
         rdf:about="">
        <dc:format>image/svg+xml</dc:format>
        <dc:type
           rdf:resource="http://purl.org/dc/dcmitype/StillImage" />
      </cc:Work>
    </rdf:RDF>
  </metadata>
  <g
     inkscape:label="Capa 1"
     inkscape:groupmode="layer"
     id="layer1"
     transform="translate(-384.57143,-515.798)">
    <g
       transform="matrix(0.53332446,0,0,0.57137396,383.50478,-52.924394)"
       id="g19">
      <rect
         width="60"
         height="42"
         x="2"
         y="1002.36"
         rx="6.5219998"
         ry="6.5619998"
         style="opacity:0.85;fill:url(#linearGradient1493);fill-opacity:1;stroke:none"
         id="rect11" />
      <path
         d="m 8.522,1002.36 c -3.613,0 -6.522,3.3302 -6.522,6.1002 v 0.8998 c 0,-2.77 2.909,-5 6.522,-5 h 46.957 c 3.613,0 6.522,2.23 6.522,5 v -0.8998 c 0,-2.77 -2.909,-6.1002 -6.522,-6.1002 z"
         style="opacity:0.2;fill:#ffffff;fill-opacity:1;stroke:none"
         id="path13"
         sodipodi:nodetypes="sscsscsss" />
      <path
         d="m 8.522,1013.3603 h 10.435 c 14.348,-1.333 11.86095,-6.5781 20.991951,-6.5781 h 15.361736 c 3.612989,0 6.689313,1.4143 6.689313,5.1083 v 25.8035 c 0,3.693 -2.908,6.667 -6.521,6.667 H 8.522 c -3.613,0 -6.522,-2.973 -6.522,-6.667 v -18.667 c 0,-4 2.609,-5.6667 6.522,-5.6667 z"
         style="opacity:0.6;fill:url(#linearGradient1297);fill-opacity:1;stroke:none"
         id="path15"
         sodipodi:nodetypes="scsssssssss" />
      <path
         d="m 2,1035.03 v 2.667 c 0,3.693 2.909,6.667 6.522,6.667 h 46.957 c 3.613,0 6.522,-2.973 6.522,-6.667 v -2.667 c 0,3.693 -2.909,7.333 -6.522,7.333 H 8.522 c -3.613,0 -6.522,-3.64 -6.522,-7.333 z"
         style="opacity:0.15;fill:#000000;fill-opacity:1;stroke:none"
         id="path17" />
    </g>
    <rect
       y="540.19928"
       x="404.57147"
       height="0.17142858"
       width="10.933346"
       id="rect4209"
       style="fill:#000000;fill-opacity:1;fill-rule:nonzero;stroke:none;stroke-width:0.211249;stroke-linecap:round;stroke-linejoin:round;stroke-miterlimit:4;stroke-dasharray:none;stroke-dashoffset:0;stroke-opacity:1" />
    <path
       d="m 396.68006,533.85851 c -0.24916,-0.59312 -0.61687,-1.12691 -1.06758,-1.58954 -0.46264,-0.46264 -0.99643,-0.81854 -1.58955,-1.06758 -0.61696,-0.26106 -1.26933,-0.40339 -1.94553,-0.40339 -0.67621,0 -1.32858,0.14232 -1.94545,0.4033 -0.59312,0.24915 -1.12691,0.61687 -1.58955,1.06758 -0.46264,0.46264 -0.81853,0.99643 -1.06758,1.58955 -0.26106,0.61696 -0.40339,1.26933 -0.40339,1.94553 0,0.6762 0.14233,1.32858 0.40331,1.94545 0.24915,0.59312 0.61687,1.12691 1.06758,1.58955 0.46263,0.46263 0.99642,0.81853 1.58955,1.06758 0.61687,0.26097 1.26932,0.39146 1.94544,0.39146 0.6762,0 1.32858,-0.13049 1.94545,-0.39146 0.59312,-0.24916 1.12691,-0.61687 1.58955,-1.06758 0.46263,-0.46264 0.81853,-0.99643 1.06758,-1.58955 0.26097,-0.61687 0.39146,-1.26933 0.39146,-1.94545 1.7e-4,-0.6762 -0.13033,-1.32857 -0.39132,-1.94545 z"
       id="path67"
       style="fill:url(#linearGradient875);fill-opacity:1;stroke-width:0.021183" />
    <path
       d="m 395.44863,535.64596 c 0,-0.52554 -0.42757,-0.95176 -0.9517,-0.95176 -0.20652,0 -0.40372,0.0662 -0.56655,0.18667 -0.462,-0.23298 -1.01131,-0.37326 -1.59239,-0.40637 l 0.3799,-1.04967 0.91865,0.229 c 0.0199,0.37724 0.33355,0.67636 0.71478,0.67636 0.39441,0 0.71608,-0.32164 0.71608,-0.71605 0,-0.39447 -0.32167,-0.71614 -0.71608,-0.71614 -0.26872,0 -0.50299,0.14823 -0.6261,0.36799 l -1.25884,-0.31505 -0.54798,1.5156 c -0.63138,0.0186 -1.22971,0.16148 -1.72872,0.41168 -0.16282,-0.12046 -0.3587,-0.18532 -0.5652,-0.18532 -0.5255,10e-4 -0.95305,0.42887 -0.95305,0.95306 0,0.25676 0.1059,0.50428 0.28722,0.68168 -0.0119,0.0754 -0.0186,0.15224 -0.0186,0.22895 0,0.57581 0.33618,1.11061 0.94507,1.50507 0.58241,0.37852 1.35412,0.58634 2.17216,0.58634 0.81805,0 1.58841,-0.20782 2.17212,-0.58634 0.60888,-0.39582 0.94512,-0.93056 0.94512,-1.50507 0,-0.0754 -0.007,-0.15086 -0.0172,-0.2263 0.18397,-0.17606 0.29122,-0.42492 0.29122,-0.68433 z m -4.87908,0.55593 c 0,-0.30578 0.24886,-0.55463 0.55464,-0.55463 0.30576,0 0.55462,0.24885 0.55462,0.55463 0,0.30573 -0.24886,0.55461 -0.55462,0.55461 -0.30578,0 -0.55464,-0.24888 -0.55464,-0.55461 z m 1.52621,1.75517 c -0.43019,0 -0.84978,-0.12179 -1.21246,-0.35207 l 0.21309,-0.33491 c 0.29916,0.1906 0.64595,0.29122 1.0007,0.29122 0.35476,0 0.70022,-0.10062 1.00067,-0.29122 l 0.21312,0.33491 c -0.36533,0.23028 -0.78493,0.35207 -1.21512,0.35207 z m 0.98349,-1.20056 c -0.30579,0 -0.55459,-0.24888 -0.55459,-0.55461 0,-0.30578 0.2488,-0.55463 0.55459,-0.55463 0.30578,0 0.55461,0.24885 0.55461,0.55463 0,0.30573 -0.24883,0.55461 -0.55461,0.55461 z m 0,0"
       id="path2-3"
       style="fill:#2e354b;fill-opacity:1;stroke-width:0.0132367" />
  </g>
</svg>
