<?xml version="1.0" encoding="UTF-8" standalone="no"?>
<svg
   width="32"
   version="1.1"
   height="32"
   viewBox="0 0 32 32"
   id="svg15"
   sodipodi:docname="folder-calculate.svg"
   inkscape:version="1.1.2 (0a00cf5339, 2022-02-04)"
   xmlns:inkscape="http://www.inkscape.org/namespaces/inkscape"
   xmlns:sodipodi="http://sodipodi.sourceforge.net/DTD/sodipodi-0.dtd"
   xmlns:xlink="http://www.w3.org/1999/xlink"
   xmlns="http://www.w3.org/2000/svg"
   xmlns:svg="http://www.w3.org/2000/svg"
   xmlns:rdf="http://www.w3.org/1999/02/22-rdf-syntax-ns#"
   xmlns:cc="http://creativecommons.org/ns#"
   xmlns:dc="http://purl.org/dc/elements/1.1/">
  <sodipodi:namedview
     pagecolor="#ffffff"
     bordercolor="#666666"
     borderopacity="1"
     objecttolerance="10"
     gridtolerance="10"
     guidetolerance="10"
     inkscape:pageopacity="0"
     inkscape:pageshadow="2"
     inkscape:window-width="1920"
     inkscape:window-height="1015"
     id="namedview17"
     showgrid="true"
     inkscape:zoom="6.9384853"
     inkscape:cx="-9.6562862"
     inkscape:cy="-17.943398"
     inkscape:window-x="0"
     inkscape:window-y="0"
     inkscape:window-maximized="1"
     inkscape:current-layer="g4"
     inkscape:pagecheckerboard="0">
    <inkscape:grid
       type="xygrid"
       id="grid862" />
  </sodipodi:namedview>
  <defs
     id="defs5455">
    <linearGradient
       inkscape:collect="always"
       xlink:href="#linearGradient1295"
       id="linearGradient1493"
       gradientUnits="userSpaceOnUse"
       x1="20.750315"
       y1="1025.9873"
       x2="-12.062732"
       y2="995.35931" />
    <linearGradient
       inkscape:collect="always"
       id="linearGradient1295">
      <stop
         style="stop-color:#1d212f;stop-opacity:1;"
         offset="0"
         id="stop1291" />
      <stop
         style="stop-color:#717da8;stop-opacity:1"
         offset="1"
         id="stop1293" />
    </linearGradient>
    <linearGradient
       inkscape:collect="always"
       xlink:href="#linearGradient952"
       id="linearGradient1297"
       x1="2.0000021"
       y1="1025.9873"
       x2="62.938519"
       y2="1025.9873"
       gradientUnits="userSpaceOnUse" />
    <linearGradient
       inkscape:collect="always"
       id="linearGradient952">
      <stop
         style="stop-color:#2e354b;stop-opacity:1"
         offset="0"
         id="stop948" />
      <stop
         style="stop-color:#717da8;stop-opacity:1"
         offset="1"
         id="stop950" />
    </linearGradient>
    <linearGradient
       inkscape:collect="always"
       xlink:href="#linearGradient1257"
       id="linearGradient1259"
       x1="389.57144"
       y1="523.79797"
       x2="409.57144"
       y2="523.79797"
       gradientUnits="userSpaceOnUse"
       gradientTransform="matrix(1.3883548,0,0,1.3461638,-465.19071,330.12438)" />
    <linearGradient
       inkscape:collect="always"
       id="linearGradient1257">
      <stop
         style="stop-color:#404868;stop-opacity:1"
         offset="0"
         id="stop1253" />
      <stop
         style="stop-color:#becad8;stop-opacity:1"
         offset="1"
         id="stop1255" />
    </linearGradient>
  </defs>
  <metadata
     id="metadata5458">
    <rdf:RDF>
      <cc:Work
         rdf:about="">
        <dc:format>image/svg+xml</dc:format>
        <dc:type
           rdf:resource="http://purl.org/dc/dcmitype/StillImage" />
      </cc:Work>
    </rdf:RDF>
  </metadata>
  <g
     inkscape:label="Capa 1"
     inkscape:groupmode="layer"
     id="layer1"
     transform="translate(-384.57143,-515.798)">
    <g
       transform="matrix(0.36013848,0,0,0.37142583,359.81878,151.2823)"
       id="g4">
      <g
         transform="matrix(1.4808871,0,0,1.5383258,65.769115,-549.79125)"
         id="g19">
        <rect
           width="60"
           height="42"
           x="2"
           y="1002.36"
           rx="6.5219998"
           ry="6.5619998"
           style="opacity:0.85;fill:url(#linearGradient1493);fill-opacity:1;stroke:none"
           id="rect11" />
        <path
           d="m 8.522,1002.36 c -3.613,0 -6.522,3.3302 -6.522,6.1002 v 0.8998 c 0,-2.77 2.909,-5 6.522,-5 h 46.957 c 3.613,0 6.522,2.23 6.522,5 v -0.8998 c 0,-2.77 -2.909,-6.1002 -6.522,-6.1002 z"
           style="opacity:0.2;fill:#ffffff;fill-opacity:1;stroke:none"
           id="path13"
           sodipodi:nodetypes="sscsscsss" />
        <path
           d="m 8.522,1013.3603 h 10.435 c 14.348,-1.333 11.86095,-6.5781 20.991951,-6.5781 h 15.361736 c 3.612989,0 6.689313,1.4143 6.689313,5.1083 v 25.8035 c 0,3.693 -2.908,6.667 -6.521,6.667 H 8.522 c -3.613,0 -6.522,-2.973 -6.522,-6.667 v -18.667 c 0,-4 2.609,-5.6667 6.522,-5.6667 z"
           style="opacity:0.6;fill:url(#linearGradient1297);fill-opacity:1;stroke:none"
           id="path15"
           sodipodi:nodetypes="scsssssssss" />
        <path
           d="m 2,1035.03 v 2.667 c 0,3.693 2.909,6.667 6.522,6.667 h 46.957 c 3.613,0 6.522,-2.973 6.522,-6.667 v -2.667 c 0,3.693 -2.909,7.333 -6.522,7.333 H 8.522 c -3.613,0 -6.522,-3.64 -6.522,-7.333 z"
           style="opacity:0.15;fill:#000000;fill-opacity:1;stroke:none"
           id="path17" />
      </g>
      <rect
         y="1047.0923"
         x="124.26511"
         height="0.46154189"
         width="30.358727"
         id="rect4209"
         style="fill:#000000;fill-opacity:1;fill-rule:nonzero;stroke:none;stroke-width:0.577595;stroke-linecap:round;stroke-linejoin:round;stroke-miterlimit:4;stroke-dasharray:none;stroke-dashoffset:0;stroke-opacity:1" />
      <path
         d="m 89.55623,1021.7808 c -2.436938,0 -4.831142,0.622 -6.941719,1.8034 -2.110591,1.1817 -3.86307,2.8809 -5.081837,4.9274 -1.218476,2.0465 -1.859993,4.3679 -1.859993,6.7308 0,2.3629 0.641517,4.6844 1.859993,6.7308 1.21867,2.0464 2.971163,3.7456 5.081837,4.9274 2.110577,1.1814 4.504781,1.8034 6.941719,1.8034 2.436937,0 4.831141,-0.622 6.941732,-1.8034 2.110577,-1.1817 3.863068,-2.8809 5.081838,-4.9274 1.21846,-2.0464 1.85998,-4.3679 1.85998,-6.7308 0,-2.3629 -0.64152,-4.6843 -1.85998,-6.7308 -1.21867,-2.0464 -2.971164,-3.7456 -5.081838,-4.9274 -2.110591,-1.1814 -4.504795,-1.8034 -6.941732,-1.8034 z m -6.475635,7.1514 h 11.287242 v 5.5212 c -1.94e-4,0.057 -0.0125,0.1136 -0.03541,0.166 1.025398,0.6881 1.699777,1.8352 1.699777,3.132 0,2.0955 -1.758879,3.8009 -3.920034,3.8009 -1.352896,0 -2.550643,-0.6688 -3.257205,-1.6827 h -5.774029 z m 0.871179,0.838 v 9.2615 h 4.480943 c -0.150303,-0.402 -0.245794,-0.8285 -0.245794,-1.28 0,-2.0955 1.763905,-3.8074 3.92506,-3.8074 0.488659,0 0.952744,0.098 1.384675,0.258 v -4.4319 z m 2.172567,0.8447 h 0.864446 v 1.262 h 1.299847 v 0.8446 h -1.299847 v 1.2605 h -0.864446 v -1.2605 H 84.81597 v -0.8446 h 1.308371 z m 3.035472,1.262 h 3.4724 v 0.8446 h -3.4724 z m 2.95217,2.9119 c -1.692252,0 -3.054062,1.3219 -3.053867,2.9627 0,0.5067 0.141584,0.9756 0.371107,1.3918 0.06706,0.062 0.112179,0.1422 0.128839,0.23 0.544832,0.8072 1.481111,1.341 2.553962,1.341 1.692238,0 3.0488,-1.322 3.0488,-2.9628 0,-1.6408 -1.356562,-2.9627 -3.0488,-2.9627 z m -6.475648,0.4223 0.918632,0.8923 0.92023,-0.8923 0.615138,0.5965 -0.918438,0.8905 0.918438,0.8924 -0.615138,0.5965 -0.92023,-0.8908 -0.918632,0.8908 -0.615139,-0.5965 0.92023,-0.8924 -0.92023,-0.8905 z m 4.701344,1.2915 h 3.543692 v 0.8447 h -3.543692 z m -0.0186,1.6844 h 3.5809 v 0.8445 h -3.5809 z"
         id="path2"
         style="fill:url(#linearGradient1259);fill-opacity:1;stroke-width:0.0488245" />
    </g>
  </g>
</svg>
