<?xml version="1.0" encoding="UTF-8" standalone="no"?>
<svg
   width="32"
   version="1.1"
   height="32"
   viewBox="0 0 32 32"
   id="svg17"
   sodipodi:docname="folder-mail.svg"
   inkscape:version="1.1.2 (0a00cf5339, 2022-02-04)"
   xmlns:inkscape="http://www.inkscape.org/namespaces/inkscape"
   xmlns:sodipodi="http://sodipodi.sourceforge.net/DTD/sodipodi-0.dtd"
   xmlns:xlink="http://www.w3.org/1999/xlink"
   xmlns="http://www.w3.org/2000/svg"
   xmlns:svg="http://www.w3.org/2000/svg"
   xmlns:rdf="http://www.w3.org/1999/02/22-rdf-syntax-ns#"
   xmlns:cc="http://creativecommons.org/ns#"
   xmlns:dc="http://purl.org/dc/elements/1.1/">
  <sodipodi:namedview
     pagecolor="#ffffff"
     bordercolor="#666666"
     borderopacity="1"
     objecttolerance="10"
     gridtolerance="10"
     guidetolerance="10"
     inkscape:pageopacity="0"
     inkscape:pageshadow="2"
     inkscape:window-width="1920"
     inkscape:window-height="1015"
     id="namedview19"
     showgrid="false"
     inkscape:zoom="9.8125"
     inkscape:cx="-19.770701"
     inkscape:cy="1.0700637"
     inkscape:window-x="0"
     inkscape:window-y="0"
     inkscape:window-maximized="1"
     inkscape:current-layer="layer1"
     inkscape:pagecheckerboard="0" />
  <defs
     id="defs5455">
    <linearGradient
       inkscape:collect="always"
       xlink:href="#linearGradient1295"
       id="linearGradient1493"
       gradientUnits="userSpaceOnUse"
       x1="20.750315"
       y1="1025.9873"
       x2="-12.062732"
       y2="995.35931" />
    <linearGradient
       inkscape:collect="always"
       id="linearGradient1295">
      <stop
         style="stop-color:#1d212f;stop-opacity:1;"
         offset="0"
         id="stop1291" />
      <stop
         style="stop-color:#717da8;stop-opacity:1"
         offset="1"
         id="stop1293" />
    </linearGradient>
    <linearGradient
       inkscape:collect="always"
       xlink:href="#linearGradient952"
       id="linearGradient1297"
       x1="2.0000021"
       y1="1025.9873"
       x2="62.938519"
       y2="1025.9873"
       gradientUnits="userSpaceOnUse" />
    <linearGradient
       inkscape:collect="always"
       id="linearGradient952">
      <stop
         style="stop-color:#2e354b;stop-opacity:1"
         offset="0"
         id="stop948" />
      <stop
         style="stop-color:#717da8;stop-opacity:1"
         offset="1"
         id="stop950" />
    </linearGradient>
    <linearGradient
       inkscape:collect="always"
       xlink:href="#linearGradient875"
       id="linearGradient877"
       x1="389.57144"
       y1="523.79797"
       x2="409.57126"
       y2="523.79797"
       gradientUnits="userSpaceOnUse"
       gradientTransform="matrix(0.5,0,0,0.5,192.28571,273.89899)" />
    <linearGradient
       inkscape:collect="always"
       id="linearGradient875">
      <stop
         style="stop-color:#404868;stop-opacity:1"
         offset="0"
         id="stop871" />
      <stop
         style="stop-color:#becad8;stop-opacity:1"
         offset="1"
         id="stop873" />
    </linearGradient>
  </defs>
  <metadata
     id="metadata5458">
    <rdf:RDF>
      <cc:Work
         rdf:about="">
        <dc:format>image/svg+xml</dc:format>
        <dc:type
           rdf:resource="http://purl.org/dc/dcmitype/StillImage" />
      </cc:Work>
    </rdf:RDF>
  </metadata>
  <g
     inkscape:label="Capa 1"
     inkscape:groupmode="layer"
     id="layer1"
     transform="translate(-384.57143,-515.798)">
    <g
       transform="matrix(0.53332446,0,0,0.57137396,383.50478,-52.924394)"
       id="g19">
      <rect
         width="60"
         height="42"
         x="2"
         y="1002.36"
         rx="6.5219998"
         ry="6.5619998"
         style="opacity:0.85;fill:url(#linearGradient1493);fill-opacity:1;stroke:none"
         id="rect11" />
      <path
         d="m 8.522,1002.36 c -3.613,0 -6.522,3.3302 -6.522,6.1002 v 0.8998 c 0,-2.77 2.909,-5 6.522,-5 h 46.957 c 3.613,0 6.522,2.23 6.522,5 v -0.8998 c 0,-2.77 -2.909,-6.1002 -6.522,-6.1002 z"
         style="opacity:0.2;fill:#ffffff;fill-opacity:1;stroke:none"
         id="path13"
         sodipodi:nodetypes="sscsscsss" />
      <path
         d="m 8.522,1013.3603 h 10.435 c 14.348,-1.333 11.86095,-6.5781 20.991951,-6.5781 h 15.361736 c 3.612989,0 6.689313,1.4143 6.689313,5.1083 v 25.8035 c 0,3.693 -2.908,6.667 -6.521,6.667 H 8.522 c -3.613,0 -6.522,-2.973 -6.522,-6.667 v -18.667 c 0,-4 2.609,-5.6667 6.522,-5.6667 z"
         style="opacity:0.6;fill:url(#linearGradient1297);fill-opacity:1;stroke:none"
         id="path15"
         sodipodi:nodetypes="scsssssssss" />
      <path
         d="m 2,1035.03 v 2.667 c 0,3.693 2.909,6.667 6.522,6.667 h 46.957 c 3.613,0 6.522,-2.973 6.522,-6.667 v -2.667 c 0,3.693 -2.909,7.333 -6.522,7.333 H 8.522 c -3.613,0 -6.522,-3.64 -6.522,-7.333 z"
         style="opacity:0.15;fill:#000000;fill-opacity:1;stroke:none"
         id="path17" />
    </g>
    <rect
       y="540.19952"
       x="404.57144"
       height="0.17142858"
       width="10.933346"
       id="rect4209"
       style="fill:#000000;fill-opacity:1;fill-rule:nonzero;stroke:none;stroke-width:0.211249;stroke-linecap:round;stroke-linejoin:round;stroke-miterlimit:4;stroke-dasharray:none;stroke-dashoffset:0;stroke-opacity:1" />
    <path
       d="m 396.68005,533.8585 c -0.24915,-0.59312 -0.61687,-1.12691 -1.06758,-1.58955 -0.46264,-0.46263 -0.99643,-0.81853 -1.58955,-1.06757 -0.61695,-0.26106 -1.26933,-0.40339 -1.94553,-0.40339 -0.6762,0 -1.32858,0.14232 -1.94544,0.4033 -0.59313,0.24915 -1.12692,0.61687 -1.58955,1.06758 -0.46264,0.46264 -0.81854,0.99643 -1.06758,1.58955 -0.26106,0.61696 -0.40339,1.26933 -0.40339,1.94553 0,0.6762 0.14232,1.32858 0.4033,1.94545 0.24915,0.59312 0.61687,1.12691 1.06758,1.58955 0.46264,0.46263 0.99643,0.81853 1.58955,1.06758 0.61687,0.26097 1.26933,0.39146 1.94545,0.39146 0.6762,0 1.32857,-0.13049 1.94544,-0.39146 0.59312,-0.24916 1.12691,-0.61687 1.58955,-1.06758 0.46264,-0.46264 0.81853,-0.99643 1.06758,-1.58955 0.26098,-0.61687 0.39146,-1.26933 0.39146,-1.94545 1.7e-4,-0.6762 -0.13032,-1.32857 -0.39131,-1.94545 z"
       id="path67-3"
       style="fill:url(#linearGradient877);fill-opacity:1;stroke-width:0.021183" />
    <path
       d="m 392.08447,536.53583 -3.16285,-1.78698 v 3.37135 c 0,0.3742 0.30335,0.67779 0.67779,0.67779 h 4.97026 c 0.37428,0 0.67787,-0.30335 0.67787,-0.67779 v -3.37165 z"
       id="path2-3"
       style="fill:#2e354b;fill-opacity:1;stroke-width:0.242669" />
    <path
       d="m 389.92627,535.31664 -0.002,-2.01001 c -8e-5,-0.0935 0.0759,-0.16934 0.16934,-0.16934 h 3.98218 c 0.0935,0 0.16939,0.0759 0.16939,0.16934 l 0.007,2.02511 0.49209,-0.29666 0.50331,-0.28653 -0.66383,-0.47272 v -0.9692 c 0,-0.28029 -0.22785,-0.50835 -0.50841,-0.50835 h -1.4342 l -0.50123,-2.9e-4 -0.61226,4e-4 h -1.43422 c -0.28033,-1.3e-4 -0.50845,0.22789 -0.50845,0.50815 v 0.96928 l -0.6635,0.47302 0.5718,0.3312 z"
       id="path4"
       style="fill:#2e354b;fill-opacity:1;stroke-width:0.242672"
       sodipodi:nodetypes="cssssccccssccccscccc" />
    <path
       d="m 392.84281,534.04337 c -0.0965,-0.0585 -0.32728,-0.10911 -0.51623,-0.10911 -0.61265,0 -0.97762,0.45715 -0.97762,0.96496 0,0.34805 0.19709,0.55816 0.47826,0.55816 0.21399,0 0.3942,-0.1091 0.51618,-0.3065 h 0.0124 c 0.034,0.2058 0.16842,0.3065 0.37821,0.3065 0.47825,0 0.81815,-0.39456 0.81815,-0.99875 0,-0.70909 -0.54546,-1.21687 -1.28829,-1.21687 -0.94805,0 -1.58604,0.74278 -1.58604,1.59446 0,0.82659 0.62921,1.32595 1.32597,1.32595 0.30621,0 0.51592,-0.0338 0.77627,-0.14281 0,0 0.17266,-0.0602 0.11809,-0.19145 -0.0546,-0.1313 -0.19338,-0.0768 -0.19338,-0.0768 -0.16816,0.0798 -0.39879,0.12172 -0.60003,0.12172 -0.62533,0 -1.07015,-0.37783 -1.07015,-1.0825 0,-0.78047 0.55787,-1.26321 1.18313,-1.26321 0.64615,0 0.9903,0.41557 0.9903,0.93597 0,0.48248 -0.21817,0.688 -0.38184,0.67957 -0.10909,-0.003 -0.1304,-0.10487 -0.097,-0.31459 z m -0.54573,0.64214 c -0.0335,0.2348 -0.16821,0.38188 -0.28941,0.38188 -0.11329,0 -0.17172,-0.0841 -0.17172,-0.23086 0,-0.28542 0.18052,-0.52466 0.41528,-0.52466 0.0337,0 0.0672,0.003 0.0964,0.0128 z"
       id="path6"
       style="fill:#2e354b;fill-opacity:1;stroke-width:0.281162" />
  </g>
</svg>
