<?xml version="1.0" encoding="UTF-8" standalone="no"?>
<svg
   width="32"
   version="1.1"
   height="32"
   viewBox="0 0 32 32"
   id="svg17"
   sodipodi:docname="folder-important.svg"
   inkscape:version="1.1.2 (0a00cf5339, 2022-02-04)"
   xmlns:inkscape="http://www.inkscape.org/namespaces/inkscape"
   xmlns:sodipodi="http://sodipodi.sourceforge.net/DTD/sodipodi-0.dtd"
   xmlns:xlink="http://www.w3.org/1999/xlink"
   xmlns="http://www.w3.org/2000/svg"
   xmlns:svg="http://www.w3.org/2000/svg"
   xmlns:rdf="http://www.w3.org/1999/02/22-rdf-syntax-ns#"
   xmlns:cc="http://creativecommons.org/ns#"
   xmlns:dc="http://purl.org/dc/elements/1.1/">
  <sodipodi:namedview
     pagecolor="#ffffff"
     bordercolor="#666666"
     borderopacity="1"
     objecttolerance="10"
     gridtolerance="10"
     guidetolerance="10"
     inkscape:pageopacity="0"
     inkscape:pageshadow="2"
     inkscape:window-width="1920"
     inkscape:window-height="1015"
     id="namedview19"
     showgrid="false"
     inkscape:zoom="6.9384853"
     inkscape:cx="-38.04865"
     inkscape:cy="0.64855654"
     inkscape:window-x="0"
     inkscape:window-y="0"
     inkscape:window-maximized="1"
     inkscape:current-layer="layer1"
     inkscape:pagecheckerboard="0" />
  <defs
     id="defs5455">
    <linearGradient
       inkscape:collect="always"
       xlink:href="#linearGradient1295"
       id="linearGradient1493"
       gradientUnits="userSpaceOnUse"
       x1="20.750315"
       y1="1025.9873"
       x2="-12.062732"
       y2="995.35931" />
    <linearGradient
       inkscape:collect="always"
       id="linearGradient1295">
      <stop
         style="stop-color:#1d212f;stop-opacity:1;"
         offset="0"
         id="stop1291" />
      <stop
         style="stop-color:#717da8;stop-opacity:1"
         offset="1"
         id="stop1293" />
    </linearGradient>
    <linearGradient
       inkscape:collect="always"
       xlink:href="#linearGradient952"
       id="linearGradient1297"
       x1="2.0000021"
       y1="1025.9873"
       x2="62.938519"
       y2="1025.9873"
       gradientUnits="userSpaceOnUse" />
    <linearGradient
       inkscape:collect="always"
       id="linearGradient952">
      <stop
         style="stop-color:#2e354b;stop-opacity:1"
         offset="0"
         id="stop948" />
      <stop
         style="stop-color:#717da8;stop-opacity:1"
         offset="1"
         id="stop950-3" />
    </linearGradient>
    <linearGradient
       inkscape:collect="always"
       xlink:href="#linearGradient880"
       id="linearGradient882"
       x1="389.57144"
       y1="523.79797"
       x2="409.57126"
       y2="523.79797"
       gradientUnits="userSpaceOnUse"
       gradientTransform="matrix(0.5,0,0,0.5,192.28572,273.899)" />
    <linearGradient
       inkscape:collect="always"
       id="linearGradient880">
      <stop
         style="stop-color:#404868;stop-opacity:1"
         offset="0"
         id="stop876" />
      <stop
         style="stop-color:#becad8;stop-opacity:1"
         offset="1"
         id="stop878" />
    </linearGradient>
  </defs>
  <metadata
     id="metadata5458">
    <rdf:RDF>
      <cc:Work
         rdf:about="">
        <dc:format>image/svg+xml</dc:format>
        <dc:type
           rdf:resource="http://purl.org/dc/dcmitype/StillImage" />
      </cc:Work>
    </rdf:RDF>
  </metadata>
  <g
     inkscape:label="Capa 1"
     inkscape:groupmode="layer"
     id="layer1"
     transform="translate(-384.57143,-515.798)">
    <g
       transform="matrix(0.53332446,0,0,0.57137396,383.50478,-52.924394)"
       id="g19">
      <rect
         width="60"
         height="42"
         x="2"
         y="1002.36"
         rx="6.5219998"
         ry="6.5619998"
         style="opacity:0.85;fill:url(#linearGradient1493);fill-opacity:1;stroke:none"
         id="rect11" />
      <path
         d="m 8.522,1002.36 c -3.613,0 -6.522,3.3302 -6.522,6.1002 v 0.8998 c 0,-2.77 2.909,-5 6.522,-5 h 46.957 c 3.613,0 6.522,2.23 6.522,5 v -0.8998 c 0,-2.77 -2.909,-6.1002 -6.522,-6.1002 z"
         style="opacity:0.2;fill:#ffffff;fill-opacity:1;stroke:none"
         id="path13"
         sodipodi:nodetypes="sscsscsss" />
      <path
         d="m 8.522,1013.3603 h 10.435 c 14.348,-1.333 11.86095,-6.5781 20.991951,-6.5781 h 15.361736 c 3.612989,0 6.689313,1.4143 6.689313,5.1083 v 25.8035 c 0,3.693 -2.908,6.667 -6.521,6.667 H 8.522 c -3.613,0 -6.522,-2.973 -6.522,-6.667 v -18.667 c 0,-4 2.609,-5.6667 6.522,-5.6667 z"
         style="opacity:0.6;fill:url(#linearGradient1297);fill-opacity:1;stroke:none"
         id="path15"
         sodipodi:nodetypes="scsssssssss" />
      <path
         d="m 2,1035.03 v 2.667 c 0,3.693 2.909,6.667 6.522,6.667 h 46.957 c 3.613,0 6.522,-2.973 6.522,-6.667 v -2.667 c 0,3.693 -2.909,7.333 -6.522,7.333 H 8.522 c -3.613,0 -6.522,-3.64 -6.522,-7.333 z"
         style="opacity:0.15;fill:#000000;fill-opacity:1;stroke:none"
         id="path17" />
    </g>
    <rect
       y="540.19958"
       x="404.57144"
       height="0.17142858"
       width="10.933346"
       id="rect4209"
       style="fill:#000000;fill-opacity:1;fill-rule:nonzero;stroke:none;stroke-width:0.211249;stroke-linecap:round;stroke-linejoin:round;stroke-miterlimit:4;stroke-dasharray:none;stroke-dashoffset:0;stroke-opacity:1" />
    <path
       d="m 396.68006,533.85851 c -0.24916,-0.59312 -0.61687,-1.12691 -1.06758,-1.58955 -0.46264,-0.46263 -0.99643,-0.81853 -1.58955,-1.06757 -0.61696,-0.26106 -1.26933,-0.40339 -1.94553,-0.40339 -0.67621,0 -1.32858,0.14232 -1.94545,0.4033 -0.59312,0.24915 -1.12691,0.61687 -1.58955,1.06758 -0.46264,0.46264 -0.81853,0.99643 -1.06758,1.58955 -0.26106,0.61696 -0.40339,1.26933 -0.40339,1.94553 0,0.6762 0.14233,1.32858 0.40331,1.94545 0.24915,0.59312 0.61687,1.12691 1.06758,1.58955 0.46263,0.46263 0.99642,0.81853 1.58955,1.06758 0.61687,0.26097 1.26932,0.39146 1.94544,0.39146 0.6762,0 1.32858,-0.13049 1.94545,-0.39146 0.59312,-0.24916 1.12691,-0.61687 1.58955,-1.06758 0.46263,-0.46264 0.81853,-0.99643 1.06758,-1.58955 0.26097,-0.61687 0.39146,-1.26933 0.39146,-1.94545 1.7e-4,-0.6762 -0.13033,-1.32857 -0.39132,-1.94545 z"
       id="path67"
       style="fill:url(#linearGradient882);fill-opacity:1;stroke-width:0.021183" />
    <g
       id="g6"
       transform="matrix(0.01746319,0,0,0.01746319,385.9877,530.95775)">
      <path
         d="m 342.66,433.8 c -2.4102,0.52344 -4.7812,1.2031 -7.1016,2.0312 -2.2773,1.0312 -4.4766,2.2188 -6.5859,3.5508 -2.0547,1.4648 -4.0039,3.0703 -5.8281,4.8164 -7.1406,7.1172 -11.152,16.785 -11.152,26.867 0,10.082 4.0117,19.75 11.152,26.871 1.8281,1.7383 3.7734,3.3477 5.8281,4.8125 2.0625,1.3398 4.2734,2.4453 6.5859,3.293 2.2734,1.0234 4.6562,1.7852 7.1016,2.2773 2.418,0.51953 4.8828,0.77734 7.3516,0.76562 10.082,-0.008 19.746,-4.0195 26.871,-11.148 1.7344,-1.8359 3.3438,-3.7891 4.8125,-5.8438 1.3438,-2.0625 2.4492,-4.2695 3.293,-6.582 1.0234,-2.2734 1.7852,-4.6523 2.2773,-7.0938 0.51953,-2.4141 0.77344,-4.8789 0.76562,-7.3516 -0.008,-11.367 -5.1016,-22.133 -13.883,-29.348 -8.7852,-7.2109 -20.336,-10.117 -31.488,-7.918 z"
         id="path2"
         style="fill:#2e354b;fill-opacity:1" />
      <path
         d="m 424.71,112.47 c -5.2188,-26.668 -24.258,-48.531 -49.953,-57.359 -25.699,-8.832 -54.156,-3.2891 -74.66,14.543 -20.504,17.828 -29.945,45.238 -24.77,71.914 l 47.254,242.6 c 1.6641,8.5547 7.2266,15.844 15.039,19.707 7.8125,3.8672 16.98,3.8672 24.793,0 7.8125,-3.8633 13.371,-11.152 15.039,-19.707 l 47.258,-242.6 c 1.8438,-9.6094 1.8438,-19.484 0,-29.098 z"
         id="path4"
         style="fill:#2e354b;fill-opacity:1" />
    </g>
  </g>
</svg>
