<?xml version="1.0" encoding="UTF-8" standalone="no"?>
<svg
   width="32"
   version="1.1"
   height="32"
   viewBox="0 0 32 32"
   id="svg15"
   sodipodi:docname="folder-mac.svg"
   inkscape:version="1.1.2 (0a00cf5339, 2022-02-04)"
   xmlns:inkscape="http://www.inkscape.org/namespaces/inkscape"
   xmlns:sodipodi="http://sodipodi.sourceforge.net/DTD/sodipodi-0.dtd"
   xmlns:xlink="http://www.w3.org/1999/xlink"
   xmlns="http://www.w3.org/2000/svg"
   xmlns:svg="http://www.w3.org/2000/svg"
   xmlns:rdf="http://www.w3.org/1999/02/22-rdf-syntax-ns#"
   xmlns:cc="http://creativecommons.org/ns#"
   xmlns:dc="http://purl.org/dc/elements/1.1/">
  <sodipodi:namedview
     pagecolor="#ffffff"
     bordercolor="#666666"
     borderopacity="1"
     objecttolerance="10"
     gridtolerance="10"
     guidetolerance="10"
     inkscape:pageopacity="0"
     inkscape:pageshadow="2"
     inkscape:window-width="1920"
     inkscape:window-height="1015"
     id="namedview17"
     showgrid="true"
     inkscape:zoom="9.8125"
     inkscape:cx="0.81528662"
     inkscape:cy="18.089172"
     inkscape:window-x="0"
     inkscape:window-y="0"
     inkscape:window-maximized="1"
     inkscape:current-layer="g4"
     inkscape:pagecheckerboard="0">
    <inkscape:grid
       type="xygrid"
       id="grid862" />
  </sodipodi:namedview>
  <defs
     id="defs5455">
    <linearGradient
       inkscape:collect="always"
       xlink:href="#linearGradient1295"
       id="linearGradient1493"
       gradientUnits="userSpaceOnUse"
       x1="20.750315"
       y1="1025.9873"
       x2="-12.062732"
       y2="995.35931" />
    <linearGradient
       inkscape:collect="always"
       id="linearGradient1295">
      <stop
         style="stop-color:#1d212f;stop-opacity:1;"
         offset="0"
         id="stop1291" />
      <stop
         style="stop-color:#717da8;stop-opacity:1"
         offset="1"
         id="stop1293" />
    </linearGradient>
    <linearGradient
       inkscape:collect="always"
       xlink:href="#linearGradient952"
       id="linearGradient1297"
       x1="2.0000021"
       y1="1025.9873"
       x2="62.938519"
       y2="1025.9873"
       gradientUnits="userSpaceOnUse" />
    <linearGradient
       inkscape:collect="always"
       id="linearGradient952">
      <stop
         style="stop-color:#2e354b;stop-opacity:1"
         offset="0"
         id="stop948" />
      <stop
         style="stop-color:#717da8;stop-opacity:1"
         offset="1"
         id="stop950" />
    </linearGradient>
    <linearGradient
       inkscape:collect="always"
       xlink:href="#linearGradient876"
       id="linearGradient878"
       x1="5"
       y1="40"
       x2="24.99983"
       y2="40"
       gradientUnits="userSpaceOnUse"
       gradientTransform="matrix(1.3883548,0,0,1.3461638,68.730926,981.39571)" />
    <linearGradient
       inkscape:collect="always"
       id="linearGradient876">
      <stop
         style="stop-color:#404868;stop-opacity:1"
         offset="0"
         id="stop872" />
      <stop
         style="stop-color:#becad8;stop-opacity:1"
         offset="1"
         id="stop874" />
    </linearGradient>
  </defs>
  <metadata
     id="metadata5458">
    <rdf:RDF>
      <cc:Work
         rdf:about="">
        <dc:format>image/svg+xml</dc:format>
        <dc:type
           rdf:resource="http://purl.org/dc/dcmitype/StillImage" />
      </cc:Work>
    </rdf:RDF>
  </metadata>
  <g
     inkscape:label="Capa 1"
     inkscape:groupmode="layer"
     id="layer1"
     transform="translate(-384.57143,-515.798)">
    <g
       transform="matrix(0.36013848,0,0,0.37142583,359.81878,151.2823)"
       id="g4">
      <g
         transform="matrix(1.4808871,0,0,1.5383258,65.769148,-549.79125)"
         id="g19">
        <rect
           width="60"
           height="42"
           x="2"
           y="1002.36"
           rx="6.5219998"
           ry="6.5619998"
           style="opacity:0.85;fill:url(#linearGradient1493);fill-opacity:1;stroke:none"
           id="rect11" />
        <path
           d="m 8.522,1002.36 c -3.613,0 -6.522,3.3302 -6.522,6.1002 v 0.8998 c 0,-2.77 2.909,-5 6.522,-5 h 46.957 c 3.613,0 6.522,2.23 6.522,5 v -0.8998 c 0,-2.77 -2.909,-6.1002 -6.522,-6.1002 z"
           style="opacity:0.2;fill:#ffffff;fill-opacity:1;stroke:none"
           id="path13"
           sodipodi:nodetypes="sscsscsss" />
        <path
           d="m 8.522,1013.3603 h 10.435 c 14.348,-1.333 11.86095,-6.5781 20.991951,-6.5781 h 15.361736 c 3.612989,0 6.689313,1.4143 6.689313,5.1083 v 25.8035 c 0,3.693 -2.908,6.667 -6.521,6.667 H 8.522 c -3.613,0 -6.522,-2.973 -6.522,-6.667 v -18.667 c 0,-4 2.609,-5.6667 6.522,-5.6667 z"
           style="opacity:0.6;fill:url(#linearGradient1297);fill-opacity:1;stroke:none"
           id="path15"
           sodipodi:nodetypes="scsssssssss" />
        <path
           d="m 2,1035.03 v 2.667 c 0,3.693 2.909,6.667 6.522,6.667 h 46.957 c 3.613,0 6.522,-2.973 6.522,-6.667 v -2.667 c 0,3.693 -2.909,7.333 -6.522,7.333 H 8.522 c -3.613,0 -6.522,-3.64 -6.522,-7.333 z"
           style="opacity:0.15;fill:#000000;fill-opacity:1;stroke:none"
           id="path17" />
      </g>
      <rect
         y="1047.0891"
         x="124.26514"
         height="0.46154189"
         width="30.358727"
         id="rect4209"
         style="fill:#000000;fill-opacity:1;fill-rule:nonzero;stroke:none;stroke-width:0.577595;stroke-linecap:round;stroke-linejoin:round;stroke-miterlimit:4;stroke-dasharray:none;stroke-dashoffset:0;stroke-opacity:1" />
      <path
         d="m 102.35306,1030.0205 c -0.69183,-1.5969 -1.71287,-3.0341 -2.964357,-4.2796 -1.284617,-1.2456 -2.766797,-2.2038 -4.413719,-2.8743 -1.713105,-0.7029 -3.524561,-1.0861 -5.402172,-1.0861 -1.877625,0 -3.689081,0.3832 -5.401936,1.0859 -1.646936,0.6708 -3.129116,1.6608 -4.413719,2.8743 -1.284617,1.2455 -2.272834,2.6827 -2.96436,4.2795 -0.724888,1.6611 -1.120097,3.4175 -1.120097,5.238 0,1.8206 0.395195,3.577 1.119861,5.2378 0.691817,1.5969 1.712869,3.034 2.96436,4.2796 1.284603,1.2456 2.766783,2.2038 4.413719,2.8743 1.712868,0.7026 3.524547,1.0539 5.401936,1.0539 1.877611,0 3.689067,-0.3513 5.401936,-1.0539 1.646922,-0.6708 3.129101,-1.6608 4.413718,-2.8743 1.2846,-1.2456 2.27282,-2.6827 2.96435,-4.2796 0.72466,-1.6608 1.08698,-3.4174 1.08698,-5.2378 4.7e-4,-1.8205 -0.36188,-3.5769 -1.08657,-5.2377 z"
         id="path67"
         style="fill:url(#linearGradient878);fill-opacity:1;stroke-width:0.0579185" />
      <polygon
         class="st0"
         points="54,19.5 48,49 10,49 5,36 12,19.5 "
         id="polygon4"
         transform="matrix(0.28200958,0,0,0.27343952,80.584005,1026.6267)"
         style="fill:#3a435f;fill-opacity:1" />
      <path
         class="st1"
         d="m 96.094567,1031.8221 c -1.071671,-0.7109 -2.19971,-0.8203 -2.650925,-0.8203 -0.874178,0 -1.579254,0.2734 -2.199709,0.4921 -0.507583,0.1641 -0.930545,0.3282 -1.353646,0.3282 -0.422963,0 -0.817811,-0.1641 -1.269026,-0.3554 -0.56395,-0.2188 -1.184406,-0.4649 -1.945849,-0.4649 -0.90243,0 -4.963368,0.4101 -4.963368,5.3047 0,3.9102 3.355862,7.8204 4.907001,7.8204 0.620456,0 1.156152,-0.1641 1.691988,-0.3555 0.535836,-0.1641 1.071671,-0.3554 1.692127,-0.3554 0.620456,0 1.156152,0.1639 1.691988,0.3554 0.535836,0.1914 1.071671,0.3555 1.692127,0.3555 0.958798,0 2.594419,-1.5313 3.694343,-3.6642 0.08497,-0.1913 0.197354,-0.3828 0.281975,-0.5742 0.05623,-0.1368 0.112456,-0.2734 0.16924,-0.4375 -1.494633,-0.6016 -2.256077,-1.9413 -2.256077,-3.5546 0,-1.0118 0.253722,-1.9142 0.845925,-2.6251 0.225608,-0.2734 0.507721,-0.5195 0.846063,-0.7109 -0.281974,-0.2735 -0.592202,-0.5469 -0.874177,-0.7383 z m -1.974102,4.1015 c 0,1.504 -1.522886,2.7891 -3.75071,3.4181 -0.761443,0.246 -1.833114,0.4101 -3.01752,0.4101 -2.002216,0 -3.694343,-0.4375 -4.060938,-1.0117 -0.281975,-0.7929 -0.451215,-1.6133 -0.451215,-2.4336 0,-2.1055 0.846063,-3.0626 1.635621,-3.5821 0.874316,-0.5468 1.861228,-0.6289 2.227962,-0.6289 0.451216,0 0.845925,0.1369 1.353646,0.3282 0.05623,0.027 0.08497,0.027 0.141113,0.055 0.394792,0.164 1.043418,0.4375 1.691988,0.4375 0.394848,0 0.761443,-0.082 1.071671,-0.1914 0.225607,-0.055 0.451215,-0.164 0.676823,-0.2461 0.05623,-0.028 0.141112,-0.055 0.197354,-0.055 0.535836,-0.1915 1.043502,-0.3556 1.607507,-0.3556 0.310228,0 1.071671,0.083 1.804861,0.4923 -0.81781,0.9844 -1.128038,2.1876 -1.128038,3.3633 z m -4.512153,-5.4688 c 0,-2.1054 1.748494,-3.8007 3.91995,-3.8281 0.02888,0.1914 0.02888,0.3555 0.02888,0.5468 0,2.1057 -1.748494,3.8009 -3.91995,3.8283 -0.02874,-0.1914 -0.02874,-0.3555 -0.02874,-0.547 z"
         id="path6"
         style="clip-rule:evenodd;fill:#3a435f;fill-opacity:1;fill-rule:evenodd;stroke-width:0.277697" />
    </g>
  </g>
</svg>
