<?xml version="1.0" encoding="UTF-8" standalone="no"?>
<svg
   width="32"
   version="1.1"
   height="32"
   viewBox="0 0 32 32"
   id="svg15"
   sodipodi:docname="folder-appimage.svg"
   inkscape:version="1.1.2 (0a00cf5339, 2022-02-04)"
   xmlns:inkscape="http://www.inkscape.org/namespaces/inkscape"
   xmlns:sodipodi="http://sodipodi.sourceforge.net/DTD/sodipodi-0.dtd"
   xmlns:xlink="http://www.w3.org/1999/xlink"
   xmlns="http://www.w3.org/2000/svg"
   xmlns:svg="http://www.w3.org/2000/svg"
   xmlns:rdf="http://www.w3.org/1999/02/22-rdf-syntax-ns#"
   xmlns:cc="http://creativecommons.org/ns#"
   xmlns:dc="http://purl.org/dc/elements/1.1/">
  <sodipodi:namedview
     pagecolor="#ffffff"
     bordercolor="#666666"
     borderopacity="1"
     objecttolerance="10"
     gridtolerance="10"
     guidetolerance="10"
     inkscape:pageopacity="0"
     inkscape:pageshadow="2"
     inkscape:window-width="1920"
     inkscape:window-height="1015"
     id="namedview17"
     showgrid="true"
     inkscape:zoom="6.9384853"
     inkscape:cx="-9.6562862"
     inkscape:cy="16.646284"
     inkscape:window-x="0"
     inkscape:window-y="0"
     inkscape:window-maximized="1"
     inkscape:current-layer="g4"
     inkscape:pagecheckerboard="0">
    <inkscape:grid
       type="xygrid"
       id="grid862" />
  </sodipodi:namedview>
  <defs
     id="defs5455">
    <linearGradient
       inkscape:collect="always"
       xlink:href="#linearGradient1295"
       id="linearGradient1493"
       gradientUnits="userSpaceOnUse"
       x1="20.750315"
       y1="1025.9873"
       x2="-12.062732"
       y2="995.35931" />
    <linearGradient
       inkscape:collect="always"
       id="linearGradient1295">
      <stop
         style="stop-color:#1d212f;stop-opacity:1;"
         offset="0"
         id="stop1291" />
      <stop
         style="stop-color:#717da8;stop-opacity:1"
         offset="1"
         id="stop1293" />
    </linearGradient>
    <linearGradient
       inkscape:collect="always"
       xlink:href="#linearGradient952"
       id="linearGradient1297"
       x1="2.0000021"
       y1="1025.9873"
       x2="62.938519"
       y2="1025.9873"
       gradientUnits="userSpaceOnUse" />
    <linearGradient
       inkscape:collect="always"
       id="linearGradient952">
      <stop
         style="stop-color:#2e354b;stop-opacity:1"
         offset="0"
         id="stop948" />
      <stop
         style="stop-color:#717da8;stop-opacity:1"
         offset="1"
         id="stop950" />
    </linearGradient>
    <linearGradient
       inkscape:collect="always"
       xlink:href="#linearGradient2589"
       id="linearGradient2591"
       x1="389.57144"
       y1="523.79797"
       x2="409.57144"
       y2="523.79797"
       gradientUnits="userSpaceOnUse"
       gradientTransform="matrix(1.9275292,0,0,1.812157,-849.33202,457.94281)" />
    <linearGradient
       inkscape:collect="always"
       id="linearGradient2589">
      <stop
         style="stop-color:#3a435f;stop-opacity:1"
         offset="0"
         id="stop2585" />
      <stop
         style="stop-color:#becad8;stop-opacity:1"
         offset="1"
         id="stop2587" />
    </linearGradient>
  </defs>
  <metadata
     id="metadata5458">
    <rdf:RDF>
      <cc:Work
         rdf:about="">
        <dc:format>image/svg+xml</dc:format>
        <dc:type
           rdf:resource="http://purl.org/dc/dcmitype/StillImage" />
      </cc:Work>
    </rdf:RDF>
  </metadata>
  <g
     inkscape:label="Capa 1"
     inkscape:groupmode="layer"
     id="layer1"
     transform="translate(-384.57143,-515.798)">
    <g
       transform="matrix(0.36013848,0,0,0.37142583,359.81878,151.2823)"
       id="g4">
      <g
         transform="matrix(1.4808871,0,0,1.5383258,65.769128,-549.79125)"
         id="g19">
        <rect
           width="60"
           height="42"
           x="2"
           y="1002.36"
           rx="6.5219998"
           ry="6.5619998"
           style="opacity:0.85;fill:url(#linearGradient1493);fill-opacity:1;stroke:none"
           id="rect11" />
        <path
           d="m 8.522,1002.36 c -3.613,0 -6.522,3.3302 -6.522,6.1002 v 0.8998 c 0,-2.77 2.909,-5 6.522,-5 h 46.957 c 3.613,0 6.522,2.23 6.522,5 v -0.8998 c 0,-2.77 -2.909,-6.1002 -6.522,-6.1002 z"
           style="opacity:0.2;fill:#ffffff;fill-opacity:1;stroke:none"
           id="path13"
           sodipodi:nodetypes="sscsscsss" />
        <path
           d="m 8.522,1013.3603 h 10.435 c 14.348,-1.333 11.86095,-6.5781 20.991951,-6.5781 h 15.361736 c 3.612989,0 6.689313,1.4143 6.689313,5.1083 v 25.8035 c 0,3.693 -2.908,6.667 -6.521,6.667 H 8.522 c -3.613,0 -6.522,-2.973 -6.522,-6.667 v -18.667 c 0,-4 2.609,-5.6667 6.522,-5.6667 z"
           style="opacity:0.6;fill:url(#linearGradient1297);fill-opacity:1;stroke:none"
           id="path15"
           sodipodi:nodetypes="scsssssssss" />
        <path
           d="m 2,1035.03 v 2.667 c 0,3.693 2.909,6.667 6.522,6.667 h 46.957 c 3.613,0 6.522,-2.973 6.522,-6.667 v -2.667 c 0,3.693 -2.909,7.333 -6.522,7.333 H 8.522 c -3.613,0 -6.522,-3.64 -6.522,-7.333 z"
           style="opacity:0.15;fill:#000000;fill-opacity:1;stroke:none"
           id="path17" />
      </g>
      <rect
         y="1047.0919"
         x="124.26511"
         height="0.46154189"
         width="30.358727"
         id="rect4209"
         style="fill:#000000;fill-opacity:1;fill-rule:nonzero;stroke:none;stroke-width:0.577595;stroke-linecap:round;stroke-linejoin:round;stroke-miterlimit:4;stroke-dasharray:none;stroke-dashoffset:0;stroke-opacity:1" />
      <path
         d="m 89.594367,1033.4302 c -1.029868,0 -1.830852,0.8136 -1.830852,1.7752 0,0.9986 0.839053,1.7752 1.830852,1.7752 1.029867,0 1.830837,-0.8135 1.830837,-1.7752 0,-0.9985 -0.839038,-1.7752 -1.830837,-1.7752 z"
         stroke-miterlimit="10"
         stroke-width="1.12672"
         id="path64-4"
         style="fill:#becad8;fill-opacity:1" />
      <path
         d="m 89.556229,1022.3354 c -7.361336,0 -13.311422,5.7693 -13.311422,12.907 0,7.1376 5.950086,12.9069 13.311422,12.9069 7.361335,0 13.311421,-5.7693 13.311421,-12.9069 0,-7.1377 -5.950086,-12.907 -13.311421,-12.907 z m 8.391161,13.5357 c 0,0.5918 -0.495921,1.0724 -1.106033,1.0724 H 94.89605 c -0.07636,0.1479 -0.114401,0.3329 -0.190594,0.4808 l 1.334917,1.2944 c 0.190607,0.1848 0.343368,0.4808 0.343368,0.7766 0,0.2958 -0.1144,0.5547 -0.343368,0.7767 l -1.106033,1.0724 c -0.190593,0.1848 -0.49592,0.3329 -0.800969,0.3329 -0.305064,0 -0.572044,-0.1109 -0.800984,-0.3329 l -1.220447,-1.1834 c -0.228912,0.1109 -0.49592,0.222 -0.762873,0.3329 v 1.96 c 0,0.2958 -0.114401,0.5547 -0.343368,0.7397 -0.190607,0.1848 -0.495921,0.333 -0.762873,0.333 h -1.563843 c -0.30505,0 -0.572058,-0.111 -0.80097,-0.333 -0.190607,-0.1848 -0.343368,-0.4808 -0.343368,-0.7766 v -1.9972 c -0.266995,-0.1109 -0.572072,-0.2219 -0.800984,-0.3698 l -1.258779,1.2205 c -0.190621,0.1848 -0.495921,0.3329 -0.800984,0.3329 -0.305049,0 -0.572058,-0.1109 -0.800969,-0.3329 l -1.106033,-1.0724 c -0.190594,-0.1848 -0.343368,-0.4809 -0.343368,-0.7766 0,-0.2958 0.1144,-0.5547 0.343368,-0.7767 l 1.372972,-1.3312 c -0.07636,-0.1479 -0.114401,-0.3699 -0.190594,-0.5547 h -1.906975 c -0.61032,0 -1.106033,-0.4808 -1.106033,-1.0724 v -1.5163 c 0,-0.2958 0.114401,-0.5547 0.343368,-0.7397 0.190621,-0.1848 0.495935,-0.333 0.800984,-0.333 h 2.059777 c 0.07636,-0.1848 0.152525,-0.3698 0.266981,-0.5546 l -1.296863,-1.2575 c -0.190593,-0.1848 -0.343367,-0.4808 -0.343367,-0.7766 0,-0.2958 0.1144,-0.5547 0.343367,-0.7766 l 1.106033,-1.0725 c 0.419533,-0.4067 1.106033,-0.4067 1.563857,0 l 1.372972,1.3313 c 0.152525,-0.074 0.343368,-0.1109 0.49592,-0.1848 v -1.849 c 0,-0.5918 0.495907,-1.0725 1.106033,-1.0725 h 1.563843 c 0.610349,0 1.106033,0.4809 1.106033,1.0725 v 1.9231 c 0.190607,0.074 0.381451,0.1479 0.610349,0.2588 l 1.372985,-1.2943 c 0.190594,-0.1848 0.495907,-0.3329 0.80097,-0.3329 0.305049,0 0.572044,0.1109 0.80097,0.3329 l 1.106033,1.0724 c 0.419519,0.4068 0.419519,1.0724 0,1.5163 l -1.411319,1.3685 c 0.07636,0.1109 0.114401,0.2588 0.152525,0.3698 h 1.983376 c 0.610335,0 1.106019,0.4809 1.106019,1.0724 z"
         stroke-miterlimit="10"
         stroke-width="1.12672"
         id="path66"
         style="fill:url(#linearGradient2591);fill-opacity:1;stroke:url(#linearGradient2591);stroke-opacity:1" />
    </g>
  </g>
</svg>
