<?xml version="1.0" encoding="UTF-8" standalone="no"?>
<svg
   width="32"
   version="1.1"
   height="32"
   viewBox="0 0 32 32"
   id="svg15"
   sodipodi:docname="folder-library.svg"
   inkscape:version="1.1.2 (0a00cf5339, 2022-02-04)"
   xmlns:inkscape="http://www.inkscape.org/namespaces/inkscape"
   xmlns:sodipodi="http://sodipodi.sourceforge.net/DTD/sodipodi-0.dtd"
   xmlns:xlink="http://www.w3.org/1999/xlink"
   xmlns="http://www.w3.org/2000/svg"
   xmlns:svg="http://www.w3.org/2000/svg"
   xmlns:rdf="http://www.w3.org/1999/02/22-rdf-syntax-ns#"
   xmlns:cc="http://creativecommons.org/ns#"
   xmlns:dc="http://purl.org/dc/elements/1.1/">
  <sodipodi:namedview
     pagecolor="#ffffff"
     bordercolor="#666666"
     borderopacity="1"
     objecttolerance="10"
     gridtolerance="10"
     guidetolerance="10"
     inkscape:pageopacity="0"
     inkscape:pageshadow="2"
     inkscape:window-width="1920"
     inkscape:window-height="1015"
     id="namedview17"
     showgrid="true"
     inkscape:zoom="9.8125"
     inkscape:cx="1.4267516"
     inkscape:cy="1.7834395"
     inkscape:window-x="0"
     inkscape:window-y="0"
     inkscape:window-maximized="1"
     inkscape:current-layer="g4"
     inkscape:pagecheckerboard="0">
    <inkscape:grid
       type="xygrid"
       id="grid862" />
  </sodipodi:namedview>
  <defs
     id="defs5455">
    <linearGradient
       inkscape:collect="always"
       xlink:href="#linearGradient1295"
       id="linearGradient1493"
       gradientUnits="userSpaceOnUse"
       x1="20.750315"
       y1="1025.9873"
       x2="-12.062732"
       y2="995.35931" />
    <linearGradient
       inkscape:collect="always"
       id="linearGradient1295">
      <stop
         style="stop-color:#1d212f;stop-opacity:1;"
         offset="0"
         id="stop1291" />
      <stop
         style="stop-color:#717da8;stop-opacity:1"
         offset="1"
         id="stop1293" />
    </linearGradient>
    <linearGradient
       inkscape:collect="always"
       xlink:href="#linearGradient952"
       id="linearGradient1297"
       x1="2.0000021"
       y1="1025.9873"
       x2="62.938519"
       y2="1025.9873"
       gradientUnits="userSpaceOnUse" />
    <linearGradient
       inkscape:collect="always"
       id="linearGradient952">
      <stop
         style="stop-color:#2e354b;stop-opacity:1"
         offset="0"
         id="stop948" />
      <stop
         style="stop-color:#717da8;stop-opacity:1"
         offset="1"
         id="stop950" />
    </linearGradient>
    <linearGradient
       inkscape:collect="always"
       xlink:href="#linearGradient876"
       id="linearGradient878"
       x1="5"
       y1="40"
       x2="24.99983"
       y2="40"
       gradientUnits="userSpaceOnUse"
       gradientTransform="matrix(1.3883548,0,0,1.3461638,68.730926,981.39572)" />
    <linearGradient
       inkscape:collect="always"
       id="linearGradient876">
      <stop
         style="stop-color:#404868;stop-opacity:1"
         offset="0"
         id="stop872" />
      <stop
         style="stop-color:#becad8;stop-opacity:1"
         offset="1"
         id="stop874" />
    </linearGradient>
  </defs>
  <metadata
     id="metadata5458">
    <rdf:RDF>
      <cc:Work
         rdf:about="">
        <dc:format>image/svg+xml</dc:format>
        <dc:type
           rdf:resource="http://purl.org/dc/dcmitype/StillImage" />
      </cc:Work>
    </rdf:RDF>
  </metadata>
  <g
     inkscape:label="Capa 1"
     inkscape:groupmode="layer"
     id="layer1"
     transform="translate(-384.57143,-515.798)">
    <g
       transform="matrix(0.36013848,0,0,0.37142583,359.81878,151.2823)"
       id="g4">
      <g
         transform="matrix(1.4808871,0,0,1.5383258,65.769148,-549.79125)"
         id="g19">
        <rect
           width="60"
           height="42"
           x="2"
           y="1002.36"
           rx="6.5219998"
           ry="6.5619998"
           style="opacity:0.85;fill:url(#linearGradient1493);fill-opacity:1;stroke:none"
           id="rect11" />
        <path
           d="m 8.522,1002.36 c -3.613,0 -6.522,3.3302 -6.522,6.1002 v 0.8998 c 0,-2.77 2.909,-5 6.522,-5 h 46.957 c 3.613,0 6.522,2.23 6.522,5 v -0.8998 c 0,-2.77 -2.909,-6.1002 -6.522,-6.1002 z"
           style="opacity:0.2;fill:#ffffff;fill-opacity:1;stroke:none"
           id="path13"
           sodipodi:nodetypes="sscsscsss" />
        <path
           d="m 8.522,1013.3603 h 10.435 c 14.348,-1.333 11.86095,-6.5781 20.991951,-6.5781 h 15.361736 c 3.612989,0 6.689313,1.4143 6.689313,5.1083 v 25.8035 c 0,3.693 -2.908,6.667 -6.521,6.667 H 8.522 c -3.613,0 -6.522,-2.973 -6.522,-6.667 v -18.667 c 0,-4 2.609,-5.6667 6.522,-5.6667 z"
           style="opacity:0.6;fill:url(#linearGradient1297);fill-opacity:1;stroke:none"
           id="path15"
           sodipodi:nodetypes="scsssssssss" />
        <path
           d="m 2,1035.03 v 2.667 c 0,3.693 2.909,6.667 6.522,6.667 h 46.957 c 3.613,0 6.522,-2.973 6.522,-6.667 v -2.667 c 0,3.693 -2.909,7.333 -6.522,7.333 H 8.522 c -3.613,0 -6.522,-3.64 -6.522,-7.333 z"
           style="opacity:0.15;fill:#000000;fill-opacity:1;stroke:none"
           id="path17" />
      </g>
      <rect
         y="1047.0881"
         x="124.26513"
         height="0.46154189"
         width="30.358727"
         id="rect4209"
         style="fill:#000000;fill-opacity:1;fill-rule:nonzero;stroke:none;stroke-width:0.577595;stroke-linecap:round;stroke-linejoin:round;stroke-miterlimit:4;stroke-dasharray:none;stroke-dashoffset:0;stroke-opacity:1" />
      <path
         d="m 102.35306,1030.0206 c -0.69183,-1.5969 -1.71287,-3.034 -2.964357,-4.2796 -1.284617,-1.2456 -2.766797,-2.2038 -4.413719,-2.8743 -1.713105,-0.7028 -3.524561,-1.086 -5.402172,-1.086 -1.877625,0 -3.689081,0.3831 -5.401936,1.0858 -1.646936,0.6708 -3.129116,1.6608 -4.413719,2.8743 -1.284617,1.2455 -2.272834,2.6827 -2.96436,4.2796 -0.724888,1.661 -1.120097,3.4174 -1.120097,5.238 0,1.8205 0.395195,3.5769 1.119861,5.2377 0.691817,1.5969 1.712869,3.034 2.96436,4.2796 1.284603,1.2456 2.766783,2.2038 4.413719,2.8743 1.712869,0.7026 3.524547,1.0539 5.401936,1.0539 1.877611,0 3.689067,-0.3513 5.401936,-1.0539 1.646922,-0.6708 3.129102,-1.6608 4.413719,-2.8743 1.284599,-1.2456 2.272819,-2.6827 2.964359,-4.2796 0.72465,-1.6608 1.08697,-3.4174 1.08697,-5.2377 4.7e-4,-1.8206 -0.36188,-3.577 -1.08657,-5.2378 z"
         id="path67"
         style="fill:url(#linearGradient878);fill-opacity:1;stroke-width:0.0579185" />
      <path
         d="m 97.339352,1033.0938 v 0.9934 H 82.036794 v -0.9934 z m -16.668575,9.2241 v 1.0014 h 17.888231 v -1.0014 z m 1.243953,-1.4032 v 0.9934 h 15.448919 v -1.0251 z m 14.082902,-5.4399 v 4.344 h 0.300926 v 0.3627 h 0.235771 v 0.4731 l -2.650772,-2e-4 v -0.473 h 0.203297 v -0.3627 H 94.4364 v -4.3756 h -0.349546 v -0.3627 h -0.19512 v -0.473 l 2.634403,2e-4 v 0.473 h -0.243933 v 0.3627 z m -1.561246,4.4779 h -0.146277 v 0.087 h 0.146277 z m 1.544905,0 v 0.087 h 0.138281 v -0.087 z m 0,0 v 0.087 h 0.138281 v -0.087 z m -1.691168,0 v 0.087 h 0.146304 v -0.087 z m -5.537454,0.1656 v -0.3626 h -0.349546 v -4.3126 H 88.7447 v -0.3627 h 0.203269 v -0.4731 l -2.634584,2e-4 v 0.4731 h 0.24392 v 0.3627 h 0.300926 v 4.344 h -0.300926 v 0.3627 l -0.195106,-2e-4 v 0.4731 h 2.634404 v -0.4731 z m 1.723879,-0.3626 v 0.3626 h -0.203269 v 0.4731 h 2.634403 v -0.4731 h -0.235784 v -0.3626 h -0.300912 v -4.3126 h 0.300912 v -0.3627 h 0.243948 v -0.4731 l -2.634404,2e-4 v 0.4731 h 0.195106 v 0.3627 h 0.349546 v 4.344 z m -5.333949,0.3626 v -0.3626 h -0.349546 v -4.3126 h 0.341577 v -0.3627 h 0.203269 v -0.4731 l -2.634584,2e-4 v 0.4731 h 0.24392 v 0.3627 h 0.300926 v 4.344 l -0.300926,-2e-4 v 0.3627 h -0.235756 v 0.4731 h 2.634403 v -0.4731 z m 11.692406,-7.4189 H 82.540683 c -1.146531,0 0,-0.8358 0,-0.8358 0,0 4.520886,-3.2244 5.545339,-4.0602 0.424893,-0.4086 0.999144,-0.6381 1.597719,-0.6381 0.59859,0 1.172813,0.2295 1.597719,0.6381 1.032742,0.8358 5.553253,4.0602 5.553253,4.0602 0,0 1.138354,0.8358 0,0.8358 z m -6.358457,-1.703 h 1.8e-4 c 0,-0.2216 -0.09094,-0.4341 -0.252472,-0.5909 -0.161702,-0.1567 -0.380951,-0.2448 -0.609433,-0.2448 -0.228509,0 -0.447758,0.088 -0.609474,0.2448 -0.161535,0.1568 -0.252458,0.3694 -0.252458,0.5909 0,0.2217 0.09094,0.4343 0.252458,0.5909 0.161716,0.1568 0.380965,0.2448 0.609474,0.2448 0.229218,0 0.44973,-0.085 0.611807,-0.2425 0.162077,-0.1571 0.252278,-0.371 0.250098,-0.5932 z"
         id="path2-4"
         style="fill:#3a435f;fill-opacity:1;stroke-width:0.0457515" />
    </g>
  </g>
</svg>
