<?xml version="1.0" encoding="UTF-8" standalone="no"?>
<svg
   width="32"
   version="1.1"
   height="32"
   viewBox="0 0 32 32"
   id="svg15"
   sodipodi:docname="folder-java.svg"
   inkscape:version="1.1.2 (0a00cf5339, 2022-02-04)"
   xmlns:inkscape="http://www.inkscape.org/namespaces/inkscape"
   xmlns:sodipodi="http://sodipodi.sourceforge.net/DTD/sodipodi-0.dtd"
   xmlns:xlink="http://www.w3.org/1999/xlink"
   xmlns="http://www.w3.org/2000/svg"
   xmlns:svg="http://www.w3.org/2000/svg"
   xmlns:rdf="http://www.w3.org/1999/02/22-rdf-syntax-ns#"
   xmlns:cc="http://creativecommons.org/ns#"
   xmlns:dc="http://purl.org/dc/elements/1.1/">
  <sodipodi:namedview
     pagecolor="#ffffff"
     bordercolor="#666666"
     borderopacity="1"
     objecttolerance="10"
     gridtolerance="10"
     guidetolerance="10"
     inkscape:pageopacity="0"
     inkscape:pageshadow="2"
     inkscape:window-width="1920"
     inkscape:window-height="1015"
     id="namedview17"
     showgrid="true"
     inkscape:zoom="9.8125"
     inkscape:cx="1.4267516"
     inkscape:cy="18.089172"
     inkscape:window-x="0"
     inkscape:window-y="0"
     inkscape:window-maximized="1"
     inkscape:current-layer="g4"
     inkscape:pagecheckerboard="0">
    <inkscape:grid
       type="xygrid"
       id="grid862" />
  </sodipodi:namedview>
  <defs
     id="defs5455">
    <linearGradient
       inkscape:collect="always"
       xlink:href="#linearGradient1295"
       id="linearGradient1493"
       gradientUnits="userSpaceOnUse"
       x1="20.750315"
       y1="1025.9873"
       x2="-12.062732"
       y2="995.35931" />
    <linearGradient
       inkscape:collect="always"
       id="linearGradient1295">
      <stop
         style="stop-color:#1d212f;stop-opacity:1;"
         offset="0"
         id="stop1291" />
      <stop
         style="stop-color:#717da8;stop-opacity:1"
         offset="1"
         id="stop1293" />
    </linearGradient>
    <linearGradient
       inkscape:collect="always"
       xlink:href="#linearGradient952"
       id="linearGradient1297"
       x1="2.0000021"
       y1="1025.9873"
       x2="62.938519"
       y2="1025.9873"
       gradientUnits="userSpaceOnUse" />
    <linearGradient
       inkscape:collect="always"
       id="linearGradient952">
      <stop
         style="stop-color:#2e354b;stop-opacity:1"
         offset="0"
         id="stop948" />
      <stop
         style="stop-color:#717da8;stop-opacity:1"
         offset="1"
         id="stop950" />
    </linearGradient>
    <linearGradient
       inkscape:collect="always"
       xlink:href="#linearGradient1881"
       id="linearGradient1811"
       x1="389.57144"
       y1="523.79797"
       x2="409.57101"
       y2="523.79797"
       gradientUnits="userSpaceOnUse"
       gradientTransform="matrix(1.3883548,0,0,1.3461638,-465.19069,330.12436)" />
    <linearGradient
       inkscape:collect="always"
       id="linearGradient1881">
      <stop
         style="stop-color:#404868;stop-opacity:1"
         offset="0"
         id="stop1877" />
      <stop
         style="stop-color:#becad8;stop-opacity:1"
         offset="1"
         id="stop1879" />
    </linearGradient>
  </defs>
  <metadata
     id="metadata5458">
    <rdf:RDF>
      <cc:Work
         rdf:about="">
        <dc:format>image/svg+xml</dc:format>
        <dc:type
           rdf:resource="http://purl.org/dc/dcmitype/StillImage" />
      </cc:Work>
    </rdf:RDF>
  </metadata>
  <g
     inkscape:label="Capa 1"
     inkscape:groupmode="layer"
     id="layer1"
     transform="translate(-384.57143,-515.798)">
    <g
       transform="matrix(0.36013848,0,0,0.37142583,359.81878,151.2823)"
       id="g4">
      <g
         transform="matrix(1.4808871,0,0,1.5383258,65.769148,-549.79125)"
         id="g19">
        <rect
           width="60"
           height="42"
           x="2"
           y="1002.36"
           rx="6.5219998"
           ry="6.5619998"
           style="opacity:0.85;fill:url(#linearGradient1493);fill-opacity:1;stroke:none"
           id="rect11" />
        <path
           d="m 8.522,1002.36 c -3.613,0 -6.522,3.3302 -6.522,6.1002 v 0.8998 c 0,-2.77 2.909,-5 6.522,-5 h 46.957 c 3.613,0 6.522,2.23 6.522,5 v -0.8998 c 0,-2.77 -2.909,-6.1002 -6.522,-6.1002 z"
           style="opacity:0.2;fill:#ffffff;fill-opacity:1;stroke:none"
           id="path13"
           sodipodi:nodetypes="sscsscsss" />
        <path
           d="m 8.522,1013.3603 h 10.435 c 14.348,-1.333 11.86095,-6.5781 20.991951,-6.5781 h 15.361736 c 3.612989,0 6.689313,1.4143 6.689313,5.1083 v 25.8035 c 0,3.693 -2.908,6.667 -6.521,6.667 H 8.522 c -3.613,0 -6.522,-2.973 -6.522,-6.667 v -18.667 c 0,-4 2.609,-5.6667 6.522,-5.6667 z"
           style="opacity:0.6;fill:url(#linearGradient1297);fill-opacity:1;stroke:none"
           id="path15"
           sodipodi:nodetypes="scsssssssss" />
        <path
           d="m 2,1035.03 v 2.667 c 0,3.693 2.909,6.667 6.522,6.667 h 46.957 c 3.613,0 6.522,-2.973 6.522,-6.667 v -2.667 c 0,3.693 -2.909,7.333 -6.522,7.333 H 8.522 c -3.613,0 -6.522,-3.64 -6.522,-7.333 z"
           style="opacity:0.15;fill:#000000;fill-opacity:1;stroke:none"
           id="path17" />
      </g>
      <rect
         y="1047.0886"
         x="124.26513"
         height="0.46154189"
         width="30.358727"
         id="rect4209"
         style="fill:#000000;fill-opacity:1;fill-rule:nonzero;stroke:none;stroke-width:0.577595;stroke-linecap:round;stroke-linejoin:round;stroke-miterlimit:4;stroke-dasharray:none;stroke-dashoffset:0;stroke-opacity:1" />
      <path
         d="m 95.256889,1039.6727 h 1.264722 l -0.627606,-1.7582 z"
         id="path70"
         style="fill:#a8b8cb;fill-opacity:1;stroke-width:0.0561" />
      <path
         d="m 85.030364,1039.6727 h 1.26543 l -0.628258,-1.7582 z"
         id="path72"
         style="fill:#8aa0b9;fill-opacity:1;stroke-width:0.0561" />
      <path
         d="m 89.555665,1021.7806 c -7.6673,0 -13.882965,6.0273 -13.882965,13.4616 0,7.4343 6.215665,13.4616 13.882965,13.4616 7.667884,0 13.883555,-6.0273 13.883555,-13.4616 2.2e-4,-7.4349 -6.215671,-13.4616 -13.883555,-13.4616 z m -7.232051,18.7244 c 0,0.5375 -0.144417,0.9622 -0.433056,1.2733 -0.289541,0.3123 -0.681446,0.4679 -1.176589,0.4679 -0.601977,0 -1.061578,-0.226 -1.380288,-0.6778 -0.13592,-0.1884 -0.218083,-0.4487 -0.247461,-0.7803 h 1.087832 c 0.07053,0.3148 0.244572,0.4719 0.521424,0.4719 0.354503,0 0.530977,-0.2259 0.530977,-0.6776 v -4.1687 h 1.096953 z m 5.033605,1.6294 -0.627814,-1.4749 h -2.087933 l -0.654498,1.4749 h -1.203537 l 2.450502,-5.7213 h 0.8581 l 2.477173,5.7213 z m 2.98102,0 -2.299782,-5.7213 h 1.149683 l 1.592096,4.3489 1.59254,-4.3489 h 1.140575 l -2.282011,5.7213 z m 7.245158,0 -0.628245,-1.4749 H 94.86765 l -0.654734,1.4749 h -1.203079 l 2.450724,-5.7213 h 0.857947 l 2.476728,5.7213 z m -7.686113,-18.5587 c 6.491961,0.176 11.699786,5.3296 11.699786,11.6668 0,0.029 -0.001,0.057 -0.003,0.086 -6.153572,-0.9018 -10.980244,-5.7202 -11.696954,-11.7525 z"
         id="path74"
         style="fill:url(#linearGradient1811);fill-opacity:1;stroke-width:0.0561" />
    </g>
  </g>
</svg>
