<?xml version="1.0" encoding="UTF-8" standalone="no"?>
<svg
   width="32"
   version="1.1"
   height="32"
   viewBox="0 0 32 32"
   id="svg18"
   sodipodi:docname="folder-image-people.svg"
   inkscape:version="1.1.2 (0a00cf5339, 2022-02-04)"
   xmlns:inkscape="http://www.inkscape.org/namespaces/inkscape"
   xmlns:sodipodi="http://sodipodi.sourceforge.net/DTD/sodipodi-0.dtd"
   xmlns:xlink="http://www.w3.org/1999/xlink"
   xmlns="http://www.w3.org/2000/svg"
   xmlns:svg="http://www.w3.org/2000/svg"
   xmlns:rdf="http://www.w3.org/1999/02/22-rdf-syntax-ns#"
   xmlns:cc="http://creativecommons.org/ns#"
   xmlns:dc="http://purl.org/dc/elements/1.1/">
  <sodipodi:namedview
     pagecolor="#ffffff"
     bordercolor="#666666"
     borderopacity="1"
     objecttolerance="10"
     gridtolerance="10"
     guidetolerance="10"
     inkscape:pageopacity="0"
     inkscape:pageshadow="2"
     inkscape:window-width="1920"
     inkscape:window-height="1015"
     id="namedview20"
     showgrid="false"
     inkscape:zoom="9.8125"
     inkscape:cx="-20.280255"
     inkscape:cy="6.1656051"
     inkscape:window-x="0"
     inkscape:window-y="0"
     inkscape:window-maximized="1"
     inkscape:current-layer="layer1"
     inkscape:pagecheckerboard="0" />
  <defs
     id="defs5455">
    <linearGradient
       inkscape:collect="always"
       xlink:href="#linearGradient1295"
       id="linearGradient1493"
       gradientUnits="userSpaceOnUse"
       x1="20.750315"
       y1="1025.9873"
       x2="-12.062732"
       y2="995.35931" />
    <linearGradient
       inkscape:collect="always"
       id="linearGradient1295">
      <stop
         style="stop-color:#1d212f;stop-opacity:1;"
         offset="0"
         id="stop1291" />
      <stop
         style="stop-color:#717da8;stop-opacity:1"
         offset="1"
         id="stop1293" />
    </linearGradient>
    <linearGradient
       inkscape:collect="always"
       xlink:href="#linearGradient952"
       id="linearGradient1297"
       x1="2.0000021"
       y1="1025.9873"
       x2="62.938519"
       y2="1025.9873"
       gradientUnits="userSpaceOnUse" />
    <linearGradient
       inkscape:collect="always"
       id="linearGradient952">
      <stop
         style="stop-color:#2e354b;stop-opacity:1"
         offset="0"
         id="stop948" />
      <stop
         style="stop-color:#717da8;stop-opacity:1"
         offset="1"
         id="stop950" />
    </linearGradient>
    <linearGradient
       inkscape:collect="always"
       xlink:href="#linearGradient872"
       id="linearGradient874"
       x1="389.57162"
       y1="523.79797"
       x2="409.57162"
       y2="523.79797"
       gradientUnits="userSpaceOnUse"
       gradientTransform="matrix(0.5,0,0,0.5,192.28572,273.89899)" />
    <linearGradient
       inkscape:collect="always"
       id="linearGradient872">
      <stop
         style="stop-color:#404868;stop-opacity:1"
         offset="0"
         id="stop868" />
      <stop
         style="stop-color:#becad8;stop-opacity:1"
         offset="1"
         id="stop870" />
    </linearGradient>
  </defs>
  <metadata
     id="metadata5458">
    <rdf:RDF>
      <cc:Work
         rdf:about="">
        <dc:format>image/svg+xml</dc:format>
        <dc:type
           rdf:resource="http://purl.org/dc/dcmitype/StillImage" />
      </cc:Work>
    </rdf:RDF>
  </metadata>
  <g
     inkscape:label="Capa 1"
     inkscape:groupmode="layer"
     id="layer1"
     transform="translate(-384.57143,-515.798)">
    <g
       transform="matrix(0.53332446,0,0,0.57137396,383.50478,-52.924394)"
       id="g19">
      <rect
         width="60"
         height="42"
         x="2"
         y="1002.36"
         rx="6.5219998"
         ry="6.5619998"
         style="opacity:0.85;fill:url(#linearGradient1493);fill-opacity:1;stroke:none"
         id="rect11" />
      <path
         d="m 8.522,1002.36 c -3.613,0 -6.522,3.3302 -6.522,6.1002 v 0.8998 c 0,-2.77 2.909,-5 6.522,-5 h 46.957 c 3.613,0 6.522,2.23 6.522,5 v -0.8998 c 0,-2.77 -2.909,-6.1002 -6.522,-6.1002 z"
         style="opacity:0.2;fill:#ffffff;fill-opacity:1;stroke:none"
         id="path13"
         sodipodi:nodetypes="sscsscsss" />
      <path
         d="m 8.522,1013.3603 h 10.435 c 14.348,-1.333 11.86095,-6.5781 20.991951,-6.5781 h 15.361736 c 3.612989,0 6.689313,1.4143 6.689313,5.1083 v 25.8035 c 0,3.693 -2.908,6.667 -6.521,6.667 H 8.522 c -3.613,0 -6.522,-2.973 -6.522,-6.667 v -18.667 c 0,-4 2.609,-5.6667 6.522,-5.6667 z"
         style="opacity:0.6;fill:url(#linearGradient1297);fill-opacity:1;stroke:none"
         id="path15"
         sodipodi:nodetypes="scsssssssss" />
      <path
         d="m 2,1035.03 v 2.667 c 0,3.693 2.909,6.667 6.522,6.667 h 46.957 c 3.613,0 6.522,-2.973 6.522,-6.667 v -2.667 c 0,3.693 -2.909,7.333 -6.522,7.333 H 8.522 c -3.613,0 -6.522,-3.64 -6.522,-7.333 z"
         style="opacity:0.15;fill:#000000;fill-opacity:1;stroke:none"
         id="path17" />
    </g>
    <rect
       y="540.19971"
       x="404.57144"
       height="0.17142858"
       width="10.933346"
       id="rect4209"
       style="fill:#000000;fill-opacity:1;fill-rule:nonzero;stroke:none;stroke-width:0.211249;stroke-linecap:round;stroke-linejoin:round;stroke-miterlimit:4;stroke-dasharray:none;stroke-dashoffset:0;stroke-opacity:1" />
    <path
       d="m 392.07153,530.79799 c -2.75766,0 -5,2.24239 -5,5 0,2.75761 2.24239,5 5,5 2.75761,0 5,-2.24239 5,-5 0,-2.75761 -2.24239,-5 -5,-5 z m 2.15148,7.03039 v 0.40909 h -4.30285 v -0.40909 h -1.89398 v -0.45455 c 0,-0.43943 0.1667,-0.86363 0.48488,-1.1667 0.19694,-0.19694 0.43943,-0.3333 0.69694,-0.40909 -0.27273,-0.1667 -0.43943,-0.45455 -0.43943,-0.78784 0,-0.51512 0.42421,-0.92421 0.92421,-0.92421 0.5,0 0.92421,0.4242 0.92421,0.92421 0,0.33329 -0.18182,0.63636 -0.45455,0.78784 0.18182,0.0606 0.36364,0.15148 0.51512,0.25761 0.25761,-0.21215 0.54545,-0.36364 0.87875,-0.45454 -0.39397,-0.19694 -0.68182,-0.59091 -0.68182,-1.06058 0,-0.65148 0.53034,-1.18181 1.18182,-1.18181 0.65148,0 1.18182,0.53033 1.18182,1.18181 0,0.46967 -0.27273,0.87876 -0.6667,1.06058 0.36363,0.0909 0.68182,0.25761 0.95454,0.51511 0.18182,-0.15148 0.37876,-0.25761 0.59091,-0.3333 -0.27272,-0.1667 -0.45454,-0.45454 -0.45454,-0.78784 0,-0.51512 0.42421,-0.92421 0.92421,-0.92421 0.5,0 0.9242,0.42421 0.9242,0.92421 0,0.3333 -0.18181,0.62124 -0.43943,0.78784 0.25762,0.0758 0.5,0.21216 0.69694,0.42421 0.31818,0.31818 0.48488,0.72727 0.48488,1.1667 v 0.45455 z"
       id="path73-3"
       style="fill:url(#linearGradient874);fill-opacity:1;stroke-width:0.0259741" />
  </g>
</svg>
