<?xml version="1.0" encoding="UTF-8" standalone="no"?>
<svg
   height="32"
   width="32"
   version="1.1"
   id="svg25"
   sodipodi:docname="folder-games.svg"
   inkscape:version="1.1.2 (0a00cf5339, 2022-02-04)"
   xmlns:inkscape="http://www.inkscape.org/namespaces/inkscape"
   xmlns:sodipodi="http://sodipodi.sourceforge.net/DTD/sodipodi-0.dtd"
   xmlns:xlink="http://www.w3.org/1999/xlink"
   xmlns="http://www.w3.org/2000/svg"
   xmlns:svg="http://www.w3.org/2000/svg"
   xmlns:rdf="http://www.w3.org/1999/02/22-rdf-syntax-ns#"
   xmlns:cc="http://creativecommons.org/ns#"
   xmlns:dc="http://purl.org/dc/elements/1.1/">
  <metadata
     id="metadata31">
    <rdf:RDF>
      <cc:Work
         rdf:about="">
        <dc:format>image/svg+xml</dc:format>
        <dc:type
           rdf:resource="http://purl.org/dc/dcmitype/StillImage" />
      </cc:Work>
    </rdf:RDF>
  </metadata>
  <defs
     id="defs29">
    <linearGradient
       inkscape:collect="always"
       xlink:href="#linearGradient1295"
       id="linearGradient1493"
       gradientUnits="userSpaceOnUse"
       x1="20.750315"
       y1="1025.9873"
       x2="-12.062732"
       y2="995.35931" />
    <linearGradient
       inkscape:collect="always"
       id="linearGradient1295">
      <stop
         style="stop-color:#1d212f;stop-opacity:1;"
         offset="0"
         id="stop1291" />
      <stop
         style="stop-color:#717da8;stop-opacity:1"
         offset="1"
         id="stop1293" />
    </linearGradient>
    <linearGradient
       inkscape:collect="always"
       xlink:href="#linearGradient952"
       id="linearGradient1297"
       x1="2.0000021"
       y1="1025.9873"
       x2="62.938519"
       y2="1025.9873"
       gradientUnits="userSpaceOnUse" />
    <linearGradient
       inkscape:collect="always"
       id="linearGradient952">
      <stop
         style="stop-color:#2e354b;stop-opacity:1"
         offset="0"
         id="stop948" />
      <stop
         style="stop-color:#717da8;stop-opacity:1"
         offset="1"
         id="stop950" />
    </linearGradient>
    <linearGradient
       inkscape:collect="always"
       xlink:href="#linearGradient876"
       id="linearGradient878"
       x1="5"
       y1="40"
       x2="24.99983"
       y2="40"
       gradientUnits="userSpaceOnUse"
       gradientTransform="matrix(0.5,0,0,0.5,8e-8,-3.0358642e-6)" />
    <linearGradient
       inkscape:collect="always"
       id="linearGradient876">
      <stop
         style="stop-color:#404868;stop-opacity:1"
         offset="0"
         id="stop872" />
      <stop
         style="stop-color:#becad8;stop-opacity:1"
         offset="1"
         id="stop874" />
    </linearGradient>
  </defs>
  <sodipodi:namedview
     pagecolor="#ffffff"
     bordercolor="#666666"
     borderopacity="1"
     objecttolerance="10"
     gridtolerance="10"
     guidetolerance="10"
     inkscape:pageopacity="0"
     inkscape:pageshadow="2"
     inkscape:window-width="1920"
     inkscape:window-height="1015"
     id="namedview27"
     showgrid="false"
     inkscape:zoom="9.8125"
     inkscape:cx="-8.0509554"
     inkscape:cy="19.312102"
     inkscape:window-x="0"
     inkscape:window-y="0"
     inkscape:window-maximized="1"
     inkscape:current-layer="svg25"
     inkscape:pagecheckerboard="0" />
  <linearGradient
     id="a"
     gradientUnits="userSpaceOnUse"
     x2="0"
     y1="29"
     y2="8">
    <stop
       offset="0"
       stop-color="#3daee9"
       id="stop2" />
    <stop
       offset="1"
       stop-color="#6cc1ef"
       id="stop4" />
  </linearGradient>
  <g
     transform="matrix(0.53332446,0,0,0.57137396,-1.0666489,-568.72239)"
     id="g19">
    <rect
       width="60"
       height="42"
       x="2"
       y="1002.36"
       rx="6.5219998"
       ry="6.5619998"
       style="opacity:0.85;fill:url(#linearGradient1493);fill-opacity:1;stroke:none"
       id="rect11" />
    <path
       d="m 8.522,1002.36 c -3.613,0 -6.522,3.3302 -6.522,6.1002 v 0.8998 c 0,-2.77 2.909,-5 6.522,-5 h 46.957 c 3.613,0 6.522,2.23 6.522,5 v -0.8998 c 0,-2.77 -2.909,-6.1002 -6.522,-6.1002 z"
       style="opacity:0.2;fill:#ffffff;fill-opacity:1;stroke:none"
       id="path13"
       sodipodi:nodetypes="sscsscsss" />
    <path
       d="m 8.522,1013.3603 h 10.435 c 14.348,-1.333 11.86095,-6.5781 20.991951,-6.5781 h 15.361736 c 3.612989,0 6.689313,1.4143 6.689313,5.1083 v 25.8035 c 0,3.693 -2.908,6.667 -6.521,6.667 H 8.522 c -3.613,0 -6.522,-2.973 -6.522,-6.667 v -18.667 c 0,-4 2.609,-5.6667 6.522,-5.6667 z"
       style="opacity:0.6;fill:url(#linearGradient1297);fill-opacity:1;stroke:none"
       id="path15"
       sodipodi:nodetypes="scsssssssss" />
    <path
       d="m 2,1035.03 v 2.667 c 0,3.693 2.909,6.667 6.522,6.667 h 46.957 c 3.613,0 6.522,-2.973 6.522,-6.667 v -2.667 c 0,3.693 -2.909,7.333 -6.522,7.333 H 8.522 c -3.613,0 -6.522,-3.64 -6.522,-7.333 z"
       style="opacity:0.15;fill:#000000;fill-opacity:1;stroke:none"
       id="path17" />
  </g>
  <rect
     y="24.401451"
     x="20.000008"
     height="0.17142858"
     width="10.933346"
     id="rect4209"
     style="fill:#000000;fill-opacity:1;fill-rule:nonzero;stroke:none;stroke-width:0.211249;stroke-linecap:round;stroke-linejoin:round;stroke-miterlimit:4;stroke-dasharray:none;stroke-dashoffset:0;stroke-opacity:1" />
  <path
     d="m 12.108625,18.060516 c -0.249155,-0.593124 -0.61687,-1.126914 -1.06758,-1.58955 -0.46264,-0.462636 -0.99643,-0.818532 -1.5895499,-1.06758 -0.616955,-0.261059 -1.26933,-0.403388 -1.94553,-0.403388 -0.676205,0 -1.32858,0.142324 -1.945445,0.403303 -0.593125,0.249154 -1.126915,0.61687 -1.58955,1.06758 -0.46264,0.462637 -0.818535,0.996427 -1.06758,1.58955 -0.26106,0.616955 -0.40339,1.269327 -0.40339,1.94553 0,0.676204 0.142325,1.328575 0.403305,1.945445 0.24915,0.593124 0.61687,1.126914 1.06758,1.58955 0.462635,0.462637 0.996425,0.818532 1.58955,1.06758 0.61687,0.260975 1.269325,0.391462 1.945445,0.391462 0.6762,0 1.328575,-0.130492 1.945445,-0.391462 0.5931199,-0.249154 1.1269099,-0.61687 1.5895499,-1.06758 0.462635,-0.462636 0.81853,-0.996426 1.06758,-1.58955 0.260975,-0.61687 0.39146,-1.269326 0.39146,-1.945445 1.7e-4,-0.676203 -0.130325,-1.328575 -0.391315,-1.945445 z"
     id="path67"
     style="fill:url(#linearGradient878);fill-opacity:1;stroke-width:0.021183" />
  <path
     class="st0"
     d="m 5.6617021,17.750004 h 3.739737 c 0.285788,0 0.538914,0.122479 0.7512149,0.31845 0.375606,0.342946 0.645064,0.93085 0.832869,1.543255 0.179638,0.6124 0.269453,1.249298 0.269453,1.714728 0,0.342944 -0.05716,0.612401 -0.163302,0.726715 l -0.0082,0.0082 c -0.0082,0.0082 -0.02452,0.01634 -0.03267,0.03265 v 0 c -0.114317,0.09799 -0.334779,0.155144 -0.538914,0.155144 -0.212301,0.0082 -0.424601,-0.04081 -0.5389159,-0.146977 -0.0082,-0.0082 -0.02451,-0.02449 -0.03266,-0.03263 l -0.979839,-1.159503 c -0.01634,-0.01634 -0.03263,-0.03265 -0.05716,-0.04081 -0.02448,-0.0082 -0.05716,-0.01635 -0.09798,-0.01635 h -2.547596 c -0.04082,0 -0.07349,0.0082 -0.09799,0.01635 -0.01635,0.0082 -0.04082,0.02451 -0.05716,0.04081 l -0.979847,1.159486 c -0.0082,0.0082 -0.01631,0.02452 -0.03269,0.03264 -0.114319,0.106151 -0.334784,0.155145 -0.547083,0.146979 -0.204133,-0.0082 -0.424597,-0.05716 -0.538913,-0.155143 -0.0082,-0.0082 -0.0245,-0.02449 -0.03266,-0.03266 l -0.0082,-0.0082 c -0.106107,-0.122479 -0.163265,-0.383767 -0.163265,-0.726713 0,-0.465428 0.08982,-1.102327 0.269458,-1.714726 0.179637,-0.62057 0.45726,-1.208477 0.832866,-1.551421 0.220466,-0.187805 0.473593,-0.310285 0.759382,-0.310285 z m 3.290643,0.767543 c 0.146976,0 0.269457,0.114319 0.269457,0.261293 0,0.146976 -0.122481,0.261292 -0.269457,0.261292 -0.146977,0 -0.261293,-0.114316 -0.261293,-0.261292 0,-0.146974 0.114316,-0.261293 0.261293,-0.261293 z m -0.506253,0.498089 c 0.146976,0 0.261291,0.114315 0.261291,0.261291 0,0.146977 -0.114315,0.261292 -0.261291,0.261292 -0.146975,0 -0.269458,-0.114315 -0.269458,-0.261292 0.0082,-0.13881 0.130645,-0.261291 0.269458,-0.261291 z m 1.004338,0 c 0.146978,0 0.261293,0.114315 0.261293,0.261291 0,0.146977 -0.114315,0.261292 -0.261293,0.261292 -0.146974,0 -0.261291,-0.114315 -0.261291,-0.261292 0,-0.13881 0.114317,-0.261291 0.261291,-0.261291 z m -0.498085,0.506252 c 0.146976,0 0.269457,0.114313 0.269457,0.261291 0,0.146978 -0.122481,0.261294 -0.269457,0.261294 -0.146977,0 -0.261293,-0.114316 -0.261293,-0.261294 0,-0.146978 0.114316,-0.261291 0.261293,-0.261291 z m -2.294471,-0.432763 c 0.106151,0 0.187807,0.08165 0.187807,0.179639 0,0.106149 -0.08166,0.1878 -0.187807,0.1878 l -0.408266,0.0082 0.0082,0.40827 c 0,0.09799 -0.08166,0.187805 -0.179637,0.187805 -0.09799,0 -0.187805,-0.08166 -0.187805,-0.179641 l -0.0082,-0.408268 -0.40827,0.0082 c -0.106151,0 -0.187805,-0.08165 -0.187805,-0.179635 0,-0.106152 0.08165,-0.187805 0.187805,-0.187805 l 0.40827,-0.0082 -0.0082,-0.408269 c 0,-0.09799 0.08165,-0.187803 0.179638,-0.187803 0.09798,0 0.187802,0.08165 0.187802,0.179638 l 0.0082,0.408269 z"
     id="path4"
     style="fill:#3a435f;fill-opacity:1;fill-rule:evenodd;stroke-width:0.0816525" />
</svg>
