<?xml version="1.0" encoding="UTF-8" standalone="no"?>
<svg
   width="32"
   version="1.1"
   height="32"
   viewBox="0 0 32 32"
   id="svg15"
   sodipodi:docname="folder-database.svg"
   inkscape:version="1.1.2 (0a00cf5339, 2022-02-04)"
   xmlns:inkscape="http://www.inkscape.org/namespaces/inkscape"
   xmlns:sodipodi="http://sodipodi.sourceforge.net/DTD/sodipodi-0.dtd"
   xmlns:xlink="http://www.w3.org/1999/xlink"
   xmlns="http://www.w3.org/2000/svg"
   xmlns:svg="http://www.w3.org/2000/svg"
   xmlns:rdf="http://www.w3.org/1999/02/22-rdf-syntax-ns#"
   xmlns:cc="http://creativecommons.org/ns#"
   xmlns:dc="http://purl.org/dc/elements/1.1/">
  <sodipodi:namedview
     pagecolor="#ffffff"
     bordercolor="#666666"
     borderopacity="1"
     objecttolerance="10"
     gridtolerance="10"
     guidetolerance="10"
     inkscape:pageopacity="0"
     inkscape:pageshadow="2"
     inkscape:window-width="1920"
     inkscape:window-height="1015"
     id="namedview17"
     showgrid="true"
     inkscape:zoom="9.8125"
     inkscape:cx="-10.191083"
     inkscape:cy="18.089172"
     inkscape:window-x="0"
     inkscape:window-y="0"
     inkscape:window-maximized="1"
     inkscape:current-layer="g4"
     inkscape:pagecheckerboard="0">
    <inkscape:grid
       type="xygrid"
       id="grid862" />
  </sodipodi:namedview>
  <defs
     id="defs5455">
    <linearGradient
       inkscape:collect="always"
       xlink:href="#linearGradient1295"
       id="linearGradient1493"
       gradientUnits="userSpaceOnUse"
       x1="20.750315"
       y1="1025.9873"
       x2="-12.062732"
       y2="995.35931" />
    <linearGradient
       inkscape:collect="always"
       id="linearGradient1295">
      <stop
         style="stop-color:#1d212f;stop-opacity:1;"
         offset="0"
         id="stop1291" />
      <stop
         style="stop-color:#717da8;stop-opacity:1"
         offset="1"
         id="stop1293" />
    </linearGradient>
    <linearGradient
       inkscape:collect="always"
       xlink:href="#linearGradient952"
       id="linearGradient1297"
       x1="2.0000021"
       y1="1025.9873"
       x2="62.938519"
       y2="1025.9873"
       gradientUnits="userSpaceOnUse" />
    <linearGradient
       inkscape:collect="always"
       id="linearGradient952">
      <stop
         style="stop-color:#2e354b;stop-opacity:1"
         offset="0"
         id="stop948" />
      <stop
         style="stop-color:#717da8;stop-opacity:1"
         offset="1"
         id="stop950" />
    </linearGradient>
    <linearGradient
       inkscape:collect="always"
       xlink:href="#linearGradient1053"
       id="linearGradient1055"
       x1="389.57144"
       y1="523.79797"
       x2="409.57144"
       y2="523.79797"
       gradientUnits="userSpaceOnUse"
       gradientTransform="matrix(1.3883548,0,0,1.3461638,-465.19069,330.12437)" />
    <linearGradient
       inkscape:collect="always"
       id="linearGradient1053">
      <stop
         style="stop-color:#3a435f;stop-opacity:1"
         offset="0"
         id="stop1049" />
      <stop
         style="stop-color:#becad8;stop-opacity:1"
         offset="1"
         id="stop1051" />
    </linearGradient>
  </defs>
  <metadata
     id="metadata5458">
    <rdf:RDF>
      <cc:Work
         rdf:about="">
        <dc:format>image/svg+xml</dc:format>
        <dc:type
           rdf:resource="http://purl.org/dc/dcmitype/StillImage" />
      </cc:Work>
    </rdf:RDF>
  </metadata>
  <g
     inkscape:label="Capa 1"
     inkscape:groupmode="layer"
     id="layer1"
     transform="translate(-384.57143,-515.798)">
    <g
       transform="matrix(0.36013848,0,0,0.37142583,359.81878,151.2823)"
       id="g4">
      <g
         transform="matrix(1.4808871,0,0,1.5383258,65.769148,-549.79125)"
         id="g19">
        <rect
           width="60"
           height="42"
           x="2"
           y="1002.36"
           rx="6.5219998"
           ry="6.5619998"
           style="opacity:0.85;fill:url(#linearGradient1493);fill-opacity:1;stroke:none"
           id="rect11" />
        <path
           d="m 8.522,1002.36 c -3.613,0 -6.522,3.3302 -6.522,6.1002 v 0.8998 c 0,-2.77 2.909,-5 6.522,-5 h 46.957 c 3.613,0 6.522,2.23 6.522,5 v -0.8998 c 0,-2.77 -2.909,-6.1002 -6.522,-6.1002 z"
           style="opacity:0.2;fill:#ffffff;fill-opacity:1;stroke:none"
           id="path13"
           sodipodi:nodetypes="sscsscsss" />
        <path
           d="m 8.522,1013.3603 h 10.435 c 14.348,-1.333 11.86095,-6.5781 20.991951,-6.5781 h 15.361736 c 3.612989,0 6.689313,1.4143 6.689313,5.1083 v 25.8035 c 0,3.693 -2.908,6.667 -6.521,6.667 H 8.522 c -3.613,0 -6.522,-2.973 -6.522,-6.667 v -18.667 c 0,-4 2.609,-5.6667 6.522,-5.6667 z"
           style="opacity:0.6;fill:url(#linearGradient1297);fill-opacity:1;stroke:none"
           id="path15"
           sodipodi:nodetypes="scsssssssss" />
        <path
           d="m 2,1035.03 v 2.667 c 0,3.693 2.909,6.667 6.522,6.667 h 46.957 c 3.613,0 6.522,-2.973 6.522,-6.667 v -2.667 c 0,3.693 -2.909,7.333 -6.522,7.333 H 8.522 c -3.613,0 -6.522,-3.64 -6.522,-7.333 z"
           style="opacity:0.15;fill:#000000;fill-opacity:1;stroke:none"
           id="path17" />
      </g>
      <rect
         y="1047.0924"
         x="124.26514"
         height="0.46154189"
         width="30.358727"
         id="rect4209"
         style="fill:#000000;fill-opacity:1;fill-rule:nonzero;stroke:none;stroke-width:0.577595;stroke-linecap:round;stroke-linejoin:round;stroke-miterlimit:4;stroke-dasharray:none;stroke-dashoffset:0;stroke-opacity:1" />
      <path
         d="m 89.556246,1021.7806 c -3.682181,0 -7.213434,1.4182 -9.817085,3.9429 -2.603734,2.5244 -4.066463,5.9485 -4.066463,9.5187 0,3.5702 1.462729,6.9942 4.066463,9.5188 2.60354,2.5246 6.135001,3.9428 9.817085,3.9428 3.682084,0 7.213448,-1.4182 9.817099,-3.9428 2.603725,-2.5245 4.066445,-5.9486 4.066445,-9.5188 0,-2.3629 -0.64152,-4.6843 -1.85998,-6.7308 -1.21867,-2.0464 -2.971157,-3.7456 -5.081831,-4.9274 -2.110591,-1.1814 -4.504795,-1.8034 -6.941733,-1.8034 z m -5.791383,7.6923 h 11.582281 c 0.634714,0 1.150474,0.5001 1.150474,1.1155 v 2.5766 c 0,0.2414 -0.09566,0.4521 -0.230481,0.6348 0.134809,0.1827 0.230481,0.3934 0.230481,0.6348 v 2.5766 c 0,0.2413 -0.09566,0.452 -0.230481,0.6348 0.134809,0.1827 0.230481,0.3934 0.230481,0.6347 v 2.5767 c 0,0.6154 -0.51576,1.1155 -1.150474,1.1155 H 83.764863 c -0.634715,0 -1.150488,-0.5001 -1.150488,-1.1155 v -2.5767 c 0,-0.2413 0.09566,-0.452 0.230494,-0.6347 -0.134809,-0.1828 -0.230494,-0.3935 -0.230494,-0.6348 v -2.5766 c 0,-0.2414 0.09566,-0.4521 0.230494,-0.6348 -0.134809,-0.1827 -0.230494,-0.3935 -0.230494,-0.6348 v -2.5766 c 0,-0.6154 0.515773,-1.1155 1.150488,-1.1155 z m 0,0.9615 c -0.0883,0 -0.158814,0.068 -0.158814,0.154 v 2.5766 c 0,0.086 0.07053,0.154 0.158814,0.154 h 11.582281 c 0.0883,0 0.158813,-0.068 0.158813,-0.154 v -2.5766 c 0,-0.086 -0.07053,-0.154 -0.158813,-0.154 z m 0.83286,0.9615 h 3.966696 v 0.9616 h -3.966696 z m 8.925081,0 h 0.991674 v 0.9616 h -0.991674 z m -9.75808,2.8847 c -0.0883,0 -0.158828,0.068 -0.158828,0.154 v 2.5766 c 0,0.086 0.07053,0.154 0.158828,0.154 h 11.582253 c 0.0883,0 0.158828,-0.068 0.158828,-0.154 v -2.5766 c 0,-0.086 -0.07053,-0.154 -0.158828,-0.154 z m 0.832846,0.9615 h 3.96671 v 0.9615 h -3.96671 z m 8.925081,0.071 h 0.991674 v 0.9615 h -0.991674 z m -9.75808,2.8132 c -0.0883,0 -0.158828,0.068 -0.158828,0.154 v 2.5767 c 0,0.086 0.07053,0.154 0.158828,0.154 h 11.582267 c 0.0883,0 0.158828,-0.068 0.158828,-0.154 v -2.5767 c 0,-0.086 -0.07053,-0.154 -0.158828,-0.154 z m 0.83286,0.9616 h 3.966697 v 0.9615 h -3.966697 z m 8.925081,0.1202 h 0.99166 v 0.9615 h -0.99166 z"
         fill-rule="evenodd"
         id="path2"
         style="fill:url(#linearGradient1055);fill-opacity:1;stroke-width:0.0488245" />
    </g>
  </g>
</svg>
