<?xml version="1.0" encoding="UTF-8" standalone="no"?>
<svg
   width="32"
   version="1.1"
   height="32"
   viewBox="0 0 32 32"
   id="svg17"
   sodipodi:docname="folder-tar.svg"
   inkscape:version="1.1.2 (0a00cf5339, 2022-02-04)"
   xmlns:inkscape="http://www.inkscape.org/namespaces/inkscape"
   xmlns:sodipodi="http://sodipodi.sourceforge.net/DTD/sodipodi-0.dtd"
   xmlns:xlink="http://www.w3.org/1999/xlink"
   xmlns="http://www.w3.org/2000/svg"
   xmlns:svg="http://www.w3.org/2000/svg"
   xmlns:rdf="http://www.w3.org/1999/02/22-rdf-syntax-ns#"
   xmlns:cc="http://creativecommons.org/ns#"
   xmlns:dc="http://purl.org/dc/elements/1.1/">
  <sodipodi:namedview
     pagecolor="#ffffff"
     bordercolor="#666666"
     borderopacity="1"
     objecttolerance="10"
     gridtolerance="10"
     guidetolerance="10"
     inkscape:pageopacity="0"
     inkscape:pageshadow="2"
     inkscape:window-width="1920"
     inkscape:window-height="1015"
     id="namedview19"
     showgrid="false"
     inkscape:zoom="9.8125"
     inkscape:cx="-10.700637"
     inkscape:cy="3.3121019"
     inkscape:window-x="0"
     inkscape:window-y="0"
     inkscape:window-maximized="1"
     inkscape:current-layer="layer1"
     inkscape:pagecheckerboard="0" />
  <defs
     id="defs5455">
    <linearGradient
       inkscape:collect="always"
       xlink:href="#linearGradient1295"
       id="linearGradient1493"
       gradientUnits="userSpaceOnUse"
       x1="20.750315"
       y1="1025.9873"
       x2="-12.062732"
       y2="995.35931" />
    <linearGradient
       inkscape:collect="always"
       id="linearGradient1295">
      <stop
         style="stop-color:#1d212f;stop-opacity:1;"
         offset="0"
         id="stop1291" />
      <stop
         style="stop-color:#717da8;stop-opacity:1"
         offset="1"
         id="stop1293" />
    </linearGradient>
    <linearGradient
       inkscape:collect="always"
       xlink:href="#linearGradient952"
       id="linearGradient1297"
       x1="2.0000021"
       y1="1025.9873"
       x2="62.938519"
       y2="1025.9873"
       gradientUnits="userSpaceOnUse" />
    <linearGradient
       inkscape:collect="always"
       id="linearGradient952">
      <stop
         style="stop-color:#2e354b;stop-opacity:1"
         offset="0"
         id="stop948" />
      <stop
         style="stop-color:#717da8;stop-opacity:1"
         offset="1"
         id="stop950" />
    </linearGradient>
    <linearGradient
       inkscape:collect="always"
       xlink:href="#linearGradient1346"
       id="linearGradient1348"
       x1="389.57162"
       y1="523.79797"
       x2="409.57123"
       y2="523.79797"
       gradientUnits="userSpaceOnUse"
       gradientTransform="matrix(0.5,0,0,0.5,192.28572,273.899)" />
    <linearGradient
       inkscape:collect="always"
       id="linearGradient1346">
      <stop
         style="stop-color:#404868;stop-opacity:1"
         offset="0"
         id="stop1342" />
      <stop
         style="stop-color:#becad8;stop-opacity:1"
         offset="1"
         id="stop1344" />
    </linearGradient>
  </defs>
  <metadata
     id="metadata5458">
    <rdf:RDF>
      <cc:Work
         rdf:about="">
        <dc:format>image/svg+xml</dc:format>
        <dc:type
           rdf:resource="http://purl.org/dc/dcmitype/StillImage" />
      </cc:Work>
    </rdf:RDF>
  </metadata>
  <g
     inkscape:label="Capa 1"
     inkscape:groupmode="layer"
     id="layer1"
     transform="translate(-384.57143,-515.798)">
    <g
       transform="matrix(0.53332446,0,0,0.57137396,383.50478,-52.924394)"
       id="g19">
      <rect
         width="60"
         height="42"
         x="2"
         y="1002.36"
         rx="6.5219998"
         ry="6.5619998"
         style="opacity:0.85;fill:url(#linearGradient1493);fill-opacity:1;stroke:none"
         id="rect11" />
      <path
         d="m 8.522,1002.36 c -3.613,0 -6.522,3.3302 -6.522,6.1002 v 0.8998 c 0,-2.77 2.909,-5 6.522,-5 h 46.957 c 3.613,0 6.522,2.23 6.522,5 v -0.8998 c 0,-2.77 -2.909,-6.1002 -6.522,-6.1002 z"
         style="opacity:0.2;fill:#ffffff;fill-opacity:1;stroke:none"
         id="path13"
         sodipodi:nodetypes="sscsscsss" />
      <path
         d="m 8.522,1013.3603 h 10.435 c 14.348,-1.333 11.86095,-6.5781 20.991951,-6.5781 h 15.361736 c 3.612989,0 6.689313,1.4143 6.689313,5.1083 v 25.8035 c 0,3.693 -2.908,6.667 -6.521,6.667 H 8.522 c -3.613,0 -6.522,-2.973 -6.522,-6.667 v -18.667 c 0,-4 2.609,-5.6667 6.522,-5.6667 z"
         style="opacity:0.6;fill:url(#linearGradient1297);fill-opacity:1;stroke:none"
         id="path15"
         sodipodi:nodetypes="scsssssssss" />
      <path
         d="m 2,1035.03 v 2.667 c 0,3.693 2.909,6.667 6.522,6.667 h 46.957 c 3.613,0 6.522,-2.973 6.522,-6.667 v -2.667 c 0,3.693 -2.909,7.333 -6.522,7.333 H 8.522 c -3.613,0 -6.522,-3.64 -6.522,-7.333 z"
         style="opacity:0.15;fill:#000000;fill-opacity:1;stroke:none"
         id="path17" />
    </g>
    <rect
       y="540.198"
       x="404.57144"
       height="0.17142858"
       width="10.933346"
       id="rect4209"
       style="fill:#000000;fill-opacity:1;fill-rule:nonzero;stroke:none;stroke-width:0.211249;stroke-linecap:round;stroke-linejoin:round;stroke-miterlimit:4;stroke-dasharray:none;stroke-dashoffset:0;stroke-opacity:1" />
    <path
       d="m 390.94153,537.5284 h 0.51261 l -0.25454,-0.73463 z"
       id="path70"
       style="fill:#9dafc4;fill-opacity:1;stroke-width:0.0205174" />
    <path
       d="m 393.74052,536.93893 c 0,-0.11036 -0.0388,-0.19812 -0.11637,-0.26303 -0.0777,-0.0648 -0.18097,-0.0972 -0.31016,-0.0972 h -0.28316 v 0.73102 h 0.28316 c 0.13144,0 0.23554,-0.0331 0.31193,-0.099 0.0766,-0.0659 0.1146,-0.15669 0.1146,-0.27178 z"
       id="path72"
       style="fill:#acbbcd;fill-opacity:1;stroke-width:0.0205174" />
    <path
       d="m 392.07143,530.798 c -2.76144,0 -4.9999,2.23866 -4.9999,5.0001 0,2.76124 2.23846,4.9999 4.9999,4.9999 2.76124,0 4.9999,-2.23866 4.9999,-4.9999 0,-2.76144 -2.23866,-5.0001 -4.9999,-5.0001 z m -2.39151,7.75888 h -0.44097 v -1.97834 h -0.44432 v -0.41203 h 1.32594 v 0.41203 h -0.44072 z m 2.20419,0 -0.25454,-0.61641 h -0.84571 l -0.26529,0.61641 h -0.48737 l 0.99277,-2.39029 h 0.34767 l 1.00343,2.39029 z m 1.78477,0 -0.63805,-0.91391 v 0.91391 h -0.44425 v -2.39029 h 0.73102 c 0.31289,0 0.54244,0.087 0.68805,0.2616 0.11717,0.1409 0.17584,0.30103 0.17584,0.48015 0,0.18177 -0.0503,0.34174 -0.15067,0.48048 -0.10043,0.13849 -0.25799,0.23402 -0.47312,0.28661 l 0.64534,0.88169 -0.53417,-8e-5 z m -1.47461,-7.09207 c 2.33796,0.0654 4.21326,1.97961 4.21326,4.33329 0,0.0107 -3.8e-4,0.0212 -0.001,0.032 -2.21609,-0.33484 -3.95412,-2.12458 -4.21223,-4.36508 z"
       id="path74"
       style="fill:url(#linearGradient1348);fill-opacity:1;stroke-width:0.0205174" />
  </g>
</svg>
