<?xml version="1.0" encoding="UTF-8" standalone="no"?>
<svg
   width="32"
   version="1.1"
   height="32"
   viewBox="0 0 32 32"
   id="svg15"
   sodipodi:docname="folder-comic.svg"
   inkscape:version="1.1.2 (0a00cf5339, 2022-02-04)"
   xmlns:inkscape="http://www.inkscape.org/namespaces/inkscape"
   xmlns:sodipodi="http://sodipodi.sourceforge.net/DTD/sodipodi-0.dtd"
   xmlns:xlink="http://www.w3.org/1999/xlink"
   xmlns="http://www.w3.org/2000/svg"
   xmlns:svg="http://www.w3.org/2000/svg"
   xmlns:rdf="http://www.w3.org/1999/02/22-rdf-syntax-ns#"
   xmlns:cc="http://creativecommons.org/ns#"
   xmlns:dc="http://purl.org/dc/elements/1.1/">
  <sodipodi:namedview
     pagecolor="#ffffff"
     bordercolor="#666666"
     borderopacity="1"
     objecttolerance="10"
     gridtolerance="10"
     guidetolerance="10"
     inkscape:pageopacity="0"
     inkscape:pageshadow="2"
     inkscape:window-width="1920"
     inkscape:window-height="1015"
     id="namedview17"
     showgrid="true"
     inkscape:zoom="9.8125"
     inkscape:cx="-6.522293"
     inkscape:cy="1.7834395"
     inkscape:window-x="0"
     inkscape:window-y="0"
     inkscape:window-maximized="1"
     inkscape:current-layer="g4"
     inkscape:pagecheckerboard="0">
    <inkscape:grid
       type="xygrid"
       id="grid862" />
  </sodipodi:namedview>
  <defs
     id="defs5455">
    <linearGradient
       inkscape:collect="always"
       xlink:href="#linearGradient1295"
       id="linearGradient1493"
       gradientUnits="userSpaceOnUse"
       x1="20.750315"
       y1="1025.9873"
       x2="-12.062732"
       y2="995.35931" />
    <linearGradient
       inkscape:collect="always"
       id="linearGradient1295">
      <stop
         style="stop-color:#1d212f;stop-opacity:1;"
         offset="0"
         id="stop1291" />
      <stop
         style="stop-color:#717da8;stop-opacity:1"
         offset="1"
         id="stop1293" />
    </linearGradient>
    <linearGradient
       inkscape:collect="always"
       xlink:href="#linearGradient952"
       id="linearGradient1297"
       x1="2.0000021"
       y1="1025.9873"
       x2="62.938519"
       y2="1025.9873"
       gradientUnits="userSpaceOnUse" />
    <linearGradient
       inkscape:collect="always"
       id="linearGradient952">
      <stop
         style="stop-color:#2e354b;stop-opacity:1"
         offset="0"
         id="stop948" />
      <stop
         style="stop-color:#717da8;stop-opacity:1"
         offset="1"
         id="stop950" />
    </linearGradient>
    <linearGradient
       inkscape:collect="always"
       xlink:href="#linearGradient1191"
       id="linearGradient1193"
       x1="389.57144"
       y1="523.79797"
       x2="409.57141"
       y2="523.79797"
       gradientUnits="userSpaceOnUse"
       gradientTransform="matrix(1.3883548,0,0,1.3461638,-465.19069,330.12438)" />
    <linearGradient
       inkscape:collect="always"
       id="linearGradient1191">
      <stop
         style="stop-color:#404868;stop-opacity:1"
         offset="0"
         id="stop1187" />
      <stop
         style="stop-color:#becad8;stop-opacity:1"
         offset="1"
         id="stop1189" />
    </linearGradient>
    <linearGradient
       inkscape:collect="always"
       xlink:href="#linearGradient1191"
       id="linearGradient1984"
       x1="393.64548"
       y1="524.77386"
       x2="405.49722"
       y2="524.77386"
       gradientUnits="userSpaceOnUse"
       gradientTransform="matrix(1.3883548,0,0,1.3461638,-465.19069,330.12438)" />
  </defs>
  <metadata
     id="metadata5458">
    <rdf:RDF>
      <cc:Work
         rdf:about="">
        <dc:format>image/svg+xml</dc:format>
        <dc:type
           rdf:resource="http://purl.org/dc/dcmitype/StillImage" />
      </cc:Work>
    </rdf:RDF>
  </metadata>
  <g
     inkscape:label="Capa 1"
     inkscape:groupmode="layer"
     id="layer1"
     transform="translate(-384.57143,-515.798)">
    <g
       transform="matrix(0.36013848,0,0,0.37142583,359.81878,151.2823)"
       id="g4">
      <g
         transform="matrix(1.4808871,0,0,1.5383258,65.769148,-549.79125)"
         id="g19">
        <rect
           width="60"
           height="42"
           x="2"
           y="1002.36"
           rx="6.5219998"
           ry="6.5619998"
           style="opacity:0.85;fill:url(#linearGradient1493);fill-opacity:1;stroke:none"
           id="rect11" />
        <path
           d="m 8.522,1002.36 c -3.613,0 -6.522,3.3302 -6.522,6.1002 v 0.8998 c 0,-2.77 2.909,-5 6.522,-5 h 46.957 c 3.613,0 6.522,2.23 6.522,5 v -0.8998 c 0,-2.77 -2.909,-6.1002 -6.522,-6.1002 z"
           style="opacity:0.2;fill:#ffffff;fill-opacity:1;stroke:none"
           id="path13"
           sodipodi:nodetypes="sscsscsss" />
        <path
           d="m 8.522,1013.3603 h 10.435 c 14.348,-1.333 11.86095,-6.5781 20.991951,-6.5781 h 15.361736 c 3.612989,0 6.689313,1.4143 6.689313,5.1083 v 25.8035 c 0,3.693 -2.908,6.667 -6.521,6.667 H 8.522 c -3.613,0 -6.522,-2.973 -6.522,-6.667 v -18.667 c 0,-4 2.609,-5.6667 6.522,-5.6667 z"
           style="opacity:0.6;fill:url(#linearGradient1297);fill-opacity:1;stroke:none"
           id="path15"
           sodipodi:nodetypes="scsssssssss" />
        <path
           d="m 2,1035.03 v 2.667 c 0,3.693 2.909,6.667 6.522,6.667 h 46.957 c 3.613,0 6.522,-2.973 6.522,-6.667 v -2.667 c 0,3.693 -2.909,7.333 -6.522,7.333 H 8.522 c -3.613,0 -6.522,-3.64 -6.522,-7.333 z"
           style="opacity:0.15;fill:#000000;fill-opacity:1;stroke:none"
           id="path17" />
      </g>
      <rect
         y="1047.0929"
         x="124.26514"
         height="0.46154189"
         width="30.358727"
         id="rect4209"
         style="fill:#000000;fill-opacity:1;fill-rule:nonzero;stroke:none;stroke-width:0.577595;stroke-linecap:round;stroke-linejoin:round;stroke-miterlimit:4;stroke-dasharray:none;stroke-dashoffset:0;stroke-opacity:1" />
      <path
         d="m 89.556249,1021.7805 c -3.682154,0 -7.21374,1.4182 -9.817141,3.9429 -2.603762,2.5244 -4.066408,5.9485 -4.066408,9.5188 0,3.5703 1.462646,6.9945 4.066408,9.5188 2.603554,2.5246 6.134932,3.9428 9.817141,3.9428 3.682194,0 7.213725,-1.4182 9.81714,-3.9428 2.603741,-2.5245 4.066391,-5.9485 4.066391,-9.5188 0,-2.363 -0.64156,-4.6843 -1.85997,-6.7308 -1.2186,-2.0465 -2.971099,-3.7458 -5.081732,-4.9273 -2.110646,-1.1814 -4.504684,-1.8035 -6.941732,-1.8035 z m 9.25562,18.7415 c 0,0.3188 -0.130506,0.6243 -0.362958,0.8497 -0.232383,0.2253 -0.547511,0.3519 -0.876343,0.3519 h -4.843734 l -2.75097,3.7793 c -0.09621,0.1335 -0.253486,0.2132 -0.421615,0.2132 -0.168102,0 -0.325389,-0.08 -0.421588,-0.2132 l -2.750984,-3.7793 h -4.843734 c -0.328804,0 -0.643933,-0.1265 -0.876357,-0.3519 -0.232397,-0.2253 -0.362944,-0.5309 -0.362944,-0.8497 v -11.557 c 0,-0.3188 0.130505,-0.6244 0.362944,-0.8497 0.232397,-0.2254 0.547525,-0.3519 0.876357,-0.3519 h 16.032805 c 0.328804,0 0.643933,0.1265 0.876358,0.3519 0.232382,0.2253 0.362957,0.5309 0.362957,0.8497 z"
         id="path49"
         style="fill:url(#linearGradient1193);fill-opacity:1;stroke-width:0.050633" />
      <path
         d="M 97.572651,1028.7606 H 81.539832 c -0.116483,0 -0.210891,0.091 -0.210891,0.2045 v 11.557 c 0,0.1129 0.09441,0.2045 0.210891,0.2045 h 5.111076 c 0.16731,0 0.324583,0.077 0.421601,0.2093 l 2.483642,3.4153 2.483642,-3.4153 c 0.09705,-0.132 0.254291,-0.2101 0.421602,-0.2093 h 5.111062 c 0.05595,0 0.10968,-0.021 0.149234,-0.06 0.03929,-0.038 0.06164,-0.09 0.06164,-0.1447 v -11.557 c 0,-0.1129 -0.09441,-0.2045 -0.210905,-0.2045 z m -8.016402,8.9743 h -5.656228 c -0.284015,0 -0.514191,-0.2231 -0.514191,-0.4985 0,-0.2754 0.230176,-0.4986 0.514191,-0.4986 h 5.656228 c 0.284015,0 0.514191,0.2232 0.514191,0.4986 0,0.2754 -0.230176,0.4985 -0.514191,0.4985 z m 5.656213,-2.4928 H 83.900021 c -0.284015,0 -0.514191,-0.2232 -0.514191,-0.4986 0,-0.2754 0.230176,-0.4986 0.514191,-0.4986 h 11.312441 c 0.284015,0 0.514205,0.2232 0.514205,0.4986 0,0.2754 -0.23019,0.4986 -0.514205,0.4986 z m 0,-2.4929 H 83.900021 c -0.284015,0 -0.514191,-0.2232 -0.514191,-0.4986 0,-0.2754 0.230176,-0.4986 0.514191,-0.4986 h 11.312441 c 0.284015,0 0.514205,0.2232 0.514205,0.4986 0,0.2754 -0.23019,0.4986 -0.514205,0.4986 z"
         id="path51"
         style="fill:url(#linearGradient1984);fill-opacity:1;stroke-width:0.050633" />
    </g>
  </g>
</svg>
