<?xml version="1.0" encoding="UTF-8" standalone="no"?>
<svg
   width="32"
   version="1.1"
   height="32"
   viewBox="0 0 32 32"
   id="svg15"
   sodipodi:docname="folder-Pop_OS.svg"
   inkscape:version="1.1.2 (0a00cf5339, 2022-02-04)"
   xmlns:inkscape="http://www.inkscape.org/namespaces/inkscape"
   xmlns:sodipodi="http://sodipodi.sourceforge.net/DTD/sodipodi-0.dtd"
   xmlns:xlink="http://www.w3.org/1999/xlink"
   xmlns="http://www.w3.org/2000/svg"
   xmlns:svg="http://www.w3.org/2000/svg"
   xmlns:rdf="http://www.w3.org/1999/02/22-rdf-syntax-ns#"
   xmlns:cc="http://creativecommons.org/ns#"
   xmlns:dc="http://purl.org/dc/elements/1.1/">
  <sodipodi:namedview
     pagecolor="#ffffff"
     bordercolor="#666666"
     borderopacity="1"
     objecttolerance="10"
     gridtolerance="10"
     guidetolerance="10"
     inkscape:pageopacity="0"
     inkscape:pageshadow="2"
     inkscape:window-width="1920"
     inkscape:window-height="1015"
     id="namedview17"
     showgrid="false"
     inkscape:zoom="9.8125"
     inkscape:cx="-16"
     inkscape:cy="8.7133758"
     inkscape:window-x="0"
     inkscape:window-y="0"
     inkscape:window-maximized="1"
     inkscape:current-layer="layer1"
     inkscape:document-rotation="0"
     inkscape:pagecheckerboard="0" />
  <defs
     id="defs5455">
    <linearGradient
       inkscape:collect="always"
       xlink:href="#linearGradient1295"
       id="linearGradient1493"
       gradientUnits="userSpaceOnUse"
       x1="20.750315"
       y1="1025.9873"
       x2="-12.062732"
       y2="995.35931" />
    <linearGradient
       inkscape:collect="always"
       id="linearGradient1295">
      <stop
         style="stop-color:#1d212f;stop-opacity:1;"
         offset="0"
         id="stop1291" />
      <stop
         style="stop-color:#717da8;stop-opacity:1"
         offset="1"
         id="stop1293" />
    </linearGradient>
    <linearGradient
       inkscape:collect="always"
       xlink:href="#linearGradient952"
       id="linearGradient1297"
       x1="2.0000021"
       y1="1025.9873"
       x2="62.938519"
       y2="1025.9873"
       gradientUnits="userSpaceOnUse" />
    <linearGradient
       inkscape:collect="always"
       id="linearGradient952">
      <stop
         style="stop-color:#2e354b;stop-opacity:1"
         offset="0"
         id="stop948" />
      <stop
         style="stop-color:#717da8;stop-opacity:1"
         offset="1"
         id="stop950" />
    </linearGradient>
    <linearGradient
       inkscape:collect="always"
       xlink:href="#linearGradient876"
       id="linearGradient878"
       x1="5"
       y1="40"
       x2="24.99983"
       y2="40"
       gradientUnits="userSpaceOnUse"
       gradientTransform="matrix(0.5,0,0,0.5,384.57143,515.79799)" />
    <linearGradient
       inkscape:collect="always"
       id="linearGradient876">
      <stop
         style="stop-color:#404868;stop-opacity:1"
         offset="0"
         id="stop872" />
      <stop
         style="stop-color:#becad8;stop-opacity:1"
         offset="1"
         id="stop874" />
    </linearGradient>
  </defs>
  <metadata
     id="metadata5458">
    <rdf:RDF>
      <cc:Work
         rdf:about="">
        <dc:format>image/svg+xml</dc:format>
        <dc:type
           rdf:resource="http://purl.org/dc/dcmitype/StillImage" />
      </cc:Work>
    </rdf:RDF>
  </metadata>
  <g
     inkscape:label="Capa 1"
     inkscape:groupmode="layer"
     id="layer1"
     transform="translate(-384.57143,-515.798)">
    <g
       transform="matrix(0.53332446,0,0,0.57137396,383.50478,-52.924394)"
       id="g19">
      <rect
         width="60"
         height="42"
         x="2"
         y="1002.36"
         rx="6.5219998"
         ry="6.5619998"
         style="opacity:0.85;fill:url(#linearGradient1493);fill-opacity:1;stroke:none"
         id="rect11" />
      <path
         d="m 8.522,1002.36 c -3.613,0 -6.522,3.3302 -6.522,6.1002 v 0.8998 c 0,-2.77 2.909,-5 6.522,-5 h 46.957 c 3.613,0 6.522,2.23 6.522,5 v -0.8998 c 0,-2.77 -2.909,-6.1002 -6.522,-6.1002 z"
         style="opacity:0.2;fill:#ffffff;fill-opacity:1;stroke:none"
         id="path13"
         sodipodi:nodetypes="sscsscsss" />
      <path
         d="m 8.522,1013.3603 h 10.435 c 14.348,-1.333 11.86095,-6.5781 20.991951,-6.5781 h 15.361736 c 3.612989,0 6.689313,1.4143 6.689313,5.1083 v 25.8035 c 0,3.693 -2.908,6.667 -6.521,6.667 H 8.522 c -3.613,0 -6.522,-2.973 -6.522,-6.667 v -18.667 c 0,-4 2.609,-5.6667 6.522,-5.6667 z"
         style="opacity:0.6;fill:url(#linearGradient1297);fill-opacity:1;stroke:none"
         id="path15"
         sodipodi:nodetypes="scsssssssss" />
      <path
         d="m 2,1035.03 v 2.667 c 0,3.693 2.909,6.667 6.522,6.667 h 46.957 c 3.613,0 6.522,-2.973 6.522,-6.667 v -2.667 c 0,3.693 -2.909,7.333 -6.522,7.333 H 8.522 c -3.613,0 -6.522,-3.64 -6.522,-7.333 z"
         style="opacity:0.15;fill:#000000;fill-opacity:1;stroke:none"
         id="path17" />
    </g>
    <rect
       y="540.19806"
       x="404.57147"
       height="0.17142858"
       width="10.933346"
       id="rect4209"
       style="fill:#000000;fill-opacity:1;fill-rule:nonzero;stroke:none;stroke-width:0.211249;stroke-linecap:round;stroke-linejoin:round;stroke-miterlimit:4;stroke-dasharray:none;stroke-dashoffset:0;stroke-opacity:1" />
    <path
       d="m 396.68005,533.8585 c -0.24915,-0.59312 -0.61687,-1.12691 -1.06758,-1.58954 -0.46264,-0.46264 -0.99643,-0.81854 -1.58955,-1.06758 -0.61695,-0.26106 -1.26933,-0.40339 -1.94553,-0.40339 -0.6762,0 -1.32858,0.14232 -1.94544,0.4033 -0.59313,0.24915 -1.12692,0.61687 -1.58955,1.06758 -0.46264,0.46264 -0.81854,0.99643 -1.06758,1.58955 -0.26106,0.61696 -0.40339,1.26933 -0.40339,1.94553 0,0.6762 0.14232,1.32858 0.4033,1.94545 0.24915,0.59312 0.61687,1.12691 1.06758,1.58955 0.46264,0.46263 0.99643,0.81853 1.58955,1.06758 0.61687,0.26097 1.26933,0.39146 1.94545,0.39146 0.6762,0 1.32857,-0.13049 1.94544,-0.39146 0.59312,-0.24916 1.12691,-0.61687 1.58955,-1.06758 0.46264,-0.46264 0.81853,-0.99643 1.06758,-1.58955 0.26098,-0.61687 0.39146,-1.26933 0.39146,-1.94545 1.7e-4,-0.6762 -0.13032,-1.32857 -0.39131,-1.94545 z"
       id="path67"
       style="fill:url(#linearGradient878);fill-opacity:1;stroke-width:0.021183" />
    <path
       style="fill:#3a435f;fill-opacity:1;stroke-width:0.0081189"
       id="path2-3-3-4"
       d="m 395.29169,536.10595 c -0.0159,0.0648 -0.0482,0.12225 -0.10439,0.15835 -0.0884,0.0567 -0.19601,0.0402 -0.27231,-0.0288 -0.0715,-0.064 -0.0956,-0.17225 -0.0731,-0.26587 0.0232,-0.0977 0.0972,-0.18384 0.19198,-0.21094 0.21125,-0.0598 0.29882,0.17479 0.25783,0.34719 z m -0.1293,-0.66637 c -0.13092,-0.0534 -0.086,-0.75498 0.0338,-1.60671 0.0338,-0.238 0.0916,-0.35053 0.15665,-0.408 0.0932,-0.0812 0.26265,-0.0845 0.37748,-0.0673 0.13174,0.019 0.25786,0.0821 0.35344,0.17648 0.0843,0.0838 0.094,0.16903 0.065,0.27989 -0.0474,0.17646 -0.12849,0.34552 -0.20643,0.51036 -0.0181,0.0401 -0.17994,0.35287 -0.20159,0.39142 -0.38956,0.70086 -0.46747,0.76895 -0.5783,0.72384 z" />
    <path
       style="fill:#3a435f;fill-opacity:1;stroke-width:0.0081189"
       id="path4-8"
       d="m 392.51981,535.12361 c 0.0771,0.33654 0.0691,0.70578 0.002,0.97164 -0.0618,0.25112 -0.22967,0.47596 -0.49635,0.55145 -0.2338,0.0665 -0.50603,0.0178 -0.67314,-0.14606 -0.27468,-0.26918 -0.43532,-0.90107 -0.36385,-1.3598 0.0579,-0.36838 0.25223,-0.84032 0.67876,-0.86088 0.0278,-10e-4 0.0546,-4.8e-4 0.0819,0.001 0.43457,0.0402 0.67151,0.41447 0.76953,0.84204 z m -0.78552,0.76565 c 0.0238,0.005 0.0482,0.005 0.0723,-0.002 0.0811,-0.0235 0.12771,-0.10998 0.14939,-0.19366 0.0331,-0.12721 0.0283,-0.26426 -0.0152,-0.38901 -0.022,-0.0632 -0.0537,-0.12474 -0.10282,-0.1707 -0.17265,-0.16164 -0.34528,0.006 -0.37506,0.19777 -0.0232,0.14938 0.0108,0.32253 0.10198,0.44318 0.0427,0.0558 0.10369,0.10419 0.16876,0.11568 z" />
    <path
       style="fill:#3a435f;fill-opacity:1;stroke-width:0.0081189"
       id="path6-7"
       d="m 393.46038,535.83682 c -4.8e-4,0.62113 0.0602,1.09629 -0.20726,1.15294 -0.21685,0.045 -0.2096,-0.14936 -0.22651,-0.31268 -0.0642,-0.63267 -0.12285,-1.68385 -0.1478,-2.31995 0.0175,-0.27329 0.19684,-0.44068 0.38318,-0.48163 0.28754,-0.0632 0.59435,-0.0452 0.84899,0.11565 0.50363,0.31846 0.54379,0.90272 0.23857,1.37948 -0.1671,0.26015 -0.67231,0.44895 -0.88917,0.43246 z m 0.0642,-1.39263 c -0.0312,0.005 -0.0827,0.019 -0.0972,0.0508 -0.0346,0.073 -0.0324,0.5368 0.0283,0.73125 0.0102,0.0323 0.0308,0.0623 0.0627,0.0738 0.11406,0.0427 0.21688,-0.10013 0.26347,-0.18629 0.0651,-0.11979 0.0859,-0.26092 0.0449,-0.39227 -0.0386,-0.12225 -0.15823,-0.29954 -0.302,-0.2773 z" />
    <path
       style="fill:#3a435f;fill-opacity:1;stroke-width:0.0081189"
       id="path8-1"
       d="m 390.58001,534.75269 c -0.18876,0.40793 -0.50202,0.732 -0.93573,0.89209 0.12457,0.33234 0.25137,0.66062 0.37509,0.9921 0.0691,0.17888 0.13495,0.37502 0.0747,0.55145 -0.0626,0.18055 -0.30672,0.23059 -0.48428,0.0385 -0.34142,-0.37095 -1.49557,-2.72121 -1.5807,-2.89768 -0.0723,-0.1518 -0.18068,-0.31432 -0.17757,-0.4899 0.006,-0.26428 0.40573,-0.5318 0.59753,-0.66878 0.26837,-0.19129 0.57835,-0.32179 0.9101,-0.32253 0.25867,0 0.47953,0.0723 0.67555,0.20019 0.30036,0.19704 0.50925,0.51122 0.5864,0.86656 0.0674,0.3127 0.053,0.63283 -0.041,0.83795 m -0.87947,-0.44647 c -0.0675,-0.25022 -0.22013,-0.48081 -0.41212,-0.64245 -0.0417,-0.0353 -0.0868,-0.0682 -0.13883,-0.0862 -0.35987,-0.12067 -0.20404,0.49397 -0.1454,0.64913 0.0811,0.21743 0.20404,0.49232 0.36863,0.65642 0.0361,0.0361 0.0787,0.0681 0.12769,0.078 0.0747,0.0161 0.14376,-0.0378 0.18159,-0.10009 0.0308,-0.0517 0.0433,-0.11326 0.0506,-0.17313 0.013,-0.12717 10e-4,-0.25692 -0.0325,-0.38167 z" />
    <path
       style="fill:#3a435f;fill-opacity:1;stroke-width:0.0081189"
       id="path10-7"
       d="m 394.88315,537.87661 c -10e-4,0.36028 -0.21685,0.72053 -0.69159,0.72053 -0.47468,0 -0.69556,-0.3545 -0.69556,-0.71642 0,-0.45135 0.30762,-0.73037 0.70523,-0.73037 0.46106,0.005 0.68595,0.35369 0.68192,0.72626 z m -0.68192,-0.49892 c -0.29799,0 -0.46509,0.21175 -0.46668,0.50058 0,0.25111 0.13734,0.48664 0.46103,0.48664 0.32368,0 0.44739,-0.25519 0.44739,-0.4891 0.005,-0.24292 -0.12206,-0.49237 -0.44174,-0.49812 z m 0.88111,1.0348 c 0,0.0534 0.001,-0.25358 0,-0.30034 h 0.21848 l 0.0159,0.18794 c 0.0715,0.0419 0.18233,0.073 0.2731,0.073 0.16871,0 0.34461,-0.0434 0.34461,-0.21174 -0.006,-0.15265 -0.20162,-0.18382 -0.35984,-0.20026 -0.26908,-0.0281 -0.48595,-0.0951 -0.48595,-0.40373 0,-0.27491 0.3044,-0.41191 0.5309,-0.41191 0.18234,-0.005 0.31165,0.0247 0.47631,0.15997 0,0.11084 -10e-4,0.17647 -10e-4,0.28722 h -0.2112 l -0.0131,-0.18213 c -0.0851,-0.042 -0.17271,-0.0534 -0.24016,-0.0517 -0.14539,0.001 -0.30041,0.0714 -0.30041,0.19611 0,0.12225 0.1004,0.1559 0.2787,0.1822 0.2908,0.0394 0.5711,0.10664 0.5711,0.42342 -10e-4,0.34629 -0.31968,0.4374 -0.59277,0.4374 -0.20802,4.8e-4 -0.33816,-0.0386 -0.50281,-0.18549 z"
       inkscape:connector-curvature="0" />
    <path
       style="fill:#3a435f;fill-opacity:1;stroke-width:0.0081189"
       id="path12-2"
       d="m 393.20121,538.47899 c 0,0.0632 -0.0498,0.11405 -0.11162,0.11405 h -1.2908 c -0.0619,0 -0.11162,-0.0509 -0.11162,-0.11405 v -0.0103 c 0,-0.0632 0.0498,-0.11402 0.11162,-0.11402 h 1.2908 c 0.0618,0 0.11162,0.0508 0.11162,0.11402 z"
       inkscape:connector-curvature="0" />
  </g>
</svg>
