<?xml version="1.0" encoding="UTF-8" standalone="no"?>
<svg
   viewBox="0 0 32 32"
   version="1.1"
   id="svg14"
   sodipodi:docname="folder-encrypted.svg"
   inkscape:version="1.1.2 (0a00cf5339, 2022-02-04)"
   xmlns:inkscape="http://www.inkscape.org/namespaces/inkscape"
   xmlns:sodipodi="http://sodipodi.sourceforge.net/DTD/sodipodi-0.dtd"
   xmlns:xlink="http://www.w3.org/1999/xlink"
   xmlns="http://www.w3.org/2000/svg"
   xmlns:svg="http://www.w3.org/2000/svg">
  <sodipodi:namedview
     id="namedview16"
     pagecolor="#ffffff"
     bordercolor="#666666"
     borderopacity="1.0"
     inkscape:pageshadow="2"
     inkscape:pageopacity="0.0"
     inkscape:pagecheckerboard="0"
     showgrid="false"
     inkscape:zoom="9.71875"
     inkscape:cx="3.9099678"
     inkscape:cy="7.3569132"
     inkscape:window-width="1920"
     inkscape:window-height="1015"
     inkscape:window-x="0"
     inkscape:window-y="0"
     inkscape:window-maximized="1"
     inkscape:current-layer="svg14" />
  <defs
     id="defs3051">
    <style
       type="text/css"
       id="current-color-scheme">
      .ColorScheme-Text {
        color:#31363b;
      }
      .ColorScheme-Highlight {
        color:#3daee9;
      }
      </style>
    <linearGradient
       inkscape:collect="always"
       xlink:href="#linearGradient1295"
       id="linearGradient1493"
       gradientUnits="userSpaceOnUse"
       x1="20.750315"
       y1="1025.9873"
       x2="-12.062732"
       y2="995.35931" />
    <linearGradient
       inkscape:collect="always"
       id="linearGradient1295">
      <stop
         style="stop-color:#1d212f;stop-opacity:1;"
         offset="0"
         id="stop1291" />
      <stop
         style="stop-color:#717da8;stop-opacity:1"
         offset="1"
         id="stop1293" />
    </linearGradient>
    <linearGradient
       inkscape:collect="always"
       xlink:href="#linearGradient952"
       id="linearGradient1297"
       x1="2.0000021"
       y1="1025.9873"
       x2="62.938519"
       y2="1025.9873"
       gradientUnits="userSpaceOnUse" />
    <linearGradient
       inkscape:collect="always"
       id="linearGradient952">
      <stop
         style="stop-color:#2e354b;stop-opacity:1"
         offset="0"
         id="stop948" />
      <stop
         style="stop-color:#717da8;stop-opacity:1"
         offset="1"
         id="stop950" />
    </linearGradient>
    <linearGradient
       inkscape:collect="always"
       xlink:href="#linearGradient876"
       id="linearGradient878"
       x1="389.57144"
       y1="523.79797"
       x2="409.57126"
       y2="523.79797"
       gradientUnits="userSpaceOnUse"
       gradientTransform="matrix(0.5,0,0,0.5,-192.28571,-241.89879)" />
    <linearGradient
       inkscape:collect="always"
       id="linearGradient876">
      <stop
         style="stop-color:#404868;stop-opacity:1"
         offset="0"
         id="stop872" />
      <stop
         style="stop-color:#becad8;stop-opacity:1"
         offset="1"
         id="stop874" />
    </linearGradient>
  </defs>
  <g
     transform="matrix(0.53332446,0,0,0.57137396,-1.0666489,-568.72239)"
     id="g19">
    <rect
       width="60"
       height="42"
       x="2"
       y="1002.36"
       rx="6.5219998"
       ry="6.5619998"
       style="opacity:0.85;fill:url(#linearGradient1493);fill-opacity:1;stroke:none"
       id="rect11" />
    <path
       d="m 8.522,1002.36 c -3.613,0 -6.522,3.3302 -6.522,6.1002 v 0.8998 c 0,-2.77 2.909,-5 6.522,-5 h 46.957 c 3.613,0 6.522,2.23 6.522,5 v -0.8998 c 0,-2.77 -2.909,-6.1002 -6.522,-6.1002 z"
       style="opacity:0.2;fill:#ffffff;fill-opacity:1;stroke:none"
       id="path13"
       sodipodi:nodetypes="sscsscsss" />
    <path
       d="m 8.522,1013.3603 h 10.435 c 14.348,-1.333 11.86095,-6.5781 20.991951,-6.5781 h 15.361736 c 3.612989,0 6.689313,1.4143 6.689313,5.1083 v 25.8035 c 0,3.693 -2.908,6.667 -6.521,6.667 H 8.522 c -3.613,0 -6.522,-2.973 -6.522,-6.667 v -18.667 c 0,-4 2.609,-5.6667 6.522,-5.6667 z"
       style="opacity:0.6;fill:url(#linearGradient1297);fill-opacity:1;stroke:none"
       id="path15"
       sodipodi:nodetypes="scsssssssss" />
    <path
       d="m 2,1035.03 v 2.667 c 0,3.693 2.909,6.667 6.522,6.667 h 46.957 c 3.613,0 6.522,-2.973 6.522,-6.667 v -2.667 c 0,3.693 -2.909,7.333 -6.522,7.333 H 8.522 c -3.613,0 -6.522,-3.64 -6.522,-7.333 z"
       style="opacity:0.15;fill:#000000;fill-opacity:1;stroke:none"
       id="path17" />
  </g>
  <rect
     y="24.401697"
     x="20.000019"
     height="0.17142858"
     width="10.933346"
     id="rect4209"
     style="fill:#000000;fill-opacity:1;fill-rule:nonzero;stroke:none;stroke-width:0.211249;stroke-linecap:round;stroke-linejoin:round;stroke-miterlimit:4;stroke-dasharray:none;stroke-dashoffset:0;stroke-opacity:1" />
  <g
     transform="matrix(0.5,0,0,0.5,-192.23581,-240.1593)"
     id="layer1-8"
     style="fill:#1d212f;fill-opacity:1">
    <g
       transform="translate(-129,59.999995)"
       id="g5881"
       style="fill:#1d212f;fill-opacity:1">
      <g
         id="g4154-5-3"
         transform="translate(129,-60)"
         style="fill:#1d212f;fill-opacity:1" />
      <g
         id="g4445-8-6-2"
         transform="translate(127.99999,-59.99997)"
         style="fill:#1d212f;fill-opacity:1">
        <rect
           y="507.79797"
           x="423.57144"
           height="4"
           width="4"
           id="rect4179-5-6-2-9-9-4-4-4-0-8-4"
           style="opacity:0.6;fill:#1d212f;fill-opacity:1;stroke:none;stroke-width:2;stroke-miterlimit:4;stroke-dasharray:none;stroke-opacity:1" />
        <rect
           y="507.79797"
           x="431.57144"
           height="4"
           width="4"
           id="rect4179-5-6-2-9-1-20-5-7-3-4-0-7"
           style="opacity:0.6;fill:#1d212f;fill-opacity:1;stroke:none;stroke-width:2;stroke-miterlimit:4;stroke-dasharray:none;stroke-opacity:1" />
        <rect
           y="507.79797"
           x="439.57144"
           height="4"
           width="4"
           id="rect4179-5-6-2-9-1-2-2-0-6-0-4-4-9"
           style="opacity:0.6;fill:#1d212f;fill-opacity:1;stroke:none;stroke-width:2;stroke-miterlimit:4;stroke-dasharray:none;stroke-opacity:1" />
        <rect
           y="503.79797"
           x="419.57144"
           height="4"
           width="4"
           id="rect4179-5-6-2-9-2-6-7-8-3-6-3"
           style="opacity:0.6;fill:#1d212f;fill-opacity:1;stroke:none;stroke-width:2;stroke-miterlimit:4;stroke-dasharray:none;stroke-opacity:1" />
        <rect
           y="503.79797"
           x="427.57144"
           height="4"
           width="4"
           id="rect4179-5-6-2-9-1-8-3-4-4-1-2-0"
           style="opacity:0.6;fill:#1d212f;fill-opacity:1;stroke:none;stroke-width:2;stroke-miterlimit:4;stroke-dasharray:none;stroke-opacity:1" />
        <rect
           y="503.79797"
           x="435.57144"
           height="4"
           width="4"
           id="rect4179-5-6-2-9-1-2-9-2-5-3-7-5-1"
           style="opacity:0.6;fill:#1d212f;fill-opacity:1;stroke:none;stroke-width:2;stroke-miterlimit:4;stroke-dasharray:none;stroke-opacity:1" />
        <rect
           y="503.79797"
           x="443.57144"
           height="4"
           width="4.1666245"
           id="rect4179-5-6-2-9-1-2-7-7-0-2-1-5-4-7"
           style="opacity:0.6;fill:#1d212f;fill-opacity:1;stroke:none;stroke-width:2.35702;stroke-miterlimit:4;stroke-dasharray:none;stroke-opacity:1" />
        <rect
           y="499.79797"
           x="423.57144"
           height="4"
           width="4"
           id="rect4179-5-6-2-9-9-4-4-4-6-7-6-4"
           style="opacity:0.6;fill:#1d212f;fill-opacity:1;stroke:none;stroke-width:2;stroke-miterlimit:4;stroke-dasharray:none;stroke-opacity:1" />
        <rect
           y="499.79797"
           x="431.57144"
           height="4"
           width="4"
           id="rect4179-5-6-2-9-1-20-5-7-3-8-8-0-9"
           style="opacity:0.6;fill:#1d212f;fill-opacity:1;stroke:none;stroke-width:2;stroke-miterlimit:4;stroke-dasharray:none;stroke-opacity:1" />
        <rect
           y="499.79797"
           x="439.57144"
           height="4"
           width="4"
           id="rect4179-5-6-2-9-1-2-2-0-6-0-9-5-5-2"
           style="opacity:0.6;fill:#1d212f;fill-opacity:1;stroke:none;stroke-width:2;stroke-miterlimit:4;stroke-dasharray:none;stroke-opacity:1" />
      </g>
    </g>
  </g>
  <path
     d="m 12.108632,18.06071 c -0.249155,-0.59312 -0.61687,-1.12691 -1.06758,-1.58955 -0.46264,-0.462635 -0.996431,-0.81853 -1.5895509,-1.067575 -0.616955,-0.26106 -1.26933,-0.40339 -1.94553,-0.40339 -0.676205,0 -1.32858,0.142325 -1.945445,0.403305 -0.593125,0.24915 -1.126915,0.616865 -1.58955,1.06758 -0.46264,0.462635 -0.818535,0.996425 -1.06758,1.58955 -0.26106,0.616955 -0.40339,1.269325 -0.40339,1.94553 0,0.6762 0.142325,1.328575 0.403305,1.945445 0.24915,0.59312 0.61687,1.12691 1.06758,1.58955 0.462635,0.462635 0.996425,0.81853 1.58955,1.06758 0.61687,0.260975 1.269325,0.39146 1.945445,0.39146 0.6762,0 1.328575,-0.13049 1.945445,-0.39146 0.5931199,-0.249155 1.1269109,-0.61687 1.5895509,-1.06758 0.462635,-0.46264 0.81853,-0.99643 1.06758,-1.58955 0.260975,-0.61687 0.39146,-1.26933 0.39146,-1.945445 1.7e-4,-0.676205 -0.130325,-1.328575 -0.391315,-1.94545 z"
     id="path67"
     style="fill:url(#linearGradient878);fill-opacity:1;stroke-width:0.021183" />
  <path
     d="m 9.2706661,19.612773 v -0.887729 c 0,-0.896022 -0.771915,-1.62503 -1.720622,-1.62503 -0.948703,0 -1.720619,0.728987 -1.720619,1.62503 v 0.887729 c -0.301786,0.05801 -0.529425,0.310498 -0.529425,0.612266 v 2.249991 c 4.4e-5,0.344485 0.296771,0.624984 0.661791,0.624984 h 3.176465 c 0.365017,0 0.661744,-0.280499 0.661744,-0.624984 v -2.249991 c 0,-0.301757 -0.22764,-0.554248 -0.529378,-0.612266 z m -2.647126,-0.887729 c 0,-0.482517 0.415584,-0.875011 0.926481,-0.875011 0.510902,0 0.926486,0.392494 0.926486,0.875011 v 0.874968 h -1.852901 z m 1.852967,0.874968 z"
     id="path2"
     sodipodi:nodetypes="cssscscsssscccsscccccccccccccccc"
     style="fill:#3a435f;fill-opacity:1;stroke-width:0.0110249" />
</svg>
