<?xml version="1.0" encoding="UTF-8" standalone="no"?>
<svg
   width="32"
   version="1.1"
   height="32"
   viewBox="0 0 32 32"
   id="svg15"
   sodipodi:docname="folder-deb.svg"
   inkscape:version="1.1.2 (0a00cf5339, 2022-02-04)"
   xmlns:inkscape="http://www.inkscape.org/namespaces/inkscape"
   xmlns:sodipodi="http://sodipodi.sourceforge.net/DTD/sodipodi-0.dtd"
   xmlns:xlink="http://www.w3.org/1999/xlink"
   xmlns="http://www.w3.org/2000/svg"
   xmlns:svg="http://www.w3.org/2000/svg"
   xmlns:rdf="http://www.w3.org/1999/02/22-rdf-syntax-ns#"
   xmlns:cc="http://creativecommons.org/ns#"
   xmlns:dc="http://purl.org/dc/elements/1.1/">
  <sodipodi:namedview
     pagecolor="#ffffff"
     bordercolor="#666666"
     borderopacity="1"
     objecttolerance="10"
     gridtolerance="10"
     guidetolerance="10"
     inkscape:pageopacity="0"
     inkscape:pageshadow="2"
     inkscape:window-width="1920"
     inkscape:window-height="1015"
     id="namedview17"
     showgrid="true"
     inkscape:zoom="9.8125"
     inkscape:cx="1.4267516"
     inkscape:cy="1.7834395"
     inkscape:window-x="0"
     inkscape:window-y="0"
     inkscape:window-maximized="1"
     inkscape:current-layer="g4"
     inkscape:pagecheckerboard="0">
    <inkscape:grid
       type="xygrid"
       id="grid862" />
  </sodipodi:namedview>
  <defs
     id="defs5455">
    <linearGradient
       id="linearGradient4194">
      <stop
         style="stop-color:#b5006a"
         id="stop4196" />
      <stop
         offset="1"
         style="stop-color:#c70073"
         id="stop4198" />
    </linearGradient>
    <linearGradient
       inkscape:collect="always"
       id="linearGradient2230">
      <stop
         style="stop-color:#ff0066;stop-opacity:1"
         offset="0"
         id="stop2226" />
      <stop
         style="stop-color:#ff80b2;stop-opacity:1"
         offset="0.50507295"
         id="stop2332" />
      <stop
         style="stop-color:#ff5599;stop-opacity:1"
         offset="1"
         id="stop2228" />
    </linearGradient>
    <linearGradient
       inkscape:collect="always"
       xlink:href="#linearGradient2230"
       id="linearGradient1493"
       gradientUnits="userSpaceOnUse"
       x1="20.750315"
       y1="1025.9873"
       x2="-12.062732"
       y2="995.35931" />
    <linearGradient
       inkscape:collect="always"
       xlink:href="#linearGradient1631"
       id="linearGradient1297"
       x1="2.0000021"
       y1="1025.9873"
       x2="62.938519"
       y2="1025.9873"
       gradientUnits="userSpaceOnUse" />
    <linearGradient
       inkscape:collect="always"
       id="linearGradient1631">
      <stop
         style="stop-color:#ff2a7f;stop-opacity:1"
         offset="0"
         id="stop1627" />
      <stop
         style="stop-color:#ff80b2;stop-opacity:1"
         offset="1"
         id="stop1629" />
    </linearGradient>
    <linearGradient
       inkscape:collect="always"
       xlink:href="#linearGradient3017"
       id="linearGradient2017"
       gradientUnits="userSpaceOnUse"
       x1="389.57144"
       y1="523.79797"
       x2="409.57126"
       y2="523.79797"
       gradientTransform="matrix(1.3883548,0,0,1.3461638,-465.19068,330.12437)" />
    <linearGradient
       inkscape:collect="always"
       id="linearGradient3017">
      <stop
         style="stop-color:#ff99c0;stop-opacity:1"
         offset="0"
         id="stop3013" />
      <stop
         style="stop-color:#ffafce;stop-opacity:1"
         offset="1"
         id="stop3015" />
    </linearGradient>
  </defs>
  <metadata
     id="metadata5458">
    <rdf:RDF>
      <cc:Work
         rdf:about="">
        <dc:format>image/svg+xml</dc:format>
        <dc:type
           rdf:resource="http://purl.org/dc/dcmitype/StillImage" />
      </cc:Work>
    </rdf:RDF>
  </metadata>
  <g
     inkscape:label="Capa 1"
     inkscape:groupmode="layer"
     id="layer1"
     transform="translate(-384.57143,-515.798)">
    <g
       transform="matrix(0.36013848,0,0,0.37142583,359.81878,151.2823)"
       id="g4">
      <g
         transform="matrix(1.4808871,0,0,1.5383258,65.769148,-549.79125)"
         id="g19">
        <rect
           width="60"
           height="42"
           x="2"
           y="1002.36"
           rx="6.5219998"
           ry="6.5619998"
           style="opacity:0.85;fill:url(#linearGradient1493);fill-opacity:1;stroke:none"
           id="rect11" />
        <path
           d="m 8.522,1002.36 c -3.613,0 -6.522,3.3302 -6.522,6.1002 v 0.8998 c 0,-2.77 2.909,-5 6.522,-5 h 46.957 c 3.613,0 6.522,2.23 6.522,5 v -0.8998 c 0,-2.77 -2.909,-6.1002 -6.522,-6.1002 z"
           style="opacity:0.2;fill:#ffffff;fill-opacity:1;stroke:none"
           id="path13"
           sodipodi:nodetypes="sscsscsss" />
        <path
           d="m 8.522,1013.3603 h 10.435 c 14.348,-1.333 11.86095,-6.5781 20.991951,-6.5781 h 15.361736 c 3.612989,0 6.689313,1.4143 6.689313,5.1083 v 25.8035 c 0,3.693 -2.908,6.667 -6.521,6.667 H 8.522 c -3.613,0 -6.522,-2.973 -6.522,-6.667 v -18.667 c 0,-4 2.609,-5.6667 6.522,-5.6667 z"
           style="opacity:0.6;fill:url(#linearGradient1297);fill-opacity:1;stroke:none"
           id="path15"
           sodipodi:nodetypes="scsssssssss" />
        <path
           d="m 2,1035.03 v 2.667 c 0,3.693 2.909,6.667 6.522,6.667 h 46.957 c 3.613,0 6.522,-2.973 6.522,-6.667 v -2.667 c 0,3.693 -2.909,7.333 -6.522,7.333 H 8.522 c -3.613,0 -6.522,-3.64 -6.522,-7.333 z"
           style="opacity:0.15;fill:#000000;fill-opacity:1;stroke:none"
           id="path17" />
      </g>
      <rect
         y="1047.092"
         x="124.26514"
         height="0.46154189"
         width="30.358727"
         id="rect4209"
         style="fill:#550022;fill-opacity:1;fill-rule:nonzero;stroke:none;stroke-width:0.577595;stroke-linecap:round;stroke-linejoin:round;stroke-miterlimit:4;stroke-dasharray:none;stroke-dashoffset:0;stroke-opacity:1" />
      <path
         d="m 102.35307,1030.0208 c -0.69183,-1.5969 -1.71287,-3.034 -2.964353,-4.2796 -1.284617,-1.2456 -2.766797,-2.2038 -4.413719,-2.8743 -1.713105,-0.7028 -3.524561,-1.086 -5.402172,-1.086 -1.877625,0 -3.689081,0.3831 -5.401936,1.0858 -1.646936,0.6708 -3.129116,1.6608 -4.413719,2.8743 -1.284617,1.2455 -2.272834,2.6827 -2.96436,4.2796 -0.724888,1.661 -1.120097,3.4174 -1.120097,5.238 0,1.8205 0.395195,3.5769 1.119861,5.2377 0.691817,1.5969 1.712869,3.034 2.96436,4.2796 1.284603,1.2456 2.766783,2.2038 4.413719,2.8743 1.712868,0.7026 3.524547,1.0539 5.401936,1.0539 1.877611,0 3.689067,-0.3513 5.401936,-1.0539 1.646922,-0.6708 3.129101,-1.6608 4.413718,-2.8743 1.284596,-1.2456 2.272816,-2.6827 2.964356,-4.2796 0.72465,-1.6608 1.08697,-3.4174 1.08697,-5.2377 4.7e-4,-1.8206 -0.36188,-3.577 -1.08657,-5.2378 z"
         id="path67"
         style="fill:url(#linearGradient2017);fill-opacity:1;stroke-width:0.0579185" />
      <path
         style="color:#232629;fill:#cb004e;fill-opacity:1;stroke:none;stroke-width:0.74514"
         d="m 90.560571,1043.773 c -0.908054,-0.1467 -2.194476,-0.6603 -2.951185,-1.1372 -1.740441,-1.1006 -2.8796,-2.3248 -3.583677,-3.8528 -0.227023,-0.5136 -0.361736,-0.8805 -0.756709,-2.2012 -0.07567,-0.3301 -0.20406,-0.7001 -0.251417,-0.8154 -0.07983,-0.1945 -0.08344,-0.2601 -0.04873,-0.9088 0.03305,-0.587 0.151331,-1.4674 0.226996,-1.5379 0.01111,-0.017 0.03721,-0.021 0.05873,-0.01 0.07081,0.041 0.136892,-0.1483 0.20152,-0.5801 0.03526,-0.2365 0.09108,-0.4846 0.123702,-0.5512 0.03262,-0.066 0.08774,-0.2137 0.122731,-0.3269 0.08025,-0.2603 0.189774,-0.4605 0.528241,-0.9656 0.148845,-0.2221 0.303577,-0.4641 0.34384,-0.5376 0.04762,-0.087 0.09913,-0.129 0.146652,-0.1203 0.0461,0.01 0.121342,-0.048 0.200478,-0.1489 0.344118,-0.4404 1.964939,-1.7397 2.114909,-1.6954 0.04068,0.012 0.211974,-0.043 0.380076,-0.1213 0.304077,-0.1424 0.438026,-0.1754 0.438026,-0.1077 0,0.019 -0.04443,0.064 -0.0976,0.099 -0.09427,0.061 -0.09232,0.062 0.05387,0.029 0.08358,-0.019 0.224261,-0.046 0.312699,-0.06 0.109263,-0.017 0.153677,-0.043 0.138558,-0.079 -0.01389,-0.032 0.01805,-0.064 0.07789,-0.079 0.149429,-0.037 0.382256,-0.031 0.382256,0.011 0,0.049 -0.133143,0.099 -0.238728,0.09 -0.07178,-0.01 -0.07566,-5e-4 -0.02124,0.033 0.05345,0.034 0.05401,0.042 0.0028,0.043 -0.03374,4e-4 -0.05026,0.011 -0.03652,0.023 0.01389,0.014 0.104127,-0.015 0.201131,-0.061 0.09705,-0.046 0.2747,-0.1034 0.394848,-0.1273 0.147902,-0.03 0.218458,-0.064 0.218458,-0.1061 0,-0.054 0.06858,-0.059 0.531726,-0.035 0.292429,0.015 0.733732,0.058 0.980664,0.095 0.448911,0.068 0.448967,0.068 0.616277,-0.021 0.200645,-0.1074 0.523396,-0.1214 0.608225,-0.027 0.03124,0.035 0.116482,0.092 0.189774,0.1273 0.119676,0.058 0.12759,0.058 0.07705,5e-4 -0.09607,-0.1078 -6.5e-4,-0.105 0.37033,0.011 1.196054,0.3728 2.171082,1.0366 2.894609,1.9707 0.171573,0.2215 0.181958,0.3212 0.01916,0.1863 l -0.09302,-0.077 0.07081,0.1293 c 0.03859,0.071 0.07081,0.151 0.07081,0.1775 0,0.027 0.115094,0.2229 0.255582,0.4362 0.316823,0.4808 0.405455,0.6428 0.384199,0.7022 -0.0097,0.026 -0.14947,-0.1439 -0.311894,-0.3764 -0.162451,-0.2324 -0.402803,-0.5456 -0.534155,-0.6959 -0.196161,-0.2244 -0.247544,-0.2629 -0.287556,-0.2149 -0.02735,0.032 -0.09219,0.064 -0.145444,0.071 l -0.09677,0.014 0.09566,0.1746 c 0.05234,0.096 0.102738,0.155 0.111207,0.1312 0.0461,-0.1275 0.258373,0.04 0.355072,0.2799 0.03151,0.078 0.114817,0.2378 0.185318,0.3558 0.07025,0.1179 0.119398,0.2227 0.108569,0.2328 -0.01111,0.011 -0.07525,-0.022 -0.142931,-0.072 l -0.123147,-0.09 0.08399,0.1342 c 0.04651,0.074 0.123564,0.1641 0.171948,0.2006 0.06081,0.046 0.08913,0.1177 0.09191,0.2297 0.0042,0.2068 0.13231,0.4511 0.201506,0.3867 0.107875,-0.1003 0.130089,-0.037 0.102877,0.291 -0.01971,0.2422 -0.0097,0.4018 0.03762,0.5712 0.07178,0.2573 0.05595,0.3207 -0.04887,0.2005 -0.06692,-0.076 -0.06761,-0.076 -0.03734,0 0.06456,0.1701 0.112318,0.4245 0.09899,0.5244 -0.02499,0.1864 -0.100101,0.1089 -0.126063,-0.1299 l -0.02499,-0.233 -0.0069,0.248 c -0.0028,0.1364 -0.03804,0.3999 -0.0765,0.5856 -0.03804,0.1876 -0.05776,0.4149 -0.04442,0.5114 0.02694,0.1816 0.0069,0.1886 -0.155343,0.059 -0.06636,-0.053 -0.07789,-0.043 -0.123425,0.1153 -0.0379,0.1326 -0.03762,0.208 0.0014,0.3191 0.02874,0.08 0.04526,0.1884 0.03637,0.241 -0.01874,0.1214 -0.123563,0.1593 -0.123563,0.045 0,-0.144 -0.05914,-0.093 -0.238728,0.2078 -0.485716,0.8116 -1.254267,1.4398 -2.124127,1.736 -0.512803,0.1747 -0.856782,0.2395 -1.435059,0.2703 l -0.520883,0.028 0.257359,0.074 c 0.207503,0.06 0.329359,0.068 0.629369,0.046 0.393029,-0.03 0.854477,-0.109 1.063744,-0.183 0.08344,-0.03 0.139904,-0.031 0.16874,0 0.06789,0.063 -0.536418,0.3123 -0.895253,0.3687 -0.610556,0.096 -1.427839,-0.01 -2.149312,-0.2728 -0.489478,-0.1798 -1.215879,-0.6482 -1.104561,-0.7122 0.02069,-0.012 0.159272,0.049 0.30709,0.1361 0.188955,0.1112 0.268744,0.1404 0.268744,0.098 0,-0.079 0.02832,-0.075 0.17807,0.024 0.135504,0.09 0.552496,0.2566 0.852811,0.3411 0.327347,0.092 0.200409,-0.019 -0.238727,-0.21 -1.388522,-0.6024 -1.964994,-1.2049 -2.252287,-2.3541 -0.105376,-0.4214 0.0069,-1.3452 0.199673,-1.6345 0.04887,-0.073 0.08858,-0.1635 0.08858,-0.2004 0,-0.1601 0.286835,-0.5829 0.581138,-0.8568 0.518634,-0.4826 1.057843,-0.6829 1.757838,-0.6531 0.338356,0.015 0.48287,0.043 0.764483,0.1464 0.319405,0.1183 0.721584,0.3662 0.598409,0.3687 -0.0293,5e-4 -0.155912,-0.038 -0.282127,-0.088 -0.191857,-0.074 -0.314879,-0.089 -0.750337,-0.091 -0.611501,0 -0.910372,0.078 -1.345566,0.3635 -0.616971,0.4039 -0.960047,0.8692 -1.08157,1.4667 -0.0815,0.4009 -0.084,0.512 -0.02013,0.9098 0.03637,0.2291 0.06303,0.2964 0.10857,0.28 0.03804,-0.014 0.06081,0.01 0.06081,0.055 0,0.142 0.332122,0.7182 0.562492,0.9758 0.554411,0.6199 1.451219,1.0155 2.302183,1.0155 0.44165,0 0.798679,-0.079 1.127317,-0.249 0.132032,-0.068 0.298538,-0.1519 0.370149,-0.1857 0.252695,-0.1192 0.409468,-0.2553 0.592744,-0.5148 0.101906,-0.1441 0.212682,-0.2621 0.246169,-0.2621 0.04956,0 0.04762,0.02 -0.0125,0.111 -0.193717,0.2975 0.260928,-0.2434 0.496393,-0.5906 l 0.263773,-0.3888 -0.02916,-0.2554 c -0.02804,-0.2455 -0.02304,-0.2605 0.1026,-0.3837 0.121481,-0.1188 0.132449,-0.1539 0.146457,-0.4712 0.0125,-0.284 0.0028,-0.343 -0.04998,-0.3433 -0.05012,-3e-4 -0.07136,-0.075 -0.09316,-0.3235 -0.02888,-0.3288 -0.31624,-1.4351 -0.383186,-1.4736 -0.01985,-0.012 -0.07636,-0.118 -0.124674,-0.2364 -0.163118,-0.3995 -0.4493,-0.7837 -0.895475,-1.2022 -0.642031,-0.6023 -1.450748,-1.0673 -2.214676,-1.2735 -0.649792,-0.1754 -1.753215,-0.1117 -2.539162,0.1465 -0.383603,0.126 -0.761527,0.2929 -0.825322,0.3644 -0.02929,0.032 -0.07067,0.049 -0.0933,0.035 -0.02291,-0.014 -0.01694,-0.05 0.01555,-0.086 0.144791,-0.1623 -0.335677,0.1348 -0.644988,0.3989 -0.186998,0.1596 -0.346811,0.2951 -0.355141,0.301 -0.0083,0 0.02846,3e-4 0.0808,-0.013 0.08788,-0.021 0.09163,-0.016 0.04443,0.067 -0.03082,0.053 -0.189677,0.1487 -0.384713,0.231 -0.327735,0.1383 -0.539682,0.2903 -0.708089,0.5079 -0.0672,0.087 -0.07081,0.1055 -0.01777,0.087 0.03693,-0.014 0.06775,0 0.06775,0.018 0,0.1153 -0.112596,0.2441 -0.279462,0.3195 -0.369636,0.1671 -1.018969,1.0597 -1.366766,1.8788 -0.155024,0.3651 -0.152567,0.3524 -0.06817,0.3524 0.08885,0 0.08261,0.094 -0.03887,0.5982 -0.177724,0.7345 -0.177946,0.711 0.01569,1.7444 0.23584,1.259 0.37362,1.6797 0.635575,1.9403 0.06192,0.061 0.121203,0.1912 0.147832,0.3218 0.03193,0.156 0.08525,0.259 0.185082,0.357 0.09108,0.089 0.121481,0.1441 0.08649,0.1559 -0.06845,0.023 0.146263,0.3215 0.342299,0.475 0.09871,0.077 0.171739,0.1033 0.250945,0.089 0.173558,-0.031 0.350254,0.062 0.621747,0.3273 0.282183,0.2755 0.31045,0.3496 0.123702,0.3241 -0.12037,-0.016 -0.123147,-0.014 -0.06414,0.071 0.03401,0.049 0.159842,0.1648 0.279449,0.2586 0.168004,0.1318 0.211279,0.1889 0.190176,0.2507 -0.03055,0.089 0.05567,0.1719 0.251848,0.2415 0.121342,0.043 0.160438,0.1363 0.06886,0.1646 -0.02804,0.01 0.143265,0.1723 0.379771,0.3638 0.266495,0.2157 0.445745,0.334 0.471305,0.3109 0.06747,-0.061 0.153982,-0.043 0.155509,0.034 0.0014,0.083 0.0783,0.1695 0.353906,0.4013 0.174155,0.1465 0.217625,0.1649 0.324375,0.1376 0.09774,-0.026 0.159244,-0.01 0.296914,0.078 0.274658,0.1727 0.441205,0.2417 0.583789,0.2417 0.140321,0 0.1603,0.037 0.08747,0.1642 -0.03818,0.067 -0.03054,0.078 0.05845,0.078 0.05623,0 0.216792,0.036 0.355558,0.081 0.315531,0.1011 0.447161,0.108 0.36808,0.019 -0.116899,-0.131 0.0069,-0.095 0.424434,0.1227 0.583234,0.3043 0.878301,0.3391 2.039674,0.2403 0.171934,-0.014 0.227857,0 0.227857,0.034 0,0.035 -0.149179,0.088 -0.423212,0.1494 -0.360153,0.081 -0.552427,0.097 -1.291281,0.1054 -0.582193,0 -0.979901,-0.01 -1.207564,-0.045 z m -0.593716,-6.0547 c 0,-0.01 -0.05345,-0.046 -0.119399,-0.083 l -0.119398,-0.067 0.10246,0.083 c 0.09996,0.081 0.136198,0.099 0.136198,0.067 z m 5.976131,-4.2328 c -0.01402,-0.032 -0.0236,-0.022 -0.02665,0.025 -0.0028,0.043 0.0083,0.066 0.02221,0.053 0.01458,-0.014 0.01597,-0.048 0.0028,-0.077 z m -9.849975,-4.236 c 0.05373,-0.064 0.0522,-0.065 -0.01638,-0.015 -0.04193,0.031 -0.07594,0.062 -0.07594,0.07 0,0.033 0.03541,0.012 0.09233,-0.055 z m 0.493616,-0.3736 c 0.04373,-0.045 0.06858,-0.081 0.05623,-0.081 -0.0125,0 -0.05651,0.036 -0.100239,0.081 -0.04373,0.045 -0.06858,0.081 -0.05623,0.081 0.0125,0 0.05651,-0.036 0.100239,-0.081 z m 0.546359,-0.2839 c 0.143084,-0.045 0.224386,-0.053 0.254569,-0.025 0.03041,0.028 0.142112,0.012 0.350504,-0.052 0.168394,-0.051 0.298427,-0.1006 0.288986,-0.1095 -0.0097,-0.01 -0.148123,0.025 -0.308117,0.074 -0.219749,0.068 -0.298858,0.078 -0.323348,0.042 -0.04137,-0.063 -0.436374,0.061 -0.606142,0.1887 l -0.116067,0.088 0.124675,-0.069 c 0.06845,-0.038 0.219276,-0.099 0.334885,-0.1359 z m 1.251352,-0.1026 c 0.126063,-0.035 0.221651,-0.07 0.212488,-0.079 -0.02,-0.019 -0.469306,0.1008 -0.469306,0.125 0,0.024 0.0028,0.024 0.256818,-0.046 z m 0.719779,-0.2202 0.173628,-0.03 h -0.151928 c -0.08358,0 -0.200728,0.024 -0.260428,0.059 -0.06997,0.04 -0.07789,0.052 -0.02124,0.033 0.0479,-0.016 0.16495,-0.043 0.260442,-0.059 z m 0.344756,-0.076 c 0.01389,-0.02 -0.01485,-0.027 -0.06289,-0.015 -0.10135,0.025 -0.114123,0.052 -0.02388,0.052 0.03429,0 0.07331,-0.016 0.08691,-0.036 z m 1.401392,0.012 c -0.01458,-0.014 -0.05165,-0.015 -0.08316,0 -0.03457,0.013 -0.02402,0.022 0.02679,0.024 0.04609,0 0.07108,-0.01 0.05637,-0.021 z m -0.259539,-0.044 c -0.04193,-0.011 -0.110097,-0.011 -0.1519,0 -0.04193,0.011 -0.0069,0.018 0.07594,0.018 0.08358,0 0.117732,-0.01 0.07594,-0.018 z m -0.432889,-0.042 c -0.08886,-0.01 -0.245156,-0.01 -0.347228,-2e-4 -0.102044,0.01 -0.02971,0.016 0.161619,0.016 0.190968,10e-5 0.274505,0 0.185609,-0.015 z m -0.56631,-0.035 c -0.01458,-0.014 -0.05165,-0.015 -0.08316,0 -0.03457,0.014 -0.02402,0.022 0.02679,0.025 0.0461,10e-4 0.07108,-0.01 0.05637,-0.021 z m -0.293804,9.7078 c -0.442135,-0.2948 -0.605934,-0.4472 -0.605934,-0.564 0,-0.062 0.01514,-0.1125 0.03346,-0.1125 0.06289,0 0.80172,0.7179 0.785559,0.763 -0.0097,0.027 -0.09857,-0.011 -0.213084,-0.086 z m -0.227524,-0.7484 c -0.22962,-0.216 -0.303175,-0.3321 -0.210377,-0.3321 0.05526,0 0.483023,0.4552 0.483023,0.5146 0,0.028 -0.0056,0.051 -0.0125,0.051 -0.0069,0 -0.123841,-0.105 -0.260442,-0.2334 z m 2.540565,-0.8839 c -0.121203,-0.046 -0.04595,-0.1299 0.151914,-0.1693 0.113428,-0.022 0.293595,-0.078 0.400457,-0.1221 0.106903,-0.045 0.201978,-0.074 0.211405,-0.065 0.0097,0.01 -0.03845,0.099 -0.107459,0.1995 -0.123841,0.1824 -0.126063,0.1835 -0.363346,0.1804 -0.131339,0 -0.263121,-0.012 -0.292971,-0.023 z m 1.302138,-0.9034 c -0.117177,-0.044 -0.122036,-0.1185 -0.02388,-0.3724 0.084,-0.2181 0.17117,-0.2612 0.12273,-0.061 -0.01736,0.072 -0.04013,0.1767 -0.05165,0.2322 l -0.01971,0.101 0.08677,-0.092 c 0.05123,-0.054 0.09885,-0.1821 0.116344,-0.3126 0.01624,-0.1213 0.0472,-0.2107 0.06803,-0.1985 0.05345,0.031 0.04818,0.3502 -0.0111,0.5649 -0.05068,0.1876 -0.09635,0.2094 -0.28782,0.1378 z m -10.27148,-0.507 c -0.01472,-0.035 -0.02694,-0.1729 -0.02694,-0.3063 0,-0.1758 0.01499,-0.2378 0.05387,-0.2256 0.0647,0.02 0.102322,0.5958 0.0386,0.5958 -0.02193,0 -0.05234,-0.029 -0.06706,-0.064 z m 10.442025,-0.9447 c -0.06733,-0.085 -0.08816,-0.1519 -0.06886,-0.2228 0.03874,-0.1456 0.142029,-0.1249 0.217819,0.044 0.11801,0.2627 0.01569,0.3858 -0.148707,0.1789 z m -10.450924,-0.6412 c -0.0028,-0.229 -4.2e-5,-0.2361 0.108847,-0.2322 0.09246,0 0.114678,0.026 0.125368,0.1273 0.0125,0.1143 -0.121619,0.3412 -0.20095,0.3412 -0.01638,0 -0.03151,-0.1064 -0.03332,-0.2362 z m 11.251033,-4.9651 c 0.0056,-0.3614 0.07122,-0.4839 0.122453,-0.2309 0.0354,0.1764 -0.0097,0.4878 -0.07858,0.5409 -0.03707,0.029 -0.04873,-0.05 -0.04443,-0.31 z m -5.703334,-0.2167 c 0.01735,-0.049 0.616208,-0.2768 0.726665,-0.2768 0.129811,0 -0.103016,0.1479 -0.371482,0.2361 -0.299357,0.098 -0.379048,0.1074 -0.355183,0.041 z"
         class="ColorScheme-Text"
         id="path12-7-1" />
    </g>
  </g>
</svg>
