<?xml version="1.0" encoding="UTF-8" standalone="no"?>
<svg
   width="32"
   version="1.1"
   height="32"
   viewBox="0 0 32 32"
   id="svg15"
   sodipodi:docname="folder-presentation.svg"
   inkscape:version="1.1.2 (0a00cf5339, 2022-02-04)"
   xmlns:inkscape="http://www.inkscape.org/namespaces/inkscape"
   xmlns:sodipodi="http://sodipodi.sourceforge.net/DTD/sodipodi-0.dtd"
   xmlns:xlink="http://www.w3.org/1999/xlink"
   xmlns="http://www.w3.org/2000/svg"
   xmlns:svg="http://www.w3.org/2000/svg"
   xmlns:rdf="http://www.w3.org/1999/02/22-rdf-syntax-ns#"
   xmlns:cc="http://creativecommons.org/ns#"
   xmlns:dc="http://purl.org/dc/elements/1.1/">
  <sodipodi:namedview
     pagecolor="#ffffff"
     bordercolor="#666666"
     borderopacity="1"
     objecttolerance="10"
     gridtolerance="10"
     guidetolerance="10"
     inkscape:pageopacity="0"
     inkscape:pageshadow="2"
     inkscape:window-width="1920"
     inkscape:window-height="1015"
     id="namedview17"
     showgrid="true"
     inkscape:zoom="9.8125"
     inkscape:cx="1.4267516"
     inkscape:cy="18.089172"
     inkscape:window-x="0"
     inkscape:window-y="0"
     inkscape:window-maximized="1"
     inkscape:current-layer="g4"
     inkscape:pagecheckerboard="0">
    <inkscape:grid
       type="xygrid"
       id="grid862" />
  </sodipodi:namedview>
  <defs
     id="defs5455">
    <linearGradient
       inkscape:collect="always"
       xlink:href="#linearGradient1295"
       id="linearGradient1493"
       gradientUnits="userSpaceOnUse"
       x1="20.750315"
       y1="1025.9873"
       x2="-12.062732"
       y2="995.35931" />
    <linearGradient
       inkscape:collect="always"
       id="linearGradient1295">
      <stop
         style="stop-color:#1d212f;stop-opacity:1;"
         offset="0"
         id="stop1291" />
      <stop
         style="stop-color:#717da8;stop-opacity:1"
         offset="1"
         id="stop1293" />
    </linearGradient>
    <linearGradient
       inkscape:collect="always"
       xlink:href="#linearGradient952"
       id="linearGradient1297"
       x1="2.0000021"
       y1="1025.9873"
       x2="62.938519"
       y2="1025.9873"
       gradientUnits="userSpaceOnUse" />
    <linearGradient
       inkscape:collect="always"
       id="linearGradient952">
      <stop
         style="stop-color:#2e354b;stop-opacity:1"
         offset="0"
         id="stop948" />
      <stop
         style="stop-color:#717da8;stop-opacity:1"
         offset="1"
         id="stop950" />
    </linearGradient>
    <linearGradient
       inkscape:collect="always"
       xlink:href="#linearGradient876"
       id="linearGradient878"
       x1="5"
       y1="40"
       x2="24.99983"
       y2="40"
       gradientUnits="userSpaceOnUse"
       gradientTransform="matrix(1.3883548,0,0,1.3461638,68.730929,981.39674)" />
    <linearGradient
       inkscape:collect="always"
       id="linearGradient876">
      <stop
         style="stop-color:#404868;stop-opacity:1"
         offset="0"
         id="stop872" />
      <stop
         style="stop-color:#becad8;stop-opacity:1"
         offset="1"
         id="stop874" />
    </linearGradient>
  </defs>
  <metadata
     id="metadata5458">
    <rdf:RDF>
      <cc:Work
         rdf:about="">
        <dc:format>image/svg+xml</dc:format>
        <dc:type
           rdf:resource="http://purl.org/dc/dcmitype/StillImage" />
      </cc:Work>
    </rdf:RDF>
  </metadata>
  <g
     inkscape:label="Capa 1"
     inkscape:groupmode="layer"
     id="layer1"
     transform="translate(-384.57143,-515.798)">
    <g
       transform="matrix(0.36013848,0,0,0.37142583,359.81878,151.2823)"
       id="g4">
      <g
         transform="matrix(1.4808871,0,0,1.5383258,65.769151,-549.79024)"
         id="g19">
        <rect
           width="60"
           height="42"
           x="2"
           y="1002.36"
           rx="6.5219998"
           ry="6.5619998"
           style="opacity:0.85;fill:url(#linearGradient1493);fill-opacity:1;stroke:none"
           id="rect11" />
        <path
           d="m 8.522,1002.36 c -3.613,0 -6.522,3.3302 -6.522,6.1002 v 0.8998 c 0,-2.77 2.909,-5 6.522,-5 h 46.957 c 3.613,0 6.522,2.23 6.522,5 v -0.8998 c 0,-2.77 -2.909,-6.1002 -6.522,-6.1002 z"
           style="opacity:0.2;fill:#ffffff;fill-opacity:1;stroke:none"
           id="path13"
           sodipodi:nodetypes="sscsscsss" />
        <path
           d="m 8.522,1013.3603 h 10.435 c 14.348,-1.333 11.86095,-6.5781 20.991951,-6.5781 h 15.361736 c 3.612989,0 6.689313,1.4143 6.689313,5.1083 v 25.8035 c 0,3.693 -2.908,6.667 -6.521,6.667 H 8.522 c -3.613,0 -6.522,-2.973 -6.522,-6.667 v -18.667 c 0,-4 2.609,-5.6667 6.522,-5.6667 z"
           style="opacity:0.6;fill:url(#linearGradient1297);fill-opacity:1;stroke:none"
           id="path15"
           sodipodi:nodetypes="scsssssssss" />
        <path
           d="m 2,1035.03 v 2.667 c 0,3.693 2.909,6.667 6.522,6.667 h 46.957 c 3.613,0 6.522,-2.973 6.522,-6.667 v -2.667 c 0,3.693 -2.909,7.333 -6.522,7.333 H 8.522 c -3.613,0 -6.522,-3.64 -6.522,-7.333 z"
           style="opacity:0.15;fill:#000000;fill-opacity:1;stroke:none"
           id="path17" />
      </g>
      <rect
         y="1047.0898"
         x="124.26514"
         height="0.46154189"
         width="30.358727"
         id="rect4209"
         style="fill:#000000;fill-opacity:1;fill-rule:nonzero;stroke:none;stroke-width:0.577595;stroke-linecap:round;stroke-linejoin:round;stroke-miterlimit:4;stroke-dasharray:none;stroke-dashoffset:0;stroke-opacity:1" />
      <path
         d="m 102.35306,1030.0216 c -0.69183,-1.5969 -1.71286,-3.034 -2.964354,-4.2796 -1.284617,-1.2456 -2.766797,-2.2038 -4.413719,-2.8743 -1.713105,-0.7028 -3.524561,-1.086 -5.402172,-1.086 -1.877625,0 -3.689081,0.3832 -5.401936,1.0858 -1.646936,0.6708 -3.129116,1.6608 -4.413719,2.8743 -1.284617,1.2455 -2.272834,2.6827 -2.96436,4.2796 -0.724888,1.661 -1.120097,3.4174 -1.120097,5.238 0,1.8205 0.395195,3.5769 1.119861,5.2377 0.691817,1.5969 1.712869,3.0341 2.96436,4.2796 1.284603,1.2456 2.766783,2.2038 4.413719,2.8743 1.712868,0.7026 3.524547,1.0539 5.401936,1.0539 1.877611,0 3.689067,-0.3513 5.401936,-1.0539 1.646922,-0.6708 3.129101,-1.6608 4.413718,-2.8743 1.284607,-1.2455 2.272817,-2.6827 2.964357,-4.2796 0.72465,-1.6608 1.08697,-3.4174 1.08697,-5.2377 4.8e-4,-1.8206 -0.36187,-3.577 -1.08656,-5.2378 z"
         id="path67"
         style="fill:url(#linearGradient878);fill-opacity:1;stroke-width:0.0579185" />
      <path
         d="M 96.706446,1026.0894 H 82.128511 c -1.341109,0 -2.429579,1.0554 -2.429579,2.3558 0,1.1402 0.835776,2.092 1.943794,2.3087 v 7.5573 c 0,0.5183 0.437332,0.9423 0.971793,0.9423 h 5.831174 v 2.1752 c -0.578195,0.3269 -0.971807,0.928 -0.971807,1.6223 0,1.039 0.87215,1.8847 1.943794,1.8847 1.071643,0 1.94378,-0.8457 1.94378,-1.8847 0,-0.6944 -0.393876,-1.2956 -0.971793,-1.6223 l -3.61e-4,-2.1752 h 5.83116 c 0.534461,0 0.971793,-0.424 0.971793,-0.9423 l 1.8e-4,-7.5573 c 1.108018,-0.2167 1.943794,-1.1687 1.943794,-2.3087 -1.8e-4,-1.3004 -1.088651,-2.3558 -2.429774,-2.3558 z m -10.204534,9.4231 c 0,-0.5182 0.437332,-0.9422 0.971793,-0.9422 h 3.887366 c 0.534461,0 0.971821,0.424 0.971821,0.9422 0,0.5182 -0.43736,0.9423 -0.971821,0.9423 h -3.887366 c -0.534461,0 -0.971793,-0.4241 -0.971793,-0.9423 z m 5.83116,-1.8847 h -5.83116 c -0.534461,0 -0.97182,-0.424 -0.97182,-0.9423 0,-0.5182 0.437359,-0.9422 0.97182,-0.9422 h 5.83116 c 0.534461,0 0.971793,0.424 0.971793,0.9422 0,0.5183 -0.437332,0.9423 -0.971793,0.9423 z m 4.373374,-4.7113 H 82.128511 c -0.2722,0 -0.485979,-0.2073 -0.485979,-0.4712 0,-0.264 0.213779,-0.4713 0.485979,-0.4713 h 14.577935 c 0.272214,0 0.485993,0.2073 0.485993,0.4713 0,0.2639 -0.213779,0.4712 -0.485993,0.4712 z"
         id="path2"
         style="fill:#3a435f;fill-opacity:1;stroke-width:0.0410131" />
    </g>
  </g>
</svg>
