<?xml version="1.0" encoding="UTF-8" standalone="no"?>
<svg
   width="32"
   version="1.1"
   height="32"
   viewBox="0 0 32 32"
   id="svg15"
   sodipodi:docname="folder-chart.svg"
   inkscape:version="1.1.2 (0a00cf5339, 2022-02-04)"
   xmlns:inkscape="http://www.inkscape.org/namespaces/inkscape"
   xmlns:sodipodi="http://sodipodi.sourceforge.net/DTD/sodipodi-0.dtd"
   xmlns:xlink="http://www.w3.org/1999/xlink"
   xmlns="http://www.w3.org/2000/svg"
   xmlns:svg="http://www.w3.org/2000/svg"
   xmlns:rdf="http://www.w3.org/1999/02/22-rdf-syntax-ns#"
   xmlns:cc="http://creativecommons.org/ns#"
   xmlns:dc="http://purl.org/dc/elements/1.1/">
  <sodipodi:namedview
     pagecolor="#ffffff"
     bordercolor="#666666"
     borderopacity="1"
     objecttolerance="10"
     gridtolerance="10"
     guidetolerance="10"
     inkscape:pageopacity="0"
     inkscape:pageshadow="2"
     inkscape:window-width="1920"
     inkscape:window-height="1015"
     id="namedview17"
     showgrid="true"
     inkscape:zoom="9.8125"
     inkscape:cx="-18.751592"
     inkscape:cy="18.089172"
     inkscape:window-x="0"
     inkscape:window-y="0"
     inkscape:window-maximized="1"
     inkscape:current-layer="g4"
     inkscape:pagecheckerboard="0">
    <inkscape:grid
       type="xygrid"
       id="grid862" />
  </sodipodi:namedview>
  <defs
     id="defs5455">
    <linearGradient
       inkscape:collect="always"
       xlink:href="#linearGradient1295"
       id="linearGradient1493"
       gradientUnits="userSpaceOnUse"
       x1="20.750315"
       y1="1025.9873"
       x2="-12.062732"
       y2="995.35931" />
    <linearGradient
       inkscape:collect="always"
       id="linearGradient1295">
      <stop
         style="stop-color:#1d212f;stop-opacity:1;"
         offset="0"
         id="stop1291" />
      <stop
         style="stop-color:#717da8;stop-opacity:1"
         offset="1"
         id="stop1293" />
    </linearGradient>
    <linearGradient
       inkscape:collect="always"
       xlink:href="#linearGradient952"
       id="linearGradient1297"
       x1="2.0000021"
       y1="1025.9873"
       x2="62.938519"
       y2="1025.9873"
       gradientUnits="userSpaceOnUse" />
    <linearGradient
       inkscape:collect="always"
       id="linearGradient952">
      <stop
         style="stop-color:#2e354b;stop-opacity:1"
         offset="0"
         id="stop948" />
      <stop
         style="stop-color:#717da8;stop-opacity:1"
         offset="1"
         id="stop950" />
    </linearGradient>
    <linearGradient
       inkscape:collect="always"
       xlink:href="#linearGradient1343"
       id="linearGradient1271"
       x1="389.57144"
       y1="523.79797"
       x2="409.57141"
       y2="523.79797"
       gradientUnits="userSpaceOnUse"
       gradientTransform="matrix(1.3883548,0,0,1.3461638,-465.19068,330.12438)" />
    <linearGradient
       inkscape:collect="always"
       id="linearGradient1343">
      <stop
         style="stop-color:#404868;stop-opacity:1"
         offset="0"
         id="stop1339" />
      <stop
         style="stop-color:#becad8;stop-opacity:1"
         offset="1"
         id="stop1341" />
    </linearGradient>
  </defs>
  <metadata
     id="metadata5458">
    <rdf:RDF>
      <cc:Work
         rdf:about="">
        <dc:format>image/svg+xml</dc:format>
        <dc:type
           rdf:resource="http://purl.org/dc/dcmitype/StillImage" />
      </cc:Work>
    </rdf:RDF>
  </metadata>
  <g
     inkscape:label="Capa 1"
     inkscape:groupmode="layer"
     id="layer1"
     transform="translate(-384.57143,-515.798)">
    <g
       transform="matrix(0.36013848,0,0,0.37142583,359.81878,151.2823)"
       id="g4">
      <g
         transform="matrix(1.4808871,0,0,1.5383258,65.769148,-549.79125)"
         id="g19">
        <rect
           width="60"
           height="42"
           x="2"
           y="1002.36"
           rx="6.5219998"
           ry="6.5619998"
           style="opacity:0.85;fill:url(#linearGradient1493);fill-opacity:1;stroke:none"
           id="rect11" />
        <path
           d="m 8.522,1002.36 c -3.613,0 -6.522,3.3302 -6.522,6.1002 v 0.8998 c 0,-2.77 2.909,-5 6.522,-5 h 46.957 c 3.613,0 6.522,2.23 6.522,5 v -0.8998 c 0,-2.77 -2.909,-6.1002 -6.522,-6.1002 z"
           style="opacity:0.2;fill:#ffffff;fill-opacity:1;stroke:none"
           id="path13"
           sodipodi:nodetypes="sscsscsss" />
        <path
           d="m 8.522,1013.3603 h 10.435 c 14.348,-1.333 11.86095,-6.5781 20.991951,-6.5781 h 15.361736 c 3.612989,0 6.689313,1.4143 6.689313,5.1083 v 25.8035 c 0,3.693 -2.908,6.667 -6.521,6.667 H 8.522 c -3.613,0 -6.522,-2.973 -6.522,-6.667 v -18.667 c 0,-4 2.609,-5.6667 6.522,-5.6667 z"
           style="opacity:0.6;fill:url(#linearGradient1297);fill-opacity:1;stroke:none"
           id="path15"
           sodipodi:nodetypes="scsssssssss" />
        <path
           d="m 2,1035.03 v 2.667 c 0,3.693 2.909,6.667 6.522,6.667 h 46.957 c 3.613,0 6.522,-2.973 6.522,-6.667 v -2.667 c 0,3.693 -2.909,7.333 -6.522,7.333 H 8.522 c -3.613,0 -6.522,-3.64 -6.522,-7.333 z"
           style="opacity:0.15;fill:#000000;fill-opacity:1;stroke:none"
           id="path17" />
      </g>
      <rect
         y="1047.092"
         x="124.26514"
         height="0.46154189"
         width="30.358727"
         id="rect4209"
         style="fill:#000000;fill-opacity:1;fill-rule:nonzero;stroke:none;stroke-width:0.577595;stroke-linecap:round;stroke-linejoin:round;stroke-miterlimit:4;stroke-dasharray:none;stroke-dashoffset:0;stroke-opacity:1" />
      <path
         d="m 87.499458,1034.2453 c -0.28401,0 -0.5142,0.2232 -0.5142,0.4985 v 7.9772 c 0,0.2754 0.23019,0.4986 0.5142,0.4986 0.284,0 0.51421,-0.2232 0.51421,-0.4986 v -7.9772 c 0,-0.1322 -0.0543,-0.259 -0.15065,-0.3525 -0.0965,-0.094 -0.22718,-0.146 -0.36356,-0.146 z"
         id="path49"
         style="fill:#becad8;fill-opacity:1;stroke-width:0.050633" />
      <path
         d="m 83.385828,1037.7353 c -0.284,0 -0.51419,0.2232 -0.51419,0.4986 v 4.4871 c 0,0.2754 0.23019,0.4986 0.51419,0.4986 0.28403,0 0.51421,-0.2232 0.51421,-0.4986 v -4.4871 c 0,-0.1322 -0.0543,-0.2591 -0.15064,-0.3525 -0.0965,-0.093 -0.22717,-0.1461 -0.36357,-0.1461 z"
         id="path51"
         style="fill:#becad8;fill-opacity:1;stroke-width:0.050633" />
      <path
         d="m 91.613068,1030.7552 c -0.28401,0 -0.5142,0.2232 -0.5142,0.4986 v 11.4672 c 0,0.2754 0.23019,0.4986 0.5142,0.4986 0.28402,0 0.51419,-0.2232 0.51419,-0.4986 v -11.4672 c 0,-0.1322 -0.0543,-0.259 -0.15063,-0.3525 -0.0965,-0.093 -0.22718,-0.1461 -0.36356,-0.1461 z"
         id="path53"
         style="fill:#becad8;fill-opacity:1;stroke-width:0.050633" />
      <path
         d="m 89.556268,1021.7809 c -3.68216,0 -7.21374,1.4182 -9.81715,3.9428 -2.60376,2.5244 -4.0664,5.9485 -4.0664,9.5188 0,3.5703 1.46264,6.9945 4.0664,9.5188 2.60356,2.5247 6.13495,3.9428 9.81715,3.9428 3.68219,0 7.21374,-1.4181 9.81714,-3.9428 2.603752,-2.5244 4.066382,-5.9485 4.066382,-9.5188 0,-2.363 -0.64155,-4.6842 -1.85996,-6.7308 -1.2186,-2.0465 -2.971102,-3.7457 -5.081752,-4.9273 -2.11064,-1.1814 -4.50465,-1.8034 -6.94172,-1.8034 z m -4.62782,20.9401 c 0,0.5345 -0.29406,1.0281 -0.7713,1.2953 -0.47725,0.2672 -1.06538,0.2672 -1.5426,0 -0.47725,-0.2672 -0.77132,-0.7609 -0.77132,-1.2953 v -4.4871 c 0,-0.5345 0.29407,-1.0281 0.77132,-1.2953 0.47723,-0.2672 1.06536,-0.2672 1.5426,0 0.47722,0.2672 0.7713,0.7609 0.7713,1.2953 z m 4.11361,0 c 0,0.5345 -0.29407,1.0281 -0.7713,1.2953 -0.47725,0.2672 -1.06538,0.2672 -1.54261,0 -0.47722,-0.2672 -0.77129,-0.7609 -0.77129,-1.2953 v -7.9772 c 0,-0.5344 0.29405,-1.0281 0.77129,-1.2953 0.47724,-0.2671 1.06538,-0.2672 1.54261,0 0.47723,0.2672 0.7713,0.761 0.7713,1.2953 z m 4.11361,0 c 0,0.5345 -0.29406,1.0281 -0.7713,1.2953 -0.47724,0.2672 -1.06538,0.2672 -1.5426,0 -0.47723,-0.2672 -0.77131,-0.7609 -0.77131,-1.2953 v -11.4672 c 0,-0.5344 0.29407,-1.0281 0.77131,-1.2953 0.47724,-0.2672 1.06537,-0.2672 1.5426,0 0.47724,0.2672 0.7713,0.7609 0.7713,1.2953 z m 4.11362,0 c 0,0.5345 -0.29406,1.0281 -0.7713,1.2953 -0.47724,0.2672 -1.06539,0.2672 -1.54261,0 -0.47723,-0.2672 -0.77131,-0.7609 -0.77131,-1.2953 v -14.9572 c 0,-0.5345 0.29407,-1.0281 0.77131,-1.2953 0.47724,-0.2672 1.06537,-0.2672 1.54261,0 0.47723,0.2672 0.7713,0.7609 0.7713,1.2953 z"
         id="path55"
         style="fill:url(#linearGradient1271);fill-opacity:1;stroke-width:0.050633" />
      <path
         d="m 95.726688,1027.2652 c -0.28402,0 -0.51421,0.2232 -0.51421,0.4986 v 14.9572 c 0,0.2754 0.23019,0.4986 0.51421,0.4986 0.28401,0 0.5142,-0.2232 0.5142,-0.4986 v -14.9572 c 0,-0.1322 -0.0543,-0.259 -0.15065,-0.3525 -0.0964,-0.093 -0.22718,-0.1461 -0.36355,-0.1461 z"
         id="path57"
         style="fill:#becad8;fill-opacity:1;stroke-width:0.050633" />
    </g>
  </g>
</svg>
