<?xml version="1.0" encoding="UTF-8" standalone="no"?>
<svg
   width="32"
   version="1.1"
   height="32"
   viewBox="0 0 32 32"
   id="svg17"
   sodipodi:docname="folder-print.svg"
   inkscape:version="1.1.2 (0a00cf5339, 2022-02-04)"
   xmlns:inkscape="http://www.inkscape.org/namespaces/inkscape"
   xmlns:sodipodi="http://sodipodi.sourceforge.net/DTD/sodipodi-0.dtd"
   xmlns:xlink="http://www.w3.org/1999/xlink"
   xmlns="http://www.w3.org/2000/svg"
   xmlns:svg="http://www.w3.org/2000/svg"
   xmlns:rdf="http://www.w3.org/1999/02/22-rdf-syntax-ns#"
   xmlns:cc="http://creativecommons.org/ns#"
   xmlns:dc="http://purl.org/dc/elements/1.1/">
  <sodipodi:namedview
     pagecolor="#ffffff"
     bordercolor="#666666"
     borderopacity="1"
     objecttolerance="10"
     gridtolerance="10"
     guidetolerance="10"
     inkscape:pageopacity="0"
     inkscape:pageshadow="2"
     inkscape:window-width="1920"
     inkscape:window-height="1015"
     id="namedview19"
     showgrid="false"
     inkscape:zoom="9.8125"
     inkscape:cx="-10.292994"
     inkscape:cy="9.1210191"
     inkscape:window-x="0"
     inkscape:window-y="0"
     inkscape:window-maximized="1"
     inkscape:current-layer="layer1"
     inkscape:pagecheckerboard="0" />
  <defs
     id="defs5455">
    <linearGradient
       inkscape:collect="always"
       xlink:href="#linearGradient1295"
       id="linearGradient1493"
       gradientUnits="userSpaceOnUse"
       x1="20.750315"
       y1="1025.9873"
       x2="-12.062732"
       y2="995.35931" />
    <linearGradient
       inkscape:collect="always"
       id="linearGradient1295">
      <stop
         style="stop-color:#1d212f;stop-opacity:1;"
         offset="0"
         id="stop1291" />
      <stop
         style="stop-color:#717da8;stop-opacity:1"
         offset="1"
         id="stop1293" />
    </linearGradient>
    <linearGradient
       inkscape:collect="always"
       xlink:href="#linearGradient952"
       id="linearGradient1297"
       x1="2.0000021"
       y1="1025.9873"
       x2="62.938519"
       y2="1025.9873"
       gradientUnits="userSpaceOnUse" />
    <linearGradient
       inkscape:collect="always"
       id="linearGradient952">
      <stop
         style="stop-color:#2e354b;stop-opacity:1"
         offset="0"
         id="stop948" />
      <stop
         style="stop-color:#717da8;stop-opacity:1"
         offset="1"
         id="stop950" />
    </linearGradient>
    <linearGradient
       inkscape:collect="always"
       xlink:href="#linearGradient1203"
       id="linearGradient1067"
       x1="389.57144"
       y1="523.79797"
       x2="409.57144"
       y2="523.79797"
       gradientUnits="userSpaceOnUse"
       gradientTransform="matrix(0.5,0,0,0.5,192.28572,273.97043)" />
    <linearGradient
       inkscape:collect="always"
       id="linearGradient1203">
      <stop
         style="stop-color:#404868;stop-opacity:1"
         offset="0"
         id="stop1199" />
      <stop
         style="stop-color:#becad8;stop-opacity:1"
         offset="1"
         id="stop1201" />
    </linearGradient>
  </defs>
  <metadata
     id="metadata5458">
    <rdf:RDF>
      <cc:Work
         rdf:about="">
        <dc:format>image/svg+xml</dc:format>
        <dc:type
           rdf:resource="http://purl.org/dc/dcmitype/StillImage" />
      </cc:Work>
    </rdf:RDF>
  </metadata>
  <g
     inkscape:label="Capa 1"
     inkscape:groupmode="layer"
     id="layer1"
     transform="translate(-384.57143,-515.798)">
    <g
       transform="matrix(0.53332446,0,0,0.57137396,383.50478,-52.924394)"
       id="g19">
      <rect
         width="60"
         height="42"
         x="2"
         y="1002.36"
         rx="6.5219998"
         ry="6.5619998"
         style="opacity:0.85;fill:url(#linearGradient1493);fill-opacity:1;stroke:none"
         id="rect11" />
      <path
         d="m 8.522,1002.36 c -3.613,0 -6.522,3.3302 -6.522,6.1002 v 0.8998 c 0,-2.77 2.909,-5 6.522,-5 h 46.957 c 3.613,0 6.522,2.23 6.522,5 v -0.8998 c 0,-2.77 -2.909,-6.1002 -6.522,-6.1002 z"
         style="opacity:0.2;fill:#ffffff;fill-opacity:1;stroke:none"
         id="path13"
         sodipodi:nodetypes="sscsscsss" />
      <path
         d="m 8.522,1013.3603 h 10.435 c 14.348,-1.333 11.86095,-6.5781 20.991951,-6.5781 h 15.361736 c 3.612989,0 6.689313,1.4143 6.689313,5.1083 v 25.8035 c 0,3.693 -2.908,6.667 -6.521,6.667 H 8.522 c -3.613,0 -6.522,-2.973 -6.522,-6.667 v -18.667 c 0,-4 2.609,-5.6667 6.522,-5.6667 z"
         style="opacity:0.6;fill:url(#linearGradient1297);fill-opacity:1;stroke:none"
         id="path15"
         sodipodi:nodetypes="scsssssssss" />
      <path
         d="m 2,1035.03 v 2.667 c 0,3.693 2.909,6.667 6.522,6.667 h 46.957 c 3.613,0 6.522,-2.973 6.522,-6.667 v -2.667 c 0,3.693 -2.909,7.333 -6.522,7.333 H 8.522 c -3.613,0 -6.522,-3.64 -6.522,-7.333 z"
         style="opacity:0.15;fill:#000000;fill-opacity:1;stroke:none"
         id="path17" />
    </g>
    <rect
       y="540.19794"
       x="404.57147"
       height="0.17142858"
       width="10.933346"
       id="rect4209"
       style="fill:#000000;fill-opacity:1;fill-rule:nonzero;stroke:none;stroke-width:0.211249;stroke-linecap:round;stroke-linejoin:round;stroke-miterlimit:4;stroke-dasharray:none;stroke-dashoffset:0;stroke-opacity:1" />
    <path
       d="m 390.56762,537.418 v 0.64248 h 3.00781 v -1.37917 h -3.00781 z"
       id="path43"
       style="fill:#3a435f;fill-opacity:1;stroke-width:0.0190476" />
    <path
       d="m 390.56762,533.67819 h 3.00781 v 0.94017 h -3.00781 z"
       id="path45"
       style="fill:#3a435f;fill-opacity:1;stroke-width:0.0190476" />
    <path
       d="m 392.07143,530.86943 c -2.75695,0 -5,2.24304 -5,5 0,2.75695 2.24305,5 5,5 2.75695,0 5,-2.24305 5,-5 0,-2.75696 -2.24305,-5 -5,-5 z m 3.31391,5.60876 c 0,0.60996 -0.4965,1.10647 -1.10684,1.10647 h -0.36987 v 0.64248 c 0,0.0922 -0.0745,0.16667 -0.16666,0.16667 h -3.34095 c -0.0922,0 -0.16667,-0.0745 -0.16667,-0.16667 v -0.64248 h -0.36949 c -0.61049,0 -1.10714,-0.49649 -1.10714,-1.10647 v -0.75364 c 0,-0.60996 0.49649,-1.10632 1.10714,-1.10632 h 0.36949 v -1.10684 c 0,-0.0922 0.0745,-0.16667 0.16667,-0.16667 h 3.34114 c 0.0922,0 0.16666,0.0745 0.16666,0.16667 v 1.10684 h 0.36987 c 0.61034,0 1.10684,0.49636 1.10684,1.10632 v 0.75364 z"
       id="path47"
       style="fill:url(#linearGradient1067);fill-opacity:1;stroke-width:0.0190476" />
    <path
       d="m 394.27848,534.95152 h -4.41371 c -0.42663,0 -0.77381,0.34665 -0.77381,0.77299 v 0.75364 c 0,0.42634 0.34718,0.77314 0.77381,0.77314 h 0.36948 v -0.57002 l -0.36948,8e-5 c -0.0922,0 -0.16667,-0.0745 -0.16667,-0.16667 0,-0.0922 0.0745,-0.16666 0.16667,-0.16666 h 4.4139 c 0.0922,0 0.16667,0.0745 0.16667,0.16666 0,0.0922 -0.0745,0.16667 -0.16667,0.16667 h -0.36987 v 0.57002 h 0.36987 c 0.4265,0 0.77351,-0.3468 0.77351,-0.77314 v -0.75364 c -1.6e-4,-0.42634 -0.34719,-0.77307 -0.77366,-0.77307 z"
       id="path49"
       style="fill:#3a435f;fill-opacity:1;stroke-width:0.0190476" />
  </g>
</svg>
