<?xml version="1.0" encoding="UTF-8" standalone="no"?>
<svg
   width="32"
   version="1.1"
   height="32"
   viewBox="0 0 32 32"
   id="svg17"
   sodipodi:docname="folder_html.svg"
   inkscape:version="1.1.2 (0a00cf5339, 2022-02-04)"
   xmlns:inkscape="http://www.inkscape.org/namespaces/inkscape"
   xmlns:sodipodi="http://sodipodi.sourceforge.net/DTD/sodipodi-0.dtd"
   xmlns:xlink="http://www.w3.org/1999/xlink"
   xmlns="http://www.w3.org/2000/svg"
   xmlns:svg="http://www.w3.org/2000/svg"
   xmlns:rdf="http://www.w3.org/1999/02/22-rdf-syntax-ns#"
   xmlns:cc="http://creativecommons.org/ns#"
   xmlns:dc="http://purl.org/dc/elements/1.1/">
  <sodipodi:namedview
     pagecolor="#ffffff"
     bordercolor="#666666"
     borderopacity="1"
     objecttolerance="10"
     gridtolerance="10"
     guidetolerance="10"
     inkscape:pageopacity="0"
     inkscape:pageshadow="2"
     inkscape:window-width="1920"
     inkscape:window-height="1015"
     id="namedview19"
     showgrid="true"
     inkscape:zoom="9.8125"
     inkscape:cx="-18.343949"
     inkscape:cy="7.6942675"
     inkscape:window-x="0"
     inkscape:window-y="0"
     inkscape:window-maximized="1"
     inkscape:current-layer="layer1"
     inkscape:document-rotation="0"
     inkscape:pagecheckerboard="0">
    <inkscape:grid
       type="xygrid"
       id="grid838" />
  </sodipodi:namedview>
  <defs
     id="defs5455">
    <linearGradient
       inkscape:collect="always"
       xlink:href="#linearGradient1295"
       id="linearGradient1493"
       gradientUnits="userSpaceOnUse"
       x1="20.750315"
       y1="1025.9873"
       x2="-12.062732"
       y2="995.35931" />
    <linearGradient
       inkscape:collect="always"
       id="linearGradient1295">
      <stop
         style="stop-color:#1d212f;stop-opacity:1;"
         offset="0"
         id="stop1291" />
      <stop
         style="stop-color:#717da8;stop-opacity:1"
         offset="1"
         id="stop1293" />
    </linearGradient>
    <linearGradient
       inkscape:collect="always"
       xlink:href="#linearGradient952"
       id="linearGradient1297"
       x1="2.0000021"
       y1="1025.9873"
       x2="62.938519"
       y2="1025.9873"
       gradientUnits="userSpaceOnUse" />
    <linearGradient
       inkscape:collect="always"
       id="linearGradient952">
      <stop
         style="stop-color:#2e354b;stop-opacity:1"
         offset="0"
         id="stop948" />
      <stop
         style="stop-color:#717da8;stop-opacity:1"
         offset="1"
         id="stop950" />
    </linearGradient>
    <linearGradient
       inkscape:collect="always"
       xlink:href="#linearGradient843"
       id="linearGradient890"
       x1="406.05936"
       y1="519.07739"
       x2="425.9559"
       y2="519.07739"
       gradientUnits="userSpaceOnUse"
       gradientTransform="matrix(0.50259345,0,0,0.5,182.98868,276.25935)" />
    <linearGradient
       inkscape:collect="always"
       id="linearGradient843">
      <stop
         style="stop-color:#404868;stop-opacity:1"
         offset="0"
         id="stop839" />
      <stop
         style="stop-color:#becad8;stop-opacity:1"
         offset="1"
         id="stop841" />
    </linearGradient>
  </defs>
  <metadata
     id="metadata5458">
    <rdf:RDF>
      <cc:Work
         rdf:about="">
        <dc:format>image/svg+xml</dc:format>
        <dc:type
           rdf:resource="http://purl.org/dc/dcmitype/StillImage" />
      </cc:Work>
    </rdf:RDF>
  </metadata>
  <g
     inkscape:label="Capa 1"
     inkscape:groupmode="layer"
     id="layer1"
     transform="translate(-384.57143,-515.798)">
    <g
       transform="matrix(0.53332446,0,0,0.57137396,383.50478,-52.924394)"
       id="g19">
      <rect
         width="60"
         height="42"
         x="2"
         y="1002.36"
         rx="6.5219998"
         ry="6.5619998"
         style="opacity:0.85;fill:url(#linearGradient1493);fill-opacity:1;stroke:none"
         id="rect11" />
      <path
         d="m 8.522,1002.36 c -3.613,0 -6.522,3.3302 -6.522,6.1002 v 0.8998 c 0,-2.77 2.909,-5 6.522,-5 h 46.957 c 3.613,0 6.522,2.23 6.522,5 v -0.8998 c 0,-2.77 -2.909,-6.1002 -6.522,-6.1002 z"
         style="opacity:0.2;fill:#ffffff;fill-opacity:1;stroke:none"
         id="path13"
         sodipodi:nodetypes="sscsscsss" />
      <path
         d="m 8.522,1013.3603 h 10.435 c 14.348,-1.333 11.86095,-6.5781 20.991951,-6.5781 h 15.361736 c 3.612989,0 6.689313,1.4143 6.689313,5.1083 v 25.8035 c 0,3.693 -2.908,6.667 -6.521,6.667 H 8.522 c -3.613,0 -6.522,-2.973 -6.522,-6.667 v -18.667 c 0,-4 2.609,-5.6667 6.522,-5.6667 z"
         style="opacity:0.6;fill:url(#linearGradient1297);fill-opacity:1;stroke:none"
         id="path15"
         sodipodi:nodetypes="scsssssssss" />
      <path
         d="m 2,1035.03 v 2.667 c 0,3.693 2.909,6.667 6.522,6.667 h 46.957 c 3.613,0 6.522,-2.973 6.522,-6.667 v -2.667 c 0,3.693 -2.909,7.333 -6.522,7.333 H 8.522 c -3.613,0 -6.522,-3.64 -6.522,-7.333 z"
         style="opacity:0.15;fill:#000000;fill-opacity:1;stroke:none"
         id="path17" />
    </g>
    <rect
       y="540.1994"
       x="404.57147"
       height="0.17142858"
       width="10.933346"
       id="rect4209"
       style="fill:#000000;fill-opacity:1;fill-rule:nonzero;stroke:none;stroke-width:0.211249;stroke-linecap:round;stroke-linejoin:round;stroke-miterlimit:4;stroke-dasharray:none;stroke-dashoffset:0;stroke-opacity:1" />
    <path
       d="m 396.87221,534.63428 v 0 0 c 0,0 0,0 0,0 0,0 0,0 0,0 z m -3.59793,6.02189 c -2.44388,0.59656 -5.03485,-0.73163 -5.90604,-3.17416 -0.3168,-0.88921 -0.38469,-1.80093 -0.18103,-2.72392 0.0113,-0.0225 0.0226,-0.0563 0.0339,-0.0788 0,0.0225 0,0.0563 0.0113,0.0788 0,0.0113 0.0113,0.0337 0.0226,0.0451 0,-0.0225 0.0113,-0.0337 0.0113,-0.0563 0,-0.0675 0,-0.13507 0.0113,-0.21386 0.0679,0.0563 0.0226,0.13507 0.0453,0.19135 0.0339,0.09 0.0339,0.1801 0.0339,0.2814 -0.0113,0.14633 0.12446,0.24763 0.22628,0.25888 0.19235,0.0225 0.30549,0.16884 0.4752,0.22512 0.0792,0.0225 0.12446,0.10131 0.13578,0.13507 0.0226,0.14633 0.13576,0.19135 0.22628,0.24763 0.0226,0.0112 0.0453,0.0337 0.0679,0 0.0792,-0.15758 0.0905,-0.0451 0.12445,0.0225 0.0792,0.16884 0.0113,0.30391 -0.0792,0.43898 -0.0679,0.09 -0.14708,0.18009 -0.0679,0.30391 0.0113,0.0113 0,0.045 -0.0113,0.0563 -0.0566,0.0901 -0.0226,0.15758 0.0339,0.23637 0.0792,0.11256 0.14708,0.22512 0.20365,0.34893 0.0792,0.15759 0.14709,0.30391 0.32811,0.3827 0.11315,0.045 0.18103,0.14633 0.19235,0.2814 0.0339,0.3827 0.0905,0.7654 0.14708,1.13684 0.0339,0.22512 0.21497,0.3827 0.29417,0.58531 0.0339,0.09 0.0905,0.16884 0.15841,0.24763 0.12446,0.14632 0.30547,0.15758 0.46388,0.23637 0.0113,0 0.0339,0 0.0453,0 -0.0113,-0.0113 -0.0339,-0.0225 -0.0453,-0.0338 -0.10183,-0.09 -0.3168,-0.11255 -0.18103,-0.32641 0,-0.0113 -0.0113,-0.0337 -0.0113,-0.0337 -0.15839,-0.0337 -0.0792,-0.14633 -0.0679,-0.22512 0,-0.045 0.0453,-0.0788 -0.0226,-0.09 -0.0113,0 -0.0226,-0.0225 -0.0226,-0.0337 0.12446,0.0337 0.0792,-0.14633 0.18102,-0.14633 0.14709,0 0.20366,-0.0563 0.12446,-0.20261 -0.0226,-0.0337 -0.0566,-0.0788 0.034,-0.0563 0.0905,0.0225 0.13577,-0.0112 0.1584,-0.09 0.0226,-0.0788 0.0566,-0.15759 0.12446,-0.22512 0.0566,-0.0675 0.0905,-0.14633 0.0679,-0.24763 -0.0339,-0.16884 0.13576,-0.20261 0.23759,-0.21386 0.21497,-0.0225 0.22629,-0.16884 0.27154,-0.31517 0.0339,-0.11255 0.0339,-0.22511 0.0226,-0.34893 -0.0113,-0.12381 0.0905,-0.2026 0.1584,-0.29265 0.0905,-0.11256 0.14709,-0.25888 0.0566,-0.36019 -0.0905,-0.1013 -0.20366,-0.21386 -0.36206,-0.22511 -0.22628,-0.0113 -0.396,-0.15759 -0.58834,-0.23638 -0.0679,-0.0225 -0.0679,-0.13507 -0.0905,-0.2026 -0.0566,-0.15759 -0.15839,-0.22512 -0.31679,-0.24763 -0.19234,-0.0225 -0.27155,-0.16884 -0.35075,-0.30391 -0.0566,-0.1013 -0.13576,-0.0563 -0.18102,-0.0451 -0.11315,0.0337 -0.20366,0 -0.28286,-0.0451 -0.19234,-0.1013 -0.35074,-0.0675 -0.48652,0.13507 -0.0226,0.0338 -0.0566,0.0901 -0.11313,0.0338 -0.0339,-0.0338 -0.0792,-0.0338 -0.13577,-0.0113 -0.10183,0.045 -0.19235,-0.0337 -0.18103,-0.14633 0,-0.045 0.0113,-0.09 0.0226,-0.13507 0.0339,-0.19135 0.0226,-0.21386 -0.16972,-0.19135 -0.0792,0.0113 -0.0905,-0.0113 -0.0566,-0.0788 0.0339,-0.0675 0.0679,-0.13507 0.0792,-0.21386 0.0113,-0.0451 0.0792,-0.1013 0,-0.13507 -0.0566,-0.0225 -0.1584,0 -0.16972,0.0788 -0.0226,0.13507 -0.10182,0.16884 -0.21496,0.14633 -0.12446,-0.0337 -0.11314,-0.15759 -0.0905,-0.24763 0.0226,-0.1801 0.0339,-0.3827 0.22629,-0.49526 0.0452,-0.0337 0.0905,-0.045 0.14708,-0.0337 0.0566,0.0113 0.10183,0.0113 0.1584,-0.0451 0.0792,-0.0788 0.16972,-0.0225 0.26023,0 0.0679,0.0225 0.0339,0.0901 0.0453,0.13507 0.0113,0.0675 0.0113,0.16884 0.0792,0.15758 0.0792,0 0.0905,-0.1013 0.0679,-0.18009 -0.0453,-0.16884 0.0113,-0.31517 0.16971,-0.39396 0.16972,-0.09 0.24892,-0.23637 0.35075,-0.3827 0.0679,-0.11256 0.19234,-0.16883 0.30548,-0.24763 0.11314,-0.0675 0.20366,-0.19135 0.35075,-0.24762 0.0226,-0.0113 0.0453,-0.0113 0.0566,-0.0225 -0.0113,0.0225 -0.0113,0.0337 -0.0226,0.0563 -0.0113,0.0225 -0.0226,0.0337 0,0.045 0.0113,0 0.0339,0 0.0453,-0.0112 0.0339,-0.0451 0.0905,-0.0563 0.14708,-0.0675 0.0339,-0.0112 0.0905,-0.0337 0.10183,-0.0563 0,-0.0451 -0.0566,-0.0225 -0.0792,-0.0451 -0.0453,-0.0337 -0.0453,-0.0675 -0.0226,-0.1013 0.0226,-0.0563 0.10183,-0.11256 -0.0339,-0.11256 0,0 -0.0113,-0.0113 -0.0113,-0.0225 0.0113,0 0.0226,-0.0113 0.0339,-0.0113 0.1584,-0.0337 0.32811,0.0225 0.4752,-0.09 0.0113,0 0.0226,0.0112 0.0339,0.0112 -0.0113,0.0113 -0.0113,0.0225 -0.0226,0.0337 -0.0339,0.0788 -0.18103,0.11256 -0.13578,0.2026 0.0226,0.045 0.15841,-0.0337 0.24892,0.0337 0.0339,0.0225 0.0905,0 0.0679,-0.0337 -0.0339,-0.0563 0.0792,-0.14632 -0.0226,-0.14632 -0.10183,-0.0113 -0.0679,-0.0451 -0.0452,-0.0901 0.0679,-0.11255 0.0905,-0.2026 -0.0566,-0.25888 -0.0792,-0.0337 -0.0339,-0.11256 -0.0566,-0.16884 -0.0226,-0.0901 -0.0339,-0.15758 -0.14708,-0.0675 -0.0453,0.0337 -0.16971,0.14632 -0.13577,-0.0563 0.0113,-0.045 -0.0679,-0.0901 -0.10182,-0.0901 -0.0905,0 -0.20367,-0.0563 -0.24892,0.0563 -0.0453,0.09 -0.1584,0.14632 -0.1584,0.27014 0,0.0337 -0.0566,0.0675 -0.10183,0.0901 -0.0905,0.0337 -0.1584,0.0788 -0.16971,0.18009 -0.0113,0.0563 -0.0566,0.1013 -0.11315,0.0788 -0.0679,-0.0337 -0.0113,-0.09 0.0113,-0.12381 0.0453,-0.0563 0.0453,-0.10131 -0.0453,-0.09 -0.0905,0.0112 -0.14708,-0.0788 -0.24892,-0.0901 -0.0339,0 -0.0339,-0.09 0.0113,-0.12381 0.14708,-0.14633 0.33943,-0.19135 0.50914,-0.30391 0.0453,-0.0337 0.0566,0.1013 0.0905,0.0337 0.0339,-0.0675 0.24892,0.0451 0.14709,-0.14632 0.0566,-0.0225 0.10183,-0.0337 0.1584,-0.0563 0.0792,-0.0337 0.10183,-0.13507 0.20366,-0.15759 0.0905,-0.0113 0.19234,-0.0225 0.20365,0.0563 0.0113,0.0788 -0.10183,0.10131 -0.16971,0.13507 -0.0339,0.0113 -0.0679,0 -0.10183,0.0113 -0.0226,0.0112 -0.0566,0.0337 -0.0566,0.045 0,0.0337 0.0453,0.0225 0.0679,0.0225 0.0679,-0.0113 0.12445,-0.0113 0.16971,0.0563 0.0339,0.045 0.1584,0.0675 0.1584,0.045 0.0113,-0.1013 0.27154,-0.0225 0.13577,-0.2026 0,-0.0113 0,-0.0337 0,-0.0337 0.0226,-0.0225 0.0453,-0.0113 0.0679,0.0112 0.0792,0.09 0.14708,0.0113 0.18102,-0.0337 0.0453,-0.0675 -0.0792,-0.0675 -0.0792,-0.09 0,-0.14632 -0.13577,-0.12381 -0.20366,-0.16884 -0.0679,-0.045 -0.12446,-0.045 -0.19235,-0.0337 0.0226,0.0113 0.0226,0.045 0,0.0337 -0.0905,-0.0563 -0.15839,-0.0112 -0.23759,0 -0.0792,0.0225 -0.14709,0.0225 -0.21497,-0.0225 -0.0453,-0.0337 -0.0905,-0.0225 -0.13578,0 -0.0113,0 -0.0226,0.0113 -0.0226,0.0225 0,0 0.0113,0.0113 0.0226,0.0113 0.0339,0 0.0679,-0.0563 0.10184,-0.0113 -0.0453,0.0337 -0.0905,0.0563 -0.14709,0.0675 v 0 c 0,0 0,0 0,0 -0.13578,-0.0225 -0.18103,0.0225 -0.16972,0.13507 0,0.0225 -0.0113,0.045 -0.0226,0.0675 -0.0566,-0.045 -0.16972,0.0337 -0.16972,-0.0113 0,-0.0675 -0.0339,-0.16883 0.0566,-0.22511 1.08616,-0.64159 2.24022,-0.87796 3.48478,-0.6641 0.82594,0.14633 1.56137,0.47275 2.22892,0.97926 0.0339,0.0225 0.0566,0.0563 0.0792,0.0788 -0.0453,0.0225 -0.0679,-0.0225 -0.10183,-0.0337 -0.10182,-0.045 -0.19234,-0.12381 -0.30548,-0.14632 -0.14709,-0.0225 -0.29417,-0.045 -0.40732,0.0788 -0.0792,0.0788 -0.16971,0.13507 -0.28285,0.15758 -0.0905,0.0225 -0.11315,0.0675 -0.0679,0.15758 0.0339,0.0901 0.0792,0.14633 0.16971,0.10131 0.0792,-0.0451 0.11314,-0.0113 0.1584,0.045 0.0566,0.0675 0.0339,0.09 -0.0113,0.13507 -0.0113,0.0113 0.0113,0.0563 -0.0339,0.0451 -0.0566,0.0113 -0.0453,-0.0113 -0.0453,-0.0451 0,-0.0337 0.0453,-0.0901 -0.0226,-0.0901 -0.0566,0 -0.10184,0.0563 -0.0792,0.11256 0.0453,0.09 -0.0113,0.11256 -0.0792,0.11256 -0.11315,0.0113 -0.15841,0.14633 -0.26023,0.15758 -0.0566,0.12382 -0.19234,0.0563 -0.28286,0.11256 -0.0226,0.0112 -0.0679,0 -0.0792,0.0337 0,0.0112 0.0339,0.0337 0.0566,0.0451 0.0452,0.0225 0.0792,0.0563 0.11315,0.09 0.0452,0.0563 0.0339,0.11256 0.0113,0.16884 -0.0226,0.0675 -0.0792,0.0337 -0.12446,0.0337 -0.0113,0 -0.0226,0 -0.0226,0 -0.29417,-0.0337 -0.38469,0.0563 -0.33943,0.34893 0.0113,0.0563 0.0113,0.13507 0.11314,0.12381 0.0792,0 0.11314,0.0563 0.0566,0.12382 -0.11314,0.13507 -0.23759,0.27014 -0.29417,0.45023 -0.0339,0.0788 -0.15839,0.0788 -0.21496,0.1801 -0.0792,0.18009 -0.28286,0.3039 -0.20367,0.55153 0.0339,0.10131 0,0.20261 -0.0339,0.31517 -0.0339,0.1013 -0.0339,0.22512 0.0679,0.31516 0.16972,0.13507 0.22629,0.36019 0.41863,0.47275 0.0792,0.045 0.13577,0.0563 0.22628,0.045 0.21498,-0.0225 0.41863,-0.0901 0.62229,-0.1013 0.12445,-0.0113 0.26022,0.12381 0.396,0.18009 0.0792,0.0337 0,0.18009 -0.0113,0.27014 -0.0113,0.0788 -0.0113,0.13507 0.0453,0.19135 0.16971,0.18009 0.19234,0.40521 0.2376,0.63033 0.0226,0.1013 -0.0905,0.16884 -0.11314,0.27014 -0.0339,0.13507 -0.0566,0.25889 0.0226,0.3827 0.0792,0.12381 0.11313,0.25888 0.0905,0.40521 -0.0113,0.14633 0.11314,0.22512 0.13577,0.34893 0.0453,0.24763 0.0566,0.23638 0.3168,0.19135 0.29417,-0.0563 0.42994,-0.29265 0.55439,-0.52902 0.0339,-0.0563 0.0339,-0.11256 0.10183,-0.13507 0.0679,-0.0337 0.10183,-0.12382 0.0792,-0.19135 -0.0339,-0.14633 0.0453,-0.24763 0.14708,-0.31517 0.21498,-0.13507 0.2376,-0.33767 0.18103,-0.52902 -0.10182,-0.37145 0.0792,-0.63033 0.29418,-0.87796 0.16971,-0.19135 0.22628,-0.40521 0.26022,-0.63033 0.0113,-0.0563 0,-0.1013 -0.0792,-0.0563 -0.034,0.0225 -0.0679,0.0337 -0.11314,0.045 -0.0566,0.0113 -0.12445,0.0337 -0.1584,-0.045 -0.0453,-0.1013 0.0566,-0.0788 0.0905,-0.0901 0.20365,-0.11256 0.41862,-0.22511 0.45256,-0.49525 0.0113,-0.0788 0,-0.15759 -0.0566,-0.22512 -0.0339,-0.0451 -0.0566,-0.1013 -0.0339,-0.15758 0.24892,0.27014 0.21497,0.63032 0.22629,0.94549 0.12446,2.3975 -1.49348,4.47983 -3.79027,5.04263 z m -4.35599,-5.70673 c -0.12445,-0.0788 -0.22628,-0.2026 -0.396,-0.2026 -0.0453,0.0112 -0.10183,0.0225 -0.14708,0.0675 -0.0113,0.0113 -0.0226,0.0563 0.0113,0.045 0.18103,-0.0675 0.28285,0.0112 0.396,0.13507 0.0226,0.0225 0.0905,0.0451 0.14708,0.0113 0,-0.0225 -0.0113,-0.0563 -0.0113,-0.0563 z m 0.33943,0.12382 c -0.0453,-0.0675 -0.11315,-0.0788 -0.19234,-0.0901 -0.10183,-0.0225 -0.0566,0.12382 -0.13578,0.11256 0.0339,0.0112 0.0679,0.0337 0.11315,0.0451 0.0679,-0.0337 0.14708,-0.0451 0.21497,-0.0675 z m 3.91473,-3.25295 c 0,-0.045 -0.0453,-0.0563 -0.0792,-0.0563 -0.0905,0 -0.18103,0 -0.27154,0 -0.0339,0 -0.0792,-0.0337 -0.10183,0.0113 0.0453,0.0225 0.0113,0.10131 0.0792,0.12382 0.0339,0.0113 0.0792,0.0113 0.12446,0.0225 0.0566,-0.0113 0.12445,-0.0337 0.18102,-0.0451 0.0339,-0.0225 0.0679,-0.0225 0.0679,-0.0563 z m 0.36206,0.60782 c 0.0679,0.0337 0.18102,0.0451 0.0566,0.15758 -0.0339,0.0337 0,0.11256 -0.0453,0.15758 0.0566,0.0337 0.10182,-0.0113 0.14708,-0.0113 0.0679,0 0.14708,-0.0112 0.21497,-0.0225 0,-0.1013 -0.0566,-0.18009 -0.13577,-0.25888 -0.0226,-0.0225 -0.0566,-0.0563 -0.0566,-0.0901 0.0113,-0.11256 -0.0566,-0.16884 -0.14709,-0.14633 -0.0905,0.0338 -0.0792,0.12382 -0.0339,0.21386 z m -0.10183,-0.0225 c -0.0566,0.0113 -0.14709,0.0338 -0.14709,0.1013 0,0.045 -0.0679,0.11256 0,0.13507 0.0453,0.0113 0.13577,-0.0113 0.16972,-0.0451 0.0453,-0.045 0.0566,-0.11256 0.0792,-0.16884 -0.0339,-0.0113 -0.0679,-0.0225 -0.10183,-0.0225 z m -0.73543,-0.78791 c 0.0453,0 0.0905,-0.0337 0.13578,-0.0563 0.0226,-0.0113 0.0453,-0.0225 0.0339,-0.045 -0.12446,-0.13507 0.0453,-0.0563 0.0679,-0.09 0.0226,-0.0225 0.0905,-0.0338 0.10182,-0.0563 0.0339,-0.14632 0.14709,-0.16883 0.28286,-0.16883 -0.0113,0 0.0113,-0.0113 0.0226,-0.0113 -0.0113,-0.0112 -0.0226,-0.0225 -0.0453,-0.0225 -0.12445,-0.0225 -0.24891,-0.045 -0.37337,-0.0675 -0.53177,-0.0675 -1.06354,0.0451 -1.60662,0.0113 -0.30549,-0.0225 -0.58834,0.11256 -0.89383,0.14633 -0.0453,0 -0.0905,0.0337 -0.13577,0.0451 -0.0113,0 -0.0453,0.0337 -0.0113,0.0337 0.10183,0.0225 0,0.045 0,0.045 -0.0339,0.0451 -0.0905,0.0225 -0.13577,0.0337 -0.0226,0.0113 -0.0566,0.0337 -0.0566,0.0451 0.0113,0.0337 0.0453,0.0113 0.0679,0.0113 0.0792,0 0.1584,0 0.23761,-0.0113 v 0 c 0.16971,-0.12382 0.36205,-0.16884 0.55439,-0.23638 0.0226,-0.0113 0.0452,0 0.0679,-0.0113 0,0.20261 0.14708,0.0675 0.21497,0.0901 0.0905,0.0225 0.22628,-0.0337 0.19234,0.14632 0,0.0112 0.0113,0.0225 0.0226,0.0337 0.0679,0.0563 0.0452,0.11256 -0.0226,0.13507 -0.13577,0.0337 -0.11313,0.14633 -0.12446,0.24763 0,0.15758 0.13578,0.16884 0.23761,0.21386 0.0905,0.0337 0.12445,-0.0451 0.16971,-0.09 0.0905,-0.0788 0.14708,-0.19135 0.27154,-0.20261 0.24892,-0.0337 0.4752,-0.15758 0.72411,-0.16884 z m 3.93736,5.75175 c -0.0113,-0.0337 -0.0226,-0.0563 -0.0226,-0.09 -0.0226,0.0225 -0.0453,0.045 -0.0566,0.0675 -0.0226,0.0337 -0.0339,0.10131 -0.0792,0.12382 -0.21497,0.14632 -0.15839,0.3827 -0.2376,0.5853 -0.0113,0.0337 -0.0113,0.0788 0.0339,0.0901 0.0339,0.0113 0.0679,-0.0113 0.0905,-0.0451 0.11314,-0.23637 0.21497,-0.47275 0.27154,-0.73163 z m -0.80331,-3.23044 c -0.0339,0.0788 -0.11314,0 -0.1584,0.0113 -0.19234,0.0451 -0.33943,-0.0451 -0.49783,-0.12381 -0.0566,-0.0225 -0.12445,-0.0113 -0.13576,0.0337 -0.0792,0.25888 -0.18103,-0.0225 -0.26024,0.0112 -0.0113,0 -0.0339,-0.0563 -0.0453,-0.0563 -0.18103,-0.0225 -0.30548,-0.0788 -0.24891,-0.30391 0.0113,-0.0337 -0.0566,-0.0563 -0.0905,-0.045 -0.22629,0.0338 -0.47521,-0.045 -0.67886,0.11256 -0.0226,0.0225 -0.0679,0 -0.10183,0 -0.0339,0 -0.10183,0.0113 -0.10183,-0.0337 0,-0.0563 0.0566,-0.045 0.10183,-0.0563 0.11314,-0.0112 0.16971,-0.0788 0.21497,-0.1801 0.0566,-0.14632 0.20365,-0.21386 0.30549,-0.28139 0.22628,-0.16884 0.30548,0.0337 0.42993,0.12381 0.0453,0.0337 0.0905,0.0675 0.14709,0.09 0.0339,0.0225 0.0679,0.0563 0.0566,0.0901 -0.0113,0.0563 -0.0566,0.045 -0.10182,0.045 -0.0226,0.0113 -0.0679,-0.0225 -0.0792,0.0225 0,0.0113 0.0226,0.0337 0.0453,0.0451 0.034,0.0113 0.0792,0.0675 0.10183,0.0225 0.0226,-0.0563 0.0679,-0.09 0.10182,-0.14633 0.11315,-0.16884 -0.0792,-0.14633 -0.12445,-0.21386 -0.0113,-0.0225 -0.0566,-0.0225 -0.0566,-0.0451 -0.0226,-0.0563 -0.13577,-0.1013 -0.0792,-0.15758 0.0566,-0.0563 0.10182,0.0563 0.1584,0.0788 0.21497,0.0788 0.2376,0.30391 0.35074,0.45023 0.0226,0.0337 0.0339,0.10131 0.0905,0.0788 0.0453,-0.0225 0.0679,-0.0788 0.0453,-0.13507 -0.0113,-0.0563 -0.0566,-0.11256 0.0226,-0.13507 0.0905,-0.0225 0.10183,0.0563 0.11315,0.11256 0.0226,0.14633 0.11313,0.20261 0.26022,0.20261 0.0792,0 0.14709,0.0675 0.2376,0.0337 0.0113,0 0.0339,0.0113 0.0339,0.0337 0.0113,0.13507 -0.0226,0.22511 -0.0566,0.31516 z m -1.43691,-0.66409 c -0.0226,-0.0563 0.0113,-0.12382 -0.0453,-0.1801 -0.0113,0.0563 -0.0339,0.11256 -0.0453,0.16884 0.0339,0.0225 -0.0113,0.09 0.0566,0.09 0.0339,-0.0112 0.0453,-0.0563 0.0339,-0.0788 z m 1.33508,-0.21387 c -0.0453,0.0112 -0.0792,0.0112 -0.11314,-0.0337 -0.0339,-0.0451 -0.0679,-0.12381 -0.12446,-0.0675 -0.0679,0.0563 -0.10183,0.14632 -0.0792,0.23637 0.0226,0.0675 0.0905,0.1013 0.14709,0.0788 0.13577,-0.0563 0.24891,-0.0225 0.36205,0.0451 0.0339,0.0225 0.0905,0.0563 0.11315,0 0.0226,-0.0563 -0.0226,-0.0788 -0.0566,-0.1013 -0.0566,-0.045 -0.12445,-0.0901 -0.16971,-0.14633 -0.0226,-0.0337 0.0226,-0.1013 -0.0679,-0.09 -0.0113,0 -0.0226,0 -0.0226,0.0113 -0.0226,0.0451 0.0339,0.0337 0.0453,0.0563 0,0.0112 -0.0113,0.0112 -0.0339,0.0112 z m 0.35074,1.46327 c -0.0339,-0.10131 -0.10183,-0.1801 -0.1584,-0.27014 -0.0113,-0.0225 -0.0339,-0.0451 -0.0679,-0.0337 -0.0453,0.0112 -0.0226,0.0451 -0.0113,0.0675 0.13577,0.27014 0.24891,0.55154 0.36205,0.82168 0.0226,0.0563 0.0905,0.1013 0.14709,0.15758 0.0113,0.0113 0.0226,0.0113 0.0339,0.0225 0,-0.0112 0.0113,-0.0337 0,-0.0112 0,-0.32642 -0.21497,-0.50651 -0.30549,-0.75414 z m -1.24457,-2.53257 c -0.0453,-0.0788 -0.0113,-0.11256 0.0566,-0.14633 0.0113,-0.0112 0.0339,-0.0337 0.0113,-0.0337 -0.0226,-0.0112 -0.0679,-0.0112 -0.0679,0 -0.0339,0.0788 -0.29416,0.0675 -0.0905,0.23638 0,0 0,0.0337 0,0.0337 -0.0792,0.0563 -0.0566,0.22512 -0.21497,0.2026 -0.0113,0 -0.0452,0 -0.0226,0.0225 0.0905,0.11256 0.21496,0 0.32811,0.0337 0.0339,0.0113 0.0566,-0.0337 0.0679,-0.0788 0.0113,-0.12381 0.0453,-0.22512 0.20366,-0.14632 0.0113,0.0113 0.0454,0.0113 0.0454,-0.0113 0,0 -0.0226,-0.0225 -0.0454,-0.0225 -0.0226,0 -0.0566,0 -0.0792,0 -0.0792,-0.0113 -0.14708,-0.0113 -0.19234,-0.0901 z m 2.03657,2.44252 c -0.11314,-0.0563 -0.21497,-0.12381 -0.24892,-0.24763 -0.0113,-0.0225 -0.0339,-0.0675 -0.0679,-0.0451 -0.0339,0.0225 -0.0226,0.0563 0,0.0901 0.0453,0.0675 0.10183,0.11256 0.12446,0.18009 0.0566,0.21386 0.11314,0.14633 0.19234,0.0225 0,0 0,0 0,0 z m -7.10535,-3.03908 c -0.0792,0.045 0.0454,0.0563 0.0113,0.11255 -0.0339,0.0563 0.0566,0.0901 0.0792,0.0788 0.10183,-0.0113 0.10183,-0.10131 0.0792,-0.1801 -0.0113,-0.0451 -0.0566,-0.0113 -0.0905,0 -0.0339,0.0225 -0.0566,0.0225 -0.0792,-0.0113 -0.0113,0 0,0 0,0 z m -0.80331,1.44075 c 0.0113,-0.0451 -0.0339,-0.0563 -0.0679,-0.0563 -0.0679,0.0113 -0.13577,0.0451 -0.16971,0.09 -0.0113,0.0225 0.0679,-0.0113 0.0905,0.0225 0.0454,-0.0337 0.13577,0.0337 0.14709,-0.0563 z m -0.0113,0.18009 c -0.0226,0.0225 0.0113,0.0563 0.0226,0.0451 0.0452,-0.0337 0.10182,-0.0675 0.13576,-0.11256 0.0113,-0.0113 -0.0566,-0.0337 -0.10183,-0.0337 -0.0905,-0.0225 -0.0226,0.0675 -0.0566,0.1013 z m 6.93564,3.23043 c -0.0566,0 -0.0792,0.0337 -0.0905,0.0788 0,0.0337 -0.0113,0.0788 0.0453,0.0788 0.0566,0 0.0566,-0.0675 0.0792,-0.10131 0.0226,-0.0451 -0.0113,-0.0451 -0.0339,-0.0563 z m -7.04879,-3.27546 c -0.0566,0.0113 -0.0905,0.0563 -0.11314,0.1013 -0.0226,0.0337 -0.0453,0.0901 -0.0566,0.12381 0.0113,0 0.0226,0.0112 0.0339,0 0.0679,-0.0563 0.0679,-0.15758 0.1584,-0.21386 -0.0226,0 -0.0226,-0.0113 -0.0226,-0.0113 z"
       id="path2-3"
       style="fill:url(#linearGradient890);fill-opacity:1;stroke-width:0.11285" />
  </g>
</svg>
