<?xml version="1.0" encoding="UTF-8" standalone="no"?>
<svg
   width="32"
   version="1.1"
   height="32"
   viewBox="0 0 32 32"
   id="svg15"
   sodipodi:docname="folder-sign.svg"
   inkscape:version="1.1.2 (0a00cf5339, 2022-02-04)"
   xmlns:inkscape="http://www.inkscape.org/namespaces/inkscape"
   xmlns:sodipodi="http://sodipodi.sourceforge.net/DTD/sodipodi-0.dtd"
   xmlns:xlink="http://www.w3.org/1999/xlink"
   xmlns="http://www.w3.org/2000/svg"
   xmlns:svg="http://www.w3.org/2000/svg"
   xmlns:rdf="http://www.w3.org/1999/02/22-rdf-syntax-ns#"
   xmlns:cc="http://creativecommons.org/ns#"
   xmlns:dc="http://purl.org/dc/elements/1.1/">
  <sodipodi:namedview
     pagecolor="#ffffff"
     bordercolor="#666666"
     borderopacity="1"
     objecttolerance="10"
     gridtolerance="10"
     guidetolerance="10"
     inkscape:pageopacity="0"
     inkscape:pageshadow="2"
     inkscape:window-width="1920"
     inkscape:window-height="1015"
     id="namedview17"
     showgrid="true"
     inkscape:zoom="9.8125"
     inkscape:cx="1.4267516"
     inkscape:cy="9.9363057"
     inkscape:window-x="0"
     inkscape:window-y="0"
     inkscape:window-maximized="1"
     inkscape:current-layer="layer1"
     inkscape:pagecheckerboard="0">
    <inkscape:grid
       type="xygrid"
       id="grid862" />
  </sodipodi:namedview>
  <defs
     id="defs5455">
    <linearGradient
       inkscape:collect="always"
       xlink:href="#linearGradient1295"
       id="linearGradient1493"
       gradientUnits="userSpaceOnUse"
       x1="20.750315"
       y1="1025.9873"
       x2="-12.062732"
       y2="995.35931" />
    <linearGradient
       inkscape:collect="always"
       id="linearGradient1295">
      <stop
         style="stop-color:#1d212f;stop-opacity:1;"
         offset="0"
         id="stop1291" />
      <stop
         style="stop-color:#717da8;stop-opacity:1"
         offset="1"
         id="stop1293" />
    </linearGradient>
    <linearGradient
       inkscape:collect="always"
       xlink:href="#linearGradient952"
       id="linearGradient1297"
       x1="2.0000021"
       y1="1025.9873"
       x2="62.938519"
       y2="1025.9873"
       gradientUnits="userSpaceOnUse" />
    <linearGradient
       inkscape:collect="always"
       id="linearGradient952">
      <stop
         style="stop-color:#2e354b;stop-opacity:1"
         offset="0"
         id="stop948" />
      <stop
         style="stop-color:#717da8;stop-opacity:1"
         offset="1"
         id="stop950" />
    </linearGradient>
    <linearGradient
       inkscape:collect="always"
       xlink:href="#linearGradient876"
       id="linearGradient878"
       x1="5"
       y1="40"
       x2="24.99983"
       y2="40"
       gradientUnits="userSpaceOnUse"
       gradientTransform="matrix(0.5,0,0,0.5,384.57143,515.798)" />
    <linearGradient
       inkscape:collect="always"
       id="linearGradient876">
      <stop
         style="stop-color:#404868;stop-opacity:1"
         offset="0"
         id="stop872" />
      <stop
         style="stop-color:#becad8;stop-opacity:1"
         offset="1"
         id="stop874" />
    </linearGradient>
  </defs>
  <metadata
     id="metadata5458">
    <rdf:RDF>
      <cc:Work
         rdf:about="">
        <dc:format>image/svg+xml</dc:format>
        <dc:type
           rdf:resource="http://purl.org/dc/dcmitype/StillImage" />
      </cc:Work>
    </rdf:RDF>
  </metadata>
  <g
     inkscape:label="Capa 1"
     inkscape:groupmode="layer"
     id="layer1"
     transform="translate(-384.57143,-515.798)">
    <g
       transform="matrix(0.53332446,0,0,0.57137396,383.50478,-52.924394)"
       id="g19">
      <rect
         width="60"
         height="42"
         x="2"
         y="1002.36"
         rx="6.5219998"
         ry="6.5619998"
         style="opacity:0.85;fill:url(#linearGradient1493);fill-opacity:1;stroke:none"
         id="rect11" />
      <path
         d="m 8.522,1002.36 c -3.613,0 -6.522,3.3302 -6.522,6.1002 v 0.8998 c 0,-2.77 2.909,-5 6.522,-5 h 46.957 c 3.613,0 6.522,2.23 6.522,5 v -0.8998 c 0,-2.77 -2.909,-6.1002 -6.522,-6.1002 z"
         style="opacity:0.2;fill:#ffffff;fill-opacity:1;stroke:none"
         id="path13"
         sodipodi:nodetypes="sscsscsss" />
      <path
         d="m 8.522,1013.3603 h 10.435 c 14.348,-1.333 11.86095,-6.5781 20.991951,-6.5781 h 15.361736 c 3.612989,0 6.689313,1.4143 6.689313,5.1083 v 25.8035 c 0,3.693 -2.908,6.667 -6.521,6.667 H 8.522 c -3.613,0 -6.522,-2.973 -6.522,-6.667 v -18.667 c 0,-4 2.609,-5.6667 6.522,-5.6667 z"
         style="opacity:0.6;fill:url(#linearGradient1297);fill-opacity:1;stroke:none"
         id="path15"
         sodipodi:nodetypes="scsssssssss" />
      <path
         d="m 2,1035.03 v 2.667 c 0,3.693 2.909,6.667 6.522,6.667 h 46.957 c 3.613,0 6.522,-2.973 6.522,-6.667 v -2.667 c 0,3.693 -2.909,7.333 -6.522,7.333 H 8.522 c -3.613,0 -6.522,-3.64 -6.522,-7.333 z"
         style="opacity:0.15;fill:#000000;fill-opacity:1;stroke:none"
         id="path17" />
    </g>
    <rect
       y="540.19824"
       x="404.57147"
       height="0.17142858"
       width="10.933346"
       id="rect4209"
       style="fill:#000000;fill-opacity:1;fill-rule:nonzero;stroke:none;stroke-width:0.211249;stroke-linecap:round;stroke-linejoin:round;stroke-miterlimit:4;stroke-dasharray:none;stroke-dashoffset:0;stroke-opacity:1" />
    <path
       d="m 396.68006,533.85851 c -0.24916,-0.59312 -0.61687,-1.12691 -1.06758,-1.58954 -0.46264,-0.46264 -0.99643,-0.81854 -1.58955,-1.06758 -0.61696,-0.26106 -1.26933,-0.40339 -1.94553,-0.40339 -0.67621,0 -1.32858,0.14232 -1.94545,0.4033 -0.59312,0.24915 -1.12691,0.61687 -1.58955,1.06758 -0.46264,0.46264 -0.81853,0.99643 -1.06758,1.58955 -0.26106,0.61696 -0.40339,1.26933 -0.40339,1.94553 0,0.6762 0.14233,1.32858 0.40331,1.94545 0.24915,0.59312 0.61687,1.12691 1.06758,1.58955 0.46263,0.46263 0.99642,0.81853 1.58955,1.06758 0.61687,0.26097 1.26932,0.39146 1.94544,0.39146 0.6762,0 1.32858,-0.13049 1.94545,-0.39146 0.59312,-0.24916 1.12691,-0.61687 1.58955,-1.06758 0.46263,-0.46264 0.81853,-0.99643 1.06758,-1.58955 0.26097,-0.61687 0.39146,-1.26933 0.39146,-1.94545 1.7e-4,-0.6762 -0.13033,-1.32857 -0.39132,-1.94545 z"
       id="path67"
       style="fill:url(#linearGradient878);fill-opacity:1;stroke-width:0.021183" />
    <path
       d="m 390.997,537.02782 c 0.0278,0.0205 0.0602,0.0305 0.0923,0.0305 0.0477,0 0.0947,-0.0218 0.1252,-0.0631 0.27656,-0.37421 0.58801,-0.72629 0.92571,-1.04663 0.0623,-0.0591 0.0649,-0.15754 0.006,-0.21992 -0.0592,-0.0623 -0.15754,-0.0649 -0.21992,-0.006 -0.35084,0.33276 -0.67442,0.69868 -0.96179,1.08748 -0.0511,0.0691 -0.0365,0.16649 0.0326,0.21759 z"
       id="path79"
       style="fill:#3a435f;fill-opacity:1;stroke-width:0.0138877" />
    <path
       d="m 392.34966,535.7064 c 0.0357,0 0.0716,-0.0122 0.10096,-0.0372 0.10568,-0.0903 0.21554,-0.17918 0.32647,-0.26419 l 0.81634,-0.62581 c 0.0681,-0.0522 0.081,-0.14995 0.0289,-0.21808 -0.0522,-0.0681 -0.1499,-0.0809 -0.21808,-0.0288 l -0.81634,0.62581 c -0.11528,0.0884 -0.22942,0.18077 -0.33922,0.27456 -0.0653,0.0558 -0.073,0.15402 -0.0172,0.21933 0.0306,0.036 0.0743,0.0545 0.11826,0.0545 z"
       id="path81"
       style="fill:#3a435f;fill-opacity:1;stroke-width:0.0138877" />
    <path
       d="m 389.02688,539.29832 h 0.5797 2.2e-4 3.2e-4 0.83262 c 0.0859,0 0.15553,-0.0697 0.15553,-0.15553 0,-0.0859 -0.0697,-0.15552 -0.15553,-0.15552 h -0.55063 l 0.282,-0.44686 c 0.0254,-0.0163 0.0533,-0.0362 0.0883,-0.0621 0.16236,-0.12016 0.50028,-0.37036 0.98256,-0.59114 0.42776,-0.21082 1.37082,-0.55931 1.38032,-0.56283 0.0513,-0.019 0.089,-0.0635 0.099,-0.11734 0.01,-0.0538 -0.009,-0.10893 -0.0499,-0.14523 l -0.0609,-0.0538 c 0.67686,-0.0325 0.74196,-0.0708 0.77364,-0.0894 0.15635,-0.0951 0.28464,-0.17735 0.40372,-0.25888 0.52719,-0.36086 0.93537,-0.83631 1.21316,-1.41294 0.005,-0.009 0.008,-0.019 0.0106,-0.0292 10e-4,-0.005 10e-4,-0.0101 0.002,-0.0152 3.8e-4,-0.005 0.002,-0.009 0.002,-0.0138 0,-3.3e-4 -5e-5,-3.8e-4 0,-5e-4 3.8e-4,-0.008 -1.6e-4,-0.0157 -10e-4,-0.0236 -2.1e-4,-0.002 0,-0.005 -3.7e-4,-0.007 -10e-4,-0.006 -0.003,-0.0123 -0.005,-0.0184 -0.002,-0.009 -0.006,-0.0182 -0.01,-0.0267 -0.002,-0.004 -0.003,-0.008 -0.005,-0.0113 -0.002,-0.004 -0.005,-0.006 -0.007,-0.009 -0.005,-0.008 -0.0113,-0.0151 -0.0181,-0.0217 -0.005,-0.005 -0.01,-0.01 -0.015,-0.014 -0.002,-10e-4 -0.004,-0.002 -0.005,-0.003 -0.007,-0.005 -0.0137,-0.009 -0.0212,-0.013 -2.2e-4,-6e-5 -3.8e-4,-3.3e-4 -3.8e-4,-3.8e-4 -0.002,-0.001 -0.006,-0.002 -0.008,-0.003 -0.007,-0.002 -0.0131,-0.005 -0.0201,-0.007 -0.006,-0.002 -0.0117,-0.002 -0.0177,-0.003 -0.004,-3.7e-4 -0.008,-0.002 -0.0118,-0.002 l -0.14619,-0.009 0.42449,-0.24623 c 0.003,-0.002 0.006,-0.004 0.01,-0.007 0.002,-0.002 0.005,-0.004 0.008,-0.006 0.0116,-0.009 0.0219,-0.0192 0.0302,-0.0307 10e-4,-0.002 0.002,-0.003 0.003,-0.005 0.008,-0.0123 0.0147,-0.0254 0.019,-0.0393 3.8e-4,-10e-4 0.001,-0.002 0.002,-0.003 3.8e-4,-10e-4 3.8e-4,-0.002 10e-4,-0.004 6e-5,-1.6e-4 6e-5,-3.2e-4 1.7e-4,-3.7e-4 0.0527,-0.17924 0.0927,-0.36288 0.11821,-0.5426 0.11869,-0.72481 0.0127,-1.40543 -0.0222,-1.62903 -0.003,-0.0181 -0.005,-0.0325 -0.007,-0.0427 0,-0.001 5e-5,-0.002 5e-5,-0.004 0,-0.006 -0.001,-0.0117 -0.002,-0.0175 -2.2e-4,-0.002 -3.3e-4,-0.004 -3.8e-4,-0.006 -0.001,-0.008 -0.003,-0.0156 -0.006,-0.023 -3.7e-4,-0.002 -10e-4,-0.004 -0.002,-0.006 -0.002,-0.007 -0.006,-0.0137 -0.009,-0.0203 -0.002,-0.002 -0.002,-0.005 -0.004,-0.007 -0.003,-0.006 -0.007,-0.011 -0.0116,-0.0161 -0.002,-0.003 -0.005,-0.006 -0.007,-0.009 -0.004,-0.005 -0.009,-0.008 -0.0131,-0.0123 -0.003,-0.002 -0.006,-0.006 -0.01,-0.008 -0.005,-0.004 -0.0102,-0.007 -0.0156,-0.01 -0.002,-0.002 -0.005,-0.003 -0.008,-0.005 -0.001,-10e-4 -0.002,-10e-4 -0.004,-0.002 -0.003,-10e-4 -0.006,-0.002 -0.009,-0.003 -0.076,-0.0308 -0.13106,5e-4 -0.27803,0.0877 -0.16236,0.0961 -0.46458,0.27499 -0.90645,0.47652 -0.16936,0.0838 -0.42113,0.18776 -0.68756,0.29776 -0.32305,0.1334 -0.65717,0.27124 -0.93412,0.40807 -0.0433,0.0212 -0.12265,0.06 -0.29288,0.5209 l -0.0134,-0.0603 c -0.0109,-0.0491 -0.0448,-0.0898 -0.0911,-0.10953 -0.0462,-0.0196 -0.0992,-0.0157 -0.14208,0.0106 -0.0119,0.007 -0.29272,0.17972 -0.43496,0.2771 -0.37024,0.25328 -0.68511,0.56734 -0.93526,0.93281 -0.0236,0.0341 -0.0727,0.10525 -0.047,0.69006 l -0.0471,-0.0612 c -0.035,-0.0454 -0.0922,-0.0682 -0.14875,-0.0585 -0.0566,0.009 -0.10334,0.0492 -0.12179,0.10362 -0.008,0.0251 -0.20803,0.6167 -0.25188,0.92212 -0.11772,0.71928 -0.0132,1.39974 0.0211,1.62348 0.001,0.006 0.002,0.01 0.002,0.0148 l -0.37946,0.60102 h -0.49438 c -0.0859,0 -0.15553,0.0697 -0.15553,0.15553 0,0.0858 0.0697,0.15553 0.15553,0.15553 z m 1.15778,-2.50312 c 0.0221,-0.15369 0.0913,-0.39873 0.14961,-0.58969 l 0.1767,0.22926 c 0.0419,0.0546 0.11479,0.075 0.17903,0.0502 0.0642,-0.0248 0.10459,-0.0888 0.0992,-0.15726 -0.032,-0.40893 -0.0515,-0.90216 -0.029,-1.01435 0.22704,-0.32782 0.51114,-0.6096 0.8446,-0.83765 0.0617,-0.0422 0.1539,-0.10128 0.23637,-0.15319 l 0.0877,0.39531 c 0.0153,0.0689 0.0751,0.11891 0.14576,0.12173 0.0705,0.003 0.13416,-0.0423 0.15482,-0.10991 0.11007,-0.35929 0.26544,-0.78667 0.33098,-0.88008 0.26441,-0.12943 0.5853,-0.26185 0.89592,-0.3901 0.27152,-0.11208 0.52802,-0.21797 0.70241,-0.30439 0.40536,-0.18488 0.69667,-0.35153 0.87348,-0.45559 0.0396,0.28936 0.0915,0.82436 -6e-5,1.38411 -0.0213,0.14961 -0.0533,0.29972 -0.0941,0.44728 l -0.81374,0.47207 c -0.0258,0.0151 -0.0452,0.0365 -0.0584,0.0609 -0.001,0.002 -0.002,0.003 -0.003,0.005 -0.003,0.006 -0.005,0.0131 -0.008,0.0197 -10e-4,0.003 -0.002,0.006 -0.004,0.009 -0.002,0.01 -0.005,0.0199 -0.005,0.0303 0,6e-5 -6e-5,2.2e-4 -6e-5,3.3e-4 -1.6e-4,0.002 3.3e-4,0.004 2.2e-4,0.006 -1.6e-4,0.008 -1.6e-4,0.0162 10e-4,0.0242 3.7e-4,0.005 0.002,0.01 0.003,0.0145 0.001,0.005 0.002,0.0101 0.004,0.0151 0.002,0.008 0.006,0.0148 0.01,0.022 10e-4,0.002 10e-4,0.004 0.002,0.006 6e-5,6e-5 6e-5,1.6e-4 1.6e-4,2.2e-4 0.006,0.0107 0.0141,0.0204 0.0228,0.0293 0.002,0.002 0.005,0.005 0.008,0.007 0.007,0.006 0.014,0.0115 0.0217,0.0163 0.003,0.002 0.005,0.004 0.008,0.005 0.0106,0.006 0.0217,0.0104 0.0336,0.0136 10e-4,3.2e-4 0.002,3.2e-4 0.004,10e-4 0.009,0.002 0.0174,0.004 0.0267,0.005 l 0.4188,0.0262 c -0.24737,0.43453 -0.58252,0.79865 -0.99943,1.08406 -0.11154,0.0764 -0.23208,0.15373 -0.37665,0.24195 -0.10129,0.0242 -0.60244,0.0537 -1.02379,0.0678 -0.0637,0.002 -0.11962,0.0429 -0.14116,0.10292 -0.0216,0.0599 -0.005,0.12699 0.0434,0.16926 l 0.15755,0.13915 c -0.31481,0.11984 -0.85785,0.33195 -1.16305,0.48249 -0.17913,0.082 -0.33814,0.16757 -0.47799,0.24987 l 0.24412,-0.36265 c 0.0381,-0.0606 0.0769,-0.1207 0.11664,-0.18011 0.0477,-0.0714 0.0284,-0.16807 -0.043,-0.21574 -0.0714,-0.0477 -0.16807,-0.0283 -0.21575,0.043 -0.0412,0.0618 -0.0816,0.12428 -0.11853,0.1831 l -0.45092,0.67046 c -0.0314,-0.30402 -0.0523,-0.74456 0.0221,-1.19923 z"
       id="path83"
       style="fill:#3a435f;fill-opacity:1;stroke-width:0.0138877" />
    <path
       d="m 390.89339,538.98724 c -0.0859,0 -0.15552,0.0697 -0.15552,0.15553 0,0.0859 0.0697,0.15552 0.15552,0.15552 h 1.27318 c 0.0859,0 0.15552,-0.0697 0.15552,-0.15552 0,-0.0859 -0.0697,-0.15553 -0.15552,-0.15553 z"
       id="path85"
       style="fill:#3a435f;fill-opacity:1;stroke-width:0.0138877" />
  </g>
</svg>
