<?xml version="1.0" encoding="UTF-8" standalone="no"?>
<svg
   width="32"
   version="1.1"
   height="32"
   viewBox="0 0 32 32"
   id="svg15"
   sodipodi:docname="folder-Neon.svg"
   inkscape:version="1.1.2 (0a00cf5339, 2022-02-04)"
   xmlns:inkscape="http://www.inkscape.org/namespaces/inkscape"
   xmlns:sodipodi="http://sodipodi.sourceforge.net/DTD/sodipodi-0.dtd"
   xmlns:xlink="http://www.w3.org/1999/xlink"
   xmlns="http://www.w3.org/2000/svg"
   xmlns:svg="http://www.w3.org/2000/svg"
   xmlns:rdf="http://www.w3.org/1999/02/22-rdf-syntax-ns#"
   xmlns:cc="http://creativecommons.org/ns#"
   xmlns:dc="http://purl.org/dc/elements/1.1/">
  <sodipodi:namedview
     pagecolor="#ffffff"
     bordercolor="#666666"
     borderopacity="1"
     objecttolerance="10"
     gridtolerance="10"
     guidetolerance="10"
     inkscape:pageopacity="0"
     inkscape:pageshadow="2"
     inkscape:window-width="1920"
     inkscape:window-height="1015"
     id="namedview17"
     showgrid="false"
     inkscape:zoom="9.8125"
     inkscape:cx="-26.089172"
     inkscape:cy="8.7133758"
     inkscape:window-x="0"
     inkscape:window-y="0"
     inkscape:window-maximized="1"
     inkscape:current-layer="layer1"
     inkscape:document-rotation="0"
     inkscape:pagecheckerboard="0" />
  <defs
     id="defs5455">
    <linearGradient
       inkscape:collect="always"
       xlink:href="#linearGradient1295"
       id="linearGradient1493"
       gradientUnits="userSpaceOnUse"
       x1="20.750315"
       y1="1025.9873"
       x2="-12.062732"
       y2="995.35931" />
    <linearGradient
       inkscape:collect="always"
       id="linearGradient1295">
      <stop
         style="stop-color:#1d212f;stop-opacity:1;"
         offset="0"
         id="stop1291" />
      <stop
         style="stop-color:#717da8;stop-opacity:1"
         offset="1"
         id="stop1293" />
    </linearGradient>
    <linearGradient
       inkscape:collect="always"
       xlink:href="#linearGradient952"
       id="linearGradient1297"
       x1="2.0000021"
       y1="1025.9873"
       x2="62.938519"
       y2="1025.9873"
       gradientUnits="userSpaceOnUse" />
    <linearGradient
       inkscape:collect="always"
       id="linearGradient952">
      <stop
         style="stop-color:#2e354b;stop-opacity:1"
         offset="0"
         id="stop948" />
      <stop
         style="stop-color:#717da8;stop-opacity:1"
         offset="1"
         id="stop950" />
    </linearGradient>
    <linearGradient
       inkscape:collect="always"
       xlink:href="#linearGradient875"
       id="linearGradient877"
       x1="389.57144"
       y1="523.79797"
       x2="409.57126"
       y2="523.79797"
       gradientUnits="userSpaceOnUse"
       gradientTransform="matrix(0.5,0,0,0.5,192.28571,273.89899)" />
    <linearGradient
       inkscape:collect="always"
       id="linearGradient875">
      <stop
         style="stop-color:#404868;stop-opacity:1"
         offset="0"
         id="stop871" />
      <stop
         style="stop-color:#becad8;stop-opacity:1"
         offset="1"
         id="stop873" />
    </linearGradient>
  </defs>
  <metadata
     id="metadata5458">
    <rdf:RDF>
      <cc:Work
         rdf:about="">
        <dc:format>image/svg+xml</dc:format>
        <dc:type
           rdf:resource="http://purl.org/dc/dcmitype/StillImage" />
      </cc:Work>
    </rdf:RDF>
  </metadata>
  <g
     inkscape:label="Capa 1"
     inkscape:groupmode="layer"
     id="layer1"
     transform="translate(-384.57143,-515.798)">
    <g
       transform="matrix(0.53332446,0,0,0.57137396,383.50478,-52.924394)"
       id="g19">
      <rect
         width="60"
         height="42"
         x="2"
         y="1002.36"
         rx="6.5219998"
         ry="6.5619998"
         style="opacity:0.85;fill:url(#linearGradient1493);fill-opacity:1;stroke:none"
         id="rect11" />
      <path
         d="m 8.522,1002.36 c -3.613,0 -6.522,3.3302 -6.522,6.1002 v 0.8998 c 0,-2.77 2.909,-5 6.522,-5 h 46.957 c 3.613,0 6.522,2.23 6.522,5 v -0.8998 c 0,-2.77 -2.909,-6.1002 -6.522,-6.1002 z"
         style="opacity:0.2;fill:#ffffff;fill-opacity:1;stroke:none"
         id="path13"
         sodipodi:nodetypes="sscsscsss" />
      <path
         d="m 8.522,1013.3603 h 10.435 c 14.348,-1.333 11.86095,-6.5781 20.991951,-6.5781 h 15.361736 c 3.612989,0 6.689313,1.4143 6.689313,5.1083 v 25.8035 c 0,3.693 -2.908,6.667 -6.521,6.667 H 8.522 c -3.613,0 -6.522,-2.973 -6.522,-6.667 v -18.667 c 0,-4 2.609,-5.6667 6.522,-5.6667 z"
         style="opacity:0.6;fill:url(#linearGradient1297);fill-opacity:1;stroke:none"
         id="path15"
         sodipodi:nodetypes="scsssssssss" />
      <path
         d="m 2,1035.03 v 2.667 c 0,3.693 2.909,6.667 6.522,6.667 h 46.957 c 3.613,0 6.522,-2.973 6.522,-6.667 v -2.667 c 0,3.693 -2.909,7.333 -6.522,7.333 H 8.522 c -3.613,0 -6.522,-3.64 -6.522,-7.333 z"
         style="opacity:0.15;fill:#000000;fill-opacity:1;stroke:none"
         id="path17" />
    </g>
    <rect
       y="540.19922"
       x="404.57144"
       height="0.17142858"
       width="10.933346"
       id="rect4209"
       style="fill:#000000;fill-opacity:1;fill-rule:nonzero;stroke:none;stroke-width:0.211249;stroke-linecap:round;stroke-linejoin:round;stroke-miterlimit:4;stroke-dasharray:none;stroke-dashoffset:0;stroke-opacity:1" />
    <path
       d="m 396.68005,533.85851 c -0.24915,-0.59312 -0.61687,-1.12691 -1.06758,-1.58954 -0.46264,-0.46265 -0.99643,-0.81854 -1.58955,-1.06759 -0.61695,-0.26106 -1.26933,-0.40339 -1.94553,-0.40339 -0.6762,0 -1.32858,0.14233 -1.94544,0.40331 -0.59313,0.24915 -1.12692,0.61686 -1.58955,1.06758 -0.46264,0.46263 -0.81854,0.99642 -1.06758,1.58955 -0.26106,0.61695 -0.40339,1.26932 -0.40339,1.94553 0,0.6762 0.14232,1.32857 0.4033,1.94544 0.24915,0.59312 0.61687,1.12691 1.06758,1.58955 0.46264,0.46264 0.99643,0.81853 1.58955,1.06758 0.61687,0.26098 1.26933,0.39146 1.94545,0.39146 0.6762,0 1.32857,-0.13049 1.94544,-0.39146 0.59312,-0.24915 1.12691,-0.61687 1.58955,-1.06758 0.46264,-0.46264 0.81853,-0.99643 1.06758,-1.58955 0.26098,-0.61687 0.39146,-1.26933 0.39146,-1.94544 1.7e-4,-0.67621 -0.13032,-1.32858 -0.39131,-1.94545 z"
       id="path67"
       style="fill:url(#linearGradient877);fill-opacity:1;stroke-width:0.021183" />
    <path
       d="m 392.07142,534.88893 c -0.50205,0 -0.90906,0.40702 -0.90906,0.90907 0,0.50205 0.40701,0.90906 0.90906,0.90906 0.50205,0 0.90906,-0.40701 0.90906,-0.90906 0,-0.50205 -0.40701,-0.90907 -0.90906,-0.90907 z m -0.15773,0.29237 c -0.17041,0.0435 -0.31671,0.15726 -0.40126,0.31266 -0.008,0.015 -0.0239,0.0238 -0.0399,0.0238 -0.007,0 -0.0147,-0.002 -0.0217,-0.006 -0.022,-0.012 -0.0303,-0.0396 -0.0182,-0.0617 0.0967,-0.17733 0.2639,-0.30753 0.45873,-0.35716 0.0245,-0.007 0.0491,0.008 0.0552,0.0329 0.006,0.0243 -0.009,0.049 -0.0328,0.0551 z"
       id="path2-6"
       style="fill:#2e354b;fill-opacity:1;stroke-width:0.0777775" />
    <path
       d="m 392.3886,533.74257 c -0.005,-0.17103 -0.14475,-0.30823 -0.31718,-0.30823 -0.17243,0 -0.31181,0.1372 -0.31718,0.30823 -0.99672,0.1533 -1.76236,1.01655 -1.76236,2.05543 0,1.03887 0.76572,1.90213 1.76236,2.05543 0.005,0.17103 0.14475,0.30823 0.31718,0.30823 0.17243,0 0.31181,-0.1372 0.31718,-0.30823 0.99672,-0.1533 1.76236,-1.01656 1.76236,-2.05543 0,-1.03888 -0.76564,-1.90213 -1.76236,-2.05543 z m -0.005,4.04249 c -0.0275,-0.14778 -0.15657,-0.25978 -0.31236,-0.25978 -0.15578,0 -0.28482,0.11192 -0.31235,0.25978 -0.96125,-0.15066 -1.69897,-0.98412 -1.69897,-1.98706 0,-1.00294 0.73772,-1.83641 1.69905,-1.98706 0.0275,0.14778 0.15656,0.25977 0.31235,0.25977 0.15579,0 0.28482,-0.11192 0.31236,-0.25977 0.96117,0.15065 1.69889,0.98412 1.69889,1.98706 0,1.00294 -0.73772,1.8364 -1.69897,1.98706 z"
       id="path4"
       style="fill:#2e354b;fill-opacity:1;stroke-width:0.0777775" />
    <path
       d="m 395.57141,535.798 c 0,-0.16948 -0.13269,-0.3066 -0.29975,-0.31632 -0.0637,-0.64976 -0.32161,-1.24328 -0.71462,-1.72184 0.11223,-0.12491 0.10943,-0.31648 -0.0108,-0.43672 -0.12017,-0.12017 -0.31181,-0.12305 -0.43665,-0.0108 -0.47849,-0.39309 -1.07208,-0.65085 -1.72176,-0.71463 -0.01,-0.1669 -0.14692,-0.29975 -0.3164,-0.29975 -0.16947,0 -0.3066,0.13284 -0.31632,0.29975 -0.64967,0.0637 -1.2432,0.32153 -1.72176,0.71463 -0.12483,-0.11231 -0.31655,-0.10943 -0.4368,0.0108 -0.12016,0.12024 -0.12304,0.31196 -0.0108,0.4368 -0.39309,0.47848 -0.65084,1.07209 -0.71462,1.72176 -0.16706,0.01 -0.29975,0.14684 -0.29975,0.31632 0,0.16947 0.13269,0.3066 0.29975,0.31632 0.0637,0.64968 0.32153,1.24312 0.71454,1.72169 -0.11231,0.12491 -0.10943,0.31663 0.0107,0.43687 0.12025,0.12016 0.31189,0.12304 0.43688,0.0107 0.47849,0.39317 1.07209,0.65084 1.72176,0.71463 0.01,0.1669 0.14685,0.29975 0.31632,0.29975 0.16948,0 0.3066,-0.13284 0.31632,-0.29975 0.64968,-0.0637 1.2432,-0.32146 1.72176,-0.71463 0.12499,0.11231 0.31656,0.10943 0.4368,-0.0107 0.12017,-0.12024 0.12305,-0.31196 0.0108,-0.4368 0.39317,-0.47848 0.65084,-1.07209 0.71462,-1.72176 0.16707,-0.01 0.29976,-0.14685 0.29976,-0.31632 z m -0.36789,0.31321 c -0.0628,0.63334 -0.31422,1.21201 -0.69712,1.67914 -0.12436,-0.0895 -0.29812,-0.0793 -0.40996,0.0326 -0.11185,0.11192 -0.12211,0.28568 -0.0326,0.40996 -0.46706,0.3829 -1.0458,0.63428 -1.6793,0.69713 -0.024,-0.15198 -0.15431,-0.26842 -0.31305,-0.26842 -0.15875,0 -0.28918,0.11644 -0.31306,0.26842 -0.63349,-0.0629 -1.21224,-0.31423 -1.67929,-0.69713 0.0895,-0.12444 0.0793,-0.29827 -0.0326,-0.41005 -0.11185,-0.11183 -0.28568,-0.12218 -0.41005,-0.0326 -0.3829,-0.46698 -0.63435,-1.04564 -0.69719,-1.67899 0.15197,-0.0241 0.26841,-0.15446 0.26841,-0.31321 0,-0.15874 -0.11644,-0.28918 -0.26841,-0.31321 0.0628,-0.63334 0.31422,-1.21193 0.69704,-1.67906 0.12444,0.0896 0.29835,0.0793 0.41012,-0.0326 0.11184,-0.11185 0.12203,-0.28576 0.0326,-0.41013 0.46713,-0.38282 1.04572,-0.63419 1.67922,-0.69704 0.024,0.15198 0.15431,0.26841 0.31305,0.26841 0.15874,0 0.28918,-0.11643 0.31306,-0.26841 0.63349,0.0628 1.21216,0.31422 1.67921,0.69704 -0.0894,0.12445 -0.0793,0.2982 0.0326,0.41005 0.11185,0.11185 0.28568,0.12203 0.41005,0.0326 0.3829,0.46706 0.63427,1.04579 0.69712,1.67914 -0.15198,0.0241 -0.26841,0.15447 -0.26841,0.31321 0,0.15875 0.11651,0.28918 0.26856,0.31321 z"
       id="path6"
       style="fill:#2e354b;fill-opacity:1;stroke-width:0.0777775" />
  </g>
</svg>
