<?xml version="1.0" encoding="UTF-8" standalone="no"?>
<svg
   width="32"
   version="1.1"
   height="32"
   viewBox="0 0 32 32"
   id="svg15"
   sodipodi:docname="folder-podcast.svg"
   inkscape:version="1.1.2 (0a00cf5339, 2022-02-04)"
   xmlns:inkscape="http://www.inkscape.org/namespaces/inkscape"
   xmlns:sodipodi="http://sodipodi.sourceforge.net/DTD/sodipodi-0.dtd"
   xmlns:xlink="http://www.w3.org/1999/xlink"
   xmlns="http://www.w3.org/2000/svg"
   xmlns:svg="http://www.w3.org/2000/svg"
   xmlns:rdf="http://www.w3.org/1999/02/22-rdf-syntax-ns#"
   xmlns:cc="http://creativecommons.org/ns#"
   xmlns:dc="http://purl.org/dc/elements/1.1/">
  <sodipodi:namedview
     pagecolor="#ffffff"
     bordercolor="#666666"
     borderopacity="1"
     objecttolerance="10"
     gridtolerance="10"
     guidetolerance="10"
     inkscape:pageopacity="0"
     inkscape:pageshadow="2"
     inkscape:window-width="1920"
     inkscape:window-height="1015"
     id="namedview17"
     showgrid="true"
     inkscape:zoom="9.8125"
     inkscape:cx="1.4267516"
     inkscape:cy="1.7834395"
     inkscape:window-x="0"
     inkscape:window-y="0"
     inkscape:window-maximized="1"
     inkscape:current-layer="g4"
     inkscape:pagecheckerboard="0">
    <inkscape:grid
       type="xygrid"
       id="grid862" />
  </sodipodi:namedview>
  <defs
     id="defs5455">
    <linearGradient
       inkscape:collect="always"
       xlink:href="#linearGradient1295"
       id="linearGradient1493"
       gradientUnits="userSpaceOnUse"
       x1="20.750315"
       y1="1025.9873"
       x2="-12.062732"
       y2="995.35931" />
    <linearGradient
       inkscape:collect="always"
       id="linearGradient1295">
      <stop
         style="stop-color:#1d212f;stop-opacity:1;"
         offset="0"
         id="stop1291" />
      <stop
         style="stop-color:#717da8;stop-opacity:1"
         offset="1"
         id="stop1293" />
    </linearGradient>
    <linearGradient
       inkscape:collect="always"
       xlink:href="#linearGradient952"
       id="linearGradient1297"
       x1="2.0000021"
       y1="1025.9873"
       x2="62.938519"
       y2="1025.9873"
       gradientUnits="userSpaceOnUse" />
    <linearGradient
       inkscape:collect="always"
       id="linearGradient952">
      <stop
         style="stop-color:#2e354b;stop-opacity:1"
         offset="0"
         id="stop948" />
      <stop
         style="stop-color:#717da8;stop-opacity:1"
         offset="1"
         id="stop950" />
    </linearGradient>
    <linearGradient
       inkscape:collect="always"
       xlink:href="#linearGradient876"
       id="linearGradient878"
       x1="5"
       y1="40"
       x2="24.99983"
       y2="40"
       gradientUnits="userSpaceOnUse"
       gradientTransform="matrix(1.3883548,0,0,1.3461638,68.73094,981.39572)" />
    <linearGradient
       inkscape:collect="always"
       id="linearGradient876">
      <stop
         style="stop-color:#404868;stop-opacity:1"
         offset="0"
         id="stop872" />
      <stop
         style="stop-color:#becad8;stop-opacity:1"
         offset="1"
         id="stop874" />
    </linearGradient>
  </defs>
  <metadata
     id="metadata5458">
    <rdf:RDF>
      <cc:Work
         rdf:about="">
        <dc:format>image/svg+xml</dc:format>
        <dc:type
           rdf:resource="http://purl.org/dc/dcmitype/StillImage" />
      </cc:Work>
    </rdf:RDF>
  </metadata>
  <g
     inkscape:label="Capa 1"
     inkscape:groupmode="layer"
     id="layer1"
     transform="translate(-384.57143,-515.798)">
    <g
       transform="matrix(0.36013848,0,0,0.37142583,359.81878,151.2823)"
       id="g4">
      <g
         transform="matrix(1.4808871,0,0,1.5383258,65.769148,-549.79125)"
         id="g19">
        <rect
           width="60"
           height="42"
           x="2"
           y="1002.36"
           rx="6.5219998"
           ry="6.5619998"
           style="opacity:0.85;fill:url(#linearGradient1493);fill-opacity:1;stroke:none"
           id="rect11" />
        <path
           d="m 8.522,1002.36 c -3.613,0 -6.522,3.3302 -6.522,6.1002 v 0.8998 c 0,-2.77 2.909,-5 6.522,-5 h 46.957 c 3.613,0 6.522,2.23 6.522,5 v -0.8998 c 0,-2.77 -2.909,-6.1002 -6.522,-6.1002 z"
           style="opacity:0.2;fill:#ffffff;fill-opacity:1;stroke:none"
           id="path13"
           sodipodi:nodetypes="sscsscsss" />
        <path
           d="m 8.522,1013.3603 h 10.435 c 14.348,-1.333 11.86095,-6.5781 20.991951,-6.5781 h 15.361736 c 3.612989,0 6.689313,1.4143 6.689313,5.1083 v 25.8035 c 0,3.693 -2.908,6.667 -6.521,6.667 H 8.522 c -3.613,0 -6.522,-2.973 -6.522,-6.667 v -18.667 c 0,-4 2.609,-5.6667 6.522,-5.6667 z"
           style="opacity:0.6;fill:url(#linearGradient1297);fill-opacity:1;stroke:none"
           id="path15"
           sodipodi:nodetypes="scsssssssss" />
        <path
           d="m 2,1035.03 v 2.667 c 0,3.693 2.909,6.667 6.522,6.667 h 46.957 c 3.613,0 6.522,-2.973 6.522,-6.667 v -2.667 c 0,3.693 -2.909,7.333 -6.522,7.333 H 8.522 c -3.613,0 -6.522,-3.64 -6.522,-7.333 z"
           style="opacity:0.15;fill:#000000;fill-opacity:1;stroke:none"
           id="path17" />
      </g>
      <rect
         y="1047.0884"
         x="124.26517"
         height="0.46154189"
         width="30.358727"
         id="rect4209"
         style="fill:#000000;fill-opacity:1;fill-rule:nonzero;stroke:none;stroke-width:0.577595;stroke-linecap:round;stroke-linejoin:round;stroke-miterlimit:4;stroke-dasharray:none;stroke-dashoffset:0;stroke-opacity:1" />
      <path
         d="m 102.35308,1030.0206 c -0.69183,-1.5969 -1.71287,-3.034 -2.964363,-4.2796 -1.284617,-1.2456 -2.766797,-2.2038 -4.413719,-2.8743 -1.713105,-0.7029 -3.524561,-1.086 -5.402172,-1.086 -1.877625,0 -3.689081,0.3831 -5.401936,1.0858 -1.646936,0.6708 -3.129116,1.6608 -4.413719,2.8743 -1.284617,1.2455 -2.272834,2.6827 -2.96436,4.2796 -0.724888,1.661 -1.120097,3.4174 -1.120097,5.238 0,1.8205 0.395195,3.5769 1.119861,5.2377 0.691817,1.5969 1.712869,3.034 2.96436,4.2796 1.284603,1.2456 2.766783,2.2038 4.413719,2.8743 1.712868,0.7026 3.524547,1.0539 5.401936,1.0539 1.877611,0 3.689067,-0.3513 5.401936,-1.0539 1.646922,-0.6708 3.129101,-1.6608 4.413718,-2.8743 1.284606,-1.2456 2.272826,-2.6827 2.964366,-4.2796 0.72465,-1.6608 1.08697,-3.4174 1.08697,-5.2377 4.7e-4,-1.8206 -0.36188,-3.577 -1.08657,-5.2378 z"
         id="path67"
         style="fill:url(#linearGradient878);fill-opacity:1;stroke-width:0.0579185" />
      <path
         d="m 89.554236,1027.1658 c -4.5944,0 -8.328103,3.6243 -8.328103,8.0791 0,3.2118 1.963426,6.1215 4.999897,7.4046 v 10e-5 c 0.127312,0.056 0.272173,0.06 0.402553,0.011 0.130505,-0.048 0.235451,-0.1455 0.291471,-0.2696 0.05595,-0.1241 0.05845,-0.2648 0.0069,-0.3906 -0.05179,-0.1258 -0.153163,-0.2263 -0.281822,-0.2791 -2.65931,-1.1237 -4.377511,-3.6641 -4.377511,-6.4769 0,-3.9093 3.255026,-7.0694 7.286836,-7.0694 4.031811,0 7.291001,3.1601 7.291001,7.0694 0,2.8113 -1.716256,5.3522 -4.373651,6.4769 -0.130783,0.051 -0.234632,0.1512 -0.287861,0.2779 -0.05317,0.1265 -0.05123,0.2686 0.0056,0.3938 0.05678,0.1251 0.163395,0.2226 0.29565,0.2701 0.132171,0.048 0.278559,0.041 0.405705,-0.018 3.034263,-1.2842 4.996037,-4.1905 4.996037,-7.4006 0,-4.4548 -3.737882,-8.079 -8.332281,-8.079 z m 0,3.2202 c -2.761341,0 -5.007033,2.1814 -5.007033,4.8589 0,1.3367 0.565616,2.615 1.567939,3.5325 l 1.25e-4,2e-4 c 0.135225,0.1238 0.32854,0.1682 0.50668,0.1164 0.178265,-0.052 0.314587,-0.1918 0.357487,-0.3673 0.04304,-0.1756 -0.01388,-0.36 -0.149331,-0.4838 -0.794431,-0.7274 -1.24162,-1.7388 -1.24162,-2.7981 0,-2.1318 1.76714,-3.8493 3.965766,-3.8493 2.198641,0 3.969932,1.7174 3.969932,3.8493 0,1.0599 -0.449508,2.0707 -1.24466,2.7981 -0.135226,0.1239 -0.192204,0.3082 -0.149207,0.4838 0.0429,0.1755 0.179084,0.3156 0.357363,0.3673 0.178278,0.052 0.371412,0.01 0.506805,-0.1164 1.00328,-0.9178 1.572034,-2.1953 1.572034,-3.5326 0,-2.6774 -2.250704,-4.8589 -5.012114,-4.8589 z m 0,2.5408 c -1.132731,0 -2.060111,0.8992 -2.060111,1.9977 0,1.0983 0.92738,2.0014 2.060111,2.0014 1.13273,0 2.064317,-0.9031 2.064317,-2.0014 0,-1.0983 -0.931462,-1.9977 -2.064317,-1.9977 z m 0,4.5088 c -1.144713,0 -2.078465,0.9103 -2.078465,2.0202 v 1.8447 c 0,1.11 0.93378,2.0193 2.078465,2.0193 1.144726,0 2.083587,-0.9093 2.083587,-2.0193 v -1.8447 c 0,-1.1099 -0.938889,-2.0202 -2.083587,-2.0202 z"
         id="path2-4"
         style="fill:#3a435f;fill-opacity:1;stroke-width:0.0292951" />
    </g>
  </g>
</svg>
