<?xml version="1.0" encoding="UTF-8" standalone="no"?>
<svg
   width="32"
   version="1.1"
   height="32"
   viewBox="0 0 32 32"
   id="svg17"
   sodipodi:docname="folder-templates.svg"
   inkscape:version="1.1.2 (0a00cf5339, 2022-02-04)"
   xmlns:inkscape="http://www.inkscape.org/namespaces/inkscape"
   xmlns:sodipodi="http://sodipodi.sourceforge.net/DTD/sodipodi-0.dtd"
   xmlns:xlink="http://www.w3.org/1999/xlink"
   xmlns="http://www.w3.org/2000/svg"
   xmlns:svg="http://www.w3.org/2000/svg"
   xmlns:rdf="http://www.w3.org/1999/02/22-rdf-syntax-ns#"
   xmlns:cc="http://creativecommons.org/ns#"
   xmlns:dc="http://purl.org/dc/elements/1.1/">
  <sodipodi:namedview
     pagecolor="#ffffff"
     bordercolor="#666666"
     borderopacity="1"
     objecttolerance="10"
     gridtolerance="10"
     guidetolerance="10"
     inkscape:pageopacity="0"
     inkscape:pageshadow="2"
     inkscape:window-width="1920"
     inkscape:window-height="1015"
     id="namedview19"
     showgrid="true"
     inkscape:zoom="9.8125"
     inkscape:cx="-11.210191"
     inkscape:cy="3.0063694"
     inkscape:window-x="0"
     inkscape:window-y="0"
     inkscape:window-maximized="1"
     inkscape:current-layer="layer1"
     inkscape:pagecheckerboard="0">
    <inkscape:grid
       type="xygrid"
       id="grid838" />
  </sodipodi:namedview>
  <defs
     id="defs5455">
    <linearGradient
       inkscape:collect="always"
       xlink:href="#linearGradient1295"
       id="linearGradient1493"
       gradientUnits="userSpaceOnUse"
       x1="20.750315"
       y1="1025.9873"
       x2="-12.062732"
       y2="995.35931" />
    <linearGradient
       inkscape:collect="always"
       id="linearGradient1295">
      <stop
         style="stop-color:#1d212f;stop-opacity:1;"
         offset="0"
         id="stop1291" />
      <stop
         style="stop-color:#717da8;stop-opacity:1"
         offset="1"
         id="stop1293" />
    </linearGradient>
    <linearGradient
       inkscape:collect="always"
       xlink:href="#linearGradient952"
       id="linearGradient1297"
       x1="2.0000021"
       y1="1025.9873"
       x2="62.938519"
       y2="1025.9873"
       gradientUnits="userSpaceOnUse" />
    <linearGradient
       inkscape:collect="always"
       id="linearGradient952">
      <stop
         style="stop-color:#2e354b;stop-opacity:1"
         offset="0"
         id="stop948" />
      <stop
         style="stop-color:#717da8;stop-opacity:1"
         offset="1"
         id="stop950" />
    </linearGradient>
    <linearGradient
       inkscape:collect="always"
       xlink:href="#linearGradient876"
       id="linearGradient878"
       x1="5"
       y1="40"
       x2="24.99983"
       y2="40"
       gradientUnits="userSpaceOnUse"
       gradientTransform="matrix(0.5,0,0,0.5,384.57141,515.798)" />
    <linearGradient
       inkscape:collect="always"
       id="linearGradient876">
      <stop
         style="stop-color:#404868;stop-opacity:1"
         offset="0"
         id="stop872" />
      <stop
         style="stop-color:#becad8;stop-opacity:1"
         offset="1"
         id="stop874" />
    </linearGradient>
  </defs>
  <metadata
     id="metadata5458">
    <rdf:RDF>
      <cc:Work
         rdf:about="">
        <dc:format>image/svg+xml</dc:format>
        <dc:type
           rdf:resource="http://purl.org/dc/dcmitype/StillImage" />
      </cc:Work>
    </rdf:RDF>
  </metadata>
  <g
     inkscape:label="Capa 1"
     inkscape:groupmode="layer"
     id="layer1"
     transform="translate(-384.57143,-515.798)">
    <g
       transform="matrix(0.53332446,0,0,0.57137396,383.50477,-52.924394)"
       id="g19">
      <rect
         width="60"
         height="42"
         x="2"
         y="1002.36"
         rx="6.5219998"
         ry="6.5619998"
         style="opacity:0.85;fill:url(#linearGradient1493);fill-opacity:1;stroke:none"
         id="rect11" />
      <path
         d="m 8.522,1002.36 c -3.613,0 -6.522,3.3302 -6.522,6.1002 v 0.8998 c 0,-2.77 2.909,-5 6.522,-5 h 46.957 c 3.613,0 6.522,2.23 6.522,5 v -0.8998 c 0,-2.77 -2.909,-6.1002 -6.522,-6.1002 z"
         style="opacity:0.2;fill:#ffffff;fill-opacity:1;stroke:none"
         id="path13"
         sodipodi:nodetypes="sscsscsss" />
      <path
         d="m 8.522,1013.3603 h 10.435 c 14.348,-1.333 11.86095,-6.5781 20.991951,-6.5781 h 15.361736 c 3.612989,0 6.689313,1.4143 6.689313,5.1083 v 25.8035 c 0,3.693 -2.908,6.667 -6.521,6.667 H 8.522 c -3.613,0 -6.522,-2.973 -6.522,-6.667 v -18.667 c 0,-4 2.609,-5.6667 6.522,-5.6667 z"
         style="opacity:0.6;fill:url(#linearGradient1297);fill-opacity:1;stroke:none"
         id="path15"
         sodipodi:nodetypes="scsssssssss" />
      <path
         d="m 2,1035.03 v 2.667 c 0,3.693 2.909,6.667 6.522,6.667 h 46.957 c 3.613,0 6.522,-2.973 6.522,-6.667 v -2.667 c 0,3.693 -2.909,7.333 -6.522,7.333 H 8.522 c -3.613,0 -6.522,-3.64 -6.522,-7.333 z"
         style="opacity:0.15;fill:#000000;fill-opacity:1;stroke:none"
         id="path17" />
    </g>
    <rect
       y="540.19806"
       x="404.57144"
       height="0.17142858"
       width="10.933346"
       id="rect4209"
       style="fill:#000000;fill-opacity:1;fill-rule:nonzero;stroke:none;stroke-width:0.211249;stroke-linecap:round;stroke-linejoin:round;stroke-miterlimit:4;stroke-dasharray:none;stroke-dashoffset:0;stroke-opacity:1" />
    <path
       d="m 396.68004,533.85851 c -0.24915,-0.59312 -0.61687,-1.12691 -1.06758,-1.58954 -0.46264,-0.46264 -0.99643,-0.81854 -1.58955,-1.06758 -0.61695,-0.26106 -1.26933,-0.40339 -1.94553,-0.40339 -0.6762,0 -1.32858,0.14232 -1.94544,0.4033 -0.59313,0.24915 -1.12692,0.61687 -1.58955,1.06758 -0.46264,0.46264 -0.81854,0.99643 -1.06758,1.58955 -0.26106,0.61696 -0.40339,1.26933 -0.40339,1.94553 0,0.6762 0.14232,1.32858 0.4033,1.94545 0.24915,0.59312 0.61687,1.12691 1.06758,1.58955 0.46264,0.46263 0.99643,0.81853 1.58955,1.06758 0.61687,0.26097 1.26933,0.39146 1.94545,0.39146 0.6762,0 1.32857,-0.13049 1.94544,-0.39146 0.59312,-0.24916 1.12691,-0.61687 1.58955,-1.06758 0.46264,-0.46264 0.81853,-0.99643 1.06758,-1.58955 0.26098,-0.61687 0.39146,-1.26933 0.39146,-1.94545 1.7e-4,-0.6762 -0.13032,-1.32857 -0.39131,-1.94545 z"
       id="path67"
       style="fill:url(#linearGradient878);fill-opacity:1;stroke-width:0.021183" />
    <path
       d="m 391.22426,534.18656 h 3.83447 v -1.13373 c 0,-0.14012 -0.11465,-0.25477 -0.25477,-0.25477 l -3.57972,-4e-5 z"
       id="path19"
       style="fill:#3a435f;fill-opacity:1;stroke-width:0.0109191" />
    <path
       d="m 391.22426,534.68338 h 3.83447 v 0.86624 h -3.83447 z"
       id="path21"
       style="fill:#3a435f;fill-opacity:1;stroke-width:0.0109191" />
    <path
       d="m 391.22426,536.04642 h 3.83447 v 0.86624 h -3.83447 z"
       id="path23"
       style="fill:#3a435f;fill-opacity:1;stroke-width:0.0109191" />
    <path
       d="m 391.22426,537.39679 v 1.38859 h 3.57962 c 0.14011,0 0.25476,-0.11466 0.25476,-0.25477 v -1.13373 z"
       id="path25"
       style="fill:#3a435f;fill-opacity:1;stroke-width:0.0109191" />
    <path
       d="m 390.72744,532.798 h -1.40126 c -0.14011,0 -0.25476,0.11465 -0.25476,0.25476 v 5.49047 c 0,0.14012 0.11465,0.25477 0.25476,0.25477 h 1.40126 z"
       id="path27"
       style="fill:#3a435f;fill-opacity:1;stroke-width:0.0109191" />
  </g>
</svg>
