<?xml version="1.0" encoding="UTF-8" standalone="no"?>
<svg
   width="32"
   version="1.1"
   height="32"
   viewBox="0 0 32 32"
   id="svg15"
   sodipodi:docname="folder-openSUSE.svg"
   inkscape:version="1.1.2 (0a00cf5339, 2022-02-04)"
   xmlns:inkscape="http://www.inkscape.org/namespaces/inkscape"
   xmlns:sodipodi="http://sodipodi.sourceforge.net/DTD/sodipodi-0.dtd"
   xmlns:xlink="http://www.w3.org/1999/xlink"
   xmlns="http://www.w3.org/2000/svg"
   xmlns:svg="http://www.w3.org/2000/svg"
   xmlns:rdf="http://www.w3.org/1999/02/22-rdf-syntax-ns#"
   xmlns:cc="http://creativecommons.org/ns#"
   xmlns:dc="http://purl.org/dc/elements/1.1/">
  <sodipodi:namedview
     pagecolor="#ffffff"
     bordercolor="#666666"
     borderopacity="1"
     objecttolerance="10"
     gridtolerance="10"
     guidetolerance="10"
     inkscape:pageopacity="0"
     inkscape:pageshadow="2"
     inkscape:window-width="1920"
     inkscape:window-height="1015"
     id="namedview17"
     showgrid="false"
     inkscape:zoom="9.8125"
     inkscape:cx="-21.401274"
     inkscape:cy="0.45859873"
     inkscape:window-x="0"
     inkscape:window-y="0"
     inkscape:window-maximized="1"
     inkscape:current-layer="layer1"
     inkscape:document-rotation="0"
     inkscape:pagecheckerboard="0" />
  <defs
     id="defs5455">
    <linearGradient
       inkscape:collect="always"
       xlink:href="#linearGradient1295"
       id="linearGradient1493"
       gradientUnits="userSpaceOnUse"
       x1="20.750315"
       y1="1025.9873"
       x2="-12.062732"
       y2="995.35931" />
    <linearGradient
       inkscape:collect="always"
       id="linearGradient1295">
      <stop
         style="stop-color:#1d212f;stop-opacity:1;"
         offset="0"
         id="stop1291" />
      <stop
         style="stop-color:#717da8;stop-opacity:1"
         offset="1"
         id="stop1293" />
    </linearGradient>
    <linearGradient
       inkscape:collect="always"
       xlink:href="#linearGradient952"
       id="linearGradient1297"
       x1="2.0000021"
       y1="1025.9873"
       x2="62.938519"
       y2="1025.9873"
       gradientUnits="userSpaceOnUse" />
    <linearGradient
       inkscape:collect="always"
       id="linearGradient952">
      <stop
         style="stop-color:#2e354b;stop-opacity:1"
         offset="0"
         id="stop948" />
      <stop
         style="stop-color:#717da8;stop-opacity:1"
         offset="1"
         id="stop950" />
    </linearGradient>
    <linearGradient
       inkscape:collect="always"
       xlink:href="#linearGradient879"
       id="linearGradient881"
       x1="389.57144"
       y1="523.79797"
       x2="409.57126"
       y2="523.79797"
       gradientUnits="userSpaceOnUse"
       gradientTransform="matrix(0.5,0,0,0.5,192.28571,273.899)" />
    <linearGradient
       inkscape:collect="always"
       id="linearGradient879">
      <stop
         style="stop-color:#404868;stop-opacity:1"
         offset="0"
         id="stop875" />
      <stop
         style="stop-color:#becad8;stop-opacity:1"
         offset="1"
         id="stop877" />
    </linearGradient>
  </defs>
  <metadata
     id="metadata5458">
    <rdf:RDF>
      <cc:Work
         rdf:about="">
        <dc:format>image/svg+xml</dc:format>
        <dc:type
           rdf:resource="http://purl.org/dc/dcmitype/StillImage" />
      </cc:Work>
    </rdf:RDF>
  </metadata>
  <g
     inkscape:label="Capa 1"
     inkscape:groupmode="layer"
     id="layer1"
     transform="translate(-384.57143,-515.798)">
    <g
       transform="matrix(0.53332446,0,0,0.57137396,383.50478,-52.924394)"
       id="g19">
      <rect
         width="60"
         height="42"
         x="2"
         y="1002.36"
         rx="6.5219998"
         ry="6.5619998"
         style="opacity:0.85;fill:url(#linearGradient1493);fill-opacity:1;stroke:none"
         id="rect11" />
      <path
         d="m 8.522,1002.36 c -3.613,0 -6.522,3.3302 -6.522,6.1002 v 0.8998 c 0,-2.77 2.909,-5 6.522,-5 h 46.957 c 3.613,0 6.522,2.23 6.522,5 v -0.8998 c 0,-2.77 -2.909,-6.1002 -6.522,-6.1002 z"
         style="opacity:0.2;fill:#ffffff;fill-opacity:1;stroke:none"
         id="path13"
         sodipodi:nodetypes="sscsscsss" />
      <path
         d="m 8.522,1013.3603 h 10.435 c 14.348,-1.333 11.86095,-6.5781 20.991951,-6.5781 h 15.361736 c 3.612989,0 6.689313,1.4143 6.689313,5.1083 v 25.8035 c 0,3.693 -2.908,6.667 -6.521,6.667 H 8.522 c -3.613,0 -6.522,-2.973 -6.522,-6.667 v -18.667 c 0,-4 2.609,-5.6667 6.522,-5.6667 z"
         style="opacity:0.6;fill:url(#linearGradient1297);fill-opacity:1;stroke:none"
         id="path15"
         sodipodi:nodetypes="scsssssssss" />
      <path
         d="m 2,1035.03 v 2.667 c 0,3.693 2.909,6.667 6.522,6.667 h 46.957 c 3.613,0 6.522,-2.973 6.522,-6.667 v -2.667 c 0,3.693 -2.909,7.333 -6.522,7.333 H 8.522 c -3.613,0 -6.522,-3.64 -6.522,-7.333 z"
         style="opacity:0.15;fill:#000000;fill-opacity:1;stroke:none"
         id="path17" />
    </g>
    <rect
       y="540.19934"
       x="404.57144"
       height="0.17142858"
       width="10.933346"
       id="rect4209"
       style="fill:#000000;fill-opacity:1;fill-rule:nonzero;stroke:none;stroke-width:0.211249;stroke-linecap:round;stroke-linejoin:round;stroke-miterlimit:4;stroke-dasharray:none;stroke-dashoffset:0;stroke-opacity:1" />
    <path
       d="m 396.68005,533.85851 c -0.24915,-0.59312 -0.61687,-1.12691 -1.06758,-1.58954 -0.46264,-0.46264 -0.99643,-0.81854 -1.58955,-1.06758 -0.61695,-0.26106 -1.26933,-0.40339 -1.94553,-0.40339 -0.6762,0 -1.32858,0.14232 -1.94544,0.4033 -0.59313,0.24915 -1.12692,0.61687 -1.58955,1.06758 -0.46264,0.46264 -0.81854,0.99643 -1.06758,1.58955 -0.26106,0.61696 -0.40339,1.26933 -0.40339,1.94553 0,0.6762 0.14232,1.32858 0.4033,1.94545 0.24915,0.59312 0.61687,1.12691 1.06758,1.58955 0.46264,0.46263 0.99643,0.81853 1.58955,1.06758 0.61687,0.26097 1.26933,0.39146 1.94545,0.39146 0.6762,0 1.32857,-0.13049 1.94544,-0.39146 0.59312,-0.24916 1.12691,-0.61687 1.58955,-1.06758 0.46264,-0.46264 0.81853,-0.99643 1.06758,-1.58955 0.26098,-0.61687 0.39146,-1.26933 0.39146,-1.94545 1.7e-4,-0.6762 -0.13032,-1.32857 -0.39131,-1.94545 z"
       id="path67"
       style="fill:url(#linearGradient881);fill-opacity:1;stroke-width:0.021183" />
    <g
       id="layer1-6"
       transform="matrix(0.015625,0,0,0.015625,386.49707,523.17024)">
      <g
         id="g3159"
         transform="matrix(1.8062188,0,0,1.8062258,100.75924,484.95513)">
        <g
           id="layer1-5"
           transform="matrix(0.99071795,0,0,0.99071412,-56.411093,27.590531)">
          <g
             transform="translate(3.1482707,1.2467651)"
             id="g4630">
            <path
               id="path1977"
               d="m 309.61748,124.88764 c -6.67349,-0.24506 -11.91193,-5.87066 -11.68904,-12.55371 0.10278,-3.23558 1.48587,-6.22627 3.83626,-8.43436 2.3599,-2.20746 5.4422,-3.3565 8.67779,-3.23478 6.68303,0.23388 11.92293,5.85011 11.69843,12.54335 -0.10116,3.22539 -1.46532,6.21591 -3.82525,8.43356 -2.37091,2.19789 -5.45322,3.3471 -8.69836,3.24594 z m 2.80877,-10.97768 c 2.97011,0 5.38054,-1.60678 5.38054,-3.58018 0,-1.98376 -2.41057,-3.59136 -5.38054,-3.59136 -2.9716,0 -5.37263,1.6076 -5.37263,3.59136 0,1.9734 2.40103,3.58018 5.37263,3.58018"
               style="fill:#2e354b;fill-opacity:1;fill-rule:nonzero;stroke:none" />
            <path
               id="path1979"
               d="m 171.68177,200.08366 0.45634,-0.0425 0.0737,-0.54035 c -0.11691,-0.42426 -0.39207,-0.80551 -0.81718,-6.06503 -0.36084,-4.65488 -1.0923,-17.42015 5.33273,-23.75041 2.49251,-2.47042 6.29823,-4.66552 9.29989,-5.37558 12.30975,-3.00079 28.28835,-0.92264 41.93407,14.85507 7.04112,8.1532 10.49759,11.87488 12.22572,13.53962 l 0.59315,0.55112 0.72155,0.51977 c 0.56173,0.318 23.45298,10.85741 23.45298,10.85741 l 0.46628,-0.11689 0.0118,-0.49748 c -0.14829,-0.16972 -14.5042,-18.7151 -11.96041,-33.99344 2.01475,-12.1721 11.70517,-11.07999 25.09729,-9.55359 4.3789,0.49832 9.36246,1.07091 14.51567,1.18783 14.38713,0.0849 29.8897,-2.5551 39.44328,-6.73313 6.18127,-2.70338 10.1253,-4.48516 12.59639,-6.73312 0.88955,-0.73147 1.35583,-1.93985 1.83356,-3.21247 l 0.32948,-0.85835 c 0.402,-1.02892 0.98521,-3.23399 1.24063,-4.43241 0.11688,-0.5297 0.16968,-1.10292 -0.20262,-1.38871 l -1.32464,0.24376 c -4.18777,2.51308 -14.67541,7.30564 -24.49265,7.49665 -12.16151,0.25369 -36.67544,-12.2364 -39.23072,-13.56189 l -0.24376,-0.28577 c -0.61609,-1.46379 -4.29491,-10.16885 -5.0692,-12.00238 17.64418,11.62026 32.27505,18.04616 43.48272,19.04287 12.46952,1.11287 22.19279,-5.69363 26.3492,-8.59976 0.8155,-0.55111 1.43157,-0.99665 1.6853,-1.09147 l 0.26519,-0.43492 c -0.6903,-4.37892 -7.21086,-25.58484 -12.13009,-30.674646 -1.36732,-1.399495 -2.45963,-2.756178 -4.66553,-4.050283 C 315.1282,83.992482 272.81184,77.714868 270.82998,77.429088 l -0.33942,0.09546 -0.12687,0.296569 c 0,0 -0.15974,8.779249 -0.18117,9.75534 C 265.85625,86.134018 234.44117,75.986625 204.9847,74.958582 180.01616,74.078651 145.90582,72.890846 97.704717,102.51532 l -1.420966,0.89041 c -22.66885,14.1442 -38.31885,31.57584 -46.504103,51.84849 -2.56591,6.3723 -6.022206,20.76112 -2.60876,34.30067 1.484383,5.92759 4.230624,11.86493 7.942335,17.18789 8.365762,12.02314 22.414314,20.00831 37.544555,21.3542 21.354222,1.90779 37.534602,-7.68694 43.291592,-25.64913 3.95461,-12.39461 0,-30.57829 -15.1623,-39.85589 -12.33122,-7.56009 -25.606244,-5.8319 -33.293325,-0.75286 -6.67963,4.43167 -10.464542,11.30227 -10.390486,18.86248 0.148283,13.39131 11.695204,20.51649 19.986932,20.52726 2.416701,0 4.834319,-0.41347 7.569999,-1.30387 0.96542,-0.29742 1.88723,-0.65726 2.89448,-1.28331 l 0.30805,-0.20089 0.20097,-0.11693 -0.0737,0.0322 c 1.8979,-1.27265 3.04283,-3.37144 3.04283,-5.6195 0,-0.61523 -0.0959,-1.2406 -0.26519,-1.86646 -0.97527,-3.38225 -4.3263,-5.43906 -7.80399,-4.80323 l -0.46631,0.0959 -0.63599,0.2117 -0.92261,0.30805 c -1.908443,0.47694 -3.350873,0.50918 -3.647389,0.51894 -0.97528,-0.0637 -5.757868,-1.49415 -5.757868,-6.73229 v -0.0637 c 0.0115,-1.91929 0.784955,-3.26599 1.209225,-3.99749 1.473598,-2.33278 5.545279,-4.6227 11.047742,-4.13515 7.21084,0.61458 12.40608,4.31551 15.85172,11.29238 3.20259,6.48846 2.36504,14.46219 -2.15241,20.31467 -4.48517,5.80073 -12.46865,8.26033 -23.093134,7.10372 -10.709153,-1.17634 -19.763545,-7.33688 -24.831915,-16.93242 -4.962106,-9.37326 -5.238099,-20.4959 -0.710059,-29.04113 10.84682,-20.46386 31.320388,-20.2521 42.549488,-18.31143 16.62524,2.87312 31.7133,16.17958 38.425,33.87658 1.07088,2.82045 1.62186,5.05757 2.09877,7.09307 l 0.72153,3.06428 18.77686,9.17128 0.25538,0.18034 4.9e-4,-1.7e-4 z M 305.1514,100.20399 c -3.54033,3.28656 -5.56673,7.77172 -5.73645,12.60701 -0.32778,9.96619 7.49749,18.36401 17.46303,18.73566 4.85667,0.15889 9.4579,-1.54865 12.98843,-4.85664 3.53053,-3.29744 5.55679,-7.77182 5.73642,-12.59644 0.33943,-9.97701 -7.48597,-18.385434 -17.47278,-18.745464 -4.83523,-0.15888 -9.44814,1.547863 -12.97865,4.855874"
               style="fill:#2e354b;fill-opacity:1;fill-rule:evenodd;stroke:none;stroke-width:1.0625" />
            <path
               style="fill:#2e354b;fill-opacity:1;stroke:none"
               d="m 270.6588,195.86516 h -0.1974 c -0.22816,0 -0.42595,-0.1978 -0.42595,-0.42595 v -3.05689 l -0.66932,1.01895 c -0.0759,0.10628 -0.21299,0.15186 -0.33447,0.15186 h -0.0763 c -0.12148,0 -0.25853,-0.0456 -0.33446,-0.15186 l -0.6845,-1.01895 v 3.05689 c 0,0.22815 -0.1978,0.42595 -0.44114,0.42595 h -0.19742 c -0.22816,0 -0.42595,-0.1978 -0.42595,-0.42595 v -3.65028 h -2.05351 v 3.65028 c 0,0.22815 -0.21298,0.42595 -0.45593,0.42595 h -0.18262 c -0.22817,0 -0.42597,-0.1978 -0.42597,-0.42595 v -3.65028 h -1.53603 c -0.22815,0 -0.41076,-0.15225 -0.41076,-0.39522 v -0.21296 c 0,-0.24336 0.18261,-0.3956 0.41076,-0.3956 h 5.38411 c 0.21298,0 0.34965,0.0759 0.42597,0.1978 l 1.01895,1.53603 1.01897,-1.53603 c 0.0759,-0.10669 0.19779,-0.1978 0.42596,-0.1978 h 0.6845 v 4.68443 c 0,0.22815 -0.21298,0.42595 -0.45633,0.42595"
               id="path2095" />
          </g>
        </g>
      </g>
    </g>
  </g>
</svg>
