<?xml version="1.0" encoding="UTF-8" standalone="no"?>
<svg
   width="32"
   version="1.1"
   height="32"
   viewBox="0 0 32 32"
   id="svg17"
   sodipodi:docname="folder-network.svg"
   inkscape:version="1.1.2 (0a00cf5339, 2022-02-04)"
   xmlns:inkscape="http://www.inkscape.org/namespaces/inkscape"
   xmlns:sodipodi="http://sodipodi.sourceforge.net/DTD/sodipodi-0.dtd"
   xmlns:xlink="http://www.w3.org/1999/xlink"
   xmlns="http://www.w3.org/2000/svg"
   xmlns:svg="http://www.w3.org/2000/svg"
   xmlns:rdf="http://www.w3.org/1999/02/22-rdf-syntax-ns#"
   xmlns:cc="http://creativecommons.org/ns#"
   xmlns:dc="http://purl.org/dc/elements/1.1/">
  <sodipodi:namedview
     pagecolor="#ffffff"
     bordercolor="#666666"
     borderopacity="1"
     objecttolerance="10"
     gridtolerance="10"
     guidetolerance="10"
     inkscape:pageopacity="0"
     inkscape:pageshadow="2"
     inkscape:window-width="1920"
     inkscape:window-height="1015"
     id="namedview19"
     showgrid="false"
     inkscape:zoom="9.8125"
     inkscape:cx="-19.770701"
     inkscape:cy="5.5541401"
     inkscape:window-x="0"
     inkscape:window-y="0"
     inkscape:window-maximized="1"
     inkscape:current-layer="layer1"
     inkscape:pagecheckerboard="0" />
  <defs
     id="defs5455">
    <linearGradient
       inkscape:collect="always"
       xlink:href="#linearGradient1295"
       id="linearGradient1493"
       gradientUnits="userSpaceOnUse"
       x1="20.750315"
       y1="1025.9873"
       x2="-12.062732"
       y2="995.35931" />
    <linearGradient
       inkscape:collect="always"
       id="linearGradient1295">
      <stop
         style="stop-color:#1d212f;stop-opacity:1;"
         offset="0"
         id="stop1291" />
      <stop
         style="stop-color:#717da8;stop-opacity:1"
         offset="1"
         id="stop1293" />
    </linearGradient>
    <linearGradient
       inkscape:collect="always"
       xlink:href="#linearGradient952"
       id="linearGradient1297"
       x1="2.0000021"
       y1="1025.9873"
       x2="62.938519"
       y2="1025.9873"
       gradientUnits="userSpaceOnUse" />
    <linearGradient
       inkscape:collect="always"
       id="linearGradient952">
      <stop
         style="stop-color:#2e354b;stop-opacity:1"
         offset="0"
         id="stop948" />
      <stop
         style="stop-color:#717da8;stop-opacity:1"
         offset="1"
         id="stop950" />
    </linearGradient>
    <linearGradient
       inkscape:collect="always"
       xlink:href="#linearGradient1052"
       id="linearGradient1054"
       x1="389.57144"
       y1="523.79797"
       x2="409.57144"
       y2="523.79797"
       gradientUnits="userSpaceOnUse"
       gradientTransform="matrix(0.5,0,0,0.5,192.28572,273.899)" />
    <linearGradient
       inkscape:collect="always"
       id="linearGradient1052">
      <stop
         style="stop-color:#404868;stop-opacity:1"
         offset="0"
         id="stop1048" />
      <stop
         style="stop-color:#becad8;stop-opacity:1"
         offset="1"
         id="stop1050" />
    </linearGradient>
  </defs>
  <metadata
     id="metadata5458">
    <rdf:RDF>
      <cc:Work
         rdf:about="">
        <dc:format>image/svg+xml</dc:format>
        <dc:type
           rdf:resource="http://purl.org/dc/dcmitype/StillImage" />
      </cc:Work>
    </rdf:RDF>
  </metadata>
  <g
     inkscape:label="Capa 1"
     inkscape:groupmode="layer"
     id="layer1"
     transform="translate(-384.57143,-515.798)">
    <g
       transform="matrix(0.53332446,0,0,0.57137396,383.50478,-52.924394)"
       id="g19">
      <rect
         width="60"
         height="42"
         x="2"
         y="1002.36"
         rx="6.5219998"
         ry="6.5619998"
         style="opacity:0.85;fill:url(#linearGradient1493);fill-opacity:1;stroke:none"
         id="rect11" />
      <path
         d="m 8.522,1002.36 c -3.613,0 -6.522,3.3302 -6.522,6.1002 v 0.8998 c 0,-2.77 2.909,-5 6.522,-5 h 46.957 c 3.613,0 6.522,2.23 6.522,5 v -0.8998 c 0,-2.77 -2.909,-6.1002 -6.522,-6.1002 z"
         style="opacity:0.2;fill:#ffffff;fill-opacity:1;stroke:none"
         id="path13"
         sodipodi:nodetypes="sscsscsss" />
      <path
         d="m 8.522,1013.3603 h 10.435 c 14.348,-1.333 11.86095,-6.5781 20.991951,-6.5781 h 15.361736 c 3.612989,0 6.689313,1.4143 6.689313,5.1083 v 25.8035 c 0,3.693 -2.908,6.667 -6.521,6.667 H 8.522 c -3.613,0 -6.522,-2.973 -6.522,-6.667 v -18.667 c 0,-4 2.609,-5.6667 6.522,-5.6667 z"
         style="opacity:0.6;fill:url(#linearGradient1297);fill-opacity:1;stroke:none"
         id="path15"
         sodipodi:nodetypes="scsssssssss" />
      <path
         d="m 2,1035.03 v 2.667 c 0,3.693 2.909,6.667 6.522,6.667 h 46.957 c 3.613,0 6.522,-2.973 6.522,-6.667 v -2.667 c 0,3.693 -2.909,7.333 -6.522,7.333 H 8.522 c -3.613,0 -6.522,-3.64 -6.522,-7.333 z"
         style="opacity:0.15;fill:#000000;fill-opacity:1;stroke:none"
         id="path17" />
    </g>
    <rect
       y="540.19824"
       x="404.57141"
       height="0.17142858"
       width="10.933346"
       id="rect4209"
       style="fill:#000000;fill-opacity:1;fill-rule:nonzero;stroke:none;stroke-width:0.211249;stroke-linecap:round;stroke-linejoin:round;stroke-miterlimit:4;stroke-dasharray:none;stroke-dashoffset:0;stroke-opacity:1" />
    <path
       d="m 392.07143,530.798 c -2.7619,0 -5,2.23809 -5,5 0,2.7619 2.2381,5 5,5 2.76191,0 5,-2.2381 5,-5 0,-2.76191 -2.23809,-5 -5,-5 z m 3.2381,6.86904 c -0.33334,-0.0714 -0.54766,-0.38099 -0.51186,-0.71432 l -1.77384,-0.61907 c -0.11908,0.22621 -0.32145,0.38099 -0.55952,0.46428 l 0.23807,1.52381 c 0.0239,0 0.0596,0 0.0834,0.0119 0.35717,0.0714 0.58336,0.42857 0.50001,0.78574 -0.0714,0.35716 -0.42858,0.58335 -0.78574,0.5 -0.35717,-0.0714 -0.58336,-0.42857 -0.5,-0.78574 0.0476,-0.21424 0.20237,-0.39285 0.39286,-0.46428 l -0.23807,-1.51193 c -0.0714,0 -0.13097,-0.0119 -0.20237,-0.0238 -0.20238,-0.0476 -0.36903,-0.14283 -0.50001,-0.28573 l -1.70234,1.15476 c 0.0476,0.11908 0.0595,0.23807 0.0239,0.36902 -0.0714,0.35717 -0.42857,0.58336 -0.78574,0.50001 -0.35715,-0.0714 -0.58335,-0.42858 -0.5,-0.78574 0.0714,-0.35717 0.42858,-0.58336 0.78575,-0.5 0.11907,0.0238 0.2262,0.0834 0.30949,0.15478 l 1.70234,-1.15476 c -0.0595,-0.11908 -0.0834,-0.23807 -0.0953,-0.36902 l -1.08335,-0.13096 c -0.10713,0.29762 -0.42857,0.48812 -0.75002,0.41671 -0.35717,-0.0714 -0.58336,-0.42857 -0.5,-0.78574 0.0714,-0.35716 0.42857,-0.58335 0.78573,-0.5 0.28574,0.0595 0.48812,0.29762 0.51186,0.57141 l 1.08336,0.13096 c 0.0834,-0.27379 0.27379,-0.48812 0.51186,-0.60712 l -0.51186,-1.72609 c -0.0595,0 -0.11908,0 -0.16666,-0.0119 -0.35717,-0.0714 -0.58336,-0.42857 -0.5,-0.78573 0.0714,-0.35717 0.42857,-0.58336 0.78573,-0.50001 0.35717,0.0714 0.58336,0.42858 0.50001,0.78574 -0.0357,0.19049 -0.1548,0.3452 -0.32145,0.42857 l 0.49999,1.70234 c 0.10713,-0.0119 0.21425,-0.0119 0.33334,0.0119 0.1905,0.0357 0.34519,0.13095 0.47614,0.25004 l 1.42856,-1.07139 c -0.0476,-0.11908 -0.0714,-0.2619 -0.0357,-0.40474 0.0714,-0.35716 0.42856,-0.58335 0.78573,-0.5 0.35716,0.0714 0.58336,0.42857 0.5,0.78574 -0.0714,0.35716 -0.42857,0.58335 -0.78574,0.5 -0.10712,-0.0238 -0.20236,-0.0714 -0.28573,-0.14283 l -1.42855,1.07138 c 0.0952,0.1905 0.13096,0.40474 0.0952,0.61907 l 1.77384,0.61907 c 0.14283,-0.22621 0.4167,-0.34519 0.69048,-0.28573 0.35716,0.0714 0.58335,0.42857 0.5,0.78573 -0.0714,0.36894 -0.41663,0.59515 -0.77378,0.52375 z"
       id="path67"
       style="fill:url(#linearGradient1054);fill-opacity:1;stroke-width:0.0212585" />
  </g>
</svg>
