<?xml version="1.0" encoding="UTF-8" standalone="no"?>
<svg
   id="svg2"
   viewBox="0 0 32 32"
   height="32"
   version="1.1"
   width="32"
   sodipodi:docname="folder-unlocked.svg"
   inkscape:version="1.1.2 (0a00cf5339, 2022-02-04)"
   xmlns:inkscape="http://www.inkscape.org/namespaces/inkscape"
   xmlns:sodipodi="http://sodipodi.sourceforge.net/DTD/sodipodi-0.dtd"
   xmlns:xlink="http://www.w3.org/1999/xlink"
   xmlns="http://www.w3.org/2000/svg"
   xmlns:svg="http://www.w3.org/2000/svg"
   xmlns:rdf="http://www.w3.org/1999/02/22-rdf-syntax-ns#"
   xmlns:cc="http://creativecommons.org/ns#"
   xmlns:dc="http://purl.org/dc/elements/1.1/">
  <sodipodi:namedview
     pagecolor="#ffffff"
     bordercolor="#666666"
     borderopacity="1"
     objecttolerance="10"
     gridtolerance="10"
     guidetolerance="10"
     inkscape:pageopacity="0"
     inkscape:pageshadow="2"
     inkscape:window-width="1920"
     inkscape:window-height="1015"
     id="namedview18"
     showgrid="false"
     inkscape:zoom="9.8125"
     inkscape:cx="-8.0509554"
     inkscape:cy="2.9044586"
     inkscape:window-x="0"
     inkscape:window-y="0"
     inkscape:window-maximized="1"
     inkscape:current-layer="svg2"
     inkscape:pagecheckerboard="0" />
  <defs
     id="defs5455">
    <linearGradient
       id="linearGradient4172-5">
      <stop
         id="stop4174-6"
         style="stop-color:#3daee9" />
      <stop
         id="stop4176-6"
         style="stop-color:#6cc1ef"
         offset="1" />
    </linearGradient>
    <linearGradient
       x2="0"
       gradientUnits="userSpaceOnUse"
       y2="8"
       y1="29"
       xlink:href="#linearGradient4172-5"
       id="linearGradient4342" />
    <linearGradient
       inkscape:collect="always"
       xlink:href="#linearGradient1295"
       id="linearGradient1493"
       gradientUnits="userSpaceOnUse"
       x1="20.750315"
       y1="1025.9873"
       x2="-12.062732"
       y2="995.35931" />
    <linearGradient
       inkscape:collect="always"
       id="linearGradient1295">
      <stop
         style="stop-color:#1d212f;stop-opacity:1;"
         offset="0"
         id="stop1291" />
      <stop
         style="stop-color:#717da8;stop-opacity:1"
         offset="1"
         id="stop1293" />
    </linearGradient>
    <linearGradient
       inkscape:collect="always"
       xlink:href="#linearGradient952"
       id="linearGradient1297"
       x1="2.0000021"
       y1="1025.9873"
       x2="62.938519"
       y2="1025.9873"
       gradientUnits="userSpaceOnUse" />
    <linearGradient
       inkscape:collect="always"
       id="linearGradient952">
      <stop
         style="stop-color:#2e354b;stop-opacity:1"
         offset="0"
         id="stop948" />
      <stop
         style="stop-color:#717da8;stop-opacity:1"
         offset="1"
         id="stop950" />
    </linearGradient>
    <linearGradient
       inkscape:collect="always"
       xlink:href="#linearGradient1132"
       id="linearGradient878"
       x1="389.57144"
       y1="523.79797"
       x2="409.57126"
       y2="523.79797"
       gradientUnits="userSpaceOnUse"
       gradientTransform="matrix(0.5,0,0,0.5,-192.28571,-241.89897)" />
    <linearGradient
       inkscape:collect="always"
       id="linearGradient1132">
      <stop
         style="stop-color:#404868;stop-opacity:1"
         offset="0"
         id="stop1128" />
      <stop
         style="stop-color:#becad8;stop-opacity:1"
         offset="1"
         id="stop1130" />
    </linearGradient>
  </defs>
  <metadata
     id="metadata5458">
    <rdf:RDF>
      <cc:Work
         rdf:about="">
        <dc:format>image/svg+xml</dc:format>
        <dc:type
           rdf:resource="http://purl.org/dc/dcmitype/StillImage" />
      </cc:Work>
    </rdf:RDF>
  </metadata>
  <g
     transform="matrix(0.53332446,0,0,0.57137396,-1.0666489,-568.72239)"
     id="g19">
    <rect
       width="60"
       height="42"
       x="2"
       y="1002.36"
       rx="6.5219998"
       ry="6.5619998"
       style="opacity:0.85;fill:url(#linearGradient1493);fill-opacity:1;stroke:none"
       id="rect11" />
    <path
       d="m 8.522,1002.36 c -3.613,0 -6.522,3.3302 -6.522,6.1002 v 0.8998 c 0,-2.77 2.909,-5 6.522,-5 h 46.957 c 3.613,0 6.522,2.23 6.522,5 v -0.8998 c 0,-2.77 -2.909,-6.1002 -6.522,-6.1002 z"
       style="opacity:0.2;fill:#ffffff;fill-opacity:1;stroke:none"
       id="path13"
       sodipodi:nodetypes="sscsscsss" />
    <path
       d="m 8.522,1013.3603 h 10.435 c 14.348,-1.333 11.86095,-6.5781 20.991951,-6.5781 h 15.361736 c 3.612989,0 6.689313,1.4143 6.689313,5.1083 v 25.8035 c 0,3.693 -2.908,6.667 -6.521,6.667 H 8.522 c -3.613,0 -6.522,-2.973 -6.522,-6.667 v -18.667 c 0,-4 2.609,-5.6667 6.522,-5.6667 z"
       style="opacity:0.6;fill:url(#linearGradient1297);fill-opacity:1;stroke:none"
       id="path15"
       sodipodi:nodetypes="scsssssssss" />
    <path
       d="m 2,1035.03 v 2.667 c 0,3.693 2.909,6.667 6.522,6.667 h 46.957 c 3.613,0 6.522,-2.973 6.522,-6.667 v -2.667 c 0,3.693 -2.909,7.333 -6.522,7.333 H 8.522 c -3.613,0 -6.522,-3.64 -6.522,-7.333 z"
       style="opacity:0.15;fill:#000000;fill-opacity:1;stroke:none"
       id="path17" />
  </g>
  <rect
     y="24.400122"
     x="20.000008"
     height="0.17142858"
     width="10.933346"
     id="rect4209"
     style="fill:#000000;fill-opacity:1;fill-rule:nonzero;stroke:none;stroke-width:0.211249;stroke-linecap:round;stroke-linejoin:round;stroke-miterlimit:4;stroke-dasharray:none;stroke-dashoffset:0;stroke-opacity:1" />
  <path
     d="m 12.108632,18.060537 c -0.249155,-0.59312 -0.61687,-1.12691 -1.06758,-1.58955 -0.46264,-0.462635 -0.996431,-0.81853 -1.5895509,-1.067575 -0.616955,-0.26106 -1.26933,-0.40339 -1.94553,-0.40339 -0.676205,0 -1.32858,0.142325 -1.945445,0.403305 -0.593125,0.24915 -1.126915,0.616865 -1.58955,1.06758 -0.46264,0.462635 -0.818535,0.996425 -1.06758,1.58955 -0.26106,0.616955 -0.40339,1.269325 -0.40339,1.94553 0,0.6762 0.142325,1.328575 0.403305,1.945445 0.24915,0.59312 0.61687,1.12691 1.06758,1.58955 0.462635,0.462635 0.996425,0.81853 1.58955,1.06758 0.61687,0.260975 1.269325,0.39146 1.945445,0.39146 0.6762,0 1.328575,-0.13049 1.945445,-0.39146 0.5931199,-0.249155 1.1269109,-0.61687 1.5895509,-1.06758 0.462635,-0.46264 0.81853,-0.99643 1.06758,-1.58955 0.260975,-0.61687 0.39146,-1.26933 0.39146,-1.945445 1.7e-4,-0.676205 -0.130325,-1.328575 -0.391315,-1.94545 z"
     id="path67"
     style="fill:url(#linearGradient878);fill-opacity:1;stroke-width:0.021183" />
  <path
     d="m 9.0000061,19.606272 v -0.96875 c 0,-0.825 -0.675,-1.5375 -1.5,-1.5375 -0.81875,0 -1.4875,0.6625 -1.5,1.475 0,0.14375 0.1,0.26875 0.24375,0.275 0.14375,0.0063 0.2625,-0.1125 0.2625,-0.25 0,-0.56875 0.475,-1.025 1.05,-1 0.5375,0.025 0.95,0.4875 0.95,1.01875 v 0.9875 h -2.63125 c -0.34375,0 -0.625,0.28125 -0.625,0.625 v 2.24375 c 0,0.34375 0.28125,0.625 0.625,0.625 h 3.25 c 0.34375,0 0.625,-0.28125 0.625,-0.625 v -2.24375 c 0,-0.34375 -0.28125,-0.625 -0.625,-0.625 z"
     id="path2-3"
     style="fill:#3a435f;fill-opacity:1;stroke-width:0.0625" />
</svg>
