<?xml version="1.0" encoding="UTF-8" standalone="no"?>
<svg
   width="48"
   height="48"
   version="1.1"
   viewBox="0 0 48 48"
   id="svg23"
   sodipodi:docname="applications-utilities.svg"
   inkscape:version="1.3.2 (091e20ef0f, 2023-11-25)"
   xmlns:inkscape="http://www.inkscape.org/namespaces/inkscape"
   xmlns:sodipodi="http://sodipodi.sourceforge.net/DTD/sodipodi-0.dtd"
   xmlns:xlink="http://www.w3.org/1999/xlink"
   xmlns="http://www.w3.org/2000/svg"
   xmlns:svg="http://www.w3.org/2000/svg">
  <sodipodi:namedview
     id="namedview25"
     pagecolor="#ffffff"
     bordercolor="#666666"
     borderopacity="1.0"
     inkscape:showpageshadow="2"
     inkscape:pageopacity="0.0"
     inkscape:pagecheckerboard="0"
     inkscape:deskcolor="#d1d1d1"
     showgrid="false"
     inkscape:zoom="3.6875"
     inkscape:cx="38.237288"
     inkscape:cy="32"
     inkscape:window-width="1920"
     inkscape:window-height="994"
     inkscape:window-x="0"
     inkscape:window-y="0"
     inkscape:window-maximized="1"
     inkscape:current-layer="svg23" />
  <defs
     id="defs5">
    <clipPath
       id="a">
      <circle
         cx="8.467"
         cy="288.53"
         r="6.8790002"
         fill="#d86eb0"
         stroke-opacity="0.039"
         stroke-width="0.491"
         style="paint-order:stroke markers fill"
         id="circle2" />
    </clipPath>
    <linearGradient
       id="linearGradient1018"
       x1="25.163"
       x2="35.091"
       y1="12.334"
       y2="1.7072001"
       gradientTransform="matrix(3.1186717,0,0,3.1186717,-3.0022066,-60.342343)"
       gradientUnits="userSpaceOnUse">
      <stop
         stop-color="#807c76"
         offset=".057692"
         id="stop3-2" />
      <stop
         stop-color="#fff"
         offset=".38462"
         id="stop4-8" />
      <stop
         stop-color="#bdbfba"
         offset=".55769"
         id="stop5-9" />
      <stop
         stop-color="#acb3ac"
         offset=".63462"
         id="stop6" />
      <stop
         stop-color="#f7f8f7"
         offset=".75"
         id="stop7-7" />
      <stop
         stop-color="#c2c7c1"
         offset=".86274"
         id="stop8-3" />
      <stop
         stop-color="#7f7a75"
         offset=".94118"
         id="stop9-6" />
    </linearGradient>
    <linearGradient
       id="b"
       x1="16"
       x2="16"
       y1="4"
       y2="11"
       gradientUnits="userSpaceOnUse"
       gradientTransform="matrix(1.466667,0,0,1.466667,0.533328,0.533328)">
      <stop
         stop-color="#fdfefe"
         offset="0"
         id="stop3" />
      <stop
         stop-color="#dfe4e6"
         offset="1"
         id="stop4" />
    </linearGradient>
    <linearGradient
       id="c"
       x1="7.5"
       x2="7.5"
       y1="12"
       y2="17"
       gradientUnits="userSpaceOnUse"
       xlink:href="#a-3"
       gradientTransform="matrix(1.466667,0,0,1.466667,0.533328,0.533328)" />
    <linearGradient
       id="a-3"
       x2="0"
       y1="532.79999"
       y2="527.79999"
       gradientUnits="userSpaceOnUse">
      <stop
         stop-color="#ebf1f1"
         offset="0"
         id="stop1" />
      <stop
         stop-color="#fcfcfc"
         offset="1"
         id="stop2" />
    </linearGradient>
    <linearGradient
       id="d"
       x1="7.5"
       x2="7.5"
       y1="12"
       y2="17"
       gradientTransform="matrix(1.466667,0,0,1.466667,25.466665,0.533328)"
       gradientUnits="userSpaceOnUse"
       xlink:href="#a-3" />
    <linearGradient
       id="linearGradient6"
       x2="0"
       y1="532.79999"
       y2="527.79999"
       gradientUnits="userSpaceOnUse">
      <stop
         stop-color="#ebf1f1"
         offset="0"
         id="stop5" />
      <stop
         stop-color="#fcfcfc"
         offset="1"
         id="stop6-6" />
    </linearGradient>
  </defs>
  <rect
     x="2"
     y="2"
     width="44"
     height="44"
     rx="11.733329"
     ry="11.733329"
     id="rect4"
     style="stroke-width:1.46664;fill:#9955ff" />
  <path
     d="M 13.733333,2 C 7.233064,2 2,7.233064 2,13.733333 v 1.466666 H 45.999996 V 13.733333 C 45.999996,7.233064 40.766931,2 34.266662,2 Z"
     opacity="0.65"
     id="path4"
     style="stroke-width:1.46664;fill:#de00b1;opacity:0.7;fill-opacity:1" />
  <path
     d="m 16.666664,6.4 c -2.437599,0 -4.399999,1.962399 -4.399999,4.399999 v 4.4 h 2.933334 v -4.4 c 0,-0.812535 0.654134,-1.466664 1.466665,-1.466664 h 14.666669 c 0.812529,0 1.466664,0.654129 1.466664,1.466664 v 4.4 h 2.933334 v -4.4 C 35.733331,8.362399 33.770933,6.4 31.333333,6.4 Z"
     fill="url(#b)"
     id="path5"
     style="fill:url(#b);stroke-width:1.46664" />
  <path
     d="m 11.533335,18.133333 a 3.6666657,3.6666657 0 0 0 -3.666671,3.666665 3.6666657,3.6666657 0 0 0 3.666671,3.666666 3.6666657,3.6666657 0 0 0 3.666664,-3.666666 3.6666657,3.6666657 0 0 0 -3.666664,-3.666665 z m 0,1.466665 a 2.1999998,2.1999998 0 0 1 2.199998,2.2 2.1999998,2.1999998 0 0 1 -2.199998,2.2 2.1999998,2.1999998 0 0 1 -2.2,-2.2 2.1999998,2.1999998 0 0 1 2.2,-2.2 z"
     fill="url(#c)"
     fill-rule="evenodd"
     style="fill:url(#c);stroke-width:1.46664;paint-order:normal"
     id="path6" />
  <path
     d="m 36.466657,18.133333 a 3.6666657,3.6666657 0 0 0 -3.66666,3.666665 3.6666657,3.6666657 0 0 0 3.66666,3.666666 3.6666657,3.6666657 0 0 0 3.666674,-3.666666 3.6666657,3.6666657 0 0 0 -3.666674,-3.666665 z m 0,1.466665 a 2.1999998,2.1999998 0 0 1 2.2,2.2 2.1999998,2.1999998 0 0 1 -2.2,2.2 2.1999998,2.1999998 0 0 1 -2.199995,-2.2 2.1999998,2.1999998 0 0 1 2.199995,-2.2 z"
     fill="url(#d)"
     fill-rule="evenodd"
     style="fill:url(#d);stroke-width:1.46664;paint-order:normal"
     id="path7" />
</svg>
