<?xml version="1.0" encoding="UTF-8" standalone="no"?>
<svg
   width="62"
   height="62"
   version="1.1"
   id="svg5"
   sodipodi:docname="barony.svg"
   inkscape:version="1.4.2 (unknown)"
   xmlns:inkscape="http://www.inkscape.org/namespaces/inkscape"
   xmlns:sodipodi="http://sodipodi.sourceforge.net/DTD/sodipodi-0.dtd"
   xmlns="http://www.w3.org/2000/svg"
   xmlns:svg="http://www.w3.org/2000/svg">
  <defs
     id="defs5" />
  <sodipodi:namedview
     id="namedview5"
     pagecolor="#ffffff"
     bordercolor="#000000"
     borderopacity="0.25"
     inkscape:showpageshadow="2"
     inkscape:pageopacity="0.0"
     inkscape:pagecheckerboard="0"
     inkscape:deskcolor="#d1d1d1"
     showgrid="true"
     inkscape:zoom="8.4852814"
     inkscape:cx="18.620479"
     inkscape:cy="29.816336"
     inkscape:current-layer="svg5">
    <inkscape:grid
       id="grid5"
       units="px"
       originx="0"
       originy="0"
       spacingx="1"
       spacingy="1"
       empcolor="#0099e5"
       empopacity="0.30196078"
       color="#0099e5"
       opacity="0.14901961"
       empspacing="5"
       enabled="true"
       visible="true" />
  </sodipodi:namedview>
  <g
     id="g5"
     transform="matrix(1,0,0,0.98245305,-1,-0.92963603)">
    <path
       style="opacity:0.2"
       d="M 32.027573,5.0001808 C 31.49938,4.9938727 30.982507,5.1545279 30.549632,5.4595572 27.692127,7.4765927 24.935644,8.1621499 22.032169,8.658001 19.128696,9.1538522 15.960542,9.5921678 11.788603,7.1658126 10.10479,6.1875804 8.0011305,7.4113252 8.0000001,9.3697259 V 37.987784 c 0,2.273262 0.9673746,4.346136 2.3327209,6.513303 1.365346,2.167167 3.219261,4.386818 5.390624,6.51877 4.34273,4.263905 9.905791,8.176463 15.554228,9.873859 0.47135,0.141712 0.973504,0.141712 1.444854,0 5.648437,-1.697396 11.2115,-5.609954 15.554228,-9.873859 2.171364,-2.131952 4.025278,-4.351603 5.390624,-6.51877 C 55.032626,42.33392 56,40.261046 56,37.987784 V 9.3697259 C 55.998869,7.4113251 53.89521,6.18758 52.211397,7.1658126 48.039458,9.5921678 44.871304,9.1538522 41.967831,8.658001 39.064356,8.1621499 36.307873,7.4765927 33.450368,5.4595572 33.032909,5.1654134 32.536955,5.0052851 32.027573,5.0001808 Z"
       id="path1" />
    <path
       style="fill:#ff5555"
       d="M 32.027573,4.0001798 C 31.49938,3.9938717 30.982507,4.1545269 30.549632,4.4595562 27.692127,6.4765917 24.935644,7.1621489 22.032169,7.658 19.128696,8.1538512 15.960542,8.5921668 11.788603,6.1658116 10.10479,5.1875794 8.0011305,6.4113242 8.0000001,8.3697249 V 36.987783 c 0,2.273262 0.9673746,4.346136 2.3327209,6.513303 1.365346,2.167167 3.219261,4.386818 5.390624,6.51877 4.34273,4.263905 9.905791,8.176463 15.554228,9.873859 0.47135,0.141712 0.973504,0.141712 1.444854,0 5.648437,-1.697396 11.2115,-5.609954 15.554228,-9.873859 2.171364,-2.131952 4.025278,-4.351603 5.390624,-6.51877 C 55.032626,41.333919 56,39.261045 56,36.987783 V 8.3697249 C 55.998869,6.4113241 53.89521,5.187579 52.211397,6.1658116 48.039458,8.5921668 44.871304,8.1538512 41.967831,7.658 39.064356,7.1621489 36.307873,6.4765917 33.450368,4.4595562 33.032909,4.1654124 32.536955,4.0052841 32.027573,4.0001798 Z"
       id="path2" />
    <path
       style="opacity:0.2"
       d="m 30.499082,13.129764 c -5.69058,-0.03361 -8.046493,0.67519 -14.93934,1.692583 -1.971971,0.02446 -3.558154,1.347352 -3.559742,3.316403 2.46e-4,1.987188 1.613572,3.598093 3.60386,3.598448 0.03678,-3.5e-4 0.07355,-0.0013 0.110301,-0.0028 -0.890631,-2.933927 1.375381,-2.686581 2.862133,-2.980477 0.294069,-0.0027 0.129824,-0.0022 0.423706,-0.0055 v 24.002418 l 7,5.898065 V 18.090202 c 4.296547,-0.08086 9.202418,0.04913 13.656471,1.383598 7.434017,2.227289 2.037762,8.084029 -2.476316,10.879441 2.542783,1.574658 5.867542,4.874093 5.878669,7.978702 0.0086,2.40685 -2.303704,4.696606 -6.424625,5.974858 -3.953532,1.013654 -7.873445,1.545531 -10.634199,4.3422 0,0 2.239144,-0.38611 6.98622,-0.579688 5.737688,-0.233975 11.267708,-2.203002 15.284839,-6.346504 2.022183,-4.282111 -0.669251,-7.778681 -6.63778,-11.175426 6.096682,-3.431519 8.979288,-7.391899 6.19025,-11.29027 -3.353888,-4.687889 -8.897579,-5.852632 -14.63603,-6.067192 -0.981368,-0.03669 -1.869982,-0.05532 -2.688417,-0.06016 z m 6.681066,17.223477 -3.958505,-4.396889 c -3.708216,2.597895 -4.745971,5.36622 -0.201287,8.495731 z"
       id="path3" />
    <path
       style="fill:#ffffff"
       d="m 30.499082,12.129763 c -5.69058,-0.03361 -8.046493,0.67519 -14.93934,1.692583 -1.971971,0.02446 -3.558154,1.347352 -3.559742,3.316403 2.46e-4,1.987188 1.613572,3.598093 3.60386,3.598448 0.03678,-3.5e-4 0.07355,-0.0013 0.110301,-0.0028 -0.890631,-2.933927 1.375381,-2.686581 2.862133,-2.980477 0.294069,-0.0027 0.129824,-0.0022 0.423706,-0.0055 v 24.002418 l 7,5.898065 V 17.090201 c 4.296547,-0.08086 9.202418,0.04913 13.656471,1.383598 7.434017,2.227289 2.037762,8.084029 -2.476316,10.879441 2.542783,1.574658 5.867542,4.874093 5.878669,7.978702 0.0086,2.40685 -2.303704,4.696606 -6.424625,5.974858 C 32.680667,44.320454 28.760754,44.852331 26,47.649 c 0,0 2.239144,-0.38611 6.98622,-0.579688 5.737688,-0.233975 11.267708,-2.203002 15.284839,-6.346504 2.022183,-4.282111 -0.669251,-7.778681 -6.63778,-11.175426 6.096682,-3.431519 8.979288,-7.391899 6.19025,-11.29027 C 44.469641,13.569223 38.92595,12.40448 33.187499,12.18992 32.206131,12.15323 31.317517,12.1346 30.499082,12.12976 Z m 6.681066,17.223477 -3.958505,-4.396889 c -3.708216,2.597895 -4.745971,5.36622 -0.201287,8.495731 z"
       id="path4" />
    <path
       style="opacity:0.2;fill:#ffffff"
       d="M 32.027344,4 C 31.499151,3.9936919 30.981703,4.1539551 30.548828,4.4589844 27.691323,6.4760199 24.934725,7.162352 22.03125,7.6582031 19.127777,8.1540543 15.961002,8.5923708 11.789062,6.1660156 10.105249,5.1877834 8.0011304,6.4107399 8,8.3691406 v 1 C 8.00113,7.4107399 10.105249,6.1877834 11.789062,7.1660156 15.961002,9.5923708 19.127777,9.1540543 22.03125,8.6582031 24.934725,8.162352 27.691323,7.4760199 30.548828,5.4589844 30.981703,5.1539551 31.499151,4.9936919 32.027344,5 c 0.509382,0.0051 1.006369,0.1648406 1.423828,0.4589844 2.857505,2.0170355 5.614103,2.7033676 8.517578,3.1992187 2.903473,0.4958512 6.070249,0.9341677 10.242188,-1.4921875 C 53.89475,6.187783 55.998869,7.4107398 56,9.3691406 v -1 C 55.998869,6.4107398 53.89475,5.187783 52.210938,6.1660156 48.038999,8.5923708 44.872223,8.1540543 41.96875,7.6582031 39.065275,7.162352 36.308677,6.4760199 33.451172,4.4589844 33.033713,4.1648406 32.536726,4.0051043 32.027344,4 Z"
       id="path5" />
  </g>
</svg>
