<?xml version="1.0" encoding="UTF-8" standalone="no"?>
<svg
   width="62"
   height="62"
   version="1"
   id="svg5"
   sodipodi:docname="borderlands-2.svg"
   inkscape:version="1.4.2 (unknown)"
   xmlns:inkscape="http://www.inkscape.org/namespaces/inkscape"
   xmlns:sodipodi="http://sodipodi.sourceforge.net/DTD/sodipodi-0.dtd"
   xmlns="http://www.w3.org/2000/svg"
   xmlns:svg="http://www.w3.org/2000/svg">
  <defs
     id="defs5" />
  <sodipodi:namedview
     id="namedview5"
     pagecolor="#ffffff"
     bordercolor="#000000"
     borderopacity="0.25"
     inkscape:showpageshadow="2"
     inkscape:pageopacity="0.0"
     inkscape:pagecheckerboard="0"
     inkscape:deskcolor="#d1d1d1"
     inkscape:zoom="7.9479167"
     inkscape:cx="22.207077"
     inkscape:cy="40.828309"
     inkscape:current-layer="svg5" />
  <g
     id="g5"
     transform="matrix(1.375,0,0,1.3658537,-2,-2.4634157)"
     style="stroke-width:0.729704">
    <circle
       style="opacity:0.2;stroke-width:0.729704"
       cx="-24"
       cy="25"
       r="20"
       transform="scale(-1,1)"
       id="circle1" />
    <circle
       style="fill:#c83771;stroke-width:0.729704"
       cx="-24"
       cy="24"
       r="20"
       transform="scale(-1,1)"
       id="circle2" />
    <path
       style="opacity:0.2;stroke-width:0.729704"
       d="m 27.32,9.3519 c -1.69,-0.362 -3.454,-0.4466 -5.178,-0.245 -2.502,0.2924 -4.925,1.1851 -7.027,2.5901 -2.079,1.389 -3.785,3.219 -5.015,5.377 -0.471,0.827 -0.873,1.709 -1.194,2.623 -0.224,0.64 -0.429,1.38 -0.57,2.053 -0.729,3.507 -0.265,7.124 1.327,10.339 l 0.128,0.233 c 0,0 13.502,-19.232 13.57,-19.333 0.419,-0.627 0.848,-1.088 1.33,-1.429 0.116,-0.081 0.4,-0.244 0.526,-0.3 0.581,-0.26 1.195,-0.337 1.885,-0.232 0.371,0.055 0.726,0.155 1.044,0.279 0.649,0.254 1.145,0.628 1.518,1.144 0.081,0.112 0.245,0.394 0.305,0.523 0.247,0.536 0.388,1.149 0.437,1.903 l 2.192,23.589 0.137,-0.07 c 0.77,-0.495 1.541,-1.096 2.223,-1.732 1.76,-1.641 3.114,-3.658 3.976,-5.923 0.212,-0.557 0.655,-2.166 0.725,-2.478 0.64,-3.045 0.376,-6.192 -0.763,-9.099 C 38.432,17.98 37.812,16.828 37.078,15.785 35.088,12.962 32.27,10.875 29,9.8039 28.477,9.6329 27.862,9.4679 27.32,9.3519 Z m -0.437,4.2601 c -1.21,-0.126 -1.985,0.729 -2.647,1.628 L 12.444,36.045 c 0,0 0.039,0.057 0.205,0.225 1.91,1.924 4.272,3.325 6.882,4.081 0.716,0.207 1.958,0.458 2.638,0.539 2.022,0.24 4.051,0.087 6.021,-0.455 l 0.147,-0.047 0.184,-22.2 c -0.106,-1.974 -0.011,-4.03 -1.638,-4.576 z"
       id="path2" />
    <path
       style="fill:#ffcc00;stroke-width:0.729704"
       d="m 27.32,8.3519 c -1.69,-0.362 -3.454,-0.4466 -5.178,-0.245 -2.502,0.2924 -4.925,1.1855 -7.027,2.5901 -2.079,1.389 -3.785,3.219 -5.015,5.377 -0.471,0.827 -0.873,1.709 -1.194,2.623 -0.224,0.64 -0.429,1.38 -0.57,2.053 -0.729,3.507 -0.265,7.124 1.327,10.339 l 0.128,0.233 c 0,0 13.502,-19.232 13.57,-19.333 0.419,-0.627 0.848,-1.088 1.33,-1.429 0.116,-0.081 0.4,-0.244 0.526,-0.3 0.581,-0.2603 1.195,-0.3369 1.885,-0.232 0.371,0.055 0.726,0.155 1.044,0.279 0.649,0.254 1.145,0.628 1.518,1.144 0.081,0.112 0.245,0.394 0.305,0.523 0.247,0.536 0.388,1.149 0.437,1.903 l 2.192,23.589 0.137,-0.07 c 0.77,-0.495 1.541,-1.096 2.223,-1.732 1.76,-1.641 3.114,-3.658 3.976,-5.923 0.212,-0.557 0.655,-2.166 0.725,-2.478 0.64,-3.045 0.376,-6.192 -0.763,-9.099 C 38.432,16.98 37.812,15.828 37.078,14.785 35.088,11.962 32.27,9.8749 29,8.8039 28.477,8.6329 27.862,8.4679 27.32,8.3519 Z m -0.437,4.2601 c -1.21,-0.126 -1.985,0.729 -2.647,1.628 L 12.444,35.045 c 0,0 0.039,0.057 0.205,0.225 1.91,1.924 4.272,3.325 6.882,4.081 0.716,0.207 1.958,0.458 2.638,0.539 2.022,0.24 4.051,0.087 6.021,-0.455 l 0.147,-0.047 0.184,-22.2 c -0.106,-1.974 -0.011,-4.03 -1.638,-4.576 z"
       id="path3" />
    <path
       style="opacity:0.1;fill:#ffffff;stroke-width:0.729704"
       d="M 24,4 A 20,20 0 0 1 44,24 20,20 0 0 1 43.978,24.582 20,20 0 0 0 24,5 20,20 0 0 0 4.021,24.418 20,20 0 0 1 4,24 20,20 0 0 1 24,4 Z"
       id="path4" />
    <path
       style="opacity:0.2;fill:#ffffff;stroke-width:0.729704"
       d="m 23.441,8.0098 c 1.303,-0.0443 2.612,0.0703 3.879,0.3418 0.542,0.116 1.157,0.2821 1.68,0.4531 3.27,1.071 6.088,3.1573 8.078,5.9803 0.734,1.043 1.354,2.195 1.819,3.379 0.792,2.023 1.152,4.161 1.087,6.301 C 39.925,22.662 39.565,20.871 38.897,19.164 38.432,17.98 37.812,16.828 37.078,15.785 35.088,12.962 32.27,10.876 29,9.8047 28.477,9.6337 27.862,9.4676 27.32,9.3516 25.63,8.9896 23.867,8.9058 22.143,9.1074 c -2.502,0.2924 -4.926,1.1846 -7.028,2.5896 -2.079,1.389 -3.785,3.219 -5.015,5.377 -0.471,0.827 -0.873,1.709 -1.194,2.623 -0.224,0.64 -0.429,1.38 -0.57,2.053 -0.18,0.865 -0.287,1.737 -0.322,2.607 -0.027,-1.201 0.073,-2.41 0.322,-3.607 0.141,-0.673 0.346,-1.413 0.57,-2.053 0.321,-0.914 0.723,-1.796 1.194,-2.623 1.23,-2.158 2.936,-3.988 5.015,-5.377 2.102,-1.4043 4.526,-2.2972 7.028,-2.5896 0.431,-0.0504 0.864,-0.0829 1.298,-0.0976 z m 3.008,4.5992 c 0.139,-0.013 0.283,-0.013 0.434,0.002 1.627,0.546 1.532,2.603 1.638,4.577 l -0.007,0.855 c -0.095,-1.929 -0.044,-3.899 -1.631,-4.432 -1.21,-0.126 -1.985,0.73 -2.647,1.629 L 12.801,35.414 C 12.751,35.365 12.698,35.319 12.648,35.27 12.482,35.102 12.443,35.045 12.443,35.045 L 24.236,14.24 c 0.58,-0.786 1.245,-1.539 2.213,-1.631 z"
       id="path5" />
  </g>
</svg>
