<?xml version="1.0" encoding="UTF-8" standalone="no"?>
<svg
   width="62"
   height="62"
   version="1"
   id="svg8"
   sodipodi:docname="colorhug-flash.svg"
   inkscape:version="1.4 (unknown)"
   xmlns:inkscape="http://www.inkscape.org/namespaces/inkscape"
   xmlns:sodipodi="http://sodipodi.sourceforge.net/DTD/sodipodi-0.dtd"
   xmlns="http://www.w3.org/2000/svg"
   xmlns:svg="http://www.w3.org/2000/svg">
  <defs
     id="defs8" />
  <sodipodi:namedview
     id="namedview8"
     pagecolor="#ffffff"
     bordercolor="#000000"
     borderopacity="0.25"
     inkscape:showpageshadow="2"
     inkscape:pageopacity="0.0"
     inkscape:pagecheckerboard="0"
     inkscape:deskcolor="#d1d1d1"
     inkscape:zoom="10"
     inkscape:cx="42.7"
     inkscape:cy="35.15"
     inkscape:window-width="1920"
     inkscape:window-height="998"
     inkscape:window-x="0"
     inkscape:window-y="0"
     inkscape:window-maximized="1"
     inkscape:current-layer="svg8" />
  <g
     id="g8"
     transform="translate(-0.5,-1)">
    <path
       style="opacity:0.2;stroke-width:0.982303"
       d="M 4.0498931,31.50877 C 4.0383038,31.83691 4,32.15916 4,32.49123 4,47.73109 16.264997,60 31.499996,60 c 15.235,0 27.499996,-12.26891 27.499996,-27.50877 0,-0.33176 -0.03833,-0.65361 -0.04986,-0.98246 C 58.431558,46.28688 46.402276,58.03509 31.49924,58.03509 16.595805,58.03509 4.5669161,46.28688 4.0483446,31.50877 Z"
       id="path1" />
    <rect
       style="fill:#233143;fill-opacity:1;stroke-width:0.982303"
       width="55"
       height="55.017548"
       x="4"
       y="4"
       rx="27.5"
       ry="27.508774"
       id="rect1" />
    <g
       style="opacity:0.2"
       transform="matrix(1.9642853,0,0,1.964912,0.0714288,1.052632)"
       id="g4">
      <path
         d="M 10.016,13.09 A 6,6 0 0 0 5,19 6,6 0 0 0 11,25 6,6 0 0 0 15.773,22.629 8,8 0 0 1 12.965,21.26 3,3 0 0 1 11,22 3,3 0 0 1 8,19 3,3 0 0 1 9.9102,16.205 8,8 0 0 1 9.8008,14.9 8,8 0 0 1 10.016,13.09 Z"
         id="path2" />
      <path
         d="m 16,5 a 6,6 0 0 0 -6,6 6,6 0 0 0 0.33789,1.957 8,8 0 0 1 2.6719,-1.7715 3,3 0 0 1 -0.01,-0.186 3,3 0 0 1 3,-3 3,3 0 0 1 3,3 3,3 0 0 1 -0.0098,0.1875 8,8 0 0 1 2.6738,1.7676 6,6 0 0 0 0.336,-1.955 6,6 0 0 0 -6,-6 z"
         id="path3" />
      <circle
         cx="16"
         cy="11"
         r="2"
         id="circle3" />
      <circle
         cx="11"
         cy="19"
         r="2"
         id="circle4" />
    </g>
    <path
       style="opacity:0.1;fill:#ffffff;stroke-width:0.982303"
       d="M 31.499996,4 C 16.264997,4 4,16.26891 4,31.50877 4,31.620336 4.011083,31.728872 4.017264,31.838818 4.3625296,16.903761 16.483745,4.982456 31.499996,4.982456 c 15.014972,0 27.137413,11.919244 27.484656,26.852525 0.0062,-0.108658 0.01533,-0.215964 0.01533,-0.326211 C 58.999992,16.26891 46.734996,4 31.499996,4 Z"
       id="path4" />
    <path
       style="fill:#37c871;stroke-width:0.982303"
       d="M 19.745716,25.79088 A 11.78571,11.78947 0 0 0 9.8928569,37.40351 11.78571,11.78947 0 0 0 21.67857,49.19298 a 11.78571,11.78947 0 0 0 9.375538,-4.6588 15.714286,15.7193 0 0 1 -5.51572,-2.68997 5.8928569,5.894737 0 0 1 -3.859818,1.45404 5.8928569,5.894737 0 0 1 -5.89286,-5.89474 5.8928569,5.894737 0 0 1 3.752183,-5.49193 15.714286,15.7193 0 0 1 -0.214892,-2.56421 15.714286,15.7193 0 0 1 0.422715,-3.55649 z"
       id="path5" />
    <path
       style="fill:#2ad4ff;stroke-width:0.982303"
       d="m 31.499996,9.894737 a 11.78571,11.78947 0 0 0 -11.78571,11.789473 11.78571,11.78947 0 0 0 0.663929,3.84533 15.714286,15.7193 0 0 1 5.248565,-3.47986 5.8928569,5.894737 0 0 1 -0.01963,-0.36547 5.8928569,5.894737 0 0 1 5.892855,-5.89474 5.8928569,5.894737 0 0 1 5.89286,5.89474 5.8928569,5.894737 0 0 1 -0.01963,0.3694 15.714286,15.7193 0 0 1 5.252497,3.472 11.78571,11.78947 0 0 0 0.660007,-3.8414 A 11.78571,11.78947 0 0 0 31.499996,9.894737 Z"
       id="path6" />
    <ellipse
       style="fill:#80e5ff;stroke-width:0.982303"
       cx="31.5"
       cy="21.684219"
       id="circle6"
       rx="3.9285705"
       ry="3.9298239" />
    <ellipse
       style="fill:#87deaa;stroke-width:0.982303"
       cx="21.678579"
       cy="37.403496"
       id="circle7"
       rx="3.9285705"
       ry="3.9298239" />
  </g>
  <g
     id="g9"
     transform="matrix(0.67857163,0,0,0.67857163,-5.521447,27.619041)">
    <path
       style="opacity:0.2;stroke-width:0.98246"
       d="M 94.30611,29.39452 A 15.7193,15.7193 0 0 1 78.62807,44.2807 15.7193,15.7193 0 0 1 62.95004,29.69319 a 15.7193,15.7193 0 0 0 -0.0413,0.83312 15.7193,15.7193 0 0 0 15.7193,15.7193 15.7193,15.7193 0 0 0 15.7193,-15.7193 15.7193,15.7193 0 0 0 -0.04218,-1.13212 z"
       id="path7" />
    <circle
       style="fill:#c83771;stroke-width:0.98246"
       cx="78.628059"
       cy="29.543863"
       r="15.719296"
       id="circle8" />
    <path
       style="fill:#ffffff;stroke-width:0.98246"
       d="m 78.62807,20.70175 a 8.842105,8.842105 0 0 0 -8.84211,8.8421 8.842105,8.842105 0 0 0 8.84211,8.84211 8.842105,8.842105 0 0 0 8.325929,-5.89474 h -3.227516 a 5.894737,5.894737 0 0 1 -5.098413,2.94737 5.894737,5.894737 0 0 1 -5.89474,-5.89474 5.894737,5.894737 0 0 1 5.89474,-5.89473 5.894737,5.894737 0 0 1 4.628288,2.248902 L 80.59298,28.5614 h 3.4386 0.406792 2.972321 0.05945 v -3.4386 -3.4386 l -2.122266,2.122266 A 8.842105,8.842105 0 0 0 78.628038,20.70175 Z"
       id="path8" />
  </g>
</svg>
