<?xml version="1.0" encoding="UTF-8" standalone="no"?>
<svg
   width="62"
   height="62"
   version="1"
   id="svg11"
   sodipodi:docname="colorhug-ccmx.svg"
   inkscape:version="1.4.2 (unknown)"
   xmlns:inkscape="http://www.inkscape.org/namespaces/inkscape"
   xmlns:sodipodi="http://sodipodi.sourceforge.net/DTD/sodipodi-0.dtd"
   xmlns="http://www.w3.org/2000/svg"
   xmlns:svg="http://www.w3.org/2000/svg">
  <defs
     id="defs11" />
  <sodipodi:namedview
     id="namedview11"
     pagecolor="#ffffff"
     bordercolor="#000000"
     borderopacity="0.25"
     inkscape:showpageshadow="2"
     inkscape:pageopacity="0.0"
     inkscape:pagecheckerboard="0"
     inkscape:deskcolor="#d1d1d1"
     inkscape:zoom="11.921875"
     inkscape:cx="32"
     inkscape:cy="34.264744"
     inkscape:current-layer="svg11" />
  <g
     id="g11"
     transform="translate(-0.5,-1)">
    <path
       style="opacity:0.2;stroke-width:0.99997"
       d="M 4.0498928,31.509178 C 4.0383036,31.837314 4,32.159555 4,32.49162 4.0000004,47.731263 16.264827,60 31.499604,60 46.73438,60 58.999208,47.731263 58.999208,32.49162 c 0,-0.331749 -0.03833,-0.6536 -0.04986,-0.982442 -0.518568,14.777894 -12.547675,26.52594 -27.450501,26.52594 -14.903207,0 -26.9319295,-11.748046 -27.4504934,-26.52594 z"
       id="path1" />
    <rect
       style="fill:#373e48;stroke-width:0.99997"
       width="54.999989"
       height="55.01754"
       x="4"
       y="4"
       rx="28"
       ry="28"
       id="rect1" />
    <g
       style="opacity:0.2;stroke-width:1.01802"
       transform="matrix(1.9642576,0,0,1.9648844,0.07148571,1.053334)"
       id="g6">
      <path
         d="m 21.953,13.08 -0.05273,0.08789 a 8,8 0 0 1 0.19922,1.7324 8,8 0 0 1 -0.10938,1.2715 3,3 0 0 1 2.01,2.828 3,3 0 0 1 -3,3 3,3 0 0 1 -2.0078,-0.77734 8,8 0 0 1 -2.7578,1.3887 l -0.0078,0.01172 a 6,6 0 0 0 4.774,2.377 6,6 0 0 0 6,-6 6,6 0 0 0 -5.047,-5.92 z"
         id="path2"
         style="stroke-width:1.01802" />
      <path
         d="M 10.016,13.09 A 6,6 0 0 0 5,19 6,6 0 0 0 11,25 6,6 0 0 0 15.773,22.629 8,8 0 0 1 12.965,21.26 3,3 0 0 1 11,22 3,3 0 0 1 8,19 3,3 0 0 1 9.9102,16.205 8,8 0 0 1 9.8008,14.9 8,8 0 0 1 10.016,13.09 Z"
         id="path3"
         style="stroke-width:1.01802" />
      <path
         d="m 16,5 a 6,6 0 0 0 -6,6 6,6 0 0 0 0.33789,1.957 8,8 0 0 1 2.6719,-1.7715 3,3 0 0 1 -0.01,-0.186 3,3 0 0 1 3,-3 3,3 0 0 1 3,3 3,3 0 0 1 -0.0098,0.1875 8,8 0 0 1 2.6738,1.7676 6,6 0 0 0 0.336,-1.955 6,6 0 0 0 -6,-6 z"
         id="path4"
         style="stroke-width:1.01802" />
      <circle
         cx="16"
         cy="11"
         r="2"
         id="circle4"
         style="stroke-width:1.01802" />
      <circle
         cx="11"
         cy="19"
         r="2"
         id="circle5"
         style="stroke-width:1.01802" />
      <circle
         cx="21"
         cy="19"
         r="2"
         id="circle6"
         style="stroke-width:1.01802" />
    </g>
    <path
       style="opacity:0.1;fill:#ffffff;stroke-width:0.99997"
       d="M 31.499994,4 C 16.265218,4 4,16.269132 4,31.50877 4,31.620334 4.011081,31.728874 4.017263,31.838818 4.3625246,16.903968 16.483962,4.982456 31.499994,4.982456 c 15.016033,0 27.137473,11.921512 27.482731,26.856362 C 58.989123,31.728874 59,31.620334 59,31.50877 58.99999,16.269132 46.734777,4 31.499994,4 Z"
       id="path6" />
    <path
       style="fill:#cccccc;stroke-width:0.99997;fill-opacity:1"
       d="M 43.192826,25.771733 43.08872,25.94464 a 15.714056,15.719071 0 0 1 0.392856,3.40318 15.714056,15.719071 0 0 1 -0.216069,2.499334 5.8927718,5.8946524 0 0 1 3.948153,5.556689 5.8927718,5.8946524 0 0 1 -5.892773,5.894654 5.8927718,5.8946524 0 0 1 -3.944225,-1.526715 15.714056,15.719071 0 0 1 -5.417422,2.727258 l -0.01379,0.0236 a 11.785547,11.789308 0 0 0 9.375403,4.67053 11.785547,11.789308 0 0 0 11.785568,-11.789319 11.785547,11.789308 0 0 0 -9.913608,-11.63211 z"
       id="path7" />
    <path
       style="fill:#cccccc;stroke-width:0.99997;fill-opacity:1"
       d="m 19.745486,25.791382 a 11.785547,11.789308 0 0 0 -9.8527137,11.612461 11.785547,11.789308 0 0 0 11.7855427,11.789309 11.785547,11.789308 0 0 0 9.375398,-4.658743 15.714056,15.719071 0 0 1 -5.51563,-2.689922 5.8927718,5.8946524 0 0 1 -3.859768,1.45401 5.8927718,5.8946524 0 0 1 -5.892767,-5.894654 5.8927718,5.8946524 0 0 1 3.752117,-5.49185 15.714056,15.719071 0 0 1 -0.214888,-2.564173 15.714056,15.719071 0 0 1 0.422709,-3.556438 z"
       id="path8" />
    <path
       style="fill:#cccccc;stroke-width:0.99997;fill-opacity:1"
       d="m 31.499604,9.8954679 a 11.785547,11.789308 0 0 0 -11.785547,11.7893041 11.785547,11.789308 0 0 0 0.663918,3.845278 15.714056,15.719071 0 0 1 5.248499,-3.479812 5.8927718,5.8946524 0 0 1 -0.01967,-0.365466 5.8927718,5.8946524 0 0 1 5.892773,-5.894654 5.8927718,5.8946524 0 0 1 5.892773,5.894654 5.8927718,5.8946524 0 0 1 -0.01963,0.369396 15.714056,15.719071 0 0 1 5.252424,3.471952 A 11.785547,11.789308 0 0 0 43.28513,21.684772 11.785547,11.789308 0 0 0 31.499604,9.8954679 Z"
       id="path9" />
    <ellipse
       style="fill:#a5e98c;stroke-width:0.99997"
       cx="31.499994"
       cy="21.6852"
       id="circle9"
       rx="3.92857"
       ry="3.9298239" />
    <ellipse
       style="fill:#eb9595;stroke-width:0.99997"
       cx="21.678576"
       cy="37.403496"
       id="circle10"
       rx="3.92857"
       ry="3.9298239" />
    <ellipse
       style="fill:#8ccde4;stroke-width:0.99997"
       cx="41.320435"
       cy="37.403496"
       id="circle11"
       rx="3.92857"
       ry="3.9298239" />
  </g>
</svg>
