<?xml version="1.0" encoding="UTF-8" standalone="no"?>
<svg
   width="62"
   height="62"
   version="1.1"
   id="svg5"
   sodipodi:docname="vmpk.svg"
   inkscape:version="1.4.2 (unknown)"
   xmlns:inkscape="http://www.inkscape.org/namespaces/inkscape"
   xmlns:sodipodi="http://sodipodi.sourceforge.net/DTD/sodipodi-0.dtd"
   xmlns:xlink="http://www.w3.org/1999/xlink"
   xmlns="http://www.w3.org/2000/svg"
   xmlns:svg="http://www.w3.org/2000/svg">
  <defs
     id="defs5">
    <linearGradient
       id="linearGradient8"
       inkscape:collect="always">
      <stop
         style="stop-color:#2d3d53;stop-opacity:1;"
         offset="0"
         id="stop8" />
      <stop
         style="stop-color:#354864;stop-opacity:1;"
         offset="1"
         id="stop10" />
    </linearGradient>
    <linearGradient
       id="linearGradient4217">
      <stop
         style="stop-color:#000000;stop-opacity:1;"
         offset="0"
         id="stop2" />
      <stop
         style="stop-color:#000000;stop-opacity:0;"
         offset="1"
         id="stop4" />
    </linearGradient>
    <linearGradient
       id="linearGradient4161">
      <stop
         style="stop-color:#334545;stop-opacity:1;"
         offset="0"
         id="stop7" />
      <stop
         style="stop-color:#4d6868;stop-opacity:1"
         offset="1"
         id="stop9" />
    </linearGradient>
    <linearGradient
       id="a-1-2"
       y1="510.79999"
       y2="527.14001"
       gradientUnits="userSpaceOnUse"
       x2="0">
      <stop
         stop-color="#7cbaf8"
         id="stop2-2-7" />
      <stop
         offset="1"
         stop-color="#f4fcff"
         id="stop4-70-0" />
    </linearGradient>
    <linearGradient
       id="c"
       y1="503.79999"
       x1="400.57001"
       y2="519.79999"
       x2="416.57001"
       gradientUnits="userSpaceOnUse">
      <stop
         stop-color="#292c2f"
         id="stop12" />
      <stop
         offset="1"
         stop-opacity="0"
         id="stop14" />
    </linearGradient>
    <linearGradient
       id="b"
       y1="542.79999"
       x1="408.57001"
       y2="521.79999"
       x2="387.57001"
       gradientUnits="userSpaceOnUse"
       gradientTransform="translate(-384.57,-499.8)">
      <stop
         stop-color="#197cf1"
         id="stop7-8" />
      <stop
         offset="1"
         stop-color="#20bcfa"
         id="stop9-7" />
    </linearGradient>
    <linearGradient
       xlink:href="#linearGradient1389"
       id="linearGradient4503-5-6"
       y1="37"
       y2="4"
       x2="0"
       gradientUnits="userSpaceOnUse"
       gradientTransform="matrix(1.0218446,0,0,0.99999999,21.748946,8.2587777)" />
    <linearGradient
       id="linearGradient1389">
      <stop
         style="stop-color:#ffaaaa;stop-opacity:1"
         id="stop1385"
         offset="0" />
      <stop
         offset="1"
         style="stop-color:#ff5555;stop-opacity:1"
         id="stop1387" />
    </linearGradient>
    <linearGradient
       id="paint543_linear_890_11"
       x1="978.5"
       y1="298"
       x2="978.5"
       y2="304"
       gradientUnits="userSpaceOnUse"
       gradientTransform="matrix(0.75000004,0,0,0.75000004,-717.38333,-173.49123)">
      <stop
         offset="0.189495"
         stop-color="#EFF2F6"
         id="stop1829" />
      <stop
         offset="0.850463"
         stop-color="#B7C6CD"
         id="stop1830" />
    </linearGradient>
    <linearGradient
       inkscape:collect="always"
       xlink:href="#linearGradient8"
       id="linearGradient10"
       x1="31.5"
       y1="59.017544"
       x2="31.5"
       y2="4.9824562"
       gradientUnits="userSpaceOnUse"
       gradientTransform="translate(-0.5,-1)" />
    <linearGradient
       id="linearGradient4144">
      <stop
         style="stop-color:#c83771;stop-opacity:1"
         offset="0"
         id="stop1141" />
      <stop
         style="stop-color:#de87aa;stop-opacity:1"
         offset="1"
         id="stop1143" />
    </linearGradient>
    <linearGradient
       id="c-0"
       gradientUnits="userSpaceOnUse"
       x1="10"
       x2="24"
       y1="10"
       y2="24"
       gradientTransform="translate(59.728813,26.237288)">
      <stop
         offset="0"
         stop-color="#292c2f"
         id="stop12-2" />
      <stop
         offset="1"
         stop-opacity="0"
         id="stop14-3" />
    </linearGradient>
    <linearGradient
       id="d"
       gradientUnits="userSpaceOnUse"
       x1="24"
       x2="24"
       y1="25"
       y2="7"
       gradientTransform="translate(59.728813,26.237288)">
      <stop
         offset="0"
         stop-color="#bb9d71"
         id="stop2-7" />
      <stop
         offset="1"
         stop-color="#f9f2e7"
         id="stop4-5" />
    </linearGradient>
  </defs>
  <sodipodi:namedview
     id="namedview5"
     pagecolor="#ffffff"
     bordercolor="#000000"
     borderopacity="0.25"
     inkscape:showpageshadow="2"
     inkscape:pageopacity="0.0"
     inkscape:pagecheckerboard="0"
     inkscape:deskcolor="#d1d1d1"
     inkscape:zoom="8.2643105"
     inkscape:cx="25.228965"
     inkscape:cy="37.45019"
     inkscape:window-width="1920"
     inkscape:window-height="998"
     inkscape:window-x="0"
     inkscape:window-y="0"
     inkscape:window-maximized="1"
     inkscape:current-layer="svg5" />
  <rect
     style="opacity:0.2;stroke-width:0.9823"
     width="55"
     height="55.017544"
     x="3.5"
     y="3.9824562"
     rx="8.25"
     ry="8.2526312"
     id="rect1" />
  <rect
     style="fill:url(#linearGradient10);stroke-width:0.9823"
     width="55"
     height="55.017544"
     x="3.5"
     y="3"
     rx="8.25"
     ry="8.2526312"
     id="rect2" />
  <path
     style="opacity:0.1;fill:#ffffff;stroke-width:0.9823"
     d="M 11.748466,3 C 7.1779652,3 3.5,6.6791384 3.5,11.251097 v 0.982456 c 0,-4.5719585 3.6779652,-8.2510969 8.248466,-8.2510969 h 38.503068 c 4.5705,0 8.248466,3.6791384 8.248466,8.2510969 V 11.251097 C 58.5,6.6791384 54.822034,3 50.251534,3 Z"
     id="path4" />
  <g
     id="g1"
     transform="matrix(0.95238093,0,0,0.86363634,-2.6597684,-47.036167)">
    <rect
       style="opacity:0.2"
       width="6"
       height="41"
       x="14.342757"
       y="71.92646"
       ry="1.952"
       id="rect2-2" />
    <rect
       style="fill:#d8d8d8"
       width="6"
       height="41"
       x="14.342757"
       y="70.92646"
       ry="1.952"
       id="rect3" />
    <rect
       style="opacity:0.2"
       width="6"
       height="41"
       x="20.342756"
       y="71.92646"
       ry="1.952"
       id="rect4" />
    <rect
       style="fill:#f0f0f0"
       width="6"
       height="41"
       x="20.342756"
       y="70.92646"
       ry="1.952"
       id="rect5-9" />
    <rect
       style="opacity:0.2"
       width="6"
       height="41"
       x="26.342756"
       y="71.92646"
       ry="1.952"
       id="rect6-1" />
    <rect
       style="fill:#d8d8d8"
       width="6"
       height="41"
       x="26.342756"
       y="70.92646"
       ry="1.952"
       id="rect7-2" />
    <rect
       style="opacity:0.2"
       width="6"
       height="41"
       x="32.342758"
       y="71.92646"
       ry="1.952"
       id="rect8-7" />
    <rect
       style="fill:#f0f0f0"
       width="6"
       height="41"
       x="32.342758"
       y="70.92646"
       ry="1.952"
       id="rect9-0" />
    <rect
       style="opacity:0.2"
       width="6"
       height="41"
       x="38.342758"
       y="71.92646"
       ry="1.952"
       id="rect10-9" />
    <rect
       style="fill:#d8d8d8"
       width="6"
       height="41"
       x="38.342758"
       y="70.92646"
       ry="1.952"
       id="rect11" />
    <rect
       style="opacity:0.2"
       width="6"
       height="41"
       x="44.342758"
       y="71.92646"
       ry="1.952"
       id="rect12" />
    <rect
       style="fill:#f0f0f0"
       width="6"
       height="41"
       x="44.342758"
       y="70.92646"
       ry="1.952"
       id="rect13" />
    <rect
       style="opacity:0.2"
       width="6"
       height="41"
       x="50.342758"
       y="71.92646"
       ry="1.952"
       id="rect14" />
    <rect
       style="fill:#d8d8d8"
       width="6"
       height="41"
       x="50.342758"
       y="70.92646"
       ry="1.952"
       id="rect15" />
    <path
       style="opacity:0.2"
       d="m 18.342757,92.496771 v 1 c 0,0.79199 0.443796,1.429688 0.992188,1.429688 h 2.019531 c 0.548392,0 0.988281,-0.637698 0.988281,-1.429688 v -1 c 0,0.79199 -0.439889,1.429688 -0.988281,1.429688 h -2.019531 c -0.548392,0 -0.992188,-0.637698 -0.992188,-1.429688 z m 6,0 v 1 c 0,0.79199 0.440289,1.429688 0.988281,1.429688 h 2.023438 c 0.547992,0 0.988281,-0.637698 0.988281,-1.429688 v -1 c 0,0.79199 -0.440289,1.429688 -0.988281,1.429688 h -2.023438 c -0.547992,0 -0.988281,-0.637698 -0.988281,-1.429688 z m 12,0 v 1 c 0,0.79199 0.440289,1.429688 0.988281,1.429688 h 2.023438 c 0.547992,0 0.988281,-0.637698 0.988281,-1.429688 v -1 c 0,0.79199 -0.440289,1.429688 -0.988281,1.429688 h -2.023438 c -0.547992,0 -0.988281,-0.637698 -0.988281,-1.429688 z m 6,0 v 1 c 0,0.79199 0.440289,1.429688 0.988281,1.429688 h 2.023438 c 0.547992,0 0.988281,-0.637698 0.988281,-1.429688 v -1 c 0,0.79199 -0.440289,1.429688 -0.988281,1.429688 h -2.023438 c -0.547992,0 -0.988281,-0.637698 -0.988281,-1.429688 z m 6,0 v 1 c 0,0.79199 0.440289,1.429688 0.988281,1.429688 h 2.023438 c 0.547992,0 0.988281,-0.637698 0.988281,-1.429688 v -1 c 0,0.79199 -0.440289,1.429688 -0.988281,1.429688 h -2.023438 c -0.547992,0 -0.988281,-0.637698 -0.988281,-1.429688 z"
       id="path15" />
    <path
       style="fill:#111a22;fill-opacity:1"
       d="m 19.335594,68.927199 c -0.548392,0 -0.992185,0.637391 -0.992185,1.429579 v 22.139691 c 0,0.791989 0.443793,1.429979 0.992185,1.429979 h 2.01957 c 0.548392,0 0.988185,-0.63799 0.988185,-1.429979 V 70.356778 c 0,-0.792588 -0.439793,-1.429979 -0.988185,-1.429979 h -2.01957 z m 5.995711,0 c -0.547992,0 -0.987985,0.637391 -0.987985,1.429579 v 22.139691 c 0,0.791989 0.439993,1.429979 0.987985,1.429979 h 2.02337 c 0.547992,0 0.987986,-0.63799 0.987986,-1.429979 V 70.356778 c 0,-0.792588 -0.439994,-1.429979 -0.987986,-1.429979 h -2.02337 z m 11.999823,0 c -0.547992,0 -0.987986,0.637391 -0.987986,1.429579 v 22.139691 c 0,0.791989 0.439994,1.429979 0.987986,1.429979 h 2.02337 c 0.547992,0 0.987985,-0.63799 0.987985,-1.429979 V 70.356778 c 0,-0.792588 -0.439993,-1.429979 -0.987985,-1.429979 h -2.02337 z m 5.999911,0 c -0.547992,0 -0.987986,0.637391 -0.987986,1.429579 v 22.139691 c 0,0.791989 0.439994,1.429979 0.987986,1.429979 h 2.02337 c 0.547992,0 0.987985,-0.63799 0.987985,-1.429979 V 70.356778 c 0,-0.792588 -0.439993,-1.429979 -0.987985,-1.429979 h -2.02337 z m 5.999911,0 c -0.547992,0 -0.987985,0.637391 -0.987985,1.429579 v 22.139691 c 0,0.791989 0.439993,1.429979 0.987985,1.429979 h 2.02337 c 0.547992,0 0.987985,-0.63799 0.987985,-1.429979 V 70.356778 c 0,-0.792588 -0.439993,-1.429979 -0.987985,-1.429979 h -2.02337 z"
       id="path16" />
    <path
       style="opacity:0.1;fill:#ffffff"
       d="m 19.334945,68.926459 c -0.548392,0 -0.992188,0.637499 -0.992188,1.429688 v 1 c 0,-0.792189 0.443796,-1.429688 0.992188,-1.429688 h 2.019531 c 0.548392,0 0.988281,0.6375 0.988281,1.429688 v -1 c 0,-0.792188 -0.439889,-1.429688 -0.988281,-1.429688 z m 5.996093,0 c -0.547992,0 -0.988281,0.637499 -0.988281,1.429688 v 1 c 0,-0.792189 0.440289,-1.429688 0.988281,-1.429688 h 2.023438 c 0.547992,0 0.988281,0.6375 0.988281,1.429688 v -1 c 0,-0.792188 -0.440289,-1.429688 -0.988281,-1.429688 z m 12,0 c -0.547992,0 -0.988281,0.637499 -0.988281,1.429688 v 1 c 0,-0.792189 0.440289,-1.429688 0.988281,-1.429688 h 2.023438 c 0.547992,0 0.988281,0.6375 0.988281,1.429688 v -1 c 0,-0.792188 -0.440289,-1.429688 -0.988281,-1.429688 z m 6,0 c -0.547992,0 -0.988281,0.637499 -0.988281,1.429688 v 1 c 0,-0.792189 0.440289,-1.429688 0.988281,-1.429688 h 2.023438 c 0.547992,0 0.988281,0.6375 0.988281,1.429688 v -1 c 0,-0.792188 -0.440289,-1.429688 -0.988281,-1.429688 z m 6,0 c -0.547992,0 -0.988281,0.637499 -0.988281,1.429688 v 1 c 0,-0.792189 0.440289,-1.429688 0.988281,-1.429688 h 2.023438 c 0.547992,0 0.988281,0.6375 0.988281,1.429688 v -1 c 0,-0.792188 -0.440289,-1.429688 -0.988281,-1.429688 z"
       id="path17" />
  </g>
  <path
     style="fill:#535d6c;stroke-width:0.991031"
     d="m 50.25,59 c 4.5705,0 8.25,-3.7464 8.25,-8.4 l 0.163954,-8.799439 h -55 L 3.4999998,50.6 C 3.4133078,55.252792 7.1794998,59 11.75,59 Z"
     id="path2"
     sodipodi:nodetypes="ssccsss" />
  <circle
     style="fill:#1c1f24;stroke-width:0.7"
     cx="17.666431"
     cy="50.641228"
     r="7"
     id="circle14" />
  <circle
     style="opacity:0.2;stroke-width:0.7"
     cx="17.666431"
     cy="51.341221"
     r="4.900002"
     id="circle15" />
  <circle
     style="fill:#8d5fd3;stroke-width:0.7"
     cx="17.666431"
     cy="50.641228"
     r="4.900002"
     id="circle16" />
  <circle
     style="fill:#1c1f24;stroke-width:0.7;fill-opacity:1"
     cx="17.666431"
     cy="50.641228"
     r="2.1000001"
     id="circle17" />
  <circle
     style="fill:#1c1f24;stroke-width:0.7"
     cx="44.086014"
     cy="50.640999"
     r="7"
     id="circle14-6" />
  <circle
     style="opacity:0.2;stroke-width:0.7"
     cx="44.086014"
     cy="51.341026"
     r="4.9000044"
     id="circle15-7" />
  <circle
     style="fill:#8d5fd3;stroke-width:0.7"
     cx="44.086014"
     cy="50.640999"
     r="4.9000044"
     id="circle16-5" />
  <circle
     style="fill:#1c1f24;stroke-width:0.7;fill-opacity:1"
     cx="44.086014"
     cy="50.640999"
     r="2.0999992"
     id="circle17-3" />
  <circle
     style="fill:#1c1f24;stroke-width:0.7;fill-opacity:1"
     cx="31"
     cy="50.640999"
     r="2.1000001"
     id="circle17-6" />
</svg>
