<?xml version="1.0" encoding="UTF-8" standalone="no"?>
<svg
   width="62"
   height="62"
   version="1"
   id="svg16"
   sodipodi:docname="com.hunterwittenborn.Celeste.svg"
   inkscape:version="1.4.2 (unknown)"
   xmlns:inkscape="http://www.inkscape.org/namespaces/inkscape"
   xmlns:sodipodi="http://sodipodi.sourceforge.net/DTD/sodipodi-0.dtd"
   xmlns="http://www.w3.org/2000/svg"
   xmlns:svg="http://www.w3.org/2000/svg">
  <defs
     id="defs16" />
  <sodipodi:namedview
     id="namedview16"
     pagecolor="#ffffff"
     bordercolor="#000000"
     borderopacity="0.25"
     inkscape:showpageshadow="2"
     inkscape:pageopacity="0.0"
     inkscape:pagecheckerboard="0"
     inkscape:deskcolor="#d1d1d1"
     inkscape:zoom="11.921875"
     inkscape:cx="32"
     inkscape:cy="32"
     inkscape:current-layer="svg16" />
  <g
     id="g16"
     transform="translate(-1,-1.5)">
    <g
       style="opacity:0.2"
       transform="translate(0,1)"
       id="g4">
      <circle
         cx="15"
         cy="35"
         r="11"
         id="circle1" />
      <circle
         cx="18"
         cy="41"
         r="11"
         id="circle2" />
      <circle
         cx="21"
         cy="47"
         r="11"
         id="circle3" />
      <circle
         cx="44"
         cy="42"
         r="16"
         id="circle4"
         style="fill:#000000;fill-opacity:1" />
      <path
         d="m 21,58 v -8 h 24 v 8 z"
         id="path4" />
    </g>
    <g
       transform="matrix(2,0,0,2,-6,-10)"
       id="g7">
      <circle
         style="fill:#3e87dc"
         cx="10.5"
         cy="22.5"
         r="5.5"
         id="circle5" />
      <circle
         style="fill:#3e87dc"
         cx="22"
         cy="20"
         r="8"
         id="circle6" />
      <circle
         style="fill:#3e87dc"
         cx="17.5"
         cy="16.5"
         r="8.5"
         id="circle7" />
    </g>
    <path
       style="opacity:0.1;fill:#ffffff"
       d="M 29,6 A 17,17 0 0 0 12,23 17,17 0 0 0 12.039,23.498 17,17 0 0 1 29,7 17,17 0 0 1 44.105,16.217 16,16 0 0 1 53.979,30.252 16,16 0 0 0 54,30 16,16 0 0 0 44.105,15.217 17,17 0 0 0 29,6 Z M 12.037,24.459 A 11,11 0 0 0 10.791,24.838 11,11 0 0 0 8.889,25.854 11,11 0 0 0 7.223,27.223 11,11 0 0 0 5.8535,28.889 11,11 0 0 0 4,35 a 11,11 0 0 0 0.0488,0.5 11,11 0 0 1 1.8047,-5.611 11,11 0 0 1 1.3695,-1.666 11,11 0 0 1 1.666,-1.369 11,11 0 0 1 1.902,-1.016 11,11 0 0 1 1.322,-0.402 17,17 0 0 1 -0.076,-0.977 z"
       id="path7" />
    <g
       transform="matrix(2,0,0,2,-3,-4)"
       id="g10">
      <circle
         style="fill:#62a0ea"
         cx="22"
         cy="20"
         r="8"
         id="circle8" />
      <circle
         style="fill:#62a0ea"
         cx="17.5"
         cy="16.5"
         r="8.5"
         id="circle9" />
      <circle
         style="fill:#62a0ea"
         cx="10.5"
         cy="22.5"
         r="5.5"
         id="circle10" />
    </g>
    <path
       style="opacity:0.1;fill:#ffffff"
       d="M 32,12 A 17,17 0 0 0 15,29 17,17 0 0 0 15.039,29.498 17,17 0 0 1 32,13 17,17 0 0 1 47.105,22.217 16,16 0 0 1 56.979,36.252 16,16 0 0 0 57,36 16,16 0 0 0 47.105,21.217 17,17 0 0 0 32,12 Z M 15.037,30.459 a 11,11 0 0 0 -1.246,0.379 11,11 0 0 0 -1.902,1.016 11,11 0 0 0 -1.666,1.369 A 11,11 0 0 0 8.8535,34.889 11,11 0 0 0 7,41 a 11,11 0 0 0 0.0488,0.5 11,11 0 0 1 1.8047,-5.611 11,11 0 0 1 1.3695,-1.666 11,11 0 0 1 1.666,-1.369 11,11 0 0 1 1.902,-1.016 11,11 0 0 1 1.322,-0.402 17,17 0 0 1 -0.076,-0.977 z"
       id="path10" />
    <circle
       style="fill:#d7e3f4"
       cx="21"
       cy="47"
       r="11"
       id="circle11" />
    <circle
       style="fill:#d5e5ff"
       cx="44"
       cy="42"
       r="16"
       id="circle12" />
    <path
       style="fill:#d7e3f4"
       d="m 21,58 v -8 h 24 v 8 z"
       id="path12" />
    <circle
       style="opacity:0.2"
       cx="35"
       cy="36"
       r="17"
       id="circle13" />
    <circle
       style="fill:#eaeaea"
       cx="35"
       cy="35"
       r="17"
       id="circle14" />
    <path
       style="opacity:0.2;fill:none;stroke:#000000;stroke-width:3;stroke-linecap:round;stroke-linejoin:round"
       d="m 44.5,32.5 v 6 c 0,3 -3,6 -6,6 h -6 m 2,4 -4,-4 4,-4 m -9,-1 v -6 c 0,-3 3,-6 6,-6 h 6 m -2,-4 4,4 -4,4"
       id="path14" />
    <path
       style="fill:none;stroke:#8d5fd3;stroke-width:3;stroke-linecap:round;stroke-linejoin:round;stroke-opacity:1"
       d="m 44.5,31.5 v 6 c 0,3 -3,6 -6,6 h -6 m 2,4 -4,-4 4,-4 m -9,-1 v -6 c 0,-3 3,-6 6,-6 h 6 m -2,-4 4,4 -4,4"
       id="path15" />
    <path
       style="opacity:0.2;fill:#ffffff"
       d="M 35,18 A 17,17 0 0 0 18,35 17,17 0 0 0 18.039,35.498 17,17 0 0 1 35,19 17,17 0 0 1 50.105,28.217 16,16 0 0 1 59.979,42.252 16,16 0 0 0 60,42 16,16 0 0 0 50.105,27.217 17,17 0 0 0 35,18 Z M 18.037,36.459 A 11,11 0 0 0 10,47 a 11,11 0 0 0 0.049,0.5 11,11 0 0 1 8.064,-10.064 17,17 0 0 1 -0.076,-0.977 z"
       id="path16" />
  </g>
</svg>
