<?xml version="1.0" encoding="UTF-8" standalone="no"?>
<svg
   width="62"
   height="62"
   version="1"
   id="svg6"
   sodipodi:docname="com.github.marbetschar.time-limit.svg"
   inkscape:version="1.4.2 (unknown)"
   xmlns:inkscape="http://www.inkscape.org/namespaces/inkscape"
   xmlns:sodipodi="http://sodipodi.sourceforge.net/DTD/sodipodi-0.dtd"
   xmlns="http://www.w3.org/2000/svg"
   xmlns:svg="http://www.w3.org/2000/svg">
  <defs
     id="defs6" />
  <sodipodi:namedview
     id="namedview6"
     pagecolor="#ffffff"
     bordercolor="#000000"
     borderopacity="0.25"
     inkscape:showpageshadow="2"
     inkscape:pageopacity="0.0"
     inkscape:pagecheckerboard="0"
     inkscape:deskcolor="#d1d1d1"
     inkscape:zoom="4.2150193"
     inkscape:cx="14.353434"
     inkscape:cy="57.057864"
     inkscape:current-layer="svg6" />
  <path
     style="opacity:0.2;stroke-width:0.982301"
     d="M 30.999999,3.9824575 A 27.499998,27.508773 0 0 0 3.5000005,31.491232 27.499998,27.508773 0 0 0 30.999999,59.000003 a 27.499998,27.508773 0 0 0 27.5,-27.508771 27.499998,27.508773 0 0 0 -27.5,-27.5087745 z"
     id="path1-3" />
  <path
     style="fill:#354964;fill-opacity:1;stroke-width:0.982301"
     d="M 30.999999,3.0000012 A 27.499998,27.508773 0 0 0 3.5000005,30.508772 27.499998,27.508773 0 0 0 30.999999,58.017545 a 27.499998,27.508773 0 0 0 27.5,-27.508773 27.499998,27.508773 0 0 0 -27.5,-27.5087708 z"
     id="path2-6" />
  <ellipse
     style="opacity:0.2;stroke-width:0.982301"
     cx="31"
     cy="31.491228"
     id="circle2"
     rx="15.714286"
     ry="15.719298" />
  <ellipse
     style="fill:#6081ac;fill-opacity:1;stroke-width:0.982301"
     cx="31"
     cy="30.508776"
     id="circle3"
     rx="15.714286"
     ry="15.719298" />
  <path
     style="opacity:0.1;fill:#ffffff;stroke-width:0.982301"
     d="M 30.999999,3.0000012 A 27.499998,27.508773 0 0 0 3.5000005,30.508772 27.499998,27.508773 0 0 0 3.5210938,30.907891 27.499998,27.508773 0 0 1 30.999993,3.9824575 27.499998,27.508773 0 0 1 58.478893,31.076752 27.499998,27.508773 0 0 0 58.499986,30.508772 27.499998,27.508773 0 0 0 30.999999,3.0000012 Z"
     id="path4-7" />
  <rect
     style="opacity:0.1;stroke-width:0.982301"
     width="3.9298246"
     height="6.875"
     x="29.526312"
     y="-12.339286"
     rx="0.98245615"
     ry="0.859375"
     transform="rotate(90)"
     id="rect5" />
  <rect
     style="fill:#9aafcb;fill-opacity:1;stroke-width:0.982301"
     width="3.9298246"
     height="6.875"
     x="28.543859"
     y="-12.339286"
     rx="0.98245615"
     ry="0.859375"
     transform="rotate(90)"
     id="rect6" />
  <rect
     style="opacity:0.1;stroke-width:0.982301"
     width="3.9298246"
     height="6.875"
     x="29.526312"
     y="-56.535713"
     rx="0.98245615"
     ry="0.859375"
     transform="rotate(90)"
     id="rect7" />
  <rect
     style="opacity:0.1;stroke-width:0.982301"
     width="3.9285715"
     height="6.877193"
     x="-32.964287"
     y="-12.824561"
     rx="0.98214287"
     ry="0.85964912"
     transform="scale(-1)"
     id="rect9" />
  <rect
     style="fill:#9aafcb;fill-opacity:1;stroke-width:0.982301"
     width="3.9285715"
     height="6.877193"
     x="-32.964287"
     y="-11.842109"
     rx="0.98214287"
     ry="0.85964912"
     transform="scale(-1)"
     id="rect10" />
  <rect
     style="opacity:0.1;stroke-width:0.982301"
     width="3.9285715"
     height="6.877193"
     x="-32.964287"
     y="-57.035099"
     rx="0.98214287"
     ry="0.85964912"
     transform="scale(-1)"
     id="rect11" />
  <rect
     style="fill:#9aafcb;fill-opacity:1;stroke-width:0.982301"
     width="3.9285715"
     height="6.877193"
     x="-32.964287"
     y="-56.052635"
     rx="0.98214287"
     ry="0.85964912"
     transform="scale(-1)"
     id="rect12" />
  <path
     style="fill:none;stroke:#378ef7;stroke-width:2;stroke-linecap:round;stroke-linejoin:round"
     d="M 30.035716,7.0000368 A 24,24 0 0 1 52.258718,21.834951 24,24 0 0 1 46.988824,48.029698"
     id="path10" />
  <rect
     style="opacity:0.1;stroke-width:0.982301"
     width="3.9298246"
     height="6.875"
     x="29.526453"
     y="-56.535713"
     rx="0.98245615"
     ry="0.859375"
     transform="rotate(90)"
     id="rect5-5" />
  <rect
     style="fill:#9aafcb;fill-opacity:1;stroke-width:0.982301"
     width="3.9298246"
     height="6.875"
     x="28.544001"
     y="-56.535713"
     rx="0.98245615"
     ry="0.859375"
     transform="rotate(90)"
     id="rect6-3" />
  <rect
     style="opacity:0.1;stroke-width:0.982301"
     width="5.8933272"
     height="25.541826"
     x="39.992447"
     y="-12.1845"
     rx="2.9466636"
     ry="2.8380897"
     transform="matrix(0.86595632,0.50011964,-0.49988037,0.86609446,0,0)"
     id="rect3-6" />
  <rect
     style="fill:#f2f2f2;fill-opacity:1;stroke-width:0.982301"
     width="5.8933272"
     height="25.541826"
     x="39.501339"
     y="-13.029343"
     rx="2.9466636"
     ry="2.8380897"
     transform="matrix(0.86595632,0.50011964,-0.49988037,0.86609446,0,0)"
     id="rect4-2" />
</svg>
