<?xml version="1.0" encoding="UTF-8" standalone="no"?>
<svg
   width="62"
   height="62"
   version="1.1"
   id="svg6"
   sodipodi:docname="com.github.ronnydo.wammer.svg"
   inkscape:version="1.4.2 (unknown)"
   xmlns:inkscape="http://www.inkscape.org/namespaces/inkscape"
   xmlns:sodipodi="http://sodipodi.sourceforge.net/DTD/sodipodi-0.dtd"
   xmlns:xlink="http://www.w3.org/1999/xlink"
   xmlns="http://www.w3.org/2000/svg"
   xmlns:svg="http://www.w3.org/2000/svg">
  <defs
     id="defs6">
    <linearGradient
       id="linearGradient6"
       inkscape:collect="always">
      <stop
         style="stop-color:#aa87de;stop-opacity:1"
         offset="0"
         id="stop6" />
      <stop
         style="stop-color:#ff8080;stop-opacity:1"
         offset="1"
         id="stop7" />
    </linearGradient>
    <linearGradient
       inkscape:collect="always"
       xlink:href="#linearGradient6"
       id="linearGradient7"
       x1="34"
       y1="59.847637"
       x2="33.989822"
       y2="5.0720973"
       gradientUnits="userSpaceOnUse" />
  </defs>
  <sodipodi:namedview
     id="namedview6"
     pagecolor="#ffffff"
     bordercolor="#000000"
     borderopacity="0.25"
     inkscape:showpageshadow="2"
     inkscape:pageopacity="0.0"
     inkscape:pagecheckerboard="0"
     inkscape:deskcolor="#d1d1d1"
     inkscape:zoom="7.0710678"
     inkscape:cx="39.385848"
     inkscape:cy="38.254477"
     inkscape:window-width="1920"
     inkscape:window-height="996"
     inkscape:window-x="0"
     inkscape:window-y="0"
     inkscape:window-maximized="1"
     inkscape:current-layer="svg6" />
  <g
     id="g6"
     transform="matrix(0.98214286,0,0,0.98245613,-0.42857152,-0.92982383)">
    <path
       style="opacity:0.2"
       d="M 32,4.9999992 A 28,28 0 0 0 4,33 28,28 0 0 0 32,61 28,28 0 0 0 60,33 28,28 0 0 0 32,4.9999992 Z"
       id="path1" />
    <path
       style="fill:url(#linearGradient7);fill-opacity:1"
       d="M 32,3.9999992 A 28,28 0 0 0 4,32 28,28 0 0 0 32,60 28,28 0 0 0 60,32 28,28 0 0 0 32,3.9999992 Z"
       id="path2" />
    <path
       style="fill:#2d3d53;fill-opacity:1"
       d="m 30,34.000006 v 25.814792 a 20,30.588228 0 0 0 2,0.1852 20,30.588228 0 0 0 2,-0.15236 V 34.000006 Z"
       id="path3" />
    <circle
       style="opacity:0.2"
       cx="32"
       cy="33"
       r="5"
       id="circle3" />
    <circle
       style="fill:#2d3d53;fill-opacity:1"
       cx="32"
       cy="32"
       r="5"
       id="circle4" />
    <path
       style="opacity:0.2"
       d="m 41.941406,15.117376 -1.792968,3.585937 A 16,16 0 0 1 49,33.000188 16,16 0 0 1 40.152344,47.304876 l 1.78125,3.5625 A 20,20 0 0 0 53,33.000188 20,20 0 0 0 41.941406,15.117376 Z m -19.875,0.01562 A 20,20 0 0 0 11,33.000188 20,20 0 0 0 22.058594,50.883 l 1.792968,-3.585937 A 16,16 0 0 1 15,33.000188 16,16 0 0 1 23.847656,18.6955 Z m 16.296875,7.136719 -1.789062,3.582031 A 8,8 0 0 1 41,33.000188 8,8 0 0 1 36.578125,40.152532 l 1.78125,3.566406 A 12,12 0 0 0 45,33.000188 12,12 0 0 0 38.363281,22.269719 Z m -12.722656,0.01172 A 12,12 0 0 0 19,33.000188 12,12 0 0 0 25.636719,43.730657 l 1.789062,-3.582031 A 8,8 0 0 1 23,33.000188 8,8 0 0 1 27.421875,25.847844 Z"
       id="path4" />
    <path
       style="fill:#2d3d53;fill-opacity:1"
       d="m 41.941406,14.117188 -1.792968,3.585937 A 16,16 0 0 1 49,32 16,16 0 0 1 40.152344,46.304688 l 1.78125,3.5625 A 20,20 0 0 0 53,32 20,20 0 0 0 41.941406,14.117188 Z m -19.875,0.01562 A 20,20 0 0 0 11,32 20,20 0 0 0 22.058594,49.882812 l 1.792968,-3.585937 A 16,16 0 0 1 15,32 16,16 0 0 1 23.847656,17.695312 Z m 16.296875,7.136719 -1.789062,3.582031 A 8,8 0 0 1 41,32 8,8 0 0 1 36.578125,39.152344 l 1.78125,3.566406 A 12,12 0 0 0 45,32 12,12 0 0 0 38.363281,21.269531 Z M 25.640625,21.28125 A 12,12 0 0 0 19,32 12,12 0 0 0 25.636719,42.730469 l 1.789062,-3.582031 A 8,8 0 0 1 23,32 8,8 0 0 1 27.421875,24.847656 Z"
       id="path5" />
    <path
       style="opacity:0.2;fill:#ffffff"
       d="M 32,4 A 28,28 0 0 0 4,32 28,28 0 0 0 4.0214844,32.40625 28,28 0 0 1 32,5 28,28 0 0 1 59.978516,32.578125 28,28 0 0 0 60,32 28,28 0 0 0 32,4 Z"
       id="path6" />
  </g>
</svg>
