<?xml version="1.0" encoding="UTF-8" standalone="no"?>
<!-- Created with Inkscape (http://www.inkscape.org/) -->

<svg
   width="62"
   height="62"
   viewBox="0 0 62 62"
   version="1.1"
   id="svg1"
   inkscape:version="1.4.2 (unknown)"
   sodipodi:docname="korganizer.svg"
   xmlns:inkscape="http://www.inkscape.org/namespaces/inkscape"
   xmlns:sodipodi="http://sodipodi.sourceforge.net/DTD/sodipodi-0.dtd"
   xmlns:xlink="http://www.w3.org/1999/xlink"
   xmlns="http://www.w3.org/2000/svg"
   xmlns:svg="http://www.w3.org/2000/svg">
  <sodipodi:namedview
     id="namedview1"
     pagecolor="#ffffff"
     bordercolor="#000000"
     borderopacity="0.25"
     inkscape:showpageshadow="2"
     inkscape:pageopacity="0.0"
     inkscape:pagecheckerboard="0"
     inkscape:deskcolor="#d1d1d1"
     inkscape:document-units="px"
     inkscape:zoom="7.5994534"
     inkscape:cx="22.304236"
     inkscape:cy="43.621558"
     inkscape:window-width="1920"
     inkscape:window-height="994"
     inkscape:window-x="0"
     inkscape:window-y="0"
     inkscape:window-maximized="1"
     inkscape:current-layer="layer1" />
  <defs
     id="defs1">
    <linearGradient
       id="linearGradient26"
       inkscape:collect="always">
      <stop
         style="stop-color:#e2e8eb;stop-opacity:1;"
         offset="0"
         id="stop26" />
      <stop
         style="stop-color:#b7c6cd;stop-opacity:1;"
         offset="1"
         id="stop27" />
    </linearGradient>
    <linearGradient
       id="linearGradient22"
       inkscape:collect="always">
      <stop
         style="stop-color:#566c80;stop-opacity:1;"
         offset="0"
         id="stop22" />
      <stop
         style="stop-color:#1f272e;stop-opacity:1;"
         offset="1"
         id="stop23" />
    </linearGradient>
    <linearGradient
       id="linearGradient10"
       inkscape:collect="always">
      <stop
         style="stop-color:#7137c8;stop-opacity:1"
         offset="0"
         id="stop17" />
      <stop
         style="stop-color:#aa87de;stop-opacity:1"
         offset="1"
         id="stop18" />
    </linearGradient>
    <radialGradient
       id="paint664_radial_890_11"
       cx="0"
       cy="0"
       r="1"
       gradientUnits="userSpaceOnUse"
       gradientTransform="matrix(-16.000099,-9.999913,9.999913,-16.000099,583,171)">
      <stop
         offset="0.42141"
         stop-color="#B7C6CD"
         id="stop2071" />
      <stop
         offset="1"
         stop-color="#EFF2F6"
         id="stop2072" />
    </radialGradient>
    <linearGradient
       id="paint665_linear_890_11"
       x1="605"
       y1="180"
       x2="601.466"
       y2="162.72301"
       gradientUnits="userSpaceOnUse">
      <stop
         stop-color="#5200FF"
         id="stop2073" />
      <stop
         offset="1"
         stop-color="#0085FF"
         id="stop2074" />
    </linearGradient>
    <linearGradient
       id="paint666_linear_890_11"
       x1="567"
       y1="181"
       x2="562.11798"
       y2="174.183"
       gradientUnits="userSpaceOnUse">
      <stop
         stop-color="#5200FF"
         id="stop2075" />
      <stop
         offset="0.670391"
         stop-color="#0085FF"
         id="stop2076" />
    </linearGradient>
    <linearGradient
       id="paint667_linear_890_11"
       x1="605"
       y1="180"
       x2="597.32001"
       y2="174.24001"
       gradientUnits="userSpaceOnUse">
      <stop
         stop-color="#5200FF"
         id="stop2077" />
      <stop
         offset="1"
         stop-color="#0085FF"
         id="stop2078" />
    </linearGradient>
    <linearGradient
       id="paint668_linear_890_11"
       x1="567"
       y1="180"
       x2="561.23999"
       y2="172.32001"
       gradientUnits="userSpaceOnUse">
      <stop
         stop-color="#5200FF"
         id="stop2079" />
      <stop
         offset="1"
         stop-color="#0085FF"
         id="stop2080" />
    </linearGradient>
    <linearGradient
       id="paint669_linear_890_11"
       x1="607"
       y1="179"
       x2="602.50598"
       y2="171.80901"
       gradientUnits="userSpaceOnUse">
      <stop
         stop-color="#5200FF"
         id="stop2081" />
      <stop
         offset="1"
         stop-color="#0085FF"
         id="stop2082" />
    </linearGradient>
    <linearGradient
       id="paint670_linear_890_11"
       x1="607"
       y1="217"
       x2="568.82599"
       y2="170.01601"
       gradientUnits="userSpaceOnUse">
      <stop
         stop-color="#5200FF"
         id="stop2083" />
      <stop
         offset="1"
         stop-color="#0085FF"
         id="stop2084" />
    </linearGradient>
    <radialGradient
       id="paint671_radial_890_11"
       cx="0"
       cy="0"
       r="1"
       gradientUnits="userSpaceOnUse"
       gradientTransform="matrix(0,20,-16,0,583,187)">
      <stop
         offset="0.869716"
         stop-color="#EFF2F6"
         id="stop2085" />
      <stop
         offset="1"
         stop-color="#B7C6CD"
         id="stop2086" />
    </radialGradient>
    <linearGradient
       id="paint431_linear_890_11"
       x1="213"
       y1="517"
       x2="157"
       y2="461"
       gradientUnits="userSpaceOnUse"
       gradientTransform="matrix(0.85714286,0,0,0.85714286,-127.57143,-388.14286)">
      <stop
         offset="0.405339"
         stop-color="#5200FF"
         id="stop1604" />
      <stop
         offset="1"
         stop-color="#0085FF"
         id="stop1605" />
    </linearGradient>
    <linearGradient
       id="paint432_linear_890_11"
       x1="175"
       y1="489"
       x2="177"
       y2="489"
       gradientUnits="userSpaceOnUse">
      <stop
         stop-color="#EFF2F6"
         id="stop1606" />
      <stop
         offset="1"
         stop-color="#B7C6CD"
         id="stop1607" />
    </linearGradient>
    <linearGradient
       id="paint434_linear_890_11"
       x1="181"
       y1="489"
       x2="183"
       y2="489"
       gradientUnits="userSpaceOnUse">
      <stop
         stop-color="#EFF2F6"
         id="stop1610" />
      <stop
         offset="1"
         stop-color="#B7C6CD"
         id="stop1611" />
    </linearGradient>
    <linearGradient
       id="paint436_linear_890_11"
       x1="187"
       y1="489"
       x2="189"
       y2="489"
       gradientUnits="userSpaceOnUse">
      <stop
         stop-color="#EFF2F6"
         id="stop1614" />
      <stop
         offset="1"
         stop-color="#B7C6CD"
         id="stop1615" />
    </linearGradient>
    <linearGradient
       id="paint438_linear_890_11"
       x1="193"
       y1="489"
       x2="195"
       y2="489"
       gradientUnits="userSpaceOnUse">
      <stop
         stop-color="#EFF2F6"
         id="stop1618" />
      <stop
         offset="1"
         stop-color="#B7C6CD"
         id="stop1619" />
    </linearGradient>
    <linearGradient
       id="paint440_linear_890_11"
       x1="185"
       y1="479"
       x2="185"
       y2="481"
       gradientUnits="userSpaceOnUse">
      <stop
         stop-color="#EFF2F6"
         id="stop1622" />
      <stop
         offset="1"
         stop-color="#B7C6CD"
         id="stop1623" />
    </linearGradient>
    <linearGradient
       id="paint442_linear_890_11"
       x1="185"
       y1="485"
       x2="185"
       y2="487"
       gradientUnits="userSpaceOnUse">
      <stop
         stop-color="#EFF2F6"
         id="stop1626" />
      <stop
         offset="1"
         stop-color="#B7C6CD"
         id="stop1627" />
    </linearGradient>
    <linearGradient
       id="paint444_linear_890_11"
       x1="185"
       y1="491"
       x2="185"
       y2="493"
       gradientUnits="userSpaceOnUse">
      <stop
         stop-color="#EFF2F6"
         id="stop1630" />
      <stop
         offset="1"
         stop-color="#B7C6CD"
         id="stop1631" />
    </linearGradient>
    <linearGradient
       id="paint446_linear_890_11"
       x1="185"
       y1="497"
       x2="185"
       y2="499"
       gradientUnits="userSpaceOnUse">
      <stop
         stop-color="#EFF2F6"
         id="stop1634" />
      <stop
         offset="1"
         stop-color="#B7C6CD"
         id="stop1635" />
    </linearGradient>
    <linearGradient
       id="paint448_linear_890_11"
       x1="167"
       y1="471"
       x2="203"
       y2="507"
       gradientUnits="userSpaceOnUse"
       gradientTransform="matrix(0.85714286,0,0,0.85714286,-127.57143,-388.14286)">
      <stop
         stop-color="#EFF2F6"
         id="stop1638" />
      <stop
         offset="0.493056"
         stop-color="#B7C6CD"
         id="stop1639" />
    </linearGradient>
    <linearGradient
       id="paint449_linear_890_11"
       x1="201"
       y1="505"
       x2="169"
       y2="473"
       gradientUnits="userSpaceOnUse"
       gradientTransform="matrix(0.85714286,0,0,0.85714286,-127.57143,-388.14286)">
      <stop
         offset="0.389454"
         stop-color="#2E2E41"
         id="stop1640" />
      <stop
         offset="1"
         stop-color="#566C80"
         id="stop1641" />
    </linearGradient>
    <linearGradient
       id="paint450_linear_890_11"
       x1="177"
       y1="481"
       x2="193"
       y2="497"
       gradientUnits="userSpaceOnUse"
       gradientTransform="matrix(0.85714286,0,0,0.85714286,-127.57143,-388.14286)">
      <stop
         offset="0.18393"
         stop-color="#566C80"
         id="stop1642" />
      <stop
         offset="0.912398"
         stop-color="#2E2E41"
         id="stop1643" />
    </linearGradient>
    <linearGradient
       id="linearGradient1059"
       x1="163.41"
       x2="186"
       y1="-10.41"
       y2="-29.162001"
       gradientTransform="matrix(0.9001,0,0,0.7133,-124.38,-36.514)"
       gradientUnits="userSpaceOnUse">
      <stop
         stop-color="#9b39c5"
         offset="0"
         id="stop1" />
      <stop
         stop-color="#df86f4"
         offset="1"
         id="stop2" />
    </linearGradient>
    <linearGradient
       id="linearGradient1061"
       x1="153.34"
       x2="162.86"
       y1="-23.452999"
       y2="-3.5996001"
       gradientTransform="matrix(0.9001,0,0,0.7133,-124.38,-36.514)"
       gradientUnits="userSpaceOnUse">
      <stop
         stop-color="#6a21b4"
         offset="0"
         id="stop3" />
      <stop
         stop-color="#3b0c92"
         offset="1"
         id="stop4" />
    </linearGradient>
    <linearGradient
       id="linearGradient1063"
       x1="152.28999"
       x2="165.24001"
       y1="-19.549"
       y2="-1.3358999"
       gradientTransform="matrix(0.9001,0,0,0.7133,-124.38,-36.514)"
       gradientUnits="userSpaceOnUse">
      <stop
         stop-color="#441381"
         offset="0"
         id="stop5" />
      <stop
         stop-color="#280779"
         offset="1"
         id="stop6" />
    </linearGradient>
    <linearGradient
       id="linearGradient1065"
       x1="159.08"
       x2="163.25999"
       y1="-36.709"
       y2="-9.7538996"
       gradientTransform="matrix(0.9001,0,0,0.7133,-124.38,-36.514)"
       gradientUnits="userSpaceOnUse">
      <stop
         stop-color="#b244d9"
         offset="0"
         id="stop7" />
      <stop
         stop-color="#7520bb"
         offset="1"
         id="stop8" />
    </linearGradient>
    <linearGradient
       id="linearGradient1067"
       x1="194.86"
       x2="194.94"
       y1="7.0853"
       y2="-9.9609003"
       gradientTransform="matrix(0.9001,0,0,0.7133,-124.38,-36.514)"
       gradientUnits="userSpaceOnUse">
      <stop
         stop-color="#22bfed"
         offset="0"
         id="stop9" />
      <stop
         stop-color="#209be5"
         offset="1"
         id="stop10" />
    </linearGradient>
    <linearGradient
       id="linearGradient1069"
       x1="175.82001"
       x2="189.42999"
       y1="-17.188"
       y2="3.7852001"
       gradientTransform="matrix(0.9001,0,0,0.7133,-124.38,-36.514)"
       gradientUnits="userSpaceOnUse">
      <stop
         stop-color="#1b5fca"
         offset="0"
         id="stop11" />
      <stop
         stop-color="#1b9aed"
         offset="1"
         id="stop12" />
    </linearGradient>
    <linearGradient
       id="linearGradient1071"
       x1="147.14"
       x2="170.53"
       y1="6.6777"
       y2="36.178001"
       gradientTransform="matrix(0.9001,0,0,0.7133,-124.38,-36.514)"
       gradientUnits="userSpaceOnUse">
      <stop
         stop-color="#f7c43e"
         offset="0"
         id="stop13" />
      <stop
         stop-color="#f8995d"
         offset="1"
         id="stop14" />
    </linearGradient>
    <linearGradient
       id="linearGradient1073"
       x1="155.58"
       x2="170.53"
       y1="1.4211"
       y2="36.178001"
       gradientTransform="matrix(0.9001,0,0,0.7133,-124.38,-36.514)"
       gradientUnits="userSpaceOnUse">
      <stop
         stop-color="#fce57d"
         offset="0"
         id="stop15" />
      <stop
         stop-color="#feb076"
         offset="1"
         id="stop16" />
    </linearGradient>
    <filter
       id="filter850"
       x="-0.016937609"
       y="-0.0092912613"
       width="1.0338752"
       height="1.0185825"
       color-interpolation-filters="sRGB">
      <feGaussianBlur
         stdDeviation="0.15549739"
         id="feGaussianBlur1" />
    </filter>
    <linearGradient
       id="linearGradient2959">
      <stop
         style="stop-color:#ffffff;stop-opacity:1;"
         offset="0"
         id="stop2961" />
      <stop
         style="stop-color:#000000;stop-opacity:0;"
         offset="1"
         id="stop2963" />
    </linearGradient>
    <linearGradient
       id="paint711_linear_890_11"
       x1="785.49377"
       y1="61.109535"
       x2="784.86401"
       y2="117"
       gradientUnits="userSpaceOnUse"
       gradientTransform="translate(-752,-58)">
      <stop
         offset="0.29169372"
         stop-color="#EFF2F6"
         id="stop2165"
         style="stop-color:#afbed2;stop-opacity:1;" />
      <stop
         offset="1"
         stop-color="#B7C6CD"
         id="stop2166"
         style="stop-color:#526b77;stop-opacity:1;" />
    </linearGradient>
    <radialGradient
       id="paint712_radial_890_11"
       cx="0"
       cy="0"
       r="1"
       gradientUnits="userSpaceOnUse"
       gradientTransform="matrix(22.216699,21.999996,-21.99894,22.215633,30.867,31)">
      <stop
         offset="0.420978"
         stop-color="#F15700"
         id="stop2167" />
      <stop
         offset="0.792773"
         stop-color="#FF0000"
         id="stop2168" />
    </radialGradient>
    <radialGradient
       id="paint713_radial_890_11"
       cx="0"
       cy="0"
       r="1"
       gradientUnits="userSpaceOnUse"
       gradientTransform="matrix(-16.688097,16.851418,-13.741875,-13.608691,50.791,10.8957)">
      <stop
         stop-color="#FFE607"
         id="stop2169" />
      <stop
         offset="0.903378"
         stop-color="#FF7E07"
         id="stop2170" />
    </radialGradient>
    <radialGradient
       id="paint714_radial_890_11"
       cx="0"
       cy="0"
       r="1"
       gradientUnits="userSpaceOnUse"
       gradientTransform="matrix(-22.961171,-7.4640815,7.4454397,-22.903825,31.961,30.8155)">
      <stop
         offset="0.440692"
         stop-color="#001AFF"
         id="stop2171" />
      <stop
         offset="1"
         stop-color="#0085FF"
         id="stop2172" />
    </radialGradient>
    <linearGradient
       id="paint299_linear_890_11"
       x1="855"
       y1="561"
       x2="911"
       y2="617"
       gradientUnits="userSpaceOnUse">
      <stop
         offset="0.375"
         stop-color="#EFF2F6"
         id="stop1340" />
      <stop
         offset="1"
         stop-color="#B7C6CD"
         id="stop1341" />
    </linearGradient>
    <linearGradient
       id="paint300_linear_890_11"
       x1="875.95697"
       y1="607"
       x2="875.95697"
       y2="601"
       gradientUnits="userSpaceOnUse">
      <stop
         offset="0.340681"
         stop-color="#2E2E41"
         id="stop1342" />
      <stop
         offset="1"
         stop-color="#566C80"
         id="stop1343" />
    </linearGradient>
    <linearGradient
       id="paint302_linear_890_11"
       x1="885.30402"
       y1="597"
       x2="885.30402"
       y2="591"
       gradientUnits="userSpaceOnUse">
      <stop
         offset="0.340681"
         stop-color="#2E2E41"
         id="stop1346" />
      <stop
         offset="1"
         stop-color="#566C80"
         id="stop1347" />
    </linearGradient>
    <linearGradient
       id="paint305_linear_890_11"
       x1="894.65198"
       y1="587"
       x2="894.65198"
       y2="581"
       gradientUnits="userSpaceOnUse">
      <stop
         offset="0.340681"
         stop-color="#2E2E41"
         id="stop1352" />
      <stop
         offset="1"
         stop-color="#566C80"
         id="stop1353" />
    </linearGradient>
    <linearGradient
       id="paint309_linear_890_11"
       x1="855"
       y1="561"
       x2="858.461"
       y2="580.38202"
       gradientUnits="userSpaceOnUse">
      <stop
         stop-color="#F15700"
         id="stop1360" />
      <stop
         offset="1"
         stop-color="#FF0000"
         id="stop1361" />
    </linearGradient>
    <linearGradient
       id="paint310_linear_890_11"
       x1="903"
       y1="571"
       x2="899"
       y2="571"
       gradientUnits="userSpaceOnUse">
      <stop
         offset="0.401302"
         stop-color="#2E2E41"
         id="stop1362" />
      <stop
         offset="1"
         stop-color="#566C80"
         id="stop1363"
         style="stop-color:#566c80;stop-opacity:1;" />
    </linearGradient>
    <linearGradient
       id="paint311_linear_890_11"
       x1="867"
       y1="571"
       x2="863"
       y2="571"
       gradientUnits="userSpaceOnUse">
      <stop
         offset="0.401302"
         stop-color="#2E2E41"
         id="stop1364" />
      <stop
         offset="1"
         stop-color="#566C80"
         id="stop1365" />
    </linearGradient>
    <linearGradient
       inkscape:collect="always"
       xlink:href="#linearGradient10"
       id="linearGradient18"
       x1="875.22314"
       y1="571"
       x2="875.29639"
       y2="561"
       gradientUnits="userSpaceOnUse" />
    <linearGradient
       inkscape:collect="always"
       xlink:href="#linearGradient22"
       id="linearGradient23"
       x1="863"
       y1="571"
       x2="867"
       y2="571"
       gradientUnits="userSpaceOnUse" />
    <linearGradient
       inkscape:collect="always"
       xlink:href="#linearGradient22"
       id="linearGradient25"
       x1="899"
       y1="571"
       x2="903"
       y2="571"
       gradientUnits="userSpaceOnUse" />
    <linearGradient
       inkscape:collect="always"
       xlink:href="#linearGradient26"
       id="linearGradient27"
       x1="858.81604"
       y1="565.97168"
       x2="911"
       y2="617"
       gradientUnits="userSpaceOnUse" />
    <linearGradient
       inkscape:collect="always"
       xlink:href="#linearGradient22"
       id="linearGradient30"
       x1="861"
       y1="584"
       x2="867"
       y2="584"
       gradientUnits="userSpaceOnUse" />
    <linearGradient
       inkscape:collect="always"
       xlink:href="#linearGradient22"
       id="linearGradient32"
       x1="871"
       y1="584"
       x2="877"
       y2="584"
       gradientUnits="userSpaceOnUse" />
    <linearGradient
       inkscape:collect="always"
       xlink:href="#linearGradient22"
       id="linearGradient34"
       x1="881"
       y1="584"
       x2="887"
       y2="584"
       gradientUnits="userSpaceOnUse" />
    <linearGradient
       inkscape:collect="always"
       xlink:href="#linearGradient22"
       id="linearGradient36"
       x1="891"
       y1="584"
       x2="897"
       y2="584"
       gradientUnits="userSpaceOnUse" />
    <linearGradient
       inkscape:collect="always"
       xlink:href="#linearGradient22"
       id="linearGradient38"
       x1="861"
       y1="594"
       x2="867"
       y2="594"
       gradientUnits="userSpaceOnUse" />
    <linearGradient
       inkscape:collect="always"
       xlink:href="#linearGradient22"
       id="linearGradient40"
       x1="871"
       y1="594"
       x2="877"
       y2="594"
       gradientUnits="userSpaceOnUse" />
    <linearGradient
       inkscape:collect="always"
       xlink:href="#linearGradient22"
       id="linearGradient42"
       x1="881"
       y1="594"
       x2="887"
       y2="594"
       gradientUnits="userSpaceOnUse" />
    <linearGradient
       inkscape:collect="always"
       xlink:href="#linearGradient22"
       id="linearGradient44"
       x1="861"
       y1="604"
       x2="867"
       y2="604"
       gradientUnits="userSpaceOnUse" />
    <linearGradient
       inkscape:collect="always"
       xlink:href="#linearGradient22"
       id="linearGradient46"
       x1="871"
       y1="604"
       x2="877"
       y2="604"
       gradientUnits="userSpaceOnUse" />
  </defs>
  <g
     inkscape:label="Layer 1"
     inkscape:groupmode="layer"
     id="layer1">
    <g
       id="g2272"
       transform="translate(-852,-558)">
      <path
         fill-rule="evenodd"
         clip-rule="evenodd"
         d="m 855,571 v 40 c 0,3.314 2.686,6 6,6 h 44 c 3.314,0 6,-2.686 6,-6 v -40 z m 46,6 c 1.105,0 2,-0.895 2,-2 0,-1.105 -0.895,-2 -2,-2 -1.105,0 -2,0.895 -2,2 0,1.105 0.895,2 2,2 z m -34,-2 c 0,1.105 -0.895,2 -2,2 -1.105,0 -2,-0.895 -2,-2 0,-1.105 0.895,-2 2,-2 1.105,0 2,0.895 2,2 z"
         id="path291"
         style="fill:url(#linearGradient27)" />
      <path
         d="m 863,601 c -1.105,0 -2,0.895 -2,2 v 2 c 0,1.105 0.895,2 2,2 h 2 c 1.105,0 2,-0.895 2,-2 v -2 c 0,-1.105 -0.895,-2 -2,-2 z"
         id="path292"
         style="fill:url(#linearGradient44)" />
      <path
         d="m 873,601 c -1.105,0 -2,0.895 -2,2 v 2 c 0,1.105 0.895,2 2,2 h 2 c 1.105,0 2,-0.895 2,-2 v -2 c 0,-1.105 -0.895,-2 -2,-2 z"
         id="path293"
         style="fill:url(#linearGradient46)" />
      <path
         d="m 861,593 c 0,-1.105 0.895,-2 2,-2 h 2 c 1.105,0 2,0.895 2,2 v 2 c 0,1.105 -0.895,2 -2,2 h -2 c -1.105,0 -2,-0.895 -2,-2 z"
         id="path294"
         style="fill:url(#linearGradient38)" />
      <path
         d="m 871,593 c 0,-1.105 0.895,-2 2,-2 h 2 c 1.105,0 2,0.895 2,2 v 2 c 0,1.105 -0.895,2 -2,2 h -2 c -1.105,0 -2,-0.895 -2,-2 z"
         id="path295"
         style="fill:url(#linearGradient40)"
         sodipodi:nodetypes="sssssssss" />
      <path
         d="m 883,591 c -1.105,0 -2,0.895 -2,2 v 2 c 0,1.105 0.895,2 2,2 h 2 c 1.105,0 2,-0.895 2,-2 v -2 c 0,-1.105 -0.895,-2 -2,-2 z"
         id="path296"
         style="fill:url(#linearGradient42)"
         sodipodi:nodetypes="sssssssss" />
      <path
         id="path297"
         d="m 863,581 c -1.105,0 -2,0.895 -2,2 v 2 c 0,1.105 0.895,2 2,2 h 2 c 1.105,0 2,-0.895 2,-2 v -2 c 0,-1.105 -0.895,-2 -2,-2 z"
         style="fill:url(#linearGradient30)" />
      <path
         d="m 873,581 c -1.105,0 -2,0.895 -2,2 v 2 c 0,1.105 0.895,2 2,2 h 2 c 1.105,0 2,-0.895 2,-2 v -2 c 0,-1.105 -0.895,-2 -2,-2 z"
         id="path298"
         style="fill:url(#linearGradient32)" />
      <path
         d="m 881,583 c 0,-1.105 0.895,-2 2,-2 h 2 c 1.105,0 2,0.895 2,2 v 2 c 0,1.105 -0.895,2 -2,2 h -2 c -1.105,0 -2,-0.895 -2,-2 z"
         id="path299"
         style="fill:url(#linearGradient34)" />
      <path
         d="m 893,581 c -1.105,0 -2,0.895 -2,2 v 2 c 0,1.105 0.895,2 2,2 h 2 c 1.105,0 2,-0.895 2,-2 v -2 c 0,-1.105 -0.895,-2 -2,-2 z"
         id="path300"
         style="fill:url(#linearGradient36)" />
      <path
         fill-rule="evenodd"
         clip-rule="evenodd"
         d="m 855,567 c 0,-3.314 2.686,-6 6,-6 h 44 c 3.314,0 6,2.686 6,6 v 4 h -56 z m 12,0 c 0,1.105 -0.895,2 -2,2 -1.105,0 -2,-0.895 -2,-2 0,-1.105 0.895,-2 2,-2 1.105,0 2,0.895 2,2 z m 34,2 c 1.105,0 2,-0.895 2,-2 0,-1.105 -0.895,-2 -2,-2 -1.105,0 -2,0.895 -2,2 0,1.105 0.895,2 2,2 z"
         id="path301"
         style="fill:url(#linearGradient18)" />
      <path
         d="m 899,569 c 0,-1.105 0.895,-2 2,-2 1.105,0 2,0.895 2,2 v 4 c 0,1.105 -0.895,2 -2,2 -1.105,0 -2,-0.895 -2,-2 z"
         id="path302"
         style="fill:url(#linearGradient25);fill-opacity:1" />
      <path
         d="m 863,569 c 0,-1.105 0.895,-2 2,-2 1.105,0 2,0.895 2,2 v 4 c 0,1.105 -0.895,2 -2,2 -1.105,0 -2,-0.895 -2,-2 z"
         id="path303"
         style="fill:url(#linearGradient23);fill-opacity:1" />
    </g>
    <text
       xml:space="preserve"
       style="font-size:23.1213px;font-family:'Blush Asliring';-inkscape-font-specification:'Blush Asliring';text-align:start;writing-mode:lr-tb;direction:ltr;text-anchor:start;fill:#8d5fd3;stroke:#8d5fd3;stroke-width:0;stroke-linecap:round;stroke-linejoin:round;stroke-dasharray:none;paint-order:fill markers stroke;stroke-opacity:1"
       x="24.537563"
       y="55.630013"
       id="text1"><tspan
         sodipodi:role="line"
         id="tspan1"
         x="24.537563"
         y="55.630013"
         style="stroke-width:0;stroke:#8d5fd3;stroke-opacity:1">P.S</tspan></text>
  </g>
</svg>
