<?xml version="1.0" encoding="UTF-8" standalone="no"?>
<svg
   clip-rule="evenodd"
   fill-rule="evenodd"
   stroke-linejoin="round"
   stroke-miterlimit="2"
   viewBox="0 0 62 62"
   version="1.1"
   id="svg10"
   sodipodi:docname="com.github.kjlaw89.archetype.svg"
   width="62"
   height="62"
   inkscape:version="1.4.2 (unknown)"
   xmlns:inkscape="http://www.inkscape.org/namespaces/inkscape"
   xmlns:sodipodi="http://sodipodi.sourceforge.net/DTD/sodipodi-0.dtd"
   xmlns:xlink="http://www.w3.org/1999/xlink"
   xmlns="http://www.w3.org/2000/svg"
   xmlns:svg="http://www.w3.org/2000/svg">
  <defs
     id="defs10">
    <linearGradient
       id="linearGradient10"
       inkscape:collect="always">
      <stop
         style="stop-color:#442178;stop-opacity:1"
         offset="0"
         id="stop10" />
      <stop
         style="stop-color:#5a2ca0;stop-opacity:1"
         offset="1"
         id="stop11" />
    </linearGradient>
    <linearGradient
       inkscape:collect="always"
       xlink:href="#linearGradient10"
       id="linearGradient11"
       x1="31"
       y1="59"
       x2="31"
       y2="3"
       gradientUnits="userSpaceOnUse" />
  </defs>
  <sodipodi:namedview
     id="namedview10"
     pagecolor="#ffffff"
     bordercolor="#000000"
     borderopacity="0.25"
     inkscape:showpageshadow="2"
     inkscape:pageopacity="0.0"
     inkscape:pagecheckerboard="0"
     inkscape:deskcolor="#d1d1d1"
     inkscape:zoom="11.107469"
     inkscape:cx="28.764429"
     inkscape:cy="35.066494"
     inkscape:window-width="1920"
     inkscape:window-height="994"
     inkscape:window-x="0"
     inkscape:window-y="0"
     inkscape:window-maximized="1"
     inkscape:current-layer="svg10"
     showgrid="true">
    <inkscape:grid
       id="grid2"
       units="px"
       originx="0"
       originy="0"
       spacingx="1"
       spacingy="1"
       empcolor="#0099e5"
       empopacity="0.30196078"
       color="#0099e5"
       opacity="0.14901961"
       empspacing="5"
       enabled="true"
       visible="true" />
  </sodipodi:namedview>
  <linearGradient
     id="a"
     x2="1"
     gradientTransform="matrix(0,-46.799983,46.799983,0,632.48571,54.413883)"
     gradientUnits="userSpaceOnUse">
    <stop
       stop-color="#566069"
       offset="0"
       id="stop1" />
    <stop
       stop-color="#6c7884"
       offset="1"
       id="stop2" />
  </linearGradient>
  <path
     d="M 50.952003,3 C 55.394683,3 59,6.6053166 59,11.047997 V 50.952003 C 59,55.394683 55.394683,59 50.952003,59 H 11.047997 C 6.6053166,59 3,55.394683 3,50.952003 V 11.047997 C 3,6.6053166 6.6053166,3 11.047997,3 Z"
     id="path2"
     style="fill-opacity:1.0;fill:url(#linearGradient11);" />
  <path
     d="M 3,12.376408 V 11.047997 C 3,6.6053166 6.6053166,3 11.047997,3 H 50.952003 C 55.394683,3 59,6.6053166 59,11.047997 v 1.328411 z"
     fill-opacity="0.1"
     id="path3"
     style="stroke-width:1.29223;fill-opacity:1;fill:#373e48" />
  <path
     d="m 38.02,7.8690441 c 0,1.381249 -1.11925,2.5000009 -2.500001,2.5000009 -1.380749,0 -2.499999,-1.1187519 -2.499999,-2.5000009 0,-1.381249 1.11925,-2.499999 2.499999,-2.499999 1.380751,0 2.500001,1.11875 2.500001,2.499999 z"
     id="path443"
     style="fill:#ffcc00;fill-opacity:1;stroke-width:1.24999" />
  <path
     d="m 45.42042,7.8690441 c 0,1.381249 -1.119247,2.5000009 -2.499997,2.5000009 -1.380753,0 -2.500003,-1.1187519 -2.500003,-2.5000009 0,-1.381249 1.119253,-2.499999 2.500003,-2.499999 1.38075,0 2.499997,1.11875 2.499997,2.499999 z"
     id="path444"
     style="fill:#37c871;fill-opacity:1;stroke-width:1.24999" />
  <path
     d="m 52.920419,7.8690441 c 0,1.381249 -1.11925,2.5000009 -2.499999,2.5000009 -1.380751,0 -2.5,-1.1187519 -2.5,-2.5000009 0,-1.381249 1.119249,-2.499999 2.5,-2.499999 1.380749,0 2.499999,1.11875 2.499999,2.499999 z"
     id="path445"
     style="fill:#ff5555;fill-opacity:1;stroke-width:1.24999" />
  <text
     xml:space="preserve"
     style="font-size:49.4725px;font-family:'Blush Asliring';-inkscape-font-specification:'Blush Asliring';text-align:start;writing-mode:lr-tb;direction:ltr;text-anchor:start;fill:#d8d8d8;stroke:#d8d8d8;stroke-width:0;stroke-linecap:round;stroke-linejoin:round;paint-order:fill markers stroke;fill-opacity:1;stroke-opacity:1"
     x="11.813578"
     y="53.258495"
     id="text1"
     transform="scale(0.99495073,1.0050749)"><tspan
       sodipodi:role="line"
       id="tspan1"
       x="11.813578"
       y="53.258495"
       style="stroke-width:0;fill:#d8d8d8;fill-opacity:1;stroke:#d8d8d8;stroke-opacity:1">A</tspan><tspan
       sodipodi:role="line"
       x="11.813578"
       y="115.09912"
       id="tspan2"
       style="stroke-width:0;fill:#d8d8d8;fill-opacity:1;stroke:#d8d8d8;stroke-opacity:1" /></text>
</svg>
