<?xml version="1.0" encoding="UTF-8" standalone="no"?>
<!-- Created with Inkscape (http://www.inkscape.org/) -->

<svg
   width="62"
   height="62"
   viewBox="0 0 62 62"
   version="1.1"
   id="svg1"
   inkscape:version="1.4.2 (unknown)"
   sodipodi:docname="com.github.themix_project.Oomox.svg"
   xmlns:inkscape="http://www.inkscape.org/namespaces/inkscape"
   xmlns:sodipodi="http://sodipodi.sourceforge.net/DTD/sodipodi-0.dtd"
   xmlns="http://www.w3.org/2000/svg"
   xmlns:svg="http://www.w3.org/2000/svg">
  <sodipodi:namedview
     id="namedview1"
     pagecolor="#ffffff"
     bordercolor="#000000"
     borderopacity="0.25"
     inkscape:showpageshadow="2"
     inkscape:pageopacity="0.0"
     inkscape:pagecheckerboard="0"
     inkscape:deskcolor="#d1d1d1"
     inkscape:document-units="px"
     inkscape:zoom="10.74725"
     inkscape:cx="28.425876"
     inkscape:cy="22.191723"
     inkscape:window-width="1920"
     inkscape:window-height="996"
     inkscape:window-x="0"
     inkscape:window-y="0"
     inkscape:window-maximized="1"
     inkscape:current-layer="layer1"
     showgrid="true">
    <inkscape:grid
       id="grid1"
       units="px"
       originx="0"
       originy="0"
       spacingx="1"
       spacingy="1"
       empcolor="#0099e5"
       empopacity="0.30196078"
       color="#0099e5"
       opacity="0.14901961"
       empspacing="5"
       enabled="true"
       visible="true" />
  </sodipodi:namedview>
  <defs
     id="defs1">
    <radialGradient
       id="paint664_radial_890_11"
       cx="0"
       cy="0"
       r="1"
       gradientUnits="userSpaceOnUse"
       gradientTransform="matrix(-16.000099,-9.999913,9.999913,-16.000099,583,171)">
      <stop
         offset="0.42141"
         stop-color="#B7C6CD"
         id="stop2071" />
      <stop
         offset="1"
         stop-color="#EFF2F6"
         id="stop2072" />
    </radialGradient>
    <linearGradient
       id="paint665_linear_890_11"
       x1="605"
       y1="180"
       x2="601.466"
       y2="162.72301"
       gradientUnits="userSpaceOnUse">
      <stop
         stop-color="#5200FF"
         id="stop2073" />
      <stop
         offset="1"
         stop-color="#0085FF"
         id="stop2074" />
    </linearGradient>
    <linearGradient
       id="paint666_linear_890_11"
       x1="567"
       y1="181"
       x2="562.11798"
       y2="174.183"
       gradientUnits="userSpaceOnUse">
      <stop
         stop-color="#5200FF"
         id="stop2075" />
      <stop
         offset="0.670391"
         stop-color="#0085FF"
         id="stop2076" />
    </linearGradient>
    <linearGradient
       id="paint667_linear_890_11"
       x1="605"
       y1="180"
       x2="597.32001"
       y2="174.24001"
       gradientUnits="userSpaceOnUse">
      <stop
         stop-color="#5200FF"
         id="stop2077" />
      <stop
         offset="1"
         stop-color="#0085FF"
         id="stop2078" />
    </linearGradient>
    <linearGradient
       id="paint668_linear_890_11"
       x1="567"
       y1="180"
       x2="561.23999"
       y2="172.32001"
       gradientUnits="userSpaceOnUse">
      <stop
         stop-color="#5200FF"
         id="stop2079" />
      <stop
         offset="1"
         stop-color="#0085FF"
         id="stop2080" />
    </linearGradient>
    <linearGradient
       id="paint669_linear_890_11"
       x1="607"
       y1="179"
       x2="602.50598"
       y2="171.80901"
       gradientUnits="userSpaceOnUse">
      <stop
         stop-color="#5200FF"
         id="stop2081" />
      <stop
         offset="1"
         stop-color="#0085FF"
         id="stop2082" />
    </linearGradient>
    <linearGradient
       id="paint670_linear_890_11"
       x1="607"
       y1="217"
       x2="568.82599"
       y2="170.01601"
       gradientUnits="userSpaceOnUse">
      <stop
         stop-color="#5200FF"
         id="stop2083" />
      <stop
         offset="1"
         stop-color="#0085FF"
         id="stop2084" />
    </linearGradient>
    <radialGradient
       id="paint671_radial_890_11"
       cx="0"
       cy="0"
       r="1"
       gradientUnits="userSpaceOnUse"
       gradientTransform="matrix(0,20,-16,0,583,187)">
      <stop
         offset="0.869716"
         stop-color="#EFF2F6"
         id="stop2085" />
      <stop
         offset="1"
         stop-color="#B7C6CD"
         id="stop2086" />
    </radialGradient>
    <linearGradient
       id="paint497_linear_890_11"
       x1="497"
       y1="413"
       x2="447.457"
       y2="376.79599"
       gradientUnits="userSpaceOnUse"
       gradientTransform="translate(-452,-358)">
      <stop
         offset="0.636456"
         stop-color="#71706E"
         id="stop1737" />
      <stop
         offset="1"
         stop-color="#B9AA99"
         id="stop1738" />
    </linearGradient>
    <linearGradient
       id="paint498_linear_890_11"
       x1="507"
       y1="413"
       x2="457.457"
       y2="376.79599"
       gradientUnits="userSpaceOnUse"
       gradientTransform="translate(-452,-358)">
      <stop
         offset="0.544933"
         stop-color="#FF7E07"
         id="stop1739" />
      <stop
         offset="1"
         stop-color="#FFE607"
         id="stop1740" />
    </linearGradient>
    <linearGradient
       id="paint499_linear_890_11"
       x1="473"
       y1="365"
       x2="486.28699"
       y2="389.91299"
       gradientUnits="userSpaceOnUse"
       gradientTransform="translate(-452,-358)">
      <stop
         stop-color="white"
         id="stop1741" />
      <stop
         offset="0.705"
         stop-color="#EAEFEF"
         id="stop1742" />
    </linearGradient>
    <linearGradient
       id="paint500_linear_890_11"
       x1="480"
       y1="371.5"
       x2="480"
       y2="368.5"
       gradientUnits="userSpaceOnUse"
       gradientTransform="translate(-452,-358)">
      <stop
         offset="0.155999"
         stop-color="#71706E"
         id="stop1743" />
      <stop
         offset="0.796276"
         stop-color="#B9AA99"
         id="stop1744" />
    </linearGradient>
    <linearGradient
       id="paint501_linear_890_11"
       x1="479"
       y1="375.5"
       x2="479"
       y2="372.5"
       gradientUnits="userSpaceOnUse"
       gradientTransform="translate(-452,-358)">
      <stop
         offset="0.155999"
         stop-color="#71706E"
         id="stop1745" />
      <stop
         offset="0.796276"
         stop-color="#B9AA99"
         id="stop1746" />
    </linearGradient>
    <linearGradient
       id="paint502_linear_890_11"
       x1="511"
       y1="417"
       x2="455.64352"
       y2="380.82346"
       gradientUnits="userSpaceOnUse"
       gradientTransform="translate(-452,-358)">
      <stop
         offset="0.18397722"
         stop-color="#2E2E41"
         id="stop1747"
         style="stop-color:#33424d;stop-opacity:1;" />
      <stop
         offset="1"
         stop-color="#566C80"
         id="stop1748" />
    </linearGradient>
    <linearGradient
       id="paint745_linear_890_11"
       x1="172"
       y1="61"
       x2="195.978"
       y2="83.979202"
       gradientUnits="userSpaceOnUse">
      <stop
         stop-color="#EFF2F6"
         id="stop2233" />
      <stop
         offset="1"
         stop-color="#ACD1CF"
         id="stop2234" />
    </linearGradient>
    <linearGradient
       id="paint746_linear_890_11"
       x1="176"
       y1="84"
       x2="175.47501"
       y2="78.479202"
       gradientUnits="userSpaceOnUse">
      <stop
         offset="0.404925"
         stop-color="#2E2E41"
         id="stop2235" />
      <stop
         offset="1"
         stop-color="#566C80"
         id="stop2236" />
    </linearGradient>
    <linearGradient
       id="paint747_linear_890_11"
       x1="202"
       y1="84"
       x2="201.47501"
       y2="78.479202"
       gradientUnits="userSpaceOnUse">
      <stop
         offset="0.404925"
         stop-color="#2E2E41"
         id="stop2237" />
      <stop
         offset="1"
         stop-color="#566C80"
         id="stop2238" />
    </linearGradient>
    <linearGradient
       id="paint748_linear_890_11"
       x1="155"
       y1="82"
       x2="186.461"
       y2="132.33701"
       gradientUnits="userSpaceOnUse">
      <stop
         offset="0.205721"
         stop-color="#EFF2F6"
         id="stop2239" />
      <stop
         offset="1"
         stop-color="#B7C6CD"
         id="stop2240" />
    </linearGradient>
    <radialGradient
       id="paint750_radial_890_11"
       cx="0"
       cy="0"
       r="1"
       gradientUnits="userSpaceOnUse"
       gradientTransform="matrix(5.6470608,5.6470608,-5.6470608,5.6470608,172,96)">
      <stop
         offset="0.340843"
         stop-color="#2E2E41"
         id="stop2243" />
      <stop
         offset="1"
         stop-color="#566C80"
         id="stop2244" />
    </radialGradient>
    <linearGradient
       id="paint751_linear_890_11"
       x1="166"
       y1="90"
       x2="178"
       y2="102"
       gradientUnits="userSpaceOnUse">
      <stop
         stop-color="white"
         id="stop2245" />
      <stop
         offset="0.705"
         stop-color="#EAEFEF"
         id="stop2246" />
    </linearGradient>
    <linearGradient
       id="paint752_linear_890_11"
       x1="193"
       y1="88"
       x2="199"
       y2="94"
       gradientUnits="userSpaceOnUse">
      <stop
         stop-color="#FFE607"
         id="stop2247" />
      <stop
         offset="0.802569"
         stop-color="#FF7E07"
         id="stop2248" />
    </linearGradient>
    <linearGradient
       id="paint753_linear_890_11"
       x1="199"
       y1="104"
       x2="193"
       y2="98"
       gradientUnits="userSpaceOnUse">
      <stop
         offset="0.253846"
         stop-color="#089953"
         id="stop2249" />
      <stop
         offset="1"
         stop-color="#16D96F"
         id="stop2250" />
    </linearGradient>
    <linearGradient
       id="paint754_linear_890_11"
       x1="198"
       y1="93"
       x2="204"
       y2="99"
       gradientUnits="userSpaceOnUse">
      <stop
         offset="0.30755"
         stop-color="#F15700"
         id="stop2251" />
      <stop
         offset="0.832479"
         stop-color="#FF0000"
         id="stop2252" />
    </linearGradient>
    <linearGradient
       id="paint755_linear_890_11"
       x1="194"
       y1="99"
       x2="188"
       y2="93"
       gradientUnits="userSpaceOnUse">
      <stop
         offset="0.320751"
         stop-color="#5200FF"
         id="stop2253" />
      <stop
         offset="1"
         stop-color="#0085FF"
         id="stop2254" />
    </linearGradient>
    <linearGradient
       id="paint723_linear_890_11"
       x1="555"
       y1="61"
       x2="610.99902"
       y2="117.38"
       gradientUnits="userSpaceOnUse">
      <stop
         offset="0.186267"
         stop-color="#EFF2F6"
         id="stop2189" />
      <stop
         offset="0.774054"
         stop-color="#B7C6CD"
         id="stop2190" />
    </linearGradient>
    <linearGradient
       id="paint724_linear_890_11"
       x1="568"
       y1="71"
       x2="577.836"
       y2="79.196701"
       gradientUnits="userSpaceOnUse">
      <stop
         offset="0.268133"
         stop-color="#F15700"
         id="stop2191" />
      <stop
         offset="0.700195"
         stop-color="#FF0000"
         id="stop2192" />
    </linearGradient>
    <linearGradient
       id="paint725_linear_890_11"
       x1="583"
       y1="108"
       x2="573"
       y2="98"
       gradientUnits="userSpaceOnUse">
      <stop
         offset="0.29783"
         stop-color="#FF7E07"
         id="stop2193" />
      <stop
         offset="0.909465"
         stop-color="#FFE607"
         id="stop2194" />
    </linearGradient>
    <linearGradient
       id="paint726_linear_890_11"
       x1="597"
       y1="80"
       x2="587"
       y2="70"
       gradientUnits="userSpaceOnUse">
      <stop
         offset="0.334156"
         stop-color="#089953"
         id="stop2195" />
      <stop
         offset="0.842157"
         stop-color="#16D96F"
         id="stop2196" />
    </linearGradient>
    <linearGradient
       id="paint727_linear_890_11"
       x1="572"
       y1="97"
       x2="562"
       y2="87"
       gradientUnits="userSpaceOnUse">
      <stop
         offset="0.314502"
         stop-color="#5200FF"
         id="stop2197" />
      <stop
         offset="0.885503"
         stop-color="#0085FF"
         id="stop2198" />
    </linearGradient>
    <linearGradient
       id="paint728_linear_890_11"
       x1="598.578"
       y1="100.584"
       x2="594.58398"
       y2="104.578"
       gradientUnits="userSpaceOnUse">
      <stop
         stop-color="#2E2E41"
         id="stop2199"
         style="stop-color:#550000;stop-opacity:1" />
      <stop
         offset="1"
         stop-color="#566C80"
         id="stop2200"
         style="stop-color:#ff5555;stop-opacity:1" />
    </linearGradient>
    <linearGradient
       id="paint729_linear_890_11"
       x1="575"
       y1="81"
       x2="589.55603"
       y2="95.556396"
       gradientUnits="userSpaceOnUse">
      <stop
         stop-color="white"
         id="stop2201"
         offset="0"
         style="stop-color:#797979;stop-opacity:1;" />
      <stop
         offset="0.70499998"
         stop-color="#EAEFEF"
         id="stop2202"
         style="stop-color:#5c7a7a;stop-opacity:1;" />
    </linearGradient>
    <linearGradient
       id="paint730_linear_890_11"
       x1="583.40698"
       y1="90.527802"
       x2="577.06799"
       y2="84.189201"
       gradientUnits="userSpaceOnUse">
      <stop
         offset="0.388464"
         stop-color="#71706E"
         id="stop2203" />
      <stop
         offset="1"
         stop-color="#B9AA99"
         id="stop2204" />
    </linearGradient>
  </defs>
  <g
     inkscape:label="Layer 1"
     inkscape:groupmode="layer"
     id="layer1">
    <g
       id="g1"
       transform="matrix(0.98245614,0,0,0.98245614,1.0350876,-52.017544)">
      <path
         id="ellipse845"
         style="opacity:0.2"
         d="M 30.495443,57 A 12.950466,14 0 0 0 18.734731,65.179688 14.307895,12.671782 24.33594 0 0 5.573284,71 14.307895,12.671782 24.33594 0 0 6.97402,85 12.671782,14.307895 65.66406 0 0 5.573284,99 12.671782,14.307895 65.66406 0 0 18.736686,104.82227 12.950466,14 0 0 0 30.495443,113 12.950466,14 0 0 0 42.258108,104.82227 C 47.74097,105.53726 52.882466,103.26237 55.419556,99 58.034189,94.594688 57.292349,89.130681 54.022727,84.996094 a 12.671782,14.307895 65.66406 0 0 0.8127,-1.132813 12.671782,14.307895 65.664058 0 0 0.002,-0.0039 12.671782,14.307895 65.66406 0 0 0.685716,-1.179687 12.671782,14.307895 65.664058 0 0 0.0078,-0.01953 12.671782,14.307895 65.66406 0 0 0.529428,-1.15625 12.671782,14.307895 65.664058 0 0 0.03712,-0.0918 12.671782,14.307895 65.66406 0 0 0.378999,-1.113281 12.671782,14.307895 65.664058 0 0 0.05861,-0.195312 12.671782,14.307895 65.66406 0 0 0.23834,-1.041016 12.671782,14.307895 65.664058 0 0 0.05079,-0.275391 12.671782,14.307895 65.66406 0 0 0.119171,-0.992187 12.671782,14.307895 65.664058 0 0 0.0254,-0.320313 12.671782,14.307895 65.66406 0 0 0.01172,-0.955078 12.671782,14.307895 65.664058 0 0 -0.01172,-0.347656 12.671782,14.307895 65.66406 0 0 -0.08596,-0.892578 12.671782,14.307895 65.664058 0 0 -0.05665,-0.400391 A 12.671782,14.307895 65.66406 0 0 56.650327,74.048828 12.671782,14.307895 65.664058 0 0 56.537018,73.613281 12.671782,14.307895 65.66406 0 0 56.296725,72.890625 12.671782,14.307895 65.664058 0 0 56.103317,72.384766 12.671782,14.307895 65.66406 0 0 55.818091,71.769531 12.671782,14.307895 65.664058 0 0 55.419556,71 12.671782,14.307895 65.66406 0 0 54.810031,70.095703 12.671782,14.307895 65.664058 0 0 54.427123,69.613281 12.671782,14.307895 65.66406 0 0 53.999284,69.107422 12.671782,14.307895 65.664058 0 0 53.577305,68.683594 12.671782,14.307895 65.66406 0 0 53.075228,68.207031 12.671782,14.307895 65.664058 0 0 52.604408,67.826172 12.671782,14.307895 65.66406 0 0 52.065213,67.416016 12.671782,14.307895 65.664058 0 0 51.506481,67.056641 12.671782,14.307895 65.66406 0 0 50.961425,66.728516 12.671782,14.307895 65.664058 0 0 50.336271,66.412109 12.671782,14.307895 65.66406 0 0 49.77754,66.150391 12.671782,14.307895 65.664058 0 0 49.119175,65.896484 12.671782,14.307895 65.66406 0 0 48.503788,65.681641 12.671782,14.307895 65.664058 0 0 47.839562,65.5 12.671782,14.307895 65.66406 0 0 47.196825,65.34375 12.671782,14.307895 65.664058 0 0 46.509156,65.226562 12.671782,14.307895 65.66406 0 0 45.82344,65.128906 12.671782,14.307895 65.664058 0 0 44.651277,65.041016 12.671782,14.307895 65.66406 0 0 42.258108,65.177734 12.950466,14 0 0 0 30.495443,57 Z" />
      <ellipse
         style="fill:#278df2"
         cx="30.498001"
         cy="84"
         rx="23.017"
         ry="22.4"
         id="ellipse1" />
      <ellipse
         id="ellipse8"
         style="fill:#34e0c4"
         cx="88.196854"
         cy="2.3428164"
         rx="12.688"
         ry="14.29"
         transform="matrix(0.51022897,0.8600386,-0.87181218,0.4898403,0,0)" />
      <ellipse
         id="ellipse10"
         style="fill:#ffc107"
         cx="30.498001"
         cy="98"
         rx="12.947"
         ry="14" />
      <ellipse
         id="ellipse14"
         style="fill:#fb8300"
         cx="88.196854"
         cy="30.923817"
         rx="12.688"
         ry="14.29"
         transform="matrix(0.51022897,0.8600386,-0.87181218,0.4898403,0,0)" />
      <ellipse
         id="ellipse18"
         style="fill:#fa3e30"
         cx="58.309753"
         cy="54.818707"
         rx="12.688"
         ry="14.29"
         transform="matrix(-0.51022897,0.8600386,0.87181218,0.4898403,0,0)" />
      <path
         style="fill:#a544c9"
         d="M 30.498355,56 A 12.947274,14 0 0 0 17.551081,70 12.947274,14 0 0 0 30.498355,84 12.671251,14.304968 65.62011 0 1 36.483096,66.087109 12.671251,14.304968 65.62011 0 1 42.257108,64.178516 12.947274,14 0 0 0 30.498355,56 Z m 0,28 A 12.947274,14 0 0 0 42.805008,74.317578 12.947274,14 0 0 1 41.06578,78.055468 14.304968,12.671251 24.37989 0 0 30.498355,84 Z m 12.306653,-9.682422 a 12.947274,14 0 0 0 0.311883,-1.235937 12.947274,14 0 0 1 -0.311883,1.235937 z m -0.396172,-9.767187 a 12.947274,14 0 0 1 0.432697,1.276952 12.947274,14 0 0 0 -0.432697,-1.276952 z m 0.452367,1.334375 a 12.947274,14 0 0 1 0.264118,1.107421 12.947274,14 0 0 0 -0.264118,-1.107421 z m 0.337168,1.449218 a 12.947274,14 0 0 1 0.126433,0.894141 12.947274,14 0 0 0 -0.126433,-0.894141 z m 0.188253,1.451953 a 12.947274,14 0 0 1 0.059,1.214063 12.947274,14 0 0 0 -0.059,-1.214063 z m 0.03089,1.832031 a 12.947274,14 0 0 1 -0.05619,0.91875 12.947274,14 0 0 0 0.05619,-0.91875 z m -0.101146,1.241407 a 12.947274,14 0 0 1 -0.168585,1.085547 12.947274,14 0 0 0 0.168585,-1.085547 z"
         id="path1" />
      <path
         style="fill:#14c263;fill-opacity:1"
         d="M 41.265272,78.041797 C 36.664372,78.168472 32.635433,80.398009 30.498355,84 c 7.150582,0 12.947274,6.268013 12.947274,14 -0.005,2.01026 -0.410414,3.99576 -1.188521,5.82148 5.48151,0.71499 10.621541,-1.55911 13.158006,-5.82148 3.576034,-6.026629 0.896479,-14.046787 -5.984745,-17.912891 -2.510638,-1.410133 -5.356661,-2.123047 -8.165097,-2.045312 z m 0.991836,25.779683 z M 30.498355,84 Z"
         id="path2" />
      <path
         id="ellipse980"
         style="fill:#1cb7fc;fill-opacity:1"
         d="m 44.649603,64.041797 a 12.671251,14.304968 65.62011 0 0 -8.165803,2.04668 12.671251,14.304968 65.62011 0 0 -5.984743,17.91084 c 2.137203,-3.601511 6.165664,-5.830855 10.766215,-5.957521 2.808436,-0.07773 5.654459,0.63518 8.165097,2.045313 1.849727,1.039238 3.392704,2.380431 4.59533,3.900586 A 12.671251,14.304968 65.62011 0 0 55.415815,70 12.671251,14.304968 65.62011 0 0 44.649603,64.041797 Z M 30.499057,84 a 12.671251,14.304968 65.62011 0 0 10.586391,5.945215 C 38.742085,86.350418 34.875558,84.000252 30.499057,84 Z" />
      <path
         style="fill:#ffc107"
         d="m 30.499057,83.999317 c -22.31516,22.400453 -11.157581,11.200228 0,0 z m 0,6.83e-4 c 2.271683,4.527431 6.178068,6.487701 10.586391,5.945215 C 38.742085,86.350418 34.875558,84.000252 30.499057,84 Z"
         id="path3" />
      <path
         style="opacity:0.2;fill:#ffffff"
         d="M 30.496094,56 A 12.950466,14 0 0 0 18.734375,64.179688 14.307895,12.671782 24.33594 0 0 5.5742188,70 14.307895,12.671782 24.33594 0 0 4.0253906,76.371094 14.307895,12.671782 24.33594 0 1 5.5742188,71 14.307895,12.671782 24.33594 0 1 18.734375,65.179688 12.950466,14 0 0 1 30.496094,57 a 12.950466,14 0 0 1 11.761718,8.177734 12.671782,14.307895 65.66406 0 1 2.392579,-0.136718 12.671782,14.307895 65.664058 0 1 1.173828,0.08789 12.671782,14.307895 65.66406 0 1 0.685547,0.09766 12.671782,14.307895 65.664058 0 1 0.6875,0.117188 12.671782,14.307895 65.66406 0 1 0.642578,0.15625 12.671782,14.307895 65.664058 0 1 0.664062,0.181641 12.671782,14.307895 65.66406 0 1 0.615235,0.214843 12.671782,14.307895 65.664058 0 1 0.658203,0.253907 12.671782,14.307895 65.66406 0 1 0.558594,0.261718 12.671782,14.307895 65.664058 0 1 0.625,0.316407 12.671782,14.307895 65.66406 0 1 0.544921,0.328125 12.671782,14.307895 65.664058 0 1 0.558594,0.359375 12.671782,14.307895 65.66406 0 1 0.539063,0.410156 12.671782,14.307895 65.664058 0 1 0.472656,0.380859 12.671782,14.307895 65.66406 0 1 0.501953,0.476563 A 12.671782,14.307895 65.664058 0 1 54,69.107422 12.671782,14.307895 65.66406 0 1 54.427734,69.613281 12.671782,14.307895 65.664058 0 1 54.810547,70.095703 12.671782,14.307895 65.66406 0 1 55.419922,71 a 12.671782,14.307895 65.664058 0 1 0.398437,0.769531 12.671782,14.307895 65.66406 0 1 0.285157,0.615235 12.671782,14.307895 65.664058 0 1 0.193359,0.505859 12.671782,14.307895 65.66406 0 1 0.240234,0.722656 12.671782,14.307895 65.664058 0 1 0.113282,0.435547 12.671782,14.307895 65.66406 0 1 0.175781,0.830078 12.671782,14.307895 65.664058 0 1 0.05664,0.400391 12.671782,14.307895 65.66406 0 1 0.08594,0.892578 12.671782,14.307895 65.664058 0 1 0.002,0.08008 12.671782,14.307895 65.66406 0 0 0.0098,-0.732422 12.671782,14.307895 65.664058 0 0 -0.01172,-0.347656 12.671782,14.307895 65.66406 0 0 -0.08594,-0.892578 12.671782,14.307895 65.664058 0 0 -0.05664,-0.400391 12.671782,14.307895 65.66406 0 0 -0.175861,-0.83008 A 12.671782,14.307895 65.664058 0 0 56.537109,72.613281 12.671782,14.307895 65.66406 0 0 56.296875,71.890625 12.671782,14.307895 65.664058 0 0 56.103516,71.384766 12.671782,14.307895 65.66406 0 0 55.818359,70.769531 12.671782,14.307895 65.664058 0 0 55.419922,70 12.671782,14.307895 65.66406 0 0 54.810547,69.095703 12.671782,14.307895 65.664058 0 0 54.427734,68.613281 12.671782,14.307895 65.66406 0 0 54,68.107422 12.671782,14.307895 65.664058 0 0 53.578125,67.683594 12.671782,14.307895 65.66406 0 0 53.076172,67.207031 12.671782,14.307895 65.664058 0 0 52.603516,66.826172 12.671782,14.307895 65.66406 0 0 52.064453,66.416016 12.671782,14.307895 65.664058 0 0 51.505859,66.056641 12.671782,14.307895 65.66406 0 0 50.960938,65.728516 12.671782,14.307895 65.664058 0 0 50.335938,65.412109 12.671782,14.307895 65.66406 0 0 49.777344,65.150391 12.671782,14.307895 65.664058 0 0 49.119141,64.896484 12.671782,14.307895 65.66406 0 0 48.503906,64.681641 12.671782,14.307895 65.664058 0 0 47.839844,64.5 12.671782,14.307895 65.66406 0 0 47.197266,64.34375 12.671782,14.307895 65.664058 0 0 46.509766,64.226562 12.671782,14.307895 65.66406 0 0 45.824219,64.128902 12.671782,14.307895 65.664058 0 0 44.650391,64.041012 12.671782,14.307895 65.66406 0 0 42.257812,64.17773 12.950466,14 0 0 0 30.496094,56 Z m 23.890625,28.490234 a 12.671782,14.307895 65.66406 0 1 -0.363281,0.50586 c 1.819521,2.300868 2.853765,5.013853 2.964843,7.726562 0.125288,-2.84986 -0.802034,-5.751005 -2.601562,-8.232422 z M 6.6054688,84.511719 A 12.671782,14.307895 65.66406 0 0 4.0214844,92.798828 12.671782,14.307895 65.66406 0 1 6.9746094,85 14.307895,12.671782 24.33594 0 1 6.6054688,84.511719 Z"
         id="path4" />
    </g>
    <g
       id="g2"
       transform="matrix(0.84375,0,0,0.84848485,-22.15625,-32.409091)">
      <path
         style="opacity:0.2"
         d="M 63,61 A 16,16 0 1 0 79,77 V 65 c 0,-2.216 -1.784,-4 -4,-4 z m 9,4 a 3,3 0 0 1 3,3 3,3 0 0 1 -3,2.999998 A 3,3 0 0 1 69.000002,68 3,3 0 0 1 72,65 Z"
         id="path8" />
      <path
         style="fill:#ffffff"
         d="M 63,60 A 16,16 0 1 0 79,76 V 64 c 0,-2.216 -1.784,-4 -4,-4 z m 9,4 a 3,3 0 0 1 3,3 3,3 0 0 1 -3,2.999998 A 3,3 0 0 1 69.000002,67 3,3 0 0 1 72,64 Z"
         id="path9" />
    </g>
  </g>
</svg>
