<?xml version="1.0" encoding="UTF-8" standalone="no"?>
<!-- Created with Inkscape (http://www.inkscape.org/) -->

<svg
   width="62"
   height="62"
   viewBox="0 0 62 62"
   version="1.1"
   id="svg1"
   inkscape:version="1.4.2 (unknown)"
   sodipodi:docname="folder.svg"
   xmlns:inkscape="http://www.inkscape.org/namespaces/inkscape"
   xmlns:sodipodi="http://sodipodi.sourceforge.net/DTD/sodipodi-0.dtd"
   xmlns:xlink="http://www.w3.org/1999/xlink"
   xmlns="http://www.w3.org/2000/svg"
   xmlns:svg="http://www.w3.org/2000/svg">
  <sodipodi:namedview
     id="namedview1"
     pagecolor="#ffffff"
     bordercolor="#000000"
     borderopacity="0.25"
     inkscape:showpageshadow="2"
     inkscape:pageopacity="0.0"
     inkscape:pagecheckerboard="0"
     inkscape:deskcolor="#d1d1d1"
     inkscape:document-units="px"
     inkscape:zoom="10.74725"
     inkscape:cx="30.100723"
     inkscape:cy="30.8451"
     inkscape:window-width="1920"
     inkscape:window-height="994"
     inkscape:window-x="0"
     inkscape:window-y="0"
     inkscape:window-maximized="1"
     inkscape:current-layer="layer1"
     showgrid="true">
    <inkscape:grid
       id="grid1"
       units="px"
       originx="0"
       originy="0"
       spacingx="1"
       spacingy="1"
       empcolor="#0099e5"
       empopacity="0.30196078"
       color="#0099e5"
       opacity="0.14901961"
       empspacing="5"
       enabled="true"
       visible="true" />
  </sodipodi:namedview>
  <defs
     id="defs1">
    <linearGradient
       id="linearGradient5"
       inkscape:collect="always">
      <stop
         style="stop-color:#566c80;stop-opacity:1;"
         offset="0"
         id="stop5" />
      <stop
         style="stop-color:#323f4b;stop-opacity:1;"
         offset="0.7836225"
         id="stop7" />
      <stop
         style="stop-color:#29333d;stop-opacity:1;"
         offset="1"
         id="stop6" />
    </linearGradient>
    <linearGradient
       id="linearGradient3"
       inkscape:collect="always">
      <stop
         style="stop-color:#b89be3;stop-opacity:1;"
         offset="0"
         id="stop3" />
      <stop
         style="stop-color:#422277;stop-opacity:1;"
         offset="1"
         id="stop4" />
    </linearGradient>
    <linearGradient
       id="linearGradient1"
       inkscape:collect="always">
      <stop
         style="stop-color:#80b2ff;stop-opacity:1;"
         offset="0"
         id="stop1" />
      <stop
         style="stop-color:#007a99;stop-opacity:1;"
         offset="1"
         id="stop2" />
    </linearGradient>
    <radialGradient
       id="paint664_radial_890_11"
       cx="0"
       cy="0"
       r="1"
       gradientUnits="userSpaceOnUse"
       gradientTransform="matrix(-16.000099,-9.999913,9.999913,-16.000099,583,171)">
      <stop
         offset="0.42141"
         stop-color="#B7C6CD"
         id="stop2071" />
      <stop
         offset="1"
         stop-color="#EFF2F6"
         id="stop2072" />
    </radialGradient>
    <linearGradient
       id="paint665_linear_890_11"
       x1="605"
       y1="180"
       x2="601.466"
       y2="162.72301"
       gradientUnits="userSpaceOnUse">
      <stop
         stop-color="#5200FF"
         id="stop2073" />
      <stop
         offset="1"
         stop-color="#0085FF"
         id="stop2074" />
    </linearGradient>
    <linearGradient
       id="paint666_linear_890_11"
       x1="567"
       y1="181"
       x2="562.11798"
       y2="174.183"
       gradientUnits="userSpaceOnUse">
      <stop
         stop-color="#5200FF"
         id="stop2075" />
      <stop
         offset="0.670391"
         stop-color="#0085FF"
         id="stop2076" />
    </linearGradient>
    <linearGradient
       id="paint667_linear_890_11"
       x1="605"
       y1="180"
       x2="597.32001"
       y2="174.24001"
       gradientUnits="userSpaceOnUse">
      <stop
         stop-color="#5200FF"
         id="stop2077" />
      <stop
         offset="1"
         stop-color="#0085FF"
         id="stop2078" />
    </linearGradient>
    <linearGradient
       id="paint668_linear_890_11"
       x1="567"
       y1="180"
       x2="561.23999"
       y2="172.32001"
       gradientUnits="userSpaceOnUse">
      <stop
         stop-color="#5200FF"
         id="stop2079" />
      <stop
         offset="1"
         stop-color="#0085FF"
         id="stop2080" />
    </linearGradient>
    <linearGradient
       id="paint669_linear_890_11"
       x1="607"
       y1="179"
       x2="602.50598"
       y2="171.80901"
       gradientUnits="userSpaceOnUse">
      <stop
         stop-color="#5200FF"
         id="stop2081" />
      <stop
         offset="1"
         stop-color="#0085FF"
         id="stop2082" />
    </linearGradient>
    <linearGradient
       id="paint670_linear_890_11"
       x1="607"
       y1="217"
       x2="568.82599"
       y2="170.01601"
       gradientUnits="userSpaceOnUse">
      <stop
         stop-color="#5200FF"
         id="stop2083" />
      <stop
         offset="1"
         stop-color="#0085FF"
         id="stop2084" />
    </linearGradient>
    <radialGradient
       id="paint671_radial_890_11"
       cx="0"
       cy="0"
       r="1"
       gradientUnits="userSpaceOnUse"
       gradientTransform="matrix(0,20,-16,0,583,187)">
      <stop
         offset="0.869716"
         stop-color="#EFF2F6"
         id="stop2085" />
      <stop
         offset="1"
         stop-color="#B7C6CD"
         id="stop2086" />
    </radialGradient>
    <linearGradient
       id="paint497_linear_890_11"
       x1="497"
       y1="413"
       x2="447.457"
       y2="376.79599"
       gradientUnits="userSpaceOnUse"
       gradientTransform="translate(-452,-358)">
      <stop
         offset="0.636456"
         stop-color="#71706E"
         id="stop1737" />
      <stop
         offset="1"
         stop-color="#B9AA99"
         id="stop1738" />
    </linearGradient>
    <linearGradient
       id="paint498_linear_890_11"
       x1="507"
       y1="413"
       x2="457.457"
       y2="376.79599"
       gradientUnits="userSpaceOnUse"
       gradientTransform="translate(-452,-358)">
      <stop
         offset="0.544933"
         stop-color="#FF7E07"
         id="stop1739" />
      <stop
         offset="1"
         stop-color="#FFE607"
         id="stop1740" />
    </linearGradient>
    <linearGradient
       id="paint499_linear_890_11"
       x1="473"
       y1="365"
       x2="486.28699"
       y2="389.91299"
       gradientUnits="userSpaceOnUse"
       gradientTransform="translate(-452,-358)">
      <stop
         stop-color="white"
         id="stop1741" />
      <stop
         offset="0.705"
         stop-color="#EAEFEF"
         id="stop1742" />
    </linearGradient>
    <linearGradient
       id="paint500_linear_890_11"
       x1="480"
       y1="371.5"
       x2="480"
       y2="368.5"
       gradientUnits="userSpaceOnUse"
       gradientTransform="translate(-452,-358)">
      <stop
         offset="0.155999"
         stop-color="#71706E"
         id="stop1743" />
      <stop
         offset="0.796276"
         stop-color="#B9AA99"
         id="stop1744" />
    </linearGradient>
    <linearGradient
       id="paint501_linear_890_11"
       x1="479"
       y1="375.5"
       x2="479"
       y2="372.5"
       gradientUnits="userSpaceOnUse"
       gradientTransform="translate(-452,-358)">
      <stop
         offset="0.155999"
         stop-color="#71706E"
         id="stop1745" />
      <stop
         offset="0.796276"
         stop-color="#B9AA99"
         id="stop1746" />
    </linearGradient>
    <linearGradient
       id="paint502_linear_890_11"
       x1="511"
       y1="417"
       x2="459"
       y2="383.64755"
       gradientUnits="userSpaceOnUse"
       gradientTransform="translate(-452,-361.55289)">
      <stop
         offset="0.207424"
         stop-color="#2E2E41"
         id="stop1747"
         style="stop-color:#3e3e57;stop-opacity:1;" />
      <stop
         offset="1"
         stop-color="#566C80"
         id="stop1748" />
    </linearGradient>
    <linearGradient
       inkscape:collect="always"
       xlink:href="#linearGradient1"
       id="linearGradient2"
       x1="31"
       y1="2.9650395"
       x2="31"
       y2="30.283407"
       gradientUnits="userSpaceOnUse"
       gradientTransform="matrix(1,0,0,0.76871358,2.0970049e-7,9.1678469)" />
    <linearGradient
       inkscape:collect="always"
       xlink:href="#linearGradient3"
       id="linearGradient4"
       x1="12"
       y1="3"
       x2="16"
       y2="27.916666"
       gradientUnits="userSpaceOnUse"
       gradientTransform="matrix(1,0,0,0.92307692,0,0.67788209)" />
    <linearGradient
       inkscape:collect="always"
       xlink:href="#linearGradient5"
       id="linearGradient6"
       x1="7"
       y1="21.447113"
       x2="55"
       y2="52.447113"
       gradientUnits="userSpaceOnUse" />
  </defs>
  <g
     inkscape:label="Layer 1"
     inkscape:groupmode="layer"
     id="layer1">
    <g
       id="g1"
       transform="translate(0,1.552887)">
      <path
         d="m 7,8.0624979 c 0,-2.5486158 2.239,-4.615385 5,-4.615385 h 28 c 2.761,0 5,2.0667692 5,4.615385 V 46.831728 c 0,2.548616 -2.239,4.615385 -5,4.615385 H 12 c -2.761,0 -5,-2.066769 -5,-4.615385 z"
         id="path487"
         style="fill:url(#linearGradient4);stroke-width:0.960769" />
      <path
         d="m 17,16.443751 c 0,-2.997983 1.998655,-4.996638 5,-4.996638 h 27.999999 c 2.975797,0 4.971994,1.998655 4.974452,4.996638 l 0.02555,31.159775 c 0.0017,2.122418 -2.239,3.843568 -5,3.843568 H 22 c -2.761,0 -5,-1.72115 -5,-3.843568 z"
         id="path488"
         style="fill:url(#linearGradient2);fill-opacity:1;stroke-width:0.876763"
         sodipodi:nodetypes="sssssssss" />
      <path
         d="m 3,51.447113 v -30 c 0,-2.209 1.791,-4 4,-4 h 9 c 0.657,0 1.303,0.162 1.882,0.47 l 39,21.795 c 1.304,0.696 2.118,2.053 2.118,3.53 v 8.205 c 0,2.209 -1.791,4 -4,4 H 7 c -2.209,0 -4,-1.791 -4,-4 z"
         id="path492"
         style="fill:url(#linearGradient6)" />
    </g>
    <circle
       style="opacity:0.2;stroke-width:0.999982"
       cx="45.897102"
       cy="47.373001"
       r="8.3599987"
       id="circle4" />
    <circle
       style="fill:#8d5fd3;stroke-width:0.999982"
       cx="45.897102"
       cy="46.993"
       r="8.3599987"
       id="circle5" />
    <path
       style="fill:#ffffff;fill-rule:evenodd;stroke-width:0.999982"
       d="m 45.897099,43.192999 c -1.178608,0.01144 -2.365194,0.280772 -3.391804,0.8626 -0.409191,0.26653 -0.900447,0.61078 -1.270641,0.9576 -0.582534,0.57044 -1.081102,1.235988 -1.417554,1.980558 0.923324,2.036875 2.953284,3.52982 5.186394,3.750295 1.464822,0.165809 2.997741,-0.0873 4.28541,-0.812135 0.409176,-0.266533 0.900446,-0.61078 1.270645,-0.9576 0.582161,-0.57076 1.08072,-1.23576 1.417399,-1.98056 -0.9234,-2.036798 -2.95336,-3.530201 -5.186239,-3.7506 -0.296401,-0.0342 -0.59508,-0.05018 -0.893761,-0.05018 z m 0,1.520303 c 1.221323,-0.02704 2.303027,1.065594 2.280003,2.280531 0.03911,1.342769 -1.298841,2.501618 -2.621395,2.250815 -1.335777,-0.156839 -2.273993,-1.655431 -1.834713,-2.924859 0.280567,-0.934494 1.197607,-1.61804 2.176105,-1.606487 z m 0,1.520303 a 0.75999999,0.76015198 0 0 0 -0.76,0.760152 0.75999999,0.76015198 0 0 0 0.76,0.760154 0.75999999,0.76015198 0 0 0 0.759994,-0.760154 0.75999999,0.76015198 0 0 0 -0.76,-0.75924 z"
       id="path5" />
  </g>
</svg>
