<?xml version="1.0" encoding="UTF-8" standalone="no"?>
<svg
   width="62"
   height="62"
   viewBox="0 0 62 62"
   version="1.1"
   id="svg28"
   sodipodi:docname="com.github.parnold-x.timer.svg"
   inkscape:version="1.4.2 (unknown)"
   xmlns:inkscape="http://www.inkscape.org/namespaces/inkscape"
   xmlns:sodipodi="http://sodipodi.sourceforge.net/DTD/sodipodi-0.dtd"
   xmlns="http://www.w3.org/2000/svg"
   xmlns:svg="http://www.w3.org/2000/svg">
  <sodipodi:namedview
     id="namedview28"
     pagecolor="#ffffff"
     bordercolor="#000000"
     borderopacity="0.25"
     inkscape:showpageshadow="2"
     inkscape:pageopacity="0.0"
     inkscape:pagecheckerboard="0"
     inkscape:deskcolor="#d1d1d1"
     showgrid="true"
     inkscape:zoom="11.921875"
     inkscape:cx="28.728702"
     inkscape:cy="32"
     inkscape:current-layer="svg28">
    <inkscape:grid
       id="grid28"
       units="px"
       originx="0"
       originy="0"
       spacingx="1"
       spacingy="1"
       empcolor="#0099e5"
       empopacity="0.30196078"
       color="#0099e5"
       opacity="0.14901961"
       empspacing="5"
       enabled="true"
       visible="true" />
  </sodipodi:namedview>
  <defs
     id="defs4">
    <radialGradient
       id="radial0"
       gradientUnits="userSpaceOnUse"
       cx="8.4666662"
       cy="-207.59166"
       fx="8.4666662"
       fy="-207.59166"
       r="2.116667"
       gradientTransform="matrix(1.889764,0,0,1.889764,15.999998,422.29925)">
      <stop
         offset="0"
         style="stop-color:rgb(100%,100%,100%);stop-opacity:1;"
         id="stop1" />
      <stop
         offset="1"
         style="stop-color:rgb(100%,100%,100%);stop-opacity:0;"
         id="stop2" />
    </radialGradient>
    <linearGradient
       id="linear0"
       gradientUnits="userSpaceOnUse"
       x1="8.4666662"
       y1="-199.125"
       x2="8.4666662"
       y2="-213.94167"
       gradientTransform="matrix(3.779528,0,0,3.779528,0,812.59847)">
      <stop
         offset="0"
         style="stop-color:rgb(0%,0%,0%);stop-opacity:0.2;"
         id="stop3" />
      <stop
         offset="1"
         style="stop-color:rgb(100%,100%,100%);stop-opacity:0;"
         id="stop4" />
    </linearGradient>
  </defs>
  <g
     id="surface1"
     transform="matrix(1,0,0,0.98881509,-1,-0.95526036)">
    <path
       d="m 9.371094,9.371094 c 3.125,-3.121094 7.558594,-3.753906 9.902344,-1.414063 2.339843,2.34375 1.707031,6.777344 -1.414063,9.902344 -3.125,3.121094 -7.558594,3.757813 -9.902344,1.414063 C 5.613281,16.929688 6.25,12.496094 9.371094,9.371094 Z m 0,0"
       id="path4"
       style="fill:#7137c8" />
    <path
       style="fill:#ffffff;fill-opacity:0.4;fill-rule:nonzero;stroke:none"
       d="M 15.609375,6.539062 C 13.546875,6.53125 11.234375,7.511719 9.375,9.375 7.375,11.371094 6.394531,13.890625 6.554688,16.0625 6.695312,14.128906 7.660156,12.035156 9.375,10.320312 12.507812,7.1875 16.921875,6.554688 19.269531,8.90625 c 0.851563,0.851562 1.3125,1.972656 1.40625,3.207031 0.113281,-1.601562 -0.339843,-3.089843 -1.40625,-4.152343 -0.953125,-0.957032 -2.25,-1.421876 -3.660156,-1.421876 z m 0,0"
       id="path5" />
    <path
       d="m 46.140625,17.859375 c -3.121094,-3.125 -3.757813,-7.558594 -1.414063,-9.902344 2.34375,-2.339843 6.777344,-1.707031 9.902344,1.414063 3.121094,3.125 3.753906,7.558594 1.414063,9.902344 -2.34375,2.34375 -6.777344,1.707031 -9.902344,-1.414063 z m 0,0"
       id="path6"
       style="fill:#7137c8" />
    <path
       style="fill:#ffffff;fill-opacity:0.4;fill-rule:nonzero;stroke:none"
       d="m 48.390625,6.539062 c -1.410156,0 -2.707031,0.464844 -3.660156,1.421876 -1.066407,1.0625 -1.519531,2.550781 -1.40625,4.152343 0.09375,-1.234375 0.554687,-2.355469 1.40625,-3.207031 2.347656,-2.351562 6.761719,-1.71875 9.894531,1.414062 1.714844,1.714844 2.679688,3.808594 2.820312,5.742188 C 57.605469,13.890625 56.625,11.371094 54.625,9.375 52.765625,7.511719 50.453125,6.53125 48.390625,6.539062 Z m 0,0"
       id="path7" />
    <path
       d="M 32,4 C 47.460938,4 60,16.535156 60,32 60,47.460938 47.460938,59.996094 32,59.996094 16.539062,59.996094 4,47.460938 4,32 4,16.535156 16.539062,4 32,4 Z m 0,0"
       id="path8"
       style="fill:#8d5fd3" />
    <path
       style="fill:#e5e5e5;fill-opacity:1;fill-rule:nonzero;stroke:none"
       d="M 32,8 C 45.253906,8 56,18.746094 56,32 56,45.25 45.253906,55.996094 32,55.996094 18.746094,55.996094 8,45.25 8,32 8,18.746094 18.746094,8 32,8 Z m 0,0"
       id="path9" />
    <path
       d="M 32,14.953125 V 32 L 19.933594,44.066406 C 23.015625,47.148438 27.277344,49.046875 32,49.046875 41.445312,49.046875 49.046875,41.445312 49.046875,32 49.046875,22.554688 41.445312,14.953125 32,14.953125 Z m 0,0"
       id="path10"
       style="fill:#37c871" />
    <path
       style="fill:#000000;fill-opacity:0.2;fill-rule:nonzero;stroke:none"
       d="M 4.015625,31.871721 C 4.007812,32.125627 4,32.379534 4,32.637346 4,48.098284 16.539062,60.63344 32,60.63344 c 15.460938,0 28,-12.535156 28,-27.996094 0,-0.257812 -0.0078,-0.511719 -0.01563,-0.765625 C 59.582031,46.97719 47.207031,59.10219 32,59.10219 c -15.207031,0 -27.582031,-12.125 -27.984375,-27.230469 z m 0,0"
       id="path11" />
    <path
       style="fill:#000000;fill-opacity:0.4;fill-rule:nonzero;stroke:none"
       d="m 32.863281,32.5 c -0.03906,0.07422 -0.09375,0.144531 -0.15625,0.207031 L 21.039062,44.375 c -0.390624,0.390625 -1.023437,0.390625 -1.414062,0 -0.0625,-0.0625 -0.117188,-0.132812 -0.15625,-0.207031 -0.222656,0.382812 -0.171875,0.878906 0.15625,1.207031 0.390625,0.390625 1.023438,0.390625 1.414062,0 L 32.707031,33.707031 C 33.035156,33.378906 33.085938,32.882812 32.863281,32.5 Z m 0,0"
       id="path12" />
    <path
       style="fill:#616161;fill-opacity:1;fill-rule:nonzero;stroke:none"
       d="M 31.472656,9.5 C 31.210938,9.511719 31,9.730469 31,10 v 6 c 0,0.277344 0.222656,0.5 0.5,0.5 h 1 C 32.777344,16.5 33,16.277344 33,16 V 10 C 33,9.722656 32.777344,9.5 32.5,9.5 h -1 c -0.0078,0 -0.01563,0 -0.02734,0 z m -10.050781,2.699219 c -0.08203,0 -0.164063,0.01953 -0.238281,0.06641 l -0.867188,0.5 c -0.238281,0.136719 -0.320312,0.441406 -0.179687,0.683594 l 1.75,3.03125 c 0.136719,0.238281 0.441406,0.320312 0.679687,0.179687 l 0.867188,-0.5 c 0.238281,-0.136718 0.320312,-0.441406 0.179687,-0.679687 l -1.75,-3.03125 c -0.09375,-0.167969 -0.265625,-0.257813 -0.441406,-0.25 z m 21.109375,0 c -0.160156,0.0078 -0.308594,0.09766 -0.394531,0.25 l -1.75,3.03125 c -0.140625,0.238281 -0.05859,0.542969 0.179687,0.679687 l 0.867188,0.5 c 0.238281,0.140625 0.542968,0.05859 0.679687,-0.179687 l 1.75,-3.03125 c 0.140625,-0.242188 0.05859,-0.546875 -0.179687,-0.683594 l -0.867188,-0.5 c -0.08984,-0.05469 -0.1875,-0.07422 -0.285156,-0.06641 z M 13.1875,20.066406 c -0.171875,0.0039 -0.332031,0.09375 -0.421875,0.25 l -0.5,0.867188 c -0.140625,0.238281 -0.05859,0.542968 0.183594,0.679687 l 3.03125,1.75 c 0.238281,0.140625 0.542969,0.05859 0.679687,-0.179687 l 0.5,-0.867188 c 0.140625,-0.238281 0.05859,-0.542968 -0.179687,-0.679687 l -3.03125,-1.75 c -0.08594,-0.05078 -0.175781,-0.07031 -0.261719,-0.07031 z m 37.601562,0 c -0.08203,0.0039 -0.160156,0.02344 -0.238281,0.07031 l -3.03125,1.75 c -0.238281,0.136719 -0.320312,0.441406 -0.179687,0.679687 l 0.5,0.867188 c 0.136718,0.238281 0.441406,0.320312 0.679687,0.179687 l 3.03125,-1.75 c 0.242188,-0.136719 0.324219,-0.441406 0.183594,-0.679687 l -0.5,-0.867188 c -0.09375,-0.164062 -0.269531,-0.253906 -0.445313,-0.25 z M 9.976562,31 C 9.710938,31.011719 9.5,31.230469 9.5,31.5 v 1 c 0,0.277344 0.222656,0.5 0.5,0.5 h 6 c 0.277344,0 0.5,-0.222656 0.5,-0.5 v -1 C 16.5,31.222656 16.277344,31 16,31 h -6 c -0.00781,0 -0.015625,0 -0.023438,0 z m 37.996094,0 C 47.710938,31.011719 47.5,31.230469 47.5,31.5 v 1 c 0,0.277344 0.222656,0.5 0.5,0.5 h 6 c 0.277344,0 0.5,-0.222656 0.5,-0.5 v -1 C 54.5,31.222656 54.277344,31 54,31 h -6 c -0.0078,0 -0.01563,0 -0.02734,0 z m -32.257812,9.316406 c -0.08203,0.0039 -0.160156,0.02344 -0.234375,0.07031 l -3.03125,1.75 c -0.242188,0.136719 -0.324219,0.441406 -0.183594,0.679687 l 0.5,0.867188 c 0.136719,0.238281 0.441406,0.320312 0.683594,0.179687 l 3.03125,-1.75 c 0.238281,-0.136719 0.320312,-0.441406 0.179687,-0.679687 l -0.5,-0.867188 c -0.09375,-0.164062 -0.269531,-0.253906 -0.445312,-0.25 z m 32.546875,0 c -0.171875,0.0039 -0.332031,0.09375 -0.421875,0.25 l -0.5,0.867188 c -0.140625,0.238281 -0.05859,0.542968 0.179687,0.679687 l 3.03125,1.75 c 0.242188,0.140625 0.546875,0.05859 0.683594,-0.179687 l 0.5,-0.867188 c 0.140625,-0.238281 0.05859,-0.542968 -0.183594,-0.679687 l -3.03125,-1.75 c -0.08203,-0.05078 -0.171875,-0.07031 -0.257812,-0.07031 z M 22.28125,47.269531 c -0.160156,0.01172 -0.308594,0.101563 -0.394531,0.25 l -1.75,3.03125 c -0.140625,0.242188 -0.05859,0.546875 0.179687,0.683594 l 0.867188,0.5 c 0.238281,0.140625 0.542968,0.05859 0.679687,-0.183594 l 1.75,-3.03125 c 0.140625,-0.238281 0.05859,-0.542969 -0.179687,-0.679687 l -0.867188,-0.5 c -0.08984,-0.05469 -0.1875,-0.07422 -0.285156,-0.07031 z m 19.390625,0 c -0.08203,0.0039 -0.164063,0.02344 -0.238281,0.07031 l -0.867188,0.5 c -0.238281,0.136718 -0.320312,0.441406 -0.179687,0.679687 l 1.75,3.03125 c 0.136719,0.242188 0.441406,0.324219 0.679687,0.183594 l 0.867188,-0.5 c 0.238281,-0.136719 0.320312,-0.441406 0.179687,-0.683594 l -1.75,-3.03125 c -0.09375,-0.164062 -0.265625,-0.253906 -0.441406,-0.25 z M 31.472656,47.5 C 31.210938,47.511719 31,47.730469 31,48 v 6 c 0,0.277344 0.222656,0.5 0.5,0.5 h 1 c 0.277344,0 0.5,-0.222656 0.5,-0.5 v -6 c 0,-0.277344 -0.222656,-0.5 -0.5,-0.5 h -1 c -0.0078,0 -0.01563,0 -0.02734,0 z m 0,0"
       id="path13" />
    <path
       style="fill:#ffffff;fill-opacity:0.4;fill-rule:nonzero;stroke:none"
       d="M 32,4 C 16.539062,4 4,16.535156 4,32 4,32.164062 4.00391,32.332031 4.00781,32.5 4.273438,17.265625 16.703125,5 32,5 47.296875,5 59.726562,17.265625 59.992188,32.5 59.996094,32.332031 60,32.164062 60,32 60,16.535156 47.460938,4 32,4 Z m 0,0"
       id="path14" />
    <path
       style="fill:#616161;fill-opacity:0.996078;fill-rule:nonzero;stroke:none"
       d="m 32.707031,31.292969 c 0.390625,0.390625 0.390625,1.023437 0,1.414062 L 21.039062,44.375 c -0.390624,0.390625 -1.023437,0.390625 -1.414062,0 -0.390625,-0.390625 -0.390625,-1.023438 0,-1.414062 L 31.292969,31.292969 c 0.390625,-0.390625 1.023437,-0.390625 1.414062,0 z m 0,0"
       id="path15" />
    <path
       style="fill:#ffffff;fill-opacity:0.4;fill-rule:nonzero;stroke:none"
       d="m 32,31 c -0.253906,0 -0.511719,0.09766 -0.707031,0.292969 L 19.625,42.960938 c -0.261719,0.261718 -0.347656,0.625 -0.261719,0.957031 C 19.410156,43.75 19.492188,43.59375 19.625,43.460938 L 31.292969,31.792969 c 0.390625,-0.390625 1.023437,-0.390625 1.414062,0 0.132813,0.132812 0.21875,0.289062 0.261719,0.457031 0.08594,-0.332031 0,-0.695312 -0.261719,-0.957031 C 32.511719,31.097656 32.253906,31 32,31 Z m 0,0"
       id="path16" />
    <path
       style="fill:#000000;fill-opacity:0.4;fill-rule:nonzero;stroke:none"
       d="M 32,60 C 16.539062,60 4.003906,47.464844 4.003906,32 c 0,-0.164062 0,-0.332031 0.00391,-0.5 C 4.273438,46.734375 16.703125,59 32,59 47.296875,59 59.726562,46.734375 59.992188,31.5 c 0.0039,0.167969 0.0039,0.335938 0.0039,0.5 0,15.464844 -12.535156,28 -27.996094,28 z m 0,0"
       id="path17" />
    <path
       style="fill:#000000;fill-opacity:0.4;fill-rule:nonzero;stroke:none"
       d="M 32,8 C 18.746094,8 8,18.746094 8,32 8,32.164062 8.00391,32.332031 8.00781,32.5 8.273438,19.476562 18.914062,9 32,9 45.085938,9 55.726562,19.476562 55.992188,32.5 55.996094,32.332031 56,32.164062 56,32 56,18.746094 45.253906,8 32,8 Z m 0,0"
       id="path18" />
    <path
       style="fill:#ffffff;fill-opacity:0.4;fill-rule:nonzero;stroke:none"
       d="M 8.007812,32.460938 C 8.003906,32.617188 8,32.769531 8,32.925781 c 0,13.253907 10.746094,23.996094 24,23.996094 13.253906,0 24,-10.742187 24,-23.996094 0,-0.15625 -0.0039,-0.308593 -0.0078,-0.464843 C 55.746094,45.5 45.097656,55.996094 32,55.996094 18.902344,55.996094 8.253906,45.5 8.007812,32.460938 Z m 0,0"
       id="path19" />
    <path
       style="fill:#ffffff;fill-opacity:0.4;fill-rule:nonzero;stroke:none"
       d="M 31.472656,9.5 C 31.210938,9.511719 31,9.730469 31,10 v 0.5 c 0,-0.269531 0.210938,-0.484375 0.472656,-0.5 0.01172,0 0.01953,0 0.02734,0 h 1 c 0.277344,0 0.5,0.222656 0.5,0.5 V 10 C 33,9.722656 32.777344,9.5 32.5,9.5 h -1 c -0.0078,0 -0.01563,0 -0.02734,0 z m -10.050781,2.699219 c -0.08203,0 -0.164063,0.01953 -0.238281,0.06641 l -0.867188,0.5 c -0.238281,0.136719 -0.320312,0.441406 -0.179687,0.683594 0.03906,-0.07422 0.101562,-0.140625 0.179687,-0.183594 l 0.867188,-0.5 c 0.07422,-0.04687 0.15625,-0.06641 0.238281,-0.06641 0.175781,-0.0078 0.347656,0.08203 0.441406,0.25 l 1.746094,3.019531 c 0.08594,-0.148438 0.09766,-0.332031 0.0039,-0.488281 l -1.75,-3.03125 c -0.09375,-0.167969 -0.265625,-0.257813 -0.441406,-0.25 z m 21.109375,0 c -0.160156,0.0078 -0.308594,0.09766 -0.394531,0.25 l -1.75,3.03125 c -0.09375,0.15625 -0.08203,0.339843 0.0039,0.488281 l 1.746094,-3.019531 c 0.08594,-0.152344 0.234375,-0.242188 0.394531,-0.25 0.09766,-0.0078 0.195312,0.01172 0.285156,0.06641 l 0.867188,0.5 c 0.07813,0.04297 0.140625,0.109375 0.179687,0.183594 0.140625,-0.242188 0.05859,-0.546875 -0.179687,-0.683594 l -0.867188,-0.5 c -0.08984,-0.05469 -0.1875,-0.07422 -0.285156,-0.06641 z M 13.1875,20.066406 c -0.171875,0.0039 -0.332031,0.09375 -0.421875,0.25 l -0.5,0.867188 c -0.09375,0.160156 -0.07813,0.34375 0.0039,0.488281 l 0.496094,-0.855469 c 0.08984,-0.15625 0.25,-0.246094 0.421875,-0.25 0.08594,0 0.175781,0.01953 0.261719,0.07031 l 3.03125,1.75 c 0.07813,0.04297 0.136719,0.109375 0.179687,0.183593 v -0.0039 c 0.140625,-0.238281 0.05859,-0.542968 -0.179687,-0.679687 l -3.03125,-1.75 c -0.08594,-0.05078 -0.175781,-0.07031 -0.261719,-0.07031 z m 37.601562,0 c -0.08203,0.0039 -0.160156,0.02344 -0.238281,0.07031 l -3.03125,1.75 c -0.238281,0.136719 -0.320312,0.441406 -0.179687,0.679687 v 0.0039 c 0.04297,-0.07422 0.101562,-0.140624 0.179687,-0.183593 l 3.03125,-1.75 c 0.07813,-0.04297 0.15625,-0.06641 0.238281,-0.07031 0.175782,-0.0039 0.351563,0.08594 0.445313,0.25 l 0.496094,0.855469 c 0.08203,-0.144531 0.09766,-0.328125 0.0039,-0.488281 l -0.5,-0.867188 c -0.09375,-0.164062 -0.269531,-0.253906 -0.445313,-0.25 z M 9.976562,31 C 9.710938,31.011719 9.5,31.230469 9.5,31.5 V 32 c 0,-0.269531 0.210938,-0.484375 0.476562,-0.5 0.00781,0 0.015626,0 0.023438,0 h 6 c 0.277344,0 0.5,0.222656 0.5,0.5 V 31.5 C 16.5,31.222656 16.277344,31 16,31 h -6 c -0.00781,0 -0.015625,0 -0.023438,0 z m 37.996094,0 C 47.710938,31.011719 47.5,31.230469 47.5,31.5 V 32 c 0,-0.269531 0.210938,-0.484375 0.472656,-0.5 0.01172,0 0.01953,0 0.02734,0 h 6 c 0.277344,0 0.5,0.222656 0.5,0.5 V 31.5 C 54.5,31.222656 54.277344,31 54,31 h -6 c -0.0078,0 -0.01563,0 -0.02734,0 z m -32.257812,9.316406 c -0.08203,0.0039 -0.160156,0.02344 -0.234375,0.07031 l -3.03125,1.75 c -0.242188,0.136719 -0.324219,0.441406 -0.183594,0.679687 v 0.0039 c 0.04297,-0.07422 0.101563,-0.140624 0.183594,-0.183593 l 3.03125,-1.75 c 0.07422,-0.04297 0.152343,-0.06641 0.234375,-0.07031 0.175781,-0.0039 0.351562,0.08594 0.445312,0.25 l 0.496094,0.855469 c 0.08203,-0.144531 0.09766,-0.328125 0.0039,-0.488281 l -0.5,-0.867188 c -0.09375,-0.164062 -0.269531,-0.253906 -0.445312,-0.25 z m 32.546875,0 c -0.171875,0.0039 -0.332031,0.09375 -0.421875,0.25 l -0.5,0.867188 c -0.09375,0.160156 -0.07813,0.34375 0.0039,0.488281 l 0.496094,-0.855469 c 0.08984,-0.15625 0.25,-0.246094 0.421875,-0.25 0.08594,0 0.175781,0.01953 0.257812,0.07031 l 3.03125,1.75 c 0.08203,0.04297 0.140625,0.109375 0.183594,0.183593 v -0.0039 c 0.140625,-0.238281 0.05859,-0.542968 -0.183594,-0.679687 l -3.03125,-1.75 c -0.08203,-0.05078 -0.171875,-0.07031 -0.257812,-0.07031 z M 22.28125,47.269531 c -0.160156,0.01172 -0.308594,0.101563 -0.394531,0.25 l -1.75,3.03125 c -0.09375,0.160157 -0.08203,0.34375 0.0039,0.496094 l 1.746094,-3.027344 c 0.08594,-0.148437 0.234375,-0.238281 0.394531,-0.25 0.09766,-0.0039 0.195312,0.01563 0.285156,0.07031 l 0.867188,0.5 c 0.07813,0.04297 0.140625,0.109375 0.179687,0.179687 0.140625,-0.238281 0.05859,-0.542969 -0.179687,-0.679687 l -0.867188,-0.5 c -0.08984,-0.05469 -0.1875,-0.07422 -0.285156,-0.07031 z m 19.390625,0 c -0.08203,0.0039 -0.164063,0.02344 -0.238281,0.07031 l -0.867188,0.5 c -0.238281,0.136718 -0.320312,0.441406 -0.179687,0.679687 0.03906,-0.07031 0.101562,-0.136719 0.179687,-0.179687 l 0.867188,-0.5 c 0.07422,-0.04687 0.15625,-0.06641 0.238281,-0.07031 0.175781,-0.0039 0.347656,0.08594 0.441406,0.25 l 1.746094,3.027344 c 0.08594,-0.152344 0.09766,-0.335937 0.0039,-0.496094 l -1.75,-3.03125 c -0.09375,-0.164062 -0.265625,-0.253906 -0.441406,-0.25 z M 31.472656,47.5 C 31.210938,47.511719 31,47.730469 31,48 v 0.5 c 0,-0.269531 0.210938,-0.484375 0.472656,-0.5 0.01172,0 0.01953,0 0.02734,0 h 1 c 0.277344,0 0.5,0.222656 0.5,0.5 V 48 c 0,-0.277344 -0.222656,-0.5 -0.5,-0.5 h -1 c -0.0078,0 -0.01563,0 -0.02734,0 z m 0,0"
       id="path20" />
    <path
       style="fill:#000000;fill-opacity:0.4;fill-rule:nonzero;stroke:none"
       d="M 31.476562,55 C 31.210938,54.984375 31,54.769531 31,54.5 V 54 c 0,0.269531 0.210938,0.484375 0.476562,0.5 0.0078,0 0.01563,0 0.02344,0 h 1 c 0.277344,0 0.5,-0.222656 0.5,-0.5 v 0.5 c 0,0.277344 -0.222656,0.5 -0.5,0.5 h -1 c -0.0078,0 -0.01563,0 -0.02734,0 z M 21.421875,52.304688 c -0.08203,-0.0039 -0.164063,-0.02344 -0.238281,-0.06641 l -0.867188,-0.5 c -0.238281,-0.140625 -0.320312,-0.445312 -0.179687,-0.683593 0.03906,0.07031 0.101562,0.136718 0.179687,0.183593 l 0.867188,0.5 c 0.07422,0.04297 0.15625,0.0625 0.238281,0.06641 0.175781,0.0039 0.347656,-0.08594 0.445313,-0.25 l 1.746093,-3.023438 c 0.08203,0.148438 0.09375,0.332031 0,0.492188 l -1.75,3.03125 c -0.09375,0.164062 -0.265625,0.253906 -0.445312,0.25 z m 21.109375,0 c -0.160156,-0.01172 -0.308594,-0.101563 -0.394531,-0.25 l -1.75,-3.03125 c -0.09375,-0.160157 -0.08203,-0.34375 0,-0.492188 l 1.746093,3.023438 c 0.08984,0.148437 0.238282,0.238281 0.398438,0.25 0.09766,0.0039 0.195312,-0.01563 0.285156,-0.06641 l 0.867188,-0.5 c 0.07813,-0.04687 0.140625,-0.113281 0.179687,-0.1875 0.140625,0.242188 0.05859,0.546875 -0.179687,0.683594 l -0.867188,0.5 c -0.08984,0.05469 -0.1875,0.07422 -0.285156,0.07031 z M 13.1875,44.433594 c -0.171875,-0.0039 -0.332031,-0.09375 -0.421875,-0.25 l -0.5,-0.867188 c -0.09375,-0.160156 -0.07813,-0.339844 0.0039,-0.488281 l 0.492188,0.855469 c 0.09375,0.15625 0.253906,0.246094 0.421875,0.25 0.08984,0.0039 0.179687,-0.01953 0.261718,-0.06641 l 3.03125,-1.75 c 0.08203,-0.04688 0.140626,-0.113282 0.183594,-0.1875 v 0.0039 c 0.140625,0.238281 0.05859,0.542968 -0.183594,0.679687 l -3.03125,1.75 c -0.08203,0.05078 -0.171874,0.07031 -0.261718,0.07031 z m 37.601562,0 c -0.08203,-0.0039 -0.160156,-0.02734 -0.238281,-0.06641 l -3.03125,-1.75 c -0.238281,-0.140622 -0.320312,-0.445309 -0.179687,-0.68359 v -0.0039 c 0.04297,0.07422 0.101562,0.140624 0.183594,0.1875 l 3.03125,1.75 c 0.07422,0.03906 0.152343,0.06641 0.234374,0.06641 0.175782,0.0039 0.351563,-0.08594 0.449219,-0.25 l 0.492188,-0.855469 c 0.08203,0.148437 0.09766,0.328125 0.0039,0.488281 l -0.5,0.867188 c -0.09375,0.164062 -0.269531,0.253906 -0.445313,0.25 z M 9.976562,33.5 C 9.710938,33.484375 9.5,33.269531 9.5,33 v -0.5 c 0,0.269531 0.210938,0.484375 0.476562,0.5 0.00781,0 0.015626,0 0.023438,0 h 6 c 0.277344,0 0.5,-0.222656 0.5,-0.5 V 33 c 0,0.277344 -0.222656,0.5 -0.5,0.5 h -6 c -0.00781,0 -0.015625,0 -0.023438,0 z m 38,0 C 47.710938,33.484375 47.5,33.269531 47.5,33 v -0.5 c 0,0.269531 0.210938,0.484375 0.476562,0.5 0.0078,0 0.01563,0 0.02344,0 h 6 c 0.277344,0 0.5,-0.222656 0.5,-0.5 V 33 c 0,0.277344 -0.222656,0.5 -0.5,0.5 h -6 c -0.0078,0 -0.01563,0 -0.02344,0 z M 15.714844,24.183594 c -0.08203,-0.0039 -0.160156,-0.02734 -0.234375,-0.06641 l -3.03125,-1.75 C 12.207031,22.226562 12.125,21.921875 12.265625,21.683594 v -0.0039 c 0.04297,0.07422 0.101563,0.140624 0.183594,0.1875 l 3.03125,1.75 c 0.07422,0.03906 0.152343,0.06641 0.234375,0.06641 0.175781,0.0039 0.351562,-0.08594 0.445312,-0.25 l 0.496094,-0.855469 c 0.08203,0.148437 0.09766,0.328125 0.0039,0.488281 l -0.5,0.867188 c -0.09375,0.164062 -0.269531,0.253906 -0.445312,0.25 z m 32.546875,0 c -0.171875,-0.0039 -0.332031,-0.09375 -0.421875,-0.25 l -0.5,-0.867188 c -0.09375,-0.160156 -0.07813,-0.339844 0.0039,-0.488281 l 0.492188,0.855469 c 0.09375,0.15625 0.253906,0.246094 0.421874,0.25 0.08984,0.0039 0.179688,-0.01953 0.261719,-0.06641 l 3.03125,-1.75 c 0.08203,-0.04688 0.140625,-0.113282 0.183594,-0.1875 v 0.0039 c 0.140625,0.238281 0.05859,0.542968 -0.183594,0.679687 l -3.03125,1.75 c -0.08203,0.05078 -0.171875,0.07031 -0.261719,0.07031 z M 22.28125,17.230469 c -0.160156,-0.01172 -0.308594,-0.101563 -0.394531,-0.25 l -1.75,-3.03125 c -0.09375,-0.160157 -0.08203,-0.34375 0,-0.492188 l 1.746093,3.023438 c 0.08984,0.148437 0.238282,0.238281 0.398438,0.25 0.09766,0.0039 0.195312,-0.01563 0.285156,-0.06641 l 0.867188,-0.5 c 0.07813,-0.04687 0.140625,-0.113281 0.179687,-0.1875 0.140625,0.242188 0.05859,0.546876 -0.179687,0.683594 l -0.867188,0.5 c -0.08984,0.05469 -0.1875,0.07422 -0.285156,0.07031 z m 19.390625,0 c -0.08203,-0.0039 -0.164063,-0.02344 -0.238281,-0.06641 l -0.867188,-0.5 c -0.238281,-0.140624 -0.320312,-0.445312 -0.183594,-0.683593 0.04297,0.07031 0.105469,0.136719 0.183594,0.183593 l 0.867188,0.5 c 0.07422,0.04297 0.15625,0.0625 0.238281,0.06641 0.175781,0.0039 0.347656,-0.08594 0.445313,-0.25 l 1.746093,-3.023438 c 0.08203,0.148438 0.09375,0.332031 0,0.492188 l -1.75,3.03125 c -0.09375,0.164062 -0.265625,0.253906 -0.445312,0.25 z M 31.476562,17 C 31.210938,16.984375 31,16.769531 31,16.5 V 16 c 0,0.269531 0.210938,0.484375 0.476562,0.5 0.0078,0 0.01563,0 0.02344,0 h 1 c 0.277344,0 0.5,-0.222656 0.5,-0.5 v 0.5 c 0,0.277344 -0.222656,0.5 -0.5,0.5 h -1 c -0.0078,0 -0.01563,0 -0.02734,0 z m 0,0"
       id="path21" />
    <path
       style="fill:#bdbdbd;fill-opacity:1;fill-rule:nonzero;stroke:none"
       d="m 32,28 c 2.210938,0 4,1.789062 4,4 0,2.210938 -1.789062,4 -4,4 -2.210938,0 -4,-1.789062 -4,-4 0,-2.210938 1.789062,-4 4,-4 z m 0,0"
       id="path22" />
    <path
       style="fill:#bdbdbd;fill-opacity:0.996078;fill-rule:nonzero;stroke:none"
       d="m 32,28 c 2.210938,0 4,1.789062 4,4 0,2.210938 -1.789062,4 -4,4 -2.210938,0 -4,-1.789062 -4,-4 0,-2.210938 1.789062,-4 4,-4 z m 0,0"
       id="path23" />
    <path
       style="fill:#000000;fill-opacity:0.229019;fill-rule:nonzero;stroke:none"
       d="M 28.03125,32.088594 C 28.007812,32.252656 28,32.420625 28,32.588594 c 0,2.214844 1.785156,4 4,4 2.214844,0 4,-1.785156 4,-4 0,-0.167969 -0.0078,-0.335938 -0.03125,-0.5 -0.242188,1.980469 -1.921875,3.5 -3.96875,3.5 -2.046875,0 -3.726562,-1.519531 -3.96875,-3.5 z m 0,0"
       id="path24" />
    <path
       style="fill:#fdfdfd;fill-opacity:0.4;fill-rule:nonzero;stroke:none"
       d="M 28.03125,32.5 C 28.007812,32.335938 28,32.167969 28,32 c 0,-2.214844 1.785156,-4 4,-4 2.214844,0 4,1.785156 4,4 0,0.167969 -0.0078,0.335938 -0.02734,0.5 C 35.726562,30.519531 34.046875,29 32,29 c -2.046875,0 -3.726562,1.519531 -3.96875,3.5 z m 0,0"
       id="path26" />
    <path
       style="fill:#535d6c;fill-opacity:1;fill-rule:nonzero;stroke:none"
       d="m 32,28 c 2.210938,0 4,1.789062 4,4 0,2.210938 -1.789062,4 -4,4 -2.210938,0 -4,-1.789062 -4,-4 0,-2.210938 1.789062,-4 4,-4 z m 0,0"
       id="path27" />
  </g>
</svg>
