<?xml version="1.0" encoding="UTF-8" standalone="no"?>
<svg
   width="62"
   height="62"
   version="1.1"
   id="svg29"
   sodipodi:docname="com.github.linuxhubit.ppaextender.svg"
   inkscape:version="1.4.2 (unknown)"
   xmlns:inkscape="http://www.inkscape.org/namespaces/inkscape"
   xmlns:sodipodi="http://sodipodi.sourceforge.net/DTD/sodipodi-0.dtd"
   xmlns="http://www.w3.org/2000/svg"
   xmlns:svg="http://www.w3.org/2000/svg">
  <defs
     id="defs29" />
  <sodipodi:namedview
     id="namedview29"
     pagecolor="#ffffff"
     bordercolor="#000000"
     borderopacity="0.25"
     inkscape:showpageshadow="2"
     inkscape:pageopacity="0.0"
     inkscape:pagecheckerboard="0"
     inkscape:deskcolor="#d1d1d1"
     inkscape:zoom="7.0710678"
     inkscape:cx="27.647875"
     inkscape:cy="39.66869"
     inkscape:window-width="1920"
     inkscape:window-height="998"
     inkscape:window-x="0"
     inkscape:window-y="0"
     inkscape:window-maximized="1"
     inkscape:current-layer="svg29"
     showgrid="true">
    <inkscape:grid
       id="grid3"
       units="px"
       originx="0"
       originy="0"
       spacingx="1"
       spacingy="1"
       empcolor="#0099e5"
       empopacity="0.30196078"
       color="#0099e5"
       opacity="0.14901961"
       empspacing="5"
       enabled="true"
       visible="true" />
  </sodipodi:namedview>
  <g
     id="g3"
     transform="matrix(1.0135138,0,0,1,0.45270172,0)">
    <rect
       style="opacity:0.2;stroke-width:0.911779"
       width="53.279972"
       height="48.933155"
       x="3.5"
       y="3.873807"
       ry="12.233291"
       id="rect1" />
    <rect
       style="fill:#86603b;fill-opacity:1;stroke-width:0.911779"
       width="53.279972"
       height="48.933155"
       x="3.5"
       y="3"
       ry="12.233291"
       id="rect2" />
    <path
       style="opacity:0.2;fill:#ffffff;stroke-width:0.911779"
       d="M 16.819996,3 C 7.4466655,3 3.4999999,8.4560489 3.4999999,15.233293 V 16.1071 c 0,-6.7772433 5.9407208,-12.2332933 13.3199961,-12.2332933 h 26.639991 c 7.379275,0 13.319998,5.45605 13.319998,12.2332933 V 15.233293 C 56.779985,8.4560489 52.833319,3 43.459987,3 Z"
       id="path28"
       sodipodi:nodetypes="sscsscsss" />
    <rect
       style="opacity:0.2;fill:#ac9d93;stroke-width:0.911779"
       width="53.279972"
       height="48.933155"
       x="3.5"
       y="7.0641208"
       ry="12.233291"
       id="rect1-5" />
    <rect
       style="fill:#c28a52;fill-opacity:1;stroke-width:0.911779"
       width="53.279972"
       height="48.933155"
       x="3.5"
       y="6.1903148"
       ry="12.233291"
       id="rect2-6" />
    <path
       style="opacity:0.2;fill:#ffffff;fill-opacity:1;stroke-width:0.911779"
       d="M 16.819996,6.1903175 C 8.4333319,6.1903175 3.5,11.646368 3.5,18.423609 v 0.873809 C 3.5,12.520174 9.4407207,7.0641243 16.819996,7.0641243 h 26.639991 c 7.379275,0 13.319998,5.4560497 13.319998,12.2332937 V 18.423609 C 56.779985,13 53.23803,6.1903175 43.459987,6.1903175 Z"
       id="path28-2"
       sodipodi:nodetypes="sscsscsss" />
    <g
       id="g2"
       transform="matrix(0.96872696,0,0,0.88941041,2.9130613,-101.75087)"
       style="fill:#a7968b;fill-opacity:1">
      <rect
         style="opacity:0.2;fill:#a7968b;fill-opacity:1;stroke-width:0.9823"
         width="55"
         height="55.017544"
         x="0.60588747"
         y="125.72114"
         ry="13.754386"
         id="rect1-7" />
      <rect
         style="fill:#fabd7f;fill-opacity:1;stroke-width:0.9823"
         width="55"
         height="55.017544"
         x="0.60588747"
         y="124.73869"
         ry="13.754386"
         id="rect2-0" />
      <path
         style="opacity:0.2;fill:#ffffff;fill-opacity:1;stroke-width:0.9823"
         d="m 14.355887,124.73869 c -7.6174996,0 -13.74999956,6.13446 -13.74999956,13.75439 v 0.98245 c 0,-7.61993 6.13249996,-13.75439 13.74999956,-13.75439 h 27.5 c 7.6175,0 13.75,6.13446 13.75,13.75439 v -0.98245 c 0,-7.61993 -6.1325,-13.75439 -13.75,-13.75439 z"
         id="path28-9" />
    </g>
  </g>
</svg>
