<?xml version="1.0" encoding="UTF-8" standalone="no"?>
<svg
   width="62"
   height="62"
   version="1.1"
   id="svg14"
   sodipodi:docname="com.github.jeremypw.gnonograms.svg"
   inkscape:version="1.4.2 (unknown)"
   xmlns:inkscape="http://www.inkscape.org/namespaces/inkscape"
   xmlns:sodipodi="http://sodipodi.sourceforge.net/DTD/sodipodi-0.dtd"
   xmlns:xlink="http://www.w3.org/1999/xlink"
   xmlns="http://www.w3.org/2000/svg"
   xmlns:svg="http://www.w3.org/2000/svg">
  <defs
     id="defs18">
    <linearGradient
       id="linearGradient1"
       inkscape:collect="always">
      <stop
         style="stop-color:#f0f3f4;stop-opacity:1;"
         offset="0"
         id="stop1" />
      <stop
         style="stop-color:#90acb5;stop-opacity:1;"
         offset="1"
         id="stop2" />
    </linearGradient>
    <linearGradient
       id="c"
       x1="45.377998"
       x2="978.35999"
       y1="46.179001"
       y2="979.15997"
       gradientTransform="matrix(0.063557,0,0,0.063557,-0.5456548,-0.5457152)"
       gradientUnits="userSpaceOnUse">
      <stop
         stop-color="#eaeff2"
         offset="0"
         id="stop303" />
      <stop
         stop-color="#fcfcfd"
         offset=".5"
         id="stop305" />
      <stop
         stop-color="#cfdade"
         offset="1"
         id="stop307" />
    </linearGradient>
    <linearGradient
       id="e"
       x1="56.407001"
       x2="7.4576001"
       y1="7.4067998"
       y2="57"
       gradientUnits="userSpaceOnUse"
       gradientTransform="translate(-1.048e-4,-1.552e-4)">
      <stop
         stop-color="#90acb5"
         offset="0"
         id="stop310"
         style="stop-color:#91adb6;stop-opacity:1;" />
      <stop
         stop-color="#fcfcfd"
         offset="1"
         id="stop312" />
    </linearGradient>
    <radialGradient
       id="radialGradient3771-9"
       cx="24.249001"
       cy="24.25"
       r="9.6331997"
       gradientTransform="matrix(1.527373,0,0,1.527373,8.7250102,8.6390889)"
       gradientUnits="userSpaceOnUse">
      <stop
         offset="0"
         id="stop627" />
      <stop
         stop-opacity=".87843"
         offset=".59155"
         id="stop629" />
      <stop
         stop-opacity=".56471"
         offset=".64784"
         id="stop631" />
      <stop
         stop-opacity=".52549"
         offset=".6818"
         id="stop633" />
      <stop
         stop-opacity=".44314"
         offset=".7275"
         id="stop635" />
      <stop
         stop-opacity=".28627"
         offset=".79465"
         id="stop637" />
      <stop
         stop-opacity=".18431"
         offset=".84312"
         id="stop639" />
      <stop
         stop-opacity=".078431"
         offset=".90335"
         id="stop641" />
      <stop
         stop-opacity=".062745"
         offset=".91996"
         id="stop643" />
      <stop
         stop-opacity=".054902"
         offset=".93104"
         id="stop645" />
      <stop
         stop-opacity=".031373"
         offset=".95596"
         id="stop647" />
      <stop
         stop-opacity=".027451"
         offset=".96081"
         id="stop649" />
      <stop
         stop-opacity="0"
         offset=".99197"
         id="stop651" />
      <stop
         stop-opacity="0"
         offset="1"
         id="stop653" />
    </radialGradient>
    <radialGradient
       id="radialGradient3815-1"
       cx="24.249001"
       cy="24.25"
       r="9.6331997"
       gradientTransform="matrix(1.6994579,0,0,1.6994579,3.4188758,3.4172574)"
       gradientUnits="userSpaceOnUse">
      <stop
         offset="0"
         id="stop598" />
      <stop
         stop-opacity=".78764"
         offset=".71616"
         id="stop600" />
      <stop
         stop-opacity=".67451"
         offset=".74621"
         id="stop602" />
      <stop
         stop-opacity=".61961"
         offset=".76305"
         id="stop604" />
      <stop
         stop-opacity=".5451"
         offset=".78595"
         id="stop606" />
      <stop
         stop-opacity=".48627"
         offset=".80683"
         id="stop608" />
      <stop
         stop-opacity=".29804"
         offset=".86207"
         id="stop610" />
      <stop
         stop-opacity=".18824"
         offset=".89036"
         id="stop612" />
      <stop
         stop-opacity=".082353"
         offset=".92404"
         id="stop614" />
      <stop
         stop-opacity=".043137"
         offset=".9429"
         id="stop616" />
      <stop
         stop-opacity=".031373"
         offset=".95596"
         id="stop618" />
      <stop
         stop-opacity=".027451"
         offset=".96081"
         id="stop620" />
      <stop
         stop-opacity="0"
         offset=".99197"
         id="stop622" />
      <stop
         stop-opacity="0"
         offset="1"
         id="stop624" />
    </radialGradient>
    <linearGradient
       id="linearGradient2050"
       x1="55.195"
       x2="55.195"
       y1="11.817"
       y2="26.316"
       gradientTransform="matrix(1.8121302,0,0,1.8121302,-55.591521,12.350227)"
       gradientUnits="userSpaceOnUse">
      <stop
         stop-color="#61d33b"
         offset="0"
         id="stop593" />
      <stop
         stop-color="#3dc141"
         offset="1"
         id="stop595" />
    </linearGradient>
    <linearGradient
       id="linearGradient1984"
       x1="39.793999"
       x2="39.793999"
       y1="21.372"
       y2="34.602001"
       gradientTransform="matrix(1.8121302,0,0,1.8121302,-24.454782,-4.2380684)"
       gradientUnits="userSpaceOnUse">
      <stop
         stop-color="#14ab4b"
         offset="0"
         id="stop588" />
      <stop
         stop-color="#65d53b"
         offset="1"
         id="stop590" />
    </linearGradient>
    <linearGradient
       inkscape:collect="always"
       xlink:href="#linearGradient1"
       id="linearGradient2"
       x1="7.2664289"
       y1="1.9998698"
       x2="61.999756"
       y2="62.00013"
       gradientUnits="userSpaceOnUse"
       gradientTransform="matrix(0.93548191,0,0,0.93548191,1.128807,1.129158)" />
    <linearGradient
       inkscape:collect="always"
       xlink:href="#linearGradient1"
       id="linearGradient4"
       x1="54.708782"
       y1="51.977009"
       x2="18.892538"
       y2="13.100183"
       gradientUnits="userSpaceOnUse"
       gradientTransform="matrix(0.93548191,0,0,0.93548191,1.128807,1.129158)" />
  </defs>
  <sodipodi:namedview
     id="namedview16"
     pagecolor="#ffffff"
     bordercolor="#999999"
     borderopacity="1"
     inkscape:showpageshadow="0"
     inkscape:pageopacity="0"
     inkscape:pagecheckerboard="0"
     inkscape:deskcolor="#d1d1d1"
     showgrid="false"
     inkscape:zoom="8.9493202"
     inkscape:cx="37.377141"
     inkscape:cy="31.343163"
     inkscape:window-width="1920"
     inkscape:window-height="994"
     inkscape:window-x="0"
     inkscape:window-y="0"
     inkscape:window-maximized="1"
     inkscape:current-layer="svg14" />
  <path
     d="m 58.278234,23.929514 c -0.06541,-0.258642 -0.139723,-0.535134 -0.217022,-0.80864 -0.05946,-0.202158 -0.118919,-0.40729 -0.187293,-0.624341 -0.09514,-0.306211 -0.202158,-0.624331 -0.315136,-0.942404 -0.38351,-1.085066 -0.841316,-2.14347 -1.376468,-3.1899 -0.225947,-0.439995 -0.472699,-0.888914 -0.731341,-1.331846 -1.207052,-2.051325 -2.723188,-3.99563 -4.539707,-5.812055 C 46.59458,6.9036397 41.56758,4.2841968 35.829428,3.3686407 34.863262,3.2140523 33.879135,3.1070238 32.853473,3.0505394 32.27672,3.0178369 31.673175,3 31.063802,3 30.507864,3 29.957876,3.0148648 29.404912,3.0445944 22.36775,3.4072901 16.306295,6.1334622 11.22008,11.220145 Q 3,19.440225 3,31.064523 c 0,7.750748 2.7410556,14.368067 8.22008,19.847184 3.371289,3.368296 7.167849,5.702043 11.362363,6.98964 2.185098,0.668897 4.447561,1.061305 6.822657,1.186191 h 0.02378 c 0.505395,0.02676 0.987027,0.04162 1.456733,0.04162 h 0.178378 c 0.61245,0 1.218933,-0.01784 1.78967,-0.04757 0.148648,-0.0089 0.282431,-0.01784 0.41324,-0.02676 1.201065,-0.08621 2.372382,-0.240812 3.490189,-0.457834 0.472699,-0.09215 0.939505,-0.196208 1.391342,-0.306212 4.804261,-1.207052 9.046578,-3.662692 12.76278,-7.3788 2.889704,-2.889704 5.018299,-6.094197 6.38298,-9.620496 1.096946,-2.833201 1.703513,-5.874546 1.816426,-9.126749 0.01189,-0.359721 0.01784,-0.728375 0.01784,-1.100033 v -0.178378 c -0.01189,-2.417004 -0.294321,-4.72699 -0.850231,-6.956898 z"
     stroke-width="0.932526"
     id="path317"
     style="fill:url(#linearGradient2)" />
  <path
     d="M 31.06413,7.6773862 A 23.387048,23.387048 0 0 0 7.6770821,31.064433 23.387048,23.387048 0 0 0 31.06413,54.451481 23.387048,23.387048 0 0 0 54.451178,31.064433 23.387048,23.387048 0 0 0 31.06413,7.6773862 Z m 0,1.8709638 A 21.516084,21.516084 0 0 1 52.580214,31.064433 21.516084,21.516084 0 0 1 31.06413,52.580517 21.516084,21.516084 0 0 1 9.548046,31.064433 21.516084,21.516084 0 0 1 31.06413,9.54835 Z"
     fill-rule="evenodd"
     id="path319"
     style="fill:url(#linearGradient4);stroke-width:0.935482" />
  <g
     transform="matrix(0.60012,0,0,0.60376641,11.29976,-151.85775)"
     id="g3">
    <path
       style="opacity:0.2"
       d="m 23.981556,323.72077 c -0.1937,-2.30794 2.025238,-4.48972 5.126274,-4.60872 0.543004,-0.001 1.125002,0.0796 1.738616,0.21662 0.723952,0.1624 1.734612,0.1904 2.342368,0.24126 0.213156,-0.1418 0.202696,-0.27482 -0.07688,-0.9785 -0.831244,-2.09196 -2.541012,-4.4257 -4.71486,-5.06974 -0.45915,-0.1362 -1.153858,-0.21884 -1.826662,-0.23384 -4.503096,0.1156 -7.785236,4.43362 -9.837048,7.65794 -0.65599,1.02552 -1.424842,2.18068 -1.708554,2.56704 -1.445933,1.969 -3.133834,3.09392 -4.829509,3.58724 -0.6407115,0.1864 -2.1788843,0.26304 -2.8179216,0.1404 -3.3978571,-0.65226 -5.66783,-3.89474 -5.3472744,-7.36626 0.027086,-0.2932 0.069658,-0.53134 0.094628,-0.52916 0.024972,0.002 0.160472,0.1574 0.3011186,0.34468 0.5830472,0.77692 1.8551603,1.24946 2.8518987,1.48716 0.7416887,0.177 1.4670915,0.2042 2.1611657,0.0816 1.8785843,-0.33234 3.079615,-1.12358 5.040868,-3.7833 2.971039,-4.0291 5.088844,-7.72068 9.259078,-16.81328 2.751238,-5.9987 4.255822,-9.00156 5.902952,-11.78108 2.123338,-3.58312 4.361484,-6.46582 6.460798,-8.32138 3.209648,-2.83696 7.011607,-4.55312 11.380663,-5.13712 1.316478,-0.176 3.593656,-0.1598 4.837886,0.0344 4.464048,0.69644 7.897264,2.93918 10.009842,6.53882 0.681501,1.16122 1.268129,2.8083 1.539267,4.32182 0.1729,0.9651 0.17298,3.11662 2.06e-4,4.0866 -0.14184,0.79614 -0.501468,2.09794 -0.74546,2.69848 l -0.16708,0.41128 -0.0078,-0.74162 c -0.03272,-3.12804 -2.067489,-6.53772 -5.111561,-7.3895 -0.59625,-0.1668 -0.7822,-0.1866 -1.726844,-0.184 -0.92569,0.002 -1.14421,0.0262 -1.740028,0.188 -3.413516,0.92692 -6.694518,5.34814 -7.81492,9.83448 -0.822074,3.29176 -0.692818,6.9201 0.385188,10.81254 1.012738,3.65676 5.8642,8.6168 6.857246,9.35326 3.523404,2.61304 5.901074,3.49944 8.596052,5.37342 0.929157,0.6422 1.189009,0.96594 1.272677,1.58538 0.10324,0.76426 -0.361616,1.4783 -1.535969,2.35936 -0.324748,0.24366 -0.937758,0.72156 -1.362242,1.062 -1.40929,1.13032 -1.580622,1.4331 -2.527488,1.43798 -0.53865,0.002 -0.66288,-0.021 -1.00418,-0.191 -1.09005,-0.5432 -1.539274,-1.30156 -1.011672,-2.38916 0.489358,-1.00876 1.599242,-1.47296 2.650794,-1.10866 0.23747,0.0822 0.49871,0.25398 0.76042,0.4999 0.425654,0.39992 0.237682,-0.0628 0.360862,-0.29612 0.13296,-0.2521 0.15708,-1.13428 0.04674,-1.71008 -0.388306,-2.0266 -2.170764,-2.85628 -4.172536,-2.74544 -1.166634,0.0644 -2.276984,0.59762 -3.202948,1.53768 -1.960094,2.85216 -4.669726,6.42814 -7.667804,6.38758 -0.51697,0.058 -1.024462,0.012 -1.424618,-0.1444 -0.303862,-0.119 -0.60528,-0.33082 -0.869506,-0.60128 -0.746975,-0.7455 -0.665159,-1.54238 -0.594165,-2.50142 0.08054,-1.08798 0.752971,-1.90802 1.396721,-2.51748 0.933522,-0.76832 1.88313,-1.08286 2.912732,-1.18946 1.291582,-0.1246 2.492294,-0.2289 3.663618,0.0828 0.64961,0.21116 0.865884,0.2155 0.94022,0.018 0.11082,-0.29306 -0.502208,-2.71 -1.00985,-3.42114 -0.840488,-1.1774 -1.675898,-1.65668 -3.06932,-2.06692 -0.641642,-0.1888 -2.149674,-0.25888 -2.911124,-0.135 -4.252219,0.80342 -5.672429,3.97094 -7.358051,6.94902 -1.947962,3.41052 -3.733014,4.70992 -5.562552,5.345 -0.266968,0.0926 -0.629206,0.1588 -1.00218,0.194 -2.453568,0.23148 -3.951028,-1.32072 -4.132292,-3.48056 z"
       id="path1" />
    <path
       style="fill:#bc5fd3"
       d="m 23.981556,322.72077 c -0.1937,-2.30794 2.025238,-4.48972 5.126274,-4.60872 0.543004,-0.001 1.125002,0.0796 1.738616,0.21662 0.723952,0.1624 1.734612,0.1904 2.342368,0.24126 0.213156,-0.1418 0.202696,-0.27482 -0.07688,-0.9785 -0.831244,-2.09196 -2.541012,-4.4257 -4.71486,-5.06974 -0.45915,-0.1362 -1.153858,-0.21884 -1.826662,-0.23384 -4.503096,0.1156 -7.785236,4.43362 -9.837048,7.65794 -0.65599,1.02552 -1.424842,2.18068 -1.708554,2.56704 -1.445933,1.969 -3.133834,3.09392 -4.829509,3.58724 -0.6407115,0.1864 -2.1788843,0.26304 -2.8179216,0.1404 -3.3978571,-0.65226 -5.66783,-3.89474 -5.3472744,-7.36626 0.027086,-0.2932 0.069658,-0.53134 0.094628,-0.52916 0.024972,0.002 0.160472,0.1574 0.3011186,0.34468 0.5830472,0.77692 1.8551603,1.24946 2.8518987,1.48716 0.7416887,0.177 1.4670915,0.2042 2.1611657,0.0816 1.8785843,-0.33234 3.079615,-1.12358 5.040868,-3.7833 2.971039,-4.0291 5.088844,-7.72068 9.259078,-16.81328 2.751238,-5.9987 4.255822,-9.00156 5.902952,-11.78108 2.123338,-3.58312 4.361484,-6.46582 6.460798,-8.32138 3.209648,-2.83696 7.011607,-4.55312 11.380663,-5.13712 1.316478,-0.176 3.593656,-0.1598 4.837886,0.0344 4.464048,0.69644 7.897264,2.93918 10.009842,6.53882 0.681501,1.16122 1.268129,2.8083 1.539267,4.32182 0.1729,0.9651 0.17298,3.11662 2.06e-4,4.0866 -0.14184,0.79614 -0.501468,2.09794 -0.74546,2.69848 l -0.16708,0.41128 -0.0078,-0.74162 c -0.03272,-3.12804 -2.067489,-6.53772 -5.111561,-7.3895 -0.59625,-0.1668 -0.7822,-0.1866 -1.726844,-0.184 -0.92569,0.002 -1.14421,0.0262 -1.740028,0.188 -3.413516,0.92692 -6.694518,5.34814 -7.81492,9.83448 -0.822074,3.29176 -0.692818,6.9201 0.385188,10.81254 1.012738,3.65676 5.8642,8.6168 6.857246,9.35326 3.523404,2.61304 5.901074,3.49944 8.596052,5.37342 0.929157,0.6422 1.189009,0.96594 1.272677,1.58538 0.10324,0.76426 -0.361616,1.4783 -1.535969,2.35936 -0.324748,0.24366 -0.937758,0.72156 -1.362242,1.062 -1.40929,1.13032 -1.580622,1.4331 -2.527488,1.43798 -0.53865,0.002 -0.66288,-0.021 -1.00418,-0.191 -1.09005,-0.5432 -1.539274,-1.30156 -1.011672,-2.38916 0.489358,-1.00876 1.599242,-1.47296 2.650794,-1.10866 0.23747,0.0822 0.49871,0.25398 0.76042,0.4999 0.425654,0.39992 0.237682,-0.0628 0.360862,-0.29612 0.13296,-0.2521 0.15708,-1.13428 0.04674,-1.71008 -0.388306,-2.0266 -2.170764,-2.85628 -4.172536,-2.74544 -1.166634,0.0644 -2.276984,0.59762 -3.202948,1.53768 -1.960094,2.85216 -4.669726,6.42814 -7.667804,6.38758 -0.51697,0.058 -1.024462,0.012 -1.424618,-0.1444 -0.303862,-0.119 -0.60528,-0.33082 -0.869506,-0.60128 -0.746975,-0.7455 -0.665159,-1.54238 -0.594165,-2.50142 0.08054,-1.08798 0.752971,-1.90802 1.396721,-2.51748 0.933522,-0.76832 1.88313,-1.08286 2.912732,-1.18946 1.291582,-0.1246 2.492294,-0.2289 3.663618,0.0828 0.64961,0.21116 0.865884,0.2155 0.94022,0.018 0.11082,-0.29306 -0.502208,-2.71 -1.00985,-3.42114 -0.840488,-1.1774 -1.675898,-1.65668 -3.06932,-2.06692 -0.641642,-0.1888 -2.149674,-0.25888 -2.911124,-0.135 -4.252219,0.80342 -5.672429,3.97094 -7.358051,6.94902 -1.947962,3.41052 -3.733014,4.70992 -5.562552,5.345 -0.266968,0.0926 -0.629206,0.1588 -1.00218,0.194 -2.453568,0.23148 -3.951028,-1.32072 -4.132292,-3.48056 z"
       id="path2" />
    <path
       style="opacity:0.1;fill:#ffffff"
       transform="translate(0,268.3)"
       d="m 47.929688,6 c -0.889384,-0.00633 -1.789027,0.035047 -2.447266,0.1230469 -4.369056,0.584 -8.169258,2.2997587 -11.378906,5.1367191 -2.099314,1.85556 -4.3376,4.737192 -6.460938,8.320312 -1.64713,2.77952 -3.153059,5.78255 -5.904297,11.78125 -4.170234,9.0926 -6.286773,12.785353 -9.257812,16.814453 -1.961253,2.65972 -3.1624316,3.450863 -5.0410159,3.783203 -0.6940742,0.1226 -1.4204206,0.09497 -2.1621093,-0.08203 C 4.2806054,51.639253 3.0088284,51.167545 2.4257812,50.390625 2.2851347,50.203345 2.149972,50.046922 2.125,50.044922 c -0.02497,-0.0022 -0.068617,0.236097 -0.095703,0.529297 -0.035598,0.385514 -0.032152,0.7679 -0.00586,1.144531 0.00346,-0.04825 0.00139,-0.09618 0.00586,-0.144531 0.027086,-0.2932 0.070733,-0.531477 0.095703,-0.529297 0.024972,0.002 0.1601347,0.158423 0.3007812,0.345703 0.5830472,0.77692 1.8548242,1.248628 2.8515626,1.486328 0.7416887,0.177 1.4680351,0.204631 2.1621093,0.08203 1.8785843,-0.33234 3.0797629,-1.123483 5.0410159,-3.783203 2.971039,-4.0291 5.087578,-7.721853 9.257812,-16.814453 2.751238,-5.9987 4.257167,-9.00173 5.904297,-11.78125 2.123338,-3.58312 4.361624,-6.464752 6.460938,-8.320312 3.209648,-2.8369604 7.00985,-4.5527191 11.378906,-5.1367191 1.316478,-0.176 3.593661,-0.1609969 4.83789,0.033203 4.464048,0.69644 7.897188,2.9394231 10.009766,6.5390621 0.681501,1.161221 1.269878,2.808746 1.541016,4.322266 0.06737,0.37605 0.09839,0.944792 0.113281,1.541016 0.02324,-0.93459 -0.0078,-1.951966 -0.113281,-2.541016 -0.271138,-1.51352 -0.859515,-3.161045 -1.541016,-4.322266 C 58.2175,9.0956725 54.78436,6.85269 50.320312,6.15625 49.698197,6.05915 48.819071,6.006325 47.929688,6 Z m -3.894532,24.71875 c -0.07343,2.221622 0.228084,4.566918 0.90625,7.015625 1.012738,3.65676 5.864376,8.615103 6.857422,9.351563 3.523404,2.61304 5.900725,3.501019 8.595703,5.375 0.759733,0.525099 1.062912,0.844284 1.197266,1.279296 0.07889,-0.230738 0.107771,-0.461394 0.07617,-0.695312 -0.08367,-0.61944 -0.344281,-0.941784 -1.273438,-1.583984 -2.694978,-1.873981 -5.072299,-2.76196 -8.595703,-5.375 -0.993046,-0.73646 -5.844684,-5.694803 -6.857422,-9.351563 -0.577503,-2.085237 -0.873707,-4.09312 -0.90625,-6.015625 z M 29.107422,49.8125 c -3.101036,0.119 -5.3187,2.299482 -5.125,4.607422 0.0056,0.06695 0.02311,0.127615 0.03125,0.193359 0.311928,-1.986063 2.358093,-3.695802 5.09375,-3.800781 0.543004,-10e-4 1.124667,0.07978 1.738281,0.216797 0.723952,0.1624 1.735994,0.189374 2.34375,0.240234 0.213156,-0.1418 0.201451,-0.274835 -0.07813,-0.978515 -0.0036,-0.009 -0.0081,-0.01835 -0.01172,-0.02734 -0.613311,-0.04733 -1.558754,-0.07844 -2.253906,-0.234375 C 30.232089,49.892277 29.650426,49.8115 29.107422,49.8125 Z m 17.193359,1.001953 c -0.608041,0.0027 -1.231162,0.05879 -1.876953,0.121094 -1.029602,0.1066 -1.98054,0.421133 -2.914062,1.189453 -0.64375,0.60946 -1.315945,1.429598 -1.396485,2.517578 -0.033,0.445801 -0.06033,0.853385 -0.01367,1.240234 0.0058,-0.08092 0.0075,-0.156939 0.01367,-0.240234 0.08054,-1.08798 0.752735,-1.908118 1.396485,-2.517578 0.933522,-0.76832 1.88446,-1.082853 2.914062,-1.189453 1.291582,-0.1246 2.490786,-0.229669 3.66211,0.08203 0.64961,0.21116 0.86707,0.217031 0.941406,0.01953 0.03678,-0.09726 -0.02483,-0.459656 -0.117188,-0.884765 -0.129187,0.05534 -0.365602,0.01431 -0.824218,-0.134766 -0.585662,-0.15585 -1.177116,-0.205812 -1.785157,-0.203125 z m 11.785157,3.222656 c -0.0196,0.164451 -0.04788,0.306952 -0.08789,0.382813 -0.12318,0.23332 0.06433,0.696795 -0.361328,0.296875 -0.26171,-0.24592 -0.522296,-0.4178 -0.759766,-0.5 -1.051552,-0.3643 -2.161032,0.09866 -2.650391,1.107422 -0.24785,0.51092 -0.273453,0.946787 -0.125,1.324219 0.034,-0.105302 0.07058,-0.212037 0.125,-0.324219 0.489359,-1.00876 1.598839,-1.471722 2.650391,-1.107422 0.23747,0.0822 0.498056,0.25408 0.759766,0.5 0.425654,0.39992 0.238148,-0.06356 0.361328,-0.296875 0.110068,-0.208695 0.141532,-0.841794 0.08789,-1.382813 z"
       id="path3" />
  </g>
</svg>
