<?xml version="1.0" encoding="UTF-8" standalone="no"?>
<svg
   width="62"
   height="62"
   version="1.1"
   id="svg5"
   sodipodi:docname="com.github.mubitosh.qrshare.svg"
   inkscape:version="1.4.2 (unknown)"
   xmlns:inkscape="http://www.inkscape.org/namespaces/inkscape"
   xmlns:sodipodi="http://sodipodi.sourceforge.net/DTD/sodipodi-0.dtd"
   xmlns:xlink="http://www.w3.org/1999/xlink"
   xmlns="http://www.w3.org/2000/svg"
   xmlns:svg="http://www.w3.org/2000/svg">
  <defs
     id="defs5">
    <linearGradient
       id="linearGradient1"
       inkscape:collect="always">
      <stop
         style="stop-color:#b6c4d7;stop-opacity:1;"
         offset="0"
         id="stop3" />
      <stop
         style="stop-color:#e4e8ef;stop-opacity:1;"
         offset="1"
         id="stop4" />
    </linearGradient>
    <linearGradient
       id="linearGradient8"
       x1="6.0076199"
       y1="31.2295"
       x2="58.008598"
       y2="31.2295"
       gradientUnits="userSpaceOnUse">
      <stop
         stop-color="#A93AFF"
         id="stop7"
         offset="0"
         style="stop-color:#ffd42a;stop-opacity:1" />
      <stop
         offset="1"
         stop-color="#FF81FF"
         id="stop8"
         style="stop-color:#ff00ff;stop-opacity:1" />
    </linearGradient>
    <linearGradient
       id="linearGradient6"
       x1="6.0076199"
       y1="31.2295"
       x2="58.008598"
       y2="31.2295"
       gradientUnits="userSpaceOnUse">
      <stop
         stop-color="#A93AFF"
         id="stop1"
         offset="0"
         style="stop-color:#9000fe;stop-opacity:1;" />
      <stop
         offset="1"
         stop-color="#FF81FF"
         id="stop2" />
    </linearGradient>
    <linearGradient
       id="paint0_linear_37_135"
       x1="6.0076199"
       y1="31.2295"
       x2="58.008598"
       y2="31.2295"
       gradientUnits="userSpaceOnUse">
      <stop
         stop-color="#A93AFF"
         id="stop5" />
      <stop
         offset="1"
         stop-color="#FF81FF"
         id="stop6" />
    </linearGradient>
    <linearGradient
       inkscape:collect="always"
       xlink:href="#linearGradient1"
       id="linearGradient7"
       x1="31"
       y1="58.017544"
       x2="31"
       y2="3.9824562"
       gradientUnits="userSpaceOnUse" />
  </defs>
  <sodipodi:namedview
     id="namedview5"
     pagecolor="#ffffff"
     bordercolor="#000000"
     borderopacity="0.25"
     inkscape:showpageshadow="2"
     inkscape:pageopacity="0.0"
     inkscape:pagecheckerboard="0"
     inkscape:deskcolor="#d1d1d1"
     inkscape:zoom="11.6875"
     inkscape:cx="32.042781"
     inkscape:cy="33.668449"
     inkscape:window-width="1920"
     inkscape:window-height="998"
     inkscape:window-x="0"
     inkscape:window-y="0"
     inkscape:window-maximized="1"
     inkscape:current-layer="g5" />
  <rect
     style="opacity:0.2;stroke-width:0.9823"
     width="55"
     height="55.017544"
     x="3.5"
     y="3.9824562"
     rx="8.25"
     ry="8.2526312"
     id="rect1" />
  <rect
     style="fill:url(#linearGradient7);stroke-width:0.9823;fill-opacity:1"
     width="55"
     height="55.017544"
     x="3.5"
     y="3"
     rx="8.25"
     ry="8.2526312"
     id="rect2" />
  <path
     style="opacity:0.1;fill:#ffffff;stroke-width:0.9823"
     d="M 11.748466,3 C 7.1779651,3 3.4999999,6.6791384 3.4999999,11.251097 v 0.982456 c 0,-4.5719585 3.6779652,-8.2510968 8.2484661,-8.2510968 h 38.503068 c 4.5705,0 8.248466,3.6791383 8.248466,8.2510968 V 11.251097 C 58.5,6.6791384 54.822034,3 50.251534,3 Z"
     id="path4" />
  <g
     id="g5"
     transform="translate(1.5000004,3.0175441)">
    <g
       opacity="1.0"
       id="g3"
       transform="matrix(0.90566036,0,0,0.90566036,0.51886804,-0.99867556)"
       style="fill:#373e48;fill-opacity:1">
      <path
         d="M 13.5,12 C 12.6716,12 12,12.6716 12,13.5 v 2.3333 c 0,0.8284 0.6716,1.5 1.5,1.5 h 2.3333 c 0.8284,0 1.5,-0.6716 1.5,-1.5 V 13.5 c 0,-0.8284 -0.6716,-1.5 -1.5,-1.5 z"
         fill="url(#paint0_linear_37_135)"
         id="path1-9"
         style="fill:#373e48;fill-opacity:1" />
      <path
         fill-rule="evenodd"
         clip-rule="evenodd"
         d="M 7,5.5 C 6.17158,5.5 5.5,6.17158 5.5,7 v 15.3333 c 0,0.8284 0.67158,1.5 1.5,1.5 h 15.3333 c 0.8284,0 1.5,-0.6716 1.5,-1.5 V 7 c 0,-0.82842 -0.6716,-1.5 -1.5,-1.5 z m 3.8333,5.8333 c 0,-0.2762 0.2238,-0.5 0.5,-0.5 H 18 c 0.2762,0 0.5,0.2238 0.5,0.5 V 18 c 0,0.2762 -0.2238,0.5 -0.5,0.5 h -6.6667 c -0.2762,0 -0.5,-0.2238 -0.5,-0.5 z"
         id="path2"
         style="fill:#373e48;fill-opacity:1" />
      <path
         fill-rule="evenodd"
         clip-rule="evenodd"
         id="path3"
         d="m 28.6667,5.5 c -0.8284,0 -1.5,0.67158 -1.5,1.5 v 6.6667 c 0,0.8284 0.6716,1.5 1.5,1.5 H 31 c 0.2312,0 0.4501,-0.0523 0.6457,-0.1457 C 31.5523,15.2166 31.5,15.4355 31.5,15.6667 v 6.6666 c 0,0.2312 0.0523,0.4501 0.1457,0.6457 C 31.4501,22.8856 31.2312,22.8333 31,22.8333 h -2.3333 c -0.8284,0 -1.5,0.6716 -1.5,1.5 v 2.3334 c 0,0.2312 0.0523,0.4501 0.1457,0.6457 -0.1956,-0.0934 -0.4145,-0.1457 -0.6457,-0.1457 h -2.3334 c -0.8284,0 -1.5,0.6716 -1.5,1.5 V 31 c 0,0.2762 -0.2238,0.5 -0.5,0.5 H 20 c -0.2312,0 -0.4501,0.0523 -0.6457,0.1457 C 19.4477,31.4501 19.5,31.2312 19.5,31 v -2.3333 c 0,-0.8284 -0.6716,-1.5 -1.5,-1.5 H 7 c -0.82842,0 -1.5,0.6716 -1.5,1.5 v 6.6666 c 0,0.8285 0.67158,1.5 1.5,1.5 h 6.6667 c 0.8284,0 1.5,-0.6716 1.5,-1.5 V 33 c 0,-0.2762 0.2238,-0.5 0.5,-0.5 H 18 c 0.2312,0 0.4501,-0.0523 0.6457,-0.1457 C 18.5523,32.5499 18.5,32.7688 18.5,33 v 2.3333 c 0,0.8284 0.6716,1.5 1.5,1.5 h 6.6667 c 0.2312,0 0.4501,-0.0523 0.6457,-0.1457 -0.0934,0.1956 -0.1457,0.4145 -0.1457,0.6457 v 2.3334 c 0,0.8284 0.6716,1.5 1.5,1.5 H 31 c 0.2762,0 0.5,0.2238 0.5,0.5 V 44 c 0,0.8284 0.6716,1.5 1.5,1.5 h 2.3333 c 0.2312,0 0.4501,-0.0523 0.6457,-0.1457 -0.0934,0.1956 -0.1457,0.4145 -0.1457,0.6457 v 2.3333 c 0,0.2312 0.0523,0.4502 0.1457,0.6457 -0.1955,-0.0934 -0.4145,-0.1457 -0.6457,-0.1457 h -6.6666 c -0.8285,0 -1.5,0.6717 -1.5,1.5 v 2.3334 c 0,0.8284 0.6716,1.5 1.5,1.5 H 31 c 0.2762,0 0.5,0.2238 0.5,0.5 V 57 c 0,0.8284 0.6716,1.5 1.5,1.5 h 2.3333 c 0.8284,0 1.5,-0.6716 1.5,-1.5 v -6.6667 c 0,-0.2312 -0.0523,-0.4501 -0.1457,-0.6457 0.1955,0.0934 0.4145,0.1457 0.6457,0.1457 h 2.3334 c 0.2312,0 0.4502,-0.0523 0.6457,-0.1457 -0.0934,0.1956 -0.1457,0.4145 -0.1457,0.6457 v 2.3334 c 0,0.8284 0.6716,1.5 1.5,1.5 H 44 c 0.2312,0 0.4501,-0.0523 0.6457,-0.1457 C 44.5523,54.2166 44.5,54.4355 44.5,54.6667 V 57 c 0,0.8284 0.6716,1.5 1.5,1.5 h 2.3333 c 0.8284,0 1.5,-0.6716 1.5,-1.5 v -2.3333 c 0,-0.2312 -0.0523,-0.4502 -0.1457,-0.6457 0.1956,0.0934 0.4145,0.1457 0.6457,0.1457 H 57 c 0.8284,0 1.5,-0.6716 1.5,-1.5 v -2.3334 c 0,-0.8283 -0.6715,-1.5 -1.5,-1.5 h -6.6667 c -0.8283,0 -1.5,0.6717 -1.5,1.5 v 2.3334 c 0,0.2312 0.0523,0.4502 0.1457,0.6457 -0.1955,-0.0934 -0.4145,-0.1457 -0.6457,-0.1457 H 46 c -0.2312,0 -0.4501,0.0523 -0.6457,0.1457 C 45.4477,53.1168 45.5,52.8979 45.5,52.6667 v -2.3334 c 0,-0.8283 -0.6715,-1.5 -1.5,-1.5 h -2.3333 c -0.2312,0 -0.4501,0.0523 -0.6457,0.1457 0.0934,-0.1955 0.1457,-0.4145 0.1457,-0.6457 V 46 c 0,-0.2312 -0.0523,-0.4501 -0.1457,-0.6457 0.1956,0.0934 0.4145,0.1457 0.6457,0.1457 H 44 c 0.8284,0 1.5,-0.6716 1.5,-1.5 v -2.3333 c 0,-0.2312 -0.0523,-0.4501 -0.1457,-0.6457 0.1956,0.0934 0.4145,0.1457 0.6457,0.1457 h 2.3333 c 0.2762,0 0.5,0.2238 0.5,0.5 V 44 c 0,0.8285 0.6717,1.5 1.5,1.5 h 2.3334 c 0.8284,0 1.5,-0.6716 1.5,-1.5 v -6.6667 c 0,-0.2312 -0.0523,-0.4501 -0.1457,-0.6457 0.1956,0.0934 0.4145,0.1457 0.6457,0.1457 H 57 c 0.8284,0 1.5,-0.6716 1.5,-1.5 v -6.6666 c 0,-0.8284 -0.6716,-1.5 -1.5,-1.5 h -6.6667 c -0.8283,0 -1.5,0.6715 -1.5,1.5 V 31 c 0,0.8285 0.6717,1.5 1.5,1.5 h 2.3334 c 0.2762,0 0.5,0.2238 0.5,0.5 v 2.3333 c 0,0.2312 0.0523,0.4501 0.1457,0.6457 -0.1956,-0.0934 -0.4145,-0.1457 -0.6457,-0.1457 H 46 c -0.2312,0 -0.4501,0.0523 -0.6457,0.1457 C 45.4477,35.7834 45.5,35.5645 45.5,35.3333 v -6.6666 c 0,-0.8284 -0.6716,-1.5 -1.5,-1.5 h -2.3333 c -0.8284,0 -1.5,0.6716 -1.5,1.5 V 31 c 0,0.2762 -0.2238,0.5 -0.5,0.5 h -2.3334 c -0.2312,0 -0.4501,0.0523 -0.6457,0.1457 C 36.781,31.4501 36.8333,31.2312 36.8333,31 v -2.3333 c 0,-0.8284 -0.6716,-1.5 -1.5,-1.5 H 33 c -0.2312,0 -0.4501,0.0523 -0.6457,0.1457 C 32.4477,27.1168 32.5,26.8979 32.5,26.6667 v -2.3334 c 0,-0.2312 -0.0523,-0.4501 -0.1457,-0.6457 0.1956,0.0934 0.4145,0.1457 0.6457,0.1457 h 2.3333 c 0.8284,0 1.5,-0.6716 1.5,-1.5 v -6.6666 c 0,-0.8284 -0.6716,-1.5 -1.5,-1.5 H 33 c -0.2312,0 -0.4501,0.0523 -0.6457,0.1457 C 32.4477,14.1168 32.5,13.8979 32.5,13.6667 v -2.3334 c 0,-0.2762 0.2238,-0.5 0.5,-0.5 h 2.3333 c 0.8284,0 1.5,-0.6715 1.5,-1.49997 V 7 c 0,-0.82842 -0.6715,-1.5 -1.5,-1.5 z m -0.5,23.1667 c 0,-0.2312 -0.0523,-0.4501 -0.1457,-0.6457 0.1956,0.0934 0.4145,0.1457 0.6457,0.1457 H 31 c 0.2312,0 0.4501,-0.0523 0.6457,-0.1457 C 31.5523,28.2166 31.5,28.4355 31.5,28.6667 V 31 c 0,0.8284 0.6716,1.5 1.5,1.5 h 2.3333 c 0.2312,0 0.4501,-0.0523 0.6457,-0.1457 -0.0934,0.1956 -0.1457,0.4145 -0.1457,0.6457 v 2.3333 c 0,0.2312 0.0523,0.4501 0.1457,0.6457 -0.1956,-0.0934 -0.4145,-0.1457 -0.6457,-0.1457 h -6.6666 c -0.2312,0 -0.4501,0.0523 -0.6457,0.1457 0.0934,-0.1956 0.1457,-0.4145 0.1457,-0.6457 z m 8.6666,8.6666 c 0,-0.2312 -0.0523,-0.4501 -0.1457,-0.6457 0.1956,0.0934 0.4145,0.1457 0.6457,0.1457 H 44 c 0.2312,0 0.4501,-0.0523 0.6457,-0.1457 C 44.5523,36.8832 44.5,37.1021 44.5,37.3333 v 2.3334 c 0,0.2312 0.0523,0.4501 0.1457,0.6457 C 44.4501,40.219 44.2312,40.1667 44,40.1667 h -2.3333 c -0.8284,0 -1.5,0.6716 -1.5,1.5 V 44 c 0,0.2312 0.0523,0.4501 0.1457,0.6457 C 40.1168,44.5523 39.8979,44.5 39.6667,44.5 h -2.3334 c -0.2312,0 -0.4501,0.0523 -0.6457,0.1457 C 36.781,44.4501 36.8333,44.2312 36.8333,44 Z"
         style="fill:#373e48;fill-opacity:1" />
    </g>
    <path
       fill-rule="evenodd"
       clip-rule="evenodd"
       d="m 37.349087,5.3409466 c 0,-0.5001782 0.405463,-0.9056604 0.905659,-0.9056604 h 13.886761 c 0.500195,0 0.905658,0.4054822 0.905658,0.9056604 V 19.22771 c 0,0.500196 -0.405463,0.905658 -0.905658,0.905658 H 38.254746 c -0.500196,0 -0.905659,-0.405462 -0.905659,-0.905658 z M 5.95283,36.737202 c 0,-0.500196 0.4054822,-0.905659 0.9056604,-0.905659 H 20.745254 c 0.500196,0 0.905658,0.405463 0.905658,0.905659 v 13.886761 c 0,0.500195 -0.405462,0.905658 -0.905658,0.905658 H 6.8584904 c -0.5001782,0 -0.9056604,-0.405463 -0.9056604,-0.905658 z M 42.179245,8.3597845 c -0.500196,0 -0.905658,0.4054639 -0.905658,0.9056604 V 15.30321 c 0,0.500196 0.405462,0.905658 0.905658,0.905658 h 6.037766 c 0.500196,0 0.905658,-0.405462 0.905658,-0.905658 V 9.2654449 c 0,-0.5001965 -0.405462,-0.9056604 -0.905658,-0.9056604 z M 9.8773311,40.661701 c 0,-0.500196 0.4054609,-0.905658 0.9056579,-0.905658 h 6.037765 c 0.500196,0 0.905658,0.405462 0.905658,0.905658 v 6.037766 c 0,0.500196 -0.405462,0.905658 -0.905658,0.905658 h -6.037765 c -0.500197,0 -0.9056579,-0.405462 -0.9056579,-0.905658 z"
       id="path4-2"
       fill="url(#paint3_linear_37_135)"
       style="fill:#373e48;stroke-width:0.905658;fill-opacity:1" />
    <path
       d="m 38.254746,3.9824562 c -0.750246,0 -1.358491,0.6082234 -1.358491,1.3584904 h 0.90566 c 0,-0.2500892 0.202689,-0.45283 0.452831,-0.45283 z m 13.886761,0 H 38.254746 v 0.9056604 h 13.886761 z m 1.358491,1.3584904 c 0,-0.750267 -0.608241,-1.3584904 -1.358491,-1.3584904 v 0.9056604 c 0.250145,0 0.452834,0.2027408 0.452834,0.45283 z m 0,13.8867634 V 5.3409466 H 52.594341 V 19.22771 Z m -1.358491,1.358492 c 0.75025,0 1.358491,-0.608246 1.358491,-1.358492 h -0.905657 c 0,0.250142 -0.202689,0.452829 -0.452834,0.452829 z m -13.886761,0 H 52.141507 V 19.680539 H 38.254746 Z M 36.896255,19.22771 c 0,0.750246 0.608245,1.358492 1.358491,1.358492 v -0.905663 c -0.250142,0 -0.452831,-0.202687 -0.452831,-0.452829 z m 0,-13.8867634 V 19.22771 h 0.90566 V 5.3409466 Z M 6.8584904,35.378712 C 6.1082234,35.378712 5.5,35.986956 5.5,36.737202 h 0.9056604 c 0,-0.250142 0.2027408,-0.452831 0.45283,-0.452831 z m 13.8867636,0 H 6.8584904 v 0.905659 H 20.745254 Z m 1.358491,1.35849 c 0,-0.750246 -0.608245,-1.35849 -1.358491,-1.35849 v 0.905659 c 0.250142,0 0.452829,0.202689 0.452829,0.452831 z m 0,13.886761 V 36.737202 h -0.905662 v 13.886761 z m -1.358491,1.358491 c 0.750246,0 1.358491,-0.608241 1.358491,-1.358491 h -0.905662 c 0,0.250145 -0.202687,0.452834 -0.452829,0.452834 z m -13.8867636,0 H 20.745254 V 51.076797 H 6.8584904 Z M 5.5,50.623963 c 0,0.75025 0.6082234,1.358491 1.3584904,1.358491 v -0.905657 c -0.2500892,0 -0.45283,-0.202689 -0.45283,-0.452834 z m 0,-13.886761 V 50.623963 H 6.4056604 V 36.737202 Z M 41.726411,9.2654449 c 0,-0.250053 0.202689,-0.45283 0.452834,-0.45283 V 7.9069631 c -0.75025,0 -1.358492,0.6082326 -1.358492,1.3584818 z m 0,6.0377651 V 9.2654449 H 40.820753 V 15.30321 Z m 0.452834,0.452834 c -0.250145,0 -0.452834,-0.202688 -0.452834,-0.452834 h -0.905658 c 0,0.750342 0.608242,1.358492 1.358492,1.358492 z m 6.037766,0 h -6.037766 v 0.905658 h 6.037766 z m 0.45283,-0.452834 c 0,0.250146 -0.202688,0.452834 -0.45283,0.452834 v 0.905658 c 0.750246,0 1.358487,-0.60815 1.358487,-1.358492 z m 0,-6.0377651 V 15.30321 h 0.905657 V 9.2654449 Z m -0.45283,-0.45283 c 0.250142,0 0.45283,0.202777 0.45283,0.45283 h 0.905657 c 0,-0.7502492 -0.608241,-1.3584818 -1.358487,-1.3584818 z m -6.037766,0 h 6.037766 V 7.9069631 H 42.179245 Z M 10.782989,39.303209 c -0.750247,0 -1.3584907,0.608242 -1.3584907,1.358492 h 0.9056597 c 0,-0.250145 0.202688,-0.452834 0.452831,-0.452834 z m 6.037765,0 h -6.037765 v 0.905658 h 6.037765 z m 1.358492,1.358492 c 0,-0.75025 -0.608242,-1.358492 -1.358492,-1.358492 v 0.905658 c 0.250146,0 0.452834,0.202689 0.452834,0.452834 z m 0,6.037766 v -6.037766 h -0.905658 v 6.037766 z m -1.358492,1.358487 c 0.75025,0 1.358492,-0.608241 1.358492,-1.358487 h -0.905658 c 0,0.250142 -0.202688,0.45283 -0.452834,0.45283 z m -6.037765,0 h 6.037765 V 47.152297 H 10.782989 Z M 9.4244983,46.699467 c 0,0.750246 0.6082437,1.358487 1.3584907,1.358487 v -0.905657 c -0.250143,0 -0.452831,-0.202688 -0.452831,-0.45283 z m 0,-6.037766 v 6.037766 H 10.330158 V 40.661701 Z M 44.141541,9.8692489 c -0.75025,0 -1.358492,0.6082411 -1.358492,1.3584911 h 0.905658 c 0,-0.25005 0.202688,-0.45283 0.452834,-0.45283 z M 42.783049,11.22774 v 2.113174 h 0.905658 V 11.22774 Z m 0,2.113174 c 0,0.750342 0.608242,1.358492 1.358492,1.358492 v -0.905658 c -0.250146,0 -0.452834,-0.202688 -0.452834,-0.452834 z m 1.358492,1.358492 h 2.113174 v -0.905658 h -2.113174 z m 2.113174,0 c 0.75025,0 1.358492,-0.60815 1.358492,-1.358492 h -0.905662 c 0,0.250146 -0.202688,0.452834 -0.45283,0.452834 z m 1.358492,-1.358492 V 11.22774 h -0.905662 v 2.113174 z m 0,-2.113174 c 0,-0.75025 -0.608242,-1.3584911 -1.358492,-1.3584911 V 10.77491 c 0.250142,0 0.45283,0.20278 0.45283,0.45283 z M 46.254715,9.8692489 H 44.141541 V 10.77491 h 2.113174 z M 12.745284,41.265505 c -0.75025,0 -1.358492,0.608242 -1.358492,1.358492 h 0.905662 c 0,-0.250146 0.202688,-0.452834 0.45283,-0.452834 z m -1.358492,1.358492 v 2.113174 h 0.905662 v -2.113174 z m 0,2.113174 c 0,0.75025 0.608242,1.358492 1.358492,1.358492 v -0.905662 c -0.250142,0 -0.45283,-0.202688 -0.45283,-0.45283 z m 1.358492,1.358492 h 2.113174 v -0.905662 h -2.113174 z m 2.113174,0 c 0.75025,0 1.358492,-0.608242 1.358492,-1.358492 h -0.905658 c 0,0.250142 -0.202688,0.45283 -0.452834,0.45283 z m 1.358492,-1.358492 v -2.113174 h -0.905658 v 2.113174 z m 0,-2.113174 c 0,-0.75025 -0.608242,-1.358492 -1.358492,-1.358492 v 0.905658 c 0.250146,0 0.452834,0.202688 0.452834,0.452834 z m -1.358492,-1.358492 h -2.113174 v 0.905658 h 2.113174 z"
       id="path5"
       style="fill:#373e48;stroke-width:0.905658;fill-opacity:1" />
  </g>
</svg>
