<?xml version="1.0" encoding="UTF-8" standalone="no"?>
<svg
   width="62"
   height="62"
   version="1.1"
   id="svg5"
   sodipodi:docname="com.github.plugarut.pwned-checker.svg"
   inkscape:version="1.4.2 (unknown)"
   xmlns:inkscape="http://www.inkscape.org/namespaces/inkscape"
   xmlns:sodipodi="http://sodipodi.sourceforge.net/DTD/sodipodi-0.dtd"
   xmlns:xlink="http://www.w3.org/1999/xlink"
   xmlns="http://www.w3.org/2000/svg"
   xmlns:svg="http://www.w3.org/2000/svg">
  <defs
     id="defs5">
    <linearGradient
       id="linearGradient8"
       inkscape:collect="always">
      <stop
         style="stop-color:#2d3d53;stop-opacity:1;"
         offset="0"
         id="stop8" />
      <stop
         style="stop-color:#354864;stop-opacity:1;"
         offset="1"
         id="stop10" />
    </linearGradient>
    <linearGradient
       id="linearGradient4217">
      <stop
         style="stop-color:#000000;stop-opacity:1;"
         offset="0"
         id="stop2" />
      <stop
         style="stop-color:#000000;stop-opacity:0;"
         offset="1"
         id="stop4" />
    </linearGradient>
    <linearGradient
       id="linearGradient4161">
      <stop
         style="stop-color:#334545;stop-opacity:1;"
         offset="0"
         id="stop7" />
      <stop
         style="stop-color:#4d6868;stop-opacity:1"
         offset="1"
         id="stop9" />
    </linearGradient>
    <linearGradient
       id="a-1-2"
       y1="510.79999"
       y2="527.14001"
       gradientUnits="userSpaceOnUse"
       x2="0">
      <stop
         stop-color="#7cbaf8"
         id="stop2-2-7" />
      <stop
         offset="1"
         stop-color="#f4fcff"
         id="stop4-70-0" />
    </linearGradient>
    <linearGradient
       id="c"
       y1="503.79999"
       x1="400.57001"
       y2="519.79999"
       x2="416.57001"
       gradientUnits="userSpaceOnUse">
      <stop
         stop-color="#292c2f"
         id="stop12" />
      <stop
         offset="1"
         stop-opacity="0"
         id="stop14" />
    </linearGradient>
    <linearGradient
       id="b"
       y1="542.79999"
       x1="408.57001"
       y2="521.79999"
       x2="387.57001"
       gradientUnits="userSpaceOnUse"
       gradientTransform="translate(-384.57,-499.8)">
      <stop
         stop-color="#197cf1"
         id="stop7-8" />
      <stop
         offset="1"
         stop-color="#20bcfa"
         id="stop9-7" />
    </linearGradient>
    <linearGradient
       xlink:href="#linearGradient1389"
       id="linearGradient4503-5-6"
       y1="37"
       y2="4"
       x2="0"
       gradientUnits="userSpaceOnUse"
       gradientTransform="matrix(1.0218446,0,0,0.99999999,21.748946,8.2587777)" />
    <linearGradient
       id="linearGradient1389">
      <stop
         style="stop-color:#ffaaaa;stop-opacity:1"
         id="stop1385"
         offset="0" />
      <stop
         offset="1"
         style="stop-color:#ff5555;stop-opacity:1"
         id="stop1387" />
    </linearGradient>
    <linearGradient
       id="paint543_linear_890_11"
       x1="978.5"
       y1="298"
       x2="978.5"
       y2="304"
       gradientUnits="userSpaceOnUse"
       gradientTransform="matrix(0.75000004,0,0,0.75000004,-717.38333,-173.49123)">
      <stop
         offset="0.189495"
         stop-color="#EFF2F6"
         id="stop1829" />
      <stop
         offset="0.850463"
         stop-color="#B7C6CD"
         id="stop1830" />
    </linearGradient>
    <linearGradient
       inkscape:collect="always"
       xlink:href="#linearGradient8"
       id="linearGradient10"
       x1="31.5"
       y1="59.017544"
       x2="31.5"
       y2="4.9824562"
       gradientUnits="userSpaceOnUse"
       gradientTransform="translate(-0.5,-1)" />
    <linearGradient
       id="linearGradient4144">
      <stop
         style="stop-color:#c83771;stop-opacity:1"
         offset="0"
         id="stop1141" />
      <stop
         style="stop-color:#de87aa;stop-opacity:1"
         offset="1"
         id="stop1143" />
    </linearGradient>
    <linearGradient
       id="c-0"
       gradientUnits="userSpaceOnUse"
       x1="10"
       x2="24"
       y1="10"
       y2="24"
       gradientTransform="translate(59.728813,26.237288)">
      <stop
         offset="0"
         stop-color="#292c2f"
         id="stop12-2" />
      <stop
         offset="1"
         stop-opacity="0"
         id="stop14-3" />
    </linearGradient>
    <linearGradient
       id="d"
       gradientUnits="userSpaceOnUse"
       x1="24"
       x2="24"
       y1="25"
       y2="7"
       gradientTransform="translate(59.728813,26.237288)">
      <stop
         offset="0"
         stop-color="#bb9d71"
         id="stop2-7" />
      <stop
         offset="1"
         stop-color="#f9f2e7"
         id="stop4-5" />
    </linearGradient>
  </defs>
  <sodipodi:namedview
     id="namedview5"
     pagecolor="#ffffff"
     bordercolor="#000000"
     borderopacity="0.25"
     inkscape:showpageshadow="2"
     inkscape:pageopacity="0.0"
     inkscape:pagecheckerboard="0"
     inkscape:deskcolor="#d1d1d1"
     inkscape:zoom="8.2643105"
     inkscape:cx="25.289466"
     inkscape:cy="30.432061"
     inkscape:window-width="1920"
     inkscape:window-height="998"
     inkscape:window-x="0"
     inkscape:window-y="0"
     inkscape:window-maximized="1"
     inkscape:current-layer="svg5" />
  <rect
     style="opacity:0.2;stroke-width:0.9823"
     width="55"
     height="55.017544"
     x="3.5"
     y="3.9824562"
     rx="8.25"
     ry="8.2526312"
     id="rect1" />
  <rect
     style="fill:url(#linearGradient10);stroke-width:0.9823"
     width="55"
     height="55.017544"
     x="3.5"
     y="3"
     rx="8.25"
     ry="8.2526312"
     id="rect2" />
  <path
     style="opacity:0.1;fill:#ffffff;stroke-width:0.9823"
     d="M 11.748466,3 C 7.1779652,3 3.5,6.6791384 3.5,11.251097 v 0.982456 c 0,-4.5719585 3.6779652,-8.2510969 8.248466,-8.2510969 h 38.503068 c 4.5705,0 8.248466,3.6791384 8.248466,8.2510969 V 11.251097 C 58.5,6.6791384 54.822034,3 50.251534,3 Z"
     id="path4" />
  <path
     style="opacity:0.2"
     d="m 7,15 v 10 h 3 V 15 Z m 11,9 a 3,3 0 0 0 -3,3 3,3 0 0 0 3,3 3,3 0 0 0 3,-3 3,3 0 0 0 -3,-3 z m 8,7 v 3 h 10 v -3 z m 13,0 v 3 H 49 V 31 Z M 17.974609,34.986328 A 2.975234,2.975234 0 0 0 15,37.962891 a 2.975234,2.975234 0 0 0 2.015625,2.8125 L 16.033203,45 h 2.197266 c 1.408392,-2.262636 3.081154,-4.250086 2.720703,-7.037109 a 2.975234,2.975234 0 0 0 -2.976563,-2.976563 z"
     id="path2" />
  <path
     style="fill:#ffffff"
     d="m 7,15 v 10 h 3 V 15 Z m 11,9 a 3,3 0 0 0 -3,3 3,3 0 0 0 3,3 3,3 0 0 0 3,-3 3,3 0 0 0 -3,-3 z m 8,7 v 3 h 10 v -3 z m 13,0 v 3 H 49 V 31 Z M 17.974609,34.986328 A 2.975234,2.975234 0 0 0 15,37.962891 a 2.975234,2.975234 0 0 0 2.015625,2.8125 L 16.033203,45 h 2.197266 c 1.408392,-2.262636 3.081154,-4.250086 2.720703,-7.037109 a 2.975234,2.975234 0 0 0 -2.976563,-2.976563 z"
     id="path3-2" />
</svg>
