<?xml version="1.0" encoding="UTF-8" standalone="no"?>
<svg
   width="62"
   height="62"
   viewBox="0 0 16.404166 16.404167"
   version="1.1"
   id="svg1443"
   inkscape:version="1.4.2 (unknown)"
   sodipodi:docname="com.github.weclaw1.ImageRoll.svg"
   xmlns:inkscape="http://www.inkscape.org/namespaces/inkscape"
   xmlns:sodipodi="http://sodipodi.sourceforge.net/DTD/sodipodi-0.dtd"
   xmlns:xlink="http://www.w3.org/1999/xlink"
   xmlns="http://www.w3.org/2000/svg"
   xmlns:svg="http://www.w3.org/2000/svg"
   xmlns:rdf="http://www.w3.org/1999/02/22-rdf-syntax-ns#"
   xmlns:cc="http://creativecommons.org/ns#"
   xmlns:dc="http://purl.org/dc/elements/1.1/">
  <defs
     id="defs1437">
    <linearGradient
       gradientTransform="matrix(0.4711726,0,0,0.47114666,-53.953909,-18.000765)"
       gradientUnits="userSpaceOnUse"
       y2="70.679932"
       x2="132.21078"
       y1="42.151531"
       x1="132.21078"
       id="linearGradient1632"
       xlink:href="#linearGradient1630"
       inkscape:collect="always" />
    <linearGradient
       id="linearGradient1630"
       inkscape:collect="always">
      <stop
         id="stop1626"
         offset="0"
         style="stop-color:#fafafc;stop-opacity:1" />
      <stop
         id="stop1628"
         offset="1"
         style="stop-color:#e2e6ea;stop-opacity:1" />
    </linearGradient>
    <filter
       color-interpolation-filters="sRGB"
       height="1.1311001"
       width="1.1106"
       y="-0.065563001"
       x="-0.055319"
       id="c-9">
      <feGaussianBlur
         id="feGaussianBlur1093"
         stdDeviation="1.1062912" />
    </filter>
    <linearGradient
       gradientUnits="userSpaceOnUse"
       gradientTransform="matrix(0.13235,0,0,0.13075,-32.379,1.0873)"
       y2="269.48999"
       y1="235.14999"
       x2="657.65002"
       x1="319.20999"
       id="a-12">
      <stop
         id="stop1076"
         offset="0"
         stop-color="#e54c18" />
      <stop
         id="stop1078"
         offset="1"
         stop-color="#fec350" />
    </linearGradient>
  </defs>
  <sodipodi:namedview
     id="base"
     pagecolor="#ffffff"
     bordercolor="#666666"
     borderopacity="1.0"
     inkscape:pageopacity="0.0"
     inkscape:pageshadow="2"
     inkscape:zoom="7.9195959"
     inkscape:cx="26.705908"
     inkscape:cy="40.848044"
     inkscape:document-units="px"
     inkscape:current-layer="layer1"
     inkscape:document-rotation="0"
     showgrid="false"
     units="px"
     inkscape:window-width="1920"
     inkscape:window-height="998"
     inkscape:window-x="0"
     inkscape:window-y="0"
     inkscape:window-maximized="1"
     inkscape:showpageshadow="2"
     inkscape:pagecheckerboard="0"
     inkscape:deskcolor="#d1d1d1" />
  <metadata
     id="metadata1440">
    <rdf:RDF>
      <cc:Work
         rdf:about="">
        <dc:format>image/svg+xml</dc:format>
        <dc:type
           rdf:resource="http://purl.org/dc/dcmitype/StillImage" />
      </cc:Work>
    </rdf:RDF>
  </metadata>
  <g
     inkscape:label="Capa 1"
     inkscape:groupmode="layer"
     id="layer1">
    <g
       style="opacity:0.295"
       transform="matrix(0.47117252,0,0,0.47114656,-31.72741,-18.000762)"
       id="g1702">
      <rect
         ry="6.6098609"
         rx="6.6098609"
         y="40.709618"
         x="69.839508"
         height="29.810888"
         width="29.810888"
         id="rect1634"
         style="fill:none;fill-opacity:1;stroke:#000000;stroke-width:0.1;stroke-linecap:round;stroke-linejoin:round;stroke-miterlimit:4;stroke-dasharray:none;stroke-opacity:0.02" />
      <rect
         style="fill:none;fill-opacity:1;stroke:#000000;stroke-width:0.2;stroke-linecap:round;stroke-linejoin:round;stroke-miterlimit:4;stroke-dasharray:none;stroke-opacity:0.02"
         id="rect1638"
         width="29.810888"
         height="29.810888"
         x="69.839508"
         y="40.709618"
         rx="6.6098609"
         ry="6.6098609" />
      <rect
         ry="6.6098609"
         rx="6.6098609"
         y="40.709618"
         x="69.839508"
         height="29.810888"
         width="29.810888"
         id="rect1640"
         style="fill:none;fill-opacity:1;stroke:#000000;stroke-width:0.3;stroke-linecap:round;stroke-linejoin:round;stroke-miterlimit:4;stroke-dasharray:none;stroke-opacity:0.02" />
      <rect
         style="fill:none;fill-opacity:1;stroke:#000000;stroke-width:0.4;stroke-linecap:round;stroke-linejoin:round;stroke-miterlimit:4;stroke-dasharray:none;stroke-opacity:0.02"
         id="rect1642"
         width="29.810888"
         height="29.810888"
         x="69.839508"
         y="40.709618"
         rx="6.6098609"
         ry="6.6098609" />
      <rect
         ry="6.6098609"
         rx="6.6098609"
         y="40.709618"
         x="69.839508"
         height="29.810888"
         width="29.810888"
         id="rect1644"
         style="fill:none;fill-opacity:1;stroke:#000000;stroke-width:0.5;stroke-linecap:round;stroke-linejoin:round;stroke-miterlimit:4;stroke-dasharray:none;stroke-opacity:0.02" />
      <rect
         style="fill:none;fill-opacity:1;stroke:#000000;stroke-width:0.6;stroke-linecap:round;stroke-linejoin:round;stroke-miterlimit:4;stroke-dasharray:none;stroke-opacity:0.02"
         id="rect1646"
         width="29.810888"
         height="29.810888"
         x="69.839508"
         y="40.709618"
         rx="6.6098609"
         ry="6.6098609" />
      <rect
         ry="6.6098609"
         rx="6.6098609"
         y="40.709618"
         x="69.839508"
         height="29.810888"
         width="29.810888"
         id="rect1648"
         style="fill:none;fill-opacity:1;stroke:#000000;stroke-width:0.7;stroke-linecap:round;stroke-linejoin:round;stroke-miterlimit:4;stroke-dasharray:none;stroke-opacity:0.02" />
      <rect
         style="fill:none;fill-opacity:1;stroke:#000000;stroke-width:0.8;stroke-linecap:round;stroke-linejoin:round;stroke-miterlimit:4;stroke-dasharray:none;stroke-opacity:0.02"
         id="rect1650"
         width="29.810888"
         height="29.810888"
         x="69.839508"
         y="40.709618"
         rx="6.6098609"
         ry="6.6098609" />
      <rect
         ry="6.6098609"
         rx="6.6098609"
         y="40.709618"
         x="69.839508"
         height="29.810888"
         width="29.810888"
         id="rect1652"
         style="fill:none;fill-opacity:1;stroke:#000000;stroke-width:1;stroke-linecap:round;stroke-linejoin:round;stroke-miterlimit:4;stroke-dasharray:none;stroke-opacity:0.02" />
      <rect
         style="fill:none;fill-opacity:1;stroke:#000000;stroke-width:1.2;stroke-linecap:round;stroke-linejoin:round;stroke-miterlimit:4;stroke-dasharray:none;stroke-opacity:0.02"
         id="rect1654"
         width="29.810888"
         height="29.810888"
         x="69.839508"
         y="40.709618"
         rx="6.6098609"
         ry="6.6098609" />
      <rect
         ry="6.6098609"
         rx="6.6098609"
         y="40.709618"
         x="69.839508"
         height="29.810888"
         width="29.810888"
         id="rect1656"
         style="fill:none;fill-opacity:1;stroke:#000000;stroke-width:1.4;stroke-linecap:round;stroke-linejoin:round;stroke-miterlimit:4;stroke-dasharray:none;stroke-opacity:0.02" />
      <rect
         style="fill:none;fill-opacity:1;stroke:#000000;stroke-width:1.6;stroke-linecap:round;stroke-linejoin:round;stroke-miterlimit:4;stroke-dasharray:none;stroke-opacity:0.02"
         id="rect1658"
         width="29.810888"
         height="29.810888"
         x="69.839508"
         y="40.709618"
         rx="6.6098609"
         ry="6.6098609" />
      <rect
         ry="6.6098609"
         rx="6.6098609"
         y="40.709618"
         x="69.839508"
         height="29.810888"
         width="29.810888"
         id="rect1660"
         style="fill:none;fill-opacity:1;stroke:#000000;stroke-width:1.8;stroke-linecap:round;stroke-linejoin:round;stroke-miterlimit:4;stroke-dasharray:none;stroke-opacity:0.02" />
      <rect
         style="fill:none;fill-opacity:1;stroke:#000000;stroke-width:2;stroke-linecap:round;stroke-linejoin:round;stroke-miterlimit:4;stroke-dasharray:none;stroke-opacity:0.02"
         id="rect1662"
         width="29.810888"
         height="29.810888"
         x="69.839508"
         y="40.709618"
         rx="6.6098609"
         ry="6.6098609" />
      <rect
         ry="6.6098609"
         rx="6.6098609"
         y="40.709618"
         x="69.839508"
         height="29.810888"
         width="29.810888"
         id="rect1664"
         style="fill:none;fill-opacity:1;stroke:#000000;stroke-width:2.2;stroke-linecap:round;stroke-linejoin:round;stroke-miterlimit:4;stroke-dasharray:none;stroke-opacity:0.02" />
      <rect
         style="fill:none;fill-opacity:1;stroke:#000000;stroke-width:2.6;stroke-linecap:round;stroke-linejoin:round;stroke-miterlimit:4;stroke-dasharray:none;stroke-opacity:0.02"
         id="rect1666"
         width="29.810888"
         height="29.810888"
         x="69.839508"
         y="40.709618"
         rx="6.6098609"
         ry="6.6098609" />
      <rect
         ry="6.6098609"
         rx="6.6098609"
         y="40.709618"
         x="69.839508"
         height="29.810888"
         width="29.810888"
         id="rect1668"
         style="fill:none;fill-opacity:1;stroke:#000000;stroke-width:3;stroke-linecap:round;stroke-linejoin:round;stroke-miterlimit:4;stroke-dasharray:none;stroke-opacity:0.02" />
      <rect
         style="fill:none;fill-opacity:1;stroke:#000000;stroke-width:3.4;stroke-linecap:round;stroke-linejoin:round;stroke-miterlimit:4;stroke-dasharray:none;stroke-opacity:0.02"
         id="rect1670"
         width="29.810888"
         height="29.810888"
         x="69.839508"
         y="40.709618"
         rx="6.6098609"
         ry="6.6098609" />
      <rect
         ry="6.6098609"
         rx="6.6098609"
         y="40.709618"
         x="69.839508"
         height="29.810888"
         width="29.810888"
         id="rect1672"
         style="fill:none;fill-opacity:1;stroke:#000000;stroke-width:3.8;stroke-linecap:round;stroke-linejoin:round;stroke-miterlimit:4;stroke-dasharray:none;stroke-opacity:0.02" />
      <rect
         style="fill:none;fill-opacity:1;stroke:#000000;stroke-width:4.2;stroke-linecap:round;stroke-linejoin:round;stroke-miterlimit:4;stroke-dasharray:none;stroke-opacity:0.02"
         id="rect1674"
         width="29.810888"
         height="29.810888"
         x="69.839508"
         y="40.709618"
         rx="6.6098609"
         ry="6.6098609" />
      <rect
         ry="6.6098609"
         rx="6.6098609"
         y="40.709618"
         x="69.839508"
         height="29.810888"
         width="29.810888"
         id="rect1676"
         style="fill:none;fill-opacity:1;stroke:#000000;stroke-width:4.6;stroke-linecap:round;stroke-linejoin:round;stroke-miterlimit:4;stroke-dasharray:none;stroke-opacity:0.02" />
      <rect
         style="fill:none;fill-opacity:1;stroke:#000000;stroke-width:5;stroke-linecap:round;stroke-linejoin:round;stroke-miterlimit:4;stroke-dasharray:none;stroke-opacity:0.02"
         id="rect1678"
         width="29.810888"
         height="29.810888"
         x="69.839508"
         y="40.709618"
         rx="6.6098609"
         ry="6.6098609" />
    </g>
    <rect
       ry="3.1142132"
       rx="3.1143851"
       y="1.1794344"
       x="1.1790471"
       height="14.045296"
       width="14.04607"
       id="rect849"
       style="fill:url(#linearGradient1632);fill-opacity:1;stroke-width:1.29783;stroke-linecap:round;stroke-linejoin:round" />
    <path
       style="opacity:0.2;stroke-width:0.203702"
       d="m 7.3894339,12.797477 v 0.816958 c 0,0.226299 0.1812206,0.408481 0.4063242,0.408481 h 5.6885399 c 0.225105,0 0.406326,-0.182182 0.406326,-0.408481 v -0.816958 z"
       id="path1" />
    <path
       style="opacity:0.2;stroke-width:0.203702"
       d="m 2.919866,5.0363696 c -0.2251037,0 -0.4063243,0.182182 -0.4063243,0.4084748 v 4.9017566 c 0,0.226298 0.1812206,0.40848 0.4063243,0.40848 h 2.0316217 v 1.225434 c 0,0.2263 0.1812209,0.408482 0.4063246,0.408482 H 7.3894339 7.7957581 8.2020824 V 11.980515 10.755081 5.0363696 H 7.3894339 Z m 0.2031622,0.4084748 h 0.4063244 c 0.1125516,0 0.2031621,0.091091 0.2031621,0.2042417 v 0.8169567 c 0,0.1131499 -0.09061,0.2042409 -0.2031621,0.2042409 H 3.1230282 c -0.1125519,0 -0.2031622,-0.091091 -0.2031622,-0.2042409 V 5.6490861 c 0,-0.1131507 0.09061,-0.2042417 0.2031622,-0.2042417 z m 1.2189731,0 h 0.4063242 c 0.112552,0 0.2031622,0.091091 0.2031622,0.2042417 v 0.8169567 c 0,0.1131499 -0.09061,0.2042409 -0.2031622,0.2042409 H 4.3420013 c -0.112552,0 -0.2031621,-0.091091 -0.2031621,-0.2042409 V 5.6490861 c 0,-0.1131507 0.09061,-0.2042417 0.2031621,-0.2042417 z m 1.218973,0 h 0.4063242 c 0.1125522,0 0.2031621,0.091091 0.2031621,0.2042417 v 0.8169567 c 0,0.1131499 -0.09061,0.2042409 -0.2031621,0.2042409 H 5.5609743 c -0.112552,0 -0.203162,-0.091091 -0.203162,-0.2042409 V 5.6490861 c 0,-0.1131507 0.09061,-0.2042417 0.203162,-0.2042417 z m 1.218973,0 h 0.4063242 c 0.112552,0 0.2031624,0.091091 0.2031624,0.2042417 v 0.8169567 c 0,0.1131499 -0.09061,0.2042409 -0.2031624,0.2042409 H 6.7799473 c -0.1125518,0 -0.203162,-0.091091 -0.203162,-0.2042409 V 5.6490861 c 0,-0.1131507 0.09061,-0.2042417 0.203162,-0.2042417 z m -1.218973,5.3102366 h 0.4063242 c 0.1125522,0 0.2031621,0.09109 0.2031621,0.204236 v 0.816962 c 0,0.11315 -0.09061,0.204236 -0.2031621,0.204236 H 5.5609743 c -0.112552,0 -0.203162,-0.09109 -0.203162,-0.204236 v -0.816962 c 0,-0.113145 0.09061,-0.204236 0.203162,-0.204236 z m 1.218973,0 h 0.4063242 c 0.112552,0 0.2031624,0.09109 0.2031624,0.204236 v 0.816962 c 0,0.11315 -0.09061,0.204236 -0.2031624,0.204236 H 6.7799473 c -0.1125518,0 -0.203162,-0.09109 -0.203162,-0.204236 v -0.816962 c 0,-0.113145 0.09061,-0.204236 0.203162,-0.204236 z"
       id="path2-3" />
    <path
       style="fill:#535d6c;stroke-width:0.203702"
       d="m 2.919866,4.8321279 c -0.2251037,0 -0.4063243,0.1821828 -0.4063243,0.4084756 V 10.14236 c 0,0.2263 0.1812206,0.408483 0.4063243,0.408483 h 2.0316217 v 1.225436 c 0,0.226295 0.1812209,0.408477 0.4063246,0.408477 H 7.3894339 7.7957581 8.2020824 V 11.776279 10.550843 4.8321279 H 7.3894339 Z m 0.2031622,0.4084756 h 0.4063244 c 0.1125516,0 0.2031621,0.091091 0.2031621,0.2042409 v 0.8169629 c 0,0.1131445 -0.09061,0.2042355 -0.2031621,0.2042355 H 3.1230282 c -0.1125519,0 -0.2031622,-0.091091 -0.2031622,-0.2042355 V 5.4448444 c 0,-0.1131499 0.09061,-0.2042409 0.2031622,-0.2042409 z m 1.2189731,0 h 0.4063242 c 0.112552,0 0.2031622,0.091091 0.2031622,0.2042409 v 0.8169629 c 0,0.1131445 -0.09061,0.2042355 -0.2031622,0.2042355 H 4.3420013 c -0.112552,0 -0.2031621,-0.091091 -0.2031621,-0.2042355 V 5.4448444 c 0,-0.1131499 0.09061,-0.2042409 0.2031621,-0.2042409 z m 1.218973,0 h 0.4063242 c 0.1125522,0 0.2031621,0.091091 0.2031621,0.2042409 v 0.8169629 c 0,0.1131445 -0.09061,0.2042355 -0.2031621,0.2042355 H 5.5609743 c -0.112552,0 -0.203162,-0.091091 -0.203162,-0.2042355 V 5.4448444 c 0,-0.1131499 0.09061,-0.2042409 0.203162,-0.2042409 z m 1.218973,0 h 0.4063242 c 0.112552,0 0.2031624,0.091091 0.2031624,0.2042409 v 0.8169629 c 0,0.1131445 -0.09061,0.2042355 -0.2031624,0.2042355 H 6.7799473 c -0.1125518,0 -0.203162,-0.091091 -0.203162,-0.2042355 V 5.4448444 c 0,-0.1131499 0.09061,-0.2042409 0.203162,-0.2042409 z m -1.218973,5.3102395 h 0.4063242 c 0.1125522,0 0.2031621,0.09109 0.2031621,0.204238 v 0.816959 c 0,0.113148 -0.09061,0.204239 -0.2031621,0.204239 H 5.5609743 c -0.112552,0 -0.203162,-0.09109 -0.203162,-0.204239 v -0.816959 c 0,-0.113149 0.09061,-0.204238 0.203162,-0.204238 z m 1.218973,0 h 0.4063242 c 0.112552,0 0.2031624,0.09109 0.2031624,0.204238 v 0.816959 c 0,0.113148 -0.09061,0.204239 -0.2031624,0.204239 H 6.7799473 c -0.1125518,0 -0.203162,-0.09109 -0.203162,-0.204239 v -0.816959 c 0,-0.113149 0.09061,-0.204238 0.203162,-0.204238 z"
       id="path3" />
    <path
       style="opacity:0.1;fill:#ffffff;stroke-width:0.203702"
       d="m 2.919866,4.8321279 c -0.2251037,0 -0.4063243,0.1821828 -0.4063243,0.4084756 v 0.2042409 c 0,-0.2262928 0.1812206,-0.4084748 0.4063243,-0.4084748 H 7.3894339 8.2020824 V 4.8321279 H 7.3894339 Z m 0,1.4296794 v 0.2042355 c 0,0.1131499 0.09061,0.2042409 0.2031622,0.2042409 h 0.4063244 c 0.1125516,0 0.2031621,-0.091091 0.2031621,-0.2042409 V 6.2618073 c 0,0.1131445 -0.09061,0.2042355 -0.2031621,0.2042355 H 3.1230282 c -0.1125519,0 -0.2031622,-0.091091 -0.2031622,-0.2042355 z m 1.2189732,0 v 0.2042355 c 0,0.1131499 0.09061,0.2042409 0.2031621,0.2042409 h 0.4063242 c 0.112552,0 0.2031622,-0.091091 0.2031622,-0.2042409 V 6.2618073 c 0,0.1131445 -0.09061,0.2042355 -0.2031622,0.2042355 H 4.3420013 c -0.112552,0 -0.2031621,-0.091091 -0.2031621,-0.2042355 z m 1.2189731,0 v 0.2042355 c 0,0.1131499 0.09061,0.2042409 0.203162,0.2042409 h 0.4063242 c 0.1125522,0 0.2031621,-0.091091 0.2031621,-0.2042409 V 6.2618073 c 0,0.1131445 -0.09061,0.2042355 -0.2031621,0.2042355 H 5.5609743 c -0.112552,0 -0.203162,-0.091091 -0.203162,-0.2042355 z m 1.218973,0 v 0.2042355 c 0,0.1131499 0.09061,0.2042409 0.203162,0.2042409 h 0.4063242 c 0.112552,0 0.2031624,-0.091091 0.2031624,-0.2042409 V 6.2618073 c 0,0.1131445 -0.09061,0.2042355 -0.2031624,0.2042355 H 6.7799473 c -0.1125518,0 -0.203162,-0.091091 -0.203162,-0.2042355 z M 5.3578123,11.57204 v 0.204239 c 0,0.11315 0.09061,0.204236 0.203162,0.204236 h 0.4063242 c 0.1125522,0 0.2031621,-0.09109 0.2031621,-0.204236 V 11.57204 c 0,0.113148 -0.09061,0.204239 -0.2031621,0.204239 H 5.5609743 c -0.112552,0 -0.203162,-0.09109 -0.203162,-0.204239 z m 1.218973,0 v 0.204239 c 0,0.11315 0.09061,0.204236 0.203162,0.204236 h 0.4063242 c 0.112552,0 0.2031624,-0.09109 0.2031624,-0.204236 V 11.57204 c 0,0.113148 -0.09061,0.204239 -0.2031624,0.204239 H 6.7799473 c -0.1125518,0 -0.203162,-0.09109 -0.203162,-0.204239 z"
       id="path4" />
    <rect
       style="fill:#8d5fd3;stroke-width:0.203702"
       width="6.5011907"
       height="8.1695919"
       x="7.3894343"
       y="4.6278882"
       id="rect4" />
    <rect
       style="fill:#373e48;stroke-width:0.203702"
       width="3.2505953"
       height="1.6339182"
       x="9.0147324"
       y="2.3812499"
       rx="0.40632442"
       ry="0.40847954"
       id="rect5-6" />
    <path
       style="opacity:0.1;fill:#ffffff;stroke-width:0.203702"
       d="m 9.4210552,2.3812501 c -0.2251032,0 -0.406324,0.1821828 -0.406324,0.4084826 v 0.2042331 c 0,-0.226292 0.1812208,-0.408474 0.406324,-0.408474 h 2.4379468 c 0.225101,0 0.406323,0.182182 0.406323,0.408474 V 2.7897327 c 0,-0.2262998 -0.181222,-0.4084826 -0.406323,-0.4084826 z"
       id="path5" />
    <path
       style="fill:#373e48;stroke-width:0.203702"
       d="m 7.7957581,3.6066894 c -0.2251036,0 -0.4063242,0.1821828 -0.4063242,0.408481 V 4.8321279 H 13.890624 V 4.0151704 c 0,-0.2262982 -0.181221,-0.408481 -0.406326,-0.408481 z"
       id="path8" />
    <path
       style="opacity:0.1;fill:#ffffff;stroke-width:0.203702"
       d="m 7.7957581,3.6066894 c -0.2251036,0 -0.4063242,0.1821828 -0.4063242,0.408481 v 0.2042347 c 0,-0.2262928 0.1812206,-0.408474 0.4063242,-0.408474 h 5.6885399 c 0.225105,0 0.406326,0.1821812 0.406326,0.408474 V 4.0151704 c 0,-0.2262982 -0.181221,-0.408481 -0.406326,-0.408481 z"
       id="path9" />
    <path
       style="fill:#373e48;stroke-width:0.203702"
       d="m 7.3894339,12.593238 v 0.816957 c 0,0.226299 0.1812206,0.408482 0.4063242,0.408482 h 5.6885399 c 0.225105,0 0.406326,-0.182183 0.406326,-0.408482 v -0.816957 z"
       id="path10" />
    <rect
       style="opacity:0.2;stroke-width:0.202845"
       width="6.4738321"
       height="0.20338029"
       x="7.4953814"
       y="12.566146"
       id="rect10" />
    <g
       id="g1"
       transform="translate(0.29434865,0.06276567)">
      <path
         style="opacity:0.2;stroke-width:0.17639"
         d="m 9.1865542,6.3313319 c -0.097719,0 -0.176389,0.078668 -0.176389,0.1763876 V 7.3896639 H 8.4809993 c -0.09772,0 -0.1763897,0.078668 -0.1763897,0.1763887 0,0.097718 0.078669,0.1763899 0.1763897,0.1763899 h 0.5291659 v 1.9402747 c 0,0.097717 0.078669,0.1763875 0.176389,0.1763875 h 2.2930528 v 0.8819523 c 0,0.09773 0.07862,0.176386 0.176388,0.176386 0.09773,0 0.176393,-0.07862 0.176393,-0.176386 V 9.8591047 h 0.529163 c 0.09774,0 0.176392,-0.078654 0.176392,-0.1763875 0,-0.097718 -0.07862,-0.1763869 -0.176392,-0.1763869 H 11.832388 V 7.5660526 c 0,-0.097718 -0.07862,-0.1763887 -0.176393,-0.1763887 H 9.3629439 V 6.5077195 c 0,-0.097719 -0.078669,-0.1763876 -0.1763897,-0.1763876 z M 9.3629439,7.7424425 H 11.479607 V 9.5063303 H 9.3629439 Z"
         id="path6" />
      <path
         style="fill:#5a2ca0;stroke-width:0.17639"
         d="m 9.1865542,6.1549426 c -0.097719,0 -0.176389,0.078669 -0.176389,0.1763893 V 7.2132761 H 8.4809993 c -0.09772,0 -0.1763897,0.078668 -0.1763897,0.1763878 0,0.097719 0.078669,0.1763887 0.1763897,0.1763887 h 0.5291659 v 1.9402777 c 0,0.097718 0.078669,0.1763869 0.176389,0.1763869 h 2.2930528 v 0.8819508 c 0,0.09773 0.07862,0.176389 0.176388,0.176389 0.09773,0 0.176393,-0.07863 0.176393,-0.176389 V 9.6827172 h 0.529163 c 0.09774,0 0.176392,-0.078669 0.176392,-0.1763869 0,-0.097719 -0.07862,-0.1763891 -0.176392,-0.1763891 H 11.832388 V 7.3896639 c 0,-0.097719 -0.07862,-0.1763878 -0.176393,-0.1763878 H 9.3629439 V 6.3313319 c 0,-0.09772 -0.078669,-0.1763893 -0.1763897,-0.1763893 z m 0.1763897,1.41111 H 11.479607 V 9.3299412 H 9.3629439 Z"
         id="path7" />
    </g>
  </g>
</svg>
