<?xml version="1.0" encoding="UTF-8" standalone="no"?>
<svg
   clip-rule="evenodd"
   fill-rule="evenodd"
   stroke-linejoin="round"
   stroke-miterlimit="2"
   viewBox="0 0 62 62"
   version="1.1"
   id="svg10"
   sodipodi:docname="com.github.joseexposito.touche.svg"
   width="62"
   height="62"
   inkscape:version="1.4.2 (unknown)"
   xmlns:inkscape="http://www.inkscape.org/namespaces/inkscape"
   xmlns:sodipodi="http://sodipodi.sourceforge.net/DTD/sodipodi-0.dtd"
   xmlns:xlink="http://www.w3.org/1999/xlink"
   xmlns="http://www.w3.org/2000/svg"
   xmlns:svg="http://www.w3.org/2000/svg">
  <defs
     id="defs10">
    <linearGradient
       id="linearGradient10"
       inkscape:collect="always">
      <stop
         style="stop-color:#a8afbd;stop-opacity:1;"
         offset="0"
         id="stop10" />
      <stop
         style="stop-color:#c7cad1;stop-opacity:1;"
         offset="1"
         id="stop11" />
    </linearGradient>
    <linearGradient
       inkscape:collect="always"
       xlink:href="#linearGradient10"
       id="linearGradient11"
       x1="31"
       y1="59"
       x2="31"
       y2="3"
       gradientUnits="userSpaceOnUse" />
  </defs>
  <sodipodi:namedview
     id="namedview10"
     pagecolor="#ffffff"
     bordercolor="#000000"
     borderopacity="0.25"
     inkscape:showpageshadow="2"
     inkscape:pageopacity="0.0"
     inkscape:pagecheckerboard="0"
     inkscape:deskcolor="#d1d1d1"
     inkscape:zoom="7.8541667"
     inkscape:cx="33.803713"
     inkscape:cy="42.461538"
     inkscape:window-width="1920"
     inkscape:window-height="994"
     inkscape:window-x="0"
     inkscape:window-y="0"
     inkscape:window-maximized="1"
     inkscape:current-layer="svg10" />
  <linearGradient
     id="a"
     x2="1"
     gradientTransform="matrix(0,-46.799983,46.799983,0,632.48571,54.413883)"
     gradientUnits="userSpaceOnUse">
    <stop
       stop-color="#566069"
       offset="0"
       id="stop1" />
    <stop
       stop-color="#6c7884"
       offset="1"
       id="stop2" />
  </linearGradient>
  <g
     id="g1"
     transform="rotate(180,31,31)">
    <path
       d="M 50.952003,3 C 55.394683,3 59,6.6053166 59,11.047997 V 50.952003 C 59,55.394683 55.394683,59 50.952003,59 H 11.047997 C 6.6053166,59 3,55.394683 3,50.952003 V 11.047997 C 3,6.6053166 6.6053166,3 11.047997,3 Z"
       id="path2"
       style="fill:url(#linearGradient11);fill-opacity:1" />
    <path
       d="M 3,12.376408 V 11.047997 C 3,6.6053166 6.6053166,3 11.047997,3 H 50.952003 C 55.394683,3 59,6.6053166 59,11.047997 v 1.328411 z"
       fill-opacity="0.1"
       id="path3"
       style="fill:#373e48;fill-opacity:1;stroke-width:1.29223" />
    <path
       d="m 37.32,7.8690441 c 0,1.381249 -1.11925,2.5000009 -2.500001,2.5000009 -1.380749,0 -2.499999,-1.1187519 -2.499999,-2.5000009 0,-1.381249 1.11925,-2.499999 2.499999,-2.499999 1.380751,0 2.500001,1.11875 2.500001,2.499999 z"
       id="path443"
       style="fill:#aa87de;fill-opacity:1;stroke-width:1.24999" />
    <path
       d="m 45.42042,7.8690441 c 0,1.381249 -1.119247,2.5000009 -2.499997,2.5000009 -1.380753,0 -2.500003,-1.1187519 -2.500003,-2.5000009 0,-1.381249 1.119253,-2.499999 2.500003,-2.499999 1.38075,0 2.499997,1.11875 2.499997,2.499999 z"
       id="path444"
       style="fill:#aa87de;fill-opacity:1;stroke-width:1.24999" />
    <path
       d="m 52.920419,7.8690441 c 0,1.381249 -1.11925,2.5000009 -2.499999,2.5000009 -1.380751,0 -2.5,-1.1187519 -2.5,-2.5000009 0,-1.381249 1.119249,-2.499999 2.5,-2.499999 1.380749,0 2.499999,1.11875 2.499999,2.499999 z"
       id="path445"
       style="fill:#aa87de;fill-opacity:1;stroke-width:1.24999" />
  </g>
  <g
     id="g2"
     transform="matrix(1.0217413,0,0,1,32.326073,-47.999978)">
    <circle
       style="opacity:0.2;stroke-width:2.10418"
       cx="18.521252"
       cy="99.478722"
       r="10.521255"
       id="circle2" />
    <circle
       style="fill:#e4e4e4;stroke-width:2.10418"
       cx="18.521252"
       cy="98.521233"
       r="10.521255"
       id="circle3" />
    <path
       style="fill:#373e48;stroke-width:2.10418;fill-opacity:1"
       d="m 16.943068,92.113828 -0.139769,1.662451 a 4.9600359,4.9600359 0 0 0 -1.448725,0.838409 l -1.51243,-0.711007 -1.57818,2.733061 1.37269,0.953487 a 4.9600359,4.9600359 0 0 0 -0.07605,0.836361 4.9600359,4.9600359 0 0 0 0.07198,0.840466 l -1.368589,0.949374 1.578182,2.73306 1.508321,-0.70894 a 4.9600359,4.9600359 0 0 0 1.452841,0.83225 l 0.139743,1.66655 h 3.156383 l 0.13769,-1.66245 a 4.9600359,4.9600359 0 0 0 1.450794,-0.83842 l 1.510385,0.71101 1.578194,-2.73306 -1.370648,-0.953486 a 4.9600359,4.9600359 0 0 0 0.07604,-0.836354 4.9600359,4.9600359 0 0 0 -0.07198,-0.840475 l 1.368587,-0.949373 -1.578191,-2.733061 -1.508321,0.708944 a 4.9600359,4.9600359 0 0 0 -1.452807,-0.832244 l -0.139784,-1.666553 z m 1.526817,4.208512 a 2.104006,2.1046197 0 0 1 0.05132,0 2.104006,2.1046197 0 0 1 2.104252,2.10425 2.104006,2.1046197 0 0 1 -2.104252,2.10424 2.104006,2.1046197 0 0 1 -2.104254,-2.10424 2.104006,2.1046197 0 0 1 2.052875,-2.10425 z"
       id="path3-4" />
  </g>
</svg>
