<?xml version="1.0" encoding="UTF-8" standalone="no"?>
<svg
   width="62"
   height="62"
   version="1"
   id="svg5"
   sodipodi:docname="com.pajuelo.plasmaConfSaver.svg"
   inkscape:version="1.4.2 (unknown)"
   xmlns:inkscape="http://www.inkscape.org/namespaces/inkscape"
   xmlns:sodipodi="http://sodipodi.sourceforge.net/DTD/sodipodi-0.dtd"
   xmlns="http://www.w3.org/2000/svg"
   xmlns:svg="http://www.w3.org/2000/svg">
  <defs
     id="defs5" />
  <sodipodi:namedview
     id="namedview5"
     pagecolor="#ffffff"
     bordercolor="#000000"
     borderopacity="0.25"
     inkscape:showpageshadow="2"
     inkscape:pageopacity="0.0"
     inkscape:pagecheckerboard="0"
     inkscape:deskcolor="#d1d1d1"
     inkscape:zoom="7.9479167"
     inkscape:cx="50.579292"
     inkscape:cy="25.478375"
     inkscape:current-layer="svg5" />
  <g
     id="g5"
     transform="translate(0.3595121,-1.0000011)">
    <path
       style="opacity:0.2;stroke-width:1"
       d="m 29.278797,5.3658539 c -3.017511,0 -5.446769,2.436683 -5.446769,5.4634151 v 2.560975 a 20.425379,20.487805 0 0 0 -6.441441,3.732089 L 15.177836,15.841845 C 12.564598,14.328479 9.2451586,15.22138 7.736404,17.842608 l -1.361692,2.363566 c -1.5087547,2.621228 -0.6185736,5.950811 1.9946659,7.464177 l 2.2021111,1.275153 a 20.425379,20.487805 0 0 0 -0.35638,3.737424 20.425379,20.487805 0 0 0 0.35638,3.737424 L 8.3693779,37.695504 C 5.7561384,39.20887 4.8659573,42.538454 6.374712,45.159682 l 1.361692,2.363566 c 1.5087546,2.621228 4.828194,3.514128 7.441432,2.000763 l 2.196793,-1.272484 a 20.425379,20.487805 0 0 0 6.457399,3.718749 v 2.566311 c 0,3.026732 2.429258,5.463415 5.446769,5.463415 h 2.723383 c 3.017509,0 5.446767,-2.436683 5.446767,-5.463415 v -2.576982 a 20.425379,20.487805 0 0 0 6.441442,-3.716082 l 2.21275,1.280488 c 2.613239,1.513365 5.932677,0.620465 7.441432,-2.000763 l 1.361693,-2.363566 c 1.508754,-2.621228 0.618574,-5.950812 -1.994665,-7.464178 l -2.202113,-1.275152 a 20.425379,20.487805 0 0 0 0.356381,-3.737424 20.425379,20.487805 0 0 0 -0.356381,-3.737424 l 2.202113,-1.275153 c 2.613239,-1.513366 3.503419,-4.842949 1.994665,-7.464177 L 53.544571,17.842608 C 52.035818,15.22138 48.716378,14.328479 46.103139,15.841845 l -2.196793,1.272484 a 20.425379,20.487805 0 0 0 -6.457399,-3.721417 v -2.563643 c 0,-3.0267321 -2.429258,-5.4634151 -5.446767,-5.4634151 z"
       id="path1" />
    <path
       style="fill:#8d5fd3;stroke-width:1"
       d="m 29.278797,4.0000002 c -3.017511,0 -5.446769,2.436683 -5.446769,5.4634148 v 2.560976 a 20.425379,20.487805 0 0 0 -6.441441,3.732088 L 15.177836,14.475992 C 12.564598,12.962626 9.2451586,13.855527 7.736404,16.476754 L 6.374712,18.84032 c -1.5087547,2.621228 -0.6185736,5.950812 1.9946659,7.464178 l 2.2021111,1.275152 a 20.425379,20.487805 0 0 0 -0.35638,3.737424 20.425379,20.487805 0 0 0 0.35638,3.737424 l -2.2021111,1.275153 c -2.6132395,1.513366 -3.5034206,4.84295 -1.9946659,7.464177 l 1.361692,2.363566 c 1.5087546,2.621228 4.828194,3.514129 7.441432,2.000763 l 2.196793,-1.272484 a 20.425379,20.487805 0 0 0 6.457399,3.71875 v 2.56631 c 0,3.026732 2.429258,5.463415 5.446769,5.463415 h 2.723383 c 3.017509,0 5.446767,-2.436683 5.446767,-5.463415 v -2.576982 a 20.425379,20.487805 0 0 0 6.441442,-3.716082 l 2.21275,1.280488 c 2.613239,1.513366 5.932677,0.620465 7.441432,-2.000763 l 1.361693,-2.363566 c 1.508754,-2.621227 0.618574,-5.950811 -1.994665,-7.464177 l -2.202113,-1.275153 a 20.425379,20.487805 0 0 0 0.356381,-3.737424 20.425379,20.487805 0 0 0 -0.356381,-3.737424 l 2.202113,-1.275152 c 2.613239,-1.513366 3.503419,-4.84295 1.994665,-7.464178 l -1.361693,-2.363566 c -1.508753,-2.621227 -4.828193,-3.514128 -7.441432,-2.000762 l -2.196793,1.272483 A 20.425379,20.487805 0 0 0 37.448947,12.027058 V 9.463415 c 0,-3.0267318 -2.429258,-5.4634148 -5.446767,-5.4634148 z"
       id="path2" />
    <ellipse
       style="opacity:0.3;stroke-width:1;fill:#170b28"
       cx="30.640488"
       cy="31.317074"
       id="circle2"
       rx="13.61692"
       ry="13.658537" />
    <path
       style="opacity:0.1;fill:#ffffff;stroke-width:1"
       d="m 29.278797,4.0000002 c -3.017511,0 -5.446769,2.436683 -5.446769,5.4634148 v 1.365854 c 0,-3.0267321 2.429258,-5.4634151 5.446769,-5.4634151 h 2.723383 c 3.017509,0 5.446767,2.436683 5.446767,5.4634151 V 9.463415 c 0,-3.0267318 -2.429258,-5.4634148 -5.446767,-5.4634148 z m -5.446769,8.0243908 a 20.425379,20.487805 0 0 0 -6.441441,3.732088 L 15.177836,14.475992 C 12.564598,12.962626 9.2451586,13.855527 7.736404,16.476754 L 6.374712,18.84032 c -0.6116083,1.062576 -0.8099762,2.239409 -0.6781865,3.366617 0.093015,-0.684393 0.3115572,-1.363801 0.6781865,-2.000763 l 1.361692,-2.363566 c 1.5087546,-2.621228 4.828194,-3.514129 7.441432,-2.000763 l 2.212751,1.280488 a 20.425379,20.487805 0 0 1 6.441441,-3.732089 z m 13.616919,0.0027 v 1.365854 a 20.425379,20.487805 0 0 1 6.457399,3.721417 l 2.196793,-1.272484 c 2.613239,-1.513366 5.932679,-0.620465 7.441432,2.000763 l 1.361693,2.363566 c 0.36663,0.636962 0.585171,1.31637 0.678186,2.000762 0.131785,-1.127207 -0.06658,-2.30404 -0.678186,-3.366616 L 53.544571,16.47675 c -1.508755,-2.621228 -4.828193,-3.514128 -7.441432,-2.000763 l -2.196793,1.272484 a 20.425379,20.487805 0 0 0 -6.457399,-3.721413 z m 13.44405,16.811739 -0.183511,0.106714 a 20.425379,20.487805 0 0 1 0.321807,3.110516 20.425379,20.487805 0 0 0 0.03457,-0.738949 20.425379,20.487805 0 0 0 -0.17287,-2.478277 z m -40.497038,0.0053 a 20.425379,20.487805 0 0 0 -0.180849,2.472954 20.425379,20.487805 0 0 0 0.03457,0.626905 20.425379,20.487805 0 0 1 0.321806,-2.998475 z m 40.489061,6.311738 a 20.425379,20.487805 0 0 1 -0.175532,1.264481 l 2.202112,1.275153 c 1.553903,0.899889 2.479535,2.444101 2.672852,4.097561 0.289761,-2.132022 -0.694634,-4.317799 -2.672852,-5.463415 z m -40.497038,0.0053 -2.0186028,1.168445 C 6.3911603,37.475229 5.406766,39.661006 5.6965268,41.793028 5.8898446,40.139568 6.8154761,38.595356 8.3693792,37.695467 L 10.57149,36.420335 a 20.425379,20.487805 0 0 1 -0.183508,-1.259147 z"
       id="path3" />
    <path
       style="opacity:0.2;stroke-width:1"
       d="m 22.470337,23.121952 c -0.754378,0 -1.361692,0.609171 -1.361692,1.365854 v 15.02439 l 2.723383,2.731708 H 38.81064 c 0.754377,0 1.361693,-0.609171 1.361693,-1.365854 V 24.487806 c 0,-0.756683 -0.607316,-1.365854 -1.361693,-1.365854 z m 1.361691,2.731707 h 13.616919 v 13.658537 h -1.36169 V 32.682928 H 25.193721 v 6.829268 h -1.361693 z m 6.80846,8.195123 h 2.723383 v 5.463414 h -2.723383 z"
       id="path4" />
    <path
       style="fill:#ffffff;stroke-width:1"
       d="m 22.470337,21.756098 c -0.754378,0 -1.361692,0.609171 -1.361692,1.365854 v 15.024391 l 2.723383,2.731707 H 38.81064 c 0.754377,0 1.361693,-0.609171 1.361693,-1.365854 V 23.121952 c 0,-0.756683 -0.607316,-1.365854 -1.361693,-1.365854 z m 1.361691,2.731708 h 13.616919 v 13.658537 h -1.36169 V 31.317074 H 25.193721 v 6.829269 h -1.361693 z m 6.80846,8.195122 h 2.723383 v 5.463415 h -2.723383 z"
       id="path5" />
  </g>
</svg>
