<?xml version="1.0" encoding="UTF-8" standalone="no"?>
<svg
   width="62"
   height="62"
   version="1.1"
   id="svg14"
   sodipodi:docname="com.github.linuxhubit.catfacts.svg"
   inkscape:version="1.4.2 (unknown)"
   xmlns:inkscape="http://www.inkscape.org/namespaces/inkscape"
   xmlns:sodipodi="http://sodipodi.sourceforge.net/DTD/sodipodi-0.dtd"
   xmlns:xlink="http://www.w3.org/1999/xlink"
   xmlns="http://www.w3.org/2000/svg"
   xmlns:svg="http://www.w3.org/2000/svg">
  <defs
     id="defs18">
    <linearGradient
       id="linearGradient1"
       inkscape:collect="always">
      <stop
         style="stop-color:#f0f3f4;stop-opacity:1;"
         offset="0"
         id="stop1" />
      <stop
         style="stop-color:#90acb5;stop-opacity:1;"
         offset="1"
         id="stop2" />
    </linearGradient>
    <linearGradient
       id="c"
       x1="45.377998"
       x2="978.35999"
       y1="46.179001"
       y2="979.15997"
       gradientTransform="matrix(0.063557,0,0,0.063557,-0.5456548,-0.5457152)"
       gradientUnits="userSpaceOnUse">
      <stop
         stop-color="#eaeff2"
         offset="0"
         id="stop303" />
      <stop
         stop-color="#fcfcfd"
         offset=".5"
         id="stop305" />
      <stop
         stop-color="#cfdade"
         offset="1"
         id="stop307" />
    </linearGradient>
    <linearGradient
       id="e"
       x1="56.407001"
       x2="7.4576001"
       y1="7.4067998"
       y2="57"
       gradientUnits="userSpaceOnUse"
       gradientTransform="translate(-1.048e-4,-1.552e-4)">
      <stop
         stop-color="#90acb5"
         offset="0"
         id="stop310"
         style="stop-color:#91adb6;stop-opacity:1;" />
      <stop
         stop-color="#fcfcfd"
         offset="1"
         id="stop312" />
    </linearGradient>
    <radialGradient
       id="radialGradient3771-9"
       cx="24.249001"
       cy="24.25"
       r="9.6331997"
       gradientTransform="matrix(1.527373,0,0,1.527373,8.7250102,8.6390889)"
       gradientUnits="userSpaceOnUse">
      <stop
         offset="0"
         id="stop627" />
      <stop
         stop-opacity=".87843"
         offset=".59155"
         id="stop629" />
      <stop
         stop-opacity=".56471"
         offset=".64784"
         id="stop631" />
      <stop
         stop-opacity=".52549"
         offset=".6818"
         id="stop633" />
      <stop
         stop-opacity=".44314"
         offset=".7275"
         id="stop635" />
      <stop
         stop-opacity=".28627"
         offset=".79465"
         id="stop637" />
      <stop
         stop-opacity=".18431"
         offset=".84312"
         id="stop639" />
      <stop
         stop-opacity=".078431"
         offset=".90335"
         id="stop641" />
      <stop
         stop-opacity=".062745"
         offset=".91996"
         id="stop643" />
      <stop
         stop-opacity=".054902"
         offset=".93104"
         id="stop645" />
      <stop
         stop-opacity=".031373"
         offset=".95596"
         id="stop647" />
      <stop
         stop-opacity=".027451"
         offset=".96081"
         id="stop649" />
      <stop
         stop-opacity="0"
         offset=".99197"
         id="stop651" />
      <stop
         stop-opacity="0"
         offset="1"
         id="stop653" />
    </radialGradient>
    <radialGradient
       id="radialGradient3815-1"
       cx="24.249001"
       cy="24.25"
       r="9.6331997"
       gradientTransform="matrix(1.6994579,0,0,1.6994579,3.4188758,3.4172574)"
       gradientUnits="userSpaceOnUse">
      <stop
         offset="0"
         id="stop598" />
      <stop
         stop-opacity=".78764"
         offset=".71616"
         id="stop600" />
      <stop
         stop-opacity=".67451"
         offset=".74621"
         id="stop602" />
      <stop
         stop-opacity=".61961"
         offset=".76305"
         id="stop604" />
      <stop
         stop-opacity=".5451"
         offset=".78595"
         id="stop606" />
      <stop
         stop-opacity=".48627"
         offset=".80683"
         id="stop608" />
      <stop
         stop-opacity=".29804"
         offset=".86207"
         id="stop610" />
      <stop
         stop-opacity=".18824"
         offset=".89036"
         id="stop612" />
      <stop
         stop-opacity=".082353"
         offset=".92404"
         id="stop614" />
      <stop
         stop-opacity=".043137"
         offset=".9429"
         id="stop616" />
      <stop
         stop-opacity=".031373"
         offset=".95596"
         id="stop618" />
      <stop
         stop-opacity=".027451"
         offset=".96081"
         id="stop620" />
      <stop
         stop-opacity="0"
         offset=".99197"
         id="stop622" />
      <stop
         stop-opacity="0"
         offset="1"
         id="stop624" />
    </radialGradient>
    <linearGradient
       id="linearGradient2050"
       x1="55.195"
       x2="55.195"
       y1="11.817"
       y2="26.316"
       gradientTransform="matrix(1.8121302,0,0,1.8121302,-55.591521,12.350227)"
       gradientUnits="userSpaceOnUse">
      <stop
         stop-color="#61d33b"
         offset="0"
         id="stop593" />
      <stop
         stop-color="#3dc141"
         offset="1"
         id="stop595" />
    </linearGradient>
    <linearGradient
       id="linearGradient1984"
       x1="39.793999"
       x2="39.793999"
       y1="21.372"
       y2="34.602001"
       gradientTransform="matrix(1.8121302,0,0,1.8121302,-24.454782,-4.2380684)"
       gradientUnits="userSpaceOnUse">
      <stop
         stop-color="#14ab4b"
         offset="0"
         id="stop588" />
      <stop
         stop-color="#65d53b"
         offset="1"
         id="stop590" />
    </linearGradient>
    <linearGradient
       inkscape:collect="always"
       xlink:href="#linearGradient1"
       id="linearGradient2"
       x1="7.2664289"
       y1="1.9998698"
       x2="61.999756"
       y2="62.00013"
       gradientUnits="userSpaceOnUse"
       gradientTransform="matrix(0.93334094,0,0,0.93332922,1.1330896,1.1334631)" />
    <linearGradient
       inkscape:collect="always"
       xlink:href="#linearGradient1"
       id="linearGradient4"
       x1="54.708782"
       y1="51.977009"
       x2="18.892538"
       y2="13.100183"
       gradientUnits="userSpaceOnUse"
       gradientTransform="matrix(0.93334094,0,0,0.93332922,1.1330896,1.1334631)" />
  </defs>
  <sodipodi:namedview
     id="namedview16"
     pagecolor="#ffffff"
     bordercolor="#999999"
     borderopacity="1"
     inkscape:showpageshadow="0"
     inkscape:pageopacity="0"
     inkscape:pagecheckerboard="0"
     inkscape:deskcolor="#d1d1d1"
     showgrid="false"
     inkscape:zoom="8.9493202"
     inkscape:cx="37.377141"
     inkscape:cy="31.454903"
     inkscape:window-width="1920"
     inkscape:window-height="994"
     inkscape:window-x="0"
     inkscape:window-y="0"
     inkscape:window-maximized="1"
     inkscape:current-layer="svg14" />
  <path
     d="M 58.151721,23.881352 C 58.08646,23.623305 58.012318,23.347449 57.935195,23.074573 57.875875,22.87288 57.816548,22.66822 57.748332,22.451668 57.653411,22.146162 57.546636,21.828774 57.433916,21.511433 57.051285,20.428864 56.594524,19.372895 56.060598,18.328874 55.835169,17.889891 55.588981,17.442005 55.330931,17.000092 54.126641,14.953488 52.613976,13.013657 50.801613,11.201411 46.494807,6.8946568 41.479311,4.2812417 35.754293,3.3677924 34.790338,3.2135597 33.808464,3.1067775 32.785149,3.0504231 32.209715,3.0177959 31.607552,3 30.999573,3 30.444907,3 29.896178,3.0148306 29.344481,3.0444918 22.323424,3.4063528 16.275842,6.1262516 11.201267,11.201229 Q 3,19.402394 3,30.999942 c 0,7.732913 2.7347822,14.335004 8.201267,19.801512 3.363572,3.360546 7.151443,5.688923 11.336359,6.973556 2.180097,0.667358 4.437381,1.058863 6.807041,1.183462 h 0.02373 C 29.872633,58.985168 30.353163,59 30.821793,59 h 0.17797 c 0.611049,0 1.216143,-0.0178 1.785576,-0.04747 0.148307,-0.0089 0.281785,-0.0178 0.412293,-0.0267 1.198316,-0.08601 2.366953,-0.240258 3.482201,-0.45678 0.471617,-0.09194 0.937355,-0.195757 1.388158,-0.305508 4.793266,-1.204274 9.025874,-3.654263 12.73357,-7.36182 2.883091,-2.883055 5.006814,-6.080173 6.368371,-9.598358 1.094435,-2.826681 1.699616,-5.861027 1.812269,-9.105746 C 58.99406,31.738724 59,31.370919 59,31.000116 v -0.177968 c -0.01186,-2.411442 -0.293648,-4.716112 -0.848284,-6.940889 z"
     stroke-width="0.930386"
     id="path317"
     style="fill:url(#linearGradient2)" />
  <path
     d="M 30.9999,7.6666228 A 23.333523,23.333231 0 0 0 7.6663778,30.999852 23.333523,23.333231 0 0 0 30.9999,54.333083 23.333523,23.333231 0 0 0 54.333423,30.999852 23.333523,23.333231 0 0 0 30.9999,7.6666228 Z m 0,1.8666584 A 21.46684,21.466572 0 0 1 52.466742,30.999852 21.46684,21.466572 0 0 1 30.9999,52.466425 21.46684,21.466572 0 0 1 9.5330597,30.999852 21.46684,21.466572 0 0 1 30.9999,9.5332812 Z"
     fill-rule="evenodd"
     id="path319"
     style="fill:url(#linearGradient4);stroke-width:0.933335" />
  <g
     id="g1"
     transform="matrix(0.99771132,0,0,0.99769884,-3.3103814,-2.9861931)"
     style="fill:#6f6df3;fill-opacity:1">
    <path
       style="opacity:0.2;fill:#6f6df3;fill-opacity:1;stroke-width:1.19318"
       d="m 38.574878,18.172405 c -2.348086,0 -4.249976,2.888399 -4.249976,6.448285 0,3.561541 1.90189,6.448265 4.249976,6.448265 2.346395,0 4.249973,-2.886724 4.249973,-6.448265 0,-3.559886 -1.903578,-6.448285 -4.249973,-6.448285 z m -9.714215,2.344835 c -2.348083,0 -4.249973,2.888382 -4.249973,6.448265 0,3.561548 1.90189,6.448285 4.249973,6.448285 2.346388,0 4.249973,-2.886737 4.249973,-6.448285 0,-3.559883 -1.903585,-6.448265 -4.249973,-6.448265 z m 19.556507,8.206897 c -1.719225,0.02666 -3.680265,1.339408 -4.793069,3.356943 -1.371487,2.483123 -0.935883,5.091701 0.970002,5.827719 1.905853,0.73603 4.561845,-0.680751 5.931453,-3.162296 1.369606,-2.483135 0.935867,-5.091701 -0.970003,-5.827735 C 49.19785,28.78076 48.813919,28.717995 48.41717,28.724137 Z m -28.184532,1.172409 c -0.396639,-0.006 -0.780989,0.05695 -1.138371,0.194635 -1.906053,0.736142 -2.339735,3.344276 -0.970006,5.827728 1.369747,2.4819 4.02542,3.896871 5.931472,3.162315 1.90605,-0.736126 2.339725,-3.343542 0.970003,-5.825441 -1.112933,-2.01781 -3.074226,-3.331758 -4.793098,-3.359237 z m 13.698571,4.689653 c 0,0 -2.562658,-0.0061 -4.321114,1.51361 -2.433578,2.102755 -5.238946,6.576516 -5.238946,6.576516 -1.485674,2.245652 -2.189012,3.436579 -2.189012,4.678196 0,2.45724 1.902161,3.645475 4.463423,3.645475 1.125862,0 1.827281,0.0095 3.668925,-0.906788 0,0 1.194244,-1.060667 4.012792,-0.954867 2.79146,-0.107709 3.981984,0.941135 3.981984,0.941135 1.841632,0.918885 2.570013,0.92052 3.699747,0.92052 2.559329,0 4.458672,-1.191948 4.458672,-3.645475 0,-1.243467 -0.700945,-2.434396 -2.186634,-4.678196 0,0 -2.880376,-4.39767 -5.236582,-6.576516 -1.648178,-1.519827 -4.323494,-1.51361 -4.323494,-1.51361 z"
       id="path2-3" />
    <path
       style="fill:#6f6df3;fill-opacity:1;stroke-width:1.19318"
       d="m 49.555655,27.746352 c -1.907719,-0.736033 -4.56099,0.679768 -5.930591,3.162899 -1.371487,2.483116 -0.936137,5.091252 0.969748,5.827286 1.905853,0.736018 4.560992,-0.681334 5.930601,-3.162899 1.369611,-2.483115 0.936113,-5.091252 -0.969758,-5.827286 z"
       id="path3-6" />
    <path
       style="fill:#6f6df3;fill-opacity:1;stroke-width:1.19318"
       d="m 38.574878,29.89655 c 2.346395,0 4.249973,-2.887561 4.249973,-6.449102 C 42.824851,19.887562 40.921273,17 38.574878,17 c -2.348086,0 -4.249976,2.887562 -4.249976,6.447448 0,3.561541 1.90189,6.449102 4.249976,6.449102 z"
       id="path4" />
    <path
       style="fill:#6f6df3;fill-opacity:1;stroke-width:1.19318"
       d="m 24.055659,37.909479 c 1.906062,-0.736126 2.339593,-3.344616 0.969848,-5.826496 -1.369752,-2.48347 -4.02513,-3.89945 -5.931179,-3.164894 -1.906054,0.736126 -2.339582,3.344613 -0.969832,5.828085 1.369747,2.481879 4.025108,3.897877 5.931163,3.163305 z"
       id="path5" />
    <path
       style="fill:#6f6df3;fill-opacity:1;stroke-width:1.19318"
       d="m 28.860663,32.241388 c 2.346388,0 4.249973,-2.887561 4.249973,-6.449105 0,-3.559903 -1.903585,-6.447448 -4.249973,-6.447448 -2.348083,0 -4.249973,2.887545 -4.249973,6.447448 0,3.561544 1.90189,6.449105 4.249973,6.449105 z"
       id="path6" />
    <path
       style="fill:#6f6df3;fill-opacity:1;stroke-width:1.19318"
       d="m 44.281719,41.503768 c 1.485689,2.243806 2.185961,3.435316 2.185961,4.67878 0,2.453528 -1.899665,3.64504 -4.458973,3.64504 -1.129753,0 -1.857118,-0.0014 -3.698752,-0.920547 0,0 -1.191647,-1.048597 -3.983107,-0.940946 -2.818549,-0.105762 -4.012133,0.953937 -4.012133,0.953937 -1.841629,0.916831 -2.543844,0.907556 -3.669722,0.907556 -2.561253,0 -4.462856,-1.1878 -4.462856,-3.64504 0,-1.241617 0.702217,-2.433112 2.187901,-4.67878 0,0 2.806947,-4.472771 5.24053,-6.575541 1.758441,-1.520004 4.319708,-1.51443 4.319708,-1.51443 h 0.791216 v 0 c 0,0 2.675378,-0.0052 4.323573,1.51443 2.356207,2.17885 5.236654,6.575541 5.236654,6.575541 z"
       id="path7" />
  </g>
</svg>
