<?xml version="1.0" encoding="UTF-8" standalone="no"?>
<svg
   width="62"
   height="62"
   version="1.1"
   id="svg19"
   sodipodi:docname="com.github.HypatiaProject.hypatia.svg"
   inkscape:version="1.4.2 (unknown)"
   xmlns:inkscape="http://www.inkscape.org/namespaces/inkscape"
   xmlns:sodipodi="http://sodipodi.sourceforge.net/DTD/sodipodi-0.dtd"
   xmlns="http://www.w3.org/2000/svg"
   xmlns:svg="http://www.w3.org/2000/svg">
  <defs
     id="defs19" />
  <sodipodi:namedview
     id="namedview19"
     pagecolor="#ffffff"
     bordercolor="#000000"
     borderopacity="0.25"
     inkscape:showpageshadow="2"
     inkscape:pageopacity="0.0"
     inkscape:pagecheckerboard="0"
     inkscape:deskcolor="#d1d1d1"
     showgrid="false"
     inkscape:zoom="8.4300387"
     inkscape:cx="26.334399"
     inkscape:cy="38.018805"
     inkscape:current-layer="svg19">
    <inkscape:grid
       id="grid19"
       units="px"
       originx="0"
       originy="0"
       spacingx="1"
       spacingy="1"
       empcolor="#0099e5"
       empopacity="0.30196078"
       color="#0099e5"
       opacity="0.14901961"
       empspacing="5"
       enabled="true"
       visible="false" />
  </sodipodi:namedview>
  <g
     id="g19"
     transform="translate(-1,-0.5)">
    <path
       style="opacity:0.2"
       d="m 8,14 h 48 c 2.208986,0 4,1.808593 4,4.039258 V 48.960742 C 60,51.191408 58.208986,53 56,53 H 8 C 5.7910155,53 4,51.191408 4,48.960742 V 18.039258 C 4,15.808593 5.7910155,14 8,14 Z"
       id="path1" />
    <path
       fill="#b5835a"
       d="m 8,13 h 48 c 2.208986,0 4,1.808593 4,4.039258 V 47.960742 C 60,50.191408 58.208986,52 56,52 H 8 C 5.7910155,52 4,50.191408 4,47.960742 V 17.039258 C 4,14.808593 5.7910155,13 8,13 Z"
       id="path2"
       style="fill:#ac9d93" />
    <path
       style="opacity:0.1;fill:#ffffff"
       d="m 8,13 c -2.2089845,0 -4,1.808397 -4,4.039062 v 1 C 4,15.808397 5.7910155,14 8,14 h 48 c 2.208986,0 4,1.808398 4,4.039062 v -1 C 60,14.808398 58.208986,13 56,13 Z"
       id="path3" />
    <path
       style="fill:#916f6f"
       d="M 8.0000001,21 H 20 c 0.552735,0 1,0.447266 1,0.999999 V 30 c 0,0.552734 -0.447265,1 -1,1 H 8.0000001 C 7.4472656,31 7,30.552734 7,30 V 21.999999 C 7,21.447266 7.4472656,21 8.0000001,21 Z m 0,0"
       id="path4" />
    <path
       d="M 8,21 H 9 V 31 H 8 Z m 0,0"
       id="path5"
       style="fill:#ffffff;fill-opacity:1" />
    <path
       d="m 19,21 h 1 v 10 h -1 z m 0,0"
       id="path6"
       style="fill:#ffffff;fill-opacity:1" />
    <path
       style="opacity:0.1"
       d="m 8,11 c -1.10547,0 -2,0.894532 -2,2 v 11 c 0,1.105469 0.89453,2 2,2 h 12 c 1.10547,0 2,-0.894531 2,-2 V 13 c 0,-1.105468 -0.89453,-2 -2,-2 z m 18,6 c -1.10547,0 -2,0.894532 -2,2 v 11 c 0,1.105469 0.89453,2 2,2 h 12 c 1.10547,0 2,-0.894531 2,-2 V 19 c 0,-1.105468 -0.89453,-2 -2,-2 z m 18,0 c -1.10547,0 -2,0.894532 -2,2 v 11 c 0,1.105469 0.89453,2 2,2 h 12 c 1.10547,0 2,-0.894531 2,-2 V 19 c 0,-1.105468 -0.89453,-2 -2,-2 z M 8,35 c -1.10547,0 -2,0.894532 -2,2 v 11 c 0,1.105469 0.89453,2 2,2 h 12 c 1.10547,0 2,-0.894531 2,-2 V 37 c 0,-1.105468 -0.89453,-2 -2,-2 z m 18,0 c -1.10547,0 -2,0.894532 -2,2 v 11 c 0,1.105469 0.89453,2 2,2 h 12 c 1.10547,0 2,-0.894531 2,-2 V 37 c 0,-1.105468 -0.89453,-2 -2,-2 z m 18,0 c -1.10547,0 -2,0.894532 -2,2 v 11 c 0,1.105469 0.89453,2 2,2 h 12 c 1.10547,0 2,-0.894531 2,-2 V 37 c 0,-1.105468 -0.89453,-2 -2,-2 z"
       id="path7" />
    <path
       style="fill:#6c5d53"
       d="m 26,16 h 12 c 1.10547,0 2,0.894531 2,1.999999 v 11 C 40,30.105468 39.10547,31 38,31 H 26 c -1.10547,0 -2,-0.894532 -2,-2.000001 v -11 C 24,16.894531 24.89453,16 26,16 Z m 0,0"
       id="path8" />
    <path
       style="fill:#6c5d53"
       d="m 44,16 h 12 c 1.10547,0 2,0.894531 2,1.999999 v 11 C 58,30.105468 57.10547,31 56,31 H 44 c -1.10547,0 -2,-0.894532 -2,-2.000001 v -11 C 42,16.894531 42.89453,16 44,16 Z m 0,0"
       id="path9" />
    <path
       style="fill:#6c5d53"
       d="m 26,34 h 12 c 1.10547,0 2,0.894531 2,1.999999 v 11 C 40,48.105468 39.10547,49 38,49 H 26 c -1.10547,0 -2,-0.894532 -2,-2.000001 v -11 C 24,34.894531 24.89453,34 26,34 Z m 0,0"
       id="path10" />
    <path
       style="fill:#6c5d53"
       d="m 44,34 h 12 c 1.10547,0 2,0.894531 2,1.999999 v 11 C 58,48.105468 57.10547,49 56,49 H 44 c -1.10547,0 -2,-0.894532 -2,-2.000001 v -11 C 42,34.894531 42.89453,34 44,34 Z m 0,0"
       id="path11" />
    <path
       style="fill:#6c5d53"
       d="m 8,34 h 12 c 1.10547,0 2,0.894531 2,1.999999 v 11 C 22,48.105468 21.10547,49 20,49 H 8 C 6.89453,49 6,48.105468 6,46.999999 v -11 C 6,34.894531 6.89453,34 8,34 Z m 0,0"
       id="path12" />
    <path
       style="fill:#6c5d53"
       d="m 8,10 h 12 c 1.10547,0 2,0.894531 2,1.999999 v 11 C 22,24.105468 21.10547,25 20,25 H 8 C 6.89453,25 6,24.105468 6,22.999999 v -11 C 6,10.894531 6.89453,10 8,10 Z m 0,0"
       id="path13" />
    <path
       fill="none"
       stroke="#deddda"
       stroke-linecap="square"
       stroke-linejoin="round"
       stroke-width="1.176"
       d="M 28.5,23.5 V 22.803974 C 28.5,22.131902 29.09675,21.5 29.725381,21.5 h 4.549242 C 34.903254,21.5 35.5,22.131902 35.5,22.803974 V 23.5"
       id="path14" />
    <path
       fill="none"
       stroke="#deddda"
       stroke-linecap="square"
       stroke-linejoin="round"
       stroke-width="1.176"
       d="M 46.5,23.5 V 22.803974 C 46.5,22.131902 47.09675,21.5 47.725381,21.5 h 4.549242 C 52.903254,21.5 53.5,22.131902 53.5,22.803974 V 23.5"
       id="path15" />
    <path
       fill="none"
       stroke="#deddda"
       stroke-linecap="square"
       stroke-linejoin="round"
       stroke-width="1.176"
       d="M 28.5,41.5 V 40.803974 C 28.5,40.131902 29.09675,39.5 29.725381,39.5 h 4.549242 C 34.903254,39.5 35.5,40.131902 35.5,40.803974 V 41.5"
       id="path16" />
    <path
       fill="none"
       stroke="#deddda"
       stroke-linecap="square"
       stroke-linejoin="round"
       stroke-width="1.176"
       d="M 46.5,41.5 V 40.803974 C 46.5,40.131902 47.09675,39.5 47.725381,39.5 h 4.549242 C 52.903254,39.5 53.5,40.131902 53.5,40.803974 V 41.5"
       id="path17" />
    <path
       fill="none"
       stroke="#deddda"
       stroke-linecap="square"
       stroke-linejoin="round"
       stroke-width="1.176"
       d="M 10.5,41.5 V 40.803974 C 10.5,40.131902 11.09675,39.5 11.725381,39.5 h 4.549242 C 16.903254,39.5 17.5,40.131902 17.5,40.803974 V 41.5"
       id="path18" />
    <path
       fill="none"
       stroke-linecap="square"
       stroke-linejoin="round"
       stroke-width="1.176"
       d="M 10.5,17.5 V 16.803974 C 10.5,16.131902 11.09675,15.5 11.725381,15.5 h 4.549242 C 16.903254,15.5 17.5,16.131902 17.5,16.803974 V 17.5"
       id="path19"
       style="stroke:#ffffff;stroke-opacity:1" />
  </g>
</svg>
