<?xml version="1.0" encoding="UTF-8" standalone="no"?>
<svg
   width="62"
   height="62"
   viewBox="0 0 16.404166 16.404167"
   version="1.1"
   id="svg1443"
   inkscape:version="1.4.2 (unknown)"
   sodipodi:docname="com.gluonhq.SceneBuilder.svg"
   xmlns:inkscape="http://www.inkscape.org/namespaces/inkscape"
   xmlns:sodipodi="http://sodipodi.sourceforge.net/DTD/sodipodi-0.dtd"
   xmlns:xlink="http://www.w3.org/1999/xlink"
   xmlns="http://www.w3.org/2000/svg"
   xmlns:svg="http://www.w3.org/2000/svg"
   xmlns:rdf="http://www.w3.org/1999/02/22-rdf-syntax-ns#"
   xmlns:cc="http://creativecommons.org/ns#"
   xmlns:dc="http://purl.org/dc/elements/1.1/">
  <defs
     id="defs1437">
    <linearGradient
       gradientTransform="matrix(0.4711726,0,0,0.47114666,-53.953909,-18.000765)"
       gradientUnits="userSpaceOnUse"
       y2="70.679932"
       x2="132.21078"
       y1="42.151531"
       x1="132.21078"
       id="linearGradient1632"
       xlink:href="#linearGradient1630"
       inkscape:collect="always" />
    <linearGradient
       id="linearGradient1630"
       inkscape:collect="always">
      <stop
         id="stop1626"
         offset="0"
         style="stop-color:#fafafc;stop-opacity:1" />
      <stop
         id="stop1628"
         offset="1"
         style="stop-color:#e2e6ea;stop-opacity:1" />
    </linearGradient>
    <filter
       color-interpolation-filters="sRGB"
       height="1.1311001"
       width="1.1106"
       y="-0.065563001"
       x="-0.055319"
       id="c-9">
      <feGaussianBlur
         id="feGaussianBlur1093"
         stdDeviation="1.1062912" />
    </filter>
    <linearGradient
       gradientUnits="userSpaceOnUse"
       gradientTransform="matrix(0.13235,0,0,0.13075,-32.379,1.0873)"
       y2="269.48999"
       y1="235.14999"
       x2="657.65002"
       x1="319.20999"
       id="a-12">
      <stop
         id="stop1076"
         offset="0"
         stop-color="#e54c18" />
      <stop
         id="stop1078"
         offset="1"
         stop-color="#fec350" />
    </linearGradient>
    <linearGradient
       xlink:href="#a-7"
       id="c-36"
       x1="8.6850004"
       x2="8.7620001"
       y1="16.868999"
       y2="4.5339999"
       gradientTransform="matrix(1.0634748,0,0,1.0634748,-0.80999368,1.8113865)"
       gradientUnits="userSpaceOnUse" />
    <linearGradient
       id="a-7">
      <stop
         offset="0"
         style="stop-color:#2369ff;stop-opacity:1;"
         id="stop8" />
      <stop
         offset="1"
         style="stop-color:#7fa8ff;stop-opacity:1"
         id="stop10" />
    </linearGradient>
  </defs>
  <sodipodi:namedview
     id="base"
     pagecolor="#ffffff"
     bordercolor="#666666"
     borderopacity="1.0"
     inkscape:pageopacity="0.0"
     inkscape:pageshadow="2"
     inkscape:zoom="5.6"
     inkscape:cx="-2.1428571"
     inkscape:cy="52.053571"
     inkscape:document-units="px"
     inkscape:current-layer="layer1"
     inkscape:document-rotation="0"
     showgrid="false"
     units="px"
     inkscape:window-width="1920"
     inkscape:window-height="996"
     inkscape:window-x="0"
     inkscape:window-y="0"
     inkscape:window-maximized="1"
     inkscape:showpageshadow="2"
     inkscape:pagecheckerboard="0"
     inkscape:deskcolor="#d1d1d1">
    <inkscape:grid
       id="grid1"
       units="px"
       originx="0"
       originy="0"
       spacingx="0.26458332"
       spacingy="0.26458334"
       empcolor="#0099e5"
       empopacity="0.30196078"
       color="#0099e5"
       opacity="0.14901961"
       empspacing="5"
       enabled="true"
       visible="false" />
  </sodipodi:namedview>
  <metadata
     id="metadata1440">
    <rdf:RDF>
      <cc:Work
         rdf:about="">
        <dc:format>image/svg+xml</dc:format>
        <dc:type
           rdf:resource="http://purl.org/dc/dcmitype/StillImage" />
      </cc:Work>
    </rdf:RDF>
  </metadata>
  <g
     inkscape:label="Capa 1"
     inkscape:groupmode="layer"
     id="layer1">
    <g
       style="opacity:0.295"
       transform="matrix(0.47117252,0,0,0.47114656,-31.72741,-18.000762)"
       id="g1702">
      <rect
         ry="6.6098609"
         rx="6.6098609"
         y="40.709618"
         x="69.839508"
         height="29.810888"
         width="29.810888"
         id="rect1634"
         style="fill:none;fill-opacity:1;stroke:#000000;stroke-width:0.1;stroke-linecap:round;stroke-linejoin:round;stroke-miterlimit:4;stroke-dasharray:none;stroke-opacity:0.02" />
      <rect
         style="fill:none;fill-opacity:1;stroke:#000000;stroke-width:0.2;stroke-linecap:round;stroke-linejoin:round;stroke-miterlimit:4;stroke-dasharray:none;stroke-opacity:0.02"
         id="rect1638"
         width="29.810888"
         height="29.810888"
         x="69.839508"
         y="40.709618"
         rx="6.6098609"
         ry="6.6098609" />
      <rect
         ry="6.6098609"
         rx="6.6098609"
         y="40.709618"
         x="69.839508"
         height="29.810888"
         width="29.810888"
         id="rect1640"
         style="fill:none;fill-opacity:1;stroke:#000000;stroke-width:0.3;stroke-linecap:round;stroke-linejoin:round;stroke-miterlimit:4;stroke-dasharray:none;stroke-opacity:0.02" />
      <rect
         style="fill:none;fill-opacity:1;stroke:#000000;stroke-width:0.4;stroke-linecap:round;stroke-linejoin:round;stroke-miterlimit:4;stroke-dasharray:none;stroke-opacity:0.02"
         id="rect1642"
         width="29.810888"
         height="29.810888"
         x="69.839508"
         y="40.709618"
         rx="6.6098609"
         ry="6.6098609" />
      <rect
         ry="6.6098609"
         rx="6.6098609"
         y="40.709618"
         x="69.839508"
         height="29.810888"
         width="29.810888"
         id="rect1644"
         style="fill:none;fill-opacity:1;stroke:#000000;stroke-width:0.5;stroke-linecap:round;stroke-linejoin:round;stroke-miterlimit:4;stroke-dasharray:none;stroke-opacity:0.02" />
      <rect
         style="fill:none;fill-opacity:1;stroke:#000000;stroke-width:0.6;stroke-linecap:round;stroke-linejoin:round;stroke-miterlimit:4;stroke-dasharray:none;stroke-opacity:0.02"
         id="rect1646"
         width="29.810888"
         height="29.810888"
         x="69.839508"
         y="40.709618"
         rx="6.6098609"
         ry="6.6098609" />
      <rect
         ry="6.6098609"
         rx="6.6098609"
         y="40.709618"
         x="69.839508"
         height="29.810888"
         width="29.810888"
         id="rect1648"
         style="fill:none;fill-opacity:1;stroke:#000000;stroke-width:0.7;stroke-linecap:round;stroke-linejoin:round;stroke-miterlimit:4;stroke-dasharray:none;stroke-opacity:0.02" />
      <rect
         style="fill:none;fill-opacity:1;stroke:#000000;stroke-width:0.8;stroke-linecap:round;stroke-linejoin:round;stroke-miterlimit:4;stroke-dasharray:none;stroke-opacity:0.02"
         id="rect1650"
         width="29.810888"
         height="29.810888"
         x="69.839508"
         y="40.709618"
         rx="6.6098609"
         ry="6.6098609" />
      <rect
         ry="6.6098609"
         rx="6.6098609"
         y="40.709618"
         x="69.839508"
         height="29.810888"
         width="29.810888"
         id="rect1652"
         style="fill:none;fill-opacity:1;stroke:#000000;stroke-width:1;stroke-linecap:round;stroke-linejoin:round;stroke-miterlimit:4;stroke-dasharray:none;stroke-opacity:0.02" />
      <rect
         style="fill:none;fill-opacity:1;stroke:#000000;stroke-width:1.2;stroke-linecap:round;stroke-linejoin:round;stroke-miterlimit:4;stroke-dasharray:none;stroke-opacity:0.02"
         id="rect1654"
         width="29.810888"
         height="29.810888"
         x="69.839508"
         y="40.709618"
         rx="6.6098609"
         ry="6.6098609" />
      <rect
         ry="6.6098609"
         rx="6.6098609"
         y="40.709618"
         x="69.839508"
         height="29.810888"
         width="29.810888"
         id="rect1656"
         style="fill:none;fill-opacity:1;stroke:#000000;stroke-width:1.4;stroke-linecap:round;stroke-linejoin:round;stroke-miterlimit:4;stroke-dasharray:none;stroke-opacity:0.02" />
      <rect
         style="fill:none;fill-opacity:1;stroke:#000000;stroke-width:1.6;stroke-linecap:round;stroke-linejoin:round;stroke-miterlimit:4;stroke-dasharray:none;stroke-opacity:0.02"
         id="rect1658"
         width="29.810888"
         height="29.810888"
         x="69.839508"
         y="40.709618"
         rx="6.6098609"
         ry="6.6098609" />
      <rect
         ry="6.6098609"
         rx="6.6098609"
         y="40.709618"
         x="69.839508"
         height="29.810888"
         width="29.810888"
         id="rect1660"
         style="fill:none;fill-opacity:1;stroke:#000000;stroke-width:1.8;stroke-linecap:round;stroke-linejoin:round;stroke-miterlimit:4;stroke-dasharray:none;stroke-opacity:0.02" />
      <rect
         style="fill:none;fill-opacity:1;stroke:#000000;stroke-width:2;stroke-linecap:round;stroke-linejoin:round;stroke-miterlimit:4;stroke-dasharray:none;stroke-opacity:0.02"
         id="rect1662"
         width="29.810888"
         height="29.810888"
         x="69.839508"
         y="40.709618"
         rx="6.6098609"
         ry="6.6098609" />
      <rect
         ry="6.6098609"
         rx="6.6098609"
         y="40.709618"
         x="69.839508"
         height="29.810888"
         width="29.810888"
         id="rect1664"
         style="fill:none;fill-opacity:1;stroke:#000000;stroke-width:2.2;stroke-linecap:round;stroke-linejoin:round;stroke-miterlimit:4;stroke-dasharray:none;stroke-opacity:0.02" />
      <rect
         style="fill:none;fill-opacity:1;stroke:#000000;stroke-width:2.6;stroke-linecap:round;stroke-linejoin:round;stroke-miterlimit:4;stroke-dasharray:none;stroke-opacity:0.02"
         id="rect1666"
         width="29.810888"
         height="29.810888"
         x="69.839508"
         y="40.709618"
         rx="6.6098609"
         ry="6.6098609" />
      <rect
         ry="6.6098609"
         rx="6.6098609"
         y="40.709618"
         x="69.839508"
         height="29.810888"
         width="29.810888"
         id="rect1668"
         style="fill:none;fill-opacity:1;stroke:#000000;stroke-width:3;stroke-linecap:round;stroke-linejoin:round;stroke-miterlimit:4;stroke-dasharray:none;stroke-opacity:0.02" />
      <rect
         style="fill:none;fill-opacity:1;stroke:#000000;stroke-width:3.4;stroke-linecap:round;stroke-linejoin:round;stroke-miterlimit:4;stroke-dasharray:none;stroke-opacity:0.02"
         id="rect1670"
         width="29.810888"
         height="29.810888"
         x="69.839508"
         y="40.709618"
         rx="6.6098609"
         ry="6.6098609" />
      <rect
         ry="6.6098609"
         rx="6.6098609"
         y="40.709618"
         x="69.839508"
         height="29.810888"
         width="29.810888"
         id="rect1672"
         style="fill:none;fill-opacity:1;stroke:#000000;stroke-width:3.8;stroke-linecap:round;stroke-linejoin:round;stroke-miterlimit:4;stroke-dasharray:none;stroke-opacity:0.02" />
      <rect
         style="fill:none;fill-opacity:1;stroke:#000000;stroke-width:4.2;stroke-linecap:round;stroke-linejoin:round;stroke-miterlimit:4;stroke-dasharray:none;stroke-opacity:0.02"
         id="rect1674"
         width="29.810888"
         height="29.810888"
         x="69.839508"
         y="40.709618"
         rx="6.6098609"
         ry="6.6098609" />
      <rect
         ry="6.6098609"
         rx="6.6098609"
         y="40.709618"
         x="69.839508"
         height="29.810888"
         width="29.810888"
         id="rect1676"
         style="fill:none;fill-opacity:1;stroke:#000000;stroke-width:4.6;stroke-linecap:round;stroke-linejoin:round;stroke-miterlimit:4;stroke-dasharray:none;stroke-opacity:0.02" />
      <rect
         style="fill:none;fill-opacity:1;stroke:#000000;stroke-width:5;stroke-linecap:round;stroke-linejoin:round;stroke-miterlimit:4;stroke-dasharray:none;stroke-opacity:0.02"
         id="rect1678"
         width="29.810888"
         height="29.810888"
         x="69.839508"
         y="40.709618"
         rx="6.6098609"
         ry="6.6098609" />
    </g>
    <rect
       ry="3.1142132"
       rx="3.1143851"
       y="1.1794344"
       x="1.1790471"
       height="14.045296"
       width="14.04607"
       id="rect849"
       style="fill:url(#linearGradient1632);fill-opacity:1;stroke-width:1.29783;stroke-linecap:round;stroke-linejoin:round" />
    <g
       id="g2"
       transform="translate(1.3408161,-1.0817806)">
      <path
         style="opacity:0.1;stroke-width:0.264582"
         d="M 9.0956641,13.908638 C 9.5075592,13.590607 12.148117,11.35924 12.413265,11.105191 12.762425,10.770608 12.76537,10.682929 12.45749,9.7889661 11.783704,7.8326273 10.598543,5.4979867 10.06506,5.0762358 9.843005,4.9006395 9.4332592,4.9032945 9.1453543,5.0816897 8.7438577,5.3311128 8.7616933,5.6666786 9.2187808,6.4632238 9.3834349,6.7501688 9.5181499,7.004423 9.5181499,7.028292 c 0,0.023876 -0.057178,0.043286 -0.1270912,0.043286 -0.089477,0 -0.2940028,-0.2529637 -0.6912794,-0.855111 C 8.095267,5.3001699 7.9207772,5.1545038 7.5235912,5.2343471 c -0.2994376,0.060259 -0.640581,0.2911004 -0.753026,0.5096716 -0.1300396,0.252756 -0.076337,0.3804811 0.5290736,1.258607 0.3718623,0.5393984 0.4733204,0.732327 0.415577,0.7903851 -0.042019,0.042239 -0.097583,0.076745 -0.1234739,0.076745 -0.025898,0 -0.364491,-0.4339411 -0.7524306,-0.9643482 C 6.591261,6.5662526 6.3977521,6.3169375 6.253404,6.1512127 6.0052128,5.8140811 5.7698229,5.9187516 5.4654372,6.030504 5.2475639,6.137415 5.0271965,6.2914008 4.9185579,6.4345459 4.6631411,6.771135 4.7008522,6.9836472 5.12029,7.5712896 5.3219279,7.8537757 5.6211846,8.2505641 5.7853067,8.4530583 6.0726312,8.8076283 6.1420169,9.0575258 5.9690224,9.1146975 5.8684401,9.1477292 5.9206378,9.2053137 3.9918327,6.9427502 2.7973079,5.5415402 2.2363848,4.9320691 2.0961222,4.8828992 1.831952,4.7902883 1.5442693,4.9114823 1.261989,5.2348456 0.84463602,5.7126759 0.79561999,5.6280607 3.1430115,8.4820409 4.2952944,9.882981 5.2673238,11.067361 5.3030809,11.113973 5.4357586,11.286955 5.2705593,11.274622 4.6409117,11.064783 4.1108509,10.888138 3.9187306,10.854265 3.5716785,10.876496 c -0.5751023,0.04766 -0.8366536,0.363355 -0.8493169,0.799506 -0.00886,0.304617 0.2837328,0.598101 0.6416695,0.780336 0.2048111,0.104348 2.4711017,0.832501 4.3343657,1.392736 0.8142008,0.244826 1.1390077,0.258579 1.3972624,0.05912 z"
         id="path3-6" />
      <path
         style="fill:#ff944c;stroke-width:0.264582;fill-opacity:1"
         d="m 9.0957721,13.582533 c 0.4119085,-0.340507 3.0525099,-2.55379 3.3175289,-2.82619 0.349248,-0.34051 0.351985,-0.408607 0.04418,-1.2939215 C 11.783628,7.4874913 10.59858,5.1720555 10.065116,4.7293975 9.8428966,4.559144 9.4333828,4.559144 9.1454251,4.7293975 8.7437885,5.0018038 8.7615933,5.3423071 9.2186998,6.1254687 9.383391,6.3978762 9.5183,6.6702775 9.5183,6.7043297 c 0,0 -0.057167,0.034005 -0.1273734,0.034005 -0.089357,0 -0.293779,-0.2724019 -0.6909648,-0.8512606 C 8.0952565,4.9677105 7.9206317,4.7974559 7.5234462,4.8996108 7.2241868,4.9677114 6.8831555,5.1720144 6.7705058,5.4103696 6.6403932,5.6487229 6.6941518,5.7849231 7.2995156,6.6702364 7.6713635,7.2150473 7.7730567,7.385298 7.7151909,7.4534 7.673073,7.487411 7.6176055,7.521502 7.5915847,7.521502 7.5659067,7.521502 7.2272697,7.0788467 6.8393292,6.5680867 6.5911057,6.2276111 6.3976489,5.9892587 6.253498,5.8190062 6.0052572,5.4785018 5.7696851,5.5806521 5.4652906,5.6828019 5.2475229,5.7849213 5.027359,5.9552065 4.9184754,6.09141 4.6630437,6.431914 4.7007086,6.6362197 5.1201499,7.2150783 5.3218247,7.521532 5.6210831,7.8960886 5.7854356,8.1003908 6.0727105,8.4749441 6.1418755,8.7132993 5.9689626,8.7813995 5.8682956,8.8154045 5.9206872,8.8495007 3.9919381,6.6021673 2.7972994,5.2060951 2.2364458,4.5931886 2.0960614,4.5591356 c -0.2640936,-0.1021082 -0.5517792,0 -0.8340553,0.3405051 -0.41735275,0.4767067 -0.46638461,0.3745563 1.8811183,3.2348007 1.152181,1.3960723 2.1242582,2.5878386 2.1598676,2.6559376 0.1328518,0.170255 -0.032527,0.136205 -0.6622039,-0.06809 -0.530037,-0.170255 -0.7221243,-0.204302 -1.068977,-0.170255 -0.5752342,0.03404 -0.8368287,0.340507 -0.8494974,0.783163 -0.00891,0.306453 0.2838505,0.612907 0.6416599,0.783162 0.2047558,0.102113 2.4711105,0.817211 4.3344583,1.396069 0.81423,0.238353 1.1388265,0.238353 1.3973395,0.06809 z"
         id="path4" />
    </g>
  </g>
</svg>
