<?xml version="1.0" encoding="UTF-8" standalone="no"?>
<svg
   width="62"
   height="62"
   version="1.1"
   id="svg10"
   sodipodi:docname="com.neatdecisions.Detwinner.svg"
   inkscape:version="1.4.2 (unknown)"
   xmlns:inkscape="http://www.inkscape.org/namespaces/inkscape"
   xmlns:sodipodi="http://sodipodi.sourceforge.net/DTD/sodipodi-0.dtd"
   xmlns="http://www.w3.org/2000/svg"
   xmlns:svg="http://www.w3.org/2000/svg">
  <defs
     id="defs10" />
  <sodipodi:namedview
     id="namedview10"
     pagecolor="#ffffff"
     bordercolor="#000000"
     borderopacity="0.25"
     inkscape:showpageshadow="2"
     inkscape:pageopacity="0.0"
     inkscape:pagecheckerboard="0"
     inkscape:deskcolor="#d1d1d1"
     inkscape:zoom="5.84375"
     inkscape:cx="19.42246"
     inkscape:cy="16.684492"
     inkscape:window-width="1920"
     inkscape:window-height="994"
     inkscape:window-x="0"
     inkscape:window-y="0"
     inkscape:window-maximized="1"
     inkscape:current-layer="svg10" />
  <path
     style="opacity:0.2;stroke-width:0.982611"
     d="m 49.608842,9.9824617 a 6.4255148,6.385965 0 0 0 -6.42551,6.3859693 6.4255148,6.385965 0 0 0 6.42551,6.38596 6.4255148,6.385965 0 0 0 6.425519,-6.38596 6.4255148,6.385965 0 0 0 -6.425519,-6.3859693 z m -7.3793,15.7192993 c -1.114862,0 -2.011835,0.89145 -2.011835,1.999456 v 0.667758 11.887339 1.151315 h 0.01739 a 9.3911366,9.333333 0 0 0 9.373757,8.855532 9.3911366,9.333333 0 0 0 9.367973,-8.855532 h 0.02317 V 40.256314 28.368975 27.701217 c 0,-1.108006 -0.89698,-1.999456 -2.011839,-1.999456 z"
     id="path1" />
  <path
     style="fill:#00b2b2;stroke-width:0.982611;fill-opacity:1"
     d="m 42.230099,24.719587 c -1.114868,0 -2.012392,0.891999 -2.012392,2.000005 v 0.666661 11.88736 1.151037 h 0.369461 18.043347 0.36947 v -1.151037 -11.88736 -0.666661 c 0,-1.108006 -0.897533,-2.000005 -2.012391,-2.000005 z"
     id="path3" />
  <ellipse
     style="fill:#00b2b2;stroke-width:0.982611;fill-opacity:1"
     cx="49.60886"
     cy="39.947388"
     id="circle3"
     rx="9.391139"
     ry="9.3333359" />
  <ellipse
     style="fill:#00b2b2;stroke-width:0.982611;fill-opacity:1"
     cx="49.60886"
     cy="15.385964"
     id="circle4"
     rx="6.4255142"
     ry="6.3859644" />
  <path
     style="opacity:0.1;fill:#ffffff;stroke-width:0.982611"
     d="m 49.608842,9.0000082 a 6.4255148,6.385965 0 0 0 -6.42551,6.3859628 6.4255148,6.385965 0 0 0 0.02318,0.462443 6.4255148,6.385965 0 0 1 6.402338,-5.8659523 6.4255148,6.385965 0 0 1 6.402349,5.9235263 6.4255148,6.385965 0 0 0 0.02318,-0.520017 6.4255148,6.385965 0 0 0 -6.425524,-6.3859628 z m -7.3793,15.7193028 c -1.114862,0 -2.011835,0.89145 -2.011835,1.999446 v 0.667768 0.314692 c 0,-1.108006 0.896973,-1.999456 2.011835,-1.999456 h 14.758604 c 1.114859,0 2.011839,0.89145 2.011839,1.999456 v -0.314692 -0.667768 c 0,-1.107996 -0.89698,-1.999446 -2.011839,-1.999446 z"
     id="path10" />
  <g
     id="g1"
     transform="matrix(1.005884,0,0,1,-0.00898064,1.51037)"
     style="stroke-width:0.99707">
    <path
       style="opacity:0.2;stroke-width:0.979732"
       d="m 12.327579,8.4720911 a 6.3879282,6.385965 0 0 0 -6.3879226,6.3859699 6.3879282,6.385965 0 0 0 6.3879226,6.38596 6.3879282,6.385965 0 0 0 6.387932,-6.38596 6.3879282,6.385965 0 0 0 -6.387932,-6.3859699 z M 4.9914444,24.191391 c -1.10834,0 -2.000065,0.89145 -2.000065,1.999456 v 0.667758 11.887339 1.151315 h 0.01729 a 9.3362024,9.333333 0 0 0 9.3189246,8.855532 9.3362024,9.333333 0 0 0 9.313174,-8.855532 h 0.02304 V 38.745944 26.858605 26.190847 c 0,-1.108006 -0.891734,-1.999456 -2.000071,-1.999456 z"
       id="path1-6" />
    <path
       style="fill:#00b2b2;stroke-width:0.979732;fill-opacity:1"
       d="m 4.9919984,23.209217 c -1.108346,0 -2.000619,0.891999 -2.000619,2.000005 v 0.666661 11.88736 1.151037 h 0.367299 17.9378006 0.367309 v -1.151037 -11.88736 -0.666661 c 0,-1.108006 -0.892283,-2.000005 -2.00062,-2.000005 z"
       id="path3-7" />
    <ellipse
       style="fill:#00b2b2;stroke-width:0.979732;fill-opacity:1"
       cx="12.32759"
       cy="38.437016"
       id="circle3-5"
       rx="9.3362055"
       ry="9.3333359" />
    <ellipse
       style="fill:#00b2b2;stroke-width:0.979732;fill-opacity:1"
       cx="12.32759"
       cy="13.875594"
       id="circle4-3"
       rx="6.3879275"
       ry="6.3859644" />
    <path
       style="opacity:0.1;fill:#ffffff;stroke-width:0.979732"
       d="m 12.327579,7.4896384 a 6.3879282,6.385965 0 0 0 -6.3879226,6.3859626 6.3879282,6.385965 0 0 0 0.02305,0.462443 6.3879282,6.385965 0 0 1 6.3648876,-5.8659529 6.3879282,6.385965 0 0 1 6.364898,5.9235269 6.3879282,6.385965 0 0 0 0.02305,-0.520017 6.3879282,6.385965 0 0 0 -6.387937,-6.3859626 z M 4.9914444,23.208941 c -1.10834,0 -2.000065,0.89145 -2.000065,1.999446 v 0.667768 0.314692 c 0,-1.108006 0.891725,-1.999456 2.000065,-1.999456 H 19.663717 c 1.108337,0 2.000071,0.89145 2.000071,1.999456 v -0.314692 -0.667768 c 0,-1.107996 -0.891734,-1.999446 -2.000071,-1.999446 z"
       id="path10-5" />
  </g>
  <g
     id="g2"
     transform="translate(-1.2553616,-0.4322176)">
    <path
       style="opacity:0.2;stroke-width:0.982611"
       d="m 32.255341,4.4146761 a 9.3362024,9.333333 0 0 0 -9.336201,9.3333329 9.3362024,9.333333 0 0 0 9.336201,9.33333 9.3362024,9.333333 0 0 0 9.336209,-9.33333 9.3362024,9.333333 0 0 0 -9.336209,-9.3333329 z M 21.243458,26.028709 c -1.794203,0 -3.238108,1.44347 -3.238108,3.237122 v 3.239035 11.006572 1.67517 0.26864 h 0.0098 a 14.249989,14.24561 0 0 0 14.240191,13.97697 14.249989,14.24561 0 0 0 14.236564,-13.97697 h 0.01347 v -0.26864 -1.67517 -11.006572 -3.239035 c 0,-1.793652 -1.443914,-3.237122 -3.238116,-3.237122 z"
       id="path2-2" />
    <ellipse
       style="fill:#008080;stroke-width:0.982611;fill-opacity:1"
       cx="32.255344"
       cy="12.765553"
       id="circle5-9"
       rx="9.3362055"
       ry="9.3333359" />
    <path
       style="fill:#008080;stroke-width:0.982611;fill-opacity:1"
       d="m 21.243982,25.04634 c -1.794203,0 -3.23863,1.443993 -3.23863,3.237645 v 3.237634 11.007979 1.94258 h 0.657842 c 0.59002,0.7835 1.519874,1.29506 2.580788,1.29506 h 22.02272 c 1.060914,0 1.990769,-0.51156 2.58079,-1.29506 h 0.65785 v -1.94258 -11.007979 -3.237634 c 0,-1.793652 -1.444437,-3.237645 -3.23864,-3.237645 z"
       id="path5-1" />
    <path
       style="opacity:0.2;fill:#ffffff;stroke-width:0.982611"
       d="m 32.255341,3.4322201 a 9.3362024,9.333333 0 0 0 -9.336201,9.3333289 9.3362024,9.333333 0 0 0 0.01923,0.406802 9.3362024,9.333333 0 0 1 9.317003,-8.7576749 9.3362024,9.333333 0 0 1 9.317013,8.9265309 9.3362024,9.333333 0 0 0 0.0192,-0.575658 9.3362024,9.333333 0 0 0 -9.336245,-9.3333289 z M 21.243458,25.046259 c -1.794203,0 -3.238108,1.44346 -3.238108,3.237112 v 0.98246 c 0,-1.793652 1.443905,-3.237122 3.238108,-3.237122 h 22.023766 c 1.794203,0 3.238116,1.44347 3.238116,3.237122 v -0.98246 c 0,-1.793652 -1.443913,-3.237112 -3.238116,-3.237112 z"
       id="path6-2" />
    <ellipse
       style="fill:#008080;stroke-width:0.982611;fill-opacity:1"
       cx="32.255344"
       cy="44.204151"
       id="circle6-7"
       rx="14.249996"
       ry="14.245617" />
  </g>
</svg>
