<?xml version="1.0" encoding="UTF-8" standalone="no"?>
<!-- Created with Inkscape (http://www.inkscape.org/) -->

<svg
   width="62"
   height="62"
   viewBox="0 0 62 62"
   version="1.1"
   id="svg1"
   inkscape:version="1.4.2 (unknown)"
   sodipodi:docname="com.github.philip-scott.wallpaperize.svg"
   xmlns:inkscape="http://www.inkscape.org/namespaces/inkscape"
   xmlns:sodipodi="http://sodipodi.sourceforge.net/DTD/sodipodi-0.dtd"
   xmlns:xlink="http://www.w3.org/1999/xlink"
   xmlns="http://www.w3.org/2000/svg"
   xmlns:svg="http://www.w3.org/2000/svg">
  <sodipodi:namedview
     id="namedview1"
     pagecolor="#ffffff"
     bordercolor="#000000"
     borderopacity="0.25"
     inkscape:showpageshadow="2"
     inkscape:pageopacity="0.0"
     inkscape:pagecheckerboard="0"
     inkscape:deskcolor="#d1d1d1"
     inkscape:document-units="px"
     inkscape:zoom="10.74725"
     inkscape:cx="36.195306"
     inkscape:cy="29.449394"
     inkscape:window-width="1920"
     inkscape:window-height="994"
     inkscape:window-x="0"
     inkscape:window-y="0"
     inkscape:window-maximized="1"
     inkscape:current-layer="layer1"
     showgrid="false">
    <inkscape:grid
       id="grid1"
       units="px"
       originx="0"
       originy="0"
       spacingx="1"
       spacingy="1"
       empcolor="#0099e5"
       empopacity="0.30196078"
       color="#0099e5"
       opacity="0.14901961"
       empspacing="5"
       enabled="true"
       visible="false" />
  </sodipodi:namedview>
  <defs
     id="defs1">
    <linearGradient
       id="linearGradient12"
       inkscape:collect="always">
      <stop
         style="stop-color:#535d6c;stop-opacity:1;"
         offset="0"
         id="stop12" />
      <stop
         style="stop-color:#626c7d;stop-opacity:1;"
         offset="0.36237451"
         id="stop14" />
      <stop
         style="stop-color:#7d8a9b;stop-opacity:1;"
         offset="1"
         id="stop13" />
    </linearGradient>
    <linearGradient
       id="linearGradient1"
       inkscape:collect="always">
      <stop
         style="stop-color:#718093;stop-opacity:1;"
         offset="0"
         id="stop10" />
      <stop
         style="stop-color:#535d6c;stop-opacity:1;"
         offset="1"
         id="stop11" />
    </linearGradient>
    <radialGradient
       id="paint664_radial_890_11"
       cx="0"
       cy="0"
       r="1"
       gradientUnits="userSpaceOnUse"
       gradientTransform="matrix(-16.000099,-9.999913,9.999913,-16.000099,583,171)">
      <stop
         offset="0.42141"
         stop-color="#B7C6CD"
         id="stop2071" />
      <stop
         offset="1"
         stop-color="#EFF2F6"
         id="stop2072" />
    </radialGradient>
    <linearGradient
       id="paint665_linear_890_11"
       x1="605"
       y1="180"
       x2="601.466"
       y2="162.72301"
       gradientUnits="userSpaceOnUse">
      <stop
         stop-color="#5200FF"
         id="stop2073" />
      <stop
         offset="1"
         stop-color="#0085FF"
         id="stop2074" />
    </linearGradient>
    <linearGradient
       id="paint666_linear_890_11"
       x1="567"
       y1="181"
       x2="562.11798"
       y2="174.183"
       gradientUnits="userSpaceOnUse">
      <stop
         stop-color="#5200FF"
         id="stop2075" />
      <stop
         offset="0.670391"
         stop-color="#0085FF"
         id="stop2076" />
    </linearGradient>
    <linearGradient
       id="paint667_linear_890_11"
       x1="605"
       y1="180"
       x2="597.32001"
       y2="174.24001"
       gradientUnits="userSpaceOnUse">
      <stop
         stop-color="#5200FF"
         id="stop2077" />
      <stop
         offset="1"
         stop-color="#0085FF"
         id="stop2078" />
    </linearGradient>
    <linearGradient
       id="paint668_linear_890_11"
       x1="567"
       y1="180"
       x2="561.23999"
       y2="172.32001"
       gradientUnits="userSpaceOnUse">
      <stop
         stop-color="#5200FF"
         id="stop2079" />
      <stop
         offset="1"
         stop-color="#0085FF"
         id="stop2080" />
    </linearGradient>
    <linearGradient
       id="paint669_linear_890_11"
       x1="607"
       y1="179"
       x2="602.50598"
       y2="171.80901"
       gradientUnits="userSpaceOnUse">
      <stop
         stop-color="#5200FF"
         id="stop2081" />
      <stop
         offset="1"
         stop-color="#0085FF"
         id="stop2082" />
    </linearGradient>
    <linearGradient
       id="paint670_linear_890_11"
       x1="607"
       y1="217"
       x2="568.82599"
       y2="170.01601"
       gradientUnits="userSpaceOnUse">
      <stop
         stop-color="#5200FF"
         id="stop2083" />
      <stop
         offset="1"
         stop-color="#0085FF"
         id="stop2084" />
    </linearGradient>
    <radialGradient
       id="paint671_radial_890_11"
       cx="0"
       cy="0"
       r="1"
       gradientUnits="userSpaceOnUse"
       gradientTransform="matrix(0,20,-16,0,583,187)">
      <stop
         offset="0.869716"
         stop-color="#EFF2F6"
         id="stop2085" />
      <stop
         offset="1"
         stop-color="#B7C6CD"
         id="stop2086" />
    </radialGradient>
    <linearGradient
       id="paint497_linear_890_11"
       x1="497"
       y1="413"
       x2="447.457"
       y2="376.79599"
       gradientUnits="userSpaceOnUse"
       gradientTransform="translate(-452,-358)">
      <stop
         offset="0.636456"
         stop-color="#71706E"
         id="stop1737" />
      <stop
         offset="1"
         stop-color="#B9AA99"
         id="stop1738" />
    </linearGradient>
    <linearGradient
       id="paint498_linear_890_11"
       x1="507"
       y1="413"
       x2="457.457"
       y2="376.79599"
       gradientUnits="userSpaceOnUse"
       gradientTransform="translate(-452,-358)">
      <stop
         offset="0.544933"
         stop-color="#FF7E07"
         id="stop1739" />
      <stop
         offset="1"
         stop-color="#FFE607"
         id="stop1740" />
    </linearGradient>
    <linearGradient
       id="paint499_linear_890_11"
       x1="473"
       y1="365"
       x2="486.28699"
       y2="389.91299"
       gradientUnits="userSpaceOnUse"
       gradientTransform="translate(-452,-358)">
      <stop
         stop-color="white"
         id="stop1741" />
      <stop
         offset="0.705"
         stop-color="#EAEFEF"
         id="stop1742" />
    </linearGradient>
    <linearGradient
       id="paint500_linear_890_11"
       x1="480"
       y1="371.5"
       x2="480"
       y2="368.5"
       gradientUnits="userSpaceOnUse"
       gradientTransform="translate(-452,-358)">
      <stop
         offset="0.155999"
         stop-color="#71706E"
         id="stop1743" />
      <stop
         offset="0.796276"
         stop-color="#B9AA99"
         id="stop1744" />
    </linearGradient>
    <linearGradient
       id="paint501_linear_890_11"
       x1="479"
       y1="375.5"
       x2="479"
       y2="372.5"
       gradientUnits="userSpaceOnUse"
       gradientTransform="translate(-452,-358)">
      <stop
         offset="0.155999"
         stop-color="#71706E"
         id="stop1745" />
      <stop
         offset="0.796276"
         stop-color="#B9AA99"
         id="stop1746" />
    </linearGradient>
    <linearGradient
       id="paint502_linear_890_11"
       x1="511"
       y1="417"
       x2="455.64352"
       y2="380.82346"
       gradientUnits="userSpaceOnUse"
       gradientTransform="translate(-452,-358)">
      <stop
         offset="0.18397722"
         stop-color="#2E2E41"
         id="stop1747"
         style="stop-color:#33424d;stop-opacity:1;" />
      <stop
         offset="1"
         stop-color="#566C80"
         id="stop1748" />
    </linearGradient>
    <linearGradient
       id="paint745_linear_890_11"
       x1="172"
       y1="61"
       x2="195.978"
       y2="83.979202"
       gradientUnits="userSpaceOnUse">
      <stop
         stop-color="#EFF2F6"
         id="stop2233" />
      <stop
         offset="1"
         stop-color="#ACD1CF"
         id="stop2234" />
    </linearGradient>
    <linearGradient
       id="paint746_linear_890_11"
       x1="176"
       y1="84"
       x2="175.47501"
       y2="78.479202"
       gradientUnits="userSpaceOnUse">
      <stop
         offset="0.404925"
         stop-color="#2E2E41"
         id="stop2235" />
      <stop
         offset="1"
         stop-color="#566C80"
         id="stop2236" />
    </linearGradient>
    <linearGradient
       id="paint747_linear_890_11"
       x1="202"
       y1="84"
       x2="201.47501"
       y2="78.479202"
       gradientUnits="userSpaceOnUse">
      <stop
         offset="0.404925"
         stop-color="#2E2E41"
         id="stop2237" />
      <stop
         offset="1"
         stop-color="#566C80"
         id="stop2238" />
    </linearGradient>
    <linearGradient
       id="paint748_linear_890_11"
       x1="155"
       y1="82"
       x2="186.461"
       y2="132.33701"
       gradientUnits="userSpaceOnUse">
      <stop
         offset="0.205721"
         stop-color="#EFF2F6"
         id="stop2239" />
      <stop
         offset="1"
         stop-color="#B7C6CD"
         id="stop2240" />
    </linearGradient>
    <radialGradient
       id="paint750_radial_890_11"
       cx="0"
       cy="0"
       r="1"
       gradientUnits="userSpaceOnUse"
       gradientTransform="matrix(5.6470608,5.6470608,-5.6470608,5.6470608,172,96)">
      <stop
         offset="0.340843"
         stop-color="#2E2E41"
         id="stop2243" />
      <stop
         offset="1"
         stop-color="#566C80"
         id="stop2244" />
    </radialGradient>
    <linearGradient
       id="paint751_linear_890_11"
       x1="166"
       y1="90"
       x2="178"
       y2="102"
       gradientUnits="userSpaceOnUse">
      <stop
         stop-color="white"
         id="stop2245" />
      <stop
         offset="0.705"
         stop-color="#EAEFEF"
         id="stop2246" />
    </linearGradient>
    <linearGradient
       id="paint752_linear_890_11"
       x1="193"
       y1="88"
       x2="199"
       y2="94"
       gradientUnits="userSpaceOnUse">
      <stop
         stop-color="#FFE607"
         id="stop2247" />
      <stop
         offset="0.802569"
         stop-color="#FF7E07"
         id="stop2248" />
    </linearGradient>
    <linearGradient
       id="paint753_linear_890_11"
       x1="199"
       y1="104"
       x2="193"
       y2="98"
       gradientUnits="userSpaceOnUse">
      <stop
         offset="0.253846"
         stop-color="#089953"
         id="stop2249" />
      <stop
         offset="1"
         stop-color="#16D96F"
         id="stop2250" />
    </linearGradient>
    <linearGradient
       id="paint754_linear_890_11"
       x1="198"
       y1="93"
       x2="204"
       y2="99"
       gradientUnits="userSpaceOnUse">
      <stop
         offset="0.30755"
         stop-color="#F15700"
         id="stop2251" />
      <stop
         offset="0.832479"
         stop-color="#FF0000"
         id="stop2252" />
    </linearGradient>
    <linearGradient
       id="paint755_linear_890_11"
       x1="194"
       y1="99"
       x2="188"
       y2="93"
       gradientUnits="userSpaceOnUse">
      <stop
         offset="0.320751"
         stop-color="#5200FF"
         id="stop2253" />
      <stop
         offset="1"
         stop-color="#0085FF"
         id="stop2254" />
    </linearGradient>
    <linearGradient
       id="paint711_linear_890_11"
       x1="785.19843"
       y1="61.085037"
       x2="785.21344"
       y2="116.9138"
       gradientUnits="userSpaceOnUse"
       gradientTransform="matrix(0.35714286,0,0,0.35714286,-293.53986,16.980161)">
      <stop
         offset="0.0001"
         stop-color="#EFF2F6"
         id="stop2165"
         style="stop-color:#547097;stop-opacity:1;" />
      <stop
         offset="0.61014605"
         stop-color="#EFF2F6"
         id="stop1"
         style="stop-color:#9955ff;stop-opacity:1" />
      <stop
         offset="1"
         stop-color="#B7C6CD"
         id="stop2166"
         style="stop-color:#475b63;stop-opacity:1;" />
    </linearGradient>
    <radialGradient
       id="paint712_radial_890_11"
       cx="0"
       cy="0"
       r="1"
       gradientUnits="userSpaceOnUse"
       gradientTransform="matrix(22.216699,21.999996,-21.99894,22.215633,30.867,31)">
      <stop
         offset="0.420978"
         stop-color="#F15700"
         id="stop2167" />
      <stop
         offset="0.792773"
         stop-color="#FF0000"
         id="stop2168" />
    </radialGradient>
    <radialGradient
       id="paint713_radial_890_11"
       cx="0"
       cy="0"
       r="1"
       gradientUnits="userSpaceOnUse"
       gradientTransform="matrix(-16.688097,16.851418,-13.741875,-13.608691,50.791,10.8957)">
      <stop
         stop-color="#FFE607"
         id="stop2169" />
      <stop
         offset="0.903378"
         stop-color="#FF7E07"
         id="stop2170" />
    </radialGradient>
    <radialGradient
       id="paint714_radial_890_11"
       cx="0"
       cy="0"
       r="1"
       gradientUnits="userSpaceOnUse"
       gradientTransform="matrix(-22.961171,-7.4640815,7.4454397,-22.903825,31.961,30.8155)">
      <stop
         offset="0.440692"
         stop-color="#001AFF"
         id="stop2171" />
      <stop
         offset="1"
         stop-color="#0085FF"
         id="stop2172" />
    </radialGradient>
    <linearGradient
       id="a"
       x1="3.9389999"
       x2="7.4949999"
       y1="19.903999"
       y2="29.028"
       gradientUnits="userSpaceOnUse"
       gradientTransform="matrix(1.5769232,0,0,1.5769232,6.5427079,5.7692283)">
      <stop
         stop-color="#F25565"
         id="stop12-3" />
      <stop
         offset=".5"
         stop-color="#DA4453"
         id="stop13-6" />
      <stop
         offset="1"
         stop-color="#832932"
         id="stop14-7" />
    </linearGradient>
    <linearGradient
       id="b"
       x1="12"
       x2="19.5"
       y1="6.5"
       y2="20"
       gradientUnits="userSpaceOnUse"
       gradientTransform="matrix(1.5769232,0,0,1.5769232,6.5427079,5.7692283)">
      <stop
         stop-color="#C5CACD"
         id="stop15" />
      <stop
         offset="0.53799999"
         stop-color="#ACB6BC"
         id="stop16"
         style="stop-color:#c9d0d3;stop-opacity:1;" />
      <stop
         offset="0.87300003"
         stop-color="#9BA3A8"
         id="stop17-5"
         style="stop-color:#cdd2d4;stop-opacity:1;" />
      <stop
         offset="1"
         stop-color="#A0AAB0"
         id="stop18-3"
         style="stop-color:#d3d8db;stop-opacity:1;" />
    </linearGradient>
    <linearGradient
       id="c"
       x1="20"
       x2="20"
       y1="3"
       y2="9.5"
       gradientUnits="userSpaceOnUse"
       gradientTransform="matrix(1.5769232,0,0,1.5769232,6.5427079,5.7692283)">
      <stop
         stop-color="#fff"
         id="stop19-5" />
      <stop
         offset="1"
         stop-color="#fff"
         stop-opacity="0"
         id="stop20-6" />
    </linearGradient>
    <linearGradient
       id="e"
       x1="22"
       x2="14"
       y1="20.5"
       y2="3.5"
       gradientUnits="userSpaceOnUse">
      <stop
         stop-color="#C9D1D9"
         id="stop23" />
      <stop
         offset=".435"
         stop-color="#2D3B49"
         id="stop24" />
      <stop
         offset=".6"
         stop-color="#6D7E91"
         id="stop25" />
      <stop
         offset="1"
         stop-color="#A4A9AF"
         id="stop26" />
    </linearGradient>
    <linearGradient
       id="g"
       x1="20"
       x2="23"
       y1="16"
       y2="19"
       gradientUnits="userSpaceOnUse"
       gradientTransform="matrix(1.5769232,0,0,1.5769232,6.5427079,5.7692283)">
      <stop
         offset=".5"
         stop-color="#222E3C"
         stop-opacity="0"
         id="stop31" />
      <stop
         offset="1"
         stop-color="#222E3C"
         id="stop32" />
    </linearGradient>
    <radialGradient
       id="h"
       cx="0"
       cy="0"
       r="1"
       gradientTransform="matrix(4.7307691,4.7307691,-3.4124135,3.4124135,50.696527,18.384601)"
       gradientUnits="userSpaceOnUse">
      <stop
         stop-color="#fff"
         id="stop33" />
      <stop
         offset="1"
         stop-color="#fff"
         stop-opacity="0"
         id="stop34" />
    </radialGradient>
    <filter
       id="filter30427-0-36"
       x="-0.1339518"
       y="-0.3388412"
       width="1.2679036"
       height="1.6776824"
       color-interpolation-filters="sRGB">
      <feGaussianBlur
         stdDeviation="0.48299559"
         id="feGaussianBlur37-2-7" />
    </filter>
    <linearGradient
       id="paint512_linear_890_11"
       x1="309"
       y1="411"
       x2="263.34399"
       y2="359.388"
       gradientUnits="userSpaceOnUse"
       gradientTransform="matrix(0.39285964,0,0,0.39583333,-100.17928,-142.97917)">
      <stop
         offset="0.285926"
         stop-color="#2E2E41"
         id="stop1767"
         style="stop-color:#535d6c;stop-opacity:1" />
      <stop
         offset="1"
         stop-color="#566C80"
         id="stop1768"
         style="stop-color:#6f7c91;stop-opacity:1" />
    </linearGradient>
    <linearGradient
       id="paint513_linear_890_11"
       x1="260.58133"
       y1="369.25473"
       x2="307.9393"
       y2="407"
       gradientUnits="userSpaceOnUse"
       gradientTransform="matrix(0.39285964,0,0,0.39583333,-100.17928,-142.97917)">
      <stop
         offset="1"
         stop-color="#EFF2F6"
         id="stop1769"
         style="stop-color:#44aa00;stop-opacity:1" />
      <stop
         offset="0.1727107"
         stop-color="#EFF2F6"
         id="stop3"
         style="stop-color:#f4f8ed;stop-opacity:0.91372549;" />
      <stop
         offset="0.17957145"
         stop-color="#EFF2F6"
         id="stop4"
         style="stop-color:#dbdfd5;stop-opacity:0.81960784;" />
      <stop
         offset="0.24173911"
         stop-color="#EFF2F6"
         id="stop2"
         style="stop-color:#000000;stop-opacity:0;" />
      <stop
         offset="1"
         stop-color="#B7C6CD"
         id="stop1770" />
    </linearGradient>
    <linearGradient
       id="paint514_linear_890_11"
       x1="279"
       y1="381"
       x2="273"
       y2="375"
       gradientUnits="userSpaceOnUse"
       gradientTransform="matrix(0.39285964,0,0,0.39583333,-128.12504,-141.26852)">
      <stop
         offset="0.178269"
         stop-color="#5200FF"
         id="stop1771" />
      <stop
         offset="0.732905"
         stop-color="#0085FF"
         id="stop1772" />
    </linearGradient>
    <linearGradient
       id="paint515_linear_890_11"
       x1="279"
       y1="389"
       x2="273"
       y2="383"
       gradientUnits="userSpaceOnUse"
       gradientTransform="matrix(0.39285964,0,0,0.39583333,-128.12504,-141.26852)">
      <stop
         offset="0.158885"
         stop-color="#FF7E07"
         id="stop1773" />
      <stop
         offset="0.804651"
         stop-color="#FFC807"
         id="stop1774" />
    </linearGradient>
    <linearGradient
       id="paint516_linear_890_11"
       x1="265"
       y1="375"
       x2="271"
       y2="381"
       gradientUnits="userSpaceOnUse"
       gradientTransform="matrix(0.39285964,0,0,0.39583333,-128.12504,-141.26852)">
      <stop
         offset="0.243963"
         stop-color="#F15700"
         id="stop1775" />
      <stop
         offset="0.831224"
         stop-color="#FF0000"
         id="stop1776" />
    </linearGradient>
    <linearGradient
       id="paint517_linear_890_11"
       x1="271"
       y1="389"
       x2="265"
       y2="383"
       gradientUnits="userSpaceOnUse"
       gradientTransform="matrix(0.39285964,0,0,0.39583333,-128.12504,-141.26852)">
      <stop
         stop-color="#089953"
         id="stop1777" />
      <stop
         offset="1"
         stop-color="#16D96F"
         id="stop1778" />
    </linearGradient>
    <linearGradient
       id="paint518_linear_890_11"
       x1="284"
       y1="369"
       x2="282"
       y2="367"
       gradientUnits="userSpaceOnUse"
       gradientTransform="matrix(0.39285964,0,0,0.39583333,-128.12504,-141.26852)">
      <stop
         stop-color="#71706E"
         id="stop1779" />
      <stop
         offset="1"
         stop-color="#B9AA99"
         id="stop1780" />
    </linearGradient>
    <linearGradient
       id="paint519_linear_890_11"
       x1="292.52399"
       y1="413.5"
       x2="292.52399"
       y2="407"
       gradientUnits="userSpaceOnUse"
       gradientTransform="matrix(0.39285964,0,0,0.39583333,-100.17928,-142.97917)">
      <stop
         offset="0.298086"
         stop-color="#2E2E41"
         id="stop1781"
         style="stop-color:#535d6c;stop-opacity:1" />
      <stop
         offset="1"
         stop-color="#566C80"
         id="stop1782"
         style="stop-color:#6f7c91;stop-opacity:1" />
    </linearGradient>
    <linearGradient
       id="paint520_linear_890_11"
       x1="288"
       y1="409"
       x2="287.23099"
       y2="405.15399"
       gradientUnits="userSpaceOnUse"
       gradientTransform="matrix(0.39285964,0,0,0.39583333,-100.17928,-142.97917)">
      <stop
         offset="0.384873"
         stop-color="#2E2E41"
         id="stop1783" />
      <stop
         offset="1"
         stop-color="#566C80"
         id="stop1784" />
    </linearGradient>
    <filter
       id="filter30427-0-36-3"
       x="-0.1339518"
       y="-0.3388412"
       width="1.2679036"
       height="1.6776824"
       color-interpolation-filters="sRGB">
      <feGaussianBlur
         stdDeviation="0.48299559"
         id="feGaussianBlur37-2-7-8" />
    </filter>
    <linearGradient
       inkscape:collect="always"
       xlink:href="#linearGradient1"
       id="linearGradient11"
       x1="0.78564745"
       y1="1.4999954"
       x2="21.633923"
       y2="18.124994"
       gradientUnits="userSpaceOnUse"
       gradientTransform="matrix(2.8181818,0,0,2.8181818,3.547268e-6,-2.7272643)" />
    <linearGradient
       inkscape:collect="always"
       xlink:href="#linearGradient12"
       id="linearGradient13"
       x1="13.652296"
       y1="20.499994"
       x2="13.644134"
       y2="18.124994"
       gradientUnits="userSpaceOnUse"
       gradientTransform="matrix(2.8181818,0,0,2.8181818,3.547268e-6,-2.7272643)" />
    <linearGradient
       id="paint513_linear_890_11-7"
       x1="261"
       y1="371"
       x2="291.44299"
       y2="412.85901"
       gradientUnits="userSpaceOnUse"
       gradientTransform="matrix(0.39285964,0,0,0.39583333,-100.17937,-142.97917)">
      <stop
         offset="0.554849"
         stop-color="#EFF2F6"
         id="stop1769-5" />
      <stop
         offset="1"
         stop-color="#B7C6CD"
         id="stop1770-3" />
    </linearGradient>
    <linearGradient
       id="paint534_linear_890_11"
       x1="69"
       y1="375"
       x2="63"
       y2="369"
       gradientUnits="userSpaceOnUse"
       gradientTransform="matrix(0.60625012,0,0,0.60625012,-35.077114,-218.81048)">
      <stop
         offset="0.141586"
         stop-color="#5200FF"
         id="stop1811" />
      <stop
         offset="0.753378"
         stop-color="#0085FF"
         id="stop1812" />
    </linearGradient>
    <linearGradient
       id="paint535_linear_890_11"
       x1="63"
       y1="379"
       x2="69"
       y2="385"
       gradientUnits="userSpaceOnUse"
       gradientTransform="matrix(0.60625012,0,0,0.60625012,-35.077114,-218.81048)">
      <stop
         offset="0.251061"
         stop-color="#F15700"
         id="stop1813" />
      <stop
         offset="0.74648"
         stop-color="#FF0000"
         id="stop1814" />
    </linearGradient>
    <linearGradient
       id="paint536_linear_890_11"
       x1="79"
       y1="375"
       x2="73"
       y2="369"
       gradientUnits="userSpaceOnUse"
       gradientTransform="matrix(0.60625012,0,0,0.60625012,-35.077114,-218.81048)">
      <stop
         offset="0.236137"
         stop-color="#089953"
         id="stop1815" />
      <stop
         offset="0.783705"
         stop-color="#16D96F"
         id="stop1816" />
    </linearGradient>
    <linearGradient
       id="paint537_linear_890_11"
       x1="79"
       y1="385"
       x2="73"
       y2="379"
       gradientUnits="userSpaceOnUse"
       gradientTransform="matrix(0.60625012,0,0,0.60625012,-35.077114,-218.81048)">
      <stop
         offset="0.29157501"
         stop-color="#FF7E07"
         id="stop1817"
         style="stop-color:#e56e00;stop-opacity:1;" />
      <stop
         offset="0.750741"
         stop-color="#FFC807"
         id="stop1818"
         style="stop-color:#dfb300;stop-opacity:1;" />
    </linearGradient>
    <linearGradient
       id="paint538_linear_890_11"
       x1="88.608704"
       y1="375"
       x2="83"
       y2="369"
       gradientUnits="userSpaceOnUse"
       gradientTransform="matrix(0.60625012,0,0,0.60625012,-35.077114,-218.81048)">
      <stop
         offset="0.340681"
         stop-color="#2E2E41"
         id="stop1819" />
      <stop
         offset="0.738928"
         stop-color="#566C80"
         id="stop1820" />
    </linearGradient>
    <linearGradient
       inkscape:collect="always"
       xlink:href="#linearGradient1-7"
       id="linearGradient3"
       x1="13.964458"
       y1="7.2901964"
       x2="3.6987154"
       y2="16.541662"
       gradientUnits="userSpaceOnUse"
       gradientTransform="matrix(2.8181818,0,0,2.8181818,3.1245407e-6,-2.7385231)" />
    <linearGradient
       id="linearGradient1-7"
       inkscape:collect="always">
      <stop
         style="stop-color:#cd87de;stop-opacity:1"
         offset="0"
         id="stop2-5" />
      <stop
         style="stop-color:#ddafe9;stop-opacity:1"
         offset="0.22140084"
         id="stop4-3" />
      <stop
         style="stop-color:#aa87de;stop-opacity:1"
         offset="0.6867907"
         id="stop5-5" />
      <stop
         style="stop-color:#ffb380;stop-opacity:1"
         offset="1"
         id="stop3-6" />
    </linearGradient>
    <filter
       id="filter30427-0-36-3-2"
       x="-0.1339518"
       y="-0.3388412"
       width="1.2679036"
       height="1.6776824"
       color-interpolation-filters="sRGB">
      <feGaussianBlur
         stdDeviation="0.48299559"
         id="feGaussianBlur37-2-7-8-9" />
    </filter>
    <linearGradient
       id="c-5"
       x2="1"
       gradientTransform="matrix(-0.0753142,-7.76114,7.76114,-0.0753142,418.24139,19.956538)"
       gradientUnits="userSpaceOnUse">
      <stop
         stop-color="#eefefe"
         stop-opacity=".8"
         offset="0"
         id="stop5" />
      <stop
         stop-color="#d6fefe"
         stop-opacity=".8"
         offset="1"
         id="stop6" />
    </linearGradient>
  </defs>
  <g
     inkscape:label="Layer 1"
     inkscape:groupmode="layer"
     id="layer1">
    <g
       id="g1"
       transform="matrix(1,0,0,0.99915114,1.9843063e-6,2.7512779)">
      <path
         d="m 2.214101,8.1931771 c 0,-3.6968672 2.9738046,-6.6931817 6.6428991,-6.6931817 H 53.142995 c 3.669096,0 6.6429,2.9963145 6.6429,6.6931817 V 46.121207 c 0,3.696866 -2.973804,6.693182 -6.6429,6.693182 H 8.8570001 c -3.6690945,0 -6.6428991,-2.996316 -6.6428991,-6.693182 z"
         id="path502"
         style="fill:url(#linearGradient11);stroke-width:2.81818" />
      <path
         d="M 0.01308701,49.463334 C -0.08877078,48.855371 0.41830384,48.352266 1.0316649,48.352266 H 60.968331 c 0.61336,0 1.120436,0.503105 1.018578,1.111068 -0.525898,3.168107 -3.266092,5.582114 -6.567615,5.582114 H 6.5807001 c -3.3015208,0 -6.04171692,-2.414007 -6.56761309,-5.582114 z"
         id="path508"
         style="fill:url(#linearGradient13);stroke-width:2.81818" />
      <path
         d="m 25.464248,48.352266 h 11.071498 c 0,1.232662 -0.990898,2.231062 -2.214299,2.231062 h -6.642899 c -1.223401,0 -2.2143,-0.9984 -2.2143,-2.231062 z"
         id="path509"
         style="fill:#f1f1f1;fill-opacity:1;stroke-width:1.11133" />
      <path
         d="m 6.6427017,9.2316337 c 0,-0.5800776 0.4362171,-1.0497164 0.974292,-1.0497164 H 54.383004 c 0.538075,0 0.97429,0.4696388 0.97429,1.0497164 V 42.829174 c 0,0.580075 -0.436215,1.049713 -0.97429,1.049713 H 7.6169937 c -0.5380749,0 -0.974292,-0.469638 -0.974292,-1.049713 z"
         id="path503-7"
         style="fill:url(#linearGradient3);fill-opacity:1;stroke-width:1.11133" />
      <g
         id="g2"
         transform="matrix(3.2168136,0,0,3.1904678,-7.6912257,-6.8329521)" />
    </g>
    <g
       id="g3"
       transform="translate(-2.1258898,-5.217141)">
      <rect
         style="opacity:0.2"
         width="34"
         height="28"
         x="15.96089"
         y="21.033144"
         rx="1.214"
         ry="1.273"
         id="rect2" />
      <rect
         style="fill:#ce6ef0"
         width="34"
         height="28"
         x="15.96089"
         y="20.033144"
         rx="1.214"
         ry="1.273"
         id="rect3" />
      <path
         style="fill:#ffb94b;fill-rule:evenodd"
         d="m 19.093702,39.033141 c -1.067628,0 -2.112572,0.09875 -3.132812,0.28125 v 7.445312 c 0,0.703015 0.539025,1.270108 1.208984,1.273438 0.002,10e-6 0.0039,0 0.0059,0 h 17.785115 c -3.434666,-5.515948 -9.263346,-9 -15.867187,-9 z"
         id="path3" />
      <path
         style="opacity:0.6"
         d="m 34.062118,20.033141 c -0.0045,0.06052 0.0026,0.213618 0.02767,0.267968 0.08738,0.18984 0.350686,0.217267 0.686196,0.06836 0.299317,-0.13286 0.586519,-0.149903 0.639162,-0.03555 0.05264,0.114365 -0.05006,0.273012 -0.229655,0.352734 -0.428217,0.190082 -0.380135,0.264652 0.644694,0.976171 0.793388,0.550836 0.946362,0.568461 1.787433,0.196877 0.727051,-0.321205 0.923573,-0.32902 0.937989,-0.03827 0.01062,0.21275 0.143692,0.317101 0.318195,0.248828 0.165814,-0.06487 0.120509,0.06296 -0.09962,0.284375 -0.259154,0.260693 -0.303097,0.496985 -0.124504,0.667186 0.233489,0.222542 0.0215,-0.05501 -1.400064,0.575994 -1.822942,0.809181 -3.359968,2.306558 -4.448343,3.590468 C 32.124012,27.987215 30.851909,30.678295 31,31 c 0.04144,0.09005 0.421906,0.0097 0.843912,-0.177736 0.631033,-0.280105 0.765293,-0.460705 0.755373,-1.022655 l -0.01105,-0.683594 0.318195,0.459373 0.320967,0.462112 0.262856,-0.844924 c 0.245044,-0.787468 0.267639,-0.807615 0.373536,-0.314451 0.07032,0.32746 0.251768,0.517755 0.473144,0.503123 0.267002,-0.01766 0.344949,0.101597 0.315428,0.470312 -0.03593,0.448692 0.04443,0.45536 0.885417,0.08202 0.744761,-0.330594 0.701776,-0.761695 0.884545,-1.397499 l 0.224119,-0.790234 0.304364,0.617969 c 0.287401,0.587593 0.307005,0.590393 0.434405,0.0711 0.116726,-0.475648 0.154912,-0.500762 0.296061,-0.194147 0.117534,0.255293 0.349509,0.698934 0.843913,0.479472 0.635883,-0.282255 0.603553,-0.186954 -0.462076,1.421876 -0.627666,0.94762 -1.261366,3.121521 -1.718914,4.342798 -0.796314,2.125469 -1.643368,5.710521 -1.314288,5.564453 0.454433,-0.201729 2.365089,-1.896949 2.299314,-2.039843 -0.04229,-0.09184 -0.089,-0.478043 -0.105145,-0.858594 -0.02907,-0.684906 -0.02599,-0.689369 0.373535,-0.308984 0.564172,0.537139 1.021338,0.249307 1.001626,-0.631644 -0.01764,-0.784264 0.269901,-1.123826 0.509114,-0.604296 0.116216,0.252474 0.218139,0.120619 0.57552,-0.272264 0.32485,-0.357121 0.463315,-0.936868 0.246776,-1.407255 -0.266798,-0.579574 -0.255193,-0.612882 0.177076,-0.380074 0.489402,0.263566 0.57331,-0.06347 0.357066,-0.533204 -0.0819,-0.17793 0.08183,-0.320648 0.475912,-0.415628 0.329904,-0.0795 0.195007,-0.07058 0.186938,0.01917 -0.133683,1.485107 -0.158121,5.061801 -0.0415,6.392969 0.140441,1.603926 1.336363,4.507141 1.603265,4.38867 0.06462,-0.02867 0.408648,-0.998555 0.763672,-2.154686 0.4109,-1.338072 0.551441,-2.216256 0.381834,-2.419921 -0.196371,-0.23581 -0.137955,-0.38096 0.229655,-0.544142 0.579307,-0.257143 0.865884,-1.414827 0.448243,-1.81289 -0.203575,-0.194018 -0.167662,-0.275589 0.13005,-0.295312 0.515493,-0.03412 0.452514,-0.174849 -0.376303,-0.809374 -0.654117,-0.500763 -0.656903,-0.505312 -0.06917,-0.333594 0.327456,0.09565 0.66117,0.14504 0.741536,0.109351 0.230723,-0.102416 -0.193524,-0.869693 -0.500814,-0.905079 -0.152277,-0.01766 -0.325851,-0.129941 -0.381837,-0.251561 -0.06458,-0.14028 0.05999,-0.178252 0.340336,-0.106636 0.781819,0.199812 1.080388,-0.368132 0.55615,-1.058204 -0.254358,-0.334824 -0.598129,-0.674874 -0.763673,-0.754687 -0.210418,-0.101446 -0.120551,-0.187363 0.293294,-0.28711 0.360491,-0.08689 0.544425,-0.236707 0.475911,-0.385544 -0.06188,-0.134444 0.01062,-0.232948 0.157717,-0.216016 0.147071,0.01702 0.338243,-0.39964 0.426107,-0.924222 0.08785,-0.524576 0.219566,-0.981202 0.29053,-1.014451 1.998304,2.043686 2.786092,11.101509 3.128247,16.798828 h 1.000003 V 32.898376 c -1.012579,-2.13702 -2.082558,-3.974602 -3.04915,-4.954686 -1.209577,-1.226461 -1.265856,-1.406063 -0.345865,-1.129298 0.515183,0.15499 0.549503,0.125224 0.520178,-0.421095 -0.03005,-0.560202 -0.01084,-0.553876 0.456546,0.07931 0.381533,0.516861 0.815372,0.715995 2.008789,0.921482 0.154445,0.02658 0.265514,0.04013 0.409502,0.06287 V 22.4011 c -0.02524,1.08e-4 -0.0493,-0.003 -0.07469,-0.0028 l -1.062499,0.0082 0.794108,-0.358201 c 0.123356,-0.05562 0.238223,-0.121466 0.343076,-0.18866 V 21.30456 c 0,-0.171393 -0.03321,-0.33228 -0.09129,-0.48125 -0.0032,-0.0094 -0.0076,-0.01803 -0.01105,-0.02734 -0.187255,-0.448939 -0.613411,-0.762829 -1.112354,-0.762829 h -1.795737 l -2.291016,1.126562 -0.132813,-0.713671 c -0.01655,-0.08914 -0.04839,-0.305255 -0.0747,-0.412891 h -3.549966 c 0.0011,0.0031 8.27e-4,0.0079 0,0.0083 -0.0034,0.0014 -0.01636,-0.005 -0.02767,-0.0083 z m 5.990392,6.543361 c 0.237858,0.03106 0.274775,0.618212 0.0055,0.954296 -0.177076,0.221178 -0.383213,0.429556 -0.456543,0.46211 -0.190527,0.08456 0.144479,-1.299336 0.337567,-1.394534 0.04193,-0.02068 0.07945,-0.02632 0.113454,-0.02188 z"
         id="path4" />
      <path
         style="opacity:0.1;fill:#ffffff"
         d="m 17.175734,20.033141 c -0.672714,0 -1.214844,0.568347 -1.214844,1.273438 v 1 c 0,-0.705091 0.54213,-1.273438 1.214844,-1.273438 h 31.570311 c 0.672714,0 1.214844,0.568347 1.214844,1.273438 v -1 c 0,-0.705091 -0.54213,-1.273438 -1.214844,-1.273438 z"
         id="path6-6" />
    </g>
  </g>
</svg>
