<?xml version="1.0" encoding="UTF-8" standalone="no"?>
<svg
   width="62"
   height="62"
   version="1"
   id="svg7"
   sodipodi:docname="com.github.rickybas.date-countdown.svg"
   inkscape:version="1.4.2 (unknown)"
   xmlns:inkscape="http://www.inkscape.org/namespaces/inkscape"
   xmlns:sodipodi="http://sodipodi.sourceforge.net/DTD/sodipodi-0.dtd"
   xmlns:xlink="http://www.w3.org/1999/xlink"
   xmlns="http://www.w3.org/2000/svg"
   xmlns:svg="http://www.w3.org/2000/svg">
  <defs
     id="defs7">
    <linearGradient
       id="linearGradient7"
       inkscape:collect="always">
      <stop
         style="stop-color:#384850;stop-opacity:1;"
         offset="0"
         id="stop8" />
      <stop
         style="stop-color:#384850;stop-opacity:1;"
         offset="0.59162253"
         id="stop10" />
      <stop
         style="stop-color:#eff2f6;stop-opacity:1;"
         offset="0.92173076"
         id="stop11" />
      <stop
         style="stop-color:#eff2f6;stop-opacity:1;"
         offset="1"
         id="stop9" />
    </linearGradient>
    <linearGradient
       id="c-3"
       gradientUnits="userSpaceOnUse"
       x1="24.072048"
       x2="23.959682"
       y1="0.75082099"
       y2="46.056854">
      <stop
         offset="0"
         stop-color="#fff"
         id="stop3" />
      <stop
         offset="1"
         stop-color="#d9d9d9"
         id="stop4" />
    </linearGradient>
    <linearGradient
       id="b-6"
       gradientUnits="userSpaceOnUse"
       x1="29.203026"
       x2="34.121048"
       xlink:href="#a-7"
       y1="24.827356"
       y2="29.224836" />
    <linearGradient
       id="a-7">
      <stop
         offset="0"
         id="stop1" />
      <stop
         offset="1"
         stop-opacity="0"
         id="stop2" />
    </linearGradient>
    <linearGradient
       id="d"
       gradientUnits="userSpaceOnUse"
       x1="15.948756"
       x2="25.031786"
       xlink:href="#a-7"
       y1="23.618279"
       y2="33.69899" />
    <linearGradient
       id="e"
       gradientUnits="userSpaceOnUse"
       x1="21.990562"
       x2="29.320522"
       xlink:href="#a-7"
       y1="33.780373"
       y2="41.931858" />
    <linearGradient
       id="paint154_linear_890_11"
       x1="778"
       y1="812.29199"
       x2="788"
       y2="812.29199"
       gradientUnits="userSpaceOnUse"
       gradientTransform="translate(-751,-696)">
      <stop
         stop-color="#EFF2F6"
         id="stop1050" />
      <stop
         offset="0.600785"
         stop-color="#B7C6CD"
         id="stop1051" />
    </linearGradient>
    <linearGradient
       id="paint155_linear_890_11"
       x1="783"
       y1="813"
       x2="783"
       y2="817"
       gradientUnits="userSpaceOnUse"
       gradientTransform="translate(-751,-696)">
      <stop
         stop-color="#EFF2F6"
         id="stop1052" />
      <stop
         offset="0.734138"
         stop-color="#B7C6CD"
         id="stop1053" />
    </linearGradient>
    <radialGradient
       id="paint156_radial_890_11"
       cx="0"
       cy="0"
       r="1"
       gradientUnits="userSpaceOnUse"
       gradientTransform="matrix(27.999986,27.999976,-27.999986,27.999976,32.302392,33.999998)">
      <stop
         offset="0.60067803"
         stop-color="#B7C6CD"
         id="stop1054"
         style="stop-color:#384850;stop-opacity:1;" />
      <stop
         offset="0.876735"
         stop-color="#EFF2F6"
         id="stop1055" />
    </radialGradient>
    <linearGradient
       id="paint157_linear_890_11"
       x1="796.84485"
       y1="799.43359"
       x2="768.90088"
       y2="770.81476"
       gradientUnits="userSpaceOnUse"
       gradientTransform="matrix(1.1666666,0,0,1.1666668,-881.19764,-881.8333)">
      <stop
         offset="0.00000057"
         stop-color="#2E2E41"
         id="stop1056"
         style="stop-color:#495361;stop-opacity:1;" />
      <stop
         offset="0.711139"
         stop-color="#566C80"
         id="stop1057" />
    </linearGradient>
    <linearGradient
       id="paint158_linear_890_11"
       x1="792"
       y1="794"
       x2="774"
       y2="776"
       gradientUnits="userSpaceOnUse"
       gradientTransform="translate(-751,-696)">
      <stop
         offset="0.304478"
         stop-color="#2E2E41"
         id="stop1058" />
      <stop
         offset="1"
         stop-color="#566C80"
         id="stop1059" />
    </linearGradient>
    <linearGradient
       id="paint159_linear_890_11"
       x1="788"
       y1="790"
       x2="778"
       y2="780"
       gradientUnits="userSpaceOnUse"
       gradientTransform="translate(-751,-696)">
      <stop
         offset="0.391394"
         stop-color="#5200FF"
         id="stop1060" />
      <stop
         offset="1"
         stop-color="#0085FF"
         id="stop1061" />
    </linearGradient>
    <linearGradient
       id="paint160_linear_890_11"
       x1="784"
       y1="798"
       x2="782"
       y2="796"
       gradientUnits="userSpaceOnUse"
       gradientTransform="translate(-751,-696)">
      <stop
         stop-color="#FF7E07"
         id="stop1062" />
      <stop
         offset="1"
         stop-color="#FFE607"
         id="stop1063" />
    </linearGradient>
    <radialGradient
       inkscape:collect="always"
       xlink:href="#linearGradient7"
       id="radialGradient9"
       cx="32.302387"
       cy="34"
       fx="32.302387"
       fy="34"
       r="28"
       gradientUnits="userSpaceOnUse"
       gradientTransform="matrix(0.99999999,1,-1,0.99999999,34,-32.302387)" />
    <linearGradient
       id="paint0_linear_54_1196"
       x1="64"
       y1="120"
       x2="64"
       y2="8"
       gradientUnits="userSpaceOnUse"
       gradientTransform="matrix(0.28571429,0,0,0.28571429,12.714302,12.714286)">
      <stop
         stop-color="#5570FF"
         id="stop2-6" />
      <stop
         offset="1"
         stop-color="#4DD3FF"
         id="stop3-8" />
    </linearGradient>
    <linearGradient
       id="linear0"
       gradientUnits="userSpaceOnUse"
       x1="31.999998"
       y1="60"
       x2="31.999998"
       y2="3.999999"
       gradientTransform="matrix(0.75,0,0,0.75,8,47)">
      <stop
         offset="0"
         style="stop-color:rgb(0%,0%,0%);stop-opacity:0.2;"
         id="stop1-3" />
      <stop
         offset="1"
         style="stop-color:rgb(100%,100%,100%);stop-opacity:0;"
         id="stop2-67" />
    </linearGradient>
    <clipPath
       clipPathUnits="userSpaceOnUse"
       id="clipPath2411-2">
      <path
         style="color:#000000;font-style:normal;font-variant:normal;font-weight:normal;font-stretch:normal;font-size:medium;line-height:normal;font-family:sans-serif;font-variant-ligatures:normal;font-variant-position:normal;font-variant-caps:normal;font-variant-numeric:normal;font-variant-alternates:normal;font-feature-settings:normal;text-indent:0;text-align:start;text-decoration:none;text-decoration-line:none;text-decoration-style:solid;text-decoration-color:#000000;letter-spacing:normal;word-spacing:normal;text-transform:none;writing-mode:lr-tb;direction:ltr;text-orientation:mixed;dominant-baseline:auto;baseline-shift:baseline;text-anchor:start;white-space:normal;shape-padding:0;clip-rule:nonzero;display:inline;overflow:visible;visibility:visible;opacity:1;isolation:auto;mix-blend-mode:normal;color-interpolation:sRGB;color-interpolation-filters:linearRGB;solid-color:#000000;solid-opacity:1;vector-effect:none;fill:#9bdb4d;fill-opacity:1;fill-rule:evenodd;stroke:none;stroke-width:10;stroke-linecap:round;stroke-linejoin:round;stroke-miterlimit:4;stroke-dasharray:none;stroke-dashoffset:0;stroke-opacity:1;paint-order:markers fill stroke;color-rendering:auto;image-rendering:auto;shape-rendering:auto;text-rendering:auto;enable-background:accumulate"
         d="M 88.988281,9.4101562 A 11.073298,11.073298 0 0 0 77.914062,20.484375 11.073298,11.073298 0 0 0 88.988281,31.556641 11.073298,11.073298 0 0 0 94.070312,30.318359 C 107.54334,42.395375 112.70923,61.680304 106.30664,79.273438 98.813674,99.862731 77.699395,112.05462 56.125,108.25 36.799992,104.84206 22.219125,89.495596 19.386719,70.585938 c 3.699627,-0.221129 6.658189,-0.693619 7.082031,-1.427735 1.213086,-2.101127 -9.704686,-21.009765 -12.130859,-21.009765 -2.426173,0 -13.34394596,18.908638 -12.1308598,21.009765 0.4241723,0.734688 3.3881081,1.206834 7.0917969,1.427735 2.9168139,23.734346 21.0400999,43.270912 45.0878909,47.511722 26.288735,4.63598 52.186681,-10.3175 61.316401,-35.404301 7.92892,-21.787181 1.25176,-45.844204 -15.783198,-60.541015 A 11.073298,11.073298 0 0 0 100.06055,20.484375 11.073298,11.073298 0 0 0 88.988281,9.4101562 Z"
         id="path2413-7"
         inkscape:connector-curvature="0" />
    </clipPath>
  </defs>
  <sodipodi:namedview
     id="namedview7"
     pagecolor="#ffffff"
     bordercolor="#000000"
     borderopacity="0.25"
     inkscape:showpageshadow="2"
     inkscape:pageopacity="0.0"
     inkscape:pagecheckerboard="0"
     inkscape:deskcolor="#d1d1d1"
     inkscape:zoom="8.3306018"
     inkscape:cx="36.131843"
     inkscape:cy="34.631352"
     inkscape:window-width="1920"
     inkscape:window-height="998"
     inkscape:window-x="0"
     inkscape:window-y="0"
     inkscape:window-maximized="1"
     inkscape:current-layer="svg7" />
  <g
     id="g1"
     transform="translate(-1.3023872,-3)">
    <path
       d="m 60.302387,34 c 0,15.46415 -12.535828,28 -28.000002,28 C 16.838222,62 4.3023873,49.46415 4.3023873,34 4.3023873,18.535835 16.838222,6 32.302385,6 47.766559,6 60.302387,18.535835 60.302387,34 Z"
       id="path154"
       style="fill:url(#radialGradient9)" />
  </g>
  <g
     id="g2"
     transform="translate(-5.333,-61.333004)">
    <ellipse
       cx="36.333496"
       cy="92.333504"
       opacity="0.99"
       id="circle2"
       rx="23.333496"
       ry="23.3335"
       style="fill:#8d5fd3" />
    <g
       id="g937"
       transform="matrix(0.39624892,0,0,0.39624892,23.781564,82.695372)">
      <path
         transform="matrix(0.8640039,0,0,0.8640039,-22.416342,-30.169471)"
         inkscape:connector-curvature="0"
         clip-path="url(#clipPath2411-2)"
         style="color:#000000;font-style:normal;font-variant:normal;font-weight:normal;font-stretch:normal;font-size:medium;line-height:normal;font-family:sans-serif;font-variant-ligatures:normal;font-variant-position:normal;font-variant-caps:normal;font-variant-numeric:normal;font-variant-alternates:normal;font-feature-settings:normal;text-indent:0;text-align:start;text-decoration:none;text-decoration-line:none;text-decoration-style:solid;text-decoration-color:#000000;letter-spacing:normal;word-spacing:normal;text-transform:none;writing-mode:lr-tb;direction:ltr;text-orientation:mixed;dominant-baseline:auto;baseline-shift:baseline;text-anchor:start;white-space:normal;shape-padding:0;clip-rule:nonzero;display:inline;overflow:visible;visibility:visible;opacity:1;isolation:auto;mix-blend-mode:normal;color-interpolation:sRGB;color-interpolation-filters:linearRGB;solid-color:#000000;solid-opacity:1;vector-effect:none;fill:#ffffff;fill-opacity:1;fill-rule:evenodd;stroke:none;stroke-width:2;stroke-linecap:round;stroke-linejoin:round;stroke-miterlimit:4;stroke-dasharray:none;stroke-dashoffset:0;stroke-opacity:0.890196;paint-order:markers fill stroke;color-rendering:auto;image-rendering:auto;shape-rendering:auto;text-rendering:auto;enable-background:accumulate"
         d="M 88.988281,9.4101562 A 11.073298,11.073298 0 0 0 77.914062,20.484375 11.073298,11.073298 0 0 0 88.988281,31.556641 11.073298,11.073298 0 0 0 94.070312,30.318359 C 107.54334,42.395375 112.70923,61.680304 106.30664,79.273438 98.813674,99.862731 77.699395,112.05462 56.125,108.25 36.799992,104.84206 22.219125,89.495596 19.386719,70.585938 c 3.699627,-0.221129 6.658189,-0.693619 7.082031,-1.427735 1.213086,-2.101127 -9.704686,-21.009765 -12.130859,-21.009765 -2.426173,0 -13.34394596,18.908638 -12.1308598,21.009765 0.4241723,0.734688 3.3881081,1.206834 7.0917969,1.427735 2.9168139,23.734346 21.0400999,43.270912 45.0878909,47.511722 26.288735,4.63598 52.186681,-10.3175 61.316401,-35.404301 7.92892,-21.787181 1.25176,-45.844204 -15.783198,-60.541015 A 11.073298,11.073298 0 0 0 100.06055,20.484375 11.073298,11.073298 0 0 0 88.988281,9.4101562 Z"
         id="path2391-0" />
      <path
         style="color:#000000;font-style:normal;font-variant:normal;font-weight:normal;font-stretch:normal;font-size:medium;line-height:normal;font-family:sans-serif;font-variant-ligatures:normal;font-variant-position:normal;font-variant-caps:normal;font-variant-numeric:normal;font-variant-alternates:normal;font-feature-settings:normal;text-indent:0;text-align:start;text-decoration:none;text-decoration-line:none;text-decoration-style:solid;text-decoration-color:#000000;letter-spacing:normal;word-spacing:normal;text-transform:none;writing-mode:lr-tb;direction:ltr;text-orientation:mixed;dominant-baseline:auto;baseline-shift:baseline;text-anchor:start;white-space:normal;shape-padding:0;clip-rule:nonzero;display:inline;overflow:visible;visibility:visible;opacity:1;isolation:auto;mix-blend-mode:normal;color-interpolation:sRGB;color-interpolation-filters:linearRGB;solid-color:#000000;solid-opacity:1;vector-effect:none;fill:#ffffff;fill-opacity:1;fill-rule:nonzero;stroke:none;stroke-width:8.2642;stroke-linecap:round;stroke-linejoin:round;stroke-miterlimit:4;stroke-dasharray:none;stroke-dashoffset:0;stroke-opacity:1;color-rendering:auto;image-rendering:auto;shape-rendering:auto;text-rendering:auto;enable-background:accumulate"
         d="M 45.701875,-2.0971161 A 4.1325149,4.1325149 0 0 0 42.058334,0.02048488 L 15.888909,45.348248 a 4.1325149,4.1325149 0 1 0 7.157016,4.132098 L 49.215349,4.1525829 a 4.1325149,4.1325149 0 0 0 -3.513474,-6.249699 z M 16.023737,0.82152388 A 9.0550036,9.0550036 0 0 0 6.9696061,9.8756569 9.0550036,9.0550036 0 0 0 16.023737,18.931375 9.0550036,9.0550036 0 0 0 25.079456,9.8756569 9.0550036,9.0550036 0 0 0 16.023737,0.82152388 Z M 49.078933,30.569455 a 9.0548713,9.0550036 0 0 0 -9.054131,9.055719 9.0548713,9.0550036 0 0 0 9.054131,9.05572 9.0548713,9.0550036 0 0 0 9.054133,-9.05572 9.0548713,9.0550036 0 0 0 -9.054133,-9.055719 z"
         id="path2800-9"
         inkscape:connector-curvature="0" />
    </g>
  </g>
</svg>
