<?xml version="1.0" encoding="UTF-8" standalone="no"?>
<svg
   width="62"
   height="62"
   viewBox="0 0 16.404167 16.404167"
   version="1.1"
   id="svg1114"
   inkscape:version="1.4 (e7c3feb100, 2024-10-09)"
   sodipodi:docname="media-optical-audio.svg"
   xmlns:inkscape="http://www.inkscape.org/namespaces/inkscape"
   xmlns:sodipodi="http://sodipodi.sourceforge.net/DTD/sodipodi-0.dtd"
   xmlns="http://www.w3.org/2000/svg"
   xmlns:svg="http://www.w3.org/2000/svg"
   xmlns:rdf="http://www.w3.org/1999/02/22-rdf-syntax-ns#"
   xmlns:cc="http://creativecommons.org/ns#"
   xmlns:dc="http://purl.org/dc/elements/1.1/">
  <style
     type="text/css"
     id="current-color-scheme">.ColorScheme-Highlight { color:#5599ff; }
</style>
  <defs
     id="defs1108">
    <linearGradient
       id="linearGradient1167"
       x1="40.751999"
       x2="40.751999"
       y1="28.507999"
       y2="17.205999"
       gradientUnits="userSpaceOnUse">
      <stop
         style="stop-color:#84fb6e;stop-opacity:1"
         stop-color="#0ab816"
         offset="0"
         id="stop1163" />
      <stop
         style="stop-color:#0dd41a;stop-opacity:1"
         stop-color="#0cf36c"
         offset="1"
         id="stop1165" />
    </linearGradient>
    <linearGradient
       id="paint2_linear_77:3-7"
       x1="79.398094"
       y1="-197.84389"
       x2="82.901054"
       y2="-199.97827"
       gradientUnits="userSpaceOnUse"
       gradientTransform="matrix(1.9248511,0,0,1.7314595,-40.88733,399.61741)">
      <stop
         stop-color="#EBFAFF"
         stop-opacity="0.1"
         id="stop29-5-7"
         offset="0"
         style="stop-color:#c3c3c3;stop-opacity:1;" />
      <stop
         offset="1"
         stop-color="#70A9FF"
         stop-opacity="0.5"
         id="stop30-0-1"
         style="stop-color:#05c7ff;stop-opacity:0.80000001;" />
    </linearGradient>
    <linearGradient
       id="s"
       x1="-1129.7"
       x2="-1106.6"
       y1="944.53003"
       y2="962.73999"
       gradientTransform="matrix(0,0.40207404,0.41695174,0,-390.05093,457.06198)"
       gradientUnits="userSpaceOnUse">
      <stop
         stop-color="#BFBFBF"
         offset="0"
         id="stop5-6" />
      <stop
         stop-color="#fff"
         offset=".5"
         id="stop6-7" />
      <stop
         stop-color="#BFBFBF"
         offset="1"
         id="stop7-3" />
    </linearGradient>
    <linearGradient
       id="r"
       x1="-1196.7"
       x2="-1197.3"
       y1="860.46002"
       y2="818.53998"
       gradientTransform="matrix(0.13146866,0,0,0.12678374,-0.77503491,-0.56414762)"
       gradientUnits="userSpaceOnUse">
      <stop
         stop-color="#323232"
         offset="0"
         id="stop8-5"
         style="stop-color:#000000;stop-opacity:1;" />
      <stop
         offset="1"
         id="stop9-6" />
    </linearGradient>
  </defs>
  <sodipodi:namedview
     id="base"
     pagecolor="#e2e2e2"
     bordercolor="#666666"
     borderopacity="1.0"
     inkscape:pageopacity="0"
     inkscape:pageshadow="2"
     inkscape:zoom="9.7248729"
     inkscape:cx="44.525004"
     inkscape:cy="37.326966"
     inkscape:document-units="px"
     inkscape:current-layer="layer1"
     inkscape:document-rotation="0"
     showgrid="false"
     units="px"
     inkscape:window-width="1920"
     inkscape:window-height="994"
     inkscape:window-x="0"
     inkscape:window-y="0"
     inkscape:window-maximized="1"
     inkscape:object-paths="true"
     inkscape:snap-grids="true"
     inkscape:snap-intersection-paths="true"
     inkscape:snap-smooth-nodes="true"
     inkscape:snap-midpoints="true"
     inkscape:showpageshadow="2"
     inkscape:pagecheckerboard="0"
     inkscape:deskcolor="#d1d1d1">
    <inkscape:grid
       id="grid2"
       units="px"
       originx="0"
       originy="0"
       spacingx="0.26458333"
       spacingy="0.26458333"
       empcolor="#0099e5"
       empopacity="0.30196078"
       color="#0099e5"
       opacity="0.14902"
       empspacing="5"
       dotted="false"
       gridanglex="30"
       gridanglez="30"
       visible="false" />
  </sodipodi:namedview>
  <metadata
     id="metadata1111">
    <rdf:RDF>
      <cc:Work
         rdf:about="">
        <dc:format>image/svg+xml</dc:format>
        <dc:type
           rdf:resource="http://purl.org/dc/dcmitype/StillImage" />
      </cc:Work>
    </rdf:RDF>
  </metadata>
  <g
     inkscape:label="Layer 1"
     inkscape:groupmode="layer"
     id="layer1">
    <g
       id="g1"
       transform="translate(-0.07937355)">
      <path
         d="m 15.566082,8.202083 c 0,-4.0377961 -3.246832,-7.28462592 -7.2846255,-7.28462592 -4.0378851,0 -7.28462441,3.24682982 -7.28462441,7.28462592 0,4.037893 3.24692611,7.284627 7.28462441,7.284627 4.0379805,0 7.2846255,-3.246734 7.2846255,-7.284627 z m -4.619619,0 c 0,1.466817 -1.1687941,2.665078 -2.6651,2.665078 -1.5256202,0 -2.6650975,-1.2277862 -2.6650975,-2.665078 0,-1.466627 1.0807528,-2.6650791 2.6650975,-2.6650791 1.5843451,0 2.6651,1.2274971 2.6651,2.6650791 z"
         stroke="#999999"
         stroke-width="0.247414"
         id="path12"
         style="fill:url(#s)" />
      <path
         d="m 8.2923797,5.4409655 c -1.5215124,0 -2.756405,1.2348546 -2.756405,2.7563735 0,1.5214209 1.2348926,2.756375 2.756405,2.756375 1.521514,0 2.7564073,-1.2348581 2.7564073,-2.756375 0,-1.5214228 -1.2348933,-2.7563735 -2.7564073,-2.7563735 z m 0,1.3781382 c 0.7607469,0 1.3782027,0.6174554 1.3782027,1.3781373 0,0.7607604 -0.6174558,1.3781423 -1.3782027,1.3781423 -0.7607469,0 -1.3782025,-0.6174585 -1.3782025,-1.3781423 0,-0.7607585 0.6174556,-1.3781373 1.3782025,-1.3781373 z"
         enable-background="new    "
         fill="#323232"
         opacity="0.2"
         id="path13"
         style="stroke-width:0.93512" />
      <path
         d="m 8.2979813,10.944419 c -1.5267406,0 -2.7544443,-1.2276914 -2.7544443,-2.7544385 0,-1.5267472 1.2277037,-2.7544374 2.7544443,-2.7544374 1.5267408,0 2.7544467,1.2276902 2.7544467,2.7544374 0,1.5267471 -1.2277059,2.7544385 -2.7544467,2.7544385 z"
         enable-background="new    "
         fill="none"
         opacity="0.1"
         stroke-width="2.969"
         id="path14-7"
         style="opacity:0.304158;stroke:url(#r)" />
    </g>
    <g
       id="g2"
       transform="matrix(0.99665211,0,0,0.99665211,-7.8371566,4.0756257)">
      <ellipse
         cx="20.987406"
         cy="9.0346098"
         rx="2.5219865"
         ry="2.5219851"
         id="path4207-6"
         style="fill:#036b53;fill-opacity:1" />
      <path
         inkscape:label="Capa 1"
         inkscape:connector-curvature="0"
         id="path3763-3"
         d="m 20.068731,7.5538335 v 0.252198 1.836321 c -0.07428,-0.04306 -0.160155,-0.07093 -0.252199,-0.07093 -0.27857,0 -0.504396,0.225828 -0.504396,0.5043975 0,0.27857 0.225826,0.504397 0.504396,0.504397 0.278572,0 0.504397,-0.225827 0.504397,-0.504397 V 8.3104325 h 1.765389 v 1.079724 c -0.07428,-0.04306 -0.160154,-0.07093 -0.252198,-0.07093 -0.278571,0 -0.504396,0.225828 -0.504396,0.504397 0,0.2785705 0.225825,0.5043965 0.504396,0.5043965 0.27857,0 0.504397,-0.225826 0.504397,-0.5043965 v -2.017583 -0.252198 z m 0.252198,0.252198 h 1.765389 v 0.252199 h -1.765389 z"
         style="fill:#ffffff;stroke-width:1.19149" />
    </g>
    <path
       d="m 8.2186079,6.8791669 c 0.7306311,0 1.322918,0.5922864 1.322918,1.3229166 0,0.7306306 -0.592287,1.3229166 -1.322918,1.3229166 -0.730629,0 -1.322916,-0.592286 -1.322916,-1.3229166 0,-0.7306302 0.5922871,-1.3229166 1.322916,-1.3229166 z"
       id="path4"
       style="fill:#036b53;stroke-width:0.120266;fill-opacity:1" />
  </g>
</svg>
