<?xml version="1.0" encoding="UTF-8" standalone="no"?>
<svg
   clip-rule="evenodd"
   fill-rule="evenodd"
   stroke-linejoin="round"
   stroke-miterlimit="2"
   viewBox="0 0 62 62"
   version="1.1"
   id="svg3"
   sodipodi:docname="com.github.ryonakano.konbucase.svg"
   width="62"
   height="62"
   inkscape:version="1.4.2 (unknown)"
   xmlns:inkscape="http://www.inkscape.org/namespaces/inkscape"
   xmlns:sodipodi="http://sodipodi.sourceforge.net/DTD/sodipodi-0.dtd"
   xmlns:xlink="http://www.w3.org/1999/xlink"
   xmlns="http://www.w3.org/2000/svg"
   xmlns:svg="http://www.w3.org/2000/svg">
  <defs
     id="defs3">
    <linearGradient
       id="linearGradient1"
       inkscape:collect="always">
      <stop
         style="stop-color:#ffffff;stop-opacity:1;"
         offset="0"
         id="stop11" />
      <stop
         style="stop-color:#ffffff;stop-opacity:0.41176471;"
         offset="0.54761904"
         id="stop15" />
      <stop
         style="stop-color:#373e48;stop-opacity:1"
         offset="0.59523809"
         id="stop16" />
      <stop
         style="stop-color:#373e48;stop-opacity:1;"
         offset="1"
         id="stop13" />
    </linearGradient>
    <linearGradient
       id="linearGradient6">
      <stop
         offset="0"
         style="stop-color:#dbdbdb;stop-opacity:0;"
         id="stop5" />
      <stop
         offset="1"
         style="stop-color:#000000;stop-opacity:1;"
         id="stop6" />
    </linearGradient>
    <linearGradient
       id="linearGradient3"
       inkscape:collect="always">
      <stop
         style="stop-color:#4f4f4f;stop-opacity:1;"
         offset="0"
         id="stop3" />
      <stop
         style="stop-color:#4f4f4f;stop-opacity:1;"
         offset="0.57272726"
         id="stop8" />
      <stop
         style="stop-color:#8e8e8e;stop-opacity:1;"
         offset="0.57272726"
         id="stop10" />
      <stop
         style="stop-color:#8e8e8e;stop-opacity:1;"
         offset="1"
         id="stop4" />
    </linearGradient>
    <filter
       id="b-3-36"
       width="1.2393739"
       height="1.1966286"
       x="-0.11968695"
       y="-0.098314282"
       color-interpolation-filters="sRGB">
      <feGaussianBlur
         stdDeviation="1.147"
         id="feGaussianBlur7-6" />
    </filter>
    <filter
       id="b-3-36-6"
       width="1.2393739"
       height="1.1966286"
       x="-0.11968695"
       y="-0.098314282"
       color-interpolation-filters="sRGB">
      <feGaussianBlur
         stdDeviation="1.147"
         id="feGaussianBlur7-6-7" />
    </filter>
    <linearGradient
       inkscape:collect="always"
       xlink:href="#linearGradient3"
       id="linearGradient4"
       x1="3.5"
       y1="30.508772"
       x2="58.5"
       y2="30.508772"
       gradientUnits="userSpaceOnUse" />
    <linearGradient
       id="linearGradient4306">
      <stop
         offset="0"
         style="stop-color:#000000;stop-opacity:0;"
         id="stop12" />
      <stop
         offset="1"
         style="stop-color:#000000;stop-opacity:1;"
         id="stop14" />
    </linearGradient>
    <radialGradient
       xlink:href="#linearGradient4324"
       id="radialGradient4340-3"
       cx="-12"
       cy="12"
       fx="-12"
       fy="12"
       r="4"
       gradientUnits="userSpaceOnUse"
       gradientTransform="matrix(1.235291,0,0,1.235291,-1.3530054,1.3530246)" />
    <linearGradient
       id="linearGradient4324">
      <stop
         style="stop-color:#eff1f1;stop-opacity:1"
         offset="0"
         id="stop7" />
      <stop
         style="stop-color:#ececec;stop-opacity:1;"
         offset="1"
         id="stop9" />
    </linearGradient>
    <linearGradient
       id="linearGradient4167">
      <stop
         style="stop-color:#ffffff;stop-opacity:0"
         offset="0"
         id="stop2-3" />
      <stop
         style="stop-color:#ffffff;stop-opacity:1"
         offset="1"
         id="stop4-6" />
    </linearGradient>
    <radialGradient
       xlink:href="#linearGradient4324"
       id="radialGradient4188-1"
       gradientUnits="userSpaceOnUse"
       cx="-12"
       cy="12"
       fx="-12"
       fy="12"
       r="4"
       gradientTransform="matrix(1.235291,0,0,1.235291,-16.176495,16.176515)" />
    <radialGradient
       xlink:href="#linearGradient4324"
       id="radialGradient4202-2"
       gradientUnits="userSpaceOnUse"
       cx="-12"
       cy="12"
       fx="-12"
       fy="12"
       r="4"
       gradientTransform="matrix(1.235291,0,0,1.235291,-30.999989,31.000009)" />
    <linearGradient
       xlink:href="#linearGradient4816"
       id="linearGradient4503-0-3"
       y1="37"
       y2="4"
       x2="0"
       gradientUnits="userSpaceOnUse"
       gradientTransform="matrix(1.0499998,0,0,1.0499998,9.2502391,54.800003)" />
    <linearGradient
       id="linearGradient4816">
      <stop
         style="stop-color:#da4453"
         id="stop1439" />
      <stop
         offset="1"
         style="stop-color:#ff7336"
         id="stop1441" />
    </linearGradient>
    <linearGradient
       id="linearGradient4279">
      <stop
         id="stop1432" />
      <stop
         offset="1"
         style="stop-opacity:0"
         id="stop1434" />
    </linearGradient>
    <linearGradient
       id="c"
       y1="513.38"
       x1="399.98999"
       y2="537.38"
       x2="424.98999"
       gradientUnits="userSpaceOnUse"
       gradientTransform="translate(-464.04842,-560.44526)">
      <stop
         stop-color="#292c2f"
         id="stop12-3" />
      <stop
         offset="1"
         stop-opacity="0"
         id="stop14-6" />
    </linearGradient>
    <linearGradient
       id="b"
       y1="35"
       x1="42"
       y2="12"
       x2="22"
       gradientUnits="userSpaceOnUse"
       gradientTransform="translate(-75.064419,-59.059262)">
      <stop
         stop-color="#197cf1"
         id="stop7-7" />
      <stop
         offset="1"
         stop-color="#20bcfa"
         id="stop9-5" />
    </linearGradient>
    <linearGradient
       id="a-3"
       y1="35"
       x1="23"
       y2="13"
       x2="5"
       gradientUnits="userSpaceOnUse"
       gradientTransform="translate(-79.064419,-59.059262)">
      <stop
         stop-color="#c61423"
         id="stop2-5" />
      <stop
         offset="1"
         stop-color="#dc2b41"
         id="stop4-62" />
    </linearGradient>
    <linearGradient
       inkscape:collect="always"
       xlink:href="#linearGradient1"
       id="linearGradient13"
       x1="10"
       y1="31.600001"
       x2="52"
       y2="31.600001"
       gradientUnits="userSpaceOnUse" />
  </defs>
  <sodipodi:namedview
     id="namedview3"
     pagecolor="#ffffff"
     bordercolor="#000000"
     borderopacity="0.25"
     inkscape:showpageshadow="2"
     inkscape:pageopacity="0.0"
     inkscape:pagecheckerboard="0"
     inkscape:deskcolor="#d1d1d1"
     inkscape:zoom="11.019081"
     inkscape:cx="32.988232"
     inkscape:cy="34.349507"
     inkscape:window-width="1920"
     inkscape:window-height="998"
     inkscape:window-x="0"
     inkscape:window-y="0"
     inkscape:window-maximized="1"
     inkscape:current-layer="svg3"
     showgrid="true">
    <inkscape:grid
       id="grid1"
       units="px"
       originx="0"
       originy="0"
       spacingx="1"
       spacingy="1"
       empcolor="#0099e5"
       empopacity="0.30196078"
       color="#0099e5"
       opacity="0.14901961"
       empspacing="5"
       enabled="true"
       visible="true" />
  </sodipodi:namedview>
  <linearGradient
     id="a"
     x2="1"
     gradientTransform="matrix(0,-43.53155,43.53155,0,1192.407,51.589413)"
     gradientUnits="userSpaceOnUse">
    <stop
       stop-color="#161616"
       offset="0"
       id="stop1" />
    <stop
       stop-color="#343434"
       offset="1"
       id="stop2" />
  </linearGradient>
  <g
     id="g3"
     transform="translate(3.487626,-1.843205)" />
  <rect
     style="opacity:0.2;stroke-width:0.9823"
     width="55"
     height="55.017544"
     x="3.5"
     y="3.9824562"
     rx="8.25"
     ry="8.2526312"
     id="rect1-3" />
  <rect
     style="fill:url(#linearGradient4);stroke-width:0.9823"
     width="55"
     height="55.017544"
     x="3.5"
     y="3"
     rx="8.25"
     ry="8.2526312"
     id="rect2-5" />
  <path
     style="opacity:0.1;fill:#ffffff;stroke-width:0.9823"
     d="M 11.748466,3 C 7.1779651,3 3.4999999,6.6791384 3.4999999,11.251097 v 0.982456 c 0,-4.5719585 3.6779652,-8.2510968 8.2484661,-8.2510968 h 38.503068 c 4.5705,0 8.248466,3.6791383 8.248466,8.2510968 V 11.251097 C 58.5,6.6791384 54.822034,3 50.251534,3 Z"
     id="path4-6" />
  <path
     d="M 18.19512,9.6 10,34.092682 h 6.080317 l 1.492571,-4.084108 h 9.455599 0.002 l 1.476558,4.084108 h 6.078322 L 26.390297,9.6 Z m 18.873188,3.972485 c -0.657331,-0.02332 -1.058403,0.01197 -1.058403,0.01197 a 1.536739,1.5309455 0 1 0 0.22409,3.053611 c 0,0 4.864016,-0.258903 7.366806,3.065565 0.239098,0.317598 0.631261,1.83566 0.712273,3.161252 0.03378,0.552862 0.0073,0.606402 0.0039,1.022513 h -2.04878 a 1.536739,1.5309455 0 0 0 -1.000382,2.692842 l 3.58537,3.061584 a 1.536739,1.5309455 0 0 0 2.000764,0 l 3.58536,-3.061584 a 1.536739,1.5309455 0 0 0 -1.000337,-2.692842 h -2.056782 c 0.0049,-0.486334 0.03816,-0.551413 -0.002,-1.207883 -0.09429,-1.543707 -0.214224,-3.341505 -1.322491,-4.813631 -2.73267,-3.629812 -7.017439,-4.223553 -8.989431,-4.293392 z m -14.767626,1.767992 3.205227,9.565456 H 19.079461 Z M 44.679216,36.20549 c -0.90956,1.9e-5 -1.844932,0.0971 -2.805072,0.292999 -0.96012,0.186146 -2.170434,0.471095 -3.191214,0.853099 v 2.192541 c 2.547959,-1.227751 6.445363,-1.54796 9.049444,-0.01791 0.84895,0.675797 1.274459,1.329278 1.274481,2.573239 v 0.265103 h -3.707411 c -2.535931,-0.06619 -4.44662,0.470882 -5.73018,1.411202 -1.27346,0.940313 -1.908731,2.64144 -1.908731,4.492712 0,1.585899 0.508298,2.853926 1.528588,3.805057 1.03258,0.940929 2.41617,1.409206 4.15558,1.409206 1.37473,0 2.536697,-0.234109 3.487327,-0.705596 0.94859,-0.479656 1.459682,-1.218337 2.094802,-2.218452 v 2.924048 H 52 v -10.119571 -0.002 c -3.58e-4,-2.506436 -0.606229,-4.070114 -1.818691,-5.30397 -1.21268,-1.234168 -3.046223,-1.851686 -5.502093,-1.851705 z m -22.884724,0.948775 a 1.536739,1.5309455 0 0 0 -1.014384,0.368744 l -3.58537,3.061584 a 1.536739,1.5309455 0 0 0 1.000382,2.692841 h 2.056782 c -0.0049,0.486337 -0.03816,0.551415 0.002,1.207894 0.09434,1.543697 0.214228,3.341497 1.322505,4.81362 3.64355,4.839755 10.047824,4.281431 10.047824,4.281431 a 1.536739,1.5309455 0 1 0 -0.224075,-3.053613 c 0,0 -4.864016,0.258903 -7.366806,-3.065567 -0.239103,-0.317597 -0.631261,-1.835659 -0.712273,-3.161241 -0.03378,-0.552873 -0.0073,-0.606412 -0.0039,-1.022525 h 2.048785 a 1.536739,1.5309455 0 0 0 1.000373,-2.692841 L 22.78097,37.523007 a 1.536739,1.5309455 0 0 0 -0.98638,-0.368742 z m 24.641387,7.32309 h 2.568983 v 0.603941 c -2e-5,1.763069 -0.264561,3.482844 -1.204461,4.550525 -0.92994,1.057856 -2.169103,1.586592 -3.715413,1.586592 -1.12181,0 -2.010096,-0.278816 -2.667016,-0.837143 -0.64684,-0.568152 -0.970376,-1.332271 -0.970376,-2.29221 0,-1.204891 0.435308,-2.362687 1.304498,-2.862256 0.8693,-0.499551 2.429925,-0.749426 4.683785,-0.749449 z"
     style="fill:url(#linearGradient13);stroke-width:1.02247"
     id="path4-7" />
</svg>
