<?xml version="1.0" encoding="UTF-8" standalone="no"?>
<svg
   width="62"
   height="62"
   version="1.1"
   id="svg12"
   sodipodi:docname="com.github.rajkumaar23.badgie.svg"
   inkscape:version="1.4.2 (unknown)"
   xmlns:inkscape="http://www.inkscape.org/namespaces/inkscape"
   xmlns:sodipodi="http://sodipodi.sourceforge.net/DTD/sodipodi-0.dtd"
   xmlns="http://www.w3.org/2000/svg"
   xmlns:svg="http://www.w3.org/2000/svg">
  <defs
     id="defs12" />
  <sodipodi:namedview
     id="namedview12"
     pagecolor="#ffffff"
     bordercolor="#000000"
     borderopacity="0.25"
     inkscape:showpageshadow="2"
     inkscape:pageopacity="0.0"
     inkscape:pagecheckerboard="0"
     inkscape:deskcolor="#d1d1d1"
     showgrid="true"
     inkscape:zoom="8.4300387"
     inkscape:cx="34.460103"
     inkscape:cy="33.866986"
     inkscape:current-layer="svg12">
    <inkscape:grid
       id="grid12"
       units="px"
       originx="0"
       originy="0"
       spacingx="1"
       spacingy="1"
       empcolor="#0099e5"
       empopacity="0.30196078"
       color="#0099e5"
       opacity="0.14901961"
       empspacing="5"
       enabled="true"
       visible="true" />
  </sodipodi:namedview>
  <path
     style="opacity:0.2;stroke-width:0.971378"
     d="m 39.4375,33.566472 9.348682,18.675235 h -8.209006 l -4.895454,6.758624 -9.265083,-19.35185 z"
     id="path1" />
  <path
     style="fill:#aa87de;stroke-width:0.971378"
     d="m 39.4375,32.60096 9.348682,18.675235 h -8.209006 l -4.895454,6.758624 -9.265083,-19.35185 z"
     id="path2" />
  <path
     style="opacity:0.2;stroke-width:0.971378"
     d="m 25.153058,33.738488 -9.202902,18.503219 h 8.209006 l 4.724801,6.758624 9.2029,-19.228981 z"
     id="path3" />
  <path
     style="fill:#8d5fd3;stroke-width:0.971378"
     d="m 25.153058,32.772976 -9.202902,18.503219 h 8.209006 l 4.724801,6.758624 9.2029,-19.228983 z"
     id="path4" />
  <path
     style="opacity:0.2;stroke-width:0.971378"
     d="m 30.711043,4.8722948 c 0.491843,0 1.22961,-0.9363246 1.758339,-0.8998444 0.52873,0.036481 1.131237,1.0579256 1.623078,1.1308858 0.491845,0.072961 1.414048,-0.7052837 1.893593,-0.5958433 0.479549,0.1094414 0.934501,1.2160067 1.414048,1.3862474 0.479547,0.17024 1.500119,-0.4742426 1.967371,-0.2918415 0.46725,0.1824018 0.713169,1.3740872 1.15583,1.5929681 0.442658,0.2188811 1.573893,-0.2188809 1.991962,0 0.418064,0.2188811 0.479546,1.4592078 0.87302,1.7632086 0.393473,0.3040026 1.586191,0 1.955074,0.3526427 0.368881,0.3526418 0.233625,1.5321678 0.577914,1.8848098 0.34429,0.352641 1.561599,0.291842 1.869001,0.680964 0.307402,0.38912 0,1.532166 0.245922,1.945609 0.245921,0.413442 1.487824,0.535043 1.733743,0.972805 0.245922,0.437762 -0.282809,1.507849 -0.07377,1.95777 0.209033,0.449922 1.377159,0.778244 1.537008,1.216005 0.159841,0.437765 -0.516434,1.447049 -0.393475,1.921288 0.122978,0.474243 1.229605,0.997129 1.315679,1.471372 0.08608,0.474241 -0.762355,1.349766 -0.713171,1.836168 0.04918,0.486404 1.045164,1.216005 1.05746,1.665928 0.01231,0.449924 -0.983683,1.216003 -1.02057,1.690249 -0.03688,0.47424 0.848426,1.337606 0.762352,1.824009 -0.08608,0.486403 -1.15583,1.021446 -1.229605,1.495687 -0.07378,0.474245 0.602508,1.447048 0.442659,1.921294 -0.159841,0.474238 -1.315679,0.81472 -1.512416,1.216001 -0.196737,0.401285 0.356586,1.520011 0.122978,1.95777 -0.233625,0.437765 -1.438639,0.595845 -1.696855,1.009287 -0.258219,0.41344 0.06149,1.702408 -0.184429,2.042888 -0.245925,0.340486 -1.512416,0.352644 -1.844411,0.729607 -0.331992,0.376961 -0.172155,1.556488 -0.528731,1.884812 -0.356585,0.328319 -1.549303,0.109451 -1.942777,0.41344 -0.393475,0.304002 -0.418064,1.507846 -0.836132,1.787529 -0.418067,0.279682 -1.549305,-0.158075 -1.979664,0.08512 -0.430365,0.243203 -0.66399,1.422729 -1.118942,1.629448 -0.454955,0.206721 -1.512418,-0.401281 -1.979668,-0.243201 -0.46725,0.158076 -0.885317,1.301126 -1.377159,1.422728 -0.491841,0.121616 -1.414044,-0.644484 -1.905888,-0.547203 -0.491844,0.09728 -1.094351,1.118725 -1.586192,1.216005 -0.491842,0.09728 -1.291089,-0.863362 -1.795226,-0.851202 -0.504138,0.01217 -1.229607,0.936322 -1.758335,0.899845 -0.528732,-0.0365 -1.13124,-1.057928 -1.623081,-1.130888 -0.491843,-0.07296 -1.414047,0.705284 -1.893593,0.595845 -0.479546,-0.109452 -0.934502,-1.216009 -1.414048,-1.386251 -0.479547,-0.17024 -1.50012,0.474246 -1.967371,0.291844 -0.46725,-0.182386 -0.713169,-1.374088 -1.155829,-1.592969 -0.44266,-0.218881 -1.573894,0.218881 -1.99196,0 -0.418067,-0.218881 -0.479548,-1.459207 -0.87302,-1.763209 -0.393475,-0.304001 -1.586192,0 -1.955074,-0.352644 -0.368904,-0.352642 -0.233648,-1.532168 -0.577937,-1.884809 -0.34429,-0.35264 -1.549304,-0.291842 -1.869002,-0.680963 -0.319697,-0.389122 0,-1.53217 -0.24592,-1.945613 -0.24593,-0.413433 -1.487835,-0.535031 -1.733754,-0.972793 -0.245922,-0.437766 0.282808,-1.507851 0.07377,-1.957773 C 12.094802,33.217402 10.926677,32.88908 10.766828,32.451316 10.606979,32.013555 11.283262,31.00427 11.160302,30.530027 11.037342,30.055784 9.9306962,29.54506 9.8446233,29.058659 9.7585553,28.572255 10.606979,27.70889 10.557795,27.22249 10.508605,26.736088 9.5126298,26.006481 9.5003338,25.556561 c -0.012294,-0.449922 0.9836842,-1.216006 1.0205732,-1.690248 0.03689,-0.474244 -0.8484284,-1.33761 -0.7623555,-1.81185 0.086068,-0.474242 1.1558295,-1.033607 1.2296055,-1.507849 0.07377,-0.474243 -0.614802,-1.447047 -0.454954,-1.921289 0.159849,-0.474242 1.315678,-0.814724 1.512415,-1.276807 0.196738,-0.462082 -0.356585,-1.520007 -0.122961,-1.957769 0.233626,-0.437762 1.43864,-0.595843 1.696858,-1.009286 0.258216,-0.413441 -0.09838,-1.568648 0.209033,-1.95777 0.307401,-0.38912 1.512414,-0.35264 1.844409,-0.717442 0.331992,-0.364803 0.159848,-1.653769 0.541027,-1.9699314 0.381177,-0.3161613 1.549303,-0.10944 1.942777,-0.4134416 0.393473,-0.3040016 0.418066,-1.5078478 0.83613,-1.7875293 0.418067,-0.2796813 1.549307,0.1580804 1.979666,-0.08512 0.430363,-0.2432011 0.663989,-1.4227275 1.118942,-1.6294484 0.454955,-0.2067212 1.512413,0.401282 1.979667,0.2432011 0.467248,-0.1580822 0.897611,-1.3011267 1.377158,-1.4227272 0.479546,-0.1216011 1.389454,0.6444833 1.832113,0.547203 0.442659,-0.09728 1.09435,-1.1187261 1.586193,-1.2160064 0.491841,-0.09728 1.340271,0.9120046 1.844407,0.899844 z"
     id="path5" />
  <path
     style="fill:#373e48;stroke-width:0.971378"
     d="m 30.711043,3.9067824 c 0.491843,0 1.22961,-0.9363246 1.758339,-0.8998444 0.52873,0.036481 1.131237,1.0579256 1.623078,1.1308858 0.491845,0.072961 1.414048,-0.7052837 1.893593,-0.5958433 0.479549,0.1094414 0.934501,1.2160067 1.414048,1.3862473 0.479547,0.17024 1.500119,-0.4742425 1.967371,-0.2918414 0.46725,0.1824018 0.713169,1.3740872 1.15583,1.5929681 0.442658,0.218881 1.573893,-0.2188809 1.991962,0 0.418064,0.218881 0.479546,1.4592078 0.87302,1.7632091 0.393473,0.3040019 1.586191,0 1.955074,0.3526421 0.368881,0.3526416 0.233625,1.5321682 0.577914,1.8848103 0.34429,0.352641 1.561599,0.29184 1.869001,0.680963 0.307402,0.389121 0,1.532167 0.245922,1.945609 0.245921,0.413443 1.487824,0.535042 1.733743,0.972805 0.245922,0.437763 -0.282809,1.507849 -0.07377,1.957771 0.209033,0.449922 1.377159,0.778243 1.537008,1.216005 0.159841,0.437764 -0.516434,1.447049 -0.393475,1.921287 0.122978,0.474244 1.229605,0.997129 1.315679,1.471372 0.08608,0.474242 -0.762355,1.349767 -0.713171,1.836169 0.04918,0.486403 1.045164,1.216004 1.05746,1.665928 0.01231,0.449923 -0.983683,1.216003 -1.02057,1.690248 -0.03688,0.474241 0.848426,1.337607 0.762352,1.824009 -0.08608,0.486404 -1.15583,1.021447 -1.229605,1.495688 -0.07378,0.474244 0.602508,1.447048 0.442659,1.921293 -0.159841,0.474239 -1.315679,0.814721 -1.512416,1.216002 -0.196737,0.401284 0.356586,1.52001 0.122978,1.95777 -0.233625,0.437763 -1.438639,0.595845 -1.696855,1.009286 -0.258219,0.413441 0.06149,1.702409 -0.184429,2.042889 -0.245925,0.340486 -1.512416,0.352644 -1.844411,0.729607 -0.331992,0.376961 -0.172155,1.556487 -0.528731,1.884811 -0.356585,0.32832 -1.549303,0.109452 -1.942777,0.413441 -0.393475,0.304001 -0.418064,1.507845 -0.836132,1.787528 -0.418067,0.279682 -1.549305,-0.158074 -1.979664,0.08512 -0.430365,0.243202 -0.66399,1.422729 -1.118942,1.629448 -0.454955,0.206721 -1.512418,-0.401281 -1.979668,-0.243201 -0.46725,0.158075 -0.885317,1.301126 -1.377159,1.422727 -0.491841,0.121617 -1.414044,-0.644483 -1.905888,-0.547203 -0.491844,0.09729 -1.094351,1.118726 -1.586192,1.216006 -0.491842,0.09728 -1.291089,-0.863363 -1.795226,-0.851203 -0.504138,0.01217 -1.229607,0.936323 -1.758335,0.899845 -0.528732,-0.0365 -1.13124,-1.057927 -1.623081,-1.130887 -0.491843,-0.07296 -1.414047,0.705284 -1.893593,0.595844 -0.479546,-0.109451 -0.934502,-1.216008 -1.414048,-1.38625 -0.479547,-0.17024 -1.50012,0.474245 -1.967371,0.291843 -0.46725,-0.182386 -0.713169,-1.374087 -1.155829,-1.592969 -0.44266,-0.218881 -1.573894,0.218882 -1.99196,0 -0.418067,-0.218881 -0.479548,-1.459206 -0.87302,-1.763208 -0.393475,-0.304001 -1.586192,0 -1.955074,-0.352644 -0.368904,-0.352642 -0.233648,-1.532169 -0.577937,-1.88481 -0.34429,-0.35264 -1.549304,-0.291841 -1.869002,-0.680962 -0.319697,-0.389123 0,-1.53217 -0.24592,-1.945613 -0.24593,-0.413433 -1.487835,-0.535032 -1.733754,-0.972794 -0.245922,-0.437765 0.282808,-1.50785 0.07377,-1.957772 -0.209037,-0.449925 -1.377162,-0.778248 -1.537011,-1.216011 -0.159849,-0.437762 0.516434,-1.447046 0.393474,-1.92129 -0.12296,-0.474243 -1.2296058,-0.984966 -1.3156787,-1.471367 -0.086068,-0.486405 0.7623557,-1.349769 0.7131717,-1.836169 -0.04919,-0.486404 -1.0451652,-1.216009 -1.0574612,-1.66593 -0.012294,-0.449921 0.9836842,-1.216005 1.0205732,-1.690249 0.03689,-0.474242 -0.8484284,-1.337608 -0.7623555,-1.811849 0.086068,-0.474241 1.1558295,-1.033606 1.2296055,-1.507848 0.07377,-0.474244 -0.614802,-1.447047 -0.454954,-1.921289 0.159849,-0.474243 1.315678,-0.814725 1.512415,-1.276807 0.196738,-0.462082 -0.356585,-1.520007 -0.122961,-1.957769 0.233626,-0.437763 1.43864,-0.595844 1.696858,-1.009286 0.258216,-0.413441 -0.09838,-1.568648 0.209033,-1.95777 0.307401,-0.38912 1.512414,-0.352641 1.844409,-0.717443 0.331992,-0.364802 0.159848,-1.6537686 0.541027,-1.9699303 0.381177,-0.3161617 1.549303,-0.1094409 1.942777,-0.4134422 0.393473,-0.3040013 0.418066,-1.5078477 0.83613,-1.7875291 0.418067,-0.2796814 1.549307,0.1580803 1.979666,-0.08512 0.430363,-0.2432011 0.663989,-1.4227274 1.118942,-1.6294484 0.454955,-0.2067212 1.512413,0.401282 1.979667,0.2432011 0.467248,-0.1580822 0.897611,-1.3011267 1.377158,-1.4227272 0.479546,-0.1216011 1.389454,0.6444833 1.832113,0.5472031 0.442659,-0.09728 1.09435,-1.1187261 1.586193,-1.2160065 0.491841,-0.09728 1.340271,0.9120046 1.844407,0.899844 z"
     id="path6" />
  <path
     style="opacity:0.2;stroke-width:0.971378"
     d="M 46.636206,25.207213 A 15.636201,15.448281 0 1 1 31.000005,9.7589342 15.636201,15.448281 0 0 1 46.636206,25.207213 Z"
     id="path7" />
  <path
     style="fill:#8d5fd3;stroke-width:0.971378"
     d="M 46.636206,24.241701 A 15.636201,15.448281 0 1 1 31.000005,8.7934216 15.636201,15.448281 0 0 1 46.636206,24.241701 Z"
     id="path8" />
  <path
     style="opacity:0.2;fill:#ffffff;stroke-width:0.971378"
     d="M 31.000006,8.7931478 A 15.636201,15.448281 0 0 0 15.4687,24.971311 15.636201,15.448281 0 0 1 31.000006,9.7586706 15.636201,15.448281 0 0 1 46.609569,24.358431 15.636201,15.448281 0 0 0 46.636291,24.241512 15.636201,15.448281 0 0 0 31.000006,8.7931478 Z"
     id="path11" />
  <path
     style="opacity:0.1;fill:#ffffff;stroke-width:0.971378"
     d="M 28.866049,3.0075545 C 28.374207,3.1048348 27.722557,4.126607 27.279898,4.2238868 26.837239,4.3211671 25.927067,3.5535219 25.447521,3.675123 24.967974,3.7967234 24.538577,4.9408096 24.071329,5.0988918 23.604076,5.2569727 22.546936,4.6489041 22.091981,4.8556254 21.637028,5.0623463 21.403829,6.2417439 20.973466,6.484945 20.543107,6.7281458 19.410276,6.290124 18.992209,6.569806 18.574145,6.8494874 18.549659,8.0535304 18.156187,8.3575317 17.762712,8.661533 16.59428,8.4543577 16.213104,8.770519 c -0.38118,0.3161617 -0.208178,1.605845 -0.54017,1.970646 -0.331995,0.364803 -1.536428,0.32748 -1.843829,0.7166 -0.200996,0.254423 -0.125712,0.828318 -0.116433,1.316278 0.01726,-0.140999 0.04979,-0.2664 0.116433,-0.350756 0.307401,-0.38912 1.511834,-0.351796 1.843829,-0.716599 0.331992,-0.364802 0.15899,-1.654485 0.54017,-1.9706463 0.381176,-0.3161617 1.549608,-0.108986 1.943083,-0.4129873 0.393472,-0.3040013 0.417958,-1.5080443 0.836022,-1.7877257 0.418067,-0.2796813 1.550898,0.1583404 1.981257,-0.084861 0.430363,-0.243201 0.663562,-1.4225987 1.118515,-1.6293196 0.454955,-0.2067212 1.512095,0.4013473 1.979348,0.2432665 0.467248,-0.1580823 0.896645,-1.3021684 1.376192,-1.4237689 0.479546,-0.1216012 1.389718,0.6441584 1.832377,0.5468781 0.442659,-0.09728 1.094309,-1.1171662 1.586151,-1.2144466 0.491842,-0.09728 1.341603,0.9116808 1.845739,0.8995202 0.491843,0 1.229208,-0.9360003 1.757937,-0.8995202 0.52873,0.036481 1.130576,1.056626 1.622417,1.1295862 0.491844,0.072961 1.413913,-0.7053489 1.893456,-0.5959085 0.47955,0.1094414 0.934819,1.2158124 1.414367,1.3860531 0.479546,0.1702401 1.500645,-0.4728123 1.967897,-0.2904111 0.46725,0.1824017 0.712118,1.3727229 1.154779,1.5916039 0.442659,0.218881 1.574641,-0.218881 1.99271,0 0.418064,0.218881 0.478814,1.4592092 0.872288,1.7632105 0.393473,0.3040019 1.587561,0 1.956444,0.352642 0.368882,0.3526416 0.232146,1.5331447 0.576436,1.8857867 0.344289,0.352641 1.563149,0.291647 1.870552,0.680769 0.307401,0.389121 -0.0016,1.53269 0.244317,1.946131 0.241648,0.406261 1.440885,0.532779 1.715944,0.952322 0.07301,-0.368547 0.13888,-0.731538 0.01909,-0.944778 C 49.5245,13.392322 48.281307,13.27046 48.035387,12.857018 47.789465,12.443576 48.098469,11.300007 47.79107,10.910886 47.483668,10.521764 46.264808,10.582759 45.920519,10.230117 45.576229,9.8774752 45.712965,8.6969722 45.344083,8.3443306 44.9752,7.9916884 43.781112,8.2956904 43.387639,7.9916885 42.994165,7.6876872 42.933415,6.447359 42.515351,6.228478 c -0.418069,-0.2188809 -1.550051,0.218881 -1.99271,0 C 40.07998,6.0095971 39.835112,4.8192758 39.367862,4.6368741 38.90061,4.454473 37.879511,5.0975253 37.399965,4.9272853 36.920417,4.7570445 36.465148,3.6506735 35.985598,3.5412321 35.506055,3.4317917 34.583986,4.2101014 34.092142,4.1371407 33.600301,4.0641805 32.998455,3.0440358 32.469725,3.0075545 31.940996,2.9710743 31.203631,3.9070747 30.711788,3.9070747 30.207652,3.9192352 29.357891,2.9102748 28.866049,3.0075545 Z M 13.703128,13.109713 c -0.01362,0.119689 -0.03558,0.228002 -0.08399,0.305497 -0.258218,0.413442 -1.463232,0.573019 -1.696858,1.010782 -0.111547,0.209015 -0.04178,0.560853 0.03817,0.920264 0.291568,-0.40241 1.41,-0.567347 1.658684,-0.965523 0.161932,-0.259276 0.09024,-0.800186 0.08399,-1.27102 z m 36.032935,2.730619 c -0.07024,0.353462 -0.137816,0.702375 -0.04009,0.912722 0.17911,0.385515 1.058872,0.681104 1.408641,1.03341 0.107628,-0.305526 0.195414,-0.597653 0.127884,-0.782601 -0.153289,-0.419798 -1.223679,-0.741269 -1.496441,-1.163531 z m -37.745062,0.624195 c -0.286609,0.421451 -1.308022,0.749842 -1.458267,1.19559 -0.0653,0.193742 0.02172,0.475343 0.129793,0.767515 0.348198,-0.377113 1.215549,-0.68343 1.383827,-1.07867 0.08906,-0.209177 0.02042,-0.543857 -0.05535,-0.884435 z m 38.980008,2.691018 c -0.09749,0.280636 -0.179437,0.549466 -0.131703,0.733572 0.09513,0.36684 0.77579,0.762764 1.120423,1.142786 0.125582,-0.237624 0.227559,-0.464934 0.196599,-0.63551 C 52.084,19.9979 51.295418,19.56501 50.971009,19.155545 Z m -40.134787,0.716599 c -0.313252,0.402016 -1.0094062,0.836001 -1.0784307,1.216333 -0.030442,0.167731 0.07352,0.389771 0.2023248,0.620423 0.3358859,-0.386218 0.9723629,-0.798838 1.0288039,-1.161644 0.02688,-0.172749 -0.05512,-0.418253 -0.152698,-0.675112 z m 40.785662,2.75702 c -0.109052,0.210814 -0.19525,0.411073 -0.17942,0.567622 0.03446,0.340814 0.524528,0.797732 0.82457,1.197474 0.132034,-0.18279 0.236694,-0.356039 0.232864,-0.495962 -0.0093,-0.339016 -0.577629,-0.836227 -0.878014,-1.269134 z m -41.291475,0.692084 c -0.297961,0.432795 -0.8393924,0.93623 -0.8302958,1.269134 0.00371,0.134668 0.1046947,0.298801 0.2328643,0.469561 0.2925255,-0.404975 0.7628875,-0.866945 0.7883045,-1.193703 0.01164,-0.149665 -0.07834,-0.342279 -0.190873,-0.544992 z m 41.339194,2.813594 c -0.104319,0.151697 -0.181304,0.295613 -0.190874,0.418644 -0.024,0.308574 0.329756,0.777994 0.564983,1.205018 0.101333,-0.11686 0.178514,-0.234001 0.198508,-0.346985 0.05886,-0.33264 -0.328516,-0.836461 -0.572617,-1.276677 z m -41.293385,0.688312 c -0.22982,0.441159 -0.5908491,0.939574 -0.5325346,1.269134 0.019321,0.109168 0.095215,0.220968 0.1946906,0.331898 0.223546,-0.424016 0.550797,-0.888509 0.519173,-1.201245 -0.01219,-0.120547 -0.08222,-0.257326 -0.181329,-0.399787 z m 40.785663,2.764563 c -0.07624,0.09693 -0.136311,0.191683 -0.15079,0.284753 -0.04344,0.279193 0.164008,0.727118 0.316849,1.148444 0.05687,-0.06224 0.103384,-0.125319 0.125977,-0.192349 0.101201,-0.300249 -0.125472,-0.793964 -0.292036,-1.240848 z m -40.132878,0.712828 c -0.153595,0.441784 -0.359162,0.91869 -0.261496,1.186159 0.02288,0.06266 0.06945,0.122177 0.127885,0.181035 0.147124,-0.417639 0.336324,-0.863246 0.265313,-1.137129 -0.01964,-0.07574 -0.07003,-0.152702 -0.131702,-0.230065 z m 38.972372,2.632557 c -0.02047,0.02573 -0.04632,0.05112 -0.05917,0.07732 -0.104341,0.212825 -0.0024,0.625596 0.08589,1.033412 0.01031,-0.01448 0.02819,-0.02636 0.03627,-0.04149 0.124988,-0.234214 0.02716,-0.659338 -0.06298,-1.069241 z m -37.737426,0.680769 c -0.08001,0.402654 -0.165332,0.813463 -0.03436,1.046612 0.0043,0.0076 0.01419,0.01328 0.01909,0.02074 0.07698,-0.388669 0.162741,-0.783415 0.05535,-1.014553 -0.0086,-0.01846 -0.02841,-0.03473 -0.04009,-0.05281 z m 36.011938,2.723076 c -0.01188,0.122091 -0.01052,0.262645 -0.0076,0.405445 0.01179,-0.117965 0.01121,-0.259922 0.0076,-0.405445 z"
     id="path12" />
  <g
     id="g1"
     transform="translate(0.200219,-0.22625578)">
    <path
       style="opacity:0.2"
       d="m 17.800781,22.226453 v 7 h 2.234375 c 0.322954,-0.008 0.635829,-0.09305 0.908203,-0.246094 0.266359,-0.140434 0.484083,-0.342139 0.628906,-0.583984 0.181528,-0.36042 0.255543,-0.75578 0.214844,-1.148438 0.01789,-0.16025 0.01789,-0.32217 0,-0.482422 -0.04111,-0.244274 -0.133938,-0.479149 -0.273437,-0.693359 -0.14957,-0.239081 -0.386412,-0.426907 -0.671875,-0.533203 0.158141,-0.06159 0.299497,-0.15351 0.414062,-0.267578 0.29005,-0.311451 0.442766,-0.704766 0.429688,-1.107422 0.0017,-0.250662 -0.03648,-0.49887 -0.113282,-0.740234 -0.108597,-0.353255 -0.354873,-0.663215 -0.695312,-0.873047 -0.384802,-0.218546 -0.833215,-0.331079 -1.291016,-0.324219 z m 6.222656,0 -1.222656,7 h 0.90625 l 0.265625,-1 h 1.128906 l 0.253907,1 h 0.945312 l -1.169922,-7 z m 10.742188,0 c -1.014805,0 -1.971948,0.673596 -1.964844,1.646484 v 3.72461 c 0,0.90061 0.89549,1.628906 2,1.628906 0.528275,0.0033 1.037822,-0.169024 1.410156,-0.474609 0.384426,-0.303024 0.596646,-0.718352 0.589844,-1.154297 v -2.371094 h -2.011719 v 1 h 1 v 1.359375 c 0,0.325073 -0.624767,0.587891 -1.023437,0.587891 C 34.570147,28.176719 34.13683,28.113779 34,27.999891 33.868761,27.888475 33.798516,27.7403 33.800781,27.585828 v -3.744141 c 1.41e-4,-0.154109 0.07008,-0.299598 0.199219,-0.412109 0.13684,-0.113881 0.570141,-0.180765 0.765625,-0.177734 0.191939,-0.0028 0.676234,0.06435 0.808594,0.177734 0.136679,0.109245 0.215325,0.256051 0.214843,0.412109 v 0.384766 h 1.011719 v -0.353516 c 0.0056,-0.433879 -0.205445,-0.853589 -0.582031,-1.160156 -0.394206,-0.324146 -0.874296,-0.476311 -1.351563,-0.486328 -0.03282,-6.89e-4 -0.06883,0 -0.101562,0 z m 3.035156,0 v 6.996094 h 1 v -6.996094 z m -10,0.0039 v 6.9961 h 2 c 0.530416,0.0052 1.039173,-0.17517 1.402344,-0.496094 0.387517,-0.309883 0.603764,-0.738934 0.597656,-1.185547 v -3.644531 c 0.005,-0.444512 -0.206236,-0.872055 -0.585938,-1.185547 -0.36978,-0.317627 -0.882017,-0.492631 -1.414062,-0.484375 z m 12,0 v 6.9961 h 4 v -1 H 40.8125 v -2 h 1.988281 v -1 h -2.011719 v -2 h 2.933594 v -0.996094 z m -11,0.9961 h 1.023438 c 0.540362,-1.91e-4 0.978281,0.278535 0.976562,0.621094 v 3.761718 c -1.08e-4,0.163638 -0.104522,0.321132 -0.289062,0.435547 -0.177781,0.120104 -0.427777,0.185747 -0.6875,0.181641 h -1.023438 z m -10,0.002 h 0.748047 c 0.334344,-0.0117 0.659945,0.07337 0.890625,0.230469 0.262176,0.207905 0.389104,0.472739 0.355469,0.740234 0.0058,0.164104 -0.02697,0.327106 -0.09961,0.484375 -0.12989,0.335944 -0.612496,0.56467 -1.146484,0.542922 h -0.748047 z m 5.742188,0.601516 0.394531,3.396484 h -0.804688 z m -4.986329,2.396484 c 0.334645,-0.0053 0.657027,0.08213 0.873047,0.238281 0.272797,0.238607 0.401165,0.525436 0.365235,0.814453 -0.0025,0.141355 -0.04172,0.281784 -0.115235,0.416016 -0.140083,0.324005 -0.636724,0.545803 -1.191406,0.53125 h -0.6875 v -1.998047 h 0.6875 c 0.0224,-0.0012 0.04605,-0.0016 0.06836,-0.002 z"
       id="path9" />
    <path
       style="fill:#ffffff"
       d="m 17.800781,21.226562 v 7 h 2.234375 c 0.322954,-0.008 0.635829,-0.09305 0.908203,-0.246094 0.266359,-0.140434 0.484083,-0.342139 0.628906,-0.583984 0.181528,-0.36042 0.255543,-0.75578 0.214844,-1.148438 0.01789,-0.16025 0.01789,-0.32217 0,-0.482422 -0.04111,-0.244274 -0.133938,-0.479149 -0.273437,-0.693359 -0.14957,-0.239081 -0.386412,-0.426907 -0.671875,-0.533203 0.158141,-0.06159 0.299497,-0.15351 0.414062,-0.267578 0.29005,-0.311451 0.442766,-0.704766 0.429688,-1.107422 0.0017,-0.250662 -0.03648,-0.49887 -0.113282,-0.740234 -0.108597,-0.353255 -0.354873,-0.663215 -0.695312,-0.873047 -0.384802,-0.218546 -0.833215,-0.331079 -1.291016,-0.324219 z m 6.222656,0 -1.222656,7 h 0.90625 l 0.265625,-1 h 1.128906 l 0.253907,1 h 0.945312 l -1.169922,-7 z m 10.742188,0 c -1.014805,0 -1.971948,0.673596 -1.964844,1.646484 v 3.72461 c 0,0.90061 0.89549,1.628906 2,1.628906 0.528275,0.0033 1.037822,-0.169024 1.410156,-0.474609 0.384426,-0.303024 0.596646,-0.718352 0.589844,-1.154297 v -2.371094 h -2.011719 v 1 h 1 v 1.359375 c 0,0.325073 -0.624767,0.587891 -1.023437,0.587891 C 34.570147,27.176828 34.13683,27.113888 34,27 33.868761,26.888584 33.798516,26.740409 33.800781,26.585937 v -3.744141 c 1.41e-4,-0.154109 0.07008,-0.299598 0.199219,-0.412109 0.13684,-0.113881 0.570141,-0.180765 0.765625,-0.177734 0.191939,-0.0028 0.676234,0.06435 0.808594,0.177734 0.136679,0.109245 0.215325,0.256051 0.214843,0.412109 v 0.384766 h 1.011719 v -0.353516 c 0.0056,-0.433879 -0.205445,-0.853589 -0.582031,-1.160156 -0.394206,-0.324146 -0.874296,-0.476311 -1.351563,-0.486328 -0.03282,-6.89e-4 -0.06883,0 -0.101562,0 z m 3.035156,0 v 6.996094 h 1 v -6.996094 z m -10,0.0039 v 6.9961 h 2 c 0.530416,0.0052 1.039173,-0.17517 1.402344,-0.496094 0.387517,-0.309883 0.603764,-0.738934 0.597656,-1.185547 V 22.90039 c 0.005,-0.444512 -0.206236,-0.872055 -0.585938,-1.185547 -0.36978,-0.317627 -0.882017,-0.492631 -1.414062,-0.484375 z m 12,0 v 6.9961 h 4 v -1 H 40.8125 v -2 h 1.988281 v -1 h -2.011719 v -2 h 2.933594 v -0.996094 z m -11,0.9961 h 1.023438 c 0.540362,-1.91e-4 0.978281,0.278535 0.976562,0.621094 v 3.761718 c -1.08e-4,0.163638 -0.104522,0.321132 -0.289062,0.435547 -0.177781,0.120104 -0.427777,0.185747 -0.6875,0.181641 h -1.023438 z m -10,0.002 h 0.748047 c 0.334344,-0.0117 0.659945,0.07337 0.890625,0.230469 0.262176,0.207905 0.389104,0.472739 0.355469,0.740234 0.0058,0.164104 -0.02697,0.327106 -0.09961,0.484375 -0.12989,0.335944 -0.612496,0.56467 -1.146484,0.542922 h -0.748047 z m 5.742188,0.601516 0.394531,3.396484 h -0.804688 z m -4.986329,2.396484 c 0.334645,-0.0053 0.657027,0.08213 0.873047,0.238281 0.272797,0.238607 0.401165,0.525436 0.365235,0.814453 -0.0025,0.141355 -0.04172,0.281784 -0.115235,0.416016 -0.140083,0.324005 -0.636724,0.545803 -1.191406,0.53125 h -0.6875 v -1.998047 h 0.6875 c 0.0224,-0.0012 0.04605,-0.0016 0.06836,-0.002 z"
       id="path10" />
  </g>
</svg>
