<?xml version="1.0" encoding="UTF-8" standalone="no"?>
<svg
   width="62"
   height="62"
   version="1.1"
   id="svg6"
   sodipodi:docname="com.lakoliu.Furtherance.svg"
   inkscape:version="1.4.2 (unknown)"
   xmlns:inkscape="http://www.inkscape.org/namespaces/inkscape"
   xmlns:sodipodi="http://sodipodi.sourceforge.net/DTD/sodipodi-0.dtd"
   xmlns="http://www.w3.org/2000/svg"
   xmlns:svg="http://www.w3.org/2000/svg">
  <defs
     id="defs6" />
  <sodipodi:namedview
     id="namedview6"
     pagecolor="#ffffff"
     bordercolor="#000000"
     borderopacity="0.25"
     inkscape:showpageshadow="2"
     inkscape:pageopacity="0.0"
     inkscape:pagecheckerboard="0"
     inkscape:deskcolor="#d1d1d1"
     inkscape:zoom="8.4300387"
     inkscape:cx="36.061519"
     inkscape:cy="25.68197"
     inkscape:current-layer="svg6" />
  <g
     id="g6"
     transform="translate(-1,-3)">
    <rect
       style="opacity:0.2"
       width="56"
       height="36"
       x="4"
       y="11"
       rx="4"
       id="rect1"
       ry="4" />
    <rect
       style="fill:#b380ff"
       width="56"
       height="36"
       x="4"
       y="10"
       rx="4"
       id="rect2"
       ry="4" />
    <path
       style="opacity:0.2"
       d="M 11.5,39 C 10.119139,39 9,40.11914 9,41.5 9,42.88086 10.119139,44 11.5,44 12.88086,44 14,42.88086 14,41.5 14,40.11914 12.88086,39 11.5,39 Z m 8,0 C 18.11914,39 17,40.119139 17,41.5 17,42.880859 18.11914,44 19.5,44 20.880859,44 22,42.880859 22,41.5 22,40.119139 20.880859,39 19.5,39 Z"
       id="path2" />
    <path
       style="fill:#e3f2fd"
       d="M 11.5,38 C 10.119139,38 9,39.11914 9,40.5 9,41.880859 10.119139,43 11.5,43 12.88086,43 14,41.880859 14,40.5 14,39.11914 12.88086,38 11.5,38 Z m 8,0 C 18.11914,38 17,39.119139 17,40.5 17,41.880858 18.11914,43 19.5,43 20.880859,43 22,41.880858 22,40.5 22,39.119139 20.880859,38 19.5,38 Z"
       id="path3" />
    <rect
       style="fill:#373e48"
       width="52"
       height="22"
       x="6"
       y="13"
       rx="3"
       id="rect3"
       ry="3" />
    <path
       style="fill:#b380ff"
       d="m 15,15 v 2 h 6 v -2 z m 6,2 v 6 h 2 v -6 z m 0,6 h -6 v 2 h 6 z m 0,2 v 6 h 2 v -6 z m 0,6 h -6 v 2 h 6 z M 31,15 v 2 h 6 v -2 z m 6,2 v 6 h 2 v -6 z m 0,6 h -6 v 2 h 6 z m -6,2 h -2 v 6 h 2 z m 0,6 v 2 h 6 V 31 Z M 43,15 v 2 h 6 v -2 z m 0,2 h -2 v 6 h 2 z m 0,6 v 2 h 6 v -2 z m 6,2 v 6 h 2 v -6 z m 0,6 h -6 v 2 h 6 z m -6,0 v -6 h -2 v 6 z M 25,21 v 2 h 2 v -2 z m 0,4 v 2 h 2 v -2 z"
       id="path4" />
    <rect
       style="opacity:0.2"
       width="26"
       height="29"
       x="32"
       y="29"
       rx="3"
       id="rect4"
       ry="3" />
    <rect
       style="fill:#f5f5f5"
       width="26"
       height="29"
       x="32"
       y="28"
       rx="3"
       id="rect5"
       ry="3" />
    <path
       style="fill:#b380ff"
       d="m 36,32 c -0.552083,0 -1,0.447917 -1,1 0,0.552084 0.447917,1 1,1 0.552083,0 1,-0.447916 1,-1 0,-0.552083 -0.447917,-1 -1,-1 z m 2,0 v 2 h 12 v -2 z m -2,4 c -0.552083,0 -1,0.447917 -1,1 0,0.552083 0.447917,1 1,1 0.552083,0 1,-0.447917 1,-1 0,-0.552083 -0.447917,-1 -1,-1 z m 2,0 v 2 h 10 v -2 z m -2,4 c -0.552083,0 -1,0.447917 -1,1 0,0.552083 0.447917,1 1,1 0.552083,0 1,-0.447917 1,-1 0,-0.552083 -0.447917,-1 -1,-1 z m 2,0 v 2 h 15 v -2 z m -2,6 c -0.552083,0 -1,0.447916 -1,1 0,0.552082 0.447917,1 1,1 0.552083,0 1,-0.447918 1,-1 0,-0.552084 -0.447917,-1 -1,-1 z m 2,0 v 2 h 8 v -2 z m -2,4 c -0.552083,0 -1,0.447916 -1,1 0,0.552082 0.447917,1 1,1 0.552083,0 1,-0.447918 1,-1 0,-0.552084 -0.447917,-1 -1,-1 z m 2,0 v 2 h 13 v -2 z"
       id="path5" />
    <path
       style="opacity:0.2;fill:#ffffff"
       d="m 8,10 c -2.216,0 -4,1.784 -4,4 v 1 c 0,-2.216 1.784,-4 4,-4 h 48 c 2.216,0 4,1.784 4,4 v -1 c 0,-2.216 -1.784,-4 -4,-4 z"
       id="path6" />
  </g>
</svg>
