<?xml version="1.0" encoding="UTF-8" standalone="no"?>
<svg
   width="62"
   height="62"
   viewBox="0 0 16.404166 16.404167"
   version="1.1"
   id="svg1443"
   inkscape:version="1.4.2 (unknown)"
   sodipodi:docname="com.github.linuxhubit.shouldidoit.svg"
   xmlns:inkscape="http://www.inkscape.org/namespaces/inkscape"
   xmlns:sodipodi="http://sodipodi.sourceforge.net/DTD/sodipodi-0.dtd"
   xmlns:xlink="http://www.w3.org/1999/xlink"
   xmlns="http://www.w3.org/2000/svg"
   xmlns:svg="http://www.w3.org/2000/svg"
   xmlns:rdf="http://www.w3.org/1999/02/22-rdf-syntax-ns#"
   xmlns:cc="http://creativecommons.org/ns#"
   xmlns:dc="http://purl.org/dc/elements/1.1/">
  <defs
     id="defs1437">
    <linearGradient
       gradientTransform="matrix(0.4711726,0,0,0.47114666,-53.953909,-18.000765)"
       gradientUnits="userSpaceOnUse"
       y2="70.679932"
       x2="132.21078"
       y1="42.151531"
       x1="132.21078"
       id="linearGradient1632"
       xlink:href="#linearGradient1630"
       inkscape:collect="always" />
    <linearGradient
       id="linearGradient1630"
       inkscape:collect="always">
      <stop
         id="stop1626"
         offset="0"
         style="stop-color:#ffe680;stop-opacity:1" />
      <stop
         id="stop1628"
         offset="1"
         style="stop-color:#8d5fd3;stop-opacity:1" />
    </linearGradient>
    <filter
       color-interpolation-filters="sRGB"
       height="1.1311001"
       width="1.1106"
       y="-0.065563001"
       x="-0.055319"
       id="c-9">
      <feGaussianBlur
         id="feGaussianBlur1093"
         stdDeviation="1.1062912" />
    </filter>
    <linearGradient
       gradientUnits="userSpaceOnUse"
       gradientTransform="matrix(0.13235,0,0,0.13075,-32.379,1.0873)"
       y2="269.48999"
       y1="235.14999"
       x2="657.65002"
       x1="319.20999"
       id="a-12">
      <stop
         id="stop1076"
         offset="0"
         stop-color="#e54c18" />
      <stop
         id="stop1078"
         offset="1"
         stop-color="#fec350" />
    </linearGradient>
    <linearGradient
       id="paint1_linear_8_721"
       x1="12.0001"
       y1="14.825"
       x2="12.0001"
       y2="8.7750196"
       gradientUnits="userSpaceOnUse"
       gradientTransform="matrix(0.58965537,0,0,0.59037149,1.1261742,1.2356487)">
      <stop
         stop-color="#02AA93"
         id="stop4" />
      <stop
         offset="1"
         stop-color="#67FF80"
         id="stop5" />
    </linearGradient>
    <linearGradient
       id="linear0"
       gradientUnits="userSpaceOnUse"
       x1="0"
       y1="0"
       x2="0"
       y2="1"
       gradientTransform="matrix(68.686472,0,0,43.89438,-2.487702,8.992595)">
      <stop
         offset="0"
         style="stop-color:#2478ff;stop-opacity:1;"
         id="stop1" />
      <stop
         offset="1"
         style="stop-color:#0049bf;stop-opacity:1;"
         id="stop2" />
    </linearGradient>
  </defs>
  <sodipodi:namedview
     id="base"
     pagecolor="#ffffff"
     bordercolor="#666666"
     borderopacity="1.0"
     inkscape:pageopacity="0.0"
     inkscape:pageshadow="2"
     inkscape:zoom="7.919596"
     inkscape:cx="35.92355"
     inkscape:cy="42.363272"
     inkscape:document-units="px"
     inkscape:current-layer="layer1"
     inkscape:document-rotation="0"
     showgrid="false"
     units="px"
     inkscape:window-width="1920"
     inkscape:window-height="996"
     inkscape:window-x="0"
     inkscape:window-y="0"
     inkscape:window-maximized="1"
     inkscape:showpageshadow="2"
     inkscape:pagecheckerboard="0"
     inkscape:deskcolor="#d1d1d1">
    <inkscape:grid
       id="grid1"
       units="px"
       originx="0"
       originy="0"
       spacingx="0.26458332"
       spacingy="0.26458334"
       empcolor="#0099e5"
       empopacity="0.30196078"
       color="#0099e5"
       opacity="0.14901961"
       empspacing="5"
       enabled="true"
       visible="false" />
  </sodipodi:namedview>
  <metadata
     id="metadata1440">
    <rdf:RDF>
      <cc:Work
         rdf:about="">
        <dc:format>image/svg+xml</dc:format>
        <dc:type
           rdf:resource="http://purl.org/dc/dcmitype/StillImage" />
      </cc:Work>
    </rdf:RDF>
  </metadata>
  <g
     inkscape:label="Capa 1"
     inkscape:groupmode="layer"
     id="layer1">
    <g
       style="opacity:0.295"
       transform="matrix(0.47117252,0,0,0.47114656,-31.72741,-18.000762)"
       id="g1702">
      <rect
         ry="6.6098609"
         rx="6.6098609"
         y="40.709618"
         x="69.839508"
         height="29.810888"
         width="29.810888"
         id="rect1634"
         style="fill:none;fill-opacity:1;stroke:#000000;stroke-width:0.1;stroke-linecap:round;stroke-linejoin:round;stroke-miterlimit:4;stroke-dasharray:none;stroke-opacity:0.02" />
      <rect
         style="fill:none;fill-opacity:1;stroke:#000000;stroke-width:0.2;stroke-linecap:round;stroke-linejoin:round;stroke-miterlimit:4;stroke-dasharray:none;stroke-opacity:0.02"
         id="rect1638"
         width="29.810888"
         height="29.810888"
         x="69.839508"
         y="40.709618"
         rx="6.6098609"
         ry="6.6098609" />
      <rect
         ry="6.6098609"
         rx="6.6098609"
         y="40.709618"
         x="69.839508"
         height="29.810888"
         width="29.810888"
         id="rect1640"
         style="fill:none;fill-opacity:1;stroke:#000000;stroke-width:0.3;stroke-linecap:round;stroke-linejoin:round;stroke-miterlimit:4;stroke-dasharray:none;stroke-opacity:0.02" />
      <rect
         style="fill:none;fill-opacity:1;stroke:#000000;stroke-width:0.4;stroke-linecap:round;stroke-linejoin:round;stroke-miterlimit:4;stroke-dasharray:none;stroke-opacity:0.02"
         id="rect1642"
         width="29.810888"
         height="29.810888"
         x="69.839508"
         y="40.709618"
         rx="6.6098609"
         ry="6.6098609" />
      <rect
         ry="6.6098609"
         rx="6.6098609"
         y="40.709618"
         x="69.839508"
         height="29.810888"
         width="29.810888"
         id="rect1644"
         style="fill:none;fill-opacity:1;stroke:#000000;stroke-width:0.5;stroke-linecap:round;stroke-linejoin:round;stroke-miterlimit:4;stroke-dasharray:none;stroke-opacity:0.02" />
      <rect
         style="fill:none;fill-opacity:1;stroke:#000000;stroke-width:0.6;stroke-linecap:round;stroke-linejoin:round;stroke-miterlimit:4;stroke-dasharray:none;stroke-opacity:0.02"
         id="rect1646"
         width="29.810888"
         height="29.810888"
         x="69.839508"
         y="40.709618"
         rx="6.6098609"
         ry="6.6098609" />
      <rect
         ry="6.6098609"
         rx="6.6098609"
         y="40.709618"
         x="69.839508"
         height="29.810888"
         width="29.810888"
         id="rect1648"
         style="fill:none;fill-opacity:1;stroke:#000000;stroke-width:0.7;stroke-linecap:round;stroke-linejoin:round;stroke-miterlimit:4;stroke-dasharray:none;stroke-opacity:0.02" />
      <rect
         style="fill:none;fill-opacity:1;stroke:#000000;stroke-width:0.8;stroke-linecap:round;stroke-linejoin:round;stroke-miterlimit:4;stroke-dasharray:none;stroke-opacity:0.02"
         id="rect1650"
         width="29.810888"
         height="29.810888"
         x="69.839508"
         y="40.709618"
         rx="6.6098609"
         ry="6.6098609" />
      <rect
         ry="6.6098609"
         rx="6.6098609"
         y="40.709618"
         x="69.839508"
         height="29.810888"
         width="29.810888"
         id="rect1652"
         style="fill:none;fill-opacity:1;stroke:#000000;stroke-width:1;stroke-linecap:round;stroke-linejoin:round;stroke-miterlimit:4;stroke-dasharray:none;stroke-opacity:0.02" />
      <rect
         style="fill:none;fill-opacity:1;stroke:#000000;stroke-width:1.2;stroke-linecap:round;stroke-linejoin:round;stroke-miterlimit:4;stroke-dasharray:none;stroke-opacity:0.02"
         id="rect1654"
         width="29.810888"
         height="29.810888"
         x="69.839508"
         y="40.709618"
         rx="6.6098609"
         ry="6.6098609" />
      <rect
         ry="6.6098609"
         rx="6.6098609"
         y="40.709618"
         x="69.839508"
         height="29.810888"
         width="29.810888"
         id="rect1656"
         style="fill:none;fill-opacity:1;stroke:#000000;stroke-width:1.4;stroke-linecap:round;stroke-linejoin:round;stroke-miterlimit:4;stroke-dasharray:none;stroke-opacity:0.02" />
      <rect
         style="fill:none;fill-opacity:1;stroke:#000000;stroke-width:1.6;stroke-linecap:round;stroke-linejoin:round;stroke-miterlimit:4;stroke-dasharray:none;stroke-opacity:0.02"
         id="rect1658"
         width="29.810888"
         height="29.810888"
         x="69.839508"
         y="40.709618"
         rx="6.6098609"
         ry="6.6098609" />
      <rect
         ry="6.6098609"
         rx="6.6098609"
         y="40.709618"
         x="69.839508"
         height="29.810888"
         width="29.810888"
         id="rect1660"
         style="fill:none;fill-opacity:1;stroke:#000000;stroke-width:1.8;stroke-linecap:round;stroke-linejoin:round;stroke-miterlimit:4;stroke-dasharray:none;stroke-opacity:0.02" />
      <rect
         style="fill:none;fill-opacity:1;stroke:#000000;stroke-width:2;stroke-linecap:round;stroke-linejoin:round;stroke-miterlimit:4;stroke-dasharray:none;stroke-opacity:0.02"
         id="rect1662"
         width="29.810888"
         height="29.810888"
         x="69.839508"
         y="40.709618"
         rx="6.6098609"
         ry="6.6098609" />
      <rect
         ry="6.6098609"
         rx="6.6098609"
         y="40.709618"
         x="69.839508"
         height="29.810888"
         width="29.810888"
         id="rect1664"
         style="fill:none;fill-opacity:1;stroke:#000000;stroke-width:2.2;stroke-linecap:round;stroke-linejoin:round;stroke-miterlimit:4;stroke-dasharray:none;stroke-opacity:0.02" />
      <rect
         style="fill:none;fill-opacity:1;stroke:#000000;stroke-width:2.6;stroke-linecap:round;stroke-linejoin:round;stroke-miterlimit:4;stroke-dasharray:none;stroke-opacity:0.02"
         id="rect1666"
         width="29.810888"
         height="29.810888"
         x="69.839508"
         y="40.709618"
         rx="6.6098609"
         ry="6.6098609" />
      <rect
         ry="6.6098609"
         rx="6.6098609"
         y="40.709618"
         x="69.839508"
         height="29.810888"
         width="29.810888"
         id="rect1668"
         style="fill:none;fill-opacity:1;stroke:#000000;stroke-width:3;stroke-linecap:round;stroke-linejoin:round;stroke-miterlimit:4;stroke-dasharray:none;stroke-opacity:0.02" />
      <rect
         style="fill:none;fill-opacity:1;stroke:#000000;stroke-width:3.4;stroke-linecap:round;stroke-linejoin:round;stroke-miterlimit:4;stroke-dasharray:none;stroke-opacity:0.02"
         id="rect1670"
         width="29.810888"
         height="29.810888"
         x="69.839508"
         y="40.709618"
         rx="6.6098609"
         ry="6.6098609" />
      <rect
         ry="6.6098609"
         rx="6.6098609"
         y="40.709618"
         x="69.839508"
         height="29.810888"
         width="29.810888"
         id="rect1672"
         style="fill:none;fill-opacity:1;stroke:#000000;stroke-width:3.8;stroke-linecap:round;stroke-linejoin:round;stroke-miterlimit:4;stroke-dasharray:none;stroke-opacity:0.02" />
      <rect
         style="fill:none;fill-opacity:1;stroke:#000000;stroke-width:4.2;stroke-linecap:round;stroke-linejoin:round;stroke-miterlimit:4;stroke-dasharray:none;stroke-opacity:0.02"
         id="rect1674"
         width="29.810888"
         height="29.810888"
         x="69.839508"
         y="40.709618"
         rx="6.6098609"
         ry="6.6098609" />
      <rect
         ry="6.6098609"
         rx="6.6098609"
         y="40.709618"
         x="69.839508"
         height="29.810888"
         width="29.810888"
         id="rect1676"
         style="fill:none;fill-opacity:1;stroke:#000000;stroke-width:4.6;stroke-linecap:round;stroke-linejoin:round;stroke-miterlimit:4;stroke-dasharray:none;stroke-opacity:0.02" />
      <rect
         style="fill:none;fill-opacity:1;stroke:#000000;stroke-width:5;stroke-linecap:round;stroke-linejoin:round;stroke-miterlimit:4;stroke-dasharray:none;stroke-opacity:0.02"
         id="rect1678"
         width="29.810888"
         height="29.810888"
         x="69.839508"
         y="40.709618"
         rx="6.6098609"
         ry="6.6098609" />
    </g>
    <rect
       ry="3.1142132"
       rx="3.1143851"
       y="1.1794344"
       x="1.1790471"
       height="14.045296"
       width="14.04607"
       id="rect849"
       style="fill:url(#linearGradient1632);fill-opacity:1;stroke-width:1.29783;stroke-linecap:round;stroke-linejoin:round" />
    <g
       id="g1"
       transform="translate(0.59680954,0.70091476)">
      <path
         style="opacity:0.2;stroke-width:0.360115"
         d="m 9.2219026,3.2308096 c -0.3378629,0 -0.4511297,0.2102653 -0.5518349,0.5018006 C 8.5125048,4.1862941 8.2958228,4.618994 8.0759977,5.0482509 L 6.882243,6.1277459 C 6.6894962,6.3273054 6.3160084,6.4959429 6.0544961,6.6014366 5.7713246,6.7157942 5.6364007,7.016548 5.6364007,7.3688865 v 3.6812465 c 0,0.451087 0.3803033,0.81666 0.8502713,0.81666 H 10.479 c 0.34869,0 0.697158,-0.0484 1.029055,-0.151797 0.147276,-0.04576 0.281343,-0.0992 0.353349,-0.157435 0.21603,-0.137709 0.358963,-0.372801 0.358963,-0.640945 0,-0.129908 -0.03395,-0.252785 -0.09289,-0.35984 0.230107,-0.160055 0.3815,-0.41902 0.3815,-0.7126371 0,-0.1865639 -0.06128,-0.3594046 -0.164708,-0.5017992 0.220363,-0.1605749 0.363201,-0.415564 0.363201,-0.7013846 0,-0.1917607 -0.06488,-0.3694638 -0.173163,-0.5144567 0.190047,-0.161092 0.309717,-0.396261 0.309717,-0.6592197 0,-0.4853759 -0.412907,-1.1272681 -0.91645,-1.1750828 C 11.610319,6.261541 10.867572,6.1867814 10.867572,6.1867814 L 9.2402282,6.0897801 9.8399343,4.8584852 C 9.8973014,4.5757797 9.9237812,4.2870472 9.9074776,3.9996678 9.8831299,3.5475399 9.7649789,3.2307998 9.2219263,3.2307998 Z M 3.0236458,6.1094712 c -0.3483277,0 -0.6306637,0.3221886 -0.6306637,0.7196725 v 4.3179893 c 0,0.397478 0.282336,0.71966 0.6306637,0.71966 h 1.2613298 c 0.3478353,0 0.6306646,-0.322182 0.6306646,-0.71966 V 6.8291437 c 0,-0.3974839 -0.2828293,-0.7196725 -0.6306646,-0.7196725 z"
         id="path6" />
      <path
         style="fill:#ffffff;stroke-width:0.360115"
         d="m 9.2219026,2.870983 c -0.3378629,0 -0.4511297,0.2102508 -0.5518349,0.5017969 -0.1575629,0.4536749 -0.3742449,0.8863808 -0.59407,1.3156282 L 6.882243,5.7679072 C 6.6894962,5.9674671 6.3160084,6.1361037 6.0544961,6.2416017 5.7713246,6.355944 5.6364007,6.656717 5.6364007,7.0090524 v 3.6812596 c 0,0.45108 0.3803033,0.816649 0.8502713,0.816649 H 10.479 c 0.34869,0 0.697158,-0.04841 1.029055,-0.151814 0.147276,-0.04577 0.281343,-0.09921 0.353349,-0.157421 0.21603,-0.137716 0.358963,-0.372799 0.358963,-0.64095 0,-0.129892 -0.03395,-0.252777 -0.09289,-0.359831 0.230107,-0.160061 0.3815,-0.4190119 0.3815,-0.7126347 0,-0.1865695 -0.06128,-0.3594114 -0.164708,-0.5017949 0.220363,-0.160588 0.363201,-0.4155707 0.363201,-0.7013927 0,-0.1917665 -0.06488,-0.3694628 -0.173163,-0.5144569 0.190047,-0.1610945 0.309717,-0.3962632 0.309717,-0.6592198 0,-0.4853779 -0.412907,-1.1272681 -0.91645,-1.175079 C 11.610314,5.901729 10.867568,5.8269513 10.867568,5.8269513 L 9.2402262,5.7299376 9.8399323,4.4986345 C 9.8972994,4.2159349 9.9237606,3.9272049 9.9074756,3.6398183 9.8831368,3.1877089 9.764993,2.8709602 9.2219358,2.8709602 Z M 3.0236458,5.7496434 c -0.3483277,0 -0.6306637,0.322176 -0.6306637,0.7196594 v 4.3179932 c 0,0.397476 0.282336,0.719665 0.6306637,0.719665 h 1.2613298 c 0.3478353,0 0.6306646,-0.322189 0.6306646,-0.719665 V 6.4693028 c 0,-0.3974834 -0.2828293,-0.7196594 -0.6306646,-0.7196594 z"
         id="path8" />
    </g>
  </g>
</svg>
