<?xml version="1.0" encoding="UTF-8" standalone="no"?>
<svg
   width="62"
   height="62"
   version="1.1"
   id="svg11"
   sodipodi:docname="com.github.linuxhubit.gitscover.svg"
   inkscape:version="1.4.2 (unknown)"
   xmlns:inkscape="http://www.inkscape.org/namespaces/inkscape"
   xmlns:sodipodi="http://sodipodi.sourceforge.net/DTD/sodipodi-0.dtd"
   xmlns="http://www.w3.org/2000/svg"
   xmlns:svg="http://www.w3.org/2000/svg">
  <defs
     id="defs11" />
  <sodipodi:namedview
     id="namedview11"
     pagecolor="#ffffff"
     bordercolor="#000000"
     borderopacity="0.25"
     inkscape:showpageshadow="2"
     inkscape:pageopacity="0.0"
     inkscape:pagecheckerboard="0"
     inkscape:deskcolor="#d1d1d1"
     showgrid="true"
     inkscape:zoom="8.6704546"
     inkscape:cx="30.621232"
     inkscape:cy="27.161206"
     inkscape:current-layer="svg11">
    <inkscape:grid
       id="grid11"
       units="px"
       originx="0"
       originy="0"
       spacingx="1"
       spacingy="1"
       empcolor="#0099e5"
       empopacity="0.30196078"
       color="#0099e5"
       opacity="0.14901961"
       empspacing="5"
       enabled="true"
       visible="true" />
  </sodipodi:namedview>
  <g
     id="g11"
     transform="translate(6,2)">
    <path
       style="opacity:0.2;stroke-width:2.74084"
       d="M 11.25,21.487805 V 38.811738 A 9.625,9.5609756 0 0 0 5.75,47.439024 9.625,9.5609756 0 0 0 15.375,57 9.625,9.5609756 0 0 0 24.999999,47.439024 9.625,9.5609756 0 0 0 16.75,37.974085 v -0.09604 c 3.068166,0.0033 5.831474,0 8.104982,0 3.501285,0 7.047895,-1.93144 8.615232,-4.407012 1.567341,-2.475569 2.818283,-6.817158 3.195803,-9.667684 l -5.457034,-0.53887 c -0.335112,2.530358 -1.011778,5.015917 -2.051755,6.658536 -1.03998,1.642617 -2.161622,2.491615 -4.302246,2.491615 -2.282094,0 -5.047593,0.0033 -8.104982,0 V 21.487805 Z m 4.125,21.853658 a 4.125,4.097561 0 0 1 4.125,4.097561 4.125,4.097561 0 0 1 -4.125,4.097561 4.125,4.097561 0 0 1 -4.125,-4.097561 4.125,4.097561 0 0 1 4.125,-4.097561 z"
       id="path1" />
    <path
       style="fill:#8d5fd3;stroke-width:2.74084"
       d="M 15.375,36.512195 A 9.625,9.5609756 0 0 0 5.75,46.073171 9.625,9.5609756 0 0 0 15.375,55.634146 9.625,9.5609756 0 0 0 24.999999,46.073171 9.625,9.5609756 0 0 0 15.375,36.512195 Z m 0,5.463415 a 4.125,4.097561 0 0 1 4.125,4.097561 4.125,4.097561 0 0 1 -4.125,4.097561 4.125,4.097561 0 0 1 -4.125,-4.097561 4.125,4.097561 0 0 1 4.125,-4.097561 z"
       id="path2" />
    <path
       style="opacity:0.2;fill:#ffffff;stroke-width:2.74084"
       d="m 11.25,20.121951 v 1.365854 h 5.5 v -1.365854 z m 19.958983,1.776677 c -0.335109,2.53036 -1.011778,5.015918 -2.051755,6.658538 -1.03998,1.642616 -2.161622,2.491614 -4.302246,2.491614 -2.282094,0 -5.047593,0.0033 -8.104982,0 v 1.365854 c 3.057389,0.0033 5.822888,0 8.104982,0 2.140624,0 3.262266,-0.848998 4.302246,-2.491615 1.039977,-1.642619 1.716643,-4.128178 2.051755,-6.658536 l 5.231446,0.51753 c 0.09114,-0.471441 0.170225,-0.926593 0.225582,-1.344513 z M 11.25,37.445884 a 9.625,9.5609756 0 0 0 -5.5,8.627287 9.625,9.5609756 0 0 0 0.064452,0.677592 9.625,9.5609756 0 0 1 5.435547,-7.939025 z m 5.5,0.432165 v 0.09605 a 9.625,9.5609756 0 0 1 8.201662,8.573922 9.625,9.5609756 0 0 0 0.04834,-0.474847 9.625,9.5609756 0 0 0 -4.662108,-8.195122 c -1.222684,2.65e-4 -2.229685,0.0015 -3.587892,0 z m 2.674805,8.782013 a 4.125,4.097561 0 0 1 -4.049805,3.51067 4.125,4.097561 0 0 1 -4.033692,-3.414634 4.125,4.097561 0 0 0 -0.09131,0.682926 4.125,4.097561 0 0 0 4.125,4.097561 4.125,4.097561 0 0 0 4.125,-4.097561 4.125,4.097561 0 0 0 -0.07519,-0.778962 z"
       id="path3" />
    <path
       style="fill:#8d5fd3;stroke-width:2.74084"
       d="m 11.25,20.121951 v 19.121951 h 5.5 v -2.734023 c 3.068166,0.0033 5.834157,0 8.107666,0 3.501286,0 7.047746,-1.928774 8.615083,-4.404346 1.567342,-2.475569 2.817985,-6.8193 3.195502,-9.669826 L 31.2063,21.901295 c -0.335113,2.530359 -1.009095,5.013251 -2.049072,6.655871 -1.03998,1.642616 -2.158939,2.488948 -4.299562,2.488948 -2.282094,0 -5.050277,0.0033 -8.107666,0 V 20.121951 Z"
       id="path4" />
    <ellipse
       style="opacity:0.2;stroke-width:2.74084"
       cx="34.625"
       cy="14.658537"
       id="circle4"
       rx="12.375"
       ry="12.292683" />
    <ellipse
       style="opacity:0.2;stroke-width:2.74084"
       cx="14"
       cy="16.024391"
       id="circle5"
       rx="11"
       ry="10.926829" />
    <ellipse
       style="fill:#d9d9d9;stroke-width:2.74084;fill-opacity:1"
       cx="14"
       cy="14.658537"
       id="circle6"
       rx="11"
       ry="10.926829" />
    <ellipse
       style="opacity:0.1;stroke-width:2.74084"
       cx="14"
       cy="16.024391"
       id="circle7"
       rx="5.5"
       ry="5.4634147" />
    <ellipse
       style="fill:#2ca05a;stroke-width:2.74084"
       cx="14"
       cy="14.658537"
       id="circle8"
       rx="5.5"
       ry="5.4634147" />
    <ellipse
       style="fill:#d9d9d9;stroke-width:2.74084;fill-opacity:1"
       cx="34.625"
       cy="13.292683"
       id="circle9"
       rx="12.375"
       ry="12.292683" />
    <ellipse
       style="opacity:0.1;stroke-width:2.74084"
       cx="34.625"
       cy="14.658537"
       id="circle10"
       rx="6.875"
       ry="6.8292685" />
    <ellipse
       style="fill:#2ca05a;stroke-width:2.74084"
       cx="34.625"
       cy="13.292683"
       id="circle11"
       rx="6.875"
       ry="6.8292685" />
    <path
       style="opacity:0.2;fill:#ffffff;stroke-width:2.74084"
       d="M 34.625,1 A 12.375,12.292683 0 0 0 23.189943,8.6562501 11,10.926829 0 0 0 14,3.7317073 11,10.926829 0 0 0 3,14.658537 11,10.926829 0 0 0 3.0590822,15.341463 11,10.926829 0 0 1 14,5.097561 11,10.926829 0 0 1 23.189943,10.022104 12.375,12.292683 0 0 1 34.625,2.3658537 12.375,12.292683 0 0 1 46.962401,13.740854 12.375,12.292683 0 0 0 47,13.292683 12.375,12.292683 0 0 0 34.625,1 Z"
       id="path11" />
  </g>
</svg>
