<?xml version="1.0" encoding="UTF-8" standalone="no"?>
<svg
   width="62"
   height="62"
   version="1"
   id="svg13"
   sodipodi:docname="com.github.plugarut.wingpanel-monitor.svg"
   inkscape:version="1.4.2 (unknown)"
   xmlns:inkscape="http://www.inkscape.org/namespaces/inkscape"
   xmlns:sodipodi="http://sodipodi.sourceforge.net/DTD/sodipodi-0.dtd"
   xmlns="http://www.w3.org/2000/svg"
   xmlns:svg="http://www.w3.org/2000/svg">
  <defs
     id="defs13" />
  <sodipodi:namedview
     id="namedview13"
     pagecolor="#ffffff"
     bordercolor="#000000"
     borderopacity="0.25"
     inkscape:showpageshadow="2"
     inkscape:pageopacity="0.0"
     inkscape:pagecheckerboard="0"
     inkscape:deskcolor="#d1d1d1"
     showgrid="true"
     inkscape:zoom="11.921875"
     inkscape:cx="31.95806"
     inkscape:cy="32"
     inkscape:current-layer="svg13">
    <inkscape:grid
       id="grid13"
       units="px"
       originx="0"
       originy="0"
       spacingx="1"
       spacingy="1"
       empcolor="#0099e5"
       empopacity="0.30196078"
       color="#0099e5"
       opacity="0.14901961"
       empspacing="5"
       enabled="true"
       visible="true" />
  </sodipodi:namedview>
  <g
     id="g13"
     transform="translate(-1)">
    <rect
       style="opacity:0.2;stroke-width:0.970551"
       width="39.999989"
       height="55.034203"
       x="12"
       y="3.9655116"
       rx="4.2858548"
       ry="4.1275654"
       id="rect1" />
    <rect
       style="fill:#535d6c;stroke-width:0.970551"
       width="39.999989"
       height="55.034203"
       x="12"
       y="3"
       rx="4.2858548"
       ry="4.1275654"
       id="rect2" />
    <ellipse
       style="fill:#373e48;stroke-width:0.970551"
       cx="32.000004"
       cy="27.62056"
       id="circle2"
       rx="14.146344"
       ry="13.999928" />
    <path
       style="opacity:0.2;stroke-width:0.970551"
       d="m 27.724093,18.448203 c -2.138371,0.0019 -4.114654,1.133999 -5.184834,2.970083 l -0.645966,1.106002 -0.01142,0.01975 c -0.06301,0.108026 -0.02918,0.243497 0.07436,0.302665 l 7.548591,4.319355 c -1.590725,-0.487236 -3.313771,-0.297653 -4.756099,0.523301 -1.853882,1.05881 -2.994761,3.017169 -2.992588,5.136834 0.0014,2.118397 1.144351,4.076459 2.998288,5.136831 l 1.117571,0.639273 0.01999,0.0113 c 0.10904,0.06237 0.246099,0.02897 0.305831,-0.07357 l 4.330225,-7.430865 c -0.468866,1.559449 -0.271511,3.240584 0.54592,4.650305 1.068215,1.835048 3.043449,2.965008 5.181978,2.964424 2.139391,-8.94e-4 4.117,-1.133126 5.187693,-2.970083 l 0.64596,-1.106004 0.01143,-0.01976 c 0.063,-0.108026 0.02915,-0.243507 -0.07434,-0.302662 L 34.726747,30.1503 c 1.528604,0.401715 3.154964,0.189212 4.524585,-0.591187 1.852977,-1.058306 2.993723,-3.01535 2.992573,-5.134002 -0.0014,-2.118397 -1.144356,-4.076461 -2.998292,-5.13683 l -1.11756,-0.639263 -0.01994,-0.0113 c -0.10904,-0.06237 -0.246101,-0.02897 -0.305827,0.07357 l -4.404547,7.555316 c 0.546743,-1.613391 0.368758,-3.381001 -0.488747,-4.853968 -1.068722,-1.835929 -3.04528,-2.966022 -5.184834,-2.964426 z"
       id="path2" />
    <path
       style="fill:#aa87de;stroke-width:0.970551"
       d="m 27.724093,17.482687 c -2.138371,0.0019 -4.114654,1.133999 -5.184834,2.970082 l -0.645966,1.106004 -0.01142,0.01975 c -0.06301,0.108025 -0.02918,0.243496 0.07436,0.302663 l 7.548591,4.319359 c -1.590725,-0.487236 -3.313771,-0.297656 -4.756099,0.523298 -1.853882,1.058812 -2.994761,3.017169 -2.992588,5.136834 0.0014,2.118396 1.144351,4.076456 2.998288,5.136831 l 1.117571,0.639272 0.01999,0.0113 c 0.10904,0.06237 0.246099,0.02897 0.305831,-0.07357 l 4.330225,-7.430864 c -0.468866,1.559449 -0.271511,3.240584 0.54592,4.650303 1.068215,1.835049 3.043449,2.965009 5.181978,2.964427 2.139391,-8.96e-4 4.117,-1.133126 5.187693,-2.970084 l 0.64596,-1.106004 0.01143,-0.01978 c 0.063,-0.108025 0.02915,-0.243508 -0.07434,-0.302664 l -7.299927,-4.175089 c 1.528603,0.401713 3.154963,0.189211 4.524584,-0.591187 1.852977,-1.058308 2.993723,-3.015353 2.992573,-5.134003 -0.0014,-2.118399 -1.144356,-4.076463 -2.998292,-5.136829 l -1.117568,-0.639277 -0.01995,-0.0113 c -0.10904,-0.06237 -0.246101,-0.02897 -0.305827,0.07357 l -4.404559,7.555334 c 0.546746,-1.613389 0.368759,-3.380999 -0.488745,-4.853966 -1.068723,-1.835928 -3.045281,-2.966022 -5.184835,-2.964426 z"
       id="path3" />
    <ellipse
       style="opacity:0.2;stroke-width:0.97057"
       cx="42.046837"
       cy="8.9445581"
       transform="matrix(0.86826043,0.49610868,-0.50390148,0.86376114,0,0)"
       id="circle3"
       rx="2.4327374"
       ry="2.4201159" />
    <ellipse
       style="fill:#ffffff;stroke-width:0.97057"
       cx="41.560287"
       cy="8.1062269"
       transform="matrix(0.86826043,0.49610868,-0.50390148,0.86376114,0,0)"
       id="circle4"
       rx="2.4327374"
       ry="2.4201159" />
    <ellipse
       style="opacity:0.2;stroke-width:0.970551"
       cx="32.000004"
       cy="9.275835"
       id="circle5"
       rx="2.439024"
       ry="2.4137802" />
    <ellipse
       style="fill:#00d455;stroke-width:0.970551;fill-opacity:1"
       cx="32.000004"
       cy="8.3103218"
       id="circle6"
       rx="2.439024"
       ry="2.4137802" />
    <path
       style="fill:#939dac;stroke-width:0.970551"
       d="m 15.902437,44.517027 v 3.862051 h 5.853661 v -3.862051 z m 8.780488,0 v 6.758585 h 5.853658 v -6.758585 z m 8.780493,0 v 2.896536 h 5.853659 v -2.896536 z"
       id="path6" />
    <path
       style="fill:#00d455;stroke-width:0.970551"
       d="m 42.243905,44.517027 v 9.655121 h 5.853658 v -9.655121 z m -8.780487,2.896536 v 6.758585 h 5.853659 v -6.758585 z m -17.560981,0.965515 v 5.79307 h 5.853661 v -5.79307 z m 8.780488,2.896534 v 2.896536 h 5.853658 v -2.896536 z"
       id="path7" />
    <path
       style="opacity:0.2;fill:#ffffff;stroke-width:0.970551"
       d="M 16.285449,3 C 13.911161,3 12,4.8412712 12,7.1279417 v 0.9655127 c 0,-2.2866708 1.911161,-4.127942 4.285449,-4.127942 h 31.42911 C 50.088846,3.9655124 52,5.8067836 52,8.0934544 V 7.1279417 C 52,4.8412712 50.088846,3 47.714559,3 Z"
       id="path8" />
    <path
       style="opacity:0.2;stroke-width:0.970551;fill:#1c1f24"
       d="m 15.902437,44.517027 v 0.965514 h 5.853661 v -0.965514 z m 8.780488,0 v 0.965514 h 5.853658 v -0.965514 z m 8.780493,0 v 0.965514 h 5.853659 v -0.965514 z"
       id="path9" />
    <path
       style="opacity:0.2;stroke-width:0.970551"
       d="m 15.902437,54.172148 v 0.965515 h 5.853661 v -0.965515 z m 8.780488,0 v 0.965515 h 5.853658 v -0.965515 z m 8.780493,0 v 0.965515 h 5.853659 v -0.965515 z m 8.780487,0 v 0.965515 h 5.853658 v -0.965515 z"
       id="path10" />
    <path
       style="opacity:0.2;fill:#ffffff;stroke-width:0.970551"
       d="m 42.243905,44.517027 v 0.965514 h 5.853658 v -0.965514 z m -8.780487,2.896536 v 0.965515 h 5.853659 v -0.965515 z m -17.560981,0.965515 v 0.965508 h 5.853661 v -0.965508 z m 8.780488,2.896534 v 0.965515 h 5.853658 v -0.965515 z"
       id="path11" />
    <path
       style="opacity:0.2;fill:#ffffff;stroke-width:0.970551"
       d="m 32.000002,5.8965368 a 2.4390248,2.4137807 0 0 0 -2.439026,2.4137805 2.4390248,2.4137807 0 0 0 0.05147,0.4789847 2.4390248,2.4137807 0 0 1 2.387578,-1.9272532 2.4390248,2.4137807 0 0 1 2.387575,1.934796 2.4390248,2.4137807 0 0 0 0.05147,-0.4865275 2.4390248,2.4137807 0 0 0 -2.439024,-2.4137805 z"
       id="path12" />
    <path
       style="opacity:0.2;stroke-width:0.970551"
       d="m 32.000002,13.620633 a 14.146342,13.999927 0 0 0 -14.146347,13.999929 14.146342,13.999927 0 0 0 0.02093,0.560073 14.146342,13.999927 0 0 1 14.125388,-13.594488 14.146342,13.999927 0 0 1 14.125379,13.439855 14.146342,13.999927 0 0 0 0.02093,-0.40544 A 14.146342,13.999927 0 0 0 31.99995,13.620633 Z"
       id="path13" />
  </g>
</svg>
