<?xml version="1.0" encoding="UTF-8" standalone="no"?>
<svg
   width="62"
   height="62"
   version="1.1"
   id="svg7"
   sodipodi:docname="com.github.lainsce.coin.svg"
   inkscape:version="1.4.2 (unknown)"
   xmlns:inkscape="http://www.inkscape.org/namespaces/inkscape"
   xmlns:sodipodi="http://sodipodi.sourceforge.net/DTD/sodipodi-0.dtd"
   xmlns:xlink="http://www.w3.org/1999/xlink"
   xmlns="http://www.w3.org/2000/svg"
   xmlns:svg="http://www.w3.org/2000/svg">
  <defs
     id="defs7">
    <linearGradient
       id="linearGradient9"
       inkscape:collect="always">
      <stop
         style="stop-color:#373e48;stop-opacity:1"
         offset="0"
         id="stop9" />
      <stop
         style="stop-color:#535d6c;stop-opacity:1"
         offset="1"
         id="stop10" />
    </linearGradient>
    <linearGradient
       inkscape:collect="always"
       xlink:href="#linearGradient9"
       id="linearGradient10"
       x1="30"
       y1="59"
       x2="31"
       y2="4"
       gradientUnits="userSpaceOnUse" />
  </defs>
  <sodipodi:namedview
     id="namedview7"
     pagecolor="#ffffff"
     bordercolor="#000000"
     borderopacity="0.25"
     inkscape:showpageshadow="2"
     inkscape:pageopacity="0.0"
     inkscape:pagecheckerboard="0"
     inkscape:deskcolor="#d1d1d1"
     inkscape:zoom="8.5626212"
     inkscape:cx="27.32808"
     inkscape:cy="33.10902"
     inkscape:window-width="1920"
     inkscape:window-height="998"
     inkscape:window-x="0"
     inkscape:window-y="0"
     inkscape:window-maximized="1"
     inkscape:current-layer="svg7"
     showgrid="true">
    <inkscape:grid
       id="grid9"
       units="px"
       originx="0"
       originy="0"
       spacingx="1"
       spacingy="1"
       empcolor="#0099e5"
       empopacity="0.30196078"
       color="#0099e5"
       opacity="0.14901961"
       empspacing="5"
       enabled="true"
       visible="true" />
  </sodipodi:namedview>
  <ellipse
     style="opacity:0.2;stroke-width:0.9823"
     cx="31"
     cy="31.491228"
     id="circle1"
     rx="27.5"
     ry="27.508772" />
  <ellipse
     style="fill:url(#linearGradient10);fill-opacity:1;stroke-width:0.9823"
     cx="31"
     cy="30.508772"
     id="circle2"
     rx="27.5"
     ry="27.508772" />
  <path
     style="opacity:0.1;fill:#ffffff;stroke-width:0.9823"
     d="M 31,3 A 27.5,27.508772 0 0 0 3.4999999,30.508772 27.5,27.508772 0 0 0 3.5326101,30.98273 27.5,27.508772 0 0 1 31,3.9824562 27.5,27.508772 0 0 1 58.482736,30.746711 27.5,27.508772 0 0 0 58.5,30.508772 27.5,27.508772 0 0 0 31,3 Z"
     id="path7" />
  <g
     id="g9"
     transform="matrix(1.1522826,0,0,1.1364941,-5.2249977,-4.9318476)">
    <g
       id="g8">
      <g
         id="g7">
        <g
           id="g6">
          <g
             id="g5">
            <g
               id="g4">
              <g
                 id="g3">
                <g
                   id="g2">
                  <g
                     id="g1"
                     transform="rotate(128.27605,33.820243,31.622567)">
                    <path
                       style="opacity:0.2;stroke-width:0.968968"
                       class="st0"
                       d="m 27.257099,22.185728 c -0.249869,0 -0.502602,0.06244 -0.731226,0.186194 l -10.229889,5.544557 c -0.444212,0.247525 -0.717919,0.692824 -0.717919,1.175489 v 11.213256 c 0,0.482665 0.273707,0.940347 0.717919,1.175482 l 10.243207,5.555858 c 0.444235,0.247524 0.99378,0.247524 1.451069,0 l 4.741706,-2.572918 c 0.156774,-0.08656 0.156774,-0.310213 0,-0.396841 l -2.376557,-1.286464 c -0.07828,-0.03703 -0.170801,-0.03703 -0.236128,0 l -2.730763,1.483929 c -0.07829,0.03706 -0.168911,0.03706 -0.23423,0 l -8.597906,-4.66435 c -0.09141,-0.02475 -0.315199,-0.1862 -0.224694,-0.1862 v -9.418979 c 0,-0.08656 0.146047,-0.160339 0.211375,-0.197471 l 8.597898,-4.666233 c 0.07832,-0.03703 0.168885,-0.03703 0.234221,0 l 8.774995,4.703856 c 0.07828,0.03703 0.07438,0.110877 0.07438,0.197471 v 8.267944 c 0,0.08656 0.09649,0.160361 0.161883,0.197471 l 2.226128,1.286458 c 0.156777,0.08656 0.365612,-0.02413 0.365612,-0.197473 V 29.129591 c 0,-0.482666 -0.273701,-0.942226 -0.71791,-1.177367 L 27.976981,22.371922 c -0.222108,-0.123761 -0.469942,-0.186194 -0.719844,-0.186194 z m 15.645716,0 c -0.249734,0 -0.500827,0.06251 -0.729341,0.186194 l -4.739796,2.572921 c -0.156711,0.08651 -0.156711,0.308369 0,0.39496 l 2.376559,1.286464 c 0.07827,0.03704 0.168922,0.03704 0.234225,0 l 2.728857,-1.483952 c 0.07827,-0.03703 0.170839,-0.03703 0.23613,0 l 8.592189,4.662476 c 0.09136,0.03705 0.222806,0.199374 0.22281,0.199374 v 9.41333 c 0,0.08651 -0.146106,0.160384 -0.211377,0.19747 l -8.592195,4.664359 c -0.07828,0.03704 -0.168935,0.03704 -0.23423,0 l -8.630268,-4.701955 c -0.07832,-0.03705 -0.224601,-0.110898 -0.224696,-0.197493 l -0.01101,-8.262292 c -8.8e-5,-0.08649 -0.05095,-0.162255 -0.116187,-0.199372 l -2.260378,-1.286463 c -0.156696,-0.08651 -0.365638,0.02621 -0.365638,0.199371 v 10.451525 c 0,0.482446 0.273943,0.940461 0.71793,1.175493 l 10.277472,5.578426 c 0.443979,0.247391 0.992139,0.247391 1.449177,0 L 53.86049,41.482588 c 0.443967,-0.247389 0.717916,-0.69305 0.717916,-1.175493 V 29.101359 c 0,-0.482413 -0.273949,-0.940446 -0.71792,-1.17548 L 43.622721,22.371922 C 43.400677,22.248218 43.152585,22.185728 42.902839,22.185728 Z M 22.890561,33.741272 a 1.4624993,1.4444433 0 0 0 -1.462493,1.444456 1.4624993,1.4444433 0 0 0 1.462493,1.444428 1.4624993,1.4444433 0 0 0 1.462506,-1.444428 1.4624993,1.4444433 0 0 0 -1.462506,-1.444456 z m 4.875004,0 a 1.4624993,1.4444433 0 0 0 -1.462499,1.444456 1.4624993,1.4444433 0 0 0 1.462499,1.444428 1.4624993,1.4444433 0 0 0 1.462496,-1.444428 1.4624993,1.4444433 0 0 0 -1.462496,-1.444456 z m 14.624995,0 a 1.4624993,1.4444433 0 0 0 -1.462502,1.444456 1.4624993,1.4444433 0 0 0 1.462502,1.444428 1.4624993,1.4444433 0 0 0 1.462502,-1.444428 1.4624993,1.4444433 0 0 0 -1.462502,-1.444456 z m 4.875002,0 a 1.4624993,1.4444433 0 0 0 -1.4625,1.444456 1.4624993,1.4444433 0 0 0 1.4625,1.444428 1.4624993,1.4444433 0 0 0 1.462497,-1.444428 1.4624993,1.4444433 0 0 0 -1.462497,-1.444456 z"
                       id="path2-2" />
                    <path
                       style="fill:#2ca05a;stroke-width:0.968968"
                       class="st0"
                       d="m 51.825013,29.040101 2e-6,9.413625 c 0,0.08651 -0.145943,0.160802 -0.211218,0.197912 l -8.592186,4.663526 c -0.07827,0.03706 -0.169748,0.03706 -0.235041,0 l -8.63076,-4.700638 c -0.07828,-0.03706 -0.224797,-0.111323 -0.224888,-0.197922 l -0.0088,-8.263195 c -1.11e-4,-0.08649 -0.05216,-0.160825 -0.117496,-0.19795 L 31.5448,28.668979 c -0.156681,-0.08651 -0.365621,0.02485 -0.365621,0.197943 v 10.452696 c 0,0.482447 0.274219,0.940126 0.718191,1.175161 l 10.276635,5.578902 c 0.443971,0.24741 0.992409,0.24741 1.449443,0 l 10.237395,-5.554165 c 0.443888,-0.247392 0.718107,-0.692713 0.718107,-1.175155 V 28.137087 c 0,-0.482442 -0.274219,-0.940128 -0.718191,-1.17516 L 43.623196,21.407765 c -0.443975,-0.247408 -0.992411,-0.247408 -1.449441,0 l -4.740072,2.572977 c -0.156701,0.08651 -0.156701,0.309243 0,0.395831 l 2.376561,1.286489 c 0.07827,0.03701 0.169753,0.03701 0.235038,0 l 2.729138,-1.484408 c 0.07825,-0.03703 0.169757,-0.03703 0.235049,0 l 8.592187,4.66351 c 0.09138,0.03702 0.224274,0.197937 0.224279,0.197937 z"
                       id="path3-7" />
                    <path
                       style="fill:#ffcc00;stroke-width:0.968968"
                       class="st1"
                       d="m 18.33101,38.449864 -3e-6,-9.418276 c 0,-0.08656 0.147573,-0.160902 0.212896,-0.198033 l 8.596969,-4.665816 c 0.07833,-0.03703 0.169842,-0.03703 0.235186,0 l 8.77415,4.702945 c 0.0783,0.03706 0.07499,0.111422 0.07499,0.198027 v 8.267295 c 0,0.08656 0.0949,0.160895 0.160244,0.198024 l 2.226846,1.287114 c 0.156777,0.08655 0.365822,-0.02464 0.365822,-0.198021 V 28.165251 c 0,-0.482665 -0.274359,-0.940598 -0.718591,-1.175739 L 27.977076,21.407849 c -0.444195,-0.247523 -0.992957,-0.247523 -1.450225,0 l -10.230155,5.544536 c -0.444233,0.24752 -0.718599,0.69307 -0.718599,1.175732 v 11.212822 c 0,0.482685 0.274366,0.940607 0.718598,1.175741 l 10.243213,5.556907 c 0.444204,0.247524 0.992965,0.247524 1.450256,0 l 4.742703,-2.574247 c 0.156774,-0.08655 0.156774,-0.309405 0,-0.396024 l -2.37791,-1.287135 c -0.0783,-0.03706 -0.169835,-0.03706 -0.235154,0 l -2.730671,1.485161 c -0.07828,0.03703 -0.169834,0.03703 -0.235164,0 l -8.596996,-4.665838 c -0.09134,-0.02473 -0.316447,-0.185658 -0.225951,-0.185658 z"
                       id="path4-0" />
                  </g>
                </g>
              </g>
            </g>
          </g>
        </g>
      </g>
    </g>
    <path
       style="fill:#ffffff;fill-opacity:1;stroke-width:0.585779"
       d="m 35.84117,18.000006 v 2.33333 c -0.289218,0.01168 -0.82013,0 -1.097184,0 H 32.9 v 1.166665 c 0,0 1.011084,-0.01763 0.994952,0 0.541319,-0.0083 0.713709,0.381549 0.769754,0.641435 v 5.77523 c -0.02081,0.164234 -0.0026,0.571666 -0.381435,0.583331 0.01705,0.01516 -1.383271,0 -1.383271,0 v 1.166668 h 1.914063 c 0.323647,-0.01172 0.714456,0 1.027107,0 v 2.33333 l 1.176481,-0.02164 V 29.66666 h 1.158092 l 0.03681,2.333328 h 1.176478 L 39.352211,29.66666 C 42.9,29.66666 42.9,27.916661 42.9,27.040516 c 0,-0.873854 -0.373068,-2.039405 -1.764704,-2.040522 0.803399,7.74e-4 1.176473,-1.316293 1.176473,-2.333331 0,-1.316354 -1.176473,-2.333334 -2.941179,-2.333334 V 18 h -1.176478 v 2.333329 c -0.351324,0 -0.819798,-0.01284 -1.176472,0 V 18 Z m 1.176481,3.499995 c 1.17647,0 2.941373,2.1e-5 2.941176,1.458334 1.97e-4,1.458424 -1.764706,1.458334 -2.941176,1.458334 z m 0,4.083333 c 2.352934,7.1e-5 3.529653,1.8e-5 3.529413,1.458334 2.4e-4,1.458421 -1.176479,1.458329 -3.529413,1.458329 z"
       id="path20-1"
       sodipodi:nodetypes="ccscccccccccccccccccscsccccccccccccccc" />
    <path
       d="M 29.855911,40.820005 C 29.758431,40.542114 29.6093,40.281404 29.40899,40.037934 29.208306,39.794703 28.959132,39.57869 28.661201,39.389916 c -0.298089,-0.18855 -0.647544,-0.337468 -1.04854,-0.446875 -0.160713,-0.03955 -0.443397,-0.10174 -0.815748,-0.186231 -0.266126,-0.06023 -0.51562,-0.121878 -0.796879,-0.184739 v -3.067872 c 0.281248,0.06951 0.476623,0.179942 0.685183,0.302657 0.446221,0.262313 0.726015,0.711082 0.807974,1.320466 h 2.161701 c -0.02042,-0.522326 -0.145325,-0.950634 -0.374884,-1.335411 -0.252181,-0.422002 -0.593026,-0.784178 -1.022815,-1.072388 -0.42968,-0.287918 -0.94454,-0.50752 -1.511781,-0.651605 -0.246385,-0.06247 -0.464096,-0.11502 -0.745351,-0.150395 v -0.968795 h -2.000008 v 0.96244 c -0.218762,0.03035 -0.47336,0.07089 -0.7008,0.123313 -0.538815,0.124267 -1.012124,0.315367 -1.435965,0.573514 -0.424116,0.258398 -0.761032,0.583614 -1.018893,0.975786 -0.257921,0.392405 -0.384739,0.856622 -0.384739,1.392871 0,0.278133 0.0439,0.551135 0.129779,0.819319 0.08594,0.26817 0.232538,0.521365 0.438843,0.75972 0.206334,0.238341 0.484219,0.454356 0.83396,0.64803 0.349462,0.193632 0.772032,0.350054 1.29924,0.469272 0.290196,0.06806 0.588446,0.131521 0.838434,0.1908 v 3.470142 c -0.343677,-0.0846 -0.683964,-0.21466 -0.958631,-0.391163 -0.286546,-0.183564 -0.502059,-0.404853 -0.662434,-0.693039 -0.149242,-0.267836 -0.221121,-0.595619 -0.231473,-0.943876 H 20 c 0.02154,0.609406 0.164071,1.146058 0.427251,1.606761 0.274948,0.481807 0.641667,0.869427 1.100112,1.176987 0.458202,0.30797 0.981056,0.53273 1.599963,0.68174 0.277561,0.0671 0.591438,0.11489 0.872682,0.15172 v 1.02566 h 2.00001 v -1.00226 c 0.312504,-0.0318 0.59241,-0.0781 0.891478,-0.14157 0.584405,-0.12397 1.113906,-0.32027 1.572371,-0.58837 0.458177,-0.2681 0.831905,-0.61313 1.11284,-1.03541 C 29.857331,42.759208 30,42.250074 30,41.654218 c 1.5e-5,-0.277927 -0.04682,-0.556075 -0.144129,-0.834213 z m -5.855858,-2.714823 c -0.375001,-0.108621 -0.747237,-0.263711 -1.001573,-0.465681 -0.269387,-0.2134 -0.396059,-0.508799 -0.396059,-0.886355 0,-0.268153 0.07548,-0.491562 0.218885,-0.670365 0.143166,-0.178772 0.309762,-0.32031 0.527494,-0.424574 0.193152,-0.09255 0.43251,-0.161488 0.651246,-0.207118 z m 3.715708,4.346083 c -0.09184,0.193676 -0.240599,0.364945 -0.446979,0.513898 -0.206311,0.148992 -0.491994,0.270712 -0.824273,0.365002 -0.140648,0.0401 -0.257002,0.071 -0.444475,0.094 v -3.108071 c 0.312495,0.07611 0.568131,0.154725 0.822692,0.235913 0.251923,0.07966 0.492133,0.21597 0.704277,0.409608 0.212047,0.193704 0.322161,0.494181 0.322161,0.90132 2.5e-5,0.198745 -0.04179,0.394787 -0.133403,0.588457 z"
       id="path25907-1-3"
       style="fill:#eaeaf0;fill-opacity:1;stroke-width:0.656375" />
  </g>
</svg>
