<?xml version="1.0" encoding="UTF-8" standalone="no"?>
<svg
   height="62"
   width="62"
   version="1.1"
   id="svg4"
   sodipodi:docname="com.github.taiko2k.avvie.svg"
   inkscape:version="1.4.2 (unknown)"
   xmlns:inkscape="http://www.inkscape.org/namespaces/inkscape"
   xmlns:sodipodi="http://sodipodi.sourceforge.net/DTD/sodipodi-0.dtd"
   xmlns="http://www.w3.org/2000/svg"
   xmlns:svg="http://www.w3.org/2000/svg">
  <defs
     id="defs4" />
  <sodipodi:namedview
     id="namedview4"
     pagecolor="#ffffff"
     bordercolor="#000000"
     borderopacity="0.25"
     inkscape:showpageshadow="2"
     inkscape:pageopacity="0.0"
     inkscape:pagecheckerboard="0"
     inkscape:deskcolor="#d1d1d1"
     inkscape:zoom="11.921875"
     inkscape:cx="32"
     inkscape:cy="32"
     inkscape:current-layer="svg4" />
  <rect
     style="opacity:0.2"
     rx="3"
     ry="3"
     height="50"
     width="50"
     y="7.000001"
     x="6.000001"
     id="rect1" />
  <rect
     style="fill:#8d5fd3"
     rx="3"
     ry="3"
     height="50"
     width="50"
     y="6.000001"
     x="6.000001"
     id="rect2" />
  <path
     style="opacity:0.2;fill:#ffffff"
     d="M 9,6 C 7.338,6 6,7.338 6,9 v 1 C 6,8.338 7.338,7 9,7 h 44 c 1.662,0 3,1.338 3,3 V 9 C 56,7.338 54.662,6 53,6 Z"
     id="path2" />
  <path
     style="opacity:0.2"
     d="m 37,4 v 6 h 16 v 13 h 6 V 10 C 59,6 57,4 53,4 Z M 3,40 V 52.999999 C 3,57 5,59 8.9999999,58.999999 H 25 v -6 H 8.9999999 V 40 Z"
     id="path3" />
  <path
     style="fill:#dfdfdf"
     d="m 37,3 v 6 h 16 v 13 h 6 V 9 C 59,5 57,3 53,3 Z M 3,39 V 51.999999 C 3,56 5,58 8.9999999,57.999999 H 25 v -6 H 8.9999999 V 39 Z"
     id="path4" />
</svg>
