<?xml version="1.0" encoding="UTF-8" standalone="no"?>
<svg
   clip-rule="evenodd"
   fill-rule="evenodd"
   stroke-linejoin="round"
   stroke-miterlimit="2"
   viewBox="0 0 62 62"
   version="1.1"
   id="svg10"
   sodipodi:docname="com.github.kjlaw89.webwatcher.svg"
   width="62"
   height="62"
   inkscape:version="1.4.2 (unknown)"
   xmlns:inkscape="http://www.inkscape.org/namespaces/inkscape"
   xmlns:sodipodi="http://sodipodi.sourceforge.net/DTD/sodipodi-0.dtd"
   xmlns:xlink="http://www.w3.org/1999/xlink"
   xmlns="http://www.w3.org/2000/svg"
   xmlns:svg="http://www.w3.org/2000/svg">
  <defs
     id="defs10">
    <linearGradient
       id="linearGradient1"
       inkscape:collect="always">
      <stop
         style="stop-color:#373e48;stop-opacity:1;"
         offset="0"
         id="stop7" />
      <stop
         style="stop-color:#7d8b9b;stop-opacity:1;"
         offset="1"
         id="stop8" />
    </linearGradient>
    <linearGradient
       id="linearGradient10"
       inkscape:collect="always">
      <stop
         style="stop-color:#a8afbd;stop-opacity:1;"
         offset="0"
         id="stop10" />
      <stop
         style="stop-color:#c7cad1;stop-opacity:1;"
         offset="1"
         id="stop11" />
    </linearGradient>
    <linearGradient
       inkscape:collect="always"
       xlink:href="#linearGradient10"
       id="linearGradient11"
       x1="31"
       y1="59"
       x2="31"
       y2="3"
       gradientUnits="userSpaceOnUse" />
    <linearGradient
       inkscape:collect="always"
       xlink:href="#linearGradient20"
       id="linearGradient19"
       x1="18.5"
       y1="30.479174"
       x2="18.5"
       y2="26.479174"
       gradientUnits="userSpaceOnUse"
       gradientTransform="translate(-2.0000001,-5.4791737)" />
    <linearGradient
       id="linearGradient20"
       inkscape:collect="always">
      <stop
         style="stop-color:#41545d;stop-opacity:1;"
         offset="0"
         id="stop19" />
      <stop
         style="stop-color:#92a1b8;stop-opacity:1;"
         offset="1"
         id="stop20" />
    </linearGradient>
    <linearGradient
       inkscape:collect="always"
       xlink:href="#linearGradient20"
       id="linearGradient17"
       x1="27"
       y1="38.479176"
       x2="27"
       y2="34.479176"
       gradientUnits="userSpaceOnUse"
       gradientTransform="translate(-2.0000001,-5.4791737)" />
    <linearGradient
       inkscape:collect="always"
       xlink:href="#linearGradient20"
       id="linearGradient15"
       x1="27"
       y1="46.479176"
       x2="27"
       y2="42.479176"
       gradientUnits="userSpaceOnUse"
       gradientTransform="translate(-2.0000001,-5.4791737)" />
    <linearGradient
       inkscape:collect="always"
       xlink:href="#linearGradient20"
       id="linearGradient12"
       x1="22.5"
       y1="54.479176"
       x2="22.5"
       y2="50.479176"
       gradientUnits="userSpaceOnUse"
       gradientTransform="translate(-2.0000001,-5.4791737)" />
    <linearGradient
       inkscape:collect="always"
       xlink:href="#linearGradient9"
       id="linearGradient16"
       x1="30"
       y1="53"
       x2="30"
       y2="51"
       gradientUnits="userSpaceOnUse"
       gradientTransform="translate(2e-8,-43.873075)" />
    <linearGradient
       id="linearGradient9"
       inkscape:collect="always">
      <stop
         style="stop-color:#748295;stop-opacity:1;"
         offset="0"
         id="stop9" />
      <stop
         style="stop-color:#b6c6cd;stop-opacity:1;"
         offset="1"
         id="stop10-7" />
    </linearGradient>
    <linearGradient
       id="b"
       x2="1"
       gradientTransform="matrix(0,-21.6048,21.6048,0,15.1323,37.9027)"
       gradientUnits="userSpaceOnUse">
      <stop
         stop-color="#ac0009"
         offset="0"
         id="stop3" />
      <stop
         stop-color="#c00"
         offset="1"
         id="stop4" />
    </linearGradient>
    <linearGradient
       id="c"
       x2="1"
       gradientTransform="matrix(-2.4e-7,-19.0064,19.0064,-2.4e-7,15.1323,36.466)"
       gradientUnits="userSpaceOnUse">
      <stop
         stop-color="#aeaeae"
         offset="0"
         id="stop5" />
      <stop
         stop-color="#d3d3d3"
         offset="1"
         id="stop6" />
    </linearGradient>
    <linearGradient
       inkscape:collect="always"
       xlink:href="#linearGradient1"
       id="linearGradient8"
       x1="31"
       y1="12.376408"
       x2="31"
       y2="3"
       gradientUnits="userSpaceOnUse" />
  </defs>
  <sodipodi:namedview
     id="namedview10"
     pagecolor="#ffffff"
     bordercolor="#000000"
     borderopacity="0.25"
     inkscape:showpageshadow="2"
     inkscape:pageopacity="0.0"
     inkscape:pagecheckerboard="0"
     inkscape:deskcolor="#d1d1d1"
     inkscape:zoom="11.107469"
     inkscape:cx="37.227202"
     inkscape:cy="28.854458"
     inkscape:window-width="1920"
     inkscape:window-height="994"
     inkscape:window-x="0"
     inkscape:window-y="0"
     inkscape:window-maximized="1"
     inkscape:current-layer="svg10" />
  <linearGradient
     id="a"
     x2="1"
     gradientTransform="matrix(0,-46.799983,46.799983,0,632.48571,54.413883)"
     gradientUnits="userSpaceOnUse">
    <stop
       stop-color="#566069"
       offset="0"
       id="stop1" />
    <stop
       stop-color="#6c7884"
       offset="1"
       id="stop2" />
  </linearGradient>
  <path
     d="M 50.952003,3 C 55.394683,3 59,6.6053166 59,11.047997 V 50.952003 C 59,55.394683 55.394683,59 50.952003,59 H 11.047997 C 6.6053166,59 3,55.394683 3,50.952003 V 11.047997 C 3,6.6053166 6.6053166,3 11.047997,3 Z"
     id="path2"
     style="fill-opacity:1.0;fill:url(#linearGradient11);" />
  <path
     d="M 3,12.376408 V 11.047997 C 3,6.6053166 6.6053166,3 11.047997,3 H 50.952003 C 55.394683,3 59,6.6053166 59,11.047997 v 1.328411 z"
     fill-opacity="0.1"
     id="path3"
     style="stroke-width:1.29223;fill-opacity:1;fill:url(#linearGradient8)" />
  <path
     d="m 9,23 c 0,-1.105 0.895,-2 2,-2 h 11 c 1.105,0 2,0.895 2,2 0,1.105 -0.895,2 -2,2 H 11 C 9.895,25 9,24.105 9,23 Z"
     id="path527"
     style="fill:url(#linearGradient19)" />
  <path
     d="m 9,31 c 0,-1.105 0.895,-2 2,-2 h 28 c 1.105,0 2,0.895 2,2 0,1.105 -0.895,2 -2,2 H 11 C 9.895,33 9,32.105 9,31 Z"
     id="path528"
     style="fill:url(#linearGradient17)" />
  <path
     d="m 9,39 c 0,-1.105 0.895,-2 2,-2 h 28 c 1.105,0 2,0.895 2,2 0,1.105 -0.895,2 -2,2 H 11 C 9.895,41 9,40.105 9,39 Z"
     id="path529"
     style="fill:url(#linearGradient15)" />
  <path
     d="m 9,47 c 0,-1.105 0.895,-2 2,-2 h 19 c 1.105,0 2,0.895 2,2 0,1.104998 -0.895,1.999998 -2,1.999998 H 11 c -1.105,0 -2,-0.895 -2,-1.999998 z"
     id="path530"
     style="fill:url(#linearGradient12)" />
  <path
     d="M 7,8 C 7,7.448 7.4477,7 8.0000001,7 H 54.000001 c 0.552,0 1,0.448 1,1 0,0.552 -0.448,1 -1,1 H 8.0000001 C 7.4477,9 7,8.552 7,8 Z"
     id="path281"
     style="fill:url(#linearGradient16)" />
  <g
     id="g14"
     transform="matrix(1.4070549,0,0,1.3396304,26.508447,11.671426)">
    <path
       d="m 25.224,26.963 c 0,5.852 -4.521,10.606 -10.092,10.606 -5.57,0 -10.092,-4.754 -10.092,-10.606 0,-5.853 4.522,-10.607 10.092,-10.607 5.571,0 10.092,4.754 10.092,10.607 z"
       fill="url(#b)"
       id="path8"
       style="fill:url(#b);fill-rule:nonzero" />
    <path
       d="m 24.215,26.963 c 0,5.244 -4.071,9.503 -9.083,9.503 -5.011,0 -9.082,-4.259 -9.082,-9.503 0,-5.244 4.071,-9.503 9.082,-9.503 5.012,0 9.083,4.259 9.083,9.503 z"
       fill="url(#c)"
       id="path9"
       style="fill:url(#c);fill-rule:nonzero" />
    <path
       d="m 14.949,20.532 c 0.307,0 0.549,0.252 0.549,0.554 -0.005,1.182 -0.014,4.165 -0.024,5.343 0,0.006 0,0.013 -10e-4,0.02 0.078,0.057 0.147,0.125 0.205,0.202 h 4.169 c 0.292,0 0.529,0.238 0.529,0.529 v 0.045 c 0,0.292 -0.237,0.529 -0.529,0.529 h -4.134 c -0.171,0.262 -0.467,0.436 -0.803,0.436 -0.535,0 -0.965,-0.431 -0.965,-0.96 0,-0.334 0.169,-0.628 0.426,-0.801 -0.001,-0.002 -0.001,-0.004 -0.001,-0.005 0.005,-1.178 0.015,-4.161 0.025,-5.343 0,-0.301 0.246,-0.547 0.551,-0.549 z"
       fill="#c6262e"
       id="path10"
       style="fill-rule:nonzero" />
  </g>
</svg>
