<?xml version="1.0" encoding="UTF-8" standalone="no"?>
<svg
   width="62"
   height="62"
   version="1.1"
   id="svg6"
   sodipodi:docname="gitlab.svg"
   inkscape:version="1.4.2 (unknown)"
   xmlns:inkscape="http://www.inkscape.org/namespaces/inkscape"
   xmlns:sodipodi="http://sodipodi.sourceforge.net/DTD/sodipodi-0.dtd"
   xmlns="http://www.w3.org/2000/svg"
   xmlns:svg="http://www.w3.org/2000/svg">
  <defs
     id="defs6" />
  <sodipodi:namedview
     id="namedview6"
     pagecolor="#ffffff"
     bordercolor="#000000"
     borderopacity="0.25"
     inkscape:showpageshadow="2"
     inkscape:pageopacity="0.0"
     inkscape:pagecheckerboard="0"
     inkscape:deskcolor="#d1d1d1"
     inkscape:zoom="11.921875"
     inkscape:cx="32"
     inkscape:cy="32"
     inkscape:current-layer="svg6" />
  <g
     id="g6"
     transform="translate(-1.6436592e-7,-0.99998905)">
    <path
       style="opacity:0.2;fill-rule:evenodd;stroke-width:0.99993"
       d="m 12.836545,5.9818068 c -0.442981,0 -0.884347,0.2539773 -1.049779,0.7593782 L 5.3521457,26.600151 2.1084002,36.29544 c -0.1480749,0.452016 -0.1409502,0.927228 0,1.357672 0.140252,0.430808 0.4130142,0.817564 0.8005512,1.096869 L 31.00002,58.999989 59.091086,38.749981 c 0.387539,-0.279305 0.660303,-0.666061 0.800556,-1.096869 0.140918,-0.430444 0.147996,-0.905656 0,-1.357672 L 56.647897,26.600151 50.213273,6.741185 c -0.33086,-1.010782 -1.768552,-1.010782 -2.099565,0 L 41.679087,26.600151 H 20.320954 L 13.886325,6.741185 C 13.720835,6.2357841 13.279541,5.9818068 12.836545,5.9818068 Z"
       id="path1" />
    <path
       style="fill:#fc6d26;fill-rule:evenodd;stroke-width:0.99993"
       d="M 59.891602,35.313953 56.646174,25.61801 50.333341,16.161718 c -0.330846,-1.010636 -1.771805,-1.010636 -2.102807,0 L 41.679277,25.61801 H 20.320764 L 13.04761,16.161718 c -0.330822,-1.010636 -1.771797,-1.010636 -2.102784,0 L 5.3537187,25.61801 2.1084506,35.313953 c -0.2961379,0.904039 0.028259,1.894397 0.8031527,2.45318 L 30.999945,58.018176 59.08845,37.767133 c 0.774888,-0.558783 1.099134,-1.549141 0.803152,-2.45318"
       id="path2" />
    <path
       style="fill:#d9381d;fill-rule:evenodd;stroke-width:0.99993"
       d="m 12.837238,4.9999891 c -0.442963,0 -0.884312,0.2539771 -1.049737,0.7593769 L 5.3531251,25.61862 H 20.321347 L 13.886975,5.759366 C 13.721485,5.2539662 13.2802,4.9999891 12.837238,4.9999891 Z M 20.321347,25.61862 31.000002,58.018176 41.678651,25.61862 Z m 21.357304,0 H 56.646875 L 50.212503,5.759366 c -0.330843,-1.0107805 -1.768485,-1.0107805 -2.099476,0 z"
       id="path3" />
    <path
       style="fill:#fca326;fill-rule:evenodd;stroke-width:0.99993"
       d="m 5.3531251,25.61862 -3.2436203,9.695009 c -0.2959814,0.90403 0.025474,1.895918 0.8005211,2.454538 L 31.000002,58.018176 Z M 31.000002,58.018176 59.089978,37.768167 c 0.775046,-0.55862 1.096503,-1.550508 0.800524,-2.454538 L 56.646875,25.61862 Z"
       id="path4" />
    <path
       style="opacity:0.2;fill:#ffffff;fill-rule:evenodd;stroke-width:0.99993"
       d="m 12.837238,4.9999993 c -0.442963,0 -0.884313,0.2539745 -1.049738,0.7593742 L 5.3531252,25.61835 4.9868491,26.600161 2.1076175,35.313637 c -0.1269742,0.387622 -0.1333374,0.789404 -0.045315,1.167816 0.014457,-0.06214 0.025146,-0.124422 0.045315,-0.186003 L 5.3531252,26.600161 H 20.321347 l 10.23686,31.099685 0.441792,0.31833 L 20.655527,26.600161 H 41.344471 L 30.999999,58.018176 31.44179,57.699846 41.678647,26.600161 H 56.64687 l 3.245513,9.695289 c 0.02017,0.06155 0.03093,0.123797 0.04527,0.186003 0.08805,-0.378412 0.08161,-0.780194 -0.04527,-1.167816 L 57.013152,26.600161 56.64687,25.61835 50.212498,5.7593735 c -0.330843,-1.0107809 -1.768483,-1.0107809 -2.099474,0 L 41.678647,25.61835 h -21.3573 L 13.886974,5.7593735 C 13.721484,5.2539738 13.280199,4.9999993 12.837238,4.9999993 Z m 0,0.9818173 c 0.44296,0 0.884246,0.2539749 1.049736,0.7593754 l 6.13041,18.877158 H 5.6570965 L 11.7875,6.741192 c 0.165425,-0.5054005 0.606775,-0.7593754 1.049738,-0.7593754 z m 36.325525,0.00195 c 0.442139,0 0.884311,0.2520665 1.049735,0.7574573 l 6.1304,18.8770941 H 41.982612 L 48.113024,6.741192 c 0.165491,-0.5053905 0.60759,-0.7574572 1.049739,-0.757457 z"
       id="path5" />
    <path
       style="opacity:0.2;fill:#ffffff;fill-rule:evenodd;stroke-width:0.99993"
       d="m 5.3531252,25.61835 -3.24362,9.695287 c -0.1272245,0.388585 -0.1351202,0.791984 -0.047208,1.171663 0.014681,-0.06358 0.026595,-0.126927 0.047208,-0.18985 l 3.24362,-9.695289 23.6984298,30.014324 1.948444,1.403691 z M 30.999999,58.018176 32.948441,56.614485 56.64687,26.600161 59.890497,36.29545 c 0.02054,0.06289 0.03243,0.126247 0.04723,0.18985 0.08795,-0.379679 0.07998,-0.783078 -0.04723,-1.171663 L 56.64687,25.61835 Z"
       id="path6" />
  </g>
</svg>
