<?xml version="1.0" encoding="UTF-8" standalone="no"?>
<svg
   width="62"
   height="62"
   version="1.1"
   id="svg12"
   sodipodi:docname="com.github.harisvsulaiman.pushy.svg"
   inkscape:version="1.4.2 (unknown)"
   xmlns:inkscape="http://www.inkscape.org/namespaces/inkscape"
   xmlns:sodipodi="http://sodipodi.sourceforge.net/DTD/sodipodi-0.dtd"
   xmlns="http://www.w3.org/2000/svg"
   xmlns:svg="http://www.w3.org/2000/svg">
  <defs
     id="defs12" />
  <sodipodi:namedview
     id="namedview12"
     pagecolor="#ffffff"
     bordercolor="#000000"
     borderopacity="0.25"
     inkscape:showpageshadow="2"
     inkscape:pageopacity="0.0"
     inkscape:pagecheckerboard="0"
     inkscape:deskcolor="#d1d1d1"
     showgrid="true"
     inkscape:zoom="11.921875"
     inkscape:cx="31.95806"
     inkscape:cy="32"
     inkscape:current-layer="svg12">
    <inkscape:grid
       id="grid12"
       units="px"
       originx="0"
       originy="0"
       spacingx="1"
       spacingy="1"
       empcolor="#0099e5"
       empopacity="0.30196078"
       color="#0099e5"
       opacity="0.14901961"
       empspacing="5"
       enabled="true"
       visible="true" />
  </sodipodi:namedview>
  <g
     transform="matrix(0.96551724,0,0,0.96153846,0.10344819,-951.07904)"
     id="g12">
    <path
       style="opacity:0.2;isolation:isolate"
       d="m 3,1030.8622 c 0,-9.1066 12.994464,-16.5 29,-16.5 16.005535,0 29,7.3934 29,16.5 0,9.1066 -12.994465,16.5 -29,16.5 -16.005536,0 -29,-7.3934 -29,-16.5 z"
       vector-effect="non-scaling-stroke"
       id="path1" />
    <path
       style="isolation:isolate;fill:#aa87de"
       d="m 3,1029.8622 c 0,-9.1066 12.994464,-16.5 29,-16.5 16.005535,0 29,7.3934 29,16.5 0,9.1066 -12.994465,16.5 -29,16.5 -16.005536,0 -29,-7.3934 -29,-16.5 z"
       vector-effect="non-scaling-stroke"
       id="path2" />
    <path
       style="opacity:0.2;isolation:isolate"
       d="m 58,1028.0058 c 0,8.4755 -11.65021,15.3564 -25.999999,15.3564 C 17.65021,1043.3622 6,1036.4813 6,1028.0058 v -16.6436 h 52 z"
       id="path3" />
    <path
       style="isolation:isolate;fill:none"
       d="m 58.11032,1026.8353 c 0,8.4011 -11.699643,15.2218 -26.11032,15.2218 -14.410678,0 -26.1103203,-6.8207 -26.1103203,-15.2218 V 1010.691 H 58.11032 Z"
       id="path4" />
    <path
       style="isolation:isolate;fill:#373e48"
       d="m 58,1027.0058 c 0,8.4755 -11.65021,15.3564 -25.999999,15.3564 C 17.65021,1042.3622 6,1035.4813 6,1027.0058 v -16.6436 h 52 z"
       id="path5" />
    <path
       style="opacity:0.1;isolation:isolate"
       d="m 6,1011.3622 c 0,-8.2789 11.65021,-15 26.000001,-15 14.349789,0 25.999999,6.7211 25.999999,15 0,8.2788 -11.65021,15 -25.999999,15 C 17.65021,1026.3622 6,1019.641 6,1011.3622 Z"
       vector-effect="non-scaling-stroke"
       id="path6" />
    <path
       style="isolation:isolate;fill:#6f7c91"
       d="m 6,1010.3622 c 0,-8.2789 11.65021,-15 26.000001,-15 14.349789,0 25.999999,6.7211 25.999999,15 0,8.2788 -11.65021,15 -25.999999,15 C 17.65021,1025.3622 6,1018.641 6,1010.3622 Z"
       vector-effect="non-scaling-stroke"
       id="path7" />
    <rect
       style="isolation:isolate;fill:#8d5fd3"
       width="30"
       height="6"
       x="17"
       y="1005.36"
       id="rect7" />
    <path
       style="isolation:isolate;fill:#8d5fd3"
       d="m 17.000025,1011.5812 c 0,-3.7425 6.721269,-6.7808 14.999984,-6.7808 8.278718,0 14.999986,3.0383 14.999986,6.7808 0,3.7426 -6.721268,6.781 -14.999986,6.781 -8.278715,0 -14.999984,-3.0384 -14.999984,-6.781 z"
       vector-effect="non-scaling-stroke"
       id="path8" />
    <path
       style="opacity:0.2;isolation:isolate"
       d="m 17.000025,1006.3622 c 0,-3.3114 6.721269,-6 14.999984,-6 8.278718,0 14.999986,2.6886 14.999986,6 0,3.3116 -6.721268,6 -14.999986,6 -8.278715,0 -14.999984,-2.6884 -14.999984,-6 z"
       vector-effect="non-scaling-stroke"
       id="path9" />
    <path
       style="isolation:isolate;fill:#aa87de"
       d="m 17.000025,1005.3622 c 0,-3.3114 6.721269,-6 14.999984,-6 8.278718,0 14.999986,2.6886 14.999986,6 0,3.3116 -6.721268,6 -14.999986,6 -8.278715,0 -14.999984,-2.6884 -14.999984,-6 z"
       vector-effect="non-scaling-stroke"
       id="path10" />
    <path
       style="isolation:isolate;fill:none"
       d="m 17.249112,1006.4086 c -0.04139,-0.1915 -0.06256,-0.3856 -0.06256,-0.5818 0,-3.4735 6.636155,-6.29454 14.810038,-6.29454 8.173885,0 14.810039,2.82124 14.810039,6.29454 0,0.4433 -0.108069,0.8761 -0.313603,1.2937"
       vector-effect="non-scaling-stroke"
       id="path11" />
    <path
       style="opacity:0.2;isolation:isolate;fill:#ffffff"
       transform="translate(0,988.3622)"
       d="M 32,7 C 17.650209,7 6,13.7211 6,22 6,22.167671 6.012001,22.333649 6.021484,22.5 6.4802356,14.452671 17.940837,8 32,8 46.059161,8 57.519764,14.452671 57.978516,22.5 57.987999,22.333649 58,22.167671 58,22 58,13.7211 46.349789,7 32,7 Z"
       id="path12" />
  </g>
</svg>
