<?xml version="1.0" encoding="UTF-8" standalone="no"?>
<svg
   width="62"
   height="62"
   version="1.1"
   id="svg6"
   sodipodi:docname="com.ranfdev.Geopard.svg"
   inkscape:version="1.4.2 (unknown)"
   xmlns:inkscape="http://www.inkscape.org/namespaces/inkscape"
   xmlns:sodipodi="http://sodipodi.sourceforge.net/DTD/sodipodi-0.dtd"
   xmlns="http://www.w3.org/2000/svg"
   xmlns:svg="http://www.w3.org/2000/svg">
  <defs
     id="defs6" />
  <sodipodi:namedview
     id="namedview6"
     pagecolor="#ffffff"
     bordercolor="#000000"
     borderopacity="0.25"
     inkscape:showpageshadow="2"
     inkscape:pageopacity="0.0"
     inkscape:pagecheckerboard="0"
     inkscape:deskcolor="#d1d1d1"
     inkscape:zoom="11.921875"
     inkscape:cx="32"
     inkscape:cy="32"
     inkscape:current-layer="svg6" />
  <g
     id="g6"
     transform="translate(-0.5,-1)">
    <ellipse
       style="opacity:0.2;stroke-width:0.999971"
       cx="31.499996"
       cy="32.491234"
       id="circle1"
       rx="27.499996"
       ry="27.508766" />
    <ellipse
       style="fill:#e3d7f4;stroke-width:0.999971"
       cx="31.499996"
       cy="31.508766"
       id="circle2"
       rx="27.499996"
       ry="27.508766" />
    <path
       style="opacity:0.50668648;fill:#ffffff;stroke-width:0.999971"
       d="M 21.932293,38.916081 23.25,36.093564 l -0.701821,3.48158 -0.02684,3.075036 1.41618,0.721748 1.604165,-0.85965 1.833334,-0.458478 0.916666,-0.916962 -0.458333,-0.916957 -0.458333,-0.458481 3.666668,-3.667836 h 0.916661 -0.916664 l -3.208335,3.667836 0.916666,1.833917 -1.374999,0.458483 -2.291668,0.916957 0.458334,0.458481 h 0.916667 l 0.916667,0.916955 -0.458334,0.458482 1.833333,-0.458482 1.833334,-2.750876 0.458335,-1.375436 h 0.916664 -0.458333 l -0.458331,0.916957 -0.458335,0.458479 -0.916666,1.833921 -1.375001,1.375437 h -0.916664 l -0.458334,0.458481 v 0.916958 l 0.458334,0.45848 0.916666,0.458479 h 1.375001 l 4.583334,-0.916959 1.833331,-0.45848 1.375002,-0.916959 h 1.833333 l -11.458334,4.126315 -0.458333,0.45848 0.916666,0.45848 2.291667,0.458479 0.458335,0.916959 H 26.45835 l -0.916667,0.458479 v 0.916959 l -0.916666,0.45848 -0.916669,-0.45848 h -0.458335 l -1.375001,0.45848 -0.916665,0.458481 0.916665,1.375438 v 0.916957 l -1.833334,-0.458478 h -0.91667 l -0.458331,-1.833917 -0.916666,-0.458481 -0.458336,-0.916958 h -0.458332 l -1.375001,1.375439 -0.45833,-0.458481 0.45833,-0.916958 0.458334,-0.458481 0.458335,-0.91696 -1.374999,-1.375437 v -0.916958 l -1.375004,-0.458481 h -2.291665 l -0.916667,-0.45848 0.458329,-0.458478 1.833334,0.916958 2.291671,-0.45848 -0.458334,-0.458478 -2.291673,-0.916959 -0.45833,-0.916958 L 9.9583376,43.887718 8.5833355,42.0538 8.1250022,41.136838 7.2083356,39.7614 l 0.4583333,-0.458478 0.4583333,0.916959 1.8333354,2.750876 1.3750004,0.916961 1.833334,1.375438 h 2.291662 l 0.916669,-0.916963 v -0.916955 l -0.458334,-0.91696 -0.916665,-1.37544 -0.458334,-1.833916 -0.329429,-2.077484 -0.544272,-3.682165 0.744796,4.240935 0.99723,2.672075 1.881672,2.99982 3.177903,-0.304461 z m 0,0"
       id="path2" />
    <path
       style="opacity:0.61069837;fill:#ffffff;stroke-width:0.999971"
       d="m 24.596355,48.042686 c 0,2.532383 -2.051759,4.584793 -4.583336,4.584793 -2.531576,0 -4.583334,-2.05241 -4.583334,-4.584793 0,-2.532383 2.051758,-4.584795 4.583334,-4.584795 2.531577,0 4.583336,2.052412 4.583336,4.584795 z m 0,0"
       id="path3" />
    <path
       fill="#f5f5f5"
       d="m 20.929689,48.042686 c 0,0.506833 -0.409995,0.916961 -0.91667,0.916961 -0.506672,0 -0.916663,-0.410128 -0.916663,-0.916961 0,-0.506834 0.409991,-0.916956 0.916663,-0.916956 0.506675,0 0.91667,0.410122 0.91667,0.916956 z m 0,0"
       id="path4"
       style="stroke-width:0.999971;fill:#5a2ca0" />
    <path
       style="fill:#c6afe9;stroke-width:0.999971"
       d="m 18.638917,9.3137057 a 3.6609394,3.6270818 0 0 0 -3.663086,3.6266443 3.6609394,3.6270818 0 0 0 0.260499,1.316335 7.9527729,7.8792235 0 0 0 -7.5544452,7.852358 7.9527729,7.8792235 0 0 0 5.8437492,7.586405 5.5195069,5.4684605 0 0 0 -1.383056,3.615897 5.5195069,5.4684605 0 0 0 0.367922,1.923467 2.9507737,2.9234838 0 0 0 -0.260501,-0.01074 2.9507737,2.9234838 0 0 0 -2.9514149,2.922805 2.9507737,2.9234838 0 0 0 2.9514149,2.922807 2.9507737,2.9234838 0 0 0 2.578128,-1.520505 4.5644057,4.5221921 0 0 0 4.458007,3.602469 4.5644057,4.5221921 0 0 0 4.565427,-4.521216 4.5644057,4.5221921 0 0 0 -1.176267,-3.03295 5.5195069,5.4684605 0 0 0 0.507567,-2.286131 5.5195069,5.4684605 0 0 0 -2.916501,-4.822092 7.9527729,7.8792235 0 0 0 3.045409,-4.370779 7.9527729,7.8792235 0 0 0 1.187008,0.805923 3.6609394,3.6270818 0 0 0 -1.557612,2.960415 3.6609394,3.6270818 0 0 0 3.660397,3.626644 3.6609394,3.6270818 0 0 0 3.660401,-3.626644 3.6609394,3.6270818 0 0 0 -0.606933,-1.995998 7.9527729,7.8792235 0 0 0 2.489502,-0.830098 3.6609394,3.6270818 0 0 0 -0.641847,2.044352 3.6609394,3.6270818 0 0 0 3.660401,3.626644 3.6609394,3.6270818 0 0 0 2.849365,-1.362006 6.0658319,6.0097336 0 0 0 -0.220217,1.574233 6.0658319,6.0097336 0 0 0 6.066655,6.009483 6.0658319,6.0097336 0 0 0 6.06665,-6.009483 6.0658319,6.0097336 0 0 0 -4.809815,-5.87785 4.7916601,4.7473445 0 0 0 0.523678,-2.135693 4.7916601,4.7473445 0 0 0 -4.791014,-4.746871 4.7916601,4.7473445 0 0 0 -4.793702,4.746871 4.7916601,4.7473445 0 0 0 0.05104,0.668918 3.6609394,3.6270818 0 0 0 -0.942625,-0.123576 3.6609394,3.6270818 0 0 0 -1.084968,0.169242 7.9527729,7.8792235 0 0 0 2.32031,-5.536677 7.9527729,7.8792235 0 0 0 -7.954589,-7.879222 7.9527729,7.8792235 0 0 0 -6.160645,2.914747 3.6609394,3.6270818 0 0 0 0.0161,-0.201478 A 3.6609394,3.6270818 0 0 0 18.63891,9.3137117 Z M 34.553468,10.48229 a 0.56216458,0.55696537 0 0 0 -0.561281,0.558776 0.56216458,0.55696537 0 0 0 0.561281,0.556084 0.56216458,0.55696537 0 0 0 0.561276,-0.556084 0.56216458,0.55696537 0 0 0 -0.561276,-0.558776 z m 9.321533,0.3949 a 2.7499999,2.7508769 0 0 0 -2.750003,2.75088 2.7499999,2.7508769 0 0 0 2.750003,2.750878 A 2.7499999,2.7508769 0 0 0 46.625,13.62807 2.7499999,2.7508769 0 0 0 43.875001,10.87719 Z m 6.649413,4.099457 a 0.56216458,0.55696537 0 0 0 -0.563963,0.55877 0.56216458,0.55696537 0 0 0 0.563963,0.556085 0.56216458,0.55696537 0 0 0 0.561281,-0.556085 0.56216458,0.55696537 0 0 0 -0.561281,-0.55877 z m -29.688717,0.85427 a 7.9527729,7.8792235 0 0 0 -0.06714,0.260585 7.9527729,7.8792235 0 0 0 -0.134281,-0.110144 3.6609394,3.6270818 0 0 0 0.20142,-0.150444 z m 32.56225,6.664971 a 0.56216458,0.55696537 0 0 0 -0.561277,0.556084 0.56216458,0.55696537 0 0 0 0.561277,0.558772 0.56216458,0.55696537 0 0 0 0.561282,-0.558772 0.56216458,0.55696537 0 0 0 -0.561282,-0.556084 z m 2.40088,0.816664 a 0.56216458,0.55696537 0 0 0 -0.56128,0.558772 0.56216458,0.55696537 0 0 0 0.56128,0.556084 0.56216458,0.55696537 0 0 0 0.563965,-0.556084 0.56216458,0.55696537 0 0 0 -0.563965,-0.558772 z m 1.377688,1.310966 a 0.56216458,0.55696537 0 0 0 -0.561282,0.556086 0.56216458,0.55696537 0 0 0 0.561282,0.558772 0.56216458,0.55696537 0 0 0 0.563964,-0.558772 0.56216458,0.55696537 0 0 0 -0.563964,-0.556086 z m -3.808106,1.316338 a 0.56216458,0.55696537 0 0 0 -0.561278,0.556086 0.56216458,0.55696537 0 0 0 0.561278,0.558772 0.56216458,0.55696537 0 0 0 0.563965,-0.558772 0.56216458,0.55696537 0 0 0 -0.563965,-0.556086 z m -14.55298,1.286788 a 4.7916601,4.7473445 0 0 0 0.225586,0.08864 6.0658319,6.0097336 0 0 0 -0.263182,0.346547 3.6609394,3.6270818 0 0 0 0.03757,-0.435197 z M 54.875,28.757892 a 2.7499999,2.7508769 0 0 0 -2.75,2.750877 2.7499999,2.7508769 0 0 0 2.75,2.750879 2.7499999,2.7508769 0 0 0 2.749999,-2.750879 A 2.7499999,2.7508769 0 0 0 54.875,28.757892 Z m -27.752442,6.495724 a 1.0104028,1.0010584 0 0 0 -1.009766,1.002029 1.0104028,1.0010584 0 0 0 1.009766,1.002027 1.0104028,1.0010584 0 0 0 1.009768,-1.002027 1.0104028,1.0010584 0 0 0 -1.009768,-1.002029 z m 22.939941,0.38147 a 4.8124999,4.8140347 0 0 0 -4.812498,4.814032 4.8124999,4.8140347 0 0 0 4.812498,4.814038 A 4.8124999,4.8140347 0 0 0 54.875,40.449118 4.8124999,4.8140347 0 0 0 50.062499,35.635086 Z M 14.736818,41.07774 a 1.0104028,1.0010584 0 0 0 -1.009764,1.002027 1.0104028,1.0010584 0 0 0 1.009764,1.002027 1.0104028,1.0010584 0 0 0 1.009763,-1.002027 1.0104028,1.0010584 0 0 0 -1.009763,-1.002027 z m 26.38818,0.05907 a 2.7499999,2.7508769 0 0 0 -2.75,2.750881 2.7499999,2.7508769 0 0 0 2.75,2.750876 2.7499999,2.7508769 0 0 0 2.750003,-2.750876 2.7499999,2.7508769 0 0 0 -2.750003,-2.750881 z m -8.558834,0.795175 a 0.56216458,0.55696537 0 0 0 -0.561282,0.556085 0.56216458,0.55696537 0 0 0 0.561282,0.558774 0.56216458,0.55696537 0 0 0 0.561278,-0.558774 0.56216458,0.55696537 0 0 0 -0.561278,-0.556085 z m 14.79736,6.828841 a 1.0104028,1.0010584 0 0 0 -1.009765,0.999341 1.0104028,1.0010584 0 0 0 1.009765,1.00203 1.0104028,1.0010584 0 0 0 1.012455,-1.00203 1.0104028,1.0010584 0 0 0 -1.012455,-0.999341 z m -2.929931,2.922807 a 1.0104028,1.0010584 0 0 0 -1.01245,1.002027 1.0104028,1.0010584 0 0 0 1.01245,1.00203 1.0104028,1.0010584 0 0 0 1.009765,-1.00203 1.0104028,1.0010584 0 0 0 -1.009765,-1.002027 z"
       id="path5" />
    <path
       style="opacity:0.2;fill:#ffffff;stroke-width:0.999971"
       d="M 31.499999,4.0000001 A 27.499999,27.508769 0 0 0 4.0000001,31.508769 27.499999,27.508769 0 0 0 4.0326101,31.98273 27.499999,27.508769 0 0 1 31.499999,4.982456 27.499999,27.508769 0 0 1 58.982734,31.746707 27.499999,27.508769 0 0 0 59,31.508769 27.499999,27.508769 0 0 0 31.499999,4.0000001 Z"
       id="path6" />
  </g>
</svg>
