<?xml version="1.0" encoding="UTF-8" standalone="no"?>
<svg
   width="62"
   height="62"
   version="1"
   id="svg12"
   sodipodi:docname="opentyrian.svg"
   inkscape:version="1.4.2 (unknown)"
   xmlns:inkscape="http://www.inkscape.org/namespaces/inkscape"
   xmlns:sodipodi="http://sodipodi.sourceforge.net/DTD/sodipodi-0.dtd"
   xmlns="http://www.w3.org/2000/svg"
   xmlns:svg="http://www.w3.org/2000/svg">
  <defs
     id="defs12" />
  <sodipodi:namedview
     id="namedview12"
     pagecolor="#ffffff"
     bordercolor="#000000"
     borderopacity="0.25"
     inkscape:showpageshadow="2"
     inkscape:pageopacity="0.0"
     inkscape:pagecheckerboard="0"
     inkscape:deskcolor="#d1d1d1"
     showgrid="true"
     inkscape:zoom="8.4300387"
     inkscape:cx="35.705649"
     inkscape:cy="30.9014"
     inkscape:current-layer="svg12">
    <inkscape:grid
       id="grid12"
       units="px"
       originx="0"
       originy="0"
       spacingx="1"
       spacingy="1"
       empcolor="#0099e5"
       empopacity="0.30196078"
       color="#0099e5"
       opacity="0.14901961"
       empspacing="5"
       enabled="true"
       visible="true" />
  </sodipodi:namedview>
  <g
     id="g12"
     transform="translate(0,-0.5)">
    <path
       style="opacity:0.2;stroke-width:0.999926"
       d="M 30.984825,41.000078 C 29.003993,41.098858 28.581139,42.591798 27.996303,44 H 26.49471 l -1.50159,-1.631794 v 5.818036 L 27.996303,53 h 2.988522 0.0148 2.988521 L 36.99133,48.186242 V 42.368206 L 35.489735,44 h -1.501679 c -0.584838,-1.408202 -1.007689,-2.90115 -2.988521,-2.999922 -0.005,-2.66e-4 -0.0092,2.56e-4 -0.0148,0 z"
       id="path1" />
    <path
       style="opacity:0.2;stroke-width:0.999926"
       d="m 10.99517,5 v 8.199219 l 2.038763,1.847656 1.999705,-0.09375 3.960353,4.257813 V 23 h -3.99941 V 35 H 8.9954649 v 14.050782 c 0,5.68421 6.8769331,9.807666 10.8226231,9.949218 C 16.516192,55.70429 11.58818,54.611248 12.748818,45.65625 15.62067,48.325558 18.168433,51.638112 22.747344,51 19.77931,48.821862 16.064042,47.525482 15.486696,41.847656 l 1.761459,-1.320312 h 1.374797 l 2.815991,-3.492188 1.308401,-0.773438 6.862271,8.527344 L 30.992224,45 v 0 h 0.0078 l 1.382609,-0.210938 6.862271,-8.527344 1.308401,0.773438 2.815991,3.492188 h 1.374797 l 1.761459,1.320312 C 45.928215,47.525482 42.212948,48.821862 39.244914,51 43.823825,51.638112 46.367682,48.325558 49.239535,45.65625 50.400172,54.611248 45.476068,55.70429 42.17417,59 46.119861,58.85844 52.996793,54.734992 52.996793,49.050782 V 35 H 46.997677 V 23 h -3.99941 v -3.789062 l 3.960354,-4.257813 1.9958,0.09375 2.042667,-1.847656 V 5 L 38.998856,10.683594 V 13 h -1.12874 L 37.065547,12.105469 36.932754,9.320312 33.741818,7 h -2.737878 -0.004 -0.0077 -0.0078 -2.733973 L 25.059504,9.320312 24.926711,12.105469 24.122142,13 h -1.12874 v -2.316406 z"
       id="path2" />
    <path
       style="fill:#ff5555;stroke-width:0.999926"
       d="M 4.9960542,14.894737 9.194355,17.736842 10.593789,22 H 6.3954878 L 4.9960542,19.157894 Z"
       id="path3" />
    <path
       style="fill:#ff5555;stroke-width:0.999926"
       d="M 57.001823,14.894737 52.803522,17.736842 51.404088,22 h 4.198302 l 1.399433,-2.842106 z"
       id="path4" />
    <path
       style="fill:#535d6c;stroke-width:0.999926"
       d="m 10.99517,4 v 8.199219 l 2.038763,1.847656 1.999705,-0.09375 3.960353,4.257813 V 22 h -3.99941 V 34 H 8.9954649 v 14.050782 c 0,5.68421 6.8769331,9.807666 10.8226231,9.949218 C 16.516192,54.70429 11.58818,53.611248 12.748818,44.65625 15.62067,47.325558 18.168433,50.638112 22.747344,50 19.77931,47.821862 16.064042,46.525482 15.486696,40.847656 l 1.761459,-1.320312 h 1.374797 l 2.815991,-3.492188 1.308401,-0.773438 6.862271,8.527344 L 30.992224,44 v 0 h 0.0078 l 1.382609,-0.210938 6.862271,-8.527344 1.308401,0.773438 2.815991,3.492188 h 1.374797 l 1.761459,1.320312 C 45.928215,46.525482 42.212948,47.821862 39.244914,50 43.823825,50.638112 46.367682,47.325558 49.239535,44.65625 50.400172,53.611248 45.476068,54.70429 42.17417,58 46.119861,57.85844 52.996793,53.734992 52.996793,48.050782 V 34 H 46.997677 V 22 h -3.99941 v -3.789062 l 3.960354,-4.257813 1.9958,0.09375 2.042667,-1.847656 V 4 L 38.998856,9.683594 V 12 h -1.12874 L 37.065547,11.105469 36.932754,8.3203124 33.741818,6 h -2.737878 -0.004 -0.0077 -0.0078 -2.733973 L 25.059504,8.3203124 24.926711,11.105469 24.122142,12 h -1.12874 V 9.683594 Z"
       id="path5" />
    <rect
       style="fill:#ff5555;stroke-width:0.999926"
       width="3.9994106"
       height="4"
       x="-53.002647"
       y="34.000015"
       transform="scale(-1,1)"
       id="rect5" />
    <rect
       style="fill:#ff5555;stroke-width:0.999926"
       width="3.9994106"
       height="4"
       x="8.9991121"
       y="34.000015"
       id="rect6" />
    <path
       style="opacity:0.1;fill:#ffffff;stroke-width:0.999926"
       d="m 10.994916,4 v 1 l 11.998232,5.683594 v -1 z M 50.996834,4 38.998602,9.683594 v 1 L 50.996834,5 Z M 28.250186,6 25.05925,8.3203125 24.926457,11.105469 24.121888,12 h -1.12874 v 1 h 1.12874 L 24.926457,12.105469 25.05925,9.320312 28.250186,7 h 2.733972 0.0078 0.0078 0.0039 2.737879 L 36.9325,9.320312 37.065293,12.105469 37.869862,13 h 1.12874 v -1 h -1.12874 L 37.065293,11.105469 36.9325,8.3203125 33.741565,6 h -2.737879 -0.0039 -0.0078 -0.0078 z M 14.994327,22 v 1 h 3.99941 v -1 z m 28.003686,0 v 1 h 3.99941 V 22 Z M 8.9952105,34 v 1 h 5.9991165 v -1 z m 38.0022125,0 v 1 h 5.999116 v -1 z m -31.382094,7.751953 -0.128888,0.0957 c 0.491149,4.830124 3.252618,6.489989 5.893663,8.21875 0.436729,0.01434 0.888604,2.64e-4 1.366986,-0.0664 -2.802549,-2.056694 -6.267604,-3.332686 -7.131761,-8.248047 z m 30.761092,0 C 45.512274,46.667314 42.047209,47.943306 39.24466,50 c 0.478382,0.06667 0.930334,0.08074 1.366986,0.06641 2.641124,-1.728823 5.402507,-3.388464 5.893663,-8.21875 z M 12.594289,47.785156 C 12.4624,53.810425 15.65942,55.542915 18.480141,57.816406 18.949424,57.916878 19.40215,57.985087 19.817834,58 16.948132,55.135674 12.855982,53.929129 12.594289,47.785156 Z m 36.799266,0.01172 C 49.127667,53.93009 45.041693,55.137597 42.173916,58 c 0.415684,-0.01491 0.86841,-0.08312 1.337693,-0.183594 2.818184,-2.271999 6.00985,-4.003871 5.881946,-10.01953 z"
       id="path6" />
    <path
       style="opacity:0.2;stroke-width:0.999926"
       d="M 10.99517,9 C 9.08687,9.05299 7.4823425,8.92886 5.6834529,10.128906 4.1727591,11.03984 3.1321504,12.325324 3.0119715,13.734375 c -0.2037789,2.389227 2.2104517,5.684679 5.9834934,7.554687 v 2.76172 L 14.818826,31 16.994286,30.96094 V 22.089844 C 13.172768,19.73349 1.0325944,16.39378 6.4528708,11.628906 7.6802623,10.208347 9.21514,10.309283 10.99517,10.328125 Z m 17.997348,0 v 1.5 L 23.993255,12 v 3 c 0,0 4.373789,-1.390828 6.991158,-1.40625 0.0042,1.8e-5 0.0112,-2.5e-5 0.0156,0 C 33.617375,13.60917 37.991192,15 37.991192,15 V 12 L 32.991929,10.5 V 9 h -1.991895 -0.0156 z m 22.008476,0 v 1.328125 c 1.780029,-0.01884 3.314907,-0.119778 4.5423,1.300781 5.420276,4.764874 -6.719898,8.104584 -10.541417,10.460938 v 8.871094 L 47.181244,31 52.988983,24.050782 v -2.76172 c 3.773042,-1.870008 6.202894,-5.16546 5.999116,-7.554687 C 58.867918,12.325324 57.823404,11.03984 56.312711,10.128906 54.513822,8.928861 52.909294,9.05299 51.000994,9 Z m -20.016581,8 c -2.765235,7.58e-4 -7.991011,1.332032 -7.991011,1.332032 V 25 c 0,0 5.081012,-2.5171 7.991011,-2.546876 0.004,3.4e-5 0.0116,-4.2e-5 0.0156,0 C 33.909984,22.482904 38.991045,25 38.991045,25 v -6.667968 c 0,0 -5.225778,-1.331274 -7.991011,-1.332032 -0.004,-1e-6 -0.0116,-4e-6 -0.0156,0 z m -6.190494,10 -8.401106,8 h -1.398232 l 2.999558,3.199218 V 41 h 2.987842 l 0.02344,-2.457032 0.988136,-1.742186 V 34 l 2.80037,-3 h 1.39823 l 1.402137,-1 h 1.398232 l -0.08202,-3 z m 8.291746,0 -0.08203,3 h 1.402138 l 1.39824,1 h 1.402137 l 2.796462,3 v 2.800782 L 40.99075,38.542968 41.01809,41 h 2.983935 V 38.199218 L 47.001583,35 h -1.39823 l -8.397201,-8 z"
       id="path7" />
    <path
       style="fill:#383d48;stroke-width:0.999926;fill-opacity:1"
       d="M 10.99517,8 C 9.08687,8.052989 7.4823425,7.928861 5.6834529,9.128906 4.1727591,10.03984 3.1321504,11.325324 3.0119715,12.734375 c -0.2037789,2.389227 2.2104517,5.684679 5.9834934,7.554687 v 2.76172 L 14.818826,30 16.994286,29.96094 V 21.089844 C 13.172768,18.73349 1.0325944,15.39378 6.4528708,10.628906 7.6802623,9.208347 9.21514,9.309283 10.99517,9.328125 Z M 28.992518,8 V 9.5 L 23.993255,11 v 3 c 0,0 4.373789,-1.390828 6.991158,-1.40625 0.0042,1.8e-5 0.0112,-2.5e-5 0.0156,0 C 33.617375,12.60917 37.991192,14 37.991192,14 V 11 L 32.991929,9.5 V 8 h -1.991895 -0.0156 z m 22.008476,0 v 1.328125 c 1.780029,-0.01884 3.314907,-0.119778 4.5423,1.300781 5.420276,4.764874 -6.719898,8.104584 -10.541417,10.460938 v 8.871094 L 47.181244,30 52.988983,23.050782 v -2.76172 c 3.773042,-1.870008 6.202894,-5.16546 5.999116,-7.554687 C 58.867918,11.325324 57.823404,10.03984 56.312711,9.128906 54.513822,7.9288614 52.909294,8.05299 51.000994,8 Z m -20.016581,8 c -2.765235,7.57e-4 -7.991011,1.332031 -7.991011,1.332031 V 24 c 0,0 5.081012,-2.5171 7.991011,-2.546876 0.004,3.4e-5 0.0116,-4.2e-5 0.0156,0 C 33.909984,21.482904 38.991045,24 38.991045,24 v -6.667969 c 0,0 -5.225778,-1.331274 -7.991011,-1.332031 -0.004,-10e-7 -0.0116,-4e-6 -0.0156,0 z m -6.190494,10 -8.401106,8 h -1.398232 l 2.999558,3.199218 V 40 h 2.987842 l 0.02344,-2.457032 0.988136,-1.742186 V 33 l 2.80037,-3 h 1.39823 l 1.402137,-1 h 1.398232 l -0.08202,-3 z m 8.291746,0 -0.08203,3 h 1.402138 l 1.39824,1 h 1.402137 l 2.796462,3 v 2.800782 L 40.99075,37.542968 41.01809,40 h 2.983935 V 37.199218 L 47.001583,34 h -1.39823 l -8.397201,-8 z"
       id="path8" />
    <path
       style="opacity:0.2;fill:#ffffff;stroke-width:0.999926"
       d="m 10.994916,8 c -1.9083,0.052989 -3.512828,-0.071139 -5.3117175,1.128906 -1.510694,0.910934 -2.5513026,2.196418 -2.6714814,3.605469 -0.022222,0.260546 -0.00717,0.533424 0.031245,0.8125 0.1929046,-1.334654 1.1974176,-2.547963 2.640236,-3.417969 C 7.482088,8.9288612 9.086616,9.05299 10.994916,9 Z m 17.997348,0 v 1 h 1.991894 0.01563 1.991895 V 8 h -1.991895 -0.01563 z M 51.00074,8 v 1 c 1.908301,0.05299 3.512828,-0.071138 5.311717,1.128906 1.442818,0.870006 2.450916,2.083315 2.644142,3.417969 0.03875,-0.279076 0.05346,-0.551954 0.03125,-0.8125 C 58.867664,11.325324 57.82315,10.03984 56.312457,9.128906 54.513568,7.9288616 52.909041,8.05299 51.00074,8 Z M 28.992264,9.5 23.993001,11 v 1 l 4.999263,-1.5 z m 3.999411,0 v 1 L 37.990938,12 V 11 Z M 5.1461682,13.556641 c -0.8499816,3.756911 8.5642868,6.508544 11.8478638,8.533203 v -1 C 14.008471,19.248942 5.9462189,16.808598 5.1461682,13.556641 Z m 51.7033198,0 c -0.800051,3.251957 -8.862302,5.692301 -11.847865,7.533203 v 1 c 3.283579,-2.024659 12.697846,-4.776292 11.847865,-8.533203 z M 30.984158,16 c -2.765235,7.57e-4 -7.99101,1.332031 -7.99101,1.332031 v 1 c 0,0 5.225775,-1.331274 7.99101,-1.332031 0.004,-4e-6 0.01162,-1e-6 0.01563,0 2.765233,7.57e-4 7.991011,1.332031 7.991011,1.332031 v -1 c 0,0 -5.225778,-1.331274 -7.991011,-1.332031 -0.004,-10e-7 -0.01163,-4e-6 -0.01563,0 z m -6.190494,10 -8.401106,8 h -1.398231 l 0.937362,1 h 0.460869 l 8.401106,-8 h 4.11658 l 0.05468,2 h 0.02734 l -0.08202,-3 z m 8.291747,0 -0.08202,3 h 0.02734 l 0.05468,-2 h 4.120487 l 8.3972,8 h 0.460869 l 0.937362,-1 h -1.398231 l -8.3972,-8 z"
       id="path9" />
    <path
       style="fill:#ff5555;stroke-width:0.999926"
       d="m 27.995601,32 -2.935115,2.757812 -0.06738,3.692714 3.846117,5.507814 L 30.983439,44 h 0.0176 L 33.145248,43.95834 36.99134,38.450526 36.923962,34.757812 33.98886,32 h -0.996931 v 9.333338 H 28.992518 V 32 Z"
       id="path10" />
    <path
       style="fill:#7a7c7a;stroke-width:0.999926"
       d="M 30.984825,40.000078 C 29.003993,40.098858 28.581139,41.591798 27.996303,43 H 26.49471 l -1.50159,-1.631794 v 5.818036 L 27.996303,52 h 2.988522 0.0148 2.988521 L 36.99133,47.186242 V 41.368206 L 35.489735,43 h -1.501679 c -0.584838,-1.408202 -1.007689,-2.90115 -2.988521,-2.999922 -0.005,-2.66e-4 -0.0092,2.56e-4 -0.0148,0 z"
       id="path11" />
    <ellipse
       style="opacity:0.2;stroke-width:0.999926"
       cx="30.995871"
       cy="27.999996"
       id="circle11"
       rx="2.999558"
       ry="3" />
    <ellipse
       style="fill:#8d5fd3;stroke-width:0.999926"
       cx="30.995871"
       cy="26.999996"
       id="circle12"
       rx="2.999558"
       ry="3" />
    <path
       style="opacity:0.2;fill:#ffffff;stroke-width:0.999926"
       d="m 30.995875,24 a 2.999558,3 0 0 0 -2.999558,3 2.999558,3 0 0 0 0.04296,0.513672 A 2.999558,3 0 0 1 30.995875,25 2.999558,3 0 0 1 33.95247,27.486328 2.999558,3 0 0 0 33.995433,27 2.999558,3 0 0 0 30.995875,24 Z"
       id="path12" />
  </g>
</svg>
