<?xml version="1.0" encoding="UTF-8" standalone="no"?>
<svg
   height="62"
   width="62"
   version="1.1"
   id="svg6"
   sodipodi:docname="conky-manager2.svg"
   inkscape:version="1.4.2 (unknown)"
   xmlns:inkscape="http://www.inkscape.org/namespaces/inkscape"
   xmlns:sodipodi="http://sodipodi.sourceforge.net/DTD/sodipodi-0.dtd"
   xmlns:xlink="http://www.w3.org/1999/xlink"
   xmlns="http://www.w3.org/2000/svg"
   xmlns:svg="http://www.w3.org/2000/svg"
   xmlns:rdf="http://www.w3.org/1999/02/22-rdf-syntax-ns#"
   xmlns:cc="http://creativecommons.org/ns#"
   xmlns:dc="http://purl.org/dc/elements/1.1/">
  <metadata
     id="metadata12">
    <rdf:RDF>
      <cc:Work
         rdf:about="">
        <dc:format>image/svg+xml</dc:format>
        <dc:type
           rdf:resource="http://purl.org/dc/dcmitype/StillImage" />
      </cc:Work>
    </rdf:RDF>
  </metadata>
  <defs
     id="defs10">
    <linearGradient
       id="linearGradient5"
       inkscape:collect="always">
      <stop
         style="stop-color:#c6afe9;stop-opacity:1;"
         offset="0"
         id="stop12" />
      <stop
         style="stop-color:#c6afe9;stop-opacity:0;"
         offset="1"
         id="stop13" />
    </linearGradient>
    <linearGradient
       id="linearGradient10"
       inkscape:collect="always">
      <stop
         style="stop-color:#99c3ff;stop-opacity:1;"
         offset="0"
         id="stop8" />
      <stop
         style="stop-color:#0066ec;stop-opacity:1;"
         offset="1"
         id="stop10" />
    </linearGradient>
    <linearGradient
       id="linearGradient4"
       inkscape:collect="always">
      <stop
         style="stop-color:#445ba2;stop-opacity:1;"
         offset="0"
         id="stop5" />
      <stop
         style="stop-color:#7387c4;stop-opacity:1;"
         offset="1"
         id="stop6" />
    </linearGradient>
    <linearGradient
       gradientUnits="userSpaceOnUse"
       y2="8.2220001"
       x2="-42.945"
       y1="20.17"
       x1="-42.740002"
       id="8">
      <stop
         id="stop2"
         stop-color="#ceb270" />
      <stop
         id="stop4"
         stop-color="#ffe6b5"
         offset="1" />
    </linearGradient>
    <linearGradient
       gradientUnits="userSpaceOnUse"
       y2="7.8340001"
       x2="-46.459999"
       y1="14.902"
       x1="-46.349998"
       id="5"
       xlink:href="#6"
       gradientTransform="matrix(0.98074528,0,0,0.98074528,63.41346,24.106693)" />
    <linearGradient
       gradientUnits="userSpaceOnUse"
       y2="8.3509998"
       x2="-39.27"
       y1="14.978"
       x1="-39.02"
       id="7"
       xlink:href="#6"
       gradientTransform="matrix(0.98074528,0,0,0.98074528,63.41346,24.106693)" />
    <linearGradient
       id="6">
      <stop
         id="stop9"
         stop-color="#141414" />
      <stop
         id="stop11"
         stop-color="#2d2d2f"
         offset="1" />
    </linearGradient>
    <linearGradient
       gradientUnits="userSpaceOnUse"
       y2="-4.1500001"
       x2="-56.150002"
       y1="5.5110002"
       x1="-58.804001"
       id="4"
       xlink:href="#1"
       gradientTransform="matrix(0.98074528,0,0,0.98074528,63.41346,24.106693)" />
    <linearGradient
       gradientUnits="userSpaceOnUse"
       y2="-13.524"
       x2="-43.470001"
       y1="9.6630001"
       x1="-43.715"
       id="3"
       gradientTransform="matrix(0.98074528,0,0,0.98074528,63.41346,24.106693)">
      <stop
         id="stop15"
         stop-color="#c52828" />
      <stop
         id="stop17"
         stop-color="#ff5454"
         offset="1" />
    </linearGradient>
    <linearGradient
       gradientUnits="userSpaceOnUse"
       y2="-4.658"
       x2="-28.01"
       y1="6.02"
       x1="-26.599001"
       id="0"
       xlink:href="#1" />
    <linearGradient
       gradientUnits="userSpaceOnUse"
       y2="-11.173"
       x2="-43.473999"
       y1="4.7930002"
       x1="-43.299999"
       id="2"
       xlink:href="#1"
       gradientTransform="matrix(0.98074528,0,0,0.98074528,63.41346,24.106693)" />
    <linearGradient
       id="1">
      <stop
         id="stop22"
         stop-color="#e0e0e0" />
      <stop
         id="stop24"
         stop-color="#fcf9f9"
         offset="1" />
    </linearGradient>
    <clipPath
       clipPathUnits="userSpaceOnUse"
       id="clipPath2411-2">
      <path
         style="color:#000000;font-style:normal;font-variant:normal;font-weight:normal;font-stretch:normal;font-size:medium;line-height:normal;font-family:sans-serif;font-variant-ligatures:normal;font-variant-position:normal;font-variant-caps:normal;font-variant-numeric:normal;font-variant-alternates:normal;font-feature-settings:normal;text-indent:0;text-align:start;text-decoration:none;text-decoration-line:none;text-decoration-style:solid;text-decoration-color:#000000;letter-spacing:normal;word-spacing:normal;text-transform:none;writing-mode:lr-tb;direction:ltr;text-orientation:mixed;dominant-baseline:auto;baseline-shift:baseline;text-anchor:start;white-space:normal;shape-padding:0;clip-rule:nonzero;display:inline;overflow:visible;visibility:visible;opacity:1;isolation:auto;mix-blend-mode:normal;color-interpolation:sRGB;color-interpolation-filters:linearRGB;solid-color:#000000;solid-opacity:1;vector-effect:none;fill:#9bdb4d;fill-opacity:1;fill-rule:evenodd;stroke:none;stroke-width:10;stroke-linecap:round;stroke-linejoin:round;stroke-miterlimit:4;stroke-dasharray:none;stroke-dashoffset:0;stroke-opacity:1;paint-order:markers fill stroke;color-rendering:auto;image-rendering:auto;shape-rendering:auto;text-rendering:auto;enable-background:accumulate"
         d="M 88.988281,9.4101562 A 11.073298,11.073298 0 0 0 77.914062,20.484375 11.073298,11.073298 0 0 0 88.988281,31.556641 11.073298,11.073298 0 0 0 94.070312,30.318359 C 107.54334,42.395375 112.70923,61.680304 106.30664,79.273438 98.813674,99.862731 77.699395,112.05462 56.125,108.25 36.799992,104.84206 22.219125,89.495596 19.386719,70.585938 c 3.699627,-0.221129 6.658189,-0.693619 7.082031,-1.427735 1.213086,-2.101127 -9.704686,-21.009765 -12.130859,-21.009765 -2.426173,0 -13.34394596,18.908638 -12.1308598,21.009765 0.4241723,0.734688 3.3881081,1.206834 7.0917969,1.427735 2.9168139,23.734346 21.0400999,43.270912 45.0878909,47.511722 26.288735,4.63598 52.186681,-10.3175 61.316401,-35.404301 7.92892,-21.787181 1.25176,-45.844204 -15.783198,-60.541015 A 11.073298,11.073298 0 0 0 100.06055,20.484375 11.073298,11.073298 0 0 0 88.988281,9.4101562 Z"
         id="path2413-7"
         inkscape:connector-curvature="0" />
    </clipPath>
    <linearGradient
       gradientTransform="matrix(0.89553576,0,0,-0.89663265,6.6836208,69.705837)"
       gradientUnits="userSpaceOnUse"
       xlink:href="#linearGradient4113"
       id="linearGradient3149"
       y2="3.4508991"
       x2="76.523361"
       y1="-9.023138"
       x1="76.523361" />
    <linearGradient
       id="linearGradient4113">
      <stop
         offset="0"
         style="stop-color:#000000;stop-opacity:1"
         id="stop4115" />
      <stop
         offset="1"
         style="stop-color:#000000;stop-opacity:0"
         id="stop4117" />
    </linearGradient>
    <linearGradient
       gradientTransform="matrix(2.7297298,0,0,2.7297298,-544.90791,-119.49824)"
       gradientUnits="userSpaceOnUse"
       xlink:href="#linearGradient3924-776"
       id="linearGradient3159"
       y2="43"
       x2="23.99999"
       y1="4.999989"
       x1="23.99999" />
    <linearGradient
       id="linearGradient3924-776">
      <stop
         offset="0"
         style="stop-color:#ffffff;stop-opacity:1"
         id="stop3124" />
      <stop
         offset="0.06316455"
         style="stop-color:#ffffff;stop-opacity:0.23529412"
         id="stop3126" />
      <stop
         offset="0.95056331"
         style="stop-color:#ffffff;stop-opacity:0.15686275"
         id="stop3128" />
      <stop
         offset="1"
         style="stop-color:#ffffff;stop-opacity:0.39215687"
         id="stop3130" />
    </linearGradient>
    <radialGradient
       gradientTransform="matrix(0,25.083279,-30.794253,0,372.81658,-208.0918)"
       gradientUnits="userSpaceOnUse"
       xlink:href="#linearGradient2867-449-88-871-390-598-476-591-434-148-57-177-8-3-3-6-4-8-8-8-5"
       id="radialGradient3395"
       fy="9.9571075"
       fx="6.2001843"
       r="12.671875"
       cy="9.9571075"
       cx="6.7304144" />
    <linearGradient
       id="linearGradient2867-449-88-871-390-598-476-591-434-148-57-177-8-3-3-6-4-8-8-8-5">
      <stop
         offset="0"
         style="stop-color:#919caf;stop-opacity:1"
         id="stop3750-1-0-7-6-6-1-3-9-3" />
      <stop
         offset="0.26238"
         style="stop-color:#68758e;stop-opacity:1"
         id="stop3752-3-7-4-0-32-8-923-0-7" />
      <stop
         offset="0.704952"
         style="stop-color:#485a6c;stop-opacity:1"
         id="stop3754-1-8-5-2-7-6-7-1-9" />
      <stop
         offset="1"
         style="stop-color:#444c5c;stop-opacity:1"
         id="stop3756-1-6-2-6-6-1-96-6-0" />
    </linearGradient>
    <radialGradient
       gradientTransform="matrix(2.003784,0,0,1.4,27.98813,-17.4)"
       gradientUnits="userSpaceOnUse"
       xlink:href="#linearGradient3688-166-749-5"
       id="radialGradient2455-1"
       fy="43.5"
       fx="4.9929786"
       r="2.5"
       cy="43.5"
       cx="4.9929786" />
    <linearGradient
       id="linearGradient3688-166-749-5">
      <stop
         offset="0"
         style="stop-color:#181818;stop-opacity:1"
         id="stop2883-0" />
      <stop
         offset="1"
         style="stop-color:#181818;stop-opacity:0"
         id="stop2885-5" />
    </linearGradient>
    <radialGradient
       gradientTransform="matrix(2.003784,0,0,1.4,-20.01187,-104.4)"
       gradientUnits="userSpaceOnUse"
       xlink:href="#linearGradient3688-166-749-5"
       id="radialGradient2457-5"
       fy="43.5"
       fx="4.9929786"
       r="2.5"
       cy="43.5"
       cx="4.9929786" />
    <linearGradient
       gradientUnits="userSpaceOnUse"
       xlink:href="#linearGradient3702-501-757-0"
       id="linearGradient2459-7"
       y2="39.999443"
       x2="25.058096"
       y1="47.027729"
       x1="25.058096" />
    <linearGradient
       id="linearGradient3702-501-757-0">
      <stop
         offset="0"
         style="stop-color:#181818;stop-opacity:0"
         id="stop2895-0" />
      <stop
         offset="0.5"
         style="stop-color:#181818;stop-opacity:1"
         id="stop2897-2" />
      <stop
         offset="1"
         style="stop-color:#181818;stop-opacity:0"
         id="stop2899-6" />
    </linearGradient>
    <radialGradient
       gradientTransform="matrix(1.5563924,0,0,0.16978827,70.270358,102.13029)"
       gradientUnits="userSpaceOnUse"
       xlink:href="#linearGradient4113"
       id="radialGradient4377"
       fy="93.467628"
       fx="-4.0287771"
       r="35.338131"
       cy="93.467628"
       cx="-4.0287771" />
    <filter
       style="color-interpolation-filters:sRGB"
       inkscape:label="Colorize"
       id="filter3907">
      <feComposite
         in2="SourceGraphic"
         operator="arithmetic"
         k1="0"
         k2="1"
         result="composite1"
         id="feComposite3909"
         k3="0"
         k4="0" />
      <feColorMatrix
         in="composite1"
         values="1"
         type="saturate"
         result="colormatrix1"
         id="feColorMatrix3911" />
      <feFlood
         flood-opacity="0.854902"
         flood-color="rgb(23,141,46)"
         result="flood1"
         id="feFlood3913" />
      <feBlend
         in="flood1"
         in2="colormatrix1"
         mode="multiply"
         result="blend1"
         id="feBlend3915" />
      <feBlend
         in2="blend1"
         mode="screen"
         result="blend2"
         id="feBlend3917" />
      <feColorMatrix
         in="blend2"
         values="1"
         type="saturate"
         result="colormatrix2"
         id="feColorMatrix3919" />
      <feComposite
         in="colormatrix2"
         in2="SourceGraphic"
         operator="in"
         result="composite2"
         id="feComposite3921" />
    </filter>
    <radialGradient
       gradientTransform="matrix(0,25.083279,-30.794253,0,-170.57782,-329.07655)"
       gradientUnits="userSpaceOnUse"
       xlink:href="#linearGradient2867-449-88-871-390-598-476-591-434-148-57-177-8-3-3-6-4-8-8-8-5-2"
       id="radialGradient3395-6"
       fy="9.9571075"
       fx="6.2001843"
       r="12.671875"
       cy="9.9571075"
       cx="6.7304144" />
    <linearGradient
       id="linearGradient2867-449-88-871-390-598-476-591-434-148-57-177-8-3-3-6-4-8-8-8-5-2">
      <stop
         offset="0"
         style="stop-color:#95a3ab;stop-opacity:1"
         id="stop3750-1-0-7-6-6-1-3-9-3-9" />
      <stop
         offset="0.26238"
         style="stop-color:#8a715e;stop-opacity:1"
         id="stop3752-3-7-4-0-32-8-923-0-7-1" />
      <stop
         offset="0.704952"
         style="stop-color:#715344;stop-opacity:1"
         id="stop3754-1-8-5-2-7-6-7-1-9-2" />
      <stop
         offset="1"
         style="stop-color:#273445;stop-opacity:1"
         id="stop3756-1-6-2-6-6-1-96-6-0-7" />
    </linearGradient>
    <radialGradient
       gradientTransform="matrix(2.003784,0,0,1.4,27.98813,-17.4)"
       gradientUnits="userSpaceOnUse"
       xlink:href="#linearGradient3688-166-749-5"
       id="radialGradient2455-1-0"
       fy="43.5"
       fx="4.9929786"
       r="2.5"
       cy="43.5"
       cx="4.9929786" />
    <radialGradient
       gradientTransform="matrix(2.003784,0,0,1.4,-20.01187,-104.4)"
       gradientUnits="userSpaceOnUse"
       xlink:href="#linearGradient3688-166-749-5"
       id="radialGradient2457-5-6"
       fy="43.5"
       fx="4.9929786"
       r="2.5"
       cy="43.5"
       cx="4.9929786" />
    <radialGradient
       gradientTransform="matrix(1.5563924,0,0,0.16978827,-473.12404,-18.85446)"
       gradientUnits="userSpaceOnUse"
       xlink:href="#linearGradient4113"
       id="radialGradient4377-6"
       fy="93.467628"
       fx="-4.0287771"
       r="35.338131"
       cy="93.467628"
       cx="-4.0287771" />
    <filter
       id="c"
       x="-0.035999998"
       y="-0.035999998"
       width="1.072"
       height="1.072"
       color-interpolation-filters="sRGB">
      <feGaussianBlur
         stdDeviation="0.23812032"
         id="feGaussianBlur4561" />
    </filter>
    <filter
       id="b"
       x="-0.068143003"
       y="-0.053594999"
       width="1.1363"
       height="1.1072"
       color-interpolation-filters="sRGB">
      <feGaussianBlur
         stdDeviation="0.20032941"
         id="feGaussianBlur4564" />
    </filter>
    <linearGradient
       gradientTransform="matrix(3.779602,0,0,3.779602,-107.19797,61.880324)"
       id="a"
       x1="8.4665003"
       x2="8.4665003"
       y1="0.52915001"
       y2="16.403999"
       gradientUnits="userSpaceOnUse">
      <stop
         stop-color="#ff7712"
         offset="0"
         id="stop4567" />
      <stop
         stop-color="#ff3d62"
         offset="1"
         id="stop4569" />
    </linearGradient>
    <linearGradient
       id="a-3">
      <stop
         stop-color="#3889e9"
         offset="0"
         id="stop4582" />
      <stop
         stop-color="#5ea5fb"
         offset="1"
         id="stop4584" />
    </linearGradient>
    <linearGradient
       id="d"
       x1="399.57001"
       x2="399.57001"
       y1="545.79999"
       y2="517.79999"
       gradientUnits="userSpaceOnUse"
       xlink:href="#a-3" />
    <linearGradient
       id="b-6"
       x1="-0.5"
       x2="536"
       y1="267.75"
       y2="267.75"
       gradientUnits="userSpaceOnUse"
       xlink:href="#a-3" />
    <filter
       id="f"
       x="-0.035999998"
       y="-0.035999998"
       width="1.072"
       height="1.072"
       color-interpolation-filters="sRGB">
      <feGaussianBlur
         stdDeviation="0.41999874"
         id="feGaussianBlur4589" />
    </filter>
    <linearGradient
       id="e"
       x1="400.57001"
       x2="400.57001"
       y1="517.79999"
       y2="545.79999"
       gradientUnits="userSpaceOnUse">
      <stop
         stop-color="#49b202"
         offset="0"
         id="stop4592" />
      <stop
         stop-color="#8cd958"
         offset="1"
         id="stop4594" />
    </linearGradient>
    <linearGradient
       id="c-7"
       x1="32"
       x2="32"
       y1="16.002001"
       y2="47.998001"
       gradientUnits="userSpaceOnUse">
      <stop
         stop-color="#ffffff"
         offset="0"
         id="stop4597" />
      <stop
         stop-color="#daffd8"
         offset="1"
         id="stop4599" />
    </linearGradient>
    <filter
       id="g"
       x="-0.059996001"
       y="-0.060004"
       width="1.12"
       height="1.12"
       color-interpolation-filters="sRGB">
      <feGaussianBlur
         stdDeviation="0.79995118"
         id="feGaussianBlur4602" />
    </filter>
    <linearGradient
       id="c-7-5"
       x1="32"
       x2="32"
       y1="16.002001"
       y2="47.998001"
       gradientUnits="userSpaceOnUse"
       gradientTransform="matrix(1.7857356,0,0,1.7857356,6.28904,6.4031434)">
      <stop
         stop-color="#ffffff"
         offset="0"
         id="stop4597-6" />
      <stop
         stop-color="#daffd8"
         offset="1"
         id="stop4599-2" />
    </linearGradient>
    <linearGradient
       id="a-1"
       x2="0"
       y1="543.79999"
       y2="503.79999"
       gradientTransform="matrix(1.5,0,0,1.5,-824.8601,-705.95249)"
       gradientUnits="userSpaceOnUse">
      <stop
         stop-color="#18222a"
         offset="0"
         id="stop4751" />
      <stop
         stop-color="#566069"
         offset="1"
         id="stop4753" />
    </linearGradient>
    <linearGradient
       id="b-2"
       x1="399.57001"
       x2="416.57001"
       y1="517.79999"
       y2="534.79999"
       gradientUnits="userSpaceOnUse">
      <stop
         offset="0"
         id="stop4756" />
      <stop
         stop-opacity="0"
         offset="1"
         id="stop4758" />
    </linearGradient>
    <linearGradient
       gradientTransform="matrix(1.5,0,0,1.5,-400.8499,-705.95249)"
       id="c-70"
       x2="0"
       y1="537.79999"
       y2="508.79999"
       gradientUnits="userSpaceOnUse">
      <stop
         stop-color="#026ddc"
         offset="0"
         id="stop4761" />
      <stop
         stop-color="#28b0fd"
         offset="1"
         id="stop4763" />
    </linearGradient>
    <linearGradient
       id="d-9"
       x1="408.64999"
       x2="416.64999"
       y1="525.28003"
       y2="533.28003"
       gradientTransform="translate(-0.081,-0.48)"
       gradientUnits="userSpaceOnUse">
      <stop
         stop-opacity=".065"
         offset="0"
         id="stop4766" />
      <stop
         stop-opacity="0"
         offset="1"
         id="stop4768" />
    </linearGradient>
    <linearGradient
       id="e-3"
       x1="417.79001"
       x2="426.22"
       y1="517.96002"
       y2="525.90997"
       gradientTransform="matrix(-1,0,0,1,817.2,-0.48)"
       gradientUnits="userSpaceOnUse"
       xlink:href="#d-9" />
    <linearGradient
       id="f-6"
       x1="408.64999"
       x2="416.64999"
       y1="525.28003"
       y2="533.28003"
       gradientTransform="translate(-0.081,-0.48)"
       gradientUnits="userSpaceOnUse"
       xlink:href="#d-9" />
    <filter
       id="i"
       x="-0.063734002"
       y="-0.056678999"
       width="1.1275001"
       height="1.1134"
       color-interpolation-filters="sRGB">
      <feGaussianBlur
         stdDeviation="0.80440236"
         id="feGaussianBlur4773" />
    </filter>
    <filter
       id="h"
       x="-0.071286"
       y="-0.051798999"
       width="1.1426001"
       height="1.1036"
       color-interpolation-filters="sRGB">
      <feGaussianBlur
         stdDeviation="0.62691525"
         id="feGaussianBlur4776" />
    </filter>
    <filter
       id="g-0"
       x="-0.035999998"
       y="-0.035999998"
       width="1.072"
       height="1.072"
       color-interpolation-filters="sRGB">
      <feGaussianBlur
         stdDeviation="0.6"
         id="feGaussianBlur4779" />
    </filter>
    <linearGradient
       gradientTransform="matrix(2.5329816,0,0,2.5329816,-970.19736,-1263.699)"
       id="c-70-2"
       x2="0"
       y1="537.79999"
       y2="508.79999"
       gradientUnits="userSpaceOnUse">
      <stop
         style="stop-color:#027bf9;stop-opacity:1"
         stop-color="#026ddc"
         offset="0"
         id="stop4761-3" />
      <stop
         style="stop-color:#37b7ff;stop-opacity:1"
         stop-color="#28b0fd"
         offset="1"
         id="stop4763-7" />
    </linearGradient>
    <filter
       id="i-2"
       x="-0.063734002"
       y="-0.056678999"
       width="1.1275001"
       height="1.1134"
       style="color-interpolation-filters:sRGB">
      <feGaussianBlur
         stdDeviation="0.80440236"
         id="feGaussianBlur4773-8" />
    </filter>
    <filter
       id="h-9"
       x="-0.071286"
       y="-0.051798999"
       width="1.1426001"
       height="1.1036"
       style="color-interpolation-filters:sRGB">
      <feGaussianBlur
         stdDeviation="0.62691525"
         id="feGaussianBlur4776-7" />
    </filter>
    <linearGradient
       id="b-3"
       x1="520"
       x2="520"
       y1="4"
       y2="1024"
       gradientTransform="matrix(0.063559,0,0,0.063559,-146.12798,11.5021)"
       gradientUnits="userSpaceOnUse">
      <stop
         stop-color="#d7d7d7"
         offset="0"
         id="stop4610" />
      <stop
         stop-color="#ffffff"
         offset="1"
         id="stop4612" />
    </linearGradient>
    <filter
       id="d-6"
       x="-0.035999998"
       y="-0.035999998"
       width="1.072"
       height="1.072"
       color-interpolation-filters="sRGB">
      <feGaussianBlur
         stdDeviation="14.16"
         id="feGaussianBlur4615" />
    </filter>
    <filter
       id="a-7"
       x="-0.051986001"
       y="-0.070933998"
       width="1.104"
       height="1.1418999"
       color-interpolation-filters="sRGB">
      <feGaussianBlur
         stdDeviation="0.92866617"
         id="feGaussianBlur4618" />
    </filter>
    <linearGradient
       id="a-36"
       x1="32"
       x2="32"
       y1="1.9995"
       y2="61.999001"
       gradientUnits="userSpaceOnUse">
      <stop
         stop-color="#2b3439"
         offset="0"
         id="stop4623" />
      <stop
         stop-color="#3f4e59"
         offset="1"
         id="stop4625" />
    </linearGradient>
    <filter
       id="c-75"
       x="-0.035999998"
       y="-0.035999998"
       width="1.072"
       height="1.072"
       color-interpolation-filters="sRGB">
      <feGaussianBlur
         stdDeviation="0.90000003"
         id="feGaussianBlur4628" />
    </filter>
    <filter
       id="b-35"
       x="-0.059772"
       y="-0.060229"
       width="1.1195"
       height="1.1205"
       color-interpolation-filters="sRGB">
      <feGaussianBlur
         stdDeviation="1.257454"
         id="feGaussianBlur4631" />
    </filter>
    <linearGradient
       id="b-29"
       x1="14.023"
       x2="27.879"
       y1="8.1289997"
       y2="34.944"
       gradientTransform="matrix(1.2,0,0,1.2,3.1999,3.1999)"
       gradientUnits="userSpaceOnUse">
      <stop
         stop-color="#ffffff"
         offset="0"
         id="stop4720" />
      <stop
         stop-color="#eea9a9"
         offset="1"
         id="stop4722" />
    </linearGradient>
    <filter
       id="d-1"
       x="-0.035999998"
       y="-0.035999998"
       width="1.072"
       height="1.072"
       color-interpolation-filters="sRGB">
      <feGaussianBlur
         stdDeviation="14.16"
         id="feGaussianBlur4725" />
    </filter>
    <linearGradient
       id="a-2"
       x1="512.04999"
       x2="512.04999"
       y1="40.049999"
       y2="984.04999"
       gradientUnits="userSpaceOnUse">
      <stop
         stop-color="#cf2134"
         offset="0"
         id="stop4728" />
      <stop
         stop-color="#e55a6a"
         offset="1"
         id="stop4730" />
    </linearGradient>
    <filter
       id="c-709"
       x="-0.052000001"
       y="-0.070909001"
       width="1.104"
       height="1.1418"
       color-interpolation-filters="sRGB">
      <feGaussianBlur
         stdDeviation="0.78000102"
         id="feGaussianBlur4733" />
    </filter>
    <linearGradient
       id="b-29-3"
       x1="14.023"
       x2="27.879"
       y1="8.1289997"
       y2="34.944"
       gradientTransform="matrix(1.2,0,0,1.2,29.113766,37.694462)"
       gradientUnits="userSpaceOnUse">
      <stop
         stop-color="#ffffff"
         offset="0"
         id="stop4720-6" />
      <stop
         stop-color="#eea9a9"
         offset="1"
         id="stop4722-0" />
    </linearGradient>
    <linearGradient
       id="b-26"
       x1="399.57001"
       x2="399.57001"
       y1="545.79999"
       y2="517.79999"
       gradientTransform="matrix(2.1429,0,0,2.1429,-826.36,-1107.5)"
       gradientUnits="userSpaceOnUse">
      <stop
         stop-color="#3889e9"
         offset="0"
         id="stop4828" />
      <stop
         stop-color="#5ea5fb"
         offset="1"
         id="stop4830" />
    </linearGradient>
    <filter
       id="c-1"
       x="-0.035999998"
       y="-0.035999998"
       width="1.072"
       height="1.072"
       color-interpolation-filters="sRGB">
      <feGaussianBlur
         stdDeviation="0.41999874"
         id="feGaussianBlur4833" />
    </filter>
    <filter
       id="d-8"
       x="-0.058458"
       y="-0.061625"
       width="1.1169"
       height="1.1233"
       color-interpolation-filters="sRGB">
      <feGaussianBlur
         stdDeviation="0.73072901"
         id="feGaussianBlur4836" />
    </filter>
    <linearGradient
       id="e-7"
       x1="399.98999"
       x2="399.98999"
       y1="545.14001"
       y2="518.14001"
       gradientTransform="matrix(2.1429,0,0,2.1429,-826.36,-1107.5)"
       gradientUnits="userSpaceOnUse">
      <stop
         stop-color="#61fcff"
         offset="0"
         id="stop4839" />
      <stop
         stop-color="#198aff"
         offset="1"
         id="stop4841" />
    </linearGradient>
    <linearGradient
       id="a-9"
       x1="399.57001"
       x2="399.57001"
       y1="545.79999"
       y2="517.79999"
       gradientTransform="matrix(2.1429,0,0,2.1429,-826.36,-1107.5)"
       gradientUnits="userSpaceOnUse"
       xlink:href="#b-26" />
    <filter
       id="c-2"
       x="-0.035999998"
       y="-0.035999998"
       width="1.072"
       height="1.072"
       color-interpolation-filters="sRGB">
      <feGaussianBlur
         stdDeviation="0.41999874"
         id="feGaussianBlur4935" />
    </filter>
    <filter
       id="d-3"
       x="-0.063676"
       y="-0.056724999"
       width="1.1274"
       height="1.1135"
       color-interpolation-filters="sRGB">
      <feGaussianBlur
         stdDeviation="0.70906774"
         id="feGaussianBlur4938" />
    </filter>
    <radialGradient
       gradientTransform="matrix(0,25.083279,-30.794253,0,372.81658,-208.0918)"
       gradientUnits="userSpaceOnUse"
       xlink:href="#linearGradient2867-449-88-871-390-598-476-591-434-148-57-177-8-3-3-6-4-8-8-8-5"
       id="radialGradient3395-2"
       fy="9.9571075"
       fx="6.2001843"
       r="12.671875"
       cy="9.9571075"
       cx="6.7304144" />
    <radialGradient
       gradientTransform="matrix(2.003784,0,0,1.4,27.98813,-17.4)"
       gradientUnits="userSpaceOnUse"
       xlink:href="#linearGradient3688-166-749-5"
       id="radialGradient2455-1-9"
       fy="43.5"
       fx="4.9929786"
       r="2.5"
       cy="43.5"
       cx="4.9929786" />
    <radialGradient
       gradientTransform="matrix(2.003784,0,0,1.4,-20.01187,-104.4)"
       gradientUnits="userSpaceOnUse"
       xlink:href="#linearGradient3688-166-749-5"
       id="radialGradient2457-5-0"
       fy="43.5"
       fx="4.9929786"
       r="2.5"
       cy="43.5"
       cx="4.9929786" />
    <radialGradient
       gradientTransform="matrix(1.5563924,0,0,0.16978827,70.270358,102.13029)"
       gradientUnits="userSpaceOnUse"
       xlink:href="#linearGradient4113"
       id="radialGradient4377-1"
       fy="93.467628"
       fx="-4.0287771"
       r="35.338131"
       cy="93.467628"
       cx="-4.0287771" />
    <filter
       style="color-interpolation-filters:sRGB"
       inkscape:label="Colorize"
       id="filter3907-8">
      <feComposite
         in2="SourceGraphic"
         operator="arithmetic"
         k1="0"
         k2="1"
         result="composite1"
         id="feComposite3909-7"
         k3="0"
         k4="0" />
      <feColorMatrix
         in="composite1"
         values="1"
         type="saturate"
         result="colormatrix1"
         id="feColorMatrix3911-9" />
      <feFlood
         flood-opacity="0.854902"
         flood-color="rgb(23,141,46)"
         result="flood1"
         id="feFlood3913-2" />
      <feBlend
         in="flood1"
         in2="colormatrix1"
         mode="multiply"
         result="blend1"
         id="feBlend3915-0" />
      <feBlend
         in2="blend1"
         mode="screen"
         result="blend2"
         id="feBlend3917-2" />
      <feColorMatrix
         in="blend2"
         values="1"
         type="saturate"
         result="colormatrix2"
         id="feColorMatrix3919-3" />
      <feComposite
         in="colormatrix2"
         in2="SourceGraphic"
         operator="in"
         result="composite2"
         id="feComposite3921-7" />
    </filter>
    <radialGradient
       gradientTransform="matrix(0,25.083279,-30.794253,0,-170.57782,-329.07655)"
       gradientUnits="userSpaceOnUse"
       xlink:href="#linearGradient2867-449-88-871-390-598-476-591-434-148-57-177-8-3-3-6-4-8-8-8-5-2"
       id="radialGradient3395-6-5"
       fy="9.9571075"
       fx="6.2001843"
       r="12.671875"
       cy="9.9571075"
       cx="6.7304144" />
    <radialGradient
       gradientTransform="matrix(2.003784,0,0,1.4,27.98813,-17.4)"
       gradientUnits="userSpaceOnUse"
       xlink:href="#linearGradient3688-166-749-5"
       id="radialGradient2455-1-0-9"
       fy="43.5"
       fx="4.9929786"
       r="2.5"
       cy="43.5"
       cx="4.9929786" />
    <radialGradient
       gradientTransform="matrix(2.003784,0,0,1.4,-20.01187,-104.4)"
       gradientUnits="userSpaceOnUse"
       xlink:href="#linearGradient3688-166-749-5"
       id="radialGradient2457-5-6-7"
       fy="43.5"
       fx="4.9929786"
       r="2.5"
       cy="43.5"
       cx="4.9929786" />
    <radialGradient
       gradientTransform="matrix(1.5563924,0,0,0.16978827,-473.12404,-18.85446)"
       gradientUnits="userSpaceOnUse"
       xlink:href="#linearGradient4113"
       id="radialGradient4377-6-3"
       fy="93.467628"
       fx="-4.0287771"
       r="35.338131"
       cy="93.467628"
       cx="-4.0287771" />
    <filter
       id="c-6"
       x="-0.035999998"
       y="-0.035999998"
       width="1.072"
       height="1.072"
       color-interpolation-filters="sRGB">
      <feGaussianBlur
         stdDeviation="0.23812032"
         id="feGaussianBlur4561-1" />
    </filter>
    <filter
       id="b-293"
       x="-0.068143003"
       y="-0.053594999"
       width="1.1363"
       height="1.1072"
       color-interpolation-filters="sRGB">
      <feGaussianBlur
         stdDeviation="0.20032941"
         id="feGaussianBlur4564-1" />
    </filter>
    <filter
       id="f-4"
       x="-0.035999998"
       y="-0.035999998"
       width="1.072"
       height="1.072"
       color-interpolation-filters="sRGB">
      <feGaussianBlur
         stdDeviation="0.41999874"
         id="feGaussianBlur4589-5" />
    </filter>
    <filter
       id="g-6"
       x="-0.059996001"
       y="-0.060004"
       width="1.12"
       height="1.12"
       color-interpolation-filters="sRGB">
      <feGaussianBlur
         stdDeviation="0.79995118"
         id="feGaussianBlur4602-3" />
    </filter>
    <linearGradient
       id="a-1-6"
       x2="0"
       y1="543.79999"
       y2="503.79999"
       gradientTransform="matrix(1.5,0,0,1.5,-824.8601,-705.95249)"
       gradientUnits="userSpaceOnUse">
      <stop
         stop-color="#18222a"
         offset="0"
         id="stop4751-1" />
      <stop
         stop-color="#566069"
         offset="1"
         id="stop4753-5" />
    </linearGradient>
    <linearGradient
       gradientTransform="matrix(1.5,0,0,1.5,-400.8499,-705.95249)"
       id="c-70-7"
       x2="0"
       y1="537.79999"
       y2="508.79999"
       gradientUnits="userSpaceOnUse">
      <stop
         stop-color="#026ddc"
         offset="0"
         id="stop4761-6" />
      <stop
         stop-color="#28b0fd"
         offset="1"
         id="stop4763-5" />
    </linearGradient>
    <filter
       id="i-3"
       x="-0.063734002"
       y="-0.056678999"
       width="1.1275001"
       height="1.1134"
       color-interpolation-filters="sRGB">
      <feGaussianBlur
         stdDeviation="0.80440236"
         id="feGaussianBlur4773-7" />
    </filter>
    <filter
       id="h-4"
       x="-0.071286"
       y="-0.051798999"
       width="1.1426001"
       height="1.1036"
       color-interpolation-filters="sRGB">
      <feGaussianBlur
         stdDeviation="0.62691525"
         id="feGaussianBlur4776-5" />
    </filter>
    <filter
       id="g-0-2"
       x="-0.035999998"
       y="-0.035999998"
       width="1.072"
       height="1.072"
       color-interpolation-filters="sRGB">
      <feGaussianBlur
         stdDeviation="0.6"
         id="feGaussianBlur4779-5" />
    </filter>
    <linearGradient
       gradientTransform="matrix(2.5329816,0,0,2.5329816,-970.19736,-1263.699)"
       id="c-70-2-4"
       x2="0"
       y1="537.79999"
       y2="508.79999"
       gradientUnits="userSpaceOnUse">
      <stop
         style="stop-color:#027bf9;stop-opacity:1"
         stop-color="#026ddc"
         offset="0"
         id="stop4761-3-7" />
      <stop
         style="stop-color:#37b7ff;stop-opacity:1"
         stop-color="#28b0fd"
         offset="1"
         id="stop4763-7-4" />
    </linearGradient>
    <filter
       id="i-2-4"
       x="-0.063734002"
       y="-0.056678999"
       width="1.1275001"
       height="1.1134"
       style="color-interpolation-filters:sRGB">
      <feGaussianBlur
         stdDeviation="0.80440236"
         id="feGaussianBlur4773-8-3" />
    </filter>
    <filter
       id="h-9-0"
       x="-0.071286"
       y="-0.051798999"
       width="1.1426001"
       height="1.1036"
       style="color-interpolation-filters:sRGB">
      <feGaussianBlur
         stdDeviation="0.62691525"
         id="feGaussianBlur4776-7-7" />
    </filter>
    <filter
       id="d-6-8"
       x="-0.035999998"
       y="-0.035999998"
       width="1.072"
       height="1.072"
       color-interpolation-filters="sRGB">
      <feGaussianBlur
         stdDeviation="14.16"
         id="feGaussianBlur4615-8" />
    </filter>
    <filter
       id="a-7-4"
       x="-0.051986001"
       y="-0.070933998"
       width="1.104"
       height="1.1418999"
       color-interpolation-filters="sRGB">
      <feGaussianBlur
         stdDeviation="0.92866617"
         id="feGaussianBlur4618-3" />
    </filter>
    <linearGradient
       gradientTransform="matrix(1.0499601,0,0,1.0499041,-389.93263,-539.69949)"
       gradientUnits="userSpaceOnUse"
       x2="426.69501"
       y2="499.92099"
       y1="547.67499"
       id="a-6"
       x1="389.32001">
      <stop
         stop-color="#18222a"
         style="stop-color:#1e2b35;stop-opacity:1"
         id="stop216" />
      <stop
         stop-color="#566069"
         offset="1"
         style="stop-color:#6d7983;stop-opacity:1"
         id="stop218" />
    </linearGradient>
    <linearGradient
       id="b-36"
       y1="44"
       x1="44"
       y2="4"
       x2="24"
       gradientUnits="userSpaceOnUse">
      <stop
         stop-color="#c61423"
         id="stop7" />
      <stop
         offset="1"
         stop-color="#dc2b41"
         id="stop9-7" />
    </linearGradient>
    <linearGradient
       id="a-5"
       y1="4"
       x1="24"
       y2="44"
       x2="4"
       gradientUnits="userSpaceOnUse">
      <stop
         stop-color="#197cf1"
         id="stop2-3" />
      <stop
         offset="1"
         stop-color="#20bcfa"
         id="stop4-5" />
    </linearGradient>
    <linearGradient
       id="c-2-7"
       x1="44"
       x2="4"
       gradientUnits="userSpaceOnUse">
      <stop
         stop-color="#42a603"
         id="stop12-9-0" />
      <stop
         offset="1"
         stop-color="#78da06"
         id="stop14-1-9" />
    </linearGradient>
    <linearGradient
       id="d-62"
       y1="522.79999"
       y2="538.79999"
       x1="400.57001"
       gradientUnits="userSpaceOnUse"
       x2="416.57001">
      <stop
         stop-color="#292c2f"
         id="stop17-9" />
      <stop
         offset="1"
         stop-opacity="0"
         id="stop19" />
    </linearGradient>
    <linearGradient
       inkscape:collect="always"
       xlink:href="#linearGradient10"
       id="linearGradient1"
       gradientUnits="userSpaceOnUse"
       x1="35.725719"
       y1="5.1348176"
       x2="37.355656"
       y2="67.565422"
       gradientTransform="matrix(0.45502196,0,0,0.45502196,16.046315,28.25625)" />
    <linearGradient
       inkscape:collect="always"
       xlink:href="#linearGradient10"
       id="linearGradient2"
       gradientUnits="userSpaceOnUse"
       x1="35.055237"
       y1="0.21793833"
       x2="36.740055"
       y2="67.443199"
       gradientTransform="matrix(0.45502196,0,0,0.45502196,16.046315,28.25625)" />
    <linearGradient
       inkscape:collect="always"
       xlink:href="#linearGradient4"
       id="linearGradient6"
       x1="27.492256"
       y1="51.997887"
       x2="27.151159"
       y2="10.37867"
       gradientUnits="userSpaceOnUse"
       gradientTransform="matrix(1.3333333,0,0,1.3333333,-10.964258,-10.838225)" />
    <radialGradient
       inkscape:collect="always"
       xlink:href="#linearGradient5"
       id="radialGradient13"
       cx="25.348856"
       cy="76.922363"
       fx="25.348856"
       fy="76.922363"
       r="5.6972967"
       gradientTransform="matrix(1,0,0,1.2290894,0,-17.622101)"
       gradientUnits="userSpaceOnUse" />
  </defs>
  <sodipodi:namedview
     pagecolor="#ffffff"
     bordercolor="#666666"
     borderopacity="1"
     objecttolerance="10"
     gridtolerance="10"
     guidetolerance="10"
     inkscape:pageopacity="0"
     inkscape:pageshadow="2"
     inkscape:window-width="1920"
     inkscape:window-height="994"
     id="namedview8"
     showgrid="false"
     inkscape:zoom="9.8333334"
     inkscape:cx="20.79661"
     inkscape:cy="40.220339"
     inkscape:window-x="0"
     inkscape:window-y="0"
     inkscape:window-maximized="1"
     inkscape:current-layer="svg6"
     inkscape:showpageshadow="2"
     inkscape:pagecheckerboard="0"
     inkscape:deskcolor="#d1d1d1" />
  <circle
     cx="31"
     cy="31"
     opacity="0.99"
     id="circle2-1"
     style="fill:url(#linearGradient6);fill-opacity:1;stroke-width:2.11587"
     r="28" />
  <path
     inkscape:connector-curvature="0"
     id="rect4580-0-2"
     d="m 34.397726,5.7491813 -5.590297,1.1919879 c 0,0 -0.07307,4.8594598 -0.08497,5.7583108 a 1.6725004,1.3861128 0 0 0 -0.740212,-0.145616 1.6725004,1.3861128 0 0 0 -1.672707,1.38614 1.6725004,1.3861128 0 0 0 1.672707,1.386138 1.6725004,1.3861128 0 0 0 1.671764,-1.375868 l 9.6e-4,9.5e-4 v -0.0116 l 0.04575,-4.5709895 3.528354,-0.8018133 0.05505,3.1745838 a 1.6725004,1.3861128 0 0 0 -0.559108,-0.08108 1.6725004,1.3861128 0 0 0 -1.672701,1.386139 1.6725004,1.3861128 0 0 0 1.672701,1.386137 1.6725004,1.3861128 0 0 0 1.671764,-1.374936 h 9.63e-4 z m 10.492652,7.7166407 c -2.601772,0 -4.724081,2.122298 -4.724071,4.724075 0,2.601769 2.122299,4.724074 4.724071,4.724074 2.601772,0 4.725005,-2.122305 4.725005,-4.724074 0,-2.601777 -2.123233,-4.724075 -4.725005,-4.724075 z m -29.612042,0.09801 c -0.441749,0 -0.86358,0.05889 -1.264789,0.176417 -0.401219,0.113507 -0.776247,0.27558 -1.124782,0.48632 -0.348533,0.206679 -0.663737,0.455868 -0.947428,0.747668 -0.279626,0.287747 -0.51922,0.606368 -0.717804,0.954896 -0.19858,0.34854 -0.352624,0.719535 -0.462048,1.112647 -0.109426,0.39311 -0.164282,0.797898 -0.164282,1.215317 0,0.749753 0.124293,1.424816 0.371501,2.024611 0.251269,0.599793 0.597159,1.107792 1.038905,1.525217 0.441744,0.421485 0.966787,0.744129 1.574695,0.967028 0.607904,0.226946 1.268391,0.340705 1.981663,0.340705 0.701114,0 1.32534,-0.08557 1.872457,-0.255761 0.547112,-0.170212 1.018843,-0.387177 1.416003,-0.650605 l -0.206288,-0.552584 c -0.03641,-0.09317 -0.09692,-0.1521 -0.18202,-0.176418 -0.08109,-0.0284 -0.174654,-0.0124 -0.280016,0.04851 -0.133751,0.077 -0.289338,0.149527 -0.467651,0.218424 -0.174267,0.07297 -0.371077,0.135867 -0.589932,0.188553 -0.214783,0.05679 -0.454384,0.102 -0.717792,0.134412 -0.259384,0.03645 -0.540801,0.05412 -0.844761,0.05412 -0.543067,0 -1.049515,-0.08305 -1.51962,-0.249222 -0.470114,-0.162054 -0.877374,-0.403192 -1.221855,-0.72335 -0.344481,-0.32421 -0.616304,-0.727449 -0.814883,-1.209721 -0.19453,-0.482272 -0.291228,-1.043576 -0.291228,-1.683908 0,-0.518745 0.08864,-1.002561 0.266959,-1.452408 0.182372,-0.453896 0.431571,-0.847528 0.747673,-1.179848 0.316114,-0.336373 0.691143,-0.599203 1.124783,-0.789679 0.437688,-0.190473 0.911897,-0.286572 1.422539,-0.286572 0.470122,0 0.90001,0.06539 1.28906,0.195088 0.389065,0.129707 0.722874,0.324026 1.002505,0.583398 0.279644,0.255316 0.496608,0.575492 0.650605,0.960496 0.158056,0.380958 0.23708,0.822934 0.23708,1.32547 0,0.299894 -0.03064,0.574815 -0.09149,0.826074 -0.06075,0.251268 -0.143865,0.468233 -0.249221,0.650602 -0.10536,0.182372 -0.228736,0.326807 -0.370572,0.432182 -0.141851,0.101373 -0.29187,0.152152 -0.449918,0.152152 -0.10532,0 -0.200521,-0.01707 -0.285628,-0.04944 -0.08108,-0.03645 -0.143968,-0.09692 -0.188561,-0.182016 -0.04456,-0.08912 -0.06623,-0.208486 -0.06623,-0.358434 0,-0.154001 0.02976,-0.350818 0.09057,-0.589928 l 0.565666,-2.194488 c -0.206708,-0.08913 -0.419636,-0.156108 -0.638485,-0.200684 -0.214781,-0.04861 -0.480096,-0.0728 -0.796208,-0.0728 -0.352581,-1e-6 -0.675236,0.04031 -0.967029,0.121334 -0.28774,0.08108 -0.54654,0.19078 -0.777548,0.328566 -0.226952,0.137795 -0.427791,0.301439 -0.602058,0.491922 -0.170213,0.186416 -0.312169,0.387262 -0.425645,0.602058 -0.113467,0.210746 -0.198081,0.431735 -0.254824,0.66273 -0.05673,0.226948 -0.08589,0.451972 -0.08589,0.674873 0,0.243156 0.03068,0.469728 0.09148,0.680457 0.06077,0.206694 0.151909,0.387391 0.273492,0.541392 0.12564,0.149955 0.282161,0.269287 0.468578,0.358439 0.186427,0.08513 0.40338,0.12788 0.650603,0.12788 0.29584,0 0.573243,-0.05889 0.832616,-0.17642 0.259373,-0.11752 0.504536,-0.314344 0.735541,-0.589924 0.08911,0.27558 0.236696,0.474879 0.443384,0.596456 0.206682,0.11752 0.443788,0.176421 0.711267,0.176421 0.356633,0 0.687349,-0.07743 0.991293,-0.231492 0.303951,-0.158049 0.565238,-0.372528 0.78408,-0.644061 0.222903,-0.271533 0.397092,-0.590155 0.522724,-0.954897 0.125667,-0.364742 0.188552,-0.757434 0.188552,-1.178922 0,-0.41742 -0.05483,-0.807024 -0.164285,-1.167717 -0.105333,-0.364723 -0.255376,-0.696984 -0.449908,-0.996879 -0.190484,-0.299938 -0.419524,-0.565237 -0.687011,-0.796248 -0.267486,-0.235068 -0.559446,-0.43343 -0.875568,-0.595533 -0.316118,-0.162123 -0.65241,-0.283928 -1.009032,-0.364981 -0.356644,-0.08511 -0.721137,-0.12788 -1.093986,-0.12788 z m 29.612042,1.144374 c 1.930243,-1e-6 3.481677,1.551452 3.481677,3.48169 0,1.930237 -1.551434,3.481688 -3.481677,3.481686 -1.930235,0 -3.481688,-1.551449 -3.481688,-3.481686 0,-1.930238 1.551453,-3.481691 3.481688,-3.48169 z m -0.591787,0.821426 v 3.298725 h 2.539842 v -0.95582 H 45.254411 V 15.529634 Z M 15.721723,16.98671 c 0.06073,0 0.119733,0.0045 0.176416,0.0124 0.06072,0.0045 0.119733,0.0108 0.176418,0.01869 l -0.41911,1.640948 c -0.04861,0.19048 -0.10996,0.348553 -0.182956,0.474189 -0.07297,0.121573 -0.153523,0.220757 -0.242694,0.297763 -0.08912,0.07297 -0.182765,0.125346 -0.280029,0.157744 -0.09728,0.02841 -0.193967,0.04291 -0.291227,0.04291 -0.194521,0 -0.344541,-0.06693 -0.44991,-0.200685 -0.10132,-0.133749 -0.152148,-0.322505 -0.152148,-0.565667 0,-0.24722 0.04277,-0.484318 0.12788,-0.711273 0.08916,-0.226953 0.208488,-0.425308 0.358438,-0.595521 0.149943,-0.17427 0.32662,-0.312196 0.529254,-0.41351 0.202642,-0.105346 0.418656,-0.157748 0.649666,-0.157749 z m -7.1183175,9.583493 c -0.4892613,4.08e-4 -1.0487413,0.522086 -0.759812,1.15091 l 1.6829707,3.149382 H 7.1453869 c -0.1797187,-0.0057 -0.423772,-0.398878 -0.423772,-0.533914 0,-0.27289 -0.21996,-0.49285 -0.4928493,-0.49285 H 5.7013803 c -0.2728894,0 -0.4919187,0.21996 -0.4919187,0.49285 v 3.917594 c 0,0.272892 0.2190293,0.492854 0.4919187,0.492854 h 0.5273853 c 0.2728893,0 0.4928493,-0.219962 0.4928493,-0.492854 0.00133,-0.174877 0.308236,-0.534492 0.423772,-0.533925 h 2.3811759 l -1.6829693,3.149385 c -0.3852373,0.838441 0.7376093,1.486596 1.1919867,0.962363 L 12.41832,33.72025 h 2.239296 c 0.780601,0 1.409472,-0.628876 1.409472,-1.409472 v -0.03081 c 0,-0.780595 -0.628871,-1.40947 -1.409472,-1.40947 H 12.41832 L 9.0355802,26.758762 C 8.9219935,26.627695 8.7664895,26.570075 8.6034055,26.570207 Z m 41.0371765,1.060375 c -1.657669,-3.15e-4 -3.001697,1.343293 -3.001896,3.000968 0.0016,0.09671 0.0079,0.193256 0.01777,0.289359 -1.026256,0.176481 -1.804313,1.061301 -1.804313,2.139422 0,1.205799 0.970951,2.176747 2.176753,2.176747 h 5.842333 c 1.472334,0 2.657456,-1.185121 2.657456,-2.657467 0,-1.472357 -1.185122,-2.65747 -2.657456,-2.65747 h -0.318333 c -0.326992,-1.343502 -1.529563,-2.289752 -2.912292,-2.291556 z"
     style="fill:#ffffff;fill-opacity:1;stroke-width:1.33333" />
  <path
     d="m 20.978876,27.527961 c -3.624825,0 -5.640671,2.052835 -5.640671,6.250974 0,4.179644 1.997352,6.232479 5.640671,6.232479 h 4.826935 v -2.182293 h -4.826935 c -2.422714,0 -3.458379,-1.20211 -3.458379,-4.050186 0,-2.866571 1.054159,-4.068681 3.458379,-4.068681 h 4.826935 v -2.182293 z"
     id="path19230-7"
     style="font-size:40.6442px;line-height:1.25;font-family:Nasalization;-inkscape-font-specification:Nasalization;opacity:0.3;fill:#000000;fill-opacity:1;stroke:none;stroke-width:0.88241;stroke-dasharray:none;stroke-opacity:0.3" />
  <path
     d="m 30.57725,30.135616 c 0,-0.443856 0.258916,-0.721266 0.64729,-0.721266 0.314398,0 0.55482,0.221928 0.684278,0.536326 l 3.033016,7.970915 c 0.480844,1.424039 1.294581,2.311751 2.940547,2.311751 1.830906,0 2.774101,-1.091146 2.774101,-2.737113 v -7.360613 c 0,-0.443856 0.258915,-0.721266 0.628795,-0.721266 0.332893,0 0.573314,0.221928 0.702773,0.536326 l 3.717294,10.060738 h 2.348738 l -3.865246,-10.39363 c -0.499338,-1.424038 -1.29458,-2.311751 -2.95904,-2.311751 -1.849401,0 -2.755607,1.091147 -2.755607,2.718619 v 7.379107 c 0,0.425362 -0.27741,0.702772 -0.64729,0.702772 -0.332892,0 -0.573314,-0.203434 -0.702773,-0.517832 L 34.09111,29.617784 c -0.46235,-1.424038 -1.257592,-2.311751 -2.922052,-2.311751 -1.867895,0 -2.774101,1.091147 -2.774101,2.718619 v 9.986762 h 2.182293 z"
     id="path19232-3"
     style="font-size:40.6442px;line-height:1.25;font-family:Nasalization;-inkscape-font-specification:Nasalization;opacity:0.3;fill:#000000;fill-opacity:1;stroke:none;stroke-width:0.88241;stroke-dasharray:none;stroke-opacity:0.3" />
  <path
     d="m 20.978876,25.763133 c -3.624825,0 -5.640671,2.052835 -5.640671,6.250974 0,4.179644 1.997352,6.232479 5.640671,6.232479 h 4.826935 v -2.182293 h -4.826935 c -2.422714,0 -3.458379,-1.20211 -3.458379,-4.050186 0,-2.866571 1.054159,-4.068681 3.458379,-4.068681 h 4.826935 v -2.182293 z"
     id="path19230"
     style="font-size:40.6442px;line-height:1.25;font-family:Nasalization;-inkscape-font-specification:Nasalization;fill:url(#linearGradient1);fill-opacity:1;stroke:#000000;stroke-width:0.88241;stroke-dasharray:none;stroke-opacity:0.3" />
  <path
     d="m 30.57725,28.370788 c 0,-0.443856 0.258916,-0.721266 0.64729,-0.721266 0.314398,0 0.55482,0.221928 0.684278,0.536326 l 3.033016,7.970915 c 0.480844,1.424039 1.294581,2.311751 2.940547,2.311751 1.830906,0 2.774101,-1.091146 2.774101,-2.737113 v -7.360613 c 0,-0.443856 0.258915,-0.721266 0.628795,-0.721266 0.332893,0 0.573314,0.221928 0.702773,0.536326 l 3.717294,10.060738 h 2.348738 l -3.865246,-10.39363 c -0.499338,-1.424038 -1.29458,-2.311751 -2.95904,-2.311751 -1.849401,0 -2.755607,1.091147 -2.755607,2.718619 v 7.379107 c 0,0.425362 -0.27741,0.702772 -0.64729,0.702772 -0.332892,0 -0.573314,-0.203434 -0.702773,-0.517832 L 34.09111,27.852956 c -0.46235,-1.424038 -1.257592,-2.311751 -2.922052,-2.311751 -1.867895,0 -2.774101,1.091147 -2.774101,2.718619 v 9.986762 h 2.182293 z"
     id="path19232"
     style="font-size:40.6442px;line-height:1.25;font-family:Nasalization;-inkscape-font-specification:Nasalization;fill:url(#linearGradient2);fill-opacity:1;stroke:#000000;stroke-width:0.88241;stroke-dasharray:none;stroke-opacity:0.3" />
  <text
     xml:space="preserve"
     style="font-size:20.7174px;font-family:'Blush Asliring';-inkscape-font-specification:'Blush Asliring';text-align:start;writing-mode:lr-tb;direction:ltr;text-anchor:start;opacity:1;fill:#81b4ff;fill-opacity:0.69999999;stroke:#282828;stroke-width:0.8;stroke-linecap:round;stroke-linejoin:round;stroke-dasharray:none;stroke-opacity:0.21906117;paint-order:fill markers stroke"
     x="24.991955"
     y="56.263832"
     id="text1"><tspan
       sodipodi:role="line"
       id="tspan1"
       x="24.991955"
       y="56.263832"
       style="fill:#81b4ff;fill-opacity:0.69999999;stroke:#282828;stroke-width:0.8;stroke-dasharray:none;stroke-opacity:0.21906117">2</tspan></text>
</svg>
