<?xml version="1.0" encoding="UTF-8" standalone="no"?>
<svg
   width="62"
   height="62"
   version="1.1"
   id="svg3"
   sodipodi:docname="crawl.svg"
   inkscape:version="1.4.2 (unknown)"
   xmlns:inkscape="http://www.inkscape.org/namespaces/inkscape"
   xmlns:sodipodi="http://sodipodi.sourceforge.net/DTD/sodipodi-0.dtd"
   xmlns:xlink="http://www.w3.org/1999/xlink"
   xmlns="http://www.w3.org/2000/svg"
   xmlns:svg="http://www.w3.org/2000/svg">
  <defs
     id="defs3">
    <linearGradient
       id="paint584_linear_890_11"
       x1="496"
       y1="294"
       x2="482.5"
       y2="307.5"
       gradientUnits="userSpaceOnUse"
       gradientTransform="translate(-454.00025,-257.70022)">
      <stop
         offset="0.284815"
         stop-color="#71706E"
         id="stop1911" />
      <stop
         offset="0.744047"
         stop-color="#B9AA99"
         id="stop1912" />
    </linearGradient>
    <linearGradient
       id="paint585_linear_890_11"
       x1="493"
       y1="299"
       x2="455"
       y2="261"
       gradientUnits="userSpaceOnUse"
       gradientTransform="translate(-454.00025,-257.70022)">
      <stop
         offset="0.151316"
         stop-color="#2E2E41"
         id="stop1913" />
      <stop
         offset="1"
         stop-color="#566C80"
         id="stop1914" />
    </linearGradient>
    <linearGradient
       id="paint586_linear_890_11"
       x1="481.15799"
       y1="286.60699"
       x2="479.504"
       y2="284.953"
       gradientUnits="userSpaceOnUse"
       gradientTransform="translate(-454.00025,-257.70022)">
      <stop
         offset="0.252542"
         stop-color="#71706E"
         id="stop1915" />
      <stop
         offset="1"
         stop-color="#B9AA99"
         id="stop1916" />
    </linearGradient>
    <linearGradient
       inkscape:collect="always"
       xlink:href="#linearGradient29"
       id="linearGradient30"
       x1="30.782633"
       y1="60"
       x2="30.193521"
       y2="5"
       gradientUnits="userSpaceOnUse"
       gradientTransform="matrix(0.98214286,0,0,0.98245614,-0.42857152,-0.92982455)" />
    <linearGradient
       id="linearGradient29"
       inkscape:collect="always">
      <stop
         style="stop-color:#2d3c52;stop-opacity:1;"
         offset="0"
         id="stop29" />
      <stop
         style="stop-color:#3f5174;stop-opacity:1;"
         offset="1"
         id="stop30" />
    </linearGradient>
    <linearGradient
       id="linear0"
       gradientUnits="userSpaceOnUse"
       x1="0"
       y1="0"
       x2="0"
       y2="1"
       gradientTransform="matrix(97.523816,0,0,72.564985,-15.238095,-2.7531923)">
      <stop
         offset="0"
         style="stop-color:#2478ff;stop-opacity:1;"
         id="stop1-3" />
      <stop
         offset="1"
         style="stop-color:#0049bf;stop-opacity:1;"
         id="stop2-6" />
    </linearGradient>
  </defs>
  <sodipodi:namedview
     id="namedview3"
     pagecolor="#ffffff"
     bordercolor="#000000"
     borderopacity="0.25"
     inkscape:showpageshadow="2"
     inkscape:pageopacity="0.0"
     inkscape:pagecheckerboard="0"
     inkscape:deskcolor="#d1d1d1"
     inkscape:zoom="5.890625"
     inkscape:cx="28.350133"
     inkscape:cy="30.302387"
     inkscape:window-width="1920"
     inkscape:window-height="998"
     inkscape:window-x="0"
     inkscape:window-y="0"
     inkscape:window-maximized="1"
     inkscape:current-layer="svg3" />
  <rect
     style="opacity:0.2;stroke-width:0.9823"
     width="55"
     height="55.017544"
     x="3.5"
     y="3.9824562"
     ry="13.754386"
     id="rect1" />
  <rect
     style="fill:url(#linearGradient30);stroke-width:0.9823"
     width="55"
     height="55.017544"
     x="3.5"
     y="3"
     ry="13.754386"
     id="rect2" />
  <path
     style="opacity:0.1;fill:#ffffff;stroke-width:0.9823"
     d="M 17.25,3 C 9.6324999,3 3.4999999,9.1344561 3.4999999,16.754386 v 0.982456 c 0,-7.61993 6.1325,-13.7543858 13.7500001,-13.7543858 h 27.5 c 7.6175,0 13.75,6.1344558 13.75,13.7543858 V 16.754386 C 58.5,9.1344561 52.3675,3 44.75,3 Z"
     id="path28" />
  <g
     id="surface1"
     transform="matrix(0.65625,0,0,0.65361677,10,10.084683)"
     style="stroke-width:1.52686">
    <path
       d="m 31.699219,8.285156 c -14.882813,0 -26.960938,3.082032 -26.960938,6.878906 0,0.90625 0.691407,1.773438 1.941407,2.5625 C 2.492188,21.695312 0,26.667969 0,32.066406 c 0,5.472656 2.5625,10.511719 6.855469,14.503906 -0.65625,1.914063 -3.277344,8.074219 -2.386719,8.960938 0.957031,0.957031 8.019531,-2.148438 9.328125,-2.5 0.398437,-0.105469 1.429687,-0.261719 2.640625,-0.464844 4.605469,1.886719 9.914062,2.960938 15.5625,2.960938 5.707031,0 11.0625,-1.097656 15.703125,-3.019532 1.359375,0.226563 2.542969,0.40625 2.984375,0.523438 1.304688,0.351562 8.367188,3.457031 9.324219,2.5 0.957031,-0.953125 -2.132813,-7.980469 -2.496094,-9.3125 C 61.585938,42.285156 64,37.378906 64,32.066406 64,26.558594 61.40625,21.496094 57.066406,17.492188 c 1.03125,-0.726563 1.59375,-1.507813 1.59375,-2.328126 0,-3.796874 -12.082031,-6.878906 -26.960937,-6.878906 z m 22.929687,6.328125 c 0,2.199219 -10.273437,3.988281 -22.929687,3.988281 -12.65625,0 -22.921875,-1.789062 -22.921875,-3.988281 0,-2.207031 10.265625,-3.988281 22.921875,-3.988281 12.65625,0 22.929687,1.78125 22.929687,3.988281 z m 0,0"
       id="path2"
       style="fill:#deaa87;fill-opacity:1" />
  </g>
</svg>
