<?xml version="1.0" encoding="UTF-8" standalone="no"?>
<svg
   width="62"
   height="62"
   version="1.1"
   id="svg5"
   sodipodi:docname="barony.svg"
   inkscape:version="1.4.2 (unknown)"
   xmlns:inkscape="http://www.inkscape.org/namespaces/inkscape"
   xmlns:sodipodi="http://sodipodi.sourceforge.net/DTD/sodipodi-0.dtd"
   xmlns="http://www.w3.org/2000/svg"
   xmlns:svg="http://www.w3.org/2000/svg">
  <defs
     id="defs5" />
  <sodipodi:namedview
     id="namedview5"
     pagecolor="#ffffff"
     bordercolor="#000000"
     borderopacity="0.25"
     inkscape:showpageshadow="2"
     inkscape:pageopacity="0.0"
     inkscape:pagecheckerboard="0"
     inkscape:deskcolor="#d1d1d1"
     showgrid="true"
     inkscape:zoom="8.4852814"
     inkscape:cx="18.679404"
     inkscape:cy="26.221876"
     inkscape:current-layer="svg5">
    <inkscape:grid
       id="grid5"
       units="px"
       originx="0"
       originy="0"
       spacingx="1"
       spacingy="1"
       empcolor="#0099e5"
       empopacity="0.30196078"
       color="#0099e5"
       opacity="0.14901961"
       empspacing="5"
       enabled="true"
       visible="true" />
  </sodipodi:namedview>
  <path
     style="opacity:0.2;stroke-width:0.991188"
     d="M 31.027573,3.9828068 C 30.49938,3.9766094 29.982507,4.1344456 29.549632,4.4341226 26.692127,6.4157653 23.935644,7.089293 21.032169,7.5764435 18.128696,8.063594 14.960542,8.4942185 10.788603,6.1104384 9.10479,5.1493712 7.0011305,6.351643 7.0000001,8.2756798 V 36.391578 c 0,2.233373 0.9673746,4.269875 2.3327209,6.399015 1.365346,2.129139 3.219261,4.309842 5.390624,6.404385 4.34273,4.189087 9.905791,8.032991 15.554228,9.700603 0.47135,0.139225 0.973504,0.139225 1.444854,0 5.648437,-1.667612 11.2115,-5.511516 15.554228,-9.700603 2.171364,-2.094543 4.025278,-4.275246 5.390624,-6.404385 C 54.032626,40.661453 55,38.624951 55,36.391578 V 8.2756798 C 54.998869,6.3516429 52.89521,5.1493708 51.211397,6.1104384 47.039458,8.4942185 43.871304,8.063594 40.967831,7.5764435 38.064356,7.089293 35.307873,6.4157653 32.450368,4.4341226 32.032909,4.1451401 31.536955,3.9878216 31.027573,3.9828068 Z"
     id="path1" />
  <path
     style="fill:#8d5fd3;stroke-width:0.991188"
     d="M 31.027573,3.0003528 C 30.49938,2.9941554 29.982507,3.1519916 29.549632,3.4516686 26.692127,5.4333112 23.935644,6.106839 21.032169,6.5939894 18.128696,7.08114 14.960542,7.5117644 10.788603,5.1279844 9.10479,4.1669172 7.0011305,5.369189 7.0000001,7.2932257 V 35.409124 c 0,2.233373 0.9673746,4.269875 2.3327209,6.399015 1.365346,2.129139 3.219261,4.309842 5.390624,6.404385 4.34273,4.189087 9.905791,8.032991 15.554228,9.700603 0.47135,0.139225 0.973504,0.139225 1.444854,0 5.648437,-1.667612 11.2115,-5.511516 15.554228,-9.700603 2.171364,-2.094543 4.025278,-4.275246 5.390624,-6.404385 C 54.032626,39.678999 55,37.642497 55,35.409124 V 7.2932257 C 54.998869,5.3691889 52.89521,4.1669168 51.211397,5.1279844 47.039458,7.5117644 43.871304,7.08114 40.967831,6.5939894 38.064356,6.106839 35.307873,5.4333112 32.450368,3.4516686 32.032909,3.1626861 31.536955,3.0053676 31.027573,3.0003528 Z"
     id="path2" />
  <path
     style="opacity:0.2;fill:#ffffff;stroke-width:0.991188"
     d="M 31.027344,3.0001762 C 30.499151,2.9939788 29.981703,3.1514298 29.548828,3.4511068 26.691323,5.4327495 23.934725,6.1070385 21.03125,6.594189 18.127777,7.0813395 14.961002,7.5119649 10.789062,5.1281848 9.105249,4.1671176 7.0011304,5.3686149 7,7.2926517 v 0.982453 C 7.00113,6.351068 9.105249,5.1495706 10.789062,6.1106379 c 4.17194,2.38378 7.338715,1.9531546 10.242188,1.4660041 2.903475,-0.4871504 5.660073,-1.1614395 8.517578,-3.1430822 0.432875,-0.2996769 0.950323,-0.457128 1.478516,-0.4509306 0.509382,0.00501 1.006369,0.1619482 1.423828,0.4509306 2.857505,1.9816427 5.614103,2.6559318 8.517578,3.1430822 2.903473,0.4871505 6.070249,0.9177759 10.242188,-1.4660041 C 52.89475,5.1495703 54.998869,6.3510679 55,8.2751047 V 7.2926517 C 54.998869,5.3686148 52.89475,4.1671172 51.210938,5.1281848 47.038999,7.5119649 43.872223,7.0813395 40.96875,6.594189 38.065275,6.1070385 35.308677,5.4327495 32.451172,3.4511068 32.033713,3.1621243 31.536726,3.0051909 31.027344,3.0001762 Z"
     id="path5" />
  <g
     id="g1"
     transform="translate(12,-93.922969)">
    <path
       style="opacity:0.2;fill-rule:evenodd"
       d="m 18.999998,98.793527 c 6.345864,1.990323 12.694594,3.986773 19.04297,5.985023 -0.585842,8.17129 -1.755526,16.70754 -4.557292,23.83222 -3.006046,7.64414 -7.450864,13.25124 -14.450412,16.27744 -6.972924,-3.10449 -11.49667,-8.72225 -14.545357,-16.3152 -2.848281,-7.09383 -4.036871,-15.59488 -4.557292,-23.78637 6.357216,-1.99992 12.712685,-3.99855 19.067383,-5.993113 z"
       id="path5-6" />
    <path
       style="fill:#ffffff;fill-rule:evenodd"
       d="m 18.999998,97.793527 c 6.345864,1.99032 12.694594,3.986773 19.04297,5.985023 -0.585842,8.17129 -1.755526,16.70754 -4.557292,23.83222 -3.006046,7.64414 -7.450864,13.25124 -14.450412,16.27744 C 12.06234,140.78372 7.538594,135.16596 4.489907,127.57301 1.641626,120.47918 0.453036,111.97813 -0.067385,103.78664 6.289831,101.78672 12.6453,99.788092 18.999998,97.793527 Z"
       id="path6-7" />
    <path
       style="fill:#d35f8d"
       d="m 19,97.792969 c -2.04144,0.640752 -4.08337,1.284282 -6.125,1.925781 L 16,103.04688 V 113 H 5.300781 4.417969 l -4.019531,-3.70312 c 0.415734,3.94856 1.043825,7.87145 1.976562,11.59765 L 4.417969,119 H 5.300781 16 v 19.95312 l -1.851562,2.0625 c 0.0052,0.004 0.01046,0.008 0.01562,0.0117 0.59545,0.44785 1.228474,0.85258 1.871094,1.25 0.158588,0.0979 0.303276,0.20994 0.464844,0.30469 0.807086,0.47425 1.650586,0.91086 2.535156,1.30469 0.89306,-0.38611 1.74328,-0.81513 2.554688,-1.28516 0.808874,-0.46855 1.578592,-0.97575 2.3125,-1.52343 0.0023,-0.002 0.0055,-0.002 0.0078,-0.004 L 22,138.95312 V 119 h 10.660156 0.921875 l 2,1.84961 c 0.907086,-3.69834 1.529178,-7.58484 1.957031,-11.48828 L 33.582031,113 H 32.660156 22 v -9.95312 l 3.125,-3.32813 C 23.083286,99.077414 21.041228,98.433181 19,97.792969 Z"
       id="path7-5" />
  </g>
</svg>
