<?xml version="1.0" encoding="UTF-8" standalone="no"?>
<svg
   width="62"
   height="62"
   viewBox="0 0 16.404166 16.404167"
   version="1.1"
   id="svg1443"
   inkscape:version="1.4.2 (unknown)"
   sodipodi:docname="cryptomator.svg"
   xmlns:inkscape="http://www.inkscape.org/namespaces/inkscape"
   xmlns:sodipodi="http://sodipodi.sourceforge.net/DTD/sodipodi-0.dtd"
   xmlns:xlink="http://www.w3.org/1999/xlink"
   xmlns="http://www.w3.org/2000/svg"
   xmlns:svg="http://www.w3.org/2000/svg"
   xmlns:rdf="http://www.w3.org/1999/02/22-rdf-syntax-ns#"
   xmlns:cc="http://creativecommons.org/ns#"
   xmlns:dc="http://purl.org/dc/elements/1.1/">
  <defs
     id="defs1437">
    <linearGradient
       gradientTransform="matrix(0.4711726,0,0,0.47114666,-53.953909,-18.000765)"
       gradientUnits="userSpaceOnUse"
       y2="70.679932"
       x2="132.21078"
       y1="42.151531"
       x1="132.21078"
       id="linearGradient1632"
       xlink:href="#linearGradient1630"
       inkscape:collect="always" />
    <linearGradient
       id="linearGradient1630"
       inkscape:collect="always">
      <stop
         id="stop1626"
         offset="0"
         style="stop-color:#b5b5d4;stop-opacity:1;" />
      <stop
         id="stop1628"
         offset="1"
         style="stop-color:#90a0af;stop-opacity:1;" />
    </linearGradient>
    <filter
       color-interpolation-filters="sRGB"
       height="1.1311001"
       width="1.1106"
       y="-0.065563001"
       x="-0.055319"
       id="c-9">
      <feGaussianBlur
         id="feGaussianBlur1093"
         stdDeviation="1.1062912" />
    </filter>
    <linearGradient
       gradientUnits="userSpaceOnUse"
       gradientTransform="matrix(0.13235,0,0,0.13075,-32.379,1.0873)"
       y2="269.48999"
       y1="235.14999"
       x2="657.65002"
       x1="319.20999"
       id="a-12">
      <stop
         id="stop1076"
         offset="0"
         stop-color="#e54c18" />
      <stop
         id="stop1078"
         offset="1"
         stop-color="#fec350" />
    </linearGradient>
    <linearGradient
       id="paint1_linear_8_721"
       x1="12.0001"
       y1="14.825"
       x2="12.0001"
       y2="8.7750196"
       gradientUnits="userSpaceOnUse"
       gradientTransform="matrix(0.58965537,0,0,0.59037149,1.1261742,1.2356487)">
      <stop
         stop-color="#02AA93"
         id="stop4" />
      <stop
         offset="1"
         stop-color="#67FF80"
         id="stop5" />
    </linearGradient>
    <linearGradient
       id="linear0"
       gradientUnits="userSpaceOnUse"
       x1="0"
       y1="0"
       x2="0"
       y2="1"
       gradientTransform="matrix(68.686472,0,0,43.89438,-2.487702,8.992595)">
      <stop
         offset="0"
         style="stop-color:#2478ff;stop-opacity:1;"
         id="stop1" />
      <stop
         offset="1"
         style="stop-color:#0049bf;stop-opacity:1;"
         id="stop2" />
    </linearGradient>
  </defs>
  <sodipodi:namedview
     id="base"
     pagecolor="#ffffff"
     bordercolor="#666666"
     borderopacity="1.0"
     inkscape:pageopacity="0.0"
     inkscape:pageshadow="2"
     inkscape:zoom="5.6"
     inkscape:cx="25.178571"
     inkscape:cy="48.660714"
     inkscape:document-units="px"
     inkscape:current-layer="layer1"
     inkscape:document-rotation="0"
     showgrid="false"
     units="px"
     inkscape:window-width="1920"
     inkscape:window-height="996"
     inkscape:window-x="0"
     inkscape:window-y="0"
     inkscape:window-maximized="1"
     inkscape:showpageshadow="2"
     inkscape:pagecheckerboard="0"
     inkscape:deskcolor="#d1d1d1">
    <inkscape:grid
       id="grid1"
       units="px"
       originx="0"
       originy="0"
       spacingx="0.26458332"
       spacingy="0.26458334"
       empcolor="#0099e5"
       empopacity="0.30196078"
       color="#0099e5"
       opacity="0.14901961"
       empspacing="5"
       enabled="true"
       visible="false" />
  </sodipodi:namedview>
  <metadata
     id="metadata1440">
    <rdf:RDF>
      <cc:Work
         rdf:about="">
        <dc:format>image/svg+xml</dc:format>
        <dc:type
           rdf:resource="http://purl.org/dc/dcmitype/StillImage" />
      </cc:Work>
    </rdf:RDF>
  </metadata>
  <g
     inkscape:label="Capa 1"
     inkscape:groupmode="layer"
     id="layer1">
    <g
       style="opacity:0.295"
       transform="matrix(0.47117252,0,0,0.47114656,-31.72741,-18.000762)"
       id="g1702">
      <rect
         ry="6.6098609"
         rx="6.6098609"
         y="40.709618"
         x="69.839508"
         height="29.810888"
         width="29.810888"
         id="rect1634"
         style="fill:none;fill-opacity:1;stroke:#000000;stroke-width:0.1;stroke-linecap:round;stroke-linejoin:round;stroke-miterlimit:4;stroke-dasharray:none;stroke-opacity:0.02" />
      <rect
         style="fill:none;fill-opacity:1;stroke:#000000;stroke-width:0.2;stroke-linecap:round;stroke-linejoin:round;stroke-miterlimit:4;stroke-dasharray:none;stroke-opacity:0.02"
         id="rect1638"
         width="29.810888"
         height="29.810888"
         x="69.839508"
         y="40.709618"
         rx="6.6098609"
         ry="6.6098609" />
      <rect
         ry="6.6098609"
         rx="6.6098609"
         y="40.709618"
         x="69.839508"
         height="29.810888"
         width="29.810888"
         id="rect1640"
         style="fill:none;fill-opacity:1;stroke:#000000;stroke-width:0.3;stroke-linecap:round;stroke-linejoin:round;stroke-miterlimit:4;stroke-dasharray:none;stroke-opacity:0.02" />
      <rect
         style="fill:none;fill-opacity:1;stroke:#000000;stroke-width:0.4;stroke-linecap:round;stroke-linejoin:round;stroke-miterlimit:4;stroke-dasharray:none;stroke-opacity:0.02"
         id="rect1642"
         width="29.810888"
         height="29.810888"
         x="69.839508"
         y="40.709618"
         rx="6.6098609"
         ry="6.6098609" />
      <rect
         ry="6.6098609"
         rx="6.6098609"
         y="40.709618"
         x="69.839508"
         height="29.810888"
         width="29.810888"
         id="rect1644"
         style="fill:none;fill-opacity:1;stroke:#000000;stroke-width:0.5;stroke-linecap:round;stroke-linejoin:round;stroke-miterlimit:4;stroke-dasharray:none;stroke-opacity:0.02" />
      <rect
         style="fill:none;fill-opacity:1;stroke:#000000;stroke-width:0.6;stroke-linecap:round;stroke-linejoin:round;stroke-miterlimit:4;stroke-dasharray:none;stroke-opacity:0.02"
         id="rect1646"
         width="29.810888"
         height="29.810888"
         x="69.839508"
         y="40.709618"
         rx="6.6098609"
         ry="6.6098609" />
      <rect
         ry="6.6098609"
         rx="6.6098609"
         y="40.709618"
         x="69.839508"
         height="29.810888"
         width="29.810888"
         id="rect1648"
         style="fill:none;fill-opacity:1;stroke:#000000;stroke-width:0.7;stroke-linecap:round;stroke-linejoin:round;stroke-miterlimit:4;stroke-dasharray:none;stroke-opacity:0.02" />
      <rect
         style="fill:none;fill-opacity:1;stroke:#000000;stroke-width:0.8;stroke-linecap:round;stroke-linejoin:round;stroke-miterlimit:4;stroke-dasharray:none;stroke-opacity:0.02"
         id="rect1650"
         width="29.810888"
         height="29.810888"
         x="69.839508"
         y="40.709618"
         rx="6.6098609"
         ry="6.6098609" />
      <rect
         ry="6.6098609"
         rx="6.6098609"
         y="40.709618"
         x="69.839508"
         height="29.810888"
         width="29.810888"
         id="rect1652"
         style="fill:none;fill-opacity:1;stroke:#000000;stroke-width:1;stroke-linecap:round;stroke-linejoin:round;stroke-miterlimit:4;stroke-dasharray:none;stroke-opacity:0.02" />
      <rect
         style="fill:none;fill-opacity:1;stroke:#000000;stroke-width:1.2;stroke-linecap:round;stroke-linejoin:round;stroke-miterlimit:4;stroke-dasharray:none;stroke-opacity:0.02"
         id="rect1654"
         width="29.810888"
         height="29.810888"
         x="69.839508"
         y="40.709618"
         rx="6.6098609"
         ry="6.6098609" />
      <rect
         ry="6.6098609"
         rx="6.6098609"
         y="40.709618"
         x="69.839508"
         height="29.810888"
         width="29.810888"
         id="rect1656"
         style="fill:none;fill-opacity:1;stroke:#000000;stroke-width:1.4;stroke-linecap:round;stroke-linejoin:round;stroke-miterlimit:4;stroke-dasharray:none;stroke-opacity:0.02" />
      <rect
         style="fill:none;fill-opacity:1;stroke:#000000;stroke-width:1.6;stroke-linecap:round;stroke-linejoin:round;stroke-miterlimit:4;stroke-dasharray:none;stroke-opacity:0.02"
         id="rect1658"
         width="29.810888"
         height="29.810888"
         x="69.839508"
         y="40.709618"
         rx="6.6098609"
         ry="6.6098609" />
      <rect
         ry="6.6098609"
         rx="6.6098609"
         y="40.709618"
         x="69.839508"
         height="29.810888"
         width="29.810888"
         id="rect1660"
         style="fill:none;fill-opacity:1;stroke:#000000;stroke-width:1.8;stroke-linecap:round;stroke-linejoin:round;stroke-miterlimit:4;stroke-dasharray:none;stroke-opacity:0.02" />
      <rect
         style="fill:none;fill-opacity:1;stroke:#000000;stroke-width:2;stroke-linecap:round;stroke-linejoin:round;stroke-miterlimit:4;stroke-dasharray:none;stroke-opacity:0.02"
         id="rect1662"
         width="29.810888"
         height="29.810888"
         x="69.839508"
         y="40.709618"
         rx="6.6098609"
         ry="6.6098609" />
      <rect
         ry="6.6098609"
         rx="6.6098609"
         y="40.709618"
         x="69.839508"
         height="29.810888"
         width="29.810888"
         id="rect1664"
         style="fill:none;fill-opacity:1;stroke:#000000;stroke-width:2.2;stroke-linecap:round;stroke-linejoin:round;stroke-miterlimit:4;stroke-dasharray:none;stroke-opacity:0.02" />
      <rect
         style="fill:none;fill-opacity:1;stroke:#000000;stroke-width:2.6;stroke-linecap:round;stroke-linejoin:round;stroke-miterlimit:4;stroke-dasharray:none;stroke-opacity:0.02"
         id="rect1666"
         width="29.810888"
         height="29.810888"
         x="69.839508"
         y="40.709618"
         rx="6.6098609"
         ry="6.6098609" />
      <rect
         ry="6.6098609"
         rx="6.6098609"
         y="40.709618"
         x="69.839508"
         height="29.810888"
         width="29.810888"
         id="rect1668"
         style="fill:none;fill-opacity:1;stroke:#000000;stroke-width:3;stroke-linecap:round;stroke-linejoin:round;stroke-miterlimit:4;stroke-dasharray:none;stroke-opacity:0.02" />
      <rect
         style="fill:none;fill-opacity:1;stroke:#000000;stroke-width:3.4;stroke-linecap:round;stroke-linejoin:round;stroke-miterlimit:4;stroke-dasharray:none;stroke-opacity:0.02"
         id="rect1670"
         width="29.810888"
         height="29.810888"
         x="69.839508"
         y="40.709618"
         rx="6.6098609"
         ry="6.6098609" />
      <rect
         ry="6.6098609"
         rx="6.6098609"
         y="40.709618"
         x="69.839508"
         height="29.810888"
         width="29.810888"
         id="rect1672"
         style="fill:none;fill-opacity:1;stroke:#000000;stroke-width:3.8;stroke-linecap:round;stroke-linejoin:round;stroke-miterlimit:4;stroke-dasharray:none;stroke-opacity:0.02" />
      <rect
         style="fill:none;fill-opacity:1;stroke:#000000;stroke-width:4.2;stroke-linecap:round;stroke-linejoin:round;stroke-miterlimit:4;stroke-dasharray:none;stroke-opacity:0.02"
         id="rect1674"
         width="29.810888"
         height="29.810888"
         x="69.839508"
         y="40.709618"
         rx="6.6098609"
         ry="6.6098609" />
      <rect
         ry="6.6098609"
         rx="6.6098609"
         y="40.709618"
         x="69.839508"
         height="29.810888"
         width="29.810888"
         id="rect1676"
         style="fill:none;fill-opacity:1;stroke:#000000;stroke-width:4.6;stroke-linecap:round;stroke-linejoin:round;stroke-miterlimit:4;stroke-dasharray:none;stroke-opacity:0.02" />
      <rect
         style="fill:none;fill-opacity:1;stroke:#000000;stroke-width:5;stroke-linecap:round;stroke-linejoin:round;stroke-miterlimit:4;stroke-dasharray:none;stroke-opacity:0.02"
         id="rect1678"
         width="29.810888"
         height="29.810888"
         x="69.839508"
         y="40.709618"
         rx="6.6098609"
         ry="6.6098609" />
    </g>
    <rect
       ry="3.1142132"
       rx="3.1143851"
       y="1.1794344"
       x="1.1790471"
       height="14.045296"
       width="14.04607"
       id="rect849"
       style="fill:url(#linearGradient1632);fill-opacity:1;stroke-width:1.29783;stroke-linecap:round;stroke-linejoin:round" />
    <g
       transform="matrix(0.0109839,0,0,0.0109839,2.1162113,3.0385519)"
       id="g60"
       style="stroke-width:1.26082">
      <path
         d="M 552.69,0 C 383.59,0 290.24,143.46 290.24,283.52 h 524.9 C 815.14,143.46 709.81,0 552.69,0 Z"
         fill="#ffffff"
         id="path4-3"
         style="stroke-width:1.26082" />
      <path
         d="M 552.69,53.2 C 415.32,53.2 339.48,169.74 339.48,283.52 L 552.69,307.7 765.9,283.52 C 765.9,169.74 680.33,53.2 552.69,53.2 Z"
         fill="#484e51"
         id="path6"
         style="stroke-width:1.26082" />
      <path
         d="m 89.8,739.52 a 20,20 0 0 1 -2.23,-39.88 42.8,42.8 0 1 0 -42.22,-21.82 20,20 0 0 1 -35,19.31 82.79,82.79 0 1 1 81.76,42.26 21.78,21.78 0 0 1 -2.31,0.13 z"
         fill="#4e5457"
         id="path8"
         style="stroke-width:1.26082" />
      <rect
         transform="rotate(27.09,142.59,540.04)"
         x="90.269997"
         y="467.98001"
         width="104.68"
         height="144.19"
         rx="62.312233"
         fill="#ffffff"
         id="rect10"
         ry="62.312233"
         style="stroke-width:1.26082" />
      <path
         transform="rotate(27.09,180.87,464.19)"
         d="m 149.47,401.27 h 62.8 v 94.55 a 31.4,31.4 0 0 1 -31.4,31.4 31.4,31.4 0 0 1 -31.4,-31.4 z"
         fill="#4e5457"
         id="path12"
         style="stroke-width:1.26082" />
      <circle
         cx="222.59"
         cy="387.53"
         r="75.050003"
         fill="#ffffff"
         id="circle14"
         style="stroke-width:1.26082" />
      <path
         d="m 258.09,321.8 a 75.09,75.09 0 0 0 -91.23,14.64 75.06,75.06 0 0 1 51.58,126.06 75.06,75.06 0 0 0 39.65,-140.7 z"
         fill="#cccccc"
         id="path16"
         style="stroke-width:1.26082" />
      <path
         d="m 1018.3,739.52 a 22.09,22.09 0 0 1 -2.28,-0.13 82.8,82.8 0 1 1 81.77,-42.26 20,20 0 1 1 -35,-19.31 42.8,42.8 0 1 0 -42.23,21.82 20,20 0 0 1 -2.23,39.88 z"
         fill="#4e5457"
         id="path18"
         style="stroke-width:1.26082" />
      <rect
         transform="rotate(152.91,965.51,540.1)"
         x="913.17999"
         y="467.98001"
         width="104.68"
         height="144.19"
         rx="62.312233"
         fill="#ffffff"
         id="rect20"
         ry="62.312233"
         style="stroke-width:1.26082" />
      <path
         transform="rotate(152.91,927.24,464.27)"
         d="m 927.25,401.27 a 31.4,31.4 0 0 1 31.4,31.4 v 94.55 h -62.8 v -94.55 a 31.4,31.4 0 0 1 31.4,-31.4 z"
         fill="#4e5457"
         id="path22"
         style="stroke-width:1.26082" />
      <circle
         cx="885.53003"
         cy="387.53"
         r="75.050003"
         fill="#ffffff"
         id="circle24"
         style="stroke-width:1.26082" />
      <path
         d="M 850,321.8 A 75.08,75.08 0 0 1 941.22,336.44 75.06,75.06 0 0 0 889.68,462.5 75.05,75.05 0 0 1 850,321.8 Z"
         fill="#cccccc"
         id="path26"
         style="stroke-width:1.26082" />
      <path
         d="m 248.78,940.2 c -36.67,0 -67,-39.85 -75.51,-99.15 -4.56,-31.83 -2.26,-65.19 6.48,-94 9.41,-31 25.51,-53.59 45.32,-63.72 a 51.72,51.72 0 0 1 23.69,-5.84 H 352.28 V 940.2 Z"
         fill="#4e5457"
         id="path28"
         style="stroke-width:1.26082" />
      <path
         d="m 351.43,940.2 c -21.26,0 -38.85,-39.85 -43.78,-99.15 -2.64,-31.83 -1.31,-65.19 3.76,-94 5.45,-31 14.78,-53.59 26.27,-63.72 4.39,-3.87 9,-5.84 13.73,-5.84 4.73,0 9.34,2 13.75,5.8 l 49.7,43.83 c 17.37,15.32 23.39,64 20.23,102 -2.43,29.28 -10,52.18 -20.19,61.28 l -49.69,43.82 c -4.44,3.99 -9.08,5.98 -13.78,5.98 z"
         fill="#585e62"
         id="path30"
         style="stroke-width:1.26082" />
      <path
         d="m 360.57,699 49.65,43.79 c 11.18,9.9 17.78,47.45 14.78,83.91 -2,24.27 -7.83,41.95 -14.77,48.13 l -49.65,43.79 C 342,935 322.79,899.19 317.75,838.55 c -5.04,-60.64 6,-123.1 24.58,-139.51 6.15,-5.42 12.5,-5.04 18.24,-0.04 z"
         fill="#35393b"
         id="path32"
         style="stroke-width:1.26082" />
      <path
         d="m 850.73,940.2 c 36.66,0 67,-39.85 75.51,-99.15 4.56,-31.83 2.26,-65.19 -6.48,-94 -9.41,-31 -25.51,-53.59 -45.32,-63.72 a 51.72,51.72 0 0 0 -23.69,-5.84 H 747.22 V 940.2 Z"
         fill="#4e5457"
         id="path34"
         style="stroke-width:1.26082" />
      <path
         d="m 748.08,940.2 c 21.26,0 38.85,-39.85 43.78,-99.15 2.64,-31.83 1.31,-65.19 -3.76,-94 -5.45,-31 -14.79,-53.59 -26.27,-63.72 -4.4,-3.87 -9,-5.84 -13.73,-5.84 -4.73,0 -9.34,2 -13.76,5.8 l -49.69,43.83 c -17.38,15.32 -23.39,64 -20.23,102 2.43,29.28 10,52.18 20.19,61.28 l 49.68,43.82 c 4.45,3.99 9.09,5.98 13.79,5.98 z"
         fill="#585e62"
         id="path36"
         style="stroke-width:1.26082" />
      <path
         d="m 738.94,699 -49.65,43.79 c -11.19,9.86 -17.8,47.41 -14.77,83.87 2,24.27 7.83,41.95 14.77,48.13 l 49.65,43.79 c 18.61,16.41 37.78,-19.43 42.82,-80.07 5.04,-60.64 -6,-123.1 -24.58,-139.51 -6.18,-5.38 -12.5,-5 -18.24,0 z"
         fill="#35393b"
         id="path38"
         style="stroke-width:1.26082" />
      <path
         d="m 848.63,451.38 a 83.62,83.62 0 0 1 -0.56,-45.6 C 862.81,352.65 853.13,294 853.13,294 668.06,236.23 553,293.52 553,293.52 c 0,0 -114.79,-57.64 -300,-0.45 0,0 -9.86,58.64 4.72,111.83 a 83.69,83.69 0 0 1 -0.69,45.59 c -5.14,17.57 -10.72,44.5 -10.77,78.8 -0.37,249 306,326.08 306,326.08 0,0 306.58,-76.15 306.95,-325.16 0,-34.3 -5.49,-61.21 -10.58,-78.83 z"
         fill="#ffffff"
         id="path40"
         style="stroke-width:1.26082" />
      <path
         d="M 552.34,808.87 C 501.62,793 290.64,715.62 290.92,529.36 c 0,-29.65 4.89,-52.42 9,-66.31 a 128.3,128.3 0 0 0 0.91,-70 c -6.2,-22.58 -6.9,-47.13 -6.17,-65.29 40.48,-10.23 80.2,-15.37 118.41,-15.32 75.66,0.12 119.86,21 120.3,21.17 l 20.39,10.23 19.24,-10.32 c 0.11,0 44.36,-20.75 120,-20.64 38.21,0.06 77.91,5.32 118.37,15.68 0.67,18.14 -0.1,42.71 -6.37,65.27 a 128.33,128.33 0 0 0 0.69,70 c 4,13.91 8.82,36.69 8.77,66.35 -0.28,187.06 -211.26,263.09 -262.12,278.69 z"
         fill="#49b04a"
         id="path42"
         style="stroke-width:1.26082" />
      <path
         d="M 610.15,478.76 A 57.46,57.46 0 1 0 540,534.68 L 507.71,670.15 552.38,683 597.09,670.29 565.25,534.72 a 57.46,57.46 0 0 0 44.9,-55.96 z"
         fill="#35393b"
         id="path44"
         style="stroke-width:1.26082" />
      <g
         fill="#49b04a"
         id="g58"
         style="stroke-width:1.26082">
        <path
           d="M 454.94,131.08 A 60.64,60.64 0 0 0 394.3,191.72 H 515.58 A 60.64,60.64 0 0 0 454.94,131.08 Z"
           id="path46"
           style="stroke-width:1.26082" />
        <path
           d="m 642.38,131.08 a 60.64,60.64 0 0 0 -60.64,60.64 H 703 a 60.64,60.64 0 0 0 -60.62,-60.64 z"
           id="path48"
           style="stroke-width:1.26082" />
        <circle
           cx="483.23001"
           cy="229.42999"
           r="11.52"
           id="circle50"
           style="stroke-width:1.26082" />
        <circle
           cx="528.52002"
           cy="229.42999"
           r="11.52"
           id="circle52"
           style="stroke-width:1.26082" />
        <circle
           cx="573.79999"
           cy="229.42999"
           r="11.52"
           id="circle54"
           style="stroke-width:1.26082" />
        <circle
           cx="619.09003"
           cy="229.42999"
           r="11.52"
           id="circle56"
           style="stroke-width:1.26082" />
      </g>
    </g>
  </g>
</svg>
