<?xml version="1.0" encoding="UTF-8" standalone="no"?>
<svg
   width="62"
   height="62"
   version="1.1"
   id="svg5"
   sodipodi:docname="ddnet.svg"
   inkscape:version="1.4 (unknown)"
   xmlns:inkscape="http://www.inkscape.org/namespaces/inkscape"
   xmlns:sodipodi="http://sodipodi.sourceforge.net/DTD/sodipodi-0.dtd"
   xmlns:xlink="http://www.w3.org/1999/xlink"
   xmlns="http://www.w3.org/2000/svg"
   xmlns:svg="http://www.w3.org/2000/svg">
  <defs
     id="defs5">
    <linearGradient
       id="linearGradient8"
       inkscape:collect="always">
      <stop
         style="stop-color:#b3b3b3;stop-opacity:1"
         offset="0"
         id="stop8" />
      <stop
         style="stop-color:#f2f2f2;stop-opacity:1"
         offset="1"
         id="stop10" />
    </linearGradient>
    <linearGradient
       id="linearGradient4217">
      <stop
         style="stop-color:#000000;stop-opacity:1;"
         offset="0"
         id="stop2" />
      <stop
         style="stop-color:#000000;stop-opacity:0;"
         offset="1"
         id="stop4" />
    </linearGradient>
    <linearGradient
       id="linearGradient4161">
      <stop
         style="stop-color:#334545;stop-opacity:1;"
         offset="0"
         id="stop7" />
      <stop
         style="stop-color:#4d6868;stop-opacity:1"
         offset="1"
         id="stop9" />
    </linearGradient>
    <linearGradient
       id="a-1-2"
       y1="510.79999"
       y2="527.14001"
       gradientUnits="userSpaceOnUse"
       x2="0">
      <stop
         stop-color="#7cbaf8"
         id="stop2-2-7" />
      <stop
         offset="1"
         stop-color="#f4fcff"
         id="stop4-70-0" />
    </linearGradient>
    <linearGradient
       id="c"
       y1="503.79999"
       x1="400.57001"
       y2="519.79999"
       x2="416.57001"
       gradientUnits="userSpaceOnUse">
      <stop
         stop-color="#292c2f"
         id="stop12" />
      <stop
         offset="1"
         stop-opacity="0"
         id="stop14" />
    </linearGradient>
    <linearGradient
       id="b"
       y1="542.79999"
       x1="408.57001"
       y2="521.79999"
       x2="387.57001"
       gradientUnits="userSpaceOnUse"
       gradientTransform="translate(-384.57,-499.8)">
      <stop
         stop-color="#197cf1"
         id="stop7-8" />
      <stop
         offset="1"
         stop-color="#20bcfa"
         id="stop9-7" />
    </linearGradient>
    <linearGradient
       xlink:href="#linearGradient1389"
       id="linearGradient4503-5-6"
       y1="37"
       y2="4"
       x2="0"
       gradientUnits="userSpaceOnUse"
       gradientTransform="matrix(1.0218446,0,0,0.99999999,21.748946,8.2587777)" />
    <linearGradient
       id="linearGradient1389">
      <stop
         style="stop-color:#ffaaaa;stop-opacity:1"
         id="stop1385"
         offset="0" />
      <stop
         offset="1"
         style="stop-color:#ff5555;stop-opacity:1"
         id="stop1387" />
    </linearGradient>
    <linearGradient
       id="paint543_linear_890_11"
       x1="978.5"
       y1="298"
       x2="978.5"
       y2="304"
       gradientUnits="userSpaceOnUse"
       gradientTransform="matrix(0.75000004,0,0,0.75000004,-717.38333,-173.49123)">
      <stop
         offset="0.189495"
         stop-color="#EFF2F6"
         id="stop1829" />
      <stop
         offset="0.850463"
         stop-color="#B7C6CD"
         id="stop1830" />
    </linearGradient>
    <linearGradient
       inkscape:collect="always"
       xlink:href="#linearGradient8"
       id="linearGradient10"
       x1="31.5"
       y1="59.017544"
       x2="31.5"
       y2="4.9824562"
       gradientUnits="userSpaceOnUse"
       gradientTransform="translate(-0.5,-1)" />
    <linearGradient
       id="linearGradient4144">
      <stop
         style="stop-color:#c83771;stop-opacity:1"
         offset="0"
         id="stop1141" />
      <stop
         style="stop-color:#de87aa;stop-opacity:1"
         offset="1"
         id="stop1143" />
    </linearGradient>
    <linearGradient
       id="c-0"
       gradientUnits="userSpaceOnUse"
       x1="10"
       x2="24"
       y1="10"
       y2="24"
       gradientTransform="translate(59.728813,26.237288)">
      <stop
         offset="0"
         stop-color="#292c2f"
         id="stop12-2" />
      <stop
         offset="1"
         stop-opacity="0"
         id="stop14-3" />
    </linearGradient>
    <linearGradient
       id="d"
       gradientUnits="userSpaceOnUse"
       x1="24"
       x2="24"
       y1="25"
       y2="7"
       gradientTransform="translate(59.728813,26.237288)">
      <stop
         offset="0"
         stop-color="#bb9d71"
         id="stop2-7" />
      <stop
         offset="1"
         stop-color="#f9f2e7"
         id="stop4-5" />
    </linearGradient>
    <filter
       id="c-3"
       width="1.1245312"
       height="1.1156488"
       x="-0.062265594"
       y="-0.057824417"
       color-interpolation-filters="sRGB">
      <feGaussianBlur
         stdDeviation=".665"
         id="feGaussianBlur1" />
    </filter>
  </defs>
  <sodipodi:namedview
     id="namedview5"
     pagecolor="#ffffff"
     bordercolor="#000000"
     borderopacity="0.25"
     inkscape:showpageshadow="2"
     inkscape:pageopacity="0.0"
     inkscape:pagecheckerboard="0"
     inkscape:deskcolor="#d1d1d1"
     inkscape:zoom="8.2643105"
     inkscape:cx="25.289466"
     inkscape:cy="50.155424"
     inkscape:window-width="1920"
     inkscape:window-height="996"
     inkscape:window-x="0"
     inkscape:window-y="0"
     inkscape:window-maximized="1"
     inkscape:current-layer="svg5" />
  <g
     id="g1">
    <rect
       style="opacity:0.2;stroke-width:0.9823"
       width="55"
       height="55.017544"
       x="3.5"
       y="3.9824562"
       rx="8.25"
       ry="8.2526312"
       id="rect1" />
    <rect
       style="fill:url(#linearGradient10);stroke-width:0.9823"
       width="55"
       height="55.017544"
       x="3.5"
       y="3"
       rx="8.25"
       ry="8.2526312"
       id="rect2" />
    <path
       style="opacity:0.1;fill:#ffffff;stroke-width:0.9823"
       d="M 11.748466,3 C 7.1779652,3 3.5,6.6791384 3.5,11.251097 v 0.982456 c 0,-4.5719585 3.6779652,-8.2510969 8.248466,-8.2510969 h 38.503068 c 4.5705,0 8.248466,3.6791384 8.248466,8.2510969 V 11.251097 C 58.5,6.6791384 54.822034,3 50.251534,3 Z"
       id="path4" />
  </g>
  <g
     id="g8"
     transform="matrix(0.66346154,0,0,0.66666666,9.7692307,9.8245617)">
    <path
       style="opacity:0.2"
       d="m 55.199998,55.491 c -0.005,4.109 -1.021444,5.479172 -13.940866,5.47917 -3.672826,0 -8.143688,0.322542 -10.497456,-1.15358 -2.22251,-1.393804 -1.420902,-3.439332 -1.420904,-5.521056 C 29.340772,50.009138 33.540442,47 40.68127,47 c 7.14083,0 14.52406,4.2 14.518728,8.491 z"
       id="path1" />
    <path
       style="fill:#8451cf;fill-opacity:1"
       d="m 55.199998,54.491 c -0.005,4.109 -1.021444,5.479172 -13.940866,5.47917 -3.672826,0 -8.143688,0.322542 -10.497456,-1.15358 -2.22251,-1.393804 -1.420902,-3.439332 -1.420904,-5.521056 C 29.340772,49.009138 33.540442,46 40.68127,46 c 7.14083,0 14.52406,4.2 14.518728,8.491 z"
       id="path2" />
    <path
       style="opacity:0.2"
       d="M 32,4.9999998 A 26,26 0 0 0 6.0000002,31 26,26 0 0 0 32,57 26,26 0 0 0 58,31 26,26 0 0 0 32,4.9999998 Z"
       id="path3" />
    <path
       style="fill:#fdca4e;fill-opacity:1"
       d="M 32,3.9999998 A 26,26 0 0 0 6.0000002,30 26,26 0 0 0 32,56 26,26 0 0 0 58,30 26,26 0 0 0 32,3.9999998 Z"
       id="path4-6" />
    <ellipse
       style="opacity:0.1"
       cx="28"
       cy="27"
       rx="4"
       ry="6"
       id="ellipse4" />
    <path
       style="opacity:0.2"
       d="m 33.999998,55.491 c -0.005,4.109 -1.021446,5.479172 -13.940868,5.47917 -3.672823,0 -8.143686,0.322542 -10.497455,-1.15358 C 7.339166,58.422786 8.140772,56.377258 8.1407716,54.295534 8.140771,50.009138 12.340443,47 19.481269,47 c 7.140829,0 14.524059,4.2 14.518729,8.491 z"
       id="path5-7" />
    <path
       style="fill:#966bd6;fill-opacity:1"
       d="m 33.999998,54.491 c -0.005,4.109 -1.021446,5.479172 -13.940868,5.47917 -3.672823,0 -8.143686,0.322542 -10.497455,-1.15358 C 7.339166,57.422786 8.140772,55.377258 8.1407716,53.295534 8.140771,49.009138 12.340443,46 19.481269,46 c 7.140829,0 14.524059,4.2 14.518729,8.491 z"
       id="path6-5" />
    <ellipse
       style="fill:#2d3d53;fill-opacity:1"
       cx="28"
       cy="26"
       rx="4"
       ry="6"
       id="ellipse6" />
    <ellipse
       style="opacity:0.1"
       cx="40"
       cy="27"
       rx="4"
       ry="6"
       id="ellipse7" />
    <ellipse
       style="fill:#2d3d53;fill-opacity:1"
       cx="40"
       cy="26"
       rx="4"
       ry="6"
       id="ellipse8" />
    <path
       style="opacity:0.2;fill:#ffffff"
       d="M 32,4 A 26,26 0 0 0 6,30 26,26 0 0 0 6.0214844,30.40625 26,26 0 0 1 32,5 26,26 0 0 1 57.978516,30.576172 26,26 0 0 0 58,30 26,26 0 0 0 32,4 Z"
       id="path8-3" />
  </g>
</svg>
