<?xml version="1.0" encoding="UTF-8" standalone="no"?>
<svg
   width="62"
   height="62"
   version="1.1"
   id="svg7"
   sodipodi:docname="foobillardplus.svg"
   inkscape:version="1.4.2 (unknown)"
   xmlns:inkscape="http://www.inkscape.org/namespaces/inkscape"
   xmlns:sodipodi="http://sodipodi.sourceforge.net/DTD/sodipodi-0.dtd"
   xmlns="http://www.w3.org/2000/svg"
   xmlns:svg="http://www.w3.org/2000/svg">
  <defs
     id="defs7" />
  <sodipodi:namedview
     id="namedview7"
     pagecolor="#ffffff"
     bordercolor="#000000"
     borderopacity="0.25"
     inkscape:showpageshadow="2"
     inkscape:pageopacity="0.0"
     inkscape:pagecheckerboard="0"
     inkscape:deskcolor="#d1d1d1"
     inkscape:zoom="11.8125"
     inkscape:cx="32"
     inkscape:cy="35.132275"
     inkscape:current-layer="svg7" />
  <g
     transform="matrix(0.98181818,0,0,0.98245854,-0.90909086,-971.95472)"
     id="g7"
     style="stroke-width:1.01818">
    <path
       style="opacity:0.2;fill-rule:evenodd;stroke-width:1.01818"
       d="m 28.839409,993.3621 c 0,0 -2.700261,3.96412 1.585383,5.96363 7.197598,3.35777 6.930065,5.03637 6.930065,5.03637 0,0 2.134117,-4.91207 -1.36064,-7.77811 -3.494757,-2.86604 -7.154808,-3.22189 -7.154808,-3.22189 z"
       id="path1" />
    <path
       style="opacity:0.2;fill-rule:evenodd;stroke-width:1.01818"
       d="m 9.8741142,1034.7519 c -3.6323133,-5.1172 -4.9462097,-9.6775 -4.871085,-13.4246 C 5.1379581,1014.5971 9,1010.4899 9,1010.4899 c 0,0 -0.1863897,3.5245 1.46184,3.8609 1.648231,0.3365 1.707233,-1.8393 1.60277,-5.513 -0.104463,-3.6739 1.9009,-5.4822 1.9009,-5.4822 0,0 -0.207737,6.9286 5.124387,4.4935 5.332125,-2.4352 0.984092,-8.487 0.984092,-8.487 0,0 5.242156,-0.0228 9.597547,5.9598 3.463464,4.7575 11.225131,7.3527 10.450928,2.1604 -0.774202,-5.1923 3.927536,-5.1202 3.927536,-5.1202 0,0 -1.875535,2.9001 6.426317,8.3091 6.581412,4.2881 10.083657,13.4579 5.934929,23.7279 l -1.520057,3.7629"
       id="path2" />
    <circle
       style="opacity:0.2;stroke-width:1.01818"
       cx="21"
       cy="1028.3621"
       r="14"
       id="circle2" />
    <path
       style="fill:#8d5fd3;fill-rule:evenodd;stroke-width:1.01818"
       d="m 9.8741142,1033.752 c -3.6323133,-5.1172 -4.9462097,-9.6775 -4.871085,-13.4246 C 5.1379581,1013.5972 9,1009.49 9,1009.49 c 0,0 -0.1863897,3.5245 1.46184,3.8609 1.648231,0.3365 1.707233,-1.8393 1.60277,-5.513 -0.104463,-3.6739 1.9009,-5.4822 1.9009,-5.4822 0,0 -0.207737,6.9286 5.124387,4.4935 5.332125,-2.4352 0.984092,-8.487 0.984092,-8.487 0,0 5.242156,-0.0228 9.597547,5.9598 3.463464,4.7575 11.225131,7.3527 10.450928,2.1604 -0.774202,-5.1923 3.927536,-5.1202 3.927536,-5.1202 0,0 -1.875535,2.9001 6.426317,8.3091 6.581412,4.2881 10.083657,13.4579 5.934929,23.7279 l -1.520057,3.7629"
       id="path3" />
    <circle
       style="fill:#e5e5e5;stroke-width:1.01818;fill-opacity:1"
       cx="21"
       cy="1027.3621"
       r="14"
       id="circle3" />
    <path
       style="fill:#8d5fd3;fill-rule:evenodd;stroke-width:1.01818"
       d="m 28.839409,992.3622 c 0,0 -2.700261,3.96412 1.585383,5.96363 7.197598,3.35777 6.930065,5.03637 6.930065,5.03637 0,0 2.134117,-4.91207 -1.36064,-7.77811 -3.494757,-2.86604 -7.154808,-3.22189 -7.154808,-3.22189 z"
       id="path4" />
    <circle
       style="opacity:0.2;stroke-width:1.01818"
       cx="43"
       cy="1032.3621"
       r="17"
       id="circle4" />
    <circle
       style="fill:#586274;stroke-width:1.01818;fill-opacity:1"
       cx="43"
       cy="1031.3621"
       r="17"
       id="circle5" />
    <ellipse
       style="opacity:0.2;stroke-width:1.01818"
       cx="-481.25"
       cy="933.23602"
       rx="6.0939999"
       ry="7.3559999"
       transform="matrix(0.8831063,-0.46917296,0.49558239,0.86856093,0,0)"
       id="ellipse5" />
    <ellipse
       style="fill:#ffffff;stroke-width:1.01818"
       cx="-480.755"
       cy="932.35303"
       rx="6.0939999"
       ry="7.3559999"
       transform="matrix(0.8831063,-0.46917296,0.49558239,0.86856093,0,0)"
       id="ellipse6" />
    <path
       style="opacity:0.2;fill:#ffffff;fill-rule:evenodd;stroke-width:1.01818"
       transform="translate(0,988.3622)"
       d="m 20.074219,10 c 0,0 0.291623,0.415625 0.630859,1.058594 1.485741,0.187201 5.486662,1.120049 8.966797,5.90039 3.417014,4.693695 11.001148,7.269142 10.460937,2.351563 -0.57413,3.524138 -7.302456,0.987006 -10.460937,-3.351563 C 25.316484,9.9763844 20.074219,10 20.074219,10 Z m 23.976562,3 c 0,0 -4.294496,-0.05291 -3.986328,4.492188 0.315156,-3.322491 3.427814,-3.46987 3.828125,-3.476563 C 43.852783,13.361221 44.050781,13 44.050781,13 Z m -30.085937,0.994141 c 0,0 -2.004854,1.808521 -1.900391,5.482421 0.0085,0.298596 0.0022,0.520569 0.0078,0.798829 -0.02338,-3.531112 1.892578,-5.28125 1.892578,-5.28125 0,0 -0.207124,6.927287 5.125,4.492187 2.288719,-1.045266 2.789948,-2.755823 2.621094,-4.36914 -0.12328,1.288092 -0.802872,2.538752 -2.621094,3.36914 -5.332124,2.4351 -5.125,-4.492187 -5.125,-4.492187 z m 29.96289,0.375 c -0.216847,0.908262 -0.110446,3.60066 6.548828,7.939453 4.461452,2.906846 7.499683,8.061892 7.707032,14.277344 0.103349,-6.661075 -3.00871,-12.216167 -7.707032,-15.277344 -4.988365,-3.250127 -6.294718,-5.585869 -6.548828,-6.939453 z M 9,21.126953 c 0,0 -3.8611648,4.107691 -3.9960938,10.837891 -0.00441,0.219934 0.012229,0.452249 0.017578,0.677734 C 5.2722291,26.107409 9,22.126953 9,22.126953 c 0,0 -0.1872922,3.524928 1.460938,3.861328 1.37669,0.281063 1.631037,-1.259341 1.621093,-3.892578 -0.06438,2.034883 -0.41864,3.138069 -1.621093,2.892578 C 8.8127078,24.651881 9,21.126953 9,21.126953 Z"
       id="path6" />
    <path
       style="opacity:0.2;fill:#ffffff;fill-rule:evenodd;stroke-width:1.01818"
       transform="translate(0,988.3622)"
       d="m 28.839844,4 c 0,0 -1.045426,1.534402 -0.802735,3.1757812 C 28.190975,5.9630755 28.839844,5 28.839844,5 c 0,0 3.65954,0.3566163 7.154297,3.2226562 1.411663,1.157701 1.897939,2.6468868 1.984375,4.0136718 C 38.086278,10.640323 37.761492,8.6720558 35.994141,7.2226562 32.499384,4.3566163 28.839844,4 28.839844,4 Z"
       id="path7" />
  </g>
</svg>
