<?xml version="1.0" encoding="UTF-8" standalone="no"?>
<svg
   width="62"
   height="62"
   version="1.1"
   id="svg29"
   sodipodi:docname="dmd-doc.svg"
   inkscape:version="1.4.2 (unknown)"
   xmlns:inkscape="http://www.inkscape.org/namespaces/inkscape"
   xmlns:sodipodi="http://sodipodi.sourceforge.net/DTD/sodipodi-0.dtd"
   xmlns:xlink="http://www.w3.org/1999/xlink"
   xmlns="http://www.w3.org/2000/svg"
   xmlns:svg="http://www.w3.org/2000/svg">
  <defs
     id="defs29">
    <linearGradient
       id="linearGradient29"
       inkscape:collect="always">
      <stop
         style="stop-color:#476083;stop-opacity:1;"
         offset="0"
         id="stop29" />
      <stop
         style="stop-color:#ff9955;stop-opacity:1"
         offset="1"
         id="stop30" />
    </linearGradient>
    <linearGradient
       inkscape:collect="always"
       xlink:href="#linearGradient29"
       id="linearGradient30"
       x1="30.782633"
       y1="60"
       x2="30.049528"
       y2="-20.910414"
       gradientUnits="userSpaceOnUse"
       gradientTransform="matrix(0.98214286,0,0,0.98245614,-0.42857152,-0.92982455)" />
  </defs>
  <sodipodi:namedview
     id="namedview29"
     pagecolor="#ffffff"
     bordercolor="#000000"
     borderopacity="0.25"
     inkscape:showpageshadow="2"
     inkscape:pageopacity="0.0"
     inkscape:pagecheckerboard="0"
     inkscape:deskcolor="#d1d1d1"
     inkscape:zoom="7.0710678"
     inkscape:cx="20.435386"
     inkscape:cy="36.910974"
     inkscape:window-width="1920"
     inkscape:window-height="998"
     inkscape:window-x="0"
     inkscape:window-y="0"
     inkscape:window-maximized="1"
     inkscape:current-layer="svg29" />
  <rect
     style="opacity:0.2;stroke-width:0.9823"
     width="55"
     height="55.017544"
     x="3.5"
     y="3.9824562"
     ry="13.754386"
     id="rect1" />
  <rect
     style="fill:url(#linearGradient30);stroke-width:0.9823"
     width="55"
     height="55.017544"
     x="3.5"
     y="3"
     ry="13.754386"
     id="rect2" />
  <path
     style="opacity:0.1;fill:#ffffff;stroke-width:0.9823"
     d="M 17.25,3 C 9.6324999,3 3.4999999,9.1344561 3.4999999,16.754386 v 0.982456 c 0,-7.61993 6.1325,-13.7543858 13.7500001,-13.7543858 h 27.5 c 7.6175,0 13.75,6.1344558 13.75,13.7543858 V 16.754386 C 58.5,9.1344561 52.3675,3 44.75,3 Z"
     id="path28" />
  <g
     id="g1"
     transform="matrix(1.054746,0,0,1.0567474,-6.5985627,-69.277161)"
     style="stroke-width:0.947196">
    <circle
       style="opacity:0.2;stroke-width:1.7627"
       cx="53.046738"
       cy="84.360878"
       r="2.747323"
       id="circle3303" />
    <path
       style="opacity:0.2;stroke-width:1.7627"
       d="m 50.306721,90.771284 c 0,4.046144 -3.339684,7.326194 -7.459402,7.326194 -1.063253,0 -2.074561,-0.218468 -2.989905,-0.612245 -2.63123,-1.131892 -1.220454,-3.14896 -1.220454,-6.150828 0,-1.40589 -2.845831,-3.282407 -2.146798,-4.397853 1.312783,-2.094806 3.668907,-3.49146 6.357157,-3.49146 4.119718,0 7.459402,3.280048 7.459402,7.326192 z"
       id="path3307" />
    <path
       style="fill:#ff7f2a;stroke-width:1.7627"
       d="m 50.306721,89.855511 c 0,4.046144 -3.339684,7.326197 -7.459402,7.326197 -1.063253,0 -2.074561,-0.218509 -2.989905,-0.612251 -2.63123,-1.131893 -1.220454,-3.148958 -1.220454,-6.150828 0,-1.405888 -2.845831,-3.282404 -2.146798,-4.397854 1.312783,-2.094803 3.668907,-3.491459 6.357157,-3.491459 4.119718,0 7.459402,3.280054 7.459402,7.326195 z"
       id="path3309" />
    <circle
       style="fill:#ffd42a;stroke-width:1.7627"
       cx="53.046738"
       cy="83.445107"
       r="2.747323"
       id="circle3311" />
    <path
       style="opacity:0.2;stroke-width:1.7627"
       d="M 16.748783,81.613551 C 16.056957,81.613551 15.5,82.170503 15.5,82.86233 v 24.97566 c 0,0.69181 0.556957,1.24878 1.248783,1.24878 h 2.141469 0.356099 10.346357 c 0.02766,0 0.05105,-0.0185 0.07804,-0.0219 7.407945,-0.2342 13.294328,-6.30293 13.302474,-13.714564 -0.0044,-7.42458 -5.907977,-13.501824 -13.329294,-13.72198 -0.01804,-0.0014 -0.03307,-0.01452 -0.05122,-0.01452 h -10.346356 -0.3561 z m 5.161635,6.41041 h 6.959219 c 4.945848,0 7.693172,2.49841 7.693168,7.326199 0,4.82777 -2.74732,7.3262 -7.693168,7.3262 h -6.959219 z"
       id="path3313" />
    <path
       style="fill:#ffffff;stroke-width:1.7627"
       d="m 16.748783,80.697772 c -0.691826,0 -1.248783,0.556957 -1.248783,1.248787 v 24.975661 c 0,0.69181 0.556957,1.24877 1.248783,1.24877 h 2.141469 0.356099 10.346357 c 0.02766,0 0.05105,-0.0185 0.07804,-0.0218 7.407945,-0.2343 13.294328,-6.30307 13.302474,-13.714705 -0.0044,-7.424579 -5.907977,-13.501827 -13.329294,-13.721977 -0.01804,-0.0014 -0.03307,-0.01452 -0.05122,-0.01452 h -10.346356 -0.3561 z m 5.161635,6.410416 h 6.959219 c 4.945848,0 7.693172,2.498412 7.693168,7.3262 0,4.827798 -2.74732,7.326192 -7.693168,7.326192 h -6.959219 z"
       id="path3315" />
  </g>
</svg>
