<?xml version="1.0" encoding="UTF-8" standalone="no"?>
<svg
   width="62"
   height="62"
   version="1"
   id="svg7"
   sodipodi:docname="stremio.svg"
   inkscape:version="1.4.2 (unknown)"
   xmlns:inkscape="http://www.inkscape.org/namespaces/inkscape"
   xmlns:sodipodi="http://sodipodi.sourceforge.net/DTD/sodipodi-0.dtd"
   xmlns="http://www.w3.org/2000/svg"
   xmlns:svg="http://www.w3.org/2000/svg">
  <defs
     id="defs7" />
  <sodipodi:namedview
     id="namedview7"
     pagecolor="#ffffff"
     bordercolor="#000000"
     borderopacity="0.25"
     inkscape:showpageshadow="2"
     inkscape:pageopacity="0.0"
     inkscape:pagecheckerboard="0"
     inkscape:deskcolor="#d1d1d1"
     inkscape:zoom="11.6875"
     inkscape:cx="31.914439"
     inkscape:cy="25.283422"
     inkscape:window-width="1920"
     inkscape:window-height="994"
     inkscape:window-x="0"
     inkscape:window-y="0"
     inkscape:window-maximized="1"
     inkscape:current-layer="svg7" />
  <path
     style="opacity:0.2;stroke-width:0.965808"
     d="m 30.999997,3.4659934 c -1.466729,0 -2.935369,0.5464484 -4.031782,1.6435035 L 4.6425121,27.452471 c -1.0970658,1.097704 -1.6439474,2.5631 -1.6425106,4.030454 0.00149,1.465627 0.5504654,2.93216 1.6462818,4.028567 L 26.971979,57.852577 c 2.192846,2.194117 5.866971,2.197707 8.059808,0.0039 L 57.353718,35.51341 c 1.096414,-1.097055 1.646281,-2.56317 1.646281,-4.030452 0,-1.467281 -0.549867,-2.933394 -1.646281,-4.030454 L 35.031787,5.1094969 C 33.935373,4.012442 32.466736,3.4659934 30.999997,3.4659934 Z"
     id="path1" />
  <path
     style="fill:#59865a;fill-opacity:1;stroke-width:0.965808"
     d="m 30.999998,2.5 c -1.466729,0 -2.934831,0.5471672 -4.031244,1.6442233 L 4.6432342,26.485851 C 3.5461672,27.583548 2.9985679,29.04957 3.0000047,30.516928 H 58.999999 c 0,-1.467275 -0.549416,-2.934021 -1.645835,-4.031077 L 35.03125,4.1442233 C 33.934837,3.0471674 32.466737,2.5 30.999998,2.5 Z m 28.000001,28.016928 c 0,0.733641 -0.137045,1.467725 -0.411463,2.154949 0.274108,-0.68736 0.411463,-1.421308 0.411463,-2.154949 z m -0.411463,2.154949 c -0.2744,0.687233 -0.686157,1.327608 -1.234372,1.876133 0.548215,-0.548525 0.960272,-1.188772 1.234372,-1.876133 z"
     id="path2" />
  <path
     style="fill:#ff5555;fill-opacity:1;stroke-width:0.965808"
     d="m 3.0000047,30.516928 c 0.00149,1.465634 0.5500165,2.932072 1.645833,4.028474 L 26.971357,56.88703 c 2.192839,2.194117 5.867057,2.19663 8.059893,0.0028 L 57.354164,34.54802 c 1.096419,-1.097047 1.645835,-2.5638 1.645835,-4.031082 z"
     id="path3" />
  <path
     style="opacity:0.2;stroke-width:0.965808"
     d="m 3.0000015,30.516945 c 3.164e-4,0.323271 0.031304,0.646733 0.08486,0.966106 H 58.915139 c 0.05351,-0.319622 0.08484,-0.64247 0.08484,-0.966106 z"
     id="path4" />
  <path
     style="opacity:0.1;fill:#ffffff;stroke-width:0.965808"
     d="m 30.999997,2.5000152 c -1.466729,0 -2.935368,0.5464483 -4.031782,1.6435033 L 4.6425121,26.486491 c -1.0970658,1.097704 -1.6439474,2.563096 -1.6425106,4.030454 h 0.082967 C 3.270648,29.387614 3.7874205,28.308176 4.6425101,27.452598 L 26.968215,5.1115071 c 1.096414,-1.0970559 2.565053,-1.6453915 4.031782,-1.6453915 1.466739,0 2.935375,0.5483357 4.03179,1.6453915 L 57.353718,27.452598 c 0.854587,0.855077 1.372605,1.934887 1.561421,3.064347 h 0.08484 c 0,-1.467275 -0.549867,-2.933398 -1.646281,-4.030454 L 35.031787,4.1435185 C 33.935373,3.0464637 32.466736,2.5000152 30.999997,2.5000152 Z"
     id="path7" />
  <path
     style="fill:#ffffff"
     d="m 31.000034,6.1122995 3.999992,6.9998355 7.999836,1.094222 -5.999914,5.905672 1.416384,7.999959 -7.416343,-3.999906 -7.416344,3.999906 1.416385,-7.999959 -5.999914,-5.905672 7.999835,-1.094222 z"
     id="path4-6" />
  <path
     style="fill:#373e48;stroke-width:0.999999"
     d="M 27.500003,33.888008 H 34.5 L 31.875,44.388009 34.5,54.888008 h -6.999997 l 2.625,-10.499999 z"
     id="path5" />
  <path
     style="fill:#373e48;stroke-width:0.999999"
     d="m 41.500001,40.888009 v 6.999998 l -10.499999,-2.625 -10.5,2.625 v -6.999998 l 10.5,2.625 z"
     id="path6" />
</svg>
