<?xml version="1.0" encoding="UTF-8" standalone="no"?>
<svg
   width="62"
   height="62"
   version="1"
   id="svg7"
   sodipodi:docname="kahla.svg"
   inkscape:version="1.4.2 (unknown)"
   xmlns:inkscape="http://www.inkscape.org/namespaces/inkscape"
   xmlns:sodipodi="http://sodipodi.sourceforge.net/DTD/sodipodi-0.dtd"
   xmlns:xlink="http://www.w3.org/1999/xlink"
   xmlns="http://www.w3.org/2000/svg"
   xmlns:svg="http://www.w3.org/2000/svg">
  <defs
     id="defs7">
    <linearGradient
       id="linearGradient7"
       inkscape:collect="always">
      <stop
         style="stop-color:#2a7fff;stop-opacity:1"
         offset="0"
         id="stop8" />
      <stop
         style="stop-color:#1a75ff;stop-opacity:1;"
         offset="0.59162253"
         id="stop10" />
      <stop
         style="stop-color:#eff2f6;stop-opacity:1;"
         offset="0.92173076"
         id="stop11" />
      <stop
         style="stop-color:#eff2f6;stop-opacity:1;"
         offset="1"
         id="stop9" />
    </linearGradient>
    <linearGradient
       id="linearGradient1"
       inkscape:collect="always">
      <stop
         style="stop-color:#3f8bff;stop-opacity:1;"
         offset="0"
         id="stop5" />
      <stop
         style="stop-color:#5599ff;stop-opacity:1"
         offset="0.5607056"
         id="stop7" />
      <stop
         style="stop-color:#2a7fff;stop-opacity:1"
         offset="1"
         id="stop6" />
    </linearGradient>
    <linearGradient
       id="c-3"
       gradientUnits="userSpaceOnUse"
       x1="24.072048"
       x2="23.959682"
       y1="0.75082099"
       y2="46.056854">
      <stop
         offset="0"
         stop-color="#fff"
         id="stop3" />
      <stop
         offset="1"
         stop-color="#d9d9d9"
         id="stop4" />
    </linearGradient>
    <linearGradient
       id="b-6"
       gradientUnits="userSpaceOnUse"
       x1="29.203026"
       x2="34.121048"
       xlink:href="#a-7"
       y1="24.827356"
       y2="29.224836" />
    <linearGradient
       id="a-7">
      <stop
         offset="0"
         id="stop1" />
      <stop
         offset="1"
         stop-opacity="0"
         id="stop2" />
    </linearGradient>
    <linearGradient
       id="d"
       gradientUnits="userSpaceOnUse"
       x1="15.948756"
       x2="25.031786"
       xlink:href="#a-7"
       y1="23.618279"
       y2="33.69899" />
    <linearGradient
       id="e"
       gradientUnits="userSpaceOnUse"
       x1="21.990562"
       x2="29.320522"
       xlink:href="#a-7"
       y1="33.780373"
       y2="41.931858" />
    <linearGradient
       id="paint154_linear_890_11"
       x1="778"
       y1="812.29199"
       x2="788"
       y2="812.29199"
       gradientUnits="userSpaceOnUse"
       gradientTransform="translate(-751,-696)">
      <stop
         stop-color="#EFF2F6"
         id="stop1050" />
      <stop
         offset="0.600785"
         stop-color="#B7C6CD"
         id="stop1051" />
    </linearGradient>
    <linearGradient
       id="paint155_linear_890_11"
       x1="783"
       y1="813"
       x2="783"
       y2="817"
       gradientUnits="userSpaceOnUse"
       gradientTransform="translate(-751,-696)">
      <stop
         stop-color="#EFF2F6"
         id="stop1052" />
      <stop
         offset="0.734138"
         stop-color="#B7C6CD"
         id="stop1053" />
    </linearGradient>
    <radialGradient
       id="paint156_radial_890_11"
       cx="0"
       cy="0"
       r="1"
       gradientUnits="userSpaceOnUse"
       gradientTransform="matrix(27.999986,27.999976,-27.999986,27.999976,32.302392,33.999998)">
      <stop
         offset="0.60067803"
         stop-color="#B7C6CD"
         id="stop1054"
         style="stop-color:#384850;stop-opacity:1;" />
      <stop
         offset="0.876735"
         stop-color="#EFF2F6"
         id="stop1055" />
    </radialGradient>
    <linearGradient
       id="paint157_linear_890_11"
       x1="796.84485"
       y1="799.43359"
       x2="768.90088"
       y2="770.81476"
       gradientUnits="userSpaceOnUse"
       gradientTransform="matrix(1.1666666,0,0,1.1666668,-881.19764,-881.8333)">
      <stop
         offset="0.00000057"
         stop-color="#2E2E41"
         id="stop1056"
         style="stop-color:#495361;stop-opacity:1;" />
      <stop
         offset="0.711139"
         stop-color="#566C80"
         id="stop1057" />
    </linearGradient>
    <linearGradient
       id="paint158_linear_890_11"
       x1="792"
       y1="794"
       x2="774"
       y2="776"
       gradientUnits="userSpaceOnUse"
       gradientTransform="translate(-751,-696)">
      <stop
         offset="0.304478"
         stop-color="#2E2E41"
         id="stop1058" />
      <stop
         offset="1"
         stop-color="#566C80"
         id="stop1059" />
    </linearGradient>
    <linearGradient
       id="paint159_linear_890_11"
       x1="788"
       y1="790"
       x2="778"
       y2="780"
       gradientUnits="userSpaceOnUse"
       gradientTransform="translate(-751,-696)">
      <stop
         offset="0.391394"
         stop-color="#5200FF"
         id="stop1060" />
      <stop
         offset="1"
         stop-color="#0085FF"
         id="stop1061" />
    </linearGradient>
    <linearGradient
       id="paint160_linear_890_11"
       x1="784"
       y1="798"
       x2="782"
       y2="796"
       gradientUnits="userSpaceOnUse"
       gradientTransform="translate(-751,-696)">
      <stop
         stop-color="#FF7E07"
         id="stop1062" />
      <stop
         offset="1"
         stop-color="#FFE607"
         id="stop1063" />
    </linearGradient>
    <linearGradient
       inkscape:collect="always"
       xlink:href="#linearGradient1"
       id="linearGradient6"
       x1="17.408081"
       y1="16.037786"
       x2="49.155514"
       y2="50.137749"
       gradientUnits="userSpaceOnUse"
       gradientTransform="translate(-1.3023872,-3)" />
    <radialGradient
       inkscape:collect="always"
       xlink:href="#linearGradient7"
       id="radialGradient9"
       cx="32.302387"
       cy="34"
       fx="32.302387"
       fy="34"
       r="28"
       gradientUnits="userSpaceOnUse"
       gradientTransform="matrix(0.99999999,1,-1,0.99999999,32.697613,-35.302387)" />
    <linearGradient
       id="c-3-6"
       gradientUnits="userSpaceOnUse"
       x1="24.072048"
       x2="23.959682"
       y1="0.75082099"
       y2="46.056854"
       gradientTransform="matrix(0.91471346,0,0,0.90068147,9.0468769,9.3836444)">
      <stop
         offset="0"
         stop-color="#fff"
         id="stop3-2" />
      <stop
         offset="1"
         stop-color="#d9d9d9"
         id="stop4-9" />
    </linearGradient>
    <linearGradient
       id="b-6-1"
       gradientUnits="userSpaceOnUse"
       x1="29.203026"
       x2="34.121048"
       xlink:href="#a-7"
       y1="24.827356"
       y2="29.224836"
       gradientTransform="matrix(1.1104534,0,0,1.0934187,4.3491158,4.7861435)" />
    <linearGradient
       id="d-0"
       gradientUnits="userSpaceOnUse"
       x1="15.948756"
       x2="25.031786"
       xlink:href="#a-7"
       y1="23.618279"
       y2="33.69899"
       gradientTransform="matrix(1.1104534,0,0,1.0934187,4.3491158,4.7861435)" />
    <linearGradient
       id="e-9"
       gradientUnits="userSpaceOnUse"
       x1="21.990562"
       x2="29.320522"
       xlink:href="#a-7"
       y1="33.780373"
       y2="41.931858"
       gradientTransform="matrix(1.1104534,0,0,1.0934187,4.3491158,4.7861435)" />
    <linearGradient
       id="linearGradient773"
       gradientTransform="matrix(2.0428665,-6.8308524,5.7819337,2.3633129,-33.356582,5.3194785)"
       gradientUnits="userSpaceOnUse"
       x1="24"
       x2="24"
       y1="35"
       y2="13">
      <stop
         offset="0"
         stop-color="#cd7223"
         id="stop224-5"
         style="stop-color:#ffb380;stop-opacity:1" />
      <stop
         offset=".53"
         stop-color="#f48e00"
         id="stop226-3" />
      <stop
         offset="1"
         stop-color="#ffa92d"
         id="stop228-5" />
    </linearGradient>
  </defs>
  <sodipodi:namedview
     id="namedview7"
     pagecolor="#ffffff"
     bordercolor="#000000"
     borderopacity="0.25"
     inkscape:showpageshadow="2"
     inkscape:pageopacity="0.0"
     inkscape:pagecheckerboard="0"
     inkscape:deskcolor="#d1d1d1"
     inkscape:zoom="8.3306018"
     inkscape:cx="30.369955"
     inkscape:cy="38.292552"
     inkscape:window-width="1920"
     inkscape:window-height="996"
     inkscape:window-x="0"
     inkscape:window-y="0"
     inkscape:window-maximized="1"
     inkscape:current-layer="svg7" />
  <path
     d="M 59,31 C 59,46.46415 46.464172,59 30.999998,59 15.535835,59 3.0000001,46.46415 3.0000001,31 3.0000001,15.535835 15.535835,3 30.999998,3 46.464172,3 59,15.535835 59,31 Z"
     id="path154"
     style="fill:url(#radialGradient9)" />
  <path
     d="m 54.333333,31 c 0,12.88701 -10.446332,23.33332 -23.333335,23.33332 C 18.112999,54.33332 7.6666671,43.88701 7.6666671,31 7.6666671,18.113006 18.112999,7.666668 30.999998,7.666668 43.887001,7.666668 54.333333,18.113006 54.333333,31 Z"
     id="path155"
     style="fill:url(#linearGradient6)" />
  <g
     id="g2"
     transform="translate(5.1732256e-7,-0.48015739)">
    <g
       id="g1">
      <path
         style="opacity:0.2"
         d="m 15.133954,17.025977 c -0.807941,1.10503 2.262042,2.018788 3.249766,2.285156 2.933096,0.525046 5.964888,1.139728 8.507198,2.75 1.780116,1.350472 2.23577,3.073024 2.343584,5.6875 0.273036,2.256628 -2.343876,3.282548 -2.683402,2.78125 -1.037524,2.326664 2.498218,3.253154 3.413818,4.695312 0.333014,1.117884 -3.371218,1.837708 -1.023366,3.691406 0.40985,1.077006 -2.015478,2.019532 -2.015478,2.019532 0,0 1.406268,-0.294336 1.425678,0.38672 -0.0032,0.372832 -0.916522,0.258782 -0.773382,0.625 0.479334,2.00576 0.754686,3.557694 -1.12492,4.011718 -1.244036,0.16284 -3.885572,-1.094766 -5.249622,-1.54297 -0.0852,0.33584 -0.10402,0.759158 -0.0703,1.218752 0.089,1.214032 0.526026,2.673758 0.945244,3.390624 h 8.921234 8.921236 c 0.419218,-0.716866 0.85625,-2.176592 0.945244,-3.390624 0.03372,-0.459594 0.0148,-0.882912 -0.0703,-1.218752 -1.36405,0.448204 -4.005584,1.70581 -5.249622,1.54297 -1.879604,-0.454024 -1.604254,-2.005958 -1.12492,-4.011718 0.14314,-0.366218 -0.770182,-0.252168 -0.773382,-0.625 0.0194,-0.681056 1.425678,-0.38672 1.425678,-0.38672 0,0 -2.425328,-0.942526 -2.01548,-2.019532 2.347854,-1.853698 -1.356378,-2.573522 -1.023364,-3.691406 0.9156,-1.442158 4.451342,-2.368648 3.413816,-4.695312 -0.339524,0.501298 -2.956436,-0.524622 -2.6834,-2.78125 0.10782,-2.614476 0.563466,-4.337028 2.343584,-5.6875 2.542312,-1.610272 5.574104,-2.224954 8.5072,-2.75 0.987706,-0.266368 4.05769,-1.180126 3.24975,-2.285156 H 30.999998 Z"
         id="path2-3" />
      <path
         style="fill:#ffeb3b"
         d="M 31,16.025977 H 15.133903 c -0.807998,1.10503 2.262625,2.017896 3.25042,2.284266 2.933307,0.525046 5.963093,1.14208 8.505589,2.752352 1.780244,1.350472 2.234874,3.073468 2.342694,5.687944 0.273058,2.256628 -2.343774,3.281192 -2.683324,2.779894 -1.0376,2.326664 2.499688,3.252822 3.415354,4.69498 0.333038,1.117884 -3.369486,1.835676 -1.021464,3.689374 0.409878,1.077006 -2.018346,2.019536 -2.018346,2.019536 0,0 1.40664,-0.290698 1.42605,0.390358 -0.0032,0.372832 -0.917812,0.256032 -0.77466,0.622248 0.479368,2.00576 0.75711,3.558186 -1.12263,4.01221 -1.244128,0.16284 -3.887788,-1.094746 -5.251934,-1.542948 -0.0852,0.335838 -0.10114,0.76033 -0.06742,1.219924 0.089,1.214032 0.524286,2.672996 0.943536,3.389862 H 31 Z"
         id="path3-6" />
      <path
         style="fill:#ff5722"
         d="m 31,16.025977 h 15.866096 c 0.807998,1.10503 -2.262626,2.017896 -3.25042,2.284266 -2.933306,0.525046 -5.963092,1.14208 -8.505588,2.752352 -1.780244,1.350472 -2.234874,3.073468 -2.342694,5.687944 -0.273058,2.256628 2.343774,3.281192 2.683324,2.779894 1.0376,2.326664 -2.499688,3.252822 -3.415354,4.69498 -0.333038,1.117884 3.369486,1.835676 1.021464,3.689374 -0.409878,1.077006 2.018346,2.019536 2.018346,2.019536 0,0 -1.40664,-0.290698 -1.42605,0.390358 0.0032,0.372832 0.917812,0.256032 0.77466,0.622248 -0.479368,2.00576 -0.75711,3.558186 1.12263,4.01221 1.244128,0.16284 3.887788,-1.094746 5.251934,-1.542948 0.0852,0.335838 0.10114,0.76033 0.06742,1.219924 -0.089,1.214032 -0.524286,2.672996 -0.943536,3.389862 H 31 Z"
         id="path4" />
      <path
         style="opacity:0.2;fill:#ffffff"
         d="m 15.134766,16.025977 c -0.263471,0.360308 -0.09285,0.696174 0.261718,1 H 31 46.603516 c 0.354564,-0.303826 0.525189,-0.639692 0.261718,-1 H 31 Z m 14.080078,11.453125 c -0.287451,1.741337 -2.365616,2.494258 -2.666016,2.050781 -0.219693,0.492606 -0.225735,0.919428 -0.103516,1.304688 0.02891,-0.09994 0.05646,-0.19917 0.103516,-0.304688 0.339567,0.501298 2.956666,-0.522669 2.683594,-2.779297 -0.0039,-0.09445 -0.01273,-0.179332 -0.01758,-0.271484 z m 3.570312,0 c -0.0048,0.09215 -0.01368,0.177029 -0.01758,0.271484 -0.273071,2.256628 2.344027,3.280595 2.683594,2.779297 0.04706,0.105518 0.07461,0.204751 0.103516,0.304688 0.122219,-0.38526 0.116177,-0.812082 -0.103516,-1.304688 -0.3004,0.443477 -2.378565,-0.309444 -2.666016,-2.050781 z m -3.091797,7.435547 c -0.61717,0.662181 -1.991729,1.298552 -1.378906,2.330078 0.472577,-0.769935 1.860072,-1.315745 1.650391,-2.019531 -0.06849,-0.107864 -0.176667,-0.207651 -0.271485,-0.310547 z m 2.613282,0 c -0.09482,0.102896 -0.202996,0.202683 -0.271485,0.310547 -0.209681,0.703786 1.177814,1.249596 1.650391,2.019531 0.612823,-1.031526 -0.761736,-1.667897 -1.378906,-2.330078 z M 28.75,38.740821 c -0.539665,0.689597 -1.824219,1.193359 -1.824219,1.193359 0,0 1.14575,-0.23151 1.376953,0.230469 0.457936,-0.350029 0.817809,-0.78445 0.640625,-1.25 -0.07643,-0.06034 -0.129402,-0.115845 -0.193359,-0.173828 z m 4.5,0 c -0.06396,0.05798 -0.116929,0.113491 -0.193359,0.173828 -0.177185,0.46555 0.182689,0.899971 0.640625,1.25 0.231202,-0.461979 1.376953,-0.230469 1.376953,-0.230469 0,0 -1.284554,-0.503762 -1.824219,-1.193359 z m -5.619141,2.132812 c -0.02143,-7.58e-4 -0.03726,0.0041 -0.05859,0.0039 -3.33e-4,0.02244 -0.0068,0.04287 0.0039,0.07031 0.06484,0.271292 0.105593,0.508625 0.158203,0.761719 0.230205,-0.09943 0.615075,-0.138636 0.617187,-0.384766 -0.0097,-0.340528 -0.366666,-0.438648 -0.720703,-0.451172 z m 6.738282,0 c -0.354037,0.01252 -0.710999,0.110644 -0.720703,0.451172 0.0021,0.24613 0.386982,0.285338 0.617187,0.384766 0.05261,-0.253094 0.09336,-0.490427 0.158203,-0.761719 0.01073,-0.02745 0.0042,-0.04787 0.0039,-0.07031 -0.02133,1.7e-4 -0.03716,-0.0047 -0.05859,-0.0039 z m -13.167969,2.542969 c -0.0852,0.335838 -0.100127,0.759156 -0.06641,1.21875 0.0031,0.04282 0.01359,0.08943 0.01758,0.132813 0.01356,-0.120473 0.0222,-0.246614 0.04883,-0.351563 1.364215,0.448202 4.007762,1.705809 5.251953,1.542969 1.328096,-0.320767 1.571451,-1.197065 1.435547,-2.386719 -0.114819,0.674922 -0.513543,1.164033 -1.435547,1.386719 -1.244191,0.16284 -3.887738,-1.094767 -5.251953,-1.542969 z m 19.597656,0 c -1.364214,0.448202 -4.007763,1.705809 -5.251953,1.542969 -0.922004,-0.222686 -1.320728,-0.711797 -1.435547,-1.386719 -0.135904,1.189654 0.107451,2.065952 1.435547,2.386719 1.24419,0.16284 3.887739,-1.094767 5.251953,-1.542969 0.02663,0.104949 0.03527,0.23109 0.04883,0.351563 0.004,-0.04339 0.01444,-0.09 0.01758,-0.132813 0.03372,-0.459594 0.01879,-0.882912 -0.06641,-1.21875 z"
         id="path6" />
    </g>
  </g>
</svg>
