<?xml version="1.0" encoding="UTF-8" standalone="no"?>
<svg
   clip-rule="evenodd"
   fill-rule="evenodd"
   stroke-linejoin="round"
   stroke-miterlimit="2"
   viewBox="0 0 62 62"
   version="1.1"
   id="svg3"
   sodipodi:docname="doom-eternal.svg"
   width="62"
   height="62"
   inkscape:version="1.4.2 (unknown)"
   xmlns:inkscape="http://www.inkscape.org/namespaces/inkscape"
   xmlns:sodipodi="http://sodipodi.sourceforge.net/DTD/sodipodi-0.dtd"
   xmlns:xlink="http://www.w3.org/1999/xlink"
   xmlns="http://www.w3.org/2000/svg"
   xmlns:svg="http://www.w3.org/2000/svg">
  <defs
     id="defs3">
    <linearGradient
       id="linearGradient6">
      <stop
         offset="0"
         style="stop-color:#dbdbdb;stop-opacity:0;"
         id="stop5" />
      <stop
         offset="1"
         style="stop-color:#000000;stop-opacity:1;"
         id="stop6" />
    </linearGradient>
    <linearGradient
       id="linearGradient3"
       inkscape:collect="always">
      <stop
         style="stop-color:#ff5555;stop-opacity:1"
         offset="0"
         id="stop3" />
      <stop
         style="stop-color:#2d3c53;stop-opacity:1;"
         offset="1"
         id="stop4" />
    </linearGradient>
    <filter
       id="b-3-36"
       width="1.2393739"
       height="1.1966286"
       x="-0.11968695"
       y="-0.098314282"
       color-interpolation-filters="sRGB">
      <feGaussianBlur
         stdDeviation="1.147"
         id="feGaussianBlur7-6" />
    </filter>
    <filter
       id="b-3-36-6"
       width="1.2393739"
       height="1.1966286"
       x="-0.11968695"
       y="-0.098314282"
       color-interpolation-filters="sRGB">
      <feGaussianBlur
         stdDeviation="1.147"
         id="feGaussianBlur7-6-7" />
    </filter>
    <linearGradient
       inkscape:collect="always"
       xlink:href="#linearGradient3"
       id="linearGradient4"
       x1="31.996025"
       y1="5.0983038"
       x2="31.925329"
       y2="62"
       gradientUnits="userSpaceOnUse" />
    <linearGradient
       id="linearGradient4306">
      <stop
         offset="0"
         style="stop-color:#000000;stop-opacity:0;"
         id="stop12" />
      <stop
         offset="1"
         style="stop-color:#000000;stop-opacity:1;"
         id="stop14" />
    </linearGradient>
    <radialGradient
       xlink:href="#linearGradient4324"
       id="radialGradient4340-3"
       cx="-12"
       cy="12"
       fx="-12"
       fy="12"
       r="4"
       gradientUnits="userSpaceOnUse"
       gradientTransform="matrix(1.235291,0,0,1.235291,-1.3530054,1.3530246)" />
    <linearGradient
       id="linearGradient4324">
      <stop
         style="stop-color:#eff1f1;stop-opacity:1"
         offset="0"
         id="stop7" />
      <stop
         style="stop-color:#ececec;stop-opacity:1;"
         offset="1"
         id="stop9" />
    </linearGradient>
    <linearGradient
       id="linearGradient4167">
      <stop
         style="stop-color:#ffffff;stop-opacity:0"
         offset="0"
         id="stop2-3" />
      <stop
         style="stop-color:#ffffff;stop-opacity:1"
         offset="1"
         id="stop4-6" />
    </linearGradient>
    <radialGradient
       xlink:href="#linearGradient4324"
       id="radialGradient4188-1"
       gradientUnits="userSpaceOnUse"
       cx="-12"
       cy="12"
       fx="-12"
       fy="12"
       r="4"
       gradientTransform="matrix(1.235291,0,0,1.235291,-16.176495,16.176515)" />
    <radialGradient
       xlink:href="#linearGradient4324"
       id="radialGradient4202-2"
       gradientUnits="userSpaceOnUse"
       cx="-12"
       cy="12"
       fx="-12"
       fy="12"
       r="4"
       gradientTransform="matrix(1.235291,0,0,1.235291,-30.999989,31.000009)" />
    <linearGradient
       xlink:href="#linearGradient4816"
       id="linearGradient4503-0-3"
       y1="37"
       y2="4"
       x2="0"
       gradientUnits="userSpaceOnUse"
       gradientTransform="matrix(1.0499998,0,0,1.0499998,9.2502391,54.800003)" />
    <linearGradient
       id="linearGradient4816">
      <stop
         style="stop-color:#da4453"
         id="stop1439" />
      <stop
         offset="1"
         style="stop-color:#ff7336"
         id="stop1441" />
    </linearGradient>
    <linearGradient
       id="linearGradient4279">
      <stop
         id="stop1432" />
      <stop
         offset="1"
         style="stop-opacity:0"
         id="stop1434" />
    </linearGradient>
    <linearGradient
       id="c"
       y1="513.38"
       x1="399.98999"
       y2="537.38"
       x2="424.98999"
       gradientUnits="userSpaceOnUse"
       gradientTransform="translate(-464.04842,-560.44526)">
      <stop
         stop-color="#292c2f"
         id="stop12-3" />
      <stop
         offset="1"
         stop-opacity="0"
         id="stop14-6" />
    </linearGradient>
    <linearGradient
       id="b"
       y1="35"
       x1="42"
       y2="12"
       x2="22"
       gradientUnits="userSpaceOnUse"
       gradientTransform="translate(-75.064419,-59.059262)">
      <stop
         stop-color="#197cf1"
         id="stop7-7" />
      <stop
         offset="1"
         stop-color="#20bcfa"
         id="stop9-5" />
    </linearGradient>
    <linearGradient
       id="a-3"
       y1="35"
       x1="23"
       y2="13"
       x2="5"
       gradientUnits="userSpaceOnUse"
       gradientTransform="translate(-79.064419,-59.059262)">
      <stop
         stop-color="#c61423"
         id="stop2-5" />
      <stop
         offset="1"
         stop-color="#dc2b41"
         id="stop4-62" />
    </linearGradient>
  </defs>
  <sodipodi:namedview
     id="namedview3"
     pagecolor="#ffffff"
     bordercolor="#000000"
     borderopacity="0.25"
     inkscape:showpageshadow="2"
     inkscape:pageopacity="0.0"
     inkscape:pagecheckerboard="0"
     inkscape:deskcolor="#d1d1d1"
     inkscape:zoom="7.7916669"
     inkscape:cx="20.534759"
     inkscape:cy="30.673796"
     inkscape:window-width="1920"
     inkscape:window-height="996"
     inkscape:window-x="0"
     inkscape:window-y="0"
     inkscape:window-maximized="1"
     inkscape:current-layer="svg3" />
  <linearGradient
     id="a"
     x2="1"
     gradientTransform="matrix(0,-43.53155,43.53155,0,1192.407,51.589413)"
     gradientUnits="userSpaceOnUse">
    <stop
       stop-color="#161616"
       offset="0"
       id="stop1" />
    <stop
       stop-color="#343434"
       offset="1"
       id="stop2" />
  </linearGradient>
  <g
     id="g3"
     transform="translate(3.487626,-1.843205)" />
  <rect
     style="opacity:0.2;stroke-width:0.9823"
     width="55"
     height="55.017544"
     x="3.5"
     y="3.9824562"
     rx="8.25"
     ry="8.2526312"
     id="rect1-3" />
  <rect
     style="fill:url(#linearGradient4);stroke-width:0.9823"
     width="55"
     height="55.017544"
     x="3.5"
     y="3"
     rx="8.25"
     ry="8.2526312"
     id="rect2-5" />
  <path
     style="opacity:0.1;fill:#ffffff;stroke-width:0.9823"
     d="M 11.748466,3 C 7.1779651,3 3.4999999,6.6791384 3.4999999,11.251097 v 0.982456 c 0,-4.5719585 3.6779652,-8.2510968 8.2484661,-8.2510968 h 38.503068 c 4.5705,0 8.248466,3.6791383 8.248466,8.2510968 V 11.251097 C 58.5,6.6791384 54.822034,3 50.251534,3 Z"
     id="path4-6" />
  <path
     d="m 7.3807203,43.981456 c -0.073208,-0.07282 -0.030931,-0.256399 0.094862,-0.407163 0.1257938,-0.149737 0.1598201,-0.273832 0.075271,-0.273832 -0.083518,0 -0.04434,-0.129226 0.087642,-0.287168 0.1670375,-0.199992 0.1732243,-0.328191 0.021655,-0.422547 -0.1196071,-0.07381 -0.1629134,-0.223579 -0.094862,-0.333319 0.06805,-0.108713 0.017528,-0.325113 -0.1123895,-0.481005 -0.1299182,-0.155888 -0.2010637,-0.587666 -0.1577576,-0.959959 0.072176,-0.627663 0.3608837,-0.91278 1.281653,-1.258407 0.1134207,-0.04308 0.1443536,-0.143583 0.069082,-0.22358 -0.075271,-0.08101 -0.3402619,-0.03798 -0.5908185,0.09433 -0.3608829,0.19282 -0.48977,0.184616 -0.6310301,-0.03383 C 7.3260711,39.243191 7.2642058,34.720308 7.285859,29.345153 L 7.3271033,19.571221 6.4135516,18.788691 5.5,18.005138 h 5.794764 c 5.013192,0 5.793731,0.04104 5.793731,0.304599 0,0.169224 0.09797,0.306655 0.21653,0.306655 0.119608,0 0.154665,-0.101534 0.07836,-0.224605 -0.101064,-0.162044 -0.03403,-0.164095 0.244369,-0.003 1.165141,0.670742 1.090901,0.05743 1.105335,9.110379 l 0.0134,8.334 -2.072503,1.492245 -2.072505,1.491219 -1.229068,-0.715868 c -0.675368,-0.393829 -1.265155,-0.715868 -1.309493,-0.715868 -0.04435,0 -0.901177,-0.444083 -1.904433,-0.985598 -2.0890033,-1.129181 -2.5828986,-1.343531 -2.397301,-1.046108 0.071144,0.113841 0.963044,0.623562 1.982799,1.133285 1.019754,0.508695 1.959084,1.017392 2.085909,1.129182 0.128886,0.112816 0.73517,0.485107 1.348673,0.828682 1.038316,0.581513 1.088838,0.64305 0.727955,0.905603 -0.212406,0.153839 -0.552668,0.228707 -0.755793,0.164095 -0.270148,-0.08514 -0.369132,-0.01026 -0.369132,0.279987 q -9.99e-4,0.397933 -2.00033,1.885048 l -2.6334139,1.961932 c -0.3474774,0.260486 -0.6928948,0.414327 -0.7671338,0.340483 m 4.3749427,-4.352632 a 0.20621933,0.20511939 0 0 0 -0.205187,-0.204093 0.20621933,0.20511939 0 0 0 -0.205191,0.204093 0.20621933,0.20511939 0 0 0 0.205191,0.204095 0.20621933,0.20511939 0 0 0 0.205187,-0.204095 m -0.702175,-1.452246 c 0.173222,-0.279989 -0.202096,-0.211272 -0.643406,0.115892 -0.383566,0.285117 -0.381503,0.292297 0.06704,0.179479 0.255711,-0.06356 0.515547,-0.196914 0.576383,-0.295371 m 2.03332,-0.993805 c 0.0722,-0.114865 -0.01031,-0.149736 -0.192813,-0.08001 -0.354697,0.135378 -0.419659,0.282038 -0.124763,0.282038 0.106203,0 0.249525,-0.09127 0.317576,-0.202043 m 0.209316,-3.823423 1.322894,-0.972266 0.01445,-2.040938 c 0.03919,-5.492072 -0.03302,-7.54019 -0.273241,-7.696079 -0.135074,-0.08718 -0.96098,-0.14666 -1.83535,-0.131277 -1.473438,0.02565 -1.892065,0.171276 -1.384764,0.484083 0.128888,0.07894 0.206218,2.253236 0.206218,5.847952 0,6.521771 -0.190752,6.082815 1.948775,4.508525 m 4.288331,-3.471646 a 189.72177,188.70983 0 0 0 -0.0732,-1.542508 c -0.007,-0.09027 -0.11342,-0.102559 -0.237153,-0.02665 -0.211374,0.129226 -0.140229,1.239945 0.15879,2.487073 0.180441,0.750737 0.215497,0.536386 0.151571,-0.91791 M 10.53076,29.032372 c -0.292833,-0.543566 -0.565043,-0.67997 -0.742388,-0.372292 -0.08252,0.142559 -0.07529,0.189736 0.01754,0.106663 0.09279,-0.08308 0.296956,0.03078 0.454712,0.255376 0.367071,0.520999 0.548544,0.528179 0.269118,0.01026 M 9.702789,22.288041 c 0,-0.112814 -0.04126,-0.204095 -0.09076,-0.204095 -0.0495,0 -0.147447,0.09229 -0.216529,0.20512 -0.07013,0.111789 -0.02989,0.203067 0.08969,0.203067 0.119609,0 0.21653,-0.09229 0.21653,-0.204092 m 2.871605,-0.204095 c 0,-0.111789 -0.07013,-0.210246 -0.154666,-0.219476 a 9.2798698,9.2303727 0 0 1 -0.523797,-0.08514 c -0.299019,-0.05643 -0.323764,-0.01434 -0.128888,0.219477 0.278394,0.332294 0.807349,0.388703 0.807349,0.08514 M 7.9447303,19.657372 C 8.0065986,19.556846 7.9251397,19.424561 7.762226,19.362 Q 7.4663013,19.249186 7.5807531,19.544558 c 0.1319803,0.342548 0.2062193,0.366137 0.3639772,0.112814 m 0.7320785,-0.428699 c 0,-0.112815 -0.2082816,-0.205118 -0.4619314,-0.20717 -0.2732407,-0.002 -0.366039,-0.06462 -0.2278722,-0.15384 0.1660065,-0.105636 0.140229,-0.235886 -0.090736,-0.449213 -0.2866451,-0.264601 -0.3093291,-0.259477 -0.1886907,0.0513 0.082488,0.212298 0.036088,0.353831 -0.1144517,0.357932 -0.138167,0.004 -0.019591,0.138456 0.2629297,0.29845 0.6135023,0.348701 0.8197217,0.375368 0.8197217,0.102559 m -1.4363181,-0.4882 c 0,-0.0441 -0.1443537,-0.135381 -0.3186091,-0.202042 -0.182504,-0.06975 -0.2649917,-0.03591 -0.192815,0.08001 0.1206382,0.194862 0.5114241,0.287166 0.5114241,0.122046 m 9.3788559,-0.451267 c -0.06804,-0.06769 -0.245402,-0.07488 -0.392848,-0.01639 -0.163944,0.06562 -0.115484,0.112815 0.123729,0.123074 0.216534,0.009 0.337171,-0.03897 0.269119,-0.106666 m 36.351312,24.798927 c -0.249527,-0.156917 -0.237153,-0.189737 0.07013,-0.191789 0.204158,-0.002 0.313452,-0.0964 0.242308,-0.211271 -0.07113,-0.112816 -0.208282,-0.157943 -0.305206,-0.09847 -0.09795,0.06049 -0.233026,0.02052 -0.300049,-0.0892 -0.06804,-0.109739 -0.247462,-0.150764 -0.400066,-0.09228 -0.151571,0.05743 -0.466056,-0.135379 -0.698053,-0.428701 -0.231996,-0.292294 -0.474304,-0.528181 -0.537201,-0.522026 -0.419655,0.03798 -0.525858,-0.02772 -0.525858,-0.321014 0,-0.283063 0.04742,-0.291269 0.337169,-0.0513 0.301079,0.248194 0.319639,0.225632 0.181473,-0.209222 -0.150541,-0.473826 -0.130949,-0.483055 0.796005,-0.37947 0.791882,0.08821 0.911492,0.05949 0.715581,-0.174352 -0.128885,-0.155891 -0.385629,-0.28409 -0.569165,-0.285116 -0.284581,-0.003 -0.288705,-0.03078 -0.03094,-0.192812 0.164976,-0.104612 0.239214,-0.251271 0.163944,-0.32614 -0.07529,-0.07488 -0.465025,0.06462 -0.866122,0.310756 l -0.727954,0.448186 -0.03194,-4.045981 c -0.01754,-2.225543 -0.01445,-4.252125 0.007,-4.504421 0.02163,-0.252298 -0.03503,-0.45844 -0.127857,-0.45844 -0.162916,0 -0.610413,1.355838 -1.096056,3.32806 -0.268085,1.084055 -0.417596,1.051237 -0.753733,-0.166146 -0.704238,-2.543481 -0.917676,-3.161914 -1.088837,-3.161914 -0.110328,0 -0.190752,1.58557 -0.190752,3.774194 v 3.774198 l -2.064255,-1.481989 -2.063226,-1.479936 0.01856,-5.498225 c 0.01445,-4.074698 0.08453,-5.544378 0.270147,-5.675655 0.195907,-0.138453 0.193846,-0.198965 -0.007,-0.279984 -0.187661,-0.07588 -0.255715,-0.889194 -0.255715,-3.078846 0,-1.635826 0.06189,-2.912695 0.137137,-2.837826 0.07529,0.07488 0.352635,-0.003 0.615566,-0.174351 0.577412,-0.376393 0.602161,-0.303576 0.09795,0.274861 -0.209311,0.238964 -0.43306,0.381521 -0.499052,0.316909 -0.06498,-0.06562 -0.06391,0.09027 0.003,0.345625 l 0.12167,0.464597 0.164974,-0.441007 q 0.161884,-0.443058 0.494929,-0.313832 c 0.212405,0.08101 0.315516,0.02565 0.29077,-0.156918 -0.103112,-0.730225 0.008,-0.792785 1.416726,-0.792785 h 1.40951 l 0.345416,1.225587 c 0.189722,0.674841 0.280459,1.331226 0.200033,1.459425 -0.08352,0.136403 -0.05466,0.178453 0.06906,0.102559 0.125795,-0.07695 0.268085,0.148711 0.342324,0.544591 0.07013,0.372293 0.250556,0.844068 0.401097,1.04816 0.246433,0.336398 0.296956,0.276911 0.520704,-0.62664 0.5073,-2.038886 1.107397,-3.848038 1.195041,-3.599842 0.0495,0.139479 0.180442,0.254348 0.29077,0.254348 0.110327,0 0.143321,-0.0923 0.0732,-0.204095 -0.07629,-0.123072 0.196938,-0.204093 0.688771,-0.204093 0.465026,0 0.855811,0.109739 0.909427,0.255372 0.07529,0.204094 0.148478,0.204094 0.36604,0 0.172193,-0.162042 0.897055,-0.255372 1.992078,-0.255372 H 56.5 l -1.048626,0.824578 -1.047591,0.823555 0.008,8.203751 c 0.01445,13.60762 0.01755,13.408655 -0.221685,13.353272 -0.121672,-0.02771 -0.375319,0.174351 -0.564012,0.451263 -0.187658,0.27486 -0.22684,0.43075 -0.0856,0.344601 0.177347,-0.108714 0.255711,-0.004 0.255711,0.340497 0,0.625613 -0.417594,0.999958 -0.826941,0.742533 m -0.197887,-3.663441 c 0,-0.112817 -0.04126,-0.204095 -0.09076,-0.204095 -0.0495,0 -0.147446,0.09231 -0.216529,0.205121 -0.07013,0.110763 -0.02989,0.203067 0.08968,0.203067 0.119606,0 0.21653,-0.09231 0.21653,-0.204093 m 0.404189,-4.768001 c 0.01031,-0.306653 -0.490801,0.218452 -0.882617,0.927139 l -0.375318,0.678945 0.625874,-0.713816 c 0.344386,-0.392802 0.628969,-0.794837 0.632061,-0.892268 m 0.723831,0.07588 c 0.06905,-0.112817 0.02887,-0.204095 -0.09076,-0.204095 -0.119606,0 -0.216532,0.0923 -0.216532,0.20512 0,0.110764 0.04019,0.203068 0.08969,0.203068 0.0495,0 0.147447,-0.09231 0.216531,-0.204093 m -0.765001,-5.061329 c 0.04435,-0.133325 -0.06498,-0.243064 -0.243339,-0.243064 a 0.32582654,0.32408864 0 0 0 -0.324796,0.323061 c 0,0.361009 0.441309,0.297422 0.568135,-0.08001 m -1.453789,-1.708649 c -0.06498,-0.164095 -0.113421,-0.114866 -0.123733,0.123072 -0.009,0.215376 0.03919,0.335369 0.107235,0.266656 0.06905,-0.06669 0.07629,-0.243067 0.01647,-0.389728 m 0.475332,-5.266441 a 0.20621933,0.20511939 0 0 0 -0.205187,-0.204094 0.20621933,0.20511939 0 0 0 -0.205189,0.20512 0.20621933,0.20511939 0 0 0 0.20622,0.203068 0.20621933,0.20511939 0 0 0 0.204156,-0.204094 m 1.640477,-1.223537 a 0.20621933,0.20511939 0 0 0 -0.205188,-0.205118 0.20621933,0.20511939 0 0 0 -0.205187,0.205118 0.20621933,0.20511939 0 0 0 0.206219,0.204094 0.20621933,0.20511939 0 0 0 0.204156,-0.205118 m -9.49021,-1.347636 c -0.06804,-0.06769 -0.244372,-0.07488 -0.391817,-0.01639 -0.164975,0.06562 -0.115484,0.112817 0.123733,0.123074 0.215499,0.01026 0.336136,-0.03897 0.268084,-0.106665 m 9.798514,-0.08101 c 0.06905,-0.112817 0.02887,-0.204095 -0.09076,-0.204095 -0.119606,0 -0.21653,0.09229 -0.21653,0.20512 0,0.11179 0.04019,0.203068 0.08968,0.203068 0.0495,0 0.147449,-0.09229 0.216532,-0.204093 m -7.58879,-0.611258 c -0.07013,-0.112816 -0.213435,-0.20512 -0.319638,-0.20512 -0.106204,0 -0.192814,0.0923 -0.192814,0.20512 0,0.111791 0.144351,0.203067 0.319638,0.203067 0.175287,0 0.261899,-0.0923 0.192814,-0.203067 m 4.823472,-0.303576 c 0.111358,0.06769 0.203125,0.003 0.204156,-0.143585 0.003,-0.2164 0.0361,-0.215376 0.17735,0.005 0.133011,0.208197 0.197971,0.177429 0.279428,-0.133327 0.101064,-0.383573 0.07113,-0.389727 -0.580509,-0.118969 -0.834155,0.347677 -0.972324,0.355882 -0.782601,0.05023 0.09076,-0.145634 0.05673,-0.180504 -0.09076,-0.09027 a 0.57741412,0.5743343 0 0 0 -0.237155,0.44716 c 0,0.238963 0.0866,0.255374 0.415532,0.08001 0.226843,-0.121021 0.505238,-0.164095 0.614535,-0.0964 m 1.838445,-0.2123 c -0.143325,-0.170249 -0.313455,-0.257425 -0.378411,-0.192811 -0.06498,0.06562 0.01647,0.204093 0.182502,0.307678 0.434093,0.273835 0.490803,0.23999 0.195909,-0.114867 m 1.43941,0.107688 a 0.20621933,0.20511939 0 0 0 -0.205187,-0.205119 0.20621933,0.20511939 0 0 0 -0.205189,0.205119 0.20621933,0.20511939 0 0 0 0.205189,0.204094 0.20621933,0.20511939 0 0 0 0.205187,-0.205119 m 0.820754,-0.612282 c 0,-0.112814 -0.04126,-0.204092 -0.09076,-0.204092 -0.0495,0 -0.147447,0.0923 -0.216531,0.204092 -0.07013,0.112816 -0.02988,0.204094 0.08968,0.204094 0.119606,0 0.216532,-0.09231 0.216532,-0.204094 m -1.363021,24.583594 c 0.169101,-0.169223 0.371195,-0.307682 0.450591,-0.307682 0.07836,0 0.02679,0.138459 -0.11342,0.307682 -0.140228,0.16717 -0.343355,0.304601 -0.44956,0.304601 -0.107233,0 -0.05673,-0.137431 0.113421,-0.305627 m -31.296773,-5.5997 -3.540783,-2.574249 v -7.846844 c 0,-6.405879 0.0505,-7.838635 0.272208,-7.792485 0.149509,0.03078 0.216529,-0.03078 0.151573,-0.137429 -0.06705,-0.106664 0.148477,-0.384601 0.477396,-0.61741 0.544418,-0.385623 0.886743,-0.423571 3.819182,-0.423571 2.66126,0 3.201555,0.04923 3.110818,0.283065 -0.07836,0.203068 0.01032,0.251271 0.317579,0.172298 0.304173,-0.07894 0.381506,-0.03897 0.271178,0.139484 -0.117545,0.188709 -0.05157,0.185632 0.268085,-0.01126 0.303143,-0.188707 0.352635,-0.307677 0.175286,-0.420493 q -0.254663,-0.157939 0.124783,-0.159991 c 0.206219,-9.98e-4 0.512453,0.134353 0.680523,0.303573 0.185598,0.182559 0.215498,0.305632 0.07629,0.305632 -0.126824,0 -0.171162,0.09741 -0.09692,0.215373 0.0856,0.138456 0.226842,0.0923 0.387692,-0.128199 0.237152,-0.324087 0.288706,-0.323062 0.801164,0.01026 0.664026,0.433827 0.790851,1.645058 0.187658,1.801972 -0.342323,0.0892 -0.342323,0.09434 0,0.11692 0.334076,0.02152 0.358822,0.478954 0.358822,6.538181 0,6.022306 -0.02679,6.522796 -0.358822,6.63356 -0.197971,0.06562 -0.589788,0.306655 -0.871275,0.535361 -0.508333,0.412292 -0.505239,0.412292 0.35882,-0.008 l 0.871277,-0.423572 -0.007,1.687107 -0.006,1.687107 -1.678625,1.224563 c -0.923865,0.672795 -1.751833,1.200975 -1.839475,1.173285 -0.08867,-0.02871 -0.160854,0.02565 -0.160854,0.118968 0,0.476902 -0.919738,-0.05536 -4.150165,-2.402973 m 5.382326,1.314815 c 0.276335,-0.332294 0.210343,-0.373319 -0.2918,-0.182557 -0.17838,0.06869 -0.324796,0.205122 -0.324796,0.306653 0,0.28204 0.333045,0.215379 0.615566,-0.124096 m -2.462259,-0.102559 c 0,-0.111791 -0.09794,-0.203069 -0.216531,-0.203069 -0.119607,0 -0.160849,0.09127 -0.09076,0.203069 0.06906,0.112814 0.167038,0.205118 0.216531,0.205118 0.0505,0 0.09076,-0.09231 0.09076,-0.205118 m 0.820751,-0.0892 c 0,-0.05023 -0.09279,-0.14666 -0.206218,-0.2164 -0.112389,-0.06975 -0.204157,-0.02871 -0.204157,0.09027 0,0.11897 0.09279,0.215379 0.205188,0.215379 0.112388,0 0.205187,-0.04104 0.205187,-0.0892 M 24.7715,36.76973 c 0.07013,-0.112817 -0.0227,-0.204095 -0.205187,-0.204095 -0.182503,0 -0.274271,0.09231 -0.205188,0.20512 0.07013,0.111791 0.161883,0.203068 0.20622,0.203068 0.04126,0 0.134044,-0.09229 0.204155,-0.204093 m 1.697188,-6.275627 c 0.03302,-2.249138 0.134043,-3.720867 0.25571,-3.720867 0.110327,0 0.201064,-0.0964 0.201064,-0.215375 0,-0.11897 -0.08968,-0.162045 -0.19797,-0.09434 -0.120639,0.07381 -0.220654,-0.661511 -0.256742,-1.875815 l -0.05877,-1.995812 -1.299182,-0.06156 c -0.78157,-0.03691 -1.415696,0.03384 -1.589951,0.178453 -0.234059,0.192813 -0.288707,1.134312 -0.288707,4.907481 0,5.255159 -0.17838,4.636727 1.742554,6.071535 1.410538,1.052261 1.428068,1.013289 1.491997,-3.193707 m -5.906227,-3.011261 c -0.14229,-0.171276 -0.312421,-0.258451 -0.377379,-0.192811 -0.06598,0.06462 0.01647,0.203069 0.182503,0.307677 0.434089,0.272809 0.490801,0.239991 0.195907,-0.114866 m 0.209268,-4.675737 c 0,-0.04923 -0.09278,-0.146663 -0.205189,-0.215379 -0.11342,-0.06975 -0.205187,-0.02871 -0.205187,0.0892 0,0.118972 0.09279,0.216404 0.206217,0.216404 0.112392,0 0.204159,-0.04104 0.204159,-0.09027 m -0.410397,-1.541469 c 0,-0.112816 -0.09692,-0.205119 -0.216531,-0.205119 -0.119606,0 -0.160851,0.09228 -0.09076,0.205119 0.07013,0.112817 0.167038,0.204095 0.216531,0.204095 0.0505,0 0.09076,-0.0923 0.09076,-0.205121 m 5.743207,-0.816374 a 0.21137481,0.21024738 0 0 0 -0.216639,-0.204169 c -0.120639,0 -0.160852,0.0923 -0.09076,0.205121 0.06906,0.110764 0.167037,0.203067 0.216532,0.203067 0.0495,0 0.09076,-0.0923 0.09076,-0.204093 m -2.768533,-2.039922 c 0.06905,-0.112817 0.02887,-0.204093 -0.09076,-0.204093 -0.119608,0 -0.216531,0.0923 -0.216531,0.204093 0,0.111791 0.04019,0.204095 0.08969,0.204095 0.0495,0 0.147447,-0.09231 0.21653,-0.204095 m 9.5892,20.128366 -1.690999,-1.258409 -9.99e-4,-9.101146 -10e-4,-9.102174 0.815598,-0.537411 C 32.862229,18.001026 32.869445,18 37.079412,18 c 4.180068,0 4.217187,0.004 4.400723,0.459467 0.103107,0.252298 0.191782,0.332294 0.198999,0.178454 0.01032,-0.224605 0.0722,-0.229733 0.318611,-0.02772 0.167037,0.138454 0.252617,0.335369 0.189723,0.437928 -0.06391,0.102561 0.005,0.16102 0.152599,0.130251 0.216533,-0.0451 0.280459,1.430709 0.329953,7.65916 l 0.05982,7.715565 -0.589789,0.548695 c -0.324794,0.301525 -0.996037,0.821503 -1.493026,1.156873 -0.496988,0.335369 -1.766269,1.247126 -2.821081,2.027604 -1.733273,1.281997 -1.93846,1.383532 -2.126121,1.048161 -0.155696,-0.276912 -0.249524,-0.305626 -0.36707,-0.115893 -0.234059,0.375369 -0.503175,0.129226 -1.453846,-1.334302 -0.917677,-1.412246 -1.354862,-1.826589 -0.582571,-0.553822 0.800133,1.319944 1.460033,2.499381 1.388888,2.481945 -0.03818,-0.01026 -0.830034,-0.583564 -1.760082,-1.275844 m 4.407939,-5.247978 1.282683,-1.018418 V 27.60777 c 0,-3.767018 -0.05566,-4.707492 -0.289736,-4.900301 -0.175288,-0.143586 -0.80838,-0.215379 -1.589954,-0.178458 l -1.299181,0.06156 -0.05566,5.606939 c -0.02987,3.083971 -0.01031,5.72283 0.04535,5.865388 0.171163,0.444083 0.584631,0.276912 1.907529,-0.774325 m 4.130573,-3.878807 c -0.32995,-0.202043 -0.479459,-0.09434 -0.29077,0.208195 a 0.25777418,0.25639926 0 0 0 0.350573,0.09027 c 0.137136,-0.08514 0.116513,-0.189734 -0.05982,-0.297422 m -6.12987,-9.481645 c 0,-0.241015 -0.387694,-0.23999 -0.480493,0 q -0.113419,0.295371 0.183535,0.181531 c 0.162914,-0.06156 0.296958,-0.143583 0.296958,-0.181531 m 1.435286,0.112817 c 0,-0.112817 -0.04019,-0.205121 -0.08968,-0.205121 -0.0505,0 -0.147448,0.09231 -0.216531,0.205121 -0.07113,0.111789 -0.03094,0.203067 0.08968,0.203067 0.120637,0 0.21653,-0.09229 0.21653,-0.204093 M 33.236506,18.98151 a 0.48461544,0.48203059 0 0 0 -0.32995,-0.290244 c -0.136103,-0.02665 -0.152602,-0.002 -0.0371,0.05536 0.116514,0.05743 0.159823,0.188709 0.09592,0.291269 -0.06391,0.102558 -0.01031,0.186658 0.118576,0.186658 0.128887,0 0.19797,-0.109737 0.152601,-0.243065 m 1.006351,-0.103585 c -0.209313,-0.05436 -0.326856,-0.218455 -0.268086,-0.372292 0.06705,-0.171275 -0.03094,-0.263579 -0.261898,-0.246144 -0.594942,0.0441 -0.276333,0.670741 0.352635,0.694329 0.31964,0.01233 0.393879,-0.02052 0.177349,-0.07588 m 5.691654,-0.243068 c 0.199002,-0.317934 -0.742389,-0.420497 -1.051718,-0.112813 -0.257775,0.256398 -0.216531,0.294345 0.3217,0.294345 0.340264,0 0.669182,-0.08207 0.731049,-0.181532 m 1.165138,-0.287157 c -0.26396,-0.261529 -0.531014,-0.05949 -0.336135,0.254347 0.07529,0.121022 0.230963,0.163072 0.346448,0.09229 q 0.209312,-0.128201 -0.01031,-0.346651"
     style="fill:#f3f3f3;fill-opacity:1;stroke-width:0.204555"
     id="path3" />
</svg>
