<?xml version="1.0" encoding="UTF-8" standalone="no"?>
<svg
   width="62"
   height="62"
   version="1"
   id="svg4"
   sodipodi:docname="doomseeker.svg"
   inkscape:version="1.4.2 (unknown)"
   xmlns:inkscape="http://www.inkscape.org/namespaces/inkscape"
   xmlns:sodipodi="http://sodipodi.sourceforge.net/DTD/sodipodi-0.dtd"
   xmlns="http://www.w3.org/2000/svg"
   xmlns:svg="http://www.w3.org/2000/svg">
  <defs
     id="defs4" />
  <sodipodi:namedview
     id="namedview4"
     pagecolor="#ffffff"
     bordercolor="#000000"
     borderopacity="0.25"
     inkscape:showpageshadow="2"
     inkscape:pageopacity="0.0"
     inkscape:pagecheckerboard="0"
     inkscape:deskcolor="#d1d1d1"
     inkscape:zoom="11.8125"
     inkscape:cx="32.042328"
     inkscape:cy="32"
     inkscape:current-layer="svg4" />
  <g
     id="g4"
     transform="translate(-1,-2.0000008)">
    <path
       style="fill:#535d6c;stroke-width:1"
       d="M 4,9.9999997 H 32.35 L 47.4,21.771528 V 50.761112 H 4 Z"
       id="path1" />
    <path
       style="opacity:0.2;stroke-width:1"
       d="m 4,11.022223 v 14.311111 h 14 5.6 14 c 4.805016,0 8.4,3.353691 8.4,8.177778 0,4.824085 -3.595374,8.115132 -8.4,8.177778 H 18 V 29.422223 H 4 v 26.577779 h 33.6 c 12.371178,0 22.4,-10.068621 22.4,-22.48889 C 60,21.090842 49.971178,11.022223 37.6,11.022223 Z"
       id="path2" />
    <path
       style="fill:#8d5fd3;stroke-width:1"
       d="M 4,9.9999997 V 24.311112 h 14 5.6 14 c 4.805016,0 8.4,3.353691 8.4,8.177778 0,4.824084 -3.595374,8.115134 -8.4,8.177778 H 18 V 28.4 H 4 V 54.977779 H 37.6 C 49.971178,54.977779 60,44.90916 60,32.48889 60,20.068618 49.971178,9.9999997 37.6,9.9999997 Z"
       id="path3" />
    <path
       style="opacity:0.1;fill:#ffffff;stroke-width:1"
       d="m 4,9.9999997 v 1.0222233 h 33.599609 c 12.200535,0 22.11531,9.794258 22.386719,21.977778 C 59.990124,32.829595 60,32.66021 60,32.48889 60,20.068618 49.970787,9.9999997 37.599609,9.9999997 Z M 4,28.4 v 1.022223 H 18 V 28.4 Z m 41.976562,4.600001 c -0.246796,4.541618 -3.745463,7.606279 -8.376953,7.666667 H 18 V 41.68889 H 37.599609 C 42.404235,41.626244 46,38.335197 46,33.511112 46,33.337274 45.98579,33.169931 45.97656,33.000001 Z"
       id="path4" />
  </g>
</svg>
