<?xml version="1.0" encoding="UTF-8" standalone="no"?>
<svg
   width="62"
   height="62"
   version="1.1"
   id="svg5"
   sodipodi:docname="freegish.svg"
   inkscape:version="1.4.2 (unknown)"
   xmlns:inkscape="http://www.inkscape.org/namespaces/inkscape"
   xmlns:sodipodi="http://sodipodi.sourceforge.net/DTD/sodipodi-0.dtd"
   xmlns="http://www.w3.org/2000/svg"
   xmlns:svg="http://www.w3.org/2000/svg">
  <defs
     id="defs5">
    <filter
       inkscape:collect="always"
       style="color-interpolation-filters:sRGB"
       id="filter4665"
       x="-0.12526917"
       width="1.2505383"
       y="-0.72438259"
       height="2.4487652">
      <feGaussianBlur
         inkscape:collect="always"
         stdDeviation="0.80627175"
         id="feGaussianBlur4667" />
    </filter>
    <filter
       inkscape:collect="always"
       style="color-interpolation-filters:sRGB"
       id="filter4166"
       x="-0.099942449"
       width="1.1998849"
       y="-0.10325729"
       height="1.2065146">
      <feGaussianBlur
         inkscape:collect="always"
         stdDeviation="0.49122509"
         id="feGaussianBlur4168" />
    </filter>
  </defs>
  <sodipodi:namedview
     id="namedview5"
     pagecolor="#ffffff"
     bordercolor="#000000"
     borderopacity="0.25"
     inkscape:showpageshadow="2"
     inkscape:pageopacity="0.0"
     inkscape:pagecheckerboard="0"
     inkscape:deskcolor="#d1d1d1"
     inkscape:zoom="5.84375"
     inkscape:cx="32.427807"
     inkscape:cy="51.593583"
     inkscape:window-width="1920"
     inkscape:window-height="994"
     inkscape:window-x="0"
     inkscape:window-y="0"
     inkscape:window-maximized="1"
     inkscape:current-layer="svg5" />
  <g
     id="g1"
     transform="matrix(1.2610373,0,0,1.2586671,0.46754503,-0.53096723)"
     style="stroke-width:0.793749">
    <ellipse
       style="opacity:0.673;fill:#000000;fill-opacity:1;stroke:none;stroke-width:0.979483;stroke-linecap:round;stroke-miterlimit:4;stroke-dasharray:none;stroke-opacity:1;filter:url(#filter4665)"
       id="path4295"
       cx="12.601626"
       cy="43.063881"
       rx="7.723577"
       ry="1.3356562"
       transform="matrix(2.5446263,0,0,1.3620458,-7.8542556,-19.67747)" />
    <path
       style="opacity:1;fill:#000000;fill-opacity:1;stroke:#989595;stroke-width:1.00109;stroke-linecap:round;stroke-opacity:1"
       d="m 37.409766,16.149464 c 3.189855,3.805925 8.766244,7.719445 8.559323,12.931122 -0.190445,4.796586 -4.233625,9.590584 -8.662794,9.598655 -7.660063,0.01394 -15.914719,0.622949 -23.722546,0.119422 C 4.1076521,38.187549 2.0964177,34.350754 2.1289486,28.542509 c 0.02974,-5.307965 4.0395716,-8.404957 8.5307674,-12.150782 4.296485,-3.583424 6.367186,-6.9412962 10.23531,-8.5188627 3.031129,-1.2362004 6.713488,-0.7354007 9.656092,0.7444054 2.922198,1.4695443 4.667367,4.9177013 6.858648,7.5321943 z"
       id="path4238"
       inkscape:connector-curvature="0" />
    <path
       style="fill:#ff003b;fill-opacity:1;fill-rule:evenodd;stroke:#ff0000;stroke-width:3.44478;stroke-linecap:round;stroke-linejoin:miter;stroke-miterlimit:4;stroke-dasharray:none;stroke-opacity:1"
       d="M 14.841713,25.474572 20.647137,25.8517"
       id="path4562"
       inkscape:connector-curvature="0"
       sodipodi:nodetypes="cc" />
    <path
       style="fill:#ff0000;fill-opacity:1;fill-rule:evenodd;stroke:#ff0000;stroke-width:3.17276;stroke-linecap:round;stroke-linejoin:miter;stroke-miterlimit:4;stroke-dasharray:none;stroke-opacity:1"
       d="m 28.75011,27.328085 4.852665,0.60093"
       id="path4145"
       inkscape:connector-curvature="0" />
    <path
       style="opacity:0.275;fill:#ffffff;fill-opacity:1;stroke:none;stroke-width:2.9369;stroke-linecap:round;stroke-miterlimit:4;stroke-dasharray:none;stroke-opacity:1;filter:url(#filter4166)"
       d="m 34.57335,20.112336 c -0.429201,0.449701 -1.125274,0.682893 -1.746277,0.654613 -0.710971,-0.03238 -1.401159,-0.437882 -1.922876,-0.92806 -1.123059,-1.055168 -1.185892,-2.974278 -2.293625,-4.046207 -1.163454,-1.125849 -3.09243,-1.13447 -4.285092,-2.227985 -0.421102,-0.386095 -0.817959,-0.887989 -0.928279,-1.451654 -0.125626,-0.641867 -0.05317,-1.419245 0.355873,-1.929592 0.442511,-0.5520968 1.246397,-0.8066414 1.953554,-0.8302222 0.744808,-0.024836 1.527749,0.264763 2.111248,0.7354122 1.227435,0.990047 1.40811,2.912261 2.502334,4.053621 1.107132,1.154824 2.889668,1.483097 3.961757,2.6719 0.397688,0.440982 0.792697,0.982901 0.8465,1.577113 0.05436,0.600334 -0.138935,1.285001 -0.555117,1.721061 z"
       id="path4155"
       inkscape:connector-curvature="0"
       sodipodi:nodetypes="aaaaaaaaaaaaa"
       transform="matrix(1.0390354,0,0,1.0174845,-0.43992301,1.3742587)" />
  </g>
</svg>
