<?xml version="1.0" encoding="UTF-8" standalone="no"?>
<svg
   width="62"
   height="62"
   viewBox="0 0 16.404165 16.404165"
   version="1.1"
   id="svg1114"
   inkscape:version="1.4 (e7c3feb100, 2024-10-09)"
   sodipodi:docname="podcast-amarok.svg"
   xmlns:inkscape="http://www.inkscape.org/namespaces/inkscape"
   xmlns:sodipodi="http://sodipodi.sourceforge.net/DTD/sodipodi-0.dtd"
   xmlns:xlink="http://www.w3.org/1999/xlink"
   xmlns="http://www.w3.org/2000/svg"
   xmlns:svg="http://www.w3.org/2000/svg"
   xmlns:rdf="http://www.w3.org/1999/02/22-rdf-syntax-ns#"
   xmlns:cc="http://creativecommons.org/ns#"
   xmlns:dc="http://purl.org/dc/elements/1.1/">
  <style
     type="text/css"
     id="current-color-scheme">.ColorScheme-Highlight { color:#5599ff; }
</style>
  <defs
     id="defs1108">
    <linearGradient
       id="linearGradient9"
       inkscape:collect="always">
      <stop
         style="stop-color:#566c80;stop-opacity:1;"
         offset="0"
         id="stop9" />
      <stop
         style="stop-color:#29333d;stop-opacity:1;"
         offset="1"
         id="stop10" />
    </linearGradient>
    <linearGradient
       id="linearGradient1167"
       x1="40.751999"
       x2="40.751999"
       y1="28.507999"
       y2="17.205999"
       gradientUnits="userSpaceOnUse">
      <stop
         style="stop-color:#84fb6e;stop-opacity:1"
         stop-color="#0ab816"
         offset="0"
         id="stop1163" />
      <stop
         style="stop-color:#0dd41a;stop-opacity:1"
         stop-color="#0cf36c"
         offset="1"
         id="stop1165" />
    </linearGradient>
    <linearGradient
       id="paint2_linear_77:3-7"
       x1="79.398094"
       y1="-197.84389"
       x2="82.901054"
       y2="-199.97827"
       gradientUnits="userSpaceOnUse"
       gradientTransform="matrix(1.9248511,0,0,1.7314595,-40.88733,399.61741)">
      <stop
         stop-color="#EBFAFF"
         stop-opacity="0.1"
         id="stop29-5-7"
         offset="0"
         style="stop-color:#c3c3c3;stop-opacity:1;" />
      <stop
         offset="1"
         stop-color="#70A9FF"
         stop-opacity="0.5"
         id="stop30-0-1"
         style="stop-color:#05c7ff;stop-opacity:0.80000001;" />
    </linearGradient>
    <linearGradient
       id="paint451_linear_890_11"
       x1="55"
       y1="461"
       x2="111"
       y2="517"
       gradientUnits="userSpaceOnUse"
       gradientTransform="matrix(0.09449404,0,0,0.09449404,-4.9325889,-43.297169)">
      <stop
         offset="0.303571"
         stop-color="#EFF2F6"
         id="stop1644"
         style="stop-color:#5599ff;stop-opacity:1" />
      <stop
         offset="1"
         stop-color="#B7C6CD"
         id="stop1645"
         style="stop-color:#b380ff;stop-opacity:1" />
    </linearGradient>
    <linearGradient
       id="paint452_linear_890_11"
       x1="107"
       y1="513"
       x2="67.655701"
       y2="465.78699"
       gradientUnits="userSpaceOnUse"
       gradientTransform="matrix(0.09449404,0,0,0.09449404,-4.9325889,-43.297169)">
      <stop
         stop-color="#2E2E41"
         id="stop1646" />
      <stop
         offset="1"
         stop-color="#566C80"
         id="stop1647" />
    </linearGradient>
    <linearGradient
       id="paint453_linear_890_11"
       x1="61"
       y1="465"
       x2="65"
       y2="469"
       gradientUnits="userSpaceOnUse"
       gradientTransform="matrix(0.1322916,0,0,0.1322916,-5.0081808,-60.949989)">
      <stop
         offset="0.236371"
         stop-color="#F15700"
         id="stop1648" />
      <stop
         offset="0.855848"
         stop-color="#FF0000"
         id="stop1649" />
    </linearGradient>
    <linearGradient
       id="paint454_linear_890_11"
       x1="71"
       y1="469"
       x2="67"
       y2="465"
       gradientUnits="userSpaceOnUse"
       gradientTransform="matrix(0.1322916,0,0,0.1322916,-5.0081808,-60.949989)">
      <stop
         stop-color="#FF7E07"
         id="stop1650" />
      <stop
         offset="1"
         stop-color="#FFE607"
         id="stop1651" />
    </linearGradient>
    <linearGradient
       id="paint455_linear_890_11"
       x1="77"
       y1="469"
       x2="73"
       y2="465"
       gradientUnits="userSpaceOnUse"
       gradientTransform="matrix(0.1322916,0,0,0.1322916,-5.0081808,-60.949989)">
      <stop
         stop-color="#089953"
         id="stop1652" />
      <stop
         offset="1"
         stop-color="#16D96F"
         id="stop1653" />
    </linearGradient>
    <linearGradient
       id="paint456_linear_890_11"
       x1="80"
       y1="486"
       x2="80"
       y2="492"
       gradientUnits="userSpaceOnUse"
       gradientTransform="matrix(0.09449404,0,0,0.09449404,-4.9325889,-43.297169)">
      <stop
         offset="0.189495"
         stop-color="#EFF2F6"
         id="stop1654" />
      <stop
         offset="0.850463"
         stop-color="#B7C6CD"
         id="stop1655" />
    </linearGradient>
    <linearGradient
       id="paint457_linear_890_11"
       x1="82"
       y1="494"
       x2="82"
       y2="500"
       gradientUnits="userSpaceOnUse">
      <stop
         offset="0.189495"
         stop-color="#EFF2F6"
         id="stop1656" />
      <stop
         offset="0.850463"
         stop-color="#B7C6CD"
         id="stop1657" />
    </linearGradient>
    <linearGradient
       id="paint340_linear_890_11"
       x1="394.5"
       y1="573"
       x2="367"
       y2="590"
       gradientUnits="userSpaceOnUse">
      <stop
         offset="0.392033"
         stop-color="#2E2E41"
         id="stop1422" />
      <stop
         offset="1"
         stop-color="#566C80"
         id="stop1423" />
    </linearGradient>
    <linearGradient
       id="paint341_linear_890_11"
       x1="379"
       y1="565"
       x2="401"
       y2="587"
       gradientUnits="userSpaceOnUse">
      <stop
         stop-color="#EFF2F6"
         id="stop1424" />
      <stop
         offset="1"
         stop-color="#B7C6CD"
         id="stop1425" />
    </linearGradient>
    <linearGradient
       id="paint345_linear_890_11"
       x1="364"
       y1="580"
       x2="386"
       y2="602"
       gradientUnits="userSpaceOnUse">
      <stop
         stop-color="#EFF2F6"
         id="stop1432" />
      <stop
         offset="1"
         stop-color="#B7C6CD"
         id="stop1433" />
    </linearGradient>
    <linearGradient
       id="paint349_linear_890_11"
       x1="387"
       y1="600.11798"
       x2="379"
       y2="600.11798"
       gradientUnits="userSpaceOnUse">
      <stop
         offset="0.240023"
         stop-color="#2E2E41"
         id="stop1440" />
      <stop
         offset="1"
         stop-color="#566C80"
         id="stop1441"
         style="stop-color:#566c80;stop-opacity:1;" />
    </linearGradient>
    <linearGradient
       id="paint350_linear_890_11"
       x1="381"
       y1="583"
       x2="385"
       y2="587"
       gradientUnits="userSpaceOnUse">
      <stop
         stop-color="#EFF2F6"
         id="stop1442" />
      <stop
         offset="1"
         stop-color="#B7C6CD"
         id="stop1443" />
    </linearGradient>
    <linearGradient
       inkscape:collect="always"
       xlink:href="#paint345_linear_890_11"
       id="linearGradient8"
       gradientUnits="userSpaceOnUse"
       x1="364"
       y1="580"
       x2="386"
       y2="602" />
    <linearGradient
       inkscape:collect="always"
       xlink:href="#linearGradient9"
       id="linearGradient10"
       x1="370.42343"
       y1="593.63043"
       x2="392.26822"
       y2="571.06122"
       gradientUnits="userSpaceOnUse" />
    <linearGradient
       inkscape:collect="always"
       xlink:href="#linearGradient9"
       id="linearGradient12"
       x1="379"
       y1="599"
       x2="387"
       y2="599"
       gradientUnits="userSpaceOnUse" />
  </defs>
  <sodipodi:namedview
     id="base"
     pagecolor="#e2e2e2"
     bordercolor="#666666"
     borderopacity="1.0"
     inkscape:pageopacity="0"
     inkscape:pageshadow="2"
     inkscape:zoom="6.8765235"
     inkscape:cx="26.97584"
     inkscape:cy="23.412993"
     inkscape:document-units="px"
     inkscape:current-layer="layer1"
     inkscape:document-rotation="0"
     showgrid="false"
     units="px"
     inkscape:window-width="1920"
     inkscape:window-height="994"
     inkscape:window-x="0"
     inkscape:window-y="0"
     inkscape:window-maximized="1"
     inkscape:object-paths="true"
     inkscape:snap-grids="true"
     inkscape:snap-intersection-paths="true"
     inkscape:snap-smooth-nodes="true"
     inkscape:snap-midpoints="true"
     inkscape:showpageshadow="2"
     inkscape:pagecheckerboard="0"
     inkscape:deskcolor="#d1d1d1">
    <inkscape:grid
       id="grid2"
       units="px"
       originx="0"
       originy="0"
       spacingx="0.26458333"
       spacingy="0.26458333"
       empcolor="#0099e5"
       empopacity="0.30196078"
       color="#0099e5"
       opacity="0.14902"
       empspacing="5"
       dotted="false"
       gridanglex="30"
       gridanglez="30"
       visible="false" />
  </sodipodi:namedview>
  <metadata
     id="metadata1111">
    <rdf:RDF>
      <cc:Work
         rdf:about="">
        <dc:format>image/svg+xml</dc:format>
        <dc:type
           rdf:resource="http://purl.org/dc/dcmitype/StillImage" />
      </cc:Work>
    </rdf:RDF>
  </metadata>
  <g
     inkscape:label="Layer 1"
     inkscape:groupmode="layer"
     id="layer1">
    <g
       id="g2275"
       transform="matrix(0.26458449,0,0,0.26458449,-93.133777,-147.63822)">
      <g
         id="g2274">
        <path
           d="m 385.082,563.875 c -3.833,-3.833 -10.047,-3.833 -13.88,0 l -8.327,8.327 c -3.833,3.833 -3.833,10.047 0,13.88 l 18.043,18.043 c 3.833,3.833 10.047,3.833 13.88,0 l 8.327,-8.327 c 3.833,-3.833 3.833,-10.047 0,-13.88 z"
           id="path331"
           style="fill:url(#linearGradient10)" />
        <path
           d="m 379.576,566.966 c -0.768,0.767 -0.768,2.012 0,2.779 0.767,0.768 2.012,0.768 2.78,0 l 1.389,-1.389 c 0.768,-0.768 0.768,-2.013 0,-2.78 -0.767,-0.768 -2.012,-0.768 -2.779,0 z"
           id="path332"
           style="fill:#f2f2f2;fill-opacity:1" />
        <path
           d="m 385.135,572.525 c -0.767,0.768 -0.767,2.012 0,2.78 0.768,0.768 2.013,0.768 2.78,0 l 1.39,-1.39 c 0.768,-0.767 0.768,-2.012 0,-2.78 -0.768,-0.767 -2.012,-0.767 -2.78,0 z"
           id="path333"
           style="fill:#f2f2f2;fill-opacity:1" />
        <path
           d="m 390.695,580.865 c -0.768,-0.768 -0.768,-2.013 0,-2.78 l 1.39,-1.39 c 0.767,-0.768 2.012,-0.768 2.78,0 0.767,0.768 0.767,2.012 0,2.78 l -1.39,1.39 c -0.768,0.767 -2.012,0.767 -2.78,0 z"
           id="path334"
           style="fill:#f2f2f2;fill-opacity:1" />
        <path
           d="m 396.255,583.644 c -0.768,0.768 -0.768,2.013 0,2.78 0.767,0.768 2.012,0.768 2.779,0 l 1.39,-1.39 c 0.768,-0.767 0.768,-2.012 0,-2.779 -0.767,-0.768 -2.012,-0.768 -2.78,0 z"
           id="path335"
           style="fill:#f2f2f2;fill-opacity:1" />
        <path
           d="m 365.966,580.576 c 0.767,-0.768 2.012,-0.768 2.779,0 0.768,0.767 0.768,2.012 0,2.78 l -1.389,1.389 c -0.768,0.768 -2.013,0.768 -2.78,0 -0.768,-0.767 -0.768,-2.012 0,-2.779 z"
           id="path336"
           style="fill:#f2f2f2;fill-opacity:1" />
        <path
           d="m 371.525,586.135 c 0.768,-0.767 2.012,-0.767 2.78,0 0.768,0.768 0.768,2.013 0,2.78 l -1.39,1.39 c -0.767,0.768 -2.012,0.768 -2.78,0 -0.767,-0.768 -0.767,-2.012 0,-2.78 z"
           id="path337"
           style="fill:#f2f2f2;fill-opacity:1" />
        <path
           d="m 379.865,591.695 c -0.768,-0.768 -2.013,-0.768 -2.78,0 l -1.39,1.39 c -0.768,0.767 -0.768,2.012 0,2.78 0.768,0.767 2.012,0.767 2.78,0 l 1.39,-1.39 c 0.767,-0.768 0.767,-2.012 0,-2.78 z"
           id="path338"
           style="fill:#f2f2f2;fill-opacity:1" />
        <path
           d="m 382.644,597.255 c 0.768,-0.768 2.013,-0.768 2.78,0 0.768,0.767 0.768,2.012 0,2.779 l -1.39,1.39 c -0.767,0.768 -2.012,0.768 -2.779,0 -0.768,-0.767 -0.768,-2.012 0,-2.78 z"
           fill="url(#paint348_linear_890_11)"
           id="path339"
           style="fill:url(#linearGradient8)" />
        <path
           d="m 379,585 c 0,-2.209 1.791,-4 4,-4 2.209,0 4,1.791 4,4 v 30 c 0,1.105 -0.895,2 -2,2 h -4 c -1.105,0 -2,-0.895 -2,-2 z"
           id="path340"
           style="fill:url(#linearGradient12)" />
        <circle
           cx="383"
           cy="585"
           r="2"
           id="circle340"
           style="fill:#f2f2f2;fill-opacity:1" />
      </g>
    </g>
  </g>
</svg>
