<?xml version="1.0" encoding="UTF-8" standalone="no"?>
<svg
   clip-rule="evenodd"
   fill-rule="evenodd"
   stroke-linejoin="round"
   stroke-miterlimit="2"
   viewBox="0 0 62 62"
   version="1.1"
   id="svg3"
   sodipodi:docname="gnupg.svg"
   width="62"
   height="62"
   inkscape:version="1.4 (e7c3feb100, 2024-10-09)"
   xmlns:inkscape="http://www.inkscape.org/namespaces/inkscape"
   xmlns:sodipodi="http://sodipodi.sourceforge.net/DTD/sodipodi-0.dtd"
   xmlns:xlink="http://www.w3.org/1999/xlink"
   xmlns="http://www.w3.org/2000/svg"
   xmlns:svg="http://www.w3.org/2000/svg">
  <defs
     id="defs3">
    <linearGradient
       id="linearGradient2"
       inkscape:collect="always">
      <stop
         style="stop-color:#566c80;stop-opacity:1;"
         offset="0"
         id="stop7" />
      <stop
         style="stop-color:#2e2e41;stop-opacity:1;"
         offset="1"
         id="stop8" />
    </linearGradient>
    <linearGradient
       id="linearGradient3"
       inkscape:collect="always">
      <stop
         style="stop-color:#72aaec;stop-opacity:1;"
         offset="0"
         id="stop3" />
      <stop
         style="stop-color:#3584e4;stop-opacity:1;"
         offset="1"
         id="stop4" />
    </linearGradient>
    <filter
       id="b-3-36"
       width="1.2393739"
       height="1.1966286"
       x="-0.11968695"
       y="-0.098314282"
       color-interpolation-filters="sRGB">
      <feGaussianBlur
         stdDeviation="1.147"
         id="feGaussianBlur7-6" />
    </filter>
    <filter
       id="b-3-36-6"
       width="1.2393739"
       height="1.1966286"
       x="-0.11968695"
       y="-0.098314282"
       color-interpolation-filters="sRGB">
      <feGaussianBlur
         stdDeviation="1.147"
         id="feGaussianBlur7-6-7" />
    </filter>
    <linearGradient
       inkscape:collect="always"
       xlink:href="#linearGradient3"
       id="linearGradient4"
       x1="31.996025"
       y1="5.0983038"
       x2="32.182014"
       y2="58.017544"
       gradientUnits="userSpaceOnUse" />
    <linearGradient
       inkscape:collect="always"
       xlink:href="#linearGradient2"
       id="linearGradient8"
       x1="16.301342"
       y1="19.471077"
       x2="39.200855"
       y2="48.237011"
       gradientUnits="userSpaceOnUse"
       gradientTransform="matrix(1.1276486,0,0,1.1276486,-1.6930798,-1.643754)" />
  </defs>
  <sodipodi:namedview
     id="namedview3"
     pagecolor="#ffffff"
     bordercolor="#000000"
     borderopacity="0.25"
     inkscape:showpageshadow="2"
     inkscape:pageopacity="0.0"
     inkscape:pagecheckerboard="0"
     inkscape:deskcolor="#d1d1d1"
     inkscape:zoom="5.5095405"
     inkscape:cx="-0.9075167"
     inkscape:cy="33.215111"
     inkscape:window-width="1920"
     inkscape:window-height="998"
     inkscape:window-x="0"
     inkscape:window-y="0"
     inkscape:window-maximized="1"
     inkscape:current-layer="svg3" />
  <linearGradient
     id="a"
     x2="1"
     gradientTransform="matrix(0,-43.53155,43.53155,0,1192.407,51.589413)"
     gradientUnits="userSpaceOnUse">
    <stop
       stop-color="#161616"
       offset="0"
       id="stop1" />
    <stop
       stop-color="#343434"
       offset="1"
       id="stop2" />
  </linearGradient>
  <g
     id="g3"
     transform="translate(3.487626,-1.843205)" />
  <rect
     style="opacity:0.2;stroke-width:0.9823"
     width="55"
     height="55.017544"
     x="3.5"
     y="3.9824562"
     rx="8.25"
     ry="8.2526312"
     id="rect1-3" />
  <rect
     style="fill:url(#linearGradient4);stroke-width:0.9823"
     width="55"
     height="55.017544"
     x="3.5"
     y="3"
     rx="8.25"
     ry="8.2526312"
     id="rect2-5" />
  <path
     style="opacity:0.1;fill:#ffffff;stroke-width:0.9823"
     d="M 11.748466,3 C 7.1779651,3 3.4999999,6.6791384 3.4999999,11.251097 v 0.982456 c 0,-4.5719585 3.6779652,-8.2510968 8.2484661,-8.2510968 h 38.503068 c 4.5705,0 8.248466,3.6791383 8.248466,8.2510968 V 11.251097 C 58.5,6.6791384 54.822034,3 50.251534,3 Z"
     id="path4-6" />
  <g
     id="g8"
     transform="translate(-0.498803,-2.8771779)">
    <path
       style="opacity:0.2;stroke-width:1.12765"
       d="m 46.077044,18.334997 c -5.725072,1.250563 -12.172967,1.972258 -17.609361,2.260936 l 0.288678,-1.44339 c 0.337167,-1.58773 0.577356,-3.175459 1.106224,-4.859038 l -6.735446,-0.288678 c 0.04849,1.587729 0,2.742441 -0.240189,4.811676 -0.04849,0.577356 -0.192828,1.202074 -0.288678,1.923769 -2.88678,-0.04736 -6.495256,-0.433017 -9.334675,-0.913396 v 5.9179 c 2.406402,0.24019 5.196205,0.433017 8.227324,0.480379 -1.250562,5.244693 -3.175458,11.59561 -5.436394,15.97427 l 5.629222,2.020746 c 0.481506,-0.818673 0.817545,-1.44339 1.34754,-2.069235 2.838292,-3.656964 7.69733,-5.629222 13.182213,-5.629222 4.618848,0 7.121101,2.405275 7.121101,5.244694 0,7.024123 -10.536749,8.274686 -20.977648,6.591106 l 1.684707,6.158089 c 15.395787,1.636218 25.692347,-2.212446 25.692347,-12.942023 0,-6.062239 -5.100355,-10.199582 -12.798812,-10.199582 -4.377532,0 -7.986008,0.866034 -11.8358,2.982631 0.770184,-2.309424 1.540368,-5.340544 2.165085,-8.227324 6.399406,-0.337167 13.953524,-1.250563 18.908412,-2.020747 z"
       id="path3" />
    <path
       style="fill:url(#linearGradient8);stroke-width:1.12765"
       d="m 46.077044,17.207349 c -5.725072,1.250562 -12.172967,1.972257 -17.609361,2.260935 l 0.288678,-1.44339 c 0.337167,-1.587729 0.577356,-3.175459 1.106224,-4.859038 l -6.735446,-0.288678 c 0.04849,1.587729 0,2.742441 -0.240189,4.811677 -0.04849,0.577356 -0.192828,1.202073 -0.288678,1.923768 -2.88678,-0.04736 -6.495256,-0.433017 -9.334675,-0.913395 v 5.9179 c 2.406402,0.240189 5.196205,0.433017 8.227324,0.480378 -1.250562,5.244694 -3.175458,11.595611 -5.436394,15.97427 l 5.629222,2.020747 c 0.481506,-0.818673 0.817545,-1.44339 1.34754,-2.069235 2.838292,-3.656965 7.69733,-5.629222 13.182213,-5.629222 4.618848,0 7.121101,2.405274 7.121101,5.244693 0,7.024124 -10.536749,8.274686 -20.977648,6.591107 l 1.684707,6.158089 c 15.395787,1.636218 25.692347,-2.212447 25.692347,-12.942024 0,-6.062239 -5.100355,-10.199581 -12.798812,-10.199581 -4.377532,0 -7.986008,0.866034 -11.8358,2.98263 0.770184,-2.309424 1.540368,-5.340544 2.165085,-8.227324 6.399406,-0.337167 13.953524,-1.250562 18.908412,-2.020746 z"
       id="path4" />
  </g>
</svg>
