<?xml version="1.0" encoding="UTF-8" standalone="no"?>
<svg
   width="62"
   height="62"
   version="1.1"
   id="svg5"
   sodipodi:docname="kontena-lens.svg"
   inkscape:version="1.4 (unknown)"
   xmlns:inkscape="http://www.inkscape.org/namespaces/inkscape"
   xmlns:sodipodi="http://sodipodi.sourceforge.net/DTD/sodipodi-0.dtd"
   xmlns:xlink="http://www.w3.org/1999/xlink"
   xmlns="http://www.w3.org/2000/svg"
   xmlns:svg="http://www.w3.org/2000/svg">
  <defs
     id="defs5">
    <linearGradient
       id="linearGradient8"
       inkscape:collect="always">
      <stop
         style="stop-color:#2d3d53;stop-opacity:1;"
         offset="0"
         id="stop8" />
      <stop
         style="stop-color:#2a7fff;stop-opacity:1"
         offset="1"
         id="stop10" />
    </linearGradient>
    <linearGradient
       id="linearGradient4217">
      <stop
         style="stop-color:#000000;stop-opacity:1;"
         offset="0"
         id="stop2" />
      <stop
         style="stop-color:#000000;stop-opacity:0;"
         offset="1"
         id="stop4" />
    </linearGradient>
    <linearGradient
       id="linearGradient4161">
      <stop
         style="stop-color:#334545;stop-opacity:1;"
         offset="0"
         id="stop7" />
      <stop
         style="stop-color:#4d6868;stop-opacity:1"
         offset="1"
         id="stop9" />
    </linearGradient>
    <linearGradient
       id="a-1-2"
       y1="510.79999"
       y2="527.14001"
       gradientUnits="userSpaceOnUse"
       x2="0">
      <stop
         stop-color="#7cbaf8"
         id="stop2-2-7" />
      <stop
         offset="1"
         stop-color="#f4fcff"
         id="stop4-70-0" />
    </linearGradient>
    <linearGradient
       id="c"
       y1="503.79999"
       x1="400.57001"
       y2="519.79999"
       x2="416.57001"
       gradientUnits="userSpaceOnUse">
      <stop
         stop-color="#292c2f"
         id="stop12" />
      <stop
         offset="1"
         stop-opacity="0"
         id="stop14" />
    </linearGradient>
    <linearGradient
       id="b"
       y1="542.79999"
       x1="408.57001"
       y2="521.79999"
       x2="387.57001"
       gradientUnits="userSpaceOnUse"
       gradientTransform="translate(-384.57,-499.8)">
      <stop
         stop-color="#197cf1"
         id="stop7-8" />
      <stop
         offset="1"
         stop-color="#20bcfa"
         id="stop9-7" />
    </linearGradient>
    <linearGradient
       xlink:href="#linearGradient1389"
       id="linearGradient4503-5-6"
       y1="37"
       y2="4"
       x2="0"
       gradientUnits="userSpaceOnUse"
       gradientTransform="matrix(1.0218446,0,0,0.99999999,21.748946,8.2587777)" />
    <linearGradient
       id="linearGradient1389">
      <stop
         style="stop-color:#ffaaaa;stop-opacity:1"
         id="stop1385"
         offset="0" />
      <stop
         offset="1"
         style="stop-color:#ff5555;stop-opacity:1"
         id="stop1387" />
    </linearGradient>
    <linearGradient
       id="paint543_linear_890_11"
       x1="978.5"
       y1="298"
       x2="978.5"
       y2="304"
       gradientUnits="userSpaceOnUse"
       gradientTransform="matrix(0.75000004,0,0,0.75000004,-717.38333,-173.49123)">
      <stop
         offset="0.189495"
         stop-color="#EFF2F6"
         id="stop1829" />
      <stop
         offset="0.850463"
         stop-color="#B7C6CD"
         id="stop1830" />
    </linearGradient>
    <linearGradient
       inkscape:collect="always"
       xlink:href="#linearGradient8"
       id="linearGradient10"
       x1="31.5"
       y1="59.017544"
       x2="31.5"
       y2="4.9824562"
       gradientUnits="userSpaceOnUse"
       gradientTransform="translate(-0.5,-1)" />
    <linearGradient
       id="linearGradient4144">
      <stop
         style="stop-color:#c83771;stop-opacity:1"
         offset="0"
         id="stop1141" />
      <stop
         style="stop-color:#de87aa;stop-opacity:1"
         offset="1"
         id="stop1143" />
    </linearGradient>
    <linearGradient
       id="c-0"
       gradientUnits="userSpaceOnUse"
       x1="10"
       x2="24"
       y1="10"
       y2="24"
       gradientTransform="translate(59.728813,26.237288)">
      <stop
         offset="0"
         stop-color="#292c2f"
         id="stop12-2" />
      <stop
         offset="1"
         stop-opacity="0"
         id="stop14-3" />
    </linearGradient>
    <linearGradient
       id="d"
       gradientUnits="userSpaceOnUse"
       x1="24"
       x2="24"
       y1="25"
       y2="7"
       gradientTransform="translate(59.728813,26.237288)">
      <stop
         offset="0"
         stop-color="#bb9d71"
         id="stop2-7" />
      <stop
         offset="1"
         stop-color="#f9f2e7"
         id="stop4-5" />
    </linearGradient>
    <linearGradient
       id="paint1_linear_54_401"
       x1="32"
       y1="35.773201"
       x2="32"
       y2="9"
       gradientUnits="userSpaceOnUse"
       gradientTransform="matrix(0.84782563,0,0,0.84108217,3.869576,4.9214877)">
      <stop
         stop-color="#5558FF"
         id="stop3" />
      <stop
         offset="1"
         stop-color="#00C0FF"
         id="stop4-1" />
    </linearGradient>
  </defs>
  <sodipodi:namedview
     id="namedview5"
     pagecolor="#ffffff"
     bordercolor="#000000"
     borderopacity="0.25"
     inkscape:showpageshadow="2"
     inkscape:pageopacity="0.0"
     inkscape:pagecheckerboard="0"
     inkscape:deskcolor="#d1d1d1"
     inkscape:zoom="8.2643105"
     inkscape:cx="25.289466"
     inkscape:cy="41.443264"
     inkscape:window-width="1920"
     inkscape:window-height="996"
     inkscape:window-x="0"
     inkscape:window-y="0"
     inkscape:window-maximized="1"
     inkscape:current-layer="svg5" />
  <rect
     style="opacity:0.2;stroke-width:0.9823"
     width="55"
     height="55.017544"
     x="3.5"
     y="3.9824562"
     rx="8.25"
     ry="8.2526312"
     id="rect1" />
  <rect
     style="fill:url(#linearGradient10);stroke-width:0.9823"
     width="55"
     height="55.017544"
     x="3.5"
     y="3"
     rx="8.25"
     ry="8.2526312"
     id="rect2" />
  <path
     style="opacity:0.1;fill:#ffffff;stroke-width:0.9823"
     d="M 11.748466,3 C 7.1779652,3 3.5,6.6791384 3.5,11.251097 v 0.982456 c 0,-4.5719585 3.6779652,-8.2510969 8.248466,-8.2510969 h 38.503068 c 4.5705,0 8.248466,3.6791384 8.248466,8.2510969 V 11.251097 C 58.5,6.6791384 54.822034,3 50.251534,3 Z"
     id="path4" />
  <path
     fill-rule="evenodd"
     clip-rule="evenodd"
     d="m 44.65448,18.909103 c -2.950692,-3.786804 -7.618397,-6.260215 -12.455155,-6.417422 -0.621623,-0.0202 -0.994751,0.639694 -0.694195,1.179839 1.740076,3.126809 3.550944,6.214418 5.361393,9.301188 l 2.49e-4,5.09e-4 c 0.730151,1.244887 1.460211,2.489686 2.18561,3.736842 0.307852,0.529461 1.061312,0.56613 1.395699,0.0527 0.707337,-1.086091 1.343716,-2.218602 1.980348,-3.351458 v 0 l 8e-5,-8.8e-5 c 0.550752,-0.980028 1.101582,-1.960307 1.698622,-2.910899 0.02966,-0.04732 0.05393,-0.09754 0.07751,-0.148113 0.05573,-0.119438 0.133869,-0.241307 0.213313,-0.365117 l 8.6e-5,-8.1e-5 v -8.7e-5 c 0.221955,-0.345935 0.453919,-0.707598 0.236456,-1.077847 z M 26.110668,12.866687 c -4.75477,0.690779 -9.255967,3.430188 -11.745689,7.533824 -0.317251,0.523072 0.07223,1.162212 0.6875,1.174991 5.156475,0.107154 10.320076,0.06056 15.479175,0.01408 v 0 0 c 0.480968,-0.0046 0.782374,-0.516592 0.54727,-0.932843 -0.775338,-1.37265 -1.569068,-2.735119 -2.362638,-4.097335 v 0 0 -8.5e-5 l -1.65e-4,-1.64e-4 -8.2e-5,-1.73e-4 -9e-5,-8.3e-5 v -8.3e-5 c -0.531671,-0.912658 -1.063254,-1.825224 -1.589336,-2.740834 -0.02193,-0.03819 -0.04735,-0.07439 -0.07329,-0.110179 -0.05347,-0.07372 -0.10411,-0.15685 -0.155564,-0.241712 -0.187708,-0.308976 -0.387963,-0.638748 -0.787118,-0.599435 z m 18.559579,14.284185 2.55e-4,-3.38e-4 c 0.825361,-1.406124 1.65063,-2.81199 2.472852,-4.219291 0.308018,-0.527272 1.058682,-0.562261 1.368559,-0.0361 2.438095,4.139895 2.545852,9.413642 0.803318,13.855566 -0.08092,0.206155 -0.243243,0.373699 -0.456979,0.436944 -0.737951,0.218347 -1.502771,0.162413 -2.269378,0.106317 -0.4507,-0.03294 -0.902,-0.06609 -1.348883,-0.04338 l -0.333283,0.01718 c -1.614684,0.08395 -3.239969,0.168385 -4.850919,0.02571 -0.585762,-0.05175 -0.892682,-0.688171 -0.601362,-1.195009 1.72066,-2.993411 3.46828,-5.970673 5.215481,-8.947098 l 1.74e-4,-3.37e-4 z M 13.655523,25.162546 c -0.333881,5.94e-4 -0.696156,0.0014 -0.86182,0.316674 -1.944412,4.458403 -1.670869,9.731239 0.644343,13.994012 0.278263,0.51238 0.985436,0.540392 1.307266,0.05375 0.53108,-0.803061 1.00213,-1.645493 1.473099,-2.487665 v 0 c 0.379744,-0.679178 0.759485,-1.358181 1.170507,-2.016241 0.686739,-1.240516 1.41409,-2.460169 2.141352,-3.679737 0.982208,-1.646923 1.964243,-3.293677 2.845896,-4.991234 0.283598,-0.546118 -0.117256,-1.186856 -0.736505,-1.190467 -1.17636,-0.007 -2.352294,-0.0057 -3.528231,-0.0049 v 0 h -8e-5 -1.64e-4 c -1.354322,0.0016 -2.708553,0.0026 -4.063634,-0.0087 -0.04094,-3.38e-4 -0.08197,0.0027 -0.122763,0.0063 -0.08418,0.0075 -0.175589,0.0077 -0.269266,0.0079 z m 4.070492,16.860003 c 0.568126,-0.887592 1.0853,-1.809672 1.602474,-2.731663 0.605605,-1.0797 1.211032,-2.159228 1.898022,-3.182745 0.336081,-0.500781 1.073431,-0.455278 1.376533,0.06582 0.829084,1.425213 1.665635,2.846734 2.502187,4.268245 l 8e-5,1.62e-4 c 1.733384,2.945475 3.466851,5.891111 5.134269,8.869972 0.298604,0.533497 -0.06166,1.188702 -0.676652,1.178776 -4.730275,-0.07674 -9.320994,-2.523414 -12.323145,-6.100114 -0.615603,-0.583459 -0.199489,-1.242195 0.182707,-1.847186 0.113439,-0.17957 0.223911,-0.35443 0.303525,-0.521216 z m 29.913906,0.298837 c 0.300389,-0.52761 -0.102585,-1.150604 -0.713442,-1.153212 -5.071182,-0.02192 -10.142114,-0.01548 -15.210667,-0.0069 -0.618062,0.0013 -1.023838,0.635437 -0.739136,1.179618 0.535661,1.023594 1.124476,2.019691 1.71346,3.016118 0.464777,0.786243 0.929726,1.572826 1.368808,2.373284 0.147445,0.232472 0.27987,0.477736 0.412643,0.723582 0.252394,0.467305 0.50581,0.936293 0.864183,1.32193 0.161514,0.173766 0.404837,0.238949 0.64011,0.201775 4.722048,-0.745115 9.288353,-3.485108 11.664041,-7.656455 z"
     id="path1"
     style="fill:#f2f2f2;fill-opacity:1" />
</svg>
