<?xml version="1.0" encoding="UTF-8" standalone="no"?>
<svg
   clip-rule="evenodd"
   fill-rule="evenodd"
   stroke-linejoin="round"
   stroke-miterlimit="2"
   viewBox="0 0 62 62"
   version="1.1"
   id="svg3"
   sodipodi:docname="door-kickers.svg"
   width="62"
   height="62"
   inkscape:version="1.4.2 (unknown)"
   xmlns:inkscape="http://www.inkscape.org/namespaces/inkscape"
   xmlns:sodipodi="http://sodipodi.sourceforge.net/DTD/sodipodi-0.dtd"
   xmlns:xlink="http://www.w3.org/1999/xlink"
   xmlns="http://www.w3.org/2000/svg"
   xmlns:svg="http://www.w3.org/2000/svg">
  <defs
     id="defs3">
    <linearGradient
       id="linearGradient6">
      <stop
         offset="0"
         style="stop-color:#dbdbdb;stop-opacity:0;"
         id="stop5" />
      <stop
         offset="1"
         style="stop-color:#000000;stop-opacity:1;"
         id="stop6" />
    </linearGradient>
    <filter
       id="b-3-36"
       width="1.2393739"
       height="1.1966286"
       x="-0.11968695"
       y="-0.098314282"
       color-interpolation-filters="sRGB">
      <feGaussianBlur
         stdDeviation="1.147"
         id="feGaussianBlur7-6" />
    </filter>
    <filter
       id="b-3-36-6"
       width="1.2393739"
       height="1.1966286"
       x="-0.11968695"
       y="-0.098314282"
       color-interpolation-filters="sRGB">
      <feGaussianBlur
         stdDeviation="1.147"
         id="feGaussianBlur7-6-7" />
    </filter>
    <linearGradient
       id="linearGradient4306">
      <stop
         offset="0"
         style="stop-color:#000000;stop-opacity:0;"
         id="stop12" />
      <stop
         offset="1"
         style="stop-color:#000000;stop-opacity:1;"
         id="stop14" />
    </linearGradient>
    <radialGradient
       xlink:href="#linearGradient4324"
       id="radialGradient4340-3"
       cx="-12"
       cy="12"
       fx="-12"
       fy="12"
       r="4"
       gradientUnits="userSpaceOnUse"
       gradientTransform="matrix(1.235291,0,0,1.235291,-1.3530054,1.3530246)" />
    <linearGradient
       id="linearGradient4324">
      <stop
         style="stop-color:#eff1f1;stop-opacity:1"
         offset="0"
         id="stop7" />
      <stop
         style="stop-color:#ececec;stop-opacity:1;"
         offset="1"
         id="stop9" />
    </linearGradient>
    <linearGradient
       id="linearGradient4167">
      <stop
         style="stop-color:#ffffff;stop-opacity:0"
         offset="0"
         id="stop2-3" />
      <stop
         style="stop-color:#ffffff;stop-opacity:1"
         offset="1"
         id="stop4-6" />
    </linearGradient>
    <radialGradient
       xlink:href="#linearGradient4324"
       id="radialGradient4188-1"
       gradientUnits="userSpaceOnUse"
       cx="-12"
       cy="12"
       fx="-12"
       fy="12"
       r="4"
       gradientTransform="matrix(1.235291,0,0,1.235291,-16.176495,16.176515)" />
    <radialGradient
       xlink:href="#linearGradient4324"
       id="radialGradient4202-2"
       gradientUnits="userSpaceOnUse"
       cx="-12"
       cy="12"
       fx="-12"
       fy="12"
       r="4"
       gradientTransform="matrix(1.235291,0,0,1.235291,-30.999989,31.000009)" />
    <linearGradient
       xlink:href="#linearGradient4816"
       id="linearGradient4503-0-3"
       y1="37"
       y2="4"
       x2="0"
       gradientUnits="userSpaceOnUse"
       gradientTransform="matrix(1.0499998,0,0,1.0499998,9.2502391,54.800003)" />
    <linearGradient
       id="linearGradient4816">
      <stop
         style="stop-color:#da4453"
         id="stop1439" />
      <stop
         offset="1"
         style="stop-color:#ff7336"
         id="stop1441" />
    </linearGradient>
    <linearGradient
       id="linearGradient4279">
      <stop
         id="stop1432" />
      <stop
         offset="1"
         style="stop-opacity:0"
         id="stop1434" />
    </linearGradient>
    <linearGradient
       id="c"
       y1="513.38"
       x1="399.98999"
       y2="537.38"
       x2="424.98999"
       gradientUnits="userSpaceOnUse"
       gradientTransform="translate(-464.04842,-560.44526)">
      <stop
         stop-color="#292c2f"
         id="stop12-3" />
      <stop
         offset="1"
         stop-opacity="0"
         id="stop14-6" />
    </linearGradient>
    <linearGradient
       id="b"
       y1="35"
       x1="42"
       y2="12"
       x2="22"
       gradientUnits="userSpaceOnUse"
       gradientTransform="translate(-75.064419,-59.059262)">
      <stop
         stop-color="#197cf1"
         id="stop7-7" />
      <stop
         offset="1"
         stop-color="#20bcfa"
         id="stop9-5" />
    </linearGradient>
    <linearGradient
       id="a-3"
       y1="35"
       x1="23"
       y2="13"
       x2="5"
       gradientUnits="userSpaceOnUse"
       gradientTransform="translate(-79.064419,-59.059262)">
      <stop
         stop-color="#c61423"
         id="stop2-5" />
      <stop
         offset="1"
         stop-color="#dc2b41"
         id="stop4-62" />
    </linearGradient>
  </defs>
  <sodipodi:namedview
     id="namedview3"
     pagecolor="#ffffff"
     bordercolor="#000000"
     borderopacity="0.25"
     inkscape:showpageshadow="2"
     inkscape:pageopacity="0.0"
     inkscape:pagecheckerboard="0"
     inkscape:deskcolor="#d1d1d1"
     inkscape:zoom="7.7916669"
     inkscape:cx="20.534759"
     inkscape:cy="30.673796"
     inkscape:window-width="1920"
     inkscape:window-height="996"
     inkscape:window-x="0"
     inkscape:window-y="0"
     inkscape:window-maximized="1"
     inkscape:current-layer="svg3" />
  <linearGradient
     id="a"
     x2="1"
     gradientTransform="matrix(0,-43.53155,43.53155,0,1192.407,51.589413)"
     gradientUnits="userSpaceOnUse">
    <stop
       stop-color="#161616"
       offset="0"
       id="stop1" />
    <stop
       stop-color="#343434"
       offset="1"
       id="stop2" />
  </linearGradient>
  <g
     id="g3"
     transform="translate(3.487626,-1.843205)" />
  <rect
     style="opacity:0.2;stroke-width:0.9823"
     width="55"
     height="55.017544"
     x="3.5"
     y="3.9824562"
     rx="8.25"
     ry="8.2526312"
     id="rect1-3" />
  <rect
     style="fill:#434b56;stroke-width:0.9823;fill-opacity:1"
     width="55"
     height="55.017544"
     x="3.5"
     y="3"
     rx="8.25"
     ry="8.2526312"
     id="rect2-5" />
  <path
     style="opacity:0.1;fill:#ffffff;stroke-width:0.9823"
     d="M 11.748466,3 C 7.1779651,3 3.4999999,6.6791384 3.4999999,11.251097 v 0.982456 c 0,-4.5719585 3.6779652,-8.2510968 8.2484661,-8.2510968 h 38.503068 c 4.5705,0 8.248466,3.6791383 8.248466,8.2510968 V 11.251097 C 58.5,6.6791384 54.822034,3 50.251534,3 Z"
     id="path4-6" />
  <g
     id="g1"
     transform="matrix(0.99423693,0,0,1,-4.5318684,-3.178576)"
     style="stroke-width:1.00289">
    <path
       style="opacity:0.2;stroke-width:1.00289"
       d="m 34.942738,15.337252 c -0.27108,0.0046 -0.533391,0.09233 -0.991494,0.26655 -0.539325,0.2051 -1.189004,0.645044 -1.443698,0.97763 -0.254704,0.332584 -0.710052,0.908049 -1.011909,1.279054 -0.879684,1.08122 -1.07707,1.563524 -0.828884,2.025324 0.333574,0.620674 0.268707,3.162294 -0.111457,3.307558 -0.181301,0.06929 -0.565507,-0.465846 -0.853854,-0.596646 -0.390738,-0.177284 -0.766564,-0.177203 -1.475665,6.26e-4 -0.754226,0.18912 -1.060995,0.180232 -1.480558,-0.04333 -0.470346,-0.250667 -0.638971,-0.224993 -1.514948,0.232279 -0.542118,0.282997 -1.470937,0.341773 -2.063986,0.955772 -0.985079,1.019858 -1.149228,0.120159 -1.897442,0.06071 l -0.818826,-0.06491 -0.887352,1.784252 c -0.569898,1.145949 -1.088361,2.573246 -1.449188,2.777076 -0.308999,0.174563 -0.798925,0.768242 -1.088643,1.31908 -0.513742,0.976825 -0.51838,1.023477 -0.183005,1.897962 0.233948,0.609985 0.302157,1.199298 0.21346,1.843674 -0.110786,0.804039 -0.05468,1.034753 0.370612,1.527106 0.275528,0.318987 0.346251,0.648774 0.750209,0.732621 0.650789,0.135075 0.730358,0.222999 0.696427,0.770827 -0.07244,1.170188 -0.466357,4.607835 -0.602621,5.260556 -0.187055,0.895819 0.711541,2.742063 1.919957,3.945412 1.571997,1.565415 1.158981,2.115505 -1.053618,1.403689 -0.752232,-0.241999 -1.138215,-0.439998 -1.450619,-0.439998 -0.312402,0 -1.080893,-0.241601 -1.708022,-0.537034 -2.208374,-1.040352 -3.190977,-0.322066 -3.211998,2.348269 -0.0052,0.707515 -0.152442,1.625674 -0.326437,2.040174 -0.430015,1.024881 -0.397264,1.885282 0.109527,2.874689 0.424462,0.828523 0.430381,0.831477 1.686694,0.831477 1.281745,0.0075 1.281745,0.0075 1.260368,-0.829964 0,-1.069602 0.376782,-1.879918 0.939118,-2.020466 5.130614,1.778263 7.095569,2.853049 10.597424,2.802821 2.110226,-0.03111 4.380101,-0.841583 3.047842,-3.99443 -0.255453,-0.600704 -0.594773,-1.360942 -1.046578,-2.360813 -0.305383,-0.675836 -0.563692,-1.922205 -0.608721,-2.935334 -0.0268,-0.603188 0.02589,-0.640194 1.447658,-1.017663 0.811615,-0.215471 2.062956,-0.779563 3.077038,-1.253582 2.334668,-1.091318 2.38859,-1.051927 2.326787,1.700548 -0.09472,4.220319 -0.235371,6.285606 -0.538691,7.914491 -0.254981,1.757699 0.882174,1.957685 0.882174,1.957685 2.510625,0.104264 8.491942,0.01602 8.622665,-0.194669 0.288113,-0.464211 -0.633164,-2.027389 -2.003385,-2.213994 -2.024089,-0.170028 -1.397393,-0.920323 -1.100863,-3.656974 0.229032,-1.040249 0.283023,-2.483871 0.220461,-5.877942 -0.04562,-2.474454 -0.155999,-4.329307 -0.245436,-4.714245 -0.147051,-0.632639 -0.08038,-0.783854 0.693374,-1.574404 0.470801,-0.480999 1.123074,-1.393934 1.449492,-2.028953 0.483904,-0.941402 0.7786,-1.2427 1.595042,-1.631116 0.940456,-0.447411 1.001236,-0.525809 1.001236,-1.291187 0,-0.706584 0.09675,-0.871774 0.727491,-1.242361 0.692795,-0.407041 0.730411,-0.490553 0.790512,-1.752705 0.06211,-1.303942 0.74894,-1.326239 1.373784,-1.387312 0.218941,-0.02146 0.427075,0.005 0.620605,0.07551 v 4.297775 c 0,0.09458 0.07648,0.170721 0.171428,0.170721 h 1.304846 c 0.09502,0 0.171752,-0.07609 0.171752,-0.170721 v -4.133429 c 0.345815,-0.175239 0.893263,-0.283284 1.782325,-0.358122 0.643093,-0.05415 1.122235,-0.303621 1.436981,-0.411496 h 5.009446 c 0.09501,0 0.171448,-0.07611 0.171448,-0.170729 V 25.32704 c 0,-0.09458 -0.07648,-0.170727 -0.171448,-0.170727 H 46.655469 c -0.0016,0 -0.0036,9.02e-4 -0.005,9.02e-4 l -0.166594,-8.99e-4 -0.413534,-0.666819 c -0.196191,-0.31606 -0.346067,-0.114019 -0.367893,-0.455901 h 1.431122 c 0.09506,0 0.171453,-0.07609 0.171453,-0.170722 v -1.173222 c 0,-0.09458 -0.07648,-0.170721 -0.171453,-0.170721 h -5.762883 c -0.09505,0 -0.171745,0.07611 -0.171745,0.170721 v 1.173223 c 0,0.09458 0.07683,0.170722 0.171745,0.170722 h 1.448657 c 0.01356,0.0042 0.02766,0.0094 0.04201,0.01283 1.799722,0.09264 -0.83869,0.641323 -1.161115,0.641469 -1.100518,0 -1.823638,0.09544 -1.992131,0.262607 -0.320387,0.317864 -1.577269,0.348737 -1.766794,0.04333 -0.07477,-0.120505 -0.04405,-0.333181 0.06856,-0.47244 0.112602,-0.139282 0.26637,-0.541875 0.341972,-0.89455 0.07562,-0.352677 0.465988,-1.586175 0.867553,-2.14862 0.401581,-0.562453 0.73022,-1.243687 0.73022,-1.513761 0,-0.752057 -1.206306,-2.712309 -2.105396,-3.421422 C 37.402115,16.194347 36.566031,15.75647 35.986081,15.569947 35.493436,15.4115 35.213547,15.33286 34.942489,15.337369 Z m 3.780837,10.772983 c 0.122402,0.0064 0.256993,0.08671 0.480521,0.232584 0.705075,0.460048 0.676101,0.885749 -0.08711,1.278747 -0.749946,0.386192 -0.90517,0.394662 -1.232973,0.06824 -0.376045,-0.374473 -0.311054,-0.670248 0.266143,-1.210219 0.278981,-0.260976 0.44385,-0.459035 0.573404,-0.369344 z m 3.964765,1.235688 c 0.87483,-0.02003 1.167682,0.271686 0.921457,0.910624 -0.147556,0.382889 -0.83929,0.402318 -1.551803,0.04333 -0.870133,-0.438367 -0.663992,-0.874053 0.447638,-0.945788 0.06347,-0.0042 0.124428,-0.0073 0.182708,-0.0085 z m -0.749709,1.60868 c 0.322567,0.04606 0.96257,0.364974 0.96257,0.623753 0,0.486706 -1.098067,1.669349 -1.794803,1.933134 -1.290662,0.488657 -1.39089,0.02689 -0.286254,-1.317865 0.495707,-0.60345 0.925172,-1.13231 0.954344,-1.175042 0.03035,-0.04463 0.08978,-0.07456 0.164108,-0.06399 z m -6.200803,5.223973 c 0.265108,0.0035 0.532135,0.171825 0.84807,0.50671 0.397287,0.421126 0.456142,0.609977 0.277705,0.892122 -0.249599,0.394708 -0.477992,0.441747 -1.510999,0.312027 -0.895119,-0.11239 -1.065679,-0.574182 -0.452195,-1.224462 0.308887,-0.327433 0.572291,-0.489562 0.837419,-0.486397 z"
       id="path2" />
    <path
       style="fill:#8d5fd3;stroke-width:1.00289"
       d="m 34.942738,14.125127 c -0.27108,0.0046 -0.533391,0.09233 -0.991494,0.266549 -0.539325,0.205098 -1.189004,0.645045 -1.443698,0.97764 -0.254704,0.332574 -0.710052,0.908062 -1.011909,1.279046 -0.879684,1.081218 -1.07707,1.563524 -0.828884,2.025326 0.333574,0.620672 0.268707,3.162292 -0.111457,3.307563 -0.181301,0.06929 -0.565507,-0.465838 -0.853854,-0.596638 -0.390738,-0.17729 -0.766564,-0.177205 -1.475665,6.18e-4 -0.754226,0.189114 -1.060995,0.180226 -1.480558,-0.04333 -0.470346,-0.250667 -0.638971,-0.224991 -1.514948,0.232284 -0.542118,0.28299 -1.470937,0.341766 -2.063986,0.955764 -0.985079,1.01987 -1.149228,0.120162 -1.897442,0.06071 l -0.818826,-0.06491 -0.887352,1.784242 c -0.569898,1.145946 -1.088361,2.573248 -1.449188,2.777075 -0.308999,0.174568 -0.798925,0.768247 -1.088643,1.319087 -0.513742,0.97683 -0.51838,1.023474 -0.183005,1.89796 0.233948,0.609981 0.302157,1.199303 0.21346,1.843682 -0.110786,0.804038 -0.05468,1.034747 0.370612,1.527095 0.275528,0.31899 0.346251,0.648769 0.750209,0.732616 0.650789,0.135091 0.730358,0.223008 0.696427,0.770828 -0.07244,1.170196 -0.466357,4.607848 -0.602621,5.260562 -0.187055,0.895819 0.711541,2.742065 1.919957,3.945417 1.571997,1.56541 1.158981,2.115504 -1.053618,1.403678 -0.752232,-0.241998 -1.138215,-0.439995 -1.450619,-0.439995 -0.312402,0 -1.080893,-0.241603 -1.708022,-0.537028 -2.208374,-1.040349 -3.190977,-0.322066 -3.211998,2.34826 -0.0052,0.707517 -0.152442,1.625683 -0.326437,2.040179 -0.430015,1.024882 -0.397264,1.885282 0.109527,2.874691 0.424462,0.828526 0.430381,0.831471 1.686694,0.831471 1.281745,0.0075 1.281745,0.0075 1.260368,-0.829963 0,-1.069603 0.376782,-1.879913 0.939118,-2.020465 5.130614,1.778268 7.095569,2.853053 10.597424,2.802818 2.110226,-0.0311 4.380101,-0.841583 3.047842,-3.994427 -0.255447,-0.600705 -0.594764,-1.36094 -1.046571,-2.360807 -0.305384,-0.675839 -0.563693,-1.922206 -0.608724,-2.935333 -0.0268,-0.603186 0.02589,-0.6402 1.447659,-1.017665 0.811617,-0.215471 2.062957,-0.779563 3.077037,-1.253579 2.334673,-1.091325 2.388591,-1.051927 2.326789,1.700547 -0.0947,4.220321 -0.23537,6.285604 -0.538692,7.914484 -0.25498,1.757707 0.882176,1.957688 0.882176,1.957688 2.510623,0.104261 8.49194,0.01602 8.622663,-0.194666 0.288113,-0.464217 -0.633163,-2.027396 -2.003386,-2.213999 -2.024088,-0.170024 -1.397389,-0.920321 -1.100862,-3.656976 0.229031,-1.040244 0.283023,-2.483865 0.22046,-5.877941 -0.04563,-2.474458 -0.155998,-4.329307 -0.245435,-4.714236 -0.147049,-0.632648 -0.08038,-0.783864 0.693374,-1.574409 0.470801,-0.481004 1.123076,-1.393938 1.449492,-2.028955 0.483904,-0.941399 0.778601,-1.242688 1.595044,-1.631108 0.940456,-0.447421 1.001233,-0.52582 1.001233,-1.291183 0,-0.706597 0.09675,-0.871786 0.727491,-1.242364 0.692799,-0.407054 0.730413,-0.490561 0.790515,-1.752719 0.0621,-1.303937 0.748937,-1.326233 1.373783,-1.3873 0.218938,-0.02146 0.427074,0.0052 0.620607,0.07551 v 4.297769 c 0,0.09458 0.07648,0.170728 0.171427,0.170728 h 1.30484 c 0.09503,0 0.171752,-0.07611 0.171752,-0.170728 v -4.133414 c 0.345815,-0.175239 0.893263,-0.283289 1.782325,-0.358128 0.643093,-0.05412 1.122235,-0.303625 1.436981,-0.411497 h 5.009446 c 0.09502,0 0.171448,-0.0761 0.171448,-0.170722 v -0.487592 c 0,-0.09458 -0.07648,-0.170724 -0.171448,-0.170724 H 46.655469 c -0.0016,0 -0.0036,8.88e-4 -0.005,8.88e-4 L 46.483887,23.944215 46.070355,23.2774 c -0.196157,-0.316066 -0.346032,-0.11403 -0.367859,-0.455917 h 1.431122 c 0.09501,0 0.17145,-0.07611 0.17145,-0.170718 V 21.47754 c 0,-0.09458 -0.07648,-0.170717 -0.17145,-0.170717 h -5.762916 c -0.09505,0 -0.171748,0.07611 -0.171748,0.170717 v 1.173229 c 0,0.09458 0.07683,0.170717 0.171748,0.170717 h 1.448655 c 0.01356,0.0042 0.02766,0.0094 0.04204,0.01283 1.799723,0.09265 -0.838692,0.641332 -1.161113,0.641485 -1.10052,0 -1.823641,0.09544 -1.992131,0.262598 -0.32039,0.317868 -1.577268,0.34873 -1.766794,0.04333 -0.07477,-0.120509 -0.04405,-0.33318 0.06858,-0.472445 0.1126,-0.139283 0.266366,-0.541865 0.341969,-0.894555 0.07562,-0.352671 0.465988,-1.586163 0.867555,-2.148613 0.401577,-0.562454 0.730223,-1.243687 0.730223,-1.513765 0,-0.752062 -1.206309,-2.712311 -2.105401,-3.421417 -0.442173,-0.348686 -1.27826,-0.786577 -1.858207,-0.973085 -0.492609,-0.158432 -0.7725,-0.237096 -1.043557,-0.232586 z m 3.780837,10.772993 c 0.122402,0.0064 0.256993,0.0867 0.480521,0.232575 0.705075,0.46005 0.676101,0.885752 -0.08711,1.27875 -0.749946,0.386192 -0.90517,0.394667 -1.232973,0.06824 -0.376045,-0.374475 -0.311054,-0.670247 0.266143,-1.210223 0.278981,-0.260975 0.44385,-0.459027 0.573404,-0.369337 z m 3.964765,1.235688 c 0.87483,-0.02003 1.167682,0.271677 0.921457,0.910617 -0.147556,0.382893 -0.83929,0.402319 -1.551803,0.04333 -0.870133,-0.438371 -0.663992,-0.874065 0.447638,-0.945795 0.06347,-0.0042 0.124428,-0.0073 0.182708,-0.0085 z m -0.749709,1.608673 c 0.322567,0.04611 0.96257,0.364976 0.96257,0.623758 0,0.486709 -1.098067,1.669347 -1.794803,1.933137 -1.290662,0.488648 -1.39089,0.02689 -0.286254,-1.317877 0.495707,-0.603445 0.925172,-1.132307 0.954344,-1.175035 0.03035,-0.04463 0.08978,-0.07456 0.164108,-0.06399 z m -6.200803,5.223975 c 0.265108,0.0035 0.532135,0.171826 0.84807,0.506705 0.397287,0.42113 0.456142,0.609976 0.277705,0.892128 -0.249599,0.394702 -0.477992,0.441751 -1.510999,0.312033 -0.895119,-0.112388 -1.065679,-0.574194 -0.452195,-1.224474 0.308887,-0.327422 0.572291,-0.489555 0.837419,-0.486392 z"
       id="path3" />
    <path
       style="opacity:0.2;fill:#ffffff;stroke-width:1.00289"
       d="m 34.943526,14.125037 c -0.271078,0.0046 -0.533848,0.09328 -0.991947,0.267518 -0.539329,0.205097 -1.189425,0.645153 -1.444122,0.977726 -0.254694,0.332595 -0.709037,0.907416 -1.010884,1.278401 -0.879694,1.081216 -1.07914,1.562351 -0.83096,2.024147 0.03473,0.06469 0.06145,0.161326 0.08759,0.262779 0.146175,-0.285985 0.373163,-0.619785 0.743369,-1.074805 0.301848,-0.370989 0.756187,-0.945807 1.010883,-1.278402 0.254698,-0.332577 0.904793,-0.772627 1.444121,-0.977742 0.458095,-0.174225 0.720863,-0.2629 0.991946,-0.267518 0.27105,-0.0045 0.549037,0.07361 1.041655,0.232008 0.579952,0.18652 1.416305,0.624318 1.858416,0.973015 0.69721,0.549883 1.573264,1.847874 1.934175,2.755661 0.10221,-0.227616 0.17282,-0.427749 0.17282,-0.544504 0,-0.752056 -1.207902,-2.714167 -2.106995,-3.423278 -0.44211,-0.34868 -1.278463,-0.78649 -1.858415,-0.973001 -0.492616,-0.158433 -0.770604,-0.236506 -1.041652,-0.232005 z m -4.095619,6.678453 c -0.04148,0.59462 -0.132287,1.114981 -0.293558,1.176613 -0.181312,0.06929 -0.563928,-0.465797 -0.852277,-0.596596 -0.390736,-0.177283 -0.768152,-0.175447 -1.477262,0.0026 -0.75423,0.189116 -1.060065,0.178609 -1.47963,-0.04503 -0.470348,-0.250674 -0.639168,-0.222904 -1.515142,0.234372 -0.542113,0.282992 -1.471331,0.340063 -2.064387,0.954063 -0.985068,1.019868 -1.14808,0.121035 -1.896291,0.0616 l -0.819122,-0.06626 -0.887788,1.785032 c -0.569896,1.145948 -1.088027,2.573137 -1.448847,2.776963 -0.308993,0.174568 -0.799295,0.767816 -1.089009,1.318656 -0.468187,0.890184 -0.498027,1.035937 -0.248581,1.711636 0.06486,-0.140588 0.139226,-0.291612 0.248581,-0.499528 0.289714,-0.55084 0.780016,-1.14408 1.089009,-1.318644 0.36082,-0.20383 0.878951,-1.631021 1.448847,-2.776975 l 0.887788,-1.785024 0.819122,0.06621 c 0.748211,0.05949 0.911223,0.958316 1.896291,-0.0616 0.593056,-0.613999 1.522274,-0.671069 2.064387,-0.95407 0.875974,-0.45727 1.044794,-0.485037 1.515142,-0.234371 0.419565,0.223585 0.7254,0.234102 1.47963,0.04503 0.70911,-0.17783 1.086526,-0.179659 1.477262,-0.0026 0.288349,0.1308 0.670965,0.665863 0.852277,0.596593 0.271048,-0.103592 0.373232,-1.413548 0.293558,-2.38872 z m 10.523133,0.504267 c -0.09501,0 -0.172821,0.07585 -0.172821,0.170456 v 1.171865 c 0,0.0086 0.0084,0.01323 0.0099,0.02137 0.01072,-0.08387 0.07599,-0.151522 0.163351,-0.151522 h 5.76228 c 0.0876,0 0.152741,0.06717 0.163351,0.151522 0.0012,-0.008 0.0075,-0.01322 0.0075,-0.02137 v -1.171865 c 0,-0.09458 -0.07549,-0.170456 -0.17045,-0.170456 z m -0.172821,2.194587 c -0.775528,0.02833 -1.352054,0.10075 -1.489096,0.236739 -0.239938,0.238042 -1.004841,0.312881 -1.453589,0.208336 -0.07802,0.246349 -0.167869,0.476002 -0.246218,0.57291 -0.112592,0.139266 -0.143447,0.352977 -0.06868,0.473486 0.04845,0.07806 0.169875,0.130777 0.324329,0.165715 0.201159,-0.19338 0.351777,-0.334843 0.459282,-0.260416 0.122401,0.0064 0.257047,0.08616 0.48058,0.232004 0.0087,0.006 0.01029,0.01072 0.0189,0.01661 0.206526,-0.04247 0.390643,-0.102592 0.485322,-0.196498 0.16849,-0.167159 0.890467,-0.262781 1.990984,-0.262781 0.32243,-1.58e-4 2.959763,-0.548957 1.160036,-0.641567 -0.01433,-0.0038 -0.02672,-0.01 -0.04026,-0.01423 H 41.37097 c -0.09492,0 -0.172822,-0.07584 -0.172822,-0.170447 z m 6.072408,0.442702 c -0.02991,0.04958 -0.07472,0.08759 -0.137312,0.08759 h -1.429913 c 0.02187,0.341903 0.170802,0.140861 0.366948,0.456916 l 0.4143,0.66761 h 0.165717 c 0.0016,1e-6 0.0033,0 0.0047,0 h 6.316256 c 0.551663,-0.08034 0.977719,-0.286143 1.261821,-0.383518 h 5.009446 c 0.09508,-6e-6 0.170458,-0.07585 0.170458,-0.17046 v -0.487688 c 0,-0.09458 -0.07548,-0.170456 -0.170453,-0.170457 z m -8.061033,2.400559 c -0.03637,0.02107 -0.05185,0.04305 -0.09234,0.06393 -0.621663,0.320134 -0.838132,0.366346 -1.079542,0.191765 -0.45168,0.459966 -0.498695,0.74564 -0.153875,1.089002 0.327798,0.326448 0.48347,0.317538 1.233417,-0.06868 0.761322,-0.392027 0.792015,-0.817299 0.09234,-1.276034 z m 3.477725,0.999044 c -0.05821,0.0014 -0.118834,0.0054 -0.182288,0.0099 -0.845539,0.05452 -1.158058,0.320105 -0.880675,0.636831 0.02295,-0.02908 0.144564,-0.177959 0.149149,-0.184664 0.03035,-0.04463 0.09131,-0.0745 0.165714,-0.06393 0.322566,0.04611 0.961169,0.366213 0.961169,0.624996 0,0.04791 -0.01807,0.10588 -0.03787,0.165715 0.365732,0.03428 0.659829,-0.04794 0.748102,-0.27698 0.246224,-0.63894 -0.04846,-0.929125 -0.923292,-0.909091 z m -0.220166,1.813442 c -0.383348,0.479054 -0.935397,0.979846 -1.361257,1.141088 -0.192253,0.07281 -0.303334,0.08277 -0.44271,0.113593 -0.885832,1.149233 -0.763815,1.555272 0.44271,1.098479 0.696724,-0.263789 1.794492,-1.445099 1.794492,-1.931807 0,-0.145189 -0.199409,-0.297161 -0.433235,-0.421398 z M 17.0388,32.306739 c -0.03839,0.331197 -0.03739,0.572101 0.02135,0.769417 0.01688,-0.260172 0.01651,-0.518779 -0.02135,-0.769417 z m 17.961545,2.272716 c -0.03434,0.03329 -0.06393,0.04758 -0.09944,0.08525 -0.613472,0.65029 -0.442942,1.111556 0.452184,1.223956 1.032998,0.129715 1.260807,0.08458 1.510407,-0.310131 0.178434,-0.28215 0.120298,-0.471391 -0.276995,-0.892522 -0.01366,-0.01441 -0.02442,-0.01926 -0.03787,-0.03318 -0.218495,0.10557 -0.53628,0.106505 -1.195537,0.02365 -0.147571,-0.01848 -0.24483,-0.06029 -0.352747,-0.09708 z m -16.197828,1.321019 c -0.126602,1.454182 -0.413814,3.969034 -0.532659,4.538324 -0.04658,0.223383 -0.02427,0.506991 0.05207,0.823857 0.159812,-0.979693 0.484935,-3.795204 0.551607,-4.872122 0.01487,-0.24082 -0.0034,-0.383913 -0.07097,-0.490059 z m 22.348353,0.740998 c -0.121357,0.236137 -0.116953,0.440941 -0.03787,0.781243 0.08917,0.383628 0.200338,2.230336 0.246211,4.692211 -0.004,-0.439798 0.01,-0.662257 0,-1.190807 -0.03931,-2.135874 -0.127566,-3.616907 -0.20833,-4.282647 z m -5.880642,6.515117 c -0.09467,4.082579 -0.2343,6.153355 -0.532669,7.755631 -0.06226,0.429284 -0.03849,0.761859 0.02842,1.02509 0.281758,-1.603273 0.41998,-3.657639 0.511357,-7.729592 0.01018,-0.458063 -0.0012,-0.736057 -0.0075,-1.051129 z m -6.775529,1.183701 c -0.0566,0.108823 -0.07764,0.239182 -0.06869,0.440341 0.04507,1.013127 0.303042,2.257385 0.608421,2.93322 0.451811,0.99987 0.790939,1.761966 1.046394,2.362676 0.157656,0.373089 0.261336,0.710269 0.324341,1.020355 0.143968,-0.565188 0.07323,-1.291704 -0.324341,-2.232473 -0.255451,-0.600705 -0.59458,-1.362807 -1.046392,-2.362672 -0.230866,-0.510937 -0.434518,-1.34564 -0.53976,-2.161447 z M 14.54592,44.36394 c -1.209007,-0.111712 -1.764535,0.793164 -1.780302,2.795911 -0.0052,0.707516 -0.152704,1.623843 -0.326703,2.03834 -0.285618,0.680733 -0.346171,1.291267 -0.220157,1.912869 0.04975,-0.227038 0.118866,-0.459298 0.220157,-0.700756 0.173999,-0.414502 0.321613,-1.33082 0.326703,-2.038342 0.02106,-2.670329 1.004212,-3.38882 3.212581,-2.34847 0.627117,0.295432 1.394504,0.537405 1.706906,0.537405 0.312403,0 0.698988,0.19597 1.45122,0.43797 1.963886,0.631805 2.502195,0.265511 1.500932,-0.918558 -0.334701,0.01158 -0.822514,-0.07527 -1.500932,-0.293559 -0.752232,-0.241998 -1.138817,-0.437969 -1.45122,-0.437969 -0.312402,0 -1.079789,-0.241974 -1.706906,-0.537402 -0.552096,-0.260085 -1.029285,-0.4102 -1.432279,-0.447439 z m 26.339799,5.459244 c -0.186325,1.28245 -0.119914,1.725128 1.354163,1.848953 0.720267,0.09811 1.307308,0.577909 1.669022,1.077173 0.193663,-0.02303 0.31684,-0.04842 0.333808,-0.07574 0.28811,-0.464209 -0.632605,-2.026924 -2.00283,-2.213524 -0.84963,-0.07134 -1.218187,-0.256981 -1.354163,-0.636837 z"
       id="path5" />
  </g>
</svg>
