<?xml version="1.0" encoding="UTF-8" standalone="no"?>
<svg
   width="62"
   height="62"
   version="1.1"
   id="svg5"
   sodipodi:docname="nightsky.svg"
   inkscape:version="1.4.2 (unknown)"
   xmlns:inkscape="http://www.inkscape.org/namespaces/inkscape"
   xmlns:sodipodi="http://sodipodi.sourceforge.net/DTD/sodipodi-0.dtd"
   xmlns="http://www.w3.org/2000/svg"
   xmlns:svg="http://www.w3.org/2000/svg">
  <defs
     id="defs5" />
  <sodipodi:namedview
     id="namedview5"
     pagecolor="#ffffff"
     bordercolor="#000000"
     borderopacity="0.25"
     inkscape:showpageshadow="2"
     inkscape:pageopacity="0.0"
     inkscape:pagecheckerboard="0"
     inkscape:deskcolor="#d1d1d1"
     inkscape:zoom="5.9609375"
     inkscape:cx="38.836173"
     inkscape:cy="47.559633"
     inkscape:current-layer="svg5" />
  <g
     id="g5"
     transform="translate(-0.5,-1)">
    <ellipse
       style="opacity:0.2;stroke-width:0.999971"
       cx="31.5"
       cy="32.49123"
       id="circle1"
       rx="27.5"
       ry="27.50877" />
    <ellipse
       style="fill:#5a2ca0;stroke-width:0.999971"
       cx="31.5"
       cy="31.50877"
       id="circle2"
       rx="27.5"
       ry="27.50877" />
    <ellipse
       style="fill:#373e48;stroke-width:0.999971"
       cx="31.5"
       cy="31.50877"
       id="circle3"
       rx="20.624998"
       ry="20.631577" />
    <path
       style="opacity:0.1;fill:#ffffff;stroke-width:0.999971"
       d="M 31.499999,4 A 27.499999,27.50877 0 0 0 4,31.50877 27.499999,27.50877 0 0 0 4.0211162,32.08449 27.499999,27.50877 0 0 1 31.499999,4.982456 27.499999,27.50877 0 0 1 58.979373,31.915508 27.499999,27.50877 0 0 0 59,31.50877 27.499999,27.50877 0 0 0 31.499999,4 Z"
       id="path3" />
    <ellipse
       style="opacity:0.2;stroke-width:0.999971"
       cx="17.750004"
       cy="17.754389"
       id="circle4"
       rx="3.928571"
       ry="3.9298239" />
    <ellipse
       style="fill:#f2f2f2;stroke-width:0.999971;fill-opacity:1"
       cx="17.750004"
       cy="16.771935"
       id="circle5"
       rx="3.928571"
       ry="3.9298239" />
  </g>
</svg>
