<?xml version="1.0" encoding="UTF-8" standalone="no"?>
<svg
   width="62"
   height="62"
   version="1.1"
   id="svg9"
   sodipodi:docname="bioshock-infinite.svg"
   inkscape:version="1.4.2 (unknown)"
   xmlns:inkscape="http://www.inkscape.org/namespaces/inkscape"
   xmlns:sodipodi="http://sodipodi.sourceforge.net/DTD/sodipodi-0.dtd"
   xmlns="http://www.w3.org/2000/svg"
   xmlns:svg="http://www.w3.org/2000/svg">
  <defs
     id="defs9" />
  <sodipodi:namedview
     id="namedview9"
     pagecolor="#ffffff"
     bordercolor="#000000"
     borderopacity="0.25"
     inkscape:showpageshadow="2"
     inkscape:pageopacity="0.0"
     inkscape:pagecheckerboard="0"
     inkscape:deskcolor="#d1d1d1"
     inkscape:zoom="7.9479167"
     inkscape:cx="19.942333"
     inkscape:cy="23.591088"
     inkscape:current-layer="svg9" />
  <g
     id="g9"
     transform="matrix(1.375,0,0,1.3658537,-2,-2.4634148)"
     style="stroke-width:0.729704">
    <path
       style="fill:#fbecd0;stroke-width:0.729704;fill-opacity:1"
       d="m 24,4 v 40 a 20,20 0 0 0 4,-0.425781 V 4.40625 A 20,20 0 0 0 24,4 Z M 20,4.4257812 A 20,20 0 0 0 16,5.6953125 V 42.320312 a 20,20 0 0 0 4,1.273438 z M 32,5.6796875 V 42.304688 a 20,20 0 0 0 4,-2.330079 V 8.03125 A 20,20 0 0 0 32,5.6796875 Z M 12,8.0253906 A 20,20 0 0 0 8,12.041016 v 23.923828 a 20,20 0 0 0 4,4.003906 z M 40,12.035156 V 35.958984 A 20,20 0 0 0 44,24 20,20 0 0 0 40,12.035156 Z"
       id="path1" />
    <path
       style="opacity:0.2;stroke-width:0.729704"
       d="M 4.0116,24.5 C 4.0076,24.668 4,24.832 4,25 4,36.08 12.92,45 24,45 35.08,45 44,36.08 44,25 44,24.832 43.992,24.667 43.988,24.5 43.724,35.346 34.912,44 24,44 13.088,44 4.276,35.346 4.012,24.5 Z"
       id="path2" />
    <path
       style="fill:#a02c5a;stroke-width:0.729704"
       d="M 24,4 A 20,20 0 0 0 20,4.4257812 V 43.59375 A 20,20 0 0 0 24,44 Z m 4,0.40625 v 39.167969 a 20,20 0 0 0 4,-1.269531 V 5.6796875 A 20,20 0 0 0 28,4.40625 Z M 16,5.6953125 A 20,20 0 0 0 12,8.0253906 V 39.96875 a 20,20 0 0 0 4,2.351562 z M 36,8.03125 v 31.943359 a 20,20 0 0 0 4,-4.015625 V 12.035156 A 20,20 0 0 0 36,8.03125 Z M 8,12.041016 A 20,20 0 0 0 4,24 20,20 0 0 0 8,35.964844 Z"
       id="path3" />
    <path
       style="opacity:0.2;fill:#ffffff;stroke-width:0.729704"
       d="M 24,4 C 12.921,4 4.002,12.92 4.002,24 c 0,0.16772 -0.004,0.33328 0,0.5 C 4.2662,13.654 13.089,5 24,5 c 10.911,0 19.734,8.6536 19.998,19.5 0.004,-0.1667 0,-0.33228 0,-0.5 C 43.998,12.92 35.08,4 24,4 Z"
       id="path4" />
    <path
       style="opacity:0.1;stroke-width:0.729704"
       d="m 10.838692,16 -2.5346274,2.323892 c 0,0 1.4722095,2.461368 1.5091672,3.835392 0.042903,1.594056 -1.5091672,4.53897 -1.5091672,4.53897 -2.6372709,8.968014 12.6865724,5.090984 14.9086084,8.937819 L 24,37 24.787327,35.636073 c 2.222036,-3.846835 17.545879,0.03019 14.908608,-8.937819 0,0 -1.552069,-2.944914 -1.509166,-4.53897 0.03696,-1.374024 1.509166,-3.835392 1.509166,-3.835392 L 37.161308,16 24,16.02832 Z"
       id="path5" />
    <path
       style="fill:#7137c8;stroke-width:0.729704"
       d="m 10.838692,15 -2.5346274,2.323892 c 0,0 1.4722095,2.461368 1.5091672,3.835392 0.042903,1.594056 -1.5091672,4.53897 -1.5091672,4.53897 -2.6372709,8.968014 12.6865724,5.090984 14.9086084,8.937819 L 24,36 24.787327,34.636073 c 2.222036,-3.846835 17.545879,0.03019 14.908608,-8.937819 0,0 -1.552069,-2.944914 -1.509166,-4.53897 0.03696,-1.374024 1.509166,-3.835392 1.509166,-3.835392 L 37.161308,15 24,15.02832 Z"
       id="path6" />
    <path
       style="opacity:0.2;stroke-width:0.729704"
       d="M 24,18 26.163119,22.608515 31,23.347524 27.499999,26.934752 28.326237,32 23.999999,29.608515 19.673762,32 20.5,26.934751 17,23.347524 21.836881,22.608515 Z"
       id="path7" />
    <path
       style="fill:#00cccc;stroke-width:0.729704;fill-opacity:1"
       d="M 24,17 26.163119,21.608515 31,22.347524 27.499999,25.934752 28.326237,31 23.999999,28.608515 19.673762,31 20.5,25.934751 17,22.347524 21.836881,21.608515 Z"
       id="path8" />
    <path
       style="opacity:0.2;fill:#ffffff;stroke-width:0.729704"
       d="M 24,17 21.835938,21.609375 17,22.347656 17.849609,23.21875 21.835938,22.609375 24,18 26.164062,22.609375 30.150391,23.21875 31,22.347656 26.164062,21.609375 Z M 20.359375,26.792969 19.673828,31 19.853516,30.900391 20.5,26.935547 Z m 7.28125,0 L 27.5,26.935547 28.146484,30.900391 28.326172,31 Z"
       id="path9" />
  </g>
</svg>
