<?xml version="1.0" encoding="UTF-8" standalone="no"?>
<svg
   width="62"
   height="62"
   version="1"
   id="svg13"
   sodipodi:docname="ricochet-game.svg"
   inkscape:version="1.4.2 (unknown)"
   xml:space="preserve"
   xmlns:inkscape="http://www.inkscape.org/namespaces/inkscape"
   xmlns:sodipodi="http://sodipodi.sourceforge.net/DTD/sodipodi-0.dtd"
   xmlns="http://www.w3.org/2000/svg"
   xmlns:svg="http://www.w3.org/2000/svg"><defs
     id="defs13" /><sodipodi:namedview
     id="namedview13"
     pagecolor="#ffffff"
     bordercolor="#000000"
     borderopacity="0.25"
     inkscape:showpageshadow="2"
     inkscape:pageopacity="0.0"
     inkscape:pagecheckerboard="0"
     inkscape:deskcolor="#d1d1d1"
     inkscape:zoom="5"
     inkscape:cx="25.5"
     inkscape:cy="50.7"
     inkscape:window-width="1920"
     inkscape:window-height="998"
     inkscape:window-x="0"
     inkscape:window-y="0"
     inkscape:window-maximized="1"
     inkscape:current-layer="svg13" /><rect
     width="55.997971"
     height="55.969017"
     x="3.0020294"
     y="3.0000002"
     rx="13.001064"
     ry="12.994343"
     id="rect1"
     style="fill:#373e48;fill-opacity:1;stroke-width:0.99967" /><path
     d="m 3.0000281,45.004248 v 0.999411 C 3.0000281,53.202417 8.7996109,59 16.003093,59 H 45.996935 C 53.199417,59 59,53.203416 59,46.003659 V 45.004248 C 59,52.203006 53.200417,57.99859 45.996935,57.99859 H 16.003093 A 12.974067,12.967359 0 0 1 3.0000281,45.004248"
     opacity="0.35"
     id="path1"
     style="stroke-width:0.99967" /><path
     fill="#ffffff"
     d="m 3.0000281,17.026735 v -0.999411 c 0,-7.1987583 5.7995828,-12.9963419 13.0030649,-12.9963419 H 45.996935 C 53.199417,3.0309821 59,8.8275662 59,16.027324 v 0.999411 C 59,9.8279767 53.200417,4.032392 45.996935,4.032392 H 16.003093 A 12.974067,12.967359 0 0 0 3.0000281,17.026735"
     opacity="0.15"
     id="path2"
     style="stroke-width:0.99967" /><g
     id="g1"
     transform="translate(4.7023915,-62.406542)"><path
       d="m 26.297609,71.906543 c -8.393482,0 -15.683471,4.703065 -19.392578,11.615234 l 1.517578,0.759766 c 0,0 1.375,-2.75 6.875,-6.875 l 1.847656,2.271484 c 2.619372,-1.749915 5.765781,-2.771484 9.152344,-2.771484 2.778925,0 5.393953,0.696757 7.691406,1.910156 2.670717,1.410538 4.894431,4.034198 6.445313,6.615235 l 2.695312,-0.56836 c 0.621703,1.053565 2.417969,4.446826 2.417969,9.042969 0,4.125001 -2.75,6.974607 -2.75,6.974607 h -1.515625 c -1.376533,2.99546 -3.627913,5.40086 -6.417969,7.10547 -2.58071,1.53892 -5.541098,1.91838 -8.566406,1.91992 -9.112698,0 -17.035156,-6.48691 -17.035156,-15.599606 0.0041,-0.459105 0.02792,-0.917838 0.07031,-1.375 H 4.348388 c -0.03134,0.45769 -0.04812,0.916246 -0.05078,1.375 0.009,3.205586 0.717935,5.970336 2.078125,8.873046 l 2.046876,-1.02344 c 0,0 1.154654,4.43644 6.875,8.25 4.124999,2.75 11,2.75 11,2.75 v 2.75 c 3.993069,-0.003 7.895671,-1.10637 11.306641,-3.15625 0.309596,-0.18606 0.622761,-0.36658 0.923828,-0.56836 l -0.01367,-0.0195 c 5.889314,-3.94591 9.783201,-10.6343 9.783201,-18.255887 0,-3.470007 -0.826208,-6.739698 -2.257812,-9.658203 h 0.002 c -0.0042,-0.0087 -0.0094,-0.01674 -0.01367,-0.02539 -0.02312,-0.04699 -0.04297,-0.09577 -0.06641,-0.142578 l -0.0098,0.002 c -1.87694,-3.747828 -4.7779,-6.878527 -8.35548,-9.027391 -3.30534,-1.985343 -7.162331,-3.148438 -11.298828,-3.148438 z m 0,7.949219 v 4.125 c 5.315741,0 10.025,4.610041 10.025,9.925781 -9.58e-4,1.966986 -0.900052,3.386456 -2.025,5 l 2.103516,0.5 c 0,0 -0.478119,2.283537 -3.845704,4.124997 l -0.863281,-1.66601 c -1.591526,1.0819 -3.470094,2.03785 -5.394531,2.04101 v 1.30078 c 0.01347,0 -1.533949,-0.0469 -2.75,-0.30078 -1.803984,-0.37658 -2.75,-1.375 -2.75,-1.375 l 0.814453,-1.22265 c -3.047643,-1.69881 -4.937992,-4.913208 -4.939453,-8.402347 0,-3.327939 1.688317,-6.261688 4.255859,-7.990234 l -1.841797,-3.683594 c -1.696173,1.048253 -3.18272,2.44596 -4.304687,4.167969 l 1.890625,0.630859 c 0,0 -1.635559,1.498961 -2.400391,5.779297 -0.457762,2.561847 1.095704,5.988281 1.095703,5.988281 l -1.445312,0.607422 h -0.220703 c 2.185924,5.008587 7.130892,8.548047 12.595703,8.550777 2.806398,0 5.414325,-1.14451 7.589844,-2.58789 3.711281,-2.4623 6.160156,-6.67537 6.160156,-11.462887 -0.0041,-2.414861 -0.643914,-4.786051 -1.855469,-6.875 h -2.269531 c 0,0 -0.518284,-0.912516 -1.375,-1.898438 -0.739159,-0.850636 -2.027344,-1.433593 -2.027344,-1.433593 l 1.183594,-1.375 c -2.211405,-1.414655 -4.781073,-2.468204 -7.40625,-2.46875 z"
       style="opacity:0.2"
       id="path3" /><path
       d="m 26.297607,70.906543 4.71e-4,5.000257 c 2.778925,0 5.393482,0.696025 7.690935,1.909424 l 3.60669,-3.76222 c -3.30534,-1.985342 -7.161599,-3.147461 -11.298096,-3.147461 z m -7.210695,10.325929 c -1.696174,1.048253 -3.182964,2.44596 -4.304931,4.167969 l 1.890625,0.631102 c 0,0 -1.636048,1.498961 -2.40088,5.779297 -0.457762,2.561847 1.095704,5.98877 1.095704,5.98877 l -1.444824,0.606934 h -0.220214 c 2.185924,5.008586 7.130406,8.547766 12.595217,8.550496 2.806398,0 5.413835,-1.1452 7.589354,-2.58858 l 0.660644,-1.83692 h -1.992676 l -0.86206,-1.66504 c -1.591526,1.08191 -3.470825,2.03688 -5.395262,2.04004 v 1.3005 c 0.01347,0 -1.533951,-0.0466 -2.750002,-0.3005 -1.803984,-0.37658 -2.75,-1.375 -2.75,-1.375 l 0.813721,-1.22192 c -3.047643,-1.698813 -4.937261,-4.913938 -4.938722,-8.403077 0,-3.327939 1.68905,-6.260956 4.256592,-7.989502 z m 26.87427,1.847656 -2.964844,0.539795 c 0.497813,0.81189 2.55127,4.423308 2.55127,9.28662 0,4.125001 -2.75,6.975 -2.75,6.975 H 41.28296 c -1.391022,3.026987 -3.673511,5.454147 -6.504395,7.161717 l 2.825194,4.70776 c 6.398281,-3.84749 10.693849,-10.83467 10.693849,-18.844477 0,-3.535856 -0.854183,-6.86626 -2.336426,-9.826415 z"
       style="fill:#c83771"
       id="path4" /><path
       d="m 26.297607,70.906543 c -8.393482,0 -15.683229,4.702823 -19.392336,11.614992 l 1.517334,0.760008 c 0,0 1.375001,-2.75 6.875001,-6.875 l 1.848128,2.271742 C 19.765106,76.92837 22.911515,75.9068 26.298078,75.9068 Z m 11.298096,3.147461 -3.606219,3.76222 c 2.670717,1.410538 4.89396,4.033697 6.444842,6.614734 l 5.607423,-1.181642 C 44.168142,79.4263 41.227132,76.235213 37.595703,74.054004 Z m -11.298096,4.802039 v 4.125 c 5.315741,0 10.025002,4.60976 10.025002,9.9255 -9.58e-4,1.966986 -0.900052,3.386456 -2.025,5 l 2.103025,0.500001 c 0,0 -0.478119,2.283536 -3.845703,4.124996 l 1.332032,1.83692 c 3.711281,-2.46231 6.160645,-6.6744 6.160645,-11.461917 -0.0041,-2.414861 -0.644158,-4.786051 -1.855713,-6.875 h -2.269288 c 0,0 -0.518284,-0.912759 -1.375,-1.89868 C 33.808448,83.282227 32.52002,82.69878 32.52002,82.69878 l 1.184326,-1.375 c -2.211405,-1.414655 -4.781562,-2.467191 -7.406739,-2.467737 z m -21.948886,13.075 c -0.03134,0.45769 -0.04836,0.916246 -0.05102,1.375 0.009,3.205586 0.718332,5.970981 2.078522,8.873697 l 2.046387,-1.0232 c 0,0 1.154655,4.43644 6.875001,8.25 4.124999,2.75 11,2.75 11,2.75 v 2.75 c 4.3555,-0.004 8.611919,-1.29998 12.229981,-3.72485 l -3.386476,-4.35059 c -2.643594,1.68055 -5.710962,2.07384 -8.843507,2.07544 -9.112698,0 -17.03491,-6.4878 -17.03491,-15.600497 0.0041,-0.459105 0.02743,-0.917838 0.06982,-1.375 z"
       style="fill:#8d5fd3"
       id="path5" /></g></svg>
