<?xml version="1.0" encoding="UTF-8" standalone="no"?>
<svg
   width="62"
   height="62"
   version="1"
   id="svg3"
   sodipodi:docname="marsshooter.svg"
   inkscape:version="1.4.2 (unknown)"
   xmlns:inkscape="http://www.inkscape.org/namespaces/inkscape"
   xmlns:sodipodi="http://sodipodi.sourceforge.net/DTD/sodipodi-0.dtd"
   xmlns="http://www.w3.org/2000/svg"
   xmlns:svg="http://www.w3.org/2000/svg">
  <defs
     id="defs3" />
  <sodipodi:namedview
     id="namedview3"
     pagecolor="#ffffff"
     bordercolor="#000000"
     borderopacity="0.25"
     inkscape:showpageshadow="2"
     inkscape:pageopacity="0.0"
     inkscape:pagecheckerboard="0"
     inkscape:deskcolor="#d1d1d1"
     inkscape:zoom="11.921875"
     inkscape:cx="32"
     inkscape:cy="32"
     inkscape:current-layer="svg3" />
  <g
     id="g3"
     transform="translate(-2.4999938,-2.9998444)">
    <path
       style="opacity:0.2;stroke-width:0.999999"
       d="M 60.955549,33.302571 A 27.499987,27.471619 0 0 1 33.499987,59.886644 27.499987,27.471619 0 0 1 6.0465396,33.640684 27.499987,27.471619 0 0 0 6.0000017,34.528228 27.499987,27.471619 0 0 0 33.499987,61.999844 27.499987,27.471619 0 0 0 60.999973,34.528228 27.499987,27.471619 0 0 0 60.955547,33.302571 Z"
       id="path1" />
    <ellipse
       style="fill:#c83771;stroke-width:0.999999;fill-opacity:1"
       cx="33.499989"
       cy="33.471626"
       id="circle1"
       rx="27.499985"
       ry="27.471617" />
    <path
       style="opacity:0.2;stroke-width:0.999999"
       d="m 30.921102,6.1057649 a 27.522162,27.497633 0 0 0 -9.960695,2.8866172 c 0.138501,0.4400043 -0.02301,0.9364845 -0.529483,1.3748799 -0.34265,0.29666 -0.623546,0.758766 -0.623546,1.028479 0,0.824482 0.746253,2.090539 1.341175,2.274474 0.791942,0.244836 0.525441,1.088381 -0.491839,1.5548 -0.470207,0.216174 -1.04902,0.836563 -1.286557,1.38038 -0.237537,0.54382 -0.587914,1.080661 -0.776759,1.192341 -0.188897,0.111628 -0.344029,0.536799 -0.344029,0.945242 0,0.570346 0.260594,0.846846 1.11808,1.189591 0.614081,0.24545 1.348733,0.424267 1.634136,0.397425 1.638288,-0.154055 1.753118,0.799441 0.319828,2.663888 -0.760923,0.98983 -1.126757,1.23881 -1.644872,1.114415 -0.483585,-0.116126 -0.747882,0.02057 -0.967572,0.49946 -0.232244,0.506274 -0.611667,0.678705 -1.631449,0.749204 -1.002381,0.06924 -1.451648,0.272756 -1.827643,0.821718 -0.274098,0.400193 -0.670504,0.725025 -0.881577,0.725025 -0.211078,0 -0.706852,0.268359 -1.101967,0.596153 -0.804303,0.667304 -1.118351,0.734459 -1.400306,0.298072 -0.372605,-0.577452 -1.176678,-0.285553 -2.3732562,0.858772 -1.0581212,1.013181 -1.1864165,1.283927 -1.0267884,2.161735 0.284008,1.563391 1.1327068,2.95071 2.1017836,3.434456 0.845627,0.422216 0.862078,0.467758 0.349405,1.00967 -0.294956,0.311804 -0.800916,0.645899 -1.1234556,0.743835 -0.9315832,0.282843 -0.4072433,0.637606 1.2551596,0.848554 1.701356,0.21588 2.230139,0.832713 1.435236,1.672958 -0.443295,0.468581 -0.418335,0.555789 0.292963,1.00163 1.390082,0.87358 2.495201,0.338433 1.190863,-0.573219 -0.83858,-0.585909 -0.252354,-0.824929 0.978307,-0.399771 0.980593,0.33919 1.174582,0.319901 1.755067,-0.182607 1.189721,-1.029976 2.482924,0.493393 1.394929,1.643406 -0.692435,0.731924 -0.482568,1.61536 0.413911,1.737408 0.396088,0.05401 1.219085,0.422237 1.830331,0.819028 0.611225,0.396788 1.277201,0.722341 1.478236,0.722341 0.201039,0 0.768123,0.40252 1.260535,0.894222 0.99914,0.997617 1.55384,1.124293 1.83571,0.421601 0.338922,-0.844915 0.202581,-1.280268 -0.709565,-2.274476 -0.726203,-0.791571 -1.905591,-2.895714 -1.905591,-3.399551 0,-0.311613 1.199391,-0.04738 1.870639,0.410852 0.420094,0.286822 1.099827,0.656646 1.510496,0.824401 0.438387,0.179012 0.892125,0.734398 1.099279,1.342646 0.324679,0.953217 0.452615,1.036535 1.596499,1.036535 h 1.244405 l 0.188145,2.23408 c 0.226423,2.687363 0.442069,3.231603 1.365355,3.453276 0.680136,0.163295 1.405661,1.215442 1.405661,2.038167 0,0.218691 -0.489321,0.754345 -1.085832,1.18959 -0.7406,0.540371 -1.059858,0.999728 -1.010571,1.450082 0.06149,0.562282 -0.06595,0.649912 -0.862757,0.590775 -0.513988,-0.03824 -1.40467,0.1418 -1.978167,0.400106 -0.677682,0.305205 -1.412858,0.402931 -2.10178,0.279272 -0.792746,-0.142307 -1.061637,-0.08707 -1.061637,0.222881 0,0.227871 -0.276874,0.654759 -0.615482,0.947906 -0.837415,0.724986 -0.491395,1.108578 0.792876,0.878106 0.798226,-0.143241 1.109627,-0.07952 1.247089,0.263172 0.293049,0.73055 -0.449731,1.775713 -1.13959,1.603133 -0.43665,-0.109165 -0.646643,0.03953 -0.782114,0.555856 -0.04803,0.182859 -0.133651,0.337755 -0.236522,0.469932 a 27.522162,27.497633 0 0 0 4.354006,1.286256 c -0.137379,-0.263662 -0.293513,-0.501726 -0.446157,-0.609559 -0.709265,-0.50107 -0.234805,-1.800988 0.741809,-2.035457 0.994144,-0.238682 0.837541,-0.883545 -0.244589,-1.006986 -0.947097,-0.108046 -1.95674,-1.066488 -1.639493,-1.55749 0.212704,-0.329231 1.11979,-0.281238 2.953763,0.153058 0.828183,0.196143 1.395035,-0.197307 3.313881,-2.29584 1.111111,-1.215183 1.96489,-1.72129 2.902738,-1.72129 0.357156,0 1.632552,-0.32832 2.835632,-0.7304 2.271213,-0.759106 3.158484,-0.731692 3.074649,0.09661 -0.174026,1.723637 0.937449,1.666741 2.746924,-0.139645 0.754127,-0.752885 1.442518,-1.296661 1.531988,-1.211081 0.346143,0.331116 -0.276385,1.944126 -1.002527,2.596623 -0.920234,0.827001 -0.965877,1.34954 -0.155882,1.764253 0.443788,0.22719 0.632017,0.68877 0.701501,1.72397 l 0.09411,1.412469 h 1.150341 c 0.403538,0 0.737487,0.05532 1.007882,0.158429 A 27.522162,27.497633 0 0 0 60.999976,34.318645 c -0.421048,-0.898856 -0.390774,-1.442291 0,-2.054262 a 27.522162,27.497633 0 0 0 -0.123639,-1.54137 c -0.250959,-0.01141 -0.506451,-0.02295 -0.800934,-0.0108 -1.386526,0.05762 -2.574806,-0.488487 -2.574806,-1.184217 0,-0.146626 -0.491844,-0.752314 -1.093902,-1.345354 -0.681954,-0.671704 -1.032462,-1.264636 -0.929954,-1.573584 0.09303,-0.280219 -0.107824,-0.732327 -0.462285,-1.039222 -0.345089,-0.298748 -0.628921,-0.780232 -0.628921,-1.068745 0,-0.460673 -0.293476,-0.518541 -2.413487,-0.467246 l -2.41348,0.05909 0.04027,2.37643 c 0.07168,4.16314 0.692116,5.243798 2.60698,4.546201 0.876517,-0.319243 3.029981,-0.07755 3.641818,0.408174 0.221427,0.175836 0.542165,0.813633 0.712253,1.417842 0.170106,0.604207 0.800854,1.649857 1.402993,2.322703 1.219998,1.363461 1.314715,1.895391 0.615482,3.496219 -0.61004,1.396667 -1.266866,1.235658 -1.136896,-0.279271 l 0.0967,-1.127825 -1.032082,0.193349 c -0.571043,0.107496 -1.286812,0.529519 -1.607252,0.945243 -0.456783,0.592594 -0.670863,0.679996 -1.013263,0.408172 -0.238552,-0.189419 -0.432733,-0.589466 -0.432733,-0.886145 0,-0.29668 -0.294825,-0.626988 -0.65312,-0.735774 -0.358294,-0.108786 -0.849437,-0.649492 -1.091212,-1.203022 -0.386749,-0.885423 -0.377115,-1.156166 0.07256,-2.231536 0.456275,-1.090853 0.460762,-1.270814 0.04027,-1.672958 -0.385564,-0.368828 -0.584321,-0.380737 -1.091214,-0.0779 -0.509602,0.304441 -0.749322,0.281978 -1.354598,-0.123528 -0.404552,-0.271063 -1.109417,-0.494091 -1.566942,-0.494091 -0.928895,0 -1.209469,-0.451532 -1.209469,-1.944165 0,-1.378755 -0.823191,-1.879845 -2.78186,-1.6998 -1.360184,0.125026 -1.659965,0.03545 -2.757509,-0.808282 -0.677397,-0.520775 -1.747922,-1.775324 -2.381294,-2.79016 -0.633412,-1.014727 -1.31486,-2.074884 -1.513188,-2.355065 -0.28674,-0.40506 -0.217025,-0.793834 0.344028,-1.898521 l 0.706872,-1.388314 -1.494367,0.2014 c -2.659277,0.359311 -3.197018,0.703642 -2.05341,1.315805 0.445374,0.238424 0.46483,0.360917 0.120952,0.757264 -0.225259,0.25962 -0.33124,0.67014 -0.233832,0.913005 0.09741,0.242867 -0.02571,0.814375 -0.274143,1.270157 -0.248527,0.455785 -0.456679,1.095422 -0.464978,1.423217 -0.02613,1.025281 -1.782526,1.839888 -3.738568,1.732032 -2.964345,-0.163441 -3.204638,-0.116716 -4.257253,0.859298 -1.315815,1.219988 -1.485857,1.788872 -0.873513,2.921522 0.594163,1.099121 1.647182,1.537772 3.472451,1.447389 1.63236,-0.08088 1.816969,0.063 1.443306,1.141258 -0.317203,0.915206 -1.383246,1.268086 -2.104474,0.6955 -0.556075,-0.441486 -2.473186,-0.10033 -3.06131,0.54513 -0.246559,0.270576 -0.612412,0.979255 -0.811694,1.573583 -0.344025,1.026001 -0.444311,1.088355 -1.986211,1.237924 -1.538255,0.149247 -1.686028,0.100038 -2.792439,-0.918379 -1.235131,-1.136795 -1.44434,-2.004558 -0.849317,-3.501719 0.263409,-0.662735 0.459899,-0.770506 1.163791,-0.641796 1.395416,0.255181 1.945901,-0.229519 1.945901,-1.718601 0,-0.722087 -0.140449,-1.397112 -0.311784,-1.49841 -0.171274,-0.101287 -0.311785,-0.483958 -0.311785,-0.851241 0,-0.367284 -0.175532,-0.839564 -0.389714,-1.047279 -0.312144,-0.302731 -0.267027,-0.464689 0.231143,-0.816342 0.341826,-0.241282 0.903597,-0.40373 1.247092,-0.362524 0.343519,0.04116 1.290834,-0.106986 2.107158,-0.327601 1.179517,-0.318761 1.525873,-0.559346 1.685208,-1.178845 0.302702,-1.176984 1.041629,-2.121338 1.661007,-2.121338 0.978728,0 0.998756,-2.299014 0.04845,-5.641877 -0.141842,-0.494117 -0.527152,-0.808647 -1.210972,-0.977862 -0.552563,-0.137065 -1.153818,-0.513785 -1.335883,-0.837833 -0.179951,-0.324049 -0.512336,-0.588026 -0.736752,-0.588026 -0.224408,0 -0.662835,-0.268355 -0.972947,-0.596149 -0.312143,-0.32995 -0.958024,-0.596149 -1.448684,-0.596149 -1.162705,0 -1.181989,-0.79997 -0.0295,-1.221823 1.218257,-0.445929 3.113602,0.13859 3.571953,1.100985 0.621489,1.304845 1.310244,0.760346 1.531989,-1.211086 0.27427,-2.4384032 1.115664,-3.1391694 3.770959,-3.1391694 h 1.908274 L 31.546393,6.9972278 C 31.285987,6.7366347 31.070047,6.4180851 30.91973,6.1056696 Z m 9.893373,0.8646736 c -0.05293,0.04842 -0.105226,0.087886 -0.158571,0.1423214 -0.638135,0.6510383 -0.937301,0.7438535 -1.924392,0.5934625 -1.722823,-0.2624965 -1.501099,0.4305916 0.405847,1.2674717 1.031233,0.4525689 1.693608,0.9684245 1.919015,1.4903519 1.087567,2.518146 1.835811,3.873781 2.211934,4.011903 0.760203,0.279059 1.212795,-0.281448 1.381483,-1.713227 0.19359,-1.642777 0.750343,-1.991045 1.749691,-1.092929 0.387808,0.348523 0.929317,0.63374 1.204093,0.63374 0.853631,0 1.486305,0.342659 1.486305,0.805594 0,0.243988 0.288052,0.831738 0.642367,1.307744 0.52095,0.699859 0.87512,0.867362 1.849149,0.867362 1.195393,0 1.929262,0.223449 3.426936,1.049963 0.02322,0.01274 0.04649,0.01725 0.06982,0.02948 A 27.522162,27.497633 0 0 0 40.817504,6.9701106 Z M 6.0052896,33.33644 a 27.522162,27.497633 0 0 0 -0.0053,0.118451 27.522162,27.497633 0 0 0 0.537529,5.281661 C 7.5346078,39.142416 7.8101043,38.981575 7.91363,38.054483 7.9670651,37.575433 8.2178365,37.031316 8.4726705,36.8434 8.8662432,36.553621 8.7953205,36.405558 7.988921,35.855601 7.4668439,35.500249 6.9521792,34.878379 6.8465362,34.474377 6.7440692,34.085178 6.397925,33.657907 6.0052051,33.336397 Z m 8.6624934,9.08987 c -0.256716,-0.02701 -0.567125,0.111344 -0.911132,0.440386 -0.727832,0.69624 -0.617933,2.095045 0.206955,2.647811 0.94475,0.633037 1.310478,0.448655 1.42986,-0.719654 0.147401,-1.441533 -0.160867,-2.30917 -0.725676,-2.368394 z m 4.671147,4.156795 c -0.281086,0.009 -0.590709,0.210783 -0.900375,0.633741 -0.328638,0.448819 -0.418912,1.027627 -0.292964,1.906575 0.154834,1.080191 0.08733,1.310833 -0.47842,1.600447 -0.726795,0.372088 -0.882273,1.477321 -0.287587,2.046206 0.592318,0.566618 1.15644,0.418579 1.359976,-0.35715 0.289895,-1.104855 1.908492,-1.235215 3.015584,-0.241687 0.471135,0.42283 0.85738,0.637716 0.85738,0.475312 0,-0.162344 -0.491546,-0.751768 -1.091213,-1.30775 -0.918478,-0.851598 -1.088523,-1.215139 -1.088523,-2.312125 0,-1.548965 -0.475518,-2.463156 -1.093898,-2.443692 z m -7.670638,3.549944 a 27.522162,27.497633 0 0 0 0.636988,0.802911 c -0.187572,-0.287669 -0.401824,-0.566872 -0.637031,-0.801662 z m 9.275389,4.221309 c -0.140071,0.04805 -0.198886,0.22244 -0.198886,0.529015 0,0.310257 -0.198608,0.636147 -0.440781,0.725029 -0.321563,0.117966 -0.396148,0.490852 -0.271454,1.380254 0.02333,0.166635 0.02944,0.300039 0.03768,0.437698 a 27.522162,27.497633 0 0 0 1.144968,0.58809 c -0.01877,-0.475605 0.06806,-1.035605 0.31714,-1.737406 0.422359,-1.190098 0.437453,-1.488892 0.09411,-1.697113 -0.323108,-0.195931 -0.542609,-0.273556 -0.682674,-0.225567 z"
       id="path2" />
    <path
       style="opacity:0.2;fill:#ffffff;stroke-width:0.999999"
       d="M 33.498954,5.9998447 A 27.501017,27.471619 0 0 0 6.0454508,32.584083 27.501017,27.471619 0 0 1 6.0185941,31.872116 27.501017,27.471619 0 0 0 6.0000009,32.414863 27.501017,27.471619 0 0 0 6.0454498,33.640684 27.501017,27.471619 0 0 1 33.498953,7.0564456 27.501017,27.471619 0 0 1 60.956588,33.302243 a 27.501017,27.471619 0 0 0 0.04341,-0.88738 27.501017,27.471619 0 0 0 -0.02688,-0.524175 27.501017,27.471619 0 0 1 -0.01654,0.354954 A 27.501017,27.471619 0 0 0 33.498953,5.9998447 Z"
       id="path3" />
  </g>
</svg>
