<?xml version="1.0" encoding="UTF-8" standalone="no"?>
<svg
   width="62"
   height="62"
   version="1.1"
   id="svg29"
   sodipodi:docname="shadps4.svg"
   inkscape:version="1.4.2 (unknown)"
   xmlns:inkscape="http://www.inkscape.org/namespaces/inkscape"
   xmlns:sodipodi="http://sodipodi.sourceforge.net/DTD/sodipodi-0.dtd"
   xmlns:xlink="http://www.w3.org/1999/xlink"
   xmlns="http://www.w3.org/2000/svg"
   xmlns:svg="http://www.w3.org/2000/svg">
  <defs
     id="defs29">
    <linearGradient
       id="linearGradient29"
       inkscape:collect="always">
      <stop
         style="stop-color:#5a2ca0;stop-opacity:1"
         offset="0"
         id="stop29" />
      <stop
         style="stop-color:#466086;stop-opacity:1;"
         offset="1"
         id="stop30" />
    </linearGradient>
    <linearGradient
       inkscape:collect="always"
       xlink:href="#linearGradient29"
       id="linearGradient30"
       x1="30.782633"
       y1="60"
       x2="30.193521"
       y2="5"
       gradientUnits="userSpaceOnUse"
       gradientTransform="matrix(0.98214286,0,0,0.98245614,-0.42857152,-0.92982455)" />
    <linearGradient
       id="paint1_linear_11_148"
       x1="12.6932"
       y1="20.5312"
       x2="12.6932"
       y2="5.6079102"
       gradientUnits="userSpaceOnUse"
       gradientTransform="matrix(2.6803705,0,0,2.6803705,-3.022395,-3.5399929)">
      <stop
         stop-color="#FD5900"
         id="stop4" />
      <stop
         offset="1"
         stop-color="#FFDE00"
         id="stop5" />
    </linearGradient>
  </defs>
  <sodipodi:namedview
     id="namedview29"
     pagecolor="#ffffff"
     bordercolor="#000000"
     borderopacity="0.25"
     inkscape:showpageshadow="2"
     inkscape:pageopacity="0.0"
     inkscape:pagecheckerboard="0"
     inkscape:deskcolor="#d1d1d1"
     inkscape:zoom="8"
     inkscape:cx="35.8125"
     inkscape:cy="26.9375"
     inkscape:window-width="1920"
     inkscape:window-height="998"
     inkscape:window-x="0"
     inkscape:window-y="0"
     inkscape:window-maximized="1"
     inkscape:current-layer="svg29" />
  <rect
     style="opacity:0.2;stroke-width:0.9823"
     width="55"
     height="55.017544"
     x="3.5"
     y="3.9824562"
     ry="13.754386"
     id="rect1" />
  <rect
     style="fill:url(#linearGradient30);stroke-width:0.9823"
     width="55"
     height="55.017544"
     x="3.5"
     y="3"
     ry="13.754386"
     id="rect2" />
  <path
     style="opacity:0.1;fill:#ffffff;stroke-width:0.9823"
     d="M 17.25,3 C 9.6324999,3 3.4999999,9.1344561 3.4999999,16.754386 v 0.982456 c 0,-7.61993 6.1325,-13.7543858 13.7500001,-13.7543858 h 27.5 c 7.6175,0 13.75,6.1344558 13.75,13.7543858 V 16.754386 C 58.5,9.1344561 52.3675,3 44.75,3 Z"
     id="path28" />
  <g
     id="g1"
     transform="matrix(0.98214279,0,0,0.96491217,1.2177372,-2.3068366)"
     style="stroke-width:1.02722">
    <path
       style="opacity:0.2;stroke-width:1.02722"
       d="m 42.382352,6.4998131 -1.058202,9.1820319 -1.200391,10.417968 9.622266,-4.169922 8.49298,-3.759957 -0.05615,-0.454364 c -0.05134,-0.339147 -0.07555,-0.504722 -0.126349,-0.756809 L 50.946416,11.514657 44.187041,6.4998131 Z m 2.36797,3.9046869 4.52539,3.357813 4.528125,3.357813 -5.173437,2.242187 -5.170704,2.239453 0.645313,-5.597266 z M 2.323759,42.005673 v 2.95859 l 0.2460937,0.0848 12.8679693,4.40235 -4.11797,12.01211 -0.329044,1.00835 c 0.89571,0.337929 1.252219,0.453037 2.196344,0.707321 v 0 l 0.50868,0.104117 5.299411,-15.573738 -15.5175777,-5.31016 z"
       id="path2"
       sodipodi:nodetypes="ccccccccccccccccccccccccccccc" />
    <path
       stroke="#139ffb"
       stroke-linecap="square"
       stroke-width="2.626"
       style="opacity:0.2;fill:none;stroke:#000000;stroke-width:3.08137"
       d="m 55.557818,43.064633 -6.658443,3.95489 3.859565,6.71435 -3.954893,-6.65844 -6.714348,3.85956 6.658444,-3.95489 -3.859559,-6.714347 3.954885,6.658437 z"
       id="path3-3" />
    <path
       style="fill:#a17cdb;fill-opacity:1;stroke-width:1.02722"
       d="m 42.356338,5.4998126 -1.057515,9.1760694 -1.19961,10.411201 9.603192,-4.167213 8.404897,-3.709022 -0.10159,-0.504173 c -0.04501,-0.204692 -0.113166,-0.490164 -0.182354,-0.756981 L 50.914845,10.511401 44.159858,5.4998126 Z m 2.366432,3.9021514 4.522451,3.355632 4.525186,3.355632 -5.170078,2.240733 -5.167348,2.237995 0.644895,-5.593628 z M 2.3237588,40.982614 v 2.95667 l 0.2459339,0.08475 12.8596123,4.399493 -4.115297,12.004309 -0.330088,1.03562 c 1.426123,0.747053 2.628421,0.798 2.628421,0.798 v 0 L 13.9619,61.335011 18.984416,46.682812 3.4769149,41.376101 Z"
       id="path4-6"
       sodipodi:nodetypes="cccccccccccccccccccccccsccccc" />
    <path
       stroke="#139ffb"
       stroke-linecap="square"
       stroke-width="2.626"
       style="fill:none;stroke-width:3.08137;stroke:#a17cdb;stroke-opacity:1"
       d="m 55.557818,42.064633 -6.658443,3.95489 3.859565,6.71435 -3.954893,-6.65844 -6.714348,3.85956 6.658444,-3.95489 -3.859559,-6.714347 3.954885,6.658437 z"
       id="path5-7" />
    <path
       stroke="#ffffff"
       stroke-linecap="square"
       stroke-linejoin="round"
       stroke-width="2.32"
       style="opacity:0.2;fill:none;stroke:#000000;stroke-width:5.13616"
       d="m 35.823759,45.999813 v -28 l -21,22 h 27"
       id="path6-5" />
    <path
       stroke="#ffffff"
       stroke-linecap="square"
       stroke-linejoin="round"
       stroke-width="2.32"
       style="fill:none;stroke-width:5.13616"
       d="m 35.823759,44.999813 v -28 l -21,22 h 27"
       id="path7" />
    <path
       stroke="#139ffb"
       stroke-linecap="round"
       stroke-width="2.192"
       style="opacity:0.2;fill:none;stroke:#000000;stroke-width:3.08167"
       d="m 20.823473,20.000009 a 6.9999136,6.99975 0 0 1 -6.972238,6.999749 6.9999136,6.99975 0 0 1 -7.0272538,-6.944441 6.9999136,6.99975 0 0 1 6.9165608,-7.054725 6.9999136,6.99975 0 0 1 7.081935,6.888468"
       stop-color="#000000"
       id="path8-3" />
    <path
       stroke="#139ffb"
       stroke-linecap="round"
       stroke-width="2.192"
       style="fill:none;stroke-width:3.08167;stroke:#a17cdb;stroke-opacity:1"
       d="m 20.823473,19.000009 a 6.9999136,6.99975 0 0 1 -6.972238,6.999749 6.9999136,6.99975 0 0 1 -7.0272538,-6.944441 6.9999136,6.99975 0 0 1 6.9165608,-7.054725 6.9999136,6.99975 0 0 1 7.081935,6.888468"
       stop-color="#000000"
       id="path9" />
    <path
       style="opacity:0.2;fill:#ffffff;stroke-width:1.02722"
       d="m 42.382353,5.4998131 -1.058594,9.1816409 -1.199219,10.417968 0.121094,-0.05273 1.078125,-9.365234 1.058594,-9.1816409 h 1.804687 l 6.759766,5.0156249 7.116113,5.447899 c 0.0057,0.08753 -0.08429,-0.370629 0,0 v 0 0 c -0.05721,-0.256665 -0.165071,-0.726166 -0.239561,-1.013647 L 50.437591,10.204905 44.18704,5.4998131 Z M 13.722197,10.499813 c -4.663365,0.05539 -8.4353953,3.904867 -8.398438,8.568359 0.00116,0.14242 0.017237,0.281172 0.025391,0.421875 0.2652095,-4.397998 3.904876,-7.937166 8.373047,-7.990234 4.543241,-0.05381 8.316203,3.514109 8.576171,8.009766 0.01021,-0.169666 0.02539,-0.337648 0.02539,-0.509766 -0.0077,-0.0079 -0.01554,-0.01571 -0.02344,-0.02344 0.0086,-0.03683 0.01573,-0.07396 0.02148,-0.111328 -0.0738,-4.662942 -3.936348,-8.42046 -8.599602,-8.365232 z m 39.230468,5.990234 -4.322265,1.873047 -5.048829,2.185547 -0.121093,1.052734 5.169922,-2.238281 5.173828,-2.242187 z M 8.34915,19.46661 c -0.017852,0.189197 -0.026932,0.381722 -0.025391,0.576172 0.024049,3.046367 2.474918,5.469025 5.521484,5.457031 3.046591,-0.01205 5.478539,-2.453513 5.478516,-5.5 0.0056,-0.01441 0.0115,-0.02874 0.01758,-0.04297 -0.0068,-0.01487 -0.01327,-0.02984 -0.01953,-0.04492 -0.002,-0.124914 -0.01344,-0.246516 -0.02344,-0.36914 -0.26863,2.788776 -2.589684,4.945709 -5.453126,4.95703 -2.903089,0.01143 -5.259232,-2.19011 -5.496093,-5.033203 z m 37.828125,19.033203 -2.589844,1.513672 0.429687,0.748048 2.160157,-1.26172 0.01172,0.01758 0.03711,0.06445 3.152344,5.30469 5.43164,-3.12305 1.080078,1.84766 0.351563,-0.20899 0.06445,-0.0371 0.01758,-0.0117 -1.513672,-2.58984 -5.43164,3.12305 -3.152344,-5.304692 -0.03711,-0.06445 z m -43.853516,2.50586 v 1 l 1.1542969,0.39453 15.2109371,5.20313 0.306641,-0.89454 -15.5175781,-5.30859 z m 43.958984,4.69336 -4.876953,2.89844 -0.06445,0.0371 -0.01758,0.0117 0.433594,0.74218 4.953125,-2.94336 z m 5.082032,1.60156 -0.427735,0.25391 2.69336,4.68359 0.429687,-0.25195 z m -36.234375,2.04492 -3.810547,11.11719 -0.335933,1.000753 0.292801,0.10588 4.160319,-12.118343 z"
       id="path10"
       sodipodi:nodetypes="ccccccccccccccccscccccccsscccccccccccccccccccccccccccccccccccccccccccccccccccccccccc" />
  </g>
</svg>
