<?xml version="1.0" encoding="UTF-8" standalone="no"?>
<svg
   width="62"
   height="62"
   version="1.1"
   id="svg7"
   sodipodi:docname="nostian.svg"
   inkscape:version="1.4 (unknown)"
   xmlns:inkscape="http://www.inkscape.org/namespaces/inkscape"
   xmlns:sodipodi="http://sodipodi.sourceforge.net/DTD/sodipodi-0.dtd"
   xmlns:xlink="http://www.w3.org/1999/xlink"
   xmlns="http://www.w3.org/2000/svg"
   xmlns:svg="http://www.w3.org/2000/svg">
  <defs
     id="defs7">
    <linearGradient
       inkscape:collect="always"
       xlink:href="#linearGradient8"
       id="linearGradient10"
       x1="31.5"
       y1="59.017544"
       x2="31.5"
       y2="4.9824562"
       gradientUnits="userSpaceOnUse"
       gradientTransform="translate(-0.5,-0.5087719)" />
    <linearGradient
       id="linearGradient8"
       inkscape:collect="always">
      <stop
         style="stop-color:#2d3d53;stop-opacity:1;"
         offset="0"
         id="stop8" />
      <stop
         style="stop-color:#cd87de;stop-opacity:1"
         offset="1"
         id="stop10" />
    </linearGradient>
    <linearGradient
       id="paint3_linear_332_93"
       x1="37.304401"
       y1="24.2272"
       x2="23.255199"
       y2="12.9039"
       gradientUnits="userSpaceOnUse"
       gradientTransform="matrix(1,0,0,1.0089403,-0.9999998,-0.28624446)">
      <stop
         stop-color="#731FFF"
         id="stop9" />
      <stop
         offset="0.905415"
         stop-color="#EB1AFF"
         id="stop10-5" />
    </linearGradient>
    <linearGradient
       id="paint1_linear_332_93"
       x1="2"
       y1="61.696899"
       x2="14.6751"
       y2="28.2421"
       gradientUnits="userSpaceOnUse"
       gradientTransform="matrix(0.91578336,0,0,1,1.7216248,-7.2011443)">
      <stop
         stop-color="#731FFF"
         id="stop5" />
      <stop
         offset="0.905415"
         stop-color="#EB1AFF"
         id="stop6" />
    </linearGradient>
    <linearGradient
       id="paint2_linear_332_93"
       x1="54.645401"
       y1="46.748501"
       x2="26.243099"
       y2="10.4978"
       gradientUnits="userSpaceOnUse"
       gradientTransform="matrix(0.91578336,0,0,1,1.7216248,-7.2011443)">
      <stop
         offset="0.118093"
         stop-color="#731FFF"
         id="stop7" />
      <stop
         offset="0.905415"
         stop-color="#EB1AFF"
         id="stop8-3" />
    </linearGradient>
    <linearGradient
       id="linearGradient4"
       x1="16"
       x2="47"
       y1="16"
       y2="48"
       gradientUnits="userSpaceOnUse"
       gradientTransform="matrix(1.1935485,0,0,1.1875,-6.5967725,-6.999994)">
      <stop
         stop-color="#ffffff"
         offset="0"
         id="stop1" />
      <stop
         stop-color="#ffffff"
         offset=".45161"
         id="stop2" />
      <stop
         stop-color="#fef0cb"
         offset=".59375"
         id="stop3" />
      <stop
         stop-color="#ffbcc3"
         offset="1"
         id="stop4" />
    </linearGradient>
  </defs>
  <sodipodi:namedview
     id="namedview7"
     pagecolor="#ffffff"
     bordercolor="#000000"
     borderopacity="0.25"
     inkscape:showpageshadow="2"
     inkscape:pageopacity="0.0"
     inkscape:pagecheckerboard="0"
     inkscape:deskcolor="#d1d1d1"
     inkscape:zoom="8.3085046"
     inkscape:cx="36.16776"
     inkscape:cy="40.982104"
     inkscape:window-width="1920"
     inkscape:window-height="998"
     inkscape:window-x="0"
     inkscape:window-y="0"
     inkscape:window-maximized="1"
     inkscape:current-layer="svg7"
     showgrid="false">
    <inkscape:grid
       id="grid1"
       units="px"
       originx="0"
       originy="0"
       spacingx="1"
       spacingy="1"
       empcolor="#0099e5"
       empopacity="0.30196078"
       color="#0099e5"
       opacity="0.14901961"
       empspacing="5"
       enabled="true"
       visible="false" />
  </sodipodi:namedview>
  <g
     id="g7"
     transform="translate(0,-0.4912281)">
    <rect
       style="opacity:0.2;stroke-width:0.9823"
       width="55"
       height="55.017544"
       x="3.5"
       y="4.4736843"
       rx="8.25"
       ry="8.2526312"
       id="rect1" />
    <rect
       style="fill:url(#linearGradient10);stroke-width:0.9823"
       width="55"
       height="55.017544"
       x="3.5"
       y="3.4912281"
       rx="8.25"
       ry="8.2526312"
       id="rect2" />
    <path
       style="opacity:0.1;fill:#ffffff;stroke-width:0.9823"
       d="M 11.748466,3.4912281 C 7.1779652,3.4912281 3.5,7.1703661 3.5,11.742325 v 0.982456 c 0,-4.5719589 3.6779652,-8.2510969 8.248466,-8.2510969 h 38.503068 c 4.5705,0 8.248466,3.679138 8.248466,8.2510969 v -0.982456 c 0,-4.5719589 -3.677966,-8.2510969 -8.248466,-8.2510969 z"
       id="path4-3" />
  </g>
  <circle
     cx="1018.3326"
     cy="1321.1312"
     fill="#fbfbfb"
     fill-opacity="0.432624"
     r="30.384001"
     id="circle4"
     style="stroke-width:101.28" />
  <ellipse
     cx="83.115273"
     cy="12.233553"
     fill="#fbfbfb"
     fill-opacity="0.432624"
     id="circle4-3"
     style="stroke-width:1.28996"
     rx="0.38999993"
     ry="0.38399988" />
  <path
     d="m 36.366297,10.491228 c -12.075005,0 -28.3662971,7.620092 -28.3662971,20.955254 0,6.667561 8.6249991,10.477616 8.6249991,10.477616 0,0 -5.75,-5.143566 -5.75,-10.477616 0,-8.001095 13.41704,-14.287673 21.467044,-14.287673 4.024996,0 12.074615,1.050845 12.074615,-3.047292 0,-2.667031 -5.050318,-3.620289 -8.050361,-3.620289 z M 49.208325,21.92135 c 0,0 1.916667,2.85792 1.916667,10.859019 0,8.001086 -14.785966,15.260637 -22.809069,12.514728 -5.564251,-1.904367 -11.690924,-2.230326 -11.690924,1.8678 0,2.667039 4.756178,3.678444 7.666669,4.401642 C 40.391675,55.565094 54,46.115512 54,32.780369 54,26.112787 49.208325,21.92135 49.208325,21.92135 Z m -18.208316,5.715075 a 5.7500013,3.8100447 0 0 0 -5.750012,3.810057 5.7500013,3.8100447 0 0 0 5.750012,3.810035 5.7500013,3.8100447 0 0 0 5.749985,-3.810035 5.7500013,3.8100447 0 0 0 -5.749985,-3.810057 z"
     style="fill:#ffffff;stroke-width:0.955377"
     id="path10" />
</svg>
