<?xml version="1.0" encoding="UTF-8" standalone="no"?>
<!-- Created with Inkscape (http://www.inkscape.org/) -->

<svg
   width="62"
   height="62"
   viewBox="0 0 62 62"
   version="1.1"
   id="svg1"
   inkscape:version="1.4.2 (unknown)"
   sodipodi:docname="org.kde.karp.svg"
   xmlns:inkscape="http://www.inkscape.org/namespaces/inkscape"
   xmlns:sodipodi="http://sodipodi.sourceforge.net/DTD/sodipodi-0.dtd"
   xmlns:xlink="http://www.w3.org/1999/xlink"
   xmlns="http://www.w3.org/2000/svg"
   xmlns:svg="http://www.w3.org/2000/svg">
  <sodipodi:namedview
     id="namedview1"
     pagecolor="#ffffff"
     bordercolor="#000000"
     borderopacity="0.25"
     inkscape:showpageshadow="2"
     inkscape:pageopacity="0.0"
     inkscape:pagecheckerboard="0"
     inkscape:deskcolor="#d1d1d1"
     inkscape:document-units="px"
     inkscape:zoom="7.5994534"
     inkscape:cx="23.62012"
     inkscape:cy="25.725534"
     inkscape:window-width="1920"
     inkscape:window-height="994"
     inkscape:window-x="0"
     inkscape:window-y="0"
     inkscape:window-maximized="1"
     inkscape:current-layer="layer1" />
  <defs
     id="defs1">
    <linearGradient
       id="linearGradient3"
       inkscape:collect="always">
      <stop
         style="stop-color:#008080;stop-opacity:1"
         offset="0"
         id="stop4" />
      <stop
         style="stop-color:#00adad;stop-opacity:1;"
         offset="1"
         id="stop5" />
    </linearGradient>
    <linearGradient
       id="linearGradient1"
       inkscape:collect="always">
      <stop
         style="stop-color:#566c80;stop-opacity:1;"
         offset="0"
         id="stop1" />
      <stop
         style="stop-color:#1f232e;stop-opacity:1;"
         offset="0.81818175"
         id="stop3" />
      <stop
         style="stop-color:#1f232e;stop-opacity:1;"
         offset="1"
         id="stop2" />
    </linearGradient>
    <radialGradient
       id="paint664_radial_890_11"
       cx="0"
       cy="0"
       r="1"
       gradientUnits="userSpaceOnUse"
       gradientTransform="matrix(-16.000099,-9.999913,9.999913,-16.000099,583,171)">
      <stop
         offset="0.42141"
         stop-color="#B7C6CD"
         id="stop2071" />
      <stop
         offset="1"
         stop-color="#EFF2F6"
         id="stop2072" />
    </radialGradient>
    <linearGradient
       id="paint665_linear_890_11"
       x1="605"
       y1="180"
       x2="601.466"
       y2="162.72301"
       gradientUnits="userSpaceOnUse">
      <stop
         stop-color="#5200FF"
         id="stop2073" />
      <stop
         offset="1"
         stop-color="#0085FF"
         id="stop2074" />
    </linearGradient>
    <linearGradient
       id="paint666_linear_890_11"
       x1="567"
       y1="181"
       x2="562.11798"
       y2="174.183"
       gradientUnits="userSpaceOnUse">
      <stop
         stop-color="#5200FF"
         id="stop2075" />
      <stop
         offset="0.670391"
         stop-color="#0085FF"
         id="stop2076" />
    </linearGradient>
    <linearGradient
       id="paint667_linear_890_11"
       x1="605"
       y1="180"
       x2="597.32001"
       y2="174.24001"
       gradientUnits="userSpaceOnUse">
      <stop
         stop-color="#5200FF"
         id="stop2077" />
      <stop
         offset="1"
         stop-color="#0085FF"
         id="stop2078" />
    </linearGradient>
    <linearGradient
       id="paint668_linear_890_11"
       x1="567"
       y1="180"
       x2="561.23999"
       y2="172.32001"
       gradientUnits="userSpaceOnUse">
      <stop
         stop-color="#5200FF"
         id="stop2079" />
      <stop
         offset="1"
         stop-color="#0085FF"
         id="stop2080" />
    </linearGradient>
    <linearGradient
       id="paint669_linear_890_11"
       x1="607"
       y1="179"
       x2="602.50598"
       y2="171.80901"
       gradientUnits="userSpaceOnUse">
      <stop
         stop-color="#5200FF"
         id="stop2081" />
      <stop
         offset="1"
         stop-color="#0085FF"
         id="stop2082" />
    </linearGradient>
    <linearGradient
       id="paint670_linear_890_11"
       x1="607"
       y1="217"
       x2="568.82599"
       y2="170.01601"
       gradientUnits="userSpaceOnUse">
      <stop
         stop-color="#5200FF"
         id="stop2083" />
      <stop
         offset="1"
         stop-color="#0085FF"
         id="stop2084" />
    </linearGradient>
    <radialGradient
       id="paint671_radial_890_11"
       cx="0"
       cy="0"
       r="1"
       gradientUnits="userSpaceOnUse"
       gradientTransform="matrix(0,20,-16,0,583,187)">
      <stop
         offset="0.869716"
         stop-color="#EFF2F6"
         id="stop2085" />
      <stop
         offset="1"
         stop-color="#B7C6CD"
         id="stop2086" />
    </radialGradient>
    <linearGradient
       id="paint451_linear_890_11"
       x1="55"
       y1="461"
       x2="111"
       y2="517"
       gradientUnits="userSpaceOnUse"
       gradientTransform="translate(-53,-457)">
      <stop
         offset="0.303571"
         stop-color="#EFF2F6"
         id="stop1644" />
      <stop
         offset="1"
         stop-color="#B7C6CD"
         id="stop1645" />
    </linearGradient>
    <linearGradient
       id="paint452_linear_890_11"
       x1="107"
       y1="513"
       x2="67.655701"
       y2="465.78699"
       gradientUnits="userSpaceOnUse"
       gradientTransform="matrix(1,0,0,1.2,-53,-559.6)">
      <stop
         stop-color="#2E2E41"
         id="stop1646" />
      <stop
         offset="1"
         stop-color="#566C80"
         id="stop1647" />
    </linearGradient>
    <linearGradient
       id="paint453_linear_890_11"
       x1="61"
       y1="465"
       x2="65"
       y2="469"
       gradientUnits="userSpaceOnUse"
       gradientTransform="translate(-53,-457)">
      <stop
         offset="0.236371"
         stop-color="#F15700"
         id="stop1648" />
      <stop
         offset="0.855848"
         stop-color="#FF0000"
         id="stop1649" />
    </linearGradient>
    <linearGradient
       id="paint454_linear_890_11"
       x1="71"
       y1="469"
       x2="67"
       y2="465"
       gradientUnits="userSpaceOnUse"
       gradientTransform="translate(-53,-457)">
      <stop
         stop-color="#FF7E07"
         id="stop1650" />
      <stop
         offset="1"
         stop-color="#FFE607"
         id="stop1651" />
    </linearGradient>
    <linearGradient
       id="paint455_linear_890_11"
       x1="77"
       y1="469"
       x2="73"
       y2="465"
       gradientUnits="userSpaceOnUse"
       gradientTransform="translate(-53,-457)">
      <stop
         stop-color="#089953"
         id="stop1652" />
      <stop
         offset="1"
         stop-color="#16D96F"
         id="stop1653" />
    </linearGradient>
    <linearGradient
       id="paint456_linear_890_11"
       x1="80"
       y1="486"
       x2="80"
       y2="492"
       gradientUnits="userSpaceOnUse"
       gradientTransform="translate(-53,-457)">
      <stop
         offset="0.189495"
         stop-color="#EFF2F6"
         id="stop1654" />
      <stop
         offset="0.850463"
         stop-color="#B7C6CD"
         id="stop1655" />
    </linearGradient>
    <linearGradient
       id="paint457_linear_890_11"
       x1="82"
       y1="494"
       x2="82"
       y2="500"
       gradientUnits="userSpaceOnUse">
      <stop
         offset="0.189495"
         stop-color="#EFF2F6"
         id="stop1656" />
      <stop
         offset="0.850463"
         stop-color="#B7C6CD"
         id="stop1657" />
    </linearGradient>
    <linearGradient
       id="paint400_linear_890_11"
       x1="568.5"
       y1="490.5"
       x2="559"
       y2="490.5"
       gradientUnits="userSpaceOnUse"
       gradientTransform="translate(-551.88344,-457.27914)">
      <stop
         offset="0.152115"
         stop-color="#2E2E41"
         id="stop1542" />
      <stop
         offset="1"
         stop-color="#566C80"
         id="stop1543" />
    </linearGradient>
    <linearGradient
       id="paint401_linear_890_11"
       x1="568"
       y1="461"
       x2="620.52502"
       y2="497.57999"
       gradientUnits="userSpaceOnUse"
       gradientTransform="translate(-551.88344,-457.27914)">
      <stop
         offset="0.179449"
         stop-color="#F15700"
         id="stop1544"
         style="stop-color:#2a7fff;stop-opacity:1" />
      <stop
         offset="0.879484"
         stop-color="#FF0000"
         id="stop1545"
         style="stop-color:#2a7fff;stop-opacity:1" />
    </linearGradient>
    <linearGradient
       id="paint402_linear_890_11"
       x1="585.5"
       y1="481"
       x2="585.5"
       y2="485"
       gradientUnits="userSpaceOnUse"
       gradientTransform="translate(-553,-457)">
      <stop
         stop-color="white"
         id="stop1546" />
      <stop
         offset="0.705"
         stop-color="#E6E6E6"
         id="stop1547" />
    </linearGradient>
    <linearGradient
       id="paint403_linear_890_11"
       x1="582"
       y1="489"
       x2="582"
       y2="493"
       gradientUnits="userSpaceOnUse"
       gradientTransform="translate(-553,-457)">
      <stop
         stop-color="white"
         id="stop1548" />
      <stop
         offset="0.705"
         stop-color="#E6E6E6"
         id="stop1549" />
    </linearGradient>
    <linearGradient
       inkscape:collect="always"
       xlink:href="#linearGradient1"
       id="linearGradient2"
       x1="7.1165647"
       y1="31.720859"
       x2="18.116565"
       y2="31.720859"
       gradientUnits="userSpaceOnUse" />
    <linearGradient
       inkscape:collect="always"
       xlink:href="#linearGradient3"
       id="linearGradient5"
       x1="34.933708"
       y1="3.7208588"
       x2="55.116566"
       y2="59.72086"
       gradientUnits="userSpaceOnUse" />
  </defs>
  <g
     inkscape:label="Layer 1"
     inkscape:groupmode="layer"
     id="layer1">
    <g
       id="g1"
       transform="translate(-0.11656485,-0.7208589)">
      <path
         d="m 7.1165647,9.7208588 c 0,-3.314 2.686,-6 6.0000003,-6 h 5 V 59.720859 h -5 c -3.3140003,0 -6.0000003,-2.686 -6.0000003,-6 z"
         id="path390"
         style="fill:url(#linearGradient2)" />
      <path
         d="m 16.116565,3.7208588 h 33 c 3.314,0 6,2.686 6,6 V 53.720859 c 0,3.314 -2.686,6 -6,6 h -33 z"
         id="path391"
         style="fill:url(#linearGradient5)" />
    </g>
    <path
       d="M 28.712079,3.0003119 22.489776,3.033 v 17.904892 l 3.112666,-3.112664 3.109565,3.109559 V 2.9999999 Z"
       stroke-width="2.93971"
       id="path4-2-9"
       style="fill:#d35f8d"
       sodipodi:nodetypes="ccccccc" />
    <path
       id="rect943-3"
       style="fill:#ffffff;fill-opacity:0.83166;stroke-width:14.8674;stroke-linecap:square;stroke-linejoin:round"
       d="M 20.397028,25.39028 C 19.623221,25.39028 19,25.949931 19,26.644546 c 0,0.694664 0.623117,1.252676 1.397028,1.252676 h 17.059677 c 0.773718,0 1.395271,-0.558219 1.395271,-1.252676 0,-0.694676 -0.621917,-1.254266 -1.395271,-1.254266 z m 0,5.872897 C 19.623221,31.263177 19,31.822822 19,32.517417 c 0,0.694667 0.623117,1.254293 1.397028,1.254293 h 11.709446 c 0.773777,0 1.397043,-0.559643 1.397043,-1.254293 0,-0.694682 -0.623044,-1.25424 -1.397043,-1.25424 z m 17.591749,0 c -0.773819,0 -1.397015,0.559645 -1.397015,1.25424 0,0.694667 0.62305,1.254293 1.397015,1.254293 h 8.019941 c 0.773807,0 1.395343,-0.559643 1.395343,-1.254293 0,-0.694682 -0.621855,-1.25424 -1.395343,-1.25424 z M 20.397028,37.136036 C 19.623221,37.136036 19,37.695679 19,38.390263 c 0,0.694685 0.623117,1.254229 1.397028,1.254229 h 15.024735 c 0.773885,0 1.395371,-0.559643 1.395371,-1.254229 0,-0.694675 -0.621918,-1.254227 -1.395371,-1.254227 z m 0,5.872857 C 19.623221,43.008893 19,43.568523 19,44.263137 c 0,0.694694 0.623117,1.254294 1.397028,1.254294 h 20.927025 c 0.773841,0 1.397034,-0.559632 1.397034,-1.254294 0,-0.69467 -0.623064,-1.254244 -1.397034,-1.254244 z m 26.320153,0 c -0.773826,0 -1.395326,0.55963 -1.395326,1.254244 0,0.694694 0.621901,1.254294 1.395326,1.254294 h 3.77536 c 0.773808,0 1.397047,-0.559632 1.397047,-1.254294 0,-0.69467 -0.623096,-1.254244 -1.397047,-1.254244 z M 20.397028,48.881774 C 19.623221,48.881774 19,49.441425 19,50.136039 c 0,0.694695 0.623117,1.254241 1.397028,1.254241 h 15.024735 c 0.773885,0 1.395371,-0.559644 1.395371,-1.254241 0,-0.694695 -0.621918,-1.254265 -1.395371,-1.254265 z m 19.74317,0 c -0.773777,0 -1.39702,0.559651 -1.39702,1.254265 8e-6,0.694695 0.623091,1.254241 1.39702,1.254241 H 50.602965 C 51.376711,51.39028 52,50.830636 52,50.136039 52,49.441344 51.376948,48.881774 50.602965,48.881774 Z" />
    <g
       id="g2"
       transform="translate(-18.290789,-52.4265)">
      <path
         style="opacity:0.2"
         d="m 64.475511,71.426651 c -0.508,-0.008 -1.012,0.228 -1.326,0.676 l -13.621,19.453 v 4.871 l 4.545,-1.701 13.617,-19.444 c 0.502,-0.716 0.328,-1.705 -0.389,-2.207 l -1.945,-1.361 c -0.269,-0.188 -0.576,-0.282 -0.881,-0.287 z"
         id="path8" />
      <path
         style="fill:#c4c4c4"
         d="m 61.333511,73.695651 0.908,-1.297 2.663,1.028 1.878,2.152 -0.909,1.297 -3.066,-0.449 z"
         id="path9" />
      <path
         style="fill:#cccccc;fill-opacity:1"
         d="m 62.241511,72.398779 0.90805,-1.296824 c 0.501684,-0.716478 1.489914,-0.89073 2.20639,-0.389047 l 1.94524,1.362071 c 0.716477,0.501682 0.89073,1.489915 0.389046,2.206394 l -0.908045,1.296823 z"
         id="path10" />
      <path
         style="fill:#c4c4c4"
         d="m 51.797511,94.581651 -1.269,-0.586 -1,-1.003 v -2.435 l 2.796,0.869 1.756,2.308 z"
         id="path11" />
      <path
         fill="#424048"
         d="m 49.528511,95.426651 v -2.43438 l 2.282945,1.58908 z"
         id="path12" />
      <path
         style="fill:#373e48"
         d="m 61.333511,73.696651 -11.805,16.859 4.538,3.181 11.807,-16.861 z"
         id="path13" />
      <path
         style="opacity:0.2;fill:#ffffff"
         d="m 64.503511,70.426651 c -0.102,-0.002 -0.203,0.006 -0.303,0.023 -0.399,0.071 -0.773,0.295 -1.024,0.653 l -13.648,19.455 v 1.016 l 13.648,-19.471 c 0.251,-0.358 0.625,-0.582 1.024,-0.653 0.399,-0.07 0.823,0.013 1.182,0.264 l 1.947,1.363 c 0.291,0.204 0.487,0.489 0.59,0.803 0.22,-0.649 0,-1.39 -0.59,-1.803 l -1.947,-1.363 c -0.269,-0.188 -0.574,-0.282 -0.879,-0.287 z"
         id="path14" />
    </g>
  </g>
</svg>
