<?xml version="1.0" encoding="UTF-8" standalone="no"?>
<svg
   width="62"
   height="62"
   version="1"
   id="svg13"
   sodipodi:docname="reigns.svg"
   inkscape:version="1.4.2 (unknown)"
   xmlns:inkscape="http://www.inkscape.org/namespaces/inkscape"
   xmlns:sodipodi="http://sodipodi.sourceforge.net/DTD/sodipodi-0.dtd"
   xmlns="http://www.w3.org/2000/svg"
   xmlns:svg="http://www.w3.org/2000/svg">
  <defs
     id="defs13" />
  <sodipodi:namedview
     id="namedview13"
     pagecolor="#ffffff"
     bordercolor="#000000"
     borderopacity="0.25"
     inkscape:showpageshadow="2"
     inkscape:pageopacity="0.0"
     inkscape:pagecheckerboard="0"
     inkscape:deskcolor="#d1d1d1"
     inkscape:zoom="5"
     inkscape:cx="25.6"
     inkscape:cy="50.7"
     inkscape:window-width="1920"
     inkscape:window-height="998"
     inkscape:window-x="0"
     inkscape:window-y="0"
     inkscape:window-maximized="1"
     inkscape:current-layer="svg13" />
  <rect
     width="55.997971"
     height="55.969017"
     x="3.0020294"
     y="3.0000002"
     rx="13.001064"
     ry="12.994343"
     id="rect1"
     style="fill:#3f3f3f;fill-opacity:1;stroke-width:0.99967" />
  <path
     d="m 3.0000281,45.004248 v 0.999411 C 3.0000281,53.202417 8.7996109,59 16.003093,59 H 45.996935 C 53.199417,59 59,53.203416 59,46.003659 V 45.004248 C 59,52.203006 53.200417,57.99859 45.996935,57.99859 H 16.003093 A 12.974067,12.967359 0 0 1 3.0000281,45.004248"
     opacity="0.35"
     id="path1"
     style="stroke-width:0.99967" />
  <path
     fill="#ffffff"
     d="m 3.0000281,17.026735 v -0.999411 c 0,-7.1987583 5.7995828,-12.9963419 13.0030649,-12.9963419 H 45.996935 C 53.199417,3.0309821 59,8.8275662 59,16.027324 v 0.999411 C 59,9.8279767 53.200417,4.032392 45.996935,4.032392 H 16.003093 A 12.974067,12.967359 0 0 0 3.0000281,17.026735"
     opacity="0.15"
     id="path2"
     style="stroke-width:0.99967" />
  <g
     id="g1"
     transform="translate(9.999267,-75.699997)">
    <path
       style="opacity:0.2"
       d="m 10.000733,83.2 a 4.5,4.5 0 0 0 -4.4999998,4.5 4.5,4.5 0 0 0 3,4.236328 V 96.2 104.10625 105.2 124.82891 L 21.000733,133.2 l 12.5,-8.37109 V 105.2 v -9 -4.263672 a 4.5,4.5 0 0 0 3,-4.236328 4.5,4.5 0 0 0 -4.5,-4.5 4.5,4.5 0 0 0 -4.5,4.5 4.5,4.5 0 0 0 3,4.236328 V 96.2 h -8 v -4.263672 a 4.5,4.5 0 0 0 3,-4.236328 4.5,4.5 0 0 0 -4.5,-4.5 4.5,4.5 0 0 0 -4.5,4.5 4.5,4.5 0 0 0 3,4.236328 V 96.2 h -8 v -4.263672 a 4.5,4.5 0 0 0 3,-4.236328 4.5,4.5 0 0 0 -4.5,-4.5 z"
       id="path2-5" />
    <circle
       style="fill:#ffd42a"
       cx="21.000732"
       cy="86.699997"
       r="4.5"
       id="circle2" />
    <circle
       style="fill:#ffd42a"
       cx="10.000733"
       cy="86.699997"
       r="4.5"
       id="circle3" />
    <circle
       style="fill:#ffd42a;fill-opacity:1"
       cx="32.000732"
       cy="86.699997"
       r="4.5"
       id="circle4" />
    <rect
       style="fill:#ffd42a;fill-opacity:1"
       width="3"
       height="12.907"
       x="8.5007334"
       y="90.199997"
       id="rect4" />
    <rect
       style="fill:#ffd42a;fill-opacity:1"
       width="3"
       height="12.907"
       x="19.500732"
       y="90.199997"
       id="rect5" />
    <rect
       style="fill:#ffd42a;fill-opacity:1"
       width="3"
       height="12.907"
       x="30.500732"
       y="90.199997"
       id="rect6" />
    <path
       style="fill:#ffffff"
       d="M 8.5007342,103.10654 H 33.500733 v 20.72278 L 21.000734,132.2 8.5007342,123.82932 Z"
       id="path6-3" />
    <rect
       style="opacity:0.675"
       width="3"
       height="7"
       x="14.500733"
       y="111.2"
       id="rect7" />
    <rect
       style="opacity:0.675"
       width="3"
       height="7"
       x="24.500732"
       y="111.2"
       id="rect8" />
    <rect
       style="fill:#ffd42a"
       width="25"
       height="9"
       x="8.5007334"
       y="95.199997"
       id="rect9" />
    <path
       style="opacity:0.331381;fill:#a7a7a7;fill-opacity:1"
       d="m 21.000733,132.2 12.5,-8.37109 V 104.2 v -9 -4.263672 c 1.795777,-0.634901 2.997327,-2.331622 3,-4.236328 0,-2.485281 -2.014719,-4.5 -4.5,-4.5 -2.485281,0 -4.5,2.014719 -4.5,4.5 0.0027,1.904706 1.204223,3.601427 3,4.236328 V 95.2 h -8 v -4.263672 c 1.795777,-0.634901 2.997327,-2.331622 3,-4.236328 0,-2.485281 -2.014719,-4.5 -4.5,-4.5 z"
       id="path9-5" />
  </g>
</svg>
