<?xml version="1.0" encoding="UTF-8" standalone="no"?>
<svg
   width="62"
   height="62"
   version="1"
   id="svg13"
   sodipodi:docname="robocraft.svg"
   inkscape:version="1.4.2 (unknown)"
   xml:space="preserve"
   xmlns:inkscape="http://www.inkscape.org/namespaces/inkscape"
   xmlns:sodipodi="http://sodipodi.sourceforge.net/DTD/sodipodi-0.dtd"
   xmlns:xlink="http://www.w3.org/1999/xlink"
   xmlns="http://www.w3.org/2000/svg"
   xmlns:svg="http://www.w3.org/2000/svg"><defs
     id="defs13"><linearGradient
       id="linearGradient1"
       inkscape:collect="always"><stop
         style="stop-color:#ff9955;stop-opacity:1"
         offset="0"
         id="stop5" /><stop
         style="stop-color:#ffcc00;stop-opacity:1"
         offset="1"
         id="stop6" /></linearGradient><linearGradient
       id="9u6zqN3Bt2WL6GDEge3Qlb"
       x1="32.000999"
       x2="32.000999"
       y1="57.178001"
       y2="7.0580001"
       gradientTransform="matrix(1,0,0,-1,0,64)"
       gradientUnits="userSpaceOnUse"><stop
         offset="0"
         stop-color="#1a6dff"
         id="stop3" /><stop
         offset="1"
         stop-color="#c822ff"
         id="stop4" /></linearGradient><linearGradient
       id="9u6zqN3Bt2WL6GDEge3Qla"
       x1="45.889"
       x2="45.82"
       y1="47.923"
       y2="31.747"
       gradientTransform="matrix(1.1337175,0,0,-1.1363635,-3.1453973,69.517605)"
       gradientUnits="userSpaceOnUse"><stop
         offset="0"
         stop-color="#6dc7ff"
         id="stop1" /><stop
         offset="1"
         stop-color="#e6abff"
         id="stop2" /></linearGradient><linearGradient
       id="9u6zqN3Bt2WL6GDEge3Qlb-6"
       x1="32.000999"
       x2="32.000999"
       y1="57.178001"
       y2="7.0580001"
       gradientTransform="matrix(1.1337175,0,0,-1.1363635,-3.1453973,69.517605)"
       gradientUnits="userSpaceOnUse"><stop
         offset="0"
         stop-color="#1a6dff"
         id="stop3-7"
         style="stop-color:#ff9955;stop-opacity:1" /><stop
         offset="1"
         stop-color="#c822ff"
         id="stop4-5"
         style="stop-color:#ffd42a;stop-opacity:1" /></linearGradient><linearGradient
       inkscape:collect="always"
       xlink:href="#linearGradient1"
       id="linearGradient6"
       x1="32.0005"
       y1="57"
       x2="32.0005"
       y2="7"
       gradientUnits="userSpaceOnUse" /></defs><sodipodi:namedview
     id="namedview13"
     pagecolor="#ffffff"
     bordercolor="#000000"
     borderopacity="0.25"
     inkscape:showpageshadow="2"
     inkscape:pageopacity="0.0"
     inkscape:pagecheckerboard="0"
     inkscape:deskcolor="#d1d1d1"
     inkscape:zoom="5"
     inkscape:cx="25.4"
     inkscape:cy="66.7"
     inkscape:window-width="1920"
     inkscape:window-height="998"
     inkscape:window-x="0"
     inkscape:window-y="0"
     inkscape:window-maximized="1"
     inkscape:current-layer="svg13" /><rect
     width="55.997971"
     height="55.969017"
     x="3.0020294"
     y="3.0000002"
     rx="13.001064"
     ry="12.994343"
     id="rect1"
     style="fill:#373e48;fill-opacity:1;stroke-width:0.99967" /><path
     fill="#ffffff"
     d="m 3.0000281,17.026735 v -0.999411 c 0,-7.1987583 5.7995828,-12.9963419 13.0030649,-12.9963419 H 45.996935 C 53.199417,3.0309821 59,8.8275662 59,16.027324 v 0.999411 C 59,9.8279767 53.200417,4.032392 45.996935,4.032392 H 16.003093 A 12.974067,12.967359 0 0 0 3.0000281,17.026735"
     opacity="0.15"
     id="path2"
     style="stroke-width:0.99967" /><g
     id="g4"
     transform="matrix(0.88205384,0,0,0.88,2.7744098,2.8245088)"
     style="stroke-width:1.13503"><polygon
       points="36.618,24 41.237,32 50.474,32 55.093,24 50.474,16 41.237,16 "
       id="polygon2"
       style="fill:#0066ff" /><path
       d="m 51.629,32 4.33,-7.5 c 0.178,-0.31 0.178,-0.69 0,-1 l -4.619,-8 C 51.161,15.19 50.831,15 50.474,15 H 41.815 L 37.485,7.5 C 37.306,7.19 36.976,7 36.619,7 h -9.237 c -0.357,0 -0.688,0.19 -0.866,0.5 l -4.33,7.5 h -8.658 c -0.357,0 -0.688,0.19 -0.866,0.5 l -4.619,8 c -0.178,0.31 -0.178,0.69 0,1 l 4.33,7.5 -4.33,7.5 c -0.178,0.31 -0.178,0.69 0,1 l 4.619,8 c 0.179,0.31 0.509,0.5 0.866,0.5 h 8.658 l 4.33,7.5 c 0.179,0.31 0.509,0.5 0.866,0.5 h 9.237 c 0.357,0 0.688,-0.19 0.866,-0.5 l 4.33,-7.5 h 8.659 c 0.357,0 0.688,-0.19 0.866,-0.5 l 4.619,-8 c 0.178,-0.31 0.178,-0.69 0,-1 z m 2.309,-8 -4.042,7 H 41.813 L 37.772,24.001 41.815,17 h 8.082 z M 36.04,39 h -8.079 l -4.041,-7 4.041,-7 h 8.079 l 4.042,7 z M 27.958,9 h 8.083 L 40.082,15.999 36.04,23 h -8.079 l -4.043,-7.002 z m -13.854,8 h 8.081 l 4.043,7.002 -4.04,6.998 h -8.083 l -4.041,-7 z m -4.041,23 4.041,-7 h 8.083 l 4.04,6.998 L 22.185,47 H 14.104 Z M 36.042,55 H 27.959 L 23.919,48.002 27.961,41 h 8.079 l 4.042,7.001 z M 49.897,47 H 41.815 L 37.773,39.999 41.814,33 h 8.083 l 4.042,7 z"
       id="path4"
       style="fill:url(#linearGradient6)" /></g></svg>
