<?xml version="1.0" encoding="UTF-8" standalone="no"?>
<svg
   width="62"
   height="62"
   version="1.1"
   viewBox="0 0 16.403844 16.403844"
   id="svg20"
   sodipodi:docname="slingshot.svg"
   inkscape:version="1.4.2 (unknown)"
   xmlns:inkscape="http://www.inkscape.org/namespaces/inkscape"
   xmlns:sodipodi="http://sodipodi.sourceforge.net/DTD/sodipodi-0.dtd"
   xmlns:xlink="http://www.w3.org/1999/xlink"
   xmlns="http://www.w3.org/2000/svg"
   xmlns:svg="http://www.w3.org/2000/svg"
   xmlns:rdf="http://www.w3.org/1999/02/22-rdf-syntax-ns#"
   xmlns:cc="http://creativecommons.org/ns#"
   xmlns:dc="http://purl.org/dc/elements/1.1/">
  <metadata
     id="metadata26">
    <rdf:RDF>
      <cc:Work
         rdf:about="">
        <dc:format>image/svg+xml</dc:format>
        <dc:type
           rdf:resource="http://purl.org/dc/dcmitype/StillImage" />
      </cc:Work>
    </rdf:RDF>
  </metadata>
  <defs
     id="defs24">
    <linearGradient
       inkscape:collect="always"
       xlink:href="#linearGradient853"
       id="linearGradient855"
       x1="205.12303"
       y1="159.5856"
       x2="222.19002"
       y2="223.28046"
       gradientUnits="userSpaceOnUse"
       gradientTransform="matrix(0.19158158,0,0,0.19092044,-30.960238,-27.770721)" />
    <linearGradient
       inkscape:collect="always"
       id="linearGradient853">
      <stop
         style="stop-color:#33b67a;stop-opacity:1;"
         offset="0"
         id="stop849" />
      <stop
         style="stop-color:#33b67a;stop-opacity:1;"
         offset="1"
         id="stop851" />
    </linearGradient>
    <linearGradient
       inkscape:collect="always"
       xlink:href="#linearGradient861"
       id="linearGradient863"
       x1="167.8353"
       y1="216.04416"
       x2="243.31377"
       y2="169.18932"
       gradientUnits="userSpaceOnUse"
       gradientTransform="matrix(0.19158158,0,0,0.19092044,-30.960238,-27.770721)" />
    <linearGradient
       inkscape:collect="always"
       id="linearGradient861">
      <stop
         style="stop-color:#ff8080;stop-opacity:1"
         offset="0"
         id="stop857" />
      <stop
         style="stop-color:#ff8080;stop-opacity:1"
         offset="0.05650956"
         id="stop871" />
      <stop
         style="stop-color:#ff5555;stop-opacity:1"
         offset="0.17447889"
         id="stop873" />
      <stop
         style="stop-color:#ff8080;stop-opacity:1"
         offset="0.27897188"
         id="stop869" />
      <stop
         style="stop-color:#ff5555;stop-opacity:1"
         offset="0.54486555"
         id="stop865" />
      <stop
         style="stop-color:#ff5555;stop-opacity:1"
         offset="0.77966058"
         id="stop867" />
      <stop
         style="stop-color:#ffaaaa;stop-opacity:1"
         offset="1"
         id="stop859" />
    </linearGradient>
  </defs>
  <sodipodi:namedview
     pagecolor="#ffffff"
     bordercolor="#666666"
     borderopacity="1"
     objecttolerance="10"
     gridtolerance="10"
     guidetolerance="10"
     inkscape:pageopacity="0"
     inkscape:pageshadow="2"
     inkscape:window-width="1920"
     inkscape:window-height="994"
     id="namedview22"
     showgrid="false"
     inkscape:zoom="7.09375"
     inkscape:cx="5.9911894"
     inkscape:cy="44.334802"
     inkscape:window-x="0"
     inkscape:window-y="0"
     inkscape:window-maximized="1"
     inkscape:current-layer="svg20"
     inkscape:document-rotation="0"
     inkscape:showpageshadow="2"
     inkscape:pagecheckerboard="0"
     inkscape:deskcolor="#d1d1d1" />
  <circle
     cx="-330.35001"
     cy="-328.38"
     r="0"
     fill="#5e4aa6"
     stroke-width="0.26458"
     id="circle2" />
  <circle
     cx="-65.740997"
     cy="5.3371"
     r="0"
     fill="#5e4aa6"
     fill-rule="evenodd"
     stroke-width="0.40965"
     id="circle4" />
  <g
     id="g1"
     transform="translate(-0.52827984,-0.4031443)">
    <ellipse
       style="fill:url(#linearGradient855);fill-opacity:1;stroke-width:0.168134;stroke-linecap:round;stroke-linejoin:round;stroke-opacity:0.992157"
       id="path837"
       cx="8.0944099"
       cy="8.6050663"
       rx="7.4338412"
       ry="7.4081874" />
    <path
       id="path875"
       style="fill:#ffffff;fill-opacity:0.379939;stroke:none;stroke-width:0.19125px;stroke-linecap:butt;stroke-linejoin:miter;stroke-opacity:1"
       d="M 7.883675,1.1999621 A 7.4338421,7.4081888 0 0 0 0.66269624,8.4456155 c 0.0489451,-0.006 0.0979939,-0.014315 0.14705423,-0.026849 C 1.1616531,8.8515471 1.8710089,7.0478076 2.3379121,8.1364894 2.7426645,8.8168002 2.5038123,9.5578193 2.806015,10.24631 c 0.550494,0.508088 1.6506473,0.200383 1.9304079,1.121657 0.3606504,0.925414 1.3910854,-0.512629 1.4473395,0.513844 0.052361,0.854508 -0.5708384,1.872122 0.3827894,2.443933 0.591395,0.467672 1.2826309,0.870576 2.0553845,0.912838 0.574804,0.0883 1.8489067,0.350881 1.8058047,-0.514965 C 10.634634,13.823174 10.370776,12.87258 9.7268986,12.200633 9.1825404,11.660986 8.5223293,11.252378 7.7796519,11.051754 7.3544327,10.73495 6.9135444,9.9397898 6.3865688,10.584893 5.6468916,10.4673 5.3658566,8.6280627 6.3454091,8.8326766 6.9396914,8.6173983 7.5077152,8.1188785 8.0842361,8.7644386 8.8630437,8.7777277 9.4544654,7.8696971 9.4803122,7.1639884 9.634035,6.5539571 9.9276493,6.1626081 10.630176,6.1280955 11.012375,5.9481835 10.16596,6.0341245 10.209595,5.6821169 9.6123286,5.3186235 8.7527234,6.6712721 8.3461644,5.5862845 7.9418084,4.9136719 9.2626575,4.788472 8.6058474,4.0331908 8.4868272,3.1483013 9.2887703,2.9537018 9.9439239,2.8690248 10.13591,2.3426875 9.1310258,2.31673 9.2700205,1.7402824 8.8687146,1.4124605 8.387383,1.2672959 7.883675,1.1999621 Z m 6.57813,4.4881212 c -0.734868,0.1460101 -0.325251,0.9538384 -0.534332,1.3737318 0.281022,0.8174524 -0.821564,0.8426575 -1.088498,1.4072933 -0.50778,0.4385031 -0.777366,1.5582056 0.01833,1.9401546 0.4722,0.535106 1.473713,0.598532 1.547247,1.405054 0.05144,0.102108 0.107383,0.258046 0.169503,0.422114 A 7.4338421,7.4081888 0 0 0 15.528222,8.6052135 7.4338421,7.4081888 0 0 0 15.00811,5.8831046 C 14.93231,5.8319756 14.856464,5.7810099 14.776867,5.7350669 l -0.160152,-0.043628 z" />
    <path
       id="path839"
       style="fill:url(#linearGradient863);fill-opacity:1;stroke-width:0.171061;stroke-linecap:round;stroke-linejoin:round;stroke-opacity:0.992157"
       d="m 13.329158,3.3475345 c 0.418756,0.4140966 0.785858,0.8790243 1.096727,1.3823096 0.326477,0.064658 0.554946,0.1958595 0.677271,0.3889257 0.653011,1.0322172 -1.09478,3.6985877 -5.2374703,6.0511352 -4.4116901,2.505305 -7.4560206,2.560094 -8.1092522,1.527881 -0.071655,-0.113379 -0.106347,-0.247422 -0.1036478,-0.400483 -0.211941,-0.3664 -0.3944587,-0.75125 -0.5418174,-1.153726 -0.43988456,1.187316 -0.38726095,2.23784 0.1507959,3.010352 1.1914397,1.644408 5.7606887,0.931469 9.9352208,-1.688279 C 15.37138,9.845981 17.834313,6.7564547 16.379118,4.6671972 15.814749,3.8571046 14.74564,3.3945218 13.329158,3.3475345 Z"
       sodipodi:nodetypes="cccsccccscc" />
  </g>
  <g
     id="g2"
     transform="translate(5.2479385,-13.082515)">
    <circle
       style="opacity:0.2;stroke-width:0.264578"
       cx="1.5874687"
       cy="19.843359"
       r="3.1749375"
       id="circle5" />
    <circle
       style="fill:#e13c3c;stroke-width:0.264578"
       cx="1.5874687"
       cy="19.578781"
       r="3.1749375"
       id="circle6" />
    <circle
       style="opacity:0.2;stroke-width:0.264578"
       cx="1.5874687"
       cy="19.843359"
       r="2.1166251"
       id="circle7" />
    <circle
       style="fill:#ffa833;stroke-width:0.264578"
       cx="1.5874687"
       cy="19.578781"
       r="2.1166251"
       id="circle8" />
    <circle
       style="opacity:0.2;stroke-width:0.264578"
       cx="1.5874687"
       cy="19.843359"
       r="1.0583125"
       id="circle9" />
    <circle
       style="fill:#ffffff;stroke-width:0.264578"
       cx="1.5874687"
       cy="19.578781"
       r="1.0583125"
       id="circle10" />
    <path
       style="opacity:0.2;fill:#ffffff;stroke-width:0.264578"
       d="m 1.5874688,17.462157 a 2.116646,2.116646 0 0 0 -2.11662508,2.116625 2.116646,2.116646 0 0 0 0.006202,0.105934 2.116646,2.116646 0 0 1 2.11042338,-1.957981 2.116646,2.116646 0 0 1 2.1099071,1.978134 2.116646,2.116646 0 0 0 0.00672,-0.126087 2.116646,2.116646 0 0 0 -2.116625,-2.116625 z"
       id="path10" />
  </g>
</svg>
