<?xml version="1.0" encoding="UTF-8" standalone="no"?>
<svg
   width="62"
   height="62"
   version="1.1"
   id="svg7"
   sodipodi:docname="snes9x.svg"
   inkscape:version="1.4.2 (unknown)"
   xmlns:inkscape="http://www.inkscape.org/namespaces/inkscape"
   xmlns:sodipodi="http://sodipodi.sourceforge.net/DTD/sodipodi-0.dtd"
   xmlns="http://www.w3.org/2000/svg"
   xmlns:svg="http://www.w3.org/2000/svg">
  <defs
     id="defs7" />
  <sodipodi:namedview
     id="namedview7"
     pagecolor="#ffffff"
     bordercolor="#000000"
     borderopacity="0.25"
     inkscape:showpageshadow="2"
     inkscape:pageopacity="0.0"
     inkscape:pagecheckerboard="0"
     inkscape:deskcolor="#d1d1d1"
     inkscape:zoom="5.9609375"
     inkscape:cx="23.905636"
     inkscape:cy="42.526868"
     inkscape:current-layer="svg7" />
  <g
     id="g7"
     transform="translate(-0.5,-1)">
    <path
       style="opacity:0.2;stroke-width:0.999971"
       d="m 31.499999,4.982456 a 9.8214289,9.8245614 0 0 0 -9.821427,9.824564 9.8214289,9.8245614 0 0 0 9.821427,9.82456 9.8214289,9.8245614 0 0 0 9.821429,-9.82456 9.8214289,9.8245614 0 0 0 -9.821429,-9.824564 z M 13.821428,22.66667 A 9.8214289,9.8245614 0 0 0 4,32.49123 a 9.8214289,9.8245614 0 0 0 9.821428,9.82456 9.8214289,9.8245614 0 0 0 9.821427,-9.82456 9.8214289,9.8245614 0 0 0 -9.821427,-9.82456 z m 35.357143,0 a 9.8214289,9.8245614 0 0 0 -9.821428,9.82456 9.8214289,9.8245614 0 0 0 9.821428,9.82456 A 9.8214289,9.8245614 0 0 0 59,32.49123 9.8214289,9.8245614 0 0 0 49.178571,22.66667 Z M 31.499999,40.35088 A 9.8214289,9.8245614 0 0 0 21.678572,50.17544 9.8214289,9.8245614 0 0 0 31.499999,60 9.8214289,9.8245614 0 0 0 41.321428,50.17544 9.8214289,9.8245614 0 0 0 31.499999,40.35088 Z"
       id="path1" />
    <path
       style="fill:#c6afe9;stroke-width:0.999971"
       d="M 41.321428,13.82456 A 9.8214289,9.8245614 0 0 1 31.499999,23.64912 9.8214289,9.8245614 0 0 1 21.678572,13.82456 9.8214289,9.8245614 0 0 1 31.499999,4 a 9.8214289,9.8245614 0 0 1 9.821429,9.82456 z"
       id="path2" />
    <path
       style="fill:#8d5fd3;stroke-width:0.999971"
       d="m 41.321428,49.19298 a 9.8214289,9.8245614 0 0 1 -9.821429,9.824562 9.8214289,9.8245614 0 0 1 -9.821427,-9.824562 9.8214289,9.8245614 0 0 1 9.821427,-9.82456 9.8214289,9.8245614 0 0 1 9.821429,9.82456 z"
       id="path3" />
    <path
       style="fill:#8d5fd3;stroke-width:0.999971"
       d="M 49.178571,41.333331 A 9.8214289,9.8245614 0 0 1 39.357143,31.50877 9.8214289,9.8245614 0 0 1 49.178571,21.68421 9.8214289,9.8245614 0 0 1 59,31.50877 9.8214289,9.8245614 0 0 1 49.178571,41.333331 Z"
       id="path4" />
    <path
       style="fill:#c6afe9;stroke-width:0.999971"
       d="M 13.821428,41.333331 A 9.8214289,9.8245614 0 0 1 4,31.50877 a 9.8214289,9.8245614 0 0 1 9.821428,-9.82456 9.8214289,9.8245614 0 0 1 9.821427,9.82456 9.8214289,9.8245614 0 0 1 -9.821427,9.824561 z"
       id="path5" />
    <path
       style="opacity:0.1;fill:#ffffff;stroke-width:0.999971"
       d="m 49.178571,21.68421 a 9.8214289,9.8245614 0 0 0 -9.821428,9.82456 9.8214289,9.8245614 0 0 0 0.02108,0.406802 9.8214289,9.8245614 0 0 1 9.800329,-9.248902 9.8214289,9.8245614 0 0 1 9.80033,9.417758 9.8214289,9.8245614 0 0 0 0.02108,-0.575658 9.8214289,9.8245614 0 0 0 -9.821431,-9.82456 z M 31.499999,39.36842 a 9.8214289,9.8245614 0 0 0 -9.821427,9.82456 9.8214289,9.8245614 0 0 0 0.02108,0.406802 9.8214289,9.8245614 0 0 1 9.80033,-9.248902 9.8214289,9.8245614 0 0 1 9.80033,9.417759 9.8214289,9.8245614 0 0 0 0.02108,-0.575659 9.8214289,9.8245614 0 0 0 -9.821429,-9.82456 z"
       id="path6" />
    <path
       style="opacity:0.2;fill:#ffffff;stroke-width:0.999971"
       d="m 31.499999,4 a 9.8214289,9.8245614 0 0 0 -9.821427,9.82456 9.8214289,9.8245614 0 0 0 0.02108,0.406802 9.8214289,9.8245614 0 0 1 9.800332,-9.248906 9.8214289,9.8245614 0 0 1 9.80033,9.417762 9.8214289,9.8245614 0 0 0 0.02109,-0.575658 A 9.8214289,9.8245614 0 0 0 31.499999,4 Z M 13.821428,21.68421 A 9.8214289,9.8245614 0 0 0 4,31.50877 a 9.8214289,9.8245614 0 0 0 0.021098,0.406802 9.8214289,9.8245614 0 0 1 9.80033,-9.248902 9.8214289,9.8245614 0 0 1 9.80033,9.417758 9.8214289,9.8245614 0 0 0 0.02108,-0.575658 9.8214289,9.8245614 0 0 0 -9.821427,-9.82456 z"
       id="path7" />
  </g>
</svg>
