<?xml version="1.0" encoding="UTF-8" standalone="no"?>
<svg
   width="62"
   height="62"
   version="1.1"
   id="svg9"
   sodipodi:docname="edge-game.svg"
   inkscape:version="1.4.2 (unknown)"
   xmlns:inkscape="http://www.inkscape.org/namespaces/inkscape"
   xmlns:sodipodi="http://sodipodi.sourceforge.net/DTD/sodipodi-0.dtd"
   xmlns="http://www.w3.org/2000/svg"
   xmlns:svg="http://www.w3.org/2000/svg">
  <defs
     id="defs9" />
  <sodipodi:namedview
     id="namedview9"
     pagecolor="#ffffff"
     bordercolor="#000000"
     borderopacity="0.25"
     inkscape:showpageshadow="2"
     inkscape:pageopacity="0.0"
     inkscape:pagecheckerboard="0"
     inkscape:deskcolor="#d1d1d1"
     inkscape:zoom="11.921875"
     inkscape:cx="32"
     inkscape:cy="32"
     inkscape:current-layer="svg9" />
  <g
     id="g9"
     transform="translate(2.0597875e-7,1.0001021)">
    <path
       d="m 31.123936,2.9480649 c -0.0517,-0.00105 -0.102367,0.00724 -0.154001,0.00744 -0.03118,0.00192 -0.06257,0.00308 -0.09389,0.00368 -1.069297,0.019772 -2.116987,0.2942553 -3.046119,0.8230871 L 9.170115,14.415671 c -0.9301635,0.530042 -1.6735162,1.284127 -2.2160397,2.157823 l -0.011268,-0.0076 c -0.021355,0.03436 -0.035641,0.07279 -0.056345,0.107523 -0.021973,0.03692 -0.05015,0.07014 -0.071363,0.107522 l 0.01127,0.0076 c -0.5226205,0.918969 -0.8263886,1.961131 -0.826319,3.051353 v 21.26679 c -6e-7,1.0911 0.3077161,2.130819 0.833832,3.047648 0.042003,0.0732 0.075287,0.150913 0.120192,0.222458 l 0.026298,-0.01478 c 0.1894072,0.308656 0.3835458,0.618277 0.6272521,0.889823 a 6.3412003,6.2594165 0 0 0 0.1164363,0.137189 c 0.1037845,0.109115 0.2147999,0.209516 0.326772,0.31144 a 6.3412003,6.2594165 0 0 0 0.2178481,0.189087 c 0.1030364,0.08558 0.2064779,0.172767 0.3155039,0.252116 a 6.3412003,6.2594165 0 0 0 0.5859354,0.385593 L 27.82992,57.16063 a 6.3412003,6.2594165 0 0 0 3.046118,0.830499 v 0.0076 A 6.3412003,6.2594165 0 0 0 34.17005,57.160798 L 52.829856,46.527245 a 6.3412003,6.2594165 0 0 0 2.22731,-2.150408 l 0.0038,0.0038 a 6.3412003,6.2594165 0 0 0 0.06761,-0.118642 6.3412003,6.2594165 0 0 0 0.05633,-0.0964 l -0.0038,-0.0038 a 6.3412003,6.2594165 0 0 0 0.818805,-3.055107 V 19.839904 a 6.3412003,6.2594165 0 0 0 -0.05262,-0.74523 c -0.0096,-0.07954 -0.0211,-0.158488 -0.03381,-0.237287 a 6.3412003,6.2594165 0 0 0 -0.09392,-0.470864 c -0.02576,-0.106777 -0.05499,-0.210202 -0.08637,-0.315145 a 6.3412003,6.2594165 0 0 0 -0.120189,-0.348514 c -0.04408,-0.120843 -0.08382,-0.241944 -0.13521,-0.35964 a 6.3412003,6.2594165 0 0 0 -0.01888,-0.04816 l -0.0038,0.0037 c -0.115779,-0.25934 -0.25965,-0.507418 -0.409267,-0.748927 l -0.01888,0.01112 C 54.488101,15.706535 53.758992,14.945139 52.829847,14.41568 L 34.17005,3.7822742 c -0.920217,-0.5236943 -1.957905,-0.8100103 -3.019824,-0.83421 -0.0088,-2.095e-4 -0.0175,-1.6e-5 -0.02624,0 z"
       style="opacity:0.2;stroke-width:0.99999"
       id="path1" />
    <path
       d="m 31.123936,2.0018486 c -0.07569,-0.00154 -0.149847,0.00999 -0.225361,0.011121 -0.0076,1.13e-4 -0.01497,-1.393e-4 -0.02255,0 -1.069289,0.019775 -2.118874,0.2924077 -3.047999,0.8212351 L 9.1719487,13.469479 c -1.0054393,0.572935 -1.8101869,1.39535 -2.3587727,2.361746 l 11.621088,6.57915 12.565723,7.114897 12.565722,-7.114897 11.602311,-6.568029 C 54.620919,14.875493 53.833266,14.042302 52.828025,13.469479 L 34.171936,2.8342065 C 33.251718,2.3105123 32.210265,2.0260482 31.14835,2.0018486 c -0.0082,-1.965e-4 -0.01617,0.00187 -0.02445,0.00187 z"
       style="fill:#8d7cae;stroke-width:0.99999"
       id="path2" />
    <path
       d="m 6.9446366,15.619891 c -0.6026872,0.969285 -0.9447114,2.095518 -0.9446361,3.271964 v 10.633417 10.635272 c -6e-7,1.092132 0.3067844,2.130198 0.8338338,3.047653 h -0.00187 c 0.00333,0.0059 0.00799,0.01089 0.011269,0.01668 0.038564,0.06666 0.067942,0.138634 0.1089243,0.203919 l 0.015026,-0.0076 c 0.1896173,0.309135 0.3944653,0.608621 0.638521,0.880555 a 6.3412003,6.2594165 0 0 0 0.1201925,0.137183 c 0.1037813,0.109164 0.212919,0.213273 0.3248917,0.315197 a 6.3412003,6.2594165 0 0 0 0.2178482,0.187233 c 0.1030363,0.08558 0.2046006,0.170902 0.3136267,0.250265 a 6.3412003,6.2594165 0 0 0 0.5896961,0.387457 L 27.82804,56.212632 a 6.3412003,6.2594165 0 0 0 3.295896,0.828649 L 31.065718,43.866298 30.999985,29.525272 18.499991,22.299145 Z"
       style="fill:#6e59a4;stroke-width:0.99999"
       id="path3" />
    <path
       d="m 55.047829,15.621742 -11.547849,6.677403 -12.499993,7.226127 -0.06571,14.341026 -0.05827,13.182398 a 6.3412003,6.2594165 0 0 0 3.295907,-0.836064 L 52.828018,45.579213 a 6.3412003,6.2594165 0 0 0 2.227316,-2.148558 l 0.0057,0.0037 a 6.3412003,6.2594165 0 0 0 0.07513,-0.135328 6.3412003,6.2594165 0 0 0 0.04695,-0.07972 l -0.002,-0.002 A 6.3412003,6.2594165 0 0 0 55.99992,40.160429 V 18.891855 a 6.3412003,6.2594165 0 0 0 -0.05069,-0.74523 c -0.0096,-0.07955 -0.02303,-0.158484 -0.0357,-0.237287 a 6.3412003,6.2594165 0 0 0 -0.09575,-0.46901 c -0.02577,-0.106779 -0.0532,-0.213911 -0.08451,-0.318855 A 6.3412003,6.2594165 0 0 0 55.61502,16.77481 C 55.57094,16.653969 55.5312,16.532868 55.479805,16.415172 a 6.3412003,6.2594165 0 0 0 -0.02255,-0.04816 l -0.002,0.002 c -0.11593,-0.259383 -0.257926,-0.5056 -0.407541,-0.747112 z"
       style="fill:#65319e;stroke-width:0.99999"
       id="path4" />
    <path
       d="m 30.999987,12.929813 15.384574,8.770504 V 39.168233 L 30.999987,47.938735 15.615413,39.168233 V 21.700317 Z"
       style="opacity:0.2;stroke-width:0.99999"
       id="path5" />
    <path
       d="m 30.999987,11.980671 15.384574,8.770501 v 17.467919 l -15.384574,8.7705 -15.384574,-8.7705 V 20.751172 Z"
       style="fill:#c6afe9;stroke-width:0.99999"
       id="path6" />
    <path
       d="m 30.999987,11.980671 15.384574,8.770501 v 17.467919 l -15.384574,8.7705 z"
       style="fill:#aa87de;stroke-width:0.99999"
       id="path7" />
    <path
       d="m 30.999987,11.980671 -15.384574,8.770501 15.384574,8.770503 15.384574,-8.770503 z"
       style="fill:#80b3ff;stroke-width:0.99999"
       id="path8" />
    <path
       d="m 31.123936,1.9999947 c -0.0517,-0.00105 -0.102364,0.00723 -0.153997,0.00743 -0.03118,0.00192 -0.06257,0.00309 -0.09389,0.00369 -1.069297,0.019772 -2.11699,0.294257 -3.046124,0.8230886 L 9.1700712,13.467624 c -0.930164,0.530042 -1.6735213,1.284134 -2.216045,2.157831 l -0.011268,-0.0076 c -0.021355,0.03435 -0.035641,0.07279 -0.056346,0.107522 -0.021973,0.0369 -0.05015,0.07014 -0.071364,0.107521 l 0.011267,0.0076 C 6.3036975,16.759464 5.999928,17.801634 5.9999976,18.891855 v 0.949148 c -6.96e-5,-1.090222 0.3036999,-2.13239 0.8263215,-3.051361 l -0.011267,-0.0076 c 0.021218,-0.03736 0.049391,-0.07054 0.071364,-0.107521 0.020695,-0.03475 0.034983,-0.07318 0.056346,-0.107522 l 0.011268,0.0076 C 7.4965505,15.700904 8.239908,14.946814 9.1700719,14.416773 L 27.829915,3.7833542 c 0.929135,-0.5288316 1.976827,-0.8033199 3.046124,-0.8230887 0.0313,-5.885e-4 0.0627,-0.00183 0.09389,-0.00369 0.05162,-2.089e-4 0.102284,-0.00841 0.153997,-0.00743 0.0087,-1.63e-5 0.01745,-2.096e-4 0.02624,0 1.061918,0.024202 2.099612,0.3105174 3.019831,0.8342117 L 52.829894,14.416772 c 0.929147,0.529459 1.658321,1.290856 2.197263,2.16524 l 0.01883,-0.01112 c 0.149617,0.24151 0.293644,0.489594 0.409407,0.748938 l 0.0037,-0.0037 a 6.3412003,6.2594165 0 0 1 0.01882,0.04816 c 0.05138,0.117696 0.09113,0.238801 0.135215,0.35964 a 6.3412003,6.2594165 0 0 1 0.120193,0.348516 c 0.03134,0.104944 0.06055,0.208371 0.08637,0.315144 a 6.3412003,6.2594165 0 0 1 0.09391,0.470868 c 0.01268,0.07881 0.02422,0.157759 0.03381,0.237288 a 6.3412003,6.2594165 0 0 1 0.05259,0.745226 v -0.949127 a 6.3412003,6.2594165 0 0 0 -0.05259,-0.745231 c -0.0096,-0.07955 -0.0211,-0.158483 -0.03381,-0.237287 a 6.3412003,6.2594165 0 0 0 -0.09389,-0.470865 c -0.02577,-0.106775 -0.05499,-0.210206 -0.08637,-0.315147 a 6.3412003,6.2594165 0 0 0 -0.120199,-0.348507 c -0.04408,-0.12084 -0.08382,-0.241942 -0.135214,-0.359637 a 6.3412003,6.2594165 0 0 0 -0.01883,-0.04816 l -0.0037,0.0037 C 55.339632,16.111354 55.195605,15.863272 55.045987,15.62176 l -0.01881,0.01112 C 54.488233,14.758487 53.759059,13.99709 52.829913,13.467629 L 34.170056,2.8342065 c -0.920218,-0.5236942 -1.957911,-0.810012 -3.01983,-0.8342118 -0.0088,-2.095e-4 -0.0175,-1.6e-5 -0.02624,0 z"
       style="opacity:0.2;fill:#ffffff;stroke-width:0.99999"
       id="path9" />
  </g>
</svg>
