<?xml version="1.0" encoding="UTF-8" standalone="no"?>
<svg
   width="48"
   height="48"
   viewBox="0 0 48 48"
   version="1.1"
   id="svg52"
   sodipodi:docname="system-file-manager.svg"
   inkscape:version="1.1.1 (3bf5ae0d25, 2021-09-20)"
   xmlns:inkscape="http://www.inkscape.org/namespaces/inkscape"
   xmlns:sodipodi="http://sodipodi.sourceforge.net/DTD/sodipodi-0.dtd"
   xmlns:xlink="http://www.w3.org/1999/xlink"
   xmlns="http://www.w3.org/2000/svg"
   xmlns:svg="http://www.w3.org/2000/svg"
   xmlns:rdf="http://www.w3.org/1999/02/22-rdf-syntax-ns#"
   xmlns:cc="http://creativecommons.org/ns#"
   xmlns:dc="http://purl.org/dc/elements/1.1/">
  <metadata
     id="metadata56">
    <rdf:RDF>
      <cc:Work
         rdf:about="">
        <dc:format>image/svg+xml</dc:format>
        <dc:type
           rdf:resource="http://purl.org/dc/dcmitype/StillImage" />
      </cc:Work>
    </rdf:RDF>
  </metadata>
  <sodipodi:namedview
     pagecolor="#ffffff"
     bordercolor="#666666"
     borderopacity="1"
     objecttolerance="10"
     gridtolerance="10"
     guidetolerance="10"
     inkscape:pageopacity="0"
     inkscape:pageshadow="2"
     inkscape:window-width="1920"
     inkscape:window-height="1005"
     id="namedview54"
     showgrid="true"
     inkscape:zoom="11.240052"
     inkscape:cx="6.5835994"
     inkscape:cy="17.482126"
     inkscape:window-x="0"
     inkscape:window-y="0"
     inkscape:window-maximized="1"
     inkscape:current-layer="svg52"
     inkscape:document-rotation="0"
     inkscape:pagecheckerboard="0">
    <inkscape:grid
       type="xygrid"
       id="grid962" />
  </sodipodi:namedview>
  <defs
     id="defs32">
    <linearGradient
       xlink:href="#linearGradient4393"
       id="linearGradient4399"
       x1="424.441"
       y1="502.85"
       x2="440.878"
       y2="529.576"
       gradientUnits="userSpaceOnUse"
       gradientTransform="matrix(0.69224711,0,0,0.69224711,-280.19324,674.76546)" />
    <linearGradient
       id="linearGradient4393">
      <stop
         style="stop-color:#000000;stop-opacity:1;"
         offset="0"
         id="stop3" />
      <stop
         style="stop-color:#000000;stop-opacity:0;"
         offset="1"
         id="stop5" />
    </linearGradient>
    <linearGradient
       xlink:href="#linearGradient4274"
       id="linearGradient4217"
       gradientUnits="userSpaceOnUse"
       gradientTransform="matrix(0.69224711,0,0,0.69224711,-264.27155,2671.7976)"
       x1="390.571"
       y1="498.298"
       x2="442.571"
       y2="498.298" />
    <linearGradient
       id="linearGradient4274">
      <stop
         offset="0"
         style="stop-color:#ffffff;stop-opacity:1;"
         id="stop9" />
      <stop
         offset="1"
         style="stop-color:#ffffff;stop-opacity:0.48760331"
         id="stop11" />
    </linearGradient>
    <linearGradient
       xlink:href="#linearGradient4172-5"
       id="linearGradient4178"
       y1="548.886"
       y2="495.308"
       x2="397.228"
       gradientUnits="userSpaceOnUse"
       gradientTransform="matrix(0.69224711,0,0,0.69202181,-264.27155,671.42636)"
       x1="434.162" />
    <linearGradient
       id="linearGradient4172-5">
      <stop
         style="stop-color:#127bdc;stop-opacity:1"
         id="stop15" />
      <stop
         offset="1"
         style="stop-color:#64b4f4;stop-opacity:1"
         id="stop17" />
    </linearGradient>
    <linearGradient
       xlink:href="#linearGradient4227"
       id="linearGradient4225"
       gradientUnits="userSpaceOnUse"
       x1="396.571"
       y1="498.798"
       x2="426.571"
       y2="511.798"
       gradientTransform="matrix(0.69224711,0,0,0.69224711,-264.27155,671.68871)" />
    <linearGradient
       id="linearGradient4227">
      <stop
         offset="0"
         style="stop-color:#f5f5f5;stop-opacity:1"
         id="stop21" />
      <stop
         offset="1"
         style="stop-color:#f9f9f9;stop-opacity:1"
         id="stop23" />
    </linearGradient>
    <linearGradient
       gradientTransform="matrix(0.69224711,0,0,0.69224711,-264.27155,671.30423)"
       xlink:href="#linearGradient4291"
       id="linearGradient4297"
       x1="388.571"
       y1="487.798"
       x2="416.571"
       y2="507.798"
       gradientUnits="userSpaceOnUse" />
    <linearGradient
       id="linearGradient4291">
      <stop
         style="stop-color:#1d5e8c;stop-opacity:1"
         offset="0"
         id="stop27" />
      <stop
         style="stop-color:#2675a7;stop-opacity:1"
         offset="1"
         id="stop29" />
    </linearGradient>
    <linearGradient
       inkscape:collect="always"
       id="linearGradient2230">
      <stop
         style="stop-color:#4e99ca;stop-opacity:0.80000001"
         offset="0"
         id="stop2226" />
      <stop
         style="stop-color:#20ffff;stop-opacity:0.80000001"
         offset="0.50507295"
         id="stop2332" />
      <stop
         style="stop-color:#ffaeff;stop-opacity:0.69"
         offset="1"
         id="stop2228" />
    </linearGradient>
    <linearGradient
       inkscape:collect="always"
       xlink:href="#linearGradient1295"
       id="linearGradient1493"
       gradientUnits="userSpaceOnUse"
       x1="20.750315"
       y1="1025.9873"
       x2="-12.062732"
       y2="995.35931" />
    <linearGradient
       inkscape:collect="always"
       id="linearGradient1295">
      <stop
         style="stop-color:#1d212f;stop-opacity:1;"
         offset="0"
         id="stop1291" />
      <stop
         style="stop-color:#717da8;stop-opacity:1"
         offset="1"
         id="stop1293" />
    </linearGradient>
    <linearGradient
       inkscape:collect="always"
       xlink:href="#linearGradient952"
       id="linearGradient1297"
       x1="2.0000021"
       y1="1025.9873"
       x2="62.938519"
       y2="1025.9873"
       gradientUnits="userSpaceOnUse" />
    <linearGradient
       inkscape:collect="always"
       id="linearGradient952">
      <stop
         style="stop-color:#2e354b;stop-opacity:1"
         offset="0"
         id="stop948" />
      <stop
         style="stop-color:#717da8;stop-opacity:1"
         offset="1"
         id="stop950" />
    </linearGradient>
    <linearGradient
       inkscape:collect="always"
       xlink:href="#linearGradient2230"
       id="linearGradient1310"
       gradientUnits="userSpaceOnUse"
       gradientTransform="translate(1.7000012,-5.0000005)"
       x1="23.299999"
       y1="30.999989"
       x2="43.761395"
       y2="30.999989" />
  </defs>
  <g
     transform="matrix(0.79998667,0,0,0.85706093,-1.5999733,-853.08358)"
     id="g19">
    <rect
       width="60"
       height="42"
       x="2"
       y="1002.36"
       rx="6.5219998"
       ry="6.5619998"
       style="opacity:0.85;fill:url(#linearGradient1493);fill-opacity:1;stroke:none"
       id="rect11" />
    <path
       d="m 8.522,1002.36 c -3.613,0 -6.522,3.3302 -6.522,6.1002 v 0.8998 c 0,-2.77 2.909,-5 6.522,-5 h 46.957 c 3.613,0 6.522,2.23 6.522,5 v -0.8998 c 0,-2.77 -2.909,-6.1002 -6.522,-6.1002 z"
       style="opacity:0.2;fill:#ffffff;fill-opacity:1;stroke:none"
       id="path13"
       sodipodi:nodetypes="sscsscsss" />
    <path
       d="m 8.522,1013.3603 h 10.435 c 14.348,-1.333 11.86095,-6.5781 20.991951,-6.5781 h 15.361736 c 3.612989,0 6.689313,1.4143 6.689313,5.1083 v 25.8035 c 0,3.693 -2.908,6.667 -6.521,6.667 H 8.522 c -3.613,0 -6.522,-2.973 -6.522,-6.667 v -18.667 c 0,-4 2.609,-5.6667 6.522,-5.6667 z"
       style="opacity:0.6;fill:url(#linearGradient1297);fill-opacity:1;stroke:none"
       id="path15"
       sodipodi:nodetypes="scsssssssss" />
    <path
       d="m 2,1035.03 v 2.667 c 0,3.693 2.909,6.667 6.522,6.667 h 46.957 c 3.613,0 6.522,-2.973 6.522,-6.667 v -2.667 c 0,3.693 -2.909,7.333 -6.522,7.333 H 8.522 c -3.613,0 -6.522,-3.64 -6.522,-7.333 z"
       style="opacity:0.15;fill:#333333;fill-opacity:1;stroke:none"
       id="path17" />
  </g>
  <rect
     y="36.601986"
     x="30.000023"
     height="0.25714314"
     width="16.400028"
     id="rect4209"
     style="fill:#000000;fill-opacity:1;fill-rule:nonzero;stroke:none;stroke-width:0.316876;stroke-linecap:round;stroke-linejoin:round;stroke-miterlimit:4;stroke-dasharray:none;stroke-dashoffset:0;stroke-opacity:1" />
  <path
     d="m 45.296218,22.73618 c 0.0393,-0.812699 -0.82736,-1.649819 -1.179895,-1.953366 -1.948464,-4.929925 -8.944363,-3.206687 -10.310389,-2.815101 -3.559235,-2.261766 -6.30077,0.146879 -6.32529,0.171482 -0.132232,0.117576 -0.190832,0.298638 -0.151762,0.474818 0.0392,0.171295 0.171302,0.308407 0.342775,0.357427 1.096723,0.313288 1.924084,1.375793 2.271538,1.889893 -2.555512,2.99128 -2.648504,7.255206 -2.624073,8.351979 -3.18717,2.638734 -2.178588,5.355938 -2.129727,5.473259 0.0685,0.171292 0.225193,0.293754 0.411325,0.308404 0.0146,0.005 0.0293,0.005 0.0439,0.005 0.166412,0 0.328124,-0.0881 0.416215,-0.234963 0.582627,-0.939871 1.312137,-1.507828 2.163917,-1.688901 1.522499,-0.323063 3.001038,0.660938 3.015708,0.670699 0.112492,0.0783 0.254504,0.107621 0.391605,0.0734 0.132222,-0.0344 0.249613,-0.122471 0.313294,-0.244732 0.76855,-1.414888 -0.421105,-3.216501 -0.861751,-3.808889 0.562907,-2.389129 1.943605,-3.774496 3.025468,-4.523526 l -0.220312,0.367195 c -0.0686,0.122461 -0.0881,0.264453 -0.0441,0.396494 0.0392,0.137113 0.137112,0.244734 0.264453,0.303525 0.479706,0.210552 1.150435,0.230092 2.002415,0.0539 0.709989,-0.151762 1.395348,-0.518957 1.982836,-1.062344 0.768549,-0.705078 1.62543,-0.758789 1.62543,-0.758789 h 4.866451 c 0.112701,0 0.215443,-0.0391 0.303524,-0.102741 0.416215,-0.327937 0.533626,-0.685369 0.562907,-0.930114 0.0396,-0.323802 -0.0633,-0.597857 -0.156262,-0.774226 z m -3.441663,-0.528722 h -0.269344 c -0.269343,0 -0.489676,-0.220314 -0.489676,-0.489675 0,-0.26934 0.220323,-0.489674 0.489676,-0.489674 h 0.269344 c 0.274223,0 0.489666,0.220315 0.489666,0.489674 0,0.269341 -0.215433,0.489675 -0.489666,0.489675 z"
     id="path49-5"
     style="fill:url(#linearGradient1310);fill-opacity:1;stroke-width:0.0480827" />
</svg>
