<?xml version="1.0" encoding="UTF-8" standalone="no"?>
<svg
   width="62"
   height="62"
   version="1.1"
   id="svg12"
   sodipodi:docname="com.github.johnfactotum.QuickLookup.svg"
   inkscape:version="1.4.2 (unknown)"
   xmlns:inkscape="http://www.inkscape.org/namespaces/inkscape"
   xmlns:sodipodi="http://sodipodi.sourceforge.net/DTD/sodipodi-0.dtd"
   xmlns="http://www.w3.org/2000/svg"
   xmlns:svg="http://www.w3.org/2000/svg">
  <defs
     id="defs12" />
  <sodipodi:namedview
     id="namedview12"
     pagecolor="#ffffff"
     bordercolor="#000000"
     borderopacity="0.25"
     inkscape:showpageshadow="2"
     inkscape:pageopacity="0.0"
     inkscape:pagecheckerboard="0"
     inkscape:deskcolor="#d1d1d1"
     showgrid="true"
     inkscape:zoom="8.4300387"
     inkscape:cx="24.021242"
     inkscape:cy="25.444723"
     inkscape:current-layer="svg12">
    <inkscape:grid
       id="grid12"
       units="px"
       originx="0"
       originy="0"
       spacingx="1"
       spacingy="1"
       empcolor="#0099e5"
       empopacity="0.30196078"
       color="#0099e5"
       opacity="0.14901961"
       empspacing="5"
       enabled="true"
       visible="true" />
  </sodipodi:namedview>
  <g
     id="g1">
    <path
       style="opacity:0.2;stroke-width:0.971868"
       d="m 6.9582435,13.391304 c -2.1930759,0 -3.9582436,1.788466 -3.9582436,4.010487 v 32.087722 c 0,2.222022 1.7651677,4.010487 3.9582436,4.010487 H 27.041757 C 29.234833,53.5 31,51.711535 31,49.489513 31,51.711535 32.765167,53.5 34.958243,53.5 H 55.041757 C 57.234833,53.5 59,51.711535 59,49.489513 V 17.401791 C 59,15.17977 57.234833,13.391304 55.041757,13.391304 H 34.958243 C 32.765167,13.391304 31,15.17977 31,17.401791 31,15.17977 29.234833,13.391304 27.041757,13.391304 Z"
       id="path1" />
    <rect
       width="28"
       height="40.108696"
       x="3"
       y="12.413044"
       ry="4.0108695"
       id="rect1"
       style="fill:#2a7fff;fill-opacity:1;stroke-width:0.971868" />
    <rect
       width="28"
       height="40.108696"
       x="31"
       y="12.413044"
       ry="4.0108695"
       id="rect2"
       style="fill:#2a7fff;stroke-width:0.971868" />
    <path
       style="opacity:0.2;stroke-width:0.971868"
       d="m 10.4375,9.4782609 c -1.9810979,0 -3.5754311,1.7032111 -3.5754311,3.8194211 v 3.819421 24.831012 3.819421 c 0,2.116201 1.5943332,3.819421 3.5754311,3.819421 H 31 51.5625 c 1.981098,0 3.575431,-1.70322 3.575431,-3.819421 V 41.948115 17.117103 13.297682 c 0,-2.11621 -1.594333,-3.8194211 -3.575431,-3.8194211 H 34.575431 C 32.594333,9.4782609 31,11.181472 31,13.297682 31,11.181472 29.405666,9.4782609 27.424569,9.4782609 Z"
       id="path2" />
    <path
       d="M 27.42401,8.5 C 29.405107,8.5 31,10.203666 31,12.319876 v 36.28882 H 10.438059 c -1.9810979,0 -3.5759901,-1.703671 -3.5759901,-3.819872 V 40.968938 16.139752 12.319876 C 6.8620689,10.203666 8.4569611,8.5 10.438059,8.5 Z"
       id="path3"
       style="fill:#e5e5e5;fill-opacity:1;stroke-width:0.971868" />
    <path
       style="fill:#e4e4e4;stroke-width:0.971868"
       d="M 34.57599,8.5 C 32.594892,8.5 31,10.203666 31,12.319876 v 36.28882 h 20.561941 c 1.981098,0 3.57599,-1.703671 3.57599,-3.819872 V 40.968938 16.139752 12.319876 C 55.137931,10.203666 53.543039,8.5 51.561941,8.5 Z"
       id="path4" />
    <path
       style="fill:#cccccc;fill-opacity:1;stroke-width:0.971868"
       d="M 34.57599,8.5 C 32.594892,8.5 31,10.203666 31,12.319876 v 36.28882 h 20.561941 c 1.981098,0 3.57599,-1.703671 3.57599,-3.819872 V 40.968938 16.139752 12.319876 C 55.137931,10.203666 53.543039,8.5 51.561941,8.5 Z"
       id="path5" />
    <path
       style="opacity:0.2;fill:#ffffff;stroke-width:0.971868"
       d="m 10.4375,8.5 c -1.9810979,0 -3.5754311,1.703211 -3.5754311,3.819421 v 0.978261 c 0,-2.11621 1.5943332,-3.8194211 3.5754311,-3.8194211 H 27.424569 C 29.405666,9.4782609 31,11.181472 31,13.297682 31,11.181472 32.594333,9.4782609 34.575431,9.4782609 H 51.5625 c 1.981098,0 3.575431,1.7032111 3.575431,3.8194211 V 12.319421 C 55.137931,10.203211 53.543598,8.5 51.5625,8.5 H 34.575431 C 32.594333,8.5 31,10.203211 31,12.319421 31,10.203211 29.405666,8.5 27.424569,8.5 Z"
       id="path6" />
    <path
       style="opacity:0.2;stroke-width:0.982607"
       d="M 37,9.4655172 V 36.5 L 41,32.637931 45,36.5 V 9.4655172 Z"
       id="path7" />
    <path
       style="fill:#8d5fd3;stroke-width:0.982607"
       d="m 37,8.5 v 27.034482 l 4,-3.862069 4,3.862069 V 8.5 Z"
       id="path8" />
    <path
       style="opacity:0.1;stroke-width:1.06437"
       d="m 12.327895,41.259513 v 0.581223 H 9 v -0.581223 l 0.815661,-0.214968 3.890704,-9.968319 h 2.365413 l 3.874382,9.968319 0.831972,0.214968 v 0.581223 h -4.869488 v -0.581223 l 1.264278,-0.214968 -1.044049,-2.762785 h -4.200651 l -1.003268,2.762785 z m 1.73736,-8.574987 -1.802615,4.721417 h 3.556286 z"
       id="path9" />
    <path
       style="opacity:0.1;stroke-width:1.06437"
       d="m 25.353995,33.228702 q 2.879277,0 2.879277,2.324701 v 5.463069 L 29,41.231057 v 0.59012 H 26.177806 L 25.99836,41.17741 Q 25.362146,41.651293 24.848281,41.821177 24.334417,42 23.812393,42 q -2.373575,0 -2.373575,-2.503534 0,-0.947766 0.350742,-1.511058 0.350729,-0.572239 1.011417,-0.840473 0.660686,-0.277178 2.079927,-0.312943 l 0.995106,-0.02679 v -1.224943 q 0,-1.520005 -1.133768,-1.520005 -0.685148,0 -1.53344,0.464948 l -0.309948,1.046113 h -0.538336 v -2.02965 q 1.231646,-0.205652 1.810765,-0.259299 0.57912,-0.05368 1.182712,-0.05368 z m 0.522015,4.372233 -0.685149,0.02678 q -0.791187,0.03579 -1.101144,0.456002 -0.301797,0.420234 -0.301797,1.359059 0,0.759996 0.244702,1.117652 0.244701,0.357643 0.636214,0.357643 0.554648,0 1.207174,-0.312944 z"
       id="path10" />
    <path
       d="m 12.327895,40.183298 v 0.581213 H 9 V 40.183298 L 9.815661,39.968319 13.706365,30 h 2.365413 l 3.874382,9.968319 0.831972,0.214979 v 0.581213 h -4.869488 v -0.581213 l 1.264278,-0.214979 -1.044049,-2.762785 h -4.200651 l -1.003268,2.762785 z m 1.73736,-8.574986 -1.802615,4.721416 h 3.556286 z"
       id="path11"
       style="fill:#373e48;stroke-width:1.06437" />
    <path
       d="m 25.353995,32.152451 q 2.879277,0 2.879277,2.324713 v 5.463057 L 29,40.154806 v 0.590121 H 26.177806 L 25.99836,40.101161 q -0.636214,0.473882 -1.150079,0.643766 -0.513864,0.178823 -1.035888,0.178823 -2.373575,0 -2.373575,-2.503523 0,-0.947777 0.350742,-1.511068 0.350729,-0.572229 1.011417,-0.840474 0.660686,-0.277167 2.079927,-0.312931 l 0.995106,-0.02679 v -1.224948 q 0,-1.519995 -1.133768,-1.519995 -0.685148,0 -1.53344,0.464938 l -0.309948,1.046121 h -0.538336 v -2.029659 q 1.231646,-0.205652 1.810765,-0.259298 0.57912,-0.05368 1.182712,-0.05368 z m 0.522015,4.372235 -0.685149,0.02678 q -0.791187,0.03579 -1.101144,0.456002 -0.301797,0.420236 -0.301797,1.359054 0,0.760006 0.244702,1.117651 0.244701,0.357647 0.636214,0.357647 0.554648,0 1.207174,-0.312941 z"
       id="path12"
       style="fill:#373e48;stroke-width:1.06437" />
  </g>
</svg>
