<?xml version="1.0" encoding="UTF-8" standalone="no"?>
<svg
   inkscape:version="1.1.1 (3bf5ae0d25, 2021-09-20)"
   sodipodi:docname="help.svg"
   style="enable-background:new"
   version="1.1"
   height="22"
   width="22"
   id="svg4306"
   xmlns:inkscape="http://www.inkscape.org/namespaces/inkscape"
   xmlns:sodipodi="http://sodipodi.sourceforge.net/DTD/sodipodi-0.dtd"
   xmlns="http://www.w3.org/2000/svg"
   xmlns:svg="http://www.w3.org/2000/svg"
   xmlns:rdf="http://www.w3.org/1999/02/22-rdf-syntax-ns#"
   xmlns:cc="http://creativecommons.org/ns#"
   xmlns:dc="http://purl.org/dc/elements/1.1/">
  <g
     id="pressed-inactive-center">
    <rect
       y="0"
       x="0"
       height="22"
       width="22"
       id="rect861-6-6-5"
       style="opacity:0.00100002;fill:#000000;fill-opacity:1;stroke-width:1.02253" />
    <path
       id="path839-3-36-5"
       style="fill:#2b4254;fill-opacity:1;stroke-width:1.125;enable-background:new"
       d="M 11,2 C 6.02953,2 2,6.029441 2,10.999998 2,15.970557 6.02953,20 11,20 15.970478,20 19.999998,15.970557 19.999998,10.999998 19.999998,6.029441 15.970478,2 11,2 Z m 0,1.125 c 4.349188,0 7.874998,3.525746 7.874998,7.874998 0,4.349234 -3.52581,7.875002 -7.874998,7.875002 -4.3492,0 -7.875,-3.525768 -7.875,-7.875002 C 3.125,6.650746 6.6508,3.125 11,3.125 Z m 0,0 z"
       sodipodi:nodetypes="ssssssssssccccc" />
    <rect
       style="fill:#d088dd;fill-opacity:1;stroke:none;stroke-width:0.39374;enable-background:new"
       id="center-3-35-5-7-6"
       width="15.749992"
       height="15.749992"
       x="3.1249974"
       y="3.1250014"
       ry="7.8749838" />
    <path
       d="m 10.974068,15.058431 c -0.306351,0 -0.510583,-0.204232 -0.510583,-0.51058 v -1.940205 c 0,-0.919043 0.765873,-1.378566 1.48068,-1.838087 0.81693,-0.51058 1.633853,-1.021163 1.684923,-2.144438 0,-1.429625 -1.174337,-2.603957 -2.603964,-2.603957 -1.429621,0 -2.603959,1.174332 -2.603959,2.603957 0,0.306347 -0.204238,0.510579 -0.510584,0.510579 C 7.604234,9.1357 7.4,8.931468 7.4,8.625121 7.4,6.633857 9.033863,5 11.025124,5 c 1.991258,0 3.625124,1.633857 3.625124,3.625121 -0.10212,1.684912 -1.27645,2.450784 -2.144443,2.961366 -0.612692,0.357404 -0.970107,0.612694 -0.970107,0.970101 v 1.940205 c -0.05105,0.306348 -0.30634,0.561638 -0.56163,0.561638 z m 0,1.276452 m -0.663758,0 a 0.66375433,0.66375433 0 1 0 1.327506,0 0.66375433,0.66375433 0 1 0 -1.327506,0 z"
       id="path4-5-3-7-3-3-2"
       style="fill:#ffffff;fill-opacity:1;stroke-width:0.0119669;enable-background:new" />
  </g>
  <g
     id="inactive-center"
     transform="translate(-44)">
    <rect
       y="0"
       x="0"
       height="22"
       width="22"
       id="rect861-7"
       style="opacity:0.00100002;fill:#000000;fill-opacity:1;stroke-width:1.02253" />
    <path
       id="path839-3-36-9"
       style="fill:#2b4254;fill-opacity:1;stroke-width:1.125;enable-background:new"
       d="M 11,2 C 6.02953,2 2,6.029441 2,10.999998 2,15.970557 6.02953,20 11,20 15.97048,20 20,15.970557 20,10.999998 20,6.029441 15.97048,2 11,2 Z m 0,1.125 c 4.34919,0 7.875,3.525746 7.875,7.874998 C 18.875,15.349232 15.34919,18.875 11,18.875 6.6508,18.875 3.125,15.349232 3.125,10.999998 3.125,6.650746 6.6508,3.125 11,3.125 Z m 0,0 z"
       sodipodi:nodetypes="ssssssssssccccc" />
    <rect
       style="fill:#4e5a7e;fill-opacity:0.65098;stroke:none;stroke-width:0.39374;enable-background:new"
       id="center-3-35-5-7-1"
       width="15.749992"
       height="15.749992"
       x="3.1250012"
       y="3.125001"
       ry="7.8749838" />
    <path
       d="m 10.974068,15.058431 c -0.306351,0 -0.510583,-0.204232 -0.510583,-0.51058 v -1.940205 c 0,-0.919043 0.765873,-1.378566 1.48068,-1.838087 0.81693,-0.51058 1.633854,-1.021163 1.684919,-2.144438 0,-1.429625 -1.174333,-2.603957 -2.60396,-2.603957 -1.429621,0 -2.603959,1.174332 -2.603959,2.603957 0,0.306347 -0.204238,0.510579 -0.510584,0.510579 C 7.604234,9.1357 7.4,8.931468 7.4,8.625121 7.4,6.633857 9.033863,5 11.025124,5 c 1.991258,0 3.62512,1.633857 3.62512,3.625121 -0.102118,1.684912 -1.27645,2.450784 -2.144439,2.961366 -0.612692,0.357404 -0.970107,0.612694 -0.970107,0.970101 v 1.940205 c -0.05105,0.306348 -0.30634,0.561638 -0.56163,0.561638 z m 0,1.276452 m -0.663758,0 a 0.66375433,0.66375433 0 1 0 1.327506,0 0.66375433,0.66375433 0 1 0 -1.327506,0 z"
       id="path4-5-3-7-3-3-27"
       style="fill:#ffffff;fill-opacity:0.60000002;stroke-width:0.0119669;enable-background:new" />
  </g>
  <g
     id="pressed-center"
     transform="translate(0,-22)">
    <rect
       style="opacity:0.00100002;fill:#000000;fill-opacity:1;stroke-width:1.02253"
       id="rect861-6-6"
       width="22"
       height="22"
       x="0"
       y="0" />
    <path
       id="path839-3-36-3"
       style="fill:#2b4254;fill-opacity:1;stroke-width:1.125;enable-background:new"
       d="M 11,2 C 6.02953,2 2,6.029441 2,10.999998 2,15.970557 6.02953,20 11,20 15.97048,20 20,15.970557 20,10.999998 20,6.029441 15.97048,2 11,2 Z m 0,1.125 c 4.34919,0 7.875,3.525746 7.875,7.874998 C 18.875,15.349232 15.34919,18.875 11,18.875 6.6508,18.875 3.125,15.349232 3.125,10.999998 3.125,6.650746 6.6508,3.125 11,3.125 Z m 0,0 z"
       sodipodi:nodetypes="ssssssssssccccc" />
    <rect
       style="fill:#d088dd;fill-opacity:1;stroke:none;stroke-width:0.39374;enable-background:new"
       id="center-3-35-5-7-5"
       width="15.749992"
       height="15.749992"
       x="3.125"
       y="3.125"
       ry="7.8749838" />
    <path
       d="m 10.974068,15.058431 c -0.306351,0 -0.510583,-0.204232 -0.510583,-0.51058 v -1.940205 c 0,-0.919043 0.765873,-1.378566 1.48068,-1.838087 0.81693,-0.51058 1.633854,-1.021163 1.684919,-2.144438 0,-1.429625 -1.174333,-2.603957 -2.60396,-2.603957 -1.429621,0 -2.603959,1.174332 -2.603959,2.603957 0,0.306347 -0.204238,0.510579 -0.510584,0.510579 C 7.604234,9.1357 7.4,8.931468 7.4,8.625121 7.4,6.633857 9.033863,5 11.025124,5 c 1.991258,0 3.62512,1.633857 3.62512,3.625121 -0.102118,1.684912 -1.27645,2.450784 -2.144439,2.961366 -0.612692,0.357404 -0.970107,0.612694 -0.970107,0.970101 v 1.940205 c -0.05105,0.306348 -0.30634,0.561638 -0.56163,0.561638 z m 0,1.276452 m -0.663758,0 a 0.66375433,0.66375433 0 1 0 1.327506,0 0.66375433,0.66375433 0 1 0 -1.327506,0 z"
       id="path4-5-3-7-3-3-6"
       style="fill:#ffffff;fill-opacity:1;stroke-width:0.0119669;enable-background:new" />
  </g>
  <metadata
     id="metadata28">
    <rdf:RDF>
      <cc:Work
         rdf:about="">
        <dc:format>image/svg+xml</dc:format>
        <dc:type
           rdf:resource="http://purl.org/dc/dcmitype/StillImage" />
      </cc:Work>
    </rdf:RDF>
  </metadata>
  <defs
     id="defs26" />
  <sodipodi:namedview
     inkscape:bbox-nodes="true"
     inkscape:snap-bbox="true"
     inkscape:current-layer="svg4306"
     inkscape:window-maximized="1"
     inkscape:window-y="0"
     inkscape:window-x="0"
     inkscape:cy="10.322095"
     inkscape:cx="3.0746667"
     inkscape:zoom="6.8300085"
     showgrid="true"
     id="namedview24"
     inkscape:window-height="1015"
     inkscape:window-width="1920"
     inkscape:pageshadow="2"
     inkscape:pageopacity="0"
     guidetolerance="10"
     gridtolerance="10"
     objecttolerance="10"
     borderopacity="1"
     bordercolor="#666666"
     pagecolor="#ffffff"
     inkscape:document-rotation="0"
     inkscape:lockguides="false"
     inkscape:pagecheckerboard="0">
    <inkscape:grid
       id="grid853"
       type="xygrid"
       originx="-44"
       originy="-22" />
  </sodipodi:namedview>
  <style
     id="current-color-scheme"
     type="text/css" />
  <g
     id="active-center"
     transform="translate(-44,-22)">
    <rect
       style="opacity:0.013;fill:#000000;fill-opacity:1;stroke-width:1.02253"
       id="rect861"
       width="22"
       height="22"
       x="0"
       y="0" />
    <path
       id="path839-3-36"
       style="fill:#2b4254;fill-opacity:1;stroke-width:1.125;enable-background:new"
       d="M 11,2 C 6.02953,2 2,6.029441 2,10.999998 2,15.970557 6.02953,20 11,20 15.97048,20 20,15.970557 20,10.999998 20,6.029441 15.97048,2 11,2 Z m 0,1.125 c 4.34919,0 7.875,3.525746 7.875,7.874998 C 18.875,15.349232 15.34919,18.875 11,18.875 6.6508,18.875 3.125,15.349232 3.125,10.999998 3.125,6.650746 6.6508,3.125 11,3.125 Z m 0,0 z"
       sodipodi:nodetypes="ssssssssssccccc" />
    <rect
       style="fill:#4e5a7e;fill-opacity:0.65;stroke:none;stroke-width:0.39374;enable-background:new"
       id="center-3-35-5-7"
       width="15.749992"
       height="15.749992"
       x="3.125"
       y="3.1249998"
       ry="7.8749838" />
    <path
       d="m 10.974068,15.058431 c -0.306351,0 -0.510583,-0.204232 -0.510583,-0.51058 v -1.940205 c 0,-0.919043 0.765873,-1.378566 1.48068,-1.838087 0.81693,-0.51058 1.633854,-1.021163 1.684919,-2.144438 0,-1.429625 -1.174333,-2.603957 -2.60396,-2.603957 -1.429621,0 -2.603959,1.174332 -2.603959,2.603957 0,0.306347 -0.204238,0.510579 -0.510584,0.510579 C 7.604234,9.1357 7.4,8.931468 7.4,8.625121 7.4,6.633857 9.033863,5 11.025124,5 c 1.991258,0 3.62512,1.633857 3.62512,3.625121 -0.102118,1.684912 -1.27645,2.450784 -2.144439,2.961366 -0.612692,0.357404 -0.970107,0.612694 -0.970107,0.970101 v 1.940205 c -0.05105,0.306348 -0.30634,0.561638 -0.56163,0.561638 z m 0,1.276452 m -0.663758,0 a 0.66375433,0.66375433 0 1 0 1.327506,0 0.66375433,0.66375433 0 1 0 -1.327506,0 z"
       id="path4-5-3-7-3-3"
       style="fill:#ffffff;fill-opacity:1;stroke-width:0.0119669;enable-background:new" />
  </g>
  <g
     id="hover-center"
     transform="translate(-22,-22)">
    <rect
       y="0"
       x="0"
       height="22"
       width="22"
       id="rect861-6"
       style="opacity:0.00100002;fill:#000000;fill-opacity:1;stroke-width:1.02253" />
    <path
       id="path839-3-36-6"
       style="fill:#2b4254;fill-opacity:1;stroke-width:1.125;enable-background:new"
       d="M 11,2 C 6.02953,2 2,6.029441 2,10.999998 2,15.970557 6.02953,20 11,20 15.97048,20 20,15.970557 20,10.999998 20,6.029441 15.97048,2 11,2 Z m 0,1.125 c 4.34919,0 7.875,3.525746 7.875,7.874998 C 18.875,15.349232 15.34919,18.875 11,18.875 6.6508,18.875 3.125,15.349232 3.125,10.999998 3.125,6.650746 6.6508,3.125 11,3.125 Z m 0,0 z"
       sodipodi:nodetypes="ssssssssssccccc" />
    <rect
       style="fill:#c673d8;fill-opacity:0.6;stroke:none;stroke-width:0.39374;enable-background:new"
       id="center-3-35-5-7-7"
       width="15.749992"
       height="15.749992"
       x="3.125"
       y="3.125"
       ry="7.8749838" />
    <path
       d="m 10.974068,15.058431 c -0.306351,0 -0.510583,-0.204232 -0.510583,-0.51058 v -1.940205 c 0,-0.919043 0.765873,-1.378566 1.48068,-1.838087 0.81693,-0.51058 1.633854,-1.021163 1.684919,-2.144438 0,-1.429625 -1.174333,-2.603957 -2.60396,-2.603957 -1.429621,0 -2.603959,1.174332 -2.603959,2.603957 0,0.306347 -0.204238,0.510579 -0.510584,0.510579 C 7.604234,9.1357 7.4,8.931468 7.4,8.625121 7.4,6.633857 9.033863,5 11.025124,5 c 1.991258,0 3.62512,1.633857 3.62512,3.625121 -0.102118,1.684912 -1.27645,2.450784 -2.144439,2.961366 -0.612692,0.357404 -0.970107,0.612694 -0.970107,0.970101 v 1.940205 c -0.05105,0.306348 -0.30634,0.561638 -0.56163,0.561638 z m 0,1.276452 m -0.663758,0 a 0.66375433,0.66375433 0 1 0 1.327506,0 0.66375433,0.66375433 0 1 0 -1.327506,0 z"
       id="path4-5-3-7-3-3-5"
       style="fill:#ffffff;fill-opacity:1;stroke-width:0.0119669;enable-background:new" />
  </g>
  <g
     id="hover-inactive-center"
     transform="translate(-22)">
    <rect
       style="opacity:0.00100002;fill:#000000;fill-opacity:1;stroke-width:1.02253"
       id="rect861-6-67"
       width="22"
       height="22"
       x="0"
       y="0" />
    <path
       id="path839-3-36-36"
       style="fill:#2b4254;fill-opacity:1;stroke-width:1.125;enable-background:new"
       d="M 11.000001,2 C 6.02953,2 2,6.029441 2,10.999998 2,15.970557 6.02953,20 11.000001,20 c 4.97048,0 9,-4.029443 9,-9.000002 0,-4.970557 -4.02952,-8.999998 -9,-8.999998 z m 0,1.125 c 4.34919,0 7.875,3.525746 7.875,7.874998 0,4.349234 -3.52581,7.875002 -7.875,7.875002 C 6.6508,18.875 3.125,15.349232 3.125,10.999998 3.125,6.650746 6.6508,3.125 11.000001,3.125 Z m 0,0 z"
       sodipodi:nodetypes="ssssssssssccccc" />
    <rect
       style="fill:#c673d8;fill-opacity:0.6;stroke:none;stroke-width:0.39374;enable-background:new"
       id="center-3-35-5-7-75"
       width="15.749992"
       height="15.749992"
       x="3.1249983"
       y="3.1249998"
       ry="7.8749838" />
    <path
       d="m 10.974071,15.058431 c -0.30635,0 -0.51059,-0.204232 -0.51059,-0.51058 v -1.940205 c 0,-0.919043 0.76588,-1.378566 1.48068,-1.838087 0.81693,-0.51058 1.63386,-1.021163 1.68492,-2.144438 0,-1.429625 -1.17433,-2.603957 -2.60396,-2.603957 -1.42962,0 -2.60396,1.174332 -2.60396,2.603957 0,0.306347 -0.20423,0.510579 -0.51058,0.510579 C 7.604234,9.1357 7.4,8.931468 7.4,8.625121 7.4,6.633857 9.033861,5 11.025121,5 c 1.99126,0 3.62512,1.633857 3.62512,3.625121 -0.10211,1.684912 -1.27645,2.450784 -2.14444,2.961366 -0.61269,0.357404 -0.9701,0.612694 -0.9701,0.970101 v 1.940205 c -0.0511,0.306348 -0.30634,0.561638 -0.56163,0.561638 z m 0,1.276452 m -0.66376,0 a 0.66375433,0.66375433 0 1 0 1.3275,0 0.66375433,0.66375433 0 1 0 -1.3275,0 z"
       id="path4-5-3-7-3-3-3"
       style="fill:#ffffff;fill-opacity:1;stroke-width:0.0119669;enable-background:new" />
  </g>
</svg>
