<?xml version="1.0" encoding="UTF-8" standalone="no"?>
<svg
   id="svg4306"
   width="22"
   height="22"
   version="1.1"
   style="enable-background:new"
   sodipodi:docname="maximize.svg"
   inkscape:version="1.1.1 (3bf5ae0d25, 2021-09-20)"
   xmlns:inkscape="http://www.inkscape.org/namespaces/inkscape"
   xmlns:sodipodi="http://sodipodi.sourceforge.net/DTD/sodipodi-0.dtd"
   xmlns="http://www.w3.org/2000/svg"
   xmlns:svg="http://www.w3.org/2000/svg"
   xmlns:rdf="http://www.w3.org/1999/02/22-rdf-syntax-ns#"
   xmlns:cc="http://creativecommons.org/ns#"
   xmlns:dc="http://purl.org/dc/elements/1.1/">
  <g
     id="pressed-inactive-center">
    <rect
       style="opacity:0.00100002;fill:#000000;fill-opacity:1;fill-rule:nonzero;stroke:none;stroke-width:2;stroke-linecap:round;stroke-linejoin:round;stroke-miterlimit:4;stroke-dasharray:none;stroke-opacity:1"
       y="0"
       x="0"
       height="22"
       width="22"
       id="rect4266-3-6-5" />
    <path
       id="path839-3-9"
       style="fill:#2b4254;fill-opacity:1;stroke-width:1.125;enable-background:new"
       d="M 11.000001,2 C 6.02953,2 2,6.029441 2,10.999998 2,15.970557 6.02953,20 11.000001,20 c 4.97048,0 9,-4.029443 9,-9.000002 0,-4.970557 -4.02952,-8.999998 -9,-8.999998 z m 0,1.125 c 4.34919,0 7.875,3.525746 7.875,7.874998 0,4.349234 -3.52581,7.875002 -7.875,7.875002 C 6.6508,18.875 3.125,15.349232 3.125,10.999998 3.125,6.650746 6.6508,3.125 11.000001,3.125 Z m 0,0 z"
       sodipodi:nodetypes="ssssssssssccccc" />
    <rect
       style="fill:#00b286;fill-opacity:1;stroke:none;stroke-width:0.39374;enable-background:new"
       id="center-3-35-5-1"
       width="15.749992"
       height="15.749992"
       x="3.1250041"
       y="3.1249998"
       ry="7.8749838" />
    <path
       d="M 16.324041,13.793844 A 0.42633574,0.42718826 0 0 1 16.022762,13.668529 L 10.994839,8.6305621 5.9669223,13.668529 A 0.42633574,0.42718826 0 0 1 5.3643683,13.064777 L 10.69357,7.7249279 a 0.42633574,0.42718826 0 0 1 0.602545,0 l 5.329202,5.3398491 a 0.42633574,0.42718826 0 0 1 -0.301276,0.729067 z"
       id="path4-3-1-3-27"
       style="fill:#ffffff;fill-opacity:1;stroke-width:0.142247;enable-background:new" />
  </g>
  <g
     id="pressed-center"
     transform="translate(0,-22)">
    <rect
       id="rect4266-3-6"
       width="22"
       height="22"
       x="0"
       y="0"
       style="opacity:0.00100002;fill:#000000;fill-opacity:1;fill-rule:nonzero;stroke:none;stroke-width:2;stroke-linecap:round;stroke-linejoin:round;stroke-miterlimit:4;stroke-dasharray:none;stroke-opacity:1" />
    <path
       id="path839-3-3"
       style="fill:#2b4254;fill-opacity:1;stroke-width:1.125;enable-background:new"
       d="M 11.000001,2 C 6.02953,2 2,6.029441 2,10.999998 2,15.970557 6.02953,20 11.000001,20 c 4.97048,0 9,-4.029443 9,-9.000002 0,-4.970557 -4.02952,-8.999998 -9,-8.999998 z m 0,1.125 c 4.34919,0 7.875,3.525746 7.875,7.874998 0,4.349234 -3.52581,7.875002 -7.875,7.875002 C 6.6508,18.875 3.125,15.349232 3.125,10.999998 3.125,6.650746 6.6508,3.125 11.000001,3.125 Z m 0,0 z"
       sodipodi:nodetypes="ssssssssssccccc" />
    <rect
       style="fill:#00b286;fill-opacity:1;stroke:none;stroke-width:0.39374;enable-background:new"
       id="center-3-35-5-5"
       width="15.749992"
       height="15.749992"
       x="3.125"
       y="3.1250017"
       ry="7.8749838" />
    <path
       d="M 16.324042,13.793847 A 0.4263359,0.42718847 0 0 1 16.022763,13.668533 L 10.994838,8.6305634 5.9669195,13.668533 A 0.4263359,0.42718847 0 0 1 5.3643654,13.064781 L 10.693569,7.7249288 a 0.4263359,0.42718847 0 0 1 0.602547,0 l 5.329203,5.3398522 a 0.4263359,0.42718847 0 0 1 -0.301277,0.729066 z"
       id="path4-3-1-3-6"
       style="fill:#ffffff;fill-opacity:1;stroke-width:0.142247;enable-background:new" />
  </g>
  <metadata
     id="metadata28">
    <rdf:RDF>
      <cc:Work
         rdf:about="">
        <dc:format>image/svg+xml</dc:format>
        <dc:type
           rdf:resource="http://purl.org/dc/dcmitype/StillImage" />
      </cc:Work>
    </rdf:RDF>
  </metadata>
  <defs
     id="defs26" />
  <sodipodi:namedview
     inkscape:document-rotation="0"
     pagecolor="#ffffff"
     bordercolor="#666666"
     borderopacity="1"
     objecttolerance="10"
     gridtolerance="10"
     guidetolerance="10"
     inkscape:pageopacity="0"
     inkscape:pageshadow="2"
     inkscape:window-width="1920"
     inkscape:window-height="1015"
     id="namedview24"
     showgrid="true"
     inkscape:zoom="8.0000004"
     inkscape:cx="-11.374999"
     inkscape:cy="-0.31249999"
     inkscape:window-x="0"
     inkscape:window-y="0"
     inkscape:window-maximized="1"
     inkscape:current-layer="svg4306"
     inkscape:snap-bbox="true"
     inkscape:bbox-nodes="true"
     inkscape:lockguides="true"
     inkscape:pagecheckerboard="0">
    <inkscape:grid
       type="xygrid"
       id="grid853"
       originx="-44"
       originy="-22" />
  </sodipodi:namedview>
  <style
     type="text/css"
     id="current-color-scheme" />
  <g
     id="active-center"
     transform="translate(-44,-22)">
    <rect
       id="rect4266"
       width="22"
       height="22"
       x="0"
       y="0"
       style="opacity:0.00100002;fill:#000000;fill-opacity:1;fill-rule:nonzero;stroke:none;stroke-width:2;stroke-linecap:round;stroke-linejoin:round;stroke-miterlimit:4;stroke-dasharray:none;stroke-opacity:1" />
    <path
       id="path839-3"
       style="fill:#2b4254;fill-opacity:1;stroke-width:1.125;enable-background:new"
       d="M 11.000001,2 C 6.02953,2 2,6.029441 2,10.999998 2,15.970557 6.02953,20 11.000001,20 c 4.97048,0 9,-4.029443 9,-9.000002 0,-4.970557 -4.02952,-8.999998 -9,-8.999998 z m 0,1.125 c 4.34919,0 7.875,3.525746 7.875,7.874998 0,4.349234 -3.52581,7.875002 -7.875,7.875002 C 6.6508,18.875 3.125,15.349232 3.125,10.999998 3.125,6.650746 6.6508,3.125 11.000001,3.125 Z m 0,0 z"
       sodipodi:nodetypes="ssssssssssccccc" />
    <rect
       style="fill:#4e5a7e;fill-opacity:0.65;stroke:none;stroke-width:0.39374;enable-background:new"
       id="center-3-35-5"
       width="15.749992"
       height="15.749992"
       x="3.1250017"
       y="3.1250014"
       ry="7.8749838" />
    <path
       d="M 16.324043,13.781467 A 0.42633487,0.42633487 0 0 1 16.022768,13.656408 L 10.994855,8.6285027 5.966947,13.656408 A 0.42633487,0.42633487 0 0 1 5.3643946,13.053858 L 10.693586,7.7246774 a 0.42633487,0.42633487 0 0 1 0.602542,0 l 5.329191,5.3291806 a 0.42633487,0.42633487 0 0 1 -0.301276,0.727609 z"
       id="path4-3-1-3"
       style="fill:#ffffff;fill-opacity:1;stroke-width:0.142105;enable-background:new" />
  </g>
  <g
     id="hover-center"
     transform="translate(-22,-22)">
    <rect
       style="opacity:0.00100002;fill:#000000;fill-opacity:1;fill-rule:nonzero;stroke:none;stroke-width:2;stroke-linecap:round;stroke-linejoin:round;stroke-miterlimit:4;stroke-dasharray:none;stroke-opacity:1"
       y="0"
       x="0"
       height="22"
       width="22"
       id="rect4266-3" />
    <path
       id="path839-3-6"
       style="fill:#2b4254;fill-opacity:1;stroke-width:1.125;enable-background:new"
       d="M 11,2 C 6.029529,2 1.999999,6.029441 1.999999,10.999998 1.999999,15.970557 6.029529,20 11,20 15.97048,20 20,15.970557 20,10.999998 20,6.029441 15.97048,2 11,2 Z m 0,1.125 c 4.34919,0 7.875,3.525746 7.875,7.874998 C 18.875,15.349232 15.34919,18.875 11,18.875 6.650799,18.875 3.124999,15.349232 3.124999,10.999998 3.124999,6.650746 6.650799,3.125 11,3.125 Z m 0,0 z"
       sodipodi:nodetypes="ssssssssssccccc" />
    <rect
       style="fill:#00b285;fill-opacity:0.6;stroke:none;stroke-width:0.39374;enable-background:new"
       id="center-3-35-5-7"
       width="15.749992"
       height="15.749992"
       x="3.125001"
       y="3.1250017"
       ry="7.8749838" />
    <path
       d="M 16.324039,13.781483 A 0.42633578,0.42633578 0 0 1 16.022761,13.656418 L 10.994838,8.6285055 5.9669207,13.656418 A 0.42633578,0.42633578 0 0 1 5.3643667,13.053871 L 10.693569,7.7246786 a 0.42633578,0.42633578 0 0 1 0.602545,0 l 5.329202,5.3291924 a 0.42633578,0.42633578 0 0 1 -0.301277,0.727612 z"
       id="path4-3-1-3-5"
       style="fill:#ffffff;fill-opacity:1;stroke-width:0.142105;enable-background:new" />
  </g>
  <g
     id="hover-inactive-center"
     transform="translate(-22)">
    <rect
       id="rect4266-3-67"
       width="22"
       height="22"
       x="0"
       y="0"
       style="opacity:0.00100002;fill:#000000;fill-opacity:1;fill-rule:nonzero;stroke:none;stroke-width:2;stroke-linecap:round;stroke-linejoin:round;stroke-miterlimit:4;stroke-dasharray:none;stroke-opacity:1" />
    <path
       id="path839-3-36"
       style="fill:#2b4254;fill-opacity:1;stroke-width:1.125;enable-background:new"
       d="M 11.000001,2 C 6.02953,2 2,6.029441 2,10.999998 2,15.970557 6.02953,20 11.000001,20 15.97048,20 20,15.970557 20,10.999998 20,6.029441 15.970481,2 11.000001,2 Z m 0,1.125 c 4.34919,0 7.874999,3.525746 7.874999,7.874998 0,4.349234 -3.525809,7.875002 -7.874999,7.875002 C 6.6508,18.875 3.125,15.349232 3.125,10.999998 3.125,6.650746 6.6508,3.125 11.000001,3.125 Z m 0,0 z"
       sodipodi:nodetypes="ssssssssssccccc" />
    <rect
       style="fill:#00b285;fill-opacity:0.6;stroke:none;stroke-width:0.39374;enable-background:new"
       id="center-3-35-5-75"
       width="15.749992"
       height="15.749992"
       x="3.1250002"
       y="3.125"
       ry="7.8749838" />
    <path
       d="M 16.324041,13.793844 A 0.42633574,0.42718826 0 0 1 16.022762,13.668529 L 10.99484,8.6305621 5.9669223,13.668529 A 0.42633574,0.42718826 0 0 1 5.3643683,13.064777 L 10.693571,7.7249279 a 0.42633574,0.42718826 0 0 1 0.602545,0 l 5.329201,5.3398491 a 0.42633574,0.42718826 0 0 1 -0.301276,0.729067 z"
       id="path4-3-1-3-3"
       style="fill:#ffffff;fill-opacity:1;stroke-width:0.142247;enable-background:new" />
  </g>
  <g
     id="inactive-center"
     transform="translate(-44)">
    <rect
       style="opacity:0.00100002;fill:#000000;fill-opacity:1;fill-rule:nonzero;stroke:none;stroke-width:2;stroke-linecap:round;stroke-linejoin:round;stroke-miterlimit:4;stroke-dasharray:none;stroke-opacity:1"
       y="0"
       x="0"
       height="22"
       width="22"
       id="rect4266-9" />
    <path
       id="path839-3-5"
       style="fill:#2b4254;fill-opacity:1;stroke-width:1.125;enable-background:new"
       d="M 11.000001,2 C 6.02953,2 2,6.029441 2,10.999998 2,15.970557 6.02953,20 11.000001,20 c 4.97048,0 9,-4.029443 9,-9.000002 0,-4.970557 -4.02952,-8.999998 -9,-8.999998 z m 0,1.125 c 4.34919,0 7.875,3.525746 7.875,7.874998 0,4.349234 -3.52581,7.875002 -7.875,7.875002 C 6.6508,18.875 3.125,15.349232 3.125,10.999998 3.125,6.650746 6.6508,3.125 11.000001,3.125 Z m 0,0 z"
       sodipodi:nodetypes="ssssssssssccccc" />
    <rect
       style="fill:#4e5a7e;fill-opacity:0.65098;stroke:none;stroke-width:0.39374;enable-background:new"
       id="center-3-35-5-6"
       width="15.749992"
       height="15.749992"
       x="3.124999"
       y="3.1250017"
       ry="7.8749838" />
    <path
       d="M 16.324039,13.781483 A 0.42633578,0.42633578 0 0 1 16.022761,13.656418 L 10.994838,8.6285055 5.9669207,13.656418 A 0.42633578,0.42633578 0 0 1 5.3643667,13.053871 L 10.693569,7.7246786 a 0.42633578,0.42633578 0 0 1 0.602545,0 l 5.329202,5.3291924 a 0.42633578,0.42633578 0 0 1 -0.301277,0.727612 z"
       id="path4-3-1-3-2"
       style="fill:#ffffff;fill-opacity:0.6;stroke-width:0.142105;enable-background:new" />
  </g>
</svg>
