<?xml version="1.0" encoding="UTF-8" standalone="no"?>
<svg
   id="svg4306"
   width="22"
   height="22"
   version="1.1"
   style="enable-background:new"
   sodipodi:docname="restore.svg"
   inkscape:version="1.1.1 (3bf5ae0d25, 2021-09-20)"
   xmlns:inkscape="http://www.inkscape.org/namespaces/inkscape"
   xmlns:sodipodi="http://sodipodi.sourceforge.net/DTD/sodipodi-0.dtd"
   xmlns="http://www.w3.org/2000/svg"
   xmlns:svg="http://www.w3.org/2000/svg"
   xmlns:rdf="http://www.w3.org/1999/02/22-rdf-syntax-ns#"
   xmlns:cc="http://creativecommons.org/ns#"
   xmlns:dc="http://purl.org/dc/elements/1.1/">
  <g
     id="pressed-inactive-center">
    <rect
       style="opacity:0.00100002;fill:#000000;fill-opacity:1;fill-rule:nonzero;stroke:none;stroke-width:2;stroke-linecap:round;stroke-linejoin:round;stroke-miterlimit:4;stroke-dasharray:none;stroke-opacity:1"
       y="0"
       x="0"
       height="22"
       width="22"
       id="rect4266-3-6-5" />
    <path
       id="path839-3-36-3"
       style="fill:#2b4254;fill-opacity:1;stroke-width:1.125;enable-background:new"
       d="M 11,2 C 6.02953,2 2,6.029441 2,10.999998 2,15.970557 6.02953,20 11,20 15.970479,20 19.999999,15.970557 19.999999,10.999998 19.999999,6.029441 15.970479,2 11,2 Z m 0,1.125 c 4.349189,0 7.874999,3.525746 7.874999,7.874998 0,4.349234 -3.52581,7.875002 -7.874999,7.875002 -4.3492,0 -7.875,-3.525768 -7.875,-7.875002 C 3.125,6.650746 6.6508,3.125 11,3.125 Z m 0,0 z"
       sodipodi:nodetypes="ssssssssssccccc" />
    <rect
       style="fill:#00b2b2;fill-opacity:1;stroke:none;stroke-width:0.39374;enable-background:new"
       id="center-3-35-5-7-6"
       width="15.749992"
       height="15.749992"
       x="3.1250026"
       y="3.125001"
       ry="7.8749838" />
    <path
       d="m 4.932359,10.000001 a 0.48278834,0.48278835 0 0 1 0.341175,0.141622 l 5.693686,5.693682 5.693679,-5.693682 a 0.48278834,0.48278835 0 0 1 0.68234,0.682335 l -6.034859,6.034853 a 0.48278834,0.48278835 0 0 1 -0.68233,0 L 4.591192,10.823958 a 0.48278834,0.48278835 0 0 1 0.341167,-0.823957 z"
       id="path4-3-3-5-2-3-7"
       style="fill:#ffffff;fill-opacity:1;stroke-width:0.160926;enable-background:new" />
    <path
       d="m 16.990409,12.000001 a 0.48278834,0.48278835 0 0 1 -0.34118,-0.141622 L 10.95555,6.164698 5.261863,11.858379 A 0.48278834,0.48278835 0 0 1 4.579524,11.176044 l 6.034858,-6.034852 a 0.48278834,0.48278835 0 0 1 0.682338,0 l 6.034849,6.034852 a 0.48278834,0.48278835 0 0 1 -0.34116,0.823957 z"
       id="path4-36-6-3-6-6-53"
       style="fill:#ffffff;fill-opacity:1;stroke-width:0.160926;enable-background:new" />
  </g>
  <g
     id="hover-inactive-center"
     transform="translate(-22)">
    <rect
       id="rect4266-3-67"
       width="22"
       height="22"
       x="0"
       y="0"
       style="opacity:0.00100002;fill:#000000;fill-opacity:1;fill-rule:nonzero;stroke:none;stroke-width:2;stroke-linecap:round;stroke-linejoin:round;stroke-miterlimit:4;stroke-dasharray:none;stroke-opacity:1" />
    <path
       id="path839-3-36-70"
       style="fill:#2b4254;fill-opacity:1;stroke-width:1.125;enable-background:new"
       d="M 11,2 C 6.02953,2 2,6.029441 2,10.999998 2,15.970557 6.02953,20 11,20 15.97048,20 20,15.970557 20,10.999998 20,6.029441 15.97048,2 11,2 Z m 0,1.125 c 4.34919,0 7.875,3.525746 7.875,7.874998 C 18.875,15.349232 15.34919,18.875 11,18.875 6.6508,18.875 3.125,15.349232 3.125,10.999998 3.125,6.650746 6.6508,3.125 11,3.125 Z m 0,0 z"
       sodipodi:nodetypes="ssssssssssccccc" />
    <rect
       style="fill:#00b8b8;fill-opacity:0.60000002;stroke:none;stroke-width:0.39374;enable-background:new"
       id="center-3-35-5-7-9"
       width="15.749992"
       height="15.749992"
       x="3.1249983"
       y="3.1249998"
       ry="7.8749838" />
    <path
       d="m 4.93236,10.000001 a 0.48278834,0.48278835 0 0 1 0.34117,0.141622 l 5.69369,5.693682 5.69368,-5.693682 a 0.48278834,0.48278835 0 0 1 0.68234,0.682335 l -6.03486,6.034853 a 0.48278834,0.48278835 0 0 1 -0.68233,0 L 4.59119,10.823958 a 0.48278834,0.48278835 0 0 1 0.34117,-0.823957 z"
       id="path4-3-3-5-2-3-36"
       style="fill:#ffffff;fill-opacity:1;stroke-width:0.160926;enable-background:new" />
    <path
       d="M 16.99041,12.000001 A 0.48278834,0.48278835 0 0 1 16.64923,11.858379 L 10.95555,6.164698 5.26186,11.858379 A 0.48278834,0.48278835 0 0 1 4.57952,11.176044 l 6.03486,-6.034852 a 0.48278834,0.48278835 0 0 1 0.68234,0 l 6.03485,6.034852 a 0.48278834,0.48278835 0 0 1 -0.34116,0.823957 z"
       id="path4-36-6-3-6-6-0"
       style="fill:#ffffff;fill-opacity:1;stroke-width:0.160926;enable-background:new" />
  </g>
  <g
     id="pressed-center"
     transform="translate(0,-22)">
    <rect
       id="rect4266-3-6"
       width="22"
       height="22"
       x="0"
       y="0"
       style="opacity:0.00100002;fill:#000000;fill-opacity:1;fill-rule:nonzero;stroke:none;stroke-width:2;stroke-linecap:round;stroke-linejoin:round;stroke-miterlimit:4;stroke-dasharray:none;stroke-opacity:1" />
    <path
       id="path839-3-36-6"
       style="fill:#2b4254;fill-opacity:1;stroke-width:1.125;enable-background:new"
       d="m 11,1.999999 c -4.97047,0 -9,4.029441 -9,8.999998 0,4.970559 4.02953,9.000002 9,9.000002 4.970481,0 9.000001,-4.029443 9.000001,-9.000002 0,-4.970557 -4.02952,-8.999998 -9.000001,-8.999998 z m 0,1.125 c 4.349191,0 7.875001,3.525746 7.875001,7.874998 0,4.349234 -3.52581,7.875002 -7.875001,7.875002 -4.3492,0 -7.875,-3.525768 -7.875,-7.875002 0,-4.349252 3.5258,-7.874998 7.875,-7.874998 z m 0,0 z"
       sodipodi:nodetypes="ssssssssssccccc" />
    <rect
       style="fill:#00b2b2;fill-opacity:1;stroke:none;stroke-width:0.39374;enable-background:new"
       id="center-3-35-5-7-2"
       width="15.749992"
       height="15.749992"
       x="3.125"
       y="3.124999"
       ry="7.8749838" />
    <path
       d="m 4.93236,10 a 0.48278834,0.48278835 0 0 1 0.341173,0.141622 l 5.693687,5.693682 5.69368,-5.693682 a 0.48278834,0.48278835 0 0 1 0.68234,0.682335 l -6.03486,6.034853 a 0.48278834,0.48278835 0 0 1 -0.68233,0 L 4.591191,10.823957 A 0.48278834,0.48278835 0 0 1 4.93236,10 Z"
       id="path4-3-3-5-2-3-9"
       style="fill:#ffffff;fill-opacity:1;stroke-width:0.160926;enable-background:new" />
    <path
       d="M 16.99041,12 A 0.48278834,0.48278835 0 0 1 16.64923,11.858378 L 10.95555,6.164697 5.261863,11.858378 a 0.48278834,0.48278835 0 0 1 -0.68234,-0.682335 l 6.034859,-6.034852 a 0.48278834,0.48278835 0 0 1 0.682338,0 l 6.03485,6.034852 A 0.48278834,0.48278835 0 0 1 16.99041,12 Z"
       id="path4-36-6-3-6-6-1"
       style="fill:#ffffff;fill-opacity:1;stroke-width:0.160926;enable-background:new" />
  </g>
  <metadata
     id="metadata28">
    <rdf:RDF>
      <cc:Work
         rdf:about="">
        <dc:format>image/svg+xml</dc:format>
        <dc:type
           rdf:resource="http://purl.org/dc/dcmitype/StillImage" />
      </cc:Work>
    </rdf:RDF>
  </metadata>
  <defs
     id="defs26" />
  <sodipodi:namedview
     inkscape:document-rotation="0"
     pagecolor="#ffffff"
     bordercolor="#666666"
     borderopacity="1"
     objecttolerance="10"
     gridtolerance="10"
     guidetolerance="10"
     inkscape:pageopacity="0"
     inkscape:pageshadow="2"
     inkscape:window-width="1920"
     inkscape:window-height="1015"
     id="namedview24"
     showgrid="true"
     inkscape:zoom="5.6568543"
     inkscape:cx="-6.5407377"
     inkscape:cy="5.3916892"
     inkscape:window-x="0"
     inkscape:window-y="0"
     inkscape:window-maximized="1"
     inkscape:current-layer="svg4306"
     inkscape:snap-bbox="true"
     inkscape:bbox-nodes="true"
     inkscape:lockguides="false"
     inkscape:pagecheckerboard="0">
    <inkscape:grid
       type="xygrid"
       id="grid853"
       originx="-44"
       originy="-22" />
  </sodipodi:namedview>
  <style
     type="text/css"
     id="current-color-scheme" />
  <g
     id="active-center"
     transform="translate(-44,-22)">
    <rect
       id="rect4266"
       width="22"
       height="22"
       x="0"
       y="0"
       style="opacity:0.00100002;fill:#000000;fill-opacity:1;fill-rule:nonzero;stroke:none;stroke-width:2;stroke-linecap:round;stroke-linejoin:round;stroke-miterlimit:4;stroke-dasharray:none;stroke-opacity:1" />
    <path
       id="path839-3-36"
       style="fill:#2b4254;fill-opacity:1;stroke-width:1.125;enable-background:new"
       d="M 11,2 C 6.02953,2 2,6.029441 2,10.999998 2,15.970557 6.02953,20 11,20 15.970481,20 20.000001,15.970557 20.000001,10.999998 20.000001,6.029441 15.970481,2 11,2 Z m 0,1.125 c 4.349191,0 7.875001,3.525746 7.875001,7.874998 0,4.349234 -3.52581,7.875002 -7.875001,7.875002 -4.3492,0 -7.875,-3.525768 -7.875,-7.875002 C 3.125,6.650746 6.6508,3.125 11,3.125 Z m 0,0 z"
       sodipodi:nodetypes="ssssssssssccccc" />
    <rect
       style="fill:#4e5a7e;fill-opacity:0.65098;stroke:none;stroke-width:0.39374;enable-background:new"
       id="center-3-35-5-7"
       width="15.749992"
       height="15.749992"
       x="3.1250012"
       y="3.1250002"
       ry="7.8749838" />
    <path
       d="m 4.9323595,10.000001 a 0.48278834,0.48278835 0 0 1 0.341174,0.141622 l 5.6936865,5.693682 5.69368,-5.693682 a 0.48278834,0.48278835 0 0 1 0.68234,0.682335 l -6.03486,6.034853 a 0.48278834,0.48278835 0 0 1 -0.68233,0 L 4.5911915,10.823958 a 0.48278834,0.48278835 0 0 1 0.341168,-0.823957 z"
       id="path4-3-3-5-2-3"
       style="fill:#ffffff;fill-opacity:1;stroke-width:0.160926;enable-background:new" />
    <path
       d="M 16.99041,12.000001 A 0.48278834,0.48278835 0 0 1 16.64923,11.858379 L 10.95555,6.1646977 5.2618625,11.858379 A 0.48278834,0.48278835 0 0 1 4.5795235,11.176044 L 10.614382,5.1411917 a 0.48278834,0.48278835 0 0 1 0.682338,0 l 6.03485,6.0348523 a 0.48278834,0.48278835 0 0 1 -0.34116,0.823957 z"
       id="path4-36-6-3-6-6"
       style="fill:#ffffff;fill-opacity:1;stroke-width:0.160926;enable-background:new" />
  </g>
  <g
     id="hover-center"
     transform="translate(-22,-22)">
    <rect
       style="opacity:0.00100002;fill:#000000;fill-opacity:1;fill-rule:nonzero;stroke:none;stroke-width:2;stroke-linecap:round;stroke-linejoin:round;stroke-miterlimit:4;stroke-dasharray:none;stroke-opacity:1"
       y="0"
       x="0"
       height="22"
       width="22"
       id="rect4266-3" />
    <path
       id="path839-3-36-7"
       style="fill:#2b4254;fill-opacity:1;stroke-width:1.125;enable-background:new"
       d="M 11,2 C 6.02953,2 2,6.029441 2,10.999998 2,15.970557 6.02953,20 11,20 15.970481,20 20.000001,15.970557 20.000001,10.999998 20.000001,6.029441 15.970481,2 11,2 Z m 0,1.125 c 4.349191,0 7.875001,3.525746 7.875001,7.874998 0,4.349234 -3.52581,7.875002 -7.875001,7.875002 -4.3492,0 -7.875,-3.525768 -7.875,-7.875002 C 3.125,6.650746 6.6508,3.125 11,3.125 Z m 0,0 z"
       sodipodi:nodetypes="ssssssssssccccc" />
    <rect
       style="fill:#00b2b2;fill-opacity:0.60000002;stroke:none;stroke-width:0.39374;enable-background:new"
       id="center-3-35-5-7-5"
       width="15.749992"
       height="15.749992"
       x="3.1250019"
       y="3.125"
       ry="7.8749838" />
    <path
       d="m 4.932359,10.000001 a 0.48278834,0.48278835 0 0 1 0.341174,0.141622 l 5.693687,5.693682 5.69368,-5.693682 a 0.48278834,0.48278835 0 0 1 0.68234,0.682335 l -6.03486,6.034853 a 0.48278834,0.48278835 0 0 1 -0.68233,0 L 4.591191,10.823958 a 0.48278834,0.48278835 0 0 1 0.341168,-0.823957 z"
       id="path4-3-3-5-2-3-3"
       style="fill:#ffffff;fill-opacity:1;stroke-width:0.160926;enable-background:new" />
    <path
       d="M 16.99041,12.000001 A 0.48278834,0.48278835 0 0 1 16.64923,11.858379 L 10.95555,6.164698 5.261862,11.858379 A 0.48278834,0.48278835 0 0 1 4.579523,11.176044 l 6.034859,-6.034852 a 0.48278834,0.48278835 0 0 1 0.682338,0 l 6.03485,6.034852 a 0.48278834,0.48278835 0 0 1 -0.34116,0.823957 z"
       id="path4-36-6-3-6-6-5"
       style="fill:#ffffff;fill-opacity:1;stroke-width:0.160926;enable-background:new" />
  </g>
  <g
     id="inactive-center"
     transform="translate(-44)">
    <rect
       style="opacity:0.00100002;fill:#000000;fill-opacity:1;fill-rule:nonzero;stroke:none;stroke-width:2;stroke-linecap:round;stroke-linejoin:round;stroke-miterlimit:4;stroke-dasharray:none;stroke-opacity:1"
       y="0"
       x="0"
       height="22"
       width="22"
       id="rect4266-9" />
    <path
       id="path839-3-36-5"
       style="fill:#2b4254;fill-opacity:1;stroke-width:1.125;enable-background:new"
       d="M 11,2 C 6.02953,2 2,6.029441 2,10.999998 2,15.970557 6.02953,20 11,20 15.970481,20 20.000001,15.970557 20.000001,10.999998 20.000001,6.029441 15.970481,2 11,2 Z m 0,1.125 c 4.349191,0 7.875001,3.525746 7.875001,7.874998 0,4.349234 -3.52581,7.875002 -7.875001,7.875002 -4.3492,0 -7.875,-3.525768 -7.875,-7.875002 C 3.125,6.650746 6.6508,3.125 11,3.125 Z m 0,0 z"
       sodipodi:nodetypes="ssssssssssccccc" />
    <rect
       style="fill:#4e5a7e;fill-opacity:0.65098;stroke:none;stroke-width:0.39374;enable-background:new"
       id="center-3-35-5-7-62"
       width="15.749992"
       height="15.749992"
       x="3.125"
       y="3.125"
       ry="7.8749838" />
    <path
       d="m 4.932359,10.000001 a 0.48278834,0.48278835 0 0 1 0.341175,0.141622 l 5.693686,5.693682 5.69368,-5.693682 a 0.48278834,0.48278835 0 0 1 0.68234,0.682335 l -6.03486,6.034853 a 0.48278834,0.48278835 0 0 1 -0.68233,0 L 4.591192,10.823958 a 0.48278834,0.48278835 0 0 1 0.341167,-0.823957 z"
       id="path4-3-3-5-2-3-91"
       style="fill:#ffffff;fill-opacity:0.60000002;stroke-width:0.160926;enable-background:new" />
    <path
       d="M 16.99041,12.000001 A 0.48278834,0.48278835 0 0 1 16.64923,11.858379 L 10.95555,6.164698 5.261863,11.858379 A 0.48278834,0.48278835 0 0 1 4.579524,11.176044 l 6.034858,-6.034852 a 0.48278834,0.48278835 0 0 1 0.682338,0 l 6.03485,6.034852 a 0.48278834,0.48278835 0 0 1 -0.34116,0.823957 z"
       id="path4-36-6-3-6-6-2"
       style="fill:#ffffff;fill-opacity:0.60000002;stroke-width:0.160926;enable-background:new" />
  </g>
</svg>
